G04 #@! TF.GenerationSoftware,KiCad,Pcbnew,8.0.6*
G04 #@! TF.CreationDate,2024-11-07T02:26:58-08:00*
G04 #@! TF.ProjectId,hvd-68-hd,6876642d-3638-42d6-9864-2e6b69636164,1*
G04 #@! TF.SameCoordinates,Original*
G04 #@! TF.FileFunction,Copper,L2,Inr*
G04 #@! TF.FilePolarity,Positive*
%FSLAX46Y46*%
G04 Gerber Fmt 4.6, Leading zero omitted, Abs format (unit mm)*
G04 Created by KiCad (PCBNEW 8.0.6) date 2024-11-07 02:26:58*
%MOMM*%
%LPD*%
G01*
G04 APERTURE LIST*
%ADD10C,0.300000*%
G04 #@! TA.AperFunction,NonConductor*
%ADD11C,0.300000*%
G04 #@! TD*
G04 #@! TA.AperFunction,ComponentPad*
%ADD12C,1.200000*%
G04 #@! TD*
G04 #@! TA.AperFunction,ComponentPad*
%ADD13C,6.400000*%
G04 #@! TD*
G04 #@! TA.AperFunction,ComponentPad*
%ADD14C,1.850000*%
G04 #@! TD*
G04 #@! TA.AperFunction,ViaPad*
%ADD15C,0.450000*%
G04 #@! TD*
G04 APERTURE END LIST*
D10*
D11*
X-1856315Y13271430D02*
X-1927743Y13342858D01*
X-1927743Y13342858D02*
X-1999172Y13485715D01*
X-1999172Y13485715D02*
X-1999172Y13842858D01*
X-1999172Y13842858D02*
X-1927743Y13985715D01*
X-1927743Y13985715D02*
X-1856315Y14057144D01*
X-1856315Y14057144D02*
X-1713458Y14128573D01*
X-1713458Y14128573D02*
X-1570600Y14128573D01*
X-1570600Y14128573D02*
X-1356315Y14057144D01*
X-1356315Y14057144D02*
X-499172Y13200001D01*
X-499172Y13200001D02*
X-499172Y14128573D01*
D12*
G04 #@! TO.N,GND*
G04 #@! TO.C,J4*
X-52199999Y24579001D03*
X-35690000Y26484001D03*
X-33150000Y26484001D03*
X-21719998Y24579000D03*
X-52200000Y28389000D03*
X-39500000Y28389000D03*
X-35690000Y30294000D03*
X-33150000Y30294000D03*
X-21720000Y28388999D03*
G04 #@! TD*
D13*
G04 #@! TO.N,GND*
G04 #@! TO.C,H4*
X-4000000Y4000000D03*
G04 #@! TD*
D14*
G04 #@! TO.N,GND*
G04 #@! TO.C,J3*
X-72440000Y13470000D03*
G04 #@! TD*
D13*
G04 #@! TO.N,GND*
G04 #@! TO.C,H3*
X-71000000Y4000000D03*
G04 #@! TD*
D15*
G04 #@! TO.N,GND*
X-20300000Y5400000D03*
X-22700000Y1800000D03*
X-49100000Y1800000D03*
X-53900000Y1000000D03*
X-29900000Y2600000D03*
X-39500000Y6200000D03*
X-25100000Y3200000D03*
X-17900000Y3200000D03*
X-39500000Y1800000D03*
X-22700000Y3200000D03*
X-44300000Y7000000D03*
X-49100000Y6200000D03*
X-37100000Y3200000D03*
X-64650000Y4000000D03*
X-46700000Y6200000D03*
X-51500000Y2600000D03*
X-27500000Y2600000D03*
X-39500000Y7000000D03*
X-32300000Y1800000D03*
X-53900000Y5400000D03*
X-20300000Y1800000D03*
X-53900000Y2600000D03*
X-37100000Y5400000D03*
X-63600000Y4000000D03*
X-25100000Y7000000D03*
X-39500000Y5400000D03*
X-33900000Y1000000D03*
X-41900000Y1000000D03*
X-64100000Y4500000D03*
X-33900000Y2600000D03*
X-49100000Y2600000D03*
X-33900000Y6200000D03*
X-51500000Y5400000D03*
X-44300000Y6200000D03*
X-27500000Y6200000D03*
X-39500000Y1000000D03*
X-25100000Y1800000D03*
X-41900000Y7000000D03*
X-53900000Y7000000D03*
X-41900000Y6200000D03*
X-44300000Y3200000D03*
X-27500000Y5400000D03*
X-54700000Y6200000D03*
X-29900000Y1000000D03*
X-49100000Y3200000D03*
X-20300000Y1000000D03*
X-53900000Y1800000D03*
X-51500000Y6200000D03*
X-20300000Y2600000D03*
X-39500000Y3200000D03*
X-22700000Y1000000D03*
X-44300000Y5400000D03*
X-33900000Y1800000D03*
X-32300000Y5400000D03*
X-46700000Y3200000D03*
X-20300000Y6200000D03*
X-37100000Y6200000D03*
X-25100000Y2600000D03*
X-37100000Y7000000D03*
X-39500000Y2600000D03*
X-25100000Y6200000D03*
X-33900000Y7000000D03*
X-51500000Y7000000D03*
X-54700000Y7000000D03*
X-29900000Y7000000D03*
X-44300000Y1800000D03*
X-22700000Y2600000D03*
X-17900000Y5400000D03*
X-41900000Y2600000D03*
X-17900000Y7000000D03*
X-44300000Y1000000D03*
X-32300000Y7000000D03*
X-51500000Y1800000D03*
X-54700000Y5400000D03*
X-22700000Y6200000D03*
X-57100000Y5400000D03*
X-37100000Y1800000D03*
X-27500000Y3200000D03*
X-46700000Y1000000D03*
X-25100000Y1000000D03*
X-32300000Y2600000D03*
X-44300000Y2600000D03*
X-29900000Y3200000D03*
X-46700000Y5400000D03*
X-32300000Y3200000D03*
X-54700000Y1800000D03*
X-22700000Y7000000D03*
X-46700000Y2600000D03*
X-37100000Y1000000D03*
X-37100000Y2600000D03*
X-51500000Y3200000D03*
X-51500000Y1000000D03*
X-41900000Y3200000D03*
X-17900000Y1000000D03*
X-20300000Y7000000D03*
X-57100000Y6200000D03*
X-32300000Y1000000D03*
X-33900000Y5400000D03*
X-46700000Y1800000D03*
X-29900000Y5400000D03*
X-27500000Y1800000D03*
X-41900000Y1800000D03*
X-53900000Y6200000D03*
X-41900000Y5400000D03*
X-29900000Y6200000D03*
X-49100000Y5400000D03*
X-53900000Y3200000D03*
X-54700000Y2600000D03*
X-49100000Y7000000D03*
X-49100000Y1000000D03*
X-33900000Y3200000D03*
X-20300000Y3200000D03*
X-46700000Y7000000D03*
X-29900000Y1800000D03*
X-25100000Y5400000D03*
X-64100000Y3500000D03*
X-32300000Y6200000D03*
X-17900000Y6200000D03*
X-27500000Y1000000D03*
X-57100000Y7000000D03*
X-22700000Y5400000D03*
X-17900000Y2600000D03*
X-54700000Y1000000D03*
X-17900000Y1800000D03*
X-27500000Y7000000D03*
X-66050000Y3150000D03*
G04 #@! TO.N,/PHY.ID_SCL*
X-67200000Y12150000D03*
X-63000000Y8500000D03*
G04 #@! TO.N,+3V3*
X-56300000Y1800000D03*
X-67200000Y16500000D03*
X-67200000Y10500000D03*
X-66050000Y4850000D03*
X-56300000Y1000000D03*
X-56300000Y2600000D03*
X-62150000Y4850000D03*
G04 #@! TO.N,/PHY.ID_SDA*
X-67200000Y14750000D03*
X-62400000Y7900000D03*
G04 #@! TO.N,/CON.C{slash}D+*
X-25900000Y3200000D03*
G04 #@! TO.N,/CON.ACK+*
X-30700000Y3200000D03*
G04 #@! TO.N,/CON.TERMPWR*
X-35500000Y5400000D03*
X-35500000Y1800000D03*
X-35500000Y1000000D03*
X-34700000Y2600000D03*
X-34700000Y6200000D03*
X-34700000Y5400000D03*
X-35500000Y7000000D03*
X-35500000Y2600000D03*
X-34700000Y1800000D03*
X-34700000Y7000000D03*
X-35500000Y6200000D03*
X-34700000Y1000000D03*
G04 #@! TO.N,/CON.DP1+*
X-48300000Y3200000D03*
G04 #@! TO.N,/CON.BSY+*
X-31500000Y3200000D03*
G04 #@! TO.N,/CON.DB5+*
X-41100000Y3200000D03*
G04 #@! TO.N,/CON.DP0+*
X-37900000Y3200000D03*
G04 #@! TO.N,/CON.SEL+*
X-26700000Y3200000D03*
G04 #@! TO.N,/CON.ATN+*
X-33100000Y3200000D03*
G04 #@! TO.N,/CON.DB9+*
X-21100000Y3200000D03*
G04 #@! TO.N,/CON.DB11+*
X-18700000Y3200000D03*
G04 #@! TO.N,/CON.DB7+*
X-38700000Y3200000D03*
G04 #@! TO.N,/CON.DB13+*
X-52300000Y3200000D03*
G04 #@! TO.N,/CON.REQ+*
X-24300000Y3200000D03*
G04 #@! TO.N,/CON.DB8+*
X-21900000Y3200000D03*
G04 #@! TO.N,/CON.MSG+*
X-28300000Y3200000D03*
G04 #@! TO.N,/CON.DB3+*
X-43500000Y3200000D03*
G04 #@! TO.N,/CON.DIFFSENSE*
X-36300000Y3200000D03*
G04 #@! TO.N,/CON.I{slash}O+*
X-23500000Y3200000D03*
G04 #@! TO.N,/CON.DB4+*
X-42700000Y3200000D03*
G04 #@! TO.N,/CON.DB15+*
X-49900000Y3200000D03*
G04 #@! TO.N,/CON.RST+*
X-29100000Y3200000D03*
G04 #@! TO.N,/CON.DB10+*
X-19500000Y3200000D03*
G04 #@! TO.N,/CON.DB6+*
X-40300000Y3200000D03*
G04 #@! TO.N,/CON.DB1+*
X-45900000Y3200000D03*
G04 #@! TO.N,/CON.DB2+*
X-45100000Y3200000D03*
G04 #@! TO.N,/CON.DB0+*
X-47500000Y3200000D03*
G04 #@! TO.N,/CON.DB14+*
X-50700000Y3200000D03*
G04 #@! TO.N,/CON.DB12+*
X-53100000Y3200000D03*
G04 #@! TD*
G04 #@! TA.AperFunction,Conductor*
G04 #@! TO.N,GND*
G36*
X-3998800Y33799442D02*
G01*
X-3629980Y33781322D01*
X-3625219Y33780854D01*
X-3261123Y33726846D01*
X-3256433Y33725913D01*
X-2963065Y33652428D01*
X-2899399Y33636480D01*
X-2894797Y33635084D01*
X-2781323Y33594483D01*
X-2548244Y33511085D01*
X-2543817Y33509251D01*
X-2211103Y33351889D01*
X-2206878Y33349632D01*
X-2015692Y33235039D01*
X-1891172Y33160404D01*
X-1887174Y33157732D01*
X-1739367Y33048111D01*
X-1591555Y32938486D01*
X-1587843Y32935440D01*
X-1315133Y32688269D01*
X-1311732Y32684868D01*
X-1064561Y32412158D01*
X-1061511Y32408441D01*
X-842269Y32112827D01*
X-839597Y32108829D01*
X-650374Y31793131D01*
X-648108Y31788890D01*
X-490754Y31456192D01*
X-488913Y31451750D01*
X-364917Y31105204D01*
X-363521Y31100602D01*
X-274091Y30743581D01*
X-273153Y30738865D01*
X-219149Y30374794D01*
X-218678Y30370008D01*
X-200559Y30001201D01*
X-200500Y29998797D01*
X-200500Y20599000D01*
X-214852Y20564352D01*
X-249500Y20550000D01*
X-2500000Y20550000D01*
X-2500000Y11350000D01*
X-249500Y11350000D01*
X-214852Y11335648D01*
X-200500Y11301000D01*
X-200500Y4001204D01*
X-200559Y3998800D01*
X-218678Y3629993D01*
X-219149Y3625207D01*
X-273153Y3261136D01*
X-274091Y3256420D01*
X-363521Y2899399D01*
X-364917Y2894797D01*
X-488913Y2548251D01*
X-490754Y2543809D01*
X-648108Y2211111D01*
X-650374Y2206870D01*
X-839597Y1891172D01*
X-842269Y1887174D01*
X-1061511Y1591560D01*
X-1064561Y1587843D01*
X-1311732Y1315133D01*
X-1315133Y1311732D01*
X-1587843Y1064561D01*
X-1591560Y1061511D01*
X-1887174Y842269D01*
X-1891172Y839597D01*
X-2206870Y650374D01*
X-2211111Y648108D01*
X-2543809Y490754D01*
X-2548251Y488913D01*
X-2894797Y364917D01*
X-2899399Y363521D01*
X-3256420Y274091D01*
X-3261136Y273153D01*
X-3625207Y219149D01*
X-3629993Y218678D01*
X-3998799Y200559D01*
X-4001203Y200500D01*
X-70998797Y200500D01*
X-71001201Y200559D01*
X-71370008Y218678D01*
X-71374794Y219149D01*
X-71738865Y273153D01*
X-71743581Y274091D01*
X-72100602Y363521D01*
X-72105204Y364917D01*
X-72451750Y488913D01*
X-72456192Y490754D01*
X-72788890Y648108D01*
X-72793131Y650374D01*
X-72810149Y660574D01*
X-72894723Y711266D01*
X-73108829Y839597D01*
X-73112827Y842269D01*
X-73325503Y1000000D01*
X-56656894Y1000000D01*
X-56639426Y889714D01*
X-56588733Y790223D01*
X-56509777Y711267D01*
X-56410286Y660574D01*
X-56300000Y643106D01*
X-56189714Y660574D01*
X-56090223Y711267D01*
X-56011267Y790223D01*
X-55960574Y889714D01*
X-55943106Y1000000D01*
X-35856894Y1000000D01*
X-35839426Y889714D01*
X-35788733Y790223D01*
X-35709777Y711267D01*
X-35610286Y660574D01*
X-35500000Y643106D01*
X-35389714Y660574D01*
X-35290223Y711267D01*
X-35211267Y790223D01*
X-35160574Y889714D01*
X-35148397Y966601D01*
X-35128801Y998575D01*
X-35125186Y999443D01*
X-35079463Y999443D01*
X-35060358Y987734D01*
X-35051605Y966602D01*
X-35039426Y889714D01*
X-34988733Y790223D01*
X-34909777Y711267D01*
X-34810286Y660574D01*
X-34700000Y643106D01*
X-34589714Y660574D01*
X-34490223Y711267D01*
X-34411267Y790223D01*
X-34360574Y889714D01*
X-34343106Y1000000D01*
X-34360574Y1110286D01*
X-34411267Y1209777D01*
X-34490223Y1288733D01*
X-34490226Y1288735D01*
X-34589714Y1339426D01*
X-34666601Y1351604D01*
X-34698575Y1371199D01*
X-34700559Y1379463D01*
X-34712267Y1360358D01*
X-34733400Y1351604D01*
X-34792274Y1342279D01*
X-34810287Y1339426D01*
X-34909775Y1288735D01*
X-34909778Y1288733D01*
X-34988733Y1209778D01*
X-34988735Y1209775D01*
X-35039426Y1110287D01*
X-35039426Y1110286D01*
X-35051604Y1033401D01*
X-35071199Y1001426D01*
X-35079463Y999443D01*
X-35125186Y999443D01*
X-35120538Y1000559D01*
X-35139642Y1012267D01*
X-35148397Y1033400D01*
X-35160574Y1110286D01*
X-35211267Y1209777D01*
X-35290223Y1288733D01*
X-35290226Y1288735D01*
X-35389714Y1339426D01*
X-35466601Y1351604D01*
X-35498575Y1371199D01*
X-35500559Y1379463D01*
X-35512267Y1360358D01*
X-35533400Y1351604D01*
X-35592274Y1342279D01*
X-35610287Y1339426D01*
X-35709775Y1288735D01*
X-35709778Y1288733D01*
X-35788733Y1209778D01*
X-35788735Y1209775D01*
X-35839426Y1110287D01*
X-35839426Y1110286D01*
X-35856894Y1000000D01*
X-55943106Y1000000D01*
X-55960574Y1110286D01*
X-56011267Y1209777D01*
X-56090223Y1288733D01*
X-56090226Y1288735D01*
X-56189714Y1339426D01*
X-56266601Y1351604D01*
X-56298575Y1371199D01*
X-56300559Y1379463D01*
X-56312267Y1360358D01*
X-56333400Y1351604D01*
X-56392274Y1342279D01*
X-56410287Y1339426D01*
X-56509775Y1288735D01*
X-56509778Y1288733D01*
X-56588733Y1209778D01*
X-56588735Y1209775D01*
X-56639426Y1110287D01*
X-56639426Y1110286D01*
X-56656894Y1000000D01*
X-73325503Y1000000D01*
X-73408441Y1061511D01*
X-73412158Y1064561D01*
X-73684868Y1311732D01*
X-73688269Y1315133D01*
X-73935440Y1587843D01*
X-73938490Y1591560D01*
X-74093079Y1800000D01*
X-56656894Y1800000D01*
X-56639426Y1689714D01*
X-56589415Y1591560D01*
X-56588733Y1590223D01*
X-56509777Y1511267D01*
X-56410286Y1460574D01*
X-56333401Y1448397D01*
X-56301426Y1428801D01*
X-56299443Y1420538D01*
X-56287734Y1439642D01*
X-56266602Y1448396D01*
X-56189714Y1460574D01*
X-56090223Y1511267D01*
X-56011267Y1590223D01*
X-55960574Y1689714D01*
X-55943106Y1800000D01*
X-35856894Y1800000D01*
X-35839426Y1689714D01*
X-35789415Y1591560D01*
X-35788733Y1590223D01*
X-35709777Y1511267D01*
X-35610286Y1460574D01*
X-35533401Y1448397D01*
X-35501426Y1428801D01*
X-35499443Y1420538D01*
X-35487734Y1439642D01*
X-35466602Y1448396D01*
X-35389714Y1460574D01*
X-35290223Y1511267D01*
X-35211267Y1590223D01*
X-35160574Y1689714D01*
X-35148397Y1766601D01*
X-35128801Y1798575D01*
X-35125186Y1799443D01*
X-35079463Y1799443D01*
X-35060358Y1787734D01*
X-35051605Y1766602D01*
X-35039426Y1689714D01*
X-34989415Y1591560D01*
X-34988733Y1590223D01*
X-34909777Y1511267D01*
X-34810286Y1460574D01*
X-34733401Y1448397D01*
X-34701426Y1428801D01*
X-34699443Y1420538D01*
X-34687734Y1439642D01*
X-34666602Y1448396D01*
X-34589714Y1460574D01*
X-34490223Y1511267D01*
X-34411267Y1590223D01*
X-34360574Y1689714D01*
X-34343106Y1800000D01*
X-34360574Y1910286D01*
X-34411267Y2009777D01*
X-34490223Y2088733D01*
X-34490226Y2088735D01*
X-34589714Y2139426D01*
X-34666601Y2151604D01*
X-34698575Y2171199D01*
X-34700559Y2179463D01*
X-34712267Y2160358D01*
X-34733400Y2151604D01*
X-34792274Y2142279D01*
X-34810287Y2139426D01*
X-34909775Y2088735D01*
X-34909778Y2088733D01*
X-34988733Y2009778D01*
X-34988735Y2009775D01*
X-35039426Y1910287D01*
X-35039426Y1910286D01*
X-35051604Y1833401D01*
X-35071199Y1801426D01*
X-35079463Y1799443D01*
X-35125186Y1799443D01*
X-35120538Y1800559D01*
X-35139642Y1812267D01*
X-35148397Y1833400D01*
X-35160574Y1910286D01*
X-35211267Y2009777D01*
X-35290223Y2088733D01*
X-35290226Y2088735D01*
X-35389714Y2139426D01*
X-35466601Y2151604D01*
X-35498575Y2171199D01*
X-35500559Y2179463D01*
X-35512267Y2160358D01*
X-35533400Y2151604D01*
X-35592274Y2142279D01*
X-35610287Y2139426D01*
X-35709775Y2088735D01*
X-35709778Y2088733D01*
X-35788733Y2009778D01*
X-35788735Y2009775D01*
X-35839426Y1910287D01*
X-35856894Y1800000D01*
X-55943106Y1800000D01*
X-55960574Y1910286D01*
X-56011267Y2009777D01*
X-56090223Y2088733D01*
X-56090226Y2088735D01*
X-56189714Y2139426D01*
X-56266601Y2151604D01*
X-56298575Y2171199D01*
X-56300559Y2179463D01*
X-56312267Y2160358D01*
X-56333400Y2151604D01*
X-56392274Y2142279D01*
X-56410287Y2139426D01*
X-56509775Y2088735D01*
X-56509778Y2088733D01*
X-56588733Y2009778D01*
X-56588735Y2009775D01*
X-56639426Y1910287D01*
X-56656894Y1800000D01*
X-74093079Y1800000D01*
X-74157732Y1887174D01*
X-74160404Y1891172D01*
X-74319672Y2156894D01*
X-74349632Y2206878D01*
X-74351889Y2211103D01*
X-74509251Y2543817D01*
X-74511088Y2548251D01*
X-74529405Y2599443D01*
X-74529604Y2600000D01*
X-56656894Y2600000D01*
X-56639426Y2489714D01*
X-56588733Y2390223D01*
X-56509777Y2311267D01*
X-56410286Y2260574D01*
X-56333401Y2248397D01*
X-56301426Y2228801D01*
X-56299443Y2220538D01*
X-56287734Y2239642D01*
X-56266602Y2248396D01*
X-56189714Y2260574D01*
X-56090223Y2311267D01*
X-56011267Y2390223D01*
X-55960574Y2489714D01*
X-55943106Y2600000D01*
X-35856894Y2600000D01*
X-35839426Y2489714D01*
X-35788733Y2390223D01*
X-35709777Y2311267D01*
X-35610286Y2260574D01*
X-35533401Y2248397D01*
X-35501426Y2228801D01*
X-35499443Y2220538D01*
X-35487734Y2239642D01*
X-35466602Y2248396D01*
X-35389714Y2260574D01*
X-35290223Y2311267D01*
X-35211267Y2390223D01*
X-35160574Y2489714D01*
X-35148397Y2566601D01*
X-35128801Y2598575D01*
X-35125186Y2599443D01*
X-35079463Y2599443D01*
X-35060358Y2587734D01*
X-35051605Y2566602D01*
X-35039426Y2489714D01*
X-34988733Y2390223D01*
X-34909777Y2311267D01*
X-34810286Y2260574D01*
X-34733401Y2248397D01*
X-34701426Y2228801D01*
X-34699443Y2220538D01*
X-34687734Y2239642D01*
X-34666602Y2248396D01*
X-34589714Y2260574D01*
X-34490223Y2311267D01*
X-34411267Y2390223D01*
X-34360574Y2489714D01*
X-34343106Y2600000D01*
X-34360574Y2710286D01*
X-34411267Y2809777D01*
X-34490223Y2888733D01*
X-34490226Y2888735D01*
X-34589714Y2939426D01*
X-34700000Y2956894D01*
X-34810287Y2939426D01*
X-34909775Y2888735D01*
X-34909778Y2888733D01*
X-34988733Y2809778D01*
X-34988735Y2809775D01*
X-35039426Y2710287D01*
X-35039426Y2710286D01*
X-35051604Y2633401D01*
X-35071199Y2601426D01*
X-35079463Y2599443D01*
X-35125186Y2599443D01*
X-35120538Y2600559D01*
X-35139642Y2612267D01*
X-35148397Y2633400D01*
X-35160574Y2710286D01*
X-35211267Y2809777D01*
X-35290223Y2888733D01*
X-35290226Y2888735D01*
X-35389714Y2939426D01*
X-35500000Y2956894D01*
X-35610287Y2939426D01*
X-35709775Y2888735D01*
X-35709778Y2888733D01*
X-35788733Y2809778D01*
X-35788735Y2809775D01*
X-35839426Y2710287D01*
X-35839426Y2710286D01*
X-35856894Y2600000D01*
X-55943106Y2600000D01*
X-55960574Y2710286D01*
X-56011267Y2809777D01*
X-56090223Y2888733D01*
X-56090226Y2888735D01*
X-56189714Y2939426D01*
X-56300000Y2956894D01*
X-56410287Y2939426D01*
X-56509775Y2888735D01*
X-56509778Y2888733D01*
X-56588733Y2809778D01*
X-56588735Y2809775D01*
X-56639426Y2710287D01*
X-56639426Y2710286D01*
X-56656894Y2600000D01*
X-74529604Y2600000D01*
X-74635084Y2894797D01*
X-74636480Y2899399D01*
X-74684152Y3089714D01*
X-74711777Y3200000D01*
X-53456894Y3200000D01*
X-53439426Y3089714D01*
X-53388733Y2990223D01*
X-53309777Y2911267D01*
X-53210286Y2860574D01*
X-53100000Y2843106D01*
X-52989714Y2860574D01*
X-52890223Y2911267D01*
X-52811267Y2990223D01*
X-52760574Y3089714D01*
X-52748397Y3166601D01*
X-52728801Y3198575D01*
X-52725186Y3199443D01*
X-52679463Y3199443D01*
X-52660358Y3187734D01*
X-52651605Y3166602D01*
X-52639426Y3089714D01*
X-52588733Y2990223D01*
X-52509777Y2911267D01*
X-52410286Y2860574D01*
X-52300000Y2843106D01*
X-52189714Y2860574D01*
X-52090223Y2911267D01*
X-52011267Y2990223D01*
X-51960574Y3089714D01*
X-51943106Y3200000D01*
X-51056894Y3200000D01*
X-51039426Y3089714D01*
X-50988733Y2990223D01*
X-50909777Y2911267D01*
X-50810286Y2860574D01*
X-50700000Y2843106D01*
X-50589714Y2860574D01*
X-50490223Y2911267D01*
X-50411267Y2990223D01*
X-50360574Y3089714D01*
X-50348397Y3166601D01*
X-50328801Y3198575D01*
X-50325186Y3199443D01*
X-50279463Y3199443D01*
X-50260358Y3187734D01*
X-50251605Y3166602D01*
X-50239426Y3089714D01*
X-50188733Y2990223D01*
X-50109777Y2911267D01*
X-50010286Y2860574D01*
X-49900000Y2843106D01*
X-49789714Y2860574D01*
X-49690223Y2911267D01*
X-49611267Y2990223D01*
X-49560574Y3089714D01*
X-49543106Y3200000D01*
X-48656894Y3200000D01*
X-48639426Y3089714D01*
X-48588733Y2990223D01*
X-48509777Y2911267D01*
X-48410286Y2860574D01*
X-48300000Y2843106D01*
X-48189714Y2860574D01*
X-48090223Y2911267D01*
X-48011267Y2990223D01*
X-47960574Y3089714D01*
X-47948397Y3166601D01*
X-47928801Y3198575D01*
X-47925186Y3199443D01*
X-47879463Y3199443D01*
X-47860358Y3187734D01*
X-47851605Y3166602D01*
X-47839426Y3089714D01*
X-47788733Y2990223D01*
X-47709777Y2911267D01*
X-47610286Y2860574D01*
X-47500000Y2843106D01*
X-47389714Y2860574D01*
X-47290223Y2911267D01*
X-47211267Y2990223D01*
X-47160574Y3089714D01*
X-47143106Y3200000D01*
X-46256894Y3200000D01*
X-46239426Y3089714D01*
X-46188733Y2990223D01*
X-46109777Y2911267D01*
X-46010286Y2860574D01*
X-45900000Y2843106D01*
X-45789714Y2860574D01*
X-45690223Y2911267D01*
X-45611267Y2990223D01*
X-45560574Y3089714D01*
X-45548397Y3166601D01*
X-45528801Y3198575D01*
X-45525186Y3199443D01*
X-45479463Y3199443D01*
X-45460358Y3187734D01*
X-45451605Y3166602D01*
X-45439426Y3089714D01*
X-45388733Y2990223D01*
X-45309777Y2911267D01*
X-45210286Y2860574D01*
X-45100000Y2843106D01*
X-44989714Y2860574D01*
X-44890223Y2911267D01*
X-44811267Y2990223D01*
X-44760574Y3089714D01*
X-44743106Y3200000D01*
X-43856894Y3200000D01*
X-43839426Y3089714D01*
X-43788733Y2990223D01*
X-43709777Y2911267D01*
X-43610286Y2860574D01*
X-43500000Y2843106D01*
X-43389714Y2860574D01*
X-43290223Y2911267D01*
X-43211267Y2990223D01*
X-43160574Y3089714D01*
X-43148397Y3166601D01*
X-43128801Y3198575D01*
X-43125186Y3199443D01*
X-43079463Y3199443D01*
X-43060358Y3187734D01*
X-43051605Y3166602D01*
X-43039426Y3089714D01*
X-42988733Y2990223D01*
X-42909777Y2911267D01*
X-42810286Y2860574D01*
X-42700000Y2843106D01*
X-42589714Y2860574D01*
X-42490223Y2911267D01*
X-42411267Y2990223D01*
X-42360574Y3089714D01*
X-42343106Y3200000D01*
X-41456894Y3200000D01*
X-41439426Y3089714D01*
X-41388733Y2990223D01*
X-41309777Y2911267D01*
X-41210286Y2860574D01*
X-41100000Y2843106D01*
X-40989714Y2860574D01*
X-40890223Y2911267D01*
X-40811267Y2990223D01*
X-40760574Y3089714D01*
X-40748397Y3166601D01*
X-40728801Y3198575D01*
X-40725186Y3199443D01*
X-40679463Y3199443D01*
X-40660358Y3187734D01*
X-40651605Y3166602D01*
X-40639426Y3089714D01*
X-40588733Y2990223D01*
X-40509777Y2911267D01*
X-40410286Y2860574D01*
X-40300000Y2843106D01*
X-40189714Y2860574D01*
X-40090223Y2911267D01*
X-40011267Y2990223D01*
X-39960574Y3089714D01*
X-39943106Y3200000D01*
X-39056894Y3200000D01*
X-39039426Y3089714D01*
X-38988733Y2990223D01*
X-38909777Y2911267D01*
X-38810286Y2860574D01*
X-38700000Y2843106D01*
X-38589714Y2860574D01*
X-38490223Y2911267D01*
X-38411267Y2990223D01*
X-38360574Y3089714D01*
X-38348397Y3166601D01*
X-38328801Y3198575D01*
X-38325186Y3199443D01*
X-38279463Y3199443D01*
X-38260358Y3187734D01*
X-38251605Y3166602D01*
X-38239426Y3089714D01*
X-38188733Y2990223D01*
X-38109777Y2911267D01*
X-38010286Y2860574D01*
X-37900000Y2843106D01*
X-37789714Y2860574D01*
X-37690223Y2911267D01*
X-37611267Y2990223D01*
X-37560574Y3089714D01*
X-37543106Y3200000D01*
X-36656894Y3200000D01*
X-36639426Y3089714D01*
X-36588733Y2990223D01*
X-36509777Y2911267D01*
X-36410286Y2860574D01*
X-36300000Y2843106D01*
X-36189714Y2860574D01*
X-36090223Y2911267D01*
X-36011267Y2990223D01*
X-35960574Y3089714D01*
X-35943106Y3200000D01*
X-33456894Y3200000D01*
X-33439426Y3089714D01*
X-33388733Y2990223D01*
X-33309777Y2911267D01*
X-33210286Y2860574D01*
X-33100000Y2843106D01*
X-32989714Y2860574D01*
X-32890223Y2911267D01*
X-32811267Y2990223D01*
X-32760574Y3089714D01*
X-32743106Y3200000D01*
X-31856894Y3200000D01*
X-31839426Y3089714D01*
X-31788733Y2990223D01*
X-31709777Y2911267D01*
X-31610286Y2860574D01*
X-31500000Y2843106D01*
X-31389714Y2860574D01*
X-31290223Y2911267D01*
X-31211267Y2990223D01*
X-31160574Y3089714D01*
X-31148397Y3166601D01*
X-31128801Y3198575D01*
X-31125186Y3199443D01*
X-31079463Y3199443D01*
X-31060358Y3187734D01*
X-31051605Y3166602D01*
X-31039426Y3089714D01*
X-30988733Y2990223D01*
X-30909777Y2911267D01*
X-30810286Y2860574D01*
X-30700000Y2843106D01*
X-30589714Y2860574D01*
X-30490223Y2911267D01*
X-30411267Y2990223D01*
X-30360574Y3089714D01*
X-30343106Y3200000D01*
X-29456894Y3200000D01*
X-29439426Y3089714D01*
X-29388733Y2990223D01*
X-29309777Y2911267D01*
X-29210286Y2860574D01*
X-29100000Y2843106D01*
X-28989714Y2860574D01*
X-28890223Y2911267D01*
X-28811267Y2990223D01*
X-28760574Y3089714D01*
X-28748397Y3166601D01*
X-28728801Y3198575D01*
X-28725186Y3199443D01*
X-28679463Y3199443D01*
X-28660358Y3187734D01*
X-28651605Y3166602D01*
X-28639426Y3089714D01*
X-28588733Y2990223D01*
X-28509777Y2911267D01*
X-28410286Y2860574D01*
X-28300000Y2843106D01*
X-28189714Y2860574D01*
X-28090223Y2911267D01*
X-28011267Y2990223D01*
X-27960574Y3089714D01*
X-27943106Y3200000D01*
X-27056894Y3200000D01*
X-27039426Y3089714D01*
X-26988733Y2990223D01*
X-26909777Y2911267D01*
X-26810286Y2860574D01*
X-26700000Y2843106D01*
X-26589714Y2860574D01*
X-26490223Y2911267D01*
X-26411267Y2990223D01*
X-26360574Y3089714D01*
X-26348397Y3166601D01*
X-26328801Y3198575D01*
X-26325186Y3199443D01*
X-26279463Y3199443D01*
X-26260358Y3187734D01*
X-26251605Y3166602D01*
X-26239426Y3089714D01*
X-26188733Y2990223D01*
X-26109777Y2911267D01*
X-26010286Y2860574D01*
X-25900000Y2843106D01*
X-25789714Y2860574D01*
X-25690223Y2911267D01*
X-25611267Y2990223D01*
X-25560574Y3089714D01*
X-25543106Y3200000D01*
X-24656894Y3200000D01*
X-24639426Y3089714D01*
X-24588733Y2990223D01*
X-24509777Y2911267D01*
X-24410286Y2860574D01*
X-24300000Y2843106D01*
X-24189714Y2860574D01*
X-24090223Y2911267D01*
X-24011267Y2990223D01*
X-23960574Y3089714D01*
X-23948397Y3166601D01*
X-23928801Y3198575D01*
X-23925186Y3199443D01*
X-23879463Y3199443D01*
X-23860358Y3187734D01*
X-23851605Y3166602D01*
X-23839426Y3089714D01*
X-23788733Y2990223D01*
X-23709777Y2911267D01*
X-23610286Y2860574D01*
X-23500000Y2843106D01*
X-23389714Y2860574D01*
X-23290223Y2911267D01*
X-23211267Y2990223D01*
X-23160574Y3089714D01*
X-23143106Y3200000D01*
X-22256894Y3200000D01*
X-22239426Y3089714D01*
X-22188733Y2990223D01*
X-22109777Y2911267D01*
X-22010286Y2860574D01*
X-21900000Y2843106D01*
X-21789714Y2860574D01*
X-21690223Y2911267D01*
X-21611267Y2990223D01*
X-21560574Y3089714D01*
X-21548397Y3166601D01*
X-21528801Y3198575D01*
X-21525186Y3199443D01*
X-21479463Y3199443D01*
X-21460358Y3187734D01*
X-21451605Y3166602D01*
X-21439426Y3089714D01*
X-21388733Y2990223D01*
X-21309777Y2911267D01*
X-21210286Y2860574D01*
X-21100000Y2843106D01*
X-20989714Y2860574D01*
X-20890223Y2911267D01*
X-20811267Y2990223D01*
X-20760574Y3089714D01*
X-20743106Y3200000D01*
X-19856894Y3200000D01*
X-19839426Y3089714D01*
X-19788733Y2990223D01*
X-19709777Y2911267D01*
X-19610286Y2860574D01*
X-19500000Y2843106D01*
X-19389714Y2860574D01*
X-19290223Y2911267D01*
X-19211267Y2990223D01*
X-19160574Y3089714D01*
X-19148397Y3166601D01*
X-19128801Y3198575D01*
X-19125186Y3199443D01*
X-19079463Y3199443D01*
X-19060358Y3187734D01*
X-19051605Y3166602D01*
X-19039426Y3089714D01*
X-18988733Y2990223D01*
X-18909777Y2911267D01*
X-18810286Y2860574D01*
X-18700000Y2843106D01*
X-18589714Y2860574D01*
X-18490223Y2911267D01*
X-18411267Y2990223D01*
X-18360574Y3089714D01*
X-18343106Y3200000D01*
X-18360574Y3310286D01*
X-18411267Y3409777D01*
X-18490223Y3488733D01*
X-18490226Y3488735D01*
X-18589714Y3539426D01*
X-18700000Y3556894D01*
X-18810287Y3539426D01*
X-18909775Y3488735D01*
X-18909778Y3488733D01*
X-18988733Y3409778D01*
X-18988735Y3409775D01*
X-19039426Y3310287D01*
X-19040983Y3300457D01*
X-19051604Y3233401D01*
X-19071199Y3201426D01*
X-19079463Y3199443D01*
X-19125186Y3199443D01*
X-19120538Y3200559D01*
X-19139642Y3212267D01*
X-19148397Y3233400D01*
X-19160574Y3310286D01*
X-19211267Y3409777D01*
X-19290223Y3488733D01*
X-19290226Y3488735D01*
X-19389714Y3539426D01*
X-19500000Y3556894D01*
X-19610287Y3539426D01*
X-19709775Y3488735D01*
X-19709778Y3488733D01*
X-19788733Y3409778D01*
X-19788735Y3409775D01*
X-19839426Y3310287D01*
X-19840983Y3300457D01*
X-19856894Y3200000D01*
X-20743106Y3200000D01*
X-20760574Y3310286D01*
X-20811267Y3409777D01*
X-20890223Y3488733D01*
X-20890226Y3488735D01*
X-20989714Y3539426D01*
X-21100000Y3556894D01*
X-21210287Y3539426D01*
X-21309775Y3488735D01*
X-21309778Y3488733D01*
X-21388733Y3409778D01*
X-21388735Y3409775D01*
X-21439426Y3310287D01*
X-21440983Y3300457D01*
X-21451604Y3233401D01*
X-21471199Y3201426D01*
X-21479463Y3199443D01*
X-21525186Y3199443D01*
X-21520538Y3200559D01*
X-21539642Y3212267D01*
X-21548397Y3233400D01*
X-21560574Y3310286D01*
X-21611267Y3409777D01*
X-21690223Y3488733D01*
X-21690226Y3488735D01*
X-21789714Y3539426D01*
X-21900000Y3556894D01*
X-22010287Y3539426D01*
X-22109775Y3488735D01*
X-22109778Y3488733D01*
X-22188733Y3409778D01*
X-22188735Y3409775D01*
X-22239426Y3310287D01*
X-22240983Y3300457D01*
X-22256894Y3200000D01*
X-23143106Y3200000D01*
X-23160574Y3310286D01*
X-23211267Y3409777D01*
X-23290223Y3488733D01*
X-23290226Y3488735D01*
X-23389714Y3539426D01*
X-23500000Y3556894D01*
X-23610287Y3539426D01*
X-23709775Y3488735D01*
X-23709778Y3488733D01*
X-23788733Y3409778D01*
X-23788735Y3409775D01*
X-23839426Y3310287D01*
X-23840983Y3300457D01*
X-23851604Y3233401D01*
X-23871199Y3201426D01*
X-23879463Y3199443D01*
X-23925186Y3199443D01*
X-23920538Y3200559D01*
X-23939642Y3212267D01*
X-23948397Y3233400D01*
X-23960574Y3310286D01*
X-24011267Y3409777D01*
X-24090223Y3488733D01*
X-24090226Y3488735D01*
X-24189714Y3539426D01*
X-24300000Y3556894D01*
X-24410287Y3539426D01*
X-24509775Y3488735D01*
X-24509778Y3488733D01*
X-24588733Y3409778D01*
X-24588735Y3409775D01*
X-24639426Y3310287D01*
X-24640983Y3300457D01*
X-24656894Y3200000D01*
X-25543106Y3200000D01*
X-25560574Y3310286D01*
X-25611267Y3409777D01*
X-25690223Y3488733D01*
X-25690226Y3488735D01*
X-25789714Y3539426D01*
X-25900000Y3556894D01*
X-26010287Y3539426D01*
X-26109775Y3488735D01*
X-26109778Y3488733D01*
X-26188733Y3409778D01*
X-26188735Y3409775D01*
X-26239426Y3310287D01*
X-26240983Y3300457D01*
X-26251604Y3233401D01*
X-26271199Y3201426D01*
X-26279463Y3199443D01*
X-26325186Y3199443D01*
X-26320538Y3200559D01*
X-26339642Y3212267D01*
X-26348397Y3233400D01*
X-26360574Y3310286D01*
X-26411267Y3409777D01*
X-26490223Y3488733D01*
X-26490226Y3488735D01*
X-26589714Y3539426D01*
X-26700000Y3556894D01*
X-26810287Y3539426D01*
X-26909775Y3488735D01*
X-26909778Y3488733D01*
X-26988733Y3409778D01*
X-26988735Y3409775D01*
X-27039426Y3310287D01*
X-27040983Y3300457D01*
X-27056894Y3200000D01*
X-27943106Y3200000D01*
X-27960574Y3310286D01*
X-28011267Y3409777D01*
X-28090223Y3488733D01*
X-28090226Y3488735D01*
X-28189714Y3539426D01*
X-28300000Y3556894D01*
X-28410287Y3539426D01*
X-28509775Y3488735D01*
X-28509778Y3488733D01*
X-28588733Y3409778D01*
X-28588735Y3409775D01*
X-28639426Y3310287D01*
X-28640983Y3300457D01*
X-28651604Y3233401D01*
X-28671199Y3201426D01*
X-28679463Y3199443D01*
X-28725186Y3199443D01*
X-28720538Y3200559D01*
X-28739642Y3212267D01*
X-28748397Y3233400D01*
X-28760574Y3310286D01*
X-28811267Y3409777D01*
X-28890223Y3488733D01*
X-28890226Y3488735D01*
X-28989714Y3539426D01*
X-29100000Y3556894D01*
X-29210287Y3539426D01*
X-29309775Y3488735D01*
X-29309778Y3488733D01*
X-29388733Y3409778D01*
X-29388735Y3409775D01*
X-29439426Y3310287D01*
X-29440983Y3300457D01*
X-29456894Y3200000D01*
X-30343106Y3200000D01*
X-30360574Y3310286D01*
X-30411267Y3409777D01*
X-30490223Y3488733D01*
X-30490226Y3488735D01*
X-30589714Y3539426D01*
X-30700000Y3556894D01*
X-30810287Y3539426D01*
X-30909775Y3488735D01*
X-30909778Y3488733D01*
X-30988733Y3409778D01*
X-30988735Y3409775D01*
X-31039426Y3310287D01*
X-31040983Y3300457D01*
X-31051604Y3233401D01*
X-31071199Y3201426D01*
X-31079463Y3199443D01*
X-31125186Y3199443D01*
X-31120538Y3200559D01*
X-31139642Y3212267D01*
X-31148397Y3233400D01*
X-31160574Y3310286D01*
X-31211267Y3409777D01*
X-31290223Y3488733D01*
X-31290226Y3488735D01*
X-31389714Y3539426D01*
X-31500000Y3556894D01*
X-31610287Y3539426D01*
X-31709775Y3488735D01*
X-31709778Y3488733D01*
X-31788733Y3409778D01*
X-31788735Y3409775D01*
X-31839426Y3310287D01*
X-31840983Y3300457D01*
X-31856894Y3200000D01*
X-32743106Y3200000D01*
X-32760574Y3310286D01*
X-32811267Y3409777D01*
X-32890223Y3488733D01*
X-32890226Y3488735D01*
X-32989714Y3539426D01*
X-33100000Y3556894D01*
X-33210287Y3539426D01*
X-33309775Y3488735D01*
X-33309778Y3488733D01*
X-33388733Y3409778D01*
X-33388735Y3409775D01*
X-33439426Y3310287D01*
X-33440983Y3300457D01*
X-33456894Y3200000D01*
X-35943106Y3200000D01*
X-35960574Y3310286D01*
X-36011267Y3409777D01*
X-36090223Y3488733D01*
X-36090226Y3488735D01*
X-36189714Y3539426D01*
X-36300000Y3556894D01*
X-36410287Y3539426D01*
X-36509775Y3488735D01*
X-36509778Y3488733D01*
X-36588733Y3409778D01*
X-36588735Y3409775D01*
X-36639426Y3310287D01*
X-36640983Y3300457D01*
X-36656894Y3200000D01*
X-37543106Y3200000D01*
X-37560574Y3310286D01*
X-37611267Y3409777D01*
X-37690223Y3488733D01*
X-37690226Y3488735D01*
X-37789714Y3539426D01*
X-37900000Y3556894D01*
X-38010287Y3539426D01*
X-38109775Y3488735D01*
X-38109778Y3488733D01*
X-38188733Y3409778D01*
X-38188735Y3409775D01*
X-38239426Y3310287D01*
X-38240983Y3300457D01*
X-38251604Y3233401D01*
X-38271199Y3201426D01*
X-38279463Y3199443D01*
X-38325186Y3199443D01*
X-38320538Y3200559D01*
X-38339642Y3212267D01*
X-38348397Y3233400D01*
X-38360574Y3310286D01*
X-38411267Y3409777D01*
X-38490223Y3488733D01*
X-38490226Y3488735D01*
X-38589714Y3539426D01*
X-38700000Y3556894D01*
X-38810287Y3539426D01*
X-38909775Y3488735D01*
X-38909778Y3488733D01*
X-38988733Y3409778D01*
X-38988735Y3409775D01*
X-39039426Y3310287D01*
X-39040983Y3300457D01*
X-39056894Y3200000D01*
X-39943106Y3200000D01*
X-39960574Y3310286D01*
X-40011267Y3409777D01*
X-40090223Y3488733D01*
X-40090226Y3488735D01*
X-40189714Y3539426D01*
X-40300000Y3556894D01*
X-40410287Y3539426D01*
X-40509775Y3488735D01*
X-40509778Y3488733D01*
X-40588733Y3409778D01*
X-40588735Y3409775D01*
X-40639426Y3310287D01*
X-40640983Y3300457D01*
X-40651604Y3233401D01*
X-40671199Y3201426D01*
X-40679463Y3199443D01*
X-40725186Y3199443D01*
X-40720538Y3200559D01*
X-40739642Y3212267D01*
X-40748397Y3233400D01*
X-40760574Y3310286D01*
X-40811267Y3409777D01*
X-40890223Y3488733D01*
X-40890226Y3488735D01*
X-40989714Y3539426D01*
X-41100000Y3556894D01*
X-41210287Y3539426D01*
X-41309775Y3488735D01*
X-41309778Y3488733D01*
X-41388733Y3409778D01*
X-41388735Y3409775D01*
X-41439426Y3310287D01*
X-41440983Y3300457D01*
X-41456894Y3200000D01*
X-42343106Y3200000D01*
X-42360574Y3310286D01*
X-42411267Y3409777D01*
X-42490223Y3488733D01*
X-42490226Y3488735D01*
X-42589714Y3539426D01*
X-42700000Y3556894D01*
X-42810287Y3539426D01*
X-42909775Y3488735D01*
X-42909778Y3488733D01*
X-42988733Y3409778D01*
X-42988735Y3409775D01*
X-43039426Y3310287D01*
X-43040983Y3300457D01*
X-43051604Y3233401D01*
X-43071199Y3201426D01*
X-43079463Y3199443D01*
X-43125186Y3199443D01*
X-43120538Y3200559D01*
X-43139642Y3212267D01*
X-43148397Y3233400D01*
X-43160574Y3310286D01*
X-43211267Y3409777D01*
X-43290223Y3488733D01*
X-43290226Y3488735D01*
X-43389714Y3539426D01*
X-43500000Y3556894D01*
X-43610287Y3539426D01*
X-43709775Y3488735D01*
X-43709778Y3488733D01*
X-43788733Y3409778D01*
X-43788735Y3409775D01*
X-43839426Y3310287D01*
X-43840983Y3300457D01*
X-43856894Y3200000D01*
X-44743106Y3200000D01*
X-44760574Y3310286D01*
X-44811267Y3409777D01*
X-44890223Y3488733D01*
X-44890226Y3488735D01*
X-44989714Y3539426D01*
X-45100000Y3556894D01*
X-45210287Y3539426D01*
X-45309775Y3488735D01*
X-45309778Y3488733D01*
X-45388733Y3409778D01*
X-45388735Y3409775D01*
X-45439426Y3310287D01*
X-45440983Y3300457D01*
X-45451604Y3233401D01*
X-45471199Y3201426D01*
X-45479463Y3199443D01*
X-45525186Y3199443D01*
X-45520538Y3200559D01*
X-45539642Y3212267D01*
X-45548397Y3233400D01*
X-45560574Y3310286D01*
X-45611267Y3409777D01*
X-45690223Y3488733D01*
X-45690226Y3488735D01*
X-45789714Y3539426D01*
X-45900000Y3556894D01*
X-46010287Y3539426D01*
X-46109775Y3488735D01*
X-46109778Y3488733D01*
X-46188733Y3409778D01*
X-46188735Y3409775D01*
X-46239426Y3310287D01*
X-46240983Y3300457D01*
X-46256894Y3200000D01*
X-47143106Y3200000D01*
X-47160574Y3310286D01*
X-47211267Y3409777D01*
X-47290223Y3488733D01*
X-47290226Y3488735D01*
X-47389714Y3539426D01*
X-47500000Y3556894D01*
X-47610287Y3539426D01*
X-47709775Y3488735D01*
X-47709778Y3488733D01*
X-47788733Y3409778D01*
X-47788735Y3409775D01*
X-47839426Y3310287D01*
X-47840983Y3300457D01*
X-47851604Y3233401D01*
X-47871199Y3201426D01*
X-47879463Y3199443D01*
X-47925186Y3199443D01*
X-47920538Y3200559D01*
X-47939642Y3212267D01*
X-47948397Y3233400D01*
X-47960574Y3310286D01*
X-48011267Y3409777D01*
X-48090223Y3488733D01*
X-48090226Y3488735D01*
X-48189714Y3539426D01*
X-48300000Y3556894D01*
X-48410287Y3539426D01*
X-48509775Y3488735D01*
X-48509778Y3488733D01*
X-48588733Y3409778D01*
X-48588735Y3409775D01*
X-48639426Y3310287D01*
X-48640983Y3300457D01*
X-48656894Y3200000D01*
X-49543106Y3200000D01*
X-49560574Y3310286D01*
X-49611267Y3409777D01*
X-49690223Y3488733D01*
X-49690226Y3488735D01*
X-49789714Y3539426D01*
X-49900000Y3556894D01*
X-50010287Y3539426D01*
X-50109775Y3488735D01*
X-50109778Y3488733D01*
X-50188733Y3409778D01*
X-50188735Y3409775D01*
X-50239426Y3310287D01*
X-50240983Y3300457D01*
X-50251604Y3233401D01*
X-50271199Y3201426D01*
X-50279463Y3199443D01*
X-50325186Y3199443D01*
X-50320538Y3200559D01*
X-50339642Y3212267D01*
X-50348397Y3233400D01*
X-50360574Y3310286D01*
X-50411267Y3409777D01*
X-50490223Y3488733D01*
X-50490226Y3488735D01*
X-50589714Y3539426D01*
X-50700000Y3556894D01*
X-50810287Y3539426D01*
X-50909775Y3488735D01*
X-50909778Y3488733D01*
X-50988733Y3409778D01*
X-50988735Y3409775D01*
X-51039426Y3310287D01*
X-51040983Y3300457D01*
X-51056894Y3200000D01*
X-51943106Y3200000D01*
X-51960574Y3310286D01*
X-52011267Y3409777D01*
X-52090223Y3488733D01*
X-52090226Y3488735D01*
X-52189714Y3539426D01*
X-52300000Y3556894D01*
X-52410287Y3539426D01*
X-52509775Y3488735D01*
X-52509778Y3488733D01*
X-52588733Y3409778D01*
X-52588735Y3409775D01*
X-52639426Y3310287D01*
X-52640983Y3300457D01*
X-52651604Y3233401D01*
X-52671199Y3201426D01*
X-52679463Y3199443D01*
X-52725186Y3199443D01*
X-52720538Y3200559D01*
X-52739642Y3212267D01*
X-52748397Y3233400D01*
X-52760574Y3310286D01*
X-52811267Y3409777D01*
X-52890223Y3488733D01*
X-52890226Y3488735D01*
X-52989714Y3539426D01*
X-53100000Y3556894D01*
X-53210287Y3539426D01*
X-53309775Y3488735D01*
X-53309778Y3488733D01*
X-53388733Y3409778D01*
X-53388735Y3409775D01*
X-53439426Y3310287D01*
X-53440983Y3300457D01*
X-53456894Y3200000D01*
X-74711777Y3200000D01*
X-74725913Y3256433D01*
X-74726846Y3261123D01*
X-74780854Y3625219D01*
X-74781322Y3629980D01*
X-74799441Y3998800D01*
X-74799500Y4001204D01*
X-74799500Y4071652D01*
X-60327500Y4071652D01*
X-60327500Y3928348D01*
X-60308948Y3835077D01*
X-60299544Y3787799D01*
X-60299542Y3787793D01*
X-60253280Y3676107D01*
X-60244702Y3655400D01*
X-60165086Y3536246D01*
X-60063754Y3434914D01*
X-59944600Y3355298D01*
X-59812204Y3300457D01*
X-59671652Y3272500D01*
X-59671649Y3272500D01*
X-59528351Y3272500D01*
X-59528348Y3272500D01*
X-59387796Y3300457D01*
X-59255400Y3355298D01*
X-59136246Y3434914D01*
X-59034914Y3536246D01*
X-58955298Y3655400D01*
X-58900457Y3787796D01*
X-58872500Y3928348D01*
X-58872500Y4069451D01*
X-15927500Y4069451D01*
X-15927500Y3930550D01*
X-15891553Y3796395D01*
X-15891552Y3796391D01*
X-15822105Y3676107D01*
X-15723893Y3577895D01*
X-15687518Y3556894D01*
X-15603610Y3508449D01*
X-15603608Y3508449D01*
X-15603607Y3508448D01*
X-15530037Y3488735D01*
X-15469451Y3472501D01*
X-15469450Y3472500D01*
X-15469447Y3472500D01*
X-15330550Y3472500D01*
X-15330550Y3472501D01*
X-15196393Y3508448D01*
X-15076107Y3577895D01*
X-14977895Y3676107D01*
X-14908448Y3796393D01*
X-14872501Y3930550D01*
X-14872500Y3930550D01*
X-14872500Y4069450D01*
X-14872501Y4069451D01*
X-14908448Y4203606D01*
X-14908449Y4203610D01*
X-14977896Y4323894D01*
X-15076107Y4422105D01*
X-15196391Y4491552D01*
X-15196395Y4491553D01*
X-15330550Y4527500D01*
X-15330553Y4527500D01*
X-15469447Y4527500D01*
X-15469450Y4527500D01*
X-15603606Y4491553D01*
X-15603610Y4491552D01*
X-15723894Y4422105D01*
X-15723894Y4422104D01*
X-15822104Y4323894D01*
X-15822105Y4323894D01*
X-15891552Y4203610D01*
X-15891553Y4203606D01*
X-15927500Y4069451D01*
X-58872500Y4069451D01*
X-58872500Y4071652D01*
X-58900457Y4212204D01*
X-58955298Y4344600D01*
X-59034914Y4463754D01*
X-59136246Y4565086D01*
X-59255400Y4644702D01*
X-59255403Y4644704D01*
X-59255404Y4644704D01*
X-59387793Y4699542D01*
X-59387799Y4699544D01*
X-59444480Y4710818D01*
X-59528348Y4727500D01*
X-59671652Y4727500D01*
X-59741606Y4713586D01*
X-59812202Y4699544D01*
X-59812208Y4699542D01*
X-59944597Y4644704D01*
X-60063754Y4565087D01*
X-60165087Y4463754D01*
X-60244704Y4344597D01*
X-60299542Y4212208D01*
X-60299544Y4212202D01*
X-60313586Y4141606D01*
X-60327500Y4071652D01*
X-74799500Y4071652D01*
X-74799500Y4850000D01*
X-66406894Y4850000D01*
X-66389426Y4739714D01*
X-66341016Y4644702D01*
X-66338733Y4640223D01*
X-66259777Y4561267D01*
X-66160286Y4510574D01*
X-66050000Y4493106D01*
X-65939714Y4510574D01*
X-65840223Y4561267D01*
X-65761267Y4640223D01*
X-65710574Y4739714D01*
X-65693106Y4850000D01*
X-62506894Y4850000D01*
X-62489426Y4739714D01*
X-62441016Y4644702D01*
X-62438733Y4640223D01*
X-62359777Y4561267D01*
X-62260286Y4510574D01*
X-62150000Y4493106D01*
X-62039714Y4510574D01*
X-61940223Y4561267D01*
X-61861267Y4640223D01*
X-61810574Y4739714D01*
X-61793106Y4850000D01*
X-61810574Y4960286D01*
X-61861267Y5059777D01*
X-61940223Y5138733D01*
X-61940226Y5138735D01*
X-62039714Y5189426D01*
X-62150000Y5206894D01*
X-62260287Y5189426D01*
X-62359775Y5138735D01*
X-62359778Y5138733D01*
X-62438733Y5059778D01*
X-62438735Y5059775D01*
X-62489426Y4960287D01*
X-62506894Y4850000D01*
X-65693106Y4850000D01*
X-65710574Y4960286D01*
X-65761267Y5059777D01*
X-65840223Y5138733D01*
X-65840226Y5138735D01*
X-65939714Y5189426D01*
X-66050000Y5206894D01*
X-66160287Y5189426D01*
X-66259775Y5138735D01*
X-66259778Y5138733D01*
X-66338733Y5059778D01*
X-66338735Y5059775D01*
X-66389426Y4960287D01*
X-66406894Y4850000D01*
X-74799500Y4850000D01*
X-74799500Y5400000D01*
X-35856894Y5400000D01*
X-35839426Y5289714D01*
X-35797228Y5206894D01*
X-35788733Y5190223D01*
X-35709777Y5111267D01*
X-35610286Y5060574D01*
X-35500000Y5043106D01*
X-35389714Y5060574D01*
X-35290223Y5111267D01*
X-35211267Y5190223D01*
X-35160574Y5289714D01*
X-35148397Y5366601D01*
X-35128801Y5398575D01*
X-35125186Y5399443D01*
X-35079463Y5399443D01*
X-35060358Y5387734D01*
X-35051605Y5366602D01*
X-35039426Y5289714D01*
X-34997228Y5206894D01*
X-34988733Y5190223D01*
X-34909777Y5111267D01*
X-34810286Y5060574D01*
X-34700000Y5043106D01*
X-34589714Y5060574D01*
X-34490223Y5111267D01*
X-34411267Y5190223D01*
X-34360574Y5289714D01*
X-34343106Y5400000D01*
X-34360574Y5510286D01*
X-34411267Y5609777D01*
X-34490223Y5688733D01*
X-34490226Y5688735D01*
X-34589714Y5739426D01*
X-34666601Y5751604D01*
X-34698575Y5771199D01*
X-34700559Y5779463D01*
X-34712267Y5760358D01*
X-34733400Y5751604D01*
X-34792274Y5742279D01*
X-34810287Y5739426D01*
X-34909775Y5688735D01*
X-34909778Y5688733D01*
X-34988733Y5609778D01*
X-34988735Y5609775D01*
X-35039426Y5510287D01*
X-35039426Y5510286D01*
X-35051604Y5433401D01*
X-35071199Y5401426D01*
X-35079463Y5399443D01*
X-35125186Y5399443D01*
X-35120538Y5400559D01*
X-35139642Y5412267D01*
X-35148397Y5433400D01*
X-35160574Y5510286D01*
X-35211267Y5609777D01*
X-35290223Y5688733D01*
X-35290226Y5688735D01*
X-35389714Y5739426D01*
X-35466601Y5751604D01*
X-35498575Y5771199D01*
X-35500559Y5779463D01*
X-35512267Y5760358D01*
X-35533400Y5751604D01*
X-35592274Y5742279D01*
X-35610287Y5739426D01*
X-35709775Y5688735D01*
X-35709778Y5688733D01*
X-35788733Y5609778D01*
X-35788735Y5609775D01*
X-35839426Y5510287D01*
X-35856894Y5400000D01*
X-74799500Y5400000D01*
X-74799500Y6200000D01*
X-35856894Y6200000D01*
X-35839426Y6089714D01*
X-35788733Y5990223D01*
X-35709777Y5911267D01*
X-35610286Y5860574D01*
X-35533401Y5848397D01*
X-35501426Y5828801D01*
X-35499443Y5820538D01*
X-35487734Y5839642D01*
X-35466602Y5848396D01*
X-35389714Y5860574D01*
X-35290223Y5911267D01*
X-35211267Y5990223D01*
X-35160574Y6089714D01*
X-35148397Y6166601D01*
X-35128801Y6198575D01*
X-35125186Y6199443D01*
X-35079463Y6199443D01*
X-35060358Y6187734D01*
X-35051605Y6166602D01*
X-35039426Y6089714D01*
X-34988733Y5990223D01*
X-34909777Y5911267D01*
X-34810286Y5860574D01*
X-34733401Y5848397D01*
X-34701426Y5828801D01*
X-34699443Y5820538D01*
X-34687734Y5839642D01*
X-34666602Y5848396D01*
X-34589714Y5860574D01*
X-34490223Y5911267D01*
X-34411267Y5990223D01*
X-34360574Y6089714D01*
X-34343106Y6200000D01*
X-34360574Y6310286D01*
X-34411267Y6409777D01*
X-34490223Y6488733D01*
X-34490226Y6488735D01*
X-34589714Y6539426D01*
X-34666601Y6551604D01*
X-34698575Y6571199D01*
X-34700559Y6579463D01*
X-34712267Y6560358D01*
X-34733400Y6551604D01*
X-34792274Y6542279D01*
X-34810287Y6539426D01*
X-34909775Y6488735D01*
X-34909778Y6488733D01*
X-34988733Y6409778D01*
X-34988735Y6409775D01*
X-35039426Y6310287D01*
X-35039426Y6310286D01*
X-35051604Y6233401D01*
X-35071199Y6201426D01*
X-35079463Y6199443D01*
X-35125186Y6199443D01*
X-35120538Y6200559D01*
X-35139642Y6212267D01*
X-35148397Y6233400D01*
X-35160574Y6310286D01*
X-35211267Y6409777D01*
X-35290223Y6488733D01*
X-35290226Y6488735D01*
X-35389714Y6539426D01*
X-35466601Y6551604D01*
X-35498575Y6571199D01*
X-35500559Y6579463D01*
X-35512267Y6560358D01*
X-35533400Y6551604D01*
X-35592274Y6542279D01*
X-35610287Y6539426D01*
X-35709775Y6488735D01*
X-35709778Y6488733D01*
X-35788733Y6409778D01*
X-35788735Y6409775D01*
X-35839426Y6310287D01*
X-35839426Y6310286D01*
X-35856894Y6200000D01*
X-74799500Y6200000D01*
X-74799500Y7000000D01*
X-35856894Y7000000D01*
X-35839426Y6889714D01*
X-35788733Y6790223D01*
X-35709777Y6711267D01*
X-35610286Y6660574D01*
X-35533401Y6648397D01*
X-35501426Y6628801D01*
X-35499443Y6620538D01*
X-35487734Y6639642D01*
X-35466602Y6648396D01*
X-35389714Y6660574D01*
X-35290223Y6711267D01*
X-35211267Y6790223D01*
X-35160574Y6889714D01*
X-35148397Y6966601D01*
X-35128801Y6998575D01*
X-35125186Y6999443D01*
X-35079463Y6999443D01*
X-35060358Y6987734D01*
X-35051605Y6966602D01*
X-35039426Y6889714D01*
X-34988733Y6790223D01*
X-34909777Y6711267D01*
X-34810286Y6660574D01*
X-34733401Y6648397D01*
X-34701426Y6628801D01*
X-34699443Y6620538D01*
X-34687734Y6639642D01*
X-34666602Y6648396D01*
X-34589714Y6660574D01*
X-34490223Y6711267D01*
X-34411267Y6790223D01*
X-34360574Y6889714D01*
X-34343106Y7000000D01*
X-34360574Y7110286D01*
X-34411267Y7209777D01*
X-34490223Y7288733D01*
X-34490226Y7288735D01*
X-34589714Y7339426D01*
X-34700000Y7356894D01*
X-34810287Y7339426D01*
X-34909775Y7288735D01*
X-34909778Y7288733D01*
X-34988733Y7209778D01*
X-34988735Y7209775D01*
X-35039426Y7110287D01*
X-35039426Y7110286D01*
X-35051604Y7033401D01*
X-35071199Y7001426D01*
X-35079463Y6999443D01*
X-35125186Y6999443D01*
X-35120538Y7000559D01*
X-35139642Y7012267D01*
X-35148397Y7033400D01*
X-35160574Y7110286D01*
X-35211267Y7209777D01*
X-35290223Y7288733D01*
X-35290226Y7288735D01*
X-35389714Y7339426D01*
X-35500000Y7356894D01*
X-35610287Y7339426D01*
X-35709775Y7288735D01*
X-35709778Y7288733D01*
X-35788733Y7209778D01*
X-35788735Y7209775D01*
X-35839426Y7110287D01*
X-35839426Y7110286D01*
X-35856894Y7000000D01*
X-74799500Y7000000D01*
X-74799500Y7900000D01*
X-62756894Y7900000D01*
X-62739426Y7789714D01*
X-62688733Y7690223D01*
X-62609777Y7611267D01*
X-62510286Y7560574D01*
X-62400000Y7543106D01*
X-62289714Y7560574D01*
X-62190223Y7611267D01*
X-62111267Y7690223D01*
X-62060574Y7789714D01*
X-62043106Y7900000D01*
X-62060574Y8010286D01*
X-62111267Y8109777D01*
X-62190223Y8188733D01*
X-62190226Y8188735D01*
X-62289714Y8239426D01*
X-62400000Y8256894D01*
X-62510287Y8239426D01*
X-62609775Y8188735D01*
X-62609778Y8188733D01*
X-62688733Y8109778D01*
X-62688735Y8109775D01*
X-62739426Y8010287D01*
X-62739426Y8010286D01*
X-62756894Y7900000D01*
X-74799500Y7900000D01*
X-74799500Y8500000D01*
X-63356894Y8500000D01*
X-63339426Y8389714D01*
X-63288733Y8290223D01*
X-63209777Y8211267D01*
X-63110286Y8160574D01*
X-63000000Y8143106D01*
X-62889714Y8160574D01*
X-62790223Y8211267D01*
X-62711267Y8290223D01*
X-62660574Y8389714D01*
X-62643106Y8500000D01*
X-62660574Y8610286D01*
X-62711267Y8709777D01*
X-62790223Y8788733D01*
X-62790226Y8788735D01*
X-62889714Y8839426D01*
X-63000000Y8856894D01*
X-63110287Y8839426D01*
X-63209775Y8788735D01*
X-63209778Y8788733D01*
X-63288733Y8709778D01*
X-63288735Y8709775D01*
X-63339426Y8610287D01*
X-63339426Y8610286D01*
X-63356894Y8500000D01*
X-74799500Y8500000D01*
X-74799500Y10966606D01*
X-73667500Y10966606D01*
X-73667500Y10773395D01*
X-73637276Y10582563D01*
X-73637275Y10582560D01*
X-73577570Y10398805D01*
X-73489851Y10226648D01*
X-73489849Y10226645D01*
X-73376284Y10070336D01*
X-73376280Y10070331D01*
X-73239669Y9933720D01*
X-73239665Y9933717D01*
X-73239663Y9933715D01*
X-73083350Y9820148D01*
X-72911197Y9732431D01*
X-72727440Y9672725D01*
X-72536606Y9642500D01*
X-72536605Y9642500D01*
X-72343395Y9642500D01*
X-72343394Y9642500D01*
X-72152560Y9672725D01*
X-71968803Y9732431D01*
X-71796650Y9820148D01*
X-71640337Y9933715D01*
X-71640334Y9933719D01*
X-71640331Y9933720D01*
X-71503720Y10070331D01*
X-71503719Y10070334D01*
X-71503715Y10070337D01*
X-71390148Y10226650D01*
X-71302431Y10398803D01*
X-71269550Y10500000D01*
X-67556894Y10500000D01*
X-67539426Y10389714D01*
X-67488733Y10290223D01*
X-67409777Y10211267D01*
X-67310286Y10160574D01*
X-67200000Y10143106D01*
X-67089714Y10160574D01*
X-66990223Y10211267D01*
X-66911267Y10290223D01*
X-66860574Y10389714D01*
X-66843106Y10500000D01*
X-66860574Y10610286D01*
X-66911267Y10709777D01*
X-66990223Y10788733D01*
X-66990226Y10788735D01*
X-67089714Y10839426D01*
X-67200000Y10856894D01*
X-67310287Y10839426D01*
X-67409775Y10788735D01*
X-67409778Y10788733D01*
X-67488733Y10709778D01*
X-67488735Y10709775D01*
X-67539426Y10610287D01*
X-67556894Y10500000D01*
X-71269550Y10500000D01*
X-71242725Y10582560D01*
X-71212500Y10773394D01*
X-71212500Y10966606D01*
X-71242725Y11157440D01*
X-71302431Y11341197D01*
X-71390148Y11513350D01*
X-71393818Y11518401D01*
X-71482619Y11640626D01*
X-71503715Y11669663D01*
X-71503717Y11669665D01*
X-71503720Y11669669D01*
X-71640331Y11806280D01*
X-71640336Y11806284D01*
X-71646241Y11810574D01*
X-71687509Y11840557D01*
X-71796645Y11919849D01*
X-71796648Y11919851D01*
X-71968805Y12007570D01*
X-72152560Y12067275D01*
X-72152563Y12067276D01*
X-72299158Y12090494D01*
X-72343394Y12097500D01*
X-72536606Y12097500D01*
X-72572518Y12091813D01*
X-72727438Y12067276D01*
X-72727441Y12067275D01*
X-72911196Y12007570D01*
X-73083353Y11919851D01*
X-73083356Y11919849D01*
X-73239665Y11806284D01*
X-73376284Y11669665D01*
X-73489849Y11513356D01*
X-73489851Y11513353D01*
X-73577570Y11341196D01*
X-73637275Y11157441D01*
X-73637276Y11157438D01*
X-73667500Y10966606D01*
X-74799500Y10966606D01*
X-74799500Y12286432D01*
X-70777500Y12286432D01*
X-70777500Y12113569D01*
X-70743781Y11944053D01*
X-70743778Y11944042D01*
X-70681259Y11793107D01*
X-70677631Y11784348D01*
X-70581599Y11640626D01*
X-70459374Y11518401D01*
X-70315652Y11422369D01*
X-70155957Y11356222D01*
X-70155951Y11356221D01*
X-70155948Y11356220D01*
X-69986432Y11322501D01*
X-69986426Y11322500D01*
X-69813574Y11322500D01*
X-69644043Y11356222D01*
X-69484348Y11422369D01*
X-69340626Y11518401D01*
X-69218401Y11640626D01*
X-69122369Y11784348D01*
X-69056222Y11944043D01*
X-69022500Y12113574D01*
X-69022500Y12150000D01*
X-67556894Y12150000D01*
X-67539426Y12039714D01*
X-67490680Y11944043D01*
X-67488733Y11940223D01*
X-67409777Y11861267D01*
X-67310286Y11810574D01*
X-67200000Y11793106D01*
X-67089714Y11810574D01*
X-66990223Y11861267D01*
X-66911267Y11940223D01*
X-66860574Y12039714D01*
X-66843106Y12150000D01*
X-66860574Y12260286D01*
X-66911267Y12359777D01*
X-66990223Y12438733D01*
X-66990226Y12438735D01*
X-67089714Y12489426D01*
X-67200000Y12506894D01*
X-67310287Y12489426D01*
X-67409775Y12438735D01*
X-67409778Y12438733D01*
X-67488733Y12359778D01*
X-67488735Y12359775D01*
X-67539426Y12260287D01*
X-67556894Y12150000D01*
X-69022500Y12150000D01*
X-69022500Y12286426D01*
X-69037090Y12359775D01*
X-69056220Y12455948D01*
X-69056223Y12455959D01*
X-69122368Y12615649D01*
X-69122369Y12615652D01*
X-69218401Y12759374D01*
X-69340626Y12881599D01*
X-69484348Y12977631D01*
X-69484351Y12977633D01*
X-69484352Y12977633D01*
X-69644042Y13043778D01*
X-69644053Y13043781D01*
X-69813569Y13077500D01*
X-69813574Y13077500D01*
X-69986426Y13077500D01*
X-69986432Y13077500D01*
X-70155948Y13043781D01*
X-70155959Y13043778D01*
X-70315649Y12977633D01*
X-70459374Y12881600D01*
X-70581600Y12759374D01*
X-70677633Y12615649D01*
X-70743778Y12455959D01*
X-70743781Y12455948D01*
X-70777500Y12286432D01*
X-74799500Y12286432D01*
X-74799500Y14826432D01*
X-70777500Y14826432D01*
X-70777500Y14653569D01*
X-70743781Y14484053D01*
X-70743778Y14484042D01*
X-70677633Y14324352D01*
X-70677631Y14324348D01*
X-70581599Y14180626D01*
X-70459374Y14058401D01*
X-70315652Y13962369D01*
X-70155957Y13896222D01*
X-70155951Y13896221D01*
X-70155948Y13896220D01*
X-69986432Y13862501D01*
X-69986426Y13862500D01*
X-69813574Y13862500D01*
X-69644043Y13896222D01*
X-69484348Y13962369D01*
X-69340626Y14058401D01*
X-69218401Y14180626D01*
X-69122369Y14324348D01*
X-69056222Y14484043D01*
X-69022500Y14653574D01*
X-69022500Y14750000D01*
X-67556894Y14750000D01*
X-67539426Y14639714D01*
X-67488733Y14540223D01*
X-67409777Y14461267D01*
X-67310286Y14410574D01*
X-67200000Y14393106D01*
X-67089714Y14410574D01*
X-66990223Y14461267D01*
X-66911267Y14540223D01*
X-66860574Y14639714D01*
X-66843106Y14750000D01*
X-66860574Y14860286D01*
X-66911267Y14959777D01*
X-66990223Y15038733D01*
X-66990226Y15038735D01*
X-67089714Y15089426D01*
X-67200000Y15106894D01*
X-67310287Y15089426D01*
X-67409775Y15038735D01*
X-67409778Y15038733D01*
X-67488733Y14959778D01*
X-67488735Y14959775D01*
X-67539426Y14860287D01*
X-67539426Y14860286D01*
X-67556894Y14750000D01*
X-69022500Y14750000D01*
X-69022500Y14826426D01*
X-69049025Y14959777D01*
X-69056220Y14995948D01*
X-69056223Y14995959D01*
X-69122368Y15155649D01*
X-69122369Y15155652D01*
X-69218401Y15299374D01*
X-69340626Y15421599D01*
X-69484348Y15517631D01*
X-69484351Y15517633D01*
X-69484352Y15517633D01*
X-69644042Y15583778D01*
X-69644053Y15583781D01*
X-69813569Y15617500D01*
X-69813574Y15617500D01*
X-69986426Y15617500D01*
X-69986432Y15617500D01*
X-70155948Y15583781D01*
X-70155959Y15583778D01*
X-70315649Y15517633D01*
X-70459374Y15421600D01*
X-70581600Y15299374D01*
X-70677633Y15155649D01*
X-70743778Y14995959D01*
X-70743781Y14995948D01*
X-70777500Y14826432D01*
X-74799500Y14826432D01*
X-74799500Y16096432D01*
X-73317500Y16096432D01*
X-73317500Y15923569D01*
X-73283781Y15754053D01*
X-73283778Y15754043D01*
X-73217631Y15594348D01*
X-73121599Y15450626D01*
X-72999374Y15328401D01*
X-72855652Y15232369D01*
X-72695957Y15166222D01*
X-72695951Y15166221D01*
X-72695948Y15166220D01*
X-72526432Y15132501D01*
X-72526426Y15132500D01*
X-72353574Y15132500D01*
X-72184043Y15166222D01*
X-72024348Y15232369D01*
X-71880626Y15328401D01*
X-71758401Y15450626D01*
X-71662369Y15594348D01*
X-71596222Y15754043D01*
X-71562500Y15923574D01*
X-71562500Y16096426D01*
X-71585343Y16211267D01*
X-71596220Y16265948D01*
X-71596223Y16265959D01*
X-71606273Y16290223D01*
X-71662369Y16425652D01*
X-71758401Y16569374D01*
X-71880626Y16691599D01*
X-72024348Y16787631D01*
X-72024351Y16787633D01*
X-72024352Y16787633D01*
X-72184042Y16853778D01*
X-72184053Y16853781D01*
X-72353569Y16887500D01*
X-72353574Y16887500D01*
X-72526426Y16887500D01*
X-72526432Y16887500D01*
X-72695948Y16853781D01*
X-72695959Y16853778D01*
X-72855649Y16787633D01*
X-72999374Y16691600D01*
X-73121600Y16569374D01*
X-73217633Y16425649D01*
X-73283778Y16265959D01*
X-73283781Y16265948D01*
X-73317500Y16096432D01*
X-74799500Y16096432D01*
X-74799500Y17452347D01*
X-71327500Y17452347D01*
X-71327500Y17227654D01*
X-71292351Y17005729D01*
X-71292350Y17005726D01*
X-71222916Y16792030D01*
X-71120907Y16591827D01*
X-71054191Y16500000D01*
X-70988835Y16410045D01*
X-70988831Y16410040D01*
X-70829960Y16251169D01*
X-70829956Y16251166D01*
X-70829954Y16251164D01*
X-70648173Y16119093D01*
X-70447970Y16017084D01*
X-70234274Y15947650D01*
X-70012347Y15912500D01*
X-70012346Y15912500D01*
X-69787654Y15912500D01*
X-69787653Y15912500D01*
X-69565726Y15947650D01*
X-69352030Y16017084D01*
X-69151827Y16119093D01*
X-68970046Y16251164D01*
X-68970043Y16251168D01*
X-68970040Y16251169D01*
X-68811169Y16410040D01*
X-68811168Y16410043D01*
X-68811164Y16410046D01*
X-68745809Y16500000D01*
X-67556894Y16500000D01*
X-67539426Y16389714D01*
X-67488733Y16290223D01*
X-67409777Y16211267D01*
X-67310286Y16160574D01*
X-67200000Y16143106D01*
X-67089714Y16160574D01*
X-66990223Y16211267D01*
X-66911267Y16290223D01*
X-66860574Y16389714D01*
X-66843106Y16500000D01*
X-66860574Y16610286D01*
X-66911267Y16709777D01*
X-66990223Y16788733D01*
X-66990226Y16788735D01*
X-67089714Y16839426D01*
X-67200000Y16856894D01*
X-67310287Y16839426D01*
X-67409775Y16788735D01*
X-67409778Y16788733D01*
X-67488733Y16709778D01*
X-67488735Y16709775D01*
X-67539426Y16610287D01*
X-67539426Y16610286D01*
X-67556894Y16500000D01*
X-68745809Y16500000D01*
X-68679093Y16591827D01*
X-68577084Y16792030D01*
X-68507650Y17005726D01*
X-68472500Y17227653D01*
X-68472500Y17452347D01*
X-68507650Y17674274D01*
X-68577084Y17887970D01*
X-68679093Y18088173D01*
X-68811164Y18269954D01*
X-68811166Y18269956D01*
X-68811169Y18269960D01*
X-68970040Y18428831D01*
X-68970045Y18428835D01*
X-68970046Y18428836D01*
X-69151827Y18560907D01*
X-69352030Y18662916D01*
X-69352031Y18662917D01*
X-69352032Y18662917D01*
X-69565726Y18732350D01*
X-69565729Y18732351D01*
X-69736208Y18759352D01*
X-69787653Y18767500D01*
X-70012347Y18767500D01*
X-70054111Y18760886D01*
X-70234272Y18732351D01*
X-70234275Y18732350D01*
X-70447969Y18662917D01*
X-70648173Y18560907D01*
X-70829956Y18428835D01*
X-70988835Y18269956D01*
X-71120907Y18088173D01*
X-71222917Y17887969D01*
X-71292350Y17674275D01*
X-71292351Y17674272D01*
X-71327500Y17452347D01*
X-74799500Y17452347D01*
X-74799500Y24651743D01*
X-57832500Y24651743D01*
X-57832500Y24506260D01*
X-57794849Y24365746D01*
X-57794848Y24365742D01*
X-57722110Y24239758D01*
X-57619243Y24136891D01*
X-57619241Y24136890D01*
X-57493260Y24064154D01*
X-57493258Y24064154D01*
X-57493257Y24064153D01*
X-57382437Y24034459D01*
X-57352742Y24026502D01*
X-57352741Y24026501D01*
X-57352738Y24026501D01*
X-57207259Y24026501D01*
X-57207259Y24026502D01*
X-57066743Y24064153D01*
X-56940757Y24136891D01*
X-56837890Y24239758D01*
X-56765152Y24365744D01*
X-56727501Y24506260D01*
X-56727500Y24506260D01*
X-56727500Y24651742D01*
X-55292500Y24651742D01*
X-55292500Y24506259D01*
X-55254849Y24365745D01*
X-55254848Y24365741D01*
X-55182111Y24239758D01*
X-55182110Y24239757D01*
X-55079243Y24136890D01*
X-55033131Y24110267D01*
X-54953260Y24064153D01*
X-54953258Y24064153D01*
X-54953257Y24064152D01*
X-54842437Y24034458D01*
X-54812742Y24026501D01*
X-54812741Y24026500D01*
X-54812738Y24026500D01*
X-54667259Y24026500D01*
X-54667259Y24026501D01*
X-54526743Y24064152D01*
X-54526739Y24064154D01*
X-54509863Y24073898D01*
X-54400757Y24136890D01*
X-54297890Y24239757D01*
X-54225152Y24365743D01*
X-54187501Y24506259D01*
X-54187500Y24506259D01*
X-54187500Y24651741D01*
X-54187501Y24651742D01*
X-50212499Y24651742D01*
X-50212499Y24506259D01*
X-50174848Y24365745D01*
X-50174847Y24365741D01*
X-50102110Y24239758D01*
X-50102109Y24239757D01*
X-49999242Y24136890D01*
X-49953130Y24110267D01*
X-49873259Y24064153D01*
X-49873257Y24064153D01*
X-49873256Y24064152D01*
X-49762436Y24034458D01*
X-49732741Y24026501D01*
X-49732740Y24026500D01*
X-49732737Y24026500D01*
X-49587258Y24026500D01*
X-49587258Y24026501D01*
X-49446742Y24064152D01*
X-49446738Y24064154D01*
X-49429862Y24073898D01*
X-49320756Y24136890D01*
X-49217889Y24239757D01*
X-49145151Y24365743D01*
X-49107500Y24506259D01*
X-49107499Y24506259D01*
X-49107499Y24651741D01*
X-49107500Y24651742D01*
X-47672499Y24651742D01*
X-47672499Y24506259D01*
X-47634848Y24365745D01*
X-47634847Y24365741D01*
X-47562110Y24239758D01*
X-47562109Y24239757D01*
X-47459242Y24136890D01*
X-47413130Y24110267D01*
X-47333259Y24064153D01*
X-47333257Y24064153D01*
X-47333256Y24064152D01*
X-47222436Y24034458D01*
X-47192741Y24026501D01*
X-47192740Y24026500D01*
X-47192737Y24026500D01*
X-47047258Y24026500D01*
X-47047258Y24026501D01*
X-46906742Y24064152D01*
X-46906738Y24064154D01*
X-46889862Y24073898D01*
X-46780756Y24136890D01*
X-46677889Y24239757D01*
X-46605151Y24365743D01*
X-46567500Y24506259D01*
X-46567499Y24506259D01*
X-46567499Y24651741D01*
X-46567500Y24651742D01*
X-45132498Y24651742D01*
X-45132498Y24506259D01*
X-45094847Y24365745D01*
X-45094846Y24365741D01*
X-45022109Y24239758D01*
X-45022108Y24239757D01*
X-44919241Y24136890D01*
X-44873129Y24110267D01*
X-44793258Y24064153D01*
X-44793256Y24064153D01*
X-44793255Y24064152D01*
X-44682435Y24034458D01*
X-44652740Y24026501D01*
X-44652739Y24026500D01*
X-44652736Y24026500D01*
X-44507257Y24026500D01*
X-44507257Y24026501D01*
X-44366741Y24064152D01*
X-44366737Y24064154D01*
X-44349861Y24073898D01*
X-44240755Y24136890D01*
X-44137888Y24239757D01*
X-44065150Y24365743D01*
X-44027499Y24506259D01*
X-44027498Y24506259D01*
X-44027498Y24651741D01*
X-44027499Y24651742D01*
X-44027499Y24651743D01*
X-42592499Y24651743D01*
X-42592499Y24506260D01*
X-42554848Y24365746D01*
X-42554847Y24365742D01*
X-42482109Y24239758D01*
X-42379242Y24136891D01*
X-42379240Y24136890D01*
X-42253259Y24064154D01*
X-42253257Y24064154D01*
X-42253256Y24064153D01*
X-42142436Y24034459D01*
X-42112741Y24026502D01*
X-42112740Y24026501D01*
X-42112737Y24026501D01*
X-41967258Y24026501D01*
X-41967258Y24026502D01*
X-41826742Y24064153D01*
X-41700756Y24136891D01*
X-41597889Y24239758D01*
X-41525151Y24365744D01*
X-41487500Y24506260D01*
X-41487499Y24506260D01*
X-41487499Y24651742D01*
X-40052499Y24651742D01*
X-40052499Y24506259D01*
X-40014848Y24365745D01*
X-40014847Y24365741D01*
X-39942110Y24239758D01*
X-39942109Y24239757D01*
X-39839242Y24136890D01*
X-39793130Y24110267D01*
X-39713259Y24064153D01*
X-39713257Y24064153D01*
X-39713256Y24064152D01*
X-39602436Y24034458D01*
X-39572741Y24026501D01*
X-39572740Y24026500D01*
X-39572737Y24026500D01*
X-39427258Y24026500D01*
X-39427258Y24026501D01*
X-39286742Y24064152D01*
X-39286738Y24064154D01*
X-39269862Y24073898D01*
X-39160756Y24136890D01*
X-39057889Y24239757D01*
X-38985151Y24365743D01*
X-38947500Y24506259D01*
X-38947499Y24506259D01*
X-38947499Y24651741D01*
X-38947500Y24651742D01*
X-37512499Y24651742D01*
X-37512499Y24506259D01*
X-37474848Y24365745D01*
X-37474847Y24365741D01*
X-37402110Y24239758D01*
X-37402109Y24239757D01*
X-37299242Y24136890D01*
X-37253130Y24110267D01*
X-37173259Y24064153D01*
X-37173257Y24064153D01*
X-37173256Y24064152D01*
X-37062436Y24034458D01*
X-37032741Y24026501D01*
X-37032740Y24026500D01*
X-37032737Y24026500D01*
X-36887258Y24026500D01*
X-36887258Y24026501D01*
X-36746742Y24064152D01*
X-36746738Y24064154D01*
X-36729862Y24073898D01*
X-36620756Y24136890D01*
X-36517889Y24239757D01*
X-36445151Y24365743D01*
X-36407500Y24506259D01*
X-36407499Y24506259D01*
X-36407499Y24651741D01*
X-36407500Y24651742D01*
X-36407500Y24651743D01*
X-34972500Y24651743D01*
X-34972500Y24506260D01*
X-34934849Y24365746D01*
X-34934848Y24365742D01*
X-34862110Y24239758D01*
X-34759243Y24136891D01*
X-34759241Y24136890D01*
X-34633260Y24064154D01*
X-34633258Y24064154D01*
X-34633257Y24064153D01*
X-34522437Y24034459D01*
X-34492742Y24026502D01*
X-34492741Y24026501D01*
X-34492738Y24026501D01*
X-34347259Y24026501D01*
X-34347259Y24026502D01*
X-34206743Y24064153D01*
X-34080757Y24136891D01*
X-33977890Y24239758D01*
X-33905152Y24365744D01*
X-33867501Y24506260D01*
X-33867500Y24506260D01*
X-33867500Y24651742D01*
X-32432500Y24651742D01*
X-32432500Y24506259D01*
X-32394849Y24365745D01*
X-32394848Y24365741D01*
X-32322111Y24239758D01*
X-32322110Y24239757D01*
X-32219243Y24136890D01*
X-32173131Y24110267D01*
X-32093260Y24064153D01*
X-32093258Y24064153D01*
X-32093257Y24064152D01*
X-31982437Y24034458D01*
X-31952742Y24026501D01*
X-31952741Y24026500D01*
X-31952738Y24026500D01*
X-31807259Y24026500D01*
X-31807259Y24026501D01*
X-31666743Y24064152D01*
X-31666739Y24064154D01*
X-31649863Y24073898D01*
X-31540757Y24136890D01*
X-31437890Y24239757D01*
X-31365152Y24365743D01*
X-31327501Y24506259D01*
X-31327500Y24506259D01*
X-31327500Y24651741D01*
X-31327501Y24651742D01*
X-29892498Y24651742D01*
X-29892498Y24506259D01*
X-29854847Y24365745D01*
X-29854846Y24365741D01*
X-29782109Y24239758D01*
X-29782108Y24239757D01*
X-29679241Y24136890D01*
X-29633129Y24110267D01*
X-29553258Y24064153D01*
X-29553256Y24064153D01*
X-29553255Y24064152D01*
X-29442435Y24034458D01*
X-29412740Y24026501D01*
X-29412739Y24026500D01*
X-29412736Y24026500D01*
X-29267257Y24026500D01*
X-29267257Y24026501D01*
X-29126741Y24064152D01*
X-29126737Y24064154D01*
X-29109861Y24073898D01*
X-29000755Y24136890D01*
X-28897888Y24239757D01*
X-28825150Y24365743D01*
X-28787499Y24506259D01*
X-28787498Y24506259D01*
X-28787498Y24651741D01*
X-28787499Y24651742D01*
X-27352499Y24651742D01*
X-27352499Y24506259D01*
X-27314848Y24365745D01*
X-27314847Y24365741D01*
X-27242110Y24239758D01*
X-27242109Y24239757D01*
X-27139242Y24136890D01*
X-27093130Y24110267D01*
X-27013259Y24064153D01*
X-27013257Y24064153D01*
X-27013256Y24064152D01*
X-26902436Y24034458D01*
X-26872741Y24026501D01*
X-26872740Y24026500D01*
X-26872737Y24026500D01*
X-26727258Y24026500D01*
X-26727258Y24026501D01*
X-26586742Y24064152D01*
X-26586738Y24064154D01*
X-26569862Y24073898D01*
X-26460756Y24136890D01*
X-26357889Y24239757D01*
X-26285151Y24365743D01*
X-26247500Y24506259D01*
X-26247499Y24506259D01*
X-26247499Y24651741D01*
X-26247500Y24651742D01*
X-24812499Y24651742D01*
X-24812499Y24506259D01*
X-24774848Y24365745D01*
X-24774847Y24365741D01*
X-24702110Y24239758D01*
X-24702109Y24239757D01*
X-24599242Y24136890D01*
X-24553130Y24110267D01*
X-24473259Y24064153D01*
X-24473257Y24064153D01*
X-24473256Y24064152D01*
X-24362436Y24034458D01*
X-24332741Y24026501D01*
X-24332740Y24026500D01*
X-24332737Y24026500D01*
X-24187258Y24026500D01*
X-24187258Y24026501D01*
X-24046742Y24064152D01*
X-24046738Y24064154D01*
X-24029862Y24073898D01*
X-23920756Y24136890D01*
X-23817889Y24239757D01*
X-23745151Y24365743D01*
X-23707500Y24506259D01*
X-23707499Y24506259D01*
X-23707499Y24651741D01*
X-23707500Y24651742D01*
X-23707500Y24651743D01*
X-19732499Y24651743D01*
X-19732499Y24506260D01*
X-19694848Y24365746D01*
X-19694847Y24365742D01*
X-19622109Y24239758D01*
X-19519242Y24136891D01*
X-19519240Y24136890D01*
X-19393259Y24064154D01*
X-19393257Y24064154D01*
X-19393256Y24064153D01*
X-19282436Y24034459D01*
X-19252741Y24026502D01*
X-19252740Y24026501D01*
X-19252737Y24026501D01*
X-19107258Y24026501D01*
X-19107258Y24026502D01*
X-18966742Y24064153D01*
X-18840756Y24136891D01*
X-18737889Y24239758D01*
X-18665151Y24365744D01*
X-18627500Y24506260D01*
X-18627499Y24506260D01*
X-18627499Y24651742D01*
X-17192499Y24651742D01*
X-17192499Y24506259D01*
X-17154848Y24365745D01*
X-17154847Y24365741D01*
X-17082110Y24239758D01*
X-17082109Y24239757D01*
X-16979242Y24136890D01*
X-16933130Y24110267D01*
X-16853259Y24064153D01*
X-16853257Y24064153D01*
X-16853256Y24064152D01*
X-16742436Y24034458D01*
X-16712741Y24026501D01*
X-16712740Y24026500D01*
X-16712737Y24026500D01*
X-16567258Y24026500D01*
X-16567258Y24026501D01*
X-16426742Y24064152D01*
X-16426738Y24064154D01*
X-16409862Y24073898D01*
X-16300756Y24136890D01*
X-16197889Y24239757D01*
X-16125151Y24365743D01*
X-16087500Y24506259D01*
X-16087499Y24506259D01*
X-16087499Y24651741D01*
X-16087500Y24651742D01*
X-16125151Y24792256D01*
X-16125152Y24792260D01*
X-16197890Y24918244D01*
X-16300756Y25021110D01*
X-16426740Y25093848D01*
X-16426744Y25093849D01*
X-16567258Y25131500D01*
X-16567261Y25131500D01*
X-16712737Y25131500D01*
X-16712740Y25131500D01*
X-16853255Y25093849D01*
X-16853259Y25093848D01*
X-16979243Y25021110D01*
X-16979243Y25021109D01*
X-17082108Y24918244D01*
X-17082109Y24918244D01*
X-17154847Y24792260D01*
X-17154848Y24792256D01*
X-17192499Y24651742D01*
X-18627499Y24651742D01*
X-18627500Y24651743D01*
X-18635457Y24681438D01*
X-18665151Y24792258D01*
X-18665152Y24792260D01*
X-18665152Y24792261D01*
X-18711266Y24872132D01*
X-18737889Y24918244D01*
X-18840756Y25021111D01*
X-18966740Y25093849D01*
X-18966744Y25093850D01*
X-19107258Y25131501D01*
X-19107261Y25131501D01*
X-19252737Y25131501D01*
X-19252740Y25131501D01*
X-19393255Y25093850D01*
X-19393259Y25093849D01*
X-19519243Y25021111D01*
X-19519243Y25021110D01*
X-19622108Y24918245D01*
X-19622109Y24918245D01*
X-19694847Y24792261D01*
X-19694848Y24792257D01*
X-19732499Y24651743D01*
X-23707500Y24651743D01*
X-23745151Y24792256D01*
X-23745152Y24792260D01*
X-23817890Y24918244D01*
X-23920756Y25021110D01*
X-24046740Y25093848D01*
X-24046744Y25093849D01*
X-24187258Y25131500D01*
X-24187261Y25131500D01*
X-24332737Y25131500D01*
X-24332740Y25131500D01*
X-24473255Y25093849D01*
X-24473259Y25093848D01*
X-24599243Y25021110D01*
X-24599243Y25021109D01*
X-24702108Y24918244D01*
X-24702109Y24918244D01*
X-24774847Y24792260D01*
X-24774848Y24792256D01*
X-24812499Y24651742D01*
X-26247500Y24651742D01*
X-26285151Y24792256D01*
X-26285152Y24792260D01*
X-26357890Y24918244D01*
X-26460756Y25021110D01*
X-26586740Y25093848D01*
X-26586744Y25093849D01*
X-26727258Y25131500D01*
X-26727261Y25131500D01*
X-26872737Y25131500D01*
X-26872740Y25131500D01*
X-27013255Y25093849D01*
X-27013259Y25093848D01*
X-27139243Y25021110D01*
X-27139243Y25021109D01*
X-27242108Y24918244D01*
X-27242109Y24918244D01*
X-27314847Y24792260D01*
X-27314848Y24792256D01*
X-27352499Y24651742D01*
X-28787499Y24651742D01*
X-28825150Y24792256D01*
X-28825151Y24792260D01*
X-28897889Y24918244D01*
X-29000755Y25021110D01*
X-29126739Y25093848D01*
X-29126743Y25093849D01*
X-29267257Y25131500D01*
X-29267260Y25131500D01*
X-29412736Y25131500D01*
X-29412739Y25131500D01*
X-29553254Y25093849D01*
X-29553258Y25093848D01*
X-29679242Y25021110D01*
X-29679242Y25021109D01*
X-29782107Y24918244D01*
X-29782108Y24918244D01*
X-29854846Y24792260D01*
X-29854847Y24792256D01*
X-29892498Y24651742D01*
X-31327501Y24651742D01*
X-31365152Y24792256D01*
X-31365153Y24792260D01*
X-31437891Y24918244D01*
X-31540757Y25021110D01*
X-31666741Y25093848D01*
X-31666745Y25093849D01*
X-31807259Y25131500D01*
X-31807262Y25131500D01*
X-31952738Y25131500D01*
X-31952741Y25131500D01*
X-32093256Y25093849D01*
X-32093260Y25093848D01*
X-32219244Y25021110D01*
X-32219244Y25021109D01*
X-32322109Y24918244D01*
X-32322110Y24918244D01*
X-32394848Y24792260D01*
X-32394849Y24792256D01*
X-32432500Y24651742D01*
X-33867500Y24651742D01*
X-33867501Y24651743D01*
X-33875458Y24681438D01*
X-33905152Y24792258D01*
X-33905153Y24792260D01*
X-33905153Y24792261D01*
X-33951267Y24872132D01*
X-33977890Y24918244D01*
X-34080757Y25021111D01*
X-34206741Y25093849D01*
X-34206745Y25093850D01*
X-34347259Y25131501D01*
X-34347262Y25131501D01*
X-34492738Y25131501D01*
X-34492741Y25131501D01*
X-34633256Y25093850D01*
X-34633260Y25093849D01*
X-34759244Y25021111D01*
X-34759244Y25021110D01*
X-34862109Y24918245D01*
X-34862110Y24918245D01*
X-34934848Y24792261D01*
X-34934849Y24792257D01*
X-34972500Y24651743D01*
X-36407500Y24651743D01*
X-36445151Y24792256D01*
X-36445152Y24792260D01*
X-36517890Y24918244D01*
X-36620756Y25021110D01*
X-36746740Y25093848D01*
X-36746744Y25093849D01*
X-36887258Y25131500D01*
X-36887261Y25131500D01*
X-37032737Y25131500D01*
X-37032740Y25131500D01*
X-37173255Y25093849D01*
X-37173259Y25093848D01*
X-37299243Y25021110D01*
X-37299243Y25021109D01*
X-37402108Y24918244D01*
X-37402109Y24918244D01*
X-37474847Y24792260D01*
X-37474848Y24792256D01*
X-37512499Y24651742D01*
X-38947500Y24651742D01*
X-38985151Y24792256D01*
X-38985152Y24792260D01*
X-39057890Y24918244D01*
X-39160756Y25021110D01*
X-39286740Y25093848D01*
X-39286744Y25093849D01*
X-39427258Y25131500D01*
X-39427261Y25131500D01*
X-39572737Y25131500D01*
X-39572740Y25131500D01*
X-39713255Y25093849D01*
X-39713259Y25093848D01*
X-39839243Y25021110D01*
X-39839243Y25021109D01*
X-39942108Y24918244D01*
X-39942109Y24918244D01*
X-40014847Y24792260D01*
X-40014848Y24792256D01*
X-40052499Y24651742D01*
X-41487499Y24651742D01*
X-41487500Y24651743D01*
X-41495457Y24681438D01*
X-41525151Y24792258D01*
X-41525152Y24792260D01*
X-41525152Y24792261D01*
X-41571266Y24872132D01*
X-41597889Y24918244D01*
X-41700756Y25021111D01*
X-41826740Y25093849D01*
X-41826744Y25093850D01*
X-41967258Y25131501D01*
X-41967261Y25131501D01*
X-42112737Y25131501D01*
X-42112740Y25131501D01*
X-42253255Y25093850D01*
X-42253259Y25093849D01*
X-42379243Y25021111D01*
X-42379243Y25021110D01*
X-42482108Y24918245D01*
X-42482109Y24918245D01*
X-42554847Y24792261D01*
X-42554848Y24792257D01*
X-42592499Y24651743D01*
X-44027499Y24651743D01*
X-44065150Y24792256D01*
X-44065151Y24792260D01*
X-44137889Y24918244D01*
X-44240755Y25021110D01*
X-44366739Y25093848D01*
X-44366743Y25093849D01*
X-44507257Y25131500D01*
X-44507260Y25131500D01*
X-44652736Y25131500D01*
X-44652739Y25131500D01*
X-44793254Y25093849D01*
X-44793258Y25093848D01*
X-44919242Y25021110D01*
X-44919242Y25021109D01*
X-45022107Y24918244D01*
X-45022108Y24918244D01*
X-45094846Y24792260D01*
X-45094847Y24792256D01*
X-45132498Y24651742D01*
X-46567500Y24651742D01*
X-46605151Y24792256D01*
X-46605152Y24792260D01*
X-46677890Y24918244D01*
X-46780756Y25021110D01*
X-46906740Y25093848D01*
X-46906744Y25093849D01*
X-47047258Y25131500D01*
X-47047261Y25131500D01*
X-47192737Y25131500D01*
X-47192740Y25131500D01*
X-47333255Y25093849D01*
X-47333259Y25093848D01*
X-47459243Y25021110D01*
X-47459243Y25021109D01*
X-47562108Y24918244D01*
X-47562109Y24918244D01*
X-47634847Y24792260D01*
X-47634848Y24792256D01*
X-47672499Y24651742D01*
X-49107500Y24651742D01*
X-49145151Y24792256D01*
X-49145152Y24792260D01*
X-49217890Y24918244D01*
X-49320756Y25021110D01*
X-49446740Y25093848D01*
X-49446744Y25093849D01*
X-49587258Y25131500D01*
X-49587261Y25131500D01*
X-49732737Y25131500D01*
X-49732740Y25131500D01*
X-49873255Y25093849D01*
X-49873259Y25093848D01*
X-49999243Y25021110D01*
X-49999243Y25021109D01*
X-50102108Y24918244D01*
X-50102109Y24918244D01*
X-50174847Y24792260D01*
X-50174848Y24792256D01*
X-50212499Y24651742D01*
X-54187501Y24651742D01*
X-54225152Y24792256D01*
X-54225153Y24792260D01*
X-54297891Y24918244D01*
X-54400757Y25021110D01*
X-54526741Y25093848D01*
X-54526745Y25093849D01*
X-54667259Y25131500D01*
X-54667262Y25131500D01*
X-54812738Y25131500D01*
X-54812741Y25131500D01*
X-54953256Y25093849D01*
X-54953260Y25093848D01*
X-55079244Y25021110D01*
X-55079244Y25021109D01*
X-55182109Y24918244D01*
X-55182110Y24918244D01*
X-55254848Y24792260D01*
X-55254849Y24792256D01*
X-55292500Y24651742D01*
X-56727500Y24651742D01*
X-56727501Y24651743D01*
X-56735458Y24681438D01*
X-56765152Y24792258D01*
X-56765153Y24792260D01*
X-56765153Y24792261D01*
X-56811267Y24872132D01*
X-56837890Y24918244D01*
X-56940757Y25021111D01*
X-57066741Y25093849D01*
X-57066745Y25093850D01*
X-57207259Y25131501D01*
X-57207262Y25131501D01*
X-57352738Y25131501D01*
X-57352741Y25131501D01*
X-57493256Y25093850D01*
X-57493260Y25093849D01*
X-57619244Y25021111D01*
X-57619244Y25021110D01*
X-57722109Y24918245D01*
X-57722110Y24918245D01*
X-57794848Y24792261D01*
X-57794849Y24792257D01*
X-57832500Y24651743D01*
X-74799500Y24651743D01*
X-74799500Y26556743D01*
X-59102500Y26556743D01*
X-59102500Y26411260D01*
X-59064849Y26270746D01*
X-59064848Y26270742D01*
X-58992110Y26144758D01*
X-58889243Y26041891D01*
X-58889241Y26041890D01*
X-58763260Y25969154D01*
X-58763258Y25969154D01*
X-58763257Y25969153D01*
X-58652437Y25939459D01*
X-58622742Y25931502D01*
X-58622741Y25931501D01*
X-58622738Y25931501D01*
X-58477259Y25931501D01*
X-58477259Y25931502D01*
X-58336743Y25969153D01*
X-58210757Y26041891D01*
X-58107890Y26144758D01*
X-58035152Y26270744D01*
X-57997501Y26411260D01*
X-57997500Y26411260D01*
X-57997500Y26556742D01*
X-57997501Y26556743D01*
X-56562500Y26556743D01*
X-56562500Y26411260D01*
X-56524849Y26270746D01*
X-56524848Y26270742D01*
X-56452110Y26144758D01*
X-56349243Y26041891D01*
X-56349241Y26041890D01*
X-56223260Y25969154D01*
X-56223258Y25969154D01*
X-56223257Y25969153D01*
X-56112437Y25939459D01*
X-56082742Y25931502D01*
X-56082741Y25931501D01*
X-56082738Y25931501D01*
X-55937259Y25931501D01*
X-55937259Y25931502D01*
X-55796743Y25969153D01*
X-55670757Y26041891D01*
X-55567890Y26144758D01*
X-55495152Y26270744D01*
X-55457501Y26411260D01*
X-55457500Y26411260D01*
X-55457500Y26556742D01*
X-55457501Y26556743D01*
X-54022500Y26556743D01*
X-54022500Y26411260D01*
X-53984849Y26270746D01*
X-53984848Y26270742D01*
X-53912110Y26144758D01*
X-53809243Y26041891D01*
X-53809241Y26041890D01*
X-53683260Y25969154D01*
X-53683258Y25969154D01*
X-53683257Y25969153D01*
X-53572437Y25939459D01*
X-53542742Y25931502D01*
X-53542741Y25931501D01*
X-53542738Y25931501D01*
X-53397259Y25931501D01*
X-53397259Y25931502D01*
X-53256743Y25969153D01*
X-53130757Y26041891D01*
X-53027890Y26144758D01*
X-52955152Y26270744D01*
X-52917501Y26411260D01*
X-52917500Y26411260D01*
X-52917500Y26556742D01*
X-51482500Y26556742D01*
X-51482500Y26411259D01*
X-51444849Y26270745D01*
X-51444848Y26270741D01*
X-51372111Y26144758D01*
X-51372110Y26144757D01*
X-51269243Y26041890D01*
X-51223131Y26015267D01*
X-51143260Y25969153D01*
X-51143258Y25969153D01*
X-51143257Y25969152D01*
X-51032437Y25939458D01*
X-51002742Y25931501D01*
X-51002741Y25931500D01*
X-51002738Y25931500D01*
X-50857259Y25931500D01*
X-50857259Y25931501D01*
X-50716743Y25969152D01*
X-50716739Y25969154D01*
X-50699863Y25978898D01*
X-50590757Y26041890D01*
X-50487890Y26144757D01*
X-50415152Y26270743D01*
X-50377501Y26411259D01*
X-50377500Y26411259D01*
X-50377500Y26556741D01*
X-50377501Y26556742D01*
X-50377501Y26556743D01*
X-48942500Y26556743D01*
X-48942500Y26411260D01*
X-48904849Y26270746D01*
X-48904848Y26270742D01*
X-48832110Y26144758D01*
X-48729243Y26041891D01*
X-48729241Y26041890D01*
X-48603260Y25969154D01*
X-48603258Y25969154D01*
X-48603257Y25969153D01*
X-48492437Y25939459D01*
X-48462742Y25931502D01*
X-48462741Y25931501D01*
X-48462738Y25931501D01*
X-48317259Y25931501D01*
X-48317259Y25931502D01*
X-48176743Y25969153D01*
X-48050757Y26041891D01*
X-47947890Y26144758D01*
X-47875152Y26270744D01*
X-47837501Y26411260D01*
X-47837500Y26411260D01*
X-47837500Y26556742D01*
X-47837501Y26556743D01*
X-46402500Y26556743D01*
X-46402500Y26411260D01*
X-46364849Y26270746D01*
X-46364848Y26270742D01*
X-46292110Y26144758D01*
X-46189243Y26041891D01*
X-46189241Y26041890D01*
X-46063260Y25969154D01*
X-46063258Y25969154D01*
X-46063257Y25969153D01*
X-45952437Y25939459D01*
X-45922742Y25931502D01*
X-45922741Y25931501D01*
X-45922738Y25931501D01*
X-45777259Y25931501D01*
X-45777259Y25931502D01*
X-45636743Y25969153D01*
X-45510757Y26041891D01*
X-45407890Y26144758D01*
X-45335152Y26270744D01*
X-45297501Y26411260D01*
X-45297500Y26411260D01*
X-45297500Y26556742D01*
X-45297501Y26556743D01*
X-43862500Y26556743D01*
X-43862500Y26411260D01*
X-43824849Y26270746D01*
X-43824848Y26270742D01*
X-43752110Y26144758D01*
X-43649243Y26041891D01*
X-43649241Y26041890D01*
X-43523260Y25969154D01*
X-43523258Y25969154D01*
X-43523257Y25969153D01*
X-43412437Y25939459D01*
X-43382742Y25931502D01*
X-43382741Y25931501D01*
X-43382738Y25931501D01*
X-43237259Y25931501D01*
X-43237259Y25931502D01*
X-43096743Y25969153D01*
X-42970757Y26041891D01*
X-42867890Y26144758D01*
X-42795152Y26270744D01*
X-42757501Y26411260D01*
X-42757500Y26411260D01*
X-42757500Y26556742D01*
X-41322500Y26556742D01*
X-41322500Y26411259D01*
X-41284849Y26270745D01*
X-41284848Y26270741D01*
X-41212111Y26144758D01*
X-41212110Y26144757D01*
X-41109243Y26041890D01*
X-41063131Y26015267D01*
X-40983260Y25969153D01*
X-40983258Y25969153D01*
X-40983257Y25969152D01*
X-40872437Y25939458D01*
X-40842742Y25931501D01*
X-40842741Y25931500D01*
X-40842738Y25931500D01*
X-40697259Y25931500D01*
X-40697259Y25931501D01*
X-40556743Y25969152D01*
X-40556739Y25969154D01*
X-40539863Y25978898D01*
X-40430757Y26041890D01*
X-40327890Y26144757D01*
X-40255152Y26270743D01*
X-40217501Y26411259D01*
X-40217500Y26411259D01*
X-40217500Y26556741D01*
X-40217501Y26556742D01*
X-38782500Y26556742D01*
X-38782500Y26411259D01*
X-38744849Y26270745D01*
X-38744848Y26270741D01*
X-38672111Y26144758D01*
X-38672110Y26144757D01*
X-38569243Y26041890D01*
X-38523131Y26015267D01*
X-38443260Y25969153D01*
X-38443258Y25969153D01*
X-38443257Y25969152D01*
X-38332437Y25939458D01*
X-38302742Y25931501D01*
X-38302741Y25931500D01*
X-38302738Y25931500D01*
X-38157259Y25931500D01*
X-38157259Y25931501D01*
X-38016743Y25969152D01*
X-38016739Y25969154D01*
X-37999863Y25978898D01*
X-37890757Y26041890D01*
X-37787890Y26144757D01*
X-37715152Y26270743D01*
X-37677501Y26411259D01*
X-37677500Y26411259D01*
X-37677500Y26556741D01*
X-37677501Y26556742D01*
X-37677501Y26556743D01*
X-31162500Y26556743D01*
X-31162500Y26411260D01*
X-31124849Y26270746D01*
X-31124848Y26270742D01*
X-31052110Y26144758D01*
X-30949243Y26041891D01*
X-30949241Y26041890D01*
X-30823260Y25969154D01*
X-30823258Y25969154D01*
X-30823257Y25969153D01*
X-30712437Y25939459D01*
X-30682742Y25931502D01*
X-30682741Y25931501D01*
X-30682738Y25931501D01*
X-30537259Y25931501D01*
X-30537259Y25931502D01*
X-30396743Y25969153D01*
X-30270757Y26041891D01*
X-30167890Y26144758D01*
X-30095152Y26270744D01*
X-30057501Y26411260D01*
X-30057500Y26411260D01*
X-30057500Y26556742D01*
X-28622500Y26556742D01*
X-28622500Y26411259D01*
X-28584849Y26270745D01*
X-28584848Y26270741D01*
X-28512111Y26144758D01*
X-28512110Y26144757D01*
X-28409243Y26041890D01*
X-28363131Y26015267D01*
X-28283260Y25969153D01*
X-28283258Y25969153D01*
X-28283257Y25969152D01*
X-28172437Y25939458D01*
X-28142742Y25931501D01*
X-28142741Y25931500D01*
X-28142738Y25931500D01*
X-27997259Y25931500D01*
X-27997259Y25931501D01*
X-27856743Y25969152D01*
X-27856739Y25969154D01*
X-27839863Y25978898D01*
X-27730757Y26041890D01*
X-27627890Y26144757D01*
X-27555152Y26270743D01*
X-27517501Y26411259D01*
X-27517500Y26411259D01*
X-27517500Y26556741D01*
X-27517501Y26556742D01*
X-27517501Y26556743D01*
X-26082500Y26556743D01*
X-26082500Y26411260D01*
X-26044849Y26270746D01*
X-26044848Y26270742D01*
X-25972110Y26144758D01*
X-25869243Y26041891D01*
X-25869241Y26041890D01*
X-25743260Y25969154D01*
X-25743258Y25969154D01*
X-25743257Y25969153D01*
X-25632437Y25939459D01*
X-25602742Y25931502D01*
X-25602741Y25931501D01*
X-25602738Y25931501D01*
X-25457259Y25931501D01*
X-25457259Y25931502D01*
X-25316743Y25969153D01*
X-25190757Y26041891D01*
X-25087890Y26144758D01*
X-25015152Y26270744D01*
X-24977501Y26411260D01*
X-24977500Y26411260D01*
X-24977500Y26556742D01*
X-24977501Y26556743D01*
X-23542500Y26556743D01*
X-23542500Y26411260D01*
X-23504849Y26270746D01*
X-23504848Y26270742D01*
X-23432110Y26144758D01*
X-23329243Y26041891D01*
X-23329241Y26041890D01*
X-23203260Y25969154D01*
X-23203258Y25969154D01*
X-23203257Y25969153D01*
X-23092437Y25939459D01*
X-23062742Y25931502D01*
X-23062741Y25931501D01*
X-23062738Y25931501D01*
X-22917259Y25931501D01*
X-22917259Y25931502D01*
X-22776743Y25969153D01*
X-22650757Y26041891D01*
X-22547890Y26144758D01*
X-22475152Y26270744D01*
X-22437501Y26411260D01*
X-22437500Y26411260D01*
X-22437500Y26556742D01*
X-22437501Y26556743D01*
X-21002500Y26556743D01*
X-21002500Y26411260D01*
X-20964849Y26270746D01*
X-20964848Y26270742D01*
X-20892110Y26144758D01*
X-20789243Y26041891D01*
X-20789241Y26041890D01*
X-20663260Y25969154D01*
X-20663258Y25969154D01*
X-20663257Y25969153D01*
X-20552437Y25939459D01*
X-20522742Y25931502D01*
X-20522741Y25931501D01*
X-20522738Y25931501D01*
X-20377259Y25931501D01*
X-20377259Y25931502D01*
X-20236743Y25969153D01*
X-20110757Y26041891D01*
X-20007890Y26144758D01*
X-19935152Y26270744D01*
X-19897501Y26411260D01*
X-19897500Y26411260D01*
X-19897500Y26556742D01*
X-18462500Y26556742D01*
X-18462500Y26411259D01*
X-18424849Y26270745D01*
X-18424848Y26270741D01*
X-18352111Y26144758D01*
X-18352110Y26144757D01*
X-18249243Y26041890D01*
X-18203131Y26015267D01*
X-18123260Y25969153D01*
X-18123258Y25969153D01*
X-18123257Y25969152D01*
X-18012437Y25939458D01*
X-17982742Y25931501D01*
X-17982741Y25931500D01*
X-17982738Y25931500D01*
X-17837259Y25931500D01*
X-17837259Y25931501D01*
X-17696743Y25969152D01*
X-17696739Y25969154D01*
X-17679863Y25978898D01*
X-17570757Y26041890D01*
X-17467890Y26144757D01*
X-17395152Y26270743D01*
X-17357501Y26411259D01*
X-17357500Y26411259D01*
X-17357500Y26556741D01*
X-17357501Y26556742D01*
X-17395152Y26697256D01*
X-17395153Y26697260D01*
X-17467891Y26823244D01*
X-17570757Y26926110D01*
X-17696741Y26998848D01*
X-17696745Y26998849D01*
X-17837259Y27036500D01*
X-17837262Y27036500D01*
X-17982738Y27036500D01*
X-17982741Y27036500D01*
X-18123256Y26998849D01*
X-18123260Y26998848D01*
X-18249244Y26926110D01*
X-18249244Y26926109D01*
X-18352109Y26823244D01*
X-18352110Y26823244D01*
X-18424848Y26697260D01*
X-18424849Y26697256D01*
X-18462500Y26556742D01*
X-19897500Y26556742D01*
X-19897501Y26556743D01*
X-19905458Y26586438D01*
X-19935152Y26697258D01*
X-19935153Y26697260D01*
X-19935153Y26697261D01*
X-19981267Y26777132D01*
X-20007890Y26823244D01*
X-20110757Y26926111D01*
X-20236741Y26998849D01*
X-20236745Y26998850D01*
X-20377259Y27036501D01*
X-20377262Y27036501D01*
X-20522738Y27036501D01*
X-20522741Y27036501D01*
X-20663256Y26998850D01*
X-20663260Y26998849D01*
X-20789244Y26926111D01*
X-20789244Y26926110D01*
X-20892109Y26823245D01*
X-20892110Y26823245D01*
X-20964848Y26697261D01*
X-20964849Y26697257D01*
X-21002500Y26556743D01*
X-22437501Y26556743D01*
X-22445458Y26586438D01*
X-22475152Y26697258D01*
X-22475153Y26697260D01*
X-22475153Y26697261D01*
X-22521267Y26777132D01*
X-22547890Y26823244D01*
X-22650757Y26926111D01*
X-22776741Y26998849D01*
X-22776745Y26998850D01*
X-22917259Y27036501D01*
X-22917262Y27036501D01*
X-23062738Y27036501D01*
X-23062741Y27036501D01*
X-23203256Y26998850D01*
X-23203260Y26998849D01*
X-23329244Y26926111D01*
X-23329244Y26926110D01*
X-23432109Y26823245D01*
X-23432110Y26823245D01*
X-23504848Y26697261D01*
X-23504849Y26697257D01*
X-23542500Y26556743D01*
X-24977501Y26556743D01*
X-24985458Y26586438D01*
X-25015152Y26697258D01*
X-25015153Y26697260D01*
X-25015153Y26697261D01*
X-25061267Y26777132D01*
X-25087890Y26823244D01*
X-25190757Y26926111D01*
X-25316741Y26998849D01*
X-25316745Y26998850D01*
X-25457259Y27036501D01*
X-25457262Y27036501D01*
X-25602738Y27036501D01*
X-25602741Y27036501D01*
X-25743256Y26998850D01*
X-25743260Y26998849D01*
X-25869244Y26926111D01*
X-25869244Y26926110D01*
X-25972109Y26823245D01*
X-25972110Y26823245D01*
X-26044848Y26697261D01*
X-26044849Y26697257D01*
X-26082500Y26556743D01*
X-27517501Y26556743D01*
X-27555152Y26697256D01*
X-27555153Y26697260D01*
X-27627891Y26823244D01*
X-27730757Y26926110D01*
X-27856741Y26998848D01*
X-27856745Y26998849D01*
X-27997259Y27036500D01*
X-27997262Y27036500D01*
X-28142738Y27036500D01*
X-28142741Y27036500D01*
X-28283256Y26998849D01*
X-28283260Y26998848D01*
X-28409244Y26926110D01*
X-28409244Y26926109D01*
X-28512109Y26823244D01*
X-28512110Y26823244D01*
X-28584848Y26697260D01*
X-28584849Y26697256D01*
X-28622500Y26556742D01*
X-30057500Y26556742D01*
X-30057501Y26556743D01*
X-30065458Y26586438D01*
X-30095152Y26697258D01*
X-30095153Y26697260D01*
X-30095153Y26697261D01*
X-30141267Y26777132D01*
X-30167890Y26823244D01*
X-30270757Y26926111D01*
X-30396741Y26998849D01*
X-30396745Y26998850D01*
X-30537259Y27036501D01*
X-30537262Y27036501D01*
X-30682738Y27036501D01*
X-30682741Y27036501D01*
X-30823256Y26998850D01*
X-30823260Y26998849D01*
X-30949244Y26926111D01*
X-30949244Y26926110D01*
X-31052109Y26823245D01*
X-31052110Y26823245D01*
X-31124848Y26697261D01*
X-31124849Y26697257D01*
X-31162500Y26556743D01*
X-37677501Y26556743D01*
X-37715152Y26697256D01*
X-37715153Y26697260D01*
X-37787891Y26823244D01*
X-37890757Y26926110D01*
X-38016741Y26998848D01*
X-38016745Y26998849D01*
X-38157259Y27036500D01*
X-38157262Y27036500D01*
X-38302738Y27036500D01*
X-38302741Y27036500D01*
X-38443256Y26998849D01*
X-38443260Y26998848D01*
X-38569244Y26926110D01*
X-38569244Y26926109D01*
X-38672109Y26823244D01*
X-38672110Y26823244D01*
X-38744848Y26697260D01*
X-38744849Y26697256D01*
X-38782500Y26556742D01*
X-40217501Y26556742D01*
X-40255152Y26697256D01*
X-40255153Y26697260D01*
X-40327891Y26823244D01*
X-40430757Y26926110D01*
X-40556741Y26998848D01*
X-40556745Y26998849D01*
X-40697259Y27036500D01*
X-40697262Y27036500D01*
X-40842738Y27036500D01*
X-40842741Y27036500D01*
X-40983256Y26998849D01*
X-40983260Y26998848D01*
X-41109244Y26926110D01*
X-41109244Y26926109D01*
X-41212109Y26823244D01*
X-41212110Y26823244D01*
X-41284848Y26697260D01*
X-41284849Y26697256D01*
X-41322500Y26556742D01*
X-42757500Y26556742D01*
X-42757501Y26556743D01*
X-42765458Y26586438D01*
X-42795152Y26697258D01*
X-42795153Y26697260D01*
X-42795153Y26697261D01*
X-42841267Y26777132D01*
X-42867890Y26823244D01*
X-42970757Y26926111D01*
X-43096741Y26998849D01*
X-43096745Y26998850D01*
X-43237259Y27036501D01*
X-43237262Y27036501D01*
X-43382738Y27036501D01*
X-43382741Y27036501D01*
X-43523256Y26998850D01*
X-43523260Y26998849D01*
X-43649244Y26926111D01*
X-43649244Y26926110D01*
X-43752109Y26823245D01*
X-43752110Y26823245D01*
X-43824848Y26697261D01*
X-43824849Y26697257D01*
X-43862500Y26556743D01*
X-45297501Y26556743D01*
X-45305458Y26586438D01*
X-45335152Y26697258D01*
X-45335153Y26697260D01*
X-45335153Y26697261D01*
X-45381267Y26777132D01*
X-45407890Y26823244D01*
X-45510757Y26926111D01*
X-45636741Y26998849D01*
X-45636745Y26998850D01*
X-45777259Y27036501D01*
X-45777262Y27036501D01*
X-45922738Y27036501D01*
X-45922741Y27036501D01*
X-46063256Y26998850D01*
X-46063260Y26998849D01*
X-46189244Y26926111D01*
X-46189244Y26926110D01*
X-46292109Y26823245D01*
X-46292110Y26823245D01*
X-46364848Y26697261D01*
X-46364849Y26697257D01*
X-46402500Y26556743D01*
X-47837501Y26556743D01*
X-47845458Y26586438D01*
X-47875152Y26697258D01*
X-47875153Y26697260D01*
X-47875153Y26697261D01*
X-47921267Y26777132D01*
X-47947890Y26823244D01*
X-48050757Y26926111D01*
X-48176741Y26998849D01*
X-48176745Y26998850D01*
X-48317259Y27036501D01*
X-48317262Y27036501D01*
X-48462738Y27036501D01*
X-48462741Y27036501D01*
X-48603256Y26998850D01*
X-48603260Y26998849D01*
X-48729244Y26926111D01*
X-48729244Y26926110D01*
X-48832109Y26823245D01*
X-48832110Y26823245D01*
X-48904848Y26697261D01*
X-48904849Y26697257D01*
X-48942500Y26556743D01*
X-50377501Y26556743D01*
X-50415152Y26697256D01*
X-50415153Y26697260D01*
X-50487891Y26823244D01*
X-50590757Y26926110D01*
X-50716741Y26998848D01*
X-50716745Y26998849D01*
X-50857259Y27036500D01*
X-50857262Y27036500D01*
X-51002738Y27036500D01*
X-51002741Y27036500D01*
X-51143256Y26998849D01*
X-51143260Y26998848D01*
X-51269244Y26926110D01*
X-51269244Y26926109D01*
X-51372109Y26823244D01*
X-51372110Y26823244D01*
X-51444848Y26697260D01*
X-51444849Y26697256D01*
X-51482500Y26556742D01*
X-52917500Y26556742D01*
X-52917501Y26556743D01*
X-52925458Y26586438D01*
X-52955152Y26697258D01*
X-52955153Y26697260D01*
X-52955153Y26697261D01*
X-53001267Y26777132D01*
X-53027890Y26823244D01*
X-53130757Y26926111D01*
X-53256741Y26998849D01*
X-53256745Y26998850D01*
X-53397259Y27036501D01*
X-53397262Y27036501D01*
X-53542738Y27036501D01*
X-53542741Y27036501D01*
X-53683256Y26998850D01*
X-53683260Y26998849D01*
X-53809244Y26926111D01*
X-53809244Y26926110D01*
X-53912109Y26823245D01*
X-53912110Y26823245D01*
X-53984848Y26697261D01*
X-53984849Y26697257D01*
X-54022500Y26556743D01*
X-55457501Y26556743D01*
X-55465458Y26586438D01*
X-55495152Y26697258D01*
X-55495153Y26697260D01*
X-55495153Y26697261D01*
X-55541267Y26777132D01*
X-55567890Y26823244D01*
X-55670757Y26926111D01*
X-55796741Y26998849D01*
X-55796745Y26998850D01*
X-55937259Y27036501D01*
X-55937262Y27036501D01*
X-56082738Y27036501D01*
X-56082741Y27036501D01*
X-56223256Y26998850D01*
X-56223260Y26998849D01*
X-56349244Y26926111D01*
X-56349244Y26926110D01*
X-56452109Y26823245D01*
X-56452110Y26823245D01*
X-56524848Y26697261D01*
X-56524849Y26697257D01*
X-56562500Y26556743D01*
X-57997501Y26556743D01*
X-58005458Y26586438D01*
X-58035152Y26697258D01*
X-58035153Y26697260D01*
X-58035153Y26697261D01*
X-58081267Y26777132D01*
X-58107890Y26823244D01*
X-58210757Y26926111D01*
X-58336741Y26998849D01*
X-58336745Y26998850D01*
X-58477259Y27036501D01*
X-58477262Y27036501D01*
X-58622738Y27036501D01*
X-58622741Y27036501D01*
X-58763256Y26998850D01*
X-58763260Y26998849D01*
X-58889244Y26926111D01*
X-58889244Y26926110D01*
X-58992109Y26823245D01*
X-58992110Y26823245D01*
X-59064848Y26697261D01*
X-59064849Y26697257D01*
X-59102500Y26556743D01*
X-74799500Y26556743D01*
X-74799500Y28510003D01*
X-68087500Y28510003D01*
X-68087500Y28267996D01*
X-68049642Y28028970D01*
X-68049641Y28028967D01*
X-67974857Y27798803D01*
X-67864992Y27583179D01*
X-67864989Y27583175D01*
X-67864988Y27583173D01*
X-67722739Y27387385D01*
X-67722737Y27387383D01*
X-67722734Y27387379D01*
X-67551621Y27216266D01*
X-67551618Y27216264D01*
X-67551614Y27216260D01*
X-67355826Y27074011D01*
X-67355824Y27074010D01*
X-67355821Y27074008D01*
X-67208314Y26998850D01*
X-67140195Y26964142D01*
X-66910032Y26889358D01*
X-66671004Y26851499D01*
X-66671003Y26851499D01*
X-66428997Y26851499D01*
X-66428996Y26851499D01*
X-66189968Y26889358D01*
X-65959805Y26964142D01*
X-65744174Y27074011D01*
X-65548386Y27216260D01*
X-65377261Y27387385D01*
X-65235012Y27583173D01*
X-65125143Y27798804D01*
X-65050359Y28028967D01*
X-65012500Y28267995D01*
X-65012500Y28461741D01*
X-57832500Y28461741D01*
X-57832500Y28316258D01*
X-57794849Y28175744D01*
X-57794848Y28175740D01*
X-57722111Y28049757D01*
X-57722110Y28049756D01*
X-57619243Y27946889D01*
X-57573131Y27920266D01*
X-57493260Y27874152D01*
X-57493258Y27874152D01*
X-57493257Y27874151D01*
X-57382437Y27844457D01*
X-57352742Y27836500D01*
X-57352741Y27836499D01*
X-57352738Y27836499D01*
X-57207259Y27836499D01*
X-57207259Y27836500D01*
X-57066743Y27874151D01*
X-57066739Y27874153D01*
X-57049863Y27883897D01*
X-56940757Y27946889D01*
X-56837890Y28049756D01*
X-56765152Y28175742D01*
X-56727501Y28316258D01*
X-56727500Y28316258D01*
X-56727500Y28461740D01*
X-56727501Y28461741D01*
X-56727501Y28461742D01*
X-55292500Y28461742D01*
X-55292500Y28316259D01*
X-55254849Y28175745D01*
X-55254848Y28175741D01*
X-55182110Y28049757D01*
X-55079243Y27946890D01*
X-55079241Y27946889D01*
X-54953260Y27874153D01*
X-54953258Y27874153D01*
X-54953257Y27874152D01*
X-54842437Y27844458D01*
X-54812742Y27836501D01*
X-54812741Y27836500D01*
X-54812738Y27836500D01*
X-54667259Y27836500D01*
X-54667259Y27836501D01*
X-54526743Y27874152D01*
X-54400757Y27946890D01*
X-54297890Y28049757D01*
X-54225152Y28175743D01*
X-54187501Y28316259D01*
X-54187500Y28316259D01*
X-54187500Y28461741D01*
X-54187501Y28461742D01*
X-50212500Y28461742D01*
X-50212500Y28316259D01*
X-50174849Y28175745D01*
X-50174848Y28175741D01*
X-50102110Y28049757D01*
X-49999243Y27946890D01*
X-49999241Y27946889D01*
X-49873260Y27874153D01*
X-49873258Y27874153D01*
X-49873257Y27874152D01*
X-49762437Y27844458D01*
X-49732742Y27836501D01*
X-49732741Y27836500D01*
X-49732738Y27836500D01*
X-49587259Y27836500D01*
X-49587259Y27836501D01*
X-49446743Y27874152D01*
X-49320757Y27946890D01*
X-49217890Y28049757D01*
X-49145152Y28175743D01*
X-49107501Y28316259D01*
X-49107500Y28316259D01*
X-49107500Y28461741D01*
X-49107501Y28461742D01*
X-47672500Y28461742D01*
X-47672500Y28316259D01*
X-47634849Y28175745D01*
X-47634848Y28175741D01*
X-47562110Y28049757D01*
X-47459243Y27946890D01*
X-47459241Y27946889D01*
X-47333260Y27874153D01*
X-47333258Y27874153D01*
X-47333257Y27874152D01*
X-47222437Y27844458D01*
X-47192742Y27836501D01*
X-47192741Y27836500D01*
X-47192738Y27836500D01*
X-47047259Y27836500D01*
X-47047259Y27836501D01*
X-46906743Y27874152D01*
X-46780757Y27946890D01*
X-46677890Y28049757D01*
X-46605152Y28175743D01*
X-46567501Y28316259D01*
X-46567500Y28316259D01*
X-46567500Y28461741D01*
X-45132500Y28461741D01*
X-45132500Y28316258D01*
X-45094849Y28175744D01*
X-45094848Y28175740D01*
X-45022111Y28049757D01*
X-45022110Y28049756D01*
X-44919243Y27946889D01*
X-44873131Y27920266D01*
X-44793260Y27874152D01*
X-44793258Y27874152D01*
X-44793257Y27874151D01*
X-44682437Y27844457D01*
X-44652742Y27836500D01*
X-44652741Y27836499D01*
X-44652738Y27836499D01*
X-44507259Y27836499D01*
X-44507259Y27836500D01*
X-44366743Y27874151D01*
X-44366739Y27874153D01*
X-44349863Y27883897D01*
X-44240757Y27946889D01*
X-44137890Y28049756D01*
X-44065152Y28175742D01*
X-44027501Y28316258D01*
X-44027500Y28316258D01*
X-44027500Y28461740D01*
X-44027501Y28461741D01*
X-44027501Y28461742D01*
X-42592500Y28461742D01*
X-42592500Y28316259D01*
X-42554849Y28175745D01*
X-42554848Y28175741D01*
X-42482110Y28049757D01*
X-42379243Y27946890D01*
X-42379241Y27946889D01*
X-42253260Y27874153D01*
X-42253258Y27874153D01*
X-42253257Y27874152D01*
X-42142437Y27844458D01*
X-42112742Y27836501D01*
X-42112741Y27836500D01*
X-42112738Y27836500D01*
X-41967259Y27836500D01*
X-41967259Y27836501D01*
X-41826743Y27874152D01*
X-41700757Y27946890D01*
X-41597890Y28049757D01*
X-41525152Y28175743D01*
X-41487501Y28316259D01*
X-41487500Y28316259D01*
X-41487500Y28461741D01*
X-41487501Y28461742D01*
X-37512500Y28461742D01*
X-37512500Y28316259D01*
X-37474849Y28175745D01*
X-37474848Y28175741D01*
X-37402110Y28049757D01*
X-37299243Y27946890D01*
X-37299241Y27946889D01*
X-37173260Y27874153D01*
X-37173258Y27874153D01*
X-37173257Y27874152D01*
X-37062437Y27844458D01*
X-37032742Y27836501D01*
X-37032741Y27836500D01*
X-37032738Y27836500D01*
X-36887259Y27836500D01*
X-36887259Y27836501D01*
X-36746743Y27874152D01*
X-36620757Y27946890D01*
X-36517890Y28049757D01*
X-36445152Y28175743D01*
X-36407501Y28316259D01*
X-36407500Y28316259D01*
X-36407500Y28461741D01*
X-34972500Y28461741D01*
X-34972500Y28316258D01*
X-34934849Y28175744D01*
X-34934848Y28175740D01*
X-34862111Y28049757D01*
X-34862110Y28049756D01*
X-34759243Y27946889D01*
X-34713131Y27920266D01*
X-34633260Y27874152D01*
X-34633258Y27874152D01*
X-34633257Y27874151D01*
X-34522437Y27844457D01*
X-34492742Y27836500D01*
X-34492741Y27836499D01*
X-34492738Y27836499D01*
X-34347259Y27836499D01*
X-34347259Y27836500D01*
X-34206743Y27874151D01*
X-34206739Y27874153D01*
X-34189863Y27883897D01*
X-34080757Y27946889D01*
X-33977890Y28049756D01*
X-33905152Y28175742D01*
X-33867501Y28316258D01*
X-33867500Y28316258D01*
X-33867500Y28461740D01*
X-33867501Y28461741D01*
X-33867501Y28461742D01*
X-32432500Y28461742D01*
X-32432500Y28316259D01*
X-32394849Y28175745D01*
X-32394848Y28175741D01*
X-32322110Y28049757D01*
X-32219243Y27946890D01*
X-32219241Y27946889D01*
X-32093260Y27874153D01*
X-32093258Y27874153D01*
X-32093257Y27874152D01*
X-31982437Y27844458D01*
X-31952742Y27836501D01*
X-31952741Y27836500D01*
X-31952738Y27836500D01*
X-31807259Y27836500D01*
X-31807259Y27836501D01*
X-31666743Y27874152D01*
X-31540757Y27946890D01*
X-31437890Y28049757D01*
X-31365152Y28175743D01*
X-31327501Y28316259D01*
X-31327500Y28316259D01*
X-31327500Y28461741D01*
X-31327501Y28461742D01*
X-29892500Y28461742D01*
X-29892500Y28316259D01*
X-29854849Y28175745D01*
X-29854848Y28175741D01*
X-29782110Y28049757D01*
X-29679243Y27946890D01*
X-29679241Y27946889D01*
X-29553260Y27874153D01*
X-29553258Y27874153D01*
X-29553257Y27874152D01*
X-29442437Y27844458D01*
X-29412742Y27836501D01*
X-29412741Y27836500D01*
X-29412738Y27836500D01*
X-29267259Y27836500D01*
X-29267259Y27836501D01*
X-29126743Y27874152D01*
X-29000757Y27946890D01*
X-28897890Y28049757D01*
X-28825152Y28175743D01*
X-28787501Y28316259D01*
X-28787500Y28316259D01*
X-28787500Y28461741D01*
X-28787501Y28461742D01*
X-27352500Y28461742D01*
X-27352500Y28316259D01*
X-27314849Y28175745D01*
X-27314848Y28175741D01*
X-27242110Y28049757D01*
X-27139243Y27946890D01*
X-27139241Y27946889D01*
X-27013260Y27874153D01*
X-27013258Y27874153D01*
X-27013257Y27874152D01*
X-26902437Y27844458D01*
X-26872742Y27836501D01*
X-26872741Y27836500D01*
X-26872738Y27836500D01*
X-26727259Y27836500D01*
X-26727259Y27836501D01*
X-26586743Y27874152D01*
X-26460757Y27946890D01*
X-26357890Y28049757D01*
X-26285152Y28175743D01*
X-26247501Y28316259D01*
X-26247500Y28316259D01*
X-26247500Y28461741D01*
X-26247501Y28461742D01*
X-24812500Y28461742D01*
X-24812500Y28316259D01*
X-24774849Y28175745D01*
X-24774848Y28175741D01*
X-24702110Y28049757D01*
X-24599243Y27946890D01*
X-24599241Y27946889D01*
X-24473260Y27874153D01*
X-24473258Y27874153D01*
X-24473257Y27874152D01*
X-24362437Y27844458D01*
X-24332742Y27836501D01*
X-24332741Y27836500D01*
X-24332738Y27836500D01*
X-24187259Y27836500D01*
X-24187259Y27836501D01*
X-24046743Y27874152D01*
X-23920757Y27946890D01*
X-23817890Y28049757D01*
X-23745152Y28175743D01*
X-23707501Y28316259D01*
X-23707500Y28316259D01*
X-23707500Y28461741D01*
X-23707501Y28461742D01*
X-19732500Y28461742D01*
X-19732500Y28316259D01*
X-19694849Y28175745D01*
X-19694848Y28175741D01*
X-19622110Y28049757D01*
X-19519243Y27946890D01*
X-19519241Y27946889D01*
X-19393260Y27874153D01*
X-19393258Y27874153D01*
X-19393257Y27874152D01*
X-19282437Y27844458D01*
X-19252742Y27836501D01*
X-19252741Y27836500D01*
X-19252738Y27836500D01*
X-19107259Y27836500D01*
X-19107259Y27836501D01*
X-18966743Y27874152D01*
X-18840757Y27946890D01*
X-18737890Y28049757D01*
X-18665152Y28175743D01*
X-18627501Y28316259D01*
X-18627500Y28316259D01*
X-18627500Y28461741D01*
X-18627501Y28461742D01*
X-17192500Y28461742D01*
X-17192500Y28316259D01*
X-17154849Y28175745D01*
X-17154848Y28175741D01*
X-17082110Y28049757D01*
X-16979243Y27946890D01*
X-16979241Y27946889D01*
X-16853260Y27874153D01*
X-16853258Y27874153D01*
X-16853257Y27874152D01*
X-16742437Y27844458D01*
X-16712742Y27836501D01*
X-16712741Y27836500D01*
X-16712738Y27836500D01*
X-16567259Y27836500D01*
X-16567259Y27836501D01*
X-16426743Y27874152D01*
X-16300757Y27946890D01*
X-16197890Y28049757D01*
X-16125152Y28175743D01*
X-16087501Y28316259D01*
X-16087500Y28316259D01*
X-16087500Y28461741D01*
X-16087501Y28461742D01*
X-16100433Y28510004D01*
X-10176501Y28510004D01*
X-10176501Y28267997D01*
X-10138643Y28028971D01*
X-10138642Y28028968D01*
X-10063858Y27798804D01*
X-9953993Y27583180D01*
X-9953992Y27583179D01*
X-9953989Y27583174D01*
X-9811740Y27387386D01*
X-9811739Y27387385D01*
X-9811735Y27387380D01*
X-9640622Y27216267D01*
X-9640619Y27216265D01*
X-9640615Y27216261D01*
X-9444827Y27074012D01*
X-9444825Y27074011D01*
X-9444822Y27074009D01*
X-9297313Y26998850D01*
X-9229196Y26964143D01*
X-8999033Y26889359D01*
X-8760005Y26851500D01*
X-8760004Y26851500D01*
X-8517998Y26851500D01*
X-8517997Y26851500D01*
X-8278969Y26889359D01*
X-8048806Y26964143D01*
X-7833175Y27074012D01*
X-7637387Y27216261D01*
X-7466262Y27387386D01*
X-7324013Y27583174D01*
X-7214144Y27798805D01*
X-7139360Y28028968D01*
X-7101501Y28267996D01*
X-7101501Y28510004D01*
X-7139360Y28749032D01*
X-7214144Y28979195D01*
X-7214145Y28979197D01*
X-7324010Y29194821D01*
X-7324012Y29194824D01*
X-7324013Y29194826D01*
X-7466262Y29390614D01*
X-7466266Y29390618D01*
X-7466268Y29390621D01*
X-7637381Y29561734D01*
X-7637380Y29561734D01*
X-7833181Y29703992D01*
X-8048805Y29813857D01*
X-8278969Y29888641D01*
X-8278972Y29888642D01*
X-8462587Y29917724D01*
X-8517997Y29926500D01*
X-8760005Y29926500D01*
X-8804988Y29919376D01*
X-8999031Y29888642D01*
X-8999034Y29888641D01*
X-9229198Y29813857D01*
X-9444822Y29703992D01*
X-9640622Y29561734D01*
X-9811735Y29390621D01*
X-9953993Y29194821D01*
X-10063858Y28979197D01*
X-10138642Y28749033D01*
X-10138643Y28749030D01*
X-10176501Y28510004D01*
X-16100433Y28510004D01*
X-16125152Y28602257D01*
X-16125153Y28602259D01*
X-16125153Y28602260D01*
X-16171267Y28682131D01*
X-16197890Y28728243D01*
X-16300757Y28831110D01*
X-16426741Y28903848D01*
X-16426745Y28903849D01*
X-16567259Y28941500D01*
X-16567262Y28941500D01*
X-16712738Y28941500D01*
X-16712741Y28941500D01*
X-16853256Y28903849D01*
X-16853260Y28903848D01*
X-16979244Y28831110D01*
X-16979244Y28831109D01*
X-17082109Y28728244D01*
X-17082110Y28728244D01*
X-17154848Y28602260D01*
X-17154849Y28602256D01*
X-17192500Y28461742D01*
X-18627501Y28461742D01*
X-18640433Y28510004D01*
X-18665152Y28602257D01*
X-18665153Y28602259D01*
X-18665153Y28602260D01*
X-18711267Y28682131D01*
X-18737890Y28728243D01*
X-18840757Y28831110D01*
X-18966741Y28903848D01*
X-18966745Y28903849D01*
X-19107259Y28941500D01*
X-19107262Y28941500D01*
X-19252738Y28941500D01*
X-19252741Y28941500D01*
X-19393256Y28903849D01*
X-19393260Y28903848D01*
X-19519244Y28831110D01*
X-19519244Y28831109D01*
X-19622109Y28728244D01*
X-19622110Y28728244D01*
X-19694848Y28602260D01*
X-19694849Y28602256D01*
X-19732500Y28461742D01*
X-23707501Y28461742D01*
X-23720433Y28510004D01*
X-23745152Y28602257D01*
X-23745153Y28602259D01*
X-23745153Y28602260D01*
X-23791267Y28682131D01*
X-23817890Y28728243D01*
X-23920757Y28831110D01*
X-24046741Y28903848D01*
X-24046745Y28903849D01*
X-24187259Y28941500D01*
X-24187262Y28941500D01*
X-24332738Y28941500D01*
X-24332741Y28941500D01*
X-24473256Y28903849D01*
X-24473260Y28903848D01*
X-24599244Y28831110D01*
X-24599244Y28831109D01*
X-24702109Y28728244D01*
X-24702110Y28728244D01*
X-24774848Y28602260D01*
X-24774849Y28602256D01*
X-24812500Y28461742D01*
X-26247501Y28461742D01*
X-26260433Y28510004D01*
X-26285152Y28602257D01*
X-26285153Y28602259D01*
X-26285153Y28602260D01*
X-26331267Y28682131D01*
X-26357890Y28728243D01*
X-26460757Y28831110D01*
X-26586741Y28903848D01*
X-26586745Y28903849D01*
X-26727259Y28941500D01*
X-26727262Y28941500D01*
X-26872738Y28941500D01*
X-26872741Y28941500D01*
X-27013256Y28903849D01*
X-27013260Y28903848D01*
X-27139244Y28831110D01*
X-27139244Y28831109D01*
X-27242109Y28728244D01*
X-27242110Y28728244D01*
X-27314848Y28602260D01*
X-27314849Y28602256D01*
X-27352500Y28461742D01*
X-28787501Y28461742D01*
X-28800433Y28510004D01*
X-28825152Y28602257D01*
X-28825153Y28602259D01*
X-28825153Y28602260D01*
X-28871267Y28682131D01*
X-28897890Y28728243D01*
X-29000757Y28831110D01*
X-29126741Y28903848D01*
X-29126745Y28903849D01*
X-29267259Y28941500D01*
X-29267262Y28941500D01*
X-29412738Y28941500D01*
X-29412741Y28941500D01*
X-29553256Y28903849D01*
X-29553260Y28903848D01*
X-29679244Y28831110D01*
X-29679244Y28831109D01*
X-29782109Y28728244D01*
X-29782110Y28728244D01*
X-29854848Y28602260D01*
X-29854849Y28602256D01*
X-29892500Y28461742D01*
X-31327501Y28461742D01*
X-31340433Y28510004D01*
X-31365152Y28602257D01*
X-31365153Y28602259D01*
X-31365153Y28602260D01*
X-31411267Y28682131D01*
X-31437890Y28728243D01*
X-31540757Y28831110D01*
X-31666741Y28903848D01*
X-31666745Y28903849D01*
X-31807259Y28941500D01*
X-31807262Y28941500D01*
X-31952738Y28941500D01*
X-31952741Y28941500D01*
X-32093256Y28903849D01*
X-32093260Y28903848D01*
X-32219244Y28831110D01*
X-32219244Y28831109D01*
X-32322109Y28728244D01*
X-32322110Y28728244D01*
X-32394848Y28602260D01*
X-32394849Y28602256D01*
X-32432500Y28461742D01*
X-33867501Y28461742D01*
X-33905152Y28602255D01*
X-33905153Y28602259D01*
X-33977891Y28728243D01*
X-34080757Y28831109D01*
X-34206741Y28903847D01*
X-34206745Y28903848D01*
X-34347259Y28941499D01*
X-34347262Y28941499D01*
X-34492738Y28941499D01*
X-34492741Y28941499D01*
X-34633256Y28903848D01*
X-34633260Y28903847D01*
X-34759244Y28831109D01*
X-34759244Y28831108D01*
X-34862109Y28728243D01*
X-34862110Y28728243D01*
X-34934848Y28602259D01*
X-34934849Y28602255D01*
X-34972500Y28461741D01*
X-36407500Y28461741D01*
X-36407501Y28461742D01*
X-36420433Y28510004D01*
X-36445152Y28602257D01*
X-36445153Y28602259D01*
X-36445153Y28602260D01*
X-36491267Y28682131D01*
X-36517890Y28728243D01*
X-36620757Y28831110D01*
X-36746741Y28903848D01*
X-36746745Y28903849D01*
X-36887259Y28941500D01*
X-36887262Y28941500D01*
X-37032738Y28941500D01*
X-37032741Y28941500D01*
X-37173256Y28903849D01*
X-37173260Y28903848D01*
X-37299244Y28831110D01*
X-37299244Y28831109D01*
X-37402109Y28728244D01*
X-37402110Y28728244D01*
X-37474848Y28602260D01*
X-37474849Y28602256D01*
X-37512500Y28461742D01*
X-41487501Y28461742D01*
X-41500433Y28510004D01*
X-41525152Y28602257D01*
X-41525153Y28602259D01*
X-41525153Y28602260D01*
X-41571267Y28682131D01*
X-41597890Y28728243D01*
X-41700757Y28831110D01*
X-41826741Y28903848D01*
X-41826745Y28903849D01*
X-41967259Y28941500D01*
X-41967262Y28941500D01*
X-42112738Y28941500D01*
X-42112741Y28941500D01*
X-42253256Y28903849D01*
X-42253260Y28903848D01*
X-42379244Y28831110D01*
X-42379244Y28831109D01*
X-42482109Y28728244D01*
X-42482110Y28728244D01*
X-42554848Y28602260D01*
X-42554849Y28602256D01*
X-42592500Y28461742D01*
X-44027501Y28461742D01*
X-44065152Y28602255D01*
X-44065153Y28602259D01*
X-44137891Y28728243D01*
X-44240757Y28831109D01*
X-44366741Y28903847D01*
X-44366745Y28903848D01*
X-44507259Y28941499D01*
X-44507262Y28941499D01*
X-44652738Y28941499D01*
X-44652741Y28941499D01*
X-44793256Y28903848D01*
X-44793260Y28903847D01*
X-44919244Y28831109D01*
X-44919244Y28831108D01*
X-45022109Y28728243D01*
X-45022110Y28728243D01*
X-45094848Y28602259D01*
X-45094849Y28602255D01*
X-45132500Y28461741D01*
X-46567500Y28461741D01*
X-46567501Y28461742D01*
X-46580433Y28510004D01*
X-46605152Y28602257D01*
X-46605153Y28602259D01*
X-46605153Y28602260D01*
X-46651267Y28682131D01*
X-46677890Y28728243D01*
X-46780757Y28831110D01*
X-46906741Y28903848D01*
X-46906745Y28903849D01*
X-47047259Y28941500D01*
X-47047262Y28941500D01*
X-47192738Y28941500D01*
X-47192741Y28941500D01*
X-47333256Y28903849D01*
X-47333260Y28903848D01*
X-47459244Y28831110D01*
X-47459244Y28831109D01*
X-47562109Y28728244D01*
X-47562110Y28728244D01*
X-47634848Y28602260D01*
X-47634849Y28602256D01*
X-47672500Y28461742D01*
X-49107501Y28461742D01*
X-49120433Y28510004D01*
X-49145152Y28602257D01*
X-49145153Y28602259D01*
X-49145153Y28602260D01*
X-49191267Y28682131D01*
X-49217890Y28728243D01*
X-49320757Y28831110D01*
X-49446741Y28903848D01*
X-49446745Y28903849D01*
X-49587259Y28941500D01*
X-49587262Y28941500D01*
X-49732738Y28941500D01*
X-49732741Y28941500D01*
X-49873256Y28903849D01*
X-49873260Y28903848D01*
X-49999244Y28831110D01*
X-49999244Y28831109D01*
X-50102109Y28728244D01*
X-50102110Y28728244D01*
X-50174848Y28602260D01*
X-50174849Y28602256D01*
X-50212500Y28461742D01*
X-54187501Y28461742D01*
X-54200433Y28510004D01*
X-54225152Y28602257D01*
X-54225153Y28602259D01*
X-54225153Y28602260D01*
X-54271267Y28682131D01*
X-54297890Y28728243D01*
X-54400757Y28831110D01*
X-54526741Y28903848D01*
X-54526745Y28903849D01*
X-54667259Y28941500D01*
X-54667262Y28941500D01*
X-54812738Y28941500D01*
X-54812741Y28941500D01*
X-54953256Y28903849D01*
X-54953260Y28903848D01*
X-55079244Y28831110D01*
X-55079244Y28831109D01*
X-55182109Y28728244D01*
X-55182110Y28728244D01*
X-55254848Y28602260D01*
X-55254849Y28602256D01*
X-55292500Y28461742D01*
X-56727501Y28461742D01*
X-56765152Y28602255D01*
X-56765153Y28602259D01*
X-56837891Y28728243D01*
X-56940757Y28831109D01*
X-57066741Y28903847D01*
X-57066745Y28903848D01*
X-57207259Y28941499D01*
X-57207262Y28941499D01*
X-57352738Y28941499D01*
X-57352741Y28941499D01*
X-57493256Y28903848D01*
X-57493260Y28903847D01*
X-57619244Y28831109D01*
X-57619244Y28831108D01*
X-57722109Y28728243D01*
X-57722110Y28728243D01*
X-57794848Y28602259D01*
X-57794849Y28602255D01*
X-57832500Y28461741D01*
X-65012500Y28461741D01*
X-65012500Y28510003D01*
X-65050359Y28749031D01*
X-65125143Y28979194D01*
X-65235012Y29194825D01*
X-65377261Y29390613D01*
X-65377265Y29390617D01*
X-65377267Y29390620D01*
X-65548380Y29561733D01*
X-65548379Y29561733D01*
X-65744180Y29703991D01*
X-65959804Y29813856D01*
X-66189968Y29888640D01*
X-66189971Y29888641D01*
X-66373586Y29917723D01*
X-66428996Y29926499D01*
X-66671004Y29926499D01*
X-66715987Y29919375D01*
X-66910030Y29888641D01*
X-66910033Y29888640D01*
X-67140197Y29813856D01*
X-67355821Y29703991D01*
X-67551621Y29561733D01*
X-67722734Y29390620D01*
X-67864992Y29194820D01*
X-67974857Y28979196D01*
X-68049641Y28749032D01*
X-68049642Y28749029D01*
X-68087500Y28510003D01*
X-74799500Y28510003D01*
X-74799500Y29998797D01*
X-74799441Y30001201D01*
X-74797541Y30039882D01*
X-74781483Y30366742D01*
X-59102500Y30366742D01*
X-59102500Y30221259D01*
X-59064849Y30080745D01*
X-59064848Y30080741D01*
X-58992110Y29954757D01*
X-58889243Y29851890D01*
X-58843131Y29825267D01*
X-58763260Y29779153D01*
X-58763258Y29779153D01*
X-58763257Y29779152D01*
X-58652437Y29749458D01*
X-58622742Y29741501D01*
X-58622741Y29741500D01*
X-58622738Y29741500D01*
X-58477259Y29741500D01*
X-58477259Y29741501D01*
X-58336743Y29779152D01*
X-58210757Y29851890D01*
X-58107890Y29954757D01*
X-58035152Y30080743D01*
X-57997501Y30221259D01*
X-57997500Y30221259D01*
X-57997500Y30366741D01*
X-57997501Y30366742D01*
X-56562500Y30366742D01*
X-56562500Y30221259D01*
X-56524849Y30080745D01*
X-56524848Y30080741D01*
X-56452110Y29954757D01*
X-56349243Y29851890D01*
X-56303131Y29825267D01*
X-56223260Y29779153D01*
X-56223258Y29779153D01*
X-56223257Y29779152D01*
X-56112437Y29749458D01*
X-56082742Y29741501D01*
X-56082741Y29741500D01*
X-56082738Y29741500D01*
X-55937259Y29741500D01*
X-55937259Y29741501D01*
X-55796743Y29779152D01*
X-55670757Y29851890D01*
X-55567890Y29954757D01*
X-55495152Y30080743D01*
X-55457501Y30221259D01*
X-55457500Y30221259D01*
X-55457500Y30366741D01*
X-55457501Y30366742D01*
X-54022500Y30366742D01*
X-54022500Y30221259D01*
X-53984849Y30080745D01*
X-53984848Y30080741D01*
X-53912110Y29954757D01*
X-53809243Y29851890D01*
X-53763131Y29825267D01*
X-53683260Y29779153D01*
X-53683258Y29779153D01*
X-53683257Y29779152D01*
X-53572437Y29749458D01*
X-53542742Y29741501D01*
X-53542741Y29741500D01*
X-53542738Y29741500D01*
X-53397259Y29741500D01*
X-53397259Y29741501D01*
X-53256743Y29779152D01*
X-53130757Y29851890D01*
X-53027890Y29954757D01*
X-52955152Y30080743D01*
X-52917501Y30221259D01*
X-52917500Y30221259D01*
X-52917500Y30366741D01*
X-52917501Y30366742D01*
X-51482500Y30366742D01*
X-51482500Y30221259D01*
X-51444849Y30080745D01*
X-51444848Y30080741D01*
X-51372110Y29954757D01*
X-51269243Y29851890D01*
X-51223131Y29825267D01*
X-51143260Y29779153D01*
X-51143258Y29779153D01*
X-51143257Y29779152D01*
X-51032437Y29749458D01*
X-51002742Y29741501D01*
X-51002741Y29741500D01*
X-51002738Y29741500D01*
X-50857259Y29741500D01*
X-50857259Y29741501D01*
X-50716743Y29779152D01*
X-50590757Y29851890D01*
X-50487890Y29954757D01*
X-50415152Y30080743D01*
X-50377501Y30221259D01*
X-50377500Y30221259D01*
X-50377500Y30366741D01*
X-50377501Y30366742D01*
X-48942500Y30366742D01*
X-48942500Y30221259D01*
X-48904849Y30080745D01*
X-48904848Y30080741D01*
X-48832110Y29954757D01*
X-48729243Y29851890D01*
X-48683131Y29825267D01*
X-48603260Y29779153D01*
X-48603258Y29779153D01*
X-48603257Y29779152D01*
X-48492437Y29749458D01*
X-48462742Y29741501D01*
X-48462741Y29741500D01*
X-48462738Y29741500D01*
X-48317259Y29741500D01*
X-48317259Y29741501D01*
X-48176743Y29779152D01*
X-48050757Y29851890D01*
X-47947890Y29954757D01*
X-47875152Y30080743D01*
X-47837501Y30221259D01*
X-47837500Y30221259D01*
X-47837500Y30366741D01*
X-47837501Y30366742D01*
X-46402500Y30366742D01*
X-46402500Y30221259D01*
X-46364849Y30080745D01*
X-46364848Y30080741D01*
X-46292110Y29954757D01*
X-46189243Y29851890D01*
X-46143131Y29825267D01*
X-46063260Y29779153D01*
X-46063258Y29779153D01*
X-46063257Y29779152D01*
X-45952437Y29749458D01*
X-45922742Y29741501D01*
X-45922741Y29741500D01*
X-45922738Y29741500D01*
X-45777259Y29741500D01*
X-45777259Y29741501D01*
X-45636743Y29779152D01*
X-45510757Y29851890D01*
X-45407890Y29954757D01*
X-45335152Y30080743D01*
X-45297501Y30221259D01*
X-45297500Y30221259D01*
X-45297500Y30366741D01*
X-45297501Y30366742D01*
X-43862500Y30366742D01*
X-43862500Y30221259D01*
X-43824849Y30080745D01*
X-43824848Y30080741D01*
X-43752110Y29954757D01*
X-43649243Y29851890D01*
X-43603131Y29825267D01*
X-43523260Y29779153D01*
X-43523258Y29779153D01*
X-43523257Y29779152D01*
X-43412437Y29749458D01*
X-43382742Y29741501D01*
X-43382741Y29741500D01*
X-43382738Y29741500D01*
X-43237259Y29741500D01*
X-43237259Y29741501D01*
X-43096743Y29779152D01*
X-42970757Y29851890D01*
X-42867890Y29954757D01*
X-42795152Y30080743D01*
X-42757501Y30221259D01*
X-42757500Y30221259D01*
X-42757500Y30366741D01*
X-42757501Y30366742D01*
X-41322500Y30366742D01*
X-41322500Y30221259D01*
X-41284849Y30080745D01*
X-41284848Y30080741D01*
X-41212110Y29954757D01*
X-41109243Y29851890D01*
X-41063131Y29825267D01*
X-40983260Y29779153D01*
X-40983258Y29779153D01*
X-40983257Y29779152D01*
X-40872437Y29749458D01*
X-40842742Y29741501D01*
X-40842741Y29741500D01*
X-40842738Y29741500D01*
X-40697259Y29741500D01*
X-40697259Y29741501D01*
X-40556743Y29779152D01*
X-40430757Y29851890D01*
X-40327890Y29954757D01*
X-40255152Y30080743D01*
X-40217501Y30221259D01*
X-40217500Y30221259D01*
X-40217500Y30366741D01*
X-40217501Y30366742D01*
X-38782500Y30366742D01*
X-38782500Y30221259D01*
X-38744849Y30080745D01*
X-38744848Y30080741D01*
X-38672110Y29954757D01*
X-38569243Y29851890D01*
X-38523131Y29825267D01*
X-38443260Y29779153D01*
X-38443258Y29779153D01*
X-38443257Y29779152D01*
X-38332437Y29749458D01*
X-38302742Y29741501D01*
X-38302741Y29741500D01*
X-38302738Y29741500D01*
X-38157259Y29741500D01*
X-38157259Y29741501D01*
X-38016743Y29779152D01*
X-37890757Y29851890D01*
X-37787890Y29954757D01*
X-37715152Y30080743D01*
X-37677501Y30221259D01*
X-37677500Y30221259D01*
X-37677500Y30366741D01*
X-37677501Y30366742D01*
X-31162500Y30366742D01*
X-31162500Y30221259D01*
X-31124849Y30080745D01*
X-31124848Y30080741D01*
X-31052110Y29954757D01*
X-30949243Y29851890D01*
X-30903131Y29825267D01*
X-30823260Y29779153D01*
X-30823258Y29779153D01*
X-30823257Y29779152D01*
X-30712437Y29749458D01*
X-30682742Y29741501D01*
X-30682741Y29741500D01*
X-30682738Y29741500D01*
X-30537259Y29741500D01*
X-30537259Y29741501D01*
X-30396743Y29779152D01*
X-30270757Y29851890D01*
X-30167890Y29954757D01*
X-30095152Y30080743D01*
X-30057501Y30221259D01*
X-30057500Y30221259D01*
X-30057500Y30366741D01*
X-30057501Y30366742D01*
X-28622500Y30366742D01*
X-28622500Y30221259D01*
X-28584849Y30080745D01*
X-28584848Y30080741D01*
X-28512110Y29954757D01*
X-28409243Y29851890D01*
X-28363131Y29825267D01*
X-28283260Y29779153D01*
X-28283258Y29779153D01*
X-28283257Y29779152D01*
X-28172437Y29749458D01*
X-28142742Y29741501D01*
X-28142741Y29741500D01*
X-28142738Y29741500D01*
X-27997259Y29741500D01*
X-27997259Y29741501D01*
X-27856743Y29779152D01*
X-27730757Y29851890D01*
X-27627890Y29954757D01*
X-27555152Y30080743D01*
X-27517501Y30221259D01*
X-27517500Y30221259D01*
X-27517500Y30366741D01*
X-27517501Y30366742D01*
X-26082500Y30366742D01*
X-26082500Y30221259D01*
X-26044849Y30080745D01*
X-26044848Y30080741D01*
X-25972110Y29954757D01*
X-25869243Y29851890D01*
X-25823131Y29825267D01*
X-25743260Y29779153D01*
X-25743258Y29779153D01*
X-25743257Y29779152D01*
X-25632437Y29749458D01*
X-25602742Y29741501D01*
X-25602741Y29741500D01*
X-25602738Y29741500D01*
X-25457259Y29741500D01*
X-25457259Y29741501D01*
X-25316743Y29779152D01*
X-25190757Y29851890D01*
X-25087890Y29954757D01*
X-25015152Y30080743D01*
X-24977501Y30221259D01*
X-24977500Y30221259D01*
X-24977500Y30366741D01*
X-24977501Y30366742D01*
X-23542500Y30366742D01*
X-23542500Y30221259D01*
X-23504849Y30080745D01*
X-23504848Y30080741D01*
X-23432110Y29954757D01*
X-23329243Y29851890D01*
X-23283131Y29825267D01*
X-23203260Y29779153D01*
X-23203258Y29779153D01*
X-23203257Y29779152D01*
X-23092437Y29749458D01*
X-23062742Y29741501D01*
X-23062741Y29741500D01*
X-23062738Y29741500D01*
X-22917259Y29741500D01*
X-22917259Y29741501D01*
X-22776743Y29779152D01*
X-22650757Y29851890D01*
X-22547890Y29954757D01*
X-22475152Y30080743D01*
X-22437501Y30221259D01*
X-22437500Y30221259D01*
X-22437500Y30366741D01*
X-22437501Y30366742D01*
X-21002500Y30366742D01*
X-21002500Y30221259D01*
X-20964849Y30080745D01*
X-20964848Y30080741D01*
X-20892110Y29954757D01*
X-20789243Y29851890D01*
X-20743131Y29825267D01*
X-20663260Y29779153D01*
X-20663258Y29779153D01*
X-20663257Y29779152D01*
X-20552437Y29749458D01*
X-20522742Y29741501D01*
X-20522741Y29741500D01*
X-20522738Y29741500D01*
X-20377259Y29741500D01*
X-20377259Y29741501D01*
X-20236743Y29779152D01*
X-20110757Y29851890D01*
X-20007890Y29954757D01*
X-19935152Y30080743D01*
X-19897501Y30221259D01*
X-19897500Y30221259D01*
X-19897500Y30366741D01*
X-19897501Y30366742D01*
X-18462500Y30366742D01*
X-18462500Y30221259D01*
X-18424849Y30080745D01*
X-18424848Y30080741D01*
X-18352110Y29954757D01*
X-18249243Y29851890D01*
X-18203131Y29825267D01*
X-18123260Y29779153D01*
X-18123258Y29779153D01*
X-18123257Y29779152D01*
X-18012437Y29749458D01*
X-17982742Y29741501D01*
X-17982741Y29741500D01*
X-17982738Y29741500D01*
X-17837259Y29741500D01*
X-17837259Y29741501D01*
X-17696743Y29779152D01*
X-17570757Y29851890D01*
X-17467890Y29954757D01*
X-17395152Y30080743D01*
X-17357501Y30221259D01*
X-17357500Y30221259D01*
X-17357500Y30366741D01*
X-17357501Y30366742D01*
X-17395152Y30507256D01*
X-17395153Y30507260D01*
X-17467891Y30633244D01*
X-17570757Y30736110D01*
X-17696741Y30808848D01*
X-17696745Y30808849D01*
X-17837259Y30846500D01*
X-17837262Y30846500D01*
X-17982738Y30846500D01*
X-17982741Y30846500D01*
X-18123256Y30808849D01*
X-18123260Y30808848D01*
X-18249244Y30736110D01*
X-18249244Y30736109D01*
X-18352109Y30633244D01*
X-18352110Y30633244D01*
X-18424848Y30507260D01*
X-18424849Y30507256D01*
X-18462500Y30366742D01*
X-19897501Y30366742D01*
X-19935152Y30507256D01*
X-19935153Y30507260D01*
X-20007891Y30633244D01*
X-20110757Y30736110D01*
X-20236741Y30808848D01*
X-20236745Y30808849D01*
X-20377259Y30846500D01*
X-20377262Y30846500D01*
X-20522738Y30846500D01*
X-20522741Y30846500D01*
X-20663256Y30808849D01*
X-20663260Y30808848D01*
X-20789244Y30736110D01*
X-20789244Y30736109D01*
X-20892109Y30633244D01*
X-20892110Y30633244D01*
X-20964848Y30507260D01*
X-20964849Y30507256D01*
X-21002500Y30366742D01*
X-22437501Y30366742D01*
X-22475152Y30507256D01*
X-22475153Y30507260D01*
X-22547891Y30633244D01*
X-22650757Y30736110D01*
X-22776741Y30808848D01*
X-22776745Y30808849D01*
X-22917259Y30846500D01*
X-22917262Y30846500D01*
X-23062738Y30846500D01*
X-23062741Y30846500D01*
X-23203256Y30808849D01*
X-23203260Y30808848D01*
X-23329244Y30736110D01*
X-23329244Y30736109D01*
X-23432109Y30633244D01*
X-23432110Y30633244D01*
X-23504848Y30507260D01*
X-23504849Y30507256D01*
X-23542500Y30366742D01*
X-24977501Y30366742D01*
X-25015152Y30507256D01*
X-25015153Y30507260D01*
X-25087891Y30633244D01*
X-25190757Y30736110D01*
X-25316741Y30808848D01*
X-25316745Y30808849D01*
X-25457259Y30846500D01*
X-25457262Y30846500D01*
X-25602738Y30846500D01*
X-25602741Y30846500D01*
X-25743256Y30808849D01*
X-25743260Y30808848D01*
X-25869244Y30736110D01*
X-25869244Y30736109D01*
X-25972109Y30633244D01*
X-25972110Y30633244D01*
X-26044848Y30507260D01*
X-26044849Y30507256D01*
X-26082500Y30366742D01*
X-27517501Y30366742D01*
X-27555152Y30507256D01*
X-27555153Y30507260D01*
X-27627891Y30633244D01*
X-27730757Y30736110D01*
X-27856741Y30808848D01*
X-27856745Y30808849D01*
X-27997259Y30846500D01*
X-27997262Y30846500D01*
X-28142738Y30846500D01*
X-28142741Y30846500D01*
X-28283256Y30808849D01*
X-28283260Y30808848D01*
X-28409244Y30736110D01*
X-28409244Y30736109D01*
X-28512109Y30633244D01*
X-28512110Y30633244D01*
X-28584848Y30507260D01*
X-28584849Y30507256D01*
X-28622500Y30366742D01*
X-30057501Y30366742D01*
X-30095152Y30507256D01*
X-30095153Y30507260D01*
X-30167891Y30633244D01*
X-30270757Y30736110D01*
X-30396741Y30808848D01*
X-30396745Y30808849D01*
X-30537259Y30846500D01*
X-30537262Y30846500D01*
X-30682738Y30846500D01*
X-30682741Y30846500D01*
X-30823256Y30808849D01*
X-30823260Y30808848D01*
X-30949244Y30736110D01*
X-30949244Y30736109D01*
X-31052109Y30633244D01*
X-31052110Y30633244D01*
X-31124848Y30507260D01*
X-31124849Y30507256D01*
X-31162500Y30366742D01*
X-37677501Y30366742D01*
X-37715152Y30507256D01*
X-37715153Y30507260D01*
X-37787891Y30633244D01*
X-37890757Y30736110D01*
X-38016741Y30808848D01*
X-38016745Y30808849D01*
X-38157259Y30846500D01*
X-38157262Y30846500D01*
X-38302738Y30846500D01*
X-38302741Y30846500D01*
X-38443256Y30808849D01*
X-38443260Y30808848D01*
X-38569244Y30736110D01*
X-38569244Y30736109D01*
X-38672109Y30633244D01*
X-38672110Y30633244D01*
X-38744848Y30507260D01*
X-38744849Y30507256D01*
X-38782500Y30366742D01*
X-40217501Y30366742D01*
X-40255152Y30507256D01*
X-40255153Y30507260D01*
X-40327891Y30633244D01*
X-40430757Y30736110D01*
X-40556741Y30808848D01*
X-40556745Y30808849D01*
X-40697259Y30846500D01*
X-40697262Y30846500D01*
X-40842738Y30846500D01*
X-40842741Y30846500D01*
X-40983256Y30808849D01*
X-40983260Y30808848D01*
X-41109244Y30736110D01*
X-41109244Y30736109D01*
X-41212109Y30633244D01*
X-41212110Y30633244D01*
X-41284848Y30507260D01*
X-41284849Y30507256D01*
X-41322500Y30366742D01*
X-42757501Y30366742D01*
X-42795152Y30507256D01*
X-42795153Y30507260D01*
X-42867891Y30633244D01*
X-42970757Y30736110D01*
X-43096741Y30808848D01*
X-43096745Y30808849D01*
X-43237259Y30846500D01*
X-43237262Y30846500D01*
X-43382738Y30846500D01*
X-43382741Y30846500D01*
X-43523256Y30808849D01*
X-43523260Y30808848D01*
X-43649244Y30736110D01*
X-43649244Y30736109D01*
X-43752109Y30633244D01*
X-43752110Y30633244D01*
X-43824848Y30507260D01*
X-43824849Y30507256D01*
X-43862500Y30366742D01*
X-45297501Y30366742D01*
X-45335152Y30507256D01*
X-45335153Y30507260D01*
X-45407891Y30633244D01*
X-45510757Y30736110D01*
X-45636741Y30808848D01*
X-45636745Y30808849D01*
X-45777259Y30846500D01*
X-45777262Y30846500D01*
X-45922738Y30846500D01*
X-45922741Y30846500D01*
X-46063256Y30808849D01*
X-46063260Y30808848D01*
X-46189244Y30736110D01*
X-46189244Y30736109D01*
X-46292109Y30633244D01*
X-46292110Y30633244D01*
X-46364848Y30507260D01*
X-46364849Y30507256D01*
X-46402500Y30366742D01*
X-47837501Y30366742D01*
X-47875152Y30507256D01*
X-47875153Y30507260D01*
X-47947891Y30633244D01*
X-48050757Y30736110D01*
X-48176741Y30808848D01*
X-48176745Y30808849D01*
X-48317259Y30846500D01*
X-48317262Y30846500D01*
X-48462738Y30846500D01*
X-48462741Y30846500D01*
X-48603256Y30808849D01*
X-48603260Y30808848D01*
X-48729244Y30736110D01*
X-48729244Y30736109D01*
X-48832109Y30633244D01*
X-48832110Y30633244D01*
X-48904848Y30507260D01*
X-48904849Y30507256D01*
X-48942500Y30366742D01*
X-50377501Y30366742D01*
X-50415152Y30507256D01*
X-50415153Y30507260D01*
X-50487891Y30633244D01*
X-50590757Y30736110D01*
X-50716741Y30808848D01*
X-50716745Y30808849D01*
X-50857259Y30846500D01*
X-50857262Y30846500D01*
X-51002738Y30846500D01*
X-51002741Y30846500D01*
X-51143256Y30808849D01*
X-51143260Y30808848D01*
X-51269244Y30736110D01*
X-51269244Y30736109D01*
X-51372109Y30633244D01*
X-51372110Y30633244D01*
X-51444848Y30507260D01*
X-51444849Y30507256D01*
X-51482500Y30366742D01*
X-52917501Y30366742D01*
X-52955152Y30507256D01*
X-52955153Y30507260D01*
X-53027891Y30633244D01*
X-53130757Y30736110D01*
X-53256741Y30808848D01*
X-53256745Y30808849D01*
X-53397259Y30846500D01*
X-53397262Y30846500D01*
X-53542738Y30846500D01*
X-53542741Y30846500D01*
X-53683256Y30808849D01*
X-53683260Y30808848D01*
X-53809244Y30736110D01*
X-53809244Y30736109D01*
X-53912109Y30633244D01*
X-53912110Y30633244D01*
X-53984848Y30507260D01*
X-53984849Y30507256D01*
X-54022500Y30366742D01*
X-55457501Y30366742D01*
X-55495152Y30507256D01*
X-55495153Y30507260D01*
X-55567891Y30633244D01*
X-55670757Y30736110D01*
X-55796741Y30808848D01*
X-55796745Y30808849D01*
X-55937259Y30846500D01*
X-55937262Y30846500D01*
X-56082738Y30846500D01*
X-56082741Y30846500D01*
X-56223256Y30808849D01*
X-56223260Y30808848D01*
X-56349244Y30736110D01*
X-56349244Y30736109D01*
X-56452109Y30633244D01*
X-56452110Y30633244D01*
X-56524848Y30507260D01*
X-56524849Y30507256D01*
X-56562500Y30366742D01*
X-57997501Y30366742D01*
X-58035152Y30507256D01*
X-58035153Y30507260D01*
X-58107891Y30633244D01*
X-58210757Y30736110D01*
X-58336741Y30808848D01*
X-58336745Y30808849D01*
X-58477259Y30846500D01*
X-58477262Y30846500D01*
X-58622738Y30846500D01*
X-58622741Y30846500D01*
X-58763256Y30808849D01*
X-58763260Y30808848D01*
X-58889244Y30736110D01*
X-58889244Y30736109D01*
X-58992109Y30633244D01*
X-58992110Y30633244D01*
X-59064848Y30507260D01*
X-59064849Y30507256D01*
X-59102500Y30366742D01*
X-74781483Y30366742D01*
X-74781322Y30370023D01*
X-74780854Y30374780D01*
X-74726845Y30738882D01*
X-74725914Y30743564D01*
X-74636480Y31100605D01*
X-74635084Y31105204D01*
X-74552393Y31336309D01*
X-74511083Y31451764D01*
X-74509254Y31456177D01*
X-74351885Y31788907D01*
X-74349637Y31793114D01*
X-74160402Y32108834D01*
X-74157732Y32112827D01*
X-73938478Y32408456D01*
X-73935452Y32412144D01*
X-73688269Y32684869D01*
X-73684868Y32688269D01*
X-73412144Y32935452D01*
X-73408456Y32938478D01*
X-73112823Y33157735D01*
X-73108829Y33160404D01*
X-72793114Y33349637D01*
X-72788907Y33351885D01*
X-72456177Y33509254D01*
X-72451764Y33511083D01*
X-72105202Y33635085D01*
X-72100602Y33636480D01*
X-71743564Y33725914D01*
X-71738882Y33726845D01*
X-71374780Y33780854D01*
X-71370023Y33781322D01*
X-71001201Y33799442D01*
X-70998797Y33799500D01*
X-70960118Y33799500D01*
X-4039882Y33799500D01*
X-4001203Y33799500D01*
X-3998800Y33799442D01*
G37*
G04 #@! TD.AperFunction*
G04 #@! TD*
M02*
