G04 #@! TF.GenerationSoftware,KiCad,Pcbnew,8.0.6*
G04 #@! TF.CreationDate,2024-11-07T02:27:46-08:00*
G04 #@! TF.ProjectId,mse-68-vhdci,6d73652d-3638-42d7-9668-6463692e6b69,1*
G04 #@! TF.SameCoordinates,PXb06e040PY8583b00*
G04 #@! TF.FileFunction,Copper,L3,Inr*
G04 #@! TF.FilePolarity,Positive*
%FSLAX46Y46*%
G04 Gerber Fmt 4.6, Leading zero omitted, Abs format (unit mm)*
G04 Created by KiCad (PCBNEW 8.0.6) date 2024-11-07 02:27:46*
%MOMM*%
%LPD*%
G01*
G04 APERTURE LIST*
%ADD10C,0.300000*%
G04 #@! TA.AperFunction,NonConductor*
%ADD11C,0.300000*%
G04 #@! TD*
G04 #@! TA.AperFunction,ComponentPad*
%ADD12C,6.400000*%
G04 #@! TD*
G04 #@! TA.AperFunction,ComponentPad*
%ADD13C,1.850000*%
G04 #@! TD*
G04 #@! TA.AperFunction,ComponentPad*
%ADD14C,1.000000*%
G04 #@! TD*
G04 #@! TA.AperFunction,ComponentPad*
%ADD15O,1.400000X2.250000*%
G04 #@! TD*
G04 #@! TA.AperFunction,ComponentPad*
%ADD16O,1.100000X1.700000*%
G04 #@! TD*
G04 #@! TA.AperFunction,ViaPad*
%ADD17C,0.450000*%
G04 #@! TD*
G04 #@! TA.AperFunction,ViaPad*
%ADD18C,0.600000*%
G04 #@! TD*
G04 #@! TA.AperFunction,Conductor*
%ADD19C,0.151400*%
G04 #@! TD*
G04 APERTURE END LIST*
D10*
D11*
X-1999172Y15700001D02*
X-1999172Y16628573D01*
X-1999172Y16628573D02*
X-1427743Y16128573D01*
X-1427743Y16128573D02*
X-1427743Y16342858D01*
X-1427743Y16342858D02*
X-1356315Y16485715D01*
X-1356315Y16485715D02*
X-1284886Y16557144D01*
X-1284886Y16557144D02*
X-1142029Y16628573D01*
X-1142029Y16628573D02*
X-784886Y16628573D01*
X-784886Y16628573D02*
X-642029Y16557144D01*
X-642029Y16557144D02*
X-570600Y16485715D01*
X-570600Y16485715D02*
X-499172Y16342858D01*
X-499172Y16342858D02*
X-499172Y15914287D01*
X-499172Y15914287D02*
X-570600Y15771430D01*
X-570600Y15771430D02*
X-642029Y15700001D01*
D12*
G04 #@! TO.N,GND*
G04 #@! TO.C,H4*
X-4000000Y4000000D03*
G04 #@! TD*
D13*
G04 #@! TO.N,+3V3*
G04 #@! TO.C,J3*
X-72440000Y16010000D03*
G04 #@! TD*
D14*
G04 #@! TO.N,/CON.DB12-*
G04 #@! TO.C,J4*
X-51500000Y27850000D03*
G04 #@! TO.N,/CON.DB13-*
X-50700000Y29000001D03*
G04 #@! TO.N,/CON.DB14-*
X-49900000Y27850000D03*
G04 #@! TO.N,/CON.DB15-*
X-49100000Y29000000D03*
G04 #@! TO.N,/CON.DP1-*
X-48300000Y27850000D03*
G04 #@! TO.N,/CON.DB0-*
X-47500000Y29000000D03*
G04 #@! TO.N,/CON.DB1-*
X-46700000Y27850000D03*
G04 #@! TO.N,/CON.DB2-*
X-45900000Y29000000D03*
G04 #@! TO.N,/CON.DB3-*
X-45100000Y27850000D03*
G04 #@! TO.N,/CON.DB4-*
X-44300000Y29000000D03*
G04 #@! TO.N,/CON.DB5-*
X-43500000Y27850000D03*
G04 #@! TO.N,/CON.DB6-*
X-42700000Y29000000D03*
G04 #@! TO.N,/CON.DB7-*
X-41900000Y27850000D03*
G04 #@! TO.N,/CON.DP0-*
X-41100000Y29000001D03*
G04 #@! TO.N,GND*
X-40300000Y27850000D03*
X-39500000Y29000001D03*
X-36300000Y29000000D03*
G04 #@! TO.N,/CON.ATN-*
X-35500000Y27850000D03*
G04 #@! TO.N,GND*
X-34700000Y29000000D03*
G04 #@! TO.N,/CON.BSY-*
X-33900000Y27850000D03*
G04 #@! TO.N,/CON.ACK-*
X-33100000Y29000000D03*
G04 #@! TO.N,/CON.RST-*
X-32300000Y27850000D03*
G04 #@! TO.N,/CON.MSG-*
X-31500000Y29000000D03*
G04 #@! TO.N,/CON.SEL-*
X-30700000Y27850000D03*
G04 #@! TO.N,/CON.C{slash}D-*
X-29900000Y29000001D03*
G04 #@! TO.N,/CON.REQ-*
X-29100000Y27850000D03*
G04 #@! TO.N,/CON.I{slash}O-*
X-28300000Y29000001D03*
G04 #@! TO.N,/CON.DB8-*
X-27500000Y27850000D03*
G04 #@! TO.N,/CON.DB9-*
X-26700000Y29000000D03*
G04 #@! TO.N,/CON.DB10-*
X-25900000Y27850000D03*
G04 #@! TO.N,/CON.DB11-*
X-25100000Y29000000D03*
D15*
G04 #@! TO.N,/SHIELD*
X-16950000Y30380000D03*
D16*
X-21925000Y27750000D03*
X-54275000Y27750000D03*
D15*
X-59250000Y30380000D03*
G04 #@! TD*
D12*
G04 #@! TO.N,GND*
G04 #@! TO.C,H3*
X-71000000Y4000000D03*
G04 #@! TD*
D17*
G04 #@! TO.N,GND*
X-20300000Y7600000D03*
X-20300000Y5400000D03*
X-22700000Y1800000D03*
X-49100000Y1800000D03*
X-53900000Y1000000D03*
X-29900000Y2600000D03*
X-17900000Y7600000D03*
X-53900000Y7600000D03*
X-39500000Y6200000D03*
X-29900000Y3200000D03*
X-39500000Y1800000D03*
X-44300000Y7000000D03*
X-49100000Y6200000D03*
X-27500000Y7600000D03*
X-64650000Y4000000D03*
X-46700000Y6200000D03*
X-53900000Y3200000D03*
X-51500000Y2600000D03*
X-27500000Y3200000D03*
X-27500000Y2600000D03*
X-39500000Y7000000D03*
X-32300000Y1800000D03*
X-53900000Y5400000D03*
X-20300000Y1800000D03*
X-32300000Y3200000D03*
X-17900000Y3200000D03*
X-53900000Y2600000D03*
X-37100000Y5400000D03*
X-39500000Y7600000D03*
X-63600000Y4000000D03*
X-25100000Y7000000D03*
X-39500000Y5400000D03*
X-20300000Y3200000D03*
X-33900000Y1000000D03*
X-41900000Y1000000D03*
X-64100000Y4500000D03*
X-33900000Y2600000D03*
X-49100000Y2600000D03*
X-33900000Y6200000D03*
X-51500000Y5400000D03*
X-44300000Y6200000D03*
X-27500000Y6200000D03*
X-39500000Y1000000D03*
X-25100000Y1800000D03*
X-41900000Y7000000D03*
D18*
X-11200000Y31100000D03*
D17*
X-53900000Y7000000D03*
X-41900000Y6200000D03*
X-27500000Y5400000D03*
X-54700000Y6200000D03*
X-29900000Y1000000D03*
D18*
X-11200000Y29800000D03*
D17*
X-20300000Y1000000D03*
X-53900000Y1800000D03*
X-51500000Y6200000D03*
X-20300000Y2600000D03*
X-22700000Y1000000D03*
X-44300000Y5400000D03*
X-33900000Y1800000D03*
X-32300000Y5400000D03*
X-20300000Y6200000D03*
X-49100000Y3200000D03*
X-37100000Y6200000D03*
X-25100000Y2600000D03*
X-37100000Y7000000D03*
X-39500000Y2600000D03*
X-25100000Y6200000D03*
X-33900000Y7000000D03*
X-46700000Y3200000D03*
X-51500000Y3200000D03*
X-51500000Y7000000D03*
X-25100000Y3200000D03*
X-54700000Y7000000D03*
X-29900000Y7000000D03*
X-44300000Y1800000D03*
X-22700000Y2600000D03*
X-17900000Y5400000D03*
X-33900000Y7600000D03*
X-41900000Y2600000D03*
X-17900000Y7000000D03*
X-41900000Y3200000D03*
X-44300000Y1000000D03*
X-32300000Y7000000D03*
X-29900000Y7600000D03*
X-51500000Y1800000D03*
X-54700000Y5400000D03*
X-22700000Y6200000D03*
X-57100000Y5400000D03*
X-37100000Y1800000D03*
X-46700000Y1000000D03*
X-46700000Y7600000D03*
X-25100000Y1000000D03*
X-32300000Y2600000D03*
X-44300000Y2600000D03*
X-46700000Y5400000D03*
X-41900000Y7600000D03*
X-54700000Y1800000D03*
X-22700000Y7000000D03*
X-46700000Y2600000D03*
X-37100000Y1000000D03*
X-37100000Y2600000D03*
X-51500000Y1000000D03*
X-17900000Y1000000D03*
X-37100000Y3200000D03*
X-20300000Y7000000D03*
X-57100000Y6200000D03*
X-32300000Y1000000D03*
X-33900000Y5400000D03*
X-46700000Y1800000D03*
X-29900000Y5400000D03*
X-44300000Y3200000D03*
X-25100000Y7600000D03*
X-27500000Y1800000D03*
X-22700000Y3200000D03*
X-41900000Y1800000D03*
X-53900000Y6200000D03*
X-41900000Y5400000D03*
X-29900000Y6200000D03*
X-49100000Y5400000D03*
X-32300000Y7600000D03*
X-54700000Y2600000D03*
X-49100000Y7000000D03*
X-49100000Y1000000D03*
X-51500000Y7600000D03*
X-49100000Y7600000D03*
X-37100000Y7600000D03*
X-46700000Y7000000D03*
X-29900000Y1800000D03*
X-25100000Y5400000D03*
X-64100000Y3500000D03*
X-32300000Y6200000D03*
X-17900000Y6200000D03*
X-39500000Y3200000D03*
X-27500000Y1000000D03*
X-57100000Y7000000D03*
X-22700000Y5400000D03*
X-17900000Y2600000D03*
X-44300000Y7600000D03*
X-54700000Y1000000D03*
X-33900000Y3200000D03*
X-17900000Y1800000D03*
X-27500000Y7000000D03*
X-66050000Y3150000D03*
X-22700000Y7600000D03*
G04 #@! TO.N,/PHY.ID_SCL*
X-67200000Y12150000D03*
X-63000000Y8500000D03*
G04 #@! TO.N,+3V3*
X-56300000Y1800000D03*
X-67200000Y16500000D03*
X-67200000Y10500000D03*
X-66050000Y4850000D03*
X-56300000Y1000000D03*
X-56300000Y2600000D03*
X-62150000Y4850000D03*
G04 #@! TO.N,/PHY.ID_SDA*
X-67200000Y14750000D03*
X-62400000Y7900000D03*
G04 #@! TO.N,/CON.C{slash}D+*
X-25900000Y3200000D03*
G04 #@! TO.N,/CON.DB10-*
X-19500000Y7600000D03*
G04 #@! TO.N,/CON.DB4-*
X-42700000Y7600000D03*
G04 #@! TO.N,/CON.ACK+*
X-30700000Y3200000D03*
G04 #@! TO.N,/CON.DP1+*
X-48300000Y3200000D03*
G04 #@! TO.N,/CON.BSY-*
X-31500000Y7600000D03*
G04 #@! TO.N,/CON.RST-*
X-29100000Y7600000D03*
G04 #@! TO.N,/CON.DB2-*
X-45100000Y7600000D03*
G04 #@! TO.N,/CON.BSY+*
X-31500000Y3200000D03*
G04 #@! TO.N,/CON.DB5+*
X-41100000Y3200000D03*
G04 #@! TO.N,/CON.ATN-*
X-33100000Y7600000D03*
G04 #@! TO.N,/CON.DP0+*
X-37900000Y3200000D03*
G04 #@! TO.N,/CON.SEL+*
X-26700000Y3200000D03*
G04 #@! TO.N,/CON.ATN+*
X-33100000Y3200000D03*
G04 #@! TO.N,/CON.DB9-*
X-21100000Y7600000D03*
G04 #@! TO.N,/CON.SEL-*
X-26700000Y7600000D03*
G04 #@! TO.N,/CON.DB9+*
X-21100000Y3200000D03*
G04 #@! TO.N,/CON.DB0-*
X-47500000Y7600000D03*
G04 #@! TO.N,/CON.DB11+*
X-18700000Y3200000D03*
G04 #@! TO.N,/CON.DB7+*
X-38700000Y3200000D03*
G04 #@! TO.N,/CON.DP1-*
X-48300000Y7600000D03*
G04 #@! TO.N,/CON.DB5-*
X-41100000Y7600000D03*
G04 #@! TO.N,/CON.REQ-*
X-24300000Y7600000D03*
G04 #@! TO.N,/CON.DB1-*
X-45900000Y7600000D03*
G04 #@! TO.N,/CON.DB13+*
X-52300000Y3200000D03*
G04 #@! TO.N,/CON.REQ+*
X-24300000Y3200000D03*
G04 #@! TO.N,/CON.DB3-*
X-43500000Y7600000D03*
G04 #@! TO.N,/CON.DB8+*
X-21900000Y3200000D03*
G04 #@! TO.N,/CON.DB13-*
X-52300000Y7600000D03*
G04 #@! TO.N,/CON.DB15-*
X-49900000Y7600000D03*
G04 #@! TO.N,/CON.MSG+*
X-28300000Y3200000D03*
G04 #@! TO.N,/CON.DB11-*
X-18700000Y7600000D03*
G04 #@! TO.N,/CON.DB3+*
X-43500000Y3200000D03*
G04 #@! TO.N,/CON.ACK-*
X-30700000Y7600000D03*
G04 #@! TO.N,/CON.DIFFSENSE*
X-39100000Y25000000D03*
X-36300000Y3200000D03*
G04 #@! TO.N,/CON.I{slash}O+*
X-23500000Y3200000D03*
G04 #@! TO.N,/CON.I{slash}O-*
X-23500000Y7600000D03*
G04 #@! TO.N,/CON.DB4+*
X-42700000Y3200000D03*
G04 #@! TO.N,/CON.DB15+*
X-49900000Y3200000D03*
G04 #@! TO.N,/CON.DB6-*
X-40300000Y7600000D03*
G04 #@! TO.N,/CON.RST+*
X-29100000Y3200000D03*
G04 #@! TO.N,/CON.DB8-*
X-21900000Y7600000D03*
G04 #@! TO.N,/CON.DB10+*
X-19500000Y3200000D03*
G04 #@! TO.N,/CON.MSG-*
X-28300000Y7600000D03*
G04 #@! TO.N,/CON.DB6+*
X-40300000Y3200000D03*
G04 #@! TO.N,/CON.C{slash}D-*
X-25900000Y7600000D03*
G04 #@! TO.N,/CON.DB7-*
X-38700000Y7600000D03*
G04 #@! TO.N,/CON.DB1+*
X-45900000Y3200000D03*
G04 #@! TO.N,/CON.DP0-*
X-37900000Y7600000D03*
G04 #@! TO.N,/CON.DB2+*
X-45100000Y3200000D03*
G04 #@! TO.N,/CON.DB0+*
X-47500000Y3200000D03*
G04 #@! TO.N,/CON.DB12+*
X-53100000Y3200000D03*
G04 #@! TO.N,/CON.DB14+*
X-50700000Y3200000D03*
G04 #@! TO.N,/CON.DB12-*
X-53100000Y7600000D03*
G04 #@! TO.N,/CON.DB14-*
X-50700000Y7600000D03*
G04 #@! TD*
D19*
G04 #@! TO.N,/CON.DB10-*
X-24900000Y15067048D02*
X-24900000Y15200000D01*
X-19500000Y7600000D02*
X-24900000Y13000000D01*
X-25367048Y15667048D02*
X-25367048Y15800000D01*
X-24900000Y24000000D02*
X-24900000Y25675000D01*
X-25700000Y27000000D02*
X-25900000Y27200000D01*
X-25900000Y27200000D02*
X-25900000Y27850000D01*
X-25367146Y19267146D02*
X-25367146Y19400000D01*
X-25367048Y16867048D02*
X-25367048Y17000000D01*
X-24900000Y20000000D02*
X-24900000Y24000000D01*
X-24900000Y16267048D02*
X-24900000Y16400000D01*
X-25367048Y18067048D02*
X-25367048Y18200000D01*
X-24900000Y25675000D02*
X-25700000Y26475000D01*
X-24900000Y19867146D02*
X-24900000Y20000000D01*
X-24900000Y18667048D02*
X-24900000Y18800000D01*
X-24900000Y13000000D02*
X-24900000Y14000000D01*
X-25367048Y14467048D02*
X-25367048Y14600000D01*
X-25700000Y26475000D02*
X-25700000Y27000000D01*
X-24900000Y17467048D02*
X-24900000Y17600000D01*
X-25133524Y14233524D02*
G75*
G02*
X-25366976Y14467048I24J233476D01*
G01*
X-25133573Y19033573D02*
G75*
G02*
X-25367127Y19267146I-27J233527D01*
G01*
X-25367048Y18200000D02*
G75*
G02*
X-25133524Y18433548I233548J0D01*
G01*
X-25367048Y17000000D02*
G75*
G02*
X-25133524Y17233548I233548J0D01*
G01*
X-25367048Y14600000D02*
G75*
G02*
X-25133524Y14833548I233548J0D01*
G01*
X-24900000Y17600000D02*
G75*
G03*
X-25133524Y17833500I-233500J0D01*
G01*
X-24900000Y15200000D02*
G75*
G03*
X-25133524Y15433500I-233500J0D01*
G01*
X-25133573Y19633573D02*
G75*
G03*
X-24900073Y19867146I-27J233527D01*
G01*
X-25133524Y14833524D02*
G75*
G03*
X-24900024Y15067048I24J233476D01*
G01*
X-25133524Y17233524D02*
G75*
G03*
X-24900024Y17467048I24J233476D01*
G01*
X-24900000Y18800000D02*
G75*
G03*
X-25133573Y19033600I-233600J0D01*
G01*
X-25133524Y16033524D02*
G75*
G03*
X-24900024Y16267048I24J233476D01*
G01*
X-25133524Y18433524D02*
G75*
G03*
X-24900024Y18667048I24J233476D01*
G01*
X-25133524Y17833524D02*
G75*
G02*
X-25366976Y18067048I24J233476D01*
G01*
X-24900000Y16400000D02*
G75*
G03*
X-25133524Y16633500I-233500J0D01*
G01*
X-25367048Y15800000D02*
G75*
G02*
X-25133524Y16033548I233548J0D01*
G01*
X-24900000Y14000000D02*
G75*
G03*
X-25133524Y14233500I-233500J0D01*
G01*
X-25133524Y16633524D02*
G75*
G02*
X-25366976Y16867048I24J233476D01*
G01*
X-25133524Y15433524D02*
G75*
G02*
X-25366976Y15667048I24J233476D01*
G01*
X-25367146Y19400000D02*
G75*
G02*
X-25133573Y19633546I233546J0D01*
G01*
G04 #@! TO.N,/CON.DB4-*
X-43215789Y17480000D02*
X-43215789Y17600000D01*
X-43700000Y14480000D02*
X-43700000Y14600000D01*
X-43460000Y16040000D02*
X-43455789Y16040000D01*
X-44300000Y29000000D02*
X-44300000Y27200000D01*
X-44500000Y27000000D02*
X-44500000Y26475000D01*
X-43700000Y13280000D02*
X-43700000Y13400000D01*
X-43460000Y11240000D02*
X-43455789Y11240000D01*
X-43215789Y12680000D02*
X-43215789Y12800000D01*
X-43460000Y13640000D02*
X-43455789Y13640000D01*
X-43700000Y18080000D02*
X-43700000Y18200000D01*
X-43455789Y11840000D02*
X-43460000Y11840000D01*
X-43215789Y15080000D02*
X-43215789Y15200000D01*
X-43455789Y17840000D02*
X-43460000Y17840000D01*
X-43700000Y15680000D02*
X-43700000Y15800000D01*
X-43700000Y18200000D02*
X-43700000Y24000000D01*
X-43460000Y12440000D02*
X-43455789Y12440000D01*
X-43460000Y17240000D02*
X-43455789Y17240000D01*
X-43455789Y16640000D02*
X-43460000Y16640000D01*
X-43700000Y8600000D02*
X-43700000Y11000000D01*
X-43700000Y25675000D02*
X-43700000Y24000000D01*
X-42700000Y7600000D02*
X-43700000Y8600000D01*
X-43455789Y14240000D02*
X-43460000Y14240000D01*
X-43455789Y15440000D02*
X-43460000Y15440000D01*
X-44300000Y27200000D02*
X-44500000Y27000000D01*
X-43215789Y11480000D02*
X-43215789Y11600000D01*
X-43215789Y13880000D02*
X-43215789Y14000000D01*
X-43700000Y16880000D02*
X-43700000Y17000000D01*
X-43215789Y16280000D02*
X-43215789Y16400000D01*
X-43700000Y12080000D02*
X-43700000Y12200000D01*
X-43460000Y14840000D02*
X-43455789Y14840000D01*
X-44500000Y26475000D02*
X-43700000Y25675000D01*
X-43455789Y13040000D02*
X-43460000Y13040000D01*
X-43700000Y15800000D02*
G75*
G02*
X-43460000Y16040000I240000J0D01*
G01*
X-43460000Y16640000D02*
G75*
G02*
X-43700000Y16880000I0J240000D01*
G01*
X-43700000Y13400000D02*
G75*
G02*
X-43460000Y13640000I240000J0D01*
G01*
X-43455789Y16040000D02*
G75*
G03*
X-43215800Y16280000I-11J240000D01*
G01*
X-43460000Y15440000D02*
G75*
G02*
X-43700000Y15680000I0J240000D01*
G01*
X-43455789Y17240000D02*
G75*
G03*
X-43215800Y17480000I-11J240000D01*
G01*
X-43460000Y13040000D02*
G75*
G02*
X-43700000Y13280000I0J240000D01*
G01*
X-43215789Y15200000D02*
G75*
G03*
X-43455789Y15440011I-240011J0D01*
G01*
X-43455789Y14840000D02*
G75*
G03*
X-43215800Y15080000I-11J240000D01*
G01*
X-43455789Y13640000D02*
G75*
G03*
X-43215800Y13880000I-11J240000D01*
G01*
X-43215789Y12800000D02*
G75*
G03*
X-43455789Y13040011I-240011J0D01*
G01*
X-43215789Y11600000D02*
G75*
G03*
X-43455789Y11840011I-240011J0D01*
G01*
X-43215789Y14000000D02*
G75*
G03*
X-43455789Y14240011I-240011J0D01*
G01*
X-43455789Y12440000D02*
G75*
G03*
X-43215800Y12680000I-11J240000D01*
G01*
X-43460000Y17840000D02*
G75*
G02*
X-43700000Y18080000I0J240000D01*
G01*
X-43700000Y17000000D02*
G75*
G02*
X-43460000Y17240000I240000J0D01*
G01*
X-43700000Y11000000D02*
G75*
G02*
X-43460000Y11240000I240000J0D01*
G01*
X-43700000Y12200000D02*
G75*
G02*
X-43460000Y12440000I240000J0D01*
G01*
X-43455789Y11240000D02*
G75*
G03*
X-43215800Y11480000I-11J240000D01*
G01*
X-43215789Y17600000D02*
G75*
G03*
X-43455789Y17840011I-240011J0D01*
G01*
X-43460000Y14240000D02*
G75*
G02*
X-43700000Y14480000I0J240000D01*
G01*
X-43700000Y14600000D02*
G75*
G02*
X-43460000Y14840000I240000J0D01*
G01*
X-43215789Y16400000D02*
G75*
G03*
X-43455789Y16640011I-240011J0D01*
G01*
X-43460000Y11840000D02*
G75*
G02*
X-43700000Y12080000I0J240000D01*
G01*
G04 #@! TO.N,/CON.BSY-*
X-33900000Y27200000D02*
X-33900000Y27850000D01*
X-31500000Y7600000D02*
X-32900000Y9000000D01*
X-32900000Y16473274D02*
X-32900000Y16600000D01*
X-32900000Y15273274D02*
X-32900000Y15400000D01*
X-32900000Y22600000D02*
X-32900000Y24000000D01*
X-32900000Y18873338D02*
X-32900000Y19000000D01*
X-32900000Y20073348D02*
X-32900000Y20200000D01*
X-33373274Y14673274D02*
X-33373274Y14800000D01*
X-33373348Y21873348D02*
X-33373348Y22000000D01*
X-32900000Y22473348D02*
X-32900000Y22600000D01*
X-33700000Y26475000D02*
X-33700000Y27000000D01*
X-33373274Y17073274D02*
X-33373274Y17200000D01*
X-33373338Y18273338D02*
X-33373338Y18400000D01*
X-33373348Y20673348D02*
X-33373348Y20800000D01*
X-32900000Y9000000D02*
X-32900000Y13000000D01*
X-32900000Y21273348D02*
X-32900000Y21400000D01*
X-33373348Y19473348D02*
X-33373348Y19600000D01*
X-33700000Y27000000D02*
X-33900000Y27200000D01*
X-33373274Y13473274D02*
X-33373274Y13600000D01*
X-32900000Y25675000D02*
X-33700000Y26475000D01*
X-33373274Y15873274D02*
X-33373274Y16000000D01*
X-32900000Y24000000D02*
X-32900000Y25675000D01*
X-32900000Y17673274D02*
X-32900000Y17800000D01*
X-32900000Y14073274D02*
X-32900000Y14200000D01*
X-32900000Y21400000D02*
G75*
G03*
X-33136674Y21636700I-236700J0D01*
G01*
X-32900000Y14200000D02*
G75*
G03*
X-33136637Y14436600I-236600J0D01*
G01*
X-33373348Y20800000D02*
G75*
G02*
X-33136674Y21036648I236648J0D01*
G01*
X-32900000Y15400000D02*
G75*
G03*
X-33136637Y15636600I-236600J0D01*
G01*
X-32900000Y13000000D02*
G75*
G03*
X-33136637Y13236600I-236600J0D01*
G01*
X-33136674Y21036674D02*
G75*
G03*
X-32900074Y21273348I-26J236626D01*
G01*
X-33136637Y16236637D02*
G75*
G03*
X-32899937Y16473274I37J236663D01*
G01*
X-33136637Y17436637D02*
G75*
G03*
X-32899937Y17673274I37J236663D01*
G01*
X-33136637Y13836637D02*
G75*
G03*
X-32899937Y14073274I37J236663D01*
G01*
X-33373274Y13600000D02*
G75*
G02*
X-33136637Y13836674I236674J0D01*
G01*
X-33136674Y22236674D02*
G75*
G03*
X-32900074Y22473348I-26J236626D01*
G01*
X-33136637Y13236637D02*
G75*
G02*
X-33373263Y13473274I37J236663D01*
G01*
X-33373274Y17200000D02*
G75*
G02*
X-33136637Y17436674I236674J0D01*
G01*
X-33136637Y15036637D02*
G75*
G03*
X-32899937Y15273274I37J236663D01*
G01*
X-32900000Y19000000D02*
G75*
G03*
X-33136674Y19236700I-236700J0D01*
G01*
X-33373274Y14800000D02*
G75*
G02*
X-33136637Y15036674I236674J0D01*
G01*
X-32900000Y20200000D02*
G75*
G03*
X-33136674Y20436700I-236700J0D01*
G01*
X-33136674Y21636674D02*
G75*
G02*
X-33373326Y21873348I-26J236626D01*
G01*
X-33136637Y15636637D02*
G75*
G02*
X-33373263Y15873274I37J236663D01*
G01*
X-33373348Y19600000D02*
G75*
G02*
X-33136674Y19836648I236648J0D01*
G01*
X-33136637Y14436637D02*
G75*
G02*
X-33373263Y14673274I37J236663D01*
G01*
X-33373348Y22000000D02*
G75*
G02*
X-33136674Y22236648I236648J0D01*
G01*
X-33136669Y18636669D02*
G75*
G03*
X-32900069Y18873338I-31J236631D01*
G01*
X-33136674Y20436674D02*
G75*
G02*
X-33373326Y20673348I-26J236626D01*
G01*
X-33136674Y19236674D02*
G75*
G02*
X-33373326Y19473348I-26J236626D01*
G01*
X-32900000Y16600000D02*
G75*
G03*
X-33136637Y16836600I-236600J0D01*
G01*
X-32900000Y17800000D02*
G75*
G03*
X-33136669Y18036700I-236700J0D01*
G01*
X-33136637Y16836637D02*
G75*
G02*
X-33373263Y17073274I37J236663D01*
G01*
X-33373274Y16000000D02*
G75*
G02*
X-33136637Y16236674I236674J0D01*
G01*
X-33373338Y18400000D02*
G75*
G02*
X-33136669Y18636638I236638J0D01*
G01*
X-33136674Y19836674D02*
G75*
G03*
X-32900074Y20073348I-26J236626D01*
G01*
X-33136669Y18036669D02*
G75*
G02*
X-33373331Y18273338I-31J236631D01*
G01*
G04 #@! TO.N,/CON.RST-*
X-31540000Y20440000D02*
X-31546913Y20440000D01*
X-31300000Y17627050D02*
X-31300000Y17800000D01*
X-31727034Y14627034D02*
X-31727034Y14800000D01*
X-31300000Y20027050D02*
X-31300000Y20200000D01*
X-31727050Y17027050D02*
X-31727050Y17200000D01*
X-31300000Y9800000D02*
X-31300000Y13000000D01*
X-29100000Y7600000D02*
X-31300000Y9800000D01*
X-31300000Y25675000D02*
X-32100000Y26475000D01*
X-31727050Y15827050D02*
X-31727050Y16000000D01*
X-31786892Y21880000D02*
X-31786892Y22000000D01*
X-31786913Y20680000D02*
X-31786913Y20800000D01*
X-32100000Y26475000D02*
X-32100000Y27000000D01*
X-32100000Y27000000D02*
X-32300000Y27200000D01*
X-32300000Y27200000D02*
X-32300000Y27850000D01*
X-31300000Y21280000D02*
X-31300000Y21400000D01*
X-31540000Y21640000D02*
X-31546892Y21640000D01*
X-31676994Y13376994D02*
X-31676994Y13600000D01*
X-31546892Y22240000D02*
X-31540000Y22240000D01*
X-31300000Y22480000D02*
X-31300000Y22600000D01*
X-31300000Y16427050D02*
X-31300000Y16600000D01*
X-31300000Y15227034D02*
X-31300000Y15400000D01*
X-31300000Y13976994D02*
X-31300000Y14200000D01*
X-31300000Y18827050D02*
X-31300000Y19000000D01*
X-31300000Y24000000D02*
X-31300000Y25675000D01*
X-31546913Y21040000D02*
X-31540000Y21040000D01*
X-31727050Y18227050D02*
X-31727050Y18400000D01*
X-31727050Y19427050D02*
X-31727050Y19600000D01*
X-31300000Y22600000D02*
X-31300000Y24000000D01*
X-31300000Y19000000D02*
G75*
G03*
X-31513525Y19213500I-213500J0D01*
G01*
X-31546892Y21640000D02*
G75*
G02*
X-31786900Y21880000I-8J240000D01*
G01*
X-31513525Y16813525D02*
G75*
G02*
X-31726975Y17027050I25J213475D01*
G01*
X-31727034Y14800000D02*
G75*
G02*
X-31513517Y15013534I213534J0D01*
G01*
X-31513517Y15013517D02*
G75*
G03*
X-31300017Y15227034I17J213483D01*
G01*
X-31727050Y19600000D02*
G75*
G02*
X-31513525Y19813550I213550J0D01*
G01*
X-31300000Y17800000D02*
G75*
G03*
X-31513525Y18013500I-213500J0D01*
G01*
X-31513525Y17413525D02*
G75*
G03*
X-31300025Y17627050I25J213475D01*
G01*
X-31513525Y18613525D02*
G75*
G03*
X-31300025Y18827050I25J213475D01*
G01*
X-31676994Y13600000D02*
G75*
G02*
X-31488497Y13788494I188494J0D01*
G01*
X-31786892Y22000000D02*
G75*
G02*
X-31546892Y22239992I239992J0D01*
G01*
X-31727050Y17200000D02*
G75*
G02*
X-31513525Y17413550I213550J0D01*
G01*
X-31300000Y16600000D02*
G75*
G03*
X-31513525Y16813500I-213500J0D01*
G01*
X-31300000Y13000000D02*
G75*
G03*
X-31488497Y13188500I-188500J0D01*
G01*
X-31300000Y20200000D02*
G75*
G03*
X-31540000Y20440000I-240000J0D01*
G01*
X-31786913Y20800000D02*
G75*
G02*
X-31546913Y21040013I240013J0D01*
G01*
X-31513517Y14413517D02*
G75*
G02*
X-31726983Y14627034I17J213483D01*
G01*
X-31488497Y13788497D02*
G75*
G03*
X-31299997Y13976994I-3J188503D01*
G01*
X-31546913Y20440000D02*
G75*
G02*
X-31786900Y20680000I13J240000D01*
G01*
X-31513525Y16213525D02*
G75*
G03*
X-31300025Y16427050I25J213475D01*
G01*
X-31488497Y13188497D02*
G75*
G02*
X-31677003Y13376994I-3J188503D01*
G01*
X-31727050Y16000000D02*
G75*
G02*
X-31513525Y16213550I213550J0D01*
G01*
X-31513525Y18013525D02*
G75*
G02*
X-31726975Y18227050I25J213475D01*
G01*
X-31513525Y19813525D02*
G75*
G03*
X-31300025Y20027050I25J213475D01*
G01*
X-31513525Y19213525D02*
G75*
G02*
X-31726975Y19427050I25J213475D01*
G01*
X-31300000Y21400000D02*
G75*
G03*
X-31540000Y21640000I-240000J0D01*
G01*
X-31300000Y14200000D02*
G75*
G03*
X-31513517Y14413500I-213500J0D01*
G01*
X-31300000Y15400000D02*
G75*
G03*
X-31513525Y15613500I-213500J0D01*
G01*
X-31540000Y21040000D02*
G75*
G03*
X-31300000Y21280000I0J240000D01*
G01*
X-31540000Y22240000D02*
G75*
G03*
X-31300000Y22480000I0J240000D01*
G01*
X-31727050Y18400000D02*
G75*
G02*
X-31513525Y18613550I213550J0D01*
G01*
X-31513525Y15613525D02*
G75*
G02*
X-31726975Y15827050I25J213475D01*
G01*
G04 #@! TO.N,/CON.DB2-*
X-45900000Y27200000D02*
X-46100000Y27000000D01*
X-46100000Y27000000D02*
X-46100000Y26483801D01*
X-45300000Y16808048D02*
X-45300000Y17000000D01*
X-46100000Y26483801D02*
X-45300000Y25683801D01*
X-44891952Y11408048D02*
X-44891952Y11600000D01*
X-45100000Y7600000D02*
X-45300000Y7800000D01*
X-45300000Y19208080D02*
X-45300000Y19400000D01*
X-44891920Y18608080D02*
X-44891920Y18800000D01*
X-45300000Y14408080D02*
X-45300000Y14600000D01*
X-45300000Y7800000D02*
X-45300000Y11000000D01*
X-44891920Y17408080D02*
X-44891920Y17600000D01*
X-44941880Y19758120D02*
X-44941880Y20000000D01*
X-45300000Y20358120D02*
X-45300000Y20600000D01*
X-44891952Y12608048D02*
X-44891952Y12800000D01*
X-45300000Y12008048D02*
X-45300000Y12200000D01*
X-44891952Y16208048D02*
X-44891952Y16400000D01*
X-45300000Y13208048D02*
X-45300000Y13400000D01*
X-44891938Y15008062D02*
X-44891938Y15200000D01*
X-45300000Y25683801D02*
X-45300000Y24000000D01*
X-45300000Y15608062D02*
X-45300000Y15800000D01*
X-45900000Y29000000D02*
X-45900000Y27200000D01*
X-45300000Y18008080D02*
X-45300000Y18200000D01*
X-44891920Y13808080D02*
X-44891920Y14000000D01*
X-45300000Y20600000D02*
X-45300000Y24000000D01*
X-45095976Y13004024D02*
G75*
G02*
X-45299976Y13208048I-24J203976D01*
G01*
X-45300000Y11000000D02*
G75*
G02*
X-45095976Y11204000I204000J0D01*
G01*
X-45095976Y12404024D02*
G75*
G03*
X-44892024Y12608048I-24J203976D01*
G01*
X-44891952Y11600000D02*
G75*
G03*
X-45095976Y11804048I-204048J0D01*
G01*
X-45300000Y14600000D02*
G75*
G02*
X-45095969Y14804000I204000J0D01*
G01*
X-45095960Y17204040D02*
G75*
G03*
X-44891940Y17408080I-40J204060D01*
G01*
X-44891952Y12800000D02*
G75*
G03*
X-45095976Y13004048I-204048J0D01*
G01*
X-45095976Y16004024D02*
G75*
G03*
X-44892024Y16208048I-24J203976D01*
G01*
X-44891938Y15200000D02*
G75*
G03*
X-45095969Y15404062I-204062J0D01*
G01*
X-45095976Y11204024D02*
G75*
G03*
X-44892024Y11408048I-24J203976D01*
G01*
X-44941880Y20000000D02*
G75*
G03*
X-45120940Y20179020I-179020J0D01*
G01*
X-44891920Y14000000D02*
G75*
G03*
X-45095960Y14204080I-204080J0D01*
G01*
X-45300000Y15800000D02*
G75*
G02*
X-45095976Y16004000I204000J0D01*
G01*
X-45300000Y12200000D02*
G75*
G02*
X-45095976Y12404000I204000J0D01*
G01*
X-44891952Y16400000D02*
G75*
G03*
X-45095976Y16604048I-204048J0D01*
G01*
X-45095960Y14204040D02*
G75*
G02*
X-45300060Y14408080I-40J204060D01*
G01*
X-45095960Y17804040D02*
G75*
G02*
X-45300060Y18008080I-40J204060D01*
G01*
X-45095969Y14804031D02*
G75*
G03*
X-44891931Y15008062I-31J204069D01*
G01*
X-45120940Y19579060D02*
G75*
G03*
X-44941860Y19758120I40J179040D01*
G01*
X-45300000Y18200000D02*
G75*
G02*
X-45095960Y18404000I204000J0D01*
G01*
X-44891920Y17600000D02*
G75*
G03*
X-45095960Y17804080I-204080J0D01*
G01*
X-45120940Y20179060D02*
G75*
G02*
X-45299940Y20358120I40J179040D01*
G01*
X-45095960Y19004040D02*
G75*
G02*
X-45300060Y19208080I-40J204060D01*
G01*
X-44891920Y18800000D02*
G75*
G03*
X-45095960Y19004080I-204080J0D01*
G01*
X-45095976Y11804024D02*
G75*
G02*
X-45299976Y12008048I-24J203976D01*
G01*
X-45300000Y19400000D02*
G75*
G02*
X-45120940Y19579100I179100J0D01*
G01*
X-45095969Y15404031D02*
G75*
G02*
X-45300069Y15608062I-31J204069D01*
G01*
X-45300000Y13400000D02*
G75*
G02*
X-45095960Y13604000I204000J0D01*
G01*
X-45095960Y18404040D02*
G75*
G03*
X-44891940Y18608080I-40J204060D01*
G01*
X-45095976Y16604024D02*
G75*
G02*
X-45299976Y16808048I-24J203976D01*
G01*
X-45095960Y13604040D02*
G75*
G03*
X-44891940Y13808080I-40J204060D01*
G01*
X-45300000Y17000000D02*
G75*
G02*
X-45095960Y17204000I204000J0D01*
G01*
G04 #@! TO.N,/CON.ATN-*
X-34500000Y22600000D02*
X-34500000Y24000000D01*
X-35500000Y27200000D02*
X-35500000Y27850000D01*
X-34500000Y9000000D02*
X-34500000Y13000000D01*
X-34973348Y19473348D02*
X-34973348Y19600000D01*
X-34973274Y14673274D02*
X-34973274Y14800000D01*
X-34500000Y15273274D02*
X-34500000Y15400000D01*
X-34973338Y18273338D02*
X-34973338Y18400000D01*
X-34500000Y14073274D02*
X-34500000Y14200000D01*
X-34500000Y22473348D02*
X-34500000Y22600000D01*
X-34973274Y17073274D02*
X-34973274Y17200000D01*
X-34973274Y15873274D02*
X-34973274Y16000000D01*
X-34500000Y20073348D02*
X-34500000Y20200000D01*
X-33100000Y7600000D02*
X-34500000Y9000000D01*
X-34500000Y18873338D02*
X-34500000Y19000000D01*
X-34500000Y21273348D02*
X-34500000Y21400000D01*
X-34973274Y13473274D02*
X-34973274Y13600000D01*
X-34500000Y17673274D02*
X-34500000Y17800000D01*
X-35300000Y26500000D02*
X-35300000Y27000000D01*
X-34500000Y24000000D02*
X-34500000Y25700000D01*
X-34500000Y16473274D02*
X-34500000Y16600000D01*
X-34973348Y21873348D02*
X-34973348Y22000000D01*
X-34973348Y20673348D02*
X-34973348Y20800000D01*
X-34500000Y25700000D02*
X-35300000Y26500000D01*
X-35300000Y27000000D02*
X-35500000Y27200000D01*
X-34973274Y13600000D02*
G75*
G02*
X-34736637Y13836674I236674J0D01*
G01*
X-34736637Y13836637D02*
G75*
G03*
X-34499937Y14073274I37J236663D01*
G01*
X-34736637Y14436637D02*
G75*
G02*
X-34973263Y14673274I37J236663D01*
G01*
X-34500000Y15400000D02*
G75*
G03*
X-34736637Y15636600I-236600J0D01*
G01*
X-34736669Y18036669D02*
G75*
G02*
X-34973331Y18273338I-31J236631D01*
G01*
X-34973338Y18400000D02*
G75*
G02*
X-34736669Y18636638I236638J0D01*
G01*
X-34736674Y21036674D02*
G75*
G03*
X-34500074Y21273348I-26J236626D01*
G01*
X-34736637Y16836637D02*
G75*
G02*
X-34973263Y17073274I37J236663D01*
G01*
X-34500000Y20200000D02*
G75*
G03*
X-34736674Y20436700I-236700J0D01*
G01*
X-34500000Y16600000D02*
G75*
G03*
X-34736637Y16836600I-236600J0D01*
G01*
X-34736637Y17436637D02*
G75*
G03*
X-34499937Y17673274I37J236663D01*
G01*
X-34973348Y22000000D02*
G75*
G02*
X-34736674Y22236648I236648J0D01*
G01*
X-34500000Y19000000D02*
G75*
G03*
X-34736674Y19236700I-236700J0D01*
G01*
X-34736637Y13236637D02*
G75*
G02*
X-34973263Y13473274I37J236663D01*
G01*
X-34736674Y19236674D02*
G75*
G02*
X-34973326Y19473348I-26J236626D01*
G01*
X-34736637Y16236637D02*
G75*
G03*
X-34499937Y16473274I37J236663D01*
G01*
X-34973274Y16000000D02*
G75*
G02*
X-34736637Y16236674I236674J0D01*
G01*
X-34736637Y15636637D02*
G75*
G02*
X-34973263Y15873274I37J236663D01*
G01*
X-34973274Y14800000D02*
G75*
G02*
X-34736637Y15036674I236674J0D01*
G01*
X-34500000Y21400000D02*
G75*
G03*
X-34736674Y21636700I-236700J0D01*
G01*
X-34736674Y22236674D02*
G75*
G03*
X-34500074Y22473348I-26J236626D01*
G01*
X-34736674Y20436674D02*
G75*
G02*
X-34973326Y20673348I-26J236626D01*
G01*
X-34973348Y19600000D02*
G75*
G02*
X-34736674Y19836648I236648J0D01*
G01*
X-34500000Y14200000D02*
G75*
G03*
X-34736637Y14436600I-236600J0D01*
G01*
X-34973274Y17200000D02*
G75*
G02*
X-34736637Y17436674I236674J0D01*
G01*
X-34736674Y21636674D02*
G75*
G02*
X-34973326Y21873348I-26J236626D01*
G01*
X-34736669Y18636669D02*
G75*
G03*
X-34500069Y18873338I-31J236631D01*
G01*
X-34736674Y19836674D02*
G75*
G03*
X-34500074Y20073348I-26J236626D01*
G01*
X-34500000Y17800000D02*
G75*
G03*
X-34736669Y18036700I-236700J0D01*
G01*
X-34500000Y13000000D02*
G75*
G03*
X-34736637Y13236600I-236600J0D01*
G01*
X-34736637Y15036637D02*
G75*
G03*
X-34499937Y15273274I37J236663D01*
G01*
X-34973348Y20800000D02*
G75*
G02*
X-34736674Y21036648I236648J0D01*
G01*
G04 #@! TO.N,/CON.DB9-*
X-26100000Y16180748D02*
X-26100000Y16400000D01*
X-26100000Y18800000D02*
X-26100000Y24000000D01*
X-26900000Y27000000D02*
X-26900000Y26493718D01*
X-26100000Y17380748D02*
X-26100000Y17600000D01*
X-26700000Y29000000D02*
X-26700000Y27200000D01*
X-26900000Y26493718D02*
X-26100000Y25693718D01*
X-26700000Y27200000D02*
X-26900000Y27000000D01*
X-21100000Y7600000D02*
X-26100000Y12600000D01*
X-25719252Y14380748D02*
X-25719252Y14600000D01*
X-26100000Y14980748D02*
X-26100000Y15200000D01*
X-26100000Y18530750D02*
X-26100000Y18800000D01*
X-25719252Y16780748D02*
X-25719252Y17000000D01*
X-26100000Y25693718D02*
X-26100000Y24000000D01*
X-25719252Y15580748D02*
X-25719252Y15800000D01*
X-26100000Y12600000D02*
X-26100000Y14000000D01*
X-25769250Y17930750D02*
X-25769250Y18200000D01*
X-25909626Y15390374D02*
G75*
G03*
X-25719274Y15580748I26J190326D01*
G01*
X-25934625Y17765375D02*
G75*
G03*
X-25769275Y17930750I25J165325D01*
G01*
X-26100000Y16400000D02*
G75*
G02*
X-25909626Y16590400I190400J0D01*
G01*
X-25909626Y17190374D02*
G75*
G02*
X-26099926Y17380748I26J190326D01*
G01*
X-25909626Y15990374D02*
G75*
G02*
X-26099926Y16180748I26J190326D01*
G01*
X-25769250Y18200000D02*
G75*
G03*
X-25934625Y18365350I-165350J0D01*
G01*
X-25909626Y16590374D02*
G75*
G03*
X-25719274Y16780748I26J190326D01*
G01*
X-26100000Y17600000D02*
G75*
G02*
X-25934625Y17765400I165400J0D01*
G01*
X-25909626Y14190374D02*
G75*
G03*
X-25719274Y14380748I26J190326D01*
G01*
X-25909626Y14790374D02*
G75*
G02*
X-26099926Y14980748I26J190326D01*
G01*
X-25719252Y14600000D02*
G75*
G03*
X-25909626Y14790348I-190348J0D01*
G01*
X-26100000Y14000000D02*
G75*
G02*
X-25909626Y14190400I190400J0D01*
G01*
X-26100000Y15200000D02*
G75*
G02*
X-25909626Y15390400I190400J0D01*
G01*
X-25719252Y15800000D02*
G75*
G03*
X-25909626Y15990348I-190348J0D01*
G01*
X-25719252Y17000000D02*
G75*
G03*
X-25909626Y17190348I-190348J0D01*
G01*
X-25934625Y18365375D02*
G75*
G02*
X-26099925Y18530750I25J165325D01*
G01*
G04 #@! TO.N,/CON.SEL-*
X-29700000Y16257956D02*
X-29700000Y16400000D01*
X-30157956Y19257956D02*
X-30157956Y19400000D01*
X-30157956Y16857956D02*
X-30157956Y17000000D01*
X-29700000Y18657950D02*
X-29700000Y18800000D01*
X-30500000Y26475000D02*
X-30500000Y27000000D01*
X-29700000Y15057956D02*
X-29700000Y15200000D01*
X-30157956Y15657956D02*
X-30157956Y15800000D01*
X-29700000Y22400000D02*
X-29700000Y24000000D01*
X-26700000Y7600000D02*
X-29700000Y10600000D01*
X-29700000Y24000000D02*
X-29700000Y25675000D01*
X-30157956Y20457956D02*
X-30157956Y20600000D01*
X-30157956Y14457956D02*
X-30157956Y14600000D01*
X-29700000Y17457956D02*
X-29700000Y17600000D01*
X-30158048Y21658048D02*
X-30158048Y21800000D01*
X-29700000Y25675000D02*
X-30500000Y26475000D01*
X-29700000Y22258048D02*
X-29700000Y22400000D01*
X-30700000Y27200000D02*
X-30700000Y27850000D01*
X-29700000Y19857956D02*
X-29700000Y20000000D01*
X-30500000Y27000000D02*
X-30700000Y27200000D01*
X-29700000Y10600000D02*
X-29700000Y14000000D01*
X-29700000Y21057956D02*
X-29700000Y21200000D01*
X-30157950Y18057950D02*
X-30157950Y18200000D01*
X-29700000Y17600000D02*
G75*
G03*
X-29928975Y17829000I-229000J0D01*
G01*
X-30157956Y14600000D02*
G75*
G02*
X-29928978Y14828956I228956J0D01*
G01*
X-30157950Y18200000D02*
G75*
G02*
X-29928975Y18428950I228950J0D01*
G01*
X-30157956Y19400000D02*
G75*
G02*
X-29928978Y19628956I228956J0D01*
G01*
X-29700000Y18800000D02*
G75*
G03*
X-29928978Y19029000I-229000J0D01*
G01*
X-29928978Y17228978D02*
G75*
G03*
X-29699978Y17457956I-22J229022D01*
G01*
X-30157956Y15800000D02*
G75*
G02*
X-29928978Y16028956I228956J0D01*
G01*
X-29700000Y20000000D02*
G75*
G03*
X-29928978Y20229000I-229000J0D01*
G01*
X-29928978Y14228978D02*
G75*
G02*
X-30158022Y14457956I-22J229022D01*
G01*
X-30157956Y20600000D02*
G75*
G02*
X-29928978Y20828956I228956J0D01*
G01*
X-29929024Y21429024D02*
G75*
G02*
X-30157976Y21658048I24J228976D01*
G01*
X-29928978Y19628978D02*
G75*
G03*
X-29699978Y19857956I-22J229022D01*
G01*
X-29700000Y16400000D02*
G75*
G03*
X-29928978Y16629000I-229000J0D01*
G01*
X-29929024Y22029024D02*
G75*
G03*
X-29700024Y22258048I24J228976D01*
G01*
X-29928978Y16028978D02*
G75*
G03*
X-29699978Y16257956I-22J229022D01*
G01*
X-29928978Y20228978D02*
G75*
G02*
X-30158022Y20457956I-22J229022D01*
G01*
X-29700000Y21200000D02*
G75*
G03*
X-29929024Y21429000I-229000J0D01*
G01*
X-30158048Y21800000D02*
G75*
G02*
X-29929024Y22029048I229048J0D01*
G01*
X-29928978Y14828978D02*
G75*
G03*
X-29699978Y15057956I-22J229022D01*
G01*
X-30157956Y17000000D02*
G75*
G02*
X-29928978Y17228956I228956J0D01*
G01*
X-29928978Y20828978D02*
G75*
G03*
X-29699978Y21057956I-22J229022D01*
G01*
X-29700000Y14000000D02*
G75*
G03*
X-29928978Y14229000I-229000J0D01*
G01*
X-29700000Y15200000D02*
G75*
G03*
X-29928978Y15429000I-229000J0D01*
G01*
X-29928975Y18428975D02*
G75*
G03*
X-29700075Y18657950I-25J228925D01*
G01*
X-29928978Y15428978D02*
G75*
G02*
X-30158022Y15657956I-22J229022D01*
G01*
X-29928975Y17828975D02*
G75*
G02*
X-30157925Y18057950I-25J228925D01*
G01*
X-29928978Y16628978D02*
G75*
G02*
X-30158022Y16857956I-22J229022D01*
G01*
X-29928978Y19028978D02*
G75*
G02*
X-30158022Y19257956I-22J229022D01*
G01*
G04 #@! TO.N,/CON.DB0-*
X-46660000Y16040000D02*
X-46641980Y16040000D01*
X-46900000Y13280000D02*
X-46900000Y13400000D01*
X-46900000Y14480000D02*
X-46900000Y14600000D01*
X-46641980Y11840000D02*
X-46660000Y11840000D01*
X-47700000Y27000000D02*
X-47700000Y26475000D01*
X-46641980Y13040000D02*
X-46660000Y13040000D01*
X-46401980Y16280000D02*
X-46401980Y16400000D01*
X-46900000Y16880000D02*
X-46900000Y17000000D01*
X-46900000Y12080000D02*
X-46900000Y12200000D01*
X-46641980Y16640000D02*
X-46660000Y16640000D01*
X-46401980Y13880000D02*
X-46401980Y14000000D01*
X-46900000Y25675000D02*
X-46900000Y24000000D01*
X-46641980Y17840000D02*
X-46660000Y17840000D01*
X-46900000Y15680000D02*
X-46900000Y15800000D01*
X-47500000Y27200000D02*
X-47700000Y27000000D01*
X-46401980Y17480000D02*
X-46401980Y17600000D01*
X-46660000Y14840000D02*
X-46641980Y14840000D01*
X-46900000Y18200000D02*
X-46900000Y24000000D01*
X-46401980Y15080000D02*
X-46401980Y15200000D01*
X-46641980Y15440000D02*
X-46660000Y15440000D01*
X-46660000Y11240000D02*
X-46641980Y11240000D01*
X-46641980Y14240000D02*
X-46660000Y14240000D01*
X-46900000Y8200000D02*
X-46900000Y11000000D01*
X-46660000Y12440000D02*
X-46641980Y12440000D01*
X-46900000Y18080000D02*
X-46900000Y18200000D01*
X-47700000Y26475000D02*
X-46900000Y25675000D01*
X-47500000Y29000000D02*
X-47500000Y27200000D01*
X-46660000Y17240000D02*
X-46641980Y17240000D01*
X-46401980Y11480000D02*
X-46401980Y11600000D01*
X-46401980Y12680000D02*
X-46401980Y12800000D01*
X-47500000Y7600000D02*
X-46900000Y8200000D01*
X-46660000Y13640000D02*
X-46641980Y13640000D01*
X-46641980Y16040000D02*
G75*
G03*
X-46402000Y16280000I-20J240000D01*
G01*
X-46401980Y16400000D02*
G75*
G03*
X-46641980Y16640020I-240020J0D01*
G01*
X-46401980Y14000000D02*
G75*
G03*
X-46641980Y14240020I-240020J0D01*
G01*
X-46660000Y13040000D02*
G75*
G02*
X-46900000Y13280000I0J240000D01*
G01*
X-46900000Y15800000D02*
G75*
G02*
X-46660000Y16040000I240000J0D01*
G01*
X-46900000Y17000000D02*
G75*
G02*
X-46660000Y17240000I240000J0D01*
G01*
X-46900000Y12200000D02*
G75*
G02*
X-46660000Y12440000I240000J0D01*
G01*
X-46401980Y15200000D02*
G75*
G03*
X-46641980Y15440020I-240020J0D01*
G01*
X-46660000Y17840000D02*
G75*
G02*
X-46900000Y18080000I0J240000D01*
G01*
X-46900000Y13400000D02*
G75*
G02*
X-46660000Y13640000I240000J0D01*
G01*
X-46660000Y16640000D02*
G75*
G02*
X-46900000Y16880000I0J240000D01*
G01*
X-46641980Y13640000D02*
G75*
G03*
X-46402000Y13880000I-20J240000D01*
G01*
X-46900000Y11000000D02*
G75*
G02*
X-46660000Y11240000I240000J0D01*
G01*
X-46641980Y17240000D02*
G75*
G03*
X-46402000Y17480000I-20J240000D01*
G01*
X-46641980Y11240000D02*
G75*
G03*
X-46402000Y11480000I-20J240000D01*
G01*
X-46660000Y11840000D02*
G75*
G02*
X-46900000Y12080000I0J240000D01*
G01*
X-46401980Y12800000D02*
G75*
G03*
X-46641980Y13040020I-240020J0D01*
G01*
X-46660000Y14240000D02*
G75*
G02*
X-46900000Y14480000I0J240000D01*
G01*
X-46401980Y17600000D02*
G75*
G03*
X-46641980Y17840020I-240020J0D01*
G01*
X-46641980Y14840000D02*
G75*
G03*
X-46402000Y15080000I-20J240000D01*
G01*
X-46401980Y11600000D02*
G75*
G03*
X-46641980Y11840020I-240020J0D01*
G01*
X-46660000Y15440000D02*
G75*
G02*
X-46900000Y15680000I0J240000D01*
G01*
X-46641980Y12440000D02*
G75*
G03*
X-46402000Y12680000I-20J240000D01*
G01*
X-46900000Y14600000D02*
G75*
G02*
X-46660000Y14840000I240000J0D01*
G01*
G04 #@! TO.N,/CON.DP1-*
X-47300000Y21800000D02*
X-47300000Y24000000D01*
X-47300000Y24000000D02*
X-47300000Y25646280D01*
X-47715152Y16215152D02*
X-47715152Y16400000D01*
X-47300000Y8600000D02*
X-47300000Y11000000D01*
X-47300000Y15615150D02*
X-47300000Y15800000D01*
X-47715152Y17415152D02*
X-47715152Y17600000D01*
X-47300000Y14415152D02*
X-47300000Y14600000D01*
X-48300000Y27200000D02*
X-48300000Y27850000D01*
X-47540125Y21440000D02*
X-47540000Y21440000D01*
X-47780146Y19880000D02*
X-47780146Y20000000D01*
X-47300000Y25646280D02*
X-48100000Y26446280D01*
X-47715150Y15015150D02*
X-47715150Y15200000D01*
X-47715150Y12615150D02*
X-47715150Y12800000D01*
X-47300000Y12015150D02*
X-47300000Y12200000D01*
X-47540000Y19640000D02*
X-47540146Y19640000D01*
X-48100000Y27000000D02*
X-48300000Y27200000D01*
X-47780125Y21080000D02*
X-47780125Y21200000D01*
X-47300000Y20480000D02*
X-47300000Y20600000D01*
X-48300000Y7600000D02*
X-47300000Y8600000D01*
X-47540146Y19040000D02*
X-47540000Y19040000D01*
X-47540146Y20240000D02*
X-47540000Y20240000D01*
X-47540000Y20840000D02*
X-47540125Y20840000D01*
X-48100000Y26446280D02*
X-48100000Y27000000D01*
X-47300000Y18015152D02*
X-47300000Y18200000D01*
X-47300000Y16815152D02*
X-47300000Y17000000D01*
X-47540000Y18440000D02*
X-47540146Y18440000D01*
X-47715152Y13815152D02*
X-47715152Y14000000D01*
X-47715150Y11415150D02*
X-47715150Y11600000D01*
X-47300000Y13215150D02*
X-47300000Y13400000D01*
X-47300000Y21680000D02*
X-47300000Y21800000D01*
X-47300000Y19280000D02*
X-47300000Y19400000D01*
X-47780146Y18680000D02*
X-47780146Y18800000D01*
X-47300000Y19400000D02*
G75*
G03*
X-47540000Y19640000I-240000J0D01*
G01*
X-47507576Y16007576D02*
G75*
G02*
X-47715224Y16215152I-24J207624D01*
G01*
X-47300000Y14600000D02*
G75*
G03*
X-47507575Y14807600I-207600J0D01*
G01*
X-47300000Y11000000D02*
G75*
G03*
X-47507575Y11207600I-207600J0D01*
G01*
X-47715152Y14000000D02*
G75*
G02*
X-47507576Y14207552I207552J0D01*
G01*
X-47540146Y19640000D02*
G75*
G02*
X-47780100Y19880000I46J240000D01*
G01*
X-47507575Y11807575D02*
G75*
G03*
X-47300075Y12015150I-25J207525D01*
G01*
X-47540000Y20240000D02*
G75*
G03*
X-47300000Y20480000I0J240000D01*
G01*
X-47780125Y21200000D02*
G75*
G02*
X-47540125Y21440025I240025J0D01*
G01*
X-47507576Y16607576D02*
G75*
G03*
X-47299976Y16815152I-24J207624D01*
G01*
X-47507576Y17207576D02*
G75*
G02*
X-47715224Y17415152I-24J207624D01*
G01*
X-47540146Y18440000D02*
G75*
G02*
X-47780100Y18680000I46J240000D01*
G01*
X-47507575Y12407575D02*
G75*
G02*
X-47715125Y12615150I-25J207525D01*
G01*
X-47540000Y19040000D02*
G75*
G03*
X-47300000Y19280000I0J240000D01*
G01*
X-47507575Y15407575D02*
G75*
G03*
X-47300075Y15615150I-25J207525D01*
G01*
X-47507575Y11207575D02*
G75*
G02*
X-47715125Y11415150I-25J207525D01*
G01*
X-47507575Y13007575D02*
G75*
G03*
X-47300075Y13215150I-25J207525D01*
G01*
X-47507576Y17807576D02*
G75*
G03*
X-47299976Y18015152I-24J207624D01*
G01*
X-47300000Y18200000D02*
G75*
G03*
X-47540000Y18440000I-240000J0D01*
G01*
X-47780146Y20000000D02*
G75*
G02*
X-47540146Y20240046I240046J0D01*
G01*
X-47507576Y14207576D02*
G75*
G03*
X-47299976Y14415152I-24J207624D01*
G01*
X-47540000Y21440000D02*
G75*
G03*
X-47300000Y21680000I0J240000D01*
G01*
X-47300000Y12200000D02*
G75*
G03*
X-47507575Y12407600I-207600J0D01*
G01*
X-47715150Y15200000D02*
G75*
G02*
X-47507575Y15407550I207550J0D01*
G01*
X-47715150Y12800000D02*
G75*
G02*
X-47507575Y13007550I207550J0D01*
G01*
X-47715152Y16400000D02*
G75*
G02*
X-47507576Y16607552I207552J0D01*
G01*
X-47507575Y14807575D02*
G75*
G02*
X-47715125Y15015150I-25J207525D01*
G01*
X-47300000Y15800000D02*
G75*
G03*
X-47507576Y16007600I-207600J0D01*
G01*
X-47300000Y17000000D02*
G75*
G03*
X-47507576Y17207600I-207600J0D01*
G01*
X-47715150Y11600000D02*
G75*
G02*
X-47507575Y11807550I207550J0D01*
G01*
X-47507576Y13607576D02*
G75*
G02*
X-47715224Y13815152I-24J207624D01*
G01*
X-47780146Y18800000D02*
G75*
G02*
X-47540146Y19040046I240046J0D01*
G01*
X-47300000Y20600000D02*
G75*
G03*
X-47540000Y20840000I-240000J0D01*
G01*
X-47715152Y17600000D02*
G75*
G02*
X-47507576Y17807552I207552J0D01*
G01*
X-47540125Y20840000D02*
G75*
G02*
X-47780100Y21080000I25J240000D01*
G01*
X-47300000Y13400000D02*
G75*
G03*
X-47507576Y13607600I-207600J0D01*
G01*
G04 #@! TO.N,/CON.DB5-*
X-42882348Y12582348D02*
X-42882348Y12800000D01*
X-42740000Y19640000D02*
X-42749948Y19640000D01*
X-42500000Y14382396D02*
X-42500000Y14600000D01*
X-42500000Y11982348D02*
X-42500000Y12200000D01*
X-42500000Y19280000D02*
X-42500000Y19400000D01*
X-42882348Y11382348D02*
X-42882348Y11600000D01*
X-42500000Y9000000D02*
X-42500000Y11000000D01*
X-42500000Y25650000D02*
X-43300000Y26450000D01*
X-42882396Y17382396D02*
X-42882396Y17600000D01*
X-42989945Y18680000D02*
X-42989945Y18800000D01*
X-42740000Y20840000D02*
X-42749956Y20840000D01*
X-42500000Y13182348D02*
X-42500000Y13400000D01*
X-42989956Y21080000D02*
X-42989956Y21200000D01*
X-42882396Y16182396D02*
X-42882396Y16400000D01*
X-43500000Y27200000D02*
X-43500000Y27850000D01*
X-42500000Y16782396D02*
X-42500000Y17000000D01*
X-41100000Y7600000D02*
X-42500000Y9000000D01*
X-42500000Y20480000D02*
X-42500000Y20600000D01*
X-42882396Y14982396D02*
X-42882396Y15200000D01*
X-42989948Y19880000D02*
X-42989948Y20000000D01*
X-42500000Y24000000D02*
X-42500000Y25650000D01*
X-42749956Y21440000D02*
X-42740000Y21440000D01*
X-42740000Y18440000D02*
X-42749945Y18440000D01*
X-42749948Y20240000D02*
X-42740000Y20240000D01*
X-42500000Y15582396D02*
X-42500000Y15800000D01*
X-42500000Y17982396D02*
X-42500000Y18200000D01*
X-42749945Y19040000D02*
X-42740000Y19040000D01*
X-43300000Y27000000D02*
X-43500000Y27200000D01*
X-43300000Y26450000D02*
X-43300000Y27000000D01*
X-42500000Y21800000D02*
X-42500000Y24000000D01*
X-42882396Y13782396D02*
X-42882396Y14000000D01*
X-42500000Y21680000D02*
X-42500000Y21800000D01*
X-42740000Y20240000D02*
G75*
G03*
X-42500000Y20480000I0J240000D01*
G01*
X-42500000Y18200000D02*
G75*
G03*
X-42740000Y18440000I-240000J0D01*
G01*
X-42691198Y16591198D02*
G75*
G03*
X-42499998Y16782396I-2J191202D01*
G01*
X-42691174Y11791174D02*
G75*
G03*
X-42500074Y11982348I-26J191126D01*
G01*
X-42882396Y15200000D02*
G75*
G02*
X-42691198Y15391196I191196J0D01*
G01*
X-42882396Y14000000D02*
G75*
G02*
X-42691198Y14191196I191196J0D01*
G01*
X-42882348Y12800000D02*
G75*
G02*
X-42691174Y12991148I191148J0D01*
G01*
X-42989956Y21200000D02*
G75*
G02*
X-42749956Y21439956I239956J0D01*
G01*
X-42740000Y21440000D02*
G75*
G03*
X-42500000Y21680000I0J240000D01*
G01*
X-42500000Y14600000D02*
G75*
G03*
X-42691198Y14791200I-191200J0D01*
G01*
X-42500000Y13400000D02*
G75*
G03*
X-42691198Y13591200I-191200J0D01*
G01*
X-42749945Y18440000D02*
G75*
G02*
X-42989900Y18680000I45J240000D01*
G01*
X-42691198Y17191198D02*
G75*
G02*
X-42882402Y17382396I-2J191202D01*
G01*
X-42749956Y20840000D02*
G75*
G02*
X-42990000Y21080000I-44J240000D01*
G01*
X-42740000Y19040000D02*
G75*
G03*
X-42500000Y19280000I0J240000D01*
G01*
X-42691198Y15391198D02*
G75*
G03*
X-42499998Y15582396I-2J191202D01*
G01*
X-42882348Y11600000D02*
G75*
G02*
X-42691174Y11791148I191148J0D01*
G01*
X-42500000Y20600000D02*
G75*
G03*
X-42740000Y20840000I-240000J0D01*
G01*
X-42500000Y11000000D02*
G75*
G03*
X-42691174Y11191200I-191200J0D01*
G01*
X-42500000Y19400000D02*
G75*
G03*
X-42740000Y19640000I-240000J0D01*
G01*
X-42989948Y20000000D02*
G75*
G02*
X-42749948Y20240048I240048J0D01*
G01*
X-42691198Y14791198D02*
G75*
G02*
X-42882402Y14982396I-2J191202D01*
G01*
X-42882396Y16400000D02*
G75*
G02*
X-42691198Y16591196I191196J0D01*
G01*
X-42500000Y15800000D02*
G75*
G03*
X-42691198Y15991200I-191200J0D01*
G01*
X-42882396Y17600000D02*
G75*
G02*
X-42691198Y17791196I191196J0D01*
G01*
X-42691198Y13591198D02*
G75*
G02*
X-42882402Y13782396I-2J191202D01*
G01*
X-42749948Y19640000D02*
G75*
G02*
X-42989900Y19880000I48J240000D01*
G01*
X-42691174Y12991174D02*
G75*
G03*
X-42500074Y13182348I-26J191126D01*
G01*
X-42691198Y17791198D02*
G75*
G03*
X-42499998Y17982396I-2J191202D01*
G01*
X-42691198Y14191198D02*
G75*
G03*
X-42499998Y14382396I-2J191202D01*
G01*
X-42989945Y18800000D02*
G75*
G02*
X-42749945Y19040045I240045J0D01*
G01*
X-42691198Y15991198D02*
G75*
G02*
X-42882402Y16182396I-2J191202D01*
G01*
X-42500000Y12200000D02*
G75*
G03*
X-42691174Y12391200I-191200J0D01*
G01*
X-42691174Y11191174D02*
G75*
G02*
X-42882326Y11382348I-26J191126D01*
G01*
X-42500000Y17000000D02*
G75*
G03*
X-42691198Y17191200I-191200J0D01*
G01*
X-42691174Y12391174D02*
G75*
G02*
X-42882326Y12582348I-26J191126D01*
G01*
G04 #@! TO.N,/CON.REQ-*
X-28100000Y14967248D02*
X-28100000Y15200000D01*
X-28100000Y19880000D02*
X-28100000Y20000000D01*
X-28341317Y19640000D02*
X-28340000Y19640000D01*
X-28340000Y19040000D02*
X-28341317Y19040000D01*
X-28900000Y26475000D02*
X-28900000Y27000000D01*
X-29100000Y27200000D02*
X-29100000Y27850000D01*
X-28100000Y17367248D02*
X-28100000Y17600000D01*
X-28100000Y21080000D02*
X-28100000Y21200000D01*
X-28100000Y22280000D02*
X-28100000Y22400000D01*
X-28340000Y20240000D02*
X-28341296Y20240000D01*
X-28900000Y27000000D02*
X-29100000Y27200000D01*
X-28100000Y24000000D02*
X-28100000Y25675000D01*
X-28581296Y20480000D02*
X-28581296Y20600000D01*
X-28467248Y14367248D02*
X-28467248Y14600000D01*
X-28341296Y20840000D02*
X-28340000Y20840000D01*
X-28100000Y18567248D02*
X-28100000Y18800000D01*
X-28100000Y22400000D02*
X-28100000Y24000000D01*
X-28581296Y21680000D02*
X-28581296Y21800000D01*
X-28100000Y25675000D02*
X-28900000Y26475000D01*
X-28467248Y15567248D02*
X-28467248Y15800000D01*
X-28340000Y21440000D02*
X-28341296Y21440000D01*
X-28341296Y22040000D02*
X-28340000Y22040000D01*
X-28467248Y17967248D02*
X-28467248Y18200000D01*
X-28467248Y16767248D02*
X-28467248Y17000000D01*
X-24300000Y7600000D02*
X-28100000Y11400000D01*
X-28100000Y11400000D02*
X-28100000Y14000000D01*
X-28581317Y19280000D02*
X-28581317Y19400000D01*
X-28100000Y16167248D02*
X-28100000Y16400000D01*
X-28283624Y14783624D02*
G75*
G03*
X-28100024Y14967248I24J183576D01*
G01*
X-28581296Y20600000D02*
G75*
G02*
X-28341296Y20839996I239996J0D01*
G01*
X-28340000Y19640000D02*
G75*
G03*
X-28100000Y19880000I0J240000D01*
G01*
X-28100000Y17600000D02*
G75*
G03*
X-28283624Y17783600I-183600J0D01*
G01*
X-28100000Y16400000D02*
G75*
G03*
X-28283624Y16583600I-183600J0D01*
G01*
X-28467248Y14600000D02*
G75*
G02*
X-28283624Y14783648I183648J0D01*
G01*
X-28283624Y14183624D02*
G75*
G02*
X-28467176Y14367248I24J183576D01*
G01*
X-28467248Y17000000D02*
G75*
G02*
X-28283624Y17183648I183648J0D01*
G01*
X-28283624Y15983624D02*
G75*
G03*
X-28100024Y16167248I24J183576D01*
G01*
X-28100000Y20000000D02*
G75*
G03*
X-28340000Y20240000I-240000J0D01*
G01*
X-28581317Y19400000D02*
G75*
G02*
X-28341317Y19640017I240017J0D01*
G01*
X-28100000Y15200000D02*
G75*
G03*
X-28283624Y15383600I-183600J0D01*
G01*
X-28283624Y18383624D02*
G75*
G03*
X-28100024Y18567248I24J183576D01*
G01*
X-28100000Y21200000D02*
G75*
G03*
X-28340000Y21440000I-240000J0D01*
G01*
X-28340000Y20840000D02*
G75*
G03*
X-28100000Y21080000I0J240000D01*
G01*
X-28283624Y15383624D02*
G75*
G02*
X-28467176Y15567248I24J183576D01*
G01*
X-28341296Y20240000D02*
G75*
G02*
X-28581300Y20480000I-4J240000D01*
G01*
X-28283624Y17783624D02*
G75*
G02*
X-28467176Y17967248I24J183576D01*
G01*
X-28100000Y18800000D02*
G75*
G03*
X-28340000Y19040000I-240000J0D01*
G01*
X-28341296Y21440000D02*
G75*
G02*
X-28581300Y21680000I-4J240000D01*
G01*
X-28283624Y16583624D02*
G75*
G02*
X-28467176Y16767248I24J183576D01*
G01*
X-28581296Y21800000D02*
G75*
G02*
X-28341296Y22039996I239996J0D01*
G01*
X-28340000Y22040000D02*
G75*
G03*
X-28100000Y22280000I0J240000D01*
G01*
X-28341317Y19040000D02*
G75*
G02*
X-28581300Y19280000I17J240000D01*
G01*
X-28467248Y15800000D02*
G75*
G02*
X-28283624Y15983648I183648J0D01*
G01*
X-28467248Y18200000D02*
G75*
G02*
X-28283624Y18383648I183648J0D01*
G01*
X-28283624Y17183624D02*
G75*
G03*
X-28100024Y17367248I24J183576D01*
G01*
X-28100000Y14000000D02*
G75*
G03*
X-28283624Y14183600I-183600J0D01*
G01*
G04 #@! TO.N,/CON.DB1-*
X-46700000Y27200000D02*
X-46700000Y27850000D01*
X-46500000Y27000000D02*
X-46700000Y27200000D01*
X-46076206Y16176206D02*
X-46076206Y16400000D01*
X-45700000Y17976206D02*
X-45700000Y18200000D01*
X-46500000Y26450000D02*
X-46500000Y27000000D01*
X-45700000Y14376206D02*
X-45700000Y14600000D01*
X-46076148Y11376148D02*
X-46076148Y11600000D01*
X-46076206Y17376206D02*
X-46076206Y17600000D01*
X-45700000Y15576206D02*
X-45700000Y15800000D01*
X-45700000Y25650000D02*
X-46500000Y26450000D01*
X-46076206Y14976206D02*
X-46076206Y15200000D01*
X-45700000Y11976148D02*
X-45700000Y12200000D01*
X-45700000Y20480000D02*
X-45700000Y20600000D01*
X-45700000Y19280000D02*
X-45700000Y19400000D01*
X-45700000Y13176148D02*
X-45700000Y13400000D01*
X-45946403Y21440000D02*
X-45940000Y21440000D01*
X-45940000Y19640000D02*
X-45946403Y19640000D01*
X-45940000Y22040000D02*
X-45946403Y22040000D01*
X-45946403Y22640000D02*
X-45940000Y22640000D01*
X-45940000Y18440000D02*
X-45946403Y18440000D01*
X-45700000Y16776206D02*
X-45700000Y17000000D01*
X-45700000Y24000000D02*
X-45700000Y25650000D01*
X-45700000Y7800000D02*
X-45700000Y11000000D01*
X-45700000Y23000000D02*
X-45700000Y24000000D01*
X-46186403Y19880000D02*
X-46186403Y20000000D01*
X-45946403Y20240000D02*
X-45940000Y20240000D01*
X-45946403Y19040000D02*
X-45940000Y19040000D01*
X-46076206Y13776206D02*
X-46076206Y14000000D01*
X-45940000Y20840000D02*
X-45946403Y20840000D01*
X-46186403Y21080000D02*
X-46186403Y21200000D01*
X-46186403Y22280000D02*
X-46186403Y22400000D01*
X-45900000Y7600000D02*
X-45700000Y7800000D01*
X-45700000Y22880000D02*
X-45700000Y23000000D01*
X-46076148Y12576148D02*
X-46076148Y12800000D01*
X-45700000Y21680000D02*
X-45700000Y21800000D01*
X-46186403Y18680000D02*
X-46186403Y18800000D01*
X-45888103Y16588103D02*
G75*
G03*
X-45700003Y16776206I3J188097D01*
G01*
X-45940000Y20240000D02*
G75*
G03*
X-45700000Y20480000I0J240000D01*
G01*
X-45940000Y21440000D02*
G75*
G03*
X-45700000Y21680000I0J240000D01*
G01*
X-46186403Y21200000D02*
G75*
G02*
X-45946403Y21440003I240003J0D01*
G01*
X-45946403Y20840000D02*
G75*
G02*
X-46186400Y21080000I3J240000D01*
G01*
X-45946403Y22040000D02*
G75*
G02*
X-46186400Y22280000I3J240000D01*
G01*
X-45888103Y17788103D02*
G75*
G03*
X-45700003Y17976206I3J188097D01*
G01*
X-45888074Y11188074D02*
G75*
G02*
X-46076126Y11376148I-26J188026D01*
G01*
X-45888074Y12388074D02*
G75*
G02*
X-46076126Y12576148I-26J188026D01*
G01*
X-45888103Y13588103D02*
G75*
G02*
X-46076197Y13776206I3J188097D01*
G01*
X-45940000Y19040000D02*
G75*
G03*
X-45700000Y19280000I0J240000D01*
G01*
X-45946403Y18440000D02*
G75*
G02*
X-46186400Y18680000I3J240000D01*
G01*
X-45888074Y11788074D02*
G75*
G03*
X-45700074Y11976148I-26J188026D01*
G01*
X-45888074Y12988074D02*
G75*
G03*
X-45700074Y13176148I-26J188026D01*
G01*
X-46186403Y22400000D02*
G75*
G02*
X-45946403Y22640003I240003J0D01*
G01*
X-45700000Y12200000D02*
G75*
G03*
X-45888074Y12388100I-188100J0D01*
G01*
X-45700000Y20600000D02*
G75*
G03*
X-45940000Y20840000I-240000J0D01*
G01*
X-45700000Y21800000D02*
G75*
G03*
X-45940000Y22040000I-240000J0D01*
G01*
X-45946403Y19640000D02*
G75*
G02*
X-46186400Y19880000I3J240000D01*
G01*
X-46076206Y14000000D02*
G75*
G02*
X-45888103Y14188106I188106J0D01*
G01*
X-45888103Y14188103D02*
G75*
G03*
X-45700003Y14376206I3J188097D01*
G01*
X-45700000Y19400000D02*
G75*
G03*
X-45940000Y19640000I-240000J0D01*
G01*
X-46076148Y11600000D02*
G75*
G02*
X-45888074Y11788048I188048J0D01*
G01*
X-46076148Y12800000D02*
G75*
G02*
X-45888074Y12988048I188048J0D01*
G01*
X-45888103Y15388103D02*
G75*
G03*
X-45700003Y15576206I3J188097D01*
G01*
X-46186403Y20000000D02*
G75*
G02*
X-45946403Y20240003I240003J0D01*
G01*
X-45700000Y11000000D02*
G75*
G03*
X-45888074Y11188100I-188100J0D01*
G01*
X-45888103Y14788103D02*
G75*
G02*
X-46076197Y14976206I3J188097D01*
G01*
X-46186403Y18800000D02*
G75*
G02*
X-45946403Y19040003I240003J0D01*
G01*
X-45700000Y14600000D02*
G75*
G03*
X-45888103Y14788100I-188100J0D01*
G01*
X-46076206Y15200000D02*
G75*
G02*
X-45888103Y15388106I188106J0D01*
G01*
X-45700000Y15800000D02*
G75*
G03*
X-45888103Y15988100I-188100J0D01*
G01*
X-45700000Y13400000D02*
G75*
G03*
X-45888103Y13588100I-188100J0D01*
G01*
X-46076206Y16400000D02*
G75*
G02*
X-45888103Y16588106I188106J0D01*
G01*
X-45888103Y15988103D02*
G75*
G02*
X-46076197Y16176206I3J188097D01*
G01*
X-45888103Y17188103D02*
G75*
G02*
X-46076197Y17376206I3J188097D01*
G01*
X-45940000Y22640000D02*
G75*
G03*
X-45700000Y22880000I0J240000D01*
G01*
X-46076206Y17600000D02*
G75*
G02*
X-45888103Y17788106I188106J0D01*
G01*
X-45700000Y17000000D02*
G75*
G03*
X-45888103Y17188100I-188100J0D01*
G01*
X-45700000Y18200000D02*
G75*
G03*
X-45940000Y18440000I-240000J0D01*
G01*
G04 #@! TO.N,/CON.DB3-*
X-45100000Y27200000D02*
X-44900000Y27000000D01*
X-44593467Y21080000D02*
X-44593467Y21200000D01*
X-44900000Y26456282D02*
X-44100000Y25656282D01*
X-44353467Y21440000D02*
X-44340000Y21440000D01*
X-44100000Y21680000D02*
X-44100000Y21800000D01*
X-44538550Y13838550D02*
X-44538550Y14000000D01*
X-44538550Y12638550D02*
X-44538550Y12800000D01*
X-44340000Y19640000D02*
X-44353488Y19640000D01*
X-44100000Y14438550D02*
X-44100000Y14600000D01*
X-43500000Y7600000D02*
X-44100000Y8200000D01*
X-44100000Y18038550D02*
X-44100000Y18200000D01*
X-44100000Y8200000D02*
X-44100000Y11000000D01*
X-44100000Y20480000D02*
X-44100000Y20600000D01*
X-44100000Y21800000D02*
X-44100000Y24000000D01*
X-44100000Y16838550D02*
X-44100000Y17000000D01*
X-44100000Y13238550D02*
X-44100000Y13400000D01*
X-44538550Y15038550D02*
X-44538550Y15200000D01*
X-44538550Y17438550D02*
X-44538550Y17600000D01*
X-44100000Y25656282D02*
X-44100000Y24000000D01*
X-44900000Y27000000D02*
X-44900000Y26456282D01*
X-44538550Y11438550D02*
X-44538550Y11600000D01*
X-44340000Y20840000D02*
X-44353467Y20840000D01*
X-44353488Y20240000D02*
X-44340000Y20240000D01*
X-44100000Y12038550D02*
X-44100000Y12200000D01*
X-44538550Y16238550D02*
X-44538550Y16400000D01*
X-45100000Y27850000D02*
X-45100000Y27200000D01*
X-44593488Y19880000D02*
X-44593488Y20000000D01*
X-44538550Y18638550D02*
X-44538550Y18800000D01*
X-44100000Y19238550D02*
X-44100000Y19400000D01*
X-44100000Y15638550D02*
X-44100000Y15800000D01*
X-44100000Y17000000D02*
G75*
G03*
X-44319275Y17219300I-219300J0D01*
G01*
X-44100000Y15800000D02*
G75*
G03*
X-44319275Y16019300I-219300J0D01*
G01*
X-44319275Y16019275D02*
G75*
G02*
X-44538525Y16238550I-25J219225D01*
G01*
X-44538550Y15200000D02*
G75*
G02*
X-44319275Y15419250I219250J0D01*
G01*
X-44319275Y14219275D02*
G75*
G03*
X-44100075Y14438550I-25J219225D01*
G01*
X-44319275Y11219275D02*
G75*
G02*
X-44538525Y11438550I-25J219225D01*
G01*
X-44538550Y11600000D02*
G75*
G02*
X-44319275Y11819250I219250J0D01*
G01*
X-44593467Y21200000D02*
G75*
G02*
X-44353467Y21439967I239967J0D01*
G01*
X-44100000Y14600000D02*
G75*
G03*
X-44319275Y14819300I-219300J0D01*
G01*
X-44353467Y20840000D02*
G75*
G02*
X-44593500Y21080000I-33J240000D01*
G01*
X-44319275Y17819275D02*
G75*
G03*
X-44100075Y18038550I-25J219225D01*
G01*
X-44100000Y18200000D02*
G75*
G03*
X-44319275Y18419300I-219300J0D01*
G01*
X-44319275Y14819275D02*
G75*
G02*
X-44538525Y15038550I-25J219225D01*
G01*
X-44538550Y18800000D02*
G75*
G02*
X-44319275Y19019250I219250J0D01*
G01*
X-44593488Y20000000D02*
G75*
G02*
X-44353488Y20239988I239988J0D01*
G01*
X-44319275Y12419275D02*
G75*
G02*
X-44538525Y12638550I-25J219225D01*
G01*
X-44100000Y19400000D02*
G75*
G03*
X-44340000Y19640000I-240000J0D01*
G01*
X-44353488Y19640000D02*
G75*
G02*
X-44593500Y19880000I-12J240000D01*
G01*
X-44319275Y17219275D02*
G75*
G02*
X-44538525Y17438550I-25J219225D01*
G01*
X-44538550Y16400000D02*
G75*
G02*
X-44319275Y16619250I219250J0D01*
G01*
X-44319275Y19019275D02*
G75*
G03*
X-44100075Y19238550I-25J219225D01*
G01*
X-44319275Y13019275D02*
G75*
G03*
X-44100075Y13238550I-25J219225D01*
G01*
X-44340000Y20240000D02*
G75*
G03*
X-44100000Y20480000I0J240000D01*
G01*
X-44319275Y11819275D02*
G75*
G03*
X-44100075Y12038550I-25J219225D01*
G01*
X-44538550Y17600000D02*
G75*
G02*
X-44319275Y17819250I219250J0D01*
G01*
X-44100000Y11000000D02*
G75*
G03*
X-44319275Y11219300I-219300J0D01*
G01*
X-44100000Y20600000D02*
G75*
G03*
X-44340000Y20840000I-240000J0D01*
G01*
X-44319275Y18419275D02*
G75*
G02*
X-44538525Y18638550I-25J219225D01*
G01*
X-44319275Y15419275D02*
G75*
G03*
X-44100075Y15638550I-25J219225D01*
G01*
X-44538550Y12800000D02*
G75*
G02*
X-44319275Y13019250I219250J0D01*
G01*
X-44340000Y21440000D02*
G75*
G03*
X-44100000Y21680000I0J240000D01*
G01*
X-44538550Y14000000D02*
G75*
G02*
X-44319275Y14219250I219250J0D01*
G01*
X-44100000Y12200000D02*
G75*
G03*
X-44319275Y12419300I-219300J0D01*
G01*
X-44319275Y16619275D02*
G75*
G03*
X-44100075Y16838550I-25J219225D01*
G01*
X-44100000Y13400000D02*
G75*
G03*
X-44319275Y13619300I-219300J0D01*
G01*
X-44319275Y13619275D02*
G75*
G02*
X-44538525Y13838550I-25J219225D01*
G01*
G04 #@! TO.N,/CON.DB13-*
X-50900000Y26483800D02*
X-50100000Y25683800D01*
X-50100000Y17000000D02*
X-50100000Y24000000D01*
X-49849848Y16640000D02*
X-49860000Y16640000D01*
X-50700000Y29000001D02*
X-50700000Y27200000D01*
X-49609853Y13880000D02*
X-49609853Y14000000D01*
X-52300000Y7600000D02*
X-50100000Y9800000D01*
X-50100000Y9800000D02*
X-50100000Y11000000D01*
X-50100000Y16880000D02*
X-50100000Y17000000D01*
X-49849853Y15440000D02*
X-49860000Y15440000D01*
X-49609853Y15080000D02*
X-49609853Y15200000D01*
X-50700000Y27200000D02*
X-50900000Y27000000D01*
X-49609848Y16280000D02*
X-49609848Y16400000D01*
X-50100000Y15680000D02*
X-50100000Y15800000D01*
X-49860000Y16040000D02*
X-49849848Y16040000D01*
X-50100000Y25683800D02*
X-50100000Y24000000D01*
X-49860000Y14840000D02*
X-49849853Y14840000D01*
X-49860000Y13640000D02*
X-49849853Y13640000D01*
X-49609853Y11480000D02*
X-49609853Y11600000D01*
X-49849853Y13040000D02*
X-49860000Y13040000D01*
X-50100000Y12080000D02*
X-50100000Y12200000D01*
X-49609853Y12680000D02*
X-49609853Y12800000D01*
X-50900000Y27000000D02*
X-50900000Y26483800D01*
X-50100000Y14480000D02*
X-50100000Y14600000D01*
X-50100000Y13280000D02*
X-50100000Y13400000D01*
X-49860000Y11240000D02*
X-49849853Y11240000D01*
X-49849853Y11840000D02*
X-49860000Y11840000D01*
X-49860000Y12440000D02*
X-49849853Y12440000D01*
X-49849853Y14240000D02*
X-49860000Y14240000D01*
X-49860000Y13040000D02*
G75*
G02*
X-50100000Y13280000I0J240000D01*
G01*
X-50100000Y12200000D02*
G75*
G02*
X-49860000Y12440000I240000J0D01*
G01*
X-49849853Y11240000D02*
G75*
G03*
X-49609900Y11480000I-47J240000D01*
G01*
X-49860000Y15440000D02*
G75*
G02*
X-50100000Y15680000I0J240000D01*
G01*
X-49860000Y11840000D02*
G75*
G02*
X-50100000Y12080000I0J240000D01*
G01*
X-50100000Y15800000D02*
G75*
G02*
X-49860000Y16040000I240000J0D01*
G01*
X-49609853Y11600000D02*
G75*
G03*
X-49849853Y11840047I-240047J0D01*
G01*
X-50100000Y11000000D02*
G75*
G02*
X-49860000Y11240000I240000J0D01*
G01*
X-49609848Y16400000D02*
G75*
G03*
X-49849848Y16639952I-239952J0D01*
G01*
X-50100000Y14600000D02*
G75*
G02*
X-49860000Y14840000I240000J0D01*
G01*
X-49849853Y14840000D02*
G75*
G03*
X-49609900Y15080000I-47J240000D01*
G01*
X-49860000Y16640000D02*
G75*
G02*
X-50100000Y16880000I0J240000D01*
G01*
X-49849853Y13640000D02*
G75*
G03*
X-49609900Y13880000I-47J240000D01*
G01*
X-49860000Y14240000D02*
G75*
G02*
X-50100000Y14480000I0J240000D01*
G01*
X-49609853Y14000000D02*
G75*
G03*
X-49849853Y14240047I-240047J0D01*
G01*
X-49609853Y12800000D02*
G75*
G03*
X-49849853Y13040047I-240047J0D01*
G01*
X-49609853Y15200000D02*
G75*
G03*
X-49849853Y15440047I-240047J0D01*
G01*
X-49849848Y16040000D02*
G75*
G03*
X-49609800Y16280000I48J240000D01*
G01*
X-49849853Y12440000D02*
G75*
G03*
X-49609900Y12680000I-47J240000D01*
G01*
X-50100000Y13400000D02*
G75*
G02*
X-49860000Y13640000I240000J0D01*
G01*
G04 #@! TO.N,/CON.DB15-*
X-48500000Y18200000D02*
X-48500000Y24000000D01*
X-48036852Y12663148D02*
X-48036852Y12800000D01*
X-48500000Y12063232D02*
X-48500000Y12200000D01*
X-48500000Y14463232D02*
X-48500000Y14600000D01*
X-48036768Y13863232D02*
X-48036768Y14000000D01*
X-48036768Y16263232D02*
X-48036768Y16400000D01*
X-48500000Y25683800D02*
X-48500000Y24000000D01*
X-48036768Y17463232D02*
X-48036768Y17600000D01*
X-49100000Y27200000D02*
X-49300000Y27000000D01*
X-48036768Y15063232D02*
X-48036768Y15200000D01*
X-49100000Y29000000D02*
X-49100000Y27200000D01*
X-49300000Y26483800D02*
X-48500000Y25683800D01*
X-48500000Y13263148D02*
X-48500000Y13400000D01*
X-48500000Y15663232D02*
X-48500000Y15800000D01*
X-49300000Y27000000D02*
X-49300000Y26483800D01*
X-48500000Y9000000D02*
X-48500000Y11000000D01*
X-48500000Y18063232D02*
X-48500000Y18200000D01*
X-48036768Y11463232D02*
X-48036768Y11600000D01*
X-48500000Y16863232D02*
X-48500000Y17000000D01*
X-49900000Y7600000D02*
X-48500000Y9000000D01*
X-48036768Y16400000D02*
G75*
G03*
X-48268384Y16631632I-231632J0D01*
G01*
X-48268384Y13631616D02*
G75*
G03*
X-48036816Y13863232I-16J231584D01*
G01*
X-48036852Y12800000D02*
G75*
G03*
X-48268426Y13031548I-231548J0D01*
G01*
X-48500000Y12200000D02*
G75*
G02*
X-48268426Y12431600I231600J0D01*
G01*
X-48500000Y14600000D02*
G75*
G02*
X-48268384Y14831600I231600J0D01*
G01*
X-48268384Y15431616D02*
G75*
G02*
X-48499984Y15663232I-16J231584D01*
G01*
X-48500000Y13400000D02*
G75*
G02*
X-48268384Y13631600I231600J0D01*
G01*
X-48268384Y14831616D02*
G75*
G03*
X-48036816Y15063232I-16J231584D01*
G01*
X-48268384Y17231616D02*
G75*
G03*
X-48036816Y17463232I-16J231584D01*
G01*
X-48268426Y12431574D02*
G75*
G03*
X-48036874Y12663148I26J231526D01*
G01*
X-48268384Y11831616D02*
G75*
G02*
X-48499984Y12063232I-16J231584D01*
G01*
X-48268384Y16031616D02*
G75*
G03*
X-48036816Y16263232I-16J231584D01*
G01*
X-48268384Y17831616D02*
G75*
G02*
X-48499984Y18063232I-16J231584D01*
G01*
X-48036768Y14000000D02*
G75*
G03*
X-48268384Y14231632I-231632J0D01*
G01*
X-48268384Y14231616D02*
G75*
G02*
X-48499984Y14463232I-16J231584D01*
G01*
X-48268426Y13031574D02*
G75*
G02*
X-48499926Y13263148I26J231526D01*
G01*
X-48500000Y11000000D02*
G75*
G02*
X-48268384Y11231600I231600J0D01*
G01*
X-48036768Y17600000D02*
G75*
G03*
X-48268384Y17831632I-231632J0D01*
G01*
X-48268384Y11231616D02*
G75*
G03*
X-48036816Y11463232I-16J231584D01*
G01*
X-48500000Y15800000D02*
G75*
G02*
X-48268384Y16031600I231600J0D01*
G01*
X-48036768Y11600000D02*
G75*
G03*
X-48268384Y11831632I-231632J0D01*
G01*
X-48036768Y15200000D02*
G75*
G03*
X-48268384Y15431632I-231632J0D01*
G01*
X-48268384Y16631616D02*
G75*
G02*
X-48499984Y16863232I-16J231584D01*
G01*
X-48500000Y17000000D02*
G75*
G02*
X-48268384Y17231600I231600J0D01*
G01*
G04 #@! TO.N,/CON.DB11-*
X-24500000Y14994210D02*
X-24500000Y15200000D01*
X-18700000Y7600000D02*
X-24500000Y13400000D01*
X-25100000Y29000000D02*
X-25100000Y27200000D01*
X-24105790Y16794210D02*
X-24105790Y17000000D01*
X-24105790Y14394210D02*
X-24105790Y14600000D01*
X-24500000Y17600000D02*
X-24500000Y24000000D01*
X-24500000Y13400000D02*
X-24500000Y14000000D01*
X-24105790Y15594210D02*
X-24105790Y15800000D01*
X-24500000Y17394210D02*
X-24500000Y17600000D01*
X-25300000Y27000000D02*
X-25300000Y26493718D01*
X-24500000Y25693718D02*
X-24500000Y24000000D01*
X-24500000Y16194210D02*
X-24500000Y16400000D01*
X-25300000Y26493718D02*
X-24500000Y25693718D01*
X-25100000Y27200000D02*
X-25300000Y27000000D01*
X-24302895Y16597105D02*
G75*
G03*
X-24105805Y16794210I-5J197095D01*
G01*
X-24500000Y15200000D02*
G75*
G02*
X-24302895Y15397100I197100J0D01*
G01*
X-24500000Y16400000D02*
G75*
G02*
X-24302895Y16597100I197100J0D01*
G01*
X-24302895Y15997105D02*
G75*
G02*
X-24499995Y16194210I-5J197095D01*
G01*
X-24105790Y17000000D02*
G75*
G03*
X-24302895Y17197110I-197110J0D01*
G01*
X-24302895Y15397105D02*
G75*
G03*
X-24105805Y15594210I-5J197095D01*
G01*
X-24500000Y14000000D02*
G75*
G02*
X-24302895Y14197100I197100J0D01*
G01*
X-24302895Y17197105D02*
G75*
G02*
X-24499995Y17394210I-5J197095D01*
G01*
X-24302895Y14197105D02*
G75*
G03*
X-24105805Y14394210I-5J197095D01*
G01*
X-24105790Y15800000D02*
G75*
G03*
X-24302895Y15997110I-197110J0D01*
G01*
X-24105790Y14600000D02*
G75*
G03*
X-24302895Y14797110I-197110J0D01*
G01*
X-24302895Y14797105D02*
G75*
G02*
X-24499995Y14994210I-5J197095D01*
G01*
G04 #@! TO.N,/CON.ACK-*
X-33300000Y26493718D02*
X-32500000Y25693718D01*
X-32071800Y18228200D02*
X-32071800Y18400000D01*
X-32500000Y25693718D02*
X-32500000Y24000000D01*
X-32252470Y13840000D02*
X-32260000Y13840000D01*
X-32071850Y14628150D02*
X-32071850Y14800000D01*
X-32260000Y13240000D02*
X-32252470Y13240000D01*
X-32500000Y18828200D02*
X-32500000Y19000000D01*
X-32500000Y9400000D02*
X-32500000Y13000000D01*
X-32500000Y16428150D02*
X-32500000Y16600000D01*
X-33100000Y27200000D02*
X-33300000Y27000000D01*
X-33300000Y27000000D02*
X-33300000Y26493718D01*
X-33100000Y29000000D02*
X-33100000Y27200000D01*
X-32500000Y20200000D02*
X-32500000Y24000000D01*
X-32500000Y14080000D02*
X-32500000Y14200000D01*
X-32500000Y17628200D02*
X-32500000Y17800000D01*
X-32071850Y15828150D02*
X-32071850Y16000000D01*
X-30700000Y7600000D02*
X-32500000Y9400000D01*
X-32012470Y13480000D02*
X-32012470Y13600000D01*
X-32071800Y17028200D02*
X-32071800Y17200000D01*
X-32500000Y20028200D02*
X-32500000Y20200000D01*
X-32071800Y19428200D02*
X-32071800Y19600000D01*
X-32500000Y15228150D02*
X-32500000Y15400000D01*
X-32500000Y15400000D02*
G75*
G02*
X-32285925Y15614100I214100J0D01*
G01*
X-32500000Y19000000D02*
G75*
G02*
X-32285900Y19214100I214100J0D01*
G01*
X-32071850Y16000000D02*
G75*
G03*
X-32285925Y16214050I-214050J0D01*
G01*
X-32285925Y15014075D02*
G75*
G02*
X-32499925Y15228150I25J214025D01*
G01*
X-32285900Y19814100D02*
G75*
G02*
X-32500000Y20028200I0J214100D01*
G01*
X-32500000Y14200000D02*
G75*
G02*
X-32285925Y14414100I214100J0D01*
G01*
X-32071800Y18400000D02*
G75*
G03*
X-32285900Y18614100I-214100J0D01*
G01*
X-32012470Y13600000D02*
G75*
G03*
X-32252470Y13840030I-240030J0D01*
G01*
X-32285900Y17414100D02*
G75*
G02*
X-32500000Y17628200I0J214100D01*
G01*
X-32285925Y15614075D02*
G75*
G03*
X-32071875Y15828150I25J214025D01*
G01*
X-32071800Y19600000D02*
G75*
G03*
X-32285900Y19814100I-214100J0D01*
G01*
X-32500000Y13000000D02*
G75*
G02*
X-32260000Y13240000I240000J0D01*
G01*
X-32285900Y18014100D02*
G75*
G03*
X-32071800Y18228200I0J214100D01*
G01*
X-32500000Y16600000D02*
G75*
G02*
X-32285900Y16814100I214100J0D01*
G01*
X-32285900Y16814100D02*
G75*
G03*
X-32071800Y17028200I0J214100D01*
G01*
X-32260000Y13840000D02*
G75*
G02*
X-32500000Y14080000I0J240000D01*
G01*
X-32071850Y14800000D02*
G75*
G03*
X-32285925Y15014050I-214050J0D01*
G01*
X-32285900Y19214100D02*
G75*
G03*
X-32071800Y19428200I0J214100D01*
G01*
X-32252470Y13240000D02*
G75*
G03*
X-32012500Y13480000I-30J240000D01*
G01*
X-32285925Y14414075D02*
G75*
G03*
X-32071875Y14628150I25J214025D01*
G01*
X-32285925Y16214075D02*
G75*
G02*
X-32499925Y16428150I25J214025D01*
G01*
X-32285900Y18614100D02*
G75*
G02*
X-32500000Y18828200I0J214100D01*
G01*
X-32071800Y17200000D02*
G75*
G03*
X-32285900Y17414100I-214100J0D01*
G01*
X-32500000Y17800000D02*
G75*
G02*
X-32285900Y18014100I214100J0D01*
G01*
G04 #@! TO.N,/CON.I{slash}O-*
X-27454492Y18440000D02*
X-27460000Y18440000D01*
X-28300000Y29000001D02*
X-28300000Y27200000D01*
X-27460000Y17840000D02*
X-27454492Y17840000D01*
X-27214492Y18080000D02*
X-27214492Y18200000D01*
X-27700000Y11800000D02*
X-27700000Y14000000D01*
X-27700000Y18680000D02*
X-27700000Y18800000D01*
X-27700000Y16224548D02*
X-27700000Y16400000D01*
X-27700000Y25693718D02*
X-27700000Y23900000D01*
X-28500000Y27000000D02*
X-28500000Y26493718D01*
X-27700000Y18800000D02*
X-27700000Y23900000D01*
X-28300000Y27200000D02*
X-28500000Y27000000D01*
X-28500000Y26493718D02*
X-27700000Y25693718D01*
X-27275452Y15624548D02*
X-27275452Y15800000D01*
X-27275452Y14424548D02*
X-27275452Y14600000D01*
X-23500000Y7600000D02*
X-27700000Y11800000D01*
X-27275452Y16824548D02*
X-27275452Y17000000D01*
X-27700000Y17424548D02*
X-27700000Y17600000D01*
X-27700000Y15024548D02*
X-27700000Y15200000D01*
X-27275452Y15800000D02*
G75*
G03*
X-27487726Y16012248I-212248J0D01*
G01*
X-27487726Y17212274D02*
G75*
G02*
X-27699926Y17424548I26J212226D01*
G01*
X-27460000Y18440000D02*
G75*
G02*
X-27700000Y18680000I0J240000D01*
G01*
X-27275452Y14600000D02*
G75*
G03*
X-27487726Y14812248I-212248J0D01*
G01*
X-27487726Y15412274D02*
G75*
G03*
X-27275474Y15624548I26J212226D01*
G01*
X-27700000Y16400000D02*
G75*
G02*
X-27487726Y16612300I212300J0D01*
G01*
X-27700000Y15200000D02*
G75*
G02*
X-27487726Y15412300I212300J0D01*
G01*
X-27275452Y17000000D02*
G75*
G03*
X-27487726Y17212248I-212248J0D01*
G01*
X-27454492Y17840000D02*
G75*
G03*
X-27214500Y18080000I-8J240000D01*
G01*
X-27487726Y14812274D02*
G75*
G02*
X-27699926Y15024548I26J212226D01*
G01*
X-27214492Y18200000D02*
G75*
G03*
X-27454492Y18440008I-240008J0D01*
G01*
X-27700000Y14000000D02*
G75*
G02*
X-27487726Y14212300I212300J0D01*
G01*
X-27487726Y16012274D02*
G75*
G02*
X-27699926Y16224548I26J212226D01*
G01*
X-27487726Y14212274D02*
G75*
G03*
X-27275474Y14424548I26J212226D01*
G01*
X-27487726Y16612274D02*
G75*
G03*
X-27275474Y16824548I26J212226D01*
G01*
X-27700000Y17600000D02*
G75*
G02*
X-27460000Y17840000I240000J0D01*
G01*
G04 #@! TO.N,/CON.DB6-*
X-42100000Y12038990D02*
X-42100000Y12200000D01*
X-42100000Y9400000D02*
X-42100000Y11000000D01*
X-41661010Y16238990D02*
X-41661010Y16400000D01*
X-42100000Y16838990D02*
X-42100000Y17000000D01*
X-42100000Y13238990D02*
X-42100000Y13400000D01*
X-42900000Y27000000D02*
X-42900000Y26483800D01*
X-42100000Y18200000D02*
X-42100000Y24000000D01*
X-41661010Y13838990D02*
X-41661010Y14000000D01*
X-41661052Y17438948D02*
X-41661052Y17600000D01*
X-42100000Y14438990D02*
X-42100000Y14600000D01*
X-41661010Y11438990D02*
X-41661010Y11600000D01*
X-42900000Y26483800D02*
X-42100000Y25683800D01*
X-42100000Y15638990D02*
X-42100000Y15800000D01*
X-42700000Y27200000D02*
X-42900000Y27000000D01*
X-42100000Y18038948D02*
X-42100000Y18200000D01*
X-41661010Y12638990D02*
X-41661010Y12800000D01*
X-42700000Y29000000D02*
X-42700000Y27200000D01*
X-42100000Y25683800D02*
X-42100000Y24000000D01*
X-41661010Y15038990D02*
X-41661010Y15200000D01*
X-40300000Y7600000D02*
X-42100000Y9400000D01*
X-42100000Y14600000D02*
G75*
G02*
X-41880505Y14819500I219500J0D01*
G01*
X-41880505Y13019495D02*
G75*
G02*
X-42100005Y13238990I5J219505D01*
G01*
X-41661010Y14000000D02*
G75*
G03*
X-41880505Y14219490I-219490J0D01*
G01*
X-41880505Y11219495D02*
G75*
G03*
X-41660995Y11438990I5J219505D01*
G01*
X-42100000Y17000000D02*
G75*
G02*
X-41880526Y17219500I219500J0D01*
G01*
X-41661052Y17600000D02*
G75*
G03*
X-41880526Y17819448I-219448J0D01*
G01*
X-41880505Y13619495D02*
G75*
G03*
X-41660995Y13838990I5J219505D01*
G01*
X-41880505Y14819495D02*
G75*
G03*
X-41660995Y15038990I5J219505D01*
G01*
X-41880505Y12419495D02*
G75*
G03*
X-41660995Y12638990I5J219505D01*
G01*
X-41661010Y15200000D02*
G75*
G03*
X-41880505Y15419490I-219490J0D01*
G01*
X-41661010Y12800000D02*
G75*
G03*
X-41880505Y13019490I-219490J0D01*
G01*
X-41880505Y16619495D02*
G75*
G02*
X-42100005Y16838990I5J219505D01*
G01*
X-42100000Y11000000D02*
G75*
G02*
X-41880505Y11219500I219500J0D01*
G01*
X-42100000Y12200000D02*
G75*
G02*
X-41880505Y12419500I219500J0D01*
G01*
X-41880505Y11819495D02*
G75*
G02*
X-42100005Y12038990I5J219505D01*
G01*
X-41661010Y11600000D02*
G75*
G03*
X-41880505Y11819490I-219490J0D01*
G01*
X-41880505Y14219495D02*
G75*
G02*
X-42100005Y14438990I5J219505D01*
G01*
X-42100000Y15800000D02*
G75*
G02*
X-41880505Y16019500I219500J0D01*
G01*
X-41880505Y16019495D02*
G75*
G03*
X-41660995Y16238990I5J219505D01*
G01*
X-41880505Y15419495D02*
G75*
G02*
X-42100005Y15638990I5J219505D01*
G01*
X-41880526Y17219474D02*
G75*
G03*
X-41661074Y17438948I26J219426D01*
G01*
X-41661010Y16400000D02*
G75*
G03*
X-41880505Y16619490I-219490J0D01*
G01*
X-42100000Y13400000D02*
G75*
G02*
X-41880505Y13619500I219500J0D01*
G01*
X-41880526Y17819474D02*
G75*
G02*
X-42099926Y18038948I26J219426D01*
G01*
G04 #@! TO.N,/CON.DB8-*
X-26500000Y21080000D02*
X-26500000Y21200000D01*
X-26500000Y16224248D02*
X-26500000Y16400000D01*
X-26740000Y20240000D02*
X-26745317Y20240000D01*
X-21900000Y7600000D02*
X-26500000Y12200000D01*
X-26924248Y14424248D02*
X-26924248Y14600000D01*
X-26500000Y15024248D02*
X-26500000Y15200000D01*
X-26500000Y25675000D02*
X-27300000Y26475000D01*
X-26740000Y19040000D02*
X-26745296Y19040000D01*
X-27300000Y26475000D02*
X-27300000Y27000000D01*
X-26874248Y17974248D02*
X-26874248Y18200000D01*
X-26924248Y15624248D02*
X-26924248Y15800000D01*
X-26924248Y16824248D02*
X-26924248Y17000000D01*
X-26500000Y17424248D02*
X-26500000Y17600000D01*
X-26500000Y24000000D02*
X-26500000Y25675000D01*
X-26500000Y12200000D02*
X-26500000Y14000000D01*
X-26500000Y21200000D02*
X-26500000Y24000000D01*
X-27500000Y27200000D02*
X-27500000Y27850000D01*
X-26500000Y18574248D02*
X-26500000Y18800000D01*
X-26745296Y19640000D02*
X-26740000Y19640000D01*
X-26745317Y20840000D02*
X-26740000Y20840000D01*
X-26985296Y19280000D02*
X-26985296Y19400000D01*
X-27300000Y27000000D02*
X-27500000Y27200000D01*
X-26500000Y19880000D02*
X-26500000Y20000000D01*
X-26985317Y20480000D02*
X-26985317Y20600000D01*
X-26712124Y17212124D02*
G75*
G03*
X-26500024Y17424248I24J212076D01*
G01*
X-26745296Y19040000D02*
G75*
G02*
X-26985300Y19280000I-4J240000D01*
G01*
X-26687124Y18387124D02*
G75*
G03*
X-26500024Y18574248I24J187076D01*
G01*
X-26985296Y19400000D02*
G75*
G02*
X-26745296Y19639996I239996J0D01*
G01*
X-26745317Y20240000D02*
G75*
G02*
X-26985300Y20480000I17J240000D01*
G01*
X-26500000Y15200000D02*
G75*
G03*
X-26712124Y15412100I-212100J0D01*
G01*
X-26874248Y18200000D02*
G75*
G02*
X-26687124Y18387148I187148J0D01*
G01*
X-26740000Y19640000D02*
G75*
G03*
X-26500000Y19880000I0J240000D01*
G01*
X-26687124Y17787124D02*
G75*
G02*
X-26874176Y17974248I24J187076D01*
G01*
X-26500000Y20000000D02*
G75*
G03*
X-26740000Y20240000I-240000J0D01*
G01*
X-26740000Y20840000D02*
G75*
G03*
X-26500000Y21080000I0J240000D01*
G01*
X-26500000Y17600000D02*
G75*
G03*
X-26687124Y17787100I-187100J0D01*
G01*
X-26712124Y16612124D02*
G75*
G02*
X-26924176Y16824248I24J212076D01*
G01*
X-26924248Y17000000D02*
G75*
G02*
X-26712124Y17212148I212148J0D01*
G01*
X-26924248Y15800000D02*
G75*
G02*
X-26712124Y16012148I212148J0D01*
G01*
X-26712124Y14212124D02*
G75*
G02*
X-26924176Y14424248I24J212076D01*
G01*
X-26500000Y16400000D02*
G75*
G03*
X-26712124Y16612100I-212100J0D01*
G01*
X-26924248Y14600000D02*
G75*
G02*
X-26712124Y14812148I212148J0D01*
G01*
X-26500000Y14000000D02*
G75*
G03*
X-26712124Y14212100I-212100J0D01*
G01*
X-26500000Y18800000D02*
G75*
G03*
X-26740000Y19040000I-240000J0D01*
G01*
X-26712124Y16012124D02*
G75*
G03*
X-26500024Y16224248I24J212076D01*
G01*
X-26712124Y15412124D02*
G75*
G02*
X-26924176Y15624248I24J212076D01*
G01*
X-26985317Y20600000D02*
G75*
G02*
X-26745317Y20840017I240017J0D01*
G01*
X-26712124Y14812124D02*
G75*
G03*
X-26500024Y15024248I24J212076D01*
G01*
G04 #@! TO.N,/CON.MSG-*
X-30509344Y20390656D02*
X-30509344Y20600000D01*
X-30900000Y25693718D02*
X-30900000Y24000000D01*
X-30900000Y14990584D02*
X-30900000Y15200000D01*
X-31500000Y29000000D02*
X-31500000Y27200000D01*
X-30900000Y18590650D02*
X-30900000Y18800000D01*
X-30509350Y15590650D02*
X-30509350Y15800000D01*
X-30900000Y19790650D02*
X-30900000Y20000000D01*
X-30509350Y19190650D02*
X-30509350Y19400000D01*
X-30900000Y20990656D02*
X-30900000Y21200000D01*
X-30900000Y16190650D02*
X-30900000Y16400000D01*
X-30900000Y10200000D02*
X-30900000Y14000000D01*
X-30509350Y17990650D02*
X-30509350Y18200000D01*
X-30900000Y17390650D02*
X-30900000Y17600000D01*
X-31500000Y27200000D02*
X-31700000Y27000000D01*
X-31700000Y27000000D02*
X-31700000Y26493718D01*
X-28300000Y7600000D02*
X-30900000Y10200000D01*
X-31700000Y26493718D02*
X-30900000Y25693718D01*
X-30509350Y16790650D02*
X-30509350Y17000000D01*
X-30509416Y14390584D02*
X-30509416Y14600000D01*
X-30900000Y21200000D02*
X-30900000Y24000000D01*
X-30704675Y15995325D02*
G75*
G02*
X-30899975Y16190650I-25J195275D01*
G01*
X-30509350Y17000000D02*
G75*
G03*
X-30704675Y17195350I-195350J0D01*
G01*
X-30900000Y14000000D02*
G75*
G02*
X-30704708Y14195300I195300J0D01*
G01*
X-30900000Y16400000D02*
G75*
G02*
X-30704675Y16595300I195300J0D01*
G01*
X-30704675Y17195325D02*
G75*
G02*
X-30899975Y17390650I-25J195275D01*
G01*
X-30704675Y18995325D02*
G75*
G03*
X-30509425Y19190650I-25J195275D01*
G01*
X-30900000Y18800000D02*
G75*
G02*
X-30704675Y18995300I195300J0D01*
G01*
X-30704675Y17795325D02*
G75*
G03*
X-30509425Y17990650I-25J195275D01*
G01*
X-30900000Y20000000D02*
G75*
G02*
X-30704672Y20195300I195300J0D01*
G01*
X-30704708Y14795292D02*
G75*
G02*
X-30900008Y14990584I8J195308D01*
G01*
X-30900000Y17600000D02*
G75*
G02*
X-30704675Y17795300I195300J0D01*
G01*
X-30704672Y20795328D02*
G75*
G02*
X-30900072Y20990656I-28J195372D01*
G01*
X-30509350Y15800000D02*
G75*
G03*
X-30704675Y15995350I-195350J0D01*
G01*
X-30704675Y15395325D02*
G75*
G03*
X-30509425Y15590650I-25J195275D01*
G01*
X-30704708Y14195292D02*
G75*
G03*
X-30509392Y14390584I8J195308D01*
G01*
X-30704672Y20195328D02*
G75*
G03*
X-30509328Y20390656I-28J195372D01*
G01*
X-30509344Y20600000D02*
G75*
G03*
X-30704672Y20795356I-195356J0D01*
G01*
X-30704675Y19595325D02*
G75*
G02*
X-30899975Y19790650I-25J195275D01*
G01*
X-30704675Y18395325D02*
G75*
G02*
X-30899975Y18590650I-25J195275D01*
G01*
X-30509416Y14600000D02*
G75*
G03*
X-30704708Y14795284I-195284J0D01*
G01*
X-30509350Y18200000D02*
G75*
G03*
X-30704675Y18395350I-195350J0D01*
G01*
X-30900000Y15200000D02*
G75*
G02*
X-30704675Y15395300I195300J0D01*
G01*
X-30704675Y16595325D02*
G75*
G03*
X-30509425Y16790650I-25J195275D01*
G01*
X-30509350Y19400000D02*
G75*
G03*
X-30704675Y19595350I-195350J0D01*
G01*
G04 #@! TO.N,/CON.C{slash}D-*
X-29300000Y16280000D02*
X-29300000Y16400000D01*
X-28800959Y14480000D02*
X-28800959Y14600000D01*
X-29040959Y14840000D02*
X-29060000Y14840000D01*
X-25900000Y7600000D02*
X-29300000Y11000000D01*
X-29300000Y18680000D02*
X-29300000Y18800000D01*
X-29060000Y17840000D02*
X-29040948Y17840000D01*
X-29900000Y27200000D02*
X-30100000Y27000000D01*
X-29300000Y17480000D02*
X-29300000Y17600000D01*
X-29040948Y18440000D02*
X-29060000Y18440000D01*
X-29300000Y18800000D02*
X-29300000Y24000000D01*
X-29040954Y17240000D02*
X-29060000Y17240000D01*
X-29300000Y25693718D02*
X-29300000Y24000000D01*
X-29060000Y16640000D02*
X-29040954Y16640000D01*
X-29060000Y15440000D02*
X-29040959Y15440000D01*
X-29060000Y14240000D02*
X-29040959Y14240000D01*
X-30100000Y27000000D02*
X-30100000Y26493718D01*
X-28800948Y18080000D02*
X-28800948Y18200000D01*
X-28800959Y15680000D02*
X-28800959Y15800000D01*
X-29300000Y11000000D02*
X-29300000Y14000000D01*
X-29040959Y16040000D02*
X-29060000Y16040000D01*
X-29900000Y29000001D02*
X-29900000Y27200000D01*
X-29300000Y15080000D02*
X-29300000Y15200000D01*
X-30100000Y26493718D02*
X-29300000Y25693718D01*
X-28800954Y16880000D02*
X-28800954Y17000000D01*
X-29060000Y17240000D02*
G75*
G02*
X-29300000Y17480000I0J240000D01*
G01*
X-29040948Y17840000D02*
G75*
G03*
X-28800900Y18080000I48J240000D01*
G01*
X-29300000Y16400000D02*
G75*
G02*
X-29060000Y16640000I240000J0D01*
G01*
X-29300000Y14000000D02*
G75*
G02*
X-29060000Y14240000I240000J0D01*
G01*
X-29060000Y14840000D02*
G75*
G02*
X-29300000Y15080000I0J240000D01*
G01*
X-28800959Y14600000D02*
G75*
G03*
X-29040959Y14840041I-240041J0D01*
G01*
X-29040954Y16640000D02*
G75*
G03*
X-28801000Y16880000I-46J240000D01*
G01*
X-29300000Y15200000D02*
G75*
G02*
X-29060000Y15440000I240000J0D01*
G01*
X-29060000Y18440000D02*
G75*
G02*
X-29300000Y18680000I0J240000D01*
G01*
X-28800954Y17000000D02*
G75*
G03*
X-29040954Y17240046I-240046J0D01*
G01*
X-29040959Y14240000D02*
G75*
G03*
X-28801000Y14480000I-41J240000D01*
G01*
X-29040959Y15440000D02*
G75*
G03*
X-28801000Y15680000I-41J240000D01*
G01*
X-28800948Y18200000D02*
G75*
G03*
X-29040948Y18439952I-239952J0D01*
G01*
X-29060000Y16040000D02*
G75*
G02*
X-29300000Y16280000I0J240000D01*
G01*
X-28800959Y15800000D02*
G75*
G03*
X-29040959Y16040041I-240041J0D01*
G01*
X-29300000Y17600000D02*
G75*
G02*
X-29060000Y17840000I240000J0D01*
G01*
G04 #@! TO.N,/CON.DB7-*
X-41900000Y27200000D02*
X-41900000Y27850000D01*
X-41147754Y20240000D02*
X-41144500Y20240000D01*
X-38700000Y7600000D02*
X-40904500Y9800000D01*
X-40904500Y24000000D02*
X-40904500Y25660782D01*
X-41325148Y12620648D02*
X-41325148Y12800000D01*
X-41325148Y15020648D02*
X-41325148Y15200000D01*
X-40904500Y13220648D02*
X-40904500Y13400000D01*
X-40904500Y18020648D02*
X-40904500Y18200000D01*
X-41144500Y18440000D02*
X-41147754Y18440000D01*
X-40904500Y15620648D02*
X-40904500Y15800000D01*
X-41144500Y19640000D02*
X-41147754Y19640000D01*
X-40904500Y20600000D02*
X-40904500Y24000000D01*
X-40904500Y16820648D02*
X-40904500Y17000000D01*
X-40904500Y25660782D02*
X-41700000Y26456282D01*
X-41147754Y19040000D02*
X-41144500Y19040000D01*
X-41325148Y13820648D02*
X-41325148Y14000000D01*
X-41387754Y18680000D02*
X-41387754Y18800000D01*
X-40904500Y19280000D02*
X-40904500Y19400000D01*
X-41700000Y27000000D02*
X-41900000Y27200000D01*
X-40904500Y12020648D02*
X-40904500Y12200000D01*
X-41700000Y26456282D02*
X-41700000Y27000000D01*
X-41325148Y16220648D02*
X-41325148Y16400000D01*
X-40904500Y9800000D02*
X-40904500Y11000000D01*
X-41325148Y17420648D02*
X-41325148Y17600000D01*
X-41325148Y11420648D02*
X-41325148Y11600000D01*
X-40904500Y14420648D02*
X-40904500Y14600000D01*
X-40904500Y20480000D02*
X-40904500Y20600000D01*
X-41387754Y19880000D02*
X-41387754Y20000000D01*
X-40904500Y15800000D02*
G75*
G03*
X-41114824Y16010300I-210300J0D01*
G01*
X-41114824Y13010324D02*
G75*
G03*
X-40904524Y13220648I24J210276D01*
G01*
X-41387754Y18800000D02*
G75*
G02*
X-41147754Y19039954I239954J0D01*
G01*
X-41114824Y16610324D02*
G75*
G03*
X-40904524Y16820648I24J210276D01*
G01*
X-41147754Y19640000D02*
G75*
G02*
X-41387800Y19880000I-46J240000D01*
G01*
X-41114824Y17810324D02*
G75*
G03*
X-40904524Y18020648I24J210276D01*
G01*
X-41325148Y16400000D02*
G75*
G02*
X-41114824Y16610348I210348J0D01*
G01*
X-40904500Y13400000D02*
G75*
G03*
X-41114824Y13610300I-210300J0D01*
G01*
X-41114824Y14810324D02*
G75*
G02*
X-41325076Y15020648I24J210276D01*
G01*
X-41114824Y14210324D02*
G75*
G03*
X-40904524Y14420648I24J210276D01*
G01*
X-40904500Y19400000D02*
G75*
G03*
X-41144500Y19640000I-240000J0D01*
G01*
X-41325148Y14000000D02*
G75*
G02*
X-41114824Y14210348I210348J0D01*
G01*
X-40904500Y17000000D02*
G75*
G03*
X-41114824Y17210300I-210300J0D01*
G01*
X-40904500Y18200000D02*
G75*
G03*
X-41144500Y18440000I-240000J0D01*
G01*
X-40904500Y11000000D02*
G75*
G03*
X-41114824Y11210300I-210300J0D01*
G01*
X-41325148Y17600000D02*
G75*
G02*
X-41114824Y17810348I210348J0D01*
G01*
X-41387754Y20000000D02*
G75*
G02*
X-41147754Y20239954I239954J0D01*
G01*
X-41114824Y17210324D02*
G75*
G02*
X-41325076Y17420648I24J210276D01*
G01*
X-41325148Y12800000D02*
G75*
G02*
X-41114824Y13010348I210348J0D01*
G01*
X-40904500Y12200000D02*
G75*
G03*
X-41114824Y12410300I-210300J0D01*
G01*
X-41114824Y12410324D02*
G75*
G02*
X-41325076Y12620648I24J210276D01*
G01*
X-41144500Y20240000D02*
G75*
G03*
X-40904500Y20480000I0J240000D01*
G01*
X-41114824Y11810324D02*
G75*
G03*
X-40904524Y12020648I24J210276D01*
G01*
X-41144500Y19040000D02*
G75*
G03*
X-40904500Y19280000I0J240000D01*
G01*
X-41325148Y11600000D02*
G75*
G02*
X-41114824Y11810348I210348J0D01*
G01*
X-41114824Y15410324D02*
G75*
G03*
X-40904524Y15620648I24J210276D01*
G01*
X-41114824Y16010324D02*
G75*
G02*
X-41325076Y16220648I24J210276D01*
G01*
X-41325148Y15200000D02*
G75*
G02*
X-41114824Y15410348I210348J0D01*
G01*
X-40904500Y14600000D02*
G75*
G03*
X-41114824Y14810300I-210300J0D01*
G01*
X-41114824Y11210324D02*
G75*
G02*
X-41325076Y11420648I24J210276D01*
G01*
X-41114824Y13610324D02*
G75*
G02*
X-41325076Y13820648I24J210276D01*
G01*
X-41147754Y18440000D02*
G75*
G02*
X-41387800Y18680000I-46J240000D01*
G01*
G04 #@! TO.N,/CON.DP0-*
X-40500000Y15668848D02*
X-40500000Y15800000D01*
X-40500000Y12068748D02*
X-40500000Y12200000D01*
X-40500000Y16868848D02*
X-40500000Y17000000D01*
X-41100000Y27200000D02*
X-41300000Y27000000D01*
X-40500000Y14468748D02*
X-40500000Y14600000D01*
X-40500000Y25675000D02*
X-40500000Y24000000D01*
X-41300000Y26475000D02*
X-40500000Y25675000D01*
X-40500000Y10200000D02*
X-40500000Y11000000D01*
X-40500000Y17000000D02*
X-40500000Y24000000D01*
X-40031152Y16268848D02*
X-40031152Y16400000D01*
X-40500000Y13268748D02*
X-40500000Y13400000D01*
X-37900000Y7600000D02*
X-40500000Y10200000D01*
X-41300000Y27000000D02*
X-41300000Y26475000D01*
X-40031252Y13868748D02*
X-40031252Y14000000D01*
X-40031252Y12668748D02*
X-40031252Y12800000D01*
X-40031152Y15068848D02*
X-40031152Y15200000D01*
X-41100000Y29000001D02*
X-41100000Y27200000D01*
X-40031252Y11468748D02*
X-40031252Y11600000D01*
X-40265626Y11834374D02*
G75*
G02*
X-40499926Y12068748I26J234326D01*
G01*
X-40500000Y13400000D02*
G75*
G02*
X-40265626Y13634400I234400J0D01*
G01*
X-40500000Y14600000D02*
G75*
G02*
X-40265576Y14834400I234400J0D01*
G01*
X-40031252Y14000000D02*
G75*
G03*
X-40265626Y14234348I-234348J0D01*
G01*
X-40031152Y15200000D02*
G75*
G03*
X-40265576Y15434448I-234448J0D01*
G01*
X-40265626Y12434374D02*
G75*
G03*
X-40031274Y12668748I26J234326D01*
G01*
X-40265576Y16034424D02*
G75*
G03*
X-40031224Y16268848I-24J234376D01*
G01*
X-40265576Y15434424D02*
G75*
G02*
X-40499976Y15668848I-24J234376D01*
G01*
X-40500000Y15800000D02*
G75*
G02*
X-40265576Y16034400I234400J0D01*
G01*
X-40265626Y13034374D02*
G75*
G02*
X-40499926Y13268748I26J234326D01*
G01*
X-40265576Y14834424D02*
G75*
G03*
X-40031224Y15068848I-24J234376D01*
G01*
X-40265626Y13634374D02*
G75*
G03*
X-40031274Y13868748I26J234326D01*
G01*
X-40500000Y11000000D02*
G75*
G02*
X-40265626Y11234400I234400J0D01*
G01*
X-40031252Y12800000D02*
G75*
G03*
X-40265626Y13034348I-234348J0D01*
G01*
X-40265576Y16634424D02*
G75*
G02*
X-40499976Y16868848I-24J234376D01*
G01*
X-40500000Y12200000D02*
G75*
G02*
X-40265626Y12434400I234400J0D01*
G01*
X-40031252Y11600000D02*
G75*
G03*
X-40265626Y11834348I-234348J0D01*
G01*
X-40265626Y11234374D02*
G75*
G03*
X-40031274Y11468748I26J234326D01*
G01*
X-40031152Y16400000D02*
G75*
G03*
X-40265576Y16634448I-234448J0D01*
G01*
X-40265626Y14234374D02*
G75*
G02*
X-40499926Y14468748I26J234326D01*
G01*
G04 #@! TO.N,/CON.DB12-*
X-50500000Y25646280D02*
X-51300000Y26446280D01*
X-50500000Y10200000D02*
X-50500000Y11000000D01*
X-50500000Y12078750D02*
X-50500000Y12200000D01*
X-50978750Y13878750D02*
X-50978750Y14000000D01*
X-50978750Y12678750D02*
X-50978750Y12800000D01*
X-50500000Y14478750D02*
X-50500000Y14600000D01*
X-50500000Y24000000D02*
X-50500000Y25646280D01*
X-53100000Y7600000D02*
X-50500000Y10200000D01*
X-50500000Y19278848D02*
X-50500000Y19400000D01*
X-50500000Y15678750D02*
X-50500000Y15800000D01*
X-51500000Y27200000D02*
X-51500000Y27850000D01*
X-50500000Y13278750D02*
X-50500000Y13400000D01*
X-51300000Y27000000D02*
X-51500000Y27200000D01*
X-50978750Y11478750D02*
X-50978750Y11600000D01*
X-50500000Y16878750D02*
X-50500000Y17000000D01*
X-50978750Y17478750D02*
X-50978750Y17600000D01*
X-50978848Y18678848D02*
X-50978848Y18800000D01*
X-50978750Y15078750D02*
X-50978750Y15200000D01*
X-50978750Y16278750D02*
X-50978750Y16400000D01*
X-50500000Y19400000D02*
X-50500000Y24000000D01*
X-51300000Y26446280D02*
X-51300000Y27000000D01*
X-50500000Y18078750D02*
X-50500000Y18200000D01*
X-50978750Y15200000D02*
G75*
G02*
X-50739375Y15439350I239350J0D01*
G01*
X-50978750Y14000000D02*
G75*
G02*
X-50739375Y14239350I239350J0D01*
G01*
X-50739375Y11839375D02*
G75*
G03*
X-50500075Y12078750I-25J239325D01*
G01*
X-50500000Y15800000D02*
G75*
G03*
X-50739375Y16039400I-239400J0D01*
G01*
X-50739375Y16039375D02*
G75*
G02*
X-50978725Y16278750I-25J239325D01*
G01*
X-50739424Y19039424D02*
G75*
G03*
X-50500024Y19278848I24J239376D01*
G01*
X-50978750Y11600000D02*
G75*
G02*
X-50739375Y11839350I239350J0D01*
G01*
X-50500000Y18200000D02*
G75*
G03*
X-50739424Y18439400I-239400J0D01*
G01*
X-50739375Y14239375D02*
G75*
G03*
X-50500075Y14478750I-25J239325D01*
G01*
X-50978750Y12800000D02*
G75*
G02*
X-50739375Y13039350I239350J0D01*
G01*
X-50739375Y15439375D02*
G75*
G03*
X-50500075Y15678750I-25J239325D01*
G01*
X-50500000Y13400000D02*
G75*
G03*
X-50739375Y13639400I-239400J0D01*
G01*
X-50739375Y11239375D02*
G75*
G02*
X-50978725Y11478750I-25J239325D01*
G01*
X-50500000Y17000000D02*
G75*
G03*
X-50739375Y17239400I-239400J0D01*
G01*
X-50739424Y18439424D02*
G75*
G02*
X-50978776Y18678848I24J239376D01*
G01*
X-50978750Y17600000D02*
G75*
G02*
X-50739375Y17839350I239350J0D01*
G01*
X-50739375Y17239375D02*
G75*
G02*
X-50978725Y17478750I-25J239325D01*
G01*
X-50739375Y17839375D02*
G75*
G03*
X-50500075Y18078750I-25J239325D01*
G01*
X-50739375Y12439375D02*
G75*
G02*
X-50978725Y12678750I-25J239325D01*
G01*
X-50739375Y13039375D02*
G75*
G03*
X-50500075Y13278750I-25J239325D01*
G01*
X-50500000Y12200000D02*
G75*
G03*
X-50739375Y12439400I-239400J0D01*
G01*
X-50978750Y16400000D02*
G75*
G02*
X-50739375Y16639350I239350J0D01*
G01*
X-50500000Y14600000D02*
G75*
G03*
X-50739375Y14839400I-239400J0D01*
G01*
X-50739375Y16639375D02*
G75*
G03*
X-50500075Y16878750I-25J239325D01*
G01*
X-50978848Y18800000D02*
G75*
G02*
X-50739424Y19039448I239448J0D01*
G01*
X-50739375Y13639375D02*
G75*
G02*
X-50978725Y13878750I-25J239325D01*
G01*
X-50500000Y11000000D02*
G75*
G03*
X-50739375Y11239400I-239400J0D01*
G01*
X-50739375Y14839375D02*
G75*
G02*
X-50978725Y15078750I-25J239325D01*
G01*
G04 #@! TO.N,/CON.DB14-*
X-49368548Y19868548D02*
X-49368548Y20000000D01*
X-48900000Y18068548D02*
X-48900000Y18200000D01*
X-48900000Y15553448D02*
X-48900000Y15800000D01*
X-48900000Y24000000D02*
X-48900000Y25646280D01*
X-48900000Y14353508D02*
X-48900000Y14600000D01*
X-48900000Y25646280D02*
X-49700000Y26446280D01*
X-48900000Y21800000D02*
X-48900000Y24000000D01*
X-49368548Y17468548D02*
X-49368548Y17600000D01*
X-49368548Y18668548D02*
X-49368548Y18800000D01*
X-49253508Y13753508D02*
X-49253508Y14000000D01*
X-49253448Y14953448D02*
X-49253448Y15200000D01*
X-48900000Y20468548D02*
X-48900000Y20600000D01*
X-48900000Y21668650D02*
X-48900000Y21800000D01*
X-49368650Y21068650D02*
X-49368650Y21200000D01*
X-49700000Y27000000D02*
X-49900000Y27200000D01*
X-48900000Y19268548D02*
X-48900000Y19400000D01*
X-49900000Y27200000D02*
X-49900000Y27850000D01*
X-49253448Y11353448D02*
X-49253448Y11600000D01*
X-48900000Y11953448D02*
X-48900000Y12200000D01*
X-48900000Y13153448D02*
X-48900000Y13400000D01*
X-49253508Y16153508D02*
X-49253508Y16400000D01*
X-48900000Y16753508D02*
X-48900000Y17000000D01*
X-50700000Y7600000D02*
X-48900000Y9400000D01*
X-48900000Y9400000D02*
X-48900000Y11000000D01*
X-49700000Y26446280D02*
X-49700000Y27000000D01*
X-49253448Y12553448D02*
X-49253448Y12800000D01*
X-48900000Y17000000D02*
G75*
G03*
X-49134274Y17234300I-234300J0D01*
G01*
X-49076754Y14176754D02*
G75*
G03*
X-48900054Y14353508I-46J176746D01*
G01*
X-49134274Y20234274D02*
G75*
G03*
X-48900074Y20468548I-26J234226D01*
G01*
X-49134274Y19634274D02*
G75*
G02*
X-49368526Y19868548I-26J234226D01*
G01*
X-49134274Y18434274D02*
G75*
G02*
X-49368526Y18668548I-26J234226D01*
G01*
X-49134274Y17234274D02*
G75*
G02*
X-49368526Y17468548I-26J234226D01*
G01*
X-49134325Y20834325D02*
G75*
G02*
X-49368575Y21068650I25J234275D01*
G01*
X-48900000Y12200000D02*
G75*
G03*
X-49076724Y12376700I-176700J0D01*
G01*
X-49076724Y11176724D02*
G75*
G02*
X-49253376Y11353448I24J176676D01*
G01*
X-49076754Y15976754D02*
G75*
G02*
X-49253546Y16153508I-46J176746D01*
G01*
X-48900000Y14600000D02*
G75*
G03*
X-49076724Y14776700I-176700J0D01*
G01*
X-49134274Y17834274D02*
G75*
G03*
X-48900074Y18068548I-26J234226D01*
G01*
X-49368548Y20000000D02*
G75*
G02*
X-49134274Y20234248I234248J0D01*
G01*
X-49076724Y12976724D02*
G75*
G03*
X-48900024Y13153448I24J176676D01*
G01*
X-49076754Y13576754D02*
G75*
G02*
X-49253546Y13753508I-46J176746D01*
G01*
X-49076724Y11776724D02*
G75*
G03*
X-48900024Y11953448I24J176676D01*
G01*
X-49368548Y17600000D02*
G75*
G02*
X-49134274Y17834248I234248J0D01*
G01*
X-49253448Y12800000D02*
G75*
G02*
X-49076724Y12976748I176748J0D01*
G01*
X-48900000Y15800000D02*
G75*
G03*
X-49076754Y15976800I-176800J0D01*
G01*
X-48900000Y20600000D02*
G75*
G03*
X-49134325Y20834300I-234300J0D01*
G01*
X-49134274Y19034274D02*
G75*
G03*
X-48900074Y19268548I-26J234226D01*
G01*
X-49134325Y21434325D02*
G75*
G03*
X-48900025Y21668650I25J234275D01*
G01*
X-48900000Y13400000D02*
G75*
G03*
X-49076754Y13576800I-176800J0D01*
G01*
X-48900000Y11000000D02*
G75*
G03*
X-49076724Y11176700I-176700J0D01*
G01*
X-49253508Y14000000D02*
G75*
G02*
X-49076754Y14176708I176708J0D01*
G01*
X-49076724Y12376724D02*
G75*
G02*
X-49253376Y12553448I24J176676D01*
G01*
X-49253508Y16400000D02*
G75*
G02*
X-49076754Y16576708I176708J0D01*
G01*
X-49368650Y21200000D02*
G75*
G02*
X-49134325Y21434350I234350J0D01*
G01*
X-49253448Y11600000D02*
G75*
G02*
X-49076724Y11776748I176748J0D01*
G01*
X-49253448Y15200000D02*
G75*
G02*
X-49076724Y15376748I176748J0D01*
G01*
X-49368548Y18800000D02*
G75*
G02*
X-49134274Y19034248I234248J0D01*
G01*
X-49076754Y16576754D02*
G75*
G03*
X-48900054Y16753508I-46J176746D01*
G01*
X-49076724Y15376724D02*
G75*
G03*
X-48900024Y15553448I24J176676D01*
G01*
X-49076724Y14776724D02*
G75*
G02*
X-49253376Y14953448I24J176676D01*
G01*
X-48900000Y18200000D02*
G75*
G03*
X-49134274Y18434300I-234300J0D01*
G01*
X-48900000Y19400000D02*
G75*
G03*
X-49134274Y19634300I-234300J0D01*
G01*
G04 #@! TD*
G04 #@! TA.AperFunction,Conductor*
G04 #@! TO.N,GND*
G36*
X-65988833Y3363054D02*
G01*
X-65974258Y3358319D01*
X-65925988Y3333725D01*
X-65913590Y3324716D01*
X-65875285Y3286411D01*
X-65866276Y3274012D01*
X-65859715Y3261136D01*
X-65841685Y3225750D01*
X-65836948Y3211170D01*
X-65828474Y3157666D01*
X-65828474Y3142336D01*
X-65836948Y3088832D01*
X-65841685Y3074252D01*
X-65866273Y3025994D01*
X-65875285Y3013591D01*
X-65913591Y2975285D01*
X-65925994Y2966273D01*
X-65974252Y2941685D01*
X-65988832Y2936948D01*
X-66042336Y2928474D01*
X-66057666Y2928474D01*
X-66111170Y2936948D01*
X-66125749Y2941685D01*
X-66174012Y2966276D01*
X-66186411Y2975285D01*
X-66224717Y3013591D01*
X-66233726Y3025989D01*
X-66258319Y3074257D01*
X-66263054Y3088832D01*
X-66271528Y3142336D01*
X-66271528Y3157666D01*
X-66264823Y3200000D01*
X-66263054Y3211172D01*
X-66258320Y3225743D01*
X-66233723Y3274018D01*
X-66224717Y3286411D01*
X-66186410Y3324719D01*
X-66174018Y3333723D01*
X-66125743Y3358320D01*
X-66111172Y3363054D01*
X-66057666Y3371528D01*
X-66042336Y3371528D01*
X-65988833Y3363054D01*
G37*
G04 #@! TD.AperFunction*
G04 #@! TA.AperFunction,Conductor*
G36*
X-64017299Y3709643D02*
G01*
X-63996571Y3708012D01*
X-63996560Y3708012D01*
X-63981243Y3708012D01*
X-63943076Y3718777D01*
X-63905835Y3714370D01*
X-63882616Y3684919D01*
X-63882130Y3660178D01*
X-63888327Y3634370D01*
X-63888328Y3634358D01*
X-63890358Y3582710D01*
X-63890357Y3582703D01*
X-63878473Y3507669D01*
X-63878473Y3492339D01*
X-63886948Y3438831D01*
X-63891686Y3424251D01*
X-63916274Y3375994D01*
X-63925285Y3363591D01*
X-63963591Y3325285D01*
X-63975994Y3316274D01*
X-63989107Y3309592D01*
X-64024252Y3291685D01*
X-64038832Y3286948D01*
X-64092336Y3278474D01*
X-64107666Y3278474D01*
X-64161170Y3286948D01*
X-64175749Y3291685D01*
X-64224012Y3316276D01*
X-64236411Y3325285D01*
X-64274715Y3363589D01*
X-64283726Y3375992D01*
X-64308317Y3424255D01*
X-64313054Y3438831D01*
X-64321528Y3492339D01*
X-64321527Y3507668D01*
X-64320284Y3515518D01*
X-64318330Y3527859D01*
X-64308557Y3589558D01*
X-64307733Y3600037D01*
X-64307282Y3603854D01*
X-64303083Y3630357D01*
X-64303422Y3634657D01*
X-64291836Y3670323D01*
X-64258425Y3687352D01*
X-64235590Y3689148D01*
X-64185830Y3703180D01*
X-64175749Y3708317D01*
X-64161171Y3713054D01*
X-64107666Y3721528D01*
X-64092336Y3721528D01*
X-64017299Y3709643D01*
G37*
G04 #@! TD.AperFunction*
G04 #@! TA.AperFunction,Conductor*
G36*
X-63543109Y4213731D02*
G01*
X-63538836Y4213054D01*
X-63524254Y4208317D01*
X-63475995Y4183728D01*
X-63475993Y4183727D01*
X-63463590Y4174716D01*
X-63425285Y4136411D01*
X-63416275Y4124010D01*
X-63391683Y4075745D01*
X-63386946Y4061166D01*
X-63386540Y4058603D01*
X-63385324Y4050925D01*
X-63378473Y4007666D01*
X-63378473Y3992335D01*
X-63386948Y3938831D01*
X-63391685Y3924252D01*
X-63416273Y3875994D01*
X-63425285Y3863591D01*
X-63463591Y3825285D01*
X-63475994Y3816274D01*
X-63483107Y3812649D01*
X-63524252Y3791685D01*
X-63538831Y3786948D01*
X-63592336Y3778473D01*
X-63607666Y3778473D01*
X-63682708Y3790358D01*
X-63682713Y3790359D01*
X-63682723Y3790360D01*
X-63703432Y3791989D01*
X-63703436Y3791989D01*
X-63718758Y3791989D01*
X-63718760Y3791989D01*
X-63756925Y3781225D01*
X-63794168Y3785633D01*
X-63817386Y3815084D01*
X-63817872Y3839823D01*
X-63812167Y3863589D01*
X-63811673Y3865645D01*
X-63809644Y3917301D01*
X-63821529Y3992336D01*
X-63821529Y4007667D01*
X-63809643Y4082702D01*
X-63808012Y4103430D01*
X-63808012Y4118758D01*
X-63818777Y4156926D01*
X-63814370Y4194168D01*
X-63784919Y4217387D01*
X-63760180Y4217873D01*
X-63734358Y4211674D01*
X-63724966Y4211305D01*
X-63682709Y4209644D01*
X-63682708Y4209645D01*
X-63682700Y4209644D01*
X-63607661Y4221529D01*
X-63592339Y4221529D01*
X-63543109Y4213731D01*
G37*
G04 #@! TD.AperFunction*
G04 #@! TA.AperFunction,Conductor*
G36*
X-64588829Y4213054D02*
G01*
X-64574255Y4208318D01*
X-64564171Y4203180D01*
X-64554717Y4198822D01*
X-64547613Y4195880D01*
X-64505110Y4189151D01*
X-64488272Y4186485D01*
X-64456294Y4166892D01*
X-64447085Y4141936D01*
X-64443975Y4102451D01*
X-64443974Y4102444D01*
X-64443644Y4101277D01*
X-64442406Y4095638D01*
X-64428473Y4007666D01*
X-64428473Y3992336D01*
X-64444404Y3891748D01*
X-64443810Y3889273D01*
X-64446919Y3869649D01*
X-64446919Y3869648D01*
X-64446580Y3865336D01*
X-64458174Y3829670D01*
X-64491583Y3812649D01*
X-64514422Y3810851D01*
X-64514423Y3810851D01*
X-64564162Y3796824D01*
X-64564179Y3796817D01*
X-64574255Y3791684D01*
X-64588829Y3786949D01*
X-64642335Y3778474D01*
X-64657666Y3778474D01*
X-64711170Y3786948D01*
X-64725749Y3791685D01*
X-64774012Y3816276D01*
X-64786411Y3825285D01*
X-64824715Y3863589D01*
X-64833726Y3875992D01*
X-64858317Y3924255D01*
X-64863054Y3938831D01*
X-64871528Y3992337D01*
X-64871528Y4007666D01*
X-64871528Y4007667D01*
X-64863054Y4061172D01*
X-64858320Y4075743D01*
X-64833723Y4124018D01*
X-64824717Y4136411D01*
X-64786410Y4174719D01*
X-64774018Y4183723D01*
X-64725743Y4208320D01*
X-64711172Y4213054D01*
X-64657666Y4221528D01*
X-64642336Y4221528D01*
X-64588829Y4213054D01*
G37*
G04 #@! TD.AperFunction*
G04 #@! TA.AperFunction,Conductor*
G36*
X-64038833Y4713054D02*
G01*
X-64024258Y4708319D01*
X-63975988Y4683725D01*
X-63963590Y4674716D01*
X-63925285Y4636411D01*
X-63916276Y4624012D01*
X-63891685Y4575750D01*
X-63886948Y4561171D01*
X-63878473Y4507667D01*
X-63878473Y4492336D01*
X-63890360Y4417280D01*
X-63890360Y4417278D01*
X-63891989Y4396570D01*
X-63891989Y4381242D01*
X-63881225Y4343077D01*
X-63885632Y4305834D01*
X-63915084Y4282616D01*
X-63939823Y4282130D01*
X-63965642Y4288328D01*
X-63965639Y4288328D01*
X-64017290Y4290358D01*
X-64017299Y4290357D01*
X-64092337Y4278473D01*
X-64107666Y4278473D01*
X-64161167Y4286947D01*
X-64175747Y4291684D01*
X-64185826Y4296820D01*
X-64195302Y4301187D01*
X-64202407Y4304129D01*
X-64244878Y4310849D01*
X-64261729Y4313516D01*
X-64293708Y4333106D01*
X-64302919Y4358067D01*
X-64303084Y4360159D01*
X-64303083Y4360161D01*
X-64306027Y4397548D01*
X-64306821Y4400360D01*
X-64308510Y4409843D01*
X-64308556Y4410432D01*
X-64308557Y4410435D01*
X-64308557Y4410442D01*
X-64321528Y4492336D01*
X-64321528Y4507666D01*
X-64321528Y4507667D01*
X-64313054Y4561172D01*
X-64308320Y4575743D01*
X-64283723Y4624018D01*
X-64274717Y4636411D01*
X-64236410Y4674719D01*
X-64224018Y4683723D01*
X-64175743Y4708320D01*
X-64161172Y4713054D01*
X-64107666Y4721528D01*
X-64092336Y4721528D01*
X-64038833Y4713054D01*
G37*
G04 #@! TD.AperFunction*
G04 #@! TA.AperFunction,Conductor*
G36*
X-3998800Y33799442D02*
G01*
X-3629980Y33781322D01*
X-3625219Y33780854D01*
X-3261123Y33726846D01*
X-3256433Y33725913D01*
X-2963065Y33652428D01*
X-2899399Y33636480D01*
X-2894797Y33635084D01*
X-2781323Y33594483D01*
X-2548244Y33511085D01*
X-2543817Y33509251D01*
X-2211103Y33351889D01*
X-2206878Y33349632D01*
X-2015692Y33235039D01*
X-1891172Y33160404D01*
X-1887174Y33157732D01*
X-1739367Y33048111D01*
X-1591555Y32938486D01*
X-1587843Y32935440D01*
X-1315133Y32688269D01*
X-1311732Y32684868D01*
X-1064561Y32412158D01*
X-1061511Y32408441D01*
X-842269Y32112827D01*
X-839597Y32108829D01*
X-650374Y31793131D01*
X-648108Y31788890D01*
X-490754Y31456192D01*
X-488913Y31451750D01*
X-364917Y31105204D01*
X-363521Y31100602D01*
X-274091Y30743581D01*
X-273153Y30738865D01*
X-219149Y30374794D01*
X-218678Y30370008D01*
X-200559Y30001201D01*
X-200500Y29998797D01*
X-200500Y21599000D01*
X-214852Y21564352D01*
X-249500Y21550000D01*
X-2500000Y21550000D01*
X-2500000Y12350000D01*
X-249500Y12350000D01*
X-214852Y12335648D01*
X-200500Y12301000D01*
X-200500Y4001204D01*
X-200559Y3998800D01*
X-218678Y3629993D01*
X-219149Y3625207D01*
X-273153Y3261136D01*
X-274091Y3256420D01*
X-363521Y2899399D01*
X-364917Y2894797D01*
X-488913Y2548251D01*
X-490754Y2543809D01*
X-648108Y2211111D01*
X-650374Y2206870D01*
X-839597Y1891172D01*
X-842269Y1887174D01*
X-1061511Y1591560D01*
X-1064561Y1587843D01*
X-1311732Y1315133D01*
X-1315133Y1311732D01*
X-1587843Y1064561D01*
X-1591560Y1061511D01*
X-1887174Y842269D01*
X-1891172Y839597D01*
X-2206870Y650374D01*
X-2211111Y648108D01*
X-2543809Y490754D01*
X-2548251Y488913D01*
X-2894797Y364917D01*
X-2899399Y363521D01*
X-3256420Y274091D01*
X-3261136Y273153D01*
X-3625207Y219149D01*
X-3629993Y218678D01*
X-3998799Y200559D01*
X-4001203Y200500D01*
X-70998797Y200500D01*
X-71001201Y200559D01*
X-71370008Y218678D01*
X-71374794Y219149D01*
X-71738865Y273153D01*
X-71743581Y274091D01*
X-72100602Y363521D01*
X-72105204Y364917D01*
X-72451750Y488913D01*
X-72456192Y490754D01*
X-72788890Y648108D01*
X-72793131Y650374D01*
X-73108829Y839597D01*
X-73112827Y842269D01*
X-73408441Y1061511D01*
X-73412158Y1064561D01*
X-73684868Y1311732D01*
X-73688269Y1315133D01*
X-73935440Y1587843D01*
X-73938490Y1591560D01*
X-74157732Y1887174D01*
X-74160404Y1891172D01*
X-74262560Y2061609D01*
X-74349632Y2206878D01*
X-74351889Y2211103D01*
X-74509251Y2543817D01*
X-74511088Y2548251D01*
X-74548972Y2654129D01*
X-74635084Y2894797D01*
X-74636480Y2899399D01*
X-74701173Y3157666D01*
X-74725913Y3256433D01*
X-74726846Y3261123D01*
X-74780854Y3625219D01*
X-74781322Y3629980D01*
X-74799441Y3998800D01*
X-74799500Y4001204D01*
X-74799500Y16995203D01*
X-74432500Y16995203D01*
X-74432500Y4912050D01*
X-74428140Y4878338D01*
X-74428140Y4878337D01*
X-74421800Y4854238D01*
X-74418742Y4844237D01*
X-74418740Y4844233D01*
X-74378298Y4787785D01*
X-74375261Y4783546D01*
X-74375257Y4783543D01*
X-74375255Y4783541D01*
X-74345724Y4760454D01*
X-74345718Y4760450D01*
X-74345715Y4760448D01*
X-74321662Y4745487D01*
X-74248002Y4733318D01*
X-74210777Y4737877D01*
X-74183188Y4744307D01*
X-74122497Y4787788D01*
X-74099399Y4817334D01*
X-74076115Y4863493D01*
X-74032910Y5019110D01*
X-74031217Y5024133D01*
X-73904937Y5341074D01*
X-73902722Y5345862D01*
X-73742917Y5647286D01*
X-73740202Y5651799D01*
X-73548737Y5934187D01*
X-73545544Y5938387D01*
X-73324671Y6198420D01*
X-73321054Y6202238D01*
X-73073371Y6436856D01*
X-73069342Y6440279D01*
X-72924698Y6550234D01*
X-72924696Y6550234D01*
X-72918306Y6555092D01*
X-72918305Y6555092D01*
X-72797723Y6646757D01*
X-72793363Y6649714D01*
X-72501026Y6825606D01*
X-72496368Y6828076D01*
X-72186721Y6971336D01*
X-72181834Y6973283D01*
X-71858525Y7082218D01*
X-71853426Y7083634D01*
X-71520257Y7156970D01*
X-71515032Y7157828D01*
X-71464694Y7163302D01*
X-71464695Y7163303D01*
X-71434023Y7166638D01*
X-71434020Y7166639D01*
X-71412778Y7168949D01*
X-71175871Y7194713D01*
X-71170573Y7195000D01*
X-70829429Y7195000D01*
X-70824132Y7194714D01*
X-70484971Y7157828D01*
X-70479746Y7156970D01*
X-70146589Y7083637D01*
X-70141480Y7082219D01*
X-69818175Y6973285D01*
X-69813276Y6971333D01*
X-69524587Y6837769D01*
X-69524588Y6837769D01*
X-69506054Y6829195D01*
X-69503652Y6828083D01*
X-69503645Y6828080D01*
X-69498957Y6825595D01*
X-69497095Y6824475D01*
X-69497095Y6824474D01*
X-69206656Y6649724D01*
X-69202268Y6646750D01*
X-69202263Y6646746D01*
X-68930673Y6440289D01*
X-68926631Y6436855D01*
X-68678959Y6202248D01*
X-68675324Y6198410D01*
X-68585582Y6092757D01*
X-68454469Y5938398D01*
X-68451258Y5934174D01*
X-68259810Y5651812D01*
X-68257075Y5647266D01*
X-68097287Y5345873D01*
X-68095059Y5341058D01*
X-67968783Y5024128D01*
X-67967089Y5019100D01*
X-67875828Y4690410D01*
X-67874687Y4685228D01*
X-67844321Y4500000D01*
X-67819495Y4348564D01*
X-67818922Y4343290D01*
X-67800452Y4002654D01*
X-67800452Y3997348D01*
X-67818922Y3656712D01*
X-67819495Y3651438D01*
X-67874687Y3314774D01*
X-67875828Y3309592D01*
X-67910296Y3185448D01*
X-67920138Y3150000D01*
X-67967089Y2980902D01*
X-67968783Y2975874D01*
X-68095059Y2658944D01*
X-68097287Y2654129D01*
X-68257074Y2352739D01*
X-68259809Y2348193D01*
X-68451254Y2065833D01*
X-68454465Y2061609D01*
X-68675326Y1801591D01*
X-68678975Y1797739D01*
X-68926636Y1563143D01*
X-68930679Y1559708D01*
X-69202253Y1353263D01*
X-69206645Y1350286D01*
X-69498964Y1174403D01*
X-69503651Y1171918D01*
X-69739366Y1062864D01*
X-69813261Y1028676D01*
X-69818190Y1026712D01*
X-70131935Y921000D01*
X-70159469Y908034D01*
X-70159476Y908030D01*
X-70178446Y896264D01*
X-70182135Y893842D01*
X-70184197Y892487D01*
X-70184198Y892487D01*
X-70184198Y892486D01*
X-70231046Y834353D01*
X-70245396Y799709D01*
X-70245403Y799690D01*
X-70253377Y772528D01*
X-70253378Y772525D01*
X-70245398Y698299D01*
X-70245396Y698294D01*
X-70231045Y663646D01*
X-70219766Y642992D01*
X-70217469Y638785D01*
X-70159337Y591938D01*
X-70159336Y591938D01*
X-70159335Y591937D01*
X-70124697Y577589D01*
X-70124695Y577589D01*
X-70124689Y577586D01*
X-70073982Y567500D01*
X-70073979Y567500D01*
X-56204841Y567500D01*
X-56204823Y567500D01*
X-56191826Y568139D01*
X-56182269Y569081D01*
X-56169411Y570989D01*
X-56154870Y573882D01*
X-56154871Y573883D01*
X-56148507Y575149D01*
X-56107175Y583369D01*
X-56107165Y583373D01*
X-56107161Y583373D01*
X-56098771Y585919D01*
X-56082320Y590908D01*
X-56082315Y590910D01*
X-56064663Y598221D01*
X-56064657Y598224D01*
X-56041749Y610469D01*
X-55993071Y642994D01*
X-55972991Y659472D01*
X-55959472Y672991D01*
X-55942994Y693071D01*
X-55910469Y741749D01*
X-55898224Y764657D01*
X-55890908Y782320D01*
X-55883369Y807173D01*
X-55870988Y869413D01*
X-55869081Y882271D01*
X-55868139Y891831D01*
X-55867500Y904824D01*
X-55867500Y2712334D01*
X-55868139Y2725327D01*
X-55869081Y2734887D01*
X-55870988Y2747745D01*
X-55883369Y2809985D01*
X-55890908Y2834838D01*
X-55890909Y2834842D01*
X-55898221Y2852495D01*
X-55910468Y2875407D01*
X-55923424Y2894797D01*
X-55945729Y2928180D01*
X-55953478Y2938629D01*
X-55959572Y2946054D01*
X-55968301Y2955685D01*
X-56212616Y3200000D01*
X-53456894Y3200000D01*
X-53439426Y3089714D01*
X-53403436Y3019078D01*
X-53388733Y2990223D01*
X-53309777Y2911267D01*
X-53210286Y2860574D01*
X-53100000Y2843106D01*
X-52989714Y2860574D01*
X-52890223Y2911267D01*
X-52811267Y2990223D01*
X-52760574Y3089714D01*
X-52748397Y3166601D01*
X-52728801Y3198575D01*
X-52725186Y3199443D01*
X-52679463Y3199443D01*
X-52660358Y3187734D01*
X-52651605Y3166602D01*
X-52639426Y3089714D01*
X-52603436Y3019078D01*
X-52588733Y2990223D01*
X-52509777Y2911267D01*
X-52410286Y2860574D01*
X-52300000Y2843106D01*
X-52189714Y2860574D01*
X-52090223Y2911267D01*
X-52011267Y2990223D01*
X-51960574Y3089714D01*
X-51943106Y3200000D01*
X-51056894Y3200000D01*
X-51039426Y3089714D01*
X-51003436Y3019078D01*
X-50988733Y2990223D01*
X-50909777Y2911267D01*
X-50810286Y2860574D01*
X-50700000Y2843106D01*
X-50589714Y2860574D01*
X-50490223Y2911267D01*
X-50411267Y2990223D01*
X-50360574Y3089714D01*
X-50348397Y3166601D01*
X-50328801Y3198575D01*
X-50325186Y3199443D01*
X-50279463Y3199443D01*
X-50260358Y3187734D01*
X-50251605Y3166602D01*
X-50239426Y3089714D01*
X-50203436Y3019078D01*
X-50188733Y2990223D01*
X-50109777Y2911267D01*
X-50010286Y2860574D01*
X-49900000Y2843106D01*
X-49789714Y2860574D01*
X-49690223Y2911267D01*
X-49611267Y2990223D01*
X-49560574Y3089714D01*
X-49543106Y3200000D01*
X-48656894Y3200000D01*
X-48639426Y3089714D01*
X-48603436Y3019078D01*
X-48588733Y2990223D01*
X-48509777Y2911267D01*
X-48410286Y2860574D01*
X-48300000Y2843106D01*
X-48189714Y2860574D01*
X-48090223Y2911267D01*
X-48011267Y2990223D01*
X-47960574Y3089714D01*
X-47948397Y3166601D01*
X-47928801Y3198575D01*
X-47925186Y3199443D01*
X-47879463Y3199443D01*
X-47860358Y3187734D01*
X-47851605Y3166602D01*
X-47839426Y3089714D01*
X-47803436Y3019078D01*
X-47788733Y2990223D01*
X-47709777Y2911267D01*
X-47610286Y2860574D01*
X-47500000Y2843106D01*
X-47389714Y2860574D01*
X-47290223Y2911267D01*
X-47211267Y2990223D01*
X-47160574Y3089714D01*
X-47143106Y3200000D01*
X-46256894Y3200000D01*
X-46239426Y3089714D01*
X-46203436Y3019078D01*
X-46188733Y2990223D01*
X-46109777Y2911267D01*
X-46010286Y2860574D01*
X-45900000Y2843106D01*
X-45789714Y2860574D01*
X-45690223Y2911267D01*
X-45611267Y2990223D01*
X-45560574Y3089714D01*
X-45548397Y3166601D01*
X-45528801Y3198575D01*
X-45525186Y3199443D01*
X-45479463Y3199443D01*
X-45460358Y3187734D01*
X-45451605Y3166602D01*
X-45439426Y3089714D01*
X-45403436Y3019078D01*
X-45388733Y2990223D01*
X-45309777Y2911267D01*
X-45210286Y2860574D01*
X-45100000Y2843106D01*
X-44989714Y2860574D01*
X-44890223Y2911267D01*
X-44811267Y2990223D01*
X-44760574Y3089714D01*
X-44743106Y3200000D01*
X-43856894Y3200000D01*
X-43839426Y3089714D01*
X-43803436Y3019078D01*
X-43788733Y2990223D01*
X-43709777Y2911267D01*
X-43610286Y2860574D01*
X-43500000Y2843106D01*
X-43389714Y2860574D01*
X-43290223Y2911267D01*
X-43211267Y2990223D01*
X-43160574Y3089714D01*
X-43148397Y3166601D01*
X-43128801Y3198575D01*
X-43125186Y3199443D01*
X-43079463Y3199443D01*
X-43060358Y3187734D01*
X-43051605Y3166602D01*
X-43039426Y3089714D01*
X-43003436Y3019078D01*
X-42988733Y2990223D01*
X-42909777Y2911267D01*
X-42810286Y2860574D01*
X-42700000Y2843106D01*
X-42589714Y2860574D01*
X-42490223Y2911267D01*
X-42411267Y2990223D01*
X-42360574Y3089714D01*
X-42343106Y3200000D01*
X-41456894Y3200000D01*
X-41439426Y3089714D01*
X-41403436Y3019078D01*
X-41388733Y2990223D01*
X-41309777Y2911267D01*
X-41210286Y2860574D01*
X-41100000Y2843106D01*
X-40989714Y2860574D01*
X-40890223Y2911267D01*
X-40811267Y2990223D01*
X-40760574Y3089714D01*
X-40748397Y3166601D01*
X-40728801Y3198575D01*
X-40725186Y3199443D01*
X-40679463Y3199443D01*
X-40660358Y3187734D01*
X-40651605Y3166602D01*
X-40639426Y3089714D01*
X-40603436Y3019078D01*
X-40588733Y2990223D01*
X-40509777Y2911267D01*
X-40410286Y2860574D01*
X-40300000Y2843106D01*
X-40189714Y2860574D01*
X-40090223Y2911267D01*
X-40011267Y2990223D01*
X-39960574Y3089714D01*
X-39943106Y3200000D01*
X-39056894Y3200000D01*
X-39039426Y3089714D01*
X-39003436Y3019078D01*
X-38988733Y2990223D01*
X-38909777Y2911267D01*
X-38810286Y2860574D01*
X-38700000Y2843106D01*
X-38589714Y2860574D01*
X-38490223Y2911267D01*
X-38411267Y2990223D01*
X-38360574Y3089714D01*
X-38348397Y3166601D01*
X-38328801Y3198575D01*
X-38325186Y3199443D01*
X-38279463Y3199443D01*
X-38260358Y3187734D01*
X-38251605Y3166602D01*
X-38239426Y3089714D01*
X-38203436Y3019078D01*
X-38188733Y2990223D01*
X-38109777Y2911267D01*
X-38010286Y2860574D01*
X-37900000Y2843106D01*
X-37789714Y2860574D01*
X-37690223Y2911267D01*
X-37611267Y2990223D01*
X-37560574Y3089714D01*
X-37543106Y3200000D01*
X-36656894Y3200000D01*
X-36639426Y3089714D01*
X-36603436Y3019078D01*
X-36588733Y2990223D01*
X-36509777Y2911267D01*
X-36410286Y2860574D01*
X-36300000Y2843106D01*
X-36189714Y2860574D01*
X-36090223Y2911267D01*
X-36011267Y2990223D01*
X-35960574Y3089714D01*
X-35943106Y3200000D01*
X-33456894Y3200000D01*
X-33439426Y3089714D01*
X-33403436Y3019078D01*
X-33388733Y2990223D01*
X-33309777Y2911267D01*
X-33210286Y2860574D01*
X-33100000Y2843106D01*
X-32989714Y2860574D01*
X-32890223Y2911267D01*
X-32811267Y2990223D01*
X-32760574Y3089714D01*
X-32743106Y3200000D01*
X-31856894Y3200000D01*
X-31839426Y3089714D01*
X-31803436Y3019078D01*
X-31788733Y2990223D01*
X-31709777Y2911267D01*
X-31610286Y2860574D01*
X-31500000Y2843106D01*
X-31389714Y2860574D01*
X-31290223Y2911267D01*
X-31211267Y2990223D01*
X-31160574Y3089714D01*
X-31148397Y3166601D01*
X-31128801Y3198575D01*
X-31125186Y3199443D01*
X-31079463Y3199443D01*
X-31060358Y3187734D01*
X-31051605Y3166602D01*
X-31039426Y3089714D01*
X-31003436Y3019078D01*
X-30988733Y2990223D01*
X-30909777Y2911267D01*
X-30810286Y2860574D01*
X-30700000Y2843106D01*
X-30589714Y2860574D01*
X-30490223Y2911267D01*
X-30411267Y2990223D01*
X-30360574Y3089714D01*
X-30343106Y3200000D01*
X-29456894Y3200000D01*
X-29439426Y3089714D01*
X-29403436Y3019078D01*
X-29388733Y2990223D01*
X-29309777Y2911267D01*
X-29210286Y2860574D01*
X-29100000Y2843106D01*
X-28989714Y2860574D01*
X-28890223Y2911267D01*
X-28811267Y2990223D01*
X-28760574Y3089714D01*
X-28748397Y3166601D01*
X-28728801Y3198575D01*
X-28725186Y3199443D01*
X-28679463Y3199443D01*
X-28660358Y3187734D01*
X-28651605Y3166602D01*
X-28639426Y3089714D01*
X-28603436Y3019078D01*
X-28588733Y2990223D01*
X-28509777Y2911267D01*
X-28410286Y2860574D01*
X-28300000Y2843106D01*
X-28189714Y2860574D01*
X-28090223Y2911267D01*
X-28011267Y2990223D01*
X-27960574Y3089714D01*
X-27943106Y3200000D01*
X-27056894Y3200000D01*
X-27039426Y3089714D01*
X-27003436Y3019078D01*
X-26988733Y2990223D01*
X-26909777Y2911267D01*
X-26810286Y2860574D01*
X-26700000Y2843106D01*
X-26589714Y2860574D01*
X-26490223Y2911267D01*
X-26411267Y2990223D01*
X-26360574Y3089714D01*
X-26348397Y3166601D01*
X-26328801Y3198575D01*
X-26325186Y3199443D01*
X-26279463Y3199443D01*
X-26260358Y3187734D01*
X-26251605Y3166602D01*
X-26239426Y3089714D01*
X-26203436Y3019078D01*
X-26188733Y2990223D01*
X-26109777Y2911267D01*
X-26010286Y2860574D01*
X-25900000Y2843106D01*
X-25789714Y2860574D01*
X-25690223Y2911267D01*
X-25611267Y2990223D01*
X-25560574Y3089714D01*
X-25543106Y3200000D01*
X-24656894Y3200000D01*
X-24639426Y3089714D01*
X-24603436Y3019078D01*
X-24588733Y2990223D01*
X-24509777Y2911267D01*
X-24410286Y2860574D01*
X-24300000Y2843106D01*
X-24189714Y2860574D01*
X-24090223Y2911267D01*
X-24011267Y2990223D01*
X-23960574Y3089714D01*
X-23948397Y3166601D01*
X-23928801Y3198575D01*
X-23925186Y3199443D01*
X-23879463Y3199443D01*
X-23860358Y3187734D01*
X-23851605Y3166602D01*
X-23839426Y3089714D01*
X-23803436Y3019078D01*
X-23788733Y2990223D01*
X-23709777Y2911267D01*
X-23610286Y2860574D01*
X-23500000Y2843106D01*
X-23389714Y2860574D01*
X-23290223Y2911267D01*
X-23211267Y2990223D01*
X-23160574Y3089714D01*
X-23143106Y3200000D01*
X-22256894Y3200000D01*
X-22239426Y3089714D01*
X-22203436Y3019078D01*
X-22188733Y2990223D01*
X-22109777Y2911267D01*
X-22010286Y2860574D01*
X-21900000Y2843106D01*
X-21789714Y2860574D01*
X-21690223Y2911267D01*
X-21611267Y2990223D01*
X-21560574Y3089714D01*
X-21548397Y3166601D01*
X-21528801Y3198575D01*
X-21525186Y3199443D01*
X-21479463Y3199443D01*
X-21460358Y3187734D01*
X-21451605Y3166602D01*
X-21439426Y3089714D01*
X-21403436Y3019078D01*
X-21388733Y2990223D01*
X-21309777Y2911267D01*
X-21210286Y2860574D01*
X-21100000Y2843106D01*
X-20989714Y2860574D01*
X-20890223Y2911267D01*
X-20811267Y2990223D01*
X-20760574Y3089714D01*
X-20743106Y3200000D01*
X-19856894Y3200000D01*
X-19839426Y3089714D01*
X-19803436Y3019078D01*
X-19788733Y2990223D01*
X-19709777Y2911267D01*
X-19610286Y2860574D01*
X-19500000Y2843106D01*
X-19389714Y2860574D01*
X-19290223Y2911267D01*
X-19211267Y2990223D01*
X-19160574Y3089714D01*
X-19148397Y3166601D01*
X-19128801Y3198575D01*
X-19125186Y3199443D01*
X-19079463Y3199443D01*
X-19060358Y3187734D01*
X-19051605Y3166602D01*
X-19039426Y3089714D01*
X-19003436Y3019078D01*
X-18988733Y2990223D01*
X-18909777Y2911267D01*
X-18810286Y2860574D01*
X-18700000Y2843106D01*
X-18589714Y2860574D01*
X-18490223Y2911267D01*
X-18411267Y2990223D01*
X-18360574Y3089714D01*
X-18343106Y3200000D01*
X-18360574Y3310286D01*
X-18411267Y3409777D01*
X-18490223Y3488733D01*
X-18490226Y3488735D01*
X-18589714Y3539426D01*
X-18700000Y3556894D01*
X-18810287Y3539426D01*
X-18909775Y3488735D01*
X-18909778Y3488733D01*
X-18988733Y3409778D01*
X-18988735Y3409775D01*
X-19039426Y3310287D01*
X-19039426Y3310286D01*
X-19051604Y3233401D01*
X-19071199Y3201426D01*
X-19079463Y3199443D01*
X-19125186Y3199443D01*
X-19120538Y3200559D01*
X-19139642Y3212267D01*
X-19148397Y3233400D01*
X-19160574Y3310286D01*
X-19211267Y3409777D01*
X-19290223Y3488733D01*
X-19290226Y3488735D01*
X-19389714Y3539426D01*
X-19500000Y3556894D01*
X-19610287Y3539426D01*
X-19709775Y3488735D01*
X-19709778Y3488733D01*
X-19788733Y3409778D01*
X-19788735Y3409775D01*
X-19839426Y3310287D01*
X-19856894Y3200000D01*
X-20743106Y3200000D01*
X-20760574Y3310286D01*
X-20811267Y3409777D01*
X-20890223Y3488733D01*
X-20890226Y3488735D01*
X-20989714Y3539426D01*
X-21100000Y3556894D01*
X-21210287Y3539426D01*
X-21309775Y3488735D01*
X-21309778Y3488733D01*
X-21388733Y3409778D01*
X-21388735Y3409775D01*
X-21439426Y3310287D01*
X-21439426Y3310286D01*
X-21451604Y3233401D01*
X-21471199Y3201426D01*
X-21479463Y3199443D01*
X-21525186Y3199443D01*
X-21520538Y3200559D01*
X-21539642Y3212267D01*
X-21548397Y3233400D01*
X-21560574Y3310286D01*
X-21611267Y3409777D01*
X-21690223Y3488733D01*
X-21690226Y3488735D01*
X-21789714Y3539426D01*
X-21900000Y3556894D01*
X-22010287Y3539426D01*
X-22109775Y3488735D01*
X-22109778Y3488733D01*
X-22188733Y3409778D01*
X-22188735Y3409775D01*
X-22239426Y3310287D01*
X-22256894Y3200000D01*
X-23143106Y3200000D01*
X-23160574Y3310286D01*
X-23211267Y3409777D01*
X-23290223Y3488733D01*
X-23290226Y3488735D01*
X-23389714Y3539426D01*
X-23500000Y3556894D01*
X-23610287Y3539426D01*
X-23709775Y3488735D01*
X-23709778Y3488733D01*
X-23788733Y3409778D01*
X-23788735Y3409775D01*
X-23839426Y3310287D01*
X-23839426Y3310286D01*
X-23851604Y3233401D01*
X-23871199Y3201426D01*
X-23879463Y3199443D01*
X-23925186Y3199443D01*
X-23920538Y3200559D01*
X-23939642Y3212267D01*
X-23948397Y3233400D01*
X-23960574Y3310286D01*
X-24011267Y3409777D01*
X-24090223Y3488733D01*
X-24090226Y3488735D01*
X-24189714Y3539426D01*
X-24300000Y3556894D01*
X-24410287Y3539426D01*
X-24509775Y3488735D01*
X-24509778Y3488733D01*
X-24588733Y3409778D01*
X-24588735Y3409775D01*
X-24639426Y3310287D01*
X-24656894Y3200000D01*
X-25543106Y3200000D01*
X-25560574Y3310286D01*
X-25611267Y3409777D01*
X-25690223Y3488733D01*
X-25690226Y3488735D01*
X-25789714Y3539426D01*
X-25900000Y3556894D01*
X-26010287Y3539426D01*
X-26109775Y3488735D01*
X-26109778Y3488733D01*
X-26188733Y3409778D01*
X-26188735Y3409775D01*
X-26239426Y3310287D01*
X-26239426Y3310286D01*
X-26251604Y3233401D01*
X-26271199Y3201426D01*
X-26279463Y3199443D01*
X-26325186Y3199443D01*
X-26320538Y3200559D01*
X-26339642Y3212267D01*
X-26348397Y3233400D01*
X-26360574Y3310286D01*
X-26411267Y3409777D01*
X-26490223Y3488733D01*
X-26490226Y3488735D01*
X-26589714Y3539426D01*
X-26700000Y3556894D01*
X-26810287Y3539426D01*
X-26909775Y3488735D01*
X-26909778Y3488733D01*
X-26988733Y3409778D01*
X-26988735Y3409775D01*
X-27039426Y3310287D01*
X-27056894Y3200000D01*
X-27943106Y3200000D01*
X-27960574Y3310286D01*
X-28011267Y3409777D01*
X-28090223Y3488733D01*
X-28090226Y3488735D01*
X-28189714Y3539426D01*
X-28300000Y3556894D01*
X-28410287Y3539426D01*
X-28509775Y3488735D01*
X-28509778Y3488733D01*
X-28588733Y3409778D01*
X-28588735Y3409775D01*
X-28639426Y3310287D01*
X-28639426Y3310286D01*
X-28651604Y3233401D01*
X-28671199Y3201426D01*
X-28679463Y3199443D01*
X-28725186Y3199443D01*
X-28720538Y3200559D01*
X-28739642Y3212267D01*
X-28748397Y3233400D01*
X-28760574Y3310286D01*
X-28811267Y3409777D01*
X-28890223Y3488733D01*
X-28890226Y3488735D01*
X-28989714Y3539426D01*
X-29100000Y3556894D01*
X-29210287Y3539426D01*
X-29309775Y3488735D01*
X-29309778Y3488733D01*
X-29388733Y3409778D01*
X-29388735Y3409775D01*
X-29439426Y3310287D01*
X-29456894Y3200000D01*
X-30343106Y3200000D01*
X-30360574Y3310286D01*
X-30411267Y3409777D01*
X-30490223Y3488733D01*
X-30490226Y3488735D01*
X-30589714Y3539426D01*
X-30700000Y3556894D01*
X-30810287Y3539426D01*
X-30909775Y3488735D01*
X-30909778Y3488733D01*
X-30988733Y3409778D01*
X-30988735Y3409775D01*
X-31039426Y3310287D01*
X-31039426Y3310286D01*
X-31051604Y3233401D01*
X-31071199Y3201426D01*
X-31079463Y3199443D01*
X-31125186Y3199443D01*
X-31120538Y3200559D01*
X-31139642Y3212267D01*
X-31148397Y3233400D01*
X-31160574Y3310286D01*
X-31211267Y3409777D01*
X-31290223Y3488733D01*
X-31290226Y3488735D01*
X-31389714Y3539426D01*
X-31500000Y3556894D01*
X-31610287Y3539426D01*
X-31709775Y3488735D01*
X-31709778Y3488733D01*
X-31788733Y3409778D01*
X-31788735Y3409775D01*
X-31839426Y3310287D01*
X-31856894Y3200000D01*
X-32743106Y3200000D01*
X-32760574Y3310286D01*
X-32811267Y3409777D01*
X-32890223Y3488733D01*
X-32890226Y3488735D01*
X-32989714Y3539426D01*
X-33100000Y3556894D01*
X-33210287Y3539426D01*
X-33309775Y3488735D01*
X-33309778Y3488733D01*
X-33388733Y3409778D01*
X-33388735Y3409775D01*
X-33439426Y3310287D01*
X-33456894Y3200000D01*
X-35943106Y3200000D01*
X-35960574Y3310286D01*
X-36011267Y3409777D01*
X-36090223Y3488733D01*
X-36090226Y3488735D01*
X-36189714Y3539426D01*
X-36300000Y3556894D01*
X-36410287Y3539426D01*
X-36509775Y3488735D01*
X-36509778Y3488733D01*
X-36588733Y3409778D01*
X-36588735Y3409775D01*
X-36639426Y3310287D01*
X-36656894Y3200000D01*
X-37543106Y3200000D01*
X-37560574Y3310286D01*
X-37611267Y3409777D01*
X-37690223Y3488733D01*
X-37690226Y3488735D01*
X-37789714Y3539426D01*
X-37900000Y3556894D01*
X-38010287Y3539426D01*
X-38109775Y3488735D01*
X-38109778Y3488733D01*
X-38188733Y3409778D01*
X-38188735Y3409775D01*
X-38239426Y3310287D01*
X-38239426Y3310286D01*
X-38251604Y3233401D01*
X-38271199Y3201426D01*
X-38279463Y3199443D01*
X-38325186Y3199443D01*
X-38320538Y3200559D01*
X-38339642Y3212267D01*
X-38348397Y3233400D01*
X-38360574Y3310286D01*
X-38411267Y3409777D01*
X-38490223Y3488733D01*
X-38490226Y3488735D01*
X-38589714Y3539426D01*
X-38700000Y3556894D01*
X-38810287Y3539426D01*
X-38909775Y3488735D01*
X-38909778Y3488733D01*
X-38988733Y3409778D01*
X-38988735Y3409775D01*
X-39039426Y3310287D01*
X-39056894Y3200000D01*
X-39943106Y3200000D01*
X-39960574Y3310286D01*
X-40011267Y3409777D01*
X-40090223Y3488733D01*
X-40090226Y3488735D01*
X-40189714Y3539426D01*
X-40300000Y3556894D01*
X-40410287Y3539426D01*
X-40509775Y3488735D01*
X-40509778Y3488733D01*
X-40588733Y3409778D01*
X-40588735Y3409775D01*
X-40639426Y3310287D01*
X-40639426Y3310286D01*
X-40651604Y3233401D01*
X-40671199Y3201426D01*
X-40679463Y3199443D01*
X-40725186Y3199443D01*
X-40720538Y3200559D01*
X-40739642Y3212267D01*
X-40748397Y3233400D01*
X-40760574Y3310286D01*
X-40811267Y3409777D01*
X-40890223Y3488733D01*
X-40890226Y3488735D01*
X-40989714Y3539426D01*
X-41100000Y3556894D01*
X-41210287Y3539426D01*
X-41309775Y3488735D01*
X-41309778Y3488733D01*
X-41388733Y3409778D01*
X-41388735Y3409775D01*
X-41439426Y3310287D01*
X-41456894Y3200000D01*
X-42343106Y3200000D01*
X-42360574Y3310286D01*
X-42411267Y3409777D01*
X-42490223Y3488733D01*
X-42490226Y3488735D01*
X-42589714Y3539426D01*
X-42700000Y3556894D01*
X-42810287Y3539426D01*
X-42909775Y3488735D01*
X-42909778Y3488733D01*
X-42988733Y3409778D01*
X-42988735Y3409775D01*
X-43039426Y3310287D01*
X-43039426Y3310286D01*
X-43051604Y3233401D01*
X-43071199Y3201426D01*
X-43079463Y3199443D01*
X-43125186Y3199443D01*
X-43120538Y3200559D01*
X-43139642Y3212267D01*
X-43148397Y3233400D01*
X-43160574Y3310286D01*
X-43211267Y3409777D01*
X-43290223Y3488733D01*
X-43290226Y3488735D01*
X-43389714Y3539426D01*
X-43500000Y3556894D01*
X-43610287Y3539426D01*
X-43709775Y3488735D01*
X-43709778Y3488733D01*
X-43788733Y3409778D01*
X-43788735Y3409775D01*
X-43839426Y3310287D01*
X-43856894Y3200000D01*
X-44743106Y3200000D01*
X-44760574Y3310286D01*
X-44811267Y3409777D01*
X-44890223Y3488733D01*
X-44890226Y3488735D01*
X-44989714Y3539426D01*
X-45100000Y3556894D01*
X-45210287Y3539426D01*
X-45309775Y3488735D01*
X-45309778Y3488733D01*
X-45388733Y3409778D01*
X-45388735Y3409775D01*
X-45439426Y3310287D01*
X-45439426Y3310286D01*
X-45451604Y3233401D01*
X-45471199Y3201426D01*
X-45479463Y3199443D01*
X-45525186Y3199443D01*
X-45520538Y3200559D01*
X-45539642Y3212267D01*
X-45548397Y3233400D01*
X-45560574Y3310286D01*
X-45611267Y3409777D01*
X-45690223Y3488733D01*
X-45690226Y3488735D01*
X-45789714Y3539426D01*
X-45900000Y3556894D01*
X-46010287Y3539426D01*
X-46109775Y3488735D01*
X-46109778Y3488733D01*
X-46188733Y3409778D01*
X-46188735Y3409775D01*
X-46239426Y3310287D01*
X-46256894Y3200000D01*
X-47143106Y3200000D01*
X-47160574Y3310286D01*
X-47211267Y3409777D01*
X-47290223Y3488733D01*
X-47290226Y3488735D01*
X-47389714Y3539426D01*
X-47500000Y3556894D01*
X-47610287Y3539426D01*
X-47709775Y3488735D01*
X-47709778Y3488733D01*
X-47788733Y3409778D01*
X-47788735Y3409775D01*
X-47839426Y3310287D01*
X-47839426Y3310286D01*
X-47851604Y3233401D01*
X-47871199Y3201426D01*
X-47879463Y3199443D01*
X-47925186Y3199443D01*
X-47920538Y3200559D01*
X-47939642Y3212267D01*
X-47948397Y3233400D01*
X-47960574Y3310286D01*
X-48011267Y3409777D01*
X-48090223Y3488733D01*
X-48090226Y3488735D01*
X-48189714Y3539426D01*
X-48300000Y3556894D01*
X-48410287Y3539426D01*
X-48509775Y3488735D01*
X-48509778Y3488733D01*
X-48588733Y3409778D01*
X-48588735Y3409775D01*
X-48639426Y3310287D01*
X-48656894Y3200000D01*
X-49543106Y3200000D01*
X-49560574Y3310286D01*
X-49611267Y3409777D01*
X-49690223Y3488733D01*
X-49690226Y3488735D01*
X-49789714Y3539426D01*
X-49900000Y3556894D01*
X-50010287Y3539426D01*
X-50109775Y3488735D01*
X-50109778Y3488733D01*
X-50188733Y3409778D01*
X-50188735Y3409775D01*
X-50239426Y3310287D01*
X-50239426Y3310286D01*
X-50251604Y3233401D01*
X-50271199Y3201426D01*
X-50279463Y3199443D01*
X-50325186Y3199443D01*
X-50320538Y3200559D01*
X-50339642Y3212267D01*
X-50348397Y3233400D01*
X-50360574Y3310286D01*
X-50411267Y3409777D01*
X-50490223Y3488733D01*
X-50490226Y3488735D01*
X-50589714Y3539426D01*
X-50700000Y3556894D01*
X-50810287Y3539426D01*
X-50909775Y3488735D01*
X-50909778Y3488733D01*
X-50988733Y3409778D01*
X-50988735Y3409775D01*
X-51039426Y3310287D01*
X-51056894Y3200000D01*
X-51943106Y3200000D01*
X-51960574Y3310286D01*
X-52011267Y3409777D01*
X-52090223Y3488733D01*
X-52090226Y3488735D01*
X-52189714Y3539426D01*
X-52300000Y3556894D01*
X-52410287Y3539426D01*
X-52509775Y3488735D01*
X-52509778Y3488733D01*
X-52588733Y3409778D01*
X-52588735Y3409775D01*
X-52639426Y3310287D01*
X-52639426Y3310286D01*
X-52651604Y3233401D01*
X-52671199Y3201426D01*
X-52679463Y3199443D01*
X-52725186Y3199443D01*
X-52720538Y3200559D01*
X-52739642Y3212267D01*
X-52748397Y3233400D01*
X-52760574Y3310286D01*
X-52811267Y3409777D01*
X-52890223Y3488733D01*
X-52890226Y3488735D01*
X-52989714Y3539426D01*
X-53100000Y3556894D01*
X-53210287Y3539426D01*
X-53309775Y3488735D01*
X-53309778Y3488733D01*
X-53388733Y3409778D01*
X-53388735Y3409775D01*
X-53439426Y3310287D01*
X-53456894Y3200000D01*
X-56212616Y3200000D01*
X-57082067Y4069451D01*
X-15927500Y4069451D01*
X-15927500Y3930550D01*
X-15891553Y3796395D01*
X-15891552Y3796391D01*
X-15837736Y3703180D01*
X-15822105Y3676107D01*
X-15723893Y3577895D01*
X-15687518Y3556894D01*
X-15603610Y3508449D01*
X-15603608Y3508449D01*
X-15603607Y3508448D01*
X-15572082Y3500001D01*
X-15469451Y3472501D01*
X-15469450Y3472500D01*
X-15469447Y3472500D01*
X-15330550Y3472500D01*
X-15330550Y3472501D01*
X-15196393Y3508448D01*
X-15076107Y3577895D01*
X-14977895Y3676107D01*
X-14908448Y3796393D01*
X-14872501Y3930550D01*
X-14872500Y3930550D01*
X-14872500Y4069450D01*
X-14872501Y4069451D01*
X-14890443Y4136411D01*
X-14908448Y4203607D01*
X-14908449Y4203608D01*
X-14908449Y4203610D01*
X-14959299Y4291684D01*
X-14977895Y4323893D01*
X-15076107Y4422105D01*
X-15196391Y4491552D01*
X-15196395Y4491553D01*
X-15330550Y4527500D01*
X-15330553Y4527500D01*
X-15469447Y4527500D01*
X-15469450Y4527500D01*
X-15603606Y4491553D01*
X-15603610Y4491552D01*
X-15723894Y4422105D01*
X-15723894Y4422104D01*
X-15822104Y4323894D01*
X-15822105Y4323894D01*
X-15891552Y4203610D01*
X-15891553Y4203606D01*
X-15927500Y4069451D01*
X-57082067Y4069451D01*
X-60044316Y7031700D01*
X-60053947Y7040429D01*
X-60057419Y7043279D01*
X-60058658Y7045476D01*
X-60071973Y7054373D01*
X-60071972Y7054373D01*
X-60092126Y7067840D01*
X-60092200Y7067891D01*
X-60124582Y7089527D01*
X-60124600Y7089538D01*
X-60147480Y7101767D01*
X-60147495Y7101774D01*
X-60147502Y7101778D01*
X-60150255Y7102919D01*
X-60165153Y7109089D01*
X-60165160Y7109092D01*
X-60165166Y7109094D01*
X-60168664Y7110155D01*
X-60190018Y7116633D01*
X-60190024Y7116634D01*
X-60252216Y7129005D01*
X-60252269Y7129014D01*
X-60265099Y7130918D01*
X-60274662Y7131860D01*
X-60274665Y7131861D01*
X-60281669Y7132206D01*
X-60287666Y7132500D01*
X-60287672Y7132500D01*
X-65782128Y7132500D01*
X-65791685Y7133442D01*
X-65804075Y7135907D01*
X-65815278Y7138135D01*
X-65832934Y7145447D01*
X-65834724Y7146643D01*
X-65837789Y7148691D01*
X-65851309Y7162209D01*
X-65854551Y7167060D01*
X-65861866Y7184723D01*
X-65866559Y7208322D01*
X-65867500Y7217879D01*
X-65867500Y7900000D01*
X-62756894Y7900000D01*
X-62739426Y7789714D01*
X-62688733Y7690223D01*
X-62609777Y7611267D01*
X-62510286Y7560574D01*
X-62400000Y7543106D01*
X-62289714Y7560574D01*
X-62190223Y7611267D01*
X-62134884Y7666606D01*
X-53776200Y7666606D01*
X-53776200Y7533395D01*
X-53750217Y7402772D01*
X-53750213Y7402757D01*
X-53750213Y7402756D01*
X-53699240Y7279699D01*
X-53657933Y7217879D01*
X-53635780Y7184723D01*
X-53625239Y7168948D01*
X-53531052Y7074761D01*
X-53420301Y7000760D01*
X-53297240Y6949786D01*
X-53296224Y6949584D01*
X-53166606Y6923801D01*
X-53166603Y6923801D01*
X-53166600Y6923800D01*
X-53166599Y6923800D01*
X-53033401Y6923800D01*
X-53033400Y6923800D01*
X-52902760Y6949786D01*
X-52779699Y7000760D01*
X-52727222Y7035825D01*
X-52690441Y7043140D01*
X-52672781Y7035826D01*
X-52620301Y7000760D01*
X-52497240Y6949786D01*
X-52496224Y6949584D01*
X-52366606Y6923801D01*
X-52366603Y6923801D01*
X-52366600Y6923800D01*
X-52366599Y6923800D01*
X-52233401Y6923800D01*
X-52233400Y6923800D01*
X-52102760Y6949786D01*
X-51979699Y7000760D01*
X-51868948Y7074761D01*
X-51446681Y7497029D01*
X-51412034Y7511380D01*
X-51377386Y7497028D01*
X-51363976Y7471940D01*
X-51350217Y7402771D01*
X-51350213Y7402757D01*
X-51350213Y7402756D01*
X-51299240Y7279699D01*
X-51257933Y7217879D01*
X-51235780Y7184723D01*
X-51225239Y7168948D01*
X-51131052Y7074761D01*
X-51020301Y7000760D01*
X-50897240Y6949786D01*
X-50896224Y6949584D01*
X-50766606Y6923801D01*
X-50766603Y6923801D01*
X-50766600Y6923800D01*
X-50766599Y6923800D01*
X-50633401Y6923800D01*
X-50633400Y6923800D01*
X-50502760Y6949786D01*
X-50379699Y7000760D01*
X-50327222Y7035825D01*
X-50290441Y7043140D01*
X-50272781Y7035826D01*
X-50220301Y7000760D01*
X-50097240Y6949786D01*
X-50096224Y6949584D01*
X-49966606Y6923801D01*
X-49966603Y6923801D01*
X-49966600Y6923800D01*
X-49966599Y6923800D01*
X-49833401Y6923800D01*
X-49833400Y6923800D01*
X-49702760Y6949786D01*
X-49579699Y7000760D01*
X-49468948Y7074761D01*
X-49046681Y7497029D01*
X-49012034Y7511380D01*
X-48977386Y7497028D01*
X-48963976Y7471940D01*
X-48950217Y7402771D01*
X-48950213Y7402757D01*
X-48950213Y7402756D01*
X-48899240Y7279699D01*
X-48857933Y7217879D01*
X-48835780Y7184723D01*
X-48825239Y7168948D01*
X-48731052Y7074761D01*
X-48620301Y7000760D01*
X-48497240Y6949786D01*
X-48496224Y6949584D01*
X-48366606Y6923801D01*
X-48366603Y6923801D01*
X-48366600Y6923800D01*
X-48366599Y6923800D01*
X-48233401Y6923800D01*
X-48233400Y6923800D01*
X-48102760Y6949786D01*
X-47979699Y7000760D01*
X-47927222Y7035825D01*
X-47890441Y7043140D01*
X-47872781Y7035826D01*
X-47820301Y7000760D01*
X-47697240Y6949786D01*
X-47696224Y6949584D01*
X-47566606Y6923801D01*
X-47566603Y6923801D01*
X-47566600Y6923800D01*
X-47566599Y6923800D01*
X-47433401Y6923800D01*
X-47433400Y6923800D01*
X-47302760Y6949786D01*
X-47179699Y7000760D01*
X-47068948Y7074761D01*
X-46646681Y7497029D01*
X-46612034Y7511380D01*
X-46577386Y7497028D01*
X-46563976Y7471940D01*
X-46550217Y7402771D01*
X-46550213Y7402757D01*
X-46550213Y7402756D01*
X-46499240Y7279699D01*
X-46457933Y7217879D01*
X-46435780Y7184723D01*
X-46425239Y7168948D01*
X-46331052Y7074761D01*
X-46220301Y7000760D01*
X-46097240Y6949786D01*
X-46096224Y6949584D01*
X-45966606Y6923801D01*
X-45966603Y6923801D01*
X-45966600Y6923800D01*
X-45966599Y6923800D01*
X-45833401Y6923800D01*
X-45833400Y6923800D01*
X-45702760Y6949786D01*
X-45579699Y7000760D01*
X-45527222Y7035825D01*
X-45490442Y7043141D01*
X-45472782Y7035826D01*
X-45420301Y7000759D01*
X-45297240Y6949785D01*
X-45166600Y6923800D01*
X-45166597Y6923800D01*
X-45033403Y6923800D01*
X-45033400Y6923800D01*
X-44902759Y6949785D01*
X-44779699Y7000759D01*
X-44668948Y7074761D01*
X-44574761Y7168948D01*
X-44500759Y7279699D01*
X-44449785Y7402759D01*
X-44436025Y7471942D01*
X-44415191Y7503122D01*
X-44378408Y7510439D01*
X-44353319Y7497028D01*
X-43931052Y7074761D01*
X-43820301Y7000760D01*
X-43697240Y6949786D01*
X-43696224Y6949584D01*
X-43566606Y6923801D01*
X-43566603Y6923801D01*
X-43566600Y6923800D01*
X-43566599Y6923800D01*
X-43433401Y6923800D01*
X-43433400Y6923800D01*
X-43302760Y6949786D01*
X-43179699Y7000760D01*
X-43127222Y7035825D01*
X-43090442Y7043141D01*
X-43072782Y7035826D01*
X-43020301Y7000759D01*
X-42897240Y6949785D01*
X-42766600Y6923800D01*
X-42766597Y6923800D01*
X-42633402Y6923800D01*
X-42633399Y6923800D01*
X-42502759Y6949785D01*
X-42379699Y7000759D01*
X-42268947Y7074761D01*
X-42174761Y7168947D01*
X-42100759Y7279699D01*
X-42049785Y7402759D01*
X-42036025Y7471942D01*
X-42015191Y7503122D01*
X-41978408Y7510439D01*
X-41953319Y7497028D01*
X-41531052Y7074761D01*
X-41420301Y7000760D01*
X-41297240Y6949786D01*
X-41296224Y6949584D01*
X-41166606Y6923801D01*
X-41166603Y6923801D01*
X-41166600Y6923800D01*
X-41166599Y6923800D01*
X-41033401Y6923800D01*
X-41033400Y6923800D01*
X-40902760Y6949786D01*
X-40779699Y7000760D01*
X-40727222Y7035825D01*
X-40690442Y7043141D01*
X-40672781Y7035825D01*
X-40620301Y7000760D01*
X-40497241Y6949786D01*
X-40496225Y6949584D01*
X-40366607Y6923801D01*
X-40366604Y6923801D01*
X-40366601Y6923800D01*
X-40366600Y6923800D01*
X-40233401Y6923800D01*
X-40233400Y6923800D01*
X-40102760Y6949786D01*
X-39979699Y7000760D01*
X-39868948Y7074761D01*
X-39774761Y7168948D01*
X-39700760Y7279699D01*
X-39649786Y7402760D01*
X-39636153Y7471302D01*
X-39615318Y7502482D01*
X-39578536Y7509799D01*
X-39553482Y7496424D01*
X-39165361Y7109095D01*
X-39130516Y7074321D01*
X-39019689Y7000433D01*
X-38896576Y6949585D01*
X-38765910Y6923733D01*
X-38632709Y6923869D01*
X-38502096Y6949988D01*
X-38379087Y7001087D01*
X-38327259Y7035795D01*
X-38290488Y7043148D01*
X-38272778Y7035824D01*
X-38220301Y7000760D01*
X-38097241Y6949786D01*
X-37966600Y6923800D01*
X-37966597Y6923800D01*
X-37833401Y6923800D01*
X-37833400Y6923800D01*
X-37702760Y6949786D01*
X-37579699Y7000760D01*
X-37468948Y7074761D01*
X-37374761Y7168948D01*
X-37300760Y7279699D01*
X-37249786Y7402760D01*
X-37223800Y7533400D01*
X-37223800Y7666600D01*
X-37249786Y7797241D01*
X-37300760Y7920301D01*
X-37374761Y8031052D01*
X-39809448Y10465739D01*
X-39823800Y10500387D01*
X-39823800Y10642606D01*
X-39809448Y10677254D01*
X-39802029Y10683344D01*
X-39685140Y10761447D01*
X-39558292Y10888306D01*
X-39458637Y11037479D01*
X-39390005Y11203230D01*
X-39355035Y11379187D01*
X-39355052Y11468887D01*
X-39355052Y11469619D01*
X-39355052Y11579678D01*
X-39355027Y11579741D01*
X-39355027Y11600000D01*
X-39355026Y11600000D01*
X-39355027Y11689690D01*
X-39372298Y11776510D01*
X-39390022Y11865614D01*
X-39390023Y11865616D01*
X-39390024Y11865623D01*
X-39440896Y11988429D01*
X-39458673Y12031343D01*
X-39458674Y12031345D01*
X-39458675Y12031347D01*
X-39509331Y12107150D01*
X-39516648Y12143931D01*
X-39509333Y12161594D01*
X-39507817Y12163863D01*
X-39458637Y12237479D01*
X-39390005Y12403230D01*
X-39355035Y12579187D01*
X-39355052Y12668887D01*
X-39355052Y12669507D01*
X-39355052Y12779678D01*
X-39355027Y12779741D01*
X-39355027Y12800000D01*
X-39355026Y12800000D01*
X-39355027Y12889690D01*
X-39372298Y12976510D01*
X-39390022Y13065614D01*
X-39390023Y13065616D01*
X-39390024Y13065623D01*
X-39440896Y13188429D01*
X-39458673Y13231343D01*
X-39458674Y13231345D01*
X-39458675Y13231347D01*
X-39509331Y13307150D01*
X-39516648Y13343931D01*
X-39509333Y13361594D01*
X-39494828Y13383306D01*
X-39458637Y13437479D01*
X-39390005Y13603230D01*
X-39355035Y13779187D01*
X-39355052Y13868887D01*
X-39355052Y13869619D01*
X-39355052Y13979678D01*
X-39355027Y13979741D01*
X-39355027Y14000000D01*
X-39355026Y14000000D01*
X-39355027Y14089690D01*
X-39372298Y14176510D01*
X-39390022Y14265614D01*
X-39390023Y14265616D01*
X-39390024Y14265623D01*
X-39458675Y14431347D01*
X-39509303Y14507111D01*
X-39516621Y14543893D01*
X-39509310Y14561548D01*
X-39458520Y14637586D01*
X-39389899Y14803336D01*
X-39354934Y14979290D01*
X-39354952Y15068986D01*
X-39354952Y15071428D01*
X-39354952Y15266600D01*
X-39354952Y15268754D01*
X-39354976Y15269246D01*
X-39354976Y15289681D01*
X-39358906Y15309440D01*
X-39389966Y15465602D01*
X-39458602Y15631316D01*
X-39509276Y15707161D01*
X-39516590Y15743941D01*
X-39509281Y15761593D01*
X-39458520Y15837586D01*
X-39389899Y16003336D01*
X-39354934Y16179290D01*
X-39354952Y16268986D01*
X-39354952Y16271428D01*
X-39354952Y16466600D01*
X-39354952Y16468754D01*
X-39354976Y16469246D01*
X-39354976Y16489681D01*
X-39358906Y16509440D01*
X-39389966Y16665602D01*
X-39458602Y16831316D01*
X-39514423Y16914866D01*
X-39558244Y16980455D01*
X-39558247Y16980458D01*
X-39685068Y17107293D01*
X-39685069Y17107294D01*
X-39802026Y17185453D01*
X-39822859Y17216637D01*
X-39823800Y17226193D01*
X-39823800Y24901000D01*
X-39809448Y24935648D01*
X-39774800Y24950000D01*
X-39650001Y24950000D01*
X-39650000Y24950000D01*
X-39536598Y25063403D01*
X-39501951Y25077754D01*
X-39467303Y25063402D01*
X-39452951Y25028754D01*
X-39453554Y25021090D01*
X-39456894Y25000000D01*
X-39439426Y24889714D01*
X-39388733Y24790223D01*
X-39309777Y24711267D01*
X-39210286Y24660574D01*
X-39100000Y24643106D01*
X-38989714Y24660574D01*
X-38890223Y24711267D01*
X-38811267Y24790223D01*
X-38760574Y24889714D01*
X-38743106Y25000000D01*
X-38760574Y25110286D01*
X-38811267Y25209777D01*
X-38890223Y25288733D01*
X-38890226Y25288735D01*
X-38989714Y25339426D01*
X-39100000Y25356894D01*
X-39210287Y25339426D01*
X-39278755Y25304540D01*
X-39316143Y25301598D01*
X-39344660Y25325955D01*
X-39350000Y25348200D01*
X-39350000Y25559577D01*
X-38752500Y25559577D01*
X-38752500Y25440424D01*
X-38721664Y25325343D01*
X-38721663Y25325339D01*
X-38666642Y25230042D01*
X-38662090Y25222158D01*
X-38577842Y25137910D01*
X-38540077Y25116106D01*
X-38474662Y25078338D01*
X-38474660Y25078338D01*
X-38474659Y25078337D01*
X-38418920Y25063402D01*
X-38359577Y25047501D01*
X-38359576Y25047500D01*
X-38359573Y25047500D01*
X-38240424Y25047500D01*
X-38240424Y25047501D01*
X-38125341Y25078337D01*
X-38022158Y25137910D01*
X-37937910Y25222158D01*
X-37878337Y25325341D01*
X-37847501Y25440424D01*
X-37847500Y25440424D01*
X-37847500Y25559576D01*
X-37847501Y25559577D01*
X-37152500Y25559577D01*
X-37152500Y25440424D01*
X-37121664Y25325343D01*
X-37121663Y25325339D01*
X-37066642Y25230042D01*
X-37062090Y25222158D01*
X-36977842Y25137910D01*
X-36940077Y25116106D01*
X-36874662Y25078338D01*
X-36874660Y25078338D01*
X-36874659Y25078337D01*
X-36818920Y25063402D01*
X-36759577Y25047501D01*
X-36759576Y25047500D01*
X-36759573Y25047500D01*
X-36640424Y25047500D01*
X-36640424Y25047501D01*
X-36525341Y25078337D01*
X-36422158Y25137910D01*
X-36337910Y25222158D01*
X-36278337Y25325341D01*
X-36247501Y25440424D01*
X-36247500Y25440424D01*
X-36247500Y25559576D01*
X-36247501Y25559577D01*
X-36278337Y25674658D01*
X-36278338Y25674662D01*
X-36327792Y25760317D01*
X-36337910Y25777842D01*
X-36422158Y25862090D01*
X-36525339Y25921663D01*
X-36525343Y25921664D01*
X-36640424Y25952500D01*
X-36640427Y25952500D01*
X-36759573Y25952500D01*
X-36759576Y25952500D01*
X-36874658Y25921664D01*
X-36874662Y25921663D01*
X-36977843Y25862090D01*
X-36977843Y25862089D01*
X-37062089Y25777843D01*
X-37062090Y25777843D01*
X-37121663Y25674662D01*
X-37121664Y25674658D01*
X-37152500Y25559577D01*
X-37847501Y25559577D01*
X-37878337Y25674658D01*
X-37878338Y25674662D01*
X-37927792Y25760317D01*
X-37937910Y25777842D01*
X-38022158Y25862090D01*
X-38125339Y25921663D01*
X-38125343Y25921664D01*
X-38240424Y25952500D01*
X-38240427Y25952500D01*
X-38359573Y25952500D01*
X-38359576Y25952500D01*
X-38474658Y25921664D01*
X-38474662Y25921663D01*
X-38577843Y25862090D01*
X-38577843Y25862089D01*
X-38662089Y25777843D01*
X-38662090Y25777843D01*
X-38721663Y25674662D01*
X-38721664Y25674658D01*
X-38752500Y25559577D01*
X-39350000Y25559577D01*
X-39350000Y25750000D01*
X-39650000Y26050000D01*
X-39896146Y26050000D01*
X-39930794Y26064352D01*
X-39945146Y26099000D01*
X-39936888Y26126223D01*
X-39879833Y26211611D01*
X-39810067Y26380042D01*
X-39774500Y26558846D01*
X-39774500Y26709577D01*
X-39552500Y26709577D01*
X-39552500Y26590424D01*
X-39521664Y26475343D01*
X-39521663Y26475339D01*
X-39466642Y26380042D01*
X-39462090Y26372158D01*
X-39377842Y26287910D01*
X-39340077Y26266106D01*
X-39274662Y26228338D01*
X-39274660Y26228338D01*
X-39274659Y26228337D01*
X-39212251Y26211615D01*
X-39159577Y26197501D01*
X-39159576Y26197500D01*
X-39159573Y26197500D01*
X-39040424Y26197500D01*
X-39040424Y26197501D01*
X-38925341Y26228337D01*
X-38822158Y26287910D01*
X-38737910Y26372158D01*
X-38678337Y26475341D01*
X-38647501Y26590424D01*
X-38647500Y26590424D01*
X-38647500Y26709576D01*
X-38647501Y26709577D01*
X-37952500Y26709577D01*
X-37952500Y26590424D01*
X-37921664Y26475343D01*
X-37921663Y26475339D01*
X-37866642Y26380042D01*
X-37862090Y26372158D01*
X-37777842Y26287910D01*
X-37740077Y26266106D01*
X-37674662Y26228338D01*
X-37674660Y26228338D01*
X-37674659Y26228337D01*
X-37612251Y26211615D01*
X-37559577Y26197501D01*
X-37559576Y26197500D01*
X-37559573Y26197500D01*
X-37440424Y26197500D01*
X-37440424Y26197501D01*
X-37325341Y26228337D01*
X-37222158Y26287910D01*
X-37137910Y26372158D01*
X-37078337Y26475341D01*
X-37047501Y26590424D01*
X-37047500Y26590424D01*
X-37047500Y26709576D01*
X-37047501Y26709577D01*
X-37064361Y26772500D01*
X-37078337Y26824659D01*
X-37078338Y26824660D01*
X-37078338Y26824662D01*
X-37133358Y26919958D01*
X-37137910Y26927842D01*
X-37222158Y27012090D01*
X-37232600Y27018119D01*
X-37325339Y27071663D01*
X-37325343Y27071664D01*
X-37440424Y27102500D01*
X-37440427Y27102500D01*
X-37559573Y27102500D01*
X-37559576Y27102500D01*
X-37674658Y27071664D01*
X-37674662Y27071663D01*
X-37777843Y27012090D01*
X-37777843Y27012089D01*
X-37862089Y26927843D01*
X-37862090Y26927843D01*
X-37921663Y26824662D01*
X-37921664Y26824658D01*
X-37952500Y26709577D01*
X-38647501Y26709577D01*
X-38664361Y26772500D01*
X-38678337Y26824659D01*
X-38678338Y26824660D01*
X-38678338Y26824662D01*
X-38733358Y26919958D01*
X-38737910Y26927842D01*
X-38822158Y27012090D01*
X-38832600Y27018119D01*
X-38925339Y27071663D01*
X-38925343Y27071664D01*
X-39040424Y27102500D01*
X-39040427Y27102500D01*
X-39159573Y27102500D01*
X-39159576Y27102500D01*
X-39274658Y27071664D01*
X-39274662Y27071663D01*
X-39377843Y27012090D01*
X-39377843Y27012089D01*
X-39462089Y26927843D01*
X-39462090Y26927843D01*
X-39521663Y26824662D01*
X-39521664Y26824658D01*
X-39552500Y26709577D01*
X-39774500Y26709577D01*
X-39774500Y26741154D01*
X-39810067Y26919958D01*
X-39879833Y27088389D01*
X-39981117Y27239972D01*
X-40110028Y27368883D01*
X-40131563Y27383272D01*
X-40232544Y27450745D01*
X-40261611Y27470167D01*
X-40304449Y27487911D01*
X-40393552Y27524819D01*
X-40420070Y27551338D01*
X-40423800Y27570089D01*
X-40423800Y27909577D01*
X-39152500Y27909577D01*
X-39152500Y27790424D01*
X-39121664Y27675343D01*
X-39121663Y27675339D01*
X-39062090Y27572158D01*
X-38977842Y27487910D01*
X-38947112Y27470168D01*
X-38874662Y27428338D01*
X-38874660Y27428338D01*
X-38874659Y27428337D01*
X-38783895Y27404017D01*
X-38759577Y27397501D01*
X-38759576Y27397500D01*
X-38759573Y27397500D01*
X-38640424Y27397500D01*
X-38640424Y27397501D01*
X-38525341Y27428337D01*
X-38422158Y27487910D01*
X-38337910Y27572158D01*
X-38278337Y27675341D01*
X-38247501Y27790424D01*
X-38247500Y27790424D01*
X-38247500Y27909576D01*
X-38247501Y27909577D01*
X-37552500Y27909577D01*
X-37552500Y27790424D01*
X-37521664Y27675343D01*
X-37521663Y27675339D01*
X-37462090Y27572158D01*
X-37377842Y27487910D01*
X-37347112Y27470168D01*
X-37274662Y27428338D01*
X-37274660Y27428338D01*
X-37274659Y27428337D01*
X-37183895Y27404017D01*
X-37159577Y27397501D01*
X-37159576Y27397500D01*
X-37159573Y27397500D01*
X-37040424Y27397500D01*
X-37040424Y27397501D01*
X-36925341Y27428337D01*
X-36822158Y27487910D01*
X-36737910Y27572158D01*
X-36678396Y27675241D01*
X-36648644Y27698069D01*
X-36611462Y27693174D01*
X-36588632Y27663421D01*
X-36587171Y27655264D01*
X-36586397Y27646919D01*
X-36586397Y27646915D01*
X-36530583Y27450752D01*
X-36530580Y27450745D01*
X-36439675Y27268182D01*
X-36439672Y27268178D01*
X-36316767Y27105424D01*
X-36315237Y27103746D01*
X-36315824Y27103212D01*
X-36300992Y27071632D01*
X-36313721Y27036355D01*
X-36315291Y27034711D01*
X-36450000Y26900001D01*
X-36450000Y26900000D01*
X-36450000Y26400000D01*
X-36150000Y26100000D01*
X-35903855Y26100000D01*
X-35869207Y26085648D01*
X-35854855Y26051000D01*
X-35863113Y26023777D01*
X-35920169Y25938386D01*
X-35989933Y25769960D01*
X-35989935Y25769951D01*
X-36025500Y25591158D01*
X-36025500Y25408843D01*
X-35989935Y25230050D01*
X-35989933Y25230041D01*
X-35940329Y25110286D01*
X-35920167Y25061611D01*
X-35818883Y24910028D01*
X-35689972Y24781117D01*
X-35538389Y24679833D01*
X-35369958Y24610067D01*
X-35369952Y24610066D01*
X-35369949Y24610065D01*
X-35297827Y24595719D01*
X-35215641Y24579371D01*
X-35184458Y24558536D01*
X-35176200Y24531313D01*
X-35176200Y22828612D01*
X-35190552Y22793964D01*
X-35200703Y22786175D01*
X-35262238Y22750653D01*
X-35262240Y22750652D01*
X-35384606Y22647987D01*
X-35384609Y22647985D01*
X-35384611Y22647982D01*
X-35487294Y22525621D01*
X-35567170Y22387286D01*
X-35621807Y22237181D01*
X-35621810Y22237172D01*
X-35649548Y22079871D01*
X-35649548Y21804517D01*
X-35649540Y21804334D01*
X-35649541Y21793607D01*
X-35621826Y21636273D01*
X-35567210Y21486152D01*
X-35567208Y21486149D01*
X-35567207Y21486146D01*
X-35495062Y21361159D01*
X-35490171Y21323978D01*
X-35495066Y21312164D01*
X-35567169Y21187289D01*
X-35621807Y21037181D01*
X-35621810Y21037172D01*
X-35649548Y20879871D01*
X-35649548Y20604517D01*
X-35649540Y20604334D01*
X-35649541Y20593607D01*
X-35621826Y20436273D01*
X-35567210Y20286152D01*
X-35567208Y20286149D01*
X-35567207Y20286146D01*
X-35495062Y20161159D01*
X-35490171Y20123978D01*
X-35495066Y20112164D01*
X-35567169Y19987289D01*
X-35621807Y19837181D01*
X-35621810Y19837172D01*
X-35649548Y19679871D01*
X-35649548Y19404517D01*
X-35649540Y19404334D01*
X-35649541Y19393607D01*
X-35621826Y19236273D01*
X-35567210Y19086152D01*
X-35567208Y19086149D01*
X-35567207Y19086146D01*
X-35495057Y18961151D01*
X-35490166Y18923968D01*
X-35495061Y18912154D01*
X-35567159Y18787287D01*
X-35567161Y18787283D01*
X-35621796Y18637188D01*
X-35621800Y18637172D01*
X-35649538Y18479873D01*
X-35649538Y18479870D01*
X-35649538Y18466600D01*
X-35649538Y18229275D01*
X-35649543Y18193569D01*
X-35621822Y18036239D01*
X-35567873Y17887970D01*
X-35567196Y17886111D01*
X-35567194Y17886107D01*
X-35493837Y17759031D01*
X-35488944Y17721849D01*
X-35495530Y17707314D01*
X-35545601Y17632369D01*
X-35614400Y17466253D01*
X-35614401Y17466250D01*
X-35647112Y17301778D01*
X-35649475Y17289899D01*
X-35649474Y17243253D01*
X-35649474Y17152181D01*
X-35649483Y17152017D01*
X-35649483Y17149391D01*
X-35649483Y17149389D01*
X-35649474Y17073200D01*
X-35649474Y17004574D01*
X-35649458Y17004225D01*
X-35649456Y16983312D01*
X-35649456Y16983311D01*
X-35614366Y16806976D01*
X-35614365Y16806973D01*
X-35545558Y16640878D01*
X-35494112Y16563883D01*
X-35486796Y16527101D01*
X-35494110Y16509440D01*
X-35545599Y16432370D01*
X-35612256Y16271428D01*
X-35614401Y16266250D01*
X-35624860Y16213660D01*
X-35649475Y16089899D01*
X-35649474Y16043309D01*
X-35649474Y15952181D01*
X-35649483Y15952017D01*
X-35649483Y15949391D01*
X-35649483Y15949389D01*
X-35649474Y15873200D01*
X-35649474Y15804574D01*
X-35649458Y15804225D01*
X-35649456Y15783312D01*
X-35649456Y15783311D01*
X-35614366Y15606976D01*
X-35614365Y15606973D01*
X-35545558Y15440878D01*
X-35494112Y15363883D01*
X-35486796Y15327101D01*
X-35494110Y15309440D01*
X-35545599Y15232370D01*
X-35612256Y15071428D01*
X-35614401Y15066250D01*
X-35624860Y15013660D01*
X-35649475Y14889899D01*
X-35649474Y14843309D01*
X-35649474Y14752181D01*
X-35649483Y14752017D01*
X-35649483Y14749391D01*
X-35649483Y14749389D01*
X-35649474Y14673200D01*
X-35649474Y14604574D01*
X-35649458Y14604225D01*
X-35649456Y14583312D01*
X-35649456Y14583311D01*
X-35649455Y14583306D01*
X-35634293Y14507111D01*
X-35614366Y14406976D01*
X-35614365Y14406973D01*
X-35545558Y14240878D01*
X-35494112Y14163883D01*
X-35486796Y14127101D01*
X-35494110Y14109440D01*
X-35545599Y14032370D01*
X-35545600Y14032368D01*
X-35614401Y13866250D01*
X-35644308Y13715877D01*
X-35649475Y13689899D01*
X-35649474Y13643309D01*
X-35649474Y13552181D01*
X-35649483Y13552017D01*
X-35649474Y13473200D01*
X-35649474Y13404574D01*
X-35649458Y13404225D01*
X-35649456Y13383312D01*
X-35649456Y13383311D01*
X-35649455Y13383306D01*
X-35614366Y13206975D01*
X-35545557Y13040876D01*
X-35445671Y12891388D01*
X-35318545Y12764256D01*
X-35197974Y12683685D01*
X-35177141Y12652502D01*
X-35176200Y12642945D01*
X-35176200Y8933395D01*
X-35150217Y8802770D01*
X-35150214Y8802759D01*
X-35099242Y8679700D01*
X-35099241Y8679699D01*
X-35052860Y8610286D01*
X-35025239Y8568948D01*
X-33531052Y7074761D01*
X-33420301Y7000760D01*
X-33297240Y6949786D01*
X-33296224Y6949584D01*
X-33166606Y6923801D01*
X-33166603Y6923801D01*
X-33166600Y6923800D01*
X-33166599Y6923800D01*
X-33033401Y6923800D01*
X-33033400Y6923800D01*
X-32902760Y6949786D01*
X-32779699Y7000760D01*
X-32668948Y7074761D01*
X-32574761Y7168948D01*
X-32500760Y7279699D01*
X-32449786Y7402760D01*
X-32436026Y7471941D01*
X-32415190Y7503122D01*
X-32378408Y7510439D01*
X-32353319Y7497028D01*
X-31931052Y7074761D01*
X-31820301Y7000760D01*
X-31697240Y6949786D01*
X-31696224Y6949584D01*
X-31566606Y6923801D01*
X-31566603Y6923801D01*
X-31566600Y6923800D01*
X-31566599Y6923800D01*
X-31433401Y6923800D01*
X-31433400Y6923800D01*
X-31302760Y6949786D01*
X-31179699Y7000760D01*
X-31127222Y7035825D01*
X-31090442Y7043141D01*
X-31072781Y7035825D01*
X-31020301Y7000760D01*
X-30897241Y6949786D01*
X-30896225Y6949584D01*
X-30766607Y6923801D01*
X-30766604Y6923801D01*
X-30766601Y6923800D01*
X-30766600Y6923800D01*
X-30633401Y6923800D01*
X-30633400Y6923800D01*
X-30502760Y6949786D01*
X-30379699Y7000760D01*
X-30268948Y7074761D01*
X-30174761Y7168948D01*
X-30100760Y7279699D01*
X-30049786Y7402760D01*
X-30036026Y7471941D01*
X-30015190Y7503122D01*
X-29978408Y7510439D01*
X-29953319Y7497028D01*
X-29531050Y7074759D01*
X-29500028Y7054031D01*
X-29420301Y7000759D01*
X-29297240Y6949786D01*
X-29297234Y6949785D01*
X-29297231Y6949784D01*
X-29166606Y6923801D01*
X-29166603Y6923801D01*
X-29166600Y6923800D01*
X-29166599Y6923800D01*
X-29033401Y6923800D01*
X-29033400Y6923800D01*
X-28989854Y6932462D01*
X-28902770Y6949784D01*
X-28902770Y6949785D01*
X-28902760Y6949786D01*
X-28779699Y7000759D01*
X-28727223Y7035824D01*
X-28690442Y7043141D01*
X-28672781Y7035826D01*
X-28620301Y7000760D01*
X-28497241Y6949786D01*
X-28366600Y6923800D01*
X-28366597Y6923800D01*
X-28233401Y6923800D01*
X-28233400Y6923800D01*
X-28102760Y6949786D01*
X-27979699Y7000760D01*
X-27868948Y7074761D01*
X-27774761Y7168948D01*
X-27700760Y7279699D01*
X-27649786Y7402760D01*
X-27636026Y7471941D01*
X-27615190Y7503122D01*
X-27578408Y7510439D01*
X-27553319Y7497028D01*
X-27131050Y7074759D01*
X-27020793Y7001088D01*
X-27020301Y7000759D01*
X-26897240Y6949785D01*
X-26766600Y6923800D01*
X-26766597Y6923800D01*
X-26633403Y6923800D01*
X-26633400Y6923800D01*
X-26502759Y6949785D01*
X-26379699Y7000759D01*
X-26327223Y7035824D01*
X-26290442Y7043141D01*
X-26272781Y7035826D01*
X-26220301Y7000760D01*
X-26097240Y6949786D01*
X-26096224Y6949584D01*
X-25966606Y6923801D01*
X-25966603Y6923801D01*
X-25966600Y6923800D01*
X-25966599Y6923800D01*
X-25833401Y6923800D01*
X-25833400Y6923800D01*
X-25702760Y6949786D01*
X-25579699Y7000760D01*
X-25468948Y7074761D01*
X-25374761Y7168948D01*
X-25300760Y7279699D01*
X-25249786Y7402760D01*
X-25236026Y7471941D01*
X-25215190Y7503122D01*
X-25178408Y7510439D01*
X-25153319Y7497028D01*
X-24731050Y7074759D01*
X-24620793Y7001088D01*
X-24620301Y7000759D01*
X-24497240Y6949785D01*
X-24366600Y6923800D01*
X-24366597Y6923800D01*
X-24233402Y6923800D01*
X-24233399Y6923800D01*
X-24102759Y6949785D01*
X-23979699Y7000759D01*
X-23927223Y7035824D01*
X-23890442Y7043141D01*
X-23872781Y7035826D01*
X-23820301Y7000760D01*
X-23697240Y6949786D01*
X-23696224Y6949584D01*
X-23566606Y6923801D01*
X-23566603Y6923801D01*
X-23566600Y6923800D01*
X-23566599Y6923800D01*
X-23433401Y6923800D01*
X-23433400Y6923800D01*
X-23302760Y6949786D01*
X-23179699Y7000760D01*
X-23068948Y7074761D01*
X-22974761Y7168948D01*
X-22900760Y7279699D01*
X-22849786Y7402760D01*
X-22836026Y7471941D01*
X-22815190Y7503122D01*
X-22778408Y7510439D01*
X-22753319Y7497028D01*
X-22331053Y7074761D01*
X-22331049Y7074758D01*
X-22320650Y7067810D01*
X-22220792Y7001088D01*
X-22220302Y7000761D01*
X-22220300Y7000759D01*
X-22149245Y6971327D01*
X-22097241Y6949786D01*
X-22096225Y6949584D01*
X-21966607Y6923801D01*
X-21966604Y6923801D01*
X-21966601Y6923800D01*
X-21966600Y6923800D01*
X-21833401Y6923800D01*
X-21833400Y6923800D01*
X-21702760Y6949786D01*
X-21579699Y7000760D01*
X-21527222Y7035825D01*
X-21490442Y7043141D01*
X-21472782Y7035826D01*
X-21420301Y7000759D01*
X-21297240Y6949785D01*
X-21166600Y6923800D01*
X-21166597Y6923800D01*
X-21033403Y6923800D01*
X-21033400Y6923800D01*
X-20902760Y6949785D01*
X-20779699Y7000759D01*
X-20668948Y7074761D01*
X-20574761Y7168948D01*
X-20500759Y7279699D01*
X-20449785Y7402760D01*
X-20436025Y7471942D01*
X-20415191Y7503122D01*
X-20378408Y7510439D01*
X-20353319Y7497028D01*
X-19931052Y7074761D01*
X-19820301Y7000760D01*
X-19697241Y6949786D01*
X-19566600Y6923800D01*
X-19566597Y6923800D01*
X-19433401Y6923800D01*
X-19433400Y6923800D01*
X-19302760Y6949786D01*
X-19179699Y7000760D01*
X-19127222Y7035825D01*
X-19090442Y7043141D01*
X-19072782Y7035826D01*
X-19020301Y7000759D01*
X-18897240Y6949785D01*
X-18766600Y6923800D01*
X-18766597Y6923800D01*
X-18633402Y6923800D01*
X-18633399Y6923800D01*
X-18502759Y6949785D01*
X-18379699Y7000759D01*
X-18268947Y7074761D01*
X-18174761Y7168947D01*
X-18100759Y7279699D01*
X-18049785Y7402759D01*
X-18023800Y7533399D01*
X-18023800Y7666600D01*
X-18049785Y7797240D01*
X-18100759Y7920301D01*
X-18160886Y8010287D01*
X-18174759Y8031050D01*
X-23771940Y13628231D01*
X-23786292Y13662879D01*
X-23771940Y13697527D01*
X-23764524Y13703614D01*
X-23746172Y13715876D01*
X-23624533Y13837524D01*
X-23528965Y13980566D01*
X-23463139Y14139503D01*
X-23429585Y14308229D01*
X-23429590Y14394244D01*
X-23429590Y14402550D01*
X-23429590Y14666600D01*
X-23429590Y14669299D01*
X-23429595Y14669387D01*
X-23429595Y14673200D01*
X-23429594Y14686012D01*
X-23452931Y14803336D01*
X-23463152Y14854721D01*
X-23463155Y14854732D01*
X-23514746Y14979287D01*
X-23528983Y15013659D01*
X-23566546Y15069876D01*
X-23573861Y15106657D01*
X-23566550Y15124313D01*
X-23528965Y15180566D01*
X-23463139Y15339503D01*
X-23429585Y15508229D01*
X-23429590Y15594244D01*
X-23429590Y15602550D01*
X-23429590Y15866600D01*
X-23429590Y15869299D01*
X-23429595Y15869387D01*
X-23429595Y15873200D01*
X-23429594Y15886012D01*
X-23452931Y16003336D01*
X-23463152Y16054721D01*
X-23463155Y16054732D01*
X-23514746Y16179287D01*
X-23528983Y16213659D01*
X-23566546Y16269876D01*
X-23573861Y16306657D01*
X-23566550Y16324313D01*
X-23528965Y16380566D01*
X-23463139Y16539503D01*
X-23429585Y16708229D01*
X-23429590Y16794244D01*
X-23429590Y16802760D01*
X-23429590Y17066600D01*
X-23429590Y17069299D01*
X-23429595Y17069387D01*
X-23429595Y17073200D01*
X-23429594Y17086012D01*
X-23435893Y17117681D01*
X-23463152Y17254721D01*
X-23463155Y17254732D01*
X-23464097Y17257006D01*
X-23528983Y17413659D01*
X-23624553Y17556692D01*
X-23746191Y17678333D01*
X-23748844Y17680106D01*
X-23802024Y17715642D01*
X-23822859Y17746825D01*
X-23823800Y17756383D01*
X-23823800Y25760317D01*
X-23823801Y25760324D01*
X-23849784Y25890949D01*
X-23849787Y25890960D01*
X-23900759Y26014019D01*
X-23916973Y26038285D01*
X-23938122Y26069935D01*
X-23945438Y26106716D01*
X-23938125Y26124372D01*
X-23879833Y26211611D01*
X-23810067Y26380042D01*
X-23774500Y26558846D01*
X-23774500Y26741154D01*
X-23810067Y26919958D01*
X-23879833Y27088389D01*
X-23981117Y27239972D01*
X-24110028Y27368883D01*
X-24131563Y27383272D01*
X-24232544Y27450745D01*
X-24261611Y27470167D01*
X-24304449Y27487911D01*
X-24393552Y27524819D01*
X-24420070Y27551338D01*
X-24423800Y27570089D01*
X-24423800Y28105645D01*
X-24419207Y28116734D01*
X-22602500Y28116734D01*
X-22602500Y27383267D01*
X-22576467Y27252391D01*
X-22576464Y27252380D01*
X-22525395Y27129087D01*
X-22525393Y27129083D01*
X-22498202Y27088389D01*
X-22451252Y27018122D01*
X-22356879Y26923749D01*
X-22321337Y26900001D01*
X-22245917Y26849607D01*
X-22122619Y26798536D01*
X-22122613Y26798535D01*
X-22122610Y26798534D01*
X-21991734Y26772501D01*
X-21991728Y26772500D01*
X-21858272Y26772500D01*
X-21727381Y26798536D01*
X-21604083Y26849607D01*
X-21493119Y26923751D01*
X-21398751Y27018119D01*
X-21324607Y27129083D01*
X-21273536Y27252381D01*
X-21247500Y27383272D01*
X-21247500Y28116728D01*
X-21252187Y28140293D01*
X-21273534Y28247610D01*
X-21273537Y28247621D01*
X-21324606Y28370914D01*
X-21324607Y28370917D01*
X-21369254Y28437735D01*
X-21398749Y28481879D01*
X-21493122Y28576252D01*
X-21569402Y28627220D01*
X-21604083Y28650393D01*
X-21604086Y28650395D01*
X-21604087Y28650395D01*
X-21727380Y28701464D01*
X-21727391Y28701467D01*
X-21858267Y28727500D01*
X-21858272Y28727500D01*
X-21991728Y28727500D01*
X-21991734Y28727500D01*
X-22122610Y28701467D01*
X-22122621Y28701464D01*
X-22245914Y28650395D01*
X-22356879Y28576252D01*
X-22451252Y28481879D01*
X-22525395Y28370914D01*
X-22576464Y28247621D01*
X-22576467Y28247610D01*
X-22602500Y28116734D01*
X-24419207Y28116734D01*
X-24409448Y28140293D01*
X-24407811Y28141856D01*
X-24350224Y28194355D01*
X-24283236Y28255421D01*
X-24160327Y28418179D01*
X-24069418Y28600750D01*
X-24013603Y28796917D01*
X-23994785Y29000000D01*
X-24013603Y29203083D01*
X-24069418Y29399250D01*
X-24160327Y29581821D01*
X-24283236Y29744579D01*
X-24300002Y29759863D01*
X-24433955Y29881978D01*
X-24433958Y29881980D01*
X-24433959Y29881981D01*
X-24607363Y29989348D01*
X-24607366Y29989349D01*
X-24607367Y29989350D01*
X-24797538Y30063022D01*
X-24797540Y30063023D01*
X-24797544Y30063024D01*
X-24998024Y30100500D01*
X-25201976Y30100500D01*
X-25402456Y30063024D01*
X-25402460Y30063023D01*
X-25402463Y30063022D01*
X-25592634Y29989350D01*
X-25766043Y29881980D01*
X-25866989Y29789956D01*
X-25902263Y29777220D01*
X-25933011Y29789956D01*
X-26033958Y29881980D01*
X-26033959Y29881981D01*
X-26207363Y29989348D01*
X-26207366Y29989349D01*
X-26207367Y29989350D01*
X-26397538Y30063022D01*
X-26397540Y30063023D01*
X-26397544Y30063024D01*
X-26598024Y30100500D01*
X-26801976Y30100500D01*
X-27002456Y30063024D01*
X-27002460Y30063023D01*
X-27002463Y30063022D01*
X-27192634Y29989350D01*
X-27366043Y29881980D01*
X-27466990Y29789956D01*
X-27502265Y29777220D01*
X-27533012Y29789957D01*
X-27633955Y29881979D01*
X-27633958Y29881981D01*
X-27633959Y29881982D01*
X-27807363Y29989349D01*
X-27807366Y29989350D01*
X-27807367Y29989351D01*
X-27997538Y30063023D01*
X-27997540Y30063024D01*
X-27997544Y30063025D01*
X-28198024Y30100501D01*
X-28401976Y30100501D01*
X-28602456Y30063025D01*
X-28602460Y30063024D01*
X-28602463Y30063023D01*
X-28792634Y29989351D01*
X-28966043Y29881981D01*
X-29066989Y29789957D01*
X-29102263Y29777221D01*
X-29133011Y29789957D01*
X-29233958Y29881981D01*
X-29233959Y29881982D01*
X-29407363Y29989349D01*
X-29407366Y29989350D01*
X-29407367Y29989351D01*
X-29597538Y30063023D01*
X-29597540Y30063024D01*
X-29597544Y30063025D01*
X-29798024Y30100501D01*
X-30001976Y30100501D01*
X-30202456Y30063025D01*
X-30202460Y30063024D01*
X-30202463Y30063023D01*
X-30392634Y29989351D01*
X-30566043Y29881981D01*
X-30666991Y29789956D01*
X-30702266Y29777220D01*
X-30733013Y29789957D01*
X-30833955Y29881978D01*
X-30833958Y29881980D01*
X-30833959Y29881981D01*
X-31007363Y29989348D01*
X-31007366Y29989349D01*
X-31007367Y29989350D01*
X-31197538Y30063022D01*
X-31197540Y30063023D01*
X-31197544Y30063024D01*
X-31398024Y30100500D01*
X-31601976Y30100500D01*
X-31802456Y30063024D01*
X-31802460Y30063023D01*
X-31802463Y30063022D01*
X-31992634Y29989350D01*
X-32166043Y29881980D01*
X-32266989Y29789956D01*
X-32302263Y29777220D01*
X-32333011Y29789956D01*
X-32433958Y29881980D01*
X-32433959Y29881981D01*
X-32607363Y29989348D01*
X-32607366Y29989349D01*
X-32607367Y29989350D01*
X-32797538Y30063022D01*
X-32797540Y30063023D01*
X-32797544Y30063024D01*
X-32998024Y30100500D01*
X-33201976Y30100500D01*
X-33402456Y30063024D01*
X-33402460Y30063023D01*
X-33402463Y30063022D01*
X-33592634Y29989350D01*
X-33766046Y29881978D01*
X-33916764Y29744580D01*
X-33916767Y29744577D01*
X-34039672Y29581823D01*
X-34039675Y29581819D01*
X-34130580Y29399256D01*
X-34130583Y29399249D01*
X-34186397Y29203086D01*
X-34186398Y29203080D01*
X-34205215Y29000000D01*
X-34200754Y28951852D01*
X-34211848Y28916027D01*
X-34231844Y28901640D01*
X-34392634Y28839350D01*
X-34566043Y28731980D01*
X-34666989Y28639956D01*
X-34702263Y28627220D01*
X-34733011Y28639956D01*
X-34833958Y28731980D01*
X-34833959Y28731981D01*
X-35007363Y28839348D01*
X-35007366Y28839349D01*
X-35007367Y28839350D01*
X-35197538Y28913022D01*
X-35197540Y28913023D01*
X-35197544Y28913024D01*
X-35398024Y28950500D01*
X-35601976Y28950500D01*
X-35802456Y28913024D01*
X-35802460Y28913023D01*
X-35802463Y28913022D01*
X-35992634Y28839350D01*
X-36166046Y28731978D01*
X-36316764Y28594580D01*
X-36316767Y28594577D01*
X-36439672Y28431823D01*
X-36439675Y28431819D01*
X-36530580Y28249256D01*
X-36530583Y28249249D01*
X-36586397Y28053086D01*
X-36586398Y28053082D01*
X-36587171Y28044737D01*
X-36604662Y28011562D01*
X-36640487Y28000471D01*
X-36673662Y28017962D01*
X-36678394Y28024758D01*
X-36737910Y28127842D01*
X-36822158Y28212090D01*
X-36925339Y28271663D01*
X-36925343Y28271664D01*
X-37040424Y28302500D01*
X-37040427Y28302500D01*
X-37159573Y28302500D01*
X-37159576Y28302500D01*
X-37274658Y28271664D01*
X-37274662Y28271663D01*
X-37377843Y28212090D01*
X-37377843Y28212089D01*
X-37462089Y28127843D01*
X-37462090Y28127843D01*
X-37521663Y28024662D01*
X-37521664Y28024658D01*
X-37552500Y27909577D01*
X-38247501Y27909577D01*
X-38278337Y28024658D01*
X-38278338Y28024662D01*
X-38316106Y28090077D01*
X-38337910Y28127842D01*
X-38422158Y28212090D01*
X-38525339Y28271663D01*
X-38525343Y28271664D01*
X-38640424Y28302500D01*
X-38640427Y28302500D01*
X-38759573Y28302500D01*
X-38759576Y28302500D01*
X-38874658Y28271664D01*
X-38874662Y28271663D01*
X-38977843Y28212090D01*
X-38977843Y28212089D01*
X-39062089Y28127843D01*
X-39062090Y28127843D01*
X-39121663Y28024662D01*
X-39121664Y28024658D01*
X-39152500Y27909577D01*
X-40423800Y27909577D01*
X-40423800Y28105646D01*
X-40409448Y28140294D01*
X-40407811Y28141857D01*
X-40350224Y28194356D01*
X-40283236Y28255422D01*
X-40160327Y28418180D01*
X-40069418Y28600751D01*
X-40013603Y28796918D01*
X-39994785Y29000001D01*
X-40000305Y29059577D01*
X-38352500Y29059577D01*
X-38352500Y28940424D01*
X-38321664Y28825343D01*
X-38321663Y28825339D01*
X-38267761Y28731981D01*
X-38262090Y28722158D01*
X-38177842Y28637910D01*
X-38159326Y28627220D01*
X-38074662Y28578338D01*
X-38074660Y28578338D01*
X-38074659Y28578337D01*
X-38066866Y28576249D01*
X-37959577Y28547501D01*
X-37959576Y28547500D01*
X-37959573Y28547500D01*
X-37840424Y28547500D01*
X-37840424Y28547501D01*
X-37725341Y28578337D01*
X-37622158Y28637910D01*
X-37537910Y28722158D01*
X-37478337Y28825341D01*
X-37447501Y28940424D01*
X-37447500Y28940424D01*
X-37447500Y29059576D01*
X-37447501Y29059577D01*
X-37478337Y29174658D01*
X-37478338Y29174662D01*
X-37537911Y29277843D01*
X-37622158Y29362090D01*
X-37725339Y29421663D01*
X-37725343Y29421664D01*
X-37840424Y29452500D01*
X-37840427Y29452500D01*
X-37959573Y29452500D01*
X-37959576Y29452500D01*
X-38074658Y29421664D01*
X-38074662Y29421663D01*
X-38177843Y29362090D01*
X-38177843Y29362089D01*
X-38262089Y29277843D01*
X-38262090Y29277843D01*
X-38321663Y29174662D01*
X-38321664Y29174658D01*
X-38352500Y29059577D01*
X-40000305Y29059577D01*
X-40013603Y29203084D01*
X-40069418Y29399251D01*
X-40160327Y29581822D01*
X-40259861Y29713627D01*
X-40283234Y29744578D01*
X-40283237Y29744581D01*
X-40433955Y29881979D01*
X-40433958Y29881981D01*
X-40433959Y29881982D01*
X-40607363Y29989349D01*
X-40607366Y29989350D01*
X-40607367Y29989351D01*
X-40797538Y30063023D01*
X-40797540Y30063024D01*
X-40797544Y30063025D01*
X-40998024Y30100501D01*
X-41201976Y30100501D01*
X-41402456Y30063025D01*
X-41402460Y30063024D01*
X-41402463Y30063023D01*
X-41592634Y29989351D01*
X-41766043Y29881981D01*
X-41866991Y29789956D01*
X-41902266Y29777220D01*
X-41933013Y29789957D01*
X-42033955Y29881978D01*
X-42033958Y29881980D01*
X-42033959Y29881981D01*
X-42207363Y29989348D01*
X-42207366Y29989349D01*
X-42207367Y29989350D01*
X-42397538Y30063022D01*
X-42397540Y30063023D01*
X-42397544Y30063024D01*
X-42598024Y30100500D01*
X-42801976Y30100500D01*
X-43002456Y30063024D01*
X-43002460Y30063023D01*
X-43002463Y30063022D01*
X-43192634Y29989350D01*
X-43366043Y29881980D01*
X-43466989Y29789956D01*
X-43502263Y29777220D01*
X-43533011Y29789956D01*
X-43633958Y29881980D01*
X-43633959Y29881981D01*
X-43807363Y29989348D01*
X-43807366Y29989349D01*
X-43807367Y29989350D01*
X-43997538Y30063022D01*
X-43997540Y30063023D01*
X-43997544Y30063024D01*
X-44198024Y30100500D01*
X-44401976Y30100500D01*
X-44602456Y30063024D01*
X-44602460Y30063023D01*
X-44602463Y30063022D01*
X-44792634Y29989350D01*
X-44966043Y29881980D01*
X-45066989Y29789956D01*
X-45102263Y29777220D01*
X-45133011Y29789956D01*
X-45233958Y29881980D01*
X-45233959Y29881981D01*
X-45407363Y29989348D01*
X-45407366Y29989349D01*
X-45407367Y29989350D01*
X-45597538Y30063022D01*
X-45597540Y30063023D01*
X-45597544Y30063024D01*
X-45798024Y30100500D01*
X-46001976Y30100500D01*
X-46202456Y30063024D01*
X-46202460Y30063023D01*
X-46202463Y30063022D01*
X-46392634Y29989350D01*
X-46566043Y29881980D01*
X-46666989Y29789956D01*
X-46702263Y29777220D01*
X-46733011Y29789956D01*
X-46833958Y29881980D01*
X-46833959Y29881981D01*
X-47007363Y29989348D01*
X-47007366Y29989349D01*
X-47007367Y29989350D01*
X-47197538Y30063022D01*
X-47197540Y30063023D01*
X-47197544Y30063024D01*
X-47398024Y30100500D01*
X-47601976Y30100500D01*
X-47802456Y30063024D01*
X-47802460Y30063023D01*
X-47802463Y30063022D01*
X-47992634Y29989350D01*
X-48166043Y29881980D01*
X-48266989Y29789956D01*
X-48302263Y29777220D01*
X-48333011Y29789956D01*
X-48433958Y29881980D01*
X-48433959Y29881981D01*
X-48607363Y29989348D01*
X-48607366Y29989349D01*
X-48607367Y29989350D01*
X-48797538Y30063022D01*
X-48797540Y30063023D01*
X-48797544Y30063024D01*
X-48998024Y30100500D01*
X-49201976Y30100500D01*
X-49402456Y30063024D01*
X-49402460Y30063023D01*
X-49402463Y30063022D01*
X-49592634Y29989350D01*
X-49766043Y29881980D01*
X-49866990Y29789956D01*
X-49902265Y29777220D01*
X-49933012Y29789957D01*
X-50033955Y29881979D01*
X-50033958Y29881981D01*
X-50033959Y29881982D01*
X-50207363Y29989349D01*
X-50207366Y29989350D01*
X-50207367Y29989351D01*
X-50397538Y30063023D01*
X-50397540Y30063024D01*
X-50397544Y30063025D01*
X-50598024Y30100501D01*
X-50801976Y30100501D01*
X-51002456Y30063025D01*
X-51002460Y30063024D01*
X-51002463Y30063023D01*
X-51192634Y29989351D01*
X-51366046Y29881979D01*
X-51516764Y29744581D01*
X-51516767Y29744578D01*
X-51639672Y29581824D01*
X-51639675Y29581820D01*
X-51730580Y29399257D01*
X-51730583Y29399250D01*
X-51786397Y29203087D01*
X-51786398Y29203081D01*
X-51805215Y29000001D01*
X-51800754Y28951851D01*
X-51811848Y28916027D01*
X-51831844Y28901640D01*
X-51992634Y28839350D01*
X-52166046Y28731978D01*
X-52316764Y28594580D01*
X-52316767Y28594577D01*
X-52439672Y28431823D01*
X-52439675Y28431819D01*
X-52530580Y28249256D01*
X-52530583Y28249249D01*
X-52586397Y28053086D01*
X-52586398Y28053080D01*
X-52605215Y27850000D01*
X-52586398Y27646921D01*
X-52586397Y27646915D01*
X-52530583Y27450752D01*
X-52530580Y27450745D01*
X-52439675Y27268182D01*
X-52439672Y27268178D01*
X-52316767Y27105424D01*
X-52316764Y27105421D01*
X-52166046Y26968023D01*
X-52166045Y26968022D01*
X-52166041Y26968019D01*
X-52138832Y26951172D01*
X-52119358Y26928264D01*
X-52099242Y26879701D01*
X-52037285Y26786976D01*
X-52037284Y26786975D01*
X-52025240Y26768949D01*
X-51990552Y26734261D01*
X-51976200Y26699613D01*
X-51976200Y26379675D01*
X-51950217Y26249050D01*
X-51950214Y26249039D01*
X-51934711Y26211611D01*
X-51899241Y26125979D01*
X-51865223Y26075068D01*
X-51857907Y26038285D01*
X-51865223Y26020623D01*
X-51920166Y25938393D01*
X-51989933Y25769960D01*
X-51989935Y25769951D01*
X-52025500Y25591158D01*
X-52025500Y25408843D01*
X-51989935Y25230050D01*
X-51989933Y25230041D01*
X-51940329Y25110286D01*
X-51920167Y25061611D01*
X-51818883Y24910028D01*
X-51689972Y24781117D01*
X-51538389Y24679833D01*
X-51369958Y24610067D01*
X-51369952Y24610066D01*
X-51369949Y24610065D01*
X-51297827Y24595719D01*
X-51215641Y24579371D01*
X-51184458Y24558536D01*
X-51176200Y24531313D01*
X-51176200Y19633405D01*
X-51190552Y19598757D01*
X-51200696Y19590972D01*
X-51266650Y19552887D01*
X-51389367Y19449903D01*
X-51389371Y19449898D01*
X-51492339Y19327174D01*
X-51572439Y19188428D01*
X-51572443Y19188420D01*
X-51627229Y19037886D01*
X-51627231Y19037881D01*
X-51655049Y18880106D01*
X-51655049Y18880098D01*
X-51655048Y18838848D01*
X-51655048Y18610447D01*
X-51654990Y18609251D01*
X-51654991Y18598876D01*
X-51627202Y18441096D01*
X-51627201Y18441092D01*
X-51627200Y18441090D01*
X-51605276Y18380820D01*
X-51572432Y18290531D01*
X-51572427Y18290520D01*
X-51499325Y18163854D01*
X-51494436Y18126671D01*
X-51499329Y18114860D01*
X-51572329Y17988429D01*
X-51627127Y17837882D01*
X-51627130Y17837871D01*
X-51654950Y17680109D01*
X-51654950Y17409925D01*
X-51654939Y17409680D01*
X-51654940Y17398776D01*
X-51627145Y17240979D01*
X-51572367Y17090412D01*
X-51572364Y17090405D01*
X-51538458Y17031664D01*
X-51499322Y16963862D01*
X-51494431Y16926680D01*
X-51499325Y16914866D01*
X-51572329Y16788429D01*
X-51627127Y16637882D01*
X-51627130Y16637871D01*
X-51654950Y16480109D01*
X-51654950Y16209925D01*
X-51654939Y16209680D01*
X-51654940Y16198776D01*
X-51627145Y16040979D01*
X-51572367Y15890412D01*
X-51572364Y15890405D01*
X-51569831Y15886017D01*
X-51499322Y15763862D01*
X-51494431Y15726680D01*
X-51499325Y15714866D01*
X-51572329Y15588429D01*
X-51627127Y15437882D01*
X-51627130Y15437871D01*
X-51654950Y15280109D01*
X-51654950Y15009925D01*
X-51654939Y15009680D01*
X-51654940Y14998776D01*
X-51627145Y14840979D01*
X-51572367Y14690412D01*
X-51572364Y14690405D01*
X-51569831Y14686017D01*
X-51499322Y14563862D01*
X-51494431Y14526680D01*
X-51499325Y14514866D01*
X-51572329Y14388429D01*
X-51627127Y14237882D01*
X-51627130Y14237871D01*
X-51654950Y14080109D01*
X-51654950Y13809925D01*
X-51654939Y13809680D01*
X-51654940Y13798776D01*
X-51627145Y13640979D01*
X-51572367Y13490412D01*
X-51572364Y13490405D01*
X-51562433Y13473200D01*
X-51499322Y13363862D01*
X-51494431Y13326680D01*
X-51499325Y13314866D01*
X-51572329Y13188429D01*
X-51627127Y13037882D01*
X-51627130Y13037871D01*
X-51654950Y12880109D01*
X-51654950Y12609925D01*
X-51654939Y12609680D01*
X-51654940Y12598776D01*
X-51627145Y12440979D01*
X-51572367Y12290412D01*
X-51572364Y12290405D01*
X-51562538Y12273382D01*
X-51499322Y12163862D01*
X-51494431Y12126680D01*
X-51499325Y12114866D01*
X-51572329Y11988429D01*
X-51627127Y11837882D01*
X-51627130Y11837871D01*
X-51654950Y11680109D01*
X-51654950Y11409925D01*
X-51654939Y11409680D01*
X-51654940Y11398776D01*
X-51627145Y11240979D01*
X-51572367Y11090412D01*
X-51572364Y11090405D01*
X-51492262Y10951631D01*
X-51389285Y10828891D01*
X-51389283Y10828889D01*
X-51389281Y10828887D01*
X-51389276Y10828883D01*
X-51266546Y10725892D01*
X-51249873Y10716266D01*
X-51200699Y10687876D01*
X-51177870Y10658125D01*
X-51176200Y10645442D01*
X-51176200Y10500387D01*
X-51190552Y10465739D01*
X-53625240Y8031052D01*
X-53699242Y7920298D01*
X-53750213Y7797244D01*
X-53750217Y7797229D01*
X-53776200Y7666606D01*
X-62134884Y7666606D01*
X-62111267Y7690223D01*
X-62060574Y7789714D01*
X-62043106Y7900000D01*
X-62060574Y8010286D01*
X-62111267Y8109777D01*
X-62190223Y8188733D01*
X-62190226Y8188735D01*
X-62289714Y8239426D01*
X-62400000Y8256894D01*
X-62510287Y8239426D01*
X-62609775Y8188735D01*
X-62609778Y8188733D01*
X-62688733Y8109778D01*
X-62688735Y8109775D01*
X-62739426Y8010287D01*
X-62739426Y8010286D01*
X-62756894Y7900000D01*
X-65867500Y7900000D01*
X-65867500Y8500000D01*
X-63356894Y8500000D01*
X-63339426Y8389714D01*
X-63288733Y8290223D01*
X-63209777Y8211267D01*
X-63110286Y8160574D01*
X-63000000Y8143106D01*
X-62889714Y8160574D01*
X-62790223Y8211267D01*
X-62711267Y8290223D01*
X-62660574Y8389714D01*
X-62643106Y8500000D01*
X-62660574Y8610286D01*
X-62711267Y8709777D01*
X-62790223Y8788733D01*
X-62790226Y8788735D01*
X-62889714Y8839426D01*
X-63000000Y8856894D01*
X-63110287Y8839426D01*
X-63209775Y8788735D01*
X-63209778Y8788733D01*
X-63288733Y8709778D01*
X-63288735Y8709775D01*
X-63339426Y8610287D01*
X-63356894Y8500000D01*
X-65867500Y8500000D01*
X-65867500Y16995160D01*
X-65867500Y16995177D01*
X-65868139Y17008170D01*
X-65869081Y17017730D01*
X-65871005Y17030672D01*
X-65871203Y17031664D01*
X-65874113Y17046290D01*
X-65874113Y17046296D01*
X-65879465Y17073200D01*
X-65883369Y17092827D01*
X-65890908Y17117681D01*
X-65890917Y17117703D01*
X-65898221Y17135338D01*
X-65905732Y17149389D01*
X-65910470Y17158254D01*
X-65926733Y17182593D01*
X-65938366Y17200004D01*
X-65942992Y17206928D01*
X-65943002Y17206941D01*
X-65959468Y17227006D01*
X-65959479Y17227018D01*
X-65972984Y17240523D01*
X-65972996Y17240534D01*
X-65993060Y17256999D01*
X-65993070Y17257006D01*
X-66041745Y17289530D01*
X-66041746Y17289531D01*
X-66051723Y17294864D01*
X-66064658Y17301778D01*
X-66082333Y17309098D01*
X-66107184Y17316635D01*
X-66169373Y17329005D01*
X-66169426Y17329014D01*
X-66182256Y17330918D01*
X-66191819Y17331860D01*
X-66191822Y17331861D01*
X-66198826Y17332206D01*
X-66204823Y17332500D01*
X-68423500Y17332500D01*
X-68458148Y17346852D01*
X-68472500Y17381500D01*
X-68472500Y17452347D01*
X-68506435Y17666600D01*
X-68507650Y17674274D01*
X-68577084Y17887970D01*
X-68679093Y18088173D01*
X-68811164Y18269954D01*
X-68811166Y18269956D01*
X-68811169Y18269960D01*
X-68970040Y18428831D01*
X-68970045Y18428835D01*
X-68970046Y18428836D01*
X-69151827Y18560907D01*
X-69352030Y18662916D01*
X-69352031Y18662917D01*
X-69352032Y18662917D01*
X-69565726Y18732350D01*
X-69565729Y18732351D01*
X-69736208Y18759352D01*
X-69787653Y18767500D01*
X-70012347Y18767500D01*
X-70054111Y18760886D01*
X-70234272Y18732351D01*
X-70234275Y18732350D01*
X-70447969Y18662917D01*
X-70648173Y18560907D01*
X-70829956Y18428835D01*
X-70988835Y18269956D01*
X-71120907Y18088173D01*
X-71222917Y17887969D01*
X-71292350Y17674275D01*
X-71292351Y17674272D01*
X-71327500Y17452347D01*
X-71327500Y17381500D01*
X-71341852Y17346852D01*
X-71376500Y17332500D01*
X-74095203Y17332500D01*
X-74108138Y17331865D01*
X-74117707Y17330924D01*
X-74130581Y17329015D01*
X-74192818Y17316635D01*
X-74192829Y17316632D01*
X-74217688Y17309091D01*
X-74217692Y17309090D01*
X-74235340Y17301780D01*
X-74258255Y17289531D01*
X-74306935Y17257004D01*
X-74306945Y17256997D01*
X-74327009Y17240532D01*
X-74327021Y17240521D01*
X-74340521Y17227021D01*
X-74340532Y17227009D01*
X-74356998Y17206944D01*
X-74357005Y17206934D01*
X-74389531Y17158255D01*
X-74401774Y17135351D01*
X-74409086Y17117703D01*
X-74416634Y17092823D01*
X-74416635Y17092818D01*
X-74429015Y17030581D01*
X-74430924Y17017707D01*
X-74431865Y17008138D01*
X-74432500Y16995203D01*
X-74799500Y16995203D01*
X-74799500Y28116734D01*
X-54952500Y28116734D01*
X-54952500Y27383267D01*
X-54926467Y27252391D01*
X-54926464Y27252380D01*
X-54875395Y27129087D01*
X-54875393Y27129083D01*
X-54848202Y27088389D01*
X-54801252Y27018122D01*
X-54706879Y26923749D01*
X-54671337Y26900001D01*
X-54595917Y26849607D01*
X-54472619Y26798536D01*
X-54472613Y26798535D01*
X-54472610Y26798534D01*
X-54341734Y26772501D01*
X-54341728Y26772500D01*
X-54208272Y26772500D01*
X-54077381Y26798536D01*
X-53954083Y26849607D01*
X-53843119Y26923751D01*
X-53748751Y27018119D01*
X-53674607Y27129083D01*
X-53623536Y27252381D01*
X-53597500Y27383272D01*
X-53597500Y28116728D01*
X-53602187Y28140293D01*
X-53623534Y28247610D01*
X-53623537Y28247621D01*
X-53674606Y28370914D01*
X-53674607Y28370917D01*
X-53719254Y28437735D01*
X-53748749Y28481879D01*
X-53843122Y28576252D01*
X-53919402Y28627220D01*
X-53954083Y28650393D01*
X-53954086Y28650395D01*
X-53954087Y28650395D01*
X-54077380Y28701464D01*
X-54077391Y28701467D01*
X-54208267Y28727500D01*
X-54208272Y28727500D01*
X-54341728Y28727500D01*
X-54341734Y28727500D01*
X-54472610Y28701467D01*
X-54472621Y28701464D01*
X-54595914Y28650395D01*
X-54706879Y28576252D01*
X-54801252Y28481879D01*
X-54875395Y28370914D01*
X-54926464Y28247621D01*
X-54926467Y28247610D01*
X-54952500Y28116734D01*
X-74799500Y28116734D01*
X-74799500Y29998797D01*
X-74799441Y30001201D01*
X-74794563Y30100501D01*
X-74781322Y30370023D01*
X-74780854Y30374780D01*
X-74726845Y30738882D01*
X-74725914Y30743564D01*
X-74690110Y30886502D01*
X-60077500Y30886502D01*
X-60077500Y29873498D01*
X-60058349Y29777220D01*
X-60045701Y29713630D01*
X-60045699Y29713624D01*
X-59991104Y29581820D01*
X-59983321Y29563032D01*
X-59892761Y29427499D01*
X-59777501Y29312239D01*
X-59641968Y29221679D01*
X-59491373Y29159300D01*
X-59331502Y29127500D01*
X-59331499Y29127500D01*
X-59168501Y29127500D01*
X-59168498Y29127500D01*
X-59008627Y29159300D01*
X-58858032Y29221679D01*
X-58722499Y29312239D01*
X-58607239Y29427499D01*
X-58516679Y29563032D01*
X-58454300Y29713627D01*
X-58422500Y29873498D01*
X-58422500Y30886502D01*
X-17777500Y30886502D01*
X-17777500Y29873498D01*
X-17758349Y29777220D01*
X-17745701Y29713630D01*
X-17745699Y29713624D01*
X-17691104Y29581820D01*
X-17683321Y29563032D01*
X-17592761Y29427499D01*
X-17477501Y29312239D01*
X-17341968Y29221679D01*
X-17191373Y29159300D01*
X-17031502Y29127500D01*
X-17031499Y29127500D01*
X-16868501Y29127500D01*
X-16868498Y29127500D01*
X-16708627Y29159300D01*
X-16558032Y29221679D01*
X-16422499Y29312239D01*
X-16307239Y29427499D01*
X-16216679Y29563032D01*
X-16154300Y29713627D01*
X-16122500Y29873498D01*
X-16122500Y30886502D01*
X-16154300Y31046373D01*
X-16216679Y31196968D01*
X-16307239Y31332501D01*
X-16422499Y31447761D01*
X-16558032Y31538321D01*
X-16558035Y31538323D01*
X-16558036Y31538323D01*
X-16708624Y31600699D01*
X-16708630Y31600701D01*
X-16773101Y31613525D01*
X-16868498Y31632500D01*
X-17031502Y31632500D01*
X-17111072Y31616673D01*
X-17191371Y31600701D01*
X-17191377Y31600699D01*
X-17341965Y31538323D01*
X-17477501Y31447762D01*
X-17592762Y31332501D01*
X-17683323Y31196965D01*
X-17745699Y31046377D01*
X-17745701Y31046371D01*
X-17761673Y30966072D01*
X-17777500Y30886502D01*
X-58422500Y30886502D01*
X-58454300Y31046373D01*
X-58516679Y31196968D01*
X-58607239Y31332501D01*
X-58722499Y31447761D01*
X-58858032Y31538321D01*
X-58858035Y31538323D01*
X-58858036Y31538323D01*
X-59008624Y31600699D01*
X-59008630Y31600701D01*
X-59073101Y31613525D01*
X-59168498Y31632500D01*
X-59331502Y31632500D01*
X-59411072Y31616673D01*
X-59491371Y31600701D01*
X-59491377Y31600699D01*
X-59641965Y31538323D01*
X-59777501Y31447762D01*
X-59892762Y31332501D01*
X-59983323Y31196965D01*
X-60045699Y31046377D01*
X-60045701Y31046371D01*
X-60061673Y30966072D01*
X-60077500Y30886502D01*
X-74690110Y30886502D01*
X-74636480Y31100605D01*
X-74635084Y31105204D01*
X-74602250Y31196968D01*
X-74511083Y31451764D01*
X-74509254Y31456177D01*
X-74351885Y31788907D01*
X-74349637Y31793114D01*
X-74160402Y32108834D01*
X-74157732Y32112827D01*
X-73938478Y32408456D01*
X-73935452Y32412144D01*
X-73688269Y32684869D01*
X-73684868Y32688269D01*
X-73412144Y32935452D01*
X-73408456Y32938478D01*
X-73112823Y33157735D01*
X-73108829Y33160404D01*
X-72793114Y33349637D01*
X-72788907Y33351885D01*
X-72456177Y33509254D01*
X-72451764Y33511083D01*
X-72105202Y33635085D01*
X-72100602Y33636480D01*
X-71743564Y33725914D01*
X-71738882Y33726845D01*
X-71374780Y33780854D01*
X-71370023Y33781322D01*
X-71001201Y33799442D01*
X-70998797Y33799500D01*
X-70960118Y33799500D01*
X-4039882Y33799500D01*
X-4001203Y33799500D01*
X-3998800Y33799442D01*
G37*
G04 #@! TD.AperFunction*
G04 #@! TD*
G04 #@! TA.AperFunction,Conductor*
G04 #@! TO.N,+3V3*
G36*
X-71330322Y17185648D02*
G01*
X-71316574Y17158666D01*
X-71312559Y17133320D01*
X-71292351Y17005729D01*
X-71292350Y17005726D01*
X-71222916Y16792030D01*
X-71120907Y16591827D01*
X-70988836Y16410046D01*
X-70988835Y16410045D01*
X-70988831Y16410040D01*
X-70829960Y16251169D01*
X-70829956Y16251166D01*
X-70829954Y16251164D01*
X-70648173Y16119093D01*
X-70447970Y16017084D01*
X-70234274Y15947650D01*
X-70012347Y15912500D01*
X-70012346Y15912500D01*
X-69787654Y15912500D01*
X-69787653Y15912500D01*
X-69565726Y15947650D01*
X-69352030Y16017084D01*
X-69151827Y16119093D01*
X-68970046Y16251164D01*
X-68970043Y16251168D01*
X-68970040Y16251169D01*
X-68811169Y16410040D01*
X-68811168Y16410043D01*
X-68811164Y16410046D01*
X-68679093Y16591827D01*
X-68577084Y16792030D01*
X-68507650Y17005726D01*
X-68483427Y17158666D01*
X-68463832Y17190642D01*
X-68435030Y17200000D01*
X-66204823Y17200000D01*
X-66195264Y17199058D01*
X-66133025Y17186678D01*
X-66115360Y17179362D01*
X-66066681Y17146835D01*
X-66053166Y17133320D01*
X-66036902Y17108979D01*
X-66020639Y17084640D01*
X-66013323Y17066977D01*
X-66004535Y17022798D01*
X-66001140Y17005729D01*
X-66000942Y17004737D01*
X-66000000Y16995177D01*
X-66000000Y7200000D01*
X-65987821Y7138771D01*
X-65984776Y7123462D01*
X-65941422Y7058579D01*
X-65876538Y7015225D01*
X-65876539Y7015225D01*
X-65876537Y7015224D01*
X-65800000Y7000000D01*
X-60287666Y7000000D01*
X-60278107Y6999058D01*
X-60215868Y6986678D01*
X-60198204Y6979362D01*
X-60166267Y6958023D01*
X-60145588Y6944205D01*
X-60145433Y6944102D01*
X-60138008Y6938008D01*
X-56061993Y2861993D01*
X-56055899Y2854568D01*
X-56020639Y2801797D01*
X-56013323Y2784134D01*
X-56000942Y2721894D01*
X-56000000Y2712334D01*
X-56000000Y904824D01*
X-56000942Y895264D01*
X-56013323Y833024D01*
X-56020639Y815361D01*
X-56053164Y766683D01*
X-56066683Y753164D01*
X-56115361Y720639D01*
X-56133024Y713323D01*
X-56180725Y703835D01*
X-56195266Y700942D01*
X-56204823Y700000D01*
X-70073982Y700000D01*
X-70108630Y714352D01*
X-70122982Y749000D01*
X-70108630Y783648D01*
X-70089628Y795435D01*
X-69766556Y904290D01*
X-69766554Y904292D01*
X-69766551Y904292D01*
X-69683729Y942611D01*
X-69439082Y1055796D01*
X-69129908Y1241820D01*
X-68842658Y1460181D01*
X-68580702Y1708319D01*
X-68347110Y1983325D01*
X-68144620Y2281975D01*
X-67975607Y2600767D01*
X-67842053Y2935964D01*
X-67782626Y3150000D01*
X-66406894Y3150000D01*
X-66389426Y3039714D01*
X-66338733Y2940223D01*
X-66259777Y2861267D01*
X-66160286Y2810574D01*
X-66050000Y2793106D01*
X-65939714Y2810574D01*
X-65840223Y2861267D01*
X-65761267Y2940223D01*
X-65710574Y3039714D01*
X-65693106Y3150000D01*
X-65710574Y3260286D01*
X-65761267Y3359777D01*
X-65840223Y3438733D01*
X-65840226Y3438735D01*
X-65939714Y3489426D01*
X-66050000Y3506894D01*
X-66160287Y3489426D01*
X-66259775Y3438735D01*
X-66259778Y3438733D01*
X-66338733Y3359778D01*
X-66338735Y3359775D01*
X-66389426Y3260287D01*
X-66389426Y3260286D01*
X-66406894Y3150000D01*
X-67782626Y3150000D01*
X-67745522Y3283635D01*
X-67687148Y3639706D01*
X-67667613Y4000000D01*
X-65006894Y4000000D01*
X-64989426Y3889714D01*
X-64946670Y3805799D01*
X-64938733Y3790223D01*
X-64859777Y3711267D01*
X-64760286Y3660574D01*
X-64650000Y3643106D01*
X-64539714Y3660574D01*
X-64520866Y3670178D01*
X-64504021Y3678760D01*
X-64466634Y3681703D01*
X-64438117Y3657346D01*
X-64435174Y3619959D01*
X-64438116Y3612857D01*
X-64439425Y3610289D01*
X-64439426Y3610288D01*
X-64439426Y3610286D01*
X-64451153Y3536247D01*
X-64456894Y3500000D01*
X-64439426Y3389714D01*
X-64393948Y3300457D01*
X-64388733Y3290223D01*
X-64309777Y3211267D01*
X-64210286Y3160574D01*
X-64100000Y3143106D01*
X-63989714Y3160574D01*
X-63890223Y3211267D01*
X-63811267Y3290223D01*
X-63760574Y3389714D01*
X-63743106Y3500000D01*
X-63759489Y3603430D01*
X-63750734Y3639893D01*
X-63718758Y3659489D01*
X-63703436Y3659489D01*
X-63600000Y3643106D01*
X-63489714Y3660574D01*
X-63390223Y3711267D01*
X-63311267Y3790223D01*
X-63260574Y3889714D01*
X-63243106Y4000000D01*
X-63254455Y4071652D01*
X-60327500Y4071652D01*
X-60327500Y3928348D01*
X-60313926Y3860108D01*
X-60299544Y3787799D01*
X-60299542Y3787793D01*
X-60246846Y3660574D01*
X-60244702Y3655400D01*
X-60165086Y3536246D01*
X-60063754Y3434914D01*
X-59944600Y3355298D01*
X-59812204Y3300457D01*
X-59671652Y3272500D01*
X-59671649Y3272500D01*
X-59528351Y3272500D01*
X-59528348Y3272500D01*
X-59387796Y3300457D01*
X-59255400Y3355298D01*
X-59136246Y3434914D01*
X-59034914Y3536246D01*
X-58955298Y3655400D01*
X-58900457Y3787796D01*
X-58872500Y3928348D01*
X-58872500Y4071652D01*
X-58900457Y4212204D01*
X-58955298Y4344600D01*
X-59034914Y4463754D01*
X-59136246Y4565086D01*
X-59255400Y4644702D01*
X-59255403Y4644704D01*
X-59255404Y4644704D01*
X-59387793Y4699542D01*
X-59387799Y4699544D01*
X-59444480Y4710818D01*
X-59528348Y4727500D01*
X-59671652Y4727500D01*
X-59727622Y4716367D01*
X-59812202Y4699544D01*
X-59812208Y4699542D01*
X-59944597Y4644704D01*
X-60063754Y4565087D01*
X-60165087Y4463754D01*
X-60244704Y4344597D01*
X-60299542Y4212208D01*
X-60299544Y4212202D01*
X-60311770Y4150734D01*
X-60327500Y4071652D01*
X-63254455Y4071652D01*
X-63260574Y4110286D01*
X-63311267Y4209777D01*
X-63390223Y4288733D01*
X-63390226Y4288735D01*
X-63489714Y4339426D01*
X-63522381Y4344600D01*
X-63600000Y4356894D01*
X-63600001Y4356894D01*
X-63623357Y4353195D01*
X-63703428Y4340513D01*
X-63739893Y4349267D01*
X-63759489Y4381243D01*
X-63759489Y4396565D01*
X-63743106Y4500000D01*
X-63760574Y4610286D01*
X-63811267Y4709777D01*
X-63890223Y4788733D01*
X-63890226Y4788735D01*
X-63989714Y4839426D01*
X-64100000Y4856894D01*
X-64210287Y4839426D01*
X-64309775Y4788735D01*
X-64309778Y4788733D01*
X-64388733Y4709778D01*
X-64388735Y4709775D01*
X-64439426Y4610287D01*
X-64439426Y4610286D01*
X-64456894Y4500000D01*
X-64439426Y4389714D01*
X-64439426Y4389713D01*
X-64439425Y4389712D01*
X-64438118Y4387147D01*
X-64435174Y4349760D01*
X-64459529Y4321242D01*
X-64496916Y4318298D01*
X-64504020Y4321240D01*
X-64539712Y4339425D01*
X-64539713Y4339426D01*
X-64539714Y4339426D01*
X-64650000Y4356894D01*
X-64760287Y4339426D01*
X-64859775Y4288735D01*
X-64859778Y4288733D01*
X-64938733Y4209778D01*
X-64938735Y4209775D01*
X-64989426Y4110287D01*
X-65006894Y4000000D01*
X-67667613Y4000000D01*
X-67687148Y4360294D01*
X-67745522Y4716365D01*
X-67842053Y5064036D01*
X-67975607Y5399233D01*
X-68144620Y5718025D01*
X-68144622Y5718028D01*
X-68144625Y5718034D01*
X-68347107Y6016671D01*
X-68580695Y6291674D01*
X-68580705Y6291684D01*
X-68842648Y6539810D01*
X-68842651Y6539812D01*
X-68842658Y6539819D01*
X-69129908Y6758180D01*
X-69129909Y6758181D01*
X-69129916Y6758186D01*
X-69428784Y6938008D01*
X-69439082Y6944204D01*
X-69468951Y6958023D01*
X-69766551Y7095709D01*
X-70108494Y7210922D01*
X-70460871Y7288487D01*
X-70463133Y7288733D01*
X-70819588Y7327500D01*
X-71180412Y7327500D01*
X-71479021Y7295025D01*
X-71539130Y7288487D01*
X-71891506Y7210922D01*
X-71891509Y7210922D01*
X-72233450Y7095709D01*
X-72560917Y6944205D01*
X-72870085Y6758186D01*
X-72998491Y6660574D01*
X-73157342Y6539819D01*
X-73157346Y6539816D01*
X-73157353Y6539810D01*
X-73419296Y6291684D01*
X-73419306Y6291674D01*
X-73652894Y6016671D01*
X-73855376Y5718034D01*
X-73855380Y5718026D01*
X-74024393Y5399235D01*
X-74024395Y5399230D01*
X-74157947Y5064038D01*
X-74157950Y5064029D01*
X-74203786Y4898940D01*
X-74226884Y4869394D01*
X-74264109Y4864835D01*
X-74293655Y4887933D01*
X-74300000Y4912049D01*
X-74300000Y10966606D01*
X-73667500Y10966606D01*
X-73667500Y10773395D01*
X-73637276Y10582563D01*
X-73637275Y10582560D01*
X-73577570Y10398805D01*
X-73489851Y10226648D01*
X-73489849Y10226645D01*
X-73376284Y10070336D01*
X-73376280Y10070331D01*
X-73239669Y9933720D01*
X-73239665Y9933717D01*
X-73239663Y9933715D01*
X-73083350Y9820148D01*
X-72911197Y9732431D01*
X-72727440Y9672725D01*
X-72536606Y9642500D01*
X-72536605Y9642500D01*
X-72343395Y9642500D01*
X-72343394Y9642500D01*
X-72152560Y9672725D01*
X-71968803Y9732431D01*
X-71796650Y9820148D01*
X-71640337Y9933715D01*
X-71640334Y9933719D01*
X-71640331Y9933720D01*
X-71503720Y10070331D01*
X-71503719Y10070334D01*
X-71503715Y10070337D01*
X-71390148Y10226650D01*
X-71302431Y10398803D01*
X-71242725Y10582560D01*
X-71212500Y10773394D01*
X-71212500Y10966606D01*
X-71242725Y11157440D01*
X-71302431Y11341197D01*
X-71390148Y11513350D01*
X-71393818Y11518401D01*
X-71482619Y11640626D01*
X-71503715Y11669663D01*
X-71503717Y11669665D01*
X-71503720Y11669669D01*
X-71640331Y11806280D01*
X-71640336Y11806284D01*
X-71646241Y11810574D01*
X-71687509Y11840557D01*
X-71796645Y11919849D01*
X-71796648Y11919851D01*
X-71968805Y12007570D01*
X-72152560Y12067275D01*
X-72152563Y12067276D01*
X-72299158Y12090494D01*
X-72343394Y12097500D01*
X-72536606Y12097500D01*
X-72572518Y12091813D01*
X-72727438Y12067276D01*
X-72727441Y12067275D01*
X-72911196Y12007570D01*
X-73083353Y11919851D01*
X-73083356Y11919849D01*
X-73239665Y11806284D01*
X-73376284Y11669665D01*
X-73489849Y11513356D01*
X-73489851Y11513353D01*
X-73577570Y11341196D01*
X-73637275Y11157441D01*
X-73637276Y11157438D01*
X-73667500Y10966606D01*
X-74300000Y10966606D01*
X-74300000Y12286432D01*
X-70777500Y12286432D01*
X-70777500Y12113569D01*
X-70743781Y11944053D01*
X-70743778Y11944042D01*
X-70681259Y11793107D01*
X-70677631Y11784348D01*
X-70581599Y11640626D01*
X-70459374Y11518401D01*
X-70315652Y11422369D01*
X-70155957Y11356222D01*
X-70155951Y11356221D01*
X-70155948Y11356220D01*
X-69986432Y11322501D01*
X-69986426Y11322500D01*
X-69813574Y11322500D01*
X-69644043Y11356222D01*
X-69484348Y11422369D01*
X-69340626Y11518401D01*
X-69218401Y11640626D01*
X-69122369Y11784348D01*
X-69056222Y11944043D01*
X-69022500Y12113574D01*
X-69022500Y12150000D01*
X-67556894Y12150000D01*
X-67539426Y12039714D01*
X-67490680Y11944043D01*
X-67488733Y11940223D01*
X-67409777Y11861267D01*
X-67310286Y11810574D01*
X-67200000Y11793106D01*
X-67089714Y11810574D01*
X-66990223Y11861267D01*
X-66911267Y11940223D01*
X-66860574Y12039714D01*
X-66843106Y12150000D01*
X-66860574Y12260286D01*
X-66911267Y12359777D01*
X-66990223Y12438733D01*
X-66990226Y12438735D01*
X-67089714Y12489426D01*
X-67200000Y12506894D01*
X-67310287Y12489426D01*
X-67409775Y12438735D01*
X-67409778Y12438733D01*
X-67488733Y12359778D01*
X-67488735Y12359775D01*
X-67539426Y12260287D01*
X-67556894Y12150000D01*
X-69022500Y12150000D01*
X-69022500Y12286426D01*
X-69037090Y12359775D01*
X-69056220Y12455948D01*
X-69056223Y12455959D01*
X-69122368Y12615649D01*
X-69122369Y12615652D01*
X-69218401Y12759374D01*
X-69340626Y12881599D01*
X-69484348Y12977631D01*
X-69484351Y12977633D01*
X-69484352Y12977633D01*
X-69644042Y13043778D01*
X-69644053Y13043781D01*
X-69813569Y13077500D01*
X-69813574Y13077500D01*
X-69986426Y13077500D01*
X-69986432Y13077500D01*
X-70155948Y13043781D01*
X-70155959Y13043778D01*
X-70315649Y12977633D01*
X-70459374Y12881600D01*
X-70581600Y12759374D01*
X-70677633Y12615649D01*
X-70743778Y12455959D01*
X-70743781Y12455948D01*
X-70777500Y12286432D01*
X-74300000Y12286432D01*
X-74300000Y13556432D01*
X-73317500Y13556432D01*
X-73317500Y13383569D01*
X-73283781Y13214053D01*
X-73283778Y13214043D01*
X-73217631Y13054348D01*
X-73121599Y12910626D01*
X-72999374Y12788401D01*
X-72855652Y12692369D01*
X-72695957Y12626222D01*
X-72695951Y12626221D01*
X-72695948Y12626220D01*
X-72526432Y12592501D01*
X-72526426Y12592500D01*
X-72353574Y12592500D01*
X-72184043Y12626222D01*
X-72024348Y12692369D01*
X-71880626Y12788401D01*
X-71758401Y12910626D01*
X-71662369Y13054348D01*
X-71596222Y13214043D01*
X-71562500Y13383574D01*
X-71562500Y13556426D01*
X-71596222Y13725957D01*
X-71662369Y13885652D01*
X-71758401Y14029374D01*
X-71880626Y14151599D01*
X-72024348Y14247631D01*
X-72024351Y14247633D01*
X-72024352Y14247633D01*
X-72184042Y14313778D01*
X-72184053Y14313781D01*
X-72353569Y14347500D01*
X-72353574Y14347500D01*
X-72526426Y14347500D01*
X-72526432Y14347500D01*
X-72695948Y14313781D01*
X-72695959Y14313778D01*
X-72855649Y14247633D01*
X-72999374Y14151600D01*
X-73121600Y14029374D01*
X-73217633Y13885649D01*
X-73283778Y13725959D01*
X-73283781Y13725948D01*
X-73317500Y13556432D01*
X-74300000Y13556432D01*
X-74300000Y14826432D01*
X-70777500Y14826432D01*
X-70777500Y14653569D01*
X-70743781Y14484053D01*
X-70743778Y14484042D01*
X-70687221Y14347500D01*
X-70677631Y14324348D01*
X-70581599Y14180626D01*
X-70459374Y14058401D01*
X-70315652Y13962369D01*
X-70155957Y13896222D01*
X-70155951Y13896221D01*
X-70155948Y13896220D01*
X-69986432Y13862501D01*
X-69986426Y13862500D01*
X-69813574Y13862500D01*
X-69644043Y13896222D01*
X-69484348Y13962369D01*
X-69340626Y14058401D01*
X-69218401Y14180626D01*
X-69122369Y14324348D01*
X-69056222Y14484043D01*
X-69022500Y14653574D01*
X-69022500Y14750000D01*
X-67556894Y14750000D01*
X-67539426Y14639714D01*
X-67488733Y14540223D01*
X-67409777Y14461267D01*
X-67310286Y14410574D01*
X-67200000Y14393106D01*
X-67089714Y14410574D01*
X-66990223Y14461267D01*
X-66911267Y14540223D01*
X-66860574Y14639714D01*
X-66843106Y14750000D01*
X-66860574Y14860286D01*
X-66911267Y14959777D01*
X-66990223Y15038733D01*
X-66990226Y15038735D01*
X-67089714Y15089426D01*
X-67200000Y15106894D01*
X-67310287Y15089426D01*
X-67409775Y15038735D01*
X-67409778Y15038733D01*
X-67488733Y14959778D01*
X-67488735Y14959775D01*
X-67539426Y14860287D01*
X-67539426Y14860286D01*
X-67556894Y14750000D01*
X-69022500Y14750000D01*
X-69022500Y14826426D01*
X-69049025Y14959777D01*
X-69056220Y14995948D01*
X-69056223Y14995959D01*
X-69122368Y15155649D01*
X-69122369Y15155652D01*
X-69218401Y15299374D01*
X-69340626Y15421599D01*
X-69484348Y15517631D01*
X-69484351Y15517633D01*
X-69484352Y15517633D01*
X-69644042Y15583778D01*
X-69644053Y15583781D01*
X-69813569Y15617500D01*
X-69813574Y15617500D01*
X-69986426Y15617500D01*
X-69986432Y15617500D01*
X-70155948Y15583781D01*
X-70155959Y15583778D01*
X-70315649Y15517633D01*
X-70459374Y15421600D01*
X-70581600Y15299374D01*
X-70677633Y15155649D01*
X-70743778Y14995959D01*
X-70743781Y14995948D01*
X-70777500Y14826432D01*
X-74300000Y14826432D01*
X-74300000Y16995177D01*
X-74299061Y17004726D01*
X-74286677Y17066982D01*
X-74279362Y17084640D01*
X-74246833Y17133323D01*
X-74233323Y17146833D01*
X-74184639Y17179363D01*
X-74166982Y17186677D01*
X-74104726Y17199061D01*
X-74095177Y17200000D01*
X-71364970Y17200000D01*
X-71330322Y17185648D01*
G37*
G04 #@! TD.AperFunction*
G04 #@! TD*
M02*
