G04 #@! TF.GenerationSoftware,KiCad,Pcbnew,8.0.6*
G04 #@! TF.CreationDate,2024-11-07T02:27:46-08:00*
G04 #@! TF.ProjectId,mse-68-vhdci,6d73652d-3638-42d7-9668-6463692e6b69,1*
G04 #@! TF.SameCoordinates,PXb06e040PY8583b00*
G04 #@! TF.FileFunction,Copper,L6,Bot*
G04 #@! TF.FilePolarity,Positive*
%FSLAX46Y46*%
G04 Gerber Fmt 4.6, Leading zero omitted, Abs format (unit mm)*
G04 Created by KiCad (PCBNEW 8.0.6) date 2024-11-07 02:27:46*
%MOMM*%
%LPD*%
G01*
G04 APERTURE LIST*
%ADD10C,0.300000*%
G04 #@! TA.AperFunction,NonConductor*
%ADD11C,0.300000*%
G04 #@! TD*
G04 #@! TA.AperFunction,ComponentPad*
%ADD12C,6.400000*%
G04 #@! TD*
G04 #@! TA.AperFunction,ComponentPad*
%ADD13C,1.850000*%
G04 #@! TD*
G04 #@! TA.AperFunction,ComponentPad*
%ADD14C,1.000000*%
G04 #@! TD*
G04 #@! TA.AperFunction,ComponentPad*
%ADD15O,1.400000X2.250000*%
G04 #@! TD*
G04 #@! TA.AperFunction,ComponentPad*
%ADD16O,1.100000X1.700000*%
G04 #@! TD*
G04 #@! TA.AperFunction,ViaPad*
%ADD17C,0.450000*%
G04 #@! TD*
G04 #@! TA.AperFunction,ViaPad*
%ADD18C,0.600000*%
G04 #@! TD*
G04 #@! TA.AperFunction,Conductor*
%ADD19C,0.200000*%
G04 #@! TD*
G04 #@! TA.AperFunction,Conductor*
%ADD20C,0.400000*%
G04 #@! TD*
G04 APERTURE END LIST*
D10*
D11*
X-1999172Y20414285D02*
X-1999172Y20700000D01*
X-1999172Y20700000D02*
X-1927743Y20842857D01*
X-1927743Y20842857D02*
X-1856315Y20914285D01*
X-1856315Y20914285D02*
X-1642029Y21057143D01*
X-1642029Y21057143D02*
X-1356315Y21128571D01*
X-1356315Y21128571D02*
X-784886Y21128571D01*
X-784886Y21128571D02*
X-642029Y21057143D01*
X-642029Y21057143D02*
X-570600Y20985714D01*
X-570600Y20985714D02*
X-499172Y20842857D01*
X-499172Y20842857D02*
X-499172Y20557143D01*
X-499172Y20557143D02*
X-570600Y20414285D01*
X-570600Y20414285D02*
X-642029Y20342857D01*
X-642029Y20342857D02*
X-784886Y20271428D01*
X-784886Y20271428D02*
X-1142029Y20271428D01*
X-1142029Y20271428D02*
X-1284886Y20342857D01*
X-1284886Y20342857D02*
X-1356315Y20414285D01*
X-1356315Y20414285D02*
X-1427743Y20557143D01*
X-1427743Y20557143D02*
X-1427743Y20842857D01*
X-1427743Y20842857D02*
X-1356315Y20985714D01*
X-1356315Y20985714D02*
X-1284886Y21057143D01*
X-1284886Y21057143D02*
X-1142029Y21128571D01*
D12*
G04 #@! TO.P,H4,1,1*
G04 #@! TO.N,GND*
X-4000000Y4000000D03*
G04 #@! TD*
D13*
G04 #@! TO.P,J3,1,Pin_1*
G04 #@! TO.N,+3V3*
X-72440000Y16010000D03*
G04 #@! TO.P,J3,2,Pin_2*
G04 #@! TO.N,/PHY.ID_SDA*
X-69900000Y14740000D03*
G04 #@! TO.P,J3,3,Pin_3*
G04 #@! TO.N,GND*
X-72440000Y13470000D03*
G04 #@! TO.P,J3,4,Pin_4*
G04 #@! TO.N,/PHY.ID_SCL*
X-69900000Y12200000D03*
G04 #@! TD*
D14*
G04 #@! TO.P,J4,1,Pin_1*
G04 #@! TO.N,/CON.DB12+*
X-51100000Y25500000D03*
G04 #@! TO.P,J4,2,Pin_2*
G04 #@! TO.N,/CON.DB13+*
X-50300000Y26650000D03*
G04 #@! TO.P,J4,3,Pin_3*
G04 #@! TO.N,/CON.DB14+*
X-49500000Y25500000D03*
G04 #@! TO.P,J4,4,Pin_4*
G04 #@! TO.N,/CON.DB15+*
X-48700000Y26650000D03*
G04 #@! TO.P,J4,5,Pin_5*
G04 #@! TO.N,/CON.DP1+*
X-47900000Y25500000D03*
G04 #@! TO.P,J4,6,Pin_6*
G04 #@! TO.N,/CON.DB0+*
X-47100000Y26650000D03*
G04 #@! TO.P,J4,7,Pin_7*
G04 #@! TO.N,/CON.DB1+*
X-46300000Y25500000D03*
G04 #@! TO.P,J4,8,Pin_8*
G04 #@! TO.N,/CON.DB2+*
X-45500000Y26650000D03*
G04 #@! TO.P,J4,9,Pin_9*
G04 #@! TO.N,/CON.DB3+*
X-44700000Y25500000D03*
G04 #@! TO.P,J4,10,Pin_10*
G04 #@! TO.N,/CON.DB4+*
X-43900000Y26650000D03*
G04 #@! TO.P,J4,11,Pin_11*
G04 #@! TO.N,/CON.DB5+*
X-43100000Y25499999D03*
G04 #@! TO.P,J4,12,Pin_12*
G04 #@! TO.N,/CON.DB6+*
X-42300000Y26650000D03*
G04 #@! TO.P,J4,13,Pin_13*
G04 #@! TO.N,/CON.DB7+*
X-41500001Y25500000D03*
G04 #@! TO.P,J4,14,Pin_14*
G04 #@! TO.N,/CON.DP0+*
X-40700000Y26650000D03*
G04 #@! TO.P,J4,15,Pin_15*
G04 #@! TO.N,GND*
X-39900000Y25500000D03*
G04 #@! TO.P,J4,16,Pin_16*
G04 #@! TO.N,/CON.DIFFSENSE*
X-39100000Y26650000D03*
G04 #@! TO.P,J4,17,Pin_17*
G04 #@! TO.N,/CON.TERMPWR*
X-38300000Y25500000D03*
G04 #@! TO.P,J4,18,Pin_18*
X-37500000Y26650000D03*
G04 #@! TO.P,J4,19,Pin_19*
G04 #@! TO.N,unconnected-(J4-Pin_19-Pad19)*
X-36700000Y25500000D03*
G04 #@! TO.P,J4,20,Pin_20*
G04 #@! TO.N,GND*
X-35900000Y26650000D03*
G04 #@! TO.P,J4,21,Pin_21*
G04 #@! TO.N,/CON.ATN+*
X-35100000Y25500000D03*
G04 #@! TO.P,J4,22,Pin_22*
G04 #@! TO.N,GND*
X-34300000Y26650000D03*
G04 #@! TO.P,J4,23,Pin_23*
G04 #@! TO.N,/CON.BSY+*
X-33499999Y25500000D03*
G04 #@! TO.P,J4,24,Pin_24*
G04 #@! TO.N,/CON.ACK+*
X-32700000Y26650000D03*
G04 #@! TO.P,J4,25,Pin_25*
G04 #@! TO.N,/CON.RST+*
X-31900000Y25499999D03*
G04 #@! TO.P,J4,26,Pin_26*
G04 #@! TO.N,/CON.MSG+*
X-31100000Y26650000D03*
G04 #@! TO.P,J4,27,Pin_27*
G04 #@! TO.N,/CON.SEL+*
X-30300000Y25500000D03*
G04 #@! TO.P,J4,28,Pin_28*
G04 #@! TO.N,/CON.C{slash}D+*
X-29500000Y26650000D03*
G04 #@! TO.P,J4,29,Pin_29*
G04 #@! TO.N,/CON.REQ+*
X-28700000Y25500000D03*
G04 #@! TO.P,J4,30,Pin_30*
G04 #@! TO.N,/CON.I{slash}O+*
X-27900000Y26650000D03*
G04 #@! TO.P,J4,31,Pin_31*
G04 #@! TO.N,/CON.DB8+*
X-27100000Y25500000D03*
G04 #@! TO.P,J4,32,Pin_32*
G04 #@! TO.N,/CON.DB9+*
X-26300000Y26650000D03*
G04 #@! TO.P,J4,33,Pin_33*
G04 #@! TO.N,/CON.DB10+*
X-25500000Y25500000D03*
G04 #@! TO.P,J4,34,Pin_34*
G04 #@! TO.N,/CON.DB11+*
X-24700000Y26650000D03*
G04 #@! TO.P,J4,35,Pin_35*
G04 #@! TO.N,/CON.DB12-*
X-51500000Y27850000D03*
G04 #@! TO.P,J4,36,Pin_36*
G04 #@! TO.N,/CON.DB13-*
X-50700000Y29000001D03*
G04 #@! TO.P,J4,37,Pin_37*
G04 #@! TO.N,/CON.DB14-*
X-49900000Y27850000D03*
G04 #@! TO.P,J4,38,Pin_38*
G04 #@! TO.N,/CON.DB15-*
X-49100000Y29000000D03*
G04 #@! TO.P,J4,39,Pin_39*
G04 #@! TO.N,/CON.DP1-*
X-48300000Y27850000D03*
G04 #@! TO.P,J4,40,Pin_40*
G04 #@! TO.N,/CON.DB0-*
X-47500000Y29000000D03*
G04 #@! TO.P,J4,41,Pin_41*
G04 #@! TO.N,/CON.DB1-*
X-46700000Y27850000D03*
G04 #@! TO.P,J4,42,Pin_42*
G04 #@! TO.N,/CON.DB2-*
X-45900000Y29000000D03*
G04 #@! TO.P,J4,43,Pin_43*
G04 #@! TO.N,/CON.DB3-*
X-45100000Y27850000D03*
G04 #@! TO.P,J4,44,Pin_44*
G04 #@! TO.N,/CON.DB4-*
X-44300000Y29000000D03*
G04 #@! TO.P,J4,45,Pin_45*
G04 #@! TO.N,/CON.DB5-*
X-43500000Y27850000D03*
G04 #@! TO.P,J4,46,Pin_46*
G04 #@! TO.N,/CON.DB6-*
X-42700000Y29000000D03*
G04 #@! TO.P,J4,47,Pin_47*
G04 #@! TO.N,/CON.DB7-*
X-41900000Y27850000D03*
G04 #@! TO.P,J4,48,Pin_48*
G04 #@! TO.N,/CON.DP0-*
X-41100000Y29000001D03*
G04 #@! TO.P,J4,49,Pin_49*
G04 #@! TO.N,GND*
X-40300000Y27850000D03*
G04 #@! TO.P,J4,50,Pin_50*
X-39500000Y29000001D03*
G04 #@! TO.P,J4,51,Pin_51*
G04 #@! TO.N,/CON.TERMPWR*
X-38700000Y27850000D03*
G04 #@! TO.P,J4,52,Pin_52*
X-37900000Y29000000D03*
G04 #@! TO.P,J4,53,Pin_53*
G04 #@! TO.N,unconnected-(J4-Pin_53-Pad53)*
X-37100000Y27850000D03*
G04 #@! TO.P,J4,54,Pin_54*
G04 #@! TO.N,GND*
X-36300000Y29000000D03*
G04 #@! TO.P,J4,55,Pin_55*
G04 #@! TO.N,/CON.ATN-*
X-35500000Y27850000D03*
G04 #@! TO.P,J4,56,Pin_56*
G04 #@! TO.N,GND*
X-34700000Y29000000D03*
G04 #@! TO.P,J4,57,Pin_57*
G04 #@! TO.N,/CON.BSY-*
X-33900000Y27850000D03*
G04 #@! TO.P,J4,58,Pin_58*
G04 #@! TO.N,/CON.ACK-*
X-33100000Y29000000D03*
G04 #@! TO.P,J4,59,Pin_59*
G04 #@! TO.N,/CON.RST-*
X-32300000Y27850000D03*
G04 #@! TO.P,J4,60,Pin_60*
G04 #@! TO.N,/CON.MSG-*
X-31500000Y29000000D03*
G04 #@! TO.P,J4,61,Pin_61*
G04 #@! TO.N,/CON.SEL-*
X-30700000Y27850000D03*
G04 #@! TO.P,J4,62,Pin_62*
G04 #@! TO.N,/CON.C{slash}D-*
X-29900000Y29000001D03*
G04 #@! TO.P,J4,63,Pin_63*
G04 #@! TO.N,/CON.REQ-*
X-29100000Y27850000D03*
G04 #@! TO.P,J4,64,Pin_64*
G04 #@! TO.N,/CON.I{slash}O-*
X-28300000Y29000001D03*
G04 #@! TO.P,J4,65,Pin_65*
G04 #@! TO.N,/CON.DB8-*
X-27500000Y27850000D03*
G04 #@! TO.P,J4,66,Pin_66*
G04 #@! TO.N,/CON.DB9-*
X-26700000Y29000000D03*
G04 #@! TO.P,J4,67,Pin_67*
G04 #@! TO.N,/CON.DB10-*
X-25900000Y27850000D03*
G04 #@! TO.P,J4,68,Pin_68*
G04 #@! TO.N,/CON.DB11-*
X-25100000Y29000000D03*
D15*
G04 #@! TO.P,J4,SHIELD,SHIELD*
G04 #@! TO.N,/SHIELD*
X-16950000Y30380000D03*
D16*
X-21925000Y27750000D03*
X-54275000Y27750000D03*
D15*
X-59250000Y30380000D03*
G04 #@! TD*
D12*
G04 #@! TO.P,H3,1,1*
G04 #@! TO.N,GND*
X-71000000Y4000000D03*
G04 #@! TD*
D17*
G04 #@! TO.N,GND*
X-20300000Y7600000D03*
X-20300000Y5400000D03*
X-22700000Y1800000D03*
X-49100000Y1800000D03*
X-53900000Y1000000D03*
X-29900000Y2600000D03*
X-17900000Y7600000D03*
X-53900000Y7600000D03*
X-39500000Y6200000D03*
X-29900000Y3200000D03*
X-39500000Y1800000D03*
X-44300000Y7000000D03*
X-49100000Y6200000D03*
X-27500000Y7600000D03*
X-64650000Y4000000D03*
X-46700000Y6200000D03*
X-53900000Y3200000D03*
X-51500000Y2600000D03*
X-27500000Y3200000D03*
X-27500000Y2600000D03*
X-39500000Y7000000D03*
X-32300000Y1800000D03*
X-53900000Y5400000D03*
X-20300000Y1800000D03*
X-32300000Y3200000D03*
X-17900000Y3200000D03*
X-53900000Y2600000D03*
X-37100000Y5400000D03*
X-39500000Y7600000D03*
X-63600000Y4000000D03*
X-25100000Y7000000D03*
X-39500000Y5400000D03*
X-20300000Y3200000D03*
X-33900000Y1000000D03*
X-41900000Y1000000D03*
X-64100000Y4500000D03*
X-33900000Y2600000D03*
X-49100000Y2600000D03*
X-33900000Y6200000D03*
X-51500000Y5400000D03*
X-44300000Y6200000D03*
X-27500000Y6200000D03*
X-39500000Y1000000D03*
X-25100000Y1800000D03*
X-41900000Y7000000D03*
D18*
X-11200000Y31100000D03*
D17*
X-53900000Y7000000D03*
X-41900000Y6200000D03*
X-27500000Y5400000D03*
X-54700000Y6200000D03*
X-29900000Y1000000D03*
D18*
X-11200000Y29800000D03*
D17*
X-20300000Y1000000D03*
X-53900000Y1800000D03*
X-51500000Y6200000D03*
X-20300000Y2600000D03*
X-22700000Y1000000D03*
X-44300000Y5400000D03*
X-33900000Y1800000D03*
X-32300000Y5400000D03*
X-20300000Y6200000D03*
X-49100000Y3200000D03*
X-37100000Y6200000D03*
X-25100000Y2600000D03*
X-37100000Y7000000D03*
X-39500000Y2600000D03*
X-25100000Y6200000D03*
X-33900000Y7000000D03*
X-46700000Y3200000D03*
X-51500000Y3200000D03*
X-51500000Y7000000D03*
X-25100000Y3200000D03*
X-54700000Y7000000D03*
X-29900000Y7000000D03*
X-44300000Y1800000D03*
X-22700000Y2600000D03*
X-17900000Y5400000D03*
X-33900000Y7600000D03*
X-41900000Y2600000D03*
X-17900000Y7000000D03*
X-41900000Y3200000D03*
X-44300000Y1000000D03*
X-32300000Y7000000D03*
X-29900000Y7600000D03*
X-51500000Y1800000D03*
X-54700000Y5400000D03*
X-22700000Y6200000D03*
X-57100000Y5400000D03*
X-37100000Y1800000D03*
X-46700000Y1000000D03*
X-46700000Y7600000D03*
X-25100000Y1000000D03*
X-32300000Y2600000D03*
X-44300000Y2600000D03*
X-46700000Y5400000D03*
X-41900000Y7600000D03*
X-54700000Y1800000D03*
X-22700000Y7000000D03*
X-46700000Y2600000D03*
X-37100000Y1000000D03*
X-37100000Y2600000D03*
X-51500000Y1000000D03*
X-17900000Y1000000D03*
X-37100000Y3200000D03*
X-20300000Y7000000D03*
X-57100000Y6200000D03*
X-32300000Y1000000D03*
X-33900000Y5400000D03*
X-46700000Y1800000D03*
X-29900000Y5400000D03*
X-44300000Y3200000D03*
X-25100000Y7600000D03*
X-27500000Y1800000D03*
X-22700000Y3200000D03*
X-41900000Y1800000D03*
X-53900000Y6200000D03*
X-41900000Y5400000D03*
X-29900000Y6200000D03*
X-49100000Y5400000D03*
X-32300000Y7600000D03*
X-54700000Y2600000D03*
X-49100000Y7000000D03*
X-49100000Y1000000D03*
X-51500000Y7600000D03*
X-49100000Y7600000D03*
X-37100000Y7600000D03*
X-46700000Y7000000D03*
X-29900000Y1800000D03*
X-25100000Y5400000D03*
X-64100000Y3500000D03*
X-32300000Y6200000D03*
X-17900000Y6200000D03*
X-39500000Y3200000D03*
X-27500000Y1000000D03*
X-57100000Y7000000D03*
X-22700000Y5400000D03*
X-17900000Y2600000D03*
X-44300000Y7600000D03*
X-54700000Y1000000D03*
X-33900000Y3200000D03*
X-17900000Y1800000D03*
X-27500000Y7000000D03*
X-66050000Y3150000D03*
X-22700000Y7600000D03*
G04 #@! TO.N,/PHY.ID_SCL*
X-67200000Y12150000D03*
X-63000000Y8500000D03*
G04 #@! TO.N,+3V3*
X-56300000Y1800000D03*
X-67200000Y16500000D03*
X-67200000Y10500000D03*
X-66050000Y4850000D03*
X-56300000Y1000000D03*
X-56300000Y2600000D03*
X-62150000Y4850000D03*
G04 #@! TO.N,/PHY.ID_SDA*
X-67200000Y14750000D03*
X-62400000Y7900000D03*
G04 #@! TO.N,/CON.C{slash}D+*
X-25900000Y3200000D03*
G04 #@! TO.N,/CON.DB10-*
X-19500000Y7600000D03*
G04 #@! TO.N,/CON.DB4-*
X-42700000Y7600000D03*
G04 #@! TO.N,/CON.ACK+*
X-30700000Y3200000D03*
G04 #@! TO.N,/CON.DP1+*
X-48300000Y3200000D03*
G04 #@! TO.N,/CON.BSY-*
X-31500000Y7600000D03*
G04 #@! TO.N,/CON.RST-*
X-29100000Y7600000D03*
G04 #@! TO.N,/CON.DB2-*
X-45100000Y7600000D03*
G04 #@! TO.N,/CON.BSY+*
X-31500000Y3200000D03*
G04 #@! TO.N,/CON.DB5+*
X-41100000Y3200000D03*
G04 #@! TO.N,/CON.ATN-*
X-33100000Y7600000D03*
G04 #@! TO.N,/CON.DP0+*
X-37900000Y3200000D03*
G04 #@! TO.N,/CON.SEL+*
X-26700000Y3200000D03*
G04 #@! TO.N,/CON.ATN+*
X-33100000Y3200000D03*
G04 #@! TO.N,/CON.DB9-*
X-21100000Y7600000D03*
G04 #@! TO.N,/CON.SEL-*
X-26700000Y7600000D03*
G04 #@! TO.N,/CON.DB9+*
X-21100000Y3200000D03*
G04 #@! TO.N,/CON.DB0-*
X-47500000Y7600000D03*
G04 #@! TO.N,/CON.DB11+*
X-18700000Y3200000D03*
G04 #@! TO.N,/CON.DB7+*
X-38700000Y3200000D03*
G04 #@! TO.N,/CON.DP1-*
X-48300000Y7600000D03*
G04 #@! TO.N,/CON.DB5-*
X-41100000Y7600000D03*
G04 #@! TO.N,/CON.REQ-*
X-24300000Y7600000D03*
G04 #@! TO.N,/CON.DB1-*
X-45900000Y7600000D03*
G04 #@! TO.N,/CON.DB13+*
X-52300000Y3200000D03*
G04 #@! TO.N,/CON.REQ+*
X-24300000Y3200000D03*
G04 #@! TO.N,/CON.DB3-*
X-43500000Y7600000D03*
G04 #@! TO.N,/CON.DB8+*
X-21900000Y3200000D03*
G04 #@! TO.N,/CON.DB13-*
X-52300000Y7600000D03*
G04 #@! TO.N,/CON.DB15-*
X-49900000Y7600000D03*
G04 #@! TO.N,/CON.MSG+*
X-28300000Y3200000D03*
G04 #@! TO.N,/CON.DB11-*
X-18700000Y7600000D03*
G04 #@! TO.N,/CON.DB3+*
X-43500000Y3200000D03*
G04 #@! TO.N,/CON.ACK-*
X-30700000Y7600000D03*
G04 #@! TO.N,/CON.DIFFSENSE*
X-39100000Y25000000D03*
X-36300000Y3200000D03*
G04 #@! TO.N,/CON.I{slash}O+*
X-23500000Y3200000D03*
G04 #@! TO.N,/CON.I{slash}O-*
X-23500000Y7600000D03*
G04 #@! TO.N,/CON.DB4+*
X-42700000Y3200000D03*
G04 #@! TO.N,/CON.DB15+*
X-49900000Y3200000D03*
G04 #@! TO.N,/CON.DB6-*
X-40300000Y7600000D03*
G04 #@! TO.N,/CON.RST+*
X-29100000Y3200000D03*
G04 #@! TO.N,/CON.DB8-*
X-21900000Y7600000D03*
G04 #@! TO.N,/CON.DB10+*
X-19500000Y3200000D03*
G04 #@! TO.N,/CON.MSG-*
X-28300000Y7600000D03*
G04 #@! TO.N,/CON.DB6+*
X-40300000Y3200000D03*
G04 #@! TO.N,/CON.C{slash}D-*
X-25900000Y7600000D03*
G04 #@! TO.N,/CON.DB7-*
X-38700000Y7600000D03*
G04 #@! TO.N,/CON.DB1+*
X-45900000Y3200000D03*
G04 #@! TO.N,/CON.DP0-*
X-37900000Y7600000D03*
G04 #@! TO.N,/CON.DB2+*
X-45100000Y3200000D03*
G04 #@! TO.N,/CON.DB0+*
X-47500000Y3200000D03*
G04 #@! TO.N,/CON.DB12+*
X-53100000Y3200000D03*
G04 #@! TO.N,/CON.DB14+*
X-50700000Y3200000D03*
G04 #@! TO.N,/CON.DB12-*
X-53100000Y7600000D03*
G04 #@! TO.N,/CON.DB14-*
X-50700000Y7600000D03*
G04 #@! TD*
D19*
G04 #@! TO.N,/PHY.ID_SCL*
X-64200000Y12100000D02*
X-67150000Y12100000D01*
X-67150000Y12100000D02*
X-67200000Y12150000D01*
X-63000000Y10900000D02*
X-64200000Y12100000D01*
X-63000000Y8500000D02*
X-63000000Y10900000D01*
G04 #@! TO.N,/PHY.ID_SDA*
X-62400000Y11200000D02*
X-63900000Y12700000D01*
X-65150000Y12700000D02*
X-67200000Y14750000D01*
X-62400000Y7900000D02*
X-62400000Y11200000D01*
X-63900000Y12700000D02*
X-65150000Y12700000D01*
D20*
G04 #@! TO.N,/CON.DIFFSENSE*
X-39100000Y25000000D02*
X-39100000Y11100000D01*
X-36300000Y8300000D02*
X-36300000Y3200000D01*
X-39100000Y11100000D02*
X-36300000Y8300000D01*
D19*
X-39100000Y26000000D02*
X-39100000Y25000000D01*
D20*
X-39100000Y26650000D02*
X-39100000Y26000000D01*
G04 #@! TD*
G04 #@! TA.AperFunction,Conductor*
G04 #@! TO.N,GND*
G36*
X-36502534Y27386410D02*
G01*
X-36491151Y27371562D01*
X-36439675Y27268182D01*
X-36439672Y27268178D01*
X-36316767Y27105424D01*
X-36316764Y27105421D01*
X-36166046Y26968023D01*
X-36166045Y26968022D01*
X-36166041Y26968019D01*
X-35992637Y26860652D01*
X-35802456Y26786976D01*
X-35601976Y26749500D01*
X-35601974Y26749500D01*
X-35398026Y26749500D01*
X-35398024Y26749500D01*
X-35197544Y26786976D01*
X-35007363Y26860652D01*
X-34833959Y26968019D01*
X-34733010Y27060047D01*
X-34697737Y27072783D01*
X-34666991Y27060047D01*
X-34616394Y27013922D01*
X-34566046Y26968023D01*
X-34566045Y26968022D01*
X-34566041Y26968019D01*
X-34392637Y26860652D01*
X-34202456Y26786976D01*
X-34001976Y26749500D01*
X-34001974Y26749500D01*
X-33849746Y26749500D01*
X-33815098Y26735148D01*
X-33800746Y26700500D01*
X-33800955Y26695979D01*
X-33805216Y26650000D01*
X-33800754Y26601850D01*
X-33811848Y26566026D01*
X-33831844Y26551639D01*
X-33992633Y26489350D01*
X-34166042Y26381980D01*
X-34266990Y26289955D01*
X-34302265Y26277219D01*
X-34333012Y26289956D01*
X-34433955Y26381978D01*
X-34433958Y26381980D01*
X-34433959Y26381981D01*
X-34607363Y26489348D01*
X-34607366Y26489349D01*
X-34607367Y26489350D01*
X-34797538Y26563022D01*
X-34797540Y26563023D01*
X-34797544Y26563024D01*
X-34998024Y26600500D01*
X-35201976Y26600500D01*
X-35402456Y26563024D01*
X-35402460Y26563023D01*
X-35402463Y26563022D01*
X-35592634Y26489350D01*
X-35766046Y26381978D01*
X-35916764Y26244580D01*
X-35916767Y26244577D01*
X-36039672Y26081823D01*
X-36091152Y25978438D01*
X-36119444Y25953820D01*
X-36156857Y25956417D01*
X-36169483Y25966096D01*
X-36169599Y25965964D01*
X-36171449Y25967603D01*
X-36171697Y25967793D01*
X-36171819Y25967931D01*
X-36196967Y25990210D01*
X-36299148Y26080734D01*
X-36299156Y26080738D01*
X-36299157Y26080739D01*
X-36449776Y26159791D01*
X-36614944Y26200500D01*
X-36785056Y26200500D01*
X-36869329Y26179730D01*
X-36906405Y26185373D01*
X-36928631Y26215580D01*
X-36922988Y26252656D01*
X-36921405Y26255106D01*
X-36875182Y26322070D01*
X-36814860Y26481128D01*
X-36794355Y26650000D01*
X-36814860Y26818872D01*
X-36875182Y26977930D01*
X-36956386Y27095573D01*
X-36964256Y27132239D01*
X-36943894Y27163733D01*
X-36927786Y27170983D01*
X-36849775Y27190210D01*
X-36699148Y27269266D01*
X-36571817Y27382071D01*
X-36571811Y27382081D01*
X-36571703Y27382201D01*
X-36571629Y27382238D01*
X-36569598Y27384036D01*
X-36569098Y27383471D01*
X-36537991Y27398631D01*
X-36502534Y27386410D01*
G37*
G04 #@! TD.AperFunction*
G04 #@! TA.AperFunction,Conductor*
G36*
X-3998800Y33799442D02*
G01*
X-3629980Y33781322D01*
X-3625219Y33780854D01*
X-3261123Y33726846D01*
X-3256433Y33725913D01*
X-2963065Y33652428D01*
X-2899399Y33636480D01*
X-2894797Y33635084D01*
X-2781323Y33594483D01*
X-2548244Y33511085D01*
X-2543817Y33509251D01*
X-2211103Y33351889D01*
X-2206878Y33349632D01*
X-2015692Y33235039D01*
X-1891172Y33160404D01*
X-1887174Y33157732D01*
X-1739367Y33048111D01*
X-1591555Y32938486D01*
X-1587843Y32935440D01*
X-1315133Y32688269D01*
X-1311732Y32684868D01*
X-1064561Y32412158D01*
X-1061511Y32408441D01*
X-842269Y32112827D01*
X-839597Y32108829D01*
X-650374Y31793131D01*
X-648108Y31788890D01*
X-490754Y31456192D01*
X-488913Y31451750D01*
X-364917Y31105204D01*
X-363521Y31100602D01*
X-274091Y30743581D01*
X-273153Y30738865D01*
X-219149Y30374794D01*
X-218678Y30370008D01*
X-200559Y30001201D01*
X-200500Y29998797D01*
X-200500Y21599000D01*
X-214852Y21564352D01*
X-249500Y21550000D01*
X-2500000Y21550000D01*
X-2500000Y12350000D01*
X-249500Y12350000D01*
X-214852Y12335648D01*
X-200500Y12301000D01*
X-200500Y4001204D01*
X-200559Y3998800D01*
X-218678Y3629993D01*
X-219149Y3625207D01*
X-273153Y3261136D01*
X-274091Y3256420D01*
X-363521Y2899399D01*
X-364917Y2894797D01*
X-488913Y2548251D01*
X-490754Y2543809D01*
X-648108Y2211111D01*
X-650374Y2206870D01*
X-839597Y1891172D01*
X-842269Y1887174D01*
X-1061511Y1591560D01*
X-1064561Y1587843D01*
X-1311732Y1315133D01*
X-1315133Y1311732D01*
X-1587843Y1064561D01*
X-1591560Y1061511D01*
X-1887174Y842269D01*
X-1891172Y839597D01*
X-2206870Y650374D01*
X-2211111Y648108D01*
X-2543809Y490754D01*
X-2548251Y488913D01*
X-2894797Y364917D01*
X-2899399Y363521D01*
X-3256420Y274091D01*
X-3261136Y273153D01*
X-3625207Y219149D01*
X-3629993Y218678D01*
X-3998799Y200559D01*
X-4001203Y200500D01*
X-70998797Y200500D01*
X-71001201Y200559D01*
X-71370008Y218678D01*
X-71374794Y219149D01*
X-71738865Y273153D01*
X-71743581Y274091D01*
X-72100602Y363521D01*
X-72105204Y364917D01*
X-72451750Y488913D01*
X-72456192Y490754D01*
X-72788890Y648108D01*
X-72793131Y650374D01*
X-72794965Y651473D01*
X-72953986Y746787D01*
X-73108829Y839597D01*
X-73112827Y842269D01*
X-73408441Y1061511D01*
X-73412158Y1064561D01*
X-73684868Y1311732D01*
X-73688269Y1315133D01*
X-73870173Y1515832D01*
X-73935443Y1587847D01*
X-73938490Y1591560D01*
X-73994347Y1666874D01*
X-74048111Y1739367D01*
X-74157732Y1887174D01*
X-74160404Y1891172D01*
X-74345509Y2200000D01*
X-74349632Y2206878D01*
X-74351889Y2211103D01*
X-74509251Y2543817D01*
X-74511088Y2548251D01*
X-74529604Y2600000D01*
X-56730804Y2600000D01*
X-56709719Y2466874D01*
X-56709719Y2466873D01*
X-56709718Y2466872D01*
X-56648533Y2346787D01*
X-56648528Y2346780D01*
X-56553221Y2251473D01*
X-56553216Y2251469D01*
X-56537888Y2243659D01*
X-56513532Y2215141D01*
X-56516475Y2177754D01*
X-56537888Y2156341D01*
X-56553216Y2148532D01*
X-56553221Y2148528D01*
X-56648528Y2053221D01*
X-56648533Y2053214D01*
X-56709718Y1933129D01*
X-56709719Y1933128D01*
X-56709719Y1933126D01*
X-56730804Y1800000D01*
X-56709719Y1666874D01*
X-56709719Y1666873D01*
X-56709718Y1666872D01*
X-56648533Y1546787D01*
X-56648528Y1546780D01*
X-56553221Y1451473D01*
X-56553216Y1451469D01*
X-56537888Y1443659D01*
X-56513532Y1415141D01*
X-56516475Y1377754D01*
X-56537888Y1356341D01*
X-56553216Y1348532D01*
X-56553221Y1348528D01*
X-56648528Y1253221D01*
X-56648533Y1253214D01*
X-56709718Y1133129D01*
X-56709719Y1133128D01*
X-56709719Y1133126D01*
X-56730804Y1000000D01*
X-56709719Y866874D01*
X-56709719Y866873D01*
X-56709718Y866872D01*
X-56648533Y746787D01*
X-56648528Y746780D01*
X-56553221Y651473D01*
X-56553214Y651468D01*
X-56473158Y610678D01*
X-56433126Y590281D01*
X-56300000Y569196D01*
X-56166874Y590281D01*
X-56053382Y648108D01*
X-56046787Y651468D01*
X-56046785Y651470D01*
X-56046780Y651472D01*
X-55951472Y746780D01*
X-55890281Y866874D01*
X-55869196Y1000000D01*
X-55890281Y1133126D01*
X-55910678Y1173158D01*
X-55951468Y1253214D01*
X-55951473Y1253221D01*
X-56046780Y1348528D01*
X-56046783Y1348530D01*
X-56062112Y1356340D01*
X-56086469Y1384858D01*
X-56083527Y1422245D01*
X-56062112Y1443660D01*
X-56046780Y1451472D01*
X-55951472Y1546780D01*
X-55890281Y1666874D01*
X-55869196Y1800000D01*
X-55890281Y1933126D01*
X-55910678Y1973158D01*
X-55951468Y2053214D01*
X-55951473Y2053221D01*
X-56046780Y2148528D01*
X-56046783Y2148530D01*
X-56062112Y2156340D01*
X-56086469Y2184858D01*
X-56083527Y2222245D01*
X-56062112Y2243660D01*
X-56046780Y2251472D01*
X-55951472Y2346780D01*
X-55890281Y2466874D01*
X-55869196Y2600000D01*
X-55890281Y2733126D01*
X-55919404Y2790283D01*
X-55951468Y2853214D01*
X-55951474Y2853222D01*
X-56046780Y2948528D01*
X-56046787Y2948533D01*
X-56166872Y3009718D01*
X-56166873Y3009719D01*
X-56166874Y3009719D01*
X-56300000Y3030804D01*
X-56433126Y3009719D01*
X-56433128Y3009719D01*
X-56433129Y3009718D01*
X-56553214Y2948533D01*
X-56553221Y2948528D01*
X-56648526Y2853222D01*
X-56648533Y2853214D01*
X-56709718Y2733129D01*
X-56709719Y2733128D01*
X-56709719Y2733126D01*
X-56730804Y2600000D01*
X-74529604Y2600000D01*
X-74635084Y2894797D01*
X-74636480Y2899399D01*
X-74664114Y3009719D01*
X-74711777Y3200000D01*
X-53530804Y3200000D01*
X-53509719Y3066874D01*
X-53509719Y3066873D01*
X-53509718Y3066872D01*
X-53448533Y2946787D01*
X-53448528Y2946780D01*
X-53353221Y2851473D01*
X-53353214Y2851468D01*
X-53273158Y2810678D01*
X-53233126Y2790281D01*
X-53100000Y2769196D01*
X-52966874Y2790281D01*
X-52883580Y2832722D01*
X-52846787Y2851468D01*
X-52846785Y2851470D01*
X-52846780Y2851472D01*
X-52751472Y2946780D01*
X-52743660Y2962113D01*
X-52715142Y2986469D01*
X-52677755Y2983527D01*
X-52656340Y2962112D01*
X-52648530Y2946783D01*
X-52648528Y2946780D01*
X-52553221Y2851473D01*
X-52553214Y2851468D01*
X-52473158Y2810678D01*
X-52433126Y2790281D01*
X-52300000Y2769196D01*
X-52166874Y2790281D01*
X-52083580Y2832722D01*
X-52046787Y2851468D01*
X-52046785Y2851470D01*
X-52046780Y2851472D01*
X-51951472Y2946780D01*
X-51950578Y2948533D01*
X-51931249Y2986469D01*
X-51890281Y3066874D01*
X-51869196Y3200000D01*
X-51130804Y3200000D01*
X-51109719Y3066874D01*
X-51109719Y3066873D01*
X-51109718Y3066872D01*
X-51048533Y2946787D01*
X-51048528Y2946780D01*
X-50953221Y2851473D01*
X-50953214Y2851468D01*
X-50873158Y2810678D01*
X-50833126Y2790281D01*
X-50700000Y2769196D01*
X-50566874Y2790281D01*
X-50483580Y2832722D01*
X-50446787Y2851468D01*
X-50446785Y2851470D01*
X-50446780Y2851472D01*
X-50351472Y2946780D01*
X-50343660Y2962113D01*
X-50315142Y2986469D01*
X-50277755Y2983527D01*
X-50256340Y2962112D01*
X-50248530Y2946783D01*
X-50248528Y2946780D01*
X-50153221Y2851473D01*
X-50153214Y2851468D01*
X-50073158Y2810678D01*
X-50033126Y2790281D01*
X-49900000Y2769196D01*
X-49766874Y2790281D01*
X-49683580Y2832722D01*
X-49646787Y2851468D01*
X-49646785Y2851470D01*
X-49646780Y2851472D01*
X-49551472Y2946780D01*
X-49550578Y2948533D01*
X-49531249Y2986469D01*
X-49490281Y3066874D01*
X-49469196Y3200000D01*
X-48730804Y3200000D01*
X-48709719Y3066874D01*
X-48709719Y3066873D01*
X-48709718Y3066872D01*
X-48648533Y2946787D01*
X-48648528Y2946780D01*
X-48553221Y2851473D01*
X-48553214Y2851468D01*
X-48473158Y2810678D01*
X-48433126Y2790281D01*
X-48300000Y2769196D01*
X-48166874Y2790281D01*
X-48083580Y2832722D01*
X-48046787Y2851468D01*
X-48046785Y2851470D01*
X-48046780Y2851472D01*
X-47951472Y2946780D01*
X-47943660Y2962113D01*
X-47915142Y2986469D01*
X-47877755Y2983527D01*
X-47856340Y2962112D01*
X-47848530Y2946783D01*
X-47848528Y2946780D01*
X-47753221Y2851473D01*
X-47753214Y2851468D01*
X-47673158Y2810678D01*
X-47633126Y2790281D01*
X-47500000Y2769196D01*
X-47366874Y2790281D01*
X-47283580Y2832722D01*
X-47246787Y2851468D01*
X-47246785Y2851470D01*
X-47246780Y2851472D01*
X-47151472Y2946780D01*
X-47150578Y2948533D01*
X-47131249Y2986469D01*
X-47090281Y3066874D01*
X-47069196Y3200000D01*
X-46330804Y3200000D01*
X-46309719Y3066874D01*
X-46309719Y3066873D01*
X-46309718Y3066872D01*
X-46248533Y2946787D01*
X-46248528Y2946780D01*
X-46153221Y2851473D01*
X-46153214Y2851468D01*
X-46073158Y2810678D01*
X-46033126Y2790281D01*
X-45900000Y2769196D01*
X-45766874Y2790281D01*
X-45683580Y2832722D01*
X-45646787Y2851468D01*
X-45646785Y2851470D01*
X-45646780Y2851472D01*
X-45551472Y2946780D01*
X-45543660Y2962113D01*
X-45515142Y2986469D01*
X-45477755Y2983527D01*
X-45456340Y2962112D01*
X-45448530Y2946783D01*
X-45448528Y2946780D01*
X-45353221Y2851473D01*
X-45353214Y2851468D01*
X-45273158Y2810678D01*
X-45233126Y2790281D01*
X-45100000Y2769196D01*
X-44966874Y2790281D01*
X-44883580Y2832722D01*
X-44846787Y2851468D01*
X-44846785Y2851470D01*
X-44846780Y2851472D01*
X-44751472Y2946780D01*
X-44750578Y2948533D01*
X-44731249Y2986469D01*
X-44690281Y3066874D01*
X-44669196Y3200000D01*
X-43930804Y3200000D01*
X-43909719Y3066874D01*
X-43909719Y3066873D01*
X-43909718Y3066872D01*
X-43848533Y2946787D01*
X-43848528Y2946780D01*
X-43753221Y2851473D01*
X-43753214Y2851468D01*
X-43673158Y2810678D01*
X-43633126Y2790281D01*
X-43500000Y2769196D01*
X-43366874Y2790281D01*
X-43283580Y2832722D01*
X-43246787Y2851468D01*
X-43246785Y2851470D01*
X-43246780Y2851472D01*
X-43151472Y2946780D01*
X-43143660Y2962113D01*
X-43115142Y2986469D01*
X-43077755Y2983527D01*
X-43056340Y2962112D01*
X-43048530Y2946783D01*
X-43048528Y2946780D01*
X-42953221Y2851473D01*
X-42953214Y2851468D01*
X-42873158Y2810678D01*
X-42833126Y2790281D01*
X-42700000Y2769196D01*
X-42566874Y2790281D01*
X-42483580Y2832722D01*
X-42446787Y2851468D01*
X-42446785Y2851470D01*
X-42446780Y2851472D01*
X-42351472Y2946780D01*
X-42350578Y2948533D01*
X-42331249Y2986469D01*
X-42290281Y3066874D01*
X-42269196Y3200000D01*
X-41530804Y3200000D01*
X-41509719Y3066874D01*
X-41509719Y3066873D01*
X-41509718Y3066872D01*
X-41448533Y2946787D01*
X-41448528Y2946780D01*
X-41353221Y2851473D01*
X-41353214Y2851468D01*
X-41273158Y2810678D01*
X-41233126Y2790281D01*
X-41100000Y2769196D01*
X-40966874Y2790281D01*
X-40883580Y2832722D01*
X-40846787Y2851468D01*
X-40846785Y2851470D01*
X-40846780Y2851472D01*
X-40751472Y2946780D01*
X-40743660Y2962113D01*
X-40715142Y2986469D01*
X-40677755Y2983527D01*
X-40656340Y2962112D01*
X-40648530Y2946783D01*
X-40648528Y2946780D01*
X-40553221Y2851473D01*
X-40553214Y2851468D01*
X-40473158Y2810678D01*
X-40433126Y2790281D01*
X-40300000Y2769196D01*
X-40166874Y2790281D01*
X-40083580Y2832722D01*
X-40046787Y2851468D01*
X-40046785Y2851470D01*
X-40046780Y2851472D01*
X-39951472Y2946780D01*
X-39950578Y2948533D01*
X-39931249Y2986469D01*
X-39890281Y3066874D01*
X-39869196Y3200000D01*
X-39130804Y3200000D01*
X-39109719Y3066874D01*
X-39109719Y3066873D01*
X-39109718Y3066872D01*
X-39048533Y2946787D01*
X-39048528Y2946780D01*
X-38953221Y2851473D01*
X-38953214Y2851468D01*
X-38873158Y2810678D01*
X-38833126Y2790281D01*
X-38700000Y2769196D01*
X-38566874Y2790281D01*
X-38483580Y2832722D01*
X-38446787Y2851468D01*
X-38446785Y2851470D01*
X-38446780Y2851472D01*
X-38351472Y2946780D01*
X-38343660Y2962113D01*
X-38315142Y2986469D01*
X-38277755Y2983527D01*
X-38256340Y2962112D01*
X-38248530Y2946783D01*
X-38248528Y2946780D01*
X-38153221Y2851473D01*
X-38153214Y2851468D01*
X-38073158Y2810678D01*
X-38033126Y2790281D01*
X-37900000Y2769196D01*
X-37766874Y2790281D01*
X-37683580Y2832722D01*
X-37646787Y2851468D01*
X-37646785Y2851470D01*
X-37646780Y2851472D01*
X-37551472Y2946780D01*
X-37550578Y2948533D01*
X-37531249Y2986469D01*
X-37490281Y3066874D01*
X-37469196Y3200000D01*
X-37490281Y3333126D01*
X-37510678Y3373158D01*
X-37551468Y3453214D01*
X-37551473Y3453221D01*
X-37646780Y3548528D01*
X-37646787Y3548533D01*
X-37766872Y3609718D01*
X-37766873Y3609719D01*
X-37766874Y3609719D01*
X-37900000Y3630804D01*
X-38033126Y3609719D01*
X-38033128Y3609719D01*
X-38033129Y3609718D01*
X-38153214Y3548533D01*
X-38153221Y3548528D01*
X-38248528Y3453221D01*
X-38248532Y3453216D01*
X-38256341Y3437888D01*
X-38284859Y3413532D01*
X-38322246Y3416475D01*
X-38343659Y3437888D01*
X-38351469Y3453216D01*
X-38351473Y3453221D01*
X-38446780Y3548528D01*
X-38446787Y3548533D01*
X-38566872Y3609718D01*
X-38566873Y3609719D01*
X-38566874Y3609719D01*
X-38700000Y3630804D01*
X-38833126Y3609719D01*
X-38833128Y3609719D01*
X-38833129Y3609718D01*
X-38953214Y3548533D01*
X-38953221Y3548528D01*
X-39048528Y3453221D01*
X-39048533Y3453214D01*
X-39109718Y3333129D01*
X-39109719Y3333128D01*
X-39109719Y3333126D01*
X-39130804Y3200000D01*
X-39869196Y3200000D01*
X-39890281Y3333126D01*
X-39910678Y3373158D01*
X-39951468Y3453214D01*
X-39951473Y3453221D01*
X-40046780Y3548528D01*
X-40046787Y3548533D01*
X-40166872Y3609718D01*
X-40166873Y3609719D01*
X-40166874Y3609719D01*
X-40300000Y3630804D01*
X-40433126Y3609719D01*
X-40433128Y3609719D01*
X-40433129Y3609718D01*
X-40553214Y3548533D01*
X-40553221Y3548528D01*
X-40648528Y3453221D01*
X-40648532Y3453216D01*
X-40656341Y3437888D01*
X-40684859Y3413532D01*
X-40722246Y3416475D01*
X-40743659Y3437888D01*
X-40751469Y3453216D01*
X-40751473Y3453221D01*
X-40846780Y3548528D01*
X-40846787Y3548533D01*
X-40966872Y3609718D01*
X-40966873Y3609719D01*
X-40966874Y3609719D01*
X-41100000Y3630804D01*
X-41233126Y3609719D01*
X-41233128Y3609719D01*
X-41233129Y3609718D01*
X-41353214Y3548533D01*
X-41353221Y3548528D01*
X-41448528Y3453221D01*
X-41448533Y3453214D01*
X-41509718Y3333129D01*
X-41509719Y3333128D01*
X-41509719Y3333126D01*
X-41530804Y3200000D01*
X-42269196Y3200000D01*
X-42290281Y3333126D01*
X-42310678Y3373158D01*
X-42351468Y3453214D01*
X-42351473Y3453221D01*
X-42446780Y3548528D01*
X-42446787Y3548533D01*
X-42566872Y3609718D01*
X-42566873Y3609719D01*
X-42566874Y3609719D01*
X-42700000Y3630804D01*
X-42833126Y3609719D01*
X-42833128Y3609719D01*
X-42833129Y3609718D01*
X-42953214Y3548533D01*
X-42953221Y3548528D01*
X-43048528Y3453221D01*
X-43048532Y3453216D01*
X-43056341Y3437888D01*
X-43084859Y3413532D01*
X-43122246Y3416475D01*
X-43143659Y3437888D01*
X-43151469Y3453216D01*
X-43151473Y3453221D01*
X-43246780Y3548528D01*
X-43246787Y3548533D01*
X-43366872Y3609718D01*
X-43366873Y3609719D01*
X-43366874Y3609719D01*
X-43500000Y3630804D01*
X-43633126Y3609719D01*
X-43633128Y3609719D01*
X-43633129Y3609718D01*
X-43753214Y3548533D01*
X-43753221Y3548528D01*
X-43848528Y3453221D01*
X-43848533Y3453214D01*
X-43909718Y3333129D01*
X-43909719Y3333128D01*
X-43909719Y3333126D01*
X-43930804Y3200000D01*
X-44669196Y3200000D01*
X-44690281Y3333126D01*
X-44710678Y3373158D01*
X-44751468Y3453214D01*
X-44751473Y3453221D01*
X-44846780Y3548528D01*
X-44846787Y3548533D01*
X-44966872Y3609718D01*
X-44966873Y3609719D01*
X-44966874Y3609719D01*
X-45100000Y3630804D01*
X-45233126Y3609719D01*
X-45233128Y3609719D01*
X-45233129Y3609718D01*
X-45353214Y3548533D01*
X-45353221Y3548528D01*
X-45448528Y3453221D01*
X-45448532Y3453216D01*
X-45456341Y3437888D01*
X-45484859Y3413532D01*
X-45522246Y3416475D01*
X-45543659Y3437888D01*
X-45551469Y3453216D01*
X-45551473Y3453221D01*
X-45646780Y3548528D01*
X-45646787Y3548533D01*
X-45766872Y3609718D01*
X-45766873Y3609719D01*
X-45766874Y3609719D01*
X-45900000Y3630804D01*
X-46033126Y3609719D01*
X-46033128Y3609719D01*
X-46033129Y3609718D01*
X-46153214Y3548533D01*
X-46153221Y3548528D01*
X-46248528Y3453221D01*
X-46248533Y3453214D01*
X-46309718Y3333129D01*
X-46309719Y3333128D01*
X-46309719Y3333126D01*
X-46330804Y3200000D01*
X-47069196Y3200000D01*
X-47090281Y3333126D01*
X-47110678Y3373158D01*
X-47151468Y3453214D01*
X-47151473Y3453221D01*
X-47246780Y3548528D01*
X-47246787Y3548533D01*
X-47366872Y3609718D01*
X-47366873Y3609719D01*
X-47366874Y3609719D01*
X-47500000Y3630804D01*
X-47633126Y3609719D01*
X-47633128Y3609719D01*
X-47633129Y3609718D01*
X-47753214Y3548533D01*
X-47753221Y3548528D01*
X-47848528Y3453221D01*
X-47848532Y3453216D01*
X-47856341Y3437888D01*
X-47884859Y3413532D01*
X-47922246Y3416475D01*
X-47943659Y3437888D01*
X-47951469Y3453216D01*
X-47951473Y3453221D01*
X-48046780Y3548528D01*
X-48046787Y3548533D01*
X-48166872Y3609718D01*
X-48166873Y3609719D01*
X-48166874Y3609719D01*
X-48300000Y3630804D01*
X-48433126Y3609719D01*
X-48433128Y3609719D01*
X-48433129Y3609718D01*
X-48553214Y3548533D01*
X-48553221Y3548528D01*
X-48648528Y3453221D01*
X-48648533Y3453214D01*
X-48709718Y3333129D01*
X-48709719Y3333128D01*
X-48709719Y3333126D01*
X-48730804Y3200000D01*
X-49469196Y3200000D01*
X-49490281Y3333126D01*
X-49510678Y3373158D01*
X-49551468Y3453214D01*
X-49551473Y3453221D01*
X-49646780Y3548528D01*
X-49646787Y3548533D01*
X-49766872Y3609718D01*
X-49766873Y3609719D01*
X-49766874Y3609719D01*
X-49900000Y3630804D01*
X-50033126Y3609719D01*
X-50033128Y3609719D01*
X-50033129Y3609718D01*
X-50153214Y3548533D01*
X-50153221Y3548528D01*
X-50248528Y3453221D01*
X-50248532Y3453216D01*
X-50256341Y3437888D01*
X-50284859Y3413532D01*
X-50322246Y3416475D01*
X-50343659Y3437888D01*
X-50351469Y3453216D01*
X-50351473Y3453221D01*
X-50446780Y3548528D01*
X-50446787Y3548533D01*
X-50566872Y3609718D01*
X-50566873Y3609719D01*
X-50566874Y3609719D01*
X-50700000Y3630804D01*
X-50833126Y3609719D01*
X-50833128Y3609719D01*
X-50833129Y3609718D01*
X-50953214Y3548533D01*
X-50953221Y3548528D01*
X-51048528Y3453221D01*
X-51048533Y3453214D01*
X-51109718Y3333129D01*
X-51109719Y3333128D01*
X-51109719Y3333126D01*
X-51130804Y3200000D01*
X-51869196Y3200000D01*
X-51890281Y3333126D01*
X-51910678Y3373158D01*
X-51951468Y3453214D01*
X-51951473Y3453221D01*
X-52046780Y3548528D01*
X-52046787Y3548533D01*
X-52166872Y3609718D01*
X-52166873Y3609719D01*
X-52166874Y3609719D01*
X-52300000Y3630804D01*
X-52433126Y3609719D01*
X-52433128Y3609719D01*
X-52433129Y3609718D01*
X-52553214Y3548533D01*
X-52553221Y3548528D01*
X-52648528Y3453221D01*
X-52648532Y3453216D01*
X-52656341Y3437888D01*
X-52684859Y3413532D01*
X-52722246Y3416475D01*
X-52743659Y3437888D01*
X-52751469Y3453216D01*
X-52751473Y3453221D01*
X-52846780Y3548528D01*
X-52846787Y3548533D01*
X-52966872Y3609718D01*
X-52966873Y3609719D01*
X-52966874Y3609719D01*
X-53100000Y3630804D01*
X-53233126Y3609719D01*
X-53233128Y3609719D01*
X-53233129Y3609718D01*
X-53353214Y3548533D01*
X-53353221Y3548528D01*
X-53448528Y3453221D01*
X-53448533Y3453214D01*
X-53509718Y3333129D01*
X-53509719Y3333128D01*
X-53509719Y3333126D01*
X-53530804Y3200000D01*
X-74711777Y3200000D01*
X-74725913Y3256433D01*
X-74726846Y3261123D01*
X-74780854Y3625219D01*
X-74781322Y3629980D01*
X-74799441Y3998800D01*
X-74799500Y4001204D01*
X-74799500Y4071652D01*
X-60327500Y4071652D01*
X-60327500Y3928348D01*
X-60308948Y3835077D01*
X-60299544Y3787799D01*
X-60299542Y3787793D01*
X-60253280Y3676107D01*
X-60244702Y3655400D01*
X-60165086Y3536246D01*
X-60063754Y3434914D01*
X-59944600Y3355298D01*
X-59812204Y3300457D01*
X-59671652Y3272500D01*
X-59671649Y3272500D01*
X-59528351Y3272500D01*
X-59528348Y3272500D01*
X-59387796Y3300457D01*
X-59255400Y3355298D01*
X-59136246Y3434914D01*
X-59034914Y3536246D01*
X-58955298Y3655400D01*
X-58900457Y3787796D01*
X-58872500Y3928348D01*
X-58872500Y4071652D01*
X-58900457Y4212204D01*
X-58955298Y4344600D01*
X-59034914Y4463754D01*
X-59136246Y4565086D01*
X-59255400Y4644702D01*
X-59255403Y4644704D01*
X-59255404Y4644704D01*
X-59387793Y4699542D01*
X-59387799Y4699544D01*
X-59444480Y4710818D01*
X-59528348Y4727500D01*
X-59671652Y4727500D01*
X-59741606Y4713586D01*
X-59812202Y4699544D01*
X-59812208Y4699542D01*
X-59944597Y4644704D01*
X-60063754Y4565087D01*
X-60165087Y4463754D01*
X-60244704Y4344597D01*
X-60299542Y4212208D01*
X-60299544Y4212202D01*
X-60313586Y4141606D01*
X-60327500Y4071652D01*
X-74799500Y4071652D01*
X-74799500Y4850000D01*
X-66480804Y4850000D01*
X-66459719Y4716874D01*
X-66459719Y4716873D01*
X-66459718Y4716872D01*
X-66398533Y4596787D01*
X-66398528Y4596780D01*
X-66303221Y4501473D01*
X-66303214Y4501468D01*
X-66229194Y4463754D01*
X-66183126Y4440281D01*
X-66050000Y4419196D01*
X-65916874Y4440281D01*
X-65816247Y4491553D01*
X-65796787Y4501468D01*
X-65796785Y4501470D01*
X-65796780Y4501472D01*
X-65701472Y4596780D01*
X-65640281Y4716874D01*
X-65619196Y4850000D01*
X-62580804Y4850000D01*
X-62559719Y4716874D01*
X-62559719Y4716873D01*
X-62559718Y4716872D01*
X-62498533Y4596787D01*
X-62498528Y4596780D01*
X-62403221Y4501473D01*
X-62403214Y4501468D01*
X-62329194Y4463754D01*
X-62283126Y4440281D01*
X-62150000Y4419196D01*
X-62016874Y4440281D01*
X-61916247Y4491553D01*
X-61896787Y4501468D01*
X-61896785Y4501470D01*
X-61896780Y4501472D01*
X-61801472Y4596780D01*
X-61740281Y4716874D01*
X-61719196Y4850000D01*
X-61740281Y4983126D01*
X-61760678Y5023158D01*
X-61801468Y5103214D01*
X-61801473Y5103221D01*
X-61896780Y5198528D01*
X-61896787Y5198533D01*
X-62016872Y5259718D01*
X-62016873Y5259719D01*
X-62016874Y5259719D01*
X-62150000Y5280804D01*
X-62283126Y5259719D01*
X-62283128Y5259719D01*
X-62283129Y5259718D01*
X-62403214Y5198533D01*
X-62403221Y5198528D01*
X-62498528Y5103221D01*
X-62498533Y5103214D01*
X-62559718Y4983129D01*
X-62559719Y4983128D01*
X-62559719Y4983126D01*
X-62580804Y4850000D01*
X-65619196Y4850000D01*
X-65640281Y4983126D01*
X-65660678Y5023158D01*
X-65701468Y5103214D01*
X-65701473Y5103221D01*
X-65796780Y5198528D01*
X-65796787Y5198533D01*
X-65916872Y5259718D01*
X-65916873Y5259719D01*
X-65916874Y5259719D01*
X-66050000Y5280804D01*
X-66183126Y5259719D01*
X-66183128Y5259719D01*
X-66183129Y5259718D01*
X-66303214Y5198533D01*
X-66303221Y5198528D01*
X-66398528Y5103221D01*
X-66398533Y5103214D01*
X-66459718Y4983129D01*
X-66459719Y4983128D01*
X-66459719Y4983126D01*
X-66480804Y4850000D01*
X-74799500Y4850000D01*
X-74799500Y10966606D01*
X-73667500Y10966606D01*
X-73667500Y10773394D01*
X-73664305Y10753221D01*
X-73637276Y10582563D01*
X-73637275Y10582560D01*
X-73577570Y10398805D01*
X-73489851Y10226648D01*
X-73489849Y10226645D01*
X-73376284Y10070336D01*
X-73376280Y10070331D01*
X-73239669Y9933720D01*
X-73239665Y9933717D01*
X-73239663Y9933715D01*
X-73083350Y9820148D01*
X-72911197Y9732431D01*
X-72727440Y9672725D01*
X-72536606Y9642500D01*
X-72536605Y9642500D01*
X-72343395Y9642500D01*
X-72343394Y9642500D01*
X-72152560Y9672725D01*
X-71968803Y9732431D01*
X-71796650Y9820148D01*
X-71640337Y9933715D01*
X-71640334Y9933719D01*
X-71640331Y9933720D01*
X-71503720Y10070331D01*
X-71503719Y10070334D01*
X-71503715Y10070337D01*
X-71390148Y10226650D01*
X-71302431Y10398803D01*
X-71269550Y10500000D01*
X-67630804Y10500000D01*
X-67609719Y10366874D01*
X-67609719Y10366873D01*
X-67609718Y10366872D01*
X-67548533Y10246787D01*
X-67548528Y10246780D01*
X-67453221Y10151473D01*
X-67453214Y10151468D01*
X-67373158Y10110678D01*
X-67333126Y10090281D01*
X-67200000Y10069196D01*
X-67066874Y10090281D01*
X-66983580Y10132722D01*
X-66946787Y10151468D01*
X-66946785Y10151470D01*
X-66946780Y10151472D01*
X-66851472Y10246780D01*
X-66790281Y10366874D01*
X-66769196Y10500000D01*
X-66790281Y10633126D01*
X-66810678Y10673158D01*
X-66851468Y10753214D01*
X-66851473Y10753221D01*
X-66946780Y10848528D01*
X-66946787Y10848533D01*
X-67066872Y10909718D01*
X-67066873Y10909719D01*
X-67066874Y10909719D01*
X-67200000Y10930804D01*
X-67333126Y10909719D01*
X-67333128Y10909719D01*
X-67333129Y10909718D01*
X-67453214Y10848533D01*
X-67453221Y10848528D01*
X-67548528Y10753221D01*
X-67548533Y10753214D01*
X-67609718Y10633129D01*
X-67609719Y10633128D01*
X-67609719Y10633126D01*
X-67630804Y10500000D01*
X-71269550Y10500000D01*
X-71242725Y10582560D01*
X-71212500Y10773394D01*
X-71212500Y10966606D01*
X-71242725Y11157440D01*
X-71302431Y11341197D01*
X-71390148Y11513350D01*
X-71503715Y11669663D01*
X-71503717Y11669665D01*
X-71503720Y11669669D01*
X-71640331Y11806280D01*
X-71640336Y11806284D01*
X-71796645Y11919849D01*
X-71796648Y11919851D01*
X-71968805Y12007570D01*
X-72152560Y12067275D01*
X-72152563Y12067276D01*
X-72299158Y12090494D01*
X-72343394Y12097500D01*
X-72536606Y12097500D01*
X-72572518Y12091813D01*
X-72727438Y12067276D01*
X-72727441Y12067275D01*
X-72911196Y12007570D01*
X-73083353Y11919851D01*
X-73083356Y11919849D01*
X-73239665Y11806284D01*
X-73376284Y11669665D01*
X-73489849Y11513356D01*
X-73489851Y11513353D01*
X-73577570Y11341196D01*
X-73637275Y11157441D01*
X-73637276Y11157438D01*
X-73654724Y11047273D01*
X-73667500Y10966606D01*
X-74799500Y10966606D01*
X-74799500Y12200000D01*
X-71030322Y12200000D01*
X-71011077Y11992308D01*
X-70953994Y11791681D01*
X-70861021Y11604965D01*
X-70861018Y11604961D01*
X-70735321Y11438510D01*
X-70735318Y11438507D01*
X-70581176Y11297988D01*
X-70581175Y11297987D01*
X-70581171Y11297984D01*
X-70403828Y11188177D01*
X-70209327Y11112827D01*
X-70004293Y11074500D01*
X-70004291Y11074500D01*
X-69795709Y11074500D01*
X-69795707Y11074500D01*
X-69590673Y11112827D01*
X-69396172Y11188177D01*
X-69218829Y11297984D01*
X-69064682Y11438507D01*
X-68938981Y11604962D01*
X-68846006Y11791681D01*
X-68788924Y11992304D01*
X-68769678Y12200000D01*
X-68788924Y12407696D01*
X-68846006Y12608319D01*
X-68938981Y12795038D01*
X-69001832Y12878266D01*
X-69064680Y12961491D01*
X-69064683Y12961494D01*
X-69218825Y13102013D01*
X-69218828Y13102015D01*
X-69218829Y13102016D01*
X-69396172Y13211823D01*
X-69396175Y13211824D01*
X-69396176Y13211825D01*
X-69590667Y13287171D01*
X-69590669Y13287172D01*
X-69590673Y13287173D01*
X-69795707Y13325500D01*
X-70004293Y13325500D01*
X-70209327Y13287173D01*
X-70209331Y13287172D01*
X-70209334Y13287171D01*
X-70403825Y13211825D01*
X-70581176Y13102013D01*
X-70735318Y12961494D01*
X-70735321Y12961491D01*
X-70861018Y12795040D01*
X-70861021Y12795036D01*
X-70953994Y12608320D01*
X-71011077Y12407693D01*
X-71030322Y12200000D01*
X-74799500Y12200000D01*
X-74799500Y16010000D01*
X-73570322Y16010000D01*
X-73551077Y15802308D01*
X-73551077Y15802305D01*
X-73551076Y15802304D01*
X-73536713Y15751823D01*
X-73493994Y15601681D01*
X-73401021Y15414965D01*
X-73401018Y15414961D01*
X-73275321Y15248510D01*
X-73275318Y15248507D01*
X-73121176Y15107988D01*
X-73121175Y15107987D01*
X-73121171Y15107984D01*
X-72943828Y14998177D01*
X-72749327Y14922827D01*
X-72544293Y14884500D01*
X-72544291Y14884500D01*
X-72335709Y14884500D01*
X-72335707Y14884500D01*
X-72130673Y14922827D01*
X-71936172Y14998177D01*
X-71758829Y15107984D01*
X-71604682Y15248507D01*
X-71478981Y15414962D01*
X-71386006Y15601681D01*
X-71328924Y15802304D01*
X-71309678Y16010000D01*
X-71328924Y16217696D01*
X-71386006Y16418319D01*
X-71478981Y16605038D01*
X-71590878Y16753214D01*
X-71604680Y16771491D01*
X-71604683Y16771494D01*
X-71758825Y16912013D01*
X-71758828Y16912015D01*
X-71758829Y16912016D01*
X-71936172Y17021823D01*
X-71936175Y17021824D01*
X-71936176Y17021825D01*
X-72130667Y17097171D01*
X-72130669Y17097172D01*
X-72130673Y17097173D01*
X-72335707Y17135500D01*
X-72544293Y17135500D01*
X-72749327Y17097173D01*
X-72749331Y17097172D01*
X-72749334Y17097171D01*
X-72943825Y17021825D01*
X-73121176Y16912013D01*
X-73275318Y16771494D01*
X-73275321Y16771491D01*
X-73401018Y16605040D01*
X-73401021Y16605036D01*
X-73493994Y16418320D01*
X-73551077Y16217693D01*
X-73570322Y16010000D01*
X-74799500Y16010000D01*
X-74799500Y17452347D01*
X-71327500Y17452347D01*
X-71327500Y17227654D01*
X-71292351Y17005729D01*
X-71292350Y17005726D01*
X-71241274Y16848528D01*
X-71222916Y16792030D01*
X-71120907Y16591827D01*
X-70988836Y16410046D01*
X-70988835Y16410045D01*
X-70988831Y16410040D01*
X-70829960Y16251169D01*
X-70829956Y16251166D01*
X-70829954Y16251164D01*
X-70648173Y16119093D01*
X-70447970Y16017084D01*
X-70234274Y15947650D01*
X-70154961Y15935088D01*
X-70152240Y15934657D01*
X-70120263Y15915062D01*
X-70111508Y15878595D01*
X-70131103Y15846618D01*
X-70150899Y15838096D01*
X-70209327Y15827173D01*
X-70209331Y15827172D01*
X-70209334Y15827171D01*
X-70403825Y15751825D01*
X-70581176Y15642013D01*
X-70735318Y15501494D01*
X-70735321Y15501491D01*
X-70861018Y15335040D01*
X-70861021Y15335036D01*
X-70953994Y15148320D01*
X-71011077Y14947693D01*
X-71030322Y14740000D01*
X-71011077Y14532308D01*
X-71011077Y14532305D01*
X-71011076Y14532304D01*
X-70973851Y14401473D01*
X-70953994Y14331681D01*
X-70861021Y14144965D01*
X-70861018Y14144961D01*
X-70735321Y13978510D01*
X-70735318Y13978507D01*
X-70581176Y13837988D01*
X-70581175Y13837987D01*
X-70581171Y13837984D01*
X-70403828Y13728177D01*
X-70209327Y13652827D01*
X-70004293Y13614500D01*
X-70004291Y13614500D01*
X-69795709Y13614500D01*
X-69795707Y13614500D01*
X-69590673Y13652827D01*
X-69396172Y13728177D01*
X-69218829Y13837984D01*
X-69064682Y13978507D01*
X-68938981Y14144962D01*
X-68846006Y14331681D01*
X-68788924Y14532304D01*
X-68769678Y14740000D01*
X-68770605Y14750000D01*
X-67630804Y14750000D01*
X-67609719Y14616874D01*
X-67609719Y14616873D01*
X-67609718Y14616872D01*
X-67548533Y14496787D01*
X-67548528Y14496780D01*
X-67453221Y14401473D01*
X-67453214Y14401468D01*
X-67373158Y14360678D01*
X-67333126Y14340281D01*
X-67208793Y14320589D01*
X-67181812Y14306841D01*
X-65359119Y12484148D01*
X-65344767Y12449500D01*
X-65359119Y12414852D01*
X-65393767Y12400500D01*
X-66828455Y12400500D01*
X-66863103Y12414852D01*
X-66946779Y12498527D01*
X-66946787Y12498533D01*
X-67066872Y12559718D01*
X-67066873Y12559719D01*
X-67066874Y12559719D01*
X-67200000Y12580804D01*
X-67333126Y12559719D01*
X-67333128Y12559719D01*
X-67333129Y12559718D01*
X-67453214Y12498533D01*
X-67453221Y12498528D01*
X-67548528Y12403221D01*
X-67548533Y12403214D01*
X-67609718Y12283129D01*
X-67609719Y12283128D01*
X-67609719Y12283126D01*
X-67630804Y12150000D01*
X-67609719Y12016874D01*
X-67609719Y12016873D01*
X-67609718Y12016872D01*
X-67548533Y11896787D01*
X-67548528Y11896780D01*
X-67453221Y11801473D01*
X-67453214Y11801468D01*
X-67373158Y11760678D01*
X-67333126Y11740281D01*
X-67200000Y11719196D01*
X-67066874Y11740281D01*
X-66978817Y11785148D01*
X-66961131Y11794159D01*
X-66938886Y11799500D01*
X-64344767Y11799500D01*
X-64310119Y11785148D01*
X-63314852Y10789881D01*
X-63300500Y10755233D01*
X-63300500Y8821544D01*
X-63314852Y8786896D01*
X-63348528Y8753221D01*
X-63348533Y8753214D01*
X-63409718Y8633129D01*
X-63409719Y8633128D01*
X-63409719Y8633126D01*
X-63430804Y8500000D01*
X-63409719Y8366874D01*
X-63409719Y8366873D01*
X-63409718Y8366872D01*
X-63348533Y8246787D01*
X-63348528Y8246780D01*
X-63253221Y8151473D01*
X-63253214Y8151468D01*
X-63179306Y8113811D01*
X-63133126Y8090281D01*
X-63000000Y8069196D01*
X-62866874Y8090281D01*
X-62866870Y8090284D01*
X-62865576Y8090488D01*
X-62829109Y8081733D01*
X-62809513Y8049757D01*
X-62809513Y8034426D01*
X-62809719Y8033127D01*
X-62809719Y8033126D01*
X-62830804Y7900000D01*
X-62809719Y7766874D01*
X-62809719Y7766873D01*
X-62809718Y7766872D01*
X-62748533Y7646787D01*
X-62748528Y7646780D01*
X-62653221Y7551473D01*
X-62653214Y7551468D01*
X-62573158Y7510678D01*
X-62533126Y7490281D01*
X-62400000Y7469196D01*
X-62266874Y7490281D01*
X-62183580Y7532722D01*
X-62146787Y7551468D01*
X-62146785Y7551470D01*
X-62146780Y7551472D01*
X-62098252Y7600000D01*
X-53530804Y7600000D01*
X-53509719Y7466874D01*
X-53509719Y7466873D01*
X-53509718Y7466872D01*
X-53448533Y7346787D01*
X-53448528Y7346780D01*
X-53353221Y7251473D01*
X-53353214Y7251468D01*
X-53273158Y7210678D01*
X-53233126Y7190281D01*
X-53100000Y7169196D01*
X-52966874Y7190281D01*
X-52883580Y7232722D01*
X-52846787Y7251468D01*
X-52846785Y7251470D01*
X-52846780Y7251472D01*
X-52751472Y7346780D01*
X-52743660Y7362113D01*
X-52715142Y7386469D01*
X-52677755Y7383527D01*
X-52656340Y7362112D01*
X-52648530Y7346783D01*
X-52648528Y7346780D01*
X-52553221Y7251473D01*
X-52553214Y7251468D01*
X-52473158Y7210678D01*
X-52433126Y7190281D01*
X-52300000Y7169196D01*
X-52166874Y7190281D01*
X-52083580Y7232722D01*
X-52046787Y7251468D01*
X-52046785Y7251470D01*
X-52046780Y7251472D01*
X-51951472Y7346780D01*
X-51890281Y7466874D01*
X-51869196Y7600000D01*
X-51130804Y7600000D01*
X-51109719Y7466874D01*
X-51109719Y7466873D01*
X-51109718Y7466872D01*
X-51048533Y7346787D01*
X-51048528Y7346780D01*
X-50953221Y7251473D01*
X-50953214Y7251468D01*
X-50873158Y7210678D01*
X-50833126Y7190281D01*
X-50700000Y7169196D01*
X-50566874Y7190281D01*
X-50483580Y7232722D01*
X-50446787Y7251468D01*
X-50446785Y7251470D01*
X-50446780Y7251472D01*
X-50351472Y7346780D01*
X-50343660Y7362113D01*
X-50315142Y7386469D01*
X-50277755Y7383527D01*
X-50256340Y7362112D01*
X-50248530Y7346783D01*
X-50248528Y7346780D01*
X-50153221Y7251473D01*
X-50153214Y7251468D01*
X-50073158Y7210678D01*
X-50033126Y7190281D01*
X-49900000Y7169196D01*
X-49766874Y7190281D01*
X-49683580Y7232722D01*
X-49646787Y7251468D01*
X-49646785Y7251470D01*
X-49646780Y7251472D01*
X-49551472Y7346780D01*
X-49490281Y7466874D01*
X-49469196Y7600000D01*
X-48730804Y7600000D01*
X-48709719Y7466874D01*
X-48709719Y7466873D01*
X-48709718Y7466872D01*
X-48648533Y7346787D01*
X-48648528Y7346780D01*
X-48553221Y7251473D01*
X-48553214Y7251468D01*
X-48473158Y7210678D01*
X-48433126Y7190281D01*
X-48300000Y7169196D01*
X-48166874Y7190281D01*
X-48083580Y7232722D01*
X-48046787Y7251468D01*
X-48046785Y7251470D01*
X-48046780Y7251472D01*
X-47951472Y7346780D01*
X-47943660Y7362113D01*
X-47915142Y7386469D01*
X-47877755Y7383527D01*
X-47856340Y7362112D01*
X-47848530Y7346783D01*
X-47848528Y7346780D01*
X-47753221Y7251473D01*
X-47753214Y7251468D01*
X-47673158Y7210678D01*
X-47633126Y7190281D01*
X-47500000Y7169196D01*
X-47366874Y7190281D01*
X-47283580Y7232722D01*
X-47246787Y7251468D01*
X-47246785Y7251470D01*
X-47246780Y7251472D01*
X-47151472Y7346780D01*
X-47090281Y7466874D01*
X-47069196Y7600000D01*
X-46330804Y7600000D01*
X-46309719Y7466874D01*
X-46309719Y7466873D01*
X-46309718Y7466872D01*
X-46248533Y7346787D01*
X-46248528Y7346780D01*
X-46153221Y7251473D01*
X-46153214Y7251468D01*
X-46073158Y7210678D01*
X-46033126Y7190281D01*
X-45900000Y7169196D01*
X-45766874Y7190281D01*
X-45683580Y7232722D01*
X-45646787Y7251468D01*
X-45646785Y7251470D01*
X-45646780Y7251472D01*
X-45551472Y7346780D01*
X-45543660Y7362113D01*
X-45515142Y7386469D01*
X-45477755Y7383527D01*
X-45456340Y7362112D01*
X-45448530Y7346783D01*
X-45448528Y7346780D01*
X-45353221Y7251473D01*
X-45353214Y7251468D01*
X-45273158Y7210678D01*
X-45233126Y7190281D01*
X-45100000Y7169196D01*
X-44966874Y7190281D01*
X-44883580Y7232722D01*
X-44846787Y7251468D01*
X-44846785Y7251470D01*
X-44846780Y7251472D01*
X-44751472Y7346780D01*
X-44690281Y7466874D01*
X-44669196Y7600000D01*
X-43930804Y7600000D01*
X-43909719Y7466874D01*
X-43909719Y7466873D01*
X-43909718Y7466872D01*
X-43848533Y7346787D01*
X-43848528Y7346780D01*
X-43753221Y7251473D01*
X-43753214Y7251468D01*
X-43673158Y7210678D01*
X-43633126Y7190281D01*
X-43500000Y7169196D01*
X-43366874Y7190281D01*
X-43283580Y7232722D01*
X-43246787Y7251468D01*
X-43246785Y7251470D01*
X-43246780Y7251472D01*
X-43151472Y7346780D01*
X-43143660Y7362113D01*
X-43115142Y7386469D01*
X-43077755Y7383527D01*
X-43056340Y7362112D01*
X-43048530Y7346783D01*
X-43048528Y7346780D01*
X-42953221Y7251473D01*
X-42953214Y7251468D01*
X-42873158Y7210678D01*
X-42833126Y7190281D01*
X-42700000Y7169196D01*
X-42566874Y7190281D01*
X-42483580Y7232722D01*
X-42446787Y7251468D01*
X-42446785Y7251470D01*
X-42446780Y7251472D01*
X-42351472Y7346780D01*
X-42290281Y7466874D01*
X-42269196Y7600000D01*
X-41530804Y7600000D01*
X-41509719Y7466874D01*
X-41509719Y7466873D01*
X-41509718Y7466872D01*
X-41448533Y7346787D01*
X-41448528Y7346780D01*
X-41353221Y7251473D01*
X-41353214Y7251468D01*
X-41273158Y7210678D01*
X-41233126Y7190281D01*
X-41100000Y7169196D01*
X-40966874Y7190281D01*
X-40883580Y7232722D01*
X-40846787Y7251468D01*
X-40846785Y7251470D01*
X-40846780Y7251472D01*
X-40751472Y7346780D01*
X-40743660Y7362113D01*
X-40715142Y7386469D01*
X-40677755Y7383527D01*
X-40656340Y7362112D01*
X-40648530Y7346783D01*
X-40648528Y7346780D01*
X-40553221Y7251473D01*
X-40553214Y7251468D01*
X-40473158Y7210678D01*
X-40433126Y7190281D01*
X-40300000Y7169196D01*
X-40166874Y7190281D01*
X-40083580Y7232722D01*
X-40046787Y7251468D01*
X-40046785Y7251470D01*
X-40046780Y7251472D01*
X-39951472Y7346780D01*
X-39890281Y7466874D01*
X-39869196Y7600000D01*
X-39130804Y7600000D01*
X-39109719Y7466874D01*
X-39109719Y7466873D01*
X-39109718Y7466872D01*
X-39048533Y7346787D01*
X-39048528Y7346780D01*
X-38953221Y7251473D01*
X-38953214Y7251468D01*
X-38873158Y7210678D01*
X-38833126Y7190281D01*
X-38700000Y7169196D01*
X-38566874Y7190281D01*
X-38483580Y7232722D01*
X-38446787Y7251468D01*
X-38446785Y7251470D01*
X-38446780Y7251472D01*
X-38351472Y7346780D01*
X-38343660Y7362113D01*
X-38315142Y7386469D01*
X-38277755Y7383527D01*
X-38256340Y7362112D01*
X-38248530Y7346783D01*
X-38248528Y7346780D01*
X-38153221Y7251473D01*
X-38153214Y7251468D01*
X-38073158Y7210678D01*
X-38033126Y7190281D01*
X-37900000Y7169196D01*
X-37766874Y7190281D01*
X-37683580Y7232722D01*
X-37646787Y7251468D01*
X-37646785Y7251470D01*
X-37646780Y7251472D01*
X-37551472Y7346780D01*
X-37490281Y7466874D01*
X-37469196Y7600000D01*
X-37490281Y7733126D01*
X-37510678Y7773158D01*
X-37551468Y7853214D01*
X-37551473Y7853221D01*
X-37646780Y7948528D01*
X-37646787Y7948533D01*
X-37766872Y8009718D01*
X-37766873Y8009719D01*
X-37766874Y8009719D01*
X-37900000Y8030804D01*
X-38033126Y8009719D01*
X-38033128Y8009719D01*
X-38033129Y8009718D01*
X-38153214Y7948533D01*
X-38153221Y7948528D01*
X-38248528Y7853221D01*
X-38248532Y7853216D01*
X-38256341Y7837888D01*
X-38284859Y7813532D01*
X-38322246Y7816475D01*
X-38343659Y7837888D01*
X-38351469Y7853216D01*
X-38351473Y7853221D01*
X-38446780Y7948528D01*
X-38446787Y7948533D01*
X-38566872Y8009718D01*
X-38566873Y8009719D01*
X-38566874Y8009719D01*
X-38700000Y8030804D01*
X-38833126Y8009719D01*
X-38833128Y8009719D01*
X-38833129Y8009718D01*
X-38953214Y7948533D01*
X-38953221Y7948528D01*
X-39048528Y7853221D01*
X-39048533Y7853214D01*
X-39109718Y7733129D01*
X-39109719Y7733128D01*
X-39109719Y7733126D01*
X-39130804Y7600000D01*
X-39869196Y7600000D01*
X-39890281Y7733126D01*
X-39910678Y7773158D01*
X-39951468Y7853214D01*
X-39951473Y7853221D01*
X-40046780Y7948528D01*
X-40046787Y7948533D01*
X-40166872Y8009718D01*
X-40166873Y8009719D01*
X-40166874Y8009719D01*
X-40300000Y8030804D01*
X-40433126Y8009719D01*
X-40433128Y8009719D01*
X-40433129Y8009718D01*
X-40553214Y7948533D01*
X-40553221Y7948528D01*
X-40648528Y7853221D01*
X-40648532Y7853216D01*
X-40656341Y7837888D01*
X-40684859Y7813532D01*
X-40722246Y7816475D01*
X-40743659Y7837888D01*
X-40751469Y7853216D01*
X-40751473Y7853221D01*
X-40846780Y7948528D01*
X-40846787Y7948533D01*
X-40966872Y8009718D01*
X-40966873Y8009719D01*
X-40966874Y8009719D01*
X-41100000Y8030804D01*
X-41233126Y8009719D01*
X-41233128Y8009719D01*
X-41233129Y8009718D01*
X-41353214Y7948533D01*
X-41353221Y7948528D01*
X-41448528Y7853221D01*
X-41448533Y7853214D01*
X-41509718Y7733129D01*
X-41509719Y7733128D01*
X-41509719Y7733126D01*
X-41530804Y7600000D01*
X-42269196Y7600000D01*
X-42290281Y7733126D01*
X-42310678Y7773158D01*
X-42351468Y7853214D01*
X-42351473Y7853221D01*
X-42446780Y7948528D01*
X-42446787Y7948533D01*
X-42566872Y8009718D01*
X-42566873Y8009719D01*
X-42566874Y8009719D01*
X-42700000Y8030804D01*
X-42833126Y8009719D01*
X-42833128Y8009719D01*
X-42833129Y8009718D01*
X-42953214Y7948533D01*
X-42953221Y7948528D01*
X-43048528Y7853221D01*
X-43048532Y7853216D01*
X-43056341Y7837888D01*
X-43084859Y7813532D01*
X-43122246Y7816475D01*
X-43143659Y7837888D01*
X-43151469Y7853216D01*
X-43151473Y7853221D01*
X-43246780Y7948528D01*
X-43246787Y7948533D01*
X-43366872Y8009718D01*
X-43366873Y8009719D01*
X-43366874Y8009719D01*
X-43500000Y8030804D01*
X-43633126Y8009719D01*
X-43633128Y8009719D01*
X-43633129Y8009718D01*
X-43753214Y7948533D01*
X-43753221Y7948528D01*
X-43848528Y7853221D01*
X-43848533Y7853214D01*
X-43909718Y7733129D01*
X-43909719Y7733128D01*
X-43909719Y7733126D01*
X-43930804Y7600000D01*
X-44669196Y7600000D01*
X-44690281Y7733126D01*
X-44710678Y7773158D01*
X-44751468Y7853214D01*
X-44751473Y7853221D01*
X-44846780Y7948528D01*
X-44846787Y7948533D01*
X-44966872Y8009718D01*
X-44966873Y8009719D01*
X-44966874Y8009719D01*
X-45100000Y8030804D01*
X-45233126Y8009719D01*
X-45233128Y8009719D01*
X-45233129Y8009718D01*
X-45353214Y7948533D01*
X-45353221Y7948528D01*
X-45448528Y7853221D01*
X-45448532Y7853216D01*
X-45456341Y7837888D01*
X-45484859Y7813532D01*
X-45522246Y7816475D01*
X-45543659Y7837888D01*
X-45551469Y7853216D01*
X-45551473Y7853221D01*
X-45646780Y7948528D01*
X-45646787Y7948533D01*
X-45766872Y8009718D01*
X-45766873Y8009719D01*
X-45766874Y8009719D01*
X-45900000Y8030804D01*
X-46033126Y8009719D01*
X-46033128Y8009719D01*
X-46033129Y8009718D01*
X-46153214Y7948533D01*
X-46153221Y7948528D01*
X-46248528Y7853221D01*
X-46248533Y7853214D01*
X-46309718Y7733129D01*
X-46309719Y7733128D01*
X-46309719Y7733126D01*
X-46330804Y7600000D01*
X-47069196Y7600000D01*
X-47090281Y7733126D01*
X-47110678Y7773158D01*
X-47151468Y7853214D01*
X-47151473Y7853221D01*
X-47246780Y7948528D01*
X-47246787Y7948533D01*
X-47366872Y8009718D01*
X-47366873Y8009719D01*
X-47366874Y8009719D01*
X-47500000Y8030804D01*
X-47633126Y8009719D01*
X-47633128Y8009719D01*
X-47633129Y8009718D01*
X-47753214Y7948533D01*
X-47753221Y7948528D01*
X-47848528Y7853221D01*
X-47848532Y7853216D01*
X-47856341Y7837888D01*
X-47884859Y7813532D01*
X-47922246Y7816475D01*
X-47943659Y7837888D01*
X-47951469Y7853216D01*
X-47951473Y7853221D01*
X-48046780Y7948528D01*
X-48046787Y7948533D01*
X-48166872Y8009718D01*
X-48166873Y8009719D01*
X-48166874Y8009719D01*
X-48300000Y8030804D01*
X-48433126Y8009719D01*
X-48433128Y8009719D01*
X-48433129Y8009718D01*
X-48553214Y7948533D01*
X-48553221Y7948528D01*
X-48648528Y7853221D01*
X-48648533Y7853214D01*
X-48709718Y7733129D01*
X-48709719Y7733128D01*
X-48709719Y7733126D01*
X-48730804Y7600000D01*
X-49469196Y7600000D01*
X-49490281Y7733126D01*
X-49510678Y7773158D01*
X-49551468Y7853214D01*
X-49551473Y7853221D01*
X-49646780Y7948528D01*
X-49646787Y7948533D01*
X-49766872Y8009718D01*
X-49766873Y8009719D01*
X-49766874Y8009719D01*
X-49900000Y8030804D01*
X-50033126Y8009719D01*
X-50033128Y8009719D01*
X-50033129Y8009718D01*
X-50153214Y7948533D01*
X-50153221Y7948528D01*
X-50248528Y7853221D01*
X-50248532Y7853216D01*
X-50256341Y7837888D01*
X-50284859Y7813532D01*
X-50322246Y7816475D01*
X-50343659Y7837888D01*
X-50351469Y7853216D01*
X-50351473Y7853221D01*
X-50446780Y7948528D01*
X-50446787Y7948533D01*
X-50566872Y8009718D01*
X-50566873Y8009719D01*
X-50566874Y8009719D01*
X-50700000Y8030804D01*
X-50833126Y8009719D01*
X-50833128Y8009719D01*
X-50833129Y8009718D01*
X-50953214Y7948533D01*
X-50953221Y7948528D01*
X-51048528Y7853221D01*
X-51048533Y7853214D01*
X-51109718Y7733129D01*
X-51109719Y7733128D01*
X-51109719Y7733126D01*
X-51130804Y7600000D01*
X-51869196Y7600000D01*
X-51890281Y7733126D01*
X-51910678Y7773158D01*
X-51951468Y7853214D01*
X-51951473Y7853221D01*
X-52046780Y7948528D01*
X-52046787Y7948533D01*
X-52166872Y8009718D01*
X-52166873Y8009719D01*
X-52166874Y8009719D01*
X-52300000Y8030804D01*
X-52433126Y8009719D01*
X-52433128Y8009719D01*
X-52433129Y8009718D01*
X-52553214Y7948533D01*
X-52553221Y7948528D01*
X-52648528Y7853221D01*
X-52648532Y7853216D01*
X-52656341Y7837888D01*
X-52684859Y7813532D01*
X-52722246Y7816475D01*
X-52743659Y7837888D01*
X-52751469Y7853216D01*
X-52751473Y7853221D01*
X-52846780Y7948528D01*
X-52846787Y7948533D01*
X-52966872Y8009718D01*
X-52966873Y8009719D01*
X-52966874Y8009719D01*
X-53100000Y8030804D01*
X-53233126Y8009719D01*
X-53233128Y8009719D01*
X-53233129Y8009718D01*
X-53353214Y7948533D01*
X-53353221Y7948528D01*
X-53448528Y7853221D01*
X-53448533Y7853214D01*
X-53509718Y7733129D01*
X-53509719Y7733128D01*
X-53509719Y7733126D01*
X-53530804Y7600000D01*
X-62098252Y7600000D01*
X-62051472Y7646780D01*
X-61990281Y7766874D01*
X-61969196Y7900000D01*
X-61990281Y8033126D01*
X-62010678Y8073158D01*
X-62051468Y8153214D01*
X-62051474Y8153222D01*
X-62085148Y8186896D01*
X-62099500Y8221544D01*
X-62099500Y11239564D01*
X-62111994Y11286189D01*
X-62119979Y11315989D01*
X-62119980Y11315991D01*
X-62119980Y11315992D01*
X-62159541Y11384512D01*
X-63715489Y12940460D01*
X-63784010Y12980021D01*
X-63860436Y13000500D01*
X-63860438Y13000500D01*
X-65005233Y13000500D01*
X-65039881Y13014852D01*
X-66756841Y14731812D01*
X-66770589Y14758793D01*
X-66790281Y14883126D01*
X-66810678Y14923158D01*
X-66851468Y15003214D01*
X-66851473Y15003221D01*
X-66946780Y15098528D01*
X-66946787Y15098533D01*
X-67066872Y15159718D01*
X-67066873Y15159719D01*
X-67066874Y15159719D01*
X-67200000Y15180804D01*
X-67333126Y15159719D01*
X-67333128Y15159719D01*
X-67333129Y15159718D01*
X-67453214Y15098533D01*
X-67453221Y15098528D01*
X-67548528Y15003221D01*
X-67548533Y15003214D01*
X-67609718Y14883129D01*
X-67609719Y14883128D01*
X-67609719Y14883126D01*
X-67630804Y14750000D01*
X-68770605Y14750000D01*
X-68788924Y14947696D01*
X-68846006Y15148319D01*
X-68938981Y15335038D01*
X-69064682Y15501493D01*
X-69174583Y15601681D01*
X-69218825Y15642013D01*
X-69218828Y15642015D01*
X-69218829Y15642016D01*
X-69396172Y15751823D01*
X-69396175Y15751824D01*
X-69396176Y15751825D01*
X-69590667Y15827171D01*
X-69590669Y15827172D01*
X-69590673Y15827173D01*
X-69649102Y15838096D01*
X-69680521Y15858568D01*
X-69688262Y15895264D01*
X-69667788Y15926685D01*
X-69647762Y15934657D01*
X-69565726Y15947650D01*
X-69352030Y16017084D01*
X-69151827Y16119093D01*
X-68970046Y16251164D01*
X-68970043Y16251168D01*
X-68970040Y16251169D01*
X-68811169Y16410040D01*
X-68811168Y16410043D01*
X-68811164Y16410046D01*
X-68745809Y16500000D01*
X-67630804Y16500000D01*
X-67609719Y16366874D01*
X-67609719Y16366873D01*
X-67609718Y16366872D01*
X-67548533Y16246787D01*
X-67548528Y16246780D01*
X-67453221Y16151473D01*
X-67453214Y16151468D01*
X-67389675Y16119094D01*
X-67333126Y16090281D01*
X-67200000Y16069196D01*
X-67066874Y16090281D01*
X-66983580Y16132722D01*
X-66946787Y16151468D01*
X-66946785Y16151470D01*
X-66946780Y16151472D01*
X-66851472Y16246780D01*
X-66849235Y16251169D01*
X-66832722Y16283580D01*
X-66790281Y16366874D01*
X-66769196Y16500000D01*
X-66790281Y16633126D01*
X-66810678Y16673158D01*
X-66851468Y16753214D01*
X-66851473Y16753221D01*
X-66946780Y16848528D01*
X-66946787Y16848533D01*
X-67066872Y16909718D01*
X-67066873Y16909719D01*
X-67066874Y16909719D01*
X-67200000Y16930804D01*
X-67333126Y16909719D01*
X-67333128Y16909719D01*
X-67333129Y16909718D01*
X-67453214Y16848533D01*
X-67453221Y16848528D01*
X-67548528Y16753221D01*
X-67548533Y16753214D01*
X-67609718Y16633129D01*
X-67609719Y16633128D01*
X-67609719Y16633126D01*
X-67630804Y16500000D01*
X-68745809Y16500000D01*
X-68679093Y16591827D01*
X-68577084Y16792030D01*
X-68507650Y17005726D01*
X-68472500Y17227653D01*
X-68472500Y17452347D01*
X-68507650Y17674274D01*
X-68577084Y17887970D01*
X-68679093Y18088173D01*
X-68811164Y18269954D01*
X-68811166Y18269956D01*
X-68811169Y18269960D01*
X-68970040Y18428831D01*
X-68970045Y18428835D01*
X-68970046Y18428836D01*
X-69151827Y18560907D01*
X-69352030Y18662916D01*
X-69352031Y18662917D01*
X-69352032Y18662917D01*
X-69565726Y18732350D01*
X-69565729Y18732351D01*
X-69736208Y18759352D01*
X-69787653Y18767500D01*
X-70012347Y18767500D01*
X-70054111Y18760886D01*
X-70234272Y18732351D01*
X-70234275Y18732350D01*
X-70447969Y18662917D01*
X-70648173Y18560907D01*
X-70829956Y18428835D01*
X-70988835Y18269956D01*
X-71120907Y18088173D01*
X-71222917Y17887969D01*
X-71292350Y17674275D01*
X-71292351Y17674272D01*
X-71327500Y17452347D01*
X-74799500Y17452347D01*
X-74799500Y28123922D01*
X-55025500Y28123922D01*
X-55025500Y27376079D01*
X-54996660Y27231094D01*
X-54996658Y27231085D01*
X-54948973Y27115964D01*
X-54940084Y27094505D01*
X-54909845Y27049249D01*
X-54862192Y26977930D01*
X-54857951Y26971584D01*
X-54753416Y26867049D01*
X-54630495Y26784916D01*
X-54562204Y26756629D01*
X-54493916Y26728343D01*
X-54493915Y26728343D01*
X-54493913Y26728342D01*
X-54348918Y26699500D01*
X-54201082Y26699500D01*
X-54056087Y26728342D01*
X-53919505Y26784916D01*
X-53796584Y26867049D01*
X-53692049Y26971584D01*
X-53609916Y27094505D01*
X-53553342Y27231087D01*
X-53524500Y27376082D01*
X-53524500Y27850000D01*
X-52605215Y27850000D01*
X-52586398Y27646921D01*
X-52586397Y27646915D01*
X-52530583Y27450752D01*
X-52530580Y27450745D01*
X-52439675Y27268182D01*
X-52439672Y27268178D01*
X-52316767Y27105424D01*
X-52316764Y27105421D01*
X-52166046Y26968023D01*
X-52166045Y26968022D01*
X-52166041Y26968019D01*
X-51992637Y26860652D01*
X-51802456Y26786976D01*
X-51601976Y26749500D01*
X-51601974Y26749500D01*
X-51449746Y26749500D01*
X-51415098Y26735148D01*
X-51400746Y26700500D01*
X-51400955Y26695979D01*
X-51405215Y26650001D01*
X-51400754Y26601852D01*
X-51411848Y26566027D01*
X-51431844Y26551640D01*
X-51592634Y26489350D01*
X-51766046Y26381978D01*
X-51916764Y26244580D01*
X-51916767Y26244577D01*
X-52039672Y26081823D01*
X-52039675Y26081819D01*
X-52130580Y25899256D01*
X-52130583Y25899249D01*
X-52186397Y25703086D01*
X-52186398Y25703080D01*
X-52205215Y25500000D01*
X-52186398Y25296921D01*
X-52186397Y25296915D01*
X-52130583Y25100752D01*
X-52130580Y25100745D01*
X-52039675Y24918182D01*
X-52039672Y24918178D01*
X-51916767Y24755424D01*
X-51916764Y24755421D01*
X-51766046Y24618023D01*
X-51766045Y24618022D01*
X-51766041Y24618019D01*
X-51592637Y24510652D01*
X-51402456Y24436976D01*
X-51201976Y24399500D01*
X-51201974Y24399500D01*
X-50998026Y24399500D01*
X-50998024Y24399500D01*
X-50797544Y24436976D01*
X-50607363Y24510652D01*
X-50433959Y24618019D01*
X-50333010Y24710047D01*
X-50297737Y24722783D01*
X-50266991Y24710047D01*
X-50266987Y24710044D01*
X-50166046Y24618023D01*
X-50166045Y24618022D01*
X-50166041Y24618019D01*
X-49992637Y24510652D01*
X-49802456Y24436976D01*
X-49601976Y24399500D01*
X-49601974Y24399500D01*
X-49398026Y24399500D01*
X-49398024Y24399500D01*
X-49197544Y24436976D01*
X-49007363Y24510652D01*
X-48833959Y24618019D01*
X-48733010Y24710047D01*
X-48697737Y24722783D01*
X-48666991Y24710047D01*
X-48666987Y24710044D01*
X-48566046Y24618023D01*
X-48566045Y24618022D01*
X-48566041Y24618019D01*
X-48392637Y24510652D01*
X-48202456Y24436976D01*
X-48001976Y24399500D01*
X-48001974Y24399500D01*
X-47798026Y24399500D01*
X-47798024Y24399500D01*
X-47597544Y24436976D01*
X-47407363Y24510652D01*
X-47233959Y24618019D01*
X-47133010Y24710047D01*
X-47097737Y24722783D01*
X-47066991Y24710047D01*
X-47066987Y24710044D01*
X-46966046Y24618023D01*
X-46966045Y24618022D01*
X-46966041Y24618019D01*
X-46792637Y24510652D01*
X-46602456Y24436976D01*
X-46401976Y24399500D01*
X-46401974Y24399500D01*
X-46198026Y24399500D01*
X-46198024Y24399500D01*
X-45997544Y24436976D01*
X-45807363Y24510652D01*
X-45633959Y24618019D01*
X-45533010Y24710047D01*
X-45497737Y24722783D01*
X-45466991Y24710047D01*
X-45466987Y24710044D01*
X-45366046Y24618023D01*
X-45366045Y24618022D01*
X-45366041Y24618019D01*
X-45192637Y24510652D01*
X-45002456Y24436976D01*
X-44801976Y24399500D01*
X-44801974Y24399500D01*
X-44598026Y24399500D01*
X-44598024Y24399500D01*
X-44397544Y24436976D01*
X-44207363Y24510652D01*
X-44033959Y24618019D01*
X-43933010Y24710048D01*
X-43897739Y24722783D01*
X-43866992Y24710047D01*
X-43866988Y24710044D01*
X-43766046Y24618022D01*
X-43766045Y24618021D01*
X-43766041Y24618018D01*
X-43592637Y24510651D01*
X-43402456Y24436975D01*
X-43201976Y24399499D01*
X-43201974Y24399499D01*
X-42998026Y24399499D01*
X-42998024Y24399499D01*
X-42797544Y24436975D01*
X-42607363Y24510651D01*
X-42433959Y24618018D01*
X-42333010Y24710046D01*
X-42297737Y24722782D01*
X-42266991Y24710046D01*
X-42266988Y24710044D01*
X-42166047Y24618023D01*
X-42166046Y24618022D01*
X-42166042Y24618019D01*
X-41992638Y24510652D01*
X-41802457Y24436976D01*
X-41601977Y24399500D01*
X-41601975Y24399500D01*
X-41398027Y24399500D01*
X-41398025Y24399500D01*
X-41197545Y24436976D01*
X-41007364Y24510652D01*
X-40833960Y24618019D01*
X-40683237Y24755421D01*
X-40560328Y24918179D01*
X-40469419Y25100750D01*
X-40413604Y25296917D01*
X-40394786Y25500000D01*
X-40399248Y25548148D01*
X-40388155Y25583972D01*
X-40368158Y25598360D01*
X-40339748Y25609367D01*
X-40207363Y25660652D01*
X-40033959Y25768019D01*
X-39883236Y25905421D01*
X-39760327Y26068179D01*
X-39708849Y26171563D01*
X-39680559Y26196181D01*
X-39643146Y26193584D01*
X-39630517Y26183907D01*
X-39630401Y26184036D01*
X-39628579Y26182422D01*
X-39628313Y26182218D01*
X-39628187Y26182076D01*
X-39628183Y26182071D01*
X-39517007Y26083578D01*
X-39500589Y26049861D01*
X-39500500Y26046902D01*
X-39500500Y25947270D01*
X-39473208Y25845415D01*
X-39473207Y25845411D01*
X-39420480Y25754087D01*
X-39414852Y25748459D01*
X-39400500Y25713811D01*
X-39400500Y25321544D01*
X-39414852Y25286896D01*
X-39448528Y25253221D01*
X-39448533Y25253214D01*
X-39509718Y25133129D01*
X-39509719Y25133128D01*
X-39509719Y25133126D01*
X-39530804Y25000000D01*
X-39509719Y24866874D01*
X-39509719Y24866873D01*
X-39509718Y24866872D01*
X-39505841Y24859263D01*
X-39500500Y24837017D01*
X-39500500Y11047270D01*
X-39473208Y10945413D01*
X-39473207Y10945411D01*
X-39420480Y10854087D01*
X-36714852Y8148459D01*
X-36700500Y8113811D01*
X-36700500Y3362984D01*
X-36705839Y3340741D01*
X-36709719Y3333127D01*
X-36709719Y3333126D01*
X-36730804Y3200000D01*
X-36709719Y3066874D01*
X-36709719Y3066873D01*
X-36709718Y3066872D01*
X-36648533Y2946787D01*
X-36648528Y2946780D01*
X-36553221Y2851473D01*
X-36553214Y2851468D01*
X-36473158Y2810678D01*
X-36433126Y2790281D01*
X-36300000Y2769196D01*
X-36166874Y2790281D01*
X-36083580Y2832722D01*
X-36046787Y2851468D01*
X-36046785Y2851470D01*
X-36046780Y2851472D01*
X-35951472Y2946780D01*
X-35950578Y2948533D01*
X-35931249Y2986469D01*
X-35890281Y3066874D01*
X-35869196Y3200000D01*
X-33530804Y3200000D01*
X-33509719Y3066874D01*
X-33509719Y3066873D01*
X-33509718Y3066872D01*
X-33448533Y2946787D01*
X-33448528Y2946780D01*
X-33353221Y2851473D01*
X-33353214Y2851468D01*
X-33273158Y2810678D01*
X-33233126Y2790281D01*
X-33100000Y2769196D01*
X-32966874Y2790281D01*
X-32883580Y2832722D01*
X-32846787Y2851468D01*
X-32846785Y2851470D01*
X-32846780Y2851472D01*
X-32751472Y2946780D01*
X-32750578Y2948533D01*
X-32731249Y2986469D01*
X-32690281Y3066874D01*
X-32669196Y3200000D01*
X-31930804Y3200000D01*
X-31909719Y3066874D01*
X-31909719Y3066873D01*
X-31909718Y3066872D01*
X-31848533Y2946787D01*
X-31848528Y2946780D01*
X-31753221Y2851473D01*
X-31753214Y2851468D01*
X-31673158Y2810678D01*
X-31633126Y2790281D01*
X-31500000Y2769196D01*
X-31366874Y2790281D01*
X-31283580Y2832722D01*
X-31246787Y2851468D01*
X-31246785Y2851470D01*
X-31246780Y2851472D01*
X-31151472Y2946780D01*
X-31143660Y2962113D01*
X-31115142Y2986469D01*
X-31077755Y2983527D01*
X-31056340Y2962112D01*
X-31048530Y2946783D01*
X-31048528Y2946780D01*
X-30953221Y2851473D01*
X-30953214Y2851468D01*
X-30873158Y2810678D01*
X-30833126Y2790281D01*
X-30700000Y2769196D01*
X-30566874Y2790281D01*
X-30483580Y2832722D01*
X-30446787Y2851468D01*
X-30446785Y2851470D01*
X-30446780Y2851472D01*
X-30351472Y2946780D01*
X-30350578Y2948533D01*
X-30331249Y2986469D01*
X-30290281Y3066874D01*
X-30269196Y3200000D01*
X-29530804Y3200000D01*
X-29509719Y3066874D01*
X-29509719Y3066873D01*
X-29509718Y3066872D01*
X-29448533Y2946787D01*
X-29448528Y2946780D01*
X-29353221Y2851473D01*
X-29353214Y2851468D01*
X-29273158Y2810678D01*
X-29233126Y2790281D01*
X-29100000Y2769196D01*
X-28966874Y2790281D01*
X-28883580Y2832722D01*
X-28846787Y2851468D01*
X-28846785Y2851470D01*
X-28846780Y2851472D01*
X-28751472Y2946780D01*
X-28743660Y2962113D01*
X-28715142Y2986469D01*
X-28677755Y2983527D01*
X-28656340Y2962112D01*
X-28648530Y2946783D01*
X-28648528Y2946780D01*
X-28553221Y2851473D01*
X-28553214Y2851468D01*
X-28473158Y2810678D01*
X-28433126Y2790281D01*
X-28300000Y2769196D01*
X-28166874Y2790281D01*
X-28083580Y2832722D01*
X-28046787Y2851468D01*
X-28046785Y2851470D01*
X-28046780Y2851472D01*
X-27951472Y2946780D01*
X-27950578Y2948533D01*
X-27931249Y2986469D01*
X-27890281Y3066874D01*
X-27869196Y3200000D01*
X-27130804Y3200000D01*
X-27109719Y3066874D01*
X-27109719Y3066873D01*
X-27109718Y3066872D01*
X-27048533Y2946787D01*
X-27048528Y2946780D01*
X-26953221Y2851473D01*
X-26953214Y2851468D01*
X-26873158Y2810678D01*
X-26833126Y2790281D01*
X-26700000Y2769196D01*
X-26566874Y2790281D01*
X-26483580Y2832722D01*
X-26446787Y2851468D01*
X-26446785Y2851470D01*
X-26446780Y2851472D01*
X-26351472Y2946780D01*
X-26343660Y2962113D01*
X-26315142Y2986469D01*
X-26277755Y2983527D01*
X-26256340Y2962112D01*
X-26248530Y2946783D01*
X-26248528Y2946780D01*
X-26153221Y2851473D01*
X-26153214Y2851468D01*
X-26073158Y2810678D01*
X-26033126Y2790281D01*
X-25900000Y2769196D01*
X-25766874Y2790281D01*
X-25683580Y2832722D01*
X-25646787Y2851468D01*
X-25646785Y2851470D01*
X-25646780Y2851472D01*
X-25551472Y2946780D01*
X-25550578Y2948533D01*
X-25531249Y2986469D01*
X-25490281Y3066874D01*
X-25469196Y3200000D01*
X-24730804Y3200000D01*
X-24709719Y3066874D01*
X-24709719Y3066873D01*
X-24709718Y3066872D01*
X-24648533Y2946787D01*
X-24648528Y2946780D01*
X-24553221Y2851473D01*
X-24553214Y2851468D01*
X-24473158Y2810678D01*
X-24433126Y2790281D01*
X-24300000Y2769196D01*
X-24166874Y2790281D01*
X-24083580Y2832722D01*
X-24046787Y2851468D01*
X-24046785Y2851470D01*
X-24046780Y2851472D01*
X-23951472Y2946780D01*
X-23943660Y2962113D01*
X-23915142Y2986469D01*
X-23877755Y2983527D01*
X-23856340Y2962112D01*
X-23848530Y2946783D01*
X-23848528Y2946780D01*
X-23753221Y2851473D01*
X-23753214Y2851468D01*
X-23673158Y2810678D01*
X-23633126Y2790281D01*
X-23500000Y2769196D01*
X-23366874Y2790281D01*
X-23283580Y2832722D01*
X-23246787Y2851468D01*
X-23246785Y2851470D01*
X-23246780Y2851472D01*
X-23151472Y2946780D01*
X-23150578Y2948533D01*
X-23131249Y2986469D01*
X-23090281Y3066874D01*
X-23069196Y3200000D01*
X-22330804Y3200000D01*
X-22309719Y3066874D01*
X-22309719Y3066873D01*
X-22309718Y3066872D01*
X-22248533Y2946787D01*
X-22248528Y2946780D01*
X-22153221Y2851473D01*
X-22153214Y2851468D01*
X-22073158Y2810678D01*
X-22033126Y2790281D01*
X-21900000Y2769196D01*
X-21766874Y2790281D01*
X-21683580Y2832722D01*
X-21646787Y2851468D01*
X-21646785Y2851470D01*
X-21646780Y2851472D01*
X-21551472Y2946780D01*
X-21543660Y2962113D01*
X-21515142Y2986469D01*
X-21477755Y2983527D01*
X-21456340Y2962112D01*
X-21448530Y2946783D01*
X-21448528Y2946780D01*
X-21353221Y2851473D01*
X-21353214Y2851468D01*
X-21273158Y2810678D01*
X-21233126Y2790281D01*
X-21100000Y2769196D01*
X-20966874Y2790281D01*
X-20883580Y2832722D01*
X-20846787Y2851468D01*
X-20846785Y2851470D01*
X-20846780Y2851472D01*
X-20751472Y2946780D01*
X-20750578Y2948533D01*
X-20731249Y2986469D01*
X-20690281Y3066874D01*
X-20669196Y3200000D01*
X-19930804Y3200000D01*
X-19909719Y3066874D01*
X-19909719Y3066873D01*
X-19909718Y3066872D01*
X-19848533Y2946787D01*
X-19848528Y2946780D01*
X-19753221Y2851473D01*
X-19753214Y2851468D01*
X-19673158Y2810678D01*
X-19633126Y2790281D01*
X-19500000Y2769196D01*
X-19366874Y2790281D01*
X-19283580Y2832722D01*
X-19246787Y2851468D01*
X-19246785Y2851470D01*
X-19246780Y2851472D01*
X-19151472Y2946780D01*
X-19143660Y2962113D01*
X-19115142Y2986469D01*
X-19077755Y2983527D01*
X-19056340Y2962112D01*
X-19048530Y2946783D01*
X-19048528Y2946780D01*
X-18953221Y2851473D01*
X-18953214Y2851468D01*
X-18873158Y2810678D01*
X-18833126Y2790281D01*
X-18700000Y2769196D01*
X-18566874Y2790281D01*
X-18483580Y2832722D01*
X-18446787Y2851468D01*
X-18446785Y2851470D01*
X-18446780Y2851472D01*
X-18351472Y2946780D01*
X-18350578Y2948533D01*
X-18331249Y2986469D01*
X-18290281Y3066874D01*
X-18269196Y3200000D01*
X-18290281Y3333126D01*
X-18310678Y3373158D01*
X-18351468Y3453214D01*
X-18351473Y3453221D01*
X-18446780Y3548528D01*
X-18446787Y3548533D01*
X-18566872Y3609718D01*
X-18566873Y3609719D01*
X-18566874Y3609719D01*
X-18700000Y3630804D01*
X-18833126Y3609719D01*
X-18833128Y3609719D01*
X-18833129Y3609718D01*
X-18953214Y3548533D01*
X-18953221Y3548528D01*
X-19048528Y3453221D01*
X-19048532Y3453216D01*
X-19056341Y3437888D01*
X-19084859Y3413532D01*
X-19122246Y3416475D01*
X-19143659Y3437888D01*
X-19151469Y3453216D01*
X-19151473Y3453221D01*
X-19246780Y3548528D01*
X-19246787Y3548533D01*
X-19366872Y3609718D01*
X-19366873Y3609719D01*
X-19366874Y3609719D01*
X-19500000Y3630804D01*
X-19633126Y3609719D01*
X-19633128Y3609719D01*
X-19633129Y3609718D01*
X-19753214Y3548533D01*
X-19753221Y3548528D01*
X-19848528Y3453221D01*
X-19848533Y3453214D01*
X-19909718Y3333129D01*
X-19909719Y3333128D01*
X-19909719Y3333126D01*
X-19930804Y3200000D01*
X-20669196Y3200000D01*
X-20690281Y3333126D01*
X-20710678Y3373158D01*
X-20751468Y3453214D01*
X-20751473Y3453221D01*
X-20846780Y3548528D01*
X-20846787Y3548533D01*
X-20966872Y3609718D01*
X-20966873Y3609719D01*
X-20966874Y3609719D01*
X-21100000Y3630804D01*
X-21233126Y3609719D01*
X-21233128Y3609719D01*
X-21233129Y3609718D01*
X-21353214Y3548533D01*
X-21353221Y3548528D01*
X-21448528Y3453221D01*
X-21448532Y3453216D01*
X-21456341Y3437888D01*
X-21484859Y3413532D01*
X-21522246Y3416475D01*
X-21543659Y3437888D01*
X-21551469Y3453216D01*
X-21551473Y3453221D01*
X-21646780Y3548528D01*
X-21646787Y3548533D01*
X-21766872Y3609718D01*
X-21766873Y3609719D01*
X-21766874Y3609719D01*
X-21900000Y3630804D01*
X-22033126Y3609719D01*
X-22033128Y3609719D01*
X-22033129Y3609718D01*
X-22153214Y3548533D01*
X-22153221Y3548528D01*
X-22248528Y3453221D01*
X-22248533Y3453214D01*
X-22309718Y3333129D01*
X-22309719Y3333128D01*
X-22309719Y3333126D01*
X-22330804Y3200000D01*
X-23069196Y3200000D01*
X-23090281Y3333126D01*
X-23110678Y3373158D01*
X-23151468Y3453214D01*
X-23151473Y3453221D01*
X-23246780Y3548528D01*
X-23246787Y3548533D01*
X-23366872Y3609718D01*
X-23366873Y3609719D01*
X-23366874Y3609719D01*
X-23500000Y3630804D01*
X-23633126Y3609719D01*
X-23633128Y3609719D01*
X-23633129Y3609718D01*
X-23753214Y3548533D01*
X-23753221Y3548528D01*
X-23848528Y3453221D01*
X-23848532Y3453216D01*
X-23856341Y3437888D01*
X-23884859Y3413532D01*
X-23922246Y3416475D01*
X-23943659Y3437888D01*
X-23951469Y3453216D01*
X-23951473Y3453221D01*
X-24046780Y3548528D01*
X-24046787Y3548533D01*
X-24166872Y3609718D01*
X-24166873Y3609719D01*
X-24166874Y3609719D01*
X-24300000Y3630804D01*
X-24433126Y3609719D01*
X-24433128Y3609719D01*
X-24433129Y3609718D01*
X-24553214Y3548533D01*
X-24553221Y3548528D01*
X-24648528Y3453221D01*
X-24648533Y3453214D01*
X-24709718Y3333129D01*
X-24709719Y3333128D01*
X-24709719Y3333126D01*
X-24730804Y3200000D01*
X-25469196Y3200000D01*
X-25490281Y3333126D01*
X-25510678Y3373158D01*
X-25551468Y3453214D01*
X-25551473Y3453221D01*
X-25646780Y3548528D01*
X-25646787Y3548533D01*
X-25766872Y3609718D01*
X-25766873Y3609719D01*
X-25766874Y3609719D01*
X-25900000Y3630804D01*
X-26033126Y3609719D01*
X-26033128Y3609719D01*
X-26033129Y3609718D01*
X-26153214Y3548533D01*
X-26153221Y3548528D01*
X-26248528Y3453221D01*
X-26248532Y3453216D01*
X-26256341Y3437888D01*
X-26284859Y3413532D01*
X-26322246Y3416475D01*
X-26343659Y3437888D01*
X-26351469Y3453216D01*
X-26351473Y3453221D01*
X-26446780Y3548528D01*
X-26446787Y3548533D01*
X-26566872Y3609718D01*
X-26566873Y3609719D01*
X-26566874Y3609719D01*
X-26700000Y3630804D01*
X-26833126Y3609719D01*
X-26833128Y3609719D01*
X-26833129Y3609718D01*
X-26953214Y3548533D01*
X-26953221Y3548528D01*
X-27048528Y3453221D01*
X-27048533Y3453214D01*
X-27109718Y3333129D01*
X-27109719Y3333128D01*
X-27109719Y3333126D01*
X-27130804Y3200000D01*
X-27869196Y3200000D01*
X-27890281Y3333126D01*
X-27910678Y3373158D01*
X-27951468Y3453214D01*
X-27951473Y3453221D01*
X-28046780Y3548528D01*
X-28046787Y3548533D01*
X-28166872Y3609718D01*
X-28166873Y3609719D01*
X-28166874Y3609719D01*
X-28300000Y3630804D01*
X-28433126Y3609719D01*
X-28433128Y3609719D01*
X-28433129Y3609718D01*
X-28553214Y3548533D01*
X-28553221Y3548528D01*
X-28648528Y3453221D01*
X-28648532Y3453216D01*
X-28656341Y3437888D01*
X-28684859Y3413532D01*
X-28722246Y3416475D01*
X-28743659Y3437888D01*
X-28751469Y3453216D01*
X-28751473Y3453221D01*
X-28846780Y3548528D01*
X-28846787Y3548533D01*
X-28966872Y3609718D01*
X-28966873Y3609719D01*
X-28966874Y3609719D01*
X-29100000Y3630804D01*
X-29233126Y3609719D01*
X-29233128Y3609719D01*
X-29233129Y3609718D01*
X-29353214Y3548533D01*
X-29353221Y3548528D01*
X-29448528Y3453221D01*
X-29448533Y3453214D01*
X-29509718Y3333129D01*
X-29509719Y3333128D01*
X-29509719Y3333126D01*
X-29530804Y3200000D01*
X-30269196Y3200000D01*
X-30290281Y3333126D01*
X-30310678Y3373158D01*
X-30351468Y3453214D01*
X-30351473Y3453221D01*
X-30446780Y3548528D01*
X-30446787Y3548533D01*
X-30566872Y3609718D01*
X-30566873Y3609719D01*
X-30566874Y3609719D01*
X-30700000Y3630804D01*
X-30833126Y3609719D01*
X-30833128Y3609719D01*
X-30833129Y3609718D01*
X-30953214Y3548533D01*
X-30953221Y3548528D01*
X-31048528Y3453221D01*
X-31048532Y3453216D01*
X-31056341Y3437888D01*
X-31084859Y3413532D01*
X-31122246Y3416475D01*
X-31143659Y3437888D01*
X-31151469Y3453216D01*
X-31151473Y3453221D01*
X-31246780Y3548528D01*
X-31246787Y3548533D01*
X-31366872Y3609718D01*
X-31366873Y3609719D01*
X-31366874Y3609719D01*
X-31500000Y3630804D01*
X-31633126Y3609719D01*
X-31633128Y3609719D01*
X-31633129Y3609718D01*
X-31753214Y3548533D01*
X-31753221Y3548528D01*
X-31848528Y3453221D01*
X-31848533Y3453214D01*
X-31909718Y3333129D01*
X-31909719Y3333128D01*
X-31909719Y3333126D01*
X-31930804Y3200000D01*
X-32669196Y3200000D01*
X-32690281Y3333126D01*
X-32710678Y3373158D01*
X-32751468Y3453214D01*
X-32751473Y3453221D01*
X-32846780Y3548528D01*
X-32846787Y3548533D01*
X-32966872Y3609718D01*
X-32966873Y3609719D01*
X-32966874Y3609719D01*
X-33100000Y3630804D01*
X-33233126Y3609719D01*
X-33233128Y3609719D01*
X-33233129Y3609718D01*
X-33353214Y3548533D01*
X-33353221Y3548528D01*
X-33448528Y3453221D01*
X-33448533Y3453214D01*
X-33509718Y3333129D01*
X-33509719Y3333128D01*
X-33509719Y3333126D01*
X-33530804Y3200000D01*
X-35869196Y3200000D01*
X-35890281Y3333126D01*
X-35894162Y3340742D01*
X-35899500Y3362984D01*
X-35899500Y4069451D01*
X-15927500Y4069451D01*
X-15927500Y3930550D01*
X-15891553Y3796395D01*
X-15891552Y3796391D01*
X-15822105Y3676107D01*
X-15723893Y3577895D01*
X-15679867Y3552477D01*
X-15603610Y3508449D01*
X-15603608Y3508449D01*
X-15603607Y3508448D01*
X-15497801Y3480098D01*
X-15469451Y3472501D01*
X-15469450Y3472500D01*
X-15469447Y3472500D01*
X-15330550Y3472500D01*
X-15330550Y3472501D01*
X-15196393Y3508448D01*
X-15076107Y3577895D01*
X-14977895Y3676107D01*
X-14908448Y3796393D01*
X-14872501Y3930550D01*
X-14872500Y3930550D01*
X-14872500Y4069450D01*
X-14872501Y4069451D01*
X-14908448Y4203606D01*
X-14908449Y4203610D01*
X-14977896Y4323894D01*
X-15076107Y4422105D01*
X-15196391Y4491552D01*
X-15196395Y4491553D01*
X-15330550Y4527500D01*
X-15330553Y4527500D01*
X-15469447Y4527500D01*
X-15469450Y4527500D01*
X-15603606Y4491553D01*
X-15603610Y4491552D01*
X-15723894Y4422105D01*
X-15723894Y4422104D01*
X-15822104Y4323894D01*
X-15822105Y4323894D01*
X-15891552Y4203610D01*
X-15891553Y4203606D01*
X-15927500Y4069451D01*
X-35899500Y4069451D01*
X-35899500Y7600000D01*
X-33530804Y7600000D01*
X-33509719Y7466874D01*
X-33509719Y7466873D01*
X-33509718Y7466872D01*
X-33448533Y7346787D01*
X-33448528Y7346780D01*
X-33353221Y7251473D01*
X-33353214Y7251468D01*
X-33273158Y7210678D01*
X-33233126Y7190281D01*
X-33100000Y7169196D01*
X-32966874Y7190281D01*
X-32883580Y7232722D01*
X-32846787Y7251468D01*
X-32846785Y7251470D01*
X-32846780Y7251472D01*
X-32751472Y7346780D01*
X-32690281Y7466874D01*
X-32669196Y7600000D01*
X-31930804Y7600000D01*
X-31909719Y7466874D01*
X-31909719Y7466873D01*
X-31909718Y7466872D01*
X-31848533Y7346787D01*
X-31848528Y7346780D01*
X-31753221Y7251473D01*
X-31753214Y7251468D01*
X-31673158Y7210678D01*
X-31633126Y7190281D01*
X-31500000Y7169196D01*
X-31366874Y7190281D01*
X-31283580Y7232722D01*
X-31246787Y7251468D01*
X-31246785Y7251470D01*
X-31246780Y7251472D01*
X-31151472Y7346780D01*
X-31143660Y7362113D01*
X-31115142Y7386469D01*
X-31077755Y7383527D01*
X-31056340Y7362112D01*
X-31048530Y7346783D01*
X-31048528Y7346780D01*
X-30953221Y7251473D01*
X-30953214Y7251468D01*
X-30873158Y7210678D01*
X-30833126Y7190281D01*
X-30700000Y7169196D01*
X-30566874Y7190281D01*
X-30483580Y7232722D01*
X-30446787Y7251468D01*
X-30446785Y7251470D01*
X-30446780Y7251472D01*
X-30351472Y7346780D01*
X-30290281Y7466874D01*
X-30269196Y7600000D01*
X-29530804Y7600000D01*
X-29509719Y7466874D01*
X-29509719Y7466873D01*
X-29509718Y7466872D01*
X-29448533Y7346787D01*
X-29448528Y7346780D01*
X-29353221Y7251473D01*
X-29353214Y7251468D01*
X-29273158Y7210678D01*
X-29233126Y7190281D01*
X-29100000Y7169196D01*
X-28966874Y7190281D01*
X-28883580Y7232722D01*
X-28846787Y7251468D01*
X-28846785Y7251470D01*
X-28846780Y7251472D01*
X-28751472Y7346780D01*
X-28743660Y7362113D01*
X-28715142Y7386469D01*
X-28677755Y7383527D01*
X-28656340Y7362112D01*
X-28648530Y7346783D01*
X-28648528Y7346780D01*
X-28553221Y7251473D01*
X-28553214Y7251468D01*
X-28473158Y7210678D01*
X-28433126Y7190281D01*
X-28300000Y7169196D01*
X-28166874Y7190281D01*
X-28083580Y7232722D01*
X-28046787Y7251468D01*
X-28046785Y7251470D01*
X-28046780Y7251472D01*
X-27951472Y7346780D01*
X-27890281Y7466874D01*
X-27869196Y7600000D01*
X-27130804Y7600000D01*
X-27109719Y7466874D01*
X-27109719Y7466873D01*
X-27109718Y7466872D01*
X-27048533Y7346787D01*
X-27048528Y7346780D01*
X-26953221Y7251473D01*
X-26953214Y7251468D01*
X-26873158Y7210678D01*
X-26833126Y7190281D01*
X-26700000Y7169196D01*
X-26566874Y7190281D01*
X-26483580Y7232722D01*
X-26446787Y7251468D01*
X-26446785Y7251470D01*
X-26446780Y7251472D01*
X-26351472Y7346780D01*
X-26343660Y7362113D01*
X-26315142Y7386469D01*
X-26277755Y7383527D01*
X-26256340Y7362112D01*
X-26248530Y7346783D01*
X-26248528Y7346780D01*
X-26153221Y7251473D01*
X-26153214Y7251468D01*
X-26073158Y7210678D01*
X-26033126Y7190281D01*
X-25900000Y7169196D01*
X-25766874Y7190281D01*
X-25683580Y7232722D01*
X-25646787Y7251468D01*
X-25646785Y7251470D01*
X-25646780Y7251472D01*
X-25551472Y7346780D01*
X-25490281Y7466874D01*
X-25469196Y7600000D01*
X-24730804Y7600000D01*
X-24709719Y7466874D01*
X-24709719Y7466873D01*
X-24709718Y7466872D01*
X-24648533Y7346787D01*
X-24648528Y7346780D01*
X-24553221Y7251473D01*
X-24553214Y7251468D01*
X-24473158Y7210678D01*
X-24433126Y7190281D01*
X-24300000Y7169196D01*
X-24166874Y7190281D01*
X-24083580Y7232722D01*
X-24046787Y7251468D01*
X-24046785Y7251470D01*
X-24046780Y7251472D01*
X-23951472Y7346780D01*
X-23943660Y7362113D01*
X-23915142Y7386469D01*
X-23877755Y7383527D01*
X-23856340Y7362112D01*
X-23848530Y7346783D01*
X-23848528Y7346780D01*
X-23753221Y7251473D01*
X-23753214Y7251468D01*
X-23673158Y7210678D01*
X-23633126Y7190281D01*
X-23500000Y7169196D01*
X-23366874Y7190281D01*
X-23283580Y7232722D01*
X-23246787Y7251468D01*
X-23246785Y7251470D01*
X-23246780Y7251472D01*
X-23151472Y7346780D01*
X-23090281Y7466874D01*
X-23069196Y7600000D01*
X-22330804Y7600000D01*
X-22309719Y7466874D01*
X-22309719Y7466873D01*
X-22309718Y7466872D01*
X-22248533Y7346787D01*
X-22248528Y7346780D01*
X-22153221Y7251473D01*
X-22153214Y7251468D01*
X-22073158Y7210678D01*
X-22033126Y7190281D01*
X-21900000Y7169196D01*
X-21766874Y7190281D01*
X-21683580Y7232722D01*
X-21646787Y7251468D01*
X-21646785Y7251470D01*
X-21646780Y7251472D01*
X-21551472Y7346780D01*
X-21543660Y7362113D01*
X-21515142Y7386469D01*
X-21477755Y7383527D01*
X-21456340Y7362112D01*
X-21448530Y7346783D01*
X-21448528Y7346780D01*
X-21353221Y7251473D01*
X-21353214Y7251468D01*
X-21273158Y7210678D01*
X-21233126Y7190281D01*
X-21100000Y7169196D01*
X-20966874Y7190281D01*
X-20883580Y7232722D01*
X-20846787Y7251468D01*
X-20846785Y7251470D01*
X-20846780Y7251472D01*
X-20751472Y7346780D01*
X-20690281Y7466874D01*
X-20669196Y7600000D01*
X-19930804Y7600000D01*
X-19909719Y7466874D01*
X-19909719Y7466873D01*
X-19909718Y7466872D01*
X-19848533Y7346787D01*
X-19848528Y7346780D01*
X-19753221Y7251473D01*
X-19753214Y7251468D01*
X-19673158Y7210678D01*
X-19633126Y7190281D01*
X-19500000Y7169196D01*
X-19366874Y7190281D01*
X-19283580Y7232722D01*
X-19246787Y7251468D01*
X-19246785Y7251470D01*
X-19246780Y7251472D01*
X-19151472Y7346780D01*
X-19143660Y7362113D01*
X-19115142Y7386469D01*
X-19077755Y7383527D01*
X-19056340Y7362112D01*
X-19048530Y7346783D01*
X-19048528Y7346780D01*
X-18953221Y7251473D01*
X-18953214Y7251468D01*
X-18873158Y7210678D01*
X-18833126Y7190281D01*
X-18700000Y7169196D01*
X-18566874Y7190281D01*
X-18483580Y7232722D01*
X-18446787Y7251468D01*
X-18446785Y7251470D01*
X-18446780Y7251472D01*
X-18351472Y7346780D01*
X-18290281Y7466874D01*
X-18269196Y7600000D01*
X-18290281Y7733126D01*
X-18310678Y7773158D01*
X-18351468Y7853214D01*
X-18351473Y7853221D01*
X-18446780Y7948528D01*
X-18446787Y7948533D01*
X-18566872Y8009718D01*
X-18566873Y8009719D01*
X-18566874Y8009719D01*
X-18700000Y8030804D01*
X-18833126Y8009719D01*
X-18833128Y8009719D01*
X-18833129Y8009718D01*
X-18953214Y7948533D01*
X-18953221Y7948528D01*
X-19048528Y7853221D01*
X-19048532Y7853216D01*
X-19056341Y7837888D01*
X-19084859Y7813532D01*
X-19122246Y7816475D01*
X-19143659Y7837888D01*
X-19151469Y7853216D01*
X-19151473Y7853221D01*
X-19246780Y7948528D01*
X-19246787Y7948533D01*
X-19366872Y8009718D01*
X-19366873Y8009719D01*
X-19366874Y8009719D01*
X-19500000Y8030804D01*
X-19633126Y8009719D01*
X-19633128Y8009719D01*
X-19633129Y8009718D01*
X-19753214Y7948533D01*
X-19753221Y7948528D01*
X-19848528Y7853221D01*
X-19848533Y7853214D01*
X-19909718Y7733129D01*
X-19909719Y7733128D01*
X-19909719Y7733126D01*
X-19930804Y7600000D01*
X-20669196Y7600000D01*
X-20690281Y7733126D01*
X-20710678Y7773158D01*
X-20751468Y7853214D01*
X-20751473Y7853221D01*
X-20846780Y7948528D01*
X-20846787Y7948533D01*
X-20966872Y8009718D01*
X-20966873Y8009719D01*
X-20966874Y8009719D01*
X-21100000Y8030804D01*
X-21233126Y8009719D01*
X-21233128Y8009719D01*
X-21233129Y8009718D01*
X-21353214Y7948533D01*
X-21353221Y7948528D01*
X-21448528Y7853221D01*
X-21448532Y7853216D01*
X-21456341Y7837888D01*
X-21484859Y7813532D01*
X-21522246Y7816475D01*
X-21543659Y7837888D01*
X-21551469Y7853216D01*
X-21551473Y7853221D01*
X-21646780Y7948528D01*
X-21646787Y7948533D01*
X-21766872Y8009718D01*
X-21766873Y8009719D01*
X-21766874Y8009719D01*
X-21900000Y8030804D01*
X-22033126Y8009719D01*
X-22033128Y8009719D01*
X-22033129Y8009718D01*
X-22153214Y7948533D01*
X-22153221Y7948528D01*
X-22248528Y7853221D01*
X-22248533Y7853214D01*
X-22309718Y7733129D01*
X-22309719Y7733128D01*
X-22309719Y7733126D01*
X-22330804Y7600000D01*
X-23069196Y7600000D01*
X-23090281Y7733126D01*
X-23110678Y7773158D01*
X-23151468Y7853214D01*
X-23151473Y7853221D01*
X-23246780Y7948528D01*
X-23246787Y7948533D01*
X-23366872Y8009718D01*
X-23366873Y8009719D01*
X-23366874Y8009719D01*
X-23500000Y8030804D01*
X-23633126Y8009719D01*
X-23633128Y8009719D01*
X-23633129Y8009718D01*
X-23753214Y7948533D01*
X-23753221Y7948528D01*
X-23848528Y7853221D01*
X-23848532Y7853216D01*
X-23856341Y7837888D01*
X-23884859Y7813532D01*
X-23922246Y7816475D01*
X-23943659Y7837888D01*
X-23951469Y7853216D01*
X-23951473Y7853221D01*
X-24046780Y7948528D01*
X-24046787Y7948533D01*
X-24166872Y8009718D01*
X-24166873Y8009719D01*
X-24166874Y8009719D01*
X-24300000Y8030804D01*
X-24433126Y8009719D01*
X-24433128Y8009719D01*
X-24433129Y8009718D01*
X-24553214Y7948533D01*
X-24553221Y7948528D01*
X-24648528Y7853221D01*
X-24648533Y7853214D01*
X-24709718Y7733129D01*
X-24709719Y7733128D01*
X-24709719Y7733126D01*
X-24730804Y7600000D01*
X-25469196Y7600000D01*
X-25490281Y7733126D01*
X-25510678Y7773158D01*
X-25551468Y7853214D01*
X-25551473Y7853221D01*
X-25646780Y7948528D01*
X-25646787Y7948533D01*
X-25766872Y8009718D01*
X-25766873Y8009719D01*
X-25766874Y8009719D01*
X-25900000Y8030804D01*
X-26033126Y8009719D01*
X-26033128Y8009719D01*
X-26033129Y8009718D01*
X-26153214Y7948533D01*
X-26153221Y7948528D01*
X-26248528Y7853221D01*
X-26248532Y7853216D01*
X-26256341Y7837888D01*
X-26284859Y7813532D01*
X-26322246Y7816475D01*
X-26343659Y7837888D01*
X-26351469Y7853216D01*
X-26351473Y7853221D01*
X-26446780Y7948528D01*
X-26446787Y7948533D01*
X-26566872Y8009718D01*
X-26566873Y8009719D01*
X-26566874Y8009719D01*
X-26700000Y8030804D01*
X-26833126Y8009719D01*
X-26833128Y8009719D01*
X-26833129Y8009718D01*
X-26953214Y7948533D01*
X-26953221Y7948528D01*
X-27048528Y7853221D01*
X-27048533Y7853214D01*
X-27109718Y7733129D01*
X-27109719Y7733128D01*
X-27109719Y7733126D01*
X-27130804Y7600000D01*
X-27869196Y7600000D01*
X-27890281Y7733126D01*
X-27910678Y7773158D01*
X-27951468Y7853214D01*
X-27951473Y7853221D01*
X-28046780Y7948528D01*
X-28046787Y7948533D01*
X-28166872Y8009718D01*
X-28166873Y8009719D01*
X-28166874Y8009719D01*
X-28300000Y8030804D01*
X-28433126Y8009719D01*
X-28433128Y8009719D01*
X-28433129Y8009718D01*
X-28553214Y7948533D01*
X-28553221Y7948528D01*
X-28648528Y7853221D01*
X-28648532Y7853216D01*
X-28656341Y7837888D01*
X-28684859Y7813532D01*
X-28722246Y7816475D01*
X-28743659Y7837888D01*
X-28751469Y7853216D01*
X-28751473Y7853221D01*
X-28846780Y7948528D01*
X-28846787Y7948533D01*
X-28966872Y8009718D01*
X-28966873Y8009719D01*
X-28966874Y8009719D01*
X-29100000Y8030804D01*
X-29233126Y8009719D01*
X-29233128Y8009719D01*
X-29233129Y8009718D01*
X-29353214Y7948533D01*
X-29353221Y7948528D01*
X-29448528Y7853221D01*
X-29448533Y7853214D01*
X-29509718Y7733129D01*
X-29509719Y7733128D01*
X-29509719Y7733126D01*
X-29530804Y7600000D01*
X-30269196Y7600000D01*
X-30290281Y7733126D01*
X-30310678Y7773158D01*
X-30351468Y7853214D01*
X-30351473Y7853221D01*
X-30446780Y7948528D01*
X-30446787Y7948533D01*
X-30566872Y8009718D01*
X-30566873Y8009719D01*
X-30566874Y8009719D01*
X-30700000Y8030804D01*
X-30833126Y8009719D01*
X-30833128Y8009719D01*
X-30833129Y8009718D01*
X-30953214Y7948533D01*
X-30953221Y7948528D01*
X-31048528Y7853221D01*
X-31048532Y7853216D01*
X-31056341Y7837888D01*
X-31084859Y7813532D01*
X-31122246Y7816475D01*
X-31143659Y7837888D01*
X-31151469Y7853216D01*
X-31151473Y7853221D01*
X-31246780Y7948528D01*
X-31246787Y7948533D01*
X-31366872Y8009718D01*
X-31366873Y8009719D01*
X-31366874Y8009719D01*
X-31500000Y8030804D01*
X-31633126Y8009719D01*
X-31633128Y8009719D01*
X-31633129Y8009718D01*
X-31753214Y7948533D01*
X-31753221Y7948528D01*
X-31848528Y7853221D01*
X-31848533Y7853214D01*
X-31909718Y7733129D01*
X-31909719Y7733128D01*
X-31909719Y7733126D01*
X-31930804Y7600000D01*
X-32669196Y7600000D01*
X-32690281Y7733126D01*
X-32710678Y7773158D01*
X-32751468Y7853214D01*
X-32751473Y7853221D01*
X-32846780Y7948528D01*
X-32846787Y7948533D01*
X-32966872Y8009718D01*
X-32966873Y8009719D01*
X-32966874Y8009719D01*
X-33100000Y8030804D01*
X-33233126Y8009719D01*
X-33233128Y8009719D01*
X-33233129Y8009718D01*
X-33353214Y7948533D01*
X-33353221Y7948528D01*
X-33448528Y7853221D01*
X-33448533Y7853214D01*
X-33509718Y7733129D01*
X-33509719Y7733128D01*
X-33509719Y7733126D01*
X-33530804Y7600000D01*
X-35899500Y7600000D01*
X-35899500Y8352729D01*
X-35899501Y8352730D01*
X-35903291Y8366874D01*
X-35907882Y8384011D01*
X-35926793Y8454588D01*
X-35979520Y8545913D01*
X-38685148Y11251541D01*
X-38699500Y11286189D01*
X-38699500Y24837018D01*
X-38694213Y24859158D01*
X-38694016Y24859546D01*
X-38665559Y24883965D01*
X-38628164Y24881111D01*
X-38627566Y24880802D01*
X-38550225Y24840210D01*
X-38385056Y24799500D01*
X-38214944Y24799500D01*
X-38049775Y24840210D01*
X-37899148Y24919266D01*
X-37771817Y25032071D01*
X-37675182Y25172070D01*
X-37614860Y25331128D01*
X-37594355Y25500000D01*
X-37614860Y25668872D01*
X-37675182Y25827930D01*
X-37721382Y25894861D01*
X-37729252Y25931527D01*
X-37708891Y25963021D01*
X-37672223Y25970892D01*
X-37669329Y25970271D01*
X-37585056Y25949500D01*
X-37414944Y25949500D01*
X-37330672Y25970271D01*
X-37293596Y25964628D01*
X-37271370Y25934421D01*
X-37277013Y25897345D01*
X-37278620Y25894860D01*
X-37324818Y25827932D01*
X-37324819Y25827930D01*
X-37360400Y25734107D01*
X-37385140Y25668872D01*
X-37405645Y25500000D01*
X-37385140Y25331128D01*
X-37385139Y25331126D01*
X-37324819Y25172071D01*
X-37324818Y25172069D01*
X-37228273Y25032201D01*
X-37228183Y25032071D01*
X-37100852Y24919266D01*
X-36950225Y24840210D01*
X-36785056Y24799500D01*
X-36614944Y24799500D01*
X-36449775Y24840210D01*
X-36299148Y24919266D01*
X-36171817Y25032071D01*
X-36171811Y25032081D01*
X-36171703Y25032201D01*
X-36171629Y25032238D01*
X-36169598Y25034036D01*
X-36169098Y25033471D01*
X-36137991Y25048631D01*
X-36102534Y25036410D01*
X-36091151Y25021562D01*
X-36039675Y24918182D01*
X-36039672Y24918178D01*
X-35916767Y24755424D01*
X-35916764Y24755421D01*
X-35766046Y24618023D01*
X-35766045Y24618022D01*
X-35766041Y24618019D01*
X-35592637Y24510652D01*
X-35402456Y24436976D01*
X-35201976Y24399500D01*
X-35201974Y24399500D01*
X-34998026Y24399500D01*
X-34998024Y24399500D01*
X-34797544Y24436976D01*
X-34607363Y24510652D01*
X-34433959Y24618019D01*
X-34333009Y24710049D01*
X-34297738Y24722784D01*
X-34266991Y24710048D01*
X-34266987Y24710045D01*
X-34166045Y24618023D01*
X-34166044Y24618022D01*
X-34166040Y24618019D01*
X-33992636Y24510652D01*
X-33802455Y24436976D01*
X-33601975Y24399500D01*
X-33601973Y24399500D01*
X-33398025Y24399500D01*
X-33398023Y24399500D01*
X-33197543Y24436976D01*
X-33007362Y24510652D01*
X-32833958Y24618019D01*
X-32733012Y24710046D01*
X-32697740Y24722781D01*
X-32666991Y24710045D01*
X-32589768Y24639648D01*
X-32566041Y24618018D01*
X-32392637Y24510651D01*
X-32202456Y24436975D01*
X-32001976Y24399499D01*
X-32001974Y24399499D01*
X-31798026Y24399499D01*
X-31798024Y24399499D01*
X-31597544Y24436975D01*
X-31407363Y24510651D01*
X-31233959Y24618018D01*
X-31133009Y24710048D01*
X-31097738Y24722783D01*
X-31066991Y24710047D01*
X-31066987Y24710044D01*
X-30966046Y24618023D01*
X-30966045Y24618022D01*
X-30966041Y24618019D01*
X-30792637Y24510652D01*
X-30602456Y24436976D01*
X-30401976Y24399500D01*
X-30401974Y24399500D01*
X-30198026Y24399500D01*
X-30198024Y24399500D01*
X-29997544Y24436976D01*
X-29807363Y24510652D01*
X-29633959Y24618019D01*
X-29533010Y24710047D01*
X-29497737Y24722783D01*
X-29466991Y24710047D01*
X-29466987Y24710044D01*
X-29366046Y24618023D01*
X-29366045Y24618022D01*
X-29366041Y24618019D01*
X-29192637Y24510652D01*
X-29002456Y24436976D01*
X-28801976Y24399500D01*
X-28801974Y24399500D01*
X-28598026Y24399500D01*
X-28598024Y24399500D01*
X-28397544Y24436976D01*
X-28207363Y24510652D01*
X-28033959Y24618019D01*
X-27933010Y24710047D01*
X-27897737Y24722783D01*
X-27866991Y24710047D01*
X-27866987Y24710044D01*
X-27766046Y24618023D01*
X-27766045Y24618022D01*
X-27766041Y24618019D01*
X-27592637Y24510652D01*
X-27402456Y24436976D01*
X-27201976Y24399500D01*
X-27201974Y24399500D01*
X-26998026Y24399500D01*
X-26998024Y24399500D01*
X-26797544Y24436976D01*
X-26607363Y24510652D01*
X-26433959Y24618019D01*
X-26333010Y24710047D01*
X-26297737Y24722783D01*
X-26266991Y24710047D01*
X-26266987Y24710044D01*
X-26166046Y24618023D01*
X-26166045Y24618022D01*
X-26166041Y24618019D01*
X-25992637Y24510652D01*
X-25802456Y24436976D01*
X-25601976Y24399500D01*
X-25601974Y24399500D01*
X-25398026Y24399500D01*
X-25398024Y24399500D01*
X-25197544Y24436976D01*
X-25007363Y24510652D01*
X-24833959Y24618019D01*
X-24683236Y24755421D01*
X-24560327Y24918179D01*
X-24469418Y25100750D01*
X-24413603Y25296917D01*
X-24394785Y25500000D01*
X-24399247Y25548149D01*
X-24388154Y25583973D01*
X-24368159Y25598360D01*
X-24207363Y25660652D01*
X-24033959Y25768019D01*
X-23883236Y25905421D01*
X-23760327Y26068179D01*
X-23669418Y26250750D01*
X-23613603Y26446917D01*
X-23594785Y26650000D01*
X-23613603Y26853083D01*
X-23669418Y27049250D01*
X-23760327Y27231821D01*
X-23833727Y27329018D01*
X-23883234Y27394577D01*
X-23883237Y27394580D01*
X-24033955Y27531978D01*
X-24033958Y27531980D01*
X-24033959Y27531981D01*
X-24207363Y27639348D01*
X-24207366Y27639349D01*
X-24207367Y27639350D01*
X-24397538Y27713022D01*
X-24397540Y27713023D01*
X-24397544Y27713024D01*
X-24598024Y27750500D01*
X-24750255Y27750500D01*
X-24784903Y27764852D01*
X-24799255Y27799500D01*
X-24799046Y27804022D01*
X-24794785Y27850000D01*
X-24799247Y27898149D01*
X-24788154Y27933973D01*
X-24768159Y27948360D01*
X-24607363Y28010652D01*
X-24433959Y28118019D01*
X-24427484Y28123922D01*
X-22675500Y28123922D01*
X-22675500Y27376079D01*
X-22646660Y27231094D01*
X-22646658Y27231085D01*
X-22598973Y27115964D01*
X-22590084Y27094505D01*
X-22559845Y27049249D01*
X-22512192Y26977930D01*
X-22507951Y26971584D01*
X-22403416Y26867049D01*
X-22280495Y26784916D01*
X-22212204Y26756629D01*
X-22143916Y26728343D01*
X-22143915Y26728343D01*
X-22143913Y26728342D01*
X-21998918Y26699500D01*
X-21851082Y26699500D01*
X-21706087Y26728342D01*
X-21569505Y26784916D01*
X-21446584Y26867049D01*
X-21342049Y26971584D01*
X-21259916Y27094505D01*
X-21203342Y27231087D01*
X-21174500Y27376082D01*
X-21174500Y28123918D01*
X-21203342Y28268913D01*
X-21209766Y28284421D01*
X-21259915Y28405492D01*
X-21259916Y28405495D01*
X-21342049Y28528416D01*
X-21446584Y28632951D01*
X-21457068Y28639956D01*
X-21487190Y28660083D01*
X-21569505Y28715084D01*
X-21569508Y28715086D01*
X-21569509Y28715086D01*
X-21706085Y28771658D01*
X-21706094Y28771660D01*
X-21851079Y28800500D01*
X-21851082Y28800500D01*
X-21998918Y28800500D01*
X-21998922Y28800500D01*
X-22143907Y28771660D01*
X-22143916Y28771658D01*
X-22280492Y28715086D01*
X-22403416Y28632952D01*
X-22507952Y28528416D01*
X-22590086Y28405492D01*
X-22646658Y28268916D01*
X-22646660Y28268907D01*
X-22675500Y28123922D01*
X-24427484Y28123922D01*
X-24283236Y28255421D01*
X-24160327Y28418179D01*
X-24069418Y28600750D01*
X-24013603Y28796917D01*
X-23994785Y29000000D01*
X-24013603Y29203083D01*
X-24069418Y29399250D01*
X-24160327Y29581821D01*
X-24283236Y29744579D01*
X-24300002Y29759863D01*
X-24433955Y29881978D01*
X-24433958Y29881980D01*
X-24433959Y29881981D01*
X-24607363Y29989348D01*
X-24607366Y29989349D01*
X-24607367Y29989350D01*
X-24797538Y30063022D01*
X-24797540Y30063023D01*
X-24797544Y30063024D01*
X-24998024Y30100500D01*
X-25201976Y30100500D01*
X-25402456Y30063024D01*
X-25402460Y30063023D01*
X-25402463Y30063022D01*
X-25592634Y29989350D01*
X-25766043Y29881980D01*
X-25866989Y29789956D01*
X-25902263Y29777220D01*
X-25933011Y29789956D01*
X-26033958Y29881980D01*
X-26033959Y29881981D01*
X-26207363Y29989348D01*
X-26207366Y29989349D01*
X-26207367Y29989350D01*
X-26397538Y30063022D01*
X-26397540Y30063023D01*
X-26397544Y30063024D01*
X-26598024Y30100500D01*
X-26801976Y30100500D01*
X-27002456Y30063024D01*
X-27002460Y30063023D01*
X-27002463Y30063022D01*
X-27192634Y29989350D01*
X-27366043Y29881980D01*
X-27466990Y29789956D01*
X-27502265Y29777220D01*
X-27533012Y29789957D01*
X-27633955Y29881979D01*
X-27633958Y29881981D01*
X-27633959Y29881982D01*
X-27807363Y29989349D01*
X-27807366Y29989350D01*
X-27807367Y29989351D01*
X-27997538Y30063023D01*
X-27997540Y30063024D01*
X-27997544Y30063025D01*
X-28198024Y30100501D01*
X-28401976Y30100501D01*
X-28602456Y30063025D01*
X-28602460Y30063024D01*
X-28602463Y30063023D01*
X-28792634Y29989351D01*
X-28966043Y29881981D01*
X-29066989Y29789957D01*
X-29102263Y29777221D01*
X-29133011Y29789957D01*
X-29233958Y29881981D01*
X-29233959Y29881982D01*
X-29407363Y29989349D01*
X-29407366Y29989350D01*
X-29407367Y29989351D01*
X-29597538Y30063023D01*
X-29597540Y30063024D01*
X-29597544Y30063025D01*
X-29798024Y30100501D01*
X-30001976Y30100501D01*
X-30202456Y30063025D01*
X-30202460Y30063024D01*
X-30202463Y30063023D01*
X-30392634Y29989351D01*
X-30566043Y29881981D01*
X-30666991Y29789956D01*
X-30702266Y29777220D01*
X-30733013Y29789957D01*
X-30833955Y29881978D01*
X-30833958Y29881980D01*
X-30833959Y29881981D01*
X-31007363Y29989348D01*
X-31007366Y29989349D01*
X-31007367Y29989350D01*
X-31197538Y30063022D01*
X-31197540Y30063023D01*
X-31197544Y30063024D01*
X-31398024Y30100500D01*
X-31601976Y30100500D01*
X-31802456Y30063024D01*
X-31802460Y30063023D01*
X-31802463Y30063022D01*
X-31992634Y29989350D01*
X-32166043Y29881980D01*
X-32266989Y29789956D01*
X-32302263Y29777220D01*
X-32333011Y29789956D01*
X-32433958Y29881980D01*
X-32433959Y29881981D01*
X-32607363Y29989348D01*
X-32607366Y29989349D01*
X-32607367Y29989350D01*
X-32797538Y30063022D01*
X-32797540Y30063023D01*
X-32797544Y30063024D01*
X-32998024Y30100500D01*
X-33201976Y30100500D01*
X-33402456Y30063024D01*
X-33402460Y30063023D01*
X-33402463Y30063022D01*
X-33592634Y29989350D01*
X-33766046Y29881978D01*
X-33916764Y29744580D01*
X-33916767Y29744577D01*
X-34039672Y29581823D01*
X-34039675Y29581819D01*
X-34130580Y29399256D01*
X-34130583Y29399249D01*
X-34186397Y29203086D01*
X-34186398Y29203080D01*
X-34205215Y29000000D01*
X-34200754Y28951852D01*
X-34211848Y28916027D01*
X-34231844Y28901640D01*
X-34392634Y28839350D01*
X-34566043Y28731980D01*
X-34666989Y28639956D01*
X-34702263Y28627220D01*
X-34733011Y28639956D01*
X-34833958Y28731980D01*
X-34833959Y28731981D01*
X-35007363Y28839348D01*
X-35007366Y28839349D01*
X-35007367Y28839350D01*
X-35197538Y28913022D01*
X-35197540Y28913023D01*
X-35197544Y28913024D01*
X-35398024Y28950500D01*
X-35601976Y28950500D01*
X-35802456Y28913024D01*
X-35802460Y28913023D01*
X-35802463Y28913022D01*
X-35992634Y28839350D01*
X-36166046Y28731978D01*
X-36316764Y28594580D01*
X-36316767Y28594577D01*
X-36439672Y28431823D01*
X-36491152Y28328438D01*
X-36519444Y28303820D01*
X-36556857Y28306417D01*
X-36569483Y28316096D01*
X-36569599Y28315964D01*
X-36571449Y28317603D01*
X-36571697Y28317793D01*
X-36571819Y28317931D01*
X-36596967Y28340210D01*
X-36699148Y28430734D01*
X-36699156Y28430738D01*
X-36699157Y28430739D01*
X-36849776Y28509791D01*
X-37014944Y28550500D01*
X-37185056Y28550500D01*
X-37269329Y28529730D01*
X-37306405Y28535373D01*
X-37328631Y28565580D01*
X-37322988Y28602656D01*
X-37321405Y28605106D01*
X-37275182Y28672070D01*
X-37214860Y28831128D01*
X-37194355Y29000000D01*
X-37214860Y29168872D01*
X-37275182Y29327930D01*
X-37311790Y29380965D01*
X-37371817Y29467929D01*
X-37440135Y29528453D01*
X-37499148Y29580734D01*
X-37499156Y29580738D01*
X-37499157Y29580739D01*
X-37649776Y29659791D01*
X-37814944Y29700500D01*
X-37985056Y29700500D01*
X-38150225Y29659791D01*
X-38300844Y29580739D01*
X-38300849Y29580736D01*
X-38300852Y29580734D01*
X-38300854Y29580732D01*
X-38428184Y29467929D01*
X-38524818Y29327932D01*
X-38524819Y29327930D01*
X-38572167Y29203080D01*
X-38585140Y29168872D01*
X-38605645Y29000000D01*
X-38585140Y28831128D01*
X-38572167Y28796921D01*
X-38524819Y28672071D01*
X-38524818Y28672069D01*
X-38478620Y28605141D01*
X-38470749Y28568474D01*
X-38491111Y28536980D01*
X-38527778Y28529109D01*
X-38530672Y28529730D01*
X-38614944Y28550500D01*
X-38785056Y28550500D01*
X-38950225Y28509791D01*
X-39100844Y28430739D01*
X-39100849Y28430736D01*
X-39100852Y28430734D01*
X-39115024Y28418179D01*
X-39228184Y28317929D01*
X-39324818Y28177932D01*
X-39324819Y28177930D01*
X-39372165Y28053086D01*
X-39385140Y28018872D01*
X-39405645Y27850000D01*
X-39385140Y27681128D01*
X-39385139Y27681126D01*
X-39324819Y27522071D01*
X-39324818Y27522069D01*
X-39243616Y27404429D01*
X-39235745Y27367762D01*
X-39256107Y27336268D01*
X-39272215Y27329018D01*
X-39350226Y27309790D01*
X-39500844Y27230739D01*
X-39500849Y27230736D01*
X-39500852Y27230734D01*
X-39500854Y27230732D01*
X-39628186Y27117927D01*
X-39628320Y27117775D01*
X-39628402Y27117736D01*
X-39630401Y27115964D01*
X-39630896Y27116523D01*
X-39662044Y27101368D01*
X-39697492Y27113613D01*
X-39708850Y27128439D01*
X-39739608Y27190210D01*
X-39760327Y27231821D01*
X-39833727Y27329018D01*
X-39883234Y27394577D01*
X-39883237Y27394580D01*
X-40033955Y27531978D01*
X-40033958Y27531980D01*
X-40033959Y27531981D01*
X-40207363Y27639348D01*
X-40207366Y27639349D01*
X-40207367Y27639350D01*
X-40397538Y27713022D01*
X-40397540Y27713023D01*
X-40397544Y27713024D01*
X-40598024Y27750500D01*
X-40750255Y27750500D01*
X-40784903Y27764852D01*
X-40799255Y27799500D01*
X-40799046Y27804022D01*
X-40794785Y27850000D01*
X-40799248Y27898152D01*
X-40788155Y27933974D01*
X-40768159Y27948361D01*
X-40607363Y28010653D01*
X-40433959Y28118020D01*
X-40283236Y28255422D01*
X-40160327Y28418180D01*
X-40069418Y28600751D01*
X-40013603Y28796918D01*
X-39994785Y29000001D01*
X-40013603Y29203084D01*
X-40069418Y29399251D01*
X-40160327Y29581822D01*
X-40249948Y29700500D01*
X-40283234Y29744578D01*
X-40283237Y29744581D01*
X-40433955Y29881979D01*
X-40433958Y29881981D01*
X-40433959Y29881982D01*
X-40607363Y29989349D01*
X-40607366Y29989350D01*
X-40607367Y29989351D01*
X-40797538Y30063023D01*
X-40797540Y30063024D01*
X-40797544Y30063025D01*
X-40998024Y30100501D01*
X-41201976Y30100501D01*
X-41402456Y30063025D01*
X-41402460Y30063024D01*
X-41402463Y30063023D01*
X-41592634Y29989351D01*
X-41766043Y29881981D01*
X-41866991Y29789956D01*
X-41902266Y29777220D01*
X-41933013Y29789957D01*
X-42033955Y29881978D01*
X-42033958Y29881980D01*
X-42033959Y29881981D01*
X-42207363Y29989348D01*
X-42207366Y29989349D01*
X-42207367Y29989350D01*
X-42397538Y30063022D01*
X-42397540Y30063023D01*
X-42397544Y30063024D01*
X-42598024Y30100500D01*
X-42801976Y30100500D01*
X-43002456Y30063024D01*
X-43002460Y30063023D01*
X-43002463Y30063022D01*
X-43192634Y29989350D01*
X-43366043Y29881980D01*
X-43466989Y29789956D01*
X-43502263Y29777220D01*
X-43533011Y29789956D01*
X-43633958Y29881980D01*
X-43633959Y29881981D01*
X-43807363Y29989348D01*
X-43807366Y29989349D01*
X-43807367Y29989350D01*
X-43997538Y30063022D01*
X-43997540Y30063023D01*
X-43997544Y30063024D01*
X-44198024Y30100500D01*
X-44401976Y30100500D01*
X-44602456Y30063024D01*
X-44602460Y30063023D01*
X-44602463Y30063022D01*
X-44792634Y29989350D01*
X-44966043Y29881980D01*
X-45066989Y29789956D01*
X-45102263Y29777220D01*
X-45133011Y29789956D01*
X-45233958Y29881980D01*
X-45233959Y29881981D01*
X-45407363Y29989348D01*
X-45407366Y29989349D01*
X-45407367Y29989350D01*
X-45597538Y30063022D01*
X-45597540Y30063023D01*
X-45597544Y30063024D01*
X-45798024Y30100500D01*
X-46001976Y30100500D01*
X-46202456Y30063024D01*
X-46202460Y30063023D01*
X-46202463Y30063022D01*
X-46392634Y29989350D01*
X-46566043Y29881980D01*
X-46666989Y29789956D01*
X-46702263Y29777220D01*
X-46733011Y29789956D01*
X-46833958Y29881980D01*
X-46833959Y29881981D01*
X-47007363Y29989348D01*
X-47007366Y29989349D01*
X-47007367Y29989350D01*
X-47197538Y30063022D01*
X-47197540Y30063023D01*
X-47197544Y30063024D01*
X-47398024Y30100500D01*
X-47601976Y30100500D01*
X-47802456Y30063024D01*
X-47802460Y30063023D01*
X-47802463Y30063022D01*
X-47992634Y29989350D01*
X-48166043Y29881980D01*
X-48266989Y29789956D01*
X-48302263Y29777220D01*
X-48333011Y29789956D01*
X-48433958Y29881980D01*
X-48433959Y29881981D01*
X-48607363Y29989348D01*
X-48607366Y29989349D01*
X-48607367Y29989350D01*
X-48797538Y30063022D01*
X-48797540Y30063023D01*
X-48797544Y30063024D01*
X-48998024Y30100500D01*
X-49201976Y30100500D01*
X-49402456Y30063024D01*
X-49402460Y30063023D01*
X-49402463Y30063022D01*
X-49592634Y29989350D01*
X-49766043Y29881980D01*
X-49866990Y29789956D01*
X-49902265Y29777220D01*
X-49933012Y29789957D01*
X-50033955Y29881979D01*
X-50033958Y29881981D01*
X-50033959Y29881982D01*
X-50207363Y29989349D01*
X-50207366Y29989350D01*
X-50207367Y29989351D01*
X-50397538Y30063023D01*
X-50397540Y30063024D01*
X-50397544Y30063025D01*
X-50598024Y30100501D01*
X-50801976Y30100501D01*
X-51002456Y30063025D01*
X-51002460Y30063024D01*
X-51002463Y30063023D01*
X-51192634Y29989351D01*
X-51366046Y29881979D01*
X-51516764Y29744581D01*
X-51516767Y29744578D01*
X-51639672Y29581824D01*
X-51639675Y29581820D01*
X-51730580Y29399257D01*
X-51730583Y29399250D01*
X-51786397Y29203087D01*
X-51786398Y29203081D01*
X-51805216Y29000001D01*
X-51800754Y28951851D01*
X-51811848Y28916027D01*
X-51831844Y28901640D01*
X-51992634Y28839350D01*
X-52166046Y28731978D01*
X-52316764Y28594580D01*
X-52316767Y28594577D01*
X-52439672Y28431823D01*
X-52439675Y28431819D01*
X-52530580Y28249256D01*
X-52530583Y28249249D01*
X-52586397Y28053086D01*
X-52586398Y28053080D01*
X-52605215Y27850000D01*
X-53524500Y27850000D01*
X-53524500Y28123918D01*
X-53553342Y28268913D01*
X-53559766Y28284421D01*
X-53609915Y28405492D01*
X-53609916Y28405495D01*
X-53692049Y28528416D01*
X-53796584Y28632951D01*
X-53807068Y28639956D01*
X-53837190Y28660083D01*
X-53919505Y28715084D01*
X-53919508Y28715086D01*
X-53919509Y28715086D01*
X-54056085Y28771658D01*
X-54056094Y28771660D01*
X-54201079Y28800500D01*
X-54201082Y28800500D01*
X-54348918Y28800500D01*
X-54348922Y28800500D01*
X-54493907Y28771660D01*
X-54493916Y28771658D01*
X-54630492Y28715086D01*
X-54753416Y28632952D01*
X-54857952Y28528416D01*
X-54940086Y28405492D01*
X-54996658Y28268916D01*
X-54996660Y28268907D01*
X-55025500Y28123922D01*
X-74799500Y28123922D01*
X-74799500Y29998797D01*
X-74799441Y30001201D01*
X-74794563Y30100501D01*
X-74781322Y30370023D01*
X-74780854Y30374780D01*
X-74726845Y30738882D01*
X-74725914Y30743564D01*
X-74688308Y30893697D01*
X-60150500Y30893697D01*
X-60150500Y29866304D01*
X-60115897Y29692344D01*
X-60115894Y29692333D01*
X-60048015Y29528457D01*
X-60048013Y29528453D01*
X-60008274Y29468979D01*
X-59949467Y29380968D01*
X-59824033Y29255534D01*
X-59765360Y29216330D01*
X-59676547Y29156987D01*
X-59512666Y29089106D01*
X-59512660Y29089105D01*
X-59512657Y29089104D01*
X-59338697Y29054501D01*
X-59338691Y29054500D01*
X-59161309Y29054500D01*
X-58987334Y29089106D01*
X-58823453Y29156987D01*
X-58675965Y29255536D01*
X-58550536Y29380965D01*
X-58451987Y29528453D01*
X-58384106Y29692334D01*
X-58349500Y29866309D01*
X-58349500Y30893691D01*
X-58349501Y30893697D01*
X-17850500Y30893697D01*
X-17850500Y29866304D01*
X-17815897Y29692344D01*
X-17815894Y29692333D01*
X-17748015Y29528457D01*
X-17748013Y29528453D01*
X-17708274Y29468979D01*
X-17649467Y29380968D01*
X-17524033Y29255534D01*
X-17465360Y29216330D01*
X-17376547Y29156987D01*
X-17212666Y29089106D01*
X-17212660Y29089105D01*
X-17212657Y29089104D01*
X-17038697Y29054501D01*
X-17038691Y29054500D01*
X-16861309Y29054500D01*
X-16687334Y29089106D01*
X-16523453Y29156987D01*
X-16375965Y29255536D01*
X-16250536Y29380965D01*
X-16151987Y29528453D01*
X-16084106Y29692334D01*
X-16049500Y29866309D01*
X-16049500Y30893691D01*
X-16049501Y30893697D01*
X-16084104Y31067657D01*
X-16084107Y31067668D01*
X-16151987Y31231547D01*
X-16221987Y31336309D01*
X-16250534Y31379033D01*
X-16375968Y31504467D01*
X-16463979Y31563274D01*
X-16523453Y31603013D01*
X-16523456Y31603015D01*
X-16523457Y31603015D01*
X-16687333Y31670894D01*
X-16687344Y31670897D01*
X-16861304Y31705500D01*
X-16861309Y31705500D01*
X-17038691Y31705500D01*
X-17038697Y31705500D01*
X-17212657Y31670897D01*
X-17212668Y31670894D01*
X-17376544Y31603015D01*
X-17524033Y31504467D01*
X-17649467Y31379033D01*
X-17748015Y31231544D01*
X-17815894Y31067668D01*
X-17815897Y31067657D01*
X-17850500Y30893697D01*
X-58349501Y30893697D01*
X-58384104Y31067657D01*
X-58384107Y31067668D01*
X-58451987Y31231547D01*
X-58521987Y31336309D01*
X-58550534Y31379033D01*
X-58675968Y31504467D01*
X-58763979Y31563274D01*
X-58823453Y31603013D01*
X-58823456Y31603015D01*
X-58823457Y31603015D01*
X-58987333Y31670894D01*
X-58987344Y31670897D01*
X-59161304Y31705500D01*
X-59161309Y31705500D01*
X-59338691Y31705500D01*
X-59338697Y31705500D01*
X-59512657Y31670897D01*
X-59512668Y31670894D01*
X-59676544Y31603015D01*
X-59824033Y31504467D01*
X-59949467Y31379033D01*
X-60048015Y31231544D01*
X-60115894Y31067668D01*
X-60115897Y31067657D01*
X-60150500Y30893697D01*
X-74688308Y30893697D01*
X-74636480Y31100605D01*
X-74635084Y31105204D01*
X-74511083Y31451764D01*
X-74509254Y31456177D01*
X-74351885Y31788907D01*
X-74349637Y31793114D01*
X-74160402Y32108834D01*
X-74157732Y32112827D01*
X-73938478Y32408456D01*
X-73935452Y32412144D01*
X-73688269Y32684869D01*
X-73684868Y32688269D01*
X-73412144Y32935452D01*
X-73408456Y32938478D01*
X-73112823Y33157735D01*
X-73108829Y33160404D01*
X-72793114Y33349637D01*
X-72788907Y33351885D01*
X-72456177Y33509254D01*
X-72451764Y33511083D01*
X-72105202Y33635085D01*
X-72100602Y33636480D01*
X-71743564Y33725914D01*
X-71738882Y33726845D01*
X-71374780Y33780854D01*
X-71370023Y33781322D01*
X-71001201Y33799442D01*
X-70998797Y33799500D01*
X-70960118Y33799500D01*
X-4039882Y33799500D01*
X-4001203Y33799500D01*
X-3998800Y33799442D01*
G37*
G04 #@! TD.AperFunction*
G04 #@! TD*
M02*
