G04 #@! TF.GenerationSoftware,KiCad,Pcbnew,8.0.6*
G04 #@! TF.CreationDate,2024-11-07T02:27:46-08:00*
G04 #@! TF.ProjectId,mse-68-vhdci,6d73652d-3638-42d7-9668-6463692e6b69,1*
G04 #@! TF.SameCoordinates,PXb06e040PY8583b00*
G04 #@! TF.FileFunction,Soldermask,Bot*
G04 #@! TF.FilePolarity,Negative*
%FSLAX46Y46*%
G04 Gerber Fmt 4.6, Leading zero omitted, Abs format (unit mm)*
G04 Created by KiCad (PCBNEW 8.0.6) date 2024-11-07 02:27:46*
%MOMM*%
%LPD*%
G01*
G04 APERTURE LIST*
%ADD10C,0.800000*%
%ADD11C,1.200000*%
%ADD12C,6.500000*%
%ADD13C,2.300000*%
%ADD14C,2.700000*%
%ADD15C,1.950000*%
%ADD16C,1.100000*%
%ADD17O,1.500000X2.350000*%
%ADD18O,1.200000X1.800000*%
G04 APERTURE END LIST*
D10*
G04 #@! TO.C,J1*
X-15400000Y4000000D03*
D11*
X-59600000Y4000000D03*
G04 #@! TD*
D12*
G04 #@! TO.C,H4*
X-4000000Y4000000D03*
G04 #@! TD*
D13*
G04 #@! TO.C,J3*
X-72440000Y10870000D03*
D14*
X-69900000Y17340000D03*
D15*
X-72440000Y16010000D03*
X-69900000Y14740000D03*
X-72440000Y13470000D03*
X-69900000Y12200000D03*
G04 #@! TD*
D16*
G04 #@! TO.C,J4*
X-51100000Y25500000D03*
X-50300000Y26650000D03*
X-49500000Y25500000D03*
X-48700000Y26650000D03*
X-47900000Y25500000D03*
X-47100000Y26650000D03*
X-46300000Y25500000D03*
X-45500000Y26650000D03*
X-44700000Y25500000D03*
X-43900000Y26650000D03*
X-43100000Y25499999D03*
X-42300000Y26650000D03*
X-41500001Y25500000D03*
X-40700000Y26650000D03*
X-39900000Y25500000D03*
X-39100000Y26650000D03*
X-38300000Y25500000D03*
X-37500000Y26650000D03*
X-36700000Y25500000D03*
X-35900000Y26650000D03*
X-35100000Y25500000D03*
X-34300000Y26650000D03*
X-33499999Y25500000D03*
X-32700000Y26650000D03*
X-31900000Y25499999D03*
X-31100000Y26650000D03*
X-30300000Y25500000D03*
X-29500000Y26650000D03*
X-28700000Y25500000D03*
X-27900000Y26650000D03*
X-27100000Y25500000D03*
X-26300000Y26650000D03*
X-25500000Y25500000D03*
X-24700000Y26650000D03*
X-51500000Y27850000D03*
X-50700000Y29000001D03*
X-49900000Y27850000D03*
X-49100000Y29000000D03*
X-48300000Y27850000D03*
X-47500000Y29000000D03*
X-46700000Y27850000D03*
X-45900000Y29000000D03*
X-45100000Y27850000D03*
X-44300000Y29000000D03*
X-43500000Y27850000D03*
X-42700000Y29000000D03*
X-41900000Y27850000D03*
X-41100000Y29000001D03*
X-40300000Y27850000D03*
X-39500000Y29000001D03*
X-38700000Y27850000D03*
X-37900000Y29000000D03*
X-37100000Y27850000D03*
X-36300000Y29000000D03*
X-35500000Y27850000D03*
X-34700000Y29000000D03*
X-33900000Y27850000D03*
X-33100000Y29000000D03*
X-32300000Y27850000D03*
X-31500000Y29000000D03*
X-30700000Y27850000D03*
X-29900000Y29000001D03*
X-29100000Y27850000D03*
X-28300000Y29000001D03*
X-27500000Y27850000D03*
X-26700000Y29000000D03*
X-25900000Y27850000D03*
X-25100000Y29000000D03*
D17*
X-16950000Y30380000D03*
D18*
X-21925000Y27750000D03*
X-54275000Y27750000D03*
D17*
X-59250000Y30380000D03*
G04 #@! TD*
D12*
G04 #@! TO.C,H3*
X-71000000Y4000000D03*
G04 #@! TD*
G36*
X-56961Y21530315D02*
G01*
X-11206Y21477511D01*
X0Y21426000D01*
X0Y12474000D01*
X-19685Y12406961D01*
X-72489Y12361206D01*
X-124000Y12350000D01*
X-2376000Y12350000D01*
X-2443039Y12369685D01*
X-2488794Y12422489D01*
X-2500000Y12474000D01*
X-2500000Y21426000D01*
X-2480315Y21493039D01*
X-2427511Y21538794D01*
X-2376000Y21550000D01*
X-124000Y21550000D01*
X-56961Y21530315D01*
G37*
M02*
