G04 #@! TF.GenerationSoftware,KiCad,Pcbnew,8.0.6*
G04 #@! TF.CreationDate,2024-11-07T02:26:39-08:00*
G04 #@! TF.ProjectId,hvd-50-ce-panel,6876642d-3530-42d6-9365-2d70616e656c,1*
G04 #@! TF.SameCoordinates,Original*
G04 #@! TF.FileFunction,Soldermask,Bot*
G04 #@! TF.FilePolarity,Negative*
%FSLAX46Y46*%
G04 Gerber Fmt 4.6, Leading zero omitted, Abs format (unit mm)*
G04 Created by KiCad (PCBNEW 8.0.6) date 2024-11-07 02:26:39*
%MOMM*%
%LPD*%
G01*
G04 APERTURE LIST*
%ADD10C,1.700000*%
%ADD11C,4.750000*%
%ADD12C,0.500000*%
%ADD13C,2.300000*%
%ADD14C,2.700000*%
%ADD15C,1.950000*%
%ADD16C,6.500000*%
%ADD17C,0.800000*%
%ADD18C,1.200000*%
%ADD19C,2.500000*%
G04 APERTURE END LIST*
D10*
G04 #@! TO.C,J5*
X-68320000Y30902000D03*
X-66160000Y30902000D03*
X-64000000Y30902000D03*
X-61840000Y30902000D03*
X-59680000Y30902000D03*
X-57520000Y30902000D03*
X-55360000Y30902000D03*
X-53200000Y30902000D03*
X-51040000Y30902000D03*
X-48880000Y30902000D03*
X-46720000Y30902000D03*
X-44560000Y30902000D03*
X-42400000Y30902000D03*
X-40240000Y30902000D03*
X-38080000Y30902000D03*
X-35920000Y30902000D03*
X-33760000Y30902000D03*
X-31600000Y30902000D03*
X-29440000Y30902000D03*
X-27280000Y30902000D03*
X-25120000Y30902000D03*
X-22960000Y30902000D03*
X-20800000Y30902000D03*
X-18640000Y30902000D03*
X-16480000Y30902000D03*
X-68320000Y35192000D03*
X-66160000Y35192000D03*
X-64000000Y35192000D03*
X-61840000Y35192000D03*
X-59680000Y35192000D03*
X-57520000Y35192000D03*
X-55360000Y35192000D03*
X-53200000Y35192000D03*
X-51040000Y35192000D03*
X-48880000Y35192000D03*
X-46720000Y35192000D03*
X-44560000Y35192000D03*
X-42400000Y35192000D03*
X-40240000Y35192000D03*
X-38080000Y35192000D03*
X-35920000Y35192000D03*
X-33760000Y35192000D03*
X-31600000Y35192000D03*
X-29440000Y35192000D03*
X-27280000Y35192000D03*
X-25120000Y35192000D03*
X-22960000Y35192000D03*
X-20800000Y35192000D03*
X-18640000Y35192000D03*
X-16480000Y35192000D03*
D11*
X-4975000Y33047000D03*
X-79825000Y33047000D03*
G04 #@! TD*
D12*
G04 #@! TO.C,KiKit_MB_8_1*
X-66799000Y51002000D03*
G04 #@! TD*
G04 #@! TO.C,KiKit_MB_11_6*
X-13799001Y41002000D03*
G04 #@! TD*
D13*
G04 #@! TO.C,J3*
X-77340000Y17872000D03*
D14*
X-74800000Y24342000D03*
D15*
X-77340000Y23012000D03*
X-74800000Y21742000D03*
X-77340000Y20472000D03*
X-74800000Y19202000D03*
G04 #@! TD*
D12*
G04 #@! TO.C,KiKit_MB_8_4*
X-69320199Y51002000D03*
G04 #@! TD*
G04 #@! TO.C,KiKit_MB_11_1*
X-18001000Y41002000D03*
G04 #@! TD*
G04 #@! TO.C,KiKit_MB_6_3*
X-69320199Y85002000D03*
G04 #@! TD*
G04 #@! TO.C,KiKit_MB_1_4*
X-16320200Y95002000D03*
G04 #@! TD*
G04 #@! TO.C,KiKit_MB_10_1*
X-71000999Y41002000D03*
G04 #@! TD*
G04 #@! TO.C,KiKit_MB_5_4*
X-16320200Y51002000D03*
G04 #@! TD*
G04 #@! TO.C,KiKit_MB_6_1*
X-71000999Y85002000D03*
G04 #@! TD*
G04 #@! TO.C,KiKit_MB_1_1*
X-13799001Y95002000D03*
G04 #@! TD*
G04 #@! TO.C,KiKit_MB_2_4*
X-68479800Y129002000D03*
G04 #@! TD*
D16*
G04 #@! TO.C,H3*
X-75900000Y11002000D03*
G04 #@! TD*
D13*
G04 #@! TO.C,J3*
X-77340000Y105872000D03*
D14*
X-74800000Y112342000D03*
D15*
X-77340000Y111012000D03*
X-74800000Y109742000D03*
X-77340000Y108472000D03*
X-74800000Y107202000D03*
G04 #@! TD*
D12*
G04 #@! TO.C,KiKit_MB_10_5*
X-67639400Y41002000D03*
G04 #@! TD*
G04 #@! TO.C,KiKit_MB_11_2*
X-17160600Y41002000D03*
G04 #@! TD*
G04 #@! TO.C,KiKit_MB_7_2*
X-17160600Y85002000D03*
G04 #@! TD*
G04 #@! TO.C,KiKit_MB_4_3*
X-68479800Y95002000D03*
G04 #@! TD*
G04 #@! TO.C,KiKit_MB_6_4*
X-68479800Y85002000D03*
G04 #@! TD*
G04 #@! TO.C,KiKit_MB_12_6*
X-71000999Y7002000D03*
G04 #@! TD*
G04 #@! TO.C,KiKit_MB_11_5*
X-14639401Y41002000D03*
G04 #@! TD*
G04 #@! TO.C,KiKit_MB_3_6*
X-13799001Y129002000D03*
G04 #@! TD*
G04 #@! TO.C,KiKit_MB_12_4*
X-69320199Y7002000D03*
G04 #@! TD*
G04 #@! TO.C,KiKit_MB_12_3*
X-68479800Y7002000D03*
G04 #@! TD*
G04 #@! TO.C,KiKit_MB_3_1*
X-18001000Y129002000D03*
G04 #@! TD*
D10*
G04 #@! TO.C,J5*
X-68320000Y118902000D03*
X-66160000Y118902000D03*
X-64000000Y118902000D03*
X-61840000Y118902000D03*
X-59680000Y118902000D03*
X-57520000Y118902000D03*
X-55360000Y118902000D03*
X-53200000Y118902000D03*
X-51040000Y118902000D03*
X-48880000Y118902000D03*
X-46720000Y118902000D03*
X-44560000Y118902000D03*
X-42400000Y118902000D03*
X-40240000Y118902000D03*
X-38080000Y118902000D03*
X-35920000Y118902000D03*
X-33760000Y118902000D03*
X-31600000Y118902000D03*
X-29440000Y118902000D03*
X-27280000Y118902000D03*
X-25120000Y118902000D03*
X-22960000Y118902000D03*
X-20800000Y118902000D03*
X-18640000Y118902000D03*
X-16480000Y118902000D03*
X-68320000Y123192000D03*
X-66160000Y123192000D03*
X-64000000Y123192000D03*
X-61840000Y123192000D03*
X-59680000Y123192000D03*
X-57520000Y123192000D03*
X-55360000Y123192000D03*
X-53200000Y123192000D03*
X-51040000Y123192000D03*
X-48880000Y123192000D03*
X-46720000Y123192000D03*
X-44560000Y123192000D03*
X-42400000Y123192000D03*
X-40240000Y123192000D03*
X-38080000Y123192000D03*
X-35920000Y123192000D03*
X-33760000Y123192000D03*
X-31600000Y123192000D03*
X-29440000Y123192000D03*
X-27280000Y123192000D03*
X-25120000Y123192000D03*
X-22960000Y123192000D03*
X-20800000Y123192000D03*
X-18640000Y123192000D03*
X-16480000Y123192000D03*
D11*
X-4975000Y121047000D03*
X-79825000Y121047000D03*
G04 #@! TD*
D12*
G04 #@! TO.C,KiKit_MB_4_4*
X-69320199Y95002000D03*
G04 #@! TD*
G04 #@! TO.C,KiKit_MB_4_6*
X-71000999Y95002000D03*
G04 #@! TD*
D16*
G04 #@! TO.C,H3*
X-75900000Y55002000D03*
G04 #@! TD*
D12*
G04 #@! TO.C,KiKit_MB_9_6*
X-18001000Y7002000D03*
G04 #@! TD*
G04 #@! TO.C,KiKit_MB_5_1*
X-13799001Y51002000D03*
G04 #@! TD*
G04 #@! TO.C,KiKit_MB_9_2*
X-14639401Y7002000D03*
G04 #@! TD*
G04 #@! TO.C,KiKit_MB_3_5*
X-14639401Y129002000D03*
G04 #@! TD*
G04 #@! TO.C,KiKit_MB_4_1*
X-66799000Y95002000D03*
G04 #@! TD*
G04 #@! TO.C,KiKit_MB_2_2*
X-70160599Y129002000D03*
G04 #@! TD*
G04 #@! TO.C,KiKit_MB_2_6*
X-66799000Y129002000D03*
G04 #@! TD*
G04 #@! TO.C,KiKit_MB_2_5*
X-67639400Y129002000D03*
G04 #@! TD*
G04 #@! TO.C,KiKit_MB_12_5*
X-70160599Y7002000D03*
G04 #@! TD*
D16*
G04 #@! TO.C,H4*
X-8900000Y55002000D03*
G04 #@! TD*
D12*
G04 #@! TO.C,KiKit_MB_6_6*
X-66799000Y85002000D03*
G04 #@! TD*
D13*
G04 #@! TO.C,J3*
X-77340000Y61872000D03*
D14*
X-74800000Y68342000D03*
D15*
X-77340000Y67012000D03*
X-74800000Y65742000D03*
X-77340000Y64472000D03*
X-74800000Y63202000D03*
G04 #@! TD*
D12*
G04 #@! TO.C,KiKit_MB_11_4*
X-15479801Y41002000D03*
G04 #@! TD*
D16*
G04 #@! TO.C,H4*
X-8900000Y11002000D03*
G04 #@! TD*
D12*
G04 #@! TO.C,KiKit_MB_10_6*
X-66799000Y41002000D03*
G04 #@! TD*
D17*
G04 #@! TO.C,J1*
X-20300000Y55002000D03*
D18*
X-64500000Y55002000D03*
G04 #@! TD*
D12*
G04 #@! TO.C,KiKit_MB_3_4*
X-15479801Y129002000D03*
G04 #@! TD*
G04 #@! TO.C,KiKit_MB_9_4*
X-16320200Y7002000D03*
G04 #@! TD*
G04 #@! TO.C,KiKit_MB_8_5*
X-70160599Y51002000D03*
G04 #@! TD*
D17*
G04 #@! TO.C,J1*
X-20300000Y99002000D03*
D18*
X-64500000Y99002000D03*
G04 #@! TD*
D12*
G04 #@! TO.C,KiKit_MB_1_6*
X-18001000Y95002000D03*
G04 #@! TD*
G04 #@! TO.C,KiKit_MB_4_5*
X-70160599Y95002000D03*
G04 #@! TD*
G04 #@! TO.C,KiKit_MB_7_3*
X-16320200Y85002000D03*
G04 #@! TD*
G04 #@! TO.C,KiKit_MB_1_3*
X-15479801Y95002000D03*
G04 #@! TD*
G04 #@! TO.C,KiKit_MB_7_6*
X-13799001Y85002000D03*
G04 #@! TD*
G04 #@! TO.C,KiKit_MB_8_6*
X-71000999Y51002000D03*
G04 #@! TD*
G04 #@! TO.C,KiKit_MB_7_4*
X-15479801Y85002000D03*
G04 #@! TD*
G04 #@! TO.C,KiKit_MB_5_2*
X-14639401Y51002000D03*
G04 #@! TD*
G04 #@! TO.C,KiKit_MB_9_5*
X-17160600Y7002000D03*
G04 #@! TD*
G04 #@! TO.C,KiKit_MB_6_5*
X-67639400Y85002000D03*
G04 #@! TD*
D17*
G04 #@! TO.C,J1*
X-20300000Y11002000D03*
D18*
X-64500000Y11002000D03*
G04 #@! TD*
D12*
G04 #@! TO.C,KiKit_MB_2_3*
X-69320199Y129002000D03*
G04 #@! TD*
G04 #@! TO.C,KiKit_MB_10_3*
X-69320199Y41002000D03*
G04 #@! TD*
G04 #@! TO.C,KiKit_MB_5_5*
X-17160600Y51002000D03*
G04 #@! TD*
G04 #@! TO.C,KiKit_MB_7_5*
X-14639401Y85002000D03*
G04 #@! TD*
G04 #@! TO.C,KiKit_MB_12_1*
X-66799000Y7002000D03*
G04 #@! TD*
G04 #@! TO.C,KiKit_MB_1_5*
X-17160600Y95002000D03*
G04 #@! TD*
G04 #@! TO.C,KiKit_MB_9_1*
X-13799001Y7002000D03*
G04 #@! TD*
D16*
G04 #@! TO.C,H3*
X-75900000Y99002000D03*
G04 #@! TD*
D12*
G04 #@! TO.C,KiKit_MB_3_2*
X-17160600Y129002000D03*
G04 #@! TD*
G04 #@! TO.C,KiKit_MB_10_2*
X-70160599Y41002000D03*
G04 #@! TD*
G04 #@! TO.C,KiKit_MB_8_2*
X-67639400Y51002000D03*
G04 #@! TD*
G04 #@! TO.C,KiKit_MB_8_3*
X-68479800Y51002000D03*
G04 #@! TD*
G04 #@! TO.C,KiKit_MB_7_1*
X-18001000Y85002000D03*
G04 #@! TD*
D10*
G04 #@! TO.C,J5*
X-68320000Y74902000D03*
X-66160000Y74902000D03*
X-64000000Y74902000D03*
X-61840000Y74902000D03*
X-59680000Y74902000D03*
X-57520000Y74902000D03*
X-55360000Y74902000D03*
X-53200000Y74902000D03*
X-51040000Y74902000D03*
X-48880000Y74902000D03*
X-46720000Y74902000D03*
X-44560000Y74902000D03*
X-42400000Y74902000D03*
X-40240000Y74902000D03*
X-38080000Y74902000D03*
X-35920000Y74902000D03*
X-33760000Y74902000D03*
X-31600000Y74902000D03*
X-29440000Y74902000D03*
X-27280000Y74902000D03*
X-25120000Y74902000D03*
X-22960000Y74902000D03*
X-20800000Y74902000D03*
X-18640000Y74902000D03*
X-16480000Y74902000D03*
X-68320000Y79192000D03*
X-66160000Y79192000D03*
X-64000000Y79192000D03*
X-61840000Y79192000D03*
X-59680000Y79192000D03*
X-57520000Y79192000D03*
X-55360000Y79192000D03*
X-53200000Y79192000D03*
X-51040000Y79192000D03*
X-48880000Y79192000D03*
X-46720000Y79192000D03*
X-44560000Y79192000D03*
X-42400000Y79192000D03*
X-40240000Y79192000D03*
X-38080000Y79192000D03*
X-35920000Y79192000D03*
X-33760000Y79192000D03*
X-31600000Y79192000D03*
X-29440000Y79192000D03*
X-27280000Y79192000D03*
X-25120000Y79192000D03*
X-22960000Y79192000D03*
X-20800000Y79192000D03*
X-18640000Y79192000D03*
X-16480000Y79192000D03*
D11*
X-4975000Y77047000D03*
X-79825000Y77047000D03*
G04 #@! TD*
D12*
G04 #@! TO.C,KiKit_MB_10_4*
X-68479800Y41002000D03*
G04 #@! TD*
G04 #@! TO.C,KiKit_MB_11_3*
X-16320200Y41002000D03*
G04 #@! TD*
G04 #@! TO.C,KiKit_MB_6_2*
X-70160599Y85002000D03*
G04 #@! TD*
G04 #@! TO.C,KiKit_MB_12_2*
X-67639400Y7002000D03*
G04 #@! TD*
G04 #@! TO.C,KiKit_MB_5_3*
X-15479801Y51002000D03*
G04 #@! TD*
G04 #@! TO.C,KiKit_MB_2_1*
X-71000999Y129002000D03*
G04 #@! TD*
G04 #@! TO.C,KiKit_MB_4_2*
X-67639400Y95002000D03*
G04 #@! TD*
G04 #@! TO.C,KiKit_MB_3_3*
X-16320200Y129002000D03*
G04 #@! TD*
G04 #@! TO.C,KiKit_MB_5_6*
X-18001000Y51002000D03*
G04 #@! TD*
D16*
G04 #@! TO.C,H4*
X-8900000Y99002000D03*
G04 #@! TD*
D12*
G04 #@! TO.C,KiKit_MB_9_3*
X-15479801Y7002000D03*
G04 #@! TD*
G04 #@! TO.C,KiKit_MB_1_2*
X-14639401Y95002000D03*
G04 #@! TD*
D19*
G04 #@! TO.C,KiKit_FID_B_2*
X-2500000Y133503500D03*
G04 #@! TD*
G04 #@! TO.C,KiKit_FID_B_1*
X-82300000Y133503500D03*
G04 #@! TD*
G04 #@! TO.C,KiKit_FID_B_3*
X-82300000Y2500000D03*
G04 #@! TD*
G36*
X-4956961Y68332315D02*
G01*
X-4911206Y68279511D01*
X-4900000Y68228000D01*
X-4900000Y59276000D01*
X-4919685Y59208961D01*
X-4972489Y59163206D01*
X-5024000Y59152000D01*
X-7276000Y59152000D01*
X-7343039Y59171685D01*
X-7388794Y59224489D01*
X-7400000Y59276000D01*
X-7400000Y68228000D01*
X-7380315Y68295039D01*
X-7327511Y68340794D01*
X-7276000Y68352000D01*
X-5024000Y68352000D01*
X-4956961Y68332315D01*
G37*
G36*
X-4956961Y112332315D02*
G01*
X-4911206Y112279511D01*
X-4900000Y112228000D01*
X-4900000Y103276000D01*
X-4919685Y103208961D01*
X-4972489Y103163206D01*
X-5024000Y103152000D01*
X-7276000Y103152000D01*
X-7343039Y103171685D01*
X-7388794Y103224489D01*
X-7400000Y103276000D01*
X-7400000Y112228000D01*
X-7380315Y112295039D01*
X-7327511Y112340794D01*
X-7276000Y112352000D01*
X-5024000Y112352000D01*
X-4956961Y112332315D01*
G37*
G36*
X-4956961Y24332315D02*
G01*
X-4911206Y24279511D01*
X-4900000Y24228000D01*
X-4900000Y15276000D01*
X-4919685Y15208961D01*
X-4972489Y15163206D01*
X-5024000Y15152000D01*
X-7276000Y15152000D01*
X-7343039Y15171685D01*
X-7388794Y15224489D01*
X-7400000Y15276000D01*
X-7400000Y24228000D01*
X-7380315Y24295039D01*
X-7327511Y24340794D01*
X-7276000Y24352000D01*
X-5024000Y24352000D01*
X-4956961Y24332315D01*
G37*
M02*
