M48
; DRILL file {KiCad 8.0.6} date 2024-11-07T02:26:48-0800
; FORMAT={-:-/ absolute / metric / decimal}
; #@! TF.CreationDate,2024-11-07T02:26:48-08:00
; #@! TF.GenerationSoftware,Kicad,Pcbnew,8.0.6
; #@! TF.FileFunction,MixedPlating,1,6
FMAT,2
METRIC
; #@! TA.AperFunction,Plated,PTH,ViaDrill
T1C0.200
; #@! TA.AperFunction,Plated,PTH,ComponentDrill
T2C0.850
; #@! TA.AperFunction,Plated,PTH,ComponentDrill
T3C1.500
; #@! TA.AperFunction,Plated,PTH,ComponentDrill
T4C2.820
; #@! TA.AperFunction,Plated,PTH,ComponentDrill
T5C3.200
; #@! TA.AperFunction,NonPlated,NPTH,ComponentDrill
T6C0.500
; #@! TA.AperFunction,NonPlated,NPTH,ComponentDrill
T7C0.800
; #@! TA.AperFunction,NonPlated,NPTH,ComponentDrill
T8C1.200
; #@! TA.AperFunction,NonPlated,NPTH,ComponentDrill
T9C2.200
; #@! TA.AperFunction,NonPlated,NPTH,ComponentDrill
T10C2.600
%
G90
G05
T1
X-67.2Y111.502
X-67.2Y109.752
X-67.2Y107.152
X-67.2Y105.502
X-67.2Y67.502
X-67.2Y65.752
X-67.2Y63.152
X-67.2Y61.502
X-67.2Y23.502
X-67.2Y21.752
X-67.2Y19.152
X-67.2Y17.502
X-66.05Y99.852
X-66.05Y98.152
X-66.05Y55.852
X-66.05Y54.152
X-66.05Y11.852
X-66.05Y10.152
X-64.65Y99.002
X-64.65Y55.002
X-64.65Y11.002
X-64.1Y99.502
X-64.1Y98.502
X-64.1Y55.502
X-64.1Y54.502
X-64.1Y11.502
X-64.1Y10.502
X-63.6Y99.002
X-63.6Y55.002
X-63.6Y11.002
X-63.0Y103.502
X-63.0Y59.502
X-63.0Y15.502
X-62.4Y102.902
X-62.4Y58.902
X-62.4Y14.902
X-62.15Y99.852
X-62.15Y55.852
X-62.15Y11.852
X-57.1Y102.002
X-57.1Y101.202
X-57.1Y100.402
X-57.1Y58.002
X-57.1Y57.202
X-57.1Y56.402
X-57.1Y14.002
X-57.1Y13.202
X-57.1Y12.402
X-56.3Y97.602
X-56.3Y96.802
X-56.3Y96.002
X-56.3Y53.602
X-56.3Y52.802
X-56.3Y52.002
X-56.3Y9.602
X-56.3Y8.802
X-56.3Y8.002
X-54.7Y102.002
X-54.7Y101.202
X-54.7Y100.402
X-54.7Y97.602
X-54.7Y96.802
X-54.7Y96.002
X-54.7Y58.002
X-54.7Y57.202
X-54.7Y56.402
X-54.7Y53.602
X-54.7Y52.802
X-54.7Y52.002
X-54.7Y14.002
X-54.7Y13.202
X-54.7Y12.402
X-54.7Y9.602
X-54.7Y8.802
X-54.7Y8.002
X-53.9Y102.002
X-53.9Y101.202
X-53.9Y100.402
X-53.9Y98.202
X-53.9Y97.602
X-53.9Y96.802
X-53.9Y96.002
X-53.9Y58.002
X-53.9Y57.202
X-53.9Y56.402
X-53.9Y54.202
X-53.9Y53.602
X-53.9Y52.802
X-53.9Y52.002
X-53.9Y14.002
X-53.9Y13.202
X-53.9Y12.402
X-53.9Y10.202
X-53.9Y9.602
X-53.9Y8.802
X-53.9Y8.002
X-51.5Y102.002
X-51.5Y101.202
X-51.5Y100.402
X-51.5Y98.202
X-51.5Y97.602
X-51.5Y96.802
X-51.5Y96.002
X-51.5Y58.002
X-51.5Y57.202
X-51.5Y56.402
X-51.5Y54.202
X-51.5Y53.602
X-51.5Y52.802
X-51.5Y52.002
X-51.5Y14.002
X-51.5Y13.202
X-51.5Y12.402
X-51.5Y10.202
X-51.5Y9.602
X-51.5Y8.802
X-51.5Y8.002
X-49.1Y102.002
X-49.1Y101.202
X-49.1Y100.402
X-49.1Y98.202
X-49.1Y97.602
X-49.1Y96.802
X-49.1Y96.002
X-49.1Y58.002
X-49.1Y57.202
X-49.1Y56.402
X-49.1Y54.202
X-49.1Y53.602
X-49.1Y52.802
X-49.1Y52.002
X-49.1Y14.002
X-49.1Y13.202
X-49.1Y12.402
X-49.1Y10.202
X-49.1Y9.602
X-49.1Y8.802
X-49.1Y8.002
X-47.5Y98.202
X-47.5Y54.202
X-47.5Y10.202
X-46.7Y102.002
X-46.7Y101.202
X-46.7Y100.402
X-46.7Y98.202
X-46.7Y97.602
X-46.7Y96.802
X-46.7Y96.002
X-46.7Y58.002
X-46.7Y57.202
X-46.7Y56.402
X-46.7Y54.202
X-46.7Y53.602
X-46.7Y52.802
X-46.7Y52.002
X-46.7Y14.002
X-46.7Y13.202
X-46.7Y12.402
X-46.7Y10.202
X-46.7Y9.602
X-46.7Y8.802
X-46.7Y8.002
X-45.9Y98.202
X-45.9Y54.202
X-45.9Y10.202
X-45.1Y98.202
X-45.1Y54.202
X-45.1Y10.202
X-44.3Y102.002
X-44.3Y101.202
X-44.3Y100.402
X-44.3Y98.202
X-44.3Y97.602
X-44.3Y96.802
X-44.3Y96.002
X-44.3Y58.002
X-44.3Y57.202
X-44.3Y56.402
X-44.3Y54.202
X-44.3Y53.602
X-44.3Y52.802
X-44.3Y52.002
X-44.3Y14.002
X-44.3Y13.202
X-44.3Y12.402
X-44.3Y10.202
X-44.3Y9.602
X-44.3Y8.802
X-44.3Y8.002
X-43.5Y98.202
X-43.5Y54.202
X-43.5Y10.202
X-42.7Y98.202
X-42.7Y54.202
X-42.7Y10.202
X-41.9Y102.002
X-41.9Y101.202
X-41.9Y100.402
X-41.9Y98.202
X-41.9Y97.602
X-41.9Y96.802
X-41.9Y96.002
X-41.9Y58.002
X-41.9Y57.202
X-41.9Y56.402
X-41.9Y54.202
X-41.9Y53.602
X-41.9Y52.802
X-41.9Y52.002
X-41.9Y14.002
X-41.9Y13.202
X-41.9Y12.402
X-41.9Y10.202
X-41.9Y9.602
X-41.9Y8.802
X-41.9Y8.002
X-41.1Y98.202
X-41.1Y54.202
X-41.1Y10.202
X-40.3Y98.202
X-40.3Y54.202
X-40.3Y10.202
X-39.5Y102.002
X-39.5Y101.202
X-39.5Y100.402
X-39.5Y98.202
X-39.5Y97.602
X-39.5Y96.802
X-39.5Y96.002
X-39.5Y58.002
X-39.5Y57.202
X-39.5Y56.402
X-39.5Y54.202
X-39.5Y53.602
X-39.5Y52.802
X-39.5Y52.002
X-39.5Y14.002
X-39.5Y13.202
X-39.5Y12.402
X-39.5Y10.202
X-39.5Y9.602
X-39.5Y8.802
X-39.5Y8.002
X-38.7Y98.202
X-38.7Y54.202
X-38.7Y10.202
X-37.9Y98.202
X-37.9Y54.202
X-37.9Y10.202
X-37.1Y102.002
X-37.1Y101.202
X-37.1Y100.402
X-37.1Y98.202
X-37.1Y97.602
X-37.1Y96.802
X-37.1Y96.002
X-37.1Y58.002
X-37.1Y57.202
X-37.1Y56.402
X-37.1Y54.202
X-37.1Y53.602
X-37.1Y52.802
X-37.1Y52.002
X-37.1Y14.002
X-37.1Y13.202
X-37.1Y12.402
X-37.1Y10.202
X-37.1Y9.602
X-37.1Y8.802
X-37.1Y8.002
X-36.3Y98.202
X-36.3Y54.202
X-36.3Y10.202
X-35.5Y102.002
X-35.5Y101.202
X-35.5Y100.402
X-35.5Y97.602
X-35.5Y96.802
X-35.5Y96.002
X-35.5Y58.002
X-35.5Y57.202
X-35.5Y56.402
X-35.5Y53.602
X-35.5Y52.802
X-35.5Y52.002
X-35.5Y14.002
X-35.5Y13.202
X-35.5Y12.402
X-35.5Y9.602
X-35.5Y8.802
X-35.5Y8.002
X-34.7Y102.002
X-34.7Y101.202
X-34.7Y100.402
X-34.7Y97.602
X-34.7Y96.802
X-34.7Y96.002
X-34.7Y58.002
X-34.7Y57.202
X-34.7Y56.402
X-34.7Y53.602
X-34.7Y52.802
X-34.7Y52.002
X-34.7Y14.002
X-34.7Y13.202
X-34.7Y12.402
X-34.7Y9.602
X-34.7Y8.802
X-34.7Y8.002
X-33.9Y102.002
X-33.9Y101.202
X-33.9Y100.402
X-33.9Y98.202
X-33.9Y97.602
X-33.9Y96.802
X-33.9Y96.002
X-33.9Y58.002
X-33.9Y57.202
X-33.9Y56.402
X-33.9Y54.202
X-33.9Y53.602
X-33.9Y52.802
X-33.9Y52.002
X-33.9Y14.002
X-33.9Y13.202
X-33.9Y12.402
X-33.9Y10.202
X-33.9Y9.602
X-33.9Y8.802
X-33.9Y8.002
X-33.1Y98.202
X-33.1Y54.202
X-33.1Y10.202
X-32.3Y102.002
X-32.3Y101.202
X-32.3Y100.402
X-32.3Y98.202
X-32.3Y97.602
X-32.3Y96.802
X-32.3Y96.002
X-32.3Y58.002
X-32.3Y57.202
X-32.3Y56.402
X-32.3Y54.202
X-32.3Y53.602
X-32.3Y52.802
X-32.3Y52.002
X-32.3Y14.002
X-32.3Y13.202
X-32.3Y12.402
X-32.3Y10.202
X-32.3Y9.602
X-32.3Y8.802
X-32.3Y8.002
X-31.5Y98.202
X-31.5Y54.202
X-31.5Y10.202
X-30.7Y98.202
X-30.7Y54.202
X-30.7Y10.202
X-29.9Y102.002
X-29.9Y101.202
X-29.9Y100.402
X-29.9Y98.202
X-29.9Y97.602
X-29.9Y96.802
X-29.9Y96.002
X-29.9Y58.002
X-29.9Y57.202
X-29.9Y56.402
X-29.9Y54.202
X-29.9Y53.602
X-29.9Y52.802
X-29.9Y52.002
X-29.9Y14.002
X-29.9Y13.202
X-29.9Y12.402
X-29.9Y10.202
X-29.9Y9.602
X-29.9Y8.802
X-29.9Y8.002
X-29.1Y98.202
X-29.1Y54.202
X-29.1Y10.202
X-28.3Y98.202
X-28.3Y54.202
X-28.3Y10.202
X-27.5Y102.002
X-27.5Y101.202
X-27.5Y100.402
X-27.5Y98.202
X-27.5Y97.602
X-27.5Y96.802
X-27.5Y96.002
X-27.5Y58.002
X-27.5Y57.202
X-27.5Y56.402
X-27.5Y54.202
X-27.5Y53.602
X-27.5Y52.802
X-27.5Y52.002
X-27.5Y14.002
X-27.5Y13.202
X-27.5Y12.402
X-27.5Y10.202
X-27.5Y9.602
X-27.5Y8.802
X-27.5Y8.002
X-26.7Y98.202
X-26.7Y54.202
X-26.7Y10.202
X-25.9Y98.202
X-25.9Y54.202
X-25.9Y10.202
X-25.1Y102.002
X-25.1Y101.202
X-25.1Y100.402
X-25.1Y98.202
X-25.1Y97.602
X-25.1Y96.802
X-25.1Y96.002
X-25.1Y58.002
X-25.1Y57.202
X-25.1Y56.402
X-25.1Y54.202
X-25.1Y53.602
X-25.1Y52.802
X-25.1Y52.002
X-25.1Y14.002
X-25.1Y13.202
X-25.1Y12.402
X-25.1Y10.202
X-25.1Y9.602
X-25.1Y8.802
X-25.1Y8.002
X-24.3Y98.202
X-24.3Y54.202
X-24.3Y10.202
X-23.5Y98.202
X-23.5Y54.202
X-23.5Y10.202
X-22.7Y102.002
X-22.7Y101.202
X-22.7Y100.402
X-22.7Y98.202
X-22.7Y97.602
X-22.7Y96.802
X-22.7Y96.002
X-22.7Y58.002
X-22.7Y57.202
X-22.7Y56.402
X-22.7Y54.202
X-22.7Y53.602
X-22.7Y52.802
X-22.7Y52.002
X-22.7Y14.002
X-22.7Y13.202
X-22.7Y12.402
X-22.7Y10.202
X-22.7Y9.602
X-22.7Y8.802
X-22.7Y8.002
X-20.3Y102.002
X-20.3Y101.202
X-20.3Y100.402
X-20.3Y98.202
X-20.3Y97.602
X-20.3Y96.802
X-20.3Y96.002
X-20.3Y58.002
X-20.3Y57.202
X-20.3Y56.402
X-20.3Y54.202
X-20.3Y53.602
X-20.3Y52.802
X-20.3Y52.002
X-20.3Y14.002
X-20.3Y13.202
X-20.3Y12.402
X-20.3Y10.202
X-20.3Y9.602
X-20.3Y8.802
X-20.3Y8.002
X-17.9Y102.002
X-17.9Y101.202
X-17.9Y100.402
X-17.9Y98.202
X-17.9Y97.602
X-17.9Y96.802
X-17.9Y96.002
X-17.9Y58.002
X-17.9Y57.202
X-17.9Y56.402
X-17.9Y54.202
X-17.9Y53.602
X-17.9Y52.802
X-17.9Y52.002
X-17.9Y14.002
X-17.9Y13.202
X-17.9Y12.402
X-17.9Y10.202
X-17.9Y9.602
X-17.9Y8.802
X-17.9Y8.002
T2
X-52.74Y123.418
X-52.74Y79.418
X-52.74Y35.418
X-52.74Y119.608
X-52.74Y75.608
X-52.74Y31.608
X-51.47Y125.323
X-51.47Y121.513
X-51.47Y81.323
X-51.47Y77.513
X-51.47Y37.323
X-51.47Y33.513
X-50.2Y123.418
X-50.2Y79.418
X-50.2Y35.418
X-50.2Y119.608
X-50.2Y75.608
X-50.2Y31.608
X-48.93Y121.513
X-48.93Y77.513
X-48.93Y33.513
X-48.93Y125.323
X-48.93Y81.323
X-48.93Y37.323
X-47.66Y123.418
X-47.66Y79.418
X-47.66Y35.418
X-47.66Y119.608
X-47.66Y75.608
X-47.66Y31.608
X-46.39Y121.513
X-46.39Y77.513
X-46.39Y33.513
X-46.39Y125.323
X-46.39Y81.323
X-46.39Y37.323
X-45.12Y123.418
X-45.12Y79.418
X-45.12Y35.418
X-45.12Y119.608
X-45.12Y75.608
X-45.12Y31.608
X-43.85Y121.513
X-43.85Y77.513
X-43.85Y33.513
X-43.85Y125.323
X-43.85Y81.323
X-43.85Y37.323
X-42.58Y123.418
X-42.58Y79.418
X-42.58Y35.418
X-42.58Y119.608
X-42.58Y75.608
X-42.58Y31.608
X-41.31Y121.513
X-41.31Y77.513
X-41.31Y33.513
X-41.31Y125.323
X-41.31Y81.323
X-41.31Y37.323
X-40.04Y123.418
X-40.04Y79.418
X-40.04Y35.418
X-40.04Y119.608
X-40.04Y75.608
X-40.04Y31.608
X-38.77Y125.323
X-38.77Y121.513
X-38.77Y81.323
X-38.77Y77.513
X-38.77Y37.323
X-38.77Y33.513
X-37.5Y123.418
X-37.5Y119.608
X-37.5Y79.418
X-37.5Y75.608
X-37.5Y35.418
X-37.5Y31.608
X-36.23Y125.323
X-36.23Y121.513
X-36.23Y81.323
X-36.23Y77.513
X-36.23Y37.323
X-36.23Y33.513
X-34.96Y123.418
X-34.96Y79.418
X-34.96Y35.418
X-34.96Y119.608
X-34.96Y75.608
X-34.96Y31.608
X-33.69Y121.513
X-33.69Y77.513
X-33.69Y33.513
X-33.69Y125.323
X-33.69Y81.323
X-33.69Y37.323
X-32.42Y123.418
X-32.42Y79.418
X-32.42Y35.418
X-32.42Y119.608
X-32.42Y75.608
X-32.42Y31.608
X-31.15Y125.323
X-31.15Y121.513
X-31.15Y81.323
X-31.15Y77.513
X-31.15Y37.323
X-31.15Y33.513
X-29.88Y123.418
X-29.88Y79.418
X-29.88Y35.418
X-29.88Y119.608
X-29.88Y75.608
X-29.88Y31.608
X-28.61Y125.323
X-28.61Y121.513
X-28.61Y81.323
X-28.61Y77.513
X-28.61Y37.323
X-28.61Y33.513
X-27.34Y123.418
X-27.34Y79.418
X-27.34Y35.418
X-27.34Y119.608
X-27.34Y75.608
X-27.34Y31.608
X-26.07Y121.513
X-26.07Y77.513
X-26.07Y33.513
X-26.07Y125.323
X-26.07Y81.323
X-26.07Y37.323
X-24.8Y123.418
X-24.8Y79.418
X-24.8Y35.418
X-24.8Y119.608
X-24.8Y75.608
X-24.8Y31.608
X-23.53Y121.513
X-23.53Y77.513
X-23.53Y33.513
X-23.53Y125.323
X-23.53Y81.323
X-23.53Y37.323
X-22.26Y123.418
X-22.26Y79.418
X-22.26Y35.418
X-22.26Y119.608
X-22.26Y75.608
X-22.26Y31.608
T3
X-72.44Y111.012
X-72.44Y108.472
X-72.44Y67.012
X-72.44Y64.472
X-72.44Y23.012
X-72.44Y20.472
X-69.9Y109.742
X-69.9Y107.202
X-69.9Y65.742
X-69.9Y63.202
X-69.9Y21.742
X-69.9Y19.202
T4
X-60.741Y123.418
X-60.741Y79.418
X-60.741Y35.418
X-14.259Y123.418
X-14.259Y79.418
X-14.259Y35.418
T5
X-71.0Y99.002
X-71.0Y55.002
X-71.0Y11.002
X-4.0Y99.002
X-4.0Y55.002
X-4.0Y11.002
T6
X-66.101Y129.002
X-66.101Y95.002
X-66.101Y85.002
X-66.101Y51.002
X-66.101Y41.002
X-66.101Y7.002
X-65.261Y129.002
X-65.261Y95.002
X-65.261Y85.002
X-65.261Y51.002
X-65.261Y41.002
X-65.261Y7.002
X-64.42Y129.002
X-64.42Y95.002
X-64.42Y85.002
X-64.42Y51.002
X-64.42Y41.002
X-64.42Y7.002
X-63.58Y129.002
X-63.58Y95.002
X-63.58Y85.002
X-63.58Y51.002
X-63.58Y41.002
X-63.58Y7.002
X-62.739Y129.002
X-62.739Y95.002
X-62.739Y85.002
X-62.739Y51.002
X-62.739Y41.002
X-62.739Y7.002
X-61.899Y129.002
X-61.899Y95.002
X-61.899Y85.002
X-61.899Y51.002
X-61.899Y41.002
X-61.899Y7.002
X-13.101Y129.002
X-13.101Y95.002
X-13.101Y85.002
X-13.101Y51.002
X-13.101Y41.002
X-13.101Y7.002
X-12.261Y129.002
X-12.261Y95.002
X-12.261Y85.002
X-12.261Y51.002
X-12.261Y41.002
X-12.261Y7.002
X-11.42Y129.002
X-11.42Y95.002
X-11.42Y85.002
X-11.42Y51.002
X-11.42Y41.002
X-11.42Y7.002
X-10.58Y129.002
X-10.58Y95.002
X-10.58Y85.002
X-10.58Y51.002
X-10.58Y41.002
X-10.58Y7.002
X-9.739Y129.002
X-9.739Y95.002
X-9.739Y85.002
X-9.739Y51.002
X-9.739Y41.002
X-9.739Y7.002
X-8.899Y129.002
X-8.899Y95.002
X-8.899Y85.002
X-8.899Y51.002
X-8.899Y41.002
X-8.899Y7.002
T7
X-15.4Y99.002
X-15.4Y55.002
X-15.4Y11.002
T8
X-59.6Y99.002
X-59.6Y55.002
X-59.6Y11.002
T9
X-72.44Y105.872
X-72.44Y61.872
X-72.44Y17.872
T10
X-69.9Y112.342
X-69.9Y68.342
X-69.9Y24.342
M30
