G04 #@! TF.GenerationSoftware,KiCad,Pcbnew,8.0.6*
G04 #@! TF.CreationDate,2024-11-07T02:26:47-08:00*
G04 #@! TF.ProjectId,hvd-50-hd-panel,6876642d-3530-42d6-9864-2d70616e656c,1*
G04 #@! TF.SameCoordinates,Original*
G04 #@! TF.FileFunction,Legend,Bot*
G04 #@! TF.FilePolarity,Positive*
%FSLAX46Y46*%
G04 Gerber Fmt 4.6, Leading zero omitted, Abs format (unit mm)*
G04 Created by KiCad (PCBNEW 8.0.6) date 2024-11-07 02:26:47*
%MOMM*%
%LPD*%
G01*
G04 APERTURE LIST*
%ADD10C,1.350000*%
%ADD11C,0.500000*%
%ADD12C,0.800000*%
%ADD13C,1.200000*%
%ADD14C,1.300000*%
%ADD15C,4.200000*%
%ADD16C,6.500000*%
%ADD17C,2.300000*%
%ADD18C,2.700000*%
%ADD19C,1.950000*%
%ADD20C,2.500000*%
G04 APERTURE END LIST*
D10*
X-30300001Y65002001D02*
X-37500000Y72202000D01*
X-34350001Y101802001D02*
X-27162247Y109002000D01*
X-44700000Y65002001D02*
X-39900000Y65002001D01*
X-42300001Y18602000D02*
X-37500000Y13802001D01*
X-37500000Y57802001D02*
X-30300001Y65002001D01*
X-42300001Y106602000D02*
X-37500000Y101802001D01*
X-34350001Y13802001D02*
X-27162247Y21002000D01*
X-37500000Y116202000D02*
X-42300001Y111402001D01*
X-34350001Y57802001D02*
X-27162247Y65002000D01*
X-27162247Y109002000D02*
X-34350001Y116202000D01*
X-30300001Y21002001D02*
X-37500000Y28202000D01*
X-27162247Y21002000D02*
X-34350001Y28202000D01*
X-37500000Y28202000D02*
X-42300001Y23402001D01*
X-44700000Y109002001D02*
X-39900000Y109002001D01*
X-37500000Y13802001D02*
X-30300001Y21002001D01*
X-37500000Y72202000D02*
X-42300001Y67402001D01*
X-27162247Y65002000D02*
X-34350001Y72202000D01*
X-42300001Y62602000D02*
X-37500000Y57802001D01*
X-37500000Y101802001D02*
X-30300001Y109002001D01*
X-44700000Y21002001D02*
X-39900000Y21002001D01*
X-30300001Y109002001D02*
X-37500000Y116202000D01*
%LPC*%
D11*
G04 #@! TO.C,KiKit_MB_5_2*
X-9739401Y51002000D03*
G04 #@! TD*
G04 #@! TO.C,KiKit_MB_7_1*
X-13101000Y85002000D03*
G04 #@! TD*
G04 #@! TO.C,KiKit_MB_4_4*
X-64420199Y95002000D03*
G04 #@! TD*
D12*
G04 #@! TO.C,J1*
X-15400000Y55002000D03*
D13*
X-59600000Y55002000D03*
G04 #@! TD*
D14*
G04 #@! TO.C,J5*
X-52740001Y31608000D03*
X-51470000Y33513001D03*
X-50200000Y31608000D03*
X-48930001Y33513001D03*
X-47659999Y31608000D03*
X-46390000Y33512998D03*
X-45119999Y31608000D03*
X-43850001Y33513001D03*
X-42579998Y31608000D03*
X-41310001Y33513001D03*
X-40039997Y31608000D03*
X-38770000Y33513001D03*
X-37500000Y31608000D03*
X-36229999Y33512998D03*
X-34959999Y31608000D03*
X-33690000Y33512998D03*
X-32419998Y31608000D03*
X-31149999Y33513001D03*
X-29880001Y31608000D03*
X-28610000Y33513001D03*
X-27340000Y31608000D03*
X-26070000Y33513001D03*
X-24799999Y31608000D03*
X-23530000Y33512998D03*
X-22259999Y31608000D03*
X-52740002Y35418000D03*
X-51470000Y37322999D03*
X-50200002Y35417999D03*
X-48929998Y37322999D03*
X-47660000Y35417999D03*
X-46389999Y37322999D03*
X-45120000Y35417999D03*
X-43849998Y37322999D03*
X-42580001Y35417999D03*
X-41309999Y37322999D03*
X-40040000Y35418000D03*
X-38770000Y37322999D03*
X-37500000Y35417999D03*
X-36229999Y37322999D03*
X-34960002Y35417999D03*
X-33689997Y37322999D03*
X-32420000Y35417999D03*
X-31149999Y37322999D03*
X-29880002Y35418000D03*
X-28610000Y37322998D03*
X-27340002Y35417999D03*
X-26069998Y37322999D03*
X-24800000Y35417999D03*
X-23529999Y37322999D03*
X-22260000Y35417999D03*
D15*
X-14258999Y35417999D03*
X-60741000Y35417999D03*
G04 #@! TD*
D11*
G04 #@! TO.C,KiKit_MB_9_6*
X-13101000Y7002000D03*
G04 #@! TD*
D16*
G04 #@! TO.C,H4*
X-4000000Y55002000D03*
G04 #@! TD*
D11*
G04 #@! TO.C,KiKit_MB_11_4*
X-10579801Y41002000D03*
G04 #@! TD*
D16*
G04 #@! TO.C,H4*
X-4000000Y11002000D03*
G04 #@! TD*
D11*
G04 #@! TO.C,KiKit_MB_9_5*
X-12260600Y7002000D03*
G04 #@! TD*
D17*
G04 #@! TO.C,J3*
X-72440000Y17872000D03*
D18*
X-69900000Y24342000D03*
D19*
X-72440000Y23012000D03*
X-69900000Y21742000D03*
X-72440000Y20472000D03*
X-69900000Y19202000D03*
G04 #@! TD*
D11*
G04 #@! TO.C,KiKit_MB_3_2*
X-12260600Y129002000D03*
G04 #@! TD*
D14*
G04 #@! TO.C,J5*
X-52740001Y119608000D03*
X-51470000Y121513001D03*
X-50200000Y119608000D03*
X-48930001Y121513001D03*
X-47659999Y119608000D03*
X-46390000Y121512998D03*
X-45119999Y119608000D03*
X-43850001Y121513001D03*
X-42579998Y119608000D03*
X-41310001Y121513001D03*
X-40039997Y119608000D03*
X-38770000Y121513001D03*
X-37500000Y119608000D03*
X-36229999Y121512998D03*
X-34959999Y119608000D03*
X-33690000Y121512998D03*
X-32419998Y119608000D03*
X-31149999Y121513001D03*
X-29880001Y119608000D03*
X-28610000Y121513001D03*
X-27340000Y119608000D03*
X-26070000Y121513001D03*
X-24799999Y119608000D03*
X-23530000Y121512998D03*
X-22259999Y119608000D03*
X-52740002Y123418000D03*
X-51470000Y125322999D03*
X-50200002Y123417999D03*
X-48929998Y125322999D03*
X-47660000Y123417999D03*
X-46389999Y125322999D03*
X-45120000Y123417999D03*
X-43849998Y125322999D03*
X-42580001Y123417999D03*
X-41309999Y125322999D03*
X-40040000Y123418000D03*
X-38770000Y125322999D03*
X-37500000Y123417999D03*
X-36229999Y125322999D03*
X-34960002Y123417999D03*
X-33689997Y125322999D03*
X-32420000Y123417999D03*
X-31149999Y125322999D03*
X-29880002Y123418000D03*
X-28610000Y125322998D03*
X-27340002Y123417999D03*
X-26069998Y125322999D03*
X-24800000Y123417999D03*
X-23529999Y125322999D03*
X-22260000Y123417999D03*
D15*
X-14258999Y123417999D03*
X-60741000Y123417999D03*
G04 #@! TD*
D11*
G04 #@! TO.C,KiKit_MB_3_1*
X-13101000Y129002000D03*
G04 #@! TD*
G04 #@! TO.C,KiKit_MB_3_4*
X-10579801Y129002000D03*
G04 #@! TD*
G04 #@! TO.C,KiKit_MB_1_1*
X-8899001Y95002000D03*
G04 #@! TD*
G04 #@! TO.C,KiKit_MB_11_6*
X-8899001Y41002000D03*
G04 #@! TD*
D12*
G04 #@! TO.C,J1*
X-15400000Y99002000D03*
D13*
X-59600000Y99002000D03*
G04 #@! TD*
D11*
G04 #@! TO.C,KiKit_MB_9_3*
X-10579801Y7002000D03*
G04 #@! TD*
G04 #@! TO.C,KiKit_MB_6_2*
X-65260599Y85002000D03*
G04 #@! TD*
G04 #@! TO.C,KiKit_MB_2_4*
X-63579800Y129002000D03*
G04 #@! TD*
G04 #@! TO.C,KiKit_MB_12_3*
X-63579800Y7002000D03*
G04 #@! TD*
G04 #@! TO.C,KiKit_MB_2_2*
X-65260599Y129002000D03*
G04 #@! TD*
G04 #@! TO.C,KiKit_MB_5_1*
X-8899001Y51002000D03*
G04 #@! TD*
G04 #@! TO.C,KiKit_MB_10_5*
X-62739400Y41002000D03*
G04 #@! TD*
G04 #@! TO.C,KiKit_MB_4_5*
X-65260599Y95002000D03*
G04 #@! TD*
G04 #@! TO.C,KiKit_MB_4_3*
X-63579800Y95002000D03*
G04 #@! TD*
G04 #@! TO.C,KiKit_MB_3_5*
X-9739401Y129002000D03*
G04 #@! TD*
G04 #@! TO.C,KiKit_MB_8_2*
X-62739400Y51002000D03*
G04 #@! TD*
G04 #@! TO.C,KiKit_MB_9_4*
X-11420200Y7002000D03*
G04 #@! TD*
G04 #@! TO.C,KiKit_MB_4_1*
X-61899000Y95002000D03*
G04 #@! TD*
G04 #@! TO.C,KiKit_MB_12_5*
X-65260599Y7002000D03*
G04 #@! TD*
G04 #@! TO.C,KiKit_MB_10_1*
X-66100999Y41002000D03*
G04 #@! TD*
G04 #@! TO.C,KiKit_MB_8_4*
X-64420199Y51002000D03*
G04 #@! TD*
G04 #@! TO.C,KiKit_MB_1_5*
X-12260600Y95002000D03*
G04 #@! TD*
G04 #@! TO.C,KiKit_MB_1_3*
X-10579801Y95002000D03*
G04 #@! TD*
G04 #@! TO.C,KiKit_MB_6_5*
X-62739400Y85002000D03*
G04 #@! TD*
G04 #@! TO.C,KiKit_MB_7_5*
X-9739401Y85002000D03*
G04 #@! TD*
G04 #@! TO.C,KiKit_MB_2_1*
X-66100999Y129002000D03*
G04 #@! TD*
G04 #@! TO.C,KiKit_MB_9_2*
X-9739401Y7002000D03*
G04 #@! TD*
G04 #@! TO.C,KiKit_MB_10_2*
X-65260599Y41002000D03*
G04 #@! TD*
G04 #@! TO.C,KiKit_MB_10_4*
X-63579800Y41002000D03*
G04 #@! TD*
G04 #@! TO.C,KiKit_MB_6_4*
X-63579800Y85002000D03*
G04 #@! TD*
D12*
G04 #@! TO.C,J1*
X-15400000Y11002000D03*
D13*
X-59600000Y11002000D03*
G04 #@! TD*
D11*
G04 #@! TO.C,KiKit_MB_11_5*
X-9739401Y41002000D03*
G04 #@! TD*
G04 #@! TO.C,KiKit_MB_8_1*
X-61899000Y51002000D03*
G04 #@! TD*
G04 #@! TO.C,KiKit_MB_7_6*
X-8899001Y85002000D03*
G04 #@! TD*
D17*
G04 #@! TO.C,J3*
X-72440000Y61872000D03*
D18*
X-69900000Y68342000D03*
D19*
X-72440000Y67012000D03*
X-69900000Y65742000D03*
X-72440000Y64472000D03*
X-69900000Y63202000D03*
G04 #@! TD*
D11*
G04 #@! TO.C,KiKit_MB_2_5*
X-62739400Y129002000D03*
G04 #@! TD*
D16*
G04 #@! TO.C,H3*
X-71000000Y99002000D03*
G04 #@! TD*
D11*
G04 #@! TO.C,KiKit_MB_8_3*
X-63579800Y51002000D03*
G04 #@! TD*
G04 #@! TO.C,KiKit_MB_4_6*
X-66100999Y95002000D03*
G04 #@! TD*
G04 #@! TO.C,KiKit_MB_5_3*
X-10579801Y51002000D03*
G04 #@! TD*
G04 #@! TO.C,KiKit_MB_9_1*
X-8899001Y7002000D03*
G04 #@! TD*
G04 #@! TO.C,KiKit_MB_2_3*
X-64420199Y129002000D03*
G04 #@! TD*
G04 #@! TO.C,KiKit_MB_5_5*
X-12260600Y51002000D03*
G04 #@! TD*
G04 #@! TO.C,KiKit_MB_1_4*
X-11420200Y95002000D03*
G04 #@! TD*
D17*
G04 #@! TO.C,J3*
X-72440000Y105872000D03*
D18*
X-69900000Y112342000D03*
D19*
X-72440000Y111012000D03*
X-69900000Y109742000D03*
X-72440000Y108472000D03*
X-69900000Y107202000D03*
G04 #@! TD*
D11*
G04 #@! TO.C,KiKit_MB_10_3*
X-64420199Y41002000D03*
G04 #@! TD*
G04 #@! TO.C,KiKit_MB_5_6*
X-13101000Y51002000D03*
G04 #@! TD*
G04 #@! TO.C,KiKit_MB_2_6*
X-61899000Y129002000D03*
G04 #@! TD*
G04 #@! TO.C,KiKit_MB_11_2*
X-12260600Y41002000D03*
G04 #@! TD*
G04 #@! TO.C,KiKit_MB_6_1*
X-66100999Y85002000D03*
G04 #@! TD*
G04 #@! TO.C,KiKit_MB_3_3*
X-11420200Y129002000D03*
G04 #@! TD*
G04 #@! TO.C,KiKit_MB_6_6*
X-61899000Y85002000D03*
G04 #@! TD*
D16*
G04 #@! TO.C,H4*
X-4000000Y99002000D03*
G04 #@! TD*
D11*
G04 #@! TO.C,KiKit_MB_3_6*
X-8899001Y129002000D03*
G04 #@! TD*
G04 #@! TO.C,KiKit_MB_8_5*
X-65260599Y51002000D03*
G04 #@! TD*
G04 #@! TO.C,KiKit_MB_12_6*
X-66100999Y7002000D03*
G04 #@! TD*
G04 #@! TO.C,KiKit_MB_7_3*
X-11420200Y85002000D03*
G04 #@! TD*
G04 #@! TO.C,KiKit_MB_11_3*
X-11420200Y41002000D03*
G04 #@! TD*
D14*
G04 #@! TO.C,J5*
X-52740001Y75608000D03*
X-51470000Y77513001D03*
X-50200000Y75608000D03*
X-48930001Y77513001D03*
X-47659999Y75608000D03*
X-46390000Y77512998D03*
X-45119999Y75608000D03*
X-43850001Y77513001D03*
X-42579998Y75608000D03*
X-41310001Y77513001D03*
X-40039997Y75608000D03*
X-38770000Y77513001D03*
X-37500000Y75608000D03*
X-36229999Y77512998D03*
X-34959999Y75608000D03*
X-33690000Y77512998D03*
X-32419998Y75608000D03*
X-31149999Y77513001D03*
X-29880001Y75608000D03*
X-28610000Y77513001D03*
X-27340000Y75608000D03*
X-26070000Y77513001D03*
X-24799999Y75608000D03*
X-23530000Y77512998D03*
X-22259999Y75608000D03*
X-52740002Y79418000D03*
X-51470000Y81322999D03*
X-50200002Y79417999D03*
X-48929998Y81322999D03*
X-47660000Y79417999D03*
X-46389999Y81322999D03*
X-45120000Y79417999D03*
X-43849998Y81322999D03*
X-42580001Y79417999D03*
X-41309999Y81322999D03*
X-40040000Y79418000D03*
X-38770000Y81322999D03*
X-37500000Y79417999D03*
X-36229999Y81322999D03*
X-34960002Y79417999D03*
X-33689997Y81322999D03*
X-32420000Y79417999D03*
X-31149999Y81322999D03*
X-29880002Y79418000D03*
X-28610000Y81322998D03*
X-27340002Y79417999D03*
X-26069998Y81322999D03*
X-24800000Y79417999D03*
X-23529999Y81322999D03*
X-22260000Y79417999D03*
D15*
X-14258999Y79417999D03*
X-60741000Y79417999D03*
G04 #@! TD*
D11*
G04 #@! TO.C,KiKit_MB_10_6*
X-61899000Y41002000D03*
G04 #@! TD*
G04 #@! TO.C,KiKit_MB_4_2*
X-62739400Y95002000D03*
G04 #@! TD*
G04 #@! TO.C,KiKit_MB_12_2*
X-62739400Y7002000D03*
G04 #@! TD*
G04 #@! TO.C,KiKit_MB_6_3*
X-64420199Y85002000D03*
G04 #@! TD*
D16*
G04 #@! TO.C,H3*
X-71000000Y55002000D03*
G04 #@! TD*
D11*
G04 #@! TO.C,KiKit_MB_12_1*
X-61899000Y7002000D03*
G04 #@! TD*
G04 #@! TO.C,KiKit_MB_5_4*
X-11420200Y51002000D03*
G04 #@! TD*
G04 #@! TO.C,KiKit_MB_7_4*
X-10579801Y85002000D03*
G04 #@! TD*
G04 #@! TO.C,KiKit_MB_12_4*
X-64420199Y7002000D03*
G04 #@! TD*
G04 #@! TO.C,KiKit_MB_11_1*
X-13101000Y41002000D03*
G04 #@! TD*
G04 #@! TO.C,KiKit_MB_1_2*
X-9739401Y95002000D03*
G04 #@! TD*
G04 #@! TO.C,KiKit_MB_7_2*
X-12260600Y85002000D03*
G04 #@! TD*
D16*
G04 #@! TO.C,H3*
X-71000000Y11002000D03*
G04 #@! TD*
D11*
G04 #@! TO.C,KiKit_MB_1_6*
X-13101000Y95002000D03*
G04 #@! TD*
G04 #@! TO.C,KiKit_MB_8_6*
X-66100999Y51002000D03*
G04 #@! TD*
D20*
G04 #@! TO.C,KiKit_FID_B_1*
X-72500000Y133503500D03*
G04 #@! TD*
G04 #@! TO.C,KiKit_FID_B_3*
X-72500000Y2500000D03*
G04 #@! TD*
G04 #@! TO.C,KiKit_FID_B_2*
X-2500000Y133503500D03*
G04 #@! TD*
G36*
X-56961Y72532315D02*
G01*
X-11206Y72479511D01*
X0Y72428000D01*
X0Y63476000D01*
X-19685Y63408961D01*
X-72489Y63363206D01*
X-124000Y63352000D01*
X-2376000Y63352000D01*
X-2443039Y63371685D01*
X-2488794Y63424489D01*
X-2500000Y63476000D01*
X-2500000Y72428000D01*
X-2480315Y72495039D01*
X-2427511Y72540794D01*
X-2376000Y72552000D01*
X-124000Y72552000D01*
X-56961Y72532315D01*
G37*
G36*
X-56961Y116532315D02*
G01*
X-11206Y116479511D01*
X0Y116428000D01*
X0Y107476000D01*
X-19685Y107408961D01*
X-72489Y107363206D01*
X-124000Y107352000D01*
X-2376000Y107352000D01*
X-2443039Y107371685D01*
X-2488794Y107424489D01*
X-2500000Y107476000D01*
X-2500000Y116428000D01*
X-2480315Y116495039D01*
X-2427511Y116540794D01*
X-2376000Y116552000D01*
X-124000Y116552000D01*
X-56961Y116532315D01*
G37*
G36*
X-56961Y28532315D02*
G01*
X-11206Y28479511D01*
X0Y28428000D01*
X0Y19476000D01*
X-19685Y19408961D01*
X-72489Y19363206D01*
X-124000Y19352000D01*
X-2376000Y19352000D01*
X-2443039Y19371685D01*
X-2488794Y19424489D01*
X-2500000Y19476000D01*
X-2500000Y28428000D01*
X-2480315Y28495039D01*
X-2427511Y28540794D01*
X-2376000Y28552000D01*
X-124000Y28552000D01*
X-56961Y28532315D01*
G37*
%LPD*%
M02*
