G04 #@! TF.GenerationSoftware,KiCad,Pcbnew,8.0.6*
G04 #@! TF.CreationDate,2024-11-07T02:27:27-08:00*
G04 #@! TF.ProjectId,mse-50-hd-panel,6d73652d-3530-42d6-9864-2d70616e656c,1*
G04 #@! TF.SameCoordinates,Original*
G04 #@! TF.FileFunction,Legend,Top*
G04 #@! TF.FilePolarity,Positive*
%FSLAX46Y46*%
G04 Gerber Fmt 4.6, Leading zero omitted, Abs format (unit mm)*
G04 Created by KiCad (PCBNEW 8.0.6) date 2024-11-07 02:27:27*
%MOMM*%
%LPD*%
G01*
G04 APERTURE LIST*
G04 Aperture macros list*
%AMRoundRect*
0 Rectangle with rounded corners*
0 $1 Rounding radius*
0 $2 $3 $4 $5 $6 $7 $8 $9 X,Y pos of 4 corners*
0 Add a 4 corners polygon primitive as box body*
4,1,4,$2,$3,$4,$5,$6,$7,$8,$9,$2,$3,0*
0 Add four circle primitives for the rounded corners*
1,1,$1+$1,$2,$3*
1,1,$1+$1,$4,$5*
1,1,$1+$1,$6,$7*
1,1,$1+$1,$8,$9*
0 Add four rect primitives between the rounded corners*
20,1,$1+$1,$2,$3,$4,$5,0*
20,1,$1+$1,$4,$5,$6,$7,0*
20,1,$1+$1,$6,$7,$8,$9,0*
20,1,$1+$1,$8,$9,$2,$3,0*%
G04 Aperture macros list end*
%ADD10C,0.100000*%
%ADD11C,0.300000*%
%ADD12C,0.150000*%
%ADD13C,0.120000*%
%ADD14C,0.000000*%
%ADD15C,0.500000*%
%ADD16C,1.300000*%
%ADD17C,4.200000*%
%ADD18RoundRect,0.225000X0.225000X-0.275000X0.225000X0.275000X-0.225000X0.275000X-0.225000X-0.275000X0*%
%ADD19C,6.500000*%
%ADD20C,2.500000*%
%ADD21RoundRect,0.062500X0.137500X-0.287500X0.137500X0.287500X-0.137500X0.287500X-0.137500X-0.287500X0*%
%ADD22RoundRect,0.265625X0.584375X-0.584375X0.584375X0.584375X-0.584375X0.584375X-0.584375X-0.584375X0*%
%ADD23RoundRect,0.225000X-0.275000X-0.225000X0.275000X-0.225000X0.275000X0.225000X-0.275000X0.225000X0*%
%ADD24C,2.300000*%
%ADD25C,2.700000*%
%ADD26C,1.950000*%
%ADD27C,0.800000*%
%ADD28C,1.200000*%
%ADD29RoundRect,0.125000X0.125000X0.925000X-0.125000X0.925000X-0.125000X-0.925000X0.125000X-0.925000X0*%
%ADD30RoundRect,0.225000X0.275000X0.225000X-0.275000X0.225000X-0.275000X-0.225000X0.275000X-0.225000X0*%
%ADD31RoundRect,0.225000X-0.225000X0.275000X-0.225000X-0.275000X0.225000X-0.275000X0.225000X0.275000X0*%
G04 APERTURE END LIST*
D10*
X-12357143Y10579581D02*
X-12357143Y11246248D01*
X-12357143Y11055772D02*
X-12309524Y11151010D01*
X-12309524Y11151010D02*
X-12261905Y11198629D01*
X-12261905Y11198629D02*
X-12166667Y11246248D01*
X-12166667Y11246248D02*
X-12071429Y11246248D01*
X-11357143Y10627200D02*
X-11452381Y10579581D01*
X-11452381Y10579581D02*
X-11642857Y10579581D01*
X-11642857Y10579581D02*
X-11738095Y10627200D01*
X-11738095Y10627200D02*
X-11785714Y10722439D01*
X-11785714Y10722439D02*
X-11785714Y11103391D01*
X-11785714Y11103391D02*
X-11738095Y11198629D01*
X-11738095Y11198629D02*
X-11642857Y11246248D01*
X-11642857Y11246248D02*
X-11452381Y11246248D01*
X-11452381Y11246248D02*
X-11357143Y11198629D01*
X-11357143Y11198629D02*
X-11309524Y11103391D01*
X-11309524Y11103391D02*
X-11309524Y11008153D01*
X-11309524Y11008153D02*
X-11785714Y10912915D01*
X-10976190Y11246248D02*
X-10738095Y10579581D01*
X-10738095Y10579581D02*
X-10500000Y11246248D01*
X-9595238Y10579581D02*
X-10166666Y10579581D01*
X-9880952Y10579581D02*
X-9880952Y11579581D01*
X-9880952Y11579581D02*
X-9976190Y11436724D01*
X-9976190Y11436724D02*
X-10071428Y11341486D01*
X-10071428Y11341486D02*
X-10166666Y11293867D01*
X-12357143Y54579581D02*
X-12357143Y55246248D01*
X-12357143Y55055772D02*
X-12309524Y55151010D01*
X-12309524Y55151010D02*
X-12261905Y55198629D01*
X-12261905Y55198629D02*
X-12166667Y55246248D01*
X-12166667Y55246248D02*
X-12071429Y55246248D01*
X-11357143Y54627200D02*
X-11452381Y54579581D01*
X-11452381Y54579581D02*
X-11642857Y54579581D01*
X-11642857Y54579581D02*
X-11738095Y54627200D01*
X-11738095Y54627200D02*
X-11785714Y54722439D01*
X-11785714Y54722439D02*
X-11785714Y55103391D01*
X-11785714Y55103391D02*
X-11738095Y55198629D01*
X-11738095Y55198629D02*
X-11642857Y55246248D01*
X-11642857Y55246248D02*
X-11452381Y55246248D01*
X-11452381Y55246248D02*
X-11357143Y55198629D01*
X-11357143Y55198629D02*
X-11309524Y55103391D01*
X-11309524Y55103391D02*
X-11309524Y55008153D01*
X-11309524Y55008153D02*
X-11785714Y54912915D01*
X-10976190Y55246248D02*
X-10738095Y54579581D01*
X-10738095Y54579581D02*
X-10500000Y55246248D01*
X-9595238Y54579581D02*
X-10166666Y54579581D01*
X-9880952Y54579581D02*
X-9880952Y55579581D01*
X-9880952Y55579581D02*
X-9976190Y55436724D01*
X-9976190Y55436724D02*
X-10071428Y55341486D01*
X-10071428Y55341486D02*
X-10166666Y55293867D01*
D11*
X-44428572Y134325172D02*
X-44428572Y133253743D01*
X-44428572Y133253743D02*
X-44500001Y133039458D01*
X-44500001Y133039458D02*
X-44642858Y132896600D01*
X-44642858Y132896600D02*
X-44857144Y132825172D01*
X-44857144Y132825172D02*
X-45000001Y132825172D01*
X-43000001Y132825172D02*
X-43714287Y132825172D01*
X-43714287Y132825172D02*
X-43714287Y134325172D01*
X-41642858Y132968029D02*
X-41714286Y132896600D01*
X-41714286Y132896600D02*
X-41928572Y132825172D01*
X-41928572Y132825172D02*
X-42071429Y132825172D01*
X-42071429Y132825172D02*
X-42285715Y132896600D01*
X-42285715Y132896600D02*
X-42428572Y133039458D01*
X-42428572Y133039458D02*
X-42500001Y133182315D01*
X-42500001Y133182315D02*
X-42571429Y133468029D01*
X-42571429Y133468029D02*
X-42571429Y133682315D01*
X-42571429Y133682315D02*
X-42500001Y133968029D01*
X-42500001Y133968029D02*
X-42428572Y134110886D01*
X-42428572Y134110886D02*
X-42285715Y134253743D01*
X-42285715Y134253743D02*
X-42071429Y134325172D01*
X-42071429Y134325172D02*
X-41928572Y134325172D01*
X-41928572Y134325172D02*
X-41714286Y134253743D01*
X-41714286Y134253743D02*
X-41642858Y134182315D01*
X-40571429Y134325172D02*
X-40571429Y133253743D01*
X-40571429Y133253743D02*
X-40642858Y133039458D01*
X-40642858Y133039458D02*
X-40785715Y132896600D01*
X-40785715Y132896600D02*
X-41000001Y132825172D01*
X-41000001Y132825172D02*
X-41142858Y132825172D01*
X-39142858Y132825172D02*
X-39857144Y132825172D01*
X-39857144Y132825172D02*
X-39857144Y134325172D01*
X-37785715Y132968029D02*
X-37857143Y132896600D01*
X-37857143Y132896600D02*
X-38071429Y132825172D01*
X-38071429Y132825172D02*
X-38214286Y132825172D01*
X-38214286Y132825172D02*
X-38428572Y132896600D01*
X-38428572Y132896600D02*
X-38571429Y133039458D01*
X-38571429Y133039458D02*
X-38642858Y133182315D01*
X-38642858Y133182315D02*
X-38714286Y133468029D01*
X-38714286Y133468029D02*
X-38714286Y133682315D01*
X-38714286Y133682315D02*
X-38642858Y133968029D01*
X-38642858Y133968029D02*
X-38571429Y134110886D01*
X-38571429Y134110886D02*
X-38428572Y134253743D01*
X-38428572Y134253743D02*
X-38214286Y134325172D01*
X-38214286Y134325172D02*
X-38071429Y134325172D01*
X-38071429Y134325172D02*
X-37857143Y134253743D01*
X-37857143Y134253743D02*
X-37785715Y134182315D01*
X-36714286Y134325172D02*
X-36714286Y133253743D01*
X-36714286Y133253743D02*
X-36785715Y133039458D01*
X-36785715Y133039458D02*
X-36928572Y132896600D01*
X-36928572Y132896600D02*
X-37142858Y132825172D01*
X-37142858Y132825172D02*
X-37285715Y132825172D01*
X-35285715Y132825172D02*
X-36000001Y132825172D01*
X-36000001Y132825172D02*
X-36000001Y134325172D01*
X-33928572Y132968029D02*
X-34000000Y132896600D01*
X-34000000Y132896600D02*
X-34214286Y132825172D01*
X-34214286Y132825172D02*
X-34357143Y132825172D01*
X-34357143Y132825172D02*
X-34571429Y132896600D01*
X-34571429Y132896600D02*
X-34714286Y133039458D01*
X-34714286Y133039458D02*
X-34785715Y133182315D01*
X-34785715Y133182315D02*
X-34857143Y133468029D01*
X-34857143Y133468029D02*
X-34857143Y133682315D01*
X-34857143Y133682315D02*
X-34785715Y133968029D01*
X-34785715Y133968029D02*
X-34714286Y134110886D01*
X-34714286Y134110886D02*
X-34571429Y134253743D01*
X-34571429Y134253743D02*
X-34357143Y134325172D01*
X-34357143Y134325172D02*
X-34214286Y134325172D01*
X-34214286Y134325172D02*
X-34000000Y134253743D01*
X-34000000Y134253743D02*
X-33928572Y134182315D01*
X-32857143Y134325172D02*
X-32857143Y133253743D01*
X-32857143Y133253743D02*
X-32928572Y133039458D01*
X-32928572Y133039458D02*
X-33071429Y132896600D01*
X-33071429Y132896600D02*
X-33285715Y132825172D01*
X-33285715Y132825172D02*
X-33428572Y132825172D01*
X-31428572Y132825172D02*
X-32142858Y132825172D01*
X-32142858Y132825172D02*
X-32142858Y134325172D01*
X-30071429Y132968029D02*
X-30142857Y132896600D01*
X-30142857Y132896600D02*
X-30357143Y132825172D01*
X-30357143Y132825172D02*
X-30500000Y132825172D01*
X-30500000Y132825172D02*
X-30714286Y132896600D01*
X-30714286Y132896600D02*
X-30857143Y133039458D01*
X-30857143Y133039458D02*
X-30928572Y133182315D01*
X-30928572Y133182315D02*
X-31000000Y133468029D01*
X-31000000Y133468029D02*
X-31000000Y133682315D01*
X-31000000Y133682315D02*
X-30928572Y133968029D01*
X-30928572Y133968029D02*
X-30857143Y134110886D01*
X-30857143Y134110886D02*
X-30714286Y134253743D01*
X-30714286Y134253743D02*
X-30500000Y134325172D01*
X-30500000Y134325172D02*
X-30357143Y134325172D01*
X-30357143Y134325172D02*
X-30142857Y134253743D01*
X-30142857Y134253743D02*
X-30071429Y134182315D01*
D10*
X-12357143Y98579581D02*
X-12357143Y99246248D01*
X-12357143Y99055772D02*
X-12309524Y99151010D01*
X-12309524Y99151010D02*
X-12261905Y99198629D01*
X-12261905Y99198629D02*
X-12166667Y99246248D01*
X-12166667Y99246248D02*
X-12071429Y99246248D01*
X-11357143Y98627200D02*
X-11452381Y98579581D01*
X-11452381Y98579581D02*
X-11642857Y98579581D01*
X-11642857Y98579581D02*
X-11738095Y98627200D01*
X-11738095Y98627200D02*
X-11785714Y98722439D01*
X-11785714Y98722439D02*
X-11785714Y99103391D01*
X-11785714Y99103391D02*
X-11738095Y99198629D01*
X-11738095Y99198629D02*
X-11642857Y99246248D01*
X-11642857Y99246248D02*
X-11452381Y99246248D01*
X-11452381Y99246248D02*
X-11357143Y99198629D01*
X-11357143Y99198629D02*
X-11309524Y99103391D01*
X-11309524Y99103391D02*
X-11309524Y99008153D01*
X-11309524Y99008153D02*
X-11785714Y98912915D01*
X-10976190Y99246248D02*
X-10738095Y98579581D01*
X-10738095Y98579581D02*
X-10500000Y99246248D01*
X-9595238Y98579581D02*
X-10166666Y98579581D01*
X-9880952Y98579581D02*
X-9880952Y99579581D01*
X-9880952Y99579581D02*
X-9976190Y99436724D01*
X-9976190Y99436724D02*
X-10071428Y99341486D01*
X-10071428Y99341486D02*
X-10166666Y99293867D01*
D12*
X-37166667Y126856820D02*
X-37166667Y127571105D01*
X-37166667Y127571105D02*
X-37119048Y127713962D01*
X-37119048Y127713962D02*
X-37023810Y127809200D01*
X-37023810Y127809200D02*
X-36880953Y127856820D01*
X-36880953Y127856820D02*
X-36785715Y127856820D01*
X-38119048Y126856820D02*
X-37642858Y126856820D01*
X-37642858Y126856820D02*
X-37595239Y127333010D01*
X-37595239Y127333010D02*
X-37642858Y127285391D01*
X-37642858Y127285391D02*
X-37738096Y127237772D01*
X-37738096Y127237772D02*
X-37976191Y127237772D01*
X-37976191Y127237772D02*
X-38071429Y127285391D01*
X-38071429Y127285391D02*
X-38119048Y127333010D01*
X-38119048Y127333010D02*
X-38166667Y127428248D01*
X-38166667Y127428248D02*
X-38166667Y127666343D01*
X-38166667Y127666343D02*
X-38119048Y127761581D01*
X-38119048Y127761581D02*
X-38071429Y127809200D01*
X-38071429Y127809200D02*
X-37976191Y127856820D01*
X-37976191Y127856820D02*
X-37738096Y127856820D01*
X-37738096Y127856820D02*
X-37642858Y127809200D01*
X-37642858Y127809200D02*
X-37595239Y127761581D01*
X-37166667Y38856820D02*
X-37166667Y39571105D01*
X-37166667Y39571105D02*
X-37119048Y39713962D01*
X-37119048Y39713962D02*
X-37023810Y39809200D01*
X-37023810Y39809200D02*
X-36880953Y39856820D01*
X-36880953Y39856820D02*
X-36785715Y39856820D01*
X-38119048Y38856820D02*
X-37642858Y38856820D01*
X-37642858Y38856820D02*
X-37595239Y39333010D01*
X-37595239Y39333010D02*
X-37642858Y39285391D01*
X-37642858Y39285391D02*
X-37738096Y39237772D01*
X-37738096Y39237772D02*
X-37976191Y39237772D01*
X-37976191Y39237772D02*
X-38071429Y39285391D01*
X-38071429Y39285391D02*
X-38119048Y39333010D01*
X-38119048Y39333010D02*
X-38166667Y39428248D01*
X-38166667Y39428248D02*
X-38166667Y39666343D01*
X-38166667Y39666343D02*
X-38119048Y39761581D01*
X-38119048Y39761581D02*
X-38071429Y39809200D01*
X-38071429Y39809200D02*
X-37976191Y39856820D01*
X-37976191Y39856820D02*
X-37738096Y39856820D01*
X-37738096Y39856820D02*
X-37642858Y39809200D01*
X-37642858Y39809200D02*
X-37595239Y39761581D01*
X-37166667Y82856820D02*
X-37166667Y83571105D01*
X-37166667Y83571105D02*
X-37119048Y83713962D01*
X-37119048Y83713962D02*
X-37023810Y83809200D01*
X-37023810Y83809200D02*
X-36880953Y83856820D01*
X-36880953Y83856820D02*
X-36785715Y83856820D01*
X-38119048Y82856820D02*
X-37642858Y82856820D01*
X-37642858Y82856820D02*
X-37595239Y83333010D01*
X-37595239Y83333010D02*
X-37642858Y83285391D01*
X-37642858Y83285391D02*
X-37738096Y83237772D01*
X-37738096Y83237772D02*
X-37976191Y83237772D01*
X-37976191Y83237772D02*
X-38071429Y83285391D01*
X-38071429Y83285391D02*
X-38119048Y83333010D01*
X-38119048Y83333010D02*
X-38166667Y83428248D01*
X-38166667Y83428248D02*
X-38166667Y83666343D01*
X-38166667Y83666343D02*
X-38119048Y83761581D01*
X-38119048Y83761581D02*
X-38071429Y83809200D01*
X-38071429Y83809200D02*
X-37976191Y83856820D01*
X-37976191Y83856820D02*
X-37738096Y83856820D01*
X-37738096Y83856820D02*
X-37642858Y83809200D01*
X-37642858Y83809200D02*
X-37595239Y83761581D01*
D13*
G04 #@! TO.C,J5*
X-51940003Y119608000D02*
G75*
G02*
X-53539999Y119608000I-799998J0D01*
G01*
X-53539999Y119608000D02*
G75*
G02*
X-51940003Y119608000I799998J0D01*
G01*
D10*
G04 #@! TO.C,C1*
X-66399999Y54702000D02*
X-66399999Y55302000D01*
X-65700001Y55302000D02*
X-65700001Y54702000D01*
D13*
G04 #@! TO.C,J5*
X-51940003Y31608000D02*
G75*
G02*
X-53539999Y31608000I-799998J0D01*
G01*
X-53539999Y31608000D02*
G75*
G02*
X-51940003Y31608000I799998J0D01*
G01*
D10*
G04 #@! TO.C,U1*
X-65200000Y97302000D02*
X-65200000Y99952000D01*
X-63000000Y99952000D02*
X-63000000Y98052000D01*
X-65200000Y9302000D02*
X-65200000Y11952000D01*
X-63000000Y11952000D02*
X-63000000Y10052000D01*
D14*
G04 #@! TO.C,kibuzzard-672C6799*
G36*
X-34248586Y22683038D02*
G01*
X-34165287Y22642145D01*
X-34111672Y22568539D01*
X-34093800Y22456766D01*
X-34111975Y22338935D01*
X-34166498Y22261693D01*
X-34256765Y22218983D01*
X-34382169Y22204746D01*
X-34503332Y22204746D01*
X-34503332Y22689399D01*
X-34429422Y22695457D01*
X-34355513Y22696669D01*
X-34248586Y22683038D01*
G37*
G36*
X-36640953Y22684855D02*
G01*
X-36561894Y22583987D01*
X-36526218Y22480729D01*
X-36504813Y22350277D01*
X-36497678Y22192630D01*
X-36504813Y22033637D01*
X-36526218Y21902377D01*
X-36561894Y21798850D01*
X-36640953Y21697981D01*
X-36747274Y21665108D01*
X-36749697Y21664359D01*
X-36856926Y21697981D01*
X-36936288Y21798850D01*
X-36972637Y21902377D01*
X-36994447Y22033637D01*
X-37001716Y22192630D01*
X-37000599Y22216863D01*
X-36882977Y22216863D01*
X-36846628Y22104181D01*
X-36747274Y22056927D01*
X-36651555Y22104181D01*
X-36613994Y22216863D01*
X-36651555Y22330756D01*
X-36747274Y22379221D01*
X-36846628Y22330756D01*
X-36882977Y22216863D01*
X-37000599Y22216863D01*
X-36994447Y22350277D01*
X-36972637Y22480729D01*
X-36936288Y22583987D01*
X-36856926Y22684855D01*
X-36749697Y22718478D01*
X-36640953Y22684855D01*
G37*
G36*
X-31337556Y23293407D02*
G01*
X-31235974Y23278339D01*
X-31136358Y23253386D01*
X-31039668Y23218790D01*
X-30946834Y23174883D01*
X-30858751Y23122088D01*
X-30776267Y23060914D01*
X-30700176Y22991949D01*
X-30631212Y22915858D01*
X-30570037Y22833374D01*
X-30517242Y22745291D01*
X-30473335Y22652458D01*
X-30438739Y22555767D01*
X-30413786Y22456151D01*
X-30398718Y22354570D01*
X-30393679Y22252000D01*
X-30398718Y22149430D01*
X-30413786Y22047849D01*
X-30438739Y21948233D01*
X-30473335Y21851542D01*
X-30517242Y21758709D01*
X-30570037Y21670626D01*
X-30631212Y21588142D01*
X-30700176Y21512051D01*
X-30776267Y21443086D01*
X-30858751Y21381912D01*
X-30946834Y21329117D01*
X-31039668Y21285210D01*
X-31136358Y21250614D01*
X-31235974Y21225661D01*
X-31337556Y21210593D01*
X-31440125Y21205554D01*
X-31440327Y21205554D01*
X-32911248Y21205554D01*
X-34503332Y21205554D01*
X-36749697Y21205554D01*
X-38077645Y21205554D01*
X-40837742Y21205554D01*
X-41639842Y21205554D01*
X-42257775Y21205554D01*
X-43357936Y21205554D01*
X-43559875Y21205554D01*
X-43662444Y21210593D01*
X-43764026Y21225661D01*
X-43863642Y21250614D01*
X-43960332Y21285210D01*
X-44053166Y21329117D01*
X-44141249Y21381912D01*
X-44218217Y21438995D01*
X-43357936Y21438995D01*
X-43084107Y21438995D01*
X-43096224Y22604585D01*
X-42919326Y21969690D01*
X-42701232Y21969690D01*
X-42517064Y22604585D01*
X-42531603Y21438995D01*
X-42257775Y21438995D01*
X-42260118Y21521386D01*
X-42105109Y21521386D01*
X-41937904Y21447477D01*
X-41807653Y21417489D01*
X-41639842Y21407493D01*
X-41469810Y21420282D01*
X-41402247Y21438995D01*
X-40837742Y21438995D01*
X-39875707Y21438995D01*
X-39875707Y21485037D01*
X-38482330Y21485037D01*
X-38413267Y21458381D01*
X-38312702Y21432937D01*
X-38196385Y21414763D01*
X-38077645Y21407493D01*
X-37938914Y21416580D01*
X-37818356Y21443842D01*
X-37715973Y21487460D01*
X-37631765Y21545619D01*
X-37520295Y21699496D01*
X-37483946Y21892145D01*
X-37500370Y22032695D01*
X-37549643Y22150627D01*
X-37585832Y22192630D01*
X-37270699Y22192630D01*
X-37262369Y22006645D01*
X-37237379Y21846103D01*
X-37195729Y21711006D01*
X-37137419Y21601354D01*
X-37035104Y21493653D01*
X-36905863Y21429033D01*
X-36749697Y21407493D01*
X-36593531Y21429033D01*
X-36464291Y21493653D01*
X-36361975Y21601354D01*
X-36303665Y21711006D01*
X-36262015Y21846103D01*
X-36237025Y22006645D01*
X-36228695Y22192630D01*
X-36237025Y22377480D01*
X-36262015Y22537036D01*
X-36303665Y22671300D01*
X-36361975Y22780271D01*
X-36464291Y22887299D01*
X-36529318Y22919609D01*
X-34801393Y22919609D01*
X-34801393Y21438995D01*
X-34503332Y21438995D01*
X-34503332Y21945457D01*
X-34396708Y21945457D01*
X-34217522Y21958785D01*
X-34067683Y21998769D01*
X-33947193Y22065409D01*
X-33859013Y22161935D01*
X-33806105Y22291580D01*
X-33788469Y22454342D01*
X-33801892Y22577929D01*
X-33633380Y22577929D01*
X-33633380Y22330756D01*
X-33318356Y22330756D01*
X-33318356Y21911532D01*
X-33313510Y21799456D01*
X-33298970Y21700708D01*
X-33232330Y21544407D01*
X-33106321Y21446265D01*
X-33018174Y21420821D01*
X-32911248Y21412339D01*
X-32762217Y21428090D01*
X-32588954Y21487460D01*
X-32627726Y21727363D01*
X-32758582Y21682533D01*
X-32857936Y21671628D01*
X-32982734Y21721305D01*
X-33020295Y21872759D01*
X-33020295Y22541580D01*
X-32356321Y22541580D01*
X-32356321Y21438995D01*
X-32058259Y21438995D01*
X-32058259Y22333179D01*
X-31989196Y22340449D01*
X-31922557Y22342872D01*
X-31774737Y22272598D01*
X-31747476Y22179908D01*
X-31738389Y22042388D01*
X-31738389Y21438995D01*
X-31440327Y21438995D01*
X-31440327Y22081160D01*
X-31445779Y22192327D01*
X-31462137Y22293195D01*
X-31536046Y22457977D01*
X-31677807Y22564601D01*
X-31778978Y22592771D01*
X-31903170Y22602162D01*
X-32036147Y22597315D01*
X-32158825Y22582775D01*
X-32266963Y22562784D01*
X-32356321Y22541580D01*
X-33020295Y22541580D01*
X-33020295Y22577929D01*
X-33221426Y22577929D01*
X-33633380Y22577929D01*
X-33801892Y22577929D01*
X-33805971Y22615489D01*
X-33858475Y22743519D01*
X-33945981Y22838430D01*
X-34065260Y22903723D01*
X-34070339Y22905069D01*
X-33408017Y22905069D01*
X-33353494Y22766943D01*
X-33221426Y22716055D01*
X-33088146Y22766943D01*
X-33032411Y22905069D01*
X-33088146Y23045619D01*
X-33221426Y23096507D01*
X-33353494Y23045619D01*
X-33408017Y22905069D01*
X-34070339Y22905069D01*
X-34213079Y22942899D01*
X-34389439Y22955958D01*
X-34483946Y22953535D01*
X-34592993Y22947477D01*
X-34703251Y22936572D01*
X-34801393Y22919609D01*
X-36529318Y22919609D01*
X-36593531Y22951515D01*
X-36749697Y22972921D01*
X-36903440Y22951381D01*
X-37031873Y22886760D01*
X-37134996Y22779060D01*
X-37194366Y22669710D01*
X-37236773Y22535522D01*
X-37262217Y22376495D01*
X-37270699Y22192630D01*
X-37585832Y22192630D01*
X-37631765Y22245942D01*
X-37747274Y22318101D01*
X-37896708Y22366567D01*
X-38080069Y22391338D01*
X-38067952Y22529464D01*
X-38055836Y22691822D01*
X-37539681Y22691822D01*
X-37539681Y22938995D01*
X-38305432Y22938995D01*
X-38314519Y22753918D01*
X-38327242Y22562178D01*
X-38344204Y22364985D01*
X-38366014Y22163551D01*
X-38199414Y22158401D01*
X-38067952Y22142953D01*
X-37892266Y22084795D01*
X-37809875Y21995134D01*
X-37789277Y21880029D01*
X-37801393Y21800061D01*
X-37846224Y21730998D01*
X-37935884Y21681321D01*
X-38080069Y21661935D01*
X-38193356Y21667388D01*
X-38286046Y21683745D01*
X-38421749Y21732210D01*
X-38482330Y21485037D01*
X-39875707Y21485037D01*
X-39875707Y21686168D01*
X-40539681Y21686168D01*
X-40539681Y22107816D01*
X-40008986Y22107816D01*
X-40008986Y22354989D01*
X-40539681Y22354989D01*
X-40539681Y22691822D01*
X-39929019Y22691822D01*
X-39929019Y22938995D01*
X-40837742Y22938995D01*
X-40837742Y21438995D01*
X-41402247Y21438995D01*
X-41331280Y21458651D01*
X-41224253Y21522598D01*
X-41121567Y21661632D01*
X-41087338Y21848527D01*
X-41097637Y21961511D01*
X-41128534Y22053292D01*
X-41233946Y22188995D01*
X-41374495Y22276233D01*
X-41521103Y22335603D01*
X-41614398Y22371952D01*
X-41699212Y22416782D01*
X-41761006Y22474940D01*
X-41785238Y22551273D01*
X-41758852Y22646857D01*
X-41679692Y22704208D01*
X-41547758Y22723325D01*
X-41376918Y22699092D01*
X-41242427Y22640934D01*
X-41155190Y22871144D01*
X-41328453Y22941418D01*
X-41440226Y22965045D01*
X-41569568Y22972921D01*
X-41718060Y22959728D01*
X-41843666Y22920148D01*
X-41946385Y22854181D01*
X-42049071Y22712420D01*
X-42083300Y22524617D01*
X-42044527Y22346507D01*
X-41946385Y22226556D01*
X-41814317Y22146588D01*
X-41673768Y22090853D01*
X-41571991Y22048446D01*
X-41479907Y21997557D01*
X-41412056Y21933341D01*
X-41385400Y21850950D01*
X-41396305Y21779464D01*
X-41436288Y21716459D01*
X-41515044Y21672840D01*
X-41639842Y21657089D01*
X-41760703Y21665570D01*
X-41861571Y21691015D01*
X-42017872Y21763712D01*
X-42105109Y21521386D01*
X-42260118Y21521386D01*
X-42263227Y21630736D01*
X-42269891Y21818236D01*
X-42278069Y22003010D01*
X-42288065Y22186572D01*
X-42300182Y22370437D01*
X-42314721Y22556120D01*
X-42330775Y22745134D01*
X-42347435Y22938995D01*
X-42594608Y22938995D01*
X-42638227Y22810562D01*
X-42691539Y22644569D01*
X-42752120Y22460401D01*
X-42812702Y22275021D01*
X-42868437Y22449496D01*
X-42926595Y22636087D01*
X-42981119Y22808139D01*
X-43023526Y22938995D01*
X-43270699Y22938995D01*
X-43286753Y22774819D01*
X-43300989Y22597315D01*
X-43313409Y22410118D01*
X-43324011Y22216863D01*
X-43333401Y22019973D01*
X-43342185Y21821871D01*
X-43350363Y21626798D01*
X-43357936Y21438995D01*
X-44218217Y21438995D01*
X-44223733Y21443086D01*
X-44299824Y21512051D01*
X-44368788Y21588142D01*
X-44429963Y21670626D01*
X-44482758Y21758709D01*
X-44526665Y21851542D01*
X-44561261Y21948233D01*
X-44586214Y22047849D01*
X-44601282Y22149430D01*
X-44606321Y22252000D01*
X-44601282Y22354570D01*
X-44586214Y22456151D01*
X-44561261Y22555767D01*
X-44526665Y22652458D01*
X-44482758Y22745291D01*
X-44429963Y22833374D01*
X-44368788Y22915858D01*
X-44299824Y22991949D01*
X-44223733Y23060914D01*
X-44141249Y23122088D01*
X-44053166Y23174883D01*
X-43960332Y23218790D01*
X-43863642Y23253386D01*
X-43764026Y23278339D01*
X-43662444Y23293407D01*
X-43559875Y23298446D01*
X-43357936Y23298446D01*
X-31440327Y23298446D01*
X-31440125Y23298446D01*
X-31337556Y23293407D01*
G37*
D10*
G04 #@! TO.C,R4*
X-8200000Y122402001D02*
X-7600000Y122402001D01*
X-7600000Y123101999D02*
X-8200000Y123101999D01*
G04 #@! TO.C,C1*
X-66399999Y10702000D02*
X-66399999Y11302000D01*
X-65700001Y11302000D02*
X-65700001Y10702000D01*
G04 #@! TO.C,R4*
X-8200000Y34402001D02*
X-7600000Y34402001D01*
X-7600000Y35101999D02*
X-8200000Y35101999D01*
D13*
G04 #@! TO.C,J5*
X-51940003Y75608000D02*
G75*
G02*
X-53539999Y75608000I-799998J0D01*
G01*
X-53539999Y75608000D02*
G75*
G02*
X-51940003Y75608000I799998J0D01*
G01*
D10*
G04 #@! TO.C,R3*
X-67549999Y18602000D02*
X-67549999Y18002000D01*
X-66850001Y18002000D02*
X-66850001Y18602000D01*
G04 #@! TO.C,C1*
X-66399999Y98702000D02*
X-66399999Y99302000D01*
X-65700001Y99302000D02*
X-65700001Y98702000D01*
G04 #@! TO.C,J3*
X-68370000Y58772001D02*
X-73969999Y58772000D01*
X-73969999Y71442000D01*
X-68369999Y71442000D01*
X-68370000Y58772001D01*
D13*
G04 #@! TO.C,J1*
X-60600001Y14102000D02*
X-60600000Y9002000D01*
X-60600001Y14102000D02*
X-57500001Y14102000D01*
X-59500000Y7902000D02*
X-57500001Y7902000D01*
X-17499999Y14102000D02*
X-14399999Y14102000D01*
X-17499999Y7902000D02*
X-14399999Y7902000D01*
X-14399999Y14102000D02*
X-14399999Y7902000D01*
D10*
G04 #@! TO.C,C2*
X-8200000Y80401999D02*
X-7600000Y80401999D01*
X-7600000Y79702001D02*
X-8200000Y79702001D01*
G04 #@! TO.C,R3*
X-67549999Y106602000D02*
X-67549999Y106002000D01*
X-66850001Y106002000D02*
X-66850001Y106602000D01*
G04 #@! TO.C,R1*
X-62499999Y11302000D02*
X-62499999Y10702000D01*
X-61800001Y10702000D02*
X-61800001Y11302000D01*
D13*
G04 #@! TO.C,J1*
X-60600001Y58102000D02*
X-60600000Y53002000D01*
X-60600001Y58102000D02*
X-57500001Y58102000D01*
X-59500000Y51902000D02*
X-57500001Y51902000D01*
X-17499999Y58102000D02*
X-14399999Y58102000D01*
X-17499999Y51902000D02*
X-14399999Y51902000D01*
X-14399999Y58102000D02*
X-14399999Y51902000D01*
D10*
G04 #@! TO.C,R2*
X-67549999Y110902000D02*
X-67549999Y110302000D01*
X-66850001Y110302000D02*
X-66850001Y110902000D01*
G04 #@! TO.C,J3*
X-68370000Y102772001D02*
X-73969999Y102772000D01*
X-73969999Y115442000D01*
X-68369999Y115442000D01*
X-68370000Y102772001D01*
G04 #@! TO.C,C2*
X-8200000Y36401999D02*
X-7600000Y36401999D01*
X-7600000Y35702001D02*
X-8200000Y35702001D01*
G04 #@! TO.C,R2*
X-67549999Y66902000D02*
X-67549999Y66302000D01*
X-66850001Y66302000D02*
X-66850001Y66902000D01*
G04 #@! TO.C,R1*
X-62499999Y55302000D02*
X-62499999Y54702000D01*
X-61800001Y54702000D02*
X-61800001Y55302000D01*
X-62499999Y99302000D02*
X-62499999Y98702000D01*
X-61800001Y98702000D02*
X-61800001Y99302000D01*
D14*
G04 #@! TO.C,kibuzzard-672C6799*
G36*
X-34248586Y66683038D02*
G01*
X-34165287Y66642145D01*
X-34111672Y66568539D01*
X-34093800Y66456766D01*
X-34111975Y66338935D01*
X-34166498Y66261693D01*
X-34256765Y66218983D01*
X-34382169Y66204746D01*
X-34503332Y66204746D01*
X-34503332Y66689399D01*
X-34429422Y66695457D01*
X-34355513Y66696669D01*
X-34248586Y66683038D01*
G37*
G36*
X-36640953Y66684855D02*
G01*
X-36561894Y66583987D01*
X-36526218Y66480729D01*
X-36504813Y66350277D01*
X-36497678Y66192630D01*
X-36504813Y66033637D01*
X-36526218Y65902377D01*
X-36561894Y65798850D01*
X-36640953Y65697981D01*
X-36747274Y65665108D01*
X-36749697Y65664359D01*
X-36856926Y65697981D01*
X-36936288Y65798850D01*
X-36972637Y65902377D01*
X-36994447Y66033637D01*
X-37001716Y66192630D01*
X-37000599Y66216863D01*
X-36882977Y66216863D01*
X-36846628Y66104181D01*
X-36747274Y66056927D01*
X-36651555Y66104181D01*
X-36613994Y66216863D01*
X-36651555Y66330756D01*
X-36747274Y66379221D01*
X-36846628Y66330756D01*
X-36882977Y66216863D01*
X-37000599Y66216863D01*
X-36994447Y66350277D01*
X-36972637Y66480729D01*
X-36936288Y66583987D01*
X-36856926Y66684855D01*
X-36749697Y66718478D01*
X-36640953Y66684855D01*
G37*
G36*
X-31337556Y67293407D02*
G01*
X-31235974Y67278339D01*
X-31136358Y67253386D01*
X-31039668Y67218790D01*
X-30946834Y67174883D01*
X-30858751Y67122088D01*
X-30776267Y67060914D01*
X-30700176Y66991949D01*
X-30631212Y66915858D01*
X-30570037Y66833374D01*
X-30517242Y66745291D01*
X-30473335Y66652458D01*
X-30438739Y66555767D01*
X-30413786Y66456151D01*
X-30398718Y66354570D01*
X-30393679Y66252000D01*
X-30398718Y66149430D01*
X-30413786Y66047849D01*
X-30438739Y65948233D01*
X-30473335Y65851542D01*
X-30517242Y65758709D01*
X-30570037Y65670626D01*
X-30631212Y65588142D01*
X-30700176Y65512051D01*
X-30776267Y65443086D01*
X-30858751Y65381912D01*
X-30946834Y65329117D01*
X-31039668Y65285210D01*
X-31136358Y65250614D01*
X-31235974Y65225661D01*
X-31337556Y65210593D01*
X-31440125Y65205554D01*
X-31440327Y65205554D01*
X-32911248Y65205554D01*
X-34503332Y65205554D01*
X-36749697Y65205554D01*
X-38077645Y65205554D01*
X-40837742Y65205554D01*
X-41639842Y65205554D01*
X-42257775Y65205554D01*
X-43357936Y65205554D01*
X-43559875Y65205554D01*
X-43662444Y65210593D01*
X-43764026Y65225661D01*
X-43863642Y65250614D01*
X-43960332Y65285210D01*
X-44053166Y65329117D01*
X-44141249Y65381912D01*
X-44218217Y65438995D01*
X-43357936Y65438995D01*
X-43084107Y65438995D01*
X-43096224Y66604585D01*
X-42919326Y65969690D01*
X-42701232Y65969690D01*
X-42517064Y66604585D01*
X-42531603Y65438995D01*
X-42257775Y65438995D01*
X-42260118Y65521386D01*
X-42105109Y65521386D01*
X-41937904Y65447477D01*
X-41807653Y65417489D01*
X-41639842Y65407493D01*
X-41469810Y65420282D01*
X-41402247Y65438995D01*
X-40837742Y65438995D01*
X-39875707Y65438995D01*
X-39875707Y65485037D01*
X-38482330Y65485037D01*
X-38413267Y65458381D01*
X-38312702Y65432937D01*
X-38196385Y65414763D01*
X-38077645Y65407493D01*
X-37938914Y65416580D01*
X-37818356Y65443842D01*
X-37715973Y65487460D01*
X-37631765Y65545619D01*
X-37520295Y65699496D01*
X-37483946Y65892145D01*
X-37500370Y66032695D01*
X-37549643Y66150627D01*
X-37585832Y66192630D01*
X-37270699Y66192630D01*
X-37262369Y66006645D01*
X-37237379Y65846103D01*
X-37195729Y65711006D01*
X-37137419Y65601354D01*
X-37035104Y65493653D01*
X-36905863Y65429033D01*
X-36749697Y65407493D01*
X-36593531Y65429033D01*
X-36464291Y65493653D01*
X-36361975Y65601354D01*
X-36303665Y65711006D01*
X-36262015Y65846103D01*
X-36237025Y66006645D01*
X-36228695Y66192630D01*
X-36237025Y66377480D01*
X-36262015Y66537036D01*
X-36303665Y66671300D01*
X-36361975Y66780271D01*
X-36464291Y66887299D01*
X-36529318Y66919609D01*
X-34801393Y66919609D01*
X-34801393Y65438995D01*
X-34503332Y65438995D01*
X-34503332Y65945457D01*
X-34396708Y65945457D01*
X-34217522Y65958785D01*
X-34067683Y65998769D01*
X-33947193Y66065409D01*
X-33859013Y66161935D01*
X-33806105Y66291580D01*
X-33788469Y66454342D01*
X-33801892Y66577929D01*
X-33633380Y66577929D01*
X-33633380Y66330756D01*
X-33318356Y66330756D01*
X-33318356Y65911532D01*
X-33313510Y65799456D01*
X-33298970Y65700708D01*
X-33232330Y65544407D01*
X-33106321Y65446265D01*
X-33018174Y65420821D01*
X-32911248Y65412339D01*
X-32762217Y65428090D01*
X-32588954Y65487460D01*
X-32627726Y65727363D01*
X-32758582Y65682533D01*
X-32857936Y65671628D01*
X-32982734Y65721305D01*
X-33020295Y65872759D01*
X-33020295Y66541580D01*
X-32356321Y66541580D01*
X-32356321Y65438995D01*
X-32058259Y65438995D01*
X-32058259Y66333179D01*
X-31989196Y66340449D01*
X-31922557Y66342872D01*
X-31774737Y66272598D01*
X-31747476Y66179908D01*
X-31738389Y66042388D01*
X-31738389Y65438995D01*
X-31440327Y65438995D01*
X-31440327Y66081160D01*
X-31445779Y66192327D01*
X-31462137Y66293195D01*
X-31536046Y66457977D01*
X-31677807Y66564601D01*
X-31778978Y66592771D01*
X-31903170Y66602162D01*
X-32036147Y66597315D01*
X-32158825Y66582775D01*
X-32266963Y66562784D01*
X-32356321Y66541580D01*
X-33020295Y66541580D01*
X-33020295Y66577929D01*
X-33221426Y66577929D01*
X-33633380Y66577929D01*
X-33801892Y66577929D01*
X-33805971Y66615489D01*
X-33858475Y66743519D01*
X-33945981Y66838430D01*
X-34065260Y66903723D01*
X-34070339Y66905069D01*
X-33408017Y66905069D01*
X-33353494Y66766943D01*
X-33221426Y66716055D01*
X-33088146Y66766943D01*
X-33032411Y66905069D01*
X-33088146Y67045619D01*
X-33221426Y67096507D01*
X-33353494Y67045619D01*
X-33408017Y66905069D01*
X-34070339Y66905069D01*
X-34213079Y66942899D01*
X-34389439Y66955958D01*
X-34483946Y66953535D01*
X-34592993Y66947477D01*
X-34703251Y66936572D01*
X-34801393Y66919609D01*
X-36529318Y66919609D01*
X-36593531Y66951515D01*
X-36749697Y66972921D01*
X-36903440Y66951381D01*
X-37031873Y66886760D01*
X-37134996Y66779060D01*
X-37194366Y66669710D01*
X-37236773Y66535522D01*
X-37262217Y66376495D01*
X-37270699Y66192630D01*
X-37585832Y66192630D01*
X-37631765Y66245942D01*
X-37747274Y66318101D01*
X-37896708Y66366567D01*
X-38080069Y66391338D01*
X-38067952Y66529464D01*
X-38055836Y66691822D01*
X-37539681Y66691822D01*
X-37539681Y66938995D01*
X-38305432Y66938995D01*
X-38314519Y66753918D01*
X-38327242Y66562178D01*
X-38344204Y66364985D01*
X-38366014Y66163551D01*
X-38199414Y66158401D01*
X-38067952Y66142953D01*
X-37892266Y66084795D01*
X-37809875Y65995134D01*
X-37789277Y65880029D01*
X-37801393Y65800061D01*
X-37846224Y65730998D01*
X-37935884Y65681321D01*
X-38080069Y65661935D01*
X-38193356Y65667388D01*
X-38286046Y65683745D01*
X-38421749Y65732210D01*
X-38482330Y65485037D01*
X-39875707Y65485037D01*
X-39875707Y65686168D01*
X-40539681Y65686168D01*
X-40539681Y66107816D01*
X-40008986Y66107816D01*
X-40008986Y66354989D01*
X-40539681Y66354989D01*
X-40539681Y66691822D01*
X-39929019Y66691822D01*
X-39929019Y66938995D01*
X-40837742Y66938995D01*
X-40837742Y65438995D01*
X-41402247Y65438995D01*
X-41331280Y65458651D01*
X-41224253Y65522598D01*
X-41121567Y65661632D01*
X-41087338Y65848527D01*
X-41097637Y65961511D01*
X-41128534Y66053292D01*
X-41233946Y66188995D01*
X-41374495Y66276233D01*
X-41521103Y66335603D01*
X-41614398Y66371952D01*
X-41699212Y66416782D01*
X-41761006Y66474940D01*
X-41785238Y66551273D01*
X-41758852Y66646857D01*
X-41679692Y66704208D01*
X-41547758Y66723325D01*
X-41376918Y66699092D01*
X-41242427Y66640934D01*
X-41155190Y66871144D01*
X-41328453Y66941418D01*
X-41440226Y66965045D01*
X-41569568Y66972921D01*
X-41718060Y66959728D01*
X-41843666Y66920148D01*
X-41946385Y66854181D01*
X-42049071Y66712420D01*
X-42083300Y66524617D01*
X-42044527Y66346507D01*
X-41946385Y66226556D01*
X-41814317Y66146588D01*
X-41673768Y66090853D01*
X-41571991Y66048446D01*
X-41479907Y65997557D01*
X-41412056Y65933341D01*
X-41385400Y65850950D01*
X-41396305Y65779464D01*
X-41436288Y65716459D01*
X-41515044Y65672840D01*
X-41639842Y65657089D01*
X-41760703Y65665570D01*
X-41861571Y65691015D01*
X-42017872Y65763712D01*
X-42105109Y65521386D01*
X-42260118Y65521386D01*
X-42263227Y65630736D01*
X-42269891Y65818236D01*
X-42278069Y66003010D01*
X-42288065Y66186572D01*
X-42300182Y66370437D01*
X-42314721Y66556120D01*
X-42330775Y66745134D01*
X-42347435Y66938995D01*
X-42594608Y66938995D01*
X-42638227Y66810562D01*
X-42691539Y66644569D01*
X-42752120Y66460401D01*
X-42812702Y66275021D01*
X-42868437Y66449496D01*
X-42926595Y66636087D01*
X-42981119Y66808139D01*
X-43023526Y66938995D01*
X-43270699Y66938995D01*
X-43286753Y66774819D01*
X-43300989Y66597315D01*
X-43313409Y66410118D01*
X-43324011Y66216863D01*
X-43333401Y66019973D01*
X-43342185Y65821871D01*
X-43350363Y65626798D01*
X-43357936Y65438995D01*
X-44218217Y65438995D01*
X-44223733Y65443086D01*
X-44299824Y65512051D01*
X-44368788Y65588142D01*
X-44429963Y65670626D01*
X-44482758Y65758709D01*
X-44526665Y65851542D01*
X-44561261Y65948233D01*
X-44586214Y66047849D01*
X-44601282Y66149430D01*
X-44606321Y66252000D01*
X-44601282Y66354570D01*
X-44586214Y66456151D01*
X-44561261Y66555767D01*
X-44526665Y66652458D01*
X-44482758Y66745291D01*
X-44429963Y66833374D01*
X-44368788Y66915858D01*
X-44299824Y66991949D01*
X-44223733Y67060914D01*
X-44141249Y67122088D01*
X-44053166Y67174883D01*
X-43960332Y67218790D01*
X-43863642Y67253386D01*
X-43764026Y67278339D01*
X-43662444Y67293407D01*
X-43559875Y67298446D01*
X-43357936Y67298446D01*
X-31440327Y67298446D01*
X-31440125Y67298446D01*
X-31337556Y67293407D01*
G37*
D13*
G04 #@! TO.C,J1*
X-60600001Y102102000D02*
X-60600000Y97002000D01*
X-60600001Y102102000D02*
X-57500001Y102102000D01*
X-59500000Y95902000D02*
X-57500001Y95902000D01*
X-17499999Y102102000D02*
X-14399999Y102102000D01*
X-17499999Y95902000D02*
X-14399999Y95902000D01*
X-14399999Y102102000D02*
X-14399999Y95902000D01*
D10*
G04 #@! TO.C,U1*
X-65200000Y53302000D02*
X-65200000Y55952000D01*
X-63000000Y55952000D02*
X-63000000Y54052000D01*
G04 #@! TO.C,C2*
X-8200000Y124401999D02*
X-7600000Y124401999D01*
X-7600000Y123702001D02*
X-8200000Y123702001D01*
G04 #@! TO.C,R4*
X-8200000Y78402001D02*
X-7600000Y78402001D01*
X-7600000Y79101999D02*
X-8200000Y79101999D01*
D14*
G04 #@! TO.C,kibuzzard-672C6799*
G36*
X-34248586Y110683038D02*
G01*
X-34165287Y110642145D01*
X-34111672Y110568539D01*
X-34093800Y110456766D01*
X-34111975Y110338935D01*
X-34166498Y110261693D01*
X-34256765Y110218983D01*
X-34382169Y110204746D01*
X-34503332Y110204746D01*
X-34503332Y110689399D01*
X-34429422Y110695457D01*
X-34355513Y110696669D01*
X-34248586Y110683038D01*
G37*
G36*
X-36640953Y110684855D02*
G01*
X-36561894Y110583987D01*
X-36526218Y110480729D01*
X-36504813Y110350277D01*
X-36497678Y110192630D01*
X-36504813Y110033637D01*
X-36526218Y109902377D01*
X-36561894Y109798850D01*
X-36640953Y109697981D01*
X-36747274Y109665108D01*
X-36749697Y109664359D01*
X-36856926Y109697981D01*
X-36936288Y109798850D01*
X-36972637Y109902377D01*
X-36994447Y110033637D01*
X-37001716Y110192630D01*
X-37000599Y110216863D01*
X-36882977Y110216863D01*
X-36846628Y110104181D01*
X-36747274Y110056927D01*
X-36651555Y110104181D01*
X-36613994Y110216863D01*
X-36651555Y110330756D01*
X-36747274Y110379221D01*
X-36846628Y110330756D01*
X-36882977Y110216863D01*
X-37000599Y110216863D01*
X-36994447Y110350277D01*
X-36972637Y110480729D01*
X-36936288Y110583987D01*
X-36856926Y110684855D01*
X-36749697Y110718478D01*
X-36640953Y110684855D01*
G37*
G36*
X-31337556Y111293407D02*
G01*
X-31235974Y111278339D01*
X-31136358Y111253386D01*
X-31039668Y111218790D01*
X-30946834Y111174883D01*
X-30858751Y111122088D01*
X-30776267Y111060914D01*
X-30700176Y110991949D01*
X-30631212Y110915858D01*
X-30570037Y110833374D01*
X-30517242Y110745291D01*
X-30473335Y110652458D01*
X-30438739Y110555767D01*
X-30413786Y110456151D01*
X-30398718Y110354570D01*
X-30393679Y110252000D01*
X-30398718Y110149430D01*
X-30413786Y110047849D01*
X-30438739Y109948233D01*
X-30473335Y109851542D01*
X-30517242Y109758709D01*
X-30570037Y109670626D01*
X-30631212Y109588142D01*
X-30700176Y109512051D01*
X-30776267Y109443086D01*
X-30858751Y109381912D01*
X-30946834Y109329117D01*
X-31039668Y109285210D01*
X-31136358Y109250614D01*
X-31235974Y109225661D01*
X-31337556Y109210593D01*
X-31440125Y109205554D01*
X-31440327Y109205554D01*
X-32911248Y109205554D01*
X-34503332Y109205554D01*
X-36749697Y109205554D01*
X-38077645Y109205554D01*
X-40837742Y109205554D01*
X-41639842Y109205554D01*
X-42257775Y109205554D01*
X-43357936Y109205554D01*
X-43559875Y109205554D01*
X-43662444Y109210593D01*
X-43764026Y109225661D01*
X-43863642Y109250614D01*
X-43960332Y109285210D01*
X-44053166Y109329117D01*
X-44141249Y109381912D01*
X-44218217Y109438995D01*
X-43357936Y109438995D01*
X-43084107Y109438995D01*
X-43096224Y110604585D01*
X-42919326Y109969690D01*
X-42701232Y109969690D01*
X-42517064Y110604585D01*
X-42531603Y109438995D01*
X-42257775Y109438995D01*
X-42260118Y109521386D01*
X-42105109Y109521386D01*
X-41937904Y109447477D01*
X-41807653Y109417489D01*
X-41639842Y109407493D01*
X-41469810Y109420282D01*
X-41402247Y109438995D01*
X-40837742Y109438995D01*
X-39875707Y109438995D01*
X-39875707Y109485037D01*
X-38482330Y109485037D01*
X-38413267Y109458381D01*
X-38312702Y109432937D01*
X-38196385Y109414763D01*
X-38077645Y109407493D01*
X-37938914Y109416580D01*
X-37818356Y109443842D01*
X-37715973Y109487460D01*
X-37631765Y109545619D01*
X-37520295Y109699496D01*
X-37483946Y109892145D01*
X-37500370Y110032695D01*
X-37549643Y110150627D01*
X-37585832Y110192630D01*
X-37270699Y110192630D01*
X-37262369Y110006645D01*
X-37237379Y109846103D01*
X-37195729Y109711006D01*
X-37137419Y109601354D01*
X-37035104Y109493653D01*
X-36905863Y109429033D01*
X-36749697Y109407493D01*
X-36593531Y109429033D01*
X-36464291Y109493653D01*
X-36361975Y109601354D01*
X-36303665Y109711006D01*
X-36262015Y109846103D01*
X-36237025Y110006645D01*
X-36228695Y110192630D01*
X-36237025Y110377480D01*
X-36262015Y110537036D01*
X-36303665Y110671300D01*
X-36361975Y110780271D01*
X-36464291Y110887299D01*
X-36529318Y110919609D01*
X-34801393Y110919609D01*
X-34801393Y109438995D01*
X-34503332Y109438995D01*
X-34503332Y109945457D01*
X-34396708Y109945457D01*
X-34217522Y109958785D01*
X-34067683Y109998769D01*
X-33947193Y110065409D01*
X-33859013Y110161935D01*
X-33806105Y110291580D01*
X-33788469Y110454342D01*
X-33801892Y110577929D01*
X-33633380Y110577929D01*
X-33633380Y110330756D01*
X-33318356Y110330756D01*
X-33318356Y109911532D01*
X-33313510Y109799456D01*
X-33298970Y109700708D01*
X-33232330Y109544407D01*
X-33106321Y109446265D01*
X-33018174Y109420821D01*
X-32911248Y109412339D01*
X-32762217Y109428090D01*
X-32588954Y109487460D01*
X-32627726Y109727363D01*
X-32758582Y109682533D01*
X-32857936Y109671628D01*
X-32982734Y109721305D01*
X-33020295Y109872759D01*
X-33020295Y110541580D01*
X-32356321Y110541580D01*
X-32356321Y109438995D01*
X-32058259Y109438995D01*
X-32058259Y110333179D01*
X-31989196Y110340449D01*
X-31922557Y110342872D01*
X-31774737Y110272598D01*
X-31747476Y110179908D01*
X-31738389Y110042388D01*
X-31738389Y109438995D01*
X-31440327Y109438995D01*
X-31440327Y110081160D01*
X-31445779Y110192327D01*
X-31462137Y110293195D01*
X-31536046Y110457977D01*
X-31677807Y110564601D01*
X-31778978Y110592771D01*
X-31903170Y110602162D01*
X-32036147Y110597315D01*
X-32158825Y110582775D01*
X-32266963Y110562784D01*
X-32356321Y110541580D01*
X-33020295Y110541580D01*
X-33020295Y110577929D01*
X-33221426Y110577929D01*
X-33633380Y110577929D01*
X-33801892Y110577929D01*
X-33805971Y110615489D01*
X-33858475Y110743519D01*
X-33945981Y110838430D01*
X-34065260Y110903723D01*
X-34070339Y110905069D01*
X-33408017Y110905069D01*
X-33353494Y110766943D01*
X-33221426Y110716055D01*
X-33088146Y110766943D01*
X-33032411Y110905069D01*
X-33088146Y111045619D01*
X-33221426Y111096507D01*
X-33353494Y111045619D01*
X-33408017Y110905069D01*
X-34070339Y110905069D01*
X-34213079Y110942899D01*
X-34389439Y110955958D01*
X-34483946Y110953535D01*
X-34592993Y110947477D01*
X-34703251Y110936572D01*
X-34801393Y110919609D01*
X-36529318Y110919609D01*
X-36593531Y110951515D01*
X-36749697Y110972921D01*
X-36903440Y110951381D01*
X-37031873Y110886760D01*
X-37134996Y110779060D01*
X-37194366Y110669710D01*
X-37236773Y110535522D01*
X-37262217Y110376495D01*
X-37270699Y110192630D01*
X-37585832Y110192630D01*
X-37631765Y110245942D01*
X-37747274Y110318101D01*
X-37896708Y110366567D01*
X-38080069Y110391338D01*
X-38067952Y110529464D01*
X-38055836Y110691822D01*
X-37539681Y110691822D01*
X-37539681Y110938995D01*
X-38305432Y110938995D01*
X-38314519Y110753918D01*
X-38327242Y110562178D01*
X-38344204Y110364985D01*
X-38366014Y110163551D01*
X-38199414Y110158401D01*
X-38067952Y110142953D01*
X-37892266Y110084795D01*
X-37809875Y109995134D01*
X-37789277Y109880029D01*
X-37801393Y109800061D01*
X-37846224Y109730998D01*
X-37935884Y109681321D01*
X-38080069Y109661935D01*
X-38193356Y109667388D01*
X-38286046Y109683745D01*
X-38421749Y109732210D01*
X-38482330Y109485037D01*
X-39875707Y109485037D01*
X-39875707Y109686168D01*
X-40539681Y109686168D01*
X-40539681Y110107816D01*
X-40008986Y110107816D01*
X-40008986Y110354989D01*
X-40539681Y110354989D01*
X-40539681Y110691822D01*
X-39929019Y110691822D01*
X-39929019Y110938995D01*
X-40837742Y110938995D01*
X-40837742Y109438995D01*
X-41402247Y109438995D01*
X-41331280Y109458651D01*
X-41224253Y109522598D01*
X-41121567Y109661632D01*
X-41087338Y109848527D01*
X-41097637Y109961511D01*
X-41128534Y110053292D01*
X-41233946Y110188995D01*
X-41374495Y110276233D01*
X-41521103Y110335603D01*
X-41614398Y110371952D01*
X-41699212Y110416782D01*
X-41761006Y110474940D01*
X-41785238Y110551273D01*
X-41758852Y110646857D01*
X-41679692Y110704208D01*
X-41547758Y110723325D01*
X-41376918Y110699092D01*
X-41242427Y110640934D01*
X-41155190Y110871144D01*
X-41328453Y110941418D01*
X-41440226Y110965045D01*
X-41569568Y110972921D01*
X-41718060Y110959728D01*
X-41843666Y110920148D01*
X-41946385Y110854181D01*
X-42049071Y110712420D01*
X-42083300Y110524617D01*
X-42044527Y110346507D01*
X-41946385Y110226556D01*
X-41814317Y110146588D01*
X-41673768Y110090853D01*
X-41571991Y110048446D01*
X-41479907Y109997557D01*
X-41412056Y109933341D01*
X-41385400Y109850950D01*
X-41396305Y109779464D01*
X-41436288Y109716459D01*
X-41515044Y109672840D01*
X-41639842Y109657089D01*
X-41760703Y109665570D01*
X-41861571Y109691015D01*
X-42017872Y109763712D01*
X-42105109Y109521386D01*
X-42260118Y109521386D01*
X-42263227Y109630736D01*
X-42269891Y109818236D01*
X-42278069Y110003010D01*
X-42288065Y110186572D01*
X-42300182Y110370437D01*
X-42314721Y110556120D01*
X-42330775Y110745134D01*
X-42347435Y110938995D01*
X-42594608Y110938995D01*
X-42638227Y110810562D01*
X-42691539Y110644569D01*
X-42752120Y110460401D01*
X-42812702Y110275021D01*
X-42868437Y110449496D01*
X-42926595Y110636087D01*
X-42981119Y110808139D01*
X-43023526Y110938995D01*
X-43270699Y110938995D01*
X-43286753Y110774819D01*
X-43300989Y110597315D01*
X-43313409Y110410118D01*
X-43324011Y110216863D01*
X-43333401Y110019973D01*
X-43342185Y109821871D01*
X-43350363Y109626798D01*
X-43357936Y109438995D01*
X-44218217Y109438995D01*
X-44223733Y109443086D01*
X-44299824Y109512051D01*
X-44368788Y109588142D01*
X-44429963Y109670626D01*
X-44482758Y109758709D01*
X-44526665Y109851542D01*
X-44561261Y109948233D01*
X-44586214Y110047849D01*
X-44601282Y110149430D01*
X-44606321Y110252000D01*
X-44601282Y110354570D01*
X-44586214Y110456151D01*
X-44561261Y110555767D01*
X-44526665Y110652458D01*
X-44482758Y110745291D01*
X-44429963Y110833374D01*
X-44368788Y110915858D01*
X-44299824Y110991949D01*
X-44223733Y111060914D01*
X-44141249Y111122088D01*
X-44053166Y111174883D01*
X-43960332Y111218790D01*
X-43863642Y111253386D01*
X-43764026Y111278339D01*
X-43662444Y111293407D01*
X-43559875Y111298446D01*
X-43357936Y111298446D01*
X-31440327Y111298446D01*
X-31440125Y111298446D01*
X-31337556Y111293407D01*
G37*
D10*
G04 #@! TO.C,J3*
X-68370000Y14772001D02*
X-73969999Y14772000D01*
X-73969999Y27442000D01*
X-68369999Y27442000D01*
X-68370000Y14772001D01*
G04 #@! TO.C,R3*
X-67549999Y62602000D02*
X-67549999Y62002000D01*
X-66850001Y62002000D02*
X-66850001Y62602000D01*
G04 #@! TO.C,R2*
X-67549999Y22902000D02*
X-67549999Y22302000D01*
X-66850001Y22302000D02*
X-66850001Y22902000D01*
G04 #@! TD*
%LPC*%
D15*
G04 #@! TO.C,KiKit_MB_11_1*
X-13101000Y41002000D03*
G04 #@! TD*
G04 #@! TO.C,KiKit_MB_10_6*
X-61899000Y41002000D03*
G04 #@! TD*
G04 #@! TO.C,KiKit_MB_6_6*
X-61899000Y85002000D03*
G04 #@! TD*
G04 #@! TO.C,KiKit_MB_5_6*
X-13101000Y51002000D03*
G04 #@! TD*
G04 #@! TO.C,KiKit_MB_7_6*
X-8899001Y85002000D03*
G04 #@! TD*
D16*
G04 #@! TO.C,J5*
X-52740001Y119608000D03*
X-51470000Y121513001D03*
X-50200000Y119608000D03*
X-48930001Y121513001D03*
X-47659999Y119608000D03*
X-46390000Y121512998D03*
X-45119999Y119608000D03*
X-43850001Y121513001D03*
X-42579998Y119608000D03*
X-41310001Y121513001D03*
X-40039997Y119608000D03*
X-38770000Y121513001D03*
X-37500000Y119608000D03*
X-36229999Y121512998D03*
X-34959999Y119608000D03*
X-33690000Y121512998D03*
X-32419998Y119608000D03*
X-31149999Y121513001D03*
X-29880001Y119608000D03*
X-28610000Y121513001D03*
X-27340000Y119608000D03*
X-26070000Y121513001D03*
X-24799999Y119608000D03*
X-23530000Y121512998D03*
X-22259999Y119608000D03*
X-52740002Y123418000D03*
X-51470000Y125322999D03*
X-50200002Y123417999D03*
X-48929998Y125322999D03*
X-47660000Y123417999D03*
X-46389999Y125322999D03*
X-45120000Y123417999D03*
X-43849998Y125322999D03*
X-42580001Y123417999D03*
X-41309999Y125322999D03*
X-40040000Y123418000D03*
X-38770000Y125322999D03*
X-37500000Y123417999D03*
X-36229999Y125322999D03*
X-34960002Y123417999D03*
X-33689997Y125322999D03*
X-32420000Y123417999D03*
X-31149999Y125322999D03*
X-29880002Y123418000D03*
X-28610000Y125322998D03*
X-27340002Y123417999D03*
X-26069998Y125322999D03*
X-24800000Y123417999D03*
X-23529999Y125322999D03*
X-22260000Y123417999D03*
D17*
X-14258999Y123417999D03*
X-60741000Y123417999D03*
G04 #@! TD*
D18*
G04 #@! TO.C,C1*
X-66050000Y54152000D03*
X-66050000Y55852000D03*
G04 #@! TD*
D15*
G04 #@! TO.C,KiKit_MB_1_2*
X-9739401Y95002000D03*
G04 #@! TD*
G04 #@! TO.C,KiKit_MB_6_2*
X-65260599Y85002000D03*
G04 #@! TD*
G04 #@! TO.C,KiKit_MB_1_4*
X-11420200Y95002000D03*
G04 #@! TD*
G04 #@! TO.C,KiKit_MB_10_3*
X-64420199Y41002000D03*
G04 #@! TD*
G04 #@! TO.C,KiKit_MB_7_2*
X-12260600Y85002000D03*
G04 #@! TD*
G04 #@! TO.C,KiKit_MB_9_5*
X-12260600Y7002000D03*
G04 #@! TD*
G04 #@! TO.C,KiKit_MB_3_3*
X-11420200Y129002000D03*
G04 #@! TD*
G04 #@! TO.C,KiKit_MB_9_1*
X-8899001Y7002000D03*
G04 #@! TD*
D16*
G04 #@! TO.C,J5*
X-52740001Y31608000D03*
X-51470000Y33513001D03*
X-50200000Y31608000D03*
X-48930001Y33513001D03*
X-47659999Y31608000D03*
X-46390000Y33512998D03*
X-45119999Y31608000D03*
X-43850001Y33513001D03*
X-42579998Y31608000D03*
X-41310001Y33513001D03*
X-40039997Y31608000D03*
X-38770000Y33513001D03*
X-37500000Y31608000D03*
X-36229999Y33512998D03*
X-34959999Y31608000D03*
X-33690000Y33512998D03*
X-32419998Y31608000D03*
X-31149999Y33513001D03*
X-29880001Y31608000D03*
X-28610000Y33513001D03*
X-27340000Y31608000D03*
X-26070000Y33513001D03*
X-24799999Y31608000D03*
X-23530000Y33512998D03*
X-22259999Y31608000D03*
X-52740002Y35418000D03*
X-51470000Y37322999D03*
X-50200002Y35417999D03*
X-48929998Y37322999D03*
X-47660000Y35417999D03*
X-46389999Y37322999D03*
X-45120000Y35417999D03*
X-43849998Y37322999D03*
X-42580001Y35417999D03*
X-41309999Y37322999D03*
X-40040000Y35418000D03*
X-38770000Y37322999D03*
X-37500000Y35417999D03*
X-36229999Y37322999D03*
X-34960002Y35417999D03*
X-33689997Y37322999D03*
X-32420000Y35417999D03*
X-31149999Y37322999D03*
X-29880002Y35418000D03*
X-28610000Y37322998D03*
X-27340002Y35417999D03*
X-26069998Y37322999D03*
X-24800000Y35417999D03*
X-23529999Y37322999D03*
X-22260000Y35417999D03*
D17*
X-14258999Y35417999D03*
X-60741000Y35417999D03*
G04 #@! TD*
D15*
G04 #@! TO.C,KiKit_MB_4_2*
X-62739400Y95002000D03*
G04 #@! TD*
G04 #@! TO.C,KiKit_MB_10_2*
X-65260599Y41002000D03*
G04 #@! TD*
D19*
G04 #@! TO.C,H3*
X-71000000Y99002000D03*
G04 #@! TD*
D20*
G04 #@! TO.C,KiKit_FID_T_2*
X-2500000Y133503500D03*
G04 #@! TD*
D21*
G04 #@! TO.C,U1*
X-64850001Y97602000D03*
X-64350000Y97602000D03*
X-63850000Y97602000D03*
X-63349999Y97602000D03*
X-63349999Y100402000D03*
X-63850000Y100402000D03*
X-64350000Y100402000D03*
X-64850001Y100402000D03*
D22*
X-64100000Y99002000D03*
G04 #@! TD*
D15*
G04 #@! TO.C,KiKit_MB_8_5*
X-65260599Y51002000D03*
G04 #@! TD*
G04 #@! TO.C,KiKit_MB_9_3*
X-10579801Y7002000D03*
G04 #@! TD*
G04 #@! TO.C,KiKit_MB_7_1*
X-13101000Y85002000D03*
G04 #@! TD*
D21*
G04 #@! TO.C,U1*
X-64850001Y9602000D03*
X-64350000Y9602000D03*
X-63850000Y9602000D03*
X-63349999Y9602000D03*
X-63349999Y12402000D03*
X-63850000Y12402000D03*
X-64350000Y12402000D03*
X-64850001Y12402000D03*
D22*
X-64100000Y11002000D03*
G04 #@! TD*
D15*
G04 #@! TO.C,KiKit_MB_2_1*
X-66100999Y129002000D03*
G04 #@! TD*
G04 #@! TO.C,KiKit_MB_12_1*
X-61899000Y7002000D03*
G04 #@! TD*
G04 #@! TO.C,KiKit_MB_1_6*
X-13101000Y95002000D03*
G04 #@! TD*
D23*
G04 #@! TO.C,R4*
X-8750000Y122752000D03*
X-7050000Y122752000D03*
G04 #@! TD*
D15*
G04 #@! TO.C,KiKit_MB_2_4*
X-63579800Y129002000D03*
G04 #@! TD*
G04 #@! TO.C,KiKit_MB_3_6*
X-8899001Y129002000D03*
G04 #@! TD*
G04 #@! TO.C,KiKit_MB_10_1*
X-66100999Y41002000D03*
G04 #@! TD*
G04 #@! TO.C,KiKit_MB_11_6*
X-8899001Y41002000D03*
G04 #@! TD*
D18*
G04 #@! TO.C,C1*
X-66050000Y10152000D03*
X-66050000Y11852000D03*
G04 #@! TD*
D15*
G04 #@! TO.C,KiKit_MB_4_5*
X-65260599Y95002000D03*
G04 #@! TD*
G04 #@! TO.C,KiKit_MB_4_1*
X-61899000Y95002000D03*
G04 #@! TD*
G04 #@! TO.C,KiKit_MB_3_2*
X-12260600Y129002000D03*
G04 #@! TD*
G04 #@! TO.C,KiKit_MB_12_5*
X-65260599Y7002000D03*
G04 #@! TD*
D19*
G04 #@! TO.C,H3*
X-71000000Y55002000D03*
G04 #@! TD*
D15*
G04 #@! TO.C,KiKit_MB_2_6*
X-61899000Y129002000D03*
G04 #@! TD*
G04 #@! TO.C,KiKit_MB_12_2*
X-62739400Y7002000D03*
G04 #@! TD*
G04 #@! TO.C,KiKit_MB_6_5*
X-62739400Y85002000D03*
G04 #@! TD*
G04 #@! TO.C,KiKit_MB_8_1*
X-61899000Y51002000D03*
G04 #@! TD*
D23*
G04 #@! TO.C,R4*
X-8750000Y34752000D03*
X-7050000Y34752000D03*
G04 #@! TD*
D16*
G04 #@! TO.C,J5*
X-52740001Y75608000D03*
X-51470000Y77513001D03*
X-50200000Y75608000D03*
X-48930001Y77513001D03*
X-47659999Y75608000D03*
X-46390000Y77512998D03*
X-45119999Y75608000D03*
X-43850001Y77513001D03*
X-42579998Y75608000D03*
X-41310001Y77513001D03*
X-40039997Y75608000D03*
X-38770000Y77513001D03*
X-37500000Y75608000D03*
X-36229999Y77512998D03*
X-34959999Y75608000D03*
X-33690000Y77512998D03*
X-32419998Y75608000D03*
X-31149999Y77513001D03*
X-29880001Y75608000D03*
X-28610000Y77513001D03*
X-27340000Y75608000D03*
X-26070000Y77513001D03*
X-24799999Y75608000D03*
X-23530000Y77512998D03*
X-22259999Y75608000D03*
X-52740002Y79418000D03*
X-51470000Y81322999D03*
X-50200002Y79417999D03*
X-48929998Y81322999D03*
X-47660000Y79417999D03*
X-46389999Y81322999D03*
X-45120000Y79417999D03*
X-43849998Y81322999D03*
X-42580001Y79417999D03*
X-41309999Y81322999D03*
X-40040000Y79418000D03*
X-38770000Y81322999D03*
X-37500000Y79417999D03*
X-36229999Y81322999D03*
X-34960002Y79417999D03*
X-33689997Y81322999D03*
X-32420000Y79417999D03*
X-31149999Y81322999D03*
X-29880002Y79418000D03*
X-28610000Y81322998D03*
X-27340002Y79417999D03*
X-26069998Y81322999D03*
X-24800000Y79417999D03*
X-23529999Y81322999D03*
X-22260000Y79417999D03*
D17*
X-14258999Y79417999D03*
X-60741000Y79417999D03*
G04 #@! TD*
D18*
G04 #@! TO.C,R3*
X-67200000Y17452000D03*
X-67200000Y19152000D03*
G04 #@! TD*
D15*
G04 #@! TO.C,KiKit_MB_5_5*
X-12260600Y51002000D03*
G04 #@! TD*
G04 #@! TO.C,KiKit_MB_10_4*
X-63579800Y41002000D03*
G04 #@! TD*
D18*
G04 #@! TO.C,C1*
X-66050000Y98152000D03*
X-66050000Y99852000D03*
G04 #@! TD*
D19*
G04 #@! TO.C,H3*
X-71000000Y11002000D03*
G04 #@! TD*
D24*
G04 #@! TO.C,J3*
X-72440000Y61872000D03*
D25*
X-69900000Y68342000D03*
D26*
X-72440000Y67012000D03*
X-69900000Y65742000D03*
X-72440000Y64472000D03*
X-69900000Y63202000D03*
G04 #@! TD*
D27*
G04 #@! TO.C,J1*
X-15400000Y11002000D03*
D28*
X-59600000Y11002000D03*
D29*
X-57100000Y8802000D03*
X-57100000Y13202000D03*
X-56300000Y8802001D03*
X-56300000Y13201999D03*
X-55500000Y8802000D03*
X-55500000Y13202000D03*
X-54700001Y8802000D03*
X-54700001Y13202000D03*
X-53900000Y8802000D03*
X-53900000Y13202000D03*
X-53100000Y8802000D03*
X-53100000Y13202000D03*
X-52299999Y8802000D03*
X-52299999Y13202000D03*
X-51500000Y8802000D03*
X-51500000Y13202000D03*
X-50700000Y8802001D03*
X-50700000Y13201999D03*
X-49900000Y8802000D03*
X-49900000Y13202000D03*
X-49100000Y8802000D03*
X-49100000Y13202000D03*
X-48300000Y8802000D03*
X-48300000Y13202000D03*
X-47500000Y8802000D03*
X-47500000Y13202000D03*
X-46699999Y8802000D03*
X-46699999Y13202000D03*
X-45900000Y8802000D03*
X-45900000Y13202000D03*
X-45100000Y8802001D03*
X-45100000Y13201999D03*
X-44300000Y8802000D03*
X-44300000Y13202000D03*
X-43500000Y8802000D03*
X-43500000Y13202000D03*
X-42700000Y8802000D03*
X-42700000Y13202000D03*
X-41900000Y8802000D03*
X-41900000Y13202000D03*
X-41099999Y8802000D03*
X-41099999Y13202000D03*
X-40300000Y8802000D03*
X-40300000Y13202000D03*
X-39500000Y8802001D03*
X-39500000Y13201999D03*
X-38700000Y8802000D03*
X-38700000Y13202000D03*
X-37900000Y8802000D03*
X-37900000Y13202000D03*
X-37100000Y8802000D03*
X-37100000Y13202000D03*
X-36300000Y8802000D03*
X-36300000Y13202000D03*
X-35500000Y8802001D03*
X-35500000Y13201999D03*
X-34700000Y8802000D03*
X-34700000Y13202000D03*
X-33900001Y8802000D03*
X-33900001Y13202000D03*
X-33100000Y8802000D03*
X-33100000Y13202000D03*
X-32300000Y8802000D03*
X-32300000Y13202000D03*
X-31500000Y8802000D03*
X-31500000Y13202000D03*
X-30700000Y8802000D03*
X-30700000Y13202000D03*
X-29900000Y8802001D03*
X-29900000Y13201999D03*
X-29100000Y8802000D03*
X-29100000Y13202000D03*
X-28300001Y8802000D03*
X-28300001Y13202000D03*
X-27500000Y8802000D03*
X-27500000Y13202000D03*
X-26700000Y8802000D03*
X-26700000Y13202000D03*
X-25900000Y8802000D03*
X-25900000Y13202000D03*
X-25100000Y8802000D03*
X-25100000Y13202000D03*
X-24300000Y8802001D03*
X-24300000Y13201999D03*
X-23500000Y8802000D03*
X-23500000Y13202000D03*
X-22700001Y8802000D03*
X-22700001Y13202000D03*
X-21900000Y8802000D03*
X-21900000Y13202000D03*
X-21100000Y8802000D03*
X-21100000Y13202000D03*
X-20299999Y8802000D03*
X-20299999Y13202000D03*
X-19500000Y8802000D03*
X-19500000Y13202000D03*
X-18700000Y8802001D03*
X-18700000Y13201999D03*
X-17900000Y8802000D03*
X-17900000Y13202000D03*
G04 #@! TD*
D15*
G04 #@! TO.C,KiKit_MB_5_3*
X-10579801Y51002000D03*
G04 #@! TD*
D30*
G04 #@! TO.C,C2*
X-7050000Y80052000D03*
X-8750000Y80052000D03*
G04 #@! TD*
D15*
G04 #@! TO.C,KiKit_MB_7_5*
X-9739401Y85002000D03*
G04 #@! TD*
D18*
G04 #@! TO.C,R3*
X-67200000Y105452000D03*
X-67200000Y107152000D03*
G04 #@! TD*
D15*
G04 #@! TO.C,KiKit_MB_2_3*
X-64420199Y129002000D03*
G04 #@! TD*
G04 #@! TO.C,KiKit_MB_9_4*
X-11420200Y7002000D03*
G04 #@! TD*
G04 #@! TO.C,KiKit_MB_4_4*
X-64420199Y95002000D03*
G04 #@! TD*
G04 #@! TO.C,KiKit_MB_9_6*
X-13101000Y7002000D03*
G04 #@! TD*
G04 #@! TO.C,KiKit_MB_9_2*
X-9739401Y7002000D03*
G04 #@! TD*
G04 #@! TO.C,KiKit_MB_4_3*
X-63579800Y95002000D03*
G04 #@! TD*
D19*
G04 #@! TO.C,H4*
X-4000000Y55002000D03*
G04 #@! TD*
D18*
G04 #@! TO.C,R1*
X-62150000Y10152000D03*
X-62150000Y11852000D03*
G04 #@! TD*
D15*
G04 #@! TO.C,KiKit_MB_6_1*
X-66100999Y85002000D03*
G04 #@! TD*
G04 #@! TO.C,KiKit_MB_11_5*
X-9739401Y41002000D03*
G04 #@! TD*
D27*
G04 #@! TO.C,J1*
X-15400000Y55002000D03*
D28*
X-59600000Y55002000D03*
D29*
X-57100000Y52802000D03*
X-57100000Y57202000D03*
X-56300000Y52802001D03*
X-56300000Y57201999D03*
X-55500000Y52802000D03*
X-55500000Y57202000D03*
X-54700001Y52802000D03*
X-54700001Y57202000D03*
X-53900000Y52802000D03*
X-53900000Y57202000D03*
X-53100000Y52802000D03*
X-53100000Y57202000D03*
X-52299999Y52802000D03*
X-52299999Y57202000D03*
X-51500000Y52802000D03*
X-51500000Y57202000D03*
X-50700000Y52802001D03*
X-50700000Y57201999D03*
X-49900000Y52802000D03*
X-49900000Y57202000D03*
X-49100000Y52802000D03*
X-49100000Y57202000D03*
X-48300000Y52802000D03*
X-48300000Y57202000D03*
X-47500000Y52802000D03*
X-47500000Y57202000D03*
X-46699999Y52802000D03*
X-46699999Y57202000D03*
X-45900000Y52802000D03*
X-45900000Y57202000D03*
X-45100000Y52802001D03*
X-45100000Y57201999D03*
X-44300000Y52802000D03*
X-44300000Y57202000D03*
X-43500000Y52802000D03*
X-43500000Y57202000D03*
X-42700000Y52802000D03*
X-42700000Y57202000D03*
X-41900000Y52802000D03*
X-41900000Y57202000D03*
X-41099999Y52802000D03*
X-41099999Y57202000D03*
X-40300000Y52802000D03*
X-40300000Y57202000D03*
X-39500000Y52802001D03*
X-39500000Y57201999D03*
X-38700000Y52802000D03*
X-38700000Y57202000D03*
X-37900000Y52802000D03*
X-37900000Y57202000D03*
X-37100000Y52802000D03*
X-37100000Y57202000D03*
X-36300000Y52802000D03*
X-36300000Y57202000D03*
X-35500000Y52802001D03*
X-35500000Y57201999D03*
X-34700000Y52802000D03*
X-34700000Y57202000D03*
X-33900001Y52802000D03*
X-33900001Y57202000D03*
X-33100000Y52802000D03*
X-33100000Y57202000D03*
X-32300000Y52802000D03*
X-32300000Y57202000D03*
X-31500000Y52802000D03*
X-31500000Y57202000D03*
X-30700000Y52802000D03*
X-30700000Y57202000D03*
X-29900000Y52802001D03*
X-29900000Y57201999D03*
X-29100000Y52802000D03*
X-29100000Y57202000D03*
X-28300001Y52802000D03*
X-28300001Y57202000D03*
X-27500000Y52802000D03*
X-27500000Y57202000D03*
X-26700000Y52802000D03*
X-26700000Y57202000D03*
X-25900000Y52802000D03*
X-25900000Y57202000D03*
X-25100000Y52802000D03*
X-25100000Y57202000D03*
X-24300000Y52802001D03*
X-24300000Y57201999D03*
X-23500000Y52802000D03*
X-23500000Y57202000D03*
X-22700001Y52802000D03*
X-22700001Y57202000D03*
X-21900000Y52802000D03*
X-21900000Y57202000D03*
X-21100000Y52802000D03*
X-21100000Y57202000D03*
X-20299999Y52802000D03*
X-20299999Y57202000D03*
X-19500000Y52802000D03*
X-19500000Y57202000D03*
X-18700000Y52802001D03*
X-18700000Y57201999D03*
X-17900000Y52802000D03*
X-17900000Y57202000D03*
G04 #@! TD*
D15*
G04 #@! TO.C,KiKit_MB_2_5*
X-62739400Y129002000D03*
G04 #@! TD*
D31*
G04 #@! TO.C,R2*
X-67200000Y111452000D03*
X-67200000Y109752000D03*
G04 #@! TD*
D24*
G04 #@! TO.C,J3*
X-72440000Y105872000D03*
D25*
X-69900000Y112342000D03*
D26*
X-72440000Y111012000D03*
X-69900000Y109742000D03*
X-72440000Y108472000D03*
X-69900000Y107202000D03*
G04 #@! TD*
D15*
G04 #@! TO.C,KiKit_MB_2_2*
X-65260599Y129002000D03*
G04 #@! TD*
G04 #@! TO.C,KiKit_MB_1_3*
X-10579801Y95002000D03*
G04 #@! TD*
G04 #@! TO.C,KiKit_MB_8_2*
X-62739400Y51002000D03*
G04 #@! TD*
G04 #@! TO.C,KiKit_MB_12_4*
X-64420199Y7002000D03*
G04 #@! TD*
G04 #@! TO.C,KiKit_MB_8_6*
X-66100999Y51002000D03*
G04 #@! TD*
G04 #@! TO.C,KiKit_MB_5_4*
X-11420200Y51002000D03*
G04 #@! TD*
D30*
G04 #@! TO.C,C2*
X-7050000Y36052000D03*
X-8750000Y36052000D03*
G04 #@! TD*
D31*
G04 #@! TO.C,R2*
X-67200000Y67452000D03*
X-67200000Y65752000D03*
G04 #@! TD*
D15*
G04 #@! TO.C,KiKit_MB_8_3*
X-63579800Y51002000D03*
G04 #@! TD*
D18*
G04 #@! TO.C,R1*
X-62150000Y54152000D03*
X-62150000Y55852000D03*
G04 #@! TD*
G04 #@! TO.C,R1*
X-62150000Y98152000D03*
X-62150000Y99852000D03*
G04 #@! TD*
D27*
G04 #@! TO.C,J1*
X-15400000Y99002000D03*
D28*
X-59600000Y99002000D03*
D29*
X-57100000Y96802000D03*
X-57100000Y101202000D03*
X-56300000Y96802001D03*
X-56300000Y101201999D03*
X-55500000Y96802000D03*
X-55500000Y101202000D03*
X-54700001Y96802000D03*
X-54700001Y101202000D03*
X-53900000Y96802000D03*
X-53900000Y101202000D03*
X-53100000Y96802000D03*
X-53100000Y101202000D03*
X-52299999Y96802000D03*
X-52299999Y101202000D03*
X-51500000Y96802000D03*
X-51500000Y101202000D03*
X-50700000Y96802001D03*
X-50700000Y101201999D03*
X-49900000Y96802000D03*
X-49900000Y101202000D03*
X-49100000Y96802000D03*
X-49100000Y101202000D03*
X-48300000Y96802000D03*
X-48300000Y101202000D03*
X-47500000Y96802000D03*
X-47500000Y101202000D03*
X-46699999Y96802000D03*
X-46699999Y101202000D03*
X-45900000Y96802000D03*
X-45900000Y101202000D03*
X-45100000Y96802001D03*
X-45100000Y101201999D03*
X-44300000Y96802000D03*
X-44300000Y101202000D03*
X-43500000Y96802000D03*
X-43500000Y101202000D03*
X-42700000Y96802000D03*
X-42700000Y101202000D03*
X-41900000Y96802000D03*
X-41900000Y101202000D03*
X-41099999Y96802000D03*
X-41099999Y101202000D03*
X-40300000Y96802000D03*
X-40300000Y101202000D03*
X-39500000Y96802001D03*
X-39500000Y101201999D03*
X-38700000Y96802000D03*
X-38700000Y101202000D03*
X-37900000Y96802000D03*
X-37900000Y101202000D03*
X-37100000Y96802000D03*
X-37100000Y101202000D03*
X-36300000Y96802000D03*
X-36300000Y101202000D03*
X-35500000Y96802001D03*
X-35500000Y101201999D03*
X-34700000Y96802000D03*
X-34700000Y101202000D03*
X-33900001Y96802000D03*
X-33900001Y101202000D03*
X-33100000Y96802000D03*
X-33100000Y101202000D03*
X-32300000Y96802000D03*
X-32300000Y101202000D03*
X-31500000Y96802000D03*
X-31500000Y101202000D03*
X-30700000Y96802000D03*
X-30700000Y101202000D03*
X-29900000Y96802001D03*
X-29900000Y101201999D03*
X-29100000Y96802000D03*
X-29100000Y101202000D03*
X-28300001Y96802000D03*
X-28300001Y101202000D03*
X-27500000Y96802000D03*
X-27500000Y101202000D03*
X-26700000Y96802000D03*
X-26700000Y101202000D03*
X-25900000Y96802000D03*
X-25900000Y101202000D03*
X-25100000Y96802000D03*
X-25100000Y101202000D03*
X-24300000Y96802001D03*
X-24300000Y101201999D03*
X-23500000Y96802000D03*
X-23500000Y101202000D03*
X-22700001Y96802000D03*
X-22700001Y101202000D03*
X-21900000Y96802000D03*
X-21900000Y101202000D03*
X-21100000Y96802000D03*
X-21100000Y101202000D03*
X-20299999Y96802000D03*
X-20299999Y101202000D03*
X-19500000Y96802000D03*
X-19500000Y101202000D03*
X-18700000Y96802001D03*
X-18700000Y101201999D03*
X-17900000Y96802000D03*
X-17900000Y101202000D03*
G04 #@! TD*
D15*
G04 #@! TO.C,KiKit_MB_6_4*
X-63579800Y85002000D03*
G04 #@! TD*
G04 #@! TO.C,KiKit_MB_1_5*
X-12260600Y95002000D03*
G04 #@! TD*
D21*
G04 #@! TO.C,U1*
X-64850001Y53602000D03*
X-64350000Y53602000D03*
X-63850000Y53602000D03*
X-63349999Y53602000D03*
X-63349999Y56402000D03*
X-63850000Y56402000D03*
X-64350000Y56402000D03*
X-64850001Y56402000D03*
D22*
X-64100000Y55002000D03*
G04 #@! TD*
D20*
G04 #@! TO.C,KiKit_FID_T_1*
X-72500000Y133503500D03*
G04 #@! TD*
D30*
G04 #@! TO.C,C2*
X-7050000Y124052000D03*
X-8750000Y124052000D03*
G04 #@! TD*
D19*
G04 #@! TO.C,H4*
X-4000000Y11002000D03*
G04 #@! TD*
D15*
G04 #@! TO.C,KiKit_MB_11_3*
X-11420200Y41002000D03*
G04 #@! TD*
G04 #@! TO.C,KiKit_MB_3_4*
X-10579801Y129002000D03*
G04 #@! TD*
D19*
G04 #@! TO.C,H4*
X-4000000Y99002000D03*
G04 #@! TD*
D15*
G04 #@! TO.C,KiKit_MB_7_4*
X-10579801Y85002000D03*
G04 #@! TD*
D20*
G04 #@! TO.C,KiKit_FID_T_3*
X-72500000Y2500000D03*
G04 #@! TD*
D15*
G04 #@! TO.C,KiKit_MB_12_3*
X-63579800Y7002000D03*
G04 #@! TD*
G04 #@! TO.C,KiKit_MB_4_6*
X-66100999Y95002000D03*
G04 #@! TD*
D23*
G04 #@! TO.C,R4*
X-8750000Y78752000D03*
X-7050000Y78752000D03*
G04 #@! TD*
D15*
G04 #@! TO.C,KiKit_MB_1_1*
X-8899001Y95002000D03*
G04 #@! TD*
G04 #@! TO.C,KiKit_MB_12_6*
X-66100999Y7002000D03*
G04 #@! TD*
G04 #@! TO.C,KiKit_MB_11_4*
X-10579801Y41002000D03*
G04 #@! TD*
D24*
G04 #@! TO.C,J3*
X-72440000Y17872000D03*
D25*
X-69900000Y24342000D03*
D26*
X-72440000Y23012000D03*
X-69900000Y21742000D03*
X-72440000Y20472000D03*
X-69900000Y19202000D03*
G04 #@! TD*
D15*
G04 #@! TO.C,KiKit_MB_6_3*
X-64420199Y85002000D03*
G04 #@! TD*
D18*
G04 #@! TO.C,R3*
X-67200000Y61452000D03*
X-67200000Y63152000D03*
G04 #@! TD*
D31*
G04 #@! TO.C,R2*
X-67200000Y23452000D03*
X-67200000Y21752000D03*
G04 #@! TD*
D15*
G04 #@! TO.C,KiKit_MB_10_5*
X-62739400Y41002000D03*
G04 #@! TD*
G04 #@! TO.C,KiKit_MB_8_4*
X-64420199Y51002000D03*
G04 #@! TD*
G04 #@! TO.C,KiKit_MB_3_5*
X-9739401Y129002000D03*
G04 #@! TD*
G04 #@! TO.C,KiKit_MB_7_3*
X-11420200Y85002000D03*
G04 #@! TD*
G04 #@! TO.C,KiKit_MB_3_1*
X-13101000Y129002000D03*
G04 #@! TD*
G04 #@! TO.C,KiKit_MB_5_1*
X-8899001Y51002000D03*
G04 #@! TD*
G04 #@! TO.C,KiKit_MB_5_2*
X-9739401Y51002000D03*
G04 #@! TD*
G04 #@! TO.C,KiKit_MB_11_2*
X-12260600Y41002000D03*
G04 #@! TD*
G36*
X-56961Y28532315D02*
G01*
X-11206Y28479511D01*
X0Y28428000D01*
X0Y19476000D01*
X-19685Y19408961D01*
X-72489Y19363206D01*
X-124000Y19352000D01*
X-2376000Y19352000D01*
X-2443039Y19371685D01*
X-2488794Y19424489D01*
X-2500000Y19476000D01*
X-2500000Y28428000D01*
X-2480315Y28495039D01*
X-2427511Y28540794D01*
X-2376000Y28552000D01*
X-124000Y28552000D01*
X-56961Y28532315D01*
G37*
G36*
X-56961Y72532315D02*
G01*
X-11206Y72479511D01*
X0Y72428000D01*
X0Y63476000D01*
X-19685Y63408961D01*
X-72489Y63363206D01*
X-124000Y63352000D01*
X-2376000Y63352000D01*
X-2443039Y63371685D01*
X-2488794Y63424489D01*
X-2500000Y63476000D01*
X-2500000Y72428000D01*
X-2480315Y72495039D01*
X-2427511Y72540794D01*
X-2376000Y72552000D01*
X-124000Y72552000D01*
X-56961Y72532315D01*
G37*
G36*
X-56961Y116532315D02*
G01*
X-11206Y116479511D01*
X0Y116428000D01*
X0Y107476000D01*
X-19685Y107408961D01*
X-72489Y107363206D01*
X-124000Y107352000D01*
X-2376000Y107352000D01*
X-2443039Y107371685D01*
X-2488794Y107424489D01*
X-2500000Y107476000D01*
X-2500000Y116428000D01*
X-2480315Y116495039D01*
X-2427511Y116540794D01*
X-2376000Y116552000D01*
X-124000Y116552000D01*
X-56961Y116532315D01*
G37*
%LPD*%
M02*
