G04 #@! TF.GenerationSoftware,KiCad,Pcbnew,8.0.6*
G04 #@! TF.CreationDate,2024-11-07T02:27:43-08:00*
G04 #@! TF.ProjectId,mse-68-hd-panel,6d73652d-3638-42d6-9864-2d70616e656c,1*
G04 #@! TF.SameCoordinates,Original*
G04 #@! TF.FileFunction,Profile,NP*
%FSLAX46Y46*%
G04 Gerber Fmt 4.6, Leading zero omitted, Abs format (unit mm)*
G04 Created by KiCad (PCBNEW 8.0.6) date 2024-11-07 02:27:43*
%MOMM*%
%LPD*%
G01*
G04 APERTURE LIST*
G04 #@! TA.AperFunction,Profile*
%ADD10C,0.100000*%
G04 #@! TD*
G04 APERTURE END LIST*
D10*
X-1241893Y8105069D02*
X-1103069Y8243893D01*
X-65665346Y41453505D02*
X-65673771Y41440726D01*
X-65665346Y85453505D02*
X-65673771Y85440726D01*
X-65532982Y41751884D02*
X-65542384Y41717909D01*
X-12543011Y5110702D02*
X-12550047Y5100707D01*
X-410249Y38766384D02*
X-501148Y38940401D01*
X-74873025Y38001526D02*
X-74917404Y37810280D01*
X-170344Y441986D02*
X-168607Y444452D01*
X-65557521Y48593037D02*
X-65565504Y48583783D01*
X-12582054Y130938929D02*
X-12573201Y130930493D01*
X-12503696Y92714465D02*
X-12505785Y92702423D01*
X-65627174Y41516348D02*
X-65634800Y41503076D01*
X-72758722Y128594530D02*
X-72764362Y128591764D01*
X-20285Y37403541D02*
X-20920Y37409790D01*
X-9286536Y131000805D02*
X-9274407Y131002301D01*
X-62475662Y5142650D02*
X-62480611Y5153831D01*
X-12764014Y6677324D02*
X-12755790Y6668250D01*
X-13434078Y50998670D02*
X-13418978Y50997458D01*
X-62310502Y92509463D02*
X-62322281Y92512723D01*
X-603830Y39115149D02*
X-607153Y39120480D01*
X-65677720Y5010723D02*
X-65689498Y5007463D01*
X-2613752Y7249976D02*
X-2607862Y7252158D01*
X-74161102Y8551122D02*
X-74037034Y8398965D01*
X-9492088Y6118193D02*
X-9490589Y6130347D01*
X-9443005Y94331283D02*
X-9437760Y94345663D01*
X-75000000Y87505044D02*
X-74999951Y87503026D01*
X-65592037Y92558521D02*
X-65601672Y92551002D01*
X-73603036Y51964967D02*
X-73450879Y51840899D01*
X-9367378Y48531402D02*
X-9378012Y48537426D01*
X-12500637Y130766509D02*
X-12500347Y130754272D01*
X-65503757Y130790970D02*
X-65502264Y130778838D01*
X-71199456Y84996946D02*
X-71205730Y84996628D01*
X-72005656Y40873438D02*
X-72194408Y40819429D01*
X-1098706Y52248483D02*
X-967091Y52394161D01*
X-62469599Y92633623D02*
X-62475094Y92644539D01*
X-65601672Y48551002D02*
X-65611664Y48543965D01*
X-12737783Y92502301D02*
X-12750013Y92502000D01*
X-1Y37000430D02*
X-40Y37003571D01*
X-12789378Y6703964D02*
X-12764014Y6677324D01*
X-20923Y37409816D02*
X-45727Y37604570D01*
X-65750013Y48502000D02*
X-74996932Y48502000D01*
X-66434078Y94998670D02*
X-66418978Y94997458D01*
X-9128931Y85225995D02*
X-9138397Y85233764D01*
X-72005656Y128873438D02*
X-72194408Y128819429D01*
X-12689499Y92509463D02*
X-12701423Y92506785D01*
X-65939978Y94829112D02*
X-65909905Y94807932D01*
X-12952810Y94837459D02*
X-12937538Y94827255D01*
X-65501076Y94005055D02*
X-65501000Y93998933D01*
X-75000000Y81000417D02*
X-75000000Y55003584D01*
X-62495282Y94084616D02*
X-62489200Y94139460D01*
X-62177459Y85268202D02*
X-62216953Y85306738D01*
X-65532573Y50250641D02*
X-65529597Y50238762D01*
X-76181Y617369D02*
X-75096Y620183D01*
X-72580279Y95327481D02*
X-72574506Y95325004D01*
X-8702345Y6980036D02*
X-8687351Y6983114D01*
X-128563Y126007656D02*
X-182572Y126196408D01*
X-65716328Y6621351D02*
X-65708794Y6611697D01*
X-65508463Y5188499D02*
X-65511723Y5176720D01*
X-12859364Y41235844D02*
X-12866349Y41229894D01*
X-40Y99000430D02*
X-1Y99003571D01*
X-62480011Y48655747D02*
X-62484408Y48667151D01*
X-1886874Y84398184D02*
X-2056063Y84497780D01*
X-74281180Y52714375D02*
X-74164978Y52556129D01*
X-74831421Y135559008D02*
X-74833035Y135556460D01*
X-62475094Y43359462D02*
X-62469599Y43370378D01*
X-9482707Y94180282D02*
X-9470647Y94237247D01*
X-65627896Y94489004D02*
X-65610557Y94456564D01*
X-62410677Y6412373D02*
X-62395605Y6444240D01*
X-1246483Y83903295D02*
X-1392161Y84034910D01*
X-65979943Y94854775D02*
X-65950161Y94835915D01*
X-65511723Y5176720D02*
X-65515556Y5165115D01*
X-65503426Y41936162D02*
X-65504458Y41920889D01*
X-81327Y81804102D02*
X-82591Y81810255D01*
X-74994947Y37201431D02*
X-74999960Y37003583D01*
X-66100823Y85086361D02*
X-66133391Y85072871D01*
X-65505360Y94093811D02*
X-65502655Y94057128D01*
X-8491679Y7002000D02*
X-4001584Y7002000D01*
X-71602595Y40956270D02*
X-71608804Y40955319D01*
X-9262218Y131003200D02*
X-9249988Y131003500D01*
X-65574289Y6377157D02*
X-65562154Y6345697D01*
X-40Y11000430D02*
X-1Y11003571D01*
X-74954274Y125604570D02*
X-74979078Y125409816D01*
X-62277802Y41375555D02*
X-62311203Y41419455D01*
X-9334655Y6550496D02*
X-9326230Y6563275D01*
X-72574483Y95324994D02*
X-72392163Y95252167D01*
X-72764384Y128591752D02*
X-72938401Y128500853D01*
X-13064716Y94900854D02*
X-13015744Y94875445D01*
X-62499000Y87252988D02*
X-62498700Y87265218D01*
X-65501301Y43265218D02*
X-65501000Y43252988D01*
X-12912467Y85194403D02*
X-12957968Y85163186D01*
X-12538966Y6274308D02*
X-12535700Y6262505D01*
X-62419129Y41611345D02*
X-62426158Y41628314D01*
X-74589764Y38766362D02*
X-74592530Y38760722D01*
X-62486786Y41847889D02*
X-62489125Y41863016D01*
X-74994626Y10796246D02*
X-74979718Y10600485D01*
X-9497801Y92726594D02*
X-9498700Y92738783D01*
X-13394149Y6995212D02*
X-13359496Y6990938D01*
X-61964086Y6886482D02*
X-61933967Y6901643D01*
X-73113127Y7605817D02*
X-72943938Y7506221D01*
X-62394950Y129558376D02*
X-62410677Y129591628D01*
X-126976Y54002475D02*
X-82597Y54193721D01*
X-12612101Y50459213D02*
X-12603843Y50442807D01*
X-66312650Y41020887D02*
X-66347382Y41014860D01*
X-9494216Y92702423D02*
X-9496305Y92714465D01*
X-1392180Y40034927D02*
X-1396946Y40039018D01*
X-74392848Y83120480D02*
X-74396171Y83115149D01*
X-62367378Y87472599D02*
X-62356462Y87478094D01*
X-8965455Y50885794D02*
X-8933967Y50901643D01*
X-62488021Y94148559D02*
X-62486507Y94157610D01*
X-65520005Y130849738D02*
X-65515608Y130838332D01*
X-62298578Y87497216D02*
X-62286536Y87499305D01*
X-9276949Y50629723D02*
X-9267166Y50641495D01*
X-65816886Y94730595D02*
X-65805735Y94720109D01*
X-9498925Y129998946D02*
X-9499001Y130005068D01*
X-184468Y38202450D02*
X-247968Y38388225D01*
X-74817429Y38196408D02*
X-74871438Y38007656D01*
X-62417218Y43437497D02*
X-62407964Y43445480D01*
X-9417218Y48566504D02*
X-9426070Y48574931D01*
X-61493867Y41002549D02*
X-61504457Y41002774D01*
X-12557521Y48593037D02*
X-12565504Y48583783D01*
X-65524956Y130860914D02*
X-65520005Y130849738D01*
X-13494804Y51001692D02*
X-13434078Y50998670D01*
X-12701466Y87497215D02*
X-12689540Y87494536D01*
X-62357021Y5023928D02*
X-62367941Y5029427D01*
X-9434497Y92583783D02*
X-9442480Y92593037D01*
X-62378012Y87466575D02*
X-62367378Y87472599D01*
X-1554109Y95837038D02*
X-1549142Y95840883D01*
X-74284783Y52719551D02*
X-74281194Y52714395D01*
X-62476221Y50213373D02*
X-62472775Y50228287D01*
X-13172199Y85058626D02*
X-13224794Y85041964D01*
X-65666171Y130988939D02*
X-65654767Y130984539D01*
X-73901278Y52248464D02*
X-73896950Y52243911D01*
X-74552960Y135836535D02*
X-74555508Y135834921D01*
X-12621980Y6478255D02*
X-12616207Y6467455D01*
X-65737783Y87501700D02*
X-65725594Y87500801D01*
X-898973Y135998238D02*
X-901966Y135998608D01*
X-13050915Y41109820D02*
X-13059185Y41105846D01*
X-66226227Y41041411D02*
X-66241004Y41037419D01*
X-66163504Y94942444D02*
X-66154923Y94939194D01*
X-62359890Y94510260D02*
X-62353595Y94520764D01*
X-74994947Y125201431D02*
X-74999960Y125003583D01*
X-62087526Y6809604D02*
X-62042041Y6840810D01*
X-65565450Y129649706D02*
X-65570871Y129635391D01*
X-12574377Y6377124D02*
X-12554090Y6322546D01*
X-4001571Y7002001D02*
X-3998430Y7002040D01*
X-62461035Y94274308D02*
X-62450357Y94309507D01*
X-9101082Y94799620D02*
X-9088844Y94808814D01*
X-61843697Y50939847D02*
X-61829254Y50944915D01*
X-12564951Y85651155D02*
X-12571561Y85634019D01*
X-9388337Y5041965D02*
X-9398330Y5049002D01*
X-65701364Y85402068D02*
X-65723052Y85374278D01*
X-71602570Y95047727D02*
X-71407816Y95022923D01*
X-9388337Y48543965D02*
X-9398329Y48551002D01*
X-1103069Y127760108D02*
X-1241893Y127898932D01*
X-62398296Y48551014D02*
X-62407932Y48558535D01*
X-3197924Y128920679D02*
X-3391172Y128955315D01*
X-607153Y8883521D02*
X-603830Y8888852D01*
X-12666115Y48516556D02*
X-12677720Y48512723D01*
X-363334Y229050D02*
X-295167Y290833D01*
X-9365201Y6500925D02*
X-9334655Y6550496D01*
X-1103069Y83760108D02*
X-1241893Y83898932D01*
X-62175324Y50737987D02*
X-62166250Y50746211D01*
X-74994628Y37207730D02*
X-74994946Y37201456D01*
X-62396158Y85561194D02*
X-62419767Y85612738D01*
X-65666115Y92516556D02*
X-65677720Y92512723D01*
X-12725594Y92503200D02*
X-12737783Y92502301D01*
X-9276949Y94629723D02*
X-9267166Y94641495D01*
X-61867982Y85073561D02*
X-61918682Y85095295D01*
X-8910373Y6912677D02*
X-8899178Y6917640D01*
X-2241279Y51409471D02*
X-2235639Y51412237D01*
X-75000000Y55003571D02*
X-74999961Y55000430D01*
X-65805735Y94720109D02*
X-65780809Y94695182D01*
X-1886852Y7605830D02*
X-1881521Y7609153D01*
X-74979081Y81409790D02*
X-74979716Y81403541D01*
X-13409718Y41007248D02*
X-13447298Y41004476D01*
X-9491538Y87313502D02*
X-9488278Y87325281D01*
X-65725661Y131002301D02*
X-65713529Y131000804D01*
X-66102274Y129085862D02*
X-66156338Y129064241D01*
X-72943916Y51506208D02*
X-72938423Y51503160D01*
X-525972Y119657D02*
X-447062Y166954D01*
X-2805569Y95184579D02*
X-2799575Y95186460D01*
X-12514846Y130838227D02*
X-12511018Y130826613D01*
X-718807Y96714395D02*
X-715218Y96719551D01*
X-62483098Y6178799D02*
X-62475922Y6214875D01*
X-61859475Y41070098D02*
X-61867973Y41073558D01*
X-12674740Y41439546D02*
X-12707059Y41394832D01*
X-967074Y52394180D02*
X-962983Y52398946D01*
X-74094953Y4665D02*
X-74003065Y151D01*
X-62426646Y5072991D02*
X-62435074Y5081850D01*
X-74495793Y38945916D02*
X-74498841Y38940423D01*
X-13163504Y85061557D02*
X-13172199Y85058626D01*
X-65514585Y85838784D02*
X-65517294Y85823719D01*
X-74392835Y52883500D02*
X-74284797Y52719572D01*
X-74996957Y48502000D02*
X-74998975Y48501951D01*
X-2061578Y95503160D02*
X-2056085Y95506208D01*
X-12688798Y50584546D02*
X-12678222Y50569530D01*
X-9378012Y92537426D02*
X-9388337Y92543965D01*
X-61582051Y85006657D02*
X-61637460Y85012801D01*
X-74880357Y135477508D02*
X-74881844Y135474883D01*
X-9326230Y50563275D02*
X-9305932Y50592096D01*
X-12589324Y129591628D02*
X-12604396Y129559761D01*
X-61933967Y94901643D02*
X-61920090Y94908103D01*
X-3592211Y40981081D02*
X-3598460Y40981716D01*
X-65701423Y92506785D02*
X-65713465Y92504696D01*
X-62479996Y130849738D02*
X-62475045Y130860914D01*
X-65723995Y50630931D02*
X-65701364Y50601933D01*
X-12694069Y6592096D02*
X-12672889Y6562023D01*
X-73758090Y8105051D02*
X-73753537Y8100723D01*
X-75000000Y92498932D02*
X-75000000Y87505069D01*
X-5375Y81207755D02*
X-20283Y81403516D01*
X-65993120Y85141438D02*
X-66044131Y85113362D01*
X-62488278Y87325281D02*
X-62484445Y87336886D01*
X-8797235Y94955493D02*
X-8782615Y94960026D01*
X-9463575Y5120989D02*
X-9469599Y5131623D01*
X-62228595Y94685115D02*
X-62218109Y94696266D01*
X-12733844Y50642637D02*
X-12727894Y50635652D01*
X-12564773Y130921633D02*
X-12556790Y130912370D01*
X-65654712Y92520955D02*
X-65666115Y92516556D01*
X-66362541Y94991200D02*
X-66353442Y94990021D01*
X-62286472Y131000804D02*
X-62274340Y131002301D01*
X-2613752Y51249976D02*
X-2607862Y51252158D01*
X-74922578Y135388935D02*
X-74923801Y135386178D01*
X-12527614Y94229760D02*
X-12525439Y94220846D01*
X-9493440Y85898003D02*
X-9494641Y85910190D01*
X-73282429Y51717204D02*
X-73118501Y51609166D01*
X-9490589Y6130347D02*
X-9485416Y6165217D01*
X-62475045Y130860914D02*
X-62469551Y130871834D01*
X-20283Y54600485D02*
X-5375Y54796246D01*
X-71001571Y51002040D02*
X-70998430Y51002001D01*
X-9407964Y48558521D02*
X-9417218Y48566504D01*
X-9274407Y48503200D02*
X-9286536Y48504696D01*
X-712668Y42321D02*
X-709761Y43125D01*
X-9310502Y92509463D02*
X-9322281Y92512723D01*
X-12502054Y50044896D02*
X-12501076Y50005055D01*
X-65542965Y48612664D02*
X-65550002Y48602672D01*
X-116778Y135472146D02*
X-118134Y135474840D01*
X-74999960Y11000418D02*
X-74994947Y10802570D01*
X-9477684Y129798173D02*
X-9479639Y129807138D01*
X-72194432Y40819422D02*
X-72200426Y40817541D01*
X-65780809Y129308819D02*
X-65805735Y129283892D01*
X-12692403Y85414467D02*
X-12697732Y85406998D01*
X-72938423Y128500841D02*
X-72943916Y128497793D01*
X-9469599Y48633623D02*
X-9475094Y48644539D01*
X-247976Y126388249D02*
X-250158Y126394139D01*
X-61935285Y41103147D02*
X-61984257Y41128556D01*
X-9496575Y6067839D02*
X-9495543Y6083112D01*
X-73282450Y84286783D02*
X-73287606Y84283194D01*
X-12500347Y130754272D02*
X-12500997Y130006491D01*
X-3794271Y128996628D02*
X-3800545Y128996946D01*
X-65557566Y130912432D02*
X-65550047Y130902794D01*
X-9497346Y85946873D02*
X-9497947Y85959105D01*
X-62449999Y92602672D02*
X-62457036Y92612664D01*
X-12601672Y92551002D02*
X-12611664Y92543965D01*
X-74195052Y19285D02*
X-74192080Y18769D01*
X-2425518Y128679007D02*
X-2607838Y128751834D01*
X-62469551Y130871834D02*
X-62463528Y130882471D01*
X-71999526Y7128976D02*
X-71808280Y7084597D01*
X-9298578Y87497216D02*
X-9286536Y87499305D01*
X-9157058Y41249662D02*
X-9184313Y41274365D01*
X-74164963Y52556109D02*
X-74161118Y52551142D01*
X-9088844Y94808814D02*
X-9060023Y94829112D01*
X-9470404Y85765239D02*
X-9478463Y85801129D01*
X-65508463Y92690499D02*
X-65511723Y92678720D01*
X-898948Y5266D02*
X-807945Y18765D01*
X-8949086Y41109820D02*
X-8957205Y41114096D01*
X-8646559Y85013980D02*
X-8655610Y85015494D01*
X-12632674Y5029413D02*
X-12643592Y5023916D01*
X-9470647Y94237247D02*
X-9467019Y94252117D01*
X-65504458Y41920889D02*
X-65507913Y41885808D01*
X-65621989Y5035426D02*
X-65632623Y5029402D01*
X-12885488Y50789425D02*
X-12878360Y50783648D01*
X-12860506Y129234835D02*
X-12872278Y129225052D01*
X-44094Y135296674D02*
X-75087Y135383295D01*
X-13029155Y129121110D02*
X-13037325Y129116935D01*
X-66249884Y129034982D02*
X-66264754Y129031354D01*
X-9383794Y85536546D02*
X-9400332Y85569402D01*
X-65501076Y6005055D02*
X-65501000Y5998933D01*
X-62469565Y48633653D02*
X-62475060Y48644571D01*
X-12513215Y50156112D02*
X-12510876Y50140985D01*
X-62417793Y5064558D02*
X-62426646Y5072991D01*
X-62345234Y130984539D02*
X-62333830Y130988939D01*
X-71407790Y95022920D02*
X-71401541Y95022285D01*
X-3191746Y84919410D02*
X-3197899Y84920674D01*
X-74552939Y166954D02*
X-74474029Y119657D01*
X-5373Y10796271D02*
X-5055Y10802545D01*
X-1396965Y40039034D02*
X-1549122Y40163102D01*
X-128563Y82007656D02*
X-182572Y82196408D01*
X-74281194Y83289606D02*
X-74284783Y83284450D01*
X-65701423Y87497216D02*
X-65689499Y87494538D01*
X-19961Y135201567D02*
X-42315Y135290809D01*
X-65872278Y129225052D02*
X-65900068Y129203364D01*
X-74994628Y125207730D02*
X-74994946Y125201456D01*
X-13059185Y41105846D02*
X-13109345Y41082872D01*
X-65621989Y48537426D02*
X-65632623Y48531402D01*
X-1003044Y1D02*
X-996961Y150D01*
X-73287626Y84283180D02*
X-73445872Y84166978D01*
X-13281155Y94976562D02*
X-13272241Y94974387D01*
X-62405568Y50423529D02*
X-62400332Y50434599D01*
X-12565361Y41649675D02*
X-12570958Y41635428D01*
X-9219192Y41308819D02*
X-9227636Y41317688D01*
X-65601719Y130954481D02*
X-65592083Y130946959D01*
X-12501348Y43265171D02*
X-12501050Y43252939D01*
X-150Y996961D02*
X-1Y1003044D01*
X-12582783Y48566504D02*
X-12592037Y48558521D01*
X-71608829Y40955315D02*
X-71802077Y40920679D01*
X-12750062Y43502000D02*
X-12737830Y43501700D01*
X-65501301Y48738783D02*
X-65502200Y48726594D01*
X-1549142Y40163118D02*
X-1554109Y40166963D01*
X-65679831Y6572140D02*
X-65659395Y6541556D01*
X-61867973Y6930443D02*
X-61859475Y6933903D01*
X-3391172Y7048686D02*
X-3197924Y7083322D01*
X-61718846Y6976562D02*
X-61709857Y6978407D01*
X-66089628Y85091324D02*
X-66100823Y85086361D01*
X-12573931Y92574931D02*
X-12582783Y92566504D01*
X-9235987Y129326677D02*
X-9244211Y129335751D01*
X-66281155Y50976562D02*
X-66272241Y50974387D01*
X-8978865Y85125589D02*
X-9026523Y85153365D01*
X-66299129Y85023538D02*
X-66311140Y85021149D01*
X-9166250Y85257790D02*
X-9175324Y85266014D01*
X-65579527Y50389901D02*
X-65574841Y50378587D01*
X-74881844Y528618D02*
X-74880357Y525993D01*
X-3592185Y51022923D02*
X-3397431Y51047727D01*
X-62488224Y130826724D02*
X-62484393Y130838332D01*
X-62398282Y130954481D02*
X-62388289Y130961521D01*
X-706827Y44094D02*
X-620206Y75087D01*
X-9400332Y129569402D02*
X-9405568Y129580472D01*
X-62223401Y41313266D02*
X-62229605Y41320027D01*
X-9437760Y94345663D02*
X-9416139Y94399727D01*
X-74498853Y82940401D02*
X-74589752Y82766384D01*
X-66170718Y129058996D02*
X-66204190Y129047938D01*
X-62497757Y48726640D02*
X-62498653Y48738830D01*
X-250158Y9609862D02*
X-247976Y9615752D01*
X-74996957Y92502000D02*
X-74998975Y92501951D01*
X-65841871Y6753241D02*
X-65800327Y6714648D01*
X-9298578Y43497216D02*
X-9286536Y43499305D01*
X-18769Y135195580D02*
X-19285Y135198552D01*
X-12524079Y129789126D02*
X-12526762Y129777177D01*
X-9026523Y129153365D02*
X-9042041Y129163191D01*
X-715218Y83284450D02*
X-718807Y83289606D01*
X-72938401Y95503148D02*
X-72764384Y95412249D01*
X-62099933Y129203364D02*
X-62128931Y129225995D01*
X-9018764Y94855595D02*
X-9008260Y94861890D01*
X-65508519Y130814942D02*
X-65505844Y130803015D01*
X-184468Y126202450D02*
X-247968Y126388225D01*
X-9484445Y87336886D02*
X-9480046Y87348289D01*
X-74918679Y37804077D02*
X-74953315Y37610829D01*
X-74979716Y10600460D02*
X-74979081Y10594211D01*
X-9485416Y6165217D02*
X-9482707Y6180282D01*
X-1886874Y40398184D02*
X-2056063Y40497780D01*
X-73445872Y95837023D02*
X-73287626Y95720821D01*
X-74774824Y368052D02*
X-74772968Y365674D01*
X-12503426Y129936162D02*
X-12504458Y129920889D01*
X-62498929Y130754415D02*
X-62498632Y130766647D01*
X-12582783Y92566504D02*
X-12592037Y92558521D01*
X-9490028Y129870639D02*
X-9492276Y129888868D01*
X-65898919Y85204381D02*
X-65911157Y85195187D01*
X-504221Y126945938D02*
X-603817Y127115127D01*
X-9480046Y92655712D02*
X-9484445Y92667115D01*
X-12654712Y48520955D02*
X-12666115Y48516556D01*
X-65501769Y129969878D02*
X-65505342Y129911724D01*
X-9457617Y41717909D02*
X-9467428Y41753360D01*
X-9286536Y87499305D02*
X-9274407Y87500801D01*
X-62496843Y5212618D02*
X-62498332Y5224753D01*
X-407460Y97243302D02*
X-325492Y97421699D01*
X-20920Y54594211D02*
X-20285Y54600460D01*
X-62496594Y50069374D02*
X-62495693Y50081587D01*
X-62417186Y48566519D02*
X-62426038Y48574949D01*
X-61781109Y41043675D02*
X-61798685Y41049007D01*
X-65601672Y43452999D02*
X-65592037Y43445480D01*
X-620206Y135928414D02*
X-706827Y135959407D01*
X-9478463Y41801129D02*
X-9480852Y41813140D01*
X-8652619Y6989141D02*
X-8640505Y6990938D01*
X-12565536Y43420199D02*
X-12557553Y43410943D01*
X-12725661Y5001200D02*
X-12737852Y5000301D01*
X-62018764Y129148406D02*
X-62049840Y129168086D01*
X-12503696Y48714465D02*
X-12505785Y48702423D01*
X-65701423Y5004785D02*
X-65713465Y5002696D01*
X-13272241Y129029614D02*
X-13281155Y129027439D01*
X-74284797Y39284429D02*
X-74392835Y39120501D01*
X-368052Y225177D02*
X-365674Y227033D01*
X-66180866Y41055485D02*
X-66192494Y41051644D01*
X-116767Y531377D02*
X-77433Y614544D01*
X-74498853Y126940401D02*
X-74589752Y126766384D01*
X-74918679Y125804077D02*
X-74953315Y125610829D01*
X-62493440Y85898003D02*
X-62494641Y85910190D01*
X-74676997Y53427495D02*
X-74674520Y53421722D01*
X-73445892Y40166963D02*
X-73450859Y40163118D01*
X-62322281Y43491278D02*
X-62310502Y43494538D01*
X-61506310Y51001571D02*
X-61491679Y51002000D01*
X-66056376Y129107051D02*
X-66088243Y129091979D01*
X-62450357Y129694494D02*
X-62461035Y129729693D01*
X-12632623Y48531402D02*
X-12643539Y48525907D01*
X0Y11003584D02*
X0Y37000417D01*
X-72580279Y51327481D02*
X-72574506Y51325004D01*
X-74032927Y127609821D02*
X-74037018Y127605055D01*
X-62274407Y87500801D02*
X-62262218Y87501700D01*
X-73118480Y51609153D02*
X-73113149Y51605830D01*
X-61933967Y6901643D02*
X-61920090Y6908103D01*
X-119644Y525993D02*
X-118157Y528618D01*
X-13507204Y95002000D02*
X-13494804Y95001692D01*
X-61798685Y85049007D02*
X-61850846Y85066951D01*
X-62457611Y5110752D02*
X-62464148Y5121085D01*
X-74999951Y4998975D02*
X-75000000Y4996957D01*
X-12518887Y41814650D02*
X-12521965Y41799656D01*
X-73896950Y127760090D02*
X-73901278Y127755537D01*
X-9158130Y6753241D02*
X-9146601Y6763310D01*
X-9274407Y131002301D02*
X-9262218Y131003200D01*
X-12677778Y5010727D02*
X-12689559Y5007466D01*
X-12520005Y5153763D02*
X-12524956Y5142587D01*
X-65880650Y6785673D02*
X-65853400Y6763310D01*
X-65515556Y87336886D02*
X-65511723Y87325281D01*
X-61736762Y129031597D02*
X-61748641Y129034573D01*
X-12892832Y94794942D02*
X-12878353Y94783642D01*
X-2805593Y128819429D02*
X-2994345Y128873438D01*
X-9200790Y6713611D02*
X-9158130Y6753241D01*
X-9267166Y94641495D02*
X-9228595Y94685115D01*
X-81327Y37804102D02*
X-82591Y37810255D01*
X-718821Y83289626D02*
X-835023Y83447872D01*
X-13095233Y129088860D02*
X-13103689Y129085296D01*
X-74589764Y126766362D02*
X-74592530Y126760722D01*
X-65557477Y50332738D02*
X-65545938Y50297811D01*
X-72005631Y51130557D02*
X-71999550Y51128982D01*
X-12737807Y85356656D02*
X-12749803Y85342748D01*
X-61977541Y6879184D02*
X-61964086Y6886482D01*
X-12601705Y43452987D02*
X-12592069Y43445466D01*
X-1026Y4999951D02*
X-3044Y5000000D01*
X-66493691Y85002430D02*
X-66508322Y85002000D01*
X-12592037Y48558521D02*
X-12601672Y48551002D01*
X-8933967Y94901643D02*
X-8920090Y94908103D01*
X-12525439Y50220846D02*
X-12523594Y50211857D01*
X-12550034Y43401306D02*
X-12542997Y43391312D01*
X-65748691Y129343807D02*
X-65772365Y129317688D01*
X-3794271Y40996628D02*
X-3800545Y40996946D01*
X-65582783Y48566504D02*
X-65592037Y48558521D01*
X-72938401Y7503148D02*
X-72764384Y7412249D01*
X-12872278Y129225052D02*
X-12898861Y129204307D01*
X-74192056Y18765D02*
X-74101053Y5266D01*
X-65713465Y5002696D02*
X-65725594Y5001200D01*
X-8637451Y41012800D02*
X-8655619Y41015495D01*
X-65515556Y43336886D02*
X-65511723Y43325281D01*
X-74396171Y52888852D02*
X-74392848Y52883521D01*
X-65503696Y92714465D02*
X-65505785Y92702423D01*
X-9416139Y6399727D02*
X-9410022Y6413758D01*
X-292930Y292965D02*
X-290850Y295149D01*
X-74749834Y53609838D02*
X-74677007Y53427518D01*
X-65542965Y92612664D02*
X-65550002Y92602672D01*
X-73287606Y95720807D02*
X-73282450Y95717218D01*
X-62438399Y50344268D02*
X-62425160Y50378587D01*
X-62281642Y6623648D02*
X-62246121Y6665863D01*
X-13034546Y6885794D02*
X-13023746Y6880021D01*
X-62499000Y93997401D02*
X-62498831Y94006584D01*
X-74634365Y135776437D02*
X-74636649Y135774467D01*
X-62485191Y50166733D02*
X-62483098Y50178799D01*
X-2607862Y40751843D02*
X-2613752Y40754025D01*
X-13506495Y85002001D02*
X-61494053Y85002628D01*
X-12557566Y5091069D02*
X-12565549Y5081811D01*
X-9467019Y50252117D02*
X-9457617Y50286092D01*
X-2613776Y40754033D02*
X-2799551Y40817533D01*
X-9398329Y92551002D02*
X-9407964Y92558521D01*
X-62310442Y130996035D02*
X-62298516Y130998714D01*
X-9425160Y50378587D02*
X-9420474Y50389901D01*
X-65610557Y41547437D02*
X-65627174Y41516348D01*
X-74631929Y225162D02*
X-74558035Y170359D01*
X-62356462Y92525907D02*
X-62367378Y92531402D01*
X-74815533Y9801551D02*
X-74752033Y9615776D01*
X-1886874Y128398184D02*
X-2056063Y128497780D01*
X-74468646Y135886723D02*
X-74471340Y135885367D01*
X-8976255Y94880021D02*
X-8965455Y94885794D01*
X-13149155Y94937050D02*
X-13132019Y94930440D01*
X-62049840Y94835915D02*
X-62018764Y94855595D01*
X-61920090Y94908103D02*
X-61867982Y94930440D01*
X-8726310Y41029135D02*
X-8760505Y41037700D01*
X-62398901Y5049043D02*
X-62408537Y5056568D01*
X-65503696Y48714465D02*
X-65505785Y48702423D01*
X-73607840Y40034910D02*
X-73753518Y39903295D01*
X-62322827Y5010732D02*
X-62334437Y5014569D01*
X-62473239Y129777177D02*
X-62475922Y129789126D01*
X-72200426Y7186460D02*
X-72194432Y7184579D01*
X-65530402Y92633623D02*
X-65536426Y92622989D01*
X-74281194Y39289606D02*
X-74284783Y39284450D01*
X-504208Y53058085D02*
X-501160Y53063578D01*
X-9426070Y48574931D02*
X-9434497Y48583783D01*
X-8748641Y94969428D02*
X-8736762Y94972404D01*
X-9286536Y92504696D02*
X-9298578Y92506785D01*
X-12749803Y85342748D02*
X-12787346Y85302334D01*
X-71407790Y51022920D02*
X-71401541Y51022285D01*
X-4001571Y51002001D02*
X-3998430Y51002040D01*
X-65824677Y50737987D02*
X-65798037Y50712623D01*
X-65542384Y41717909D02*
X-65545938Y41706190D01*
X-12725640Y87500801D02*
X-12713509Y87499304D01*
X-12505844Y5200486D02*
X-12508519Y5188559D01*
X-12622024Y87466566D02*
X-12611698Y87460026D01*
X-12722204Y94628453D02*
X-12688798Y94584546D01*
X-71999550Y40875019D02*
X-72005631Y40873444D01*
X-65515556Y92667115D02*
X-65519955Y92655712D01*
X-62398329Y87452999D02*
X-62388337Y87460036D01*
X-62367327Y130974088D02*
X-62356409Y130979585D01*
X-74709168Y135708334D02*
X-74770951Y135640167D01*
X-66140526Y50933903D02*
X-66132028Y50930443D01*
X-617369Y135927320D02*
X-620183Y135928405D01*
X-65561602Y50344268D02*
X-65557477Y50332738D01*
X-62443056Y5091111D02*
X-62450575Y5100753D01*
X-12601147Y85566716D02*
X-12627257Y85516392D01*
X-12973470Y129153369D02*
X-13021144Y129125584D01*
X-962983Y127605055D02*
X-967074Y127609821D01*
X-12536426Y48622989D02*
X-12542965Y48612664D01*
X-8607349Y129009092D02*
X-8661685Y129016471D01*
X-65737783Y43501700D02*
X-65725594Y43500801D01*
X-65565504Y92583783D02*
X-65573931Y92574931D01*
X-74953319Y125610804D02*
X-74954270Y125604595D01*
X-65501072Y130754415D02*
X-65501299Y129985104D01*
X-12503407Y6069374D02*
X-12501600Y6032598D01*
X-74917404Y98193721D02*
X-74873025Y98002475D01*
X-65502054Y50044896D02*
X-65501076Y50005055D01*
X-1Y135000457D02*
X-150Y135006540D01*
X-65611712Y130961521D02*
X-65601719Y130954481D01*
X-325492Y126582302D02*
X-407460Y126760699D01*
X-12524941Y87359430D02*
X-12519990Y87348254D01*
X-12504308Y6081587D02*
X-12503407Y6069374D01*
X-62276874Y129374335D02*
X-62312131Y129420674D01*
X-65748760Y6660130D02*
X-65738691Y6648601D01*
X-8711355Y41025873D02*
X-8726310Y41029135D01*
X-62498400Y50032610D02*
X-62496594Y50069374D01*
X-71205755Y40996626D02*
X-71401516Y40981718D01*
X-2235639Y40591764D02*
X-2241279Y40594530D01*
X-62262149Y131003200D02*
X-62249917Y131003500D01*
X-12557553Y43410943D02*
X-12550034Y43401306D01*
X-8589941Y50996659D02*
X-8506310Y51001571D01*
X-9377184Y41524460D02*
X-9384482Y41537915D01*
X-62223401Y85313266D02*
X-62229605Y85320027D01*
X-62498700Y87265218D02*
X-62497801Y87277407D01*
X-73450859Y51840883D02*
X-73445892Y51837038D01*
X-65557521Y92593037D02*
X-65565504Y92583783D01*
X-8977541Y129124817D02*
X-9026523Y129153365D01*
X-62262171Y48502301D02*
X-62274361Y48503200D01*
X-12501301Y48738783D02*
X-12502200Y48726594D01*
X-66132028Y50930443D02*
X-66081311Y50908703D01*
X-12505095Y130802892D02*
X-12503013Y130790842D01*
X-9305932Y85411905D02*
X-9327112Y85441978D01*
X-12660324Y85461224D02*
X-12692403Y85414467D01*
X-1241911Y127898950D02*
X-1246464Y127903278D01*
X-61773746Y50962500D02*
X-61759019Y50966673D01*
X-65841871Y41250760D02*
X-65853400Y41240691D01*
X-61781109Y6960326D02*
X-61727760Y6974387D01*
X-9490589Y94130347D02*
X-9485416Y94165217D01*
X-12501769Y85969866D02*
X-12505342Y85911724D01*
X-12502200Y48726594D02*
X-12503696Y48714465D01*
X-62492088Y5188638D02*
X-62494760Y5200569D01*
X-73287606Y51720807D02*
X-73282450Y51717218D01*
X-65530402Y48633623D02*
X-65536426Y48622989D01*
X-13362541Y129012801D02*
X-13418978Y129006543D01*
X-62425160Y50378587D02*
X-62420474Y50389901D01*
X-12999779Y94866401D02*
X-12952810Y94837459D01*
X-12648141Y94523292D02*
X-12638699Y94507538D01*
X-12700743Y130998710D02*
X-12688812Y130996030D01*
X-62484445Y43336886D02*
X-62480046Y43348289D01*
X-12607820Y94451086D02*
X-12603846Y94442816D01*
X-74995334Y905023D02*
X-74995112Y902015D01*
X-65504458Y85920889D02*
X-65507913Y85885808D01*
X-65666086Y50551840D02*
X-65646406Y50520764D01*
X-12999772Y50866397D02*
X-12952810Y50837459D01*
X-74101053Y135998235D02*
X-74192056Y135984736D01*
X-62480611Y5153831D02*
X-62485005Y5165240D01*
X-184460Y97801575D02*
X-182579Y97807569D01*
X-65780809Y94695182D02*
X-65772365Y94686313D01*
X-66067402Y6902332D02*
X-66035915Y6886482D01*
X-62250504Y5000000D02*
X-62262739Y5000301D01*
X-65713529Y131000804D02*
X-65701485Y130998714D01*
X-72392139Y51252158D02*
X-72386249Y51249976D01*
X-65536473Y130882471D02*
X-65530450Y130871834D01*
X-12783055Y50697269D02*
X-12770390Y50683967D01*
X-2805593Y84819429D02*
X-2994345Y84873438D01*
X-65502200Y87277407D02*
X-65501301Y87265218D01*
X-9235987Y6677324D02*
X-9211680Y6702855D01*
X-1241911Y83898950D02*
X-1246464Y83903278D01*
X-12524941Y43359430D02*
X-12519990Y43348254D01*
X-62395605Y6444240D02*
X-62388639Y6457870D01*
X-65654712Y48520955D02*
X-65666115Y48516556D01*
X-184468Y82202450D02*
X-247968Y82388225D01*
X-62277797Y85375548D02*
X-62311203Y85419455D01*
X-13169263Y6944524D02*
X-13157733Y6940399D01*
X-74164978Y39447872D02*
X-74281180Y39289626D01*
X-74676997Y97427495D02*
X-74674520Y97421722D01*
X-62442435Y130912432D02*
X-62434452Y130921690D01*
X-835038Y39447892D02*
X-838883Y39452859D01*
X-13506494Y41002001D02*
X-61493867Y41002549D01*
X-74871444Y82007631D02*
X-74873019Y82001550D01*
X-13266254Y41031036D02*
X-13320228Y41019610D01*
X-65737783Y48502301D02*
X-65750013Y48502000D01*
X-74468624Y116767D02*
X-74385457Y77433D01*
X-65708794Y94611697D02*
X-65686882Y94582152D01*
X-12510876Y94140985D02*
X-12506561Y94105998D01*
X-410237Y53237639D02*
X-407471Y53243279D01*
X-62480046Y87348289D02*
X-62475094Y87359462D01*
X-65601672Y87452999D02*
X-65592037Y87445480D01*
X-74954274Y81604570D02*
X-74979078Y81409816D01*
X-9495543Y50083112D02*
X-9492088Y50118193D01*
X-2241279Y95409471D02*
X-2235639Y95412237D01*
X-62352775Y6522058D02*
X-62334735Y6550546D01*
X-13204190Y6956063D02*
X-13169263Y6944524D01*
X-62434452Y130921690D02*
X-62426024Y130930544D01*
X-12643275Y50515502D02*
X-12638703Y50507546D01*
X-61505197Y7001692D02*
X-61492797Y7002000D01*
X-62286536Y43499305D02*
X-62274407Y43500801D01*
X-62177465Y41268208D02*
X-62216953Y41306738D01*
X-62345251Y48520959D02*
X-62356425Y48525913D01*
X-9333886Y5014556D02*
X-9345289Y5018955D01*
X-62353595Y94520764D02*
X-62333915Y94551840D01*
X-74198043Y19955D02*
X-74195100Y19294D01*
X-13359496Y6990938D02*
X-13347382Y6989141D01*
X-62434124Y129648232D02*
X-62446516Y129682866D01*
X-13170718Y129058996D02*
X-13202736Y129048419D01*
X-65716328Y94621351D02*
X-65708794Y94611697D01*
X-71001583Y41001960D02*
X-71199431Y40996947D01*
X-74994735Y898948D02*
X-74981236Y807945D01*
X-62360563Y6508881D02*
X-62352775Y6522058D01*
X-967091Y39609840D02*
X-1098706Y39755518D01*
X-65508463Y48690499D02*
X-65511723Y48678720D01*
X-1098706Y8248483D02*
X-967091Y8394161D01*
X-62434497Y92583783D02*
X-62442480Y92593037D01*
X-62434465Y48583802D02*
X-62442448Y48593058D01*
X-247968Y9615776D02*
X-184468Y9801551D01*
X-962983Y83605055D02*
X-967074Y83609821D01*
X-66338306Y6987528D02*
X-66329238Y6986126D01*
X-9449999Y48602672D02*
X-9457036Y48612664D01*
X-74752033Y126388225D02*
X-74815533Y126202450D01*
X-9218109Y94696266D02*
X-9193182Y94721192D01*
X-13157733Y6940399D02*
X-13123414Y6927160D01*
X-62463528Y130882471D02*
X-62456990Y130892799D01*
X-65677720Y87491278D02*
X-65666115Y87487445D01*
X-9405568Y41580472D02*
X-9420474Y41614100D01*
X-62498701Y50020417D02*
X-62498400Y50032610D01*
X-62494216Y92702423D02*
X-62496305Y92714465D01*
X-62274361Y48503200D02*
X-62286492Y48504697D01*
X-71401516Y7022283D02*
X-71205755Y7007375D01*
X-73753537Y39903278D02*
X-73758090Y39898950D01*
X-62435074Y5081850D02*
X-62443056Y5091111D01*
X-66266254Y6972965D02*
X-66248437Y6968502D01*
X-9493440Y41898003D02*
X-9494641Y41910190D01*
X-3397431Y40956274D02*
X-3592185Y40981078D01*
X-50Y87503026D02*
X-1Y87505044D01*
X-65643539Y92525907D02*
X-65654712Y92520955D01*
X-9310502Y48509463D02*
X-9322281Y48512723D01*
X-166966Y135556460D02*
X-168580Y135559008D01*
X-4667Y135098478D02*
X-4889Y135101486D01*
X-13353442Y129013980D02*
X-13362541Y129012801D01*
X-66418978Y50997458D02*
X-66362550Y50991201D01*
X-996936Y151D02*
X-905048Y4665D01*
X-1881521Y128394848D02*
X-1886852Y128398171D01*
X-74999961Y81003571D02*
X-75000000Y81000430D01*
X-12511723Y48678720D02*
X-12515556Y48667115D01*
X-62249988Y92502000D02*
X-62262218Y92502301D01*
X-61655610Y85015494D02*
X-61709857Y85025594D01*
X-9348636Y129475478D02*
X-9377184Y129524460D01*
X-62367941Y5029427D02*
X-62378578Y5035456D01*
X-9339755Y41461171D02*
X-9347865Y41474153D01*
X-13434078Y129005331D02*
X-13494804Y129002309D01*
X-170359Y135561535D02*
X-225162Y135635429D01*
X-66178027Y6947380D02*
X-66124877Y6927624D01*
X-66241004Y41037419D02*
X-66297656Y41023965D01*
X-65502655Y94057128D02*
X-65502054Y94044896D01*
X-250158Y97609862D02*
X-247976Y97615752D01*
X-65627174Y85516348D02*
X-65634800Y85503076D01*
X-12718359Y41380353D02*
X-12753880Y41338138D01*
X-12502054Y94044896D02*
X-12501076Y94005055D01*
X-61637451Y6991201D02*
X-61581023Y6997458D01*
X-9158194Y94753310D02*
X-9146542Y94763237D01*
X-12512860Y41849382D02*
X-12518887Y41814650D01*
X-62321022Y129433135D02*
X-62340606Y129462445D01*
X-1098723Y83755537D02*
X-1103051Y83760090D01*
X-73901295Y127755518D02*
X-74032910Y127609840D01*
X-12911211Y129195264D02*
X-12957968Y129163186D01*
X-72200426Y95186460D02*
X-72194432Y95184579D01*
X-65919849Y6815119D02*
X-65890304Y6793207D01*
X-74704852Y135712651D02*
X-74707036Y135710571D01*
X-74979718Y125403516D02*
X-74994626Y125207755D01*
X-407460Y53243302D02*
X-325492Y53421699D01*
X0Y87505069D02*
X0Y92498932D01*
X-2061578Y51503160D02*
X-2056085Y51506208D01*
X-65643539Y48525907D02*
X-65654712Y48520955D01*
X-42321Y135290833D02*
X-43125Y135293740D01*
X-9372827Y6487653D02*
X-9365201Y6500925D01*
X-74589752Y53237617D02*
X-74498853Y53063600D01*
X-62356409Y130979585D02*
X-62345234Y130984539D01*
X-65514585Y41838784D02*
X-65517294Y41823719D01*
X-9484445Y92667115D02*
X-9488278Y92678720D01*
X-74995112Y135101486D02*
X-74995334Y135098478D01*
X-74955915Y135296651D02*
X-74956861Y135293787D01*
X-62442448Y48593058D02*
X-62449967Y48602695D01*
X-12501348Y87265171D02*
X-12501050Y87252939D01*
X-62407918Y130946959D02*
X-62398282Y130954481D01*
X-62311203Y41419455D02*
X-62321779Y41434471D01*
X-13272241Y94974387D02*
X-13218892Y94960326D01*
X-9262218Y48502301D02*
X-9274407Y48503200D01*
X-12530402Y48633623D02*
X-12536426Y48622989D01*
X-62486507Y94157610D02*
X-62476128Y94213355D01*
X-72580279Y7327481D02*
X-72574506Y7325004D01*
X-9372827Y94487653D02*
X-9365201Y94500925D01*
X-3998430Y41001961D02*
X-4001571Y41002000D01*
X-65918618Y41189795D02*
X-65931186Y41181058D01*
X-3000451Y95128982D02*
X-2994370Y95130557D01*
X-12611698Y87460026D02*
X-12601705Y87452987D01*
X-65529597Y50238762D02*
X-65521538Y50202872D01*
X-65764014Y50677324D02*
X-65755790Y50668250D01*
X-62490589Y129873654D02*
X-62492088Y129885808D01*
X-9442524Y85671263D02*
X-9454063Y85706190D01*
X-65512860Y94154619D02*
X-65511063Y94142505D01*
X-45731Y125604595D02*
X-46682Y125610804D01*
X-20285Y125403541D02*
X-20920Y125409790D01*
X-65781892Y85307735D02*
X-65806819Y85282809D01*
X-65501170Y41997417D02*
X-65503426Y41936162D01*
X-13353442Y94990021D02*
X-13344391Y94988507D01*
X-74704834Y290833D02*
X-74636667Y229050D01*
X-74037018Y52398946D02*
X-74032927Y52394180D01*
X-71808280Y128919404D02*
X-71999526Y128875025D01*
X-65880650Y41218328D02*
X-65890304Y41210794D01*
X-62434124Y6355769D02*
X-62429716Y6367194D01*
X-62039556Y50842606D02*
X-62029210Y50849158D01*
X-65573931Y92574931D02*
X-65582783Y92566504D01*
X-9249988Y43502000D02*
X-3069Y43502000D01*
X-12523594Y94211857D02*
X-12513215Y94156112D01*
X-1549142Y84163118D02*
X-1554109Y84166963D01*
X-12621271Y130968036D02*
X-12610942Y130961491D01*
X-9426070Y5072931D02*
X-9434497Y5081783D01*
X-9305932Y94592096D02*
X-9298637Y94601933D01*
X-9006927Y50862645D02*
X-8976255Y50880021D01*
X-12957968Y129163186D02*
X-12965628Y129158135D01*
X-501160Y38940423D02*
X-504208Y38945916D01*
X-8920090Y50908103D02*
X-8866573Y50931043D01*
X-62494216Y87301578D02*
X-62491538Y87313502D01*
X-1098723Y127755537D02*
X-1103051Y127760090D01*
X-71205755Y128996626D02*
X-71401516Y128981718D01*
X-71608804Y7048682D02*
X-71602595Y7047731D01*
X-66022460Y6879184D02*
X-65972153Y6849865D01*
X-61727760Y41029614D02*
X-61781109Y41043675D01*
X-65550002Y48602672D02*
X-65557521Y48593037D01*
X-62496305Y92714465D02*
X-62497801Y92726594D01*
X-1103051Y8243911D02*
X-1098723Y8248464D01*
X-61492797Y7002000D02*
X-13508322Y7002000D01*
X-65524907Y87359462D02*
X-65519955Y87348289D01*
X-65545938Y50297811D02*
X-65542384Y50286092D01*
X-73113127Y95605817D02*
X-72943938Y95506221D01*
X-66353442Y94990021D02*
X-66344391Y94988507D01*
X-73758108Y83898932D02*
X-73896932Y83760108D01*
X-9384482Y41537915D02*
X-9400332Y41569402D01*
X-718821Y39289626D02*
X-835023Y39447872D01*
X-65737852Y131003200D02*
X-65725661Y131002301D01*
X-65640111Y50510260D02*
X-65621980Y50478255D01*
X-13023746Y6880021D02*
X-12991741Y6861890D01*
X-70998430Y85002000D02*
X-71001571Y85001961D01*
X-9049840Y94835915D02*
X-9018764Y94855595D01*
X-65537351Y6268401D02*
X-65535067Y6259515D01*
X-65755790Y50668250D02*
X-65731764Y50640397D01*
X-74979716Y54600460D02*
X-74979081Y54594211D01*
X-9487141Y41849382D02*
X-9488938Y41861496D01*
X-65592037Y43445480D02*
X-65582783Y43437497D01*
X-1103069Y39760108D02*
X-1241893Y39898932D01*
X-12594433Y6423529D02*
X-12580148Y6391301D01*
X-8850846Y94937050D02*
X-8797235Y94955493D01*
X-65573931Y43429070D02*
X-65565504Y43420218D01*
X-12573963Y43429052D02*
X-12565536Y43420199D01*
X-66057761Y41106396D02*
X-66089628Y41091324D01*
X-62407964Y87445480D02*
X-62398329Y87452999D01*
X-62296668Y50604272D02*
X-62262194Y50647345D01*
X-66014392Y50874744D02*
X-66001028Y50867281D01*
X-12750013Y48502000D02*
X-62249939Y48502000D01*
X-72758699Y7409460D02*
X-72580302Y7327492D01*
X-9184313Y41274365D02*
X-9193182Y41282809D01*
X-65501170Y85997417D02*
X-65503426Y85936162D01*
X-74918674Y10199899D02*
X-74917410Y10193746D01*
X-9378021Y85525746D02*
X-9383794Y85536546D01*
X-12592037Y92558521D02*
X-12601672Y92551002D01*
X-73896932Y8243893D02*
X-73758108Y8105069D01*
X-81322Y10199924D02*
X-46686Y10393172D01*
X-9081383Y50814206D02*
X-9068815Y50822943D01*
X-9305932Y50592096D02*
X-9298637Y50601933D01*
X-65627896Y6489004D02*
X-65611279Y6457915D01*
X-9356462Y48525907D02*
X-9367378Y48531402D01*
X-61850846Y94937050D02*
X-61797235Y94955493D01*
X-8758997Y50966582D02*
X-8702345Y50980036D01*
X-74772968Y135637827D02*
X-74774824Y135635449D01*
X-9457617Y94286092D02*
X-9454063Y94297811D01*
X-9373445Y50486257D02*
X-9369070Y50494322D01*
X-8506310Y51001571D02*
X-8491679Y51002000D01*
X-65556996Y85672718D02*
X-65562241Y85658338D01*
X-19955Y801958D02*
X-19294Y804901D01*
X-65519149Y94190861D02*
X-65512860Y94154619D01*
X-8921529Y129096433D02*
X-8932599Y129101669D01*
X-8804551Y129050865D02*
X-8813316Y129053582D01*
X-65611664Y48543965D02*
X-65621989Y48537426D01*
X-12950161Y6835915D02*
X-12939978Y6829112D01*
X-74953319Y81610804D02*
X-74954270Y81604595D01*
X-9499000Y92751013D02*
X-9499000Y93997401D01*
X-9437847Y129658304D02*
X-9442915Y129672747D01*
X-12878360Y50783648D02*
X-12836138Y50748121D01*
X-73758090Y52105051D02*
X-73753537Y52100723D01*
X-13508322Y7002000D02*
X-13493691Y7001571D01*
X-13021144Y129125584D02*
X-13029155Y129121110D01*
X-9475094Y43359462D02*
X-9469599Y43370378D01*
X-65545938Y85706190D02*
X-65556996Y85672718D01*
X-43140Y135293787D02*
X-44086Y135296651D01*
X-41Y125003583D02*
X-5054Y125201431D01*
X-9322281Y43491278D02*
X-9310502Y43494538D01*
X-73445892Y84166963D02*
X-73450859Y84163118D01*
X-62496263Y48714509D02*
X-62497757Y48726640D01*
X-8964086Y129117519D02*
X-8977541Y129124817D01*
X-151Y135006565D02*
X-4665Y135098453D01*
X-74981232Y807921D02*
X-74980716Y804949D01*
X-65621989Y87466575D02*
X-65611664Y87460036D01*
X-74161118Y39452859D02*
X-74164963Y39447892D01*
X-905023Y4667D02*
X-902015Y4889D01*
X-66508322Y7002000D02*
X-66493691Y7001571D01*
X-65652843Y94531210D02*
X-65633932Y94499659D01*
X-9268237Y129363604D02*
X-9276006Y129373070D01*
X-65502200Y43277407D02*
X-65501301Y43265218D01*
X-9327112Y85441978D02*
X-9333915Y85452161D01*
X-71602595Y128956270D02*
X-71608804Y128955319D01*
X-12722204Y50628453D02*
X-12688798Y50584546D01*
X-2235617Y95412249D02*
X-2061600Y95503148D01*
X-9494641Y85910190D02*
X-9497346Y85946873D01*
X-72580302Y84676509D02*
X-72758699Y84594541D01*
X-12519955Y48655712D02*
X-12524907Y48644539D01*
X-12582815Y87437482D02*
X-12573963Y87429052D01*
X-61588420Y50996748D02*
X-61506310Y51001571D01*
X-709714Y43140D02*
X-706850Y44086D01*
X-9184313Y50729636D02*
X-9157058Y50754339D01*
X-12677027Y130992767D02*
X-12665417Y130988929D01*
X-12536473Y5121030D02*
X-12543011Y5110702D01*
X-9274407Y5001200D02*
X-9286536Y5002696D01*
X-12512860Y85849382D02*
X-12519149Y85813140D01*
X-1098706Y96248483D02*
X-967091Y96394161D01*
X-1717572Y84286797D02*
X-1881500Y84394835D01*
X-603830Y127115149D02*
X-607153Y127120480D01*
X-5054Y98802570D02*
X-41Y99000418D01*
X-62334437Y5014569D02*
X-62345844Y5018971D01*
X-9345289Y5018955D02*
X-9356462Y5023907D01*
X-62498835Y6006499D02*
X-62496575Y6067839D01*
X-3391197Y40955319D02*
X-3397406Y40956270D01*
X-12689499Y48509463D02*
X-12701423Y48506785D01*
X-4889Y902015D02*
X-4667Y905023D01*
X-65543011Y130892799D02*
X-65536473Y130882471D01*
X-12701364Y6601933D02*
X-12694069Y6592096D01*
X-61709857Y41025594D02*
X-61718846Y41027439D01*
X-9286536Y43499305D02*
X-9274407Y43500801D01*
X-12501301Y92738783D02*
X-12502200Y92726594D01*
X-12689540Y87494536D02*
X-12677760Y87491276D01*
X-46686Y125610829D02*
X-81322Y125804077D01*
X-2061600Y128500853D02*
X-2235617Y128591752D01*
X-368072Y135778339D02*
X-441966Y135833142D01*
X-12529597Y85765239D02*
X-12532573Y85753360D01*
X-12638703Y50507546D02*
X-12612101Y50459213D01*
X-72580302Y128676509D02*
X-72758699Y128594541D01*
X-74995108Y901966D02*
X-74994738Y898973D01*
X-9496305Y130791036D02*
X-9494216Y130803078D01*
X-62321779Y41434471D02*
X-62351865Y41480717D01*
X-12591310Y130946920D02*
X-12582054Y130938929D01*
X-62407932Y48558535D02*
X-62417186Y48566519D01*
X-12542965Y48612664D02*
X-12550002Y48602672D01*
X-65694069Y85411905D02*
X-65701364Y85402068D01*
X-66392652Y129009092D02*
X-66402099Y129007992D01*
X-407471Y38760722D02*
X-410237Y38766362D01*
X-71999550Y84875019D02*
X-72005631Y84873444D01*
X-8688861Y94982852D02*
X-8652619Y94989141D01*
X-72943938Y128497780D02*
X-73113127Y128398184D01*
X-61867982Y94930440D02*
X-61850846Y94937050D01*
X-65931186Y41181058D02*
X-65978709Y41150141D01*
X-62476128Y41790646D02*
X-62486786Y41847889D01*
X-62361298Y41496455D02*
X-62387900Y41544788D01*
X-12501000Y48751013D02*
X-12501301Y48738783D01*
X-62420474Y50389901D02*
X-62405568Y50423529D01*
X-73445892Y128166963D02*
X-73450859Y128163118D01*
X-65605051Y94445625D02*
X-65589979Y94413758D01*
X-8852326Y50936640D02*
X-8819135Y50948516D01*
X-12573201Y130930493D02*
X-12564773Y130921633D01*
X-62489125Y85863016D02*
X-62493440Y85898003D01*
X-9378012Y48537426D02*
X-9388337Y48543965D01*
X-45727Y10399431D02*
X-20923Y10594185D01*
X-61887901Y50922474D02*
X-61876587Y50927160D01*
X-74382632Y76181D02*
X-74379818Y75096D01*
X-73896932Y96243893D02*
X-73758108Y96105069D01*
X-62361298Y85496455D02*
X-62387900Y85544788D01*
X-9488278Y87325281D02*
X-9484445Y87336886D01*
X-71802077Y7083322D02*
X-71608829Y7048686D01*
X-12524079Y6214875D02*
X-12516903Y6178799D01*
X-5373Y54796271D02*
X-5055Y54802545D01*
X-247976Y82388249D02*
X-250158Y82394139D01*
X-247968Y53615776D02*
X-184468Y53801551D01*
X-838883Y8551142D02*
X-835038Y8556109D01*
X-65909905Y94807932D02*
X-65900068Y94800637D01*
X-61887901Y129081527D02*
X-61921529Y129096433D01*
X-62483098Y50178799D02*
X-62476221Y50213373D01*
X-74471383Y135885344D02*
X-74474008Y135883857D01*
X-12917462Y41190792D02*
X-12924865Y41185372D01*
X-9496305Y87289536D02*
X-9494216Y87301578D01*
X-61984257Y85128556D02*
X-61992322Y85132931D01*
X-9425160Y41625414D02*
X-9438399Y41659733D01*
X-12535700Y6262505D02*
X-12526762Y6226824D01*
X-74815533Y53801551D02*
X-74752033Y53615776D01*
X-607153Y52883521D02*
X-603830Y52888852D01*
X-62274933Y5001201D02*
X-62287068Y5002698D01*
X-65772365Y94686313D02*
X-65747662Y94659058D01*
X-3069Y48502000D02*
X-9249988Y48502000D01*
X-74032910Y96394161D02*
X-73901295Y96248483D01*
X-1392161Y51969091D02*
X-1246483Y52100706D01*
X-74032910Y8394161D02*
X-73901295Y8248483D01*
X-12501072Y5249086D02*
X-12501369Y5236854D01*
X-65536426Y5120989D02*
X-65542965Y5110664D01*
X-12804732Y41285055D02*
X-12818034Y41272390D01*
X-12937538Y50827255D02*
X-12892825Y50794936D01*
X-12511777Y5176777D02*
X-12515608Y5165169D01*
X-72758699Y51409460D02*
X-72580302Y51327492D01*
X-65938726Y129175771D02*
X-65951505Y129167346D01*
X-62384398Y94466045D02*
X-62377266Y94479588D01*
X-73113149Y84398171D02*
X-73118480Y84394848D01*
X-13224794Y85041964D02*
X-13242495Y85037065D01*
X-74592541Y38760699D02*
X-74674509Y38582302D01*
X-71401516Y51022283D02*
X-71205755Y51007375D01*
X-62496594Y129934627D02*
X-62498401Y129971403D01*
X-12541975Y85719386D02*
X-12546508Y85704766D01*
X-12519990Y87348254D02*
X-12515593Y87336850D01*
X-74954274Y37604570D02*
X-74979078Y37409816D01*
X-62356462Y87478094D02*
X-62345289Y87483046D01*
X-62211611Y50702790D02*
X-62200855Y50713680D01*
X-73753518Y96100706D02*
X-73607840Y95969091D01*
X-902015Y135998612D02*
X-905023Y135998834D01*
X-12592083Y5056542D02*
X-12601719Y5049020D01*
X-74003040Y150D02*
X-73996957Y1D01*
X-905048Y135998836D02*
X-996936Y136003350D01*
X-12557477Y94332738D02*
X-12546419Y94299265D01*
X-74954270Y98399406D02*
X-74953319Y98393197D01*
X-8873687Y41075843D02*
X-8890656Y41082872D01*
X-962967Y96398965D02*
X-838899Y96551122D01*
X-72764384Y84591752D02*
X-72938401Y84500853D01*
X-12632658Y87472591D02*
X-12622024Y87466566D01*
X-12601672Y48551002D02*
X-12611664Y48543965D01*
X-9101140Y85204307D02*
X-9128931Y85225995D01*
X-65501299Y129985104D02*
X-65501769Y129969878D01*
X-8679782Y129019611D02*
X-8733756Y129031038D01*
X-74558035Y135833142D02*
X-74631929Y135778339D01*
X-74677007Y38576483D02*
X-74749834Y38394163D01*
X-61918682Y85095295D02*
X-61935285Y85103147D01*
X-73450859Y95840883D02*
X-73445892Y95837038D01*
X-61976255Y94880021D02*
X-61965455Y94885794D01*
X-74592530Y9243279D02*
X-74589764Y9237639D01*
X-12571561Y85634019D02*
X-12593295Y85583319D01*
X-9291207Y41392304D02*
X-9313119Y41421849D01*
X-66192494Y41051644D02*
X-66226227Y41041411D01*
X-2056085Y40497793D02*
X-2061578Y40500841D01*
X-74495780Y53058063D02*
X-74396184Y52888874D01*
X-61727760Y85029614D02*
X-61781109Y85043675D01*
X-65573931Y5072931D02*
X-65582782Y5064504D01*
X-8492797Y85002000D02*
X-8505197Y85002309D01*
X-9457617Y50286092D02*
X-9454063Y50297811D01*
X-9356462Y5023907D02*
X-9367378Y5029402D01*
X-74752033Y38388225D02*
X-74815533Y38202450D01*
X-9333915Y85452161D02*
X-9353595Y85483237D01*
X-12603846Y94442816D02*
X-12580234Y94391263D01*
X-65900068Y94800637D02*
X-65872278Y94778949D01*
X-12553485Y41682866D02*
X-12565361Y41649675D01*
X-62088844Y94808814D02*
X-62060023Y94829112D01*
X-61589941Y94996659D02*
X-61506310Y95001571D01*
X-66072945Y50904933D02*
X-66064724Y50900858D01*
X-9410022Y94413758D02*
X-9394950Y94445625D01*
X-8687351Y50983114D02*
X-8652619Y50989141D01*
X-1396946Y95964983D02*
X-1392180Y95969074D01*
X-61918682Y41095295D02*
X-61935285Y41103147D01*
X-12529678Y130871747D02*
X-12524187Y130860821D01*
X-73758108Y127898932D02*
X-73896932Y127760108D01*
X-71802077Y95083322D02*
X-71608829Y95048686D01*
X-1881521Y40394848D02*
X-1886852Y40398171D01*
X-9388337Y43460036D02*
X-9378012Y43466575D01*
X-8940816Y41105846D02*
X-8949086Y41109820D01*
X-9420474Y41614100D02*
X-9425160Y41625414D01*
X-62246121Y6665863D02*
X-62240085Y6672774D01*
X-20923Y81409816D02*
X-45727Y81604570D01*
X-12688798Y129419455D02*
X-12723127Y129374335D01*
X-12750084Y5000000D02*
X-62250504Y5000000D01*
X-12759916Y41331227D02*
X-12766202Y41324542D01*
X-1881500Y95609166D02*
X-1717572Y95717204D01*
X-61688861Y129021149D02*
X-61700872Y129023538D01*
X-65673771Y85440726D02*
X-65694069Y85411905D01*
X-66507204Y95002000D02*
X-66494804Y95001692D01*
X-9310502Y87494538D02*
X-9298578Y87497216D01*
X-61581923Y41006642D02*
X-61637451Y41012800D01*
X-12574289Y94377157D02*
X-12561602Y94344268D01*
X-66147706Y85067450D02*
X-66202766Y85048508D01*
X-2425495Y95325004D02*
X-2419722Y95327481D01*
X-74392835Y8883500D02*
X-74284797Y8719572D01*
X-9494216Y87301578D02*
X-9491538Y87313502D01*
X-74495780Y97058063D02*
X-74396184Y96888874D01*
X-71608804Y51048682D02*
X-71602595Y51047731D01*
X-74589764Y82766362D02*
X-74592530Y82760722D01*
X-74636649Y229034D02*
X-74634365Y227064D01*
X-1241911Y39898950D02*
X-1246464Y39903278D01*
X-12511723Y92678720D02*
X-12515556Y92667115D01*
X-2607862Y128751843D02*
X-2613752Y128754025D01*
X-3592185Y7022923D02*
X-3397431Y7047727D01*
X-62473239Y6226824D02*
X-62464301Y6262505D01*
X-62351865Y41480717D02*
X-62356726Y41488499D01*
X-8965455Y94885794D02*
X-8933967Y94901643D01*
X-3000451Y7128982D02*
X-2994370Y7130557D01*
X-66226255Y94962500D02*
X-66172199Y94945375D01*
X-13218892Y50960326D02*
X-13201316Y50954994D01*
X-12519990Y43348254D02*
X-12515593Y43336850D01*
X-65872278Y94778949D02*
X-65860506Y94769166D01*
X-62333886Y92516556D02*
X-62345289Y92520955D01*
X-71001571Y7002040D02*
X-70998430Y7002001D01*
X-72194408Y51184572D02*
X-72005656Y51130563D01*
X-12535419Y41743004D02*
X-12539411Y41728227D01*
X-62333847Y48516560D02*
X-62345251Y48520959D01*
X-229050Y135640167D02*
X-290833Y135708334D01*
X-65677720Y92512723D02*
X-65689499Y92509463D01*
X-62338810Y50544041D02*
X-62307598Y50589534D01*
X-50Y131004526D02*
X-1Y131006544D01*
X-66493691Y7001571D02*
X-66411581Y6996748D01*
X-9407964Y92558521D02*
X-9417218Y92566504D01*
X-9491538Y43313502D02*
X-9488278Y43325281D01*
X-74883223Y531355D02*
X-74881867Y528661D01*
X-62497801Y87277407D02*
X-62496305Y87289536D01*
X-9497801Y87277407D02*
X-9496305Y87289536D01*
X-807945Y135984736D02*
X-898948Y135998235D01*
X-12994463Y41140699D02*
X-13042796Y41114096D01*
X-62426070Y43429070D02*
X-62417218Y43437497D01*
X-13217410Y129044066D02*
X-13272241Y129029614D01*
X-8637460Y85012801D02*
X-8646559Y85013980D01*
X-62384482Y50466086D02*
X-62377184Y50479541D01*
X-8865194Y6931716D02*
X-8853769Y6936124D01*
X-9457036Y130892837D02*
X-9449999Y130902829D01*
X-13386868Y85009725D02*
X-13445776Y85004652D01*
X-9480046Y48655712D02*
X-9484445Y48667115D01*
X-9298637Y6601933D02*
X-9276006Y6630931D01*
X-13081311Y50908703D02*
X-13072945Y50904933D01*
X-4001584Y85002000D02*
X-8492797Y85002000D01*
X-74749834Y9609838D02*
X-74677007Y9427518D01*
X-45727Y54399431D02*
X-20923Y54594185D01*
X-65570871Y129635391D02*
X-65584361Y129602823D01*
X-12542236Y130892725D02*
X-12535699Y130882390D01*
X-9333886Y48516556D02*
X-9345289Y48520955D01*
X-128557Y97996370D02*
X-126982Y98002451D01*
X-65689499Y87494538D02*
X-65677720Y87491278D01*
X-8807507Y50952357D02*
X-8773774Y50962590D01*
X-9378012Y43466575D02*
X-9367378Y43472599D01*
X-65517294Y41823719D02*
X-65529354Y41766754D01*
X-62090096Y129196069D02*
X-62099933Y129203364D01*
X-74994628Y81207730D02*
X-74994946Y81201456D01*
X-74994626Y98796246D02*
X-74979718Y98600485D01*
X-46686Y37610829D02*
X-81322Y37804077D01*
X-9399559Y50435925D02*
X-9373445Y50486257D01*
X-62410677Y129591628D02*
X-62415640Y129602823D01*
X-8736762Y94972404D02*
X-8700872Y94980463D01*
X-65519955Y5153712D02*
X-65524907Y5142539D01*
X-9211680Y6702855D02*
X-9200790Y6713611D01*
X-61718846Y41027439D02*
X-61727760Y41029614D01*
X-62333886Y43487445D02*
X-62322281Y43491278D01*
X-62249917Y131003500D02*
X-12749359Y131003500D01*
X-66001028Y50867281D02*
X-65970791Y50849158D01*
X-12822542Y50735799D02*
X-12783055Y50697269D01*
X-20283Y10600485D02*
X-5375Y10796246D01*
X-66215909Y129044384D02*
X-66249884Y129034982D01*
X-9347865Y41474153D02*
X-9377184Y41524460D01*
X-62274407Y43500801D02*
X-62262218Y43501700D01*
X-9367378Y5029402D02*
X-9378012Y5035426D01*
X-62049840Y129168086D02*
X-62060023Y129174889D01*
X-62497346Y41946873D02*
X-62497947Y41959105D01*
X-65512860Y129849382D02*
X-65519149Y129813140D01*
X-12818034Y41272390D02*
X-12859364Y41235844D01*
X-12525439Y94220846D02*
X-12523594Y94211857D01*
X-9201964Y129291378D02*
X-9210623Y129300037D01*
X-9499001Y5249013D02*
X-9499001Y5997401D01*
X-2799575Y84817541D02*
X-2805569Y84819422D01*
X-835023Y8556129D02*
X-718821Y8714375D01*
X-62457036Y43391337D02*
X-62449999Y43401329D01*
X-12557553Y87410943D02*
X-12550034Y87401306D01*
X-9267166Y50641495D02*
X-9228595Y50685115D01*
X-72392139Y7252158D02*
X-72386249Y7249976D01*
X-65731764Y41363604D02*
X-65755790Y41335751D01*
X-2994345Y95130563D02*
X-2805593Y95184572D01*
X-9497801Y48726594D02*
X-9498700Y48738783D01*
X-9157058Y50754339D02*
X-9147786Y50762338D01*
X-8506310Y129002430D02*
X-8588420Y129007253D01*
X-74392848Y39120480D02*
X-74396171Y39115149D01*
X-1Y81000430D02*
X-40Y81003571D01*
X-9417218Y92566504D02*
X-9426070Y92574931D01*
X-61876587Y129076841D02*
X-61887901Y129081527D01*
X-12973470Y85153369D02*
X-13021144Y85125584D01*
X-9228595Y94685115D02*
X-9218109Y94696266D01*
X-74592541Y126760699D02*
X-74674509Y126582302D01*
X-65524907Y43359462D02*
X-65519955Y43348289D01*
X-71602570Y7047727D02*
X-71407816Y7022923D01*
X-72386249Y40754025D02*
X-72392139Y40751843D01*
X-12610942Y130961491D02*
X-12600947Y130954447D01*
X-12632623Y92531402D02*
X-12643539Y92525907D01*
X-65508463Y87313502D02*
X-65505785Y87301578D01*
X-501148Y97063600D02*
X-410249Y97237617D01*
X-73896950Y83760090D02*
X-73901278Y83755537D01*
X-65654767Y130984539D02*
X-65643592Y130979585D01*
X-12530450Y5131667D02*
X-12536473Y5121030D01*
X-61867973Y41073558D02*
X-61918682Y41095295D01*
X-2056085Y128497793D02*
X-2061578Y128500841D01*
X-74918674Y98199899D02*
X-74917410Y98193746D01*
X-12678222Y94569530D02*
X-12648141Y94523292D01*
X-13494804Y95001692D02*
X-13434078Y94998670D01*
X-65542965Y43391337D02*
X-65536426Y43381012D01*
X-718821Y127289626D02*
X-835023Y127447872D01*
X-128557Y9996370D02*
X-126982Y10002451D01*
X-12871070Y6778006D02*
X-12861604Y6770237D01*
X-65800327Y6714648D02*
X-65793720Y6708281D01*
X-12573963Y87429052D02*
X-12565536Y87420199D01*
X-62170774Y85261916D02*
X-62177459Y85268202D01*
X-182572Y97807593D02*
X-128563Y97996345D01*
X-12601705Y87452987D02*
X-12592069Y87445466D01*
X-128557Y53996370D02*
X-126982Y54002451D01*
X-2056063Y51506221D02*
X-1886874Y51605817D01*
X-66014348Y129129174D02*
X-66045437Y129112557D01*
X-66146232Y41067877D02*
X-66180866Y41055485D01*
X-9434497Y130921718D02*
X-9426070Y130930570D01*
X-74954270Y54399406D02*
X-74953319Y54393197D01*
X-967074Y96394180D02*
X-962983Y96398946D01*
X-3000475Y128875025D02*
X-3191721Y128919404D01*
X-62457004Y48612689D02*
X-62463542Y48623017D01*
X-65654712Y5018955D02*
X-65666115Y5014556D01*
X-65532573Y129753360D02*
X-65541975Y129719386D01*
X-9359890Y85493741D02*
X-9378021Y85525746D01*
X-620183Y75096D02*
X-617369Y76181D01*
X-9481263Y129816169D02*
X-9490028Y129870639D01*
X-61565923Y6998670D02*
X-61505197Y7001692D01*
X-65524907Y92644539D02*
X-65530402Y92633623D01*
X-74284797Y127284429D02*
X-74392835Y127120501D01*
X-12530436Y87370348D02*
X-12524941Y87359430D01*
X-73901295Y83755518D02*
X-74032910Y83609840D01*
X-12501076Y50005055D02*
X-12501000Y49998933D01*
X-2994370Y128873444D02*
X-3000451Y128875019D01*
X-65909905Y129196069D02*
X-65938726Y129175771D01*
X-65546508Y129704766D02*
X-65565450Y129649706D01*
X-62274407Y92503200D02*
X-62286536Y92504696D01*
X-74817422Y97807569D02*
X-74815541Y97801575D01*
X-9442480Y5091037D02*
X-9449999Y5100672D01*
X-9322281Y87491278D02*
X-9310502Y87494538D01*
X-9475094Y48644539D02*
X-9480046Y48655712D01*
X-9262218Y87501700D02*
X-9249988Y87502000D01*
X-71205730Y51007373D02*
X-71199456Y51007055D01*
X-61727760Y6974387D02*
X-61718846Y6976562D01*
X-71608829Y84955315D02*
X-71802077Y84920679D01*
X-504221Y82945938D02*
X-603817Y83115127D01*
X-8813316Y129053582D02*
X-8821974Y129056621D01*
X-62302269Y50597003D02*
X-62296668Y50604272D01*
X-441966Y170359D02*
X-368072Y225162D01*
X-65993120Y94862563D02*
X-65979943Y94854775D01*
X-74999961Y125003571D02*
X-75000000Y125000430D01*
X-74918674Y54199899D02*
X-74917410Y54193746D01*
X-65605051Y85558376D02*
X-65610557Y85547437D01*
X-12509412Y6130347D02*
X-12507913Y6118193D01*
X-62485191Y129837268D02*
X-62490589Y129873654D01*
X-62139557Y50769237D02*
X-62127666Y50778874D01*
X-62345289Y43483046D02*
X-62333886Y43487445D01*
X-62262218Y43501700D02*
X-62249988Y43502000D01*
X-61640505Y94990938D02*
X-61605852Y94995212D01*
X-9498700Y87265218D02*
X-9497801Y87277407D01*
X-65605051Y41558376D02*
X-65610557Y41547437D01*
X-65853459Y85240764D02*
X-65898919Y85204381D01*
X-9298578Y130998716D02*
X-9286536Y131000805D01*
X-12542965Y92612664D02*
X-12550002Y92602672D01*
X-12515556Y92667115D02*
X-12519955Y92655712D01*
X-718807Y8714395D02*
X-715218Y8719551D01*
X-13042796Y41114096D02*
X-13050915Y41109820D01*
X-65689499Y43494538D02*
X-65677720Y43491278D01*
X-9367378Y130974099D02*
X-9356462Y130979594D01*
X-65501000Y49998933D02*
X-65501000Y48751013D01*
X-65574841Y50378587D02*
X-65561602Y50344268D01*
X-365636Y227064D02*
X-363352Y229034D01*
X-65911157Y85195187D02*
X-65939978Y85174889D01*
X-74881867Y135474840D02*
X-74883223Y135472146D01*
X-617323Y76200D02*
X-614566Y77423D01*
X-13281155Y129027439D02*
X-13290144Y129025594D01*
X-65972153Y6849865D02*
X-65959171Y6841755D01*
X-72194432Y84819422D02*
X-72200426Y84817541D01*
X-13029155Y85121110D02*
X-13037325Y85116935D01*
X-62429716Y94367194D02*
X-62416226Y94399762D01*
X-73753518Y8100706D02*
X-73607840Y7969091D01*
X-65562154Y6345697D02*
X-65557086Y6331254D01*
X-9480046Y43348289D02*
X-9475094Y43359462D01*
X-13368639Y85011973D02*
X-13386868Y85009725D01*
X-9210623Y85300037D02*
X-9235987Y85326677D01*
X-65677778Y130992774D02*
X-65666171Y130988939D01*
X-62398329Y43452999D02*
X-62388337Y43460036D01*
X-74752033Y82388225D02*
X-74815533Y82202450D01*
X-3191721Y51084597D02*
X-3000475Y51128976D01*
X-65550002Y87401329D02*
X-65542965Y87391337D01*
X-9426070Y87429070D02*
X-9417218Y87437497D01*
X-12524956Y5142587D02*
X-12530450Y5131667D01*
X-66102274Y94918139D02*
X-66088243Y94912022D01*
X-74917410Y81810255D02*
X-74918674Y81804102D01*
X-12638699Y94507538D02*
X-12612096Y94459205D01*
X-1712395Y84283194D02*
X-1717551Y84286783D01*
X-9146542Y94763237D02*
X-9101082Y94799620D01*
X-62488278Y92678720D02*
X-62491538Y92690499D01*
X-12822542Y94735799D02*
X-12783048Y94697263D01*
X-8733756Y129031038D02*
X-8742697Y129033103D01*
X-65505785Y48702423D02*
X-65508463Y48690499D01*
X-12677760Y43491276D02*
X-12666154Y43487441D01*
X-9274407Y43500801D02*
X-9262218Y43501700D01*
X-46686Y81610829D02*
X-81322Y81804077D01*
X-62388303Y48543975D02*
X-62398296Y48551014D01*
X-12861604Y6770237D02*
X-12833751Y6746211D01*
X-13447298Y41004476D02*
X-13454672Y41004041D01*
X-65639438Y129495120D02*
X-65647226Y129481943D01*
X-441986Y135833157D02*
X-444452Y135834894D01*
X-65979943Y85149226D02*
X-65993120Y85141438D01*
X-13095233Y85088860D02*
X-13103689Y85085296D01*
X-74290240Y43125D02*
X-74287333Y42321D01*
X-65789378Y50703964D02*
X-65764014Y50677324D01*
X-65529354Y85766754D02*
X-65532982Y85751884D01*
X-8819135Y50948516D02*
X-8807507Y50952357D01*
X-3000475Y40875025D02*
X-3191721Y40919404D01*
X-65677720Y48512723D02*
X-65689499Y48509463D01*
X-62121648Y85220359D02*
X-62163863Y85255880D01*
X-65511723Y43325281D02*
X-65508463Y43313502D01*
X-65511723Y48678720D02*
X-65515556Y48667115D01*
X-62494157Y130803015D02*
X-62491482Y130814942D01*
X-12678222Y50569530D02*
X-12648136Y50523284D01*
X-70998417Y7002000D02*
X-66508322Y7002000D01*
X-74037018Y8398946D02*
X-74032927Y8394180D01*
X-9333886Y92516556D02*
X-9345289Y92520955D01*
X-65556996Y94331283D02*
X-65545938Y94297811D01*
X-9384482Y129537915D02*
X-9400332Y129569402D01*
X-9283673Y41382650D02*
X-9291207Y41392304D01*
X-73901295Y39755518D02*
X-74032910Y39609840D01*
X-12510876Y50140985D02*
X-12506561Y50105998D01*
X-9042041Y129163191D02*
X-9088790Y129195264D01*
X-3800545Y51007055D02*
X-3794271Y51007373D01*
X-290833Y295167D02*
X-229050Y363334D01*
X-225162Y368072D02*
X-170359Y441966D01*
X-65860506Y129234835D02*
X-65872278Y129225052D01*
X-62081327Y50814131D02*
X-62068866Y50823022D01*
X-13242495Y85037065D02*
X-13296173Y85024317D01*
X-9088790Y85195264D02*
X-9101140Y85204307D01*
X-12818027Y129272396D02*
X-12860506Y129234835D01*
X-250167Y82394163D02*
X-322994Y82576483D01*
X-9498700Y48738783D02*
X-9499000Y48751013D01*
X-12530402Y92633623D02*
X-12536426Y92622989D01*
X-9496575Y50067839D02*
X-9495543Y50083112D01*
X-12648141Y129480709D02*
X-12678222Y129434471D01*
X-9494641Y41910190D02*
X-9497346Y41946873D01*
X-62068866Y50823022D02*
X-62039556Y50842606D01*
X-8718846Y85027439D02*
X-8727760Y85029614D01*
X-9498831Y94006584D02*
X-9496575Y94067839D01*
X-62276949Y94629723D02*
X-62267166Y94641495D01*
X-9184313Y94729636D02*
X-9158194Y94753310D01*
X-2994370Y40873444D02*
X-3000451Y40875019D01*
X-62426070Y92574931D02*
X-62434497Y92583783D01*
X-12511760Y43325243D02*
X-12508502Y43313462D01*
X-73603036Y7964967D02*
X-73450879Y7840899D01*
X-62377977Y48537435D02*
X-62388303Y48543975D01*
X-501160Y82940423D02*
X-504208Y82945916D01*
X-8797265Y85048419D02*
X-8829283Y85058996D01*
X-2607862Y84751843D02*
X-2613752Y84754025D01*
X-62470169Y5131726D02*
X-62475662Y5142650D01*
X-74098035Y135998608D02*
X-74101028Y135998238D01*
X-73118501Y40394835D02*
X-73282429Y40286797D01*
X-71808280Y84919404D02*
X-71999526Y84875025D01*
X-74917410Y125810255D02*
X-74918674Y125804102D01*
X-65505785Y87301578D02*
X-65503696Y87289536D01*
X-74161102Y52551122D02*
X-74037034Y52398965D01*
X-65582783Y87437497D02*
X-65573931Y87429070D01*
X-71999526Y51128976D02*
X-71808280Y51084597D01*
X-65594433Y50423529D02*
X-65579527Y50389901D01*
X-528618Y118157D02*
X-525993Y119644D01*
X-74392835Y96883500D02*
X-74284797Y96719572D01*
X-12603843Y50442807D02*
X-12580234Y50391263D01*
X-8853769Y6936124D02*
X-8819135Y6948516D01*
X-65853400Y6763310D02*
X-65841871Y6753241D01*
X-9407964Y5056521D02*
X-9417219Y5064504D01*
X-1246464Y8100723D02*
X-1241911Y8105051D01*
X-65689499Y48509463D02*
X-65701423Y48506785D01*
X-9356462Y130979594D02*
X-9345289Y130984546D01*
X-62484393Y130838332D02*
X-62479996Y130849738D01*
X-65611664Y43460036D02*
X-65601672Y43452999D01*
X-3598485Y128981718D02*
X-3794246Y128996626D01*
X-12523594Y50211857D02*
X-12513215Y50156112D01*
X-9109697Y50793207D02*
X-9081383Y50814206D01*
X-74495793Y82945916D02*
X-74498841Y82940423D01*
X-62483098Y129825202D02*
X-62485191Y129837268D01*
X-65725594Y87500801D02*
X-65713465Y87499305D01*
X-9310503Y5007463D02*
X-9322281Y5010723D01*
X-12535700Y129741496D02*
X-12538966Y129729693D01*
X-3800570Y84996947D02*
X-3998418Y85001960D01*
X-9488278Y92678720D02*
X-9491538Y92690499D01*
X-66248437Y6968502D02*
X-66195450Y6953136D01*
X-13434078Y94998670D02*
X-13418978Y94997458D01*
X-9166250Y129257790D02*
X-9175324Y129266014D01*
X-3598460Y51022285D02*
X-3592211Y51022920D01*
X-9306737Y129413211D02*
X-9338810Y129459960D01*
X-9378012Y130968075D02*
X-9367378Y130974099D01*
X-62491499Y48690539D02*
X-62494175Y48702465D01*
X-61589941Y129007342D02*
X-61605852Y129008789D01*
X-12502264Y5224663D02*
X-12503757Y5212531D01*
X-8976255Y50880021D02*
X-8965455Y50885794D01*
X-365674Y135776468D02*
X-368052Y135778324D01*
X-9249988Y87502000D02*
X-3069Y87502000D01*
X-66359496Y85013063D02*
X-66394149Y85008789D01*
X-12713465Y92504696D02*
X-12725594Y92503200D01*
X-2241302Y40594541D02*
X-2419699Y40676509D01*
X-65731764Y50640397D02*
X-65723995Y50630931D01*
X-184460Y9801575D02*
X-182579Y9807569D01*
X-9499000Y43252988D02*
X-9498700Y43265218D01*
X-9497346Y41946873D02*
X-9497947Y41959105D01*
X-73603055Y84039018D02*
X-73607821Y84034927D01*
X-65530402Y43370378D02*
X-65524907Y43359462D01*
X-65701485Y130998714D02*
X-65689559Y130996035D01*
X-9454063Y41706190D02*
X-9457617Y41717909D01*
X-72764384Y40591752D02*
X-72938401Y40500853D01*
X-12701423Y92506785D02*
X-12713465Y92504696D01*
X-66100823Y41086361D02*
X-66134807Y41072285D01*
X-62496125Y94075479D02*
X-62495282Y94084616D01*
X-9298637Y94601933D02*
X-9276949Y94629723D01*
X-74772937Y365636D02*
X-74770967Y363352D01*
X-72574506Y84678997D02*
X-72580279Y84676520D01*
X-74999960Y55000418D02*
X-74994947Y54802570D01*
X-1396965Y128039034D02*
X-1549122Y128163102D01*
X-65632623Y43472599D02*
X-65621989Y43466575D01*
X-65509973Y6133362D02*
X-65507725Y6115133D01*
X-1026Y48501951D02*
X-3044Y48502000D01*
X-9442480Y87410964D02*
X-9434497Y87420218D01*
X-72938423Y84500841D02*
X-72943916Y84497793D01*
X-9356462Y43478094D02*
X-9345289Y43483046D01*
X-8806041Y41051199D02*
X-8820546Y41056090D01*
X-61976255Y129123980D02*
X-62008260Y129142111D01*
X-62310502Y43494538D02*
X-62298578Y43497216D01*
X-62472866Y94228310D02*
X-62464301Y94262505D01*
X-65750013Y5000000D02*
X-74996932Y5000000D01*
X-12507765Y130814825D02*
X-12505095Y130802892D01*
X-835023Y96556129D02*
X-718821Y96714375D01*
X-12701466Y43497215D02*
X-12689540Y43494536D01*
X-8920090Y94908103D02*
X-8867982Y94930440D01*
X-62450357Y94309507D02*
X-62446516Y94321135D01*
X-12833751Y6746211D02*
X-12824677Y6737987D01*
X-62262218Y92502301D02*
X-62274407Y92503200D01*
X-9406189Y50422128D02*
X-9399559Y50435925D01*
X-62107169Y85209059D02*
X-62121648Y85220359D01*
X-65505360Y50093811D02*
X-65502655Y50057128D01*
X-12689559Y5007466D02*
X-12701485Y5004787D01*
X-62266151Y41361357D02*
X-62277802Y41375555D01*
X-65524907Y48644539D02*
X-65530402Y48633623D01*
X-12532573Y85753360D02*
X-12541975Y85719386D01*
X-65535067Y6259515D02*
X-65522317Y6205828D01*
X-66044131Y41113362D02*
X-66057761Y41106396D01*
X-12643539Y48525907D02*
X-12654712Y48520955D01*
X-72392163Y84751834D02*
X-72574483Y84679007D01*
X-2241279Y7409471D02*
X-2235639Y7412237D01*
X-65738764Y129355459D02*
X-65748691Y129343807D01*
X-74831394Y444452D02*
X-74829657Y441986D01*
X-323004Y82576506D02*
X-325481Y82582279D01*
X-74871438Y97996345D02*
X-74817429Y97807593D01*
X-65583862Y94399727D02*
X-65562241Y94345663D01*
X-65521538Y50202872D02*
X-65519149Y50190861D01*
X-12542997Y87391312D02*
X-12536459Y87380984D01*
X-75000000Y43505044D02*
X-74999951Y43503026D01*
X-65515556Y48667115D02*
X-65519955Y48655712D01*
X-61700872Y129023538D02*
X-61736762Y129031597D01*
X-40Y55000430D02*
X-1Y55003571D01*
X-12755790Y6668250D02*
X-12731764Y6640397D01*
X-65582783Y92566504D02*
X-65592037Y92558521D01*
X-65725594Y5001200D02*
X-65737783Y5000301D01*
X-12513215Y94156112D02*
X-12510876Y94140985D01*
X-62274340Y131002301D02*
X-62262149Y131003200D01*
X-13495511Y85002242D02*
X-13506495Y85002001D01*
X-62472387Y85774241D02*
X-62474562Y85783155D01*
X-65798037Y50712623D02*
X-65789378Y50703964D01*
X-73896932Y52243893D02*
X-73758108Y52105069D01*
X-62062463Y85176746D02*
X-62107169Y85209059D01*
X-9442480Y92593037D02*
X-9449999Y92602672D01*
X-65509412Y85873654D02*
X-65514585Y85838784D01*
X-62450575Y5100753D02*
X-62457611Y5110752D01*
X-74953319Y37610804D02*
X-74954270Y37604595D01*
X-65860506Y94769166D02*
X-65816886Y94730595D01*
X-74037034Y83605036D02*
X-74161102Y83452879D01*
X-74871438Y9996345D02*
X-74817429Y9807593D01*
X-13140526Y50933903D02*
X-13132028Y50930443D01*
X-12527614Y50229760D02*
X-12525439Y50220846D01*
X-62442524Y50332738D02*
X-62438399Y50344268D01*
X-62333886Y87487445D02*
X-62322281Y87491278D01*
X-66251360Y85034573D02*
X-66263239Y85031597D01*
X-66110700Y6921853D02*
X-66078472Y6907568D01*
X-71608829Y128955315D02*
X-71802077Y128920679D01*
X-71999550Y128875019D02*
X-72005631Y128873444D01*
X-61985609Y50874744D02*
X-61933925Y50901559D01*
X-9426070Y43429070D02*
X-9417218Y43437497D01*
X-66434078Y50998670D02*
X-66418978Y50997458D01*
X-62496305Y87289536D02*
X-62494216Y87301578D01*
X-250158Y53609862D02*
X-247976Y53615752D01*
X-12506748Y41896482D02*
X-12511063Y41861496D01*
X-12580234Y94391263D02*
X-12574289Y94377157D01*
X-66411581Y6996748D02*
X-66402099Y6996009D01*
X-12737830Y43501700D02*
X-12725640Y43500801D01*
X-66263239Y85031597D02*
X-66299129Y85023538D01*
X-9407964Y87445480D02*
X-9398329Y87452999D01*
X-2607838Y95252167D02*
X-2425518Y95324994D01*
X-62008260Y129142111D02*
X-62018764Y129148406D01*
X-3197899Y51083327D02*
X-3191746Y51084591D01*
X-65652843Y6531210D02*
X-65633932Y6499659D01*
X-62475094Y92644539D02*
X-62480046Y92655712D01*
X-62060023Y94829112D02*
X-62049840Y94835915D01*
X-9249988Y5000000D02*
X-9262218Y5000301D01*
X-74287333Y135961180D02*
X-74290240Y135960376D01*
X-74474029Y135883844D02*
X-74552939Y135836547D01*
X-71802102Y128920674D02*
X-71808255Y128919410D01*
X-9457036Y92612664D02*
X-9463575Y92622989D01*
X-3397431Y128956274D02*
X-3592185Y128981078D01*
X-20920Y10594211D02*
X-20285Y10600460D01*
X-9042041Y85163191D02*
X-9088790Y85195264D01*
X-62499224Y5236948D02*
X-62499516Y5249183D01*
X-62499000Y43252988D02*
X-62498700Y43265218D01*
X-12678222Y129434471D02*
X-12688798Y129419455D01*
X-74994947Y81201431D02*
X-74999960Y81003583D01*
X-74980040Y801934D02*
X-74957686Y712692D01*
X-65522317Y6205828D02*
X-65520362Y6196863D01*
X-2235617Y51412249D02*
X-2061600Y51503148D01*
X-65502016Y6043364D02*
X-65501076Y6005055D01*
X-8491679Y95002000D02*
X-4001584Y95002000D01*
X-62298535Y48506786D02*
X-62310461Y48509465D01*
X-61491679Y95002000D02*
X-13507204Y95002000D01*
X-65686882Y94582152D02*
X-65679831Y94572140D01*
X-65536426Y87381012D02*
X-65530402Y87370378D01*
X-126982Y82001550D02*
X-128557Y82007631D01*
X-65643592Y130979585D02*
X-65632674Y130974088D01*
X-65601672Y92551002D02*
X-65611664Y92543965D01*
X-61933925Y50901559D02*
X-61920128Y50908189D01*
X-8581023Y85006543D02*
X-8637460Y85012801D01*
X-65611664Y5041965D02*
X-65621989Y5035426D01*
X-62184313Y94729636D02*
X-62158194Y94753310D01*
X-74032927Y83609821D02*
X-74037018Y83605055D01*
X-12840748Y85251803D02*
X-12854656Y85239807D01*
X-62229605Y41320027D02*
X-62266151Y41361357D01*
X-12697732Y85406998D02*
X-12703333Y85399729D01*
X-62286536Y92504696D02*
X-62298578Y92506785D01*
X-65505785Y5200423D02*
X-65508463Y5188499D01*
X-9498925Y85998946D02*
X-9499000Y86005068D01*
X-9020007Y50854696D02*
X-9006927Y50862645D01*
X-70998417Y95002000D02*
X-66507204Y95002000D01*
X-65689499Y92509463D02*
X-65701423Y92506785D01*
X-74996932Y43502000D02*
X-65750013Y43502000D01*
X-9356462Y92525907D02*
X-9367378Y92531402D01*
X-12553485Y129682866D02*
X-12565877Y129648232D01*
X-12549199Y6308041D02*
X-12538966Y6274308D01*
X-706850Y135959415D02*
X-709714Y135960361D01*
X-12530436Y43370348D02*
X-12524941Y43359430D01*
X-3592211Y84981081D02*
X-3598460Y84981716D01*
X-12593295Y41583319D02*
X-12601147Y41566716D01*
X-12502200Y92726594D02*
X-12503696Y92714465D01*
X-66508322Y85002000D02*
X-70998417Y85002000D01*
X-407471Y126760722D02*
X-410237Y126766362D01*
X-12503013Y130790842D02*
X-12501526Y130778705D01*
X-62262194Y50647345D02*
X-62250198Y50661253D01*
X-12666115Y92516556D02*
X-12677720Y92512723D01*
X-9405568Y129580472D02*
X-9420474Y129614100D01*
X-62163856Y41255874D02*
X-62177465Y41268208D01*
X-74999951Y48500975D02*
X-75000000Y48498957D01*
X-62491538Y92690499D02*
X-62494216Y92702423D01*
X-62194199Y6720043D02*
X-62183178Y6730665D01*
X-3800570Y40996947D02*
X-3998418Y41001960D01*
X-65501076Y50005055D02*
X-65501000Y49998933D01*
X-12727894Y94635652D02*
X-12722204Y94628453D01*
X-62457036Y87391337D02*
X-62449999Y87401329D01*
X-12642831Y130979568D02*
X-12631909Y130974067D01*
X-838899Y39452879D02*
X-962967Y39605036D01*
X-72200450Y128817533D02*
X-72386225Y128754033D01*
X-62498632Y130766647D02*
X-62497737Y130778838D01*
X-74979078Y10594185D02*
X-74954274Y10399431D01*
X-709761Y135960376D02*
X-712668Y135961180D01*
X-66493691Y41002430D02*
X-66508322Y41002000D01*
X-8652619Y94989141D02*
X-8640505Y94990938D01*
X-65550002Y5100672D02*
X-65557521Y5091037D01*
X-9487141Y85849382D02*
X-9488938Y85861496D01*
X0Y99003584D02*
X0Y125000417D01*
X-74674509Y97421699D02*
X-74592541Y97243302D01*
X-13305138Y85022362D02*
X-13314169Y85020738D01*
X-9494216Y43301578D02*
X-9491538Y43313502D01*
X-12965628Y129158135D02*
X-12973470Y129153369D01*
X-9128931Y129225995D02*
X-9138397Y129233764D01*
X-9469599Y43370378D02*
X-9463575Y43381012D01*
X-62356462Y43478094D02*
X-62345289Y43483046D01*
X-3197899Y7083327D02*
X-3191746Y7084591D01*
X-65582828Y130938974D02*
X-65573977Y130930544D01*
X-62495693Y50081587D02*
X-62492088Y50118193D01*
X-12666154Y87487441D02*
X-12654750Y87483042D01*
X-73282429Y95717204D02*
X-73118501Y95609166D01*
X-62453582Y50299265D02*
X-62442524Y50332738D01*
X-9497140Y129945353D02*
X-9497985Y129960637D01*
X-118134Y528661D02*
X-116778Y531355D01*
X-9488938Y85861496D02*
X-9493440Y85898003D01*
X-9479639Y129807138D02*
X-9481263Y129816169D01*
X-66149146Y50937047D02*
X-66140526Y50933903D01*
X-62449999Y43401329D02*
X-62442480Y43410964D01*
X-13296173Y85024317D02*
X-13305138Y85022362D01*
X-9005538Y6863302D02*
X-8955870Y6890639D01*
X-62377184Y50479541D02*
X-62348636Y50528523D01*
X-65501301Y92738783D02*
X-65502200Y92726594D01*
X-62496305Y43289536D02*
X-62494216Y43301578D01*
X-65632623Y48531402D02*
X-65643539Y48525907D01*
X-13495511Y41002242D02*
X-13506494Y41002001D01*
X-528661Y135885367D02*
X-531355Y135886723D01*
X-62475060Y48644571D02*
X-62480011Y48655747D01*
X-65505785Y43301578D02*
X-65503696Y43289536D01*
X-62498700Y43265218D02*
X-62497801Y43277407D01*
X-74164978Y127447872D02*
X-74281180Y127289626D01*
X-2419699Y95327492D02*
X-2241302Y95409460D01*
X-62267237Y129362444D02*
X-62276874Y129374335D01*
X-66288646Y94978128D02*
X-66273691Y94974866D01*
X-12754789Y129336911D02*
X-12765138Y129325633D01*
X-12561602Y94344268D02*
X-12557477Y94332738D01*
X-65750013Y92502000D02*
X-74996932Y92502000D01*
X-62463542Y48623017D02*
X-62469565Y48633653D01*
X-73113127Y51605817D02*
X-72943938Y51506221D01*
X-9298578Y92506785D02*
X-9310502Y92509463D01*
X-2799551Y51186468D02*
X-2613776Y51249968D01*
X-62490589Y6130347D02*
X-62485191Y6166733D01*
X-74290287Y135960361D02*
X-74293151Y135959415D01*
X-12731764Y6640397D02*
X-12723995Y6630931D01*
X-804901Y19294D02*
X-801958Y19955D01*
X-9442524Y50332738D02*
X-9438399Y50344268D01*
X-74592541Y82760699D02*
X-74674509Y82582302D01*
X-8962667Y85116931D02*
X-8978865Y85125589D01*
X-9434497Y43420218D02*
X-9426070Y43429070D01*
X-12643592Y5023916D02*
X-12654767Y5018962D01*
X-8843663Y85064241D02*
X-8896312Y85085296D01*
X-13078472Y6907568D02*
X-13067402Y6902332D01*
X-65541975Y129719386D02*
X-65546508Y129704766D01*
X-62499000Y92751013D02*
X-62499000Y93997401D01*
X-363352Y135774467D02*
X-365636Y135776437D01*
X-65511063Y94142505D02*
X-65506561Y94105998D01*
X-71199456Y40996946D02*
X-71205730Y40996628D01*
X-61782615Y94960026D02*
X-61748641Y94969428D01*
X-74752025Y53615752D02*
X-74749843Y53609862D01*
X-74498853Y38940401D02*
X-74589752Y38766384D01*
X-1717551Y95717218D02*
X-1712395Y95720807D01*
X-62456990Y130892799D02*
X-62449954Y130902794D01*
X-66494804Y51001692D02*
X-66434078Y50998670D01*
X-3998430Y129001961D02*
X-4001571Y129002000D01*
X-9457617Y85717909D02*
X-9467428Y85753360D01*
X-12621989Y92537426D02*
X-12632623Y92531402D01*
X-1712375Y95720821D02*
X-1554129Y95837023D01*
X-65622039Y130968062D02*
X-65611712Y130961521D01*
X-9175324Y85266014D02*
X-9201964Y85291378D01*
X-2425518Y40679007D02*
X-2607838Y40751834D01*
X-66218892Y50960326D02*
X-66201316Y50954994D01*
X-75000000Y135000432D02*
X-75000000Y131006569D01*
X-74392848Y127120480D02*
X-74396171Y127115149D01*
X-74097986Y4889D02*
X-74094978Y4667D01*
X-62266157Y85361364D02*
X-62272107Y85368349D01*
X-65739663Y94649786D02*
X-65716328Y94621351D01*
X-62497947Y85959105D02*
X-62498925Y85998946D01*
X-1554109Y51837038D02*
X-1549142Y51840883D01*
X-65604396Y129559761D02*
X-65611362Y129546131D01*
X-1554129Y128166978D02*
X-1712375Y128283180D01*
X-1886852Y95605830D02*
X-1881521Y95609153D01*
X-65611664Y87460036D02*
X-65601672Y87452999D01*
X-13015752Y50875450D02*
X-12999772Y50866397D01*
X-65666115Y48516556D02*
X-65677720Y48512723D01*
X-74674509Y9421699D02*
X-74592541Y9243302D01*
X-61688861Y94982852D02*
X-61652619Y94989141D01*
X-12550034Y87401306D02*
X-12542997Y87391312D01*
X-9101140Y129204307D02*
X-9128931Y129225995D01*
X-62464148Y5121085D02*
X-62470169Y5131726D01*
X-72200450Y40817533D02*
X-72386225Y40754033D01*
X-12713509Y43499304D02*
X-12701466Y43497215D01*
X-65542965Y5110664D02*
X-65550002Y5100672D01*
X-66204190Y129047938D02*
X-66215909Y129044384D01*
X-65970791Y50849158D02*
X-65960445Y50842606D01*
X-62351865Y85480717D02*
X-62356726Y85488499D01*
X-9310502Y43494538D02*
X-9298578Y43497216D01*
X-62488241Y48678758D02*
X-62491499Y48690539D01*
X-62499000Y42005068D02*
X-62499000Y43252988D01*
X-74284783Y96719551D02*
X-74281194Y96714395D01*
X-74094978Y135998834D02*
X-74097986Y135998612D01*
X-71401541Y40981716D02*
X-71407790Y40981081D01*
X-82591Y98193746D02*
X-81327Y98199899D01*
X-71808255Y51084591D02*
X-71802102Y51083327D01*
X-61724824Y50975239D02*
X-61712875Y50977922D01*
X-72943938Y40497780D02*
X-73113127Y40398184D01*
X-65557086Y6331254D02*
X-65539961Y6277198D01*
X-65737783Y5000301D02*
X-65750013Y5000000D01*
X-74917404Y54193721D02*
X-74873025Y54002475D01*
X-74981236Y135195556D02*
X-74994735Y135104553D01*
X-73603055Y40039018D02*
X-73607821Y40034927D01*
X-3197924Y84920679D02*
X-3391172Y84955315D01*
X-72758722Y40594530D02*
X-72764362Y40591764D01*
X-73901278Y96248464D02*
X-73896950Y96243911D01*
X-9475094Y92644539D02*
X-9480046Y92655712D01*
X-65502054Y94044896D02*
X-65501076Y94005055D01*
X-65750013Y87502000D02*
X-65737783Y87501700D01*
X-9388337Y87460036D02*
X-9378012Y87466575D01*
X-65643539Y43478094D02*
X-65632623Y43472599D01*
X-65833751Y50746211D02*
X-65824677Y50737987D01*
X-9443005Y6331283D02*
X-9437760Y6345663D01*
X-12524907Y48644539D02*
X-12530402Y48633623D01*
X-66195450Y6953136D02*
X-66186685Y6950419D01*
X-62388337Y92543965D02*
X-62398329Y92551002D01*
X-9138397Y129233764D02*
X-9166250Y129257790D01*
X-1712375Y7720821D02*
X-1554129Y7837023D01*
X-323004Y126576506D02*
X-325481Y126582279D01*
X-13394494Y41008842D02*
X-13409718Y41007248D01*
X-72943938Y84497780D02*
X-73113127Y84398184D01*
X-62138397Y129233764D02*
X-62166250Y129257790D01*
X-62461035Y129729693D02*
X-62464301Y129741496D01*
X-74995336Y135098453D02*
X-74999850Y135006565D01*
X-12713509Y87499304D02*
X-12701466Y87497215D01*
X-12703333Y85399729D02*
X-12737807Y85356656D01*
X-2607838Y7252167D02*
X-2425518Y7324994D01*
X-72386249Y128754025D02*
X-72392139Y128751843D01*
X-72758722Y84594530D02*
X-72764362Y84591764D01*
X-66202766Y85048508D02*
X-66217386Y85043975D01*
X-1717551Y51717218D02*
X-1712395Y51720807D01*
X-3598460Y95022285D02*
X-3592211Y95022920D01*
X-5055Y81201456D02*
X-5373Y81207730D01*
X-182579Y38196432D02*
X-184460Y38202426D01*
X-62407964Y92558521D02*
X-62417218Y92566504D01*
X-12516903Y6178799D02*
X-12514810Y6166733D01*
X-9146601Y6763310D02*
X-9119351Y6785673D01*
X-62060023Y129174889D02*
X-62090096Y129196069D01*
X-12556790Y130912370D02*
X-12549272Y130902726D01*
X-13263239Y6972404D02*
X-13251360Y6969428D01*
X-65978709Y41150141D02*
X-65994463Y41140699D01*
X-3391172Y51048686D02*
X-3197924Y51083322D01*
X-61652619Y129014860D02*
X-61688861Y129021149D01*
X-12672889Y6562023D02*
X-12666086Y6551840D01*
X-74918679Y81804077D02*
X-74953315Y81610829D01*
X-74032910Y52394161D02*
X-73901295Y52248483D01*
X-62496575Y6067839D02*
X-62495543Y6083112D01*
X-73758108Y39898932D02*
X-73896932Y39760108D01*
X-74817429Y126196408D02*
X-74871438Y126007656D01*
X-65939978Y85174889D02*
X-65950161Y85168086D01*
X-12666154Y43487441D02*
X-12654750Y43483042D01*
X-62464301Y94262505D02*
X-62461035Y94274308D01*
X-2419722Y40676520D02*
X-2425495Y40678997D01*
X-8772308Y41040966D02*
X-8806041Y41051199D01*
X-3998418Y7002041D02*
X-3800570Y7007054D01*
X-9274407Y92503200D02*
X-9286536Y92504696D01*
X-9454063Y85706190D02*
X-9457617Y85717909D01*
X-65583862Y41604274D02*
X-65589979Y41590243D01*
X-77433Y135388957D02*
X-116767Y135472124D01*
X-504221Y38945938D02*
X-603817Y39115127D01*
X-12503738Y87289492D02*
X-12502244Y87277361D01*
X-66154923Y94939194D02*
X-66102274Y94918139D01*
X-65502200Y48726594D02*
X-65503696Y48714465D01*
X-65723052Y85374278D02*
X-65732835Y85362506D01*
X-9499001Y130754488D02*
X-9498700Y130766718D01*
X-12511063Y41861496D02*
X-12512860Y41849382D01*
X-1Y125000430D02*
X-40Y125003571D01*
X-12965628Y85158135D02*
X-12973470Y85153369D01*
X-13493691Y7001571D02*
X-13410060Y6996659D01*
X-65632623Y5029402D02*
X-65643539Y5023907D01*
X-62235987Y129326677D02*
X-62244211Y129335751D01*
X-62000222Y85137600D02*
X-62047191Y85166542D01*
X-8890656Y41082872D02*
X-8940816Y41105846D01*
X-9480852Y41813140D02*
X-9487141Y41849382D01*
X-13248437Y41035499D02*
X-13266254Y41031036D01*
X-13454672Y41004041D02*
X-13495511Y41002242D01*
X-74498841Y97063578D02*
X-74495793Y97058085D01*
X-65771406Y85318886D02*
X-65781892Y85307735D01*
X-12573931Y48574931D02*
X-12582783Y48566504D01*
X-62493440Y41898003D02*
X-62494641Y41910190D01*
X-12666086Y6551840D02*
X-12646406Y6520764D01*
X-61992322Y85132931D02*
X-62000222Y85137600D01*
X-65584361Y129602823D02*
X-65589324Y129591628D01*
X-74953315Y10393172D02*
X-74918679Y10199924D01*
X-71808280Y40919404D02*
X-71999526Y40875025D01*
X-73996957Y136003500D02*
X-74003040Y136003351D01*
X-66508322Y41002000D02*
X-70998417Y41002000D01*
X-72392163Y128751834D02*
X-72574483Y128679007D01*
X-74999961Y37003571D02*
X-75000000Y37000430D01*
X-12611698Y43460026D02*
X-12601705Y43452987D01*
X-74979718Y37403516D02*
X-74994626Y37207755D01*
X-72764362Y95412237D02*
X-72758722Y95409471D01*
X-66045437Y129112557D02*
X-66056376Y129107051D01*
X-12804738Y129285048D02*
X-12811266Y129278600D01*
X-9268237Y6640397D02*
X-9244211Y6668250D01*
X-66362550Y50991201D02*
X-66344382Y50988506D01*
X-12504458Y129920889D02*
X-12507913Y129885808D01*
X-12621989Y48537426D02*
X-12632623Y48531402D01*
X-65557521Y5091037D02*
X-65565504Y5081783D01*
X-9235987Y85326677D02*
X-9244211Y85335751D01*
X-247976Y38388249D02*
X-250158Y38394139D01*
X-66044131Y85113362D02*
X-66057761Y85106396D01*
X-13037325Y129116935D02*
X-13086914Y129092732D01*
X-8875124Y129076377D02*
X-8889301Y129082148D01*
X-62367378Y92531402D02*
X-62378012Y92537426D01*
X-5055Y37201456D02*
X-5373Y37207730D01*
X-65529597Y129765239D02*
X-65532573Y129753360D01*
X-12604396Y129559761D02*
X-12611362Y129546131D01*
X-74676997Y9427495D02*
X-74674520Y9421722D01*
X-62378578Y5035456D02*
X-62388906Y5042000D01*
X-12549644Y41694494D02*
X-12553485Y41682866D01*
X-66088243Y129091979D02*
X-66102274Y129085862D01*
X-61494053Y85002628D02*
X-61504386Y85002842D01*
X-2805569Y7184579D02*
X-2799575Y7186460D01*
X-65582783Y43437497D02*
X-65573931Y43429070D01*
X-45727Y98399431D02*
X-20923Y98594185D01*
X-82597Y37810280D02*
X-126976Y38001526D01*
X-9499000Y49997401D02*
X-9498831Y50006584D01*
X-12648136Y50523284D02*
X-12643275Y50515502D01*
X-835023Y52556129D02*
X-718821Y52714375D01*
X-71199431Y7007054D02*
X-71001583Y7002041D01*
X-74770967Y135640149D02*
X-74772937Y135637865D01*
X-13123414Y6927160D02*
X-13112100Y6922474D01*
X-2425495Y51325004D02*
X-2419722Y51327481D01*
X-62146542Y94763237D02*
X-62101082Y94799620D01*
X-62464301Y129741496D02*
X-62473239Y129777177D01*
X-12878353Y94783642D02*
X-12836138Y94748121D01*
X-2799575Y40817541D02*
X-2805569Y40819422D01*
X-9244211Y85335751D02*
X-9268237Y85363604D01*
X-801934Y19961D02*
X-712692Y42315D01*
X-74284783Y8719551D02*
X-74281194Y8714395D01*
X-12631909Y130974067D02*
X-12621271Y130968036D01*
X-9310503Y130996038D02*
X-9298578Y130998716D01*
X-62425712Y85626844D02*
X-62438399Y85659733D01*
X-71205755Y84996626D02*
X-71401516Y84981718D01*
X-72574506Y40678997D02*
X-72580279Y40676520D01*
X-9345289Y43483046D02*
X-9333886Y43487445D01*
X-12535699Y130882390D02*
X-12529678Y130871747D01*
X-1549122Y95840899D02*
X-1396965Y95964967D01*
X-66394149Y41008789D02*
X-66410060Y41007342D01*
X-229034Y363352D02*
X-227064Y365636D01*
X-8589941Y94996659D02*
X-8506310Y95001571D01*
X-65565504Y48583783D02*
X-65573931Y48574931D01*
X-73118480Y7609153D02*
X-73113149Y7605830D01*
X-9193182Y94721192D02*
X-9184313Y94729636D01*
X-66078472Y6907568D02*
X-66067402Y6902332D01*
X-65501000Y86006600D02*
X-65501170Y85997417D01*
X-9499001Y130005068D02*
X-9499001Y130754488D01*
X-62438399Y85659733D02*
X-62442524Y85671263D01*
X-9252339Y41344943D02*
X-9260338Y41354215D01*
X-65501000Y93998933D02*
X-65501000Y92751013D01*
X-65530402Y5131623D02*
X-65536426Y5120989D01*
X-9210623Y129300037D02*
X-9235987Y129326677D01*
X-65890304Y41210794D02*
X-65918618Y41189795D01*
X-715204Y96719572D02*
X-607166Y96883500D01*
X-62417173Y130938974D02*
X-62407918Y130946959D01*
X-62484408Y48667151D02*
X-62488241Y48678758D01*
X-76200Y135386178D02*
X-77423Y135388935D01*
X-1392180Y128034927D02*
X-1396946Y128039018D01*
X-73282429Y7717204D02*
X-73118501Y7609166D01*
X-12501300Y6020429D02*
X-12501072Y5249086D01*
X-74674509Y53421699D02*
X-74592541Y53243302D01*
X-13201316Y50954994D02*
X-13149146Y50937047D01*
X-9480852Y85813140D02*
X-9487141Y85849382D01*
X-3397406Y95047731D02*
X-3391197Y95048682D01*
X-74161102Y96551122D02*
X-74037034Y96398965D01*
X-73607821Y95969074D02*
X-73603055Y95964983D01*
X-9389444Y6456564D02*
X-9372827Y6487653D01*
X-81322Y98199924D02*
X-46686Y98393172D01*
X-13178027Y41056621D02*
X-13186685Y41053582D01*
X-9499000Y93997401D02*
X-9498831Y94006584D01*
X-62333830Y130988939D02*
X-62322223Y130992774D01*
X-71999526Y95128976D02*
X-71808280Y95084597D01*
X-74674520Y38582279D02*
X-74676997Y38576506D01*
X-18765Y807945D02*
X-5266Y898948D01*
X-290850Y135708352D02*
X-292930Y135710536D01*
X-62480046Y92655712D02*
X-62484445Y92667115D01*
X-12573976Y5072957D02*
X-12582828Y5064527D01*
X-12725640Y43500801D02*
X-12713509Y43499304D01*
X-62499004Y5997487D02*
X-62498835Y6006499D01*
X-3794246Y51007375D02*
X-3598485Y51022283D01*
X-603830Y83115149D02*
X-607153Y83120480D01*
X-62326153Y6563221D02*
X-62292942Y6609169D01*
X-4001584Y41002000D02*
X-8492797Y41002000D01*
X-9333886Y130988945D02*
X-9322281Y130992778D01*
X-71401541Y84981716D02*
X-71407790Y84981081D01*
X-292965Y135710571D02*
X-295149Y135712651D01*
X-9457036Y5110664D02*
X-9463575Y5120989D01*
X-65725594Y43500801D02*
X-65713465Y43499305D01*
X-128563Y38007656D02*
X-182572Y38196408D01*
X-9298578Y48506785D02*
X-9310502Y48509463D01*
X-75000000Y99003571D02*
X-74999961Y99000430D01*
X-72194408Y7184572D02*
X-72005656Y7130563D01*
X-9499000Y42005068D02*
X-9499000Y43252988D01*
X-61736762Y94972404D02*
X-61700872Y94980463D01*
X-62367378Y43472599D02*
X-62356462Y43478094D01*
X-62240085Y6672774D02*
X-62233799Y6679459D01*
X-66347382Y41014860D02*
X-66359496Y41013063D01*
X-62419767Y85612738D02*
X-62425712Y85626844D01*
X-74880344Y525972D02*
X-74833047Y447062D01*
X-65686882Y6582152D02*
X-65679831Y6572140D01*
X-74037034Y39605036D02*
X-74161102Y39452879D01*
X-62327112Y94562023D02*
X-62305932Y94592096D01*
X-9475094Y87359462D02*
X-9469599Y87370378D01*
X-1Y4996957D02*
X-50Y4998975D01*
X-13445776Y85004652D02*
X-13456202Y85003974D01*
X-2994345Y7130563D02*
X-2805593Y7184572D01*
X-9491538Y92690499D02*
X-9494216Y92702423D01*
X-3800545Y95007055D02*
X-3794271Y95007373D01*
X-12737852Y5000301D02*
X-12750084Y5000000D01*
X-62492088Y6118193D02*
X-62490589Y6130347D01*
X-65583862Y85604274D02*
X-65589979Y85590243D01*
X-9313119Y41421849D02*
X-9320170Y41431861D01*
X-74161118Y127452859D02*
X-74164963Y127447892D01*
X-82597Y81810280D02*
X-126976Y82001526D01*
X-3000451Y51128982D02*
X-2994370Y51130557D01*
X-5054Y54802570D02*
X-41Y55000418D01*
X-12536426Y92622989D02*
X-12542965Y92612664D01*
X-62416226Y94399762D02*
X-62409938Y94413718D01*
X-12501000Y93998933D02*
X-12501000Y92751013D01*
X-62475922Y6214875D02*
X-62473239Y6226824D01*
X-65501000Y5998933D02*
X-65501000Y5249013D01*
X-9420474Y85614100D02*
X-9425160Y85625414D01*
X-74498841Y9063578D02*
X-74495793Y9058085D01*
X-9109697Y41210794D02*
X-9119351Y41218328D01*
X-65713465Y43499305D02*
X-65701423Y43497216D01*
X-12502244Y43277361D02*
X-12501348Y43265171D01*
X-12634720Y85503028D02*
X-12652055Y85474106D01*
X-12787346Y85302334D02*
X-12800334Y85289346D01*
X0Y1003069D02*
X0Y4996932D01*
X-73287606Y7720807D02*
X-73282450Y7717218D01*
X-12519955Y92655712D02*
X-12524907Y92644539D01*
X-74979078Y98594185D02*
X-74954274Y98399431D01*
X-9438399Y50344268D02*
X-9425160Y50378587D01*
X-65501000Y48751013D02*
X-65501301Y48738783D01*
X-2799551Y7186468D02*
X-2613776Y7249968D01*
X-74293151Y44086D02*
X-74290287Y43140D01*
X-74833047Y135556439D02*
X-74880344Y135477529D01*
X-62485005Y5165240D02*
X-62488834Y5176852D01*
X-12546419Y50299265D02*
X-12542066Y50284591D01*
X-9463575Y43381012D02*
X-9457036Y43391337D01*
X-12873548Y41224204D02*
X-12917462Y41190792D01*
X-65788321Y41301146D02*
X-65799211Y41290390D01*
X-65502861Y6058648D02*
X-65502016Y6043364D01*
X-62442480Y87410964D02*
X-62434497Y87420218D01*
X-322994Y53427518D02*
X-250167Y53609838D01*
X-61504457Y41002774D02*
X-61565015Y41005347D01*
X-65565504Y43420218D02*
X-65557521Y43410964D01*
X-66344391Y94988507D02*
X-66288646Y94978128D01*
X-12508502Y87313462D02*
X-12505826Y87301536D01*
X-182572Y9807593D02*
X-128563Y9996345D01*
X-65539961Y6277198D02*
X-65537351Y6268401D01*
X-62450802Y41695960D02*
X-62461035Y41729693D01*
X-9334655Y50550496D02*
X-9326230Y50563275D01*
X-74994946Y10802545D02*
X-74994628Y10796271D01*
X-8655610Y85015494D02*
X-8709857Y85025594D01*
X-66264754Y129031354D02*
X-66320219Y129019611D01*
X-20923Y125409816D02*
X-45727Y125604570D01*
X-62434124Y94355769D02*
X-62429716Y94367194D01*
X-9398330Y5049002D02*
X-9407964Y5056521D01*
X-8829283Y85058996D02*
X-8843663Y85064241D01*
X-65589324Y129591628D02*
X-65604396Y129559761D01*
X-62345844Y5018971D02*
X-62357021Y5023928D01*
X-12565549Y5081811D02*
X-12573976Y5072957D01*
X-12524187Y130860821D02*
X-12519239Y130849639D01*
X-74003065Y136003350D02*
X-74094953Y135998836D01*
X-65506748Y129896482D02*
X-65511063Y129861496D01*
X-74923801Y617323D02*
X-74922578Y614566D01*
X-62494216Y43301578D02*
X-62491538Y43313502D01*
X-61637460Y85012801D02*
X-61646559Y85013980D01*
X-3794246Y95007375D02*
X-3598485Y95022283D01*
X-9463575Y92622989D02*
X-9469599Y92633623D01*
X-2419722Y128676520D02*
X-2425495Y128678997D01*
X-9081383Y41189795D02*
X-9109697Y41210794D01*
X-62434497Y87420218D02*
X-62426070Y87429070D01*
X-61850855Y6937047D02*
X-61798685Y6954994D01*
X-3397406Y7047731D02*
X-3391197Y7048682D01*
X-42315Y712692D02*
X-19961Y801934D01*
X-835038Y127447892D02*
X-838883Y127452859D01*
X-13201316Y94954994D02*
X-13149155Y94937050D01*
X-182572Y53807593D02*
X-128563Y53996345D01*
X-12939978Y6829112D02*
X-12909905Y6807932D01*
X-74774839Y135635429D02*
X-74829642Y135561535D01*
X-8957205Y41114096D02*
X-9005538Y41140699D01*
X-9488938Y41861496D02*
X-9493440Y41898003D01*
X-835038Y83447892D02*
X-838883Y83452859D01*
X-9345289Y92520955D02*
X-9356462Y92525907D01*
X-75087Y620206D02*
X-44094Y706827D01*
X-66297656Y41023965D02*
X-66312650Y41020887D01*
X-1712395Y128283194D02*
X-1717551Y128286783D01*
X-61759019Y50966673D02*
X-61724824Y50975239D01*
X-182579Y126196432D02*
X-184460Y126202426D01*
X-62494175Y48702465D02*
X-62496263Y48714509D01*
X-8589941Y6996659D02*
X-8506310Y7001571D01*
X-12580234Y50391263D02*
X-12574289Y50377157D01*
X-8491679Y51002000D02*
X-4001584Y51002000D01*
X-65557521Y87410964D02*
X-65550002Y87401329D01*
X-65592083Y130946959D02*
X-65582828Y130938974D01*
X-65529597Y94238762D02*
X-65521538Y94202872D01*
X-65501369Y130766647D02*
X-65501072Y130754415D01*
X-65701364Y41402068D02*
X-65723995Y41373070D01*
X-65725594Y92503200D02*
X-65737783Y92502301D01*
X-73603055Y128039018D02*
X-73607821Y128034927D01*
X-62449954Y130902794D02*
X-62442435Y130912432D01*
X-2235639Y128591764D02*
X-2241279Y128594530D01*
X-12932463Y41180227D02*
X-12978709Y41150141D01*
X-1026Y92501951D02*
X-3044Y92502000D01*
X-74281180Y96714375D02*
X-74164978Y96556129D01*
X-3592185Y95022923D02*
X-3397431Y95047727D01*
X-62450357Y6309507D02*
X-62446516Y6321135D01*
X-13314169Y85020738D02*
X-13368639Y85011973D01*
X-65632674Y130974088D02*
X-65622039Y130968062D01*
X-12669503Y41447080D02*
X-12674740Y41439546D01*
X-8867982Y94930440D02*
X-8850846Y94937050D01*
X-62494641Y85910190D02*
X-62497346Y85946873D01*
X-12654750Y43483042D02*
X-12643576Y43478088D01*
X-62166250Y50746211D02*
X-62139557Y50769237D01*
X-61607349Y50994909D02*
X-61597902Y50996009D01*
X-74164978Y83447872D02*
X-74281180Y83289626D01*
X-61597902Y50996009D02*
X-61588420Y50996748D01*
X-3391172Y95048686D02*
X-3197924Y95083322D01*
X-66347382Y85014860D02*
X-66359496Y85013063D01*
X-65713465Y87499305D02*
X-65701423Y87497216D01*
X-74996932Y87502000D02*
X-65750013Y87502000D01*
X-72943916Y95506208D02*
X-72938423Y95503160D01*
X-8492797Y41002000D02*
X-8505197Y41002309D01*
X-12514810Y6166733D02*
X-12509412Y6130347D01*
X-65616207Y50467455D02*
X-65599669Y50434599D01*
X-13344391Y129015494D02*
X-13353442Y129013980D01*
X-8640505Y6990938D02*
X-8605852Y6995212D01*
X-3998430Y85001961D02*
X-4001571Y85002000D01*
X-66134807Y41072285D02*
X-66146232Y41067877D01*
X-61850846Y85066951D02*
X-61867982Y85073561D01*
X-9454063Y50297811D02*
X-9442524Y50332738D01*
X-61709857Y6978407D02*
X-61655619Y6988506D01*
X0Y131006569D02*
X0Y135000432D01*
X-73996932Y0D02*
X-1003069Y0D01*
X-74555549Y135834894D02*
X-74558015Y135833157D01*
X-9480046Y87348289D02*
X-9475094Y87359462D01*
X-62166250Y129257790D02*
X-62175324Y129266014D01*
X-61709857Y85025594D02*
X-61718846Y85027439D01*
X-74833035Y447041D02*
X-74831421Y444493D01*
X-72005631Y95130557D02*
X-71999550Y95128982D01*
X-66273691Y94974866D02*
X-66240982Y94966673D01*
X-12524907Y92644539D02*
X-12530402Y92633623D01*
X-65562241Y94345663D02*
X-65556996Y94331283D01*
X-9147786Y41241663D02*
X-9157058Y41249662D01*
X-72758699Y95409460D02*
X-72580302Y95327492D01*
X-325492Y82582302D02*
X-407460Y82760699D01*
X-66240982Y94966673D02*
X-66226255Y94962500D01*
X-74817422Y53807569D02*
X-74815541Y53801575D01*
X-12753880Y41338138D02*
X-12759916Y41331227D01*
X-12536459Y87380984D02*
X-12530436Y87370348D01*
X-9494216Y130803078D02*
X-9491538Y130815002D01*
X-73450879Y128163102D02*
X-73603036Y128039034D01*
X-1246464Y96100723D02*
X-1241911Y96105051D01*
X-72764362Y51412237D02*
X-72758722Y51409471D01*
X-74829642Y441966D02*
X-74774839Y368072D01*
X-71205730Y7007373D02*
X-71199456Y7007055D01*
X-9492088Y50118193D02*
X-9490589Y50130347D01*
X-65633932Y94499659D02*
X-65627896Y94489004D01*
X-66320219Y129019611D02*
X-66338316Y129016471D01*
X-62388639Y6457870D02*
X-62360563Y6508881D01*
X-62408537Y5056568D02*
X-62417793Y5064558D01*
X-66064724Y50900858D02*
X-66014392Y50874744D01*
X-12713529Y5002697D02*
X-12725661Y5001200D01*
X-73282450Y40286783D02*
X-73287606Y40283194D01*
X-12501369Y5236854D02*
X-12502264Y5224663D01*
X-72943916Y7506208D02*
X-72938423Y7503160D01*
X-75000000Y37000417D02*
X-75000000Y11003584D01*
X-62322281Y92512723D02*
X-62333886Y92516556D01*
X-126982Y126001550D02*
X-128557Y126007631D01*
X-62333915Y94551840D02*
X-62327112Y94562023D01*
X-12526762Y6226824D02*
X-12524079Y6214875D01*
X-65747662Y94659058D02*
X-65739663Y94649786D01*
X-62062463Y41176746D02*
X-62107176Y41209065D01*
X-9417218Y43437497D02*
X-9407964Y43445480D01*
X-62417218Y92566504D02*
X-62426070Y92574931D01*
X-62457036Y92612664D02*
X-62463575Y92622989D01*
X-73450879Y40163102D02*
X-73603036Y40039034D01*
X-62340606Y129462445D02*
X-62347158Y129472791D01*
X-65536426Y43381012D02*
X-65530402Y43370378D01*
X-1392161Y95969091D02*
X-1246483Y96100706D01*
X-12526762Y129777177D02*
X-12535700Y129741496D01*
X-65542384Y85717909D02*
X-65545938Y85706190D01*
X-65507913Y41885808D02*
X-65509412Y41873654D01*
X-65679831Y94572140D02*
X-65659395Y94541556D01*
X-9389444Y94456564D02*
X-9372827Y94487653D01*
X-74281180Y8714375D02*
X-74164978Y8556129D01*
X-66088243Y94912022D02*
X-66057761Y94897605D01*
X-12643576Y87478088D02*
X-12632658Y87472591D01*
X-74195100Y135984207D02*
X-74198043Y135983546D01*
X-9367378Y92531402D02*
X-9378012Y92537426D01*
X-61504386Y85002842D02*
X-61564887Y85005351D01*
X-74770951Y363334D02*
X-74709168Y295167D01*
X-9457036Y87391337D02*
X-9449999Y87401329D01*
X-9398329Y43452999D02*
X-9388337Y43460036D01*
X-61781109Y85043675D02*
X-61798685Y85049007D01*
X-9119351Y6785673D02*
X-9109697Y6793207D01*
X-9425160Y129625414D02*
X-9437847Y129658304D01*
X-501148Y9063600D02*
X-410249Y9237617D01*
X-8491679Y129002000D02*
X-8506310Y129002430D01*
X-74996932Y131003500D02*
X-65750084Y131003500D01*
X-62396158Y41561194D02*
X-62419129Y41611345D01*
X-13456202Y85003974D02*
X-13495511Y85002242D01*
X-62497801Y43277407D02*
X-62496305Y43289536D01*
X-62498332Y5224753D02*
X-62499224Y5236948D01*
X-1Y92498957D02*
X-50Y92500975D01*
X-65732835Y85362506D02*
X-65771406Y85318886D01*
X-12776600Y94690735D02*
X-12770396Y94683974D01*
X-168580Y444493D02*
X-166966Y447041D01*
X-65589979Y94413758D02*
X-65583862Y94399727D01*
X-13290144Y129025594D02*
X-13344391Y129015494D01*
X-74815541Y126202426D02*
X-74817422Y126196432D01*
X-9484445Y48667115D02*
X-9488278Y48678720D01*
X-9268237Y85363604D02*
X-9276006Y85373070D01*
X-12506561Y94105998D02*
X-12505360Y94093811D01*
X-61581023Y6997458D02*
X-61565923Y6998670D01*
X-9482707Y50180282D02*
X-9470647Y50237247D01*
X-12640111Y6510260D02*
X-12621980Y6478255D01*
X-9417219Y130938997D02*
X-9407964Y130946980D01*
X-62476407Y85792144D02*
X-62486786Y85847889D01*
X-9488278Y48678720D02*
X-9491538Y48690499D01*
X-74994738Y135104528D02*
X-74995108Y135101535D01*
X-166954Y447062D02*
X-119657Y525972D01*
X-74636667Y135774451D02*
X-74704834Y135712668D01*
X-62356425Y48525913D02*
X-62367343Y48531410D01*
X-65951505Y129167346D02*
X-66001076Y129136800D01*
X-65815688Y85274365D02*
X-65841807Y85250691D01*
X-65511723Y92678720D02*
X-65515556Y92667115D01*
X-9410022Y6413758D02*
X-9394950Y6445625D01*
X-3197899Y95083327D02*
X-3191746Y95084591D01*
X-9334655Y94550496D02*
X-9326230Y94563275D01*
X-410249Y82766384D02*
X-501148Y82940401D01*
X-12732764Y129362444D02*
X-12754789Y129336911D01*
X-12737830Y87501700D02*
X-12725640Y87500801D01*
X-12549644Y129694494D02*
X-12553485Y129682866D01*
X-8652619Y50989141D02*
X-8640505Y50990938D01*
X-72200426Y51186460D02*
X-72194432Y51184579D01*
X-12866349Y41229894D02*
X-12873548Y41224204D01*
X-65713465Y48504696D02*
X-65725594Y48503200D01*
X-12592069Y87445466D02*
X-12582815Y87437482D01*
X-13156338Y129064241D02*
X-13170718Y129058996D01*
X-65702381Y129400919D02*
X-65738764Y129355459D01*
X-65647226Y129481943D02*
X-65666086Y129452161D01*
X-62426158Y41628314D02*
X-62445911Y41681455D01*
X-71802102Y40920674D02*
X-71808255Y40919410D01*
X-74396171Y96888852D02*
X-74392848Y96883521D01*
X-65643539Y87478094D02*
X-65632623Y87472599D01*
X-74955907Y706827D02*
X-74924914Y620206D01*
X-3998418Y51002041D02*
X-3800570Y51007054D01*
X-74674520Y82582279D02*
X-74676997Y82576506D01*
X-62449999Y87401329D02*
X-62442480Y87410964D01*
X-2056063Y7506221D02*
X-1886874Y7605817D01*
X-715204Y52719572D02*
X-607166Y52883500D01*
X-2799575Y128817541D02*
X-2805569Y128819422D01*
X-66359496Y41013063D02*
X-66394149Y41008789D01*
X-12654750Y87483042D02*
X-12643576Y87478088D01*
X-66493691Y129002430D02*
X-66508322Y129002000D01*
X-61850855Y41066954D02*
X-61859475Y41070098D01*
X-3044Y43502001D02*
X-1026Y43502050D01*
X-65503696Y5212465D02*
X-65505785Y5200423D01*
X-9320170Y41431861D02*
X-9339755Y41461171D01*
X-72194408Y95184572D02*
X-72005656Y95130563D01*
X-603817Y52888874D02*
X-504221Y53058063D01*
X-66344382Y50988506D02*
X-66290144Y50978407D01*
X-12582828Y5064527D02*
X-12592083Y5056542D01*
X-74922568Y614544D02*
X-74883234Y531377D01*
X-62367343Y48531410D02*
X-62377977Y48537435D01*
X-3800545Y7007055D02*
X-3794271Y7007373D01*
X-74871444Y38007631D02*
X-74873019Y38001550D01*
X-65518738Y6187832D02*
X-65509973Y6133362D01*
X-74396171Y8888852D02*
X-74392848Y8883521D01*
X-8565923Y41005331D02*
X-8581023Y41006543D01*
X-74592530Y53243279D02*
X-74589764Y53237639D01*
X-65701364Y50601933D02*
X-65694069Y50592096D01*
X-62474562Y85783155D02*
X-62476407Y85792144D01*
X-12506561Y50105998D02*
X-12505360Y50093811D01*
X-9394950Y94445625D02*
X-9389444Y94456564D01*
X-8751555Y129035496D02*
X-8804551Y129050865D01*
X-996961Y136003351D02*
X-1003044Y136003500D01*
X-65519955Y43348289D02*
X-65515556Y43336886D01*
X-12737783Y48502301D02*
X-12750013Y48502000D01*
X-62494641Y41910190D02*
X-62497346Y41946873D01*
X-2419722Y84676520D02*
X-2425495Y84678997D01*
X-74631949Y135778324D02*
X-74634327Y135776468D01*
X-9449999Y43401329D02*
X-9442480Y43410964D01*
X-74161118Y83452859D02*
X-74164963Y83447892D01*
X-9201964Y85291378D02*
X-9210623Y85300037D01*
X-9434497Y48583783D02*
X-9442480Y48593037D01*
X-1241893Y52105069D02*
X-1103069Y52243893D01*
X-74956861Y709714D02*
X-74955915Y706850D01*
X-62485191Y6166733D02*
X-62483098Y6178799D01*
X-12654767Y5018962D02*
X-12666171Y5014562D01*
X-65750084Y131003500D02*
X-65737852Y131003200D01*
X-8581023Y41006543D02*
X-8637451Y41012800D01*
X-12501000Y92751013D02*
X-12501301Y92738783D01*
X-8605852Y94995212D02*
X-8589941Y94996659D01*
X-61998973Y50867281D02*
X-61985609Y50874744D01*
X-1003069Y136003500D02*
X-73996932Y136003500D01*
X-9438399Y41659733D02*
X-9442524Y41671263D01*
X-13344382Y50988506D02*
X-13290144Y50978407D01*
X-603817Y96888874D02*
X-504221Y97058063D01*
X-65860444Y50769237D02*
X-65833751Y50746211D01*
X-447062Y135836547D02*
X-525972Y135883844D01*
X-9405568Y85580472D02*
X-9420474Y85614100D01*
X-73282450Y128286783D02*
X-73287606Y128283194D01*
X-62307598Y50589534D02*
X-62302269Y50597003D01*
X-9496305Y92714465D02*
X-9497801Y92726594D01*
X-62498653Y48738830D02*
X-62498951Y48751062D01*
X-62491538Y87313502D02*
X-62488278Y87325281D01*
X-607166Y83120501D02*
X-715204Y83284429D01*
X-12600947Y130954447D02*
X-12591310Y130946920D01*
X-12836138Y50748121D02*
X-12829227Y50742085D01*
X-74996957Y5000000D02*
X-74998975Y4999951D01*
X-62407964Y43445480D02*
X-62398329Y43452999D01*
X-118157Y135474883D02*
X-119644Y135477508D01*
X-65506561Y94105998D02*
X-65505360Y94093811D01*
X-8782615Y94960026D02*
X-8748641Y94969428D01*
X-444452Y168607D02*
X-441986Y170344D01*
X-9463575Y48622989D02*
X-9469599Y48633623D01*
X-65580234Y6391263D02*
X-65574289Y6377157D01*
X-13320228Y41019610D02*
X-13329238Y41017875D01*
X-65646406Y50520764D02*
X-65640111Y50510260D01*
X-71205730Y95007373D02*
X-71199456Y95007055D01*
X-9469599Y92633623D02*
X-9475094Y92644539D01*
X-62491538Y43313502D02*
X-62488278Y43325281D01*
X-807921Y18769D02*
X-804949Y19285D01*
X-13507204Y129002000D02*
X-61491679Y129002000D01*
X-12854656Y85239807D02*
X-12897729Y85205333D01*
X-9499000Y86005068D02*
X-9499000Y87252988D01*
X-65959171Y6841755D02*
X-65929861Y6822170D01*
X-12770390Y50683967D02*
X-12733844Y50642637D01*
X-13132019Y94930440D02*
X-13081319Y94908706D01*
X-8821974Y129056621D02*
X-8875124Y129076377D01*
X-74589752Y9237617D02*
X-74498853Y9063600D01*
X-3794246Y7007375D02*
X-3598485Y7022283D01*
X-65589979Y85590243D02*
X-65605051Y85558376D01*
X-9407964Y43445480D02*
X-9398329Y43452999D01*
X-61491679Y51002000D02*
X-13507204Y51002000D01*
X-65508463Y43313502D02*
X-65505785Y43301578D01*
X-8896312Y85085296D02*
X-8904768Y85088860D01*
X-9442480Y48593037D02*
X-9449999Y48602672D01*
X-74999851Y135006540D02*
X-75000000Y135000457D01*
X-65610557Y94456564D02*
X-65605051Y94445625D01*
X-12635604Y41501772D02*
X-12664546Y41454802D01*
X-65673771Y41440726D02*
X-65694069Y41411905D01*
X-12582815Y43437482D02*
X-12573963Y43429052D01*
X-74385457Y135926068D02*
X-74468624Y135886734D01*
X-444493Y135834921D02*
X-447041Y135836535D01*
X-1549122Y51840899D02*
X-1396965Y51964967D01*
X-12501050Y43252939D02*
X-12501300Y41985116D01*
X-13186685Y41053582D02*
X-13195450Y41050865D01*
X-62426024Y130930544D02*
X-62417173Y130938974D01*
X-2799551Y95186468D02*
X-2613776Y95249968D01*
X-12836138Y94748121D02*
X-12829227Y94742085D01*
X-62229605Y85320027D02*
X-62266157Y85361364D01*
X-46682Y54393197D02*
X-45731Y54399406D01*
X-227064Y135637865D02*
X-229034Y135640149D01*
X-62127666Y50778874D02*
X-62081327Y50814131D01*
X-12500997Y130006491D02*
X-12501166Y129997525D01*
X-2613752Y95249976D02*
X-2607862Y95252158D01*
X-9485416Y94165217D02*
X-9482707Y94180282D01*
X-9298578Y5004785D02*
X-9310503Y5007463D01*
X-13086914Y129092732D02*
X-13095233Y129088860D01*
X-12501300Y85985116D02*
X-12501769Y85969866D01*
X-62286536Y87499305D02*
X-62274407Y87500801D01*
X-9274407Y87500801D02*
X-9262218Y87501700D01*
X-62498831Y94006584D02*
X-62496631Y94066317D01*
X-1712395Y40283194D02*
X-1717551Y40286783D01*
X-65592037Y5056521D02*
X-65601671Y5049002D01*
X-73445872Y51837023D02*
X-73287626Y51720821D01*
X-62388337Y43460036D02*
X-62378012Y43466575D01*
X-74471340Y118134D02*
X-74468646Y116778D01*
X-74956876Y135293740D02*
X-74957680Y135290833D01*
X-65713465Y92504696D02*
X-65725594Y92503200D01*
X-9491538Y48690499D02*
X-9494216Y48702423D01*
X-12898861Y129204307D02*
X-12911211Y129195264D01*
X-73118501Y84394835D02*
X-73282429Y84286797D01*
X-9442480Y43410964D02*
X-9434497Y43420218D01*
X-74379795Y75087D02*
X-74293174Y44094D01*
X-62461035Y41729693D02*
X-62464301Y41741496D01*
X-12666171Y5014562D02*
X-12677778Y5010727D01*
X-72386249Y84754025D02*
X-72392139Y84751843D01*
X-66338316Y129016471D02*
X-66392652Y129009092D01*
X-61712875Y50977922D02*
X-61678301Y50984799D01*
X-65601671Y5049002D02*
X-65611664Y5041965D01*
X-12750013Y92502000D02*
X-62249988Y92502000D01*
X-407460Y9243302D02*
X-325492Y9421699D01*
X-13126314Y41075843D02*
X-13178027Y41056621D01*
X-61663204Y50987323D02*
X-61607349Y50994909D01*
X-2056085Y84497793D02*
X-2061578Y84500841D01*
X-70998430Y41002000D02*
X-71001571Y41001961D01*
X-3191721Y7084597D02*
X-3000475Y7128976D01*
X-74674520Y126582279D02*
X-74676997Y126576506D01*
X-65805735Y129283892D02*
X-65816886Y129273406D01*
X-61795811Y129047938D02*
X-61830738Y129059477D01*
X-62495693Y129922414D02*
X-62496594Y129934627D01*
X-2061578Y7503160D02*
X-2056085Y7506208D01*
X-62114513Y41214576D02*
X-62121641Y41220353D01*
X-9109697Y6793207D02*
X-9081383Y6814206D01*
X-1712375Y51720821D02*
X-1554129Y51837023D01*
X-8700872Y94980463D02*
X-8688861Y94982852D01*
X-62496244Y130790970D02*
X-62494157Y130803015D01*
X-65582782Y5064504D02*
X-65592037Y5056521D01*
X-9497801Y43277407D02*
X-9496305Y43289536D01*
X-12688798Y94584546D02*
X-12678222Y94569530D01*
X-12664546Y41454802D02*
X-12669503Y41447080D01*
X-447041Y166966D02*
X-444493Y168580D01*
X-12701485Y5004787D02*
X-12713529Y5002697D01*
X0Y55003584D02*
X0Y81000417D01*
X-12638699Y129496463D02*
X-12648141Y129480709D01*
X-1396965Y84039034D02*
X-1549122Y84163102D01*
X-12765138Y129325633D02*
X-12804738Y129285048D01*
X-9442480Y130912464D02*
X-9434497Y130921718D01*
X-74873019Y10002451D02*
X-74871444Y9996370D01*
X-13132028Y50930443D02*
X-13081311Y50908703D01*
X-9498925Y41998946D02*
X-9499000Y42005068D01*
X-9495543Y94083112D02*
X-9492088Y94118193D01*
X-74873025Y82001526D02*
X-74917404Y81810280D01*
X-74495780Y9058063D02*
X-74396184Y8888874D01*
X-9218109Y50696266D02*
X-9193182Y50721192D01*
X-1396946Y51964983D02*
X-1392180Y51969074D01*
X-8933967Y50901643D02*
X-8920090Y50908103D01*
X-12626551Y41517752D02*
X-12635604Y41501772D01*
X-12503738Y43289492D02*
X-12502244Y43277361D01*
X-62216953Y41306738D02*
X-62223401Y41313266D01*
X-61637451Y41012800D02*
X-61655619Y41015495D01*
X-9460037Y129726794D02*
X-9464936Y129744495D01*
X-9490589Y50130347D02*
X-9485416Y50165217D01*
X-9249988Y92502000D02*
X-9262218Y92502301D01*
X-8505197Y41002309D02*
X-8565923Y41005331D01*
X-2419699Y7327492D02*
X-2241302Y7409460D01*
X-712692Y135961186D02*
X-801934Y135983540D01*
X-71001571Y95002040D02*
X-70998430Y95002001D01*
X-9488278Y43325281D02*
X-9484445Y43336886D01*
X-44086Y706850D02*
X-43140Y709714D01*
X-12766202Y41324542D02*
X-12804732Y41285055D01*
X-295149Y290850D02*
X-292965Y292930D01*
X-9298637Y85402068D02*
X-9305932Y85411905D01*
X-12904998Y85199732D02*
X-12912467Y85194403D01*
X-82591Y10193746D02*
X-81327Y10199899D01*
X-12574289Y50377157D02*
X-12561602Y50344268D01*
X-9276006Y6630931D02*
X-9268237Y6640397D01*
X-72580302Y40676509D02*
X-72758699Y40594541D01*
X-12643539Y92525907D02*
X-12654712Y92520955D01*
X-65521538Y94202872D02*
X-65519149Y94190861D01*
X-12515593Y87336850D02*
X-12511760Y87325243D01*
X-73753518Y52100706D02*
X-73607840Y51969091D01*
X-65530402Y87370378D02*
X-65524907Y87359462D01*
X-81322Y54199924D02*
X-46686Y54393172D01*
X-65556996Y41672718D02*
X-65562241Y41658338D01*
X-65545938Y41706190D02*
X-65556996Y41672718D01*
X-65929861Y6822170D02*
X-65919849Y6815119D01*
X-62426070Y87429070D02*
X-62417218Y87437497D01*
X-62442480Y92593037D02*
X-62449999Y92602672D01*
X-9457036Y48612664D02*
X-9463575Y48622989D01*
X-61829254Y50944915D02*
X-61773746Y50962500D01*
X-65521538Y129801129D02*
X-65529597Y129765239D01*
X-9484445Y43336886D02*
X-9480046Y43348289D01*
X-65509412Y41873654D02*
X-65514585Y41838784D01*
X-12829227Y94742085D02*
X-12822542Y94735799D01*
X-12688812Y130996030D02*
X-12677027Y130992767D01*
X-74589752Y97237617D02*
X-74498853Y97063600D01*
X-61784092Y129044384D02*
X-61795811Y129047938D01*
X-9249988Y131003500D02*
X-3069Y131003500D01*
X-74192080Y135984732D02*
X-74195052Y135984216D01*
X-12611362Y129546131D02*
X-12638699Y129496463D01*
X-13103689Y129085296D02*
X-13156338Y129064241D01*
X-62429716Y6367194D02*
X-62415640Y6401178D01*
X-62388337Y87460036D02*
X-62378012Y87466575D01*
X-12550002Y92602672D02*
X-12557521Y92593037D01*
X-20283Y98600485D02*
X-5375Y98796246D01*
X-8687351Y6983114D02*
X-8652619Y6989141D01*
X-75000000Y48498932D02*
X-75000000Y43505069D01*
X-12798037Y6712623D02*
X-12789378Y6703964D01*
X-3069Y92502000D02*
X-9249988Y92502000D01*
X-12516903Y129825202D02*
X-12524079Y129789126D01*
X-2805569Y51184579D02*
X-2799575Y51186460D01*
X-8709857Y85025594D02*
X-8718846Y85027439D01*
X-62446516Y6321135D02*
X-62434124Y6355769D01*
X-838899Y127452879D02*
X-962967Y127605036D01*
X-12981237Y6855595D02*
X-12950161Y6835915D01*
X-12909905Y6807932D02*
X-12900068Y6800637D01*
X-61984257Y41128556D02*
X-61992322Y41132931D01*
X-62476128Y94213355D02*
X-62472866Y94228310D01*
X-71802102Y84920674D02*
X-71808255Y84919410D01*
X-74474008Y119644D02*
X-74471383Y118157D01*
X-12507913Y6118193D02*
X-12504308Y6081587D01*
X-13015744Y94875445D02*
X-13007679Y94871070D01*
X-12593295Y85583319D02*
X-12601147Y85566716D01*
X-74385435Y77423D02*
X-74382678Y76200D01*
X-9345289Y130984546D02*
X-9333886Y130988945D01*
X-62244211Y129335751D02*
X-62267237Y129362444D01*
X-65723995Y41373070D02*
X-65731764Y41363604D01*
X-65799211Y41290390D02*
X-65841871Y41250760D01*
X-715218Y127284450D02*
X-718807Y127289606D01*
X-74815541Y38202426D02*
X-74817422Y38196432D01*
X-65542384Y94286092D02*
X-65532573Y94250641D01*
X-74396184Y39115127D02*
X-74495780Y38945938D01*
X-8819135Y6948516D02*
X-8807507Y6952357D01*
X-9498831Y6006584D02*
X-9496575Y6067839D01*
X-65694069Y50592096D02*
X-65672889Y50562023D01*
X-3191746Y40919410D02*
X-3197899Y40920674D01*
X-9497947Y85959105D02*
X-9498925Y85998946D01*
X-65772365Y129317688D02*
X-65780809Y129308819D01*
X-66508322Y129002000D02*
X-70998417Y129002000D01*
X-12723127Y129374335D02*
X-12732764Y129362444D01*
X-41Y81003583D02*
X-5054Y81201431D01*
X-12592069Y43445466D02*
X-12582815Y43437482D01*
X-19285Y804949D02*
X-18769Y807921D01*
X-325481Y97421722D02*
X-323004Y97427495D01*
X-9322281Y130992778D02*
X-9310503Y130996038D01*
X-12713465Y48504696D02*
X-12725594Y48503200D01*
X-66410060Y41007342D02*
X-66493691Y41002430D01*
X-410237Y9237639D02*
X-407471Y9243279D01*
X-65589979Y41590243D02*
X-65605051Y41558376D01*
X-13154923Y85064807D02*
X-13163504Y85061557D01*
X-62496631Y94066317D02*
X-62496125Y94075479D01*
X-12665417Y130988929D02*
X-12654009Y130984526D01*
X-66081311Y50908703D02*
X-66072945Y50904933D01*
X-5054Y10802570D02*
X-41Y11000418D01*
X-73753537Y127903278D02*
X-73758090Y127898950D01*
X-12643576Y43478088D02*
X-12632658Y43472591D01*
X-962967Y8398965D02*
X-838899Y8551122D01*
X-65550002Y92602672D02*
X-65557521Y92593037D01*
X-13290144Y50978407D02*
X-13281155Y50976562D01*
X-3000475Y84875025D02*
X-3191721Y84919404D01*
X-13329238Y41017875D02*
X-13338306Y41016473D01*
X-62250198Y50661253D02*
X-62211611Y50702790D01*
X-62267166Y94641495D02*
X-62228595Y94685115D01*
X-9498700Y43265218D02*
X-9497801Y43277407D01*
X-247968Y97615776D02*
X-184468Y97801551D01*
X-325481Y53421722D02*
X-323004Y53427495D01*
X-2607838Y51252167D02*
X-2425518Y51324994D01*
X-12519149Y85813140D02*
X-12521538Y85801129D01*
X-74709151Y295149D02*
X-74707071Y292965D01*
X-62262739Y5000301D02*
X-62274933Y5001201D01*
X-62463575Y92622989D02*
X-62469599Y92633623D01*
X-8820546Y41056090D02*
X-8873687Y41075843D01*
X-65634800Y41503076D02*
X-65665346Y41453505D01*
X-62366069Y129504342D02*
X-62372105Y129514997D01*
X-61718846Y85027439D02*
X-61727760Y85029614D01*
X-62446516Y129682866D02*
X-62450357Y129694494D01*
X-74994626Y54796246D02*
X-74979718Y54600485D01*
X-65565549Y130921690D02*
X-65557566Y130912432D01*
X-9449999Y5100672D02*
X-9457036Y5110664D01*
X-3598485Y84981718D02*
X-3794246Y84996626D01*
X-8655619Y41015495D02*
X-8711355Y41025873D01*
X-65632623Y92531402D02*
X-65643539Y92525907D01*
X-66186685Y6950419D02*
X-66178027Y6947380D01*
X-838899Y83452879D02*
X-962967Y83605036D01*
X-2419699Y51327492D02*
X-2241302Y51409460D01*
X-74923820Y135386132D02*
X-74924905Y135383318D01*
X-12737122Y131003200D02*
X-12724927Y131002300D01*
X-8899178Y6917640D02*
X-8865194Y6931716D01*
X-12565536Y87420199D02*
X-12557553Y87410943D01*
X-9488278Y130826781D02*
X-9484445Y130838386D01*
X-2994370Y84873444D02*
X-3000451Y84875019D01*
X-62497346Y85946873D02*
X-62497947Y85959105D01*
X-12701423Y48506785D02*
X-12713465Y48504696D01*
X-12632658Y43472591D02*
X-12622024Y43466566D01*
X-61859475Y6933903D02*
X-61850855Y6937047D01*
X-65872335Y50778874D02*
X-65860444Y50769237D01*
X-65841807Y85250691D02*
X-65853459Y85240764D01*
X-66329238Y6986126D02*
X-66320228Y6984391D01*
X-74998975Y43502050D02*
X-74996957Y43502001D01*
X-74396184Y127115127D02*
X-74495780Y126945938D01*
X-62388906Y5042000D02*
X-62398901Y5049043D01*
X-9088790Y129195264D02*
X-9101140Y129204307D01*
X-12957968Y85163186D02*
X-12965628Y85158135D01*
X-8866573Y50931043D02*
X-8852326Y50936640D01*
X-3598485Y40981718D02*
X-3794246Y40996626D01*
X-65520362Y6196863D02*
X-65518738Y6187832D01*
X-74998975Y131003550D02*
X-74996957Y131003501D01*
X-62464301Y41741496D02*
X-62472866Y41775691D01*
X-12505360Y94093811D02*
X-12502655Y94057128D01*
X-73287626Y40283180D02*
X-73445872Y40166978D01*
X-8955870Y6890639D02*
X-8942240Y6897605D01*
X-62499000Y86005068D02*
X-62499000Y87252988D01*
X-19294Y135198600D02*
X-19955Y135201543D01*
X-62312131Y129420674D02*
X-62321022Y129433135D01*
X-9378012Y87466575D02*
X-9367378Y87472599D01*
X-12511063Y85861496D02*
X-12512860Y85849382D01*
X-13215909Y6959617D02*
X-13204190Y6956063D01*
X-9470647Y50237247D02*
X-9467019Y50252117D01*
X-9249988Y48502000D02*
X-9262218Y48502301D01*
X-62026523Y6850636D02*
X-61977541Y6879184D01*
X-62249988Y43502000D02*
X-12750062Y43502000D01*
X-65634800Y85503076D02*
X-65665346Y85453505D01*
X-65507913Y85885808D02*
X-65509412Y85873654D01*
X-4001571Y95002001D02*
X-3998430Y95002040D01*
X-74379818Y135928405D02*
X-74382632Y135927320D01*
X-62398329Y92551002D02*
X-62407964Y92558521D01*
X-5375Y125207755D02*
X-20283Y125403516D01*
X-74873019Y98002451D02*
X-74871444Y97996370D01*
X-1396946Y7964983D02*
X-1392180Y7969074D01*
X-65503696Y87289536D02*
X-65502200Y87277407D01*
X-73113149Y40398171D02*
X-73118480Y40394848D01*
X-65502655Y50057128D02*
X-65502054Y50044896D01*
X-74829657Y135561515D02*
X-74831394Y135559049D01*
X-12509412Y129873654D02*
X-12514810Y129837268D01*
X-607153Y96883521D02*
X-603830Y96888852D01*
X-13109345Y41082872D02*
X-13126314Y41075843D01*
X-62490589Y50130347D02*
X-62485191Y50166733D01*
X-72938423Y40500841D02*
X-72943916Y40497793D01*
X-62489200Y94139460D02*
X-62488021Y94148559D01*
X-65599669Y50434599D02*
X-65594433Y50423529D01*
X-65931135Y50823022D02*
X-65918674Y50814131D01*
X-65659395Y6541556D02*
X-65652843Y6531210D01*
X-61565015Y41005347D02*
X-61581923Y41006642D01*
X-2235639Y84591764D02*
X-2241279Y84594530D01*
X-66044131Y94890639D02*
X-65993120Y94862563D01*
X-65755790Y41335751D02*
X-65764014Y41326677D01*
X-9417219Y5064504D02*
X-9426070Y5072931D01*
X-62356726Y85488499D02*
X-62361298Y85496455D01*
X-126976Y98002475D02*
X-82597Y98193721D01*
X-74037018Y96398946D02*
X-74032927Y96394180D01*
X-12557477Y50332738D02*
X-12546419Y50299265D01*
X-12536459Y43380984D02*
X-12530436Y43370348D01*
X-9068815Y50822943D02*
X-9020007Y50854696D01*
X-9478463Y85801129D02*
X-9480852Y85813140D01*
X-65573977Y130930544D02*
X-65565549Y130921690D01*
X-62453582Y85704736D02*
X-62457935Y85719410D01*
X-65610557Y85547437D02*
X-65627174Y85516348D01*
X-62322281Y87491278D02*
X-62310502Y87494538D01*
X-12506748Y85896482D02*
X-12511063Y85861496D01*
X-325492Y38582302D02*
X-407460Y38760699D01*
X-74498841Y53063578D02*
X-74495793Y53058085D01*
X-9484445Y5165115D02*
X-9488278Y5176720D01*
X-9498831Y50006584D02*
X-9496575Y50067839D01*
X-71808255Y7084591D02*
X-71802102Y7083327D01*
X-72386225Y51249968D02*
X-72200450Y51186468D01*
X-9388337Y92543965D02*
X-9398329Y92551002D01*
X-65511063Y50142505D02*
X-65506561Y50105998D01*
X-66057761Y94897605D02*
X-66044131Y94890639D01*
X-13338306Y41016473D02*
X-13394494Y41008842D01*
X-2061600Y40500853D02*
X-2235617Y40591752D01*
X-3069Y5000000D02*
X-9249988Y5000000D01*
X-74592530Y97243279D02*
X-74589764Y97237639D01*
X-1098723Y39755537D02*
X-1103051Y39760090D01*
X-9338810Y129459960D02*
X-9348636Y129475478D01*
X-12627257Y85516392D02*
X-12634720Y85503028D01*
X-62472866Y41775691D02*
X-62476128Y41790646D01*
X-501160Y126940423D02*
X-504208Y126945916D01*
X-13086914Y85092732D02*
X-13095233Y85088860D01*
X-12505342Y85911724D02*
X-12506748Y85896482D01*
X-71199431Y51007054D02*
X-71001583Y51002041D01*
X-9437760Y6345663D02*
X-9416139Y6399727D01*
X-9491538Y130815002D02*
X-9488278Y130826781D01*
X-73113149Y128398171D02*
X-73118480Y128394848D01*
X-72386225Y7249968D02*
X-72200450Y7186468D01*
X-65918674Y50814131D02*
X-65872335Y50778874D01*
X-9497801Y5224594D02*
X-9498700Y5236783D01*
X-72574483Y51324994D02*
X-72392163Y51252167D01*
X-9326230Y94563275D02*
X-9305932Y94592096D01*
X-12924865Y41185372D02*
X-12932463Y41180227D01*
X-12550047Y5100707D02*
X-12557566Y5091069D01*
X-62298516Y130998714D02*
X-62286472Y131000804D01*
X-74924905Y620183D02*
X-74923820Y617369D01*
X-74999960Y99000418D02*
X-74994947Y98802570D01*
X-74873019Y54002451D02*
X-74871444Y53996370D01*
X-8640505Y50990938D02*
X-8605852Y50995212D01*
X-74979718Y81403516D02*
X-74994626Y81207755D01*
X-61921529Y129096433D02*
X-61932599Y129101669D01*
X-12677720Y48512723D02*
X-12689499Y48509463D01*
X-74957680Y712668D02*
X-74956876Y709761D01*
X-65621989Y92537426D02*
X-65632623Y92531402D01*
X-65562241Y41658338D02*
X-65583862Y41604274D01*
X-2805593Y40819429D02*
X-2994345Y40873438D01*
X-9434497Y5081783D02*
X-9442480Y5091037D01*
X-65654712Y43483046D02*
X-65643539Y43478094D01*
X-65512860Y50154619D02*
X-65511063Y50142505D01*
X-65501000Y87252988D02*
X-65501000Y86006600D01*
X-9498700Y92738783D02*
X-9499000Y92751013D01*
X-65694069Y41411905D02*
X-65701364Y41402068D01*
X-62409938Y94413718D02*
X-62384398Y94466045D01*
X-804949Y135984216D02*
X-807921Y135984732D01*
X-62321779Y85434471D02*
X-62351865Y85480717D01*
X-12511760Y87325243D02*
X-12508502Y87313462D01*
X-13218892Y94960326D02*
X-13201316Y94954994D01*
X-62158194Y6753310D02*
X-62146542Y6763237D01*
X-9475094Y130860962D02*
X-9469599Y130871878D01*
X-74555508Y168580D02*
X-74552960Y166966D01*
X-9262218Y43501700D02*
X-9249988Y43502000D01*
X-9394950Y6445625D02*
X-9389444Y6456564D01*
X-1554109Y7837038D02*
X-1549142Y7840883D01*
X-65950161Y85168086D02*
X-65979943Y85149226D01*
X-126982Y38001550D02*
X-128557Y38007631D01*
X-12501076Y94005055D02*
X-12501000Y93998933D01*
X-9494216Y48702423D02*
X-9496305Y48714465D01*
X-13202736Y129048419D02*
X-13217410Y129044066D01*
X-62193182Y94721192D02*
X-62184313Y94729636D01*
X-9398329Y48551002D02*
X-9407964Y48558521D01*
X-65517294Y85823719D02*
X-65529354Y85766754D01*
X-322994Y97427518D02*
X-250167Y97609838D01*
X-9400332Y41569402D02*
X-9405568Y41580472D01*
X-2061600Y84500853D02*
X-2235617Y84591752D01*
X-9457036Y43391337D02*
X-9449999Y43401329D01*
X-12783048Y94697263D02*
X-12776600Y94690735D01*
X-13103689Y85085296D02*
X-13154923Y85064807D01*
X-1246464Y52100723D02*
X-1241911Y52105051D01*
X-9469599Y5131623D02*
X-9475094Y5142539D01*
X-71808255Y95084591D02*
X-71802102Y95083327D01*
X-9260338Y41354215D02*
X-9283673Y41382650D01*
X-9026523Y85153365D02*
X-9042041Y85163191D01*
X-65502264Y130778838D02*
X-65501369Y130766647D01*
X-2425518Y84679007D02*
X-2607838Y84751834D01*
X-12750062Y87502000D02*
X-12737830Y87501700D01*
X-12542066Y94284591D02*
X-12527614Y94229760D01*
X-12725594Y48503200D02*
X-12737783Y48502301D01*
X-5266Y135104553D02*
X-18765Y135195556D01*
X-12557521Y92593037D02*
X-12565504Y92583783D01*
X-13067402Y6902332D02*
X-13034546Y6885794D01*
X-65573931Y87429070D02*
X-65565504Y87420218D01*
X-962983Y39605055D02*
X-967074Y39609821D01*
X-9068815Y6822943D02*
X-9021292Y6853860D01*
X-12501050Y87252939D02*
X-12501300Y85985116D01*
X-65550047Y130902794D02*
X-65543011Y130892799D01*
X-65505785Y92702423D02*
X-65508463Y92690499D01*
X-73287626Y128283180D02*
X-73445872Y128166978D01*
X-967091Y83609840D02*
X-1098706Y83755518D01*
X-65659395Y94541556D02*
X-65652843Y94531210D01*
X-61830738Y129059477D02*
X-61842268Y129063602D01*
X-9497985Y129960637D02*
X-9498925Y129998946D01*
X-1246483Y127903295D02*
X-1392161Y128034910D01*
X-74979081Y125409790D02*
X-74979716Y125403541D01*
X-1881500Y51609166D02*
X-1717572Y51717204D01*
X-12584361Y129602823D02*
X-12589324Y129591628D01*
X-61797235Y94955493D02*
X-61782615Y94960026D01*
X-74980716Y135198552D02*
X-74981232Y135195580D01*
X-72574483Y7324994D02*
X-72392163Y7252167D01*
X-71401516Y95022283D02*
X-71205755Y95007375D01*
X-322994Y9427518D02*
X-250167Y9609838D01*
X-9333886Y43487445D02*
X-9322281Y43491278D01*
X-3044Y87502001D02*
X-1026Y87502050D01*
X-8640505Y94990938D02*
X-8605852Y94995212D01*
X-20285Y81403541D02*
X-20920Y81409790D01*
X-75096Y135383318D02*
X-76181Y135386132D01*
X-12654009Y130984526D02*
X-12642831Y130979568D01*
X-12505360Y50093811D02*
X-12502655Y50057128D01*
X-5055Y125201456D02*
X-5373Y125207730D01*
X-62415640Y6401178D02*
X-62410677Y6412373D01*
X-62499516Y5249183D02*
X-62499004Y5997487D01*
X-12502655Y94057128D02*
X-12502054Y94044896D01*
X-62101082Y94799620D02*
X-62088844Y94808814D01*
X-9480046Y130849789D02*
X-9475094Y130860962D01*
X-12599669Y6434599D02*
X-12594433Y6423529D01*
X-65611664Y92543965D02*
X-65621989Y92537426D01*
X-81327Y125804102D02*
X-82591Y125810255D01*
X-62484445Y87336886D02*
X-62480046Y87348289D01*
X-74284797Y83284429D02*
X-74392835Y83120501D01*
X-1241893Y96105069D02*
X-1103069Y96243893D01*
X-65677720Y43491278D02*
X-65666115Y43487445D01*
X-13007679Y94871070D02*
X-12999779Y94866401D01*
X-66124877Y6927624D02*
X-66110700Y6921853D01*
X-13149146Y50937047D02*
X-13140526Y50933903D01*
X-62292942Y6609169D02*
X-62281642Y6623648D01*
X-65633932Y6499659D02*
X-65627896Y6489004D01*
X-9227636Y41317688D02*
X-9252339Y41344943D01*
X-72005631Y7130557D02*
X-71999550Y7128982D01*
X0Y43505069D02*
X0Y48498932D01*
X-65519149Y129813140D02*
X-65521538Y129801129D01*
X-12646406Y6520764D02*
X-12640111Y6510260D01*
X-8758997Y6966582D02*
X-8702345Y6980036D01*
X-66156338Y129064241D02*
X-66170718Y129058996D01*
X-65750013Y43502000D02*
X-65737783Y43501700D01*
X-61748641Y129034573D02*
X-61784092Y129044384D01*
X-74883234Y135472124D02*
X-74922568Y135388957D01*
X-66133391Y85072871D02*
X-66147706Y85067450D01*
X-62488278Y43325281D02*
X-62484445Y43336886D01*
X-9068815Y41181058D02*
X-9081383Y41189795D01*
X-65565504Y87420218D02*
X-65557521Y87410964D01*
X-65506561Y50105998D02*
X-65505360Y50093811D01*
X-12501300Y41985116D02*
X-12501769Y41969866D01*
X-65562241Y85658338D02*
X-65583862Y85604274D01*
X-531355Y116778D02*
X-528661Y118134D01*
X-62298578Y92506785D02*
X-62310502Y92509463D01*
X-73603036Y95964967D02*
X-73450879Y95840899D01*
X-62498700Y92738783D02*
X-62499000Y92751013D01*
X-12521965Y41799656D02*
X-12535419Y41743004D01*
X-74101028Y5263D02*
X-74098035Y4893D01*
X-61935285Y85103147D02*
X-61984257Y85128556D01*
X-66394149Y85008789D02*
X-66410060Y85007342D01*
X-74980707Y804901D02*
X-74980046Y801958D01*
X-9322281Y92512723D02*
X-9333886Y92516556D01*
X-9482707Y6180282D02*
X-9470647Y6237247D01*
X-9442915Y129672747D02*
X-9460037Y129726794D01*
X-62047191Y85166542D02*
X-62062463Y85176746D01*
X-71199456Y128996946D02*
X-71205730Y128996628D01*
X-9276006Y85373070D02*
X-9298637Y85402068D01*
X-74558015Y170344D02*
X-74555549Y168607D01*
X-61920128Y50908189D02*
X-61887901Y50922474D01*
X-12652055Y85474106D02*
X-12660324Y85461224D01*
X-3391197Y84955319D02*
X-3397406Y84956270D01*
X-13311140Y6982852D02*
X-13299129Y6980463D01*
X-718807Y52714395D02*
X-715218Y52719551D01*
X-12505342Y41911724D02*
X-12506748Y41896482D01*
X-65530450Y130871834D02*
X-65524956Y130860914D01*
X-13347382Y6989141D02*
X-13311140Y6982852D01*
X-9495543Y6083112D02*
X-9492088Y6118193D01*
X-62463575Y87381012D02*
X-62457036Y87391337D01*
X-12601147Y41566716D02*
X-12626551Y41517752D01*
X-65900068Y129203364D02*
X-65909905Y129196069D01*
X-62000222Y41137600D02*
X-62047191Y41166542D01*
X-9470404Y41765239D02*
X-9478463Y41801129D01*
X-2056063Y95506221D02*
X-1886874Y95605817D01*
X-65621980Y50478255D02*
X-65616207Y50467455D01*
X-74396184Y83115127D02*
X-74495780Y82945938D01*
X-12991741Y6861890D02*
X-12981237Y6855595D01*
X-65611279Y6457915D02*
X-65604481Y6444201D01*
X-65787353Y6701674D02*
X-65748760Y6660130D01*
X-9467019Y6252117D02*
X-9457617Y6286092D01*
X-75000000Y125000417D02*
X-75000000Y99003584D01*
X-9322281Y48512723D02*
X-9333886Y48516556D01*
X-62492088Y129885808D02*
X-62495693Y129922414D01*
X-9475094Y5142539D02*
X-9480046Y5153712D01*
X-9454063Y6297811D02*
X-9443005Y6331283D01*
X-62491482Y130814942D02*
X-62488224Y130826724D01*
X-9442524Y41671263D02*
X-9454063Y41706190D01*
X-74198067Y135983540D02*
X-74287309Y135961186D01*
X-62163863Y85255880D02*
X-62170774Y85261916D01*
X-62183178Y6730665D02*
X-62158194Y6753310D01*
X-62434497Y43420218D02*
X-62426070Y43429070D01*
X-3598460Y7022285D02*
X-3592211Y7022920D01*
X-62233799Y6679459D02*
X-62194199Y6720043D01*
X-73901278Y8248464D02*
X-73896950Y8243911D01*
X-1392161Y7969091D02*
X-1246483Y8100706D01*
X-74957686Y135290809D02*
X-74980040Y135201567D01*
X-74917404Y10193721D02*
X-74873025Y10002475D01*
X-65507725Y6115133D02*
X-65502861Y6058648D01*
X-13418978Y129006543D02*
X-13434078Y129005331D01*
X-13037325Y85116935D02*
X-13086914Y85092732D01*
X-9377184Y129524460D02*
X-9384482Y129537915D01*
X-3191721Y95084597D02*
X-3000475Y95128976D01*
X-525993Y135883857D02*
X-528618Y135885344D01*
X-1549122Y7840899D02*
X-1396965Y7964967D01*
X-65505844Y130803015D02*
X-65503757Y130790970D01*
X-8807507Y6952357D02*
X-8773774Y6962590D01*
X-12505826Y43301536D02*
X-12503738Y43289492D01*
X-73450879Y84163102D02*
X-73603036Y84039034D01*
X-12570285Y129636807D02*
X-12584361Y129602823D01*
X-66272241Y50974387D02*
X-66218892Y50960326D01*
X-65515556Y5165115D02*
X-65519955Y5153712D01*
X-62498925Y85998946D02*
X-62499000Y86005068D01*
X-46682Y10393197D02*
X-45731Y10399406D01*
X-62489125Y41863016D02*
X-62493440Y41898003D01*
X-9454063Y94297811D02*
X-9443005Y94331283D01*
X-12502244Y87277361D02*
X-12501348Y87265171D01*
X-9365201Y94500925D02*
X-9334655Y94550496D01*
X-9449999Y87401329D02*
X-9442480Y87410964D01*
X-12811266Y129278600D02*
X-12818027Y129272396D01*
X-12712791Y131000802D02*
X-12700743Y130998710D01*
X-62492088Y50118193D02*
X-62490589Y50130347D01*
X-65532982Y85751884D02*
X-65542384Y85717909D01*
X-323004Y38576506D02*
X-325481Y38582279D01*
X-9333886Y87487445D02*
X-9322281Y87491278D01*
X-62387900Y41544788D02*
X-62396158Y41561194D01*
X-13021144Y85125584D02*
X-13029155Y85121110D01*
X-62446516Y94321135D02*
X-62434124Y94355769D01*
X-62457935Y50284591D02*
X-62453582Y50299265D01*
X-12601719Y5049020D02*
X-12611712Y5041980D01*
X-9008260Y94861890D02*
X-8976255Y94880021D01*
X-74953315Y98393172D02*
X-74918679Y98199924D01*
X-607166Y127120501D02*
X-715204Y127284429D01*
X-65666115Y87487445D02*
X-65654712Y87483046D01*
X-614566Y135926078D02*
X-617323Y135927301D01*
X-9496305Y43289536D02*
X-9494216Y43301578D01*
X-45731Y81604595D02*
X-46682Y81610804D01*
X-74032927Y39609821D02*
X-74037018Y39605055D01*
X-12519239Y130849639D02*
X-12514846Y130838227D01*
X-46682Y98393197D02*
X-45731Y98399406D01*
X-62463575Y43381012D02*
X-62457036Y43391337D01*
X-65524907Y5142539D02*
X-65530402Y5131623D01*
X-12507913Y129885808D02*
X-12509412Y129873654D01*
X-61965455Y94885794D02*
X-61933967Y94901643D01*
X-65654712Y87483046D02*
X-65643539Y87478094D01*
X-66392652Y6994909D02*
X-66338306Y6987528D01*
X-62389444Y129547437D02*
X-62394950Y129558376D01*
X-9499001Y5997401D02*
X-9498831Y6006584D01*
X-74815533Y97801551D02*
X-74752033Y97615776D01*
X-5263Y898973D02*
X-4893Y901966D01*
X-9434497Y87420218D02*
X-9426070Y87429070D01*
X-325481Y9421722D02*
X-323004Y9427495D01*
X-74164963Y8556109D02*
X-74161118Y8551142D01*
X-407471Y82760722D02*
X-410237Y82766362D01*
X-9449999Y92602672D02*
X-9457036Y92612664D01*
X-61655619Y6988506D02*
X-61637451Y6991201D01*
X-61655619Y41015495D02*
X-61709857Y41025594D01*
X-9467019Y94252117D02*
X-9457617Y94286092D01*
X-182579Y82196432D02*
X-184460Y82202426D01*
X-9416139Y94399727D02*
X-9410022Y94413758D01*
X-74495793Y126945916D02*
X-74498841Y126940423D01*
X-9369070Y50494322D02*
X-9364401Y50502222D01*
X-62218109Y94696266D02*
X-62193182Y94721192D01*
X-65994463Y41140699D02*
X-66044131Y41113362D01*
X-12565504Y92583783D02*
X-12573931Y92574931D01*
X-12508502Y43313462D02*
X-12505826Y43301536D01*
X-75000000Y11003571D02*
X-74999961Y11000430D01*
X-12515608Y5165169D02*
X-12520005Y5153763D01*
X-1Y48498957D02*
X-50Y48500975D01*
X-71199431Y95007054D02*
X-71001583Y95002041D01*
X-74164963Y96556109D02*
X-74161118Y96551142D01*
X-74994946Y54802545D02*
X-74994628Y54796271D01*
X-66320228Y6984391D02*
X-66266254Y6972965D01*
X-9496305Y5212465D02*
X-9497801Y5224594D01*
X-74749843Y38394139D02*
X-74752025Y38388249D01*
X-65519955Y92655712D02*
X-65524907Y92644539D01*
X-9498700Y5236783D02*
X-9499001Y5249013D01*
X-62107176Y41209065D02*
X-62114513Y41214576D01*
X-12677720Y92512723D02*
X-12689499Y92509463D01*
X-62334735Y6550546D02*
X-62326153Y6563221D01*
X-66057761Y85106396D02*
X-66089628Y85091324D01*
X-250167Y126394163D02*
X-322994Y126576483D01*
X-12749359Y131003500D02*
X-12737122Y131003200D01*
X-74999951Y92500975D02*
X-75000000Y92498957D01*
X-119657Y135477529D02*
X-166954Y135556439D01*
X-13072945Y50904933D02*
X-13064724Y50900858D01*
X-1554129Y84166978D02*
X-1712375Y84283180D01*
X-4893Y135101535D02*
X-5263Y135104528D01*
X-74994946Y98802545D02*
X-74994628Y98796271D01*
X-66418978Y94997458D02*
X-66362541Y94991200D01*
X-65666115Y5014556D02*
X-65677720Y5010723D01*
X-70998417Y51002000D02*
X-66507204Y51002000D01*
X-73607840Y128034910D02*
X-73753518Y127903295D01*
X-62388289Y130961521D02*
X-62377962Y130968062D01*
X-74677007Y82576483D02*
X-74749834Y82394163D01*
X-73607821Y51969074D02*
X-73603055Y51964983D01*
X-61646559Y85013980D02*
X-61655610Y85015494D01*
X-61564887Y85005351D02*
X-61582051Y85006657D01*
X-73118501Y128394835D02*
X-73282429Y128286797D01*
X-12723995Y6630931D02*
X-12701364Y6601933D01*
X-5375Y37207755D02*
X-20283Y37403516D01*
X-2241302Y128594541D02*
X-2419699Y128676509D01*
X-65519149Y50190861D02*
X-65512860Y50154619D01*
X-61700872Y94980463D02*
X-61688861Y94982852D01*
X-74634327Y227033D02*
X-74631949Y225177D01*
X-12565877Y129648232D02*
X-12570285Y129636807D01*
X-74873025Y126001526D02*
X-74917404Y125810280D01*
X-62378012Y43466575D02*
X-62367378Y43472599D01*
X-72764362Y7412237D02*
X-72758722Y7409471D01*
X-9147786Y50762338D02*
X-9119351Y50785673D01*
X-65643539Y5023907D02*
X-65654712Y5018955D01*
X-410237Y97237639D02*
X-407471Y97243279D01*
X-72574506Y128678997D02*
X-72580279Y128676520D01*
X-73445872Y7837023D02*
X-73287626Y7720821D01*
X-8597902Y129007992D02*
X-8607349Y129009092D01*
X-65666115Y43487445D02*
X-65654712Y43483046D01*
X-41Y37003583D02*
X-5054Y37201431D01*
X-62272107Y85368349D02*
X-62277797Y85375548D01*
X-13410060Y6996659D02*
X-13394149Y6995212D01*
X-65502200Y92726594D02*
X-65503696Y92714465D01*
X-62480046Y43348289D02*
X-62475094Y43359462D01*
X-65511063Y129861496D02*
X-65512860Y129849382D01*
X-13281155Y50976562D02*
X-13272241Y50974387D01*
X-8932599Y129101669D02*
X-8964086Y129117519D01*
X-9499000Y48751013D02*
X-9499000Y49997401D01*
X-62497737Y130778838D02*
X-62496244Y130790970D01*
X-74817422Y9807569D02*
X-74815541Y9801575D01*
X-61842268Y129063602D02*
X-61876587Y129076841D01*
X-13064724Y50900858D02*
X-13015752Y50875450D01*
X-82597Y125810280D02*
X-126976Y126001526D01*
X-65632623Y87472599D02*
X-65621989Y87466575D01*
X-65503696Y43289536D02*
X-65502200Y43277407D01*
X-504208Y9058085D02*
X-501160Y9063578D01*
X-65505342Y129911724D02*
X-65506748Y129896482D01*
X-65536426Y48622989D02*
X-65542965Y48612664D01*
X-9488278Y5176720D02*
X-9491538Y5188499D01*
X-12824677Y6737987D02*
X-12798037Y6712623D01*
X-9021292Y6853860D02*
X-9005538Y6863302D01*
X-65689559Y130996035D02*
X-65677778Y130992774D01*
X-62298578Y43497216D02*
X-62286536Y43499305D01*
X-9420474Y129614100D02*
X-9425160Y129625414D01*
X-13418978Y94997458D02*
X-13362541Y94991200D01*
X-62146542Y6763237D02*
X-62102279Y6798663D01*
X-62495543Y6083112D02*
X-62492088Y6118193D01*
X-66494804Y95001692D02*
X-66434078Y94998670D01*
X-62322241Y48512725D02*
X-62333847Y48516560D01*
X-62249988Y87502000D02*
X-12750062Y87502000D01*
X-65806819Y85282809D02*
X-65815688Y85274365D01*
X-73607840Y84034910D02*
X-73753518Y83903295D01*
X-62018764Y94855595D02*
X-62008260Y94861890D01*
X-1881521Y84394848D02*
X-1886852Y84398171D01*
X-65532573Y94250641D02*
X-65529597Y94238762D01*
X-8702345Y50980036D02*
X-8687351Y50983114D01*
X-65545938Y94297811D02*
X-65542384Y94286092D01*
X-12689540Y43494536D02*
X-12677760Y43491276D01*
X-12505826Y87301536D02*
X-12503738Y87289492D01*
X-61678301Y50984799D02*
X-61663204Y50987323D01*
X-12611712Y5041980D02*
X-12622039Y5035439D01*
X-9060023Y94829112D02*
X-9049840Y94835915D01*
X-74382678Y135927301D02*
X-74385435Y135926078D01*
X-74749843Y126394139D02*
X-74752025Y126388249D01*
X-62488834Y5176852D02*
X-62492088Y5188638D01*
X-12561602Y50344268D02*
X-12557477Y50332738D01*
X-9378012Y5035426D02*
X-9388337Y5041965D01*
X-66411581Y129007253D02*
X-66493691Y129002430D01*
X-65708794Y6611697D02*
X-65686882Y6582152D01*
X-62286492Y48504697D02*
X-62298535Y48506786D01*
X-61748641Y94969428D02*
X-61736762Y94972404D01*
X-65542965Y87391337D02*
X-65536426Y87381012D01*
X-9469599Y130871878D02*
X-9463575Y130882512D01*
X-71001583Y85001960D02*
X-71199431Y84996947D01*
X-227033Y365674D02*
X-225177Y368052D01*
X-74752025Y9615752D02*
X-74749843Y9609862D01*
X-12501600Y6032598D02*
X-12501300Y6020429D01*
X-71407816Y40981078D02*
X-71602570Y40956274D01*
X-9463575Y87381012D02*
X-9457036Y87391337D01*
X-72392163Y40751834D02*
X-72574483Y40679007D01*
X-74707071Y135710536D02*
X-74709151Y135708352D01*
X-71001583Y129001960D02*
X-71199431Y128996947D01*
X-66172199Y94945375D02*
X-66163504Y94942444D01*
X-74707036Y292930D02*
X-74704852Y290850D01*
X-74287309Y42315D02*
X-74198067Y19961D01*
X-12501166Y129997525D02*
X-12503426Y129936162D01*
X-74979716Y98600460D02*
X-74979081Y98594211D01*
X-62461035Y6274308D02*
X-62450357Y6309507D01*
X-77423Y614566D02*
X-76200Y617323D01*
X-66410060Y85007342D02*
X-66493691Y85002430D01*
X-65816886Y129273406D02*
X-65860506Y129234835D01*
X-9464936Y129744495D02*
X-9477684Y129798173D01*
X-62249939Y48502000D02*
X-62262171Y48502301D01*
X-13494804Y129002309D02*
X-13507204Y129002000D01*
X-13362541Y94991200D02*
X-13353442Y94990021D01*
X-65511777Y130826724D02*
X-65508519Y130814942D01*
X-12515556Y48667115D02*
X-12519955Y48655712D01*
X-74979081Y37409790D02*
X-74979716Y37403541D01*
X-1717572Y40286797D02*
X-1881500Y40394835D01*
X-2613776Y84754033D02*
X-2799551Y84817533D01*
X-66290144Y50978407D02*
X-66281155Y50976562D01*
X-962967Y52398965D02*
X-838899Y52551122D01*
X-3397431Y84956274D02*
X-3592185Y84981078D01*
X-3044Y131003501D02*
X-1026Y131003550D01*
X-12727894Y50635652D02*
X-12722204Y50628453D01*
X-20920Y98594211D02*
X-20285Y98600460D01*
X-62345289Y92520955D02*
X-62356462Y92525907D01*
X-65511723Y87325281D02*
X-65508463Y87313502D01*
X-62298637Y94601933D02*
X-62276949Y94629723D01*
X-62102279Y6798663D02*
X-62087526Y6809604D01*
X-12937538Y94827255D02*
X-12892832Y94794942D01*
X-13507204Y51002000D02*
X-13494804Y51001692D01*
X-2235617Y7412249D02*
X-2061600Y7503148D01*
X-12677760Y87491276D02*
X-12666154Y87487441D01*
X-12521538Y85801129D02*
X-12529597Y85765239D01*
X-65501301Y87265218D02*
X-65501000Y87252988D01*
X-8904768Y85088860D02*
X-8913087Y85092732D01*
X-65689498Y5007463D02*
X-65701423Y5004785D01*
X-9138397Y85233764D02*
X-9166250Y85257790D01*
X-66311140Y85021149D02*
X-66347382Y85014860D01*
X-62378012Y92537426D02*
X-62388337Y92543965D01*
X-12505785Y48702423D02*
X-12508463Y48690499D01*
X-61506310Y95001571D02*
X-61491679Y95002000D01*
X-9322281Y5010723D02*
X-9333886Y5014556D01*
X-43125Y709761D02*
X-42321Y712668D01*
X-8506310Y7001571D02*
X-8491679Y7002000D01*
X-65672889Y129441978D02*
X-65693187Y129413157D01*
X-9305932Y6592096D02*
X-9298637Y6601933D01*
X-12892825Y50794936D02*
X-12885488Y50789425D01*
X-9400332Y85569402D02*
X-9405568Y85580472D01*
X-12707059Y41394832D02*
X-12718359Y41380353D01*
X-13418978Y50997458D02*
X-13362550Y50991201D01*
X-12829227Y50742085D02*
X-12822542Y50735799D01*
X-62464301Y6262505D02*
X-62461035Y6274308D01*
X-12501526Y130778705D02*
X-12500637Y130766509D01*
X-1717551Y7717218D02*
X-1712395Y7720807D01*
X-62287068Y5002698D02*
X-62299114Y5004789D01*
X-65672889Y50562023D02*
X-65666086Y50551840D01*
X-65853400Y41240691D02*
X-65880650Y41218328D01*
X-65502200Y5224594D02*
X-65503696Y5212465D01*
X-8727760Y85029614D02*
X-8782591Y85044066D01*
X-62201964Y129291378D02*
X-62210623Y129300037D01*
X-65738691Y6648601D02*
X-65716328Y6621351D01*
X-12550002Y48602672D02*
X-12557521Y48593037D01*
X-62311044Y5007469D02*
X-62322827Y5010732D01*
X-9485416Y50165217D02*
X-9482707Y50180282D01*
X-65701423Y48506785D02*
X-65713465Y48504696D01*
X-62042041Y6840810D02*
X-62026523Y6850636D01*
X-9438399Y85659733D02*
X-9442524Y85671263D01*
X-12733844Y94642637D02*
X-12727894Y94635652D01*
X-62417218Y87437497D02*
X-62407964Y87445480D01*
X-295167Y135712668D02*
X-363334Y135774451D01*
X-9345289Y87483046D02*
X-9333886Y87487445D01*
X-62426038Y48574949D02*
X-62434465Y48583802D01*
X-8742697Y129033103D02*
X-8751555Y129035496D01*
X-9119351Y41218328D02*
X-9147786Y41241663D01*
X-12554090Y6322546D02*
X-12549199Y6308041D01*
X-1886852Y51605830D02*
X-1881521Y51609153D01*
X-65573931Y48574931D02*
X-65582783Y48566504D01*
X-71407816Y84981078D02*
X-71602570Y84956274D01*
X-72392139Y95252158D02*
X-72386249Y95249976D01*
X-9228595Y50685115D02*
X-9218109Y50696266D01*
X-61965455Y129118207D02*
X-61976255Y129123980D01*
X-9244211Y129335751D02*
X-9268237Y129363604D01*
X-1392180Y84034927D02*
X-1396946Y84039018D01*
X-62475094Y87359462D02*
X-62469599Y87370378D01*
X-13081319Y94908706D02*
X-13064716Y94900854D01*
X-9286536Y48504696D02*
X-9298578Y48506785D01*
X-65793720Y6708281D02*
X-65787353Y6701674D01*
X-8565923Y85005331D02*
X-8581023Y85006543D01*
X-9286536Y5002696D02*
X-9298578Y5004785D01*
X-62472775Y50228287D02*
X-62457935Y50284591D01*
X-3998418Y95002041D02*
X-3800570Y95007054D01*
X-61506310Y129002430D02*
X-61589941Y129007342D01*
X-9496575Y94067839D02*
X-9495543Y94083112D01*
X-603817Y8888874D02*
X-504221Y9058063D01*
X-65550002Y43401329D02*
X-65542965Y43391337D01*
X-66217386Y85043975D02*
X-66251360Y85034573D01*
X-61640505Y129013063D02*
X-61652619Y129014860D01*
X-62387900Y85544788D02*
X-62396158Y85561194D01*
X-62310502Y87494538D02*
X-62298578Y87497216D01*
X-73450859Y7840883D02*
X-73445892Y7837038D01*
X-2994345Y51130563D02*
X-2805593Y51184572D01*
X-62400332Y50434599D02*
X-62384482Y50466086D01*
X-12542066Y50284591D02*
X-12527614Y50229760D01*
X-1103051Y52243911D02*
X-1098723Y52248464D01*
X-13344391Y94988507D02*
X-13290144Y94978407D01*
X-66035915Y6886482D02*
X-66022460Y6879184D01*
X-62469599Y87370378D02*
X-62463575Y87381012D01*
X-75000000Y4996932D02*
X-75000000Y1003069D01*
X-62310461Y48509465D02*
X-62322241Y48512725D01*
X-66507204Y51002000D02*
X-66494804Y51001692D01*
X-74815541Y82202426D02*
X-74817422Y82196432D01*
X-62299114Y5004789D02*
X-62311044Y5007469D01*
X-62262218Y87501700D02*
X-62249988Y87502000D01*
X-62128931Y129225995D02*
X-62138397Y129233764D01*
X-9345289Y48520955D02*
X-9356462Y48525907D01*
X-2613776Y128754033D02*
X-2799551Y128817533D01*
X-62442524Y85671263D02*
X-62453582Y85704736D01*
X-4001584Y129002000D02*
X-8491679Y129002000D01*
X-9407964Y130946980D02*
X-9398330Y130954499D01*
X-410249Y126766384D02*
X-501148Y126940401D01*
X-71407816Y128981078D02*
X-71602570Y128956274D01*
X-12654712Y92520955D02*
X-12666115Y92516556D01*
X-9491538Y5188499D02*
X-9494216Y5200423D01*
X-74998975Y87502050D02*
X-74996957Y87502001D01*
X-74979078Y54594185D02*
X-74954274Y54399431D01*
X-9470647Y6237247D02*
X-9467019Y6252117D01*
X-8773774Y6962590D02*
X-8758997Y6966582D01*
X-66402099Y129007992D02*
X-66411581Y129007253D01*
X-61798685Y6954994D02*
X-61781109Y6960326D01*
X-8942240Y6897605D02*
X-8910373Y6912677D01*
X-901966Y4893D02*
X-898973Y5263D01*
X-8913087Y85092732D02*
X-8962667Y85116931D01*
X-65592037Y87445480D02*
X-65582783Y87437497D01*
X-62442480Y43410964D02*
X-62434497Y43420218D01*
X-9021292Y41150141D02*
X-9068815Y41181058D01*
X-65503426Y85936162D02*
X-65504458Y85920889D01*
X-12611664Y92543965D02*
X-12621989Y92537426D01*
X-12514810Y129837268D02*
X-12516903Y129825202D01*
X-62158194Y94753310D02*
X-62146542Y94763237D01*
X-74999850Y996936D02*
X-74995336Y905048D01*
X-9496305Y48714465D02*
X-9497801Y48726594D01*
X-62216953Y85306738D02*
X-62223401Y85313266D01*
X-62210623Y129300037D02*
X-62235987Y129326677D01*
X-9463575Y130882512D02*
X-9457036Y130892837D01*
X-62445911Y41681455D02*
X-62450802Y41695960D01*
X-8773774Y50962590D02*
X-8758997Y50966582D01*
X-9467428Y85753360D02*
X-9470404Y85765239D01*
X-61798685Y41049007D02*
X-61850855Y41066954D01*
X-65565504Y5081783D02*
X-65573931Y5072931D01*
X-62029210Y50849158D02*
X-61998973Y50867281D01*
X-12549272Y130902726D02*
X-12542236Y130892725D01*
X-9297694Y129400861D02*
X-9306737Y129413211D01*
X-62348636Y50528523D02*
X-62338810Y50544041D01*
X-65529354Y41766754D02*
X-65532982Y41751884D01*
X-13290144Y94978407D02*
X-13281155Y94976562D01*
X-8605852Y50995212D02*
X-8589941Y50996659D01*
X-65501000Y43252988D02*
X-65501000Y42006600D01*
X-73118480Y95609153D02*
X-73113149Y95605830D01*
X-12622024Y43466566D02*
X-12611698Y43460026D01*
X-62498951Y48751062D02*
X-62498701Y50020417D01*
X-9244211Y6668250D02*
X-9235987Y6677324D01*
X-62498925Y41998946D02*
X-62499000Y42005068D01*
X-9457617Y6286092D02*
X-9454063Y6297811D01*
X-9367378Y87472599D02*
X-9356462Y87478094D01*
X-12502655Y50057128D02*
X-12502054Y50044896D01*
X-74871444Y126007631D02*
X-74873019Y126001550D01*
X-501148Y53063600D02*
X-410249Y53237617D01*
X-9497801Y130778907D02*
X-9496305Y130791036D01*
X-65501301Y5236783D02*
X-65502200Y5224594D01*
X-9081383Y6814206D02*
X-9068815Y6822943D01*
X-9398330Y130954499D02*
X-9388337Y130961536D01*
X-74953315Y54393172D02*
X-74918679Y54199924D01*
X-9262218Y92502301D02*
X-9274407Y92503200D01*
X-62175324Y129266014D02*
X-62201964Y129291378D01*
X-9469599Y87370378D02*
X-9463575Y87381012D01*
X-8506310Y95001571D02*
X-8491679Y95002000D01*
X-65960445Y50842606D02*
X-65931135Y50823022D01*
X-65557521Y43410964D02*
X-65550002Y43401329D01*
X-74917410Y37810255D02*
X-74918674Y37804102D01*
X-73753537Y83903278D02*
X-73758090Y83898950D01*
X-62322223Y130992774D02*
X-62310442Y130996035D01*
X-75000000Y131006544D02*
X-74999951Y131004526D01*
X-8782591Y85044066D02*
X-8797265Y85048419D01*
X-74037034Y127605036D02*
X-74161102Y127452879D01*
X-1717572Y128286797D02*
X-1881500Y128394835D01*
X-168607Y135559049D02*
X-170344Y135561515D01*
X-531377Y135886734D02*
X-614544Y135926068D01*
X-65611362Y129546131D02*
X-65639438Y129495120D01*
X-74954270Y10399406D02*
X-74953319Y10393197D01*
X-3191746Y128919410D02*
X-3197899Y128920674D01*
X-9364401Y50502222D02*
X-9334655Y50550496D01*
X-62429716Y129636807D02*
X-62434124Y129648232D01*
X-9388337Y130961536D02*
X-9378012Y130968075D01*
X-12503757Y5212531D02*
X-12505844Y5200486D01*
X-62200855Y50713680D02*
X-62175324Y50737987D01*
X-62377962Y130968062D02*
X-62367327Y130974088D01*
X-62008260Y94861890D02*
X-61976255Y94880021D01*
X-801958Y135983546D02*
X-804901Y135984207D01*
X-12900068Y6800637D02*
X-12871070Y6778006D01*
X-1246483Y39903295D02*
X-1392161Y40034910D01*
X-71401541Y128981716D02*
X-71407790Y128981081D01*
X-9367378Y43472599D02*
X-9356462Y43478094D01*
X-61920090Y6908103D02*
X-61867973Y6930443D01*
X-967091Y127609840D02*
X-1098706Y127755518D01*
X-62305932Y94592096D02*
X-62298637Y94601933D01*
X-74749843Y82394139D02*
X-74752025Y82388249D01*
X-71407790Y7022920D02*
X-71401541Y7022285D01*
X-12546419Y94299265D02*
X-12542066Y94284591D01*
X-62457935Y85719410D02*
X-62472387Y85774241D01*
X-1554129Y40166978D02*
X-1712375Y40283180D01*
X-2241302Y84594541D02*
X-2419699Y84676509D01*
X-12580148Y6391301D02*
X-12574377Y6377124D01*
X-62377266Y94479588D02*
X-62359890Y94510260D01*
X-62497801Y92726594D02*
X-62498700Y92738783D01*
X-9492088Y94118193D02*
X-9490589Y94130347D01*
X-13299129Y6980463D02*
X-13263239Y6972404D01*
X-13195450Y41050865D02*
X-13248437Y41035499D01*
X-3397406Y51047731D02*
X-3391197Y51048682D01*
X-4665Y905048D02*
X-151Y996936D01*
X-62498401Y129971403D02*
X-62498701Y129983572D01*
X-715218Y39284450D02*
X-718807Y39289606D01*
X-66201316Y50954994D02*
X-66149146Y50937047D01*
X-12508463Y92690499D02*
X-12511723Y92678720D01*
X-72938401Y51503148D02*
X-72764384Y51412249D01*
X-1549142Y128163118D02*
X-1554109Y128166963D01*
X-65693187Y129413157D02*
X-65702381Y129400919D01*
X-225177Y135635449D02*
X-227033Y135637827D01*
X-61652619Y94989141D02*
X-61640505Y94990938D01*
X-9262218Y5000301D02*
X-9274407Y5001200D01*
X-72386225Y95249968D02*
X-72200450Y95186468D01*
X-13251360Y6969428D02*
X-13215909Y6959617D01*
X-65501000Y5249013D02*
X-65501301Y5236783D01*
X-9497947Y41959105D02*
X-9498925Y41998946D01*
X-65890304Y6793207D02*
X-65880650Y6785673D01*
X-8661685Y129016471D02*
X-8679782Y129019611D01*
X-12542997Y43391312D02*
X-12536459Y43380984D01*
X-61491679Y129002000D02*
X-61506310Y129002430D01*
X-5373Y98796271D02*
X-5055Y98802545D01*
X-9425160Y85625414D02*
X-9438399Y85659733D01*
X-65501000Y92751013D02*
X-65501301Y92738783D01*
X-3592211Y128981081D02*
X-3598460Y128981716D01*
X-62356726Y41488499D02*
X-62361298Y41496455D01*
X-9426070Y130930570D02*
X-9417219Y130938997D01*
X-70998430Y129002000D02*
X-71001571Y129001961D01*
X-62475922Y129789126D02*
X-62483098Y129825202D01*
X-9175324Y129266014D02*
X-9201964Y129291378D01*
X-65542384Y50286092D02*
X-65532573Y50250641D01*
X-12897729Y85205333D02*
X-12904998Y85199732D01*
X-1881500Y7609166D02*
X-1717572Y7717204D01*
X-9420474Y50389901D02*
X-9406189Y50422128D01*
X-838883Y52551142D02*
X-835038Y52556109D01*
X-74281194Y127289606D02*
X-74284783Y127284450D01*
X-62497947Y41959105D02*
X-62498925Y41998946D01*
X-71802077Y51083322D02*
X-71608829Y51048686D01*
X-50Y43503026D02*
X-1Y43505044D01*
X-71608804Y95048682D02*
X-71602595Y95047731D01*
X-45731Y37604595D02*
X-46682Y37610804D01*
X-82591Y54193746D02*
X-81327Y54199899D01*
X-12508463Y48690499D02*
X-12511723Y48678720D01*
X-65501000Y42006600D02*
X-65501170Y41997417D01*
X-65764014Y41326677D02*
X-65788321Y41301146D01*
X-3800570Y128996947D02*
X-3998418Y129001960D01*
X-614544Y77433D02*
X-531377Y116767D01*
X-3794271Y84996628D02*
X-3800545Y84996946D01*
X-74677007Y126576483D02*
X-74749834Y126394163D01*
X-3391197Y128955319D02*
X-3397406Y128956270D01*
X-66001076Y129136800D02*
X-66014348Y129129174D01*
X-12616207Y6467455D02*
X-12599669Y6434599D01*
X-12538966Y129729693D02*
X-12549644Y129694494D01*
X-65604481Y6444201D02*
X-65580234Y6391263D01*
X-9193182Y41282809D02*
X-9219192Y41308819D01*
X-62372105Y129514997D02*
X-62389444Y129547437D01*
X-71602570Y51047727D02*
X-71407816Y51022923D01*
X-73896950Y39760090D02*
X-73901278Y39755537D01*
X-8605852Y6995212D02*
X-8589941Y6996659D01*
X-61876587Y50927160D02*
X-61843697Y50939847D01*
X-9398329Y87452999D02*
X-9388337Y87460036D01*
X-12952810Y50837459D02*
X-12937538Y50827255D01*
X-9356462Y87478094D02*
X-9345289Y87483046D01*
X-8760505Y41037700D02*
X-8772308Y41040966D01*
X-72200450Y84817533D02*
X-72386225Y84754033D01*
X-72005656Y84873438D02*
X-72194408Y84819429D01*
X-8889301Y129082148D02*
X-8921529Y129096433D01*
X-504208Y97058085D02*
X-501160Y97063578D01*
X-62484445Y92667115D02*
X-62488278Y92678720D01*
X-66089628Y41091324D02*
X-66100823Y41086361D01*
X-12978709Y41150141D02*
X-12994463Y41140699D01*
X-65592037Y48558521D02*
X-65601672Y48551002D01*
X-838883Y96551142D02*
X-835038Y96556109D01*
X-12622039Y5035439D02*
X-12632674Y5029413D01*
X-62047191Y41166542D02*
X-62062463Y41176746D01*
X-9449999Y130902829D02*
X-9442480Y130912464D01*
X-184460Y53801575D02*
X-182579Y53807569D01*
X-74752025Y97615752D02*
X-74749843Y97609862D01*
X-9467428Y41753360D02*
X-9470404Y41765239D01*
X-9426070Y92574931D02*
X-9434497Y92583783D01*
X-62347158Y129472791D02*
X-62366069Y129504342D01*
X-967074Y8394180D02*
X-962983Y8398946D01*
X-61605852Y94995212D02*
X-61589941Y94996659D01*
X-12505785Y92702423D02*
X-12508463Y92690499D01*
X-3197924Y40920679D02*
X-3391172Y40955315D01*
X-74871438Y53996345D02*
X-74817429Y53807593D01*
X-12612096Y94459205D02*
X-12607820Y94451086D01*
X-62486786Y85847889D02*
X-62489125Y85863016D01*
X-12501000Y49998933D02*
X-12501000Y48751013D01*
X-12501769Y41969866D02*
X-12505342Y41911724D01*
X-12515593Y43336850D02*
X-12511760Y43325243D01*
X-9298637Y50601933D02*
X-9276949Y50629723D01*
X-74817429Y82196408D02*
X-74871438Y82007656D01*
X-65701423Y43497216D02*
X-65689499Y43494538D01*
X-74293174Y135959407D02*
X-74379795Y135928414D01*
X-9494216Y5200423D02*
X-9496305Y5212465D01*
X-62121641Y41220353D02*
X-62163856Y41255874D01*
X-13272241Y50974387D02*
X-13218892Y50960326D01*
X-65515608Y130838332D02*
X-65511777Y130826724D01*
X-8505197Y85002309D02*
X-8565923Y85005331D01*
X-13362550Y50991201D02*
X-13344382Y50988506D01*
X-65536426Y92622989D02*
X-65542965Y92612664D01*
X-9119351Y50785673D02*
X-9109697Y50793207D01*
X-9353595Y85483237D02*
X-9359890Y85493741D01*
X-12800334Y85289346D02*
X-12840748Y85251803D01*
X-9484445Y130838386D02*
X-9480046Y130849789D01*
X-73758090Y96105051D02*
X-73753537Y96100723D01*
X-13112100Y6922474D02*
X-13078472Y6907568D01*
X-62415640Y129602823D02*
X-62429716Y129636807D01*
X-8588420Y129007253D02*
X-8597902Y129007992D01*
X-12546508Y85704766D02*
X-12564951Y85651155D01*
X-9480046Y5153712D02*
X-9484445Y5165115D01*
X-65737783Y92502301D02*
X-65750013Y92502000D01*
X-12508519Y5188559D02*
X-12511777Y5176777D01*
X-9326230Y6563275D02*
X-9305932Y6592096D01*
X-9498700Y130766718D02*
X-9497801Y130778907D01*
X-12724927Y131002300D02*
X-12712791Y131000802D01*
X-65519955Y87348289D02*
X-65515556Y87336886D01*
X-65621989Y43466575D02*
X-65611664Y43460036D01*
X-715204Y8719572D02*
X-607166Y8883500D01*
X-65666086Y129452161D02*
X-65672889Y129441978D01*
X-75000000Y1003044D02*
X-74999851Y996961D01*
X-12611664Y48543965D02*
X-12621989Y48537426D01*
X-12770396Y94683974D02*
X-12733844Y94642637D01*
X-12565504Y48583783D02*
X-12573931Y48574931D01*
X-73607821Y7969074D02*
X-73603055Y7964983D01*
X-65725594Y48503200D02*
X-65737783Y48502301D01*
X-9193182Y50721192D02*
X-9184313Y50729636D01*
X-61932599Y129101669D02*
X-61965455Y129118207D01*
X-9005538Y41140699D02*
X-9021292Y41150141D01*
X-62469599Y43370378D02*
X-62463575Y43381012D01*
X-74980046Y135201543D02*
X-74980707Y135198600D01*
X-72194432Y128819422D02*
X-72200426Y128817541D01*
X-9499000Y87252988D02*
X-9498700Y87265218D01*
X-61605852Y129008789D02*
X-61640505Y129013063D01*
X-9492276Y129888868D02*
X-9497140Y129945353D01*
X-65519955Y48655712D02*
X-65524907Y48644539D01*
X-65950161Y94835915D02*
X-65939978Y94829112D01*
X-250167Y38394163D02*
X-322994Y38576483D01*
X-12511018Y130826613D02*
X-12507765Y130814825D01*
X-12539411Y41728227D02*
X-12549644Y41694494D01*
X-66402099Y6996009D02*
X-66392652Y6994909D01*
X-74924914Y135383295D02*
X-74955907Y135296674D01*
X-62311203Y85419455D02*
X-62321779Y85434471D01*
X-9276006Y129373070D02*
X-9297694Y129400861D01*
X-607166Y39120501D02*
X-715204Y39284429D01*
X-74749834Y97609838D02*
X-74677007Y97427518D01*
X-62494760Y5200569D02*
X-62496843Y5212618D01*
X-62498701Y129983572D02*
X-62498929Y130754415D01*
X-9417218Y87437497D02*
X-9407964Y87445480D01*
X-71602595Y84956270D02*
X-71608804Y84955319D01*
X-126976Y10002475D02*
X-82597Y10193721D01*
X-62345289Y87483046D02*
X-62333886Y87487445D01*
X-2425495Y7325004D02*
X-2419722Y7327481D01*
X-61992322Y41132931D02*
X-62000222Y41137600D01*
X-1103051Y96243911D02*
X-1098723Y96248464D01*
X-62449967Y48602695D02*
X-62457004Y48612689D01*
X-12570958Y41635428D02*
X-12593295Y41583319D01*
M02*
