G04 #@! TF.GenerationSoftware,KiCad,Pcbnew,8.0.6*
G04 #@! TF.CreationDate,2024-11-07T02:27:43-08:00*
G04 #@! TF.ProjectId,mse-68-hd-panel,6d73652d-3638-42d6-9864-2d70616e656c,1*
G04 #@! TF.SameCoordinates,Original*
G04 #@! TF.FileFunction,Legend,Bot*
G04 #@! TF.FilePolarity,Positive*
%FSLAX46Y46*%
G04 Gerber Fmt 4.6, Leading zero omitted, Abs format (unit mm)*
G04 Created by KiCad (PCBNEW 8.0.6) date 2024-11-07 02:27:43*
%MOMM*%
%LPD*%
G01*
G04 APERTURE LIST*
%ADD10C,1.350000*%
%ADD11C,0.500000*%
%ADD12C,2.300000*%
%ADD13C,2.700000*%
%ADD14C,1.950000*%
%ADD15C,6.500000*%
%ADD16C,0.800000*%
%ADD17C,1.200000*%
%ADD18C,1.300000*%
%ADD19C,4.200000*%
%ADD20C,2.500000*%
G04 APERTURE END LIST*
D10*
X-37200000Y69894711D02*
X-37200000Y69901999D01*
X-42300000Y63901999D02*
X-37499999Y59102000D01*
X-33607288Y110301999D02*
X-37200000Y113894711D01*
X-37207287Y62702000D02*
X-33607288Y66301999D01*
X-37499999Y15102000D02*
X-30300000Y22302000D01*
X-37499999Y103102000D02*
X-30300000Y110302000D01*
X-33607288Y22301999D02*
X-37200000Y25894711D01*
X-33607288Y66301999D02*
X-37200000Y69894711D01*
X-30300000Y22302000D02*
X-37499999Y29501999D01*
X-44699999Y22302000D02*
X-39899999Y22302000D01*
X-37200000Y113894711D02*
X-37200000Y113901999D01*
X-30300000Y66302000D02*
X-37499999Y73501999D01*
X-44699999Y110302000D02*
X-39899999Y110302000D01*
X-37499999Y59102000D02*
X-30300000Y66302000D01*
X-42300000Y19901999D02*
X-37499999Y15102000D01*
X-44699999Y66302000D02*
X-39899999Y66302000D01*
X-30300000Y110302000D02*
X-37499999Y117501999D01*
X-37207287Y18702000D02*
X-33607288Y22301999D01*
X-37499999Y73501999D02*
X-42300000Y68702000D01*
X-37499999Y117501999D02*
X-42300000Y112702000D01*
X-37499999Y29501999D02*
X-42300000Y24702000D01*
X-37200000Y25894711D02*
X-37200000Y25901999D01*
X-37207287Y106702000D02*
X-33607288Y110301999D01*
X-42300000Y107901999D02*
X-37499999Y103102000D01*
%LPC*%
D11*
G04 #@! TO.C,KiKit_MB_2_5*
X-62739400Y129002000D03*
G04 #@! TD*
G04 #@! TO.C,KiKit_MB_1_2*
X-9739401Y95002000D03*
G04 #@! TD*
G04 #@! TO.C,KiKit_MB_4_3*
X-63579800Y95002000D03*
G04 #@! TD*
G04 #@! TO.C,KiKit_MB_6_1*
X-66100999Y85002000D03*
G04 #@! TD*
D12*
G04 #@! TO.C,J3*
X-72440000Y61872000D03*
D13*
X-69900000Y68342000D03*
D14*
X-72440000Y67012000D03*
X-69900000Y65742000D03*
X-72440000Y64472000D03*
X-69900000Y63202000D03*
G04 #@! TD*
D11*
G04 #@! TO.C,KiKit_MB_2_3*
X-64420199Y129002000D03*
G04 #@! TD*
G04 #@! TO.C,KiKit_MB_3_6*
X-8899001Y129002000D03*
G04 #@! TD*
G04 #@! TO.C,KiKit_MB_12_1*
X-61899000Y7002000D03*
G04 #@! TD*
G04 #@! TO.C,KiKit_MB_5_2*
X-9739401Y51002000D03*
G04 #@! TD*
G04 #@! TO.C,KiKit_MB_12_2*
X-62739400Y7002000D03*
G04 #@! TD*
G04 #@! TO.C,KiKit_MB_7_5*
X-9739401Y85002000D03*
G04 #@! TD*
G04 #@! TO.C,KiKit_MB_4_5*
X-65260599Y95002000D03*
G04 #@! TD*
G04 #@! TO.C,KiKit_MB_10_2*
X-65260599Y41002000D03*
G04 #@! TD*
G04 #@! TO.C,KiKit_MB_10_1*
X-66100999Y41002000D03*
G04 #@! TD*
G04 #@! TO.C,KiKit_MB_7_3*
X-11420200Y85002000D03*
G04 #@! TD*
G04 #@! TO.C,KiKit_MB_5_4*
X-11420200Y51002000D03*
G04 #@! TD*
G04 #@! TO.C,KiKit_MB_10_4*
X-63579800Y41002000D03*
G04 #@! TD*
G04 #@! TO.C,KiKit_MB_11_2*
X-12260600Y41002000D03*
G04 #@! TD*
G04 #@! TO.C,KiKit_MB_5_1*
X-8899001Y51002000D03*
G04 #@! TD*
G04 #@! TO.C,KiKit_MB_7_1*
X-13101000Y85002000D03*
G04 #@! TD*
G04 #@! TO.C,KiKit_MB_5_3*
X-10579801Y51002000D03*
G04 #@! TD*
G04 #@! TO.C,KiKit_MB_10_6*
X-61899000Y41002000D03*
G04 #@! TD*
G04 #@! TO.C,KiKit_MB_8_5*
X-65260599Y51002000D03*
G04 #@! TD*
D15*
G04 #@! TO.C,H4*
X-4000000Y99002000D03*
G04 #@! TD*
D11*
G04 #@! TO.C,KiKit_MB_11_1*
X-13101000Y41002000D03*
G04 #@! TD*
G04 #@! TO.C,KiKit_MB_6_3*
X-64420199Y85002000D03*
G04 #@! TD*
D15*
G04 #@! TO.C,H4*
X-4000000Y11002000D03*
G04 #@! TD*
D11*
G04 #@! TO.C,KiKit_MB_12_5*
X-65260599Y7002000D03*
G04 #@! TD*
D12*
G04 #@! TO.C,J3*
X-72440000Y17872000D03*
D13*
X-69900000Y24342000D03*
D14*
X-72440000Y23012000D03*
X-69900000Y21742000D03*
X-72440000Y20472000D03*
X-69900000Y19202000D03*
G04 #@! TD*
D11*
G04 #@! TO.C,KiKit_MB_6_4*
X-63579800Y85002000D03*
G04 #@! TD*
D16*
G04 #@! TO.C,J1*
X-15400000Y11002000D03*
D17*
X-59600000Y11002000D03*
G04 #@! TD*
D15*
G04 #@! TO.C,H3*
X-71000000Y11002000D03*
G04 #@! TD*
D16*
G04 #@! TO.C,J1*
X-15400000Y99002000D03*
D17*
X-59600000Y99002000D03*
G04 #@! TD*
D11*
G04 #@! TO.C,KiKit_MB_6_2*
X-65260599Y85002000D03*
G04 #@! TD*
G04 #@! TO.C,KiKit_MB_3_1*
X-13101000Y129002000D03*
G04 #@! TD*
G04 #@! TO.C,KiKit_MB_7_4*
X-10579801Y85002000D03*
G04 #@! TD*
G04 #@! TO.C,KiKit_MB_8_3*
X-63579800Y51002000D03*
G04 #@! TD*
D16*
G04 #@! TO.C,J1*
X-15400000Y55002000D03*
D17*
X-59600000Y55002000D03*
G04 #@! TD*
D11*
G04 #@! TO.C,KiKit_MB_9_5*
X-12260600Y7002000D03*
G04 #@! TD*
G04 #@! TO.C,KiKit_MB_1_1*
X-8899001Y95002000D03*
G04 #@! TD*
D18*
G04 #@! TO.C,J4*
X-58550000Y121486001D03*
X-57280000Y119581000D03*
X-56010000Y121486001D03*
X-54739999Y119581000D03*
X-53470000Y121486001D03*
X-52199999Y119581000D03*
X-50930000Y121486000D03*
X-49659999Y119581000D03*
X-48390000Y121486001D03*
X-47119999Y119581000D03*
X-45850000Y121486001D03*
X-44579998Y119581000D03*
X-43310000Y121486001D03*
X-42039999Y119581000D03*
X-40770000Y121486000D03*
X-39499999Y119581000D03*
X-38230000Y121486000D03*
X-36959999Y119581000D03*
X-35690000Y121486001D03*
X-34420000Y119581000D03*
X-33150000Y121486001D03*
X-31879999Y119581000D03*
X-30610000Y121486001D03*
X-29339999Y119581000D03*
X-28070000Y121486000D03*
X-26799999Y119581000D03*
X-25530000Y121486001D03*
X-24259999Y119581000D03*
X-22990000Y121486001D03*
X-21719998Y119581000D03*
X-20450000Y121486001D03*
X-19179999Y119581000D03*
X-17910000Y121486000D03*
X-16639999Y119581000D03*
X-58550000Y125296000D03*
X-57280000Y123391000D03*
X-56010000Y125296000D03*
X-54740000Y123391000D03*
X-53470000Y125296000D03*
X-52200000Y123391000D03*
X-50930000Y125296000D03*
X-49660000Y123391000D03*
X-48390000Y125296000D03*
X-47120000Y123391000D03*
X-45850000Y125296000D03*
X-44580000Y123391000D03*
X-43310000Y125296000D03*
X-42040000Y123391000D03*
X-40770000Y125296000D03*
X-39500000Y123391000D03*
X-38230000Y125296000D03*
X-36960000Y123391000D03*
X-35690000Y125296000D03*
X-34420000Y123391000D03*
X-33150000Y125296000D03*
X-31880000Y123391000D03*
X-30610000Y125296000D03*
X-29340000Y123391000D03*
X-28070000Y125296000D03*
X-26800000Y123391000D03*
X-25530000Y125296000D03*
X-24260000Y123391000D03*
X-22990000Y125296000D03*
X-21720000Y123391000D03*
X-20450000Y125296000D03*
X-19180000Y123391000D03*
X-17910000Y125296000D03*
X-16640000Y123391000D03*
D19*
X-8639000Y123391000D03*
X-66550000Y123391000D03*
G04 #@! TD*
D11*
G04 #@! TO.C,KiKit_MB_8_2*
X-62739400Y51002000D03*
G04 #@! TD*
D15*
G04 #@! TO.C,H3*
X-71000000Y99002000D03*
G04 #@! TD*
D11*
G04 #@! TO.C,KiKit_MB_3_4*
X-10579801Y129002000D03*
G04 #@! TD*
G04 #@! TO.C,KiKit_MB_8_1*
X-61899000Y51002000D03*
G04 #@! TD*
G04 #@! TO.C,KiKit_MB_8_4*
X-64420199Y51002000D03*
G04 #@! TD*
D18*
G04 #@! TO.C,J4*
X-58550000Y33486001D03*
X-57280000Y31581000D03*
X-56010000Y33486001D03*
X-54739999Y31581000D03*
X-53470000Y33486001D03*
X-52199999Y31581000D03*
X-50930000Y33486000D03*
X-49659999Y31581000D03*
X-48390000Y33486001D03*
X-47119999Y31581000D03*
X-45850000Y33486001D03*
X-44579998Y31581000D03*
X-43310000Y33486001D03*
X-42039999Y31581000D03*
X-40770000Y33486000D03*
X-39499999Y31581000D03*
X-38230000Y33486000D03*
X-36959999Y31581000D03*
X-35690000Y33486001D03*
X-34420000Y31581000D03*
X-33150000Y33486001D03*
X-31879999Y31581000D03*
X-30610000Y33486001D03*
X-29339999Y31581000D03*
X-28070000Y33486000D03*
X-26799999Y31581000D03*
X-25530000Y33486001D03*
X-24259999Y31581000D03*
X-22990000Y33486001D03*
X-21719998Y31581000D03*
X-20450000Y33486001D03*
X-19179999Y31581000D03*
X-17910000Y33486000D03*
X-16639999Y31581000D03*
X-58550000Y37296000D03*
X-57280000Y35391000D03*
X-56010000Y37296000D03*
X-54740000Y35391000D03*
X-53470000Y37296000D03*
X-52200000Y35391000D03*
X-50930000Y37296000D03*
X-49660000Y35391000D03*
X-48390000Y37296000D03*
X-47120000Y35391000D03*
X-45850000Y37296000D03*
X-44580000Y35391000D03*
X-43310000Y37296000D03*
X-42040000Y35391000D03*
X-40770000Y37296000D03*
X-39500000Y35391000D03*
X-38230000Y37296000D03*
X-36960000Y35391000D03*
X-35690000Y37296000D03*
X-34420000Y35391000D03*
X-33150000Y37296000D03*
X-31880000Y35391000D03*
X-30610000Y37296000D03*
X-29340000Y35391000D03*
X-28070000Y37296000D03*
X-26800000Y35391000D03*
X-25530000Y37296000D03*
X-24260000Y35391000D03*
X-22990000Y37296000D03*
X-21720000Y35391000D03*
X-20450000Y37296000D03*
X-19180000Y35391000D03*
X-17910000Y37296000D03*
X-16640000Y35391000D03*
D19*
X-8639000Y35391000D03*
X-66550000Y35391000D03*
G04 #@! TD*
D11*
G04 #@! TO.C,KiKit_MB_11_4*
X-10579801Y41002000D03*
G04 #@! TD*
G04 #@! TO.C,KiKit_MB_9_1*
X-8899001Y7002000D03*
G04 #@! TD*
G04 #@! TO.C,KiKit_MB_2_1*
X-66100999Y129002000D03*
G04 #@! TD*
G04 #@! TO.C,KiKit_MB_7_2*
X-12260600Y85002000D03*
G04 #@! TD*
D15*
G04 #@! TO.C,H4*
X-4000000Y55002000D03*
G04 #@! TD*
G04 #@! TO.C,H3*
X-71000000Y55002000D03*
G04 #@! TD*
D11*
G04 #@! TO.C,KiKit_MB_2_4*
X-63579800Y129002000D03*
G04 #@! TD*
G04 #@! TO.C,KiKit_MB_4_1*
X-61899000Y95002000D03*
G04 #@! TD*
G04 #@! TO.C,KiKit_MB_10_3*
X-64420199Y41002000D03*
G04 #@! TD*
G04 #@! TO.C,KiKit_MB_7_6*
X-8899001Y85002000D03*
G04 #@! TD*
G04 #@! TO.C,KiKit_MB_6_5*
X-62739400Y85002000D03*
G04 #@! TD*
G04 #@! TO.C,KiKit_MB_12_6*
X-66100999Y7002000D03*
G04 #@! TD*
G04 #@! TO.C,KiKit_MB_5_6*
X-13101000Y51002000D03*
G04 #@! TD*
G04 #@! TO.C,KiKit_MB_11_3*
X-11420200Y41002000D03*
G04 #@! TD*
G04 #@! TO.C,KiKit_MB_1_4*
X-11420200Y95002000D03*
G04 #@! TD*
G04 #@! TO.C,KiKit_MB_1_6*
X-13101000Y95002000D03*
G04 #@! TD*
G04 #@! TO.C,KiKit_MB_5_5*
X-12260600Y51002000D03*
G04 #@! TD*
G04 #@! TO.C,KiKit_MB_4_2*
X-62739400Y95002000D03*
G04 #@! TD*
G04 #@! TO.C,KiKit_MB_1_3*
X-10579801Y95002000D03*
G04 #@! TD*
G04 #@! TO.C,KiKit_MB_2_6*
X-61899000Y129002000D03*
G04 #@! TD*
G04 #@! TO.C,KiKit_MB_6_6*
X-61899000Y85002000D03*
G04 #@! TD*
G04 #@! TO.C,KiKit_MB_9_3*
X-10579801Y7002000D03*
G04 #@! TD*
D12*
G04 #@! TO.C,J3*
X-72440000Y105872000D03*
D13*
X-69900000Y112342000D03*
D14*
X-72440000Y111012000D03*
X-69900000Y109742000D03*
X-72440000Y108472000D03*
X-69900000Y107202000D03*
G04 #@! TD*
D11*
G04 #@! TO.C,KiKit_MB_8_6*
X-66100999Y51002000D03*
G04 #@! TD*
G04 #@! TO.C,KiKit_MB_12_3*
X-63579800Y7002000D03*
G04 #@! TD*
G04 #@! TO.C,KiKit_MB_1_5*
X-12260600Y95002000D03*
G04 #@! TD*
G04 #@! TO.C,KiKit_MB_3_3*
X-11420200Y129002000D03*
G04 #@! TD*
G04 #@! TO.C,KiKit_MB_4_4*
X-64420199Y95002000D03*
G04 #@! TD*
G04 #@! TO.C,KiKit_MB_12_4*
X-64420199Y7002000D03*
G04 #@! TD*
G04 #@! TO.C,KiKit_MB_3_5*
X-9739401Y129002000D03*
G04 #@! TD*
G04 #@! TO.C,KiKit_MB_2_2*
X-65260599Y129002000D03*
G04 #@! TD*
D18*
G04 #@! TO.C,J4*
X-58550000Y77486001D03*
X-57280000Y75581000D03*
X-56010000Y77486001D03*
X-54739999Y75581000D03*
X-53470000Y77486001D03*
X-52199999Y75581000D03*
X-50930000Y77486000D03*
X-49659999Y75581000D03*
X-48390000Y77486001D03*
X-47119999Y75581000D03*
X-45850000Y77486001D03*
X-44579998Y75581000D03*
X-43310000Y77486001D03*
X-42039999Y75581000D03*
X-40770000Y77486000D03*
X-39499999Y75581000D03*
X-38230000Y77486000D03*
X-36959999Y75581000D03*
X-35690000Y77486001D03*
X-34420000Y75581000D03*
X-33150000Y77486001D03*
X-31879999Y75581000D03*
X-30610000Y77486001D03*
X-29339999Y75581000D03*
X-28070000Y77486000D03*
X-26799999Y75581000D03*
X-25530000Y77486001D03*
X-24259999Y75581000D03*
X-22990000Y77486001D03*
X-21719998Y75581000D03*
X-20450000Y77486001D03*
X-19179999Y75581000D03*
X-17910000Y77486000D03*
X-16639999Y75581000D03*
X-58550000Y81296000D03*
X-57280000Y79391000D03*
X-56010000Y81296000D03*
X-54740000Y79391000D03*
X-53470000Y81296000D03*
X-52200000Y79391000D03*
X-50930000Y81296000D03*
X-49660000Y79391000D03*
X-48390000Y81296000D03*
X-47120000Y79391000D03*
X-45850000Y81296000D03*
X-44580000Y79391000D03*
X-43310000Y81296000D03*
X-42040000Y79391000D03*
X-40770000Y81296000D03*
X-39500000Y79391000D03*
X-38230000Y81296000D03*
X-36960000Y79391000D03*
X-35690000Y81296000D03*
X-34420000Y79391000D03*
X-33150000Y81296000D03*
X-31880000Y79391000D03*
X-30610000Y81296000D03*
X-29340000Y79391000D03*
X-28070000Y81296000D03*
X-26800000Y79391000D03*
X-25530000Y81296000D03*
X-24260000Y79391000D03*
X-22990000Y81296000D03*
X-21720000Y79391000D03*
X-20450000Y81296000D03*
X-19180000Y79391000D03*
X-17910000Y81296000D03*
X-16640000Y79391000D03*
D19*
X-8639000Y79391000D03*
X-66550000Y79391000D03*
G04 #@! TD*
D11*
G04 #@! TO.C,KiKit_MB_11_5*
X-9739401Y41002000D03*
G04 #@! TD*
G04 #@! TO.C,KiKit_MB_4_6*
X-66100999Y95002000D03*
G04 #@! TD*
G04 #@! TO.C,KiKit_MB_11_6*
X-8899001Y41002000D03*
G04 #@! TD*
G04 #@! TO.C,KiKit_MB_9_4*
X-11420200Y7002000D03*
G04 #@! TD*
G04 #@! TO.C,KiKit_MB_3_2*
X-12260600Y129002000D03*
G04 #@! TD*
G04 #@! TO.C,KiKit_MB_10_5*
X-62739400Y41002000D03*
G04 #@! TD*
G04 #@! TO.C,KiKit_MB_9_6*
X-13101000Y7002000D03*
G04 #@! TD*
G04 #@! TO.C,KiKit_MB_9_2*
X-9739401Y7002000D03*
G04 #@! TD*
D20*
G04 #@! TO.C,KiKit_FID_B_1*
X-72500000Y133503500D03*
G04 #@! TD*
G04 #@! TO.C,KiKit_FID_B_2*
X-2500000Y133503500D03*
G04 #@! TD*
G04 #@! TO.C,KiKit_FID_B_3*
X-72500000Y2500000D03*
G04 #@! TD*
G36*
X-56961Y72582315D02*
G01*
X-11206Y72529511D01*
X0Y72478000D01*
X0Y63526000D01*
X-19685Y63458961D01*
X-72489Y63413206D01*
X-124000Y63402000D01*
X-2376000Y63402000D01*
X-2443039Y63421685D01*
X-2488794Y63474489D01*
X-2500000Y63526000D01*
X-2500000Y72478000D01*
X-2480315Y72545039D01*
X-2427511Y72590794D01*
X-2376000Y72602000D01*
X-124000Y72602000D01*
X-56961Y72582315D01*
G37*
G36*
X-56961Y28582315D02*
G01*
X-11206Y28529511D01*
X0Y28478000D01*
X0Y19526000D01*
X-19685Y19458961D01*
X-72489Y19413206D01*
X-124000Y19402000D01*
X-2376000Y19402000D01*
X-2443039Y19421685D01*
X-2488794Y19474489D01*
X-2500000Y19526000D01*
X-2500000Y28478000D01*
X-2480315Y28545039D01*
X-2427511Y28590794D01*
X-2376000Y28602000D01*
X-124000Y28602000D01*
X-56961Y28582315D01*
G37*
G36*
X-56961Y116582315D02*
G01*
X-11206Y116529511D01*
X0Y116478000D01*
X0Y107526000D01*
X-19685Y107458961D01*
X-72489Y107413206D01*
X-124000Y107402000D01*
X-2376000Y107402000D01*
X-2443039Y107421685D01*
X-2488794Y107474489D01*
X-2500000Y107526000D01*
X-2500000Y116478000D01*
X-2480315Y116545039D01*
X-2427511Y116590794D01*
X-2376000Y116602000D01*
X-124000Y116602000D01*
X-56961Y116582315D01*
G37*
%LPD*%
M02*
