G04 #@! TF.GenerationSoftware,KiCad,Pcbnew,8.0.6*
G04 #@! TF.CreationDate,2024-11-07T02:27:23-08:00*
G04 #@! TF.ProjectId,mse-50-hd,6d73652d-3530-42d6-9864-2e6b69636164,1*
G04 #@! TF.SameCoordinates,Original*
G04 #@! TF.FileFunction,Copper,L5,Inr*
G04 #@! TF.FilePolarity,Positive*
%FSLAX46Y46*%
G04 Gerber Fmt 4.6, Leading zero omitted, Abs format (unit mm)*
G04 Created by KiCad (PCBNEW 8.0.6) date 2024-11-07 02:27:23*
%MOMM*%
%LPD*%
G01*
G04 APERTURE LIST*
%ADD10C,0.300000*%
G04 #@! TA.AperFunction,NonConductor*
%ADD11C,0.300000*%
G04 #@! TD*
G04 #@! TA.AperFunction,ComponentPad*
%ADD12C,1.200000*%
G04 #@! TD*
G04 #@! TA.AperFunction,ComponentPad*
%ADD13C,6.400000*%
G04 #@! TD*
G04 #@! TA.AperFunction,ComponentPad*
%ADD14C,1.850000*%
G04 #@! TD*
G04 #@! TA.AperFunction,ViaPad*
%ADD15C,0.450000*%
G04 #@! TD*
G04 APERTURE END LIST*
D10*
D11*
X-1999172Y19557144D02*
X-1999172Y18842858D01*
X-1999172Y18842858D02*
X-1284886Y18771430D01*
X-1284886Y18771430D02*
X-1356315Y18842858D01*
X-1356315Y18842858D02*
X-1427743Y18985715D01*
X-1427743Y18985715D02*
X-1427743Y19342858D01*
X-1427743Y19342858D02*
X-1356315Y19485715D01*
X-1356315Y19485715D02*
X-1284886Y19557144D01*
X-1284886Y19557144D02*
X-1142029Y19628573D01*
X-1142029Y19628573D02*
X-784886Y19628573D01*
X-784886Y19628573D02*
X-642029Y19557144D01*
X-642029Y19557144D02*
X-570600Y19485715D01*
X-570600Y19485715D02*
X-499172Y19342858D01*
X-499172Y19342858D02*
X-499172Y18985715D01*
X-499172Y18985715D02*
X-570600Y18842858D01*
X-570600Y18842858D02*
X-642029Y18771430D01*
D12*
G04 #@! TO.N,GND*
G04 #@! TO.C,J5*
X-41310001Y26511001D03*
X-38770000Y26511001D03*
X-36229999Y26510998D03*
X-34959999Y24606000D03*
X-32419998Y24606000D03*
X-41309999Y30320999D03*
X-40040000Y28416000D03*
X-38770000Y30320999D03*
X-36229999Y30320999D03*
X-34960002Y28415999D03*
X-32420000Y28415999D03*
G04 #@! TD*
D13*
G04 #@! TO.N,GND*
G04 #@! TO.C,H4*
X-4000000Y4000000D03*
G04 #@! TD*
D14*
G04 #@! TO.N,GND*
G04 #@! TO.C,J3*
X-72440000Y13470000D03*
G04 #@! TD*
D13*
G04 #@! TO.N,GND*
G04 #@! TO.C,H3*
X-71000000Y4000000D03*
G04 #@! TD*
D15*
G04 #@! TO.N,GND*
X-20300000Y5400000D03*
X-22700000Y1800000D03*
X-49100000Y1800000D03*
X-53900000Y1000000D03*
X-29900000Y2600000D03*
X-39500000Y6200000D03*
X-39500000Y1800000D03*
X-44300000Y7000000D03*
X-49100000Y6200000D03*
X-64650000Y4000000D03*
X-46700000Y6200000D03*
X-51500000Y2600000D03*
X-27500000Y2600000D03*
X-39500000Y7000000D03*
X-32300000Y1800000D03*
X-53900000Y5400000D03*
X-20300000Y1800000D03*
X-53900000Y2600000D03*
X-37100000Y5400000D03*
X-63600000Y4000000D03*
X-25100000Y7000000D03*
X-39500000Y5400000D03*
X-33900000Y1000000D03*
X-41900000Y1000000D03*
X-64100000Y4500000D03*
X-33900000Y2600000D03*
X-44300000Y3200000D03*
X-49100000Y2600000D03*
X-33900000Y6200000D03*
X-51500000Y5400000D03*
X-32300000Y3200000D03*
X-20300000Y3200000D03*
X-44300000Y6200000D03*
X-27500000Y6200000D03*
X-39500000Y1000000D03*
X-29900000Y3200000D03*
X-25100000Y1800000D03*
X-41900000Y7000000D03*
X-53900000Y7000000D03*
X-41900000Y6200000D03*
X-27500000Y5400000D03*
X-54700000Y6200000D03*
X-29900000Y1000000D03*
X-20300000Y1000000D03*
X-53900000Y1800000D03*
X-51500000Y6200000D03*
X-20300000Y2600000D03*
X-49100000Y3200000D03*
X-22700000Y1000000D03*
X-44300000Y5400000D03*
X-33900000Y1800000D03*
X-32300000Y5400000D03*
X-37100000Y3200000D03*
X-20300000Y6200000D03*
X-37100000Y6200000D03*
X-25100000Y2600000D03*
X-33900000Y3200000D03*
X-27500000Y3200000D03*
X-37100000Y7000000D03*
X-39500000Y2600000D03*
X-25100000Y6200000D03*
X-33900000Y7000000D03*
X-51500000Y7000000D03*
X-54700000Y7000000D03*
X-29900000Y7000000D03*
X-17900000Y3200000D03*
X-44300000Y1800000D03*
X-22700000Y2600000D03*
X-17900000Y5400000D03*
X-41900000Y2600000D03*
X-17900000Y7000000D03*
X-44300000Y1000000D03*
X-32300000Y7000000D03*
X-51500000Y1800000D03*
X-54700000Y5400000D03*
X-22700000Y6200000D03*
X-57100000Y5400000D03*
X-37100000Y1800000D03*
X-46700000Y1000000D03*
X-25100000Y1000000D03*
X-32300000Y2600000D03*
X-44300000Y2600000D03*
X-46700000Y5400000D03*
X-54700000Y1800000D03*
X-22700000Y7000000D03*
X-46700000Y2600000D03*
X-37100000Y1000000D03*
X-37100000Y2600000D03*
X-41900000Y3200000D03*
X-51500000Y1000000D03*
X-17900000Y1000000D03*
X-20300000Y7000000D03*
X-57100000Y6200000D03*
X-32300000Y1000000D03*
X-33900000Y5400000D03*
X-46700000Y1800000D03*
X-29900000Y5400000D03*
X-27500000Y1800000D03*
X-41900000Y1800000D03*
X-53900000Y3200000D03*
X-25100000Y3200000D03*
X-53900000Y6200000D03*
X-41900000Y5400000D03*
X-29900000Y6200000D03*
X-49100000Y5400000D03*
X-54700000Y2600000D03*
X-46700000Y3200000D03*
X-49100000Y7000000D03*
X-49100000Y1000000D03*
X-46700000Y7000000D03*
X-29900000Y1800000D03*
X-25100000Y5400000D03*
X-64100000Y3500000D03*
X-32300000Y6200000D03*
X-51500000Y3200000D03*
X-17900000Y6200000D03*
X-27500000Y1000000D03*
X-57100000Y7000000D03*
X-22700000Y5400000D03*
X-17900000Y2600000D03*
X-39500000Y3200000D03*
X-22700000Y3200000D03*
X-54700000Y1000000D03*
X-17900000Y1800000D03*
X-27500000Y7000000D03*
X-66050000Y3150000D03*
G04 #@! TO.N,/PHY.ID_SCL*
X-67200000Y12150000D03*
X-63000000Y8500000D03*
G04 #@! TO.N,+3V3*
X-56300000Y1800000D03*
X-67200000Y16500000D03*
X-67200000Y10500000D03*
X-66050000Y4850000D03*
X-56300000Y1000000D03*
X-56300000Y2600000D03*
X-62150000Y4850000D03*
G04 #@! TO.N,/PHY.ID_SDA*
X-67200000Y14750000D03*
X-62400000Y7900000D03*
G04 #@! TO.N,/CON.C{slash}D+*
X-25900000Y3200000D03*
G04 #@! TO.N,/CON.ACK+*
X-30700000Y3200000D03*
G04 #@! TO.N,/CON.TERMPWR*
X-34700000Y1800000D03*
X-35500000Y2600000D03*
X-35500000Y1800000D03*
X-34700000Y7000000D03*
X-34700000Y5400000D03*
X-34700000Y6200000D03*
X-35500000Y1000000D03*
X-35500000Y7000000D03*
X-34700000Y1000000D03*
X-35500000Y6200000D03*
X-34700000Y2600000D03*
X-35500000Y5400000D03*
G04 #@! TO.N,/CON.BSY+*
X-31500000Y3200000D03*
G04 #@! TO.N,/CON.DB5+*
X-41100000Y3200000D03*
G04 #@! TO.N,/CON.DP0+*
X-37900000Y3200000D03*
G04 #@! TO.N,/CON.SEL+*
X-26700000Y3200000D03*
G04 #@! TO.N,/CON.ATN+*
X-33100000Y3200000D03*
G04 #@! TO.N,/CON.DB7+*
X-38700000Y3200000D03*
G04 #@! TO.N,/CON.REQ+*
X-24300000Y3200000D03*
G04 #@! TO.N,/CON.MSG+*
X-28300000Y3200000D03*
G04 #@! TO.N,/CON.DB3+*
X-43500000Y3200000D03*
G04 #@! TO.N,/CON.DIFFSENSE*
X-36300000Y3200000D03*
G04 #@! TO.N,/CON.I{slash}O+*
X-23500000Y3200000D03*
G04 #@! TO.N,/CON.DB4+*
X-42700000Y3200000D03*
G04 #@! TO.N,/CON.RST+*
X-29100000Y3200000D03*
G04 #@! TO.N,/CON.DB6+*
X-40300000Y3200000D03*
G04 #@! TO.N,/CON.DB1+*
X-45900000Y3200000D03*
G04 #@! TO.N,/CON.DB2+*
X-45100000Y3200000D03*
G04 #@! TO.N,/CON.DB0+*
X-47500000Y3200000D03*
G04 #@! TD*
G04 #@! TA.AperFunction,Conductor*
G04 #@! TO.N,GND*
G36*
X-3998800Y33799442D02*
G01*
X-3629980Y33781322D01*
X-3625219Y33780854D01*
X-3261123Y33726846D01*
X-3256433Y33725913D01*
X-2963065Y33652428D01*
X-2899399Y33636480D01*
X-2894797Y33635084D01*
X-2781323Y33594483D01*
X-2548244Y33511085D01*
X-2543817Y33509251D01*
X-2211103Y33351889D01*
X-2206878Y33349632D01*
X-2015692Y33235039D01*
X-1891172Y33160404D01*
X-1887174Y33157732D01*
X-1739367Y33048111D01*
X-1591555Y32938486D01*
X-1587843Y32935440D01*
X-1315133Y32688269D01*
X-1311732Y32684868D01*
X-1064561Y32412158D01*
X-1061511Y32408441D01*
X-842269Y32112827D01*
X-839597Y32108829D01*
X-650374Y31793131D01*
X-648108Y31788890D01*
X-490754Y31456192D01*
X-488913Y31451750D01*
X-364917Y31105204D01*
X-363521Y31100602D01*
X-274091Y30743581D01*
X-273153Y30738865D01*
X-219149Y30374794D01*
X-218678Y30370008D01*
X-200559Y30001201D01*
X-200500Y29998797D01*
X-200500Y21599000D01*
X-214852Y21564352D01*
X-249500Y21550000D01*
X-2500000Y21550000D01*
X-2500000Y12350000D01*
X-249500Y12350000D01*
X-214852Y12335648D01*
X-200500Y12301000D01*
X-200500Y4001204D01*
X-200559Y3998800D01*
X-218678Y3629993D01*
X-219149Y3625207D01*
X-273153Y3261136D01*
X-274091Y3256420D01*
X-363521Y2899399D01*
X-364917Y2894797D01*
X-488913Y2548251D01*
X-490754Y2543809D01*
X-648108Y2211111D01*
X-650374Y2206870D01*
X-839597Y1891172D01*
X-842269Y1887174D01*
X-1061511Y1591560D01*
X-1064561Y1587843D01*
X-1311732Y1315133D01*
X-1315133Y1311732D01*
X-1587843Y1064561D01*
X-1591560Y1061511D01*
X-1887174Y842269D01*
X-1891172Y839597D01*
X-2206870Y650374D01*
X-2211111Y648108D01*
X-2543809Y490754D01*
X-2548251Y488913D01*
X-2894797Y364917D01*
X-2899399Y363521D01*
X-3256420Y274091D01*
X-3261136Y273153D01*
X-3625207Y219149D01*
X-3629993Y218678D01*
X-3998799Y200559D01*
X-4001203Y200500D01*
X-70998797Y200500D01*
X-71001201Y200559D01*
X-71370008Y218678D01*
X-71374794Y219149D01*
X-71738865Y273153D01*
X-71743581Y274091D01*
X-72100602Y363521D01*
X-72105204Y364917D01*
X-72451750Y488913D01*
X-72456192Y490754D01*
X-72788890Y648108D01*
X-72793131Y650374D01*
X-72810149Y660574D01*
X-72894723Y711266D01*
X-73108829Y839597D01*
X-73112827Y842269D01*
X-73325503Y1000000D01*
X-56656894Y1000000D01*
X-56639426Y889714D01*
X-56588733Y790223D01*
X-56509777Y711267D01*
X-56410286Y660574D01*
X-56300000Y643106D01*
X-56189714Y660574D01*
X-56090223Y711267D01*
X-56011267Y790223D01*
X-55960574Y889714D01*
X-55943106Y1000000D01*
X-35856894Y1000000D01*
X-35839426Y889714D01*
X-35788733Y790223D01*
X-35709777Y711267D01*
X-35610286Y660574D01*
X-35500000Y643106D01*
X-35389714Y660574D01*
X-35290223Y711267D01*
X-35211267Y790223D01*
X-35160574Y889714D01*
X-35148397Y966601D01*
X-35128801Y998575D01*
X-35125186Y999443D01*
X-35079463Y999443D01*
X-35060358Y987734D01*
X-35051605Y966602D01*
X-35039426Y889714D01*
X-34988733Y790223D01*
X-34909777Y711267D01*
X-34810286Y660574D01*
X-34700000Y643106D01*
X-34589714Y660574D01*
X-34490223Y711267D01*
X-34411267Y790223D01*
X-34360574Y889714D01*
X-34343106Y1000000D01*
X-34360574Y1110286D01*
X-34411267Y1209777D01*
X-34490223Y1288733D01*
X-34490226Y1288735D01*
X-34589714Y1339426D01*
X-34666601Y1351604D01*
X-34698575Y1371199D01*
X-34700559Y1379463D01*
X-34712267Y1360358D01*
X-34733400Y1351604D01*
X-34792274Y1342279D01*
X-34810287Y1339426D01*
X-34909775Y1288735D01*
X-34909778Y1288733D01*
X-34988733Y1209778D01*
X-34988735Y1209775D01*
X-35039426Y1110287D01*
X-35039426Y1110286D01*
X-35051604Y1033401D01*
X-35071199Y1001426D01*
X-35079463Y999443D01*
X-35125186Y999443D01*
X-35120538Y1000559D01*
X-35139642Y1012267D01*
X-35148397Y1033400D01*
X-35160574Y1110286D01*
X-35211267Y1209777D01*
X-35290223Y1288733D01*
X-35290226Y1288735D01*
X-35389714Y1339426D01*
X-35466601Y1351604D01*
X-35498575Y1371199D01*
X-35500559Y1379463D01*
X-35512267Y1360358D01*
X-35533400Y1351604D01*
X-35592274Y1342279D01*
X-35610287Y1339426D01*
X-35709775Y1288735D01*
X-35709778Y1288733D01*
X-35788733Y1209778D01*
X-35788735Y1209775D01*
X-35839426Y1110287D01*
X-35839426Y1110286D01*
X-35856894Y1000000D01*
X-55943106Y1000000D01*
X-55960574Y1110286D01*
X-56011267Y1209777D01*
X-56090223Y1288733D01*
X-56090226Y1288735D01*
X-56189714Y1339426D01*
X-56266601Y1351604D01*
X-56298575Y1371199D01*
X-56300559Y1379463D01*
X-56312267Y1360358D01*
X-56333400Y1351604D01*
X-56392274Y1342279D01*
X-56410287Y1339426D01*
X-56509775Y1288735D01*
X-56509778Y1288733D01*
X-56588733Y1209778D01*
X-56588735Y1209775D01*
X-56639426Y1110287D01*
X-56639426Y1110286D01*
X-56656894Y1000000D01*
X-73325503Y1000000D01*
X-73408441Y1061511D01*
X-73412158Y1064561D01*
X-73684868Y1311732D01*
X-73688269Y1315133D01*
X-73935440Y1587843D01*
X-73938490Y1591560D01*
X-74093079Y1800000D01*
X-56656894Y1800000D01*
X-56639426Y1689714D01*
X-56589415Y1591560D01*
X-56588733Y1590223D01*
X-56509777Y1511267D01*
X-56410286Y1460574D01*
X-56333401Y1448397D01*
X-56301426Y1428801D01*
X-56299443Y1420538D01*
X-56287734Y1439642D01*
X-56266602Y1448396D01*
X-56189714Y1460574D01*
X-56090223Y1511267D01*
X-56011267Y1590223D01*
X-55960574Y1689714D01*
X-55943106Y1800000D01*
X-35856894Y1800000D01*
X-35839426Y1689714D01*
X-35789415Y1591560D01*
X-35788733Y1590223D01*
X-35709777Y1511267D01*
X-35610286Y1460574D01*
X-35533401Y1448397D01*
X-35501426Y1428801D01*
X-35499443Y1420538D01*
X-35487734Y1439642D01*
X-35466602Y1448396D01*
X-35389714Y1460574D01*
X-35290223Y1511267D01*
X-35211267Y1590223D01*
X-35160574Y1689714D01*
X-35148397Y1766601D01*
X-35128801Y1798575D01*
X-35125186Y1799443D01*
X-35079463Y1799443D01*
X-35060358Y1787734D01*
X-35051605Y1766602D01*
X-35039426Y1689714D01*
X-34989415Y1591560D01*
X-34988733Y1590223D01*
X-34909777Y1511267D01*
X-34810286Y1460574D01*
X-34733401Y1448397D01*
X-34701426Y1428801D01*
X-34699443Y1420538D01*
X-34687734Y1439642D01*
X-34666602Y1448396D01*
X-34589714Y1460574D01*
X-34490223Y1511267D01*
X-34411267Y1590223D01*
X-34360574Y1689714D01*
X-34343106Y1800000D01*
X-34360574Y1910286D01*
X-34411267Y2009777D01*
X-34490223Y2088733D01*
X-34490226Y2088735D01*
X-34589714Y2139426D01*
X-34666601Y2151604D01*
X-34698575Y2171199D01*
X-34700559Y2179463D01*
X-34712267Y2160358D01*
X-34733400Y2151604D01*
X-34792274Y2142279D01*
X-34810287Y2139426D01*
X-34909775Y2088735D01*
X-34909778Y2088733D01*
X-34988733Y2009778D01*
X-34988735Y2009775D01*
X-35039426Y1910287D01*
X-35039426Y1910286D01*
X-35051604Y1833401D01*
X-35071199Y1801426D01*
X-35079463Y1799443D01*
X-35125186Y1799443D01*
X-35120538Y1800559D01*
X-35139642Y1812267D01*
X-35148397Y1833400D01*
X-35160574Y1910286D01*
X-35211267Y2009777D01*
X-35290223Y2088733D01*
X-35290226Y2088735D01*
X-35389714Y2139426D01*
X-35466601Y2151604D01*
X-35498575Y2171199D01*
X-35500559Y2179463D01*
X-35512267Y2160358D01*
X-35533400Y2151604D01*
X-35592274Y2142279D01*
X-35610287Y2139426D01*
X-35709775Y2088735D01*
X-35709778Y2088733D01*
X-35788733Y2009778D01*
X-35788735Y2009775D01*
X-35839426Y1910287D01*
X-35856894Y1800000D01*
X-55943106Y1800000D01*
X-55960574Y1910286D01*
X-56011267Y2009777D01*
X-56090223Y2088733D01*
X-56090226Y2088735D01*
X-56189714Y2139426D01*
X-56266601Y2151604D01*
X-56298575Y2171199D01*
X-56300559Y2179463D01*
X-56312267Y2160358D01*
X-56333400Y2151604D01*
X-56392274Y2142279D01*
X-56410287Y2139426D01*
X-56509775Y2088735D01*
X-56509778Y2088733D01*
X-56588733Y2009778D01*
X-56588735Y2009775D01*
X-56639426Y1910287D01*
X-56656894Y1800000D01*
X-74093079Y1800000D01*
X-74157732Y1887174D01*
X-74160404Y1891172D01*
X-74319672Y2156894D01*
X-74349632Y2206878D01*
X-74351889Y2211103D01*
X-74509251Y2543817D01*
X-74511088Y2548251D01*
X-74529405Y2599443D01*
X-74529604Y2600000D01*
X-56656894Y2600000D01*
X-56639426Y2489714D01*
X-56588733Y2390223D01*
X-56509777Y2311267D01*
X-56410286Y2260574D01*
X-56333401Y2248397D01*
X-56301426Y2228801D01*
X-56299443Y2220538D01*
X-56287734Y2239642D01*
X-56266602Y2248396D01*
X-56189714Y2260574D01*
X-56090223Y2311267D01*
X-56011267Y2390223D01*
X-55960574Y2489714D01*
X-55943106Y2600000D01*
X-35856894Y2600000D01*
X-35839426Y2489714D01*
X-35788733Y2390223D01*
X-35709777Y2311267D01*
X-35610286Y2260574D01*
X-35533401Y2248397D01*
X-35501426Y2228801D01*
X-35499443Y2220538D01*
X-35487734Y2239642D01*
X-35466602Y2248396D01*
X-35389714Y2260574D01*
X-35290223Y2311267D01*
X-35211267Y2390223D01*
X-35160574Y2489714D01*
X-35148397Y2566601D01*
X-35128801Y2598575D01*
X-35125186Y2599443D01*
X-35079463Y2599443D01*
X-35060358Y2587734D01*
X-35051605Y2566602D01*
X-35039426Y2489714D01*
X-34988733Y2390223D01*
X-34909777Y2311267D01*
X-34810286Y2260574D01*
X-34733401Y2248397D01*
X-34701426Y2228801D01*
X-34699443Y2220538D01*
X-34687734Y2239642D01*
X-34666602Y2248396D01*
X-34589714Y2260574D01*
X-34490223Y2311267D01*
X-34411267Y2390223D01*
X-34360574Y2489714D01*
X-34343106Y2600000D01*
X-34360574Y2710286D01*
X-34411267Y2809777D01*
X-34490223Y2888733D01*
X-34490226Y2888735D01*
X-34589714Y2939426D01*
X-34700000Y2956894D01*
X-34810287Y2939426D01*
X-34909775Y2888735D01*
X-34909778Y2888733D01*
X-34988733Y2809778D01*
X-34988735Y2809775D01*
X-35039426Y2710287D01*
X-35039426Y2710286D01*
X-35051604Y2633401D01*
X-35071199Y2601426D01*
X-35079463Y2599443D01*
X-35125186Y2599443D01*
X-35120538Y2600559D01*
X-35139642Y2612267D01*
X-35148397Y2633400D01*
X-35160574Y2710286D01*
X-35211267Y2809777D01*
X-35290223Y2888733D01*
X-35290226Y2888735D01*
X-35389714Y2939426D01*
X-35500000Y2956894D01*
X-35610287Y2939426D01*
X-35709775Y2888735D01*
X-35709778Y2888733D01*
X-35788733Y2809778D01*
X-35788735Y2809775D01*
X-35839426Y2710287D01*
X-35839426Y2710286D01*
X-35856894Y2600000D01*
X-55943106Y2600000D01*
X-55960574Y2710286D01*
X-56011267Y2809777D01*
X-56090223Y2888733D01*
X-56090226Y2888735D01*
X-56189714Y2939426D01*
X-56300000Y2956894D01*
X-56410287Y2939426D01*
X-56509775Y2888735D01*
X-56509778Y2888733D01*
X-56588733Y2809778D01*
X-56588735Y2809775D01*
X-56639426Y2710287D01*
X-56639426Y2710286D01*
X-56656894Y2600000D01*
X-74529604Y2600000D01*
X-74635084Y2894797D01*
X-74636480Y2899399D01*
X-74684152Y3089714D01*
X-74711777Y3200000D01*
X-47856894Y3200000D01*
X-47839426Y3089714D01*
X-47788733Y2990223D01*
X-47709777Y2911267D01*
X-47610286Y2860574D01*
X-47500000Y2843106D01*
X-47389714Y2860574D01*
X-47290223Y2911267D01*
X-47211267Y2990223D01*
X-47160574Y3089714D01*
X-47143106Y3200000D01*
X-46256894Y3200000D01*
X-46239426Y3089714D01*
X-46188733Y2990223D01*
X-46109777Y2911267D01*
X-46010286Y2860574D01*
X-45900000Y2843106D01*
X-45789714Y2860574D01*
X-45690223Y2911267D01*
X-45611267Y2990223D01*
X-45560574Y3089714D01*
X-45548397Y3166601D01*
X-45528801Y3198575D01*
X-45525186Y3199443D01*
X-45479463Y3199443D01*
X-45460358Y3187734D01*
X-45451605Y3166602D01*
X-45439426Y3089714D01*
X-45388733Y2990223D01*
X-45309777Y2911267D01*
X-45210286Y2860574D01*
X-45100000Y2843106D01*
X-44989714Y2860574D01*
X-44890223Y2911267D01*
X-44811267Y2990223D01*
X-44760574Y3089714D01*
X-44743106Y3200000D01*
X-43856894Y3200000D01*
X-43839426Y3089714D01*
X-43788733Y2990223D01*
X-43709777Y2911267D01*
X-43610286Y2860574D01*
X-43500000Y2843106D01*
X-43389714Y2860574D01*
X-43290223Y2911267D01*
X-43211267Y2990223D01*
X-43160574Y3089714D01*
X-43148397Y3166601D01*
X-43128801Y3198575D01*
X-43125186Y3199443D01*
X-43079463Y3199443D01*
X-43060358Y3187734D01*
X-43051605Y3166602D01*
X-43039426Y3089714D01*
X-42988733Y2990223D01*
X-42909777Y2911267D01*
X-42810286Y2860574D01*
X-42700000Y2843106D01*
X-42589714Y2860574D01*
X-42490223Y2911267D01*
X-42411267Y2990223D01*
X-42360574Y3089714D01*
X-42343106Y3200000D01*
X-41456894Y3200000D01*
X-41439426Y3089714D01*
X-41388733Y2990223D01*
X-41309777Y2911267D01*
X-41210286Y2860574D01*
X-41100000Y2843106D01*
X-40989714Y2860574D01*
X-40890223Y2911267D01*
X-40811267Y2990223D01*
X-40760574Y3089714D01*
X-40748397Y3166601D01*
X-40728801Y3198575D01*
X-40725186Y3199443D01*
X-40679463Y3199443D01*
X-40660358Y3187734D01*
X-40651605Y3166602D01*
X-40639426Y3089714D01*
X-40588733Y2990223D01*
X-40509777Y2911267D01*
X-40410286Y2860574D01*
X-40300000Y2843106D01*
X-40189714Y2860574D01*
X-40090223Y2911267D01*
X-40011267Y2990223D01*
X-39960574Y3089714D01*
X-39943106Y3200000D01*
X-39056894Y3200000D01*
X-39039426Y3089714D01*
X-38988733Y2990223D01*
X-38909777Y2911267D01*
X-38810286Y2860574D01*
X-38700000Y2843106D01*
X-38589714Y2860574D01*
X-38490223Y2911267D01*
X-38411267Y2990223D01*
X-38360574Y3089714D01*
X-38348397Y3166601D01*
X-38328801Y3198575D01*
X-38325186Y3199443D01*
X-38279463Y3199443D01*
X-38260358Y3187734D01*
X-38251605Y3166602D01*
X-38239426Y3089714D01*
X-38188733Y2990223D01*
X-38109777Y2911267D01*
X-38010286Y2860574D01*
X-37900000Y2843106D01*
X-37789714Y2860574D01*
X-37690223Y2911267D01*
X-37611267Y2990223D01*
X-37560574Y3089714D01*
X-37543106Y3200000D01*
X-36656894Y3200000D01*
X-36639426Y3089714D01*
X-36588733Y2990223D01*
X-36509777Y2911267D01*
X-36410286Y2860574D01*
X-36300000Y2843106D01*
X-36189714Y2860574D01*
X-36090223Y2911267D01*
X-36011267Y2990223D01*
X-35960574Y3089714D01*
X-35943106Y3200000D01*
X-33456894Y3200000D01*
X-33439426Y3089714D01*
X-33388733Y2990223D01*
X-33309777Y2911267D01*
X-33210286Y2860574D01*
X-33100000Y2843106D01*
X-32989714Y2860574D01*
X-32890223Y2911267D01*
X-32811267Y2990223D01*
X-32760574Y3089714D01*
X-32743106Y3200000D01*
X-31856894Y3200000D01*
X-31839426Y3089714D01*
X-31788733Y2990223D01*
X-31709777Y2911267D01*
X-31610286Y2860574D01*
X-31500000Y2843106D01*
X-31389714Y2860574D01*
X-31290223Y2911267D01*
X-31211267Y2990223D01*
X-31160574Y3089714D01*
X-31148397Y3166601D01*
X-31128801Y3198575D01*
X-31125186Y3199443D01*
X-31079463Y3199443D01*
X-31060358Y3187734D01*
X-31051605Y3166602D01*
X-31039426Y3089714D01*
X-30988733Y2990223D01*
X-30909777Y2911267D01*
X-30810286Y2860574D01*
X-30700000Y2843106D01*
X-30589714Y2860574D01*
X-30490223Y2911267D01*
X-30411267Y2990223D01*
X-30360574Y3089714D01*
X-30343106Y3200000D01*
X-29456894Y3200000D01*
X-29439426Y3089714D01*
X-29388733Y2990223D01*
X-29309777Y2911267D01*
X-29210286Y2860574D01*
X-29100000Y2843106D01*
X-28989714Y2860574D01*
X-28890223Y2911267D01*
X-28811267Y2990223D01*
X-28760574Y3089714D01*
X-28748397Y3166601D01*
X-28728801Y3198575D01*
X-28725186Y3199443D01*
X-28679463Y3199443D01*
X-28660358Y3187734D01*
X-28651605Y3166602D01*
X-28639426Y3089714D01*
X-28588733Y2990223D01*
X-28509777Y2911267D01*
X-28410286Y2860574D01*
X-28300000Y2843106D01*
X-28189714Y2860574D01*
X-28090223Y2911267D01*
X-28011267Y2990223D01*
X-27960574Y3089714D01*
X-27943106Y3200000D01*
X-27056894Y3200000D01*
X-27039426Y3089714D01*
X-26988733Y2990223D01*
X-26909777Y2911267D01*
X-26810286Y2860574D01*
X-26700000Y2843106D01*
X-26589714Y2860574D01*
X-26490223Y2911267D01*
X-26411267Y2990223D01*
X-26360574Y3089714D01*
X-26348397Y3166601D01*
X-26328801Y3198575D01*
X-26325186Y3199443D01*
X-26279463Y3199443D01*
X-26260358Y3187734D01*
X-26251605Y3166602D01*
X-26239426Y3089714D01*
X-26188733Y2990223D01*
X-26109777Y2911267D01*
X-26010286Y2860574D01*
X-25900000Y2843106D01*
X-25789714Y2860574D01*
X-25690223Y2911267D01*
X-25611267Y2990223D01*
X-25560574Y3089714D01*
X-25543106Y3200000D01*
X-24656894Y3200000D01*
X-24639426Y3089714D01*
X-24588733Y2990223D01*
X-24509777Y2911267D01*
X-24410286Y2860574D01*
X-24300000Y2843106D01*
X-24189714Y2860574D01*
X-24090223Y2911267D01*
X-24011267Y2990223D01*
X-23960574Y3089714D01*
X-23948397Y3166601D01*
X-23928801Y3198575D01*
X-23925186Y3199443D01*
X-23879463Y3199443D01*
X-23860358Y3187734D01*
X-23851605Y3166602D01*
X-23839426Y3089714D01*
X-23788733Y2990223D01*
X-23709777Y2911267D01*
X-23610286Y2860574D01*
X-23500000Y2843106D01*
X-23389714Y2860574D01*
X-23290223Y2911267D01*
X-23211267Y2990223D01*
X-23160574Y3089714D01*
X-23143106Y3200000D01*
X-23160574Y3310286D01*
X-23211267Y3409777D01*
X-23290223Y3488733D01*
X-23290226Y3488735D01*
X-23389714Y3539426D01*
X-23500000Y3556894D01*
X-23610287Y3539426D01*
X-23709775Y3488735D01*
X-23709778Y3488733D01*
X-23788733Y3409778D01*
X-23788735Y3409775D01*
X-23839426Y3310287D01*
X-23840983Y3300457D01*
X-23851604Y3233401D01*
X-23871199Y3201426D01*
X-23879463Y3199443D01*
X-23925186Y3199443D01*
X-23920538Y3200559D01*
X-23939642Y3212267D01*
X-23948397Y3233400D01*
X-23960574Y3310286D01*
X-24011267Y3409777D01*
X-24090223Y3488733D01*
X-24090226Y3488735D01*
X-24189714Y3539426D01*
X-24300000Y3556894D01*
X-24410287Y3539426D01*
X-24509775Y3488735D01*
X-24509778Y3488733D01*
X-24588733Y3409778D01*
X-24588735Y3409775D01*
X-24639426Y3310287D01*
X-24640983Y3300457D01*
X-24656894Y3200000D01*
X-25543106Y3200000D01*
X-25560574Y3310286D01*
X-25611267Y3409777D01*
X-25690223Y3488733D01*
X-25690226Y3488735D01*
X-25789714Y3539426D01*
X-25900000Y3556894D01*
X-26010287Y3539426D01*
X-26109775Y3488735D01*
X-26109778Y3488733D01*
X-26188733Y3409778D01*
X-26188735Y3409775D01*
X-26239426Y3310287D01*
X-26240983Y3300457D01*
X-26251604Y3233401D01*
X-26271199Y3201426D01*
X-26279463Y3199443D01*
X-26325186Y3199443D01*
X-26320538Y3200559D01*
X-26339642Y3212267D01*
X-26348397Y3233400D01*
X-26360574Y3310286D01*
X-26411267Y3409777D01*
X-26490223Y3488733D01*
X-26490226Y3488735D01*
X-26589714Y3539426D01*
X-26700000Y3556894D01*
X-26810287Y3539426D01*
X-26909775Y3488735D01*
X-26909778Y3488733D01*
X-26988733Y3409778D01*
X-26988735Y3409775D01*
X-27039426Y3310287D01*
X-27040983Y3300457D01*
X-27056894Y3200000D01*
X-27943106Y3200000D01*
X-27960574Y3310286D01*
X-28011267Y3409777D01*
X-28090223Y3488733D01*
X-28090226Y3488735D01*
X-28189714Y3539426D01*
X-28300000Y3556894D01*
X-28410287Y3539426D01*
X-28509775Y3488735D01*
X-28509778Y3488733D01*
X-28588733Y3409778D01*
X-28588735Y3409775D01*
X-28639426Y3310287D01*
X-28640983Y3300457D01*
X-28651604Y3233401D01*
X-28671199Y3201426D01*
X-28679463Y3199443D01*
X-28725186Y3199443D01*
X-28720538Y3200559D01*
X-28739642Y3212267D01*
X-28748397Y3233400D01*
X-28760574Y3310286D01*
X-28811267Y3409777D01*
X-28890223Y3488733D01*
X-28890226Y3488735D01*
X-28989714Y3539426D01*
X-29100000Y3556894D01*
X-29210287Y3539426D01*
X-29309775Y3488735D01*
X-29309778Y3488733D01*
X-29388733Y3409778D01*
X-29388735Y3409775D01*
X-29439426Y3310287D01*
X-29440983Y3300457D01*
X-29456894Y3200000D01*
X-30343106Y3200000D01*
X-30360574Y3310286D01*
X-30411267Y3409777D01*
X-30490223Y3488733D01*
X-30490226Y3488735D01*
X-30589714Y3539426D01*
X-30700000Y3556894D01*
X-30810287Y3539426D01*
X-30909775Y3488735D01*
X-30909778Y3488733D01*
X-30988733Y3409778D01*
X-30988735Y3409775D01*
X-31039426Y3310287D01*
X-31040983Y3300457D01*
X-31051604Y3233401D01*
X-31071199Y3201426D01*
X-31079463Y3199443D01*
X-31125186Y3199443D01*
X-31120538Y3200559D01*
X-31139642Y3212267D01*
X-31148397Y3233400D01*
X-31160574Y3310286D01*
X-31211267Y3409777D01*
X-31290223Y3488733D01*
X-31290226Y3488735D01*
X-31389714Y3539426D01*
X-31500000Y3556894D01*
X-31610287Y3539426D01*
X-31709775Y3488735D01*
X-31709778Y3488733D01*
X-31788733Y3409778D01*
X-31788735Y3409775D01*
X-31839426Y3310287D01*
X-31840983Y3300457D01*
X-31856894Y3200000D01*
X-32743106Y3200000D01*
X-32760574Y3310286D01*
X-32811267Y3409777D01*
X-32890223Y3488733D01*
X-32890226Y3488735D01*
X-32989714Y3539426D01*
X-33100000Y3556894D01*
X-33210287Y3539426D01*
X-33309775Y3488735D01*
X-33309778Y3488733D01*
X-33388733Y3409778D01*
X-33388735Y3409775D01*
X-33439426Y3310287D01*
X-33440983Y3300457D01*
X-33456894Y3200000D01*
X-35943106Y3200000D01*
X-35960574Y3310286D01*
X-36011267Y3409777D01*
X-36090223Y3488733D01*
X-36090226Y3488735D01*
X-36189714Y3539426D01*
X-36300000Y3556894D01*
X-36410287Y3539426D01*
X-36509775Y3488735D01*
X-36509778Y3488733D01*
X-36588733Y3409778D01*
X-36588735Y3409775D01*
X-36639426Y3310287D01*
X-36640983Y3300457D01*
X-36656894Y3200000D01*
X-37543106Y3200000D01*
X-37560574Y3310286D01*
X-37611267Y3409777D01*
X-37690223Y3488733D01*
X-37690226Y3488735D01*
X-37789714Y3539426D01*
X-37900000Y3556894D01*
X-38010287Y3539426D01*
X-38109775Y3488735D01*
X-38109778Y3488733D01*
X-38188733Y3409778D01*
X-38188735Y3409775D01*
X-38239426Y3310287D01*
X-38240983Y3300457D01*
X-38251604Y3233401D01*
X-38271199Y3201426D01*
X-38279463Y3199443D01*
X-38325186Y3199443D01*
X-38320538Y3200559D01*
X-38339642Y3212267D01*
X-38348397Y3233400D01*
X-38360574Y3310286D01*
X-38411267Y3409777D01*
X-38490223Y3488733D01*
X-38490226Y3488735D01*
X-38589714Y3539426D01*
X-38700000Y3556894D01*
X-38810287Y3539426D01*
X-38909775Y3488735D01*
X-38909778Y3488733D01*
X-38988733Y3409778D01*
X-38988735Y3409775D01*
X-39039426Y3310287D01*
X-39040983Y3300457D01*
X-39056894Y3200000D01*
X-39943106Y3200000D01*
X-39960574Y3310286D01*
X-40011267Y3409777D01*
X-40090223Y3488733D01*
X-40090226Y3488735D01*
X-40189714Y3539426D01*
X-40300000Y3556894D01*
X-40410287Y3539426D01*
X-40509775Y3488735D01*
X-40509778Y3488733D01*
X-40588733Y3409778D01*
X-40588735Y3409775D01*
X-40639426Y3310287D01*
X-40640983Y3300457D01*
X-40651604Y3233401D01*
X-40671199Y3201426D01*
X-40679463Y3199443D01*
X-40725186Y3199443D01*
X-40720538Y3200559D01*
X-40739642Y3212267D01*
X-40748397Y3233400D01*
X-40760574Y3310286D01*
X-40811267Y3409777D01*
X-40890223Y3488733D01*
X-40890226Y3488735D01*
X-40989714Y3539426D01*
X-41100000Y3556894D01*
X-41210287Y3539426D01*
X-41309775Y3488735D01*
X-41309778Y3488733D01*
X-41388733Y3409778D01*
X-41388735Y3409775D01*
X-41439426Y3310287D01*
X-41440983Y3300457D01*
X-41456894Y3200000D01*
X-42343106Y3200000D01*
X-42360574Y3310286D01*
X-42411267Y3409777D01*
X-42490223Y3488733D01*
X-42490226Y3488735D01*
X-42589714Y3539426D01*
X-42700000Y3556894D01*
X-42810287Y3539426D01*
X-42909775Y3488735D01*
X-42909778Y3488733D01*
X-42988733Y3409778D01*
X-42988735Y3409775D01*
X-43039426Y3310287D01*
X-43040983Y3300457D01*
X-43051604Y3233401D01*
X-43071199Y3201426D01*
X-43079463Y3199443D01*
X-43125186Y3199443D01*
X-43120538Y3200559D01*
X-43139642Y3212267D01*
X-43148397Y3233400D01*
X-43160574Y3310286D01*
X-43211267Y3409777D01*
X-43290223Y3488733D01*
X-43290226Y3488735D01*
X-43389714Y3539426D01*
X-43500000Y3556894D01*
X-43610287Y3539426D01*
X-43709775Y3488735D01*
X-43709778Y3488733D01*
X-43788733Y3409778D01*
X-43788735Y3409775D01*
X-43839426Y3310287D01*
X-43840983Y3300457D01*
X-43856894Y3200000D01*
X-44743106Y3200000D01*
X-44760574Y3310286D01*
X-44811267Y3409777D01*
X-44890223Y3488733D01*
X-44890226Y3488735D01*
X-44989714Y3539426D01*
X-45100000Y3556894D01*
X-45210287Y3539426D01*
X-45309775Y3488735D01*
X-45309778Y3488733D01*
X-45388733Y3409778D01*
X-45388735Y3409775D01*
X-45439426Y3310287D01*
X-45440983Y3300457D01*
X-45451604Y3233401D01*
X-45471199Y3201426D01*
X-45479463Y3199443D01*
X-45525186Y3199443D01*
X-45520538Y3200559D01*
X-45539642Y3212267D01*
X-45548397Y3233400D01*
X-45560574Y3310286D01*
X-45611267Y3409777D01*
X-45690223Y3488733D01*
X-45690226Y3488735D01*
X-45789714Y3539426D01*
X-45900000Y3556894D01*
X-46010287Y3539426D01*
X-46109775Y3488735D01*
X-46109778Y3488733D01*
X-46188733Y3409778D01*
X-46188735Y3409775D01*
X-46239426Y3310287D01*
X-46240983Y3300457D01*
X-46256894Y3200000D01*
X-47143106Y3200000D01*
X-47160574Y3310286D01*
X-47211267Y3409777D01*
X-47290223Y3488733D01*
X-47290226Y3488735D01*
X-47389714Y3539426D01*
X-47500000Y3556894D01*
X-47610287Y3539426D01*
X-47709775Y3488735D01*
X-47709778Y3488733D01*
X-47788733Y3409778D01*
X-47788735Y3409775D01*
X-47839426Y3310287D01*
X-47840983Y3300457D01*
X-47856894Y3200000D01*
X-74711777Y3200000D01*
X-74725913Y3256433D01*
X-74726846Y3261123D01*
X-74780854Y3625219D01*
X-74781322Y3629980D01*
X-74799441Y3998800D01*
X-74799500Y4001204D01*
X-74799500Y4071652D01*
X-60327500Y4071652D01*
X-60327500Y3928348D01*
X-60308948Y3835077D01*
X-60299544Y3787799D01*
X-60299542Y3787793D01*
X-60253280Y3676107D01*
X-60244702Y3655400D01*
X-60165086Y3536246D01*
X-60063754Y3434914D01*
X-59944600Y3355298D01*
X-59812204Y3300457D01*
X-59671652Y3272500D01*
X-59671649Y3272500D01*
X-59528351Y3272500D01*
X-59528348Y3272500D01*
X-59387796Y3300457D01*
X-59255400Y3355298D01*
X-59136246Y3434914D01*
X-59034914Y3536246D01*
X-58955298Y3655400D01*
X-58900457Y3787796D01*
X-58872500Y3928348D01*
X-58872500Y4069451D01*
X-15927500Y4069451D01*
X-15927500Y3930550D01*
X-15891553Y3796395D01*
X-15891552Y3796391D01*
X-15822105Y3676107D01*
X-15723893Y3577895D01*
X-15687518Y3556894D01*
X-15603610Y3508449D01*
X-15603608Y3508449D01*
X-15603607Y3508448D01*
X-15530037Y3488735D01*
X-15469451Y3472501D01*
X-15469450Y3472500D01*
X-15469447Y3472500D01*
X-15330550Y3472500D01*
X-15330550Y3472501D01*
X-15196393Y3508448D01*
X-15076107Y3577895D01*
X-14977895Y3676107D01*
X-14908448Y3796393D01*
X-14872501Y3930550D01*
X-14872500Y3930550D01*
X-14872500Y4069450D01*
X-14872501Y4069451D01*
X-14908448Y4203606D01*
X-14908449Y4203610D01*
X-14977896Y4323894D01*
X-15076107Y4422105D01*
X-15196391Y4491552D01*
X-15196395Y4491553D01*
X-15330550Y4527500D01*
X-15330553Y4527500D01*
X-15469447Y4527500D01*
X-15469450Y4527500D01*
X-15603606Y4491553D01*
X-15603610Y4491552D01*
X-15723894Y4422105D01*
X-15723894Y4422104D01*
X-15822104Y4323894D01*
X-15822105Y4323894D01*
X-15891552Y4203610D01*
X-15891553Y4203606D01*
X-15927500Y4069451D01*
X-58872500Y4069451D01*
X-58872500Y4071652D01*
X-58900457Y4212204D01*
X-58955298Y4344600D01*
X-59034914Y4463754D01*
X-59136246Y4565086D01*
X-59255400Y4644702D01*
X-59255403Y4644704D01*
X-59255404Y4644704D01*
X-59387793Y4699542D01*
X-59387799Y4699544D01*
X-59444480Y4710818D01*
X-59528348Y4727500D01*
X-59671652Y4727500D01*
X-59741606Y4713586D01*
X-59812202Y4699544D01*
X-59812208Y4699542D01*
X-59944597Y4644704D01*
X-60063754Y4565087D01*
X-60165087Y4463754D01*
X-60244704Y4344597D01*
X-60299542Y4212208D01*
X-60299544Y4212202D01*
X-60313586Y4141606D01*
X-60327500Y4071652D01*
X-74799500Y4071652D01*
X-74799500Y4850000D01*
X-66406894Y4850000D01*
X-66389426Y4739714D01*
X-66341016Y4644702D01*
X-66338733Y4640223D01*
X-66259777Y4561267D01*
X-66160286Y4510574D01*
X-66050000Y4493106D01*
X-65939714Y4510574D01*
X-65840223Y4561267D01*
X-65761267Y4640223D01*
X-65710574Y4739714D01*
X-65693106Y4850000D01*
X-62506894Y4850000D01*
X-62489426Y4739714D01*
X-62441016Y4644702D01*
X-62438733Y4640223D01*
X-62359777Y4561267D01*
X-62260286Y4510574D01*
X-62150000Y4493106D01*
X-62039714Y4510574D01*
X-61940223Y4561267D01*
X-61861267Y4640223D01*
X-61810574Y4739714D01*
X-61793106Y4850000D01*
X-61810574Y4960286D01*
X-61861267Y5059777D01*
X-61940223Y5138733D01*
X-61940226Y5138735D01*
X-62039714Y5189426D01*
X-62150000Y5206894D01*
X-62260287Y5189426D01*
X-62359775Y5138735D01*
X-62359778Y5138733D01*
X-62438733Y5059778D01*
X-62438735Y5059775D01*
X-62489426Y4960287D01*
X-62506894Y4850000D01*
X-65693106Y4850000D01*
X-65710574Y4960286D01*
X-65761267Y5059777D01*
X-65840223Y5138733D01*
X-65840226Y5138735D01*
X-65939714Y5189426D01*
X-66050000Y5206894D01*
X-66160287Y5189426D01*
X-66259775Y5138735D01*
X-66259778Y5138733D01*
X-66338733Y5059778D01*
X-66338735Y5059775D01*
X-66389426Y4960287D01*
X-66406894Y4850000D01*
X-74799500Y4850000D01*
X-74799500Y5400000D01*
X-35856894Y5400000D01*
X-35839426Y5289714D01*
X-35797228Y5206894D01*
X-35788733Y5190223D01*
X-35709777Y5111267D01*
X-35610286Y5060574D01*
X-35500000Y5043106D01*
X-35389714Y5060574D01*
X-35290223Y5111267D01*
X-35211267Y5190223D01*
X-35160574Y5289714D01*
X-35148397Y5366601D01*
X-35128801Y5398575D01*
X-35125186Y5399443D01*
X-35079463Y5399443D01*
X-35060358Y5387734D01*
X-35051605Y5366602D01*
X-35039426Y5289714D01*
X-34997228Y5206894D01*
X-34988733Y5190223D01*
X-34909777Y5111267D01*
X-34810286Y5060574D01*
X-34700000Y5043106D01*
X-34589714Y5060574D01*
X-34490223Y5111267D01*
X-34411267Y5190223D01*
X-34360574Y5289714D01*
X-34343106Y5400000D01*
X-34360574Y5510286D01*
X-34411267Y5609777D01*
X-34490223Y5688733D01*
X-34490226Y5688735D01*
X-34589714Y5739426D01*
X-34666601Y5751604D01*
X-34698575Y5771199D01*
X-34700559Y5779463D01*
X-34712267Y5760358D01*
X-34733400Y5751604D01*
X-34792274Y5742279D01*
X-34810287Y5739426D01*
X-34909775Y5688735D01*
X-34909778Y5688733D01*
X-34988733Y5609778D01*
X-34988735Y5609775D01*
X-35039426Y5510287D01*
X-35039426Y5510286D01*
X-35051604Y5433401D01*
X-35071199Y5401426D01*
X-35079463Y5399443D01*
X-35125186Y5399443D01*
X-35120538Y5400559D01*
X-35139642Y5412267D01*
X-35148397Y5433400D01*
X-35160574Y5510286D01*
X-35211267Y5609777D01*
X-35290223Y5688733D01*
X-35290226Y5688735D01*
X-35389714Y5739426D01*
X-35466601Y5751604D01*
X-35498575Y5771199D01*
X-35500559Y5779463D01*
X-35512267Y5760358D01*
X-35533400Y5751604D01*
X-35592274Y5742279D01*
X-35610287Y5739426D01*
X-35709775Y5688735D01*
X-35709778Y5688733D01*
X-35788733Y5609778D01*
X-35788735Y5609775D01*
X-35839426Y5510287D01*
X-35856894Y5400000D01*
X-74799500Y5400000D01*
X-74799500Y6200000D01*
X-35856894Y6200000D01*
X-35839426Y6089714D01*
X-35788733Y5990223D01*
X-35709777Y5911267D01*
X-35610286Y5860574D01*
X-35533401Y5848397D01*
X-35501426Y5828801D01*
X-35499443Y5820538D01*
X-35487734Y5839642D01*
X-35466602Y5848396D01*
X-35389714Y5860574D01*
X-35290223Y5911267D01*
X-35211267Y5990223D01*
X-35160574Y6089714D01*
X-35148397Y6166601D01*
X-35128801Y6198575D01*
X-35125186Y6199443D01*
X-35079463Y6199443D01*
X-35060358Y6187734D01*
X-35051605Y6166602D01*
X-35039426Y6089714D01*
X-34988733Y5990223D01*
X-34909777Y5911267D01*
X-34810286Y5860574D01*
X-34733401Y5848397D01*
X-34701426Y5828801D01*
X-34699443Y5820538D01*
X-34687734Y5839642D01*
X-34666602Y5848396D01*
X-34589714Y5860574D01*
X-34490223Y5911267D01*
X-34411267Y5990223D01*
X-34360574Y6089714D01*
X-34343106Y6200000D01*
X-34360574Y6310286D01*
X-34411267Y6409777D01*
X-34490223Y6488733D01*
X-34490226Y6488735D01*
X-34589714Y6539426D01*
X-34666601Y6551604D01*
X-34698575Y6571199D01*
X-34700559Y6579463D01*
X-34712267Y6560358D01*
X-34733400Y6551604D01*
X-34792274Y6542279D01*
X-34810287Y6539426D01*
X-34909775Y6488735D01*
X-34909778Y6488733D01*
X-34988733Y6409778D01*
X-34988735Y6409775D01*
X-35039426Y6310287D01*
X-35039426Y6310286D01*
X-35051604Y6233401D01*
X-35071199Y6201426D01*
X-35079463Y6199443D01*
X-35125186Y6199443D01*
X-35120538Y6200559D01*
X-35139642Y6212267D01*
X-35148397Y6233400D01*
X-35160574Y6310286D01*
X-35211267Y6409777D01*
X-35290223Y6488733D01*
X-35290226Y6488735D01*
X-35389714Y6539426D01*
X-35466601Y6551604D01*
X-35498575Y6571199D01*
X-35500559Y6579463D01*
X-35512267Y6560358D01*
X-35533400Y6551604D01*
X-35592274Y6542279D01*
X-35610287Y6539426D01*
X-35709775Y6488735D01*
X-35709778Y6488733D01*
X-35788733Y6409778D01*
X-35788735Y6409775D01*
X-35839426Y6310287D01*
X-35839426Y6310286D01*
X-35856894Y6200000D01*
X-74799500Y6200000D01*
X-74799500Y7000000D01*
X-35856894Y7000000D01*
X-35839426Y6889714D01*
X-35788733Y6790223D01*
X-35709777Y6711267D01*
X-35610286Y6660574D01*
X-35533401Y6648397D01*
X-35501426Y6628801D01*
X-35499443Y6620538D01*
X-35487734Y6639642D01*
X-35466602Y6648396D01*
X-35389714Y6660574D01*
X-35290223Y6711267D01*
X-35211267Y6790223D01*
X-35160574Y6889714D01*
X-35148397Y6966601D01*
X-35128801Y6998575D01*
X-35125186Y6999443D01*
X-35079463Y6999443D01*
X-35060358Y6987734D01*
X-35051605Y6966602D01*
X-35039426Y6889714D01*
X-34988733Y6790223D01*
X-34909777Y6711267D01*
X-34810286Y6660574D01*
X-34733401Y6648397D01*
X-34701426Y6628801D01*
X-34699443Y6620538D01*
X-34687734Y6639642D01*
X-34666602Y6648396D01*
X-34589714Y6660574D01*
X-34490223Y6711267D01*
X-34411267Y6790223D01*
X-34360574Y6889714D01*
X-34343106Y7000000D01*
X-34360574Y7110286D01*
X-34411267Y7209777D01*
X-34490223Y7288733D01*
X-34490226Y7288735D01*
X-34589714Y7339426D01*
X-34700000Y7356894D01*
X-34810287Y7339426D01*
X-34909775Y7288735D01*
X-34909778Y7288733D01*
X-34988733Y7209778D01*
X-34988735Y7209775D01*
X-35039426Y7110287D01*
X-35039426Y7110286D01*
X-35051604Y7033401D01*
X-35071199Y7001426D01*
X-35079463Y6999443D01*
X-35125186Y6999443D01*
X-35120538Y7000559D01*
X-35139642Y7012267D01*
X-35148397Y7033400D01*
X-35160574Y7110286D01*
X-35211267Y7209777D01*
X-35290223Y7288733D01*
X-35290226Y7288735D01*
X-35389714Y7339426D01*
X-35500000Y7356894D01*
X-35610287Y7339426D01*
X-35709775Y7288735D01*
X-35709778Y7288733D01*
X-35788733Y7209778D01*
X-35788735Y7209775D01*
X-35839426Y7110287D01*
X-35839426Y7110286D01*
X-35856894Y7000000D01*
X-74799500Y7000000D01*
X-74799500Y7900000D01*
X-62756894Y7900000D01*
X-62739426Y7789714D01*
X-62688733Y7690223D01*
X-62609777Y7611267D01*
X-62510286Y7560574D01*
X-62400000Y7543106D01*
X-62289714Y7560574D01*
X-62190223Y7611267D01*
X-62111267Y7690223D01*
X-62060574Y7789714D01*
X-62043106Y7900000D01*
X-62060574Y8010286D01*
X-62111267Y8109777D01*
X-62190223Y8188733D01*
X-62190226Y8188735D01*
X-62289714Y8239426D01*
X-62400000Y8256894D01*
X-62510287Y8239426D01*
X-62609775Y8188735D01*
X-62609778Y8188733D01*
X-62688733Y8109778D01*
X-62688735Y8109775D01*
X-62739426Y8010287D01*
X-62739426Y8010286D01*
X-62756894Y7900000D01*
X-74799500Y7900000D01*
X-74799500Y8500000D01*
X-63356894Y8500000D01*
X-63339426Y8389714D01*
X-63288733Y8290223D01*
X-63209777Y8211267D01*
X-63110286Y8160574D01*
X-63000000Y8143106D01*
X-62889714Y8160574D01*
X-62790223Y8211267D01*
X-62711267Y8290223D01*
X-62660574Y8389714D01*
X-62643106Y8500000D01*
X-62660574Y8610286D01*
X-62711267Y8709777D01*
X-62790223Y8788733D01*
X-62790226Y8788735D01*
X-62889714Y8839426D01*
X-63000000Y8856894D01*
X-63110287Y8839426D01*
X-63209775Y8788735D01*
X-63209778Y8788733D01*
X-63288733Y8709778D01*
X-63288735Y8709775D01*
X-63339426Y8610287D01*
X-63339426Y8610286D01*
X-63356894Y8500000D01*
X-74799500Y8500000D01*
X-74799500Y10966606D01*
X-73667500Y10966606D01*
X-73667500Y10773395D01*
X-73637276Y10582563D01*
X-73637275Y10582560D01*
X-73577570Y10398805D01*
X-73489851Y10226648D01*
X-73489849Y10226645D01*
X-73376284Y10070336D01*
X-73376280Y10070331D01*
X-73239669Y9933720D01*
X-73239665Y9933717D01*
X-73239663Y9933715D01*
X-73083350Y9820148D01*
X-72911197Y9732431D01*
X-72727440Y9672725D01*
X-72536606Y9642500D01*
X-72536605Y9642500D01*
X-72343395Y9642500D01*
X-72343394Y9642500D01*
X-72152560Y9672725D01*
X-71968803Y9732431D01*
X-71796650Y9820148D01*
X-71640337Y9933715D01*
X-71640334Y9933719D01*
X-71640331Y9933720D01*
X-71503720Y10070331D01*
X-71503719Y10070334D01*
X-71503715Y10070337D01*
X-71390148Y10226650D01*
X-71302431Y10398803D01*
X-71269550Y10500000D01*
X-67556894Y10500000D01*
X-67539426Y10389714D01*
X-67488733Y10290223D01*
X-67409777Y10211267D01*
X-67310286Y10160574D01*
X-67200000Y10143106D01*
X-67089714Y10160574D01*
X-66990223Y10211267D01*
X-66911267Y10290223D01*
X-66860574Y10389714D01*
X-66843106Y10500000D01*
X-66860574Y10610286D01*
X-66911267Y10709777D01*
X-66990223Y10788733D01*
X-66990226Y10788735D01*
X-67089714Y10839426D01*
X-67200000Y10856894D01*
X-67310287Y10839426D01*
X-67409775Y10788735D01*
X-67409778Y10788733D01*
X-67488733Y10709778D01*
X-67488735Y10709775D01*
X-67539426Y10610287D01*
X-67556894Y10500000D01*
X-71269550Y10500000D01*
X-71242725Y10582560D01*
X-71212500Y10773394D01*
X-71212500Y10966606D01*
X-71242725Y11157440D01*
X-71302431Y11341197D01*
X-71390148Y11513350D01*
X-71393818Y11518401D01*
X-71482619Y11640626D01*
X-71503715Y11669663D01*
X-71503717Y11669665D01*
X-71503720Y11669669D01*
X-71640331Y11806280D01*
X-71640336Y11806284D01*
X-71646241Y11810574D01*
X-71687509Y11840557D01*
X-71796645Y11919849D01*
X-71796648Y11919851D01*
X-71968805Y12007570D01*
X-72152560Y12067275D01*
X-72152563Y12067276D01*
X-72299158Y12090494D01*
X-72343394Y12097500D01*
X-72536606Y12097500D01*
X-72572518Y12091813D01*
X-72727438Y12067276D01*
X-72727441Y12067275D01*
X-72911196Y12007570D01*
X-73083353Y11919851D01*
X-73083356Y11919849D01*
X-73239665Y11806284D01*
X-73376284Y11669665D01*
X-73489849Y11513356D01*
X-73489851Y11513353D01*
X-73577570Y11341196D01*
X-73637275Y11157441D01*
X-73637276Y11157438D01*
X-73667500Y10966606D01*
X-74799500Y10966606D01*
X-74799500Y12286432D01*
X-70777500Y12286432D01*
X-70777500Y12113569D01*
X-70743781Y11944053D01*
X-70743778Y11944042D01*
X-70681259Y11793107D01*
X-70677631Y11784348D01*
X-70581599Y11640626D01*
X-70459374Y11518401D01*
X-70315652Y11422369D01*
X-70155957Y11356222D01*
X-70155951Y11356221D01*
X-70155948Y11356220D01*
X-69986432Y11322501D01*
X-69986426Y11322500D01*
X-69813574Y11322500D01*
X-69644043Y11356222D01*
X-69484348Y11422369D01*
X-69340626Y11518401D01*
X-69218401Y11640626D01*
X-69122369Y11784348D01*
X-69056222Y11944043D01*
X-69022500Y12113574D01*
X-69022500Y12150000D01*
X-67556894Y12150000D01*
X-67539426Y12039714D01*
X-67490680Y11944043D01*
X-67488733Y11940223D01*
X-67409777Y11861267D01*
X-67310286Y11810574D01*
X-67200000Y11793106D01*
X-67089714Y11810574D01*
X-66990223Y11861267D01*
X-66911267Y11940223D01*
X-66860574Y12039714D01*
X-66843106Y12150000D01*
X-66860574Y12260286D01*
X-66911267Y12359777D01*
X-66990223Y12438733D01*
X-66990226Y12438735D01*
X-67089714Y12489426D01*
X-67200000Y12506894D01*
X-67310287Y12489426D01*
X-67409775Y12438735D01*
X-67409778Y12438733D01*
X-67488733Y12359778D01*
X-67488735Y12359775D01*
X-67539426Y12260287D01*
X-67556894Y12150000D01*
X-69022500Y12150000D01*
X-69022500Y12286426D01*
X-69037090Y12359775D01*
X-69056220Y12455948D01*
X-69056223Y12455959D01*
X-69122368Y12615649D01*
X-69122369Y12615652D01*
X-69218401Y12759374D01*
X-69340626Y12881599D01*
X-69484348Y12977631D01*
X-69484351Y12977633D01*
X-69484352Y12977633D01*
X-69644042Y13043778D01*
X-69644053Y13043781D01*
X-69813569Y13077500D01*
X-69813574Y13077500D01*
X-69986426Y13077500D01*
X-69986432Y13077500D01*
X-70155948Y13043781D01*
X-70155959Y13043778D01*
X-70315649Y12977633D01*
X-70459374Y12881600D01*
X-70581600Y12759374D01*
X-70677633Y12615649D01*
X-70743778Y12455959D01*
X-70743781Y12455948D01*
X-70777500Y12286432D01*
X-74799500Y12286432D01*
X-74799500Y14826432D01*
X-70777500Y14826432D01*
X-70777500Y14653569D01*
X-70743781Y14484053D01*
X-70743778Y14484042D01*
X-70677633Y14324352D01*
X-70677631Y14324348D01*
X-70581599Y14180626D01*
X-70459374Y14058401D01*
X-70315652Y13962369D01*
X-70155957Y13896222D01*
X-70155951Y13896221D01*
X-70155948Y13896220D01*
X-69986432Y13862501D01*
X-69986426Y13862500D01*
X-69813574Y13862500D01*
X-69644043Y13896222D01*
X-69484348Y13962369D01*
X-69340626Y14058401D01*
X-69218401Y14180626D01*
X-69122369Y14324348D01*
X-69056222Y14484043D01*
X-69022500Y14653574D01*
X-69022500Y14750000D01*
X-67556894Y14750000D01*
X-67539426Y14639714D01*
X-67488733Y14540223D01*
X-67409777Y14461267D01*
X-67310286Y14410574D01*
X-67200000Y14393106D01*
X-67089714Y14410574D01*
X-66990223Y14461267D01*
X-66911267Y14540223D01*
X-66860574Y14639714D01*
X-66843106Y14750000D01*
X-66860574Y14860286D01*
X-66911267Y14959777D01*
X-66990223Y15038733D01*
X-66990226Y15038735D01*
X-67089714Y15089426D01*
X-67200000Y15106894D01*
X-67310287Y15089426D01*
X-67409775Y15038735D01*
X-67409778Y15038733D01*
X-67488733Y14959778D01*
X-67488735Y14959775D01*
X-67539426Y14860287D01*
X-67539426Y14860286D01*
X-67556894Y14750000D01*
X-69022500Y14750000D01*
X-69022500Y14826426D01*
X-69049025Y14959777D01*
X-69056220Y14995948D01*
X-69056223Y14995959D01*
X-69122368Y15155649D01*
X-69122369Y15155652D01*
X-69218401Y15299374D01*
X-69340626Y15421599D01*
X-69484348Y15517631D01*
X-69484351Y15517633D01*
X-69484352Y15517633D01*
X-69644042Y15583778D01*
X-69644053Y15583781D01*
X-69813569Y15617500D01*
X-69813574Y15617500D01*
X-69986426Y15617500D01*
X-69986432Y15617500D01*
X-70155948Y15583781D01*
X-70155959Y15583778D01*
X-70315649Y15517633D01*
X-70459374Y15421600D01*
X-70581600Y15299374D01*
X-70677633Y15155649D01*
X-70743778Y14995959D01*
X-70743781Y14995948D01*
X-70777500Y14826432D01*
X-74799500Y14826432D01*
X-74799500Y16096432D01*
X-73317500Y16096432D01*
X-73317500Y15923569D01*
X-73283781Y15754053D01*
X-73283778Y15754043D01*
X-73217631Y15594348D01*
X-73121599Y15450626D01*
X-72999374Y15328401D01*
X-72855652Y15232369D01*
X-72695957Y15166222D01*
X-72695951Y15166221D01*
X-72695948Y15166220D01*
X-72526432Y15132501D01*
X-72526426Y15132500D01*
X-72353574Y15132500D01*
X-72184043Y15166222D01*
X-72024348Y15232369D01*
X-71880626Y15328401D01*
X-71758401Y15450626D01*
X-71662369Y15594348D01*
X-71596222Y15754043D01*
X-71562500Y15923574D01*
X-71562500Y16096426D01*
X-71585343Y16211267D01*
X-71596220Y16265948D01*
X-71596223Y16265959D01*
X-71606273Y16290223D01*
X-71662369Y16425652D01*
X-71758401Y16569374D01*
X-71880626Y16691599D01*
X-72024348Y16787631D01*
X-72024351Y16787633D01*
X-72024352Y16787633D01*
X-72184042Y16853778D01*
X-72184053Y16853781D01*
X-72353569Y16887500D01*
X-72353574Y16887500D01*
X-72526426Y16887500D01*
X-72526432Y16887500D01*
X-72695948Y16853781D01*
X-72695959Y16853778D01*
X-72855649Y16787633D01*
X-72999374Y16691600D01*
X-73121600Y16569374D01*
X-73217633Y16425649D01*
X-73283778Y16265959D01*
X-73283781Y16265948D01*
X-73317500Y16096432D01*
X-74799500Y16096432D01*
X-74799500Y17452347D01*
X-71327500Y17452347D01*
X-71327500Y17227654D01*
X-71292351Y17005729D01*
X-71292350Y17005726D01*
X-71222916Y16792030D01*
X-71120907Y16591827D01*
X-71054191Y16500000D01*
X-70988835Y16410045D01*
X-70988831Y16410040D01*
X-70829960Y16251169D01*
X-70829956Y16251166D01*
X-70829954Y16251164D01*
X-70648173Y16119093D01*
X-70447970Y16017084D01*
X-70234274Y15947650D01*
X-70012347Y15912500D01*
X-70012346Y15912500D01*
X-69787654Y15912500D01*
X-69787653Y15912500D01*
X-69565726Y15947650D01*
X-69352030Y16017084D01*
X-69151827Y16119093D01*
X-68970046Y16251164D01*
X-68970043Y16251168D01*
X-68970040Y16251169D01*
X-68811169Y16410040D01*
X-68811168Y16410043D01*
X-68811164Y16410046D01*
X-68745809Y16500000D01*
X-67556894Y16500000D01*
X-67539426Y16389714D01*
X-67488733Y16290223D01*
X-67409777Y16211267D01*
X-67310286Y16160574D01*
X-67200000Y16143106D01*
X-67089714Y16160574D01*
X-66990223Y16211267D01*
X-66911267Y16290223D01*
X-66860574Y16389714D01*
X-66843106Y16500000D01*
X-66860574Y16610286D01*
X-66911267Y16709777D01*
X-66990223Y16788733D01*
X-66990226Y16788735D01*
X-67089714Y16839426D01*
X-67200000Y16856894D01*
X-67310287Y16839426D01*
X-67409775Y16788735D01*
X-67409778Y16788733D01*
X-67488733Y16709778D01*
X-67488735Y16709775D01*
X-67539426Y16610287D01*
X-67539426Y16610286D01*
X-67556894Y16500000D01*
X-68745809Y16500000D01*
X-68679093Y16591827D01*
X-68577084Y16792030D01*
X-68507650Y17005726D01*
X-68472500Y17227653D01*
X-68472500Y17452347D01*
X-68507650Y17674274D01*
X-68577084Y17887970D01*
X-68679093Y18088173D01*
X-68811164Y18269954D01*
X-68811166Y18269956D01*
X-68811169Y18269960D01*
X-68970040Y18428831D01*
X-68970045Y18428835D01*
X-68970046Y18428836D01*
X-69151827Y18560907D01*
X-69352030Y18662916D01*
X-69352031Y18662917D01*
X-69352032Y18662917D01*
X-69565726Y18732350D01*
X-69565729Y18732351D01*
X-69736208Y18759352D01*
X-69787653Y18767500D01*
X-70012347Y18767500D01*
X-70054111Y18760886D01*
X-70234272Y18732351D01*
X-70234275Y18732350D01*
X-70447969Y18662917D01*
X-70648173Y18560907D01*
X-70829956Y18428835D01*
X-70988835Y18269956D01*
X-71120907Y18088173D01*
X-71222917Y17887969D01*
X-71292350Y17674275D01*
X-71292351Y17674272D01*
X-71327500Y17452347D01*
X-74799500Y17452347D01*
X-74799500Y24678742D01*
X-53292501Y24678742D01*
X-53292501Y24533259D01*
X-53254850Y24392745D01*
X-53254849Y24392741D01*
X-53182111Y24266757D01*
X-53079244Y24163890D01*
X-53033132Y24137267D01*
X-52953261Y24091153D01*
X-52953259Y24091153D01*
X-52953258Y24091152D01*
X-52842438Y24061458D01*
X-52812743Y24053501D01*
X-52812742Y24053500D01*
X-52812739Y24053500D01*
X-52667260Y24053500D01*
X-52667260Y24053501D01*
X-52526744Y24091152D01*
X-52400758Y24163890D01*
X-52297891Y24266757D01*
X-52225153Y24392743D01*
X-52187502Y24533259D01*
X-52187501Y24533259D01*
X-52187501Y24678741D01*
X-52187502Y24678742D01*
X-50752500Y24678742D01*
X-50752500Y24533259D01*
X-50714849Y24392745D01*
X-50714848Y24392741D01*
X-50642110Y24266757D01*
X-50539243Y24163890D01*
X-50493131Y24137267D01*
X-50413260Y24091153D01*
X-50413258Y24091153D01*
X-50413257Y24091152D01*
X-50302437Y24061458D01*
X-50272742Y24053501D01*
X-50272741Y24053500D01*
X-50272738Y24053500D01*
X-50127259Y24053500D01*
X-50127259Y24053501D01*
X-49986743Y24091152D01*
X-49860757Y24163890D01*
X-49757890Y24266757D01*
X-49685152Y24392743D01*
X-49647501Y24533259D01*
X-49647500Y24533259D01*
X-49647500Y24678741D01*
X-49647501Y24678742D01*
X-48212499Y24678742D01*
X-48212499Y24533259D01*
X-48174848Y24392745D01*
X-48174847Y24392741D01*
X-48102109Y24266757D01*
X-47999242Y24163890D01*
X-47953130Y24137267D01*
X-47873259Y24091153D01*
X-47873257Y24091153D01*
X-47873256Y24091152D01*
X-47762436Y24061458D01*
X-47732741Y24053501D01*
X-47732740Y24053500D01*
X-47732737Y24053500D01*
X-47587258Y24053500D01*
X-47587258Y24053501D01*
X-47446742Y24091152D01*
X-47320756Y24163890D01*
X-47217889Y24266757D01*
X-47145151Y24392743D01*
X-47107500Y24533259D01*
X-47107499Y24533259D01*
X-47107499Y24678741D01*
X-47107500Y24678742D01*
X-45672499Y24678742D01*
X-45672499Y24533259D01*
X-45634848Y24392745D01*
X-45634847Y24392741D01*
X-45562109Y24266757D01*
X-45459242Y24163890D01*
X-45413130Y24137267D01*
X-45333259Y24091153D01*
X-45333257Y24091153D01*
X-45333256Y24091152D01*
X-45222436Y24061458D01*
X-45192741Y24053501D01*
X-45192740Y24053500D01*
X-45192737Y24053500D01*
X-45047258Y24053500D01*
X-45047258Y24053501D01*
X-44906742Y24091152D01*
X-44780756Y24163890D01*
X-44677889Y24266757D01*
X-44605151Y24392743D01*
X-44567500Y24533259D01*
X-44567499Y24533259D01*
X-44567499Y24678741D01*
X-44567500Y24678742D01*
X-43132498Y24678742D01*
X-43132498Y24533259D01*
X-43094847Y24392745D01*
X-43094846Y24392741D01*
X-43022108Y24266757D01*
X-42919241Y24163890D01*
X-42873129Y24137267D01*
X-42793258Y24091153D01*
X-42793256Y24091153D01*
X-42793255Y24091152D01*
X-42682435Y24061458D01*
X-42652740Y24053501D01*
X-42652739Y24053500D01*
X-42652736Y24053500D01*
X-42507257Y24053500D01*
X-42507257Y24053501D01*
X-42366741Y24091152D01*
X-42240755Y24163890D01*
X-42137888Y24266757D01*
X-42065150Y24392743D01*
X-42027499Y24533259D01*
X-42027498Y24533259D01*
X-42027498Y24678741D01*
X-42027499Y24678742D01*
X-40592497Y24678742D01*
X-40592497Y24533259D01*
X-40554846Y24392745D01*
X-40554845Y24392741D01*
X-40482107Y24266757D01*
X-40379240Y24163890D01*
X-40333128Y24137267D01*
X-40253257Y24091153D01*
X-40253255Y24091153D01*
X-40253254Y24091152D01*
X-40142434Y24061458D01*
X-40112739Y24053501D01*
X-40112738Y24053500D01*
X-40112735Y24053500D01*
X-39967256Y24053500D01*
X-39967256Y24053501D01*
X-39826740Y24091152D01*
X-39700754Y24163890D01*
X-39597887Y24266757D01*
X-39525149Y24392743D01*
X-39487498Y24533259D01*
X-39487497Y24533259D01*
X-39487497Y24678741D01*
X-39487498Y24678742D01*
X-38052500Y24678742D01*
X-38052500Y24533259D01*
X-38014849Y24392745D01*
X-38014848Y24392741D01*
X-37942110Y24266757D01*
X-37839243Y24163890D01*
X-37793131Y24137267D01*
X-37713260Y24091153D01*
X-37713258Y24091153D01*
X-37713257Y24091152D01*
X-37602437Y24061458D01*
X-37572742Y24053501D01*
X-37572741Y24053500D01*
X-37572738Y24053500D01*
X-37427259Y24053500D01*
X-37427259Y24053501D01*
X-37286743Y24091152D01*
X-37160757Y24163890D01*
X-37057890Y24266757D01*
X-36985152Y24392743D01*
X-36947501Y24533259D01*
X-36947500Y24533259D01*
X-36947500Y24678741D01*
X-36947501Y24678742D01*
X-30432501Y24678742D01*
X-30432501Y24533259D01*
X-30394850Y24392745D01*
X-30394849Y24392741D01*
X-30322111Y24266757D01*
X-30219244Y24163890D01*
X-30173132Y24137267D01*
X-30093261Y24091153D01*
X-30093259Y24091153D01*
X-30093258Y24091152D01*
X-29982438Y24061458D01*
X-29952743Y24053501D01*
X-29952742Y24053500D01*
X-29952739Y24053500D01*
X-29807260Y24053500D01*
X-29807260Y24053501D01*
X-29666744Y24091152D01*
X-29540758Y24163890D01*
X-29437891Y24266757D01*
X-29365153Y24392743D01*
X-29327502Y24533259D01*
X-29327501Y24533259D01*
X-29327501Y24678741D01*
X-29327502Y24678742D01*
X-27892500Y24678742D01*
X-27892500Y24533259D01*
X-27854849Y24392745D01*
X-27854848Y24392741D01*
X-27782110Y24266757D01*
X-27679243Y24163890D01*
X-27633131Y24137267D01*
X-27553260Y24091153D01*
X-27553258Y24091153D01*
X-27553257Y24091152D01*
X-27442437Y24061458D01*
X-27412742Y24053501D01*
X-27412741Y24053500D01*
X-27412738Y24053500D01*
X-27267259Y24053500D01*
X-27267259Y24053501D01*
X-27126743Y24091152D01*
X-27000757Y24163890D01*
X-26897890Y24266757D01*
X-26825152Y24392743D01*
X-26787501Y24533259D01*
X-26787500Y24533259D01*
X-26787500Y24678741D01*
X-26787501Y24678742D01*
X-25352499Y24678742D01*
X-25352499Y24533259D01*
X-25314848Y24392745D01*
X-25314847Y24392741D01*
X-25242109Y24266757D01*
X-25139242Y24163890D01*
X-25093130Y24137267D01*
X-25013259Y24091153D01*
X-25013257Y24091153D01*
X-25013256Y24091152D01*
X-24902436Y24061458D01*
X-24872741Y24053501D01*
X-24872740Y24053500D01*
X-24872737Y24053500D01*
X-24727258Y24053500D01*
X-24727258Y24053501D01*
X-24586742Y24091152D01*
X-24460756Y24163890D01*
X-24357889Y24266757D01*
X-24285151Y24392743D01*
X-24247500Y24533259D01*
X-24247499Y24533259D01*
X-24247499Y24678741D01*
X-24247500Y24678742D01*
X-22812499Y24678742D01*
X-22812499Y24533259D01*
X-22774848Y24392745D01*
X-22774847Y24392741D01*
X-22702109Y24266757D01*
X-22599242Y24163890D01*
X-22553130Y24137267D01*
X-22473259Y24091153D01*
X-22473257Y24091153D01*
X-22473256Y24091152D01*
X-22362436Y24061458D01*
X-22332741Y24053501D01*
X-22332740Y24053500D01*
X-22332737Y24053500D01*
X-22187258Y24053500D01*
X-22187258Y24053501D01*
X-22046742Y24091152D01*
X-21920756Y24163890D01*
X-21817889Y24266757D01*
X-21745151Y24392743D01*
X-21707500Y24533259D01*
X-21707499Y24533259D01*
X-21707499Y24678741D01*
X-21707500Y24678742D01*
X-21745151Y24819256D01*
X-21745152Y24819260D01*
X-21817890Y24945244D01*
X-21920756Y25048110D01*
X-22046740Y25120848D01*
X-22046744Y25120849D01*
X-22187258Y25158500D01*
X-22187261Y25158500D01*
X-22332737Y25158500D01*
X-22332740Y25158500D01*
X-22473255Y25120849D01*
X-22473259Y25120848D01*
X-22599243Y25048110D01*
X-22599243Y25048109D01*
X-22702108Y24945244D01*
X-22702109Y24945244D01*
X-22774847Y24819260D01*
X-22774848Y24819256D01*
X-22812499Y24678742D01*
X-24247500Y24678742D01*
X-24285151Y24819256D01*
X-24285152Y24819260D01*
X-24357890Y24945244D01*
X-24460756Y25048110D01*
X-24586740Y25120848D01*
X-24586744Y25120849D01*
X-24727258Y25158500D01*
X-24727261Y25158500D01*
X-24872737Y25158500D01*
X-24872740Y25158500D01*
X-25013255Y25120849D01*
X-25013259Y25120848D01*
X-25139243Y25048110D01*
X-25139243Y25048109D01*
X-25242108Y24945244D01*
X-25242109Y24945244D01*
X-25314847Y24819260D01*
X-25314848Y24819256D01*
X-25352499Y24678742D01*
X-26787501Y24678742D01*
X-26825152Y24819256D01*
X-26825153Y24819260D01*
X-26897891Y24945244D01*
X-27000757Y25048110D01*
X-27126741Y25120848D01*
X-27126745Y25120849D01*
X-27267259Y25158500D01*
X-27267262Y25158500D01*
X-27412738Y25158500D01*
X-27412741Y25158500D01*
X-27553256Y25120849D01*
X-27553260Y25120848D01*
X-27679244Y25048110D01*
X-27679244Y25048109D01*
X-27782109Y24945244D01*
X-27782110Y24945244D01*
X-27854848Y24819260D01*
X-27854849Y24819256D01*
X-27892500Y24678742D01*
X-29327502Y24678742D01*
X-29365153Y24819256D01*
X-29365154Y24819260D01*
X-29437892Y24945244D01*
X-29540758Y25048110D01*
X-29666742Y25120848D01*
X-29666746Y25120849D01*
X-29807260Y25158500D01*
X-29807263Y25158500D01*
X-29952739Y25158500D01*
X-29952742Y25158500D01*
X-30093257Y25120849D01*
X-30093261Y25120848D01*
X-30219245Y25048110D01*
X-30219245Y25048109D01*
X-30322110Y24945244D01*
X-30322111Y24945244D01*
X-30394849Y24819260D01*
X-30394850Y24819256D01*
X-30432501Y24678742D01*
X-36947501Y24678742D01*
X-36985152Y24819256D01*
X-36985153Y24819260D01*
X-37057891Y24945244D01*
X-37160757Y25048110D01*
X-37286741Y25120848D01*
X-37286745Y25120849D01*
X-37427259Y25158500D01*
X-37427262Y25158500D01*
X-37572738Y25158500D01*
X-37572741Y25158500D01*
X-37713256Y25120849D01*
X-37713260Y25120848D01*
X-37839244Y25048110D01*
X-37839244Y25048109D01*
X-37942109Y24945244D01*
X-37942110Y24945244D01*
X-38014848Y24819260D01*
X-38014849Y24819256D01*
X-38052500Y24678742D01*
X-39487498Y24678742D01*
X-39525149Y24819256D01*
X-39525150Y24819260D01*
X-39597888Y24945244D01*
X-39700754Y25048110D01*
X-39826738Y25120848D01*
X-39826742Y25120849D01*
X-39967256Y25158500D01*
X-39967259Y25158500D01*
X-40112735Y25158500D01*
X-40112738Y25158500D01*
X-40253253Y25120849D01*
X-40253257Y25120848D01*
X-40379241Y25048110D01*
X-40379241Y25048109D01*
X-40482106Y24945244D01*
X-40482107Y24945244D01*
X-40554845Y24819260D01*
X-40554846Y24819256D01*
X-40592497Y24678742D01*
X-42027499Y24678742D01*
X-42065150Y24819256D01*
X-42065151Y24819260D01*
X-42137889Y24945244D01*
X-42240755Y25048110D01*
X-42366739Y25120848D01*
X-42366743Y25120849D01*
X-42507257Y25158500D01*
X-42507260Y25158500D01*
X-42652736Y25158500D01*
X-42652739Y25158500D01*
X-42793254Y25120849D01*
X-42793258Y25120848D01*
X-42919242Y25048110D01*
X-42919242Y25048109D01*
X-43022107Y24945244D01*
X-43022108Y24945244D01*
X-43094846Y24819260D01*
X-43094847Y24819256D01*
X-43132498Y24678742D01*
X-44567500Y24678742D01*
X-44605151Y24819256D01*
X-44605152Y24819260D01*
X-44677890Y24945244D01*
X-44780756Y25048110D01*
X-44906740Y25120848D01*
X-44906744Y25120849D01*
X-45047258Y25158500D01*
X-45047261Y25158500D01*
X-45192737Y25158500D01*
X-45192740Y25158500D01*
X-45333255Y25120849D01*
X-45333259Y25120848D01*
X-45459243Y25048110D01*
X-45459243Y25048109D01*
X-45562108Y24945244D01*
X-45562109Y24945244D01*
X-45634847Y24819260D01*
X-45634848Y24819256D01*
X-45672499Y24678742D01*
X-47107500Y24678742D01*
X-47145151Y24819256D01*
X-47145152Y24819260D01*
X-47217890Y24945244D01*
X-47320756Y25048110D01*
X-47446740Y25120848D01*
X-47446744Y25120849D01*
X-47587258Y25158500D01*
X-47587261Y25158500D01*
X-47732737Y25158500D01*
X-47732740Y25158500D01*
X-47873255Y25120849D01*
X-47873259Y25120848D01*
X-47999243Y25048110D01*
X-47999243Y25048109D01*
X-48102108Y24945244D01*
X-48102109Y24945244D01*
X-48174847Y24819260D01*
X-48174848Y24819256D01*
X-48212499Y24678742D01*
X-49647501Y24678742D01*
X-49685152Y24819256D01*
X-49685153Y24819260D01*
X-49757891Y24945244D01*
X-49860757Y25048110D01*
X-49986741Y25120848D01*
X-49986745Y25120849D01*
X-50127259Y25158500D01*
X-50127262Y25158500D01*
X-50272738Y25158500D01*
X-50272741Y25158500D01*
X-50413256Y25120849D01*
X-50413260Y25120848D01*
X-50539244Y25048110D01*
X-50539244Y25048109D01*
X-50642109Y24945244D01*
X-50642110Y24945244D01*
X-50714848Y24819260D01*
X-50714849Y24819256D01*
X-50752500Y24678742D01*
X-52187502Y24678742D01*
X-52225153Y24819256D01*
X-52225154Y24819260D01*
X-52297892Y24945244D01*
X-52400758Y25048110D01*
X-52526742Y25120848D01*
X-52526746Y25120849D01*
X-52667260Y25158500D01*
X-52667263Y25158500D01*
X-52812739Y25158500D01*
X-52812742Y25158500D01*
X-52953257Y25120849D01*
X-52953261Y25120848D01*
X-53079245Y25048110D01*
X-53079245Y25048109D01*
X-53182110Y24945244D01*
X-53182111Y24945244D01*
X-53254849Y24819260D01*
X-53254850Y24819256D01*
X-53292501Y24678742D01*
X-74799500Y24678742D01*
X-74799500Y26583743D01*
X-52022500Y26583743D01*
X-52022500Y26438260D01*
X-51984849Y26297746D01*
X-51984848Y26297742D01*
X-51912110Y26171758D01*
X-51809243Y26068891D01*
X-51763131Y26042268D01*
X-51683260Y25996154D01*
X-51683258Y25996154D01*
X-51683257Y25996153D01*
X-51572437Y25966459D01*
X-51542742Y25958502D01*
X-51542741Y25958501D01*
X-51542738Y25958501D01*
X-51397259Y25958501D01*
X-51397259Y25958502D01*
X-51256743Y25996153D01*
X-51130757Y26068891D01*
X-51027890Y26171758D01*
X-50955152Y26297744D01*
X-50917501Y26438260D01*
X-50917500Y26438260D01*
X-50917500Y26583742D01*
X-50917501Y26583743D01*
X-49482501Y26583743D01*
X-49482501Y26438260D01*
X-49444850Y26297746D01*
X-49444849Y26297742D01*
X-49372111Y26171758D01*
X-49269244Y26068891D01*
X-49223132Y26042268D01*
X-49143261Y25996154D01*
X-49143259Y25996154D01*
X-49143258Y25996153D01*
X-49032438Y25966459D01*
X-49002743Y25958502D01*
X-49002742Y25958501D01*
X-49002739Y25958501D01*
X-48857260Y25958501D01*
X-48857260Y25958502D01*
X-48716744Y25996153D01*
X-48590758Y26068891D01*
X-48487891Y26171758D01*
X-48415153Y26297744D01*
X-48377502Y26438260D01*
X-48377501Y26438260D01*
X-48377501Y26583740D01*
X-46942500Y26583740D01*
X-46942500Y26438257D01*
X-46904849Y26297743D01*
X-46904848Y26297739D01*
X-46832112Y26171758D01*
X-46832110Y26171755D01*
X-46729243Y26068888D01*
X-46683131Y26042265D01*
X-46603260Y25996151D01*
X-46603258Y25996151D01*
X-46603257Y25996150D01*
X-46492437Y25966456D01*
X-46462742Y25958499D01*
X-46462741Y25958498D01*
X-46462738Y25958498D01*
X-46317259Y25958498D01*
X-46317259Y25958499D01*
X-46176743Y25996150D01*
X-46050757Y26068888D01*
X-45947890Y26171755D01*
X-45875152Y26297741D01*
X-45837501Y26438257D01*
X-45837500Y26438257D01*
X-45837500Y26583739D01*
X-45837501Y26583740D01*
X-45837502Y26583743D01*
X-44402501Y26583743D01*
X-44402501Y26438260D01*
X-44364850Y26297746D01*
X-44364849Y26297742D01*
X-44292111Y26171758D01*
X-44189244Y26068891D01*
X-44143132Y26042268D01*
X-44063261Y25996154D01*
X-44063259Y25996154D01*
X-44063258Y25996153D01*
X-43952438Y25966459D01*
X-43922743Y25958502D01*
X-43922742Y25958501D01*
X-43922739Y25958501D01*
X-43777260Y25958501D01*
X-43777260Y25958502D01*
X-43636744Y25996153D01*
X-43510758Y26068891D01*
X-43407891Y26171758D01*
X-43335153Y26297744D01*
X-43297502Y26438260D01*
X-43297501Y26438260D01*
X-43297501Y26583740D01*
X-34242500Y26583740D01*
X-34242500Y26438257D01*
X-34204849Y26297743D01*
X-34204848Y26297739D01*
X-34132112Y26171758D01*
X-34132110Y26171755D01*
X-34029243Y26068888D01*
X-33983131Y26042265D01*
X-33903260Y25996151D01*
X-33903258Y25996151D01*
X-33903257Y25996150D01*
X-33792437Y25966456D01*
X-33762742Y25958499D01*
X-33762741Y25958498D01*
X-33762738Y25958498D01*
X-33617259Y25958498D01*
X-33617259Y25958499D01*
X-33476743Y25996150D01*
X-33350757Y26068888D01*
X-33247890Y26171755D01*
X-33175152Y26297741D01*
X-33137501Y26438257D01*
X-33137500Y26438257D01*
X-33137500Y26583739D01*
X-33137501Y26583740D01*
X-33137502Y26583743D01*
X-31702499Y26583743D01*
X-31702499Y26438260D01*
X-31664848Y26297746D01*
X-31664847Y26297742D01*
X-31592109Y26171758D01*
X-31489242Y26068891D01*
X-31443130Y26042268D01*
X-31363259Y25996154D01*
X-31363257Y25996154D01*
X-31363256Y25996153D01*
X-31252436Y25966459D01*
X-31222741Y25958502D01*
X-31222740Y25958501D01*
X-31222737Y25958501D01*
X-31077258Y25958501D01*
X-31077258Y25958502D01*
X-30936742Y25996153D01*
X-30810756Y26068891D01*
X-30707889Y26171758D01*
X-30635151Y26297744D01*
X-30597500Y26438260D01*
X-30597499Y26438260D01*
X-30597499Y26583742D01*
X-30597500Y26583743D01*
X-29162500Y26583743D01*
X-29162500Y26438260D01*
X-29124849Y26297746D01*
X-29124848Y26297742D01*
X-29052110Y26171758D01*
X-28949243Y26068891D01*
X-28903131Y26042268D01*
X-28823260Y25996154D01*
X-28823258Y25996154D01*
X-28823257Y25996153D01*
X-28712437Y25966459D01*
X-28682742Y25958502D01*
X-28682741Y25958501D01*
X-28682738Y25958501D01*
X-28537259Y25958501D01*
X-28537259Y25958502D01*
X-28396743Y25996153D01*
X-28270757Y26068891D01*
X-28167890Y26171758D01*
X-28095152Y26297744D01*
X-28057501Y26438260D01*
X-28057500Y26438260D01*
X-28057500Y26583742D01*
X-28057501Y26583743D01*
X-26622500Y26583743D01*
X-26622500Y26438260D01*
X-26584849Y26297746D01*
X-26584848Y26297742D01*
X-26512110Y26171758D01*
X-26409243Y26068891D01*
X-26363131Y26042268D01*
X-26283260Y25996154D01*
X-26283258Y25996154D01*
X-26283257Y25996153D01*
X-26172437Y25966459D01*
X-26142742Y25958502D01*
X-26142741Y25958501D01*
X-26142738Y25958501D01*
X-25997259Y25958501D01*
X-25997259Y25958502D01*
X-25856743Y25996153D01*
X-25730757Y26068891D01*
X-25627890Y26171758D01*
X-25555152Y26297744D01*
X-25517501Y26438260D01*
X-25517500Y26438260D01*
X-25517500Y26583740D01*
X-24082500Y26583740D01*
X-24082500Y26438257D01*
X-24044849Y26297743D01*
X-24044848Y26297739D01*
X-23972112Y26171758D01*
X-23972110Y26171755D01*
X-23869243Y26068888D01*
X-23823131Y26042265D01*
X-23743260Y25996151D01*
X-23743258Y25996151D01*
X-23743257Y25996150D01*
X-23632437Y25966456D01*
X-23602742Y25958499D01*
X-23602741Y25958498D01*
X-23602738Y25958498D01*
X-23457259Y25958498D01*
X-23457259Y25958499D01*
X-23316743Y25996150D01*
X-23190757Y26068888D01*
X-23087890Y26171755D01*
X-23015152Y26297741D01*
X-22977501Y26438257D01*
X-22977500Y26438257D01*
X-22977500Y26583739D01*
X-22977501Y26583740D01*
X-23015152Y26724254D01*
X-23015153Y26724258D01*
X-23087891Y26850242D01*
X-23190757Y26953108D01*
X-23316741Y27025846D01*
X-23316745Y27025847D01*
X-23457259Y27063498D01*
X-23457262Y27063498D01*
X-23602738Y27063498D01*
X-23602741Y27063498D01*
X-23743256Y27025847D01*
X-23743260Y27025846D01*
X-23869244Y26953108D01*
X-23869244Y26953107D01*
X-23972109Y26850242D01*
X-23972110Y26850242D01*
X-24044848Y26724258D01*
X-24044849Y26724254D01*
X-24082500Y26583740D01*
X-25517500Y26583740D01*
X-25517500Y26583742D01*
X-25517501Y26583743D01*
X-25555152Y26724257D01*
X-25555153Y26724261D01*
X-25601267Y26804132D01*
X-25627890Y26850244D01*
X-25730757Y26953111D01*
X-25856741Y27025849D01*
X-25856745Y27025850D01*
X-25997259Y27063501D01*
X-25997262Y27063501D01*
X-26142738Y27063501D01*
X-26142741Y27063501D01*
X-26283256Y27025850D01*
X-26283260Y27025849D01*
X-26409244Y26953111D01*
X-26409244Y26953110D01*
X-26512109Y26850245D01*
X-26512110Y26850245D01*
X-26584848Y26724261D01*
X-26584849Y26724257D01*
X-26622500Y26583743D01*
X-28057501Y26583743D01*
X-28095152Y26724257D01*
X-28095153Y26724261D01*
X-28141267Y26804132D01*
X-28167890Y26850244D01*
X-28270757Y26953111D01*
X-28396741Y27025849D01*
X-28396745Y27025850D01*
X-28537259Y27063501D01*
X-28537262Y27063501D01*
X-28682738Y27063501D01*
X-28682741Y27063501D01*
X-28823256Y27025850D01*
X-28823260Y27025849D01*
X-28949244Y26953111D01*
X-28949244Y26953110D01*
X-29052109Y26850245D01*
X-29052110Y26850245D01*
X-29124848Y26724261D01*
X-29124849Y26724257D01*
X-29162500Y26583743D01*
X-30597500Y26583743D01*
X-30635151Y26724257D01*
X-30635152Y26724261D01*
X-30681266Y26804132D01*
X-30707889Y26850244D01*
X-30810756Y26953111D01*
X-30936740Y27025849D01*
X-30936744Y27025850D01*
X-31077258Y27063501D01*
X-31077261Y27063501D01*
X-31222737Y27063501D01*
X-31222740Y27063501D01*
X-31363255Y27025850D01*
X-31363259Y27025849D01*
X-31489243Y26953111D01*
X-31489243Y26953110D01*
X-31592108Y26850245D01*
X-31592109Y26850245D01*
X-31664847Y26724261D01*
X-31664848Y26724257D01*
X-31702499Y26583743D01*
X-33137502Y26583743D01*
X-33175152Y26724254D01*
X-33175153Y26724258D01*
X-33247891Y26850242D01*
X-33350757Y26953108D01*
X-33476741Y27025846D01*
X-33476745Y27025847D01*
X-33617259Y27063498D01*
X-33617262Y27063498D01*
X-33762738Y27063498D01*
X-33762741Y27063498D01*
X-33903256Y27025847D01*
X-33903260Y27025846D01*
X-34029244Y26953108D01*
X-34029244Y26953107D01*
X-34132109Y26850242D01*
X-34132110Y26850242D01*
X-34204848Y26724258D01*
X-34204849Y26724254D01*
X-34242500Y26583740D01*
X-43297501Y26583740D01*
X-43297501Y26583742D01*
X-43297502Y26583743D01*
X-43335153Y26724257D01*
X-43335154Y26724261D01*
X-43381268Y26804132D01*
X-43407891Y26850244D01*
X-43510758Y26953111D01*
X-43636742Y27025849D01*
X-43636746Y27025850D01*
X-43777260Y27063501D01*
X-43777263Y27063501D01*
X-43922739Y27063501D01*
X-43922742Y27063501D01*
X-44063257Y27025850D01*
X-44063261Y27025849D01*
X-44189245Y26953111D01*
X-44189245Y26953110D01*
X-44292110Y26850245D01*
X-44292111Y26850245D01*
X-44364849Y26724261D01*
X-44364850Y26724257D01*
X-44402501Y26583743D01*
X-45837502Y26583743D01*
X-45875152Y26724254D01*
X-45875153Y26724258D01*
X-45947891Y26850242D01*
X-46050757Y26953108D01*
X-46176741Y27025846D01*
X-46176745Y27025847D01*
X-46317259Y27063498D01*
X-46317262Y27063498D01*
X-46462738Y27063498D01*
X-46462741Y27063498D01*
X-46603256Y27025847D01*
X-46603260Y27025846D01*
X-46729244Y26953108D01*
X-46729244Y26953107D01*
X-46832109Y26850242D01*
X-46832110Y26850242D01*
X-46904848Y26724258D01*
X-46904849Y26724254D01*
X-46942500Y26583740D01*
X-48377501Y26583740D01*
X-48377501Y26583742D01*
X-48377502Y26583743D01*
X-48415153Y26724257D01*
X-48415154Y26724261D01*
X-48461268Y26804132D01*
X-48487891Y26850244D01*
X-48590758Y26953111D01*
X-48716742Y27025849D01*
X-48716746Y27025850D01*
X-48857260Y27063501D01*
X-48857263Y27063501D01*
X-49002739Y27063501D01*
X-49002742Y27063501D01*
X-49143257Y27025850D01*
X-49143261Y27025849D01*
X-49269245Y26953111D01*
X-49269245Y26953110D01*
X-49372110Y26850245D01*
X-49372111Y26850245D01*
X-49444849Y26724261D01*
X-49444850Y26724257D01*
X-49482501Y26583743D01*
X-50917501Y26583743D01*
X-50955152Y26724257D01*
X-50955153Y26724261D01*
X-51001267Y26804132D01*
X-51027890Y26850244D01*
X-51130757Y26953111D01*
X-51256741Y27025849D01*
X-51256745Y27025850D01*
X-51397259Y27063501D01*
X-51397262Y27063501D01*
X-51542738Y27063501D01*
X-51542741Y27063501D01*
X-51683256Y27025850D01*
X-51683260Y27025849D01*
X-51809244Y26953111D01*
X-51809244Y26953110D01*
X-51912109Y26850245D01*
X-51912110Y26850245D01*
X-51984848Y26724261D01*
X-51984849Y26724257D01*
X-52022500Y26583743D01*
X-74799500Y26583743D01*
X-74799500Y28537003D01*
X-62278500Y28537003D01*
X-62278500Y28294996D01*
X-62240642Y28055970D01*
X-62240641Y28055967D01*
X-62165857Y27825803D01*
X-62055992Y27610179D01*
X-62055989Y27610175D01*
X-62055988Y27610173D01*
X-61913739Y27414385D01*
X-61913737Y27414383D01*
X-61913734Y27414379D01*
X-61742621Y27243266D01*
X-61742618Y27243264D01*
X-61742614Y27243260D01*
X-61546826Y27101011D01*
X-61546824Y27101010D01*
X-61546821Y27101008D01*
X-61399314Y27025850D01*
X-61331195Y26991142D01*
X-61101032Y26916358D01*
X-60862004Y26878499D01*
X-60862003Y26878499D01*
X-60619997Y26878499D01*
X-60619996Y26878499D01*
X-60380968Y26916358D01*
X-60150805Y26991142D01*
X-59935174Y27101011D01*
X-59739386Y27243260D01*
X-59568261Y27414385D01*
X-59426012Y27610173D01*
X-59316143Y27825804D01*
X-59241359Y28055967D01*
X-59203500Y28294995D01*
X-59203500Y28488742D01*
X-53292502Y28488742D01*
X-53292502Y28343259D01*
X-53254851Y28202745D01*
X-53254850Y28202741D01*
X-53182112Y28076757D01*
X-53079245Y27973890D01*
X-53079243Y27973889D01*
X-52953262Y27901153D01*
X-52953260Y27901153D01*
X-52953259Y27901152D01*
X-52842439Y27871458D01*
X-52812744Y27863501D01*
X-52812743Y27863500D01*
X-52812740Y27863500D01*
X-52667261Y27863500D01*
X-52667261Y27863501D01*
X-52526745Y27901152D01*
X-52400759Y27973890D01*
X-52297892Y28076757D01*
X-52225154Y28202743D01*
X-52187503Y28343259D01*
X-52187502Y28343259D01*
X-52187502Y28488741D01*
X-50752502Y28488741D01*
X-50752502Y28343258D01*
X-50714851Y28202744D01*
X-50714850Y28202740D01*
X-50642113Y28076757D01*
X-50642112Y28076756D01*
X-50539245Y27973889D01*
X-50493133Y27947266D01*
X-50413262Y27901152D01*
X-50413260Y27901152D01*
X-50413259Y27901151D01*
X-50302439Y27871457D01*
X-50272744Y27863500D01*
X-50272743Y27863499D01*
X-50272740Y27863499D01*
X-50127261Y27863499D01*
X-50127261Y27863500D01*
X-49986745Y27901151D01*
X-49986741Y27901153D01*
X-49969865Y27910897D01*
X-49860759Y27973889D01*
X-49757892Y28076756D01*
X-49685154Y28202742D01*
X-49647503Y28343258D01*
X-49647502Y28343258D01*
X-49647502Y28488740D01*
X-49647503Y28488741D01*
X-48212500Y28488741D01*
X-48212500Y28343258D01*
X-48174849Y28202744D01*
X-48174848Y28202740D01*
X-48102111Y28076757D01*
X-48102110Y28076756D01*
X-47999243Y27973889D01*
X-47953131Y27947266D01*
X-47873260Y27901152D01*
X-47873258Y27901152D01*
X-47873257Y27901151D01*
X-47762437Y27871457D01*
X-47732742Y27863500D01*
X-47732741Y27863499D01*
X-47732738Y27863499D01*
X-47587259Y27863499D01*
X-47587259Y27863500D01*
X-47446743Y27901151D01*
X-47446739Y27901153D01*
X-47429863Y27910897D01*
X-47320757Y27973889D01*
X-47217890Y28076756D01*
X-47145152Y28202742D01*
X-47107501Y28343258D01*
X-47107500Y28343258D01*
X-47107500Y28488740D01*
X-47107501Y28488741D01*
X-45672500Y28488741D01*
X-45672500Y28343258D01*
X-45634849Y28202744D01*
X-45634848Y28202740D01*
X-45562111Y28076757D01*
X-45562110Y28076756D01*
X-45459243Y27973889D01*
X-45413131Y27947266D01*
X-45333260Y27901152D01*
X-45333258Y27901152D01*
X-45333257Y27901151D01*
X-45222437Y27871457D01*
X-45192742Y27863500D01*
X-45192741Y27863499D01*
X-45192738Y27863499D01*
X-45047259Y27863499D01*
X-45047259Y27863500D01*
X-44906743Y27901151D01*
X-44906739Y27901153D01*
X-44889863Y27910897D01*
X-44780757Y27973889D01*
X-44677890Y28076756D01*
X-44605152Y28202742D01*
X-44567501Y28343258D01*
X-44567500Y28343258D01*
X-44567500Y28488740D01*
X-44567501Y28488741D01*
X-43132501Y28488741D01*
X-43132501Y28343258D01*
X-43094850Y28202744D01*
X-43094849Y28202740D01*
X-43022112Y28076757D01*
X-43022111Y28076756D01*
X-42919244Y27973889D01*
X-42873132Y27947266D01*
X-42793261Y27901152D01*
X-42793259Y27901152D01*
X-42793258Y27901151D01*
X-42682438Y27871457D01*
X-42652743Y27863500D01*
X-42652742Y27863499D01*
X-42652739Y27863499D01*
X-42507260Y27863499D01*
X-42507260Y27863500D01*
X-42366744Y27901151D01*
X-42366740Y27901153D01*
X-42349864Y27910897D01*
X-42240758Y27973889D01*
X-42137891Y28076756D01*
X-42065153Y28202742D01*
X-42027502Y28343258D01*
X-42027501Y28343258D01*
X-42027501Y28488740D01*
X-42027502Y28488741D01*
X-38052500Y28488741D01*
X-38052500Y28343258D01*
X-38014849Y28202744D01*
X-38014848Y28202740D01*
X-37942111Y28076757D01*
X-37942110Y28076756D01*
X-37839243Y27973889D01*
X-37793131Y27947266D01*
X-37713260Y27901152D01*
X-37713258Y27901152D01*
X-37713257Y27901151D01*
X-37602437Y27871457D01*
X-37572742Y27863500D01*
X-37572741Y27863499D01*
X-37572738Y27863499D01*
X-37427259Y27863499D01*
X-37427259Y27863500D01*
X-37286743Y27901151D01*
X-37286739Y27901153D01*
X-37269863Y27910897D01*
X-37160757Y27973889D01*
X-37057890Y28076756D01*
X-36985152Y28202742D01*
X-36947501Y28343258D01*
X-36947500Y28343258D01*
X-36947500Y28488740D01*
X-36947501Y28488741D01*
X-36947501Y28488742D01*
X-30432502Y28488742D01*
X-30432502Y28343259D01*
X-30394851Y28202745D01*
X-30394850Y28202741D01*
X-30322112Y28076757D01*
X-30219245Y27973890D01*
X-30219243Y27973889D01*
X-30093262Y27901153D01*
X-30093260Y27901153D01*
X-30093259Y27901152D01*
X-29982439Y27871458D01*
X-29952744Y27863501D01*
X-29952743Y27863500D01*
X-29952740Y27863500D01*
X-29807261Y27863500D01*
X-29807261Y27863501D01*
X-29666745Y27901152D01*
X-29540759Y27973890D01*
X-29437892Y28076757D01*
X-29365154Y28202743D01*
X-29327503Y28343259D01*
X-29327502Y28343259D01*
X-29327502Y28488741D01*
X-27892502Y28488741D01*
X-27892502Y28343258D01*
X-27854851Y28202744D01*
X-27854850Y28202740D01*
X-27782113Y28076757D01*
X-27782112Y28076756D01*
X-27679245Y27973889D01*
X-27633133Y27947266D01*
X-27553262Y27901152D01*
X-27553260Y27901152D01*
X-27553259Y27901151D01*
X-27442439Y27871457D01*
X-27412744Y27863500D01*
X-27412743Y27863499D01*
X-27412740Y27863499D01*
X-27267261Y27863499D01*
X-27267261Y27863500D01*
X-27126745Y27901151D01*
X-27126741Y27901153D01*
X-27109865Y27910897D01*
X-27000759Y27973889D01*
X-26897892Y28076756D01*
X-26825154Y28202742D01*
X-26787503Y28343258D01*
X-26787502Y28343258D01*
X-26787502Y28488740D01*
X-26787503Y28488741D01*
X-25352500Y28488741D01*
X-25352500Y28343258D01*
X-25314849Y28202744D01*
X-25314848Y28202740D01*
X-25242111Y28076757D01*
X-25242110Y28076756D01*
X-25139243Y27973889D01*
X-25093131Y27947266D01*
X-25013260Y27901152D01*
X-25013258Y27901152D01*
X-25013257Y27901151D01*
X-24902437Y27871457D01*
X-24872742Y27863500D01*
X-24872741Y27863499D01*
X-24872738Y27863499D01*
X-24727259Y27863499D01*
X-24727259Y27863500D01*
X-24586743Y27901151D01*
X-24586739Y27901153D01*
X-24569863Y27910897D01*
X-24460757Y27973889D01*
X-24357890Y28076756D01*
X-24285152Y28202742D01*
X-24247501Y28343258D01*
X-24247500Y28343258D01*
X-24247500Y28488740D01*
X-24247501Y28488741D01*
X-22812500Y28488741D01*
X-22812500Y28343258D01*
X-22774849Y28202744D01*
X-22774848Y28202740D01*
X-22702111Y28076757D01*
X-22702110Y28076756D01*
X-22599243Y27973889D01*
X-22553131Y27947266D01*
X-22473260Y27901152D01*
X-22473258Y27901152D01*
X-22473257Y27901151D01*
X-22362437Y27871457D01*
X-22332742Y27863500D01*
X-22332741Y27863499D01*
X-22332738Y27863499D01*
X-22187259Y27863499D01*
X-22187259Y27863500D01*
X-22046743Y27901151D01*
X-22046739Y27901153D01*
X-22029863Y27910897D01*
X-21920757Y27973889D01*
X-21817890Y28076756D01*
X-21745152Y28202742D01*
X-21707501Y28343258D01*
X-21707500Y28343258D01*
X-21707500Y28488740D01*
X-21707501Y28488741D01*
X-21720433Y28537003D01*
X-15796499Y28537003D01*
X-15796499Y28294996D01*
X-15758641Y28055970D01*
X-15758640Y28055967D01*
X-15683856Y27825803D01*
X-15573991Y27610179D01*
X-15573988Y27610175D01*
X-15573987Y27610173D01*
X-15431738Y27414385D01*
X-15431736Y27414383D01*
X-15431733Y27414379D01*
X-15260620Y27243266D01*
X-15260617Y27243264D01*
X-15260613Y27243260D01*
X-15064825Y27101011D01*
X-15064823Y27101010D01*
X-15064820Y27101008D01*
X-14917313Y27025850D01*
X-14849194Y26991142D01*
X-14619031Y26916358D01*
X-14380003Y26878499D01*
X-14380002Y26878499D01*
X-14137996Y26878499D01*
X-14137995Y26878499D01*
X-13898967Y26916358D01*
X-13668804Y26991142D01*
X-13453173Y27101011D01*
X-13257385Y27243260D01*
X-13086260Y27414385D01*
X-12944011Y27610173D01*
X-12834142Y27825804D01*
X-12759358Y28055967D01*
X-12721499Y28294995D01*
X-12721499Y28537003D01*
X-12759358Y28776031D01*
X-12834142Y29006194D01*
X-12944011Y29221825D01*
X-13086260Y29417613D01*
X-13086264Y29417617D01*
X-13086266Y29417620D01*
X-13257379Y29588733D01*
X-13257378Y29588733D01*
X-13453179Y29730991D01*
X-13668803Y29840856D01*
X-13898967Y29915640D01*
X-13898970Y29915641D01*
X-14082585Y29944723D01*
X-14137995Y29953499D01*
X-14380003Y29953499D01*
X-14424986Y29946375D01*
X-14619029Y29915641D01*
X-14619032Y29915640D01*
X-14849196Y29840856D01*
X-15064820Y29730991D01*
X-15260620Y29588733D01*
X-15431733Y29417620D01*
X-15573991Y29221820D01*
X-15683856Y29006196D01*
X-15758640Y28776032D01*
X-15758641Y28776029D01*
X-15796499Y28537003D01*
X-21720433Y28537003D01*
X-21745152Y28629255D01*
X-21745153Y28629259D01*
X-21817891Y28755243D01*
X-21920757Y28858109D01*
X-22046741Y28930847D01*
X-22046745Y28930848D01*
X-22187259Y28968499D01*
X-22187262Y28968499D01*
X-22332738Y28968499D01*
X-22332741Y28968499D01*
X-22473256Y28930848D01*
X-22473260Y28930847D01*
X-22599244Y28858109D01*
X-22599244Y28858108D01*
X-22702109Y28755243D01*
X-22702110Y28755243D01*
X-22774848Y28629259D01*
X-22774849Y28629255D01*
X-22812500Y28488741D01*
X-24247501Y28488741D01*
X-24285152Y28629255D01*
X-24285153Y28629259D01*
X-24357891Y28755243D01*
X-24460757Y28858109D01*
X-24586741Y28930847D01*
X-24586745Y28930848D01*
X-24727259Y28968499D01*
X-24727262Y28968499D01*
X-24872738Y28968499D01*
X-24872741Y28968499D01*
X-25013256Y28930848D01*
X-25013260Y28930847D01*
X-25139244Y28858109D01*
X-25139244Y28858108D01*
X-25242109Y28755243D01*
X-25242110Y28755243D01*
X-25314848Y28629259D01*
X-25314849Y28629255D01*
X-25352500Y28488741D01*
X-26787503Y28488741D01*
X-26825154Y28629255D01*
X-26825155Y28629259D01*
X-26897893Y28755243D01*
X-27000759Y28858109D01*
X-27126743Y28930847D01*
X-27126747Y28930848D01*
X-27267261Y28968499D01*
X-27267264Y28968499D01*
X-27412740Y28968499D01*
X-27412743Y28968499D01*
X-27553258Y28930848D01*
X-27553262Y28930847D01*
X-27679246Y28858109D01*
X-27679246Y28858108D01*
X-27782111Y28755243D01*
X-27782112Y28755243D01*
X-27854850Y28629259D01*
X-27854851Y28629255D01*
X-27892502Y28488741D01*
X-29327502Y28488741D01*
X-29327503Y28488742D01*
X-29340435Y28537003D01*
X-29365154Y28629257D01*
X-29365155Y28629259D01*
X-29365155Y28629260D01*
X-29411269Y28709131D01*
X-29437892Y28755243D01*
X-29540759Y28858110D01*
X-29666743Y28930848D01*
X-29666747Y28930849D01*
X-29807261Y28968500D01*
X-29807264Y28968500D01*
X-29952740Y28968500D01*
X-29952743Y28968500D01*
X-30093258Y28930849D01*
X-30093262Y28930848D01*
X-30219246Y28858110D01*
X-30219246Y28858109D01*
X-30322111Y28755244D01*
X-30322112Y28755244D01*
X-30394850Y28629260D01*
X-30394851Y28629256D01*
X-30432502Y28488742D01*
X-36947501Y28488742D01*
X-36985152Y28629255D01*
X-36985153Y28629259D01*
X-37057891Y28755243D01*
X-37160757Y28858109D01*
X-37286741Y28930847D01*
X-37286745Y28930848D01*
X-37427259Y28968499D01*
X-37427262Y28968499D01*
X-37572738Y28968499D01*
X-37572741Y28968499D01*
X-37713256Y28930848D01*
X-37713260Y28930847D01*
X-37839244Y28858109D01*
X-37839244Y28858108D01*
X-37942109Y28755243D01*
X-37942110Y28755243D01*
X-38014848Y28629259D01*
X-38014849Y28629255D01*
X-38052500Y28488741D01*
X-42027502Y28488741D01*
X-42065153Y28629255D01*
X-42065154Y28629259D01*
X-42137892Y28755243D01*
X-42240758Y28858109D01*
X-42366742Y28930847D01*
X-42366746Y28930848D01*
X-42507260Y28968499D01*
X-42507263Y28968499D01*
X-42652739Y28968499D01*
X-42652742Y28968499D01*
X-42793257Y28930848D01*
X-42793261Y28930847D01*
X-42919245Y28858109D01*
X-42919245Y28858108D01*
X-43022110Y28755243D01*
X-43022111Y28755243D01*
X-43094849Y28629259D01*
X-43094850Y28629255D01*
X-43132501Y28488741D01*
X-44567501Y28488741D01*
X-44605152Y28629255D01*
X-44605153Y28629259D01*
X-44677891Y28755243D01*
X-44780757Y28858109D01*
X-44906741Y28930847D01*
X-44906745Y28930848D01*
X-45047259Y28968499D01*
X-45047262Y28968499D01*
X-45192738Y28968499D01*
X-45192741Y28968499D01*
X-45333256Y28930848D01*
X-45333260Y28930847D01*
X-45459244Y28858109D01*
X-45459244Y28858108D01*
X-45562109Y28755243D01*
X-45562110Y28755243D01*
X-45634848Y28629259D01*
X-45634849Y28629255D01*
X-45672500Y28488741D01*
X-47107501Y28488741D01*
X-47145152Y28629255D01*
X-47145153Y28629259D01*
X-47217891Y28755243D01*
X-47320757Y28858109D01*
X-47446741Y28930847D01*
X-47446745Y28930848D01*
X-47587259Y28968499D01*
X-47587262Y28968499D01*
X-47732738Y28968499D01*
X-47732741Y28968499D01*
X-47873256Y28930848D01*
X-47873260Y28930847D01*
X-47999244Y28858109D01*
X-47999244Y28858108D01*
X-48102109Y28755243D01*
X-48102110Y28755243D01*
X-48174848Y28629259D01*
X-48174849Y28629255D01*
X-48212500Y28488741D01*
X-49647503Y28488741D01*
X-49685154Y28629255D01*
X-49685155Y28629259D01*
X-49757893Y28755243D01*
X-49860759Y28858109D01*
X-49986743Y28930847D01*
X-49986747Y28930848D01*
X-50127261Y28968499D01*
X-50127264Y28968499D01*
X-50272740Y28968499D01*
X-50272743Y28968499D01*
X-50413258Y28930848D01*
X-50413262Y28930847D01*
X-50539246Y28858109D01*
X-50539246Y28858108D01*
X-50642111Y28755243D01*
X-50642112Y28755243D01*
X-50714850Y28629259D01*
X-50714851Y28629255D01*
X-50752502Y28488741D01*
X-52187502Y28488741D01*
X-52187503Y28488742D01*
X-52200435Y28537003D01*
X-52225154Y28629257D01*
X-52225155Y28629259D01*
X-52225155Y28629260D01*
X-52271269Y28709131D01*
X-52297892Y28755243D01*
X-52400759Y28858110D01*
X-52526743Y28930848D01*
X-52526747Y28930849D01*
X-52667261Y28968500D01*
X-52667264Y28968500D01*
X-52812740Y28968500D01*
X-52812743Y28968500D01*
X-52953258Y28930849D01*
X-52953262Y28930848D01*
X-53079246Y28858110D01*
X-53079246Y28858109D01*
X-53182111Y28755244D01*
X-53182112Y28755244D01*
X-53254850Y28629260D01*
X-53254851Y28629256D01*
X-53292502Y28488742D01*
X-59203500Y28488742D01*
X-59203500Y28537003D01*
X-59241359Y28776031D01*
X-59316143Y29006194D01*
X-59426012Y29221825D01*
X-59568261Y29417613D01*
X-59568265Y29417617D01*
X-59568267Y29417620D01*
X-59739380Y29588733D01*
X-59739379Y29588733D01*
X-59935180Y29730991D01*
X-60150804Y29840856D01*
X-60380968Y29915640D01*
X-60380971Y29915641D01*
X-60564586Y29944723D01*
X-60619996Y29953499D01*
X-60862004Y29953499D01*
X-60906987Y29946375D01*
X-61101030Y29915641D01*
X-61101033Y29915640D01*
X-61331197Y29840856D01*
X-61546821Y29730991D01*
X-61742621Y29588733D01*
X-61913734Y29417620D01*
X-62055992Y29221820D01*
X-62165857Y29006196D01*
X-62240641Y28776032D01*
X-62240642Y28776029D01*
X-62278500Y28537003D01*
X-74799500Y28537003D01*
X-74799500Y29998797D01*
X-74799441Y30001201D01*
X-74794207Y30107744D01*
X-74781322Y30370023D01*
X-74780854Y30374780D01*
X-74778041Y30393741D01*
X-52022500Y30393741D01*
X-52022500Y30248258D01*
X-51984849Y30107744D01*
X-51984848Y30107740D01*
X-51923337Y30001201D01*
X-51912110Y29981756D01*
X-51809243Y29878889D01*
X-51809241Y29878888D01*
X-51683260Y29806152D01*
X-51683258Y29806152D01*
X-51683257Y29806151D01*
X-51572437Y29776457D01*
X-51542742Y29768500D01*
X-51542741Y29768499D01*
X-51542738Y29768499D01*
X-51397259Y29768499D01*
X-51397259Y29768500D01*
X-51256743Y29806151D01*
X-51130757Y29878889D01*
X-51027890Y29981756D01*
X-50955152Y30107742D01*
X-50917501Y30248258D01*
X-50917500Y30248258D01*
X-50917500Y30393740D01*
X-50917501Y30393741D01*
X-49482498Y30393741D01*
X-49482498Y30248258D01*
X-49444847Y30107744D01*
X-49444846Y30107740D01*
X-49383335Y30001201D01*
X-49372108Y29981756D01*
X-49269241Y29878889D01*
X-49269239Y29878888D01*
X-49143258Y29806152D01*
X-49143256Y29806152D01*
X-49143255Y29806151D01*
X-49032435Y29776457D01*
X-49002740Y29768500D01*
X-49002739Y29768499D01*
X-49002736Y29768499D01*
X-48857257Y29768499D01*
X-48857257Y29768500D01*
X-48716741Y29806151D01*
X-48590755Y29878889D01*
X-48487888Y29981756D01*
X-48415150Y30107742D01*
X-48377499Y30248258D01*
X-48377498Y30248258D01*
X-48377498Y30393740D01*
X-48377499Y30393741D01*
X-46942499Y30393741D01*
X-46942499Y30248258D01*
X-46904848Y30107744D01*
X-46904847Y30107740D01*
X-46843336Y30001201D01*
X-46832109Y29981756D01*
X-46729242Y29878889D01*
X-46729240Y29878888D01*
X-46603259Y29806152D01*
X-46603257Y29806152D01*
X-46603256Y29806151D01*
X-46492436Y29776457D01*
X-46462741Y29768500D01*
X-46462740Y29768499D01*
X-46462737Y29768499D01*
X-46317258Y29768499D01*
X-46317258Y29768500D01*
X-46176742Y29806151D01*
X-46050756Y29878889D01*
X-45947889Y29981756D01*
X-45875151Y30107742D01*
X-45837500Y30248258D01*
X-45837499Y30248258D01*
X-45837499Y30393740D01*
X-45837500Y30393741D01*
X-44402498Y30393741D01*
X-44402498Y30248258D01*
X-44364847Y30107744D01*
X-44364846Y30107740D01*
X-44303335Y30001201D01*
X-44292108Y29981756D01*
X-44189241Y29878889D01*
X-44189239Y29878888D01*
X-44063258Y29806152D01*
X-44063256Y29806152D01*
X-44063255Y29806151D01*
X-43952435Y29776457D01*
X-43922740Y29768500D01*
X-43922739Y29768499D01*
X-43922736Y29768499D01*
X-43777257Y29768499D01*
X-43777257Y29768500D01*
X-43636741Y29806151D01*
X-43510755Y29878889D01*
X-43407888Y29981756D01*
X-43335150Y30107742D01*
X-43297499Y30248258D01*
X-43297498Y30248258D01*
X-43297498Y30393740D01*
X-43297499Y30393741D01*
X-34242497Y30393741D01*
X-34242497Y30248258D01*
X-34204846Y30107744D01*
X-34204845Y30107740D01*
X-34143334Y30001201D01*
X-34132107Y29981756D01*
X-34029240Y29878889D01*
X-34029238Y29878888D01*
X-33903257Y29806152D01*
X-33903255Y29806152D01*
X-33903254Y29806151D01*
X-33792434Y29776457D01*
X-33762739Y29768500D01*
X-33762738Y29768499D01*
X-33762735Y29768499D01*
X-33617256Y29768499D01*
X-33617256Y29768500D01*
X-33476740Y29806151D01*
X-33350754Y29878889D01*
X-33247887Y29981756D01*
X-33175149Y30107742D01*
X-33137498Y30248258D01*
X-33137497Y30248258D01*
X-33137497Y30393740D01*
X-33137498Y30393741D01*
X-31702499Y30393741D01*
X-31702499Y30248258D01*
X-31664848Y30107744D01*
X-31664847Y30107740D01*
X-31603336Y30001201D01*
X-31592109Y29981756D01*
X-31489242Y29878889D01*
X-31489240Y29878888D01*
X-31363259Y29806152D01*
X-31363257Y29806152D01*
X-31363256Y29806151D01*
X-31252436Y29776457D01*
X-31222741Y29768500D01*
X-31222740Y29768499D01*
X-31222737Y29768499D01*
X-31077258Y29768499D01*
X-31077258Y29768500D01*
X-30936742Y29806151D01*
X-30810756Y29878889D01*
X-30707889Y29981756D01*
X-30635151Y30107742D01*
X-30597500Y30248258D01*
X-30597499Y30248258D01*
X-30597499Y30393740D01*
X-29162500Y30393740D01*
X-29162500Y30248257D01*
X-29124849Y30107743D01*
X-29124848Y30107739D01*
X-29085670Y30039882D01*
X-29052110Y29981755D01*
X-28949243Y29878888D01*
X-28903131Y29852265D01*
X-28823260Y29806151D01*
X-28823258Y29806151D01*
X-28823257Y29806150D01*
X-28712437Y29776456D01*
X-28682742Y29768499D01*
X-28682741Y29768498D01*
X-28682738Y29768498D01*
X-28537259Y29768498D01*
X-28537259Y29768499D01*
X-28396743Y29806150D01*
X-28396739Y29806152D01*
X-28379863Y29815896D01*
X-28270757Y29878888D01*
X-28167890Y29981755D01*
X-28095152Y30107741D01*
X-28057501Y30248257D01*
X-28057500Y30248257D01*
X-28057500Y30393739D01*
X-28057501Y30393740D01*
X-28057501Y30393741D01*
X-26622498Y30393741D01*
X-26622498Y30248258D01*
X-26584847Y30107744D01*
X-26584846Y30107740D01*
X-26523335Y30001201D01*
X-26512108Y29981756D01*
X-26409241Y29878889D01*
X-26409239Y29878888D01*
X-26283258Y29806152D01*
X-26283256Y29806152D01*
X-26283255Y29806151D01*
X-26172435Y29776457D01*
X-26142740Y29768500D01*
X-26142739Y29768499D01*
X-26142736Y29768499D01*
X-25997257Y29768499D01*
X-25997257Y29768500D01*
X-25856741Y29806151D01*
X-25730755Y29878889D01*
X-25627888Y29981756D01*
X-25555150Y30107742D01*
X-25517499Y30248258D01*
X-25517498Y30248258D01*
X-25517498Y30393740D01*
X-25517499Y30393741D01*
X-24082499Y30393741D01*
X-24082499Y30248258D01*
X-24044848Y30107744D01*
X-24044847Y30107740D01*
X-23983336Y30001201D01*
X-23972109Y29981756D01*
X-23869242Y29878889D01*
X-23869240Y29878888D01*
X-23743259Y29806152D01*
X-23743257Y29806152D01*
X-23743256Y29806151D01*
X-23632436Y29776457D01*
X-23602741Y29768500D01*
X-23602740Y29768499D01*
X-23602737Y29768499D01*
X-23457258Y29768499D01*
X-23457258Y29768500D01*
X-23316742Y29806151D01*
X-23190756Y29878889D01*
X-23087889Y29981756D01*
X-23015151Y30107742D01*
X-22977500Y30248258D01*
X-22977499Y30248258D01*
X-22977499Y30393740D01*
X-22977500Y30393741D01*
X-22985457Y30423436D01*
X-23015151Y30534256D01*
X-23015152Y30534258D01*
X-23015152Y30534259D01*
X-23061266Y30614130D01*
X-23087889Y30660242D01*
X-23190756Y30763109D01*
X-23316740Y30835847D01*
X-23316744Y30835848D01*
X-23457258Y30873499D01*
X-23457261Y30873499D01*
X-23602737Y30873499D01*
X-23602740Y30873499D01*
X-23743255Y30835848D01*
X-23743259Y30835847D01*
X-23869243Y30763109D01*
X-23869243Y30763108D01*
X-23972108Y30660243D01*
X-23972109Y30660243D01*
X-24044847Y30534259D01*
X-24044848Y30534255D01*
X-24082499Y30393741D01*
X-25517499Y30393741D01*
X-25525456Y30423436D01*
X-25555150Y30534256D01*
X-25555151Y30534258D01*
X-25555151Y30534259D01*
X-25601265Y30614130D01*
X-25627888Y30660242D01*
X-25730755Y30763109D01*
X-25856739Y30835847D01*
X-25856743Y30835848D01*
X-25997257Y30873499D01*
X-25997260Y30873499D01*
X-26142736Y30873499D01*
X-26142739Y30873499D01*
X-26283254Y30835848D01*
X-26283258Y30835847D01*
X-26409242Y30763109D01*
X-26409242Y30763108D01*
X-26512107Y30660243D01*
X-26512108Y30660243D01*
X-26584846Y30534259D01*
X-26584847Y30534255D01*
X-26622498Y30393741D01*
X-28057501Y30393741D01*
X-28095152Y30534254D01*
X-28095153Y30534258D01*
X-28167891Y30660242D01*
X-28270757Y30763108D01*
X-28396741Y30835846D01*
X-28396745Y30835847D01*
X-28537259Y30873498D01*
X-28537262Y30873498D01*
X-28682738Y30873498D01*
X-28682741Y30873498D01*
X-28823256Y30835847D01*
X-28823260Y30835846D01*
X-28949244Y30763108D01*
X-28949244Y30763107D01*
X-29052109Y30660242D01*
X-29052110Y30660242D01*
X-29124848Y30534258D01*
X-29124849Y30534254D01*
X-29162500Y30393740D01*
X-30597499Y30393740D01*
X-30597500Y30393741D01*
X-30605457Y30423436D01*
X-30635151Y30534256D01*
X-30635152Y30534258D01*
X-30635152Y30534259D01*
X-30681266Y30614130D01*
X-30707889Y30660242D01*
X-30810756Y30763109D01*
X-30936740Y30835847D01*
X-30936744Y30835848D01*
X-31077258Y30873499D01*
X-31077261Y30873499D01*
X-31222737Y30873499D01*
X-31222740Y30873499D01*
X-31363255Y30835848D01*
X-31363259Y30835847D01*
X-31489243Y30763109D01*
X-31489243Y30763108D01*
X-31592108Y30660243D01*
X-31592109Y30660243D01*
X-31664847Y30534259D01*
X-31664848Y30534255D01*
X-31702499Y30393741D01*
X-33137498Y30393741D01*
X-33145455Y30423436D01*
X-33175149Y30534256D01*
X-33175150Y30534258D01*
X-33175150Y30534259D01*
X-33221264Y30614130D01*
X-33247887Y30660242D01*
X-33350754Y30763109D01*
X-33476738Y30835847D01*
X-33476742Y30835848D01*
X-33617256Y30873499D01*
X-33617259Y30873499D01*
X-33762735Y30873499D01*
X-33762738Y30873499D01*
X-33903253Y30835848D01*
X-33903257Y30835847D01*
X-34029241Y30763109D01*
X-34029241Y30763108D01*
X-34132106Y30660243D01*
X-34132107Y30660243D01*
X-34204845Y30534259D01*
X-34204846Y30534255D01*
X-34242497Y30393741D01*
X-43297499Y30393741D01*
X-43305456Y30423436D01*
X-43335150Y30534256D01*
X-43335151Y30534258D01*
X-43335151Y30534259D01*
X-43381265Y30614130D01*
X-43407888Y30660242D01*
X-43510755Y30763109D01*
X-43636739Y30835847D01*
X-43636743Y30835848D01*
X-43777257Y30873499D01*
X-43777260Y30873499D01*
X-43922736Y30873499D01*
X-43922739Y30873499D01*
X-44063254Y30835848D01*
X-44063258Y30835847D01*
X-44189242Y30763109D01*
X-44189242Y30763108D01*
X-44292107Y30660243D01*
X-44292108Y30660243D01*
X-44364846Y30534259D01*
X-44364847Y30534255D01*
X-44402498Y30393741D01*
X-45837500Y30393741D01*
X-45845457Y30423436D01*
X-45875151Y30534256D01*
X-45875152Y30534258D01*
X-45875152Y30534259D01*
X-45921266Y30614130D01*
X-45947889Y30660242D01*
X-46050756Y30763109D01*
X-46176740Y30835847D01*
X-46176744Y30835848D01*
X-46317258Y30873499D01*
X-46317261Y30873499D01*
X-46462737Y30873499D01*
X-46462740Y30873499D01*
X-46603255Y30835848D01*
X-46603259Y30835847D01*
X-46729243Y30763109D01*
X-46729243Y30763108D01*
X-46832108Y30660243D01*
X-46832109Y30660243D01*
X-46904847Y30534259D01*
X-46904848Y30534255D01*
X-46942499Y30393741D01*
X-48377499Y30393741D01*
X-48385456Y30423436D01*
X-48415150Y30534256D01*
X-48415151Y30534258D01*
X-48415151Y30534259D01*
X-48461265Y30614130D01*
X-48487888Y30660242D01*
X-48590755Y30763109D01*
X-48716739Y30835847D01*
X-48716743Y30835848D01*
X-48857257Y30873499D01*
X-48857260Y30873499D01*
X-49002736Y30873499D01*
X-49002739Y30873499D01*
X-49143254Y30835848D01*
X-49143258Y30835847D01*
X-49269242Y30763109D01*
X-49269242Y30763108D01*
X-49372107Y30660243D01*
X-49372108Y30660243D01*
X-49444846Y30534259D01*
X-49444847Y30534255D01*
X-49482498Y30393741D01*
X-50917501Y30393741D01*
X-50925458Y30423436D01*
X-50955152Y30534256D01*
X-50955153Y30534258D01*
X-50955153Y30534259D01*
X-51001267Y30614130D01*
X-51027890Y30660242D01*
X-51130757Y30763109D01*
X-51256741Y30835847D01*
X-51256745Y30835848D01*
X-51397259Y30873499D01*
X-51397262Y30873499D01*
X-51542738Y30873499D01*
X-51542741Y30873499D01*
X-51683256Y30835848D01*
X-51683260Y30835847D01*
X-51809244Y30763109D01*
X-51809244Y30763108D01*
X-51912109Y30660243D01*
X-51912110Y30660243D01*
X-51984848Y30534259D01*
X-51984849Y30534255D01*
X-52022500Y30393741D01*
X-74778041Y30393741D01*
X-74726845Y30738882D01*
X-74725914Y30743564D01*
X-74636480Y31100605D01*
X-74635084Y31105204D01*
X-74552393Y31336309D01*
X-74511083Y31451764D01*
X-74509254Y31456177D01*
X-74351885Y31788907D01*
X-74349637Y31793114D01*
X-74160402Y32108834D01*
X-74157732Y32112827D01*
X-73938478Y32408456D01*
X-73935452Y32412144D01*
X-73688269Y32684869D01*
X-73684868Y32688269D01*
X-73412144Y32935452D01*
X-73408456Y32938478D01*
X-73112823Y33157735D01*
X-73108829Y33160404D01*
X-72793114Y33349637D01*
X-72788907Y33351885D01*
X-72456177Y33509254D01*
X-72451764Y33511083D01*
X-72105202Y33635085D01*
X-72100602Y33636480D01*
X-71743564Y33725914D01*
X-71738882Y33726845D01*
X-71374780Y33780854D01*
X-71370023Y33781322D01*
X-71001201Y33799442D01*
X-70998797Y33799500D01*
X-70960118Y33799500D01*
X-4039882Y33799500D01*
X-4001203Y33799500D01*
X-3998800Y33799442D01*
G37*
G04 #@! TD.AperFunction*
G04 #@! TD*
M02*
