G04 #@! TF.GenerationSoftware,KiCad,Pcbnew,8.0.6*
G04 #@! TF.CreationDate,2024-11-07T02:27:23-08:00*
G04 #@! TF.ProjectId,mse-50-hd,6d73652d-3530-42d6-9864-2e6b69636164,1*
G04 #@! TF.SameCoordinates,Original*
G04 #@! TF.FileFunction,Copper,L3,Inr*
G04 #@! TF.FilePolarity,Positive*
%FSLAX46Y46*%
G04 Gerber Fmt 4.6, Leading zero omitted, Abs format (unit mm)*
G04 Created by KiCad (PCBNEW 8.0.6) date 2024-11-07 02:27:23*
%MOMM*%
%LPD*%
G01*
G04 APERTURE LIST*
%ADD10C,0.300000*%
G04 #@! TA.AperFunction,NonConductor*
%ADD11C,0.300000*%
G04 #@! TD*
G04 #@! TA.AperFunction,ComponentPad*
%ADD12C,1.200000*%
G04 #@! TD*
G04 #@! TA.AperFunction,ComponentPad*
%ADD13C,6.400000*%
G04 #@! TD*
G04 #@! TA.AperFunction,ComponentPad*
%ADD14C,1.850000*%
G04 #@! TD*
G04 #@! TA.AperFunction,ViaPad*
%ADD15C,0.450000*%
G04 #@! TD*
G04 APERTURE END LIST*
D10*
D11*
X-1999172Y15700001D02*
X-1999172Y16628573D01*
X-1999172Y16628573D02*
X-1427743Y16128573D01*
X-1427743Y16128573D02*
X-1427743Y16342858D01*
X-1427743Y16342858D02*
X-1356315Y16485715D01*
X-1356315Y16485715D02*
X-1284886Y16557144D01*
X-1284886Y16557144D02*
X-1142029Y16628573D01*
X-1142029Y16628573D02*
X-784886Y16628573D01*
X-784886Y16628573D02*
X-642029Y16557144D01*
X-642029Y16557144D02*
X-570600Y16485715D01*
X-570600Y16485715D02*
X-499172Y16342858D01*
X-499172Y16342858D02*
X-499172Y15914287D01*
X-499172Y15914287D02*
X-570600Y15771430D01*
X-570600Y15771430D02*
X-642029Y15700001D01*
D12*
G04 #@! TO.N,/CON.TERMPWR*
G04 #@! TO.C,J5*
X-37500000Y28415999D03*
G04 #@! TD*
D13*
G04 #@! TO.N,GND*
G04 #@! TO.C,H4*
X-4000000Y4000000D03*
G04 #@! TD*
D14*
G04 #@! TO.N,+3V3*
G04 #@! TO.C,J3*
X-72440000Y16010000D03*
G04 #@! TD*
D13*
G04 #@! TO.N,GND*
G04 #@! TO.C,H3*
X-71000000Y4000000D03*
G04 #@! TD*
D15*
G04 #@! TO.N,GND*
X-64650000Y4000000D03*
X-63600000Y4000000D03*
X-64100000Y4500000D03*
X-44300000Y3200000D03*
X-32300000Y3200000D03*
X-20300000Y3200000D03*
X-29900000Y3200000D03*
X-49100000Y3200000D03*
X-37100000Y3200000D03*
X-33900000Y3200000D03*
X-27500000Y3200000D03*
X-17900000Y3200000D03*
X-41900000Y3200000D03*
X-53900000Y3200000D03*
X-25100000Y3200000D03*
X-46700000Y3200000D03*
X-64100000Y3500000D03*
X-51500000Y3200000D03*
X-39500000Y3200000D03*
X-22700000Y3200000D03*
X-66050000Y3150000D03*
G04 #@! TO.N,/PHY.ID_SCL*
X-67200000Y12150000D03*
X-63000000Y8500000D03*
G04 #@! TO.N,+3V3*
X-56300000Y1800000D03*
X-67200000Y16500000D03*
X-67200000Y10500000D03*
X-66050000Y4850000D03*
X-56300000Y1000000D03*
X-56300000Y2600000D03*
X-62150000Y4850000D03*
G04 #@! TO.N,/PHY.ID_SDA*
X-67200000Y14750000D03*
X-62400000Y7900000D03*
G04 #@! TO.N,/CON.C{slash}D+*
X-25900000Y3200000D03*
G04 #@! TO.N,/CON.ACK+*
X-30700000Y3200000D03*
G04 #@! TO.N,/CON.TERMPWR*
X-34700000Y1800000D03*
X-35500000Y2600000D03*
X-35500000Y1800000D03*
X-34700000Y7000000D03*
X-34700000Y5400000D03*
X-34700000Y6200000D03*
X-35500000Y1000000D03*
X-35500000Y7000000D03*
X-34700000Y1000000D03*
X-35500000Y6200000D03*
X-34700000Y2600000D03*
X-35500000Y5400000D03*
G04 #@! TO.N,/CON.BSY+*
X-31500000Y3200000D03*
G04 #@! TO.N,/CON.DB5+*
X-41100000Y3200000D03*
G04 #@! TO.N,/CON.DP0+*
X-37900000Y3200000D03*
G04 #@! TO.N,/CON.SEL+*
X-26700000Y3200000D03*
G04 #@! TO.N,/CON.ATN+*
X-33100000Y3200000D03*
G04 #@! TO.N,/CON.DB7+*
X-38700000Y3200000D03*
G04 #@! TO.N,/CON.REQ+*
X-24300000Y3200000D03*
G04 #@! TO.N,/CON.MSG+*
X-28300000Y3200000D03*
G04 #@! TO.N,/CON.DB3+*
X-43500000Y3200000D03*
G04 #@! TO.N,/CON.DIFFSENSE*
X-36300000Y3200000D03*
G04 #@! TO.N,/CON.I{slash}O+*
X-23500000Y3200000D03*
G04 #@! TO.N,/CON.DB4+*
X-42700000Y3200000D03*
G04 #@! TO.N,/CON.RST+*
X-29100000Y3200000D03*
G04 #@! TO.N,/CON.DB6+*
X-40300000Y3200000D03*
G04 #@! TO.N,/CON.DB1+*
X-45900000Y3200000D03*
G04 #@! TO.N,/CON.DB2+*
X-45100000Y3200000D03*
G04 #@! TO.N,/CON.DB0+*
X-47500000Y3200000D03*
G04 #@! TD*
G04 #@! TA.AperFunction,Conductor*
G04 #@! TO.N,/CON.TERMPWR*
G36*
X-3998800Y33799442D02*
G01*
X-3629980Y33781322D01*
X-3625219Y33780854D01*
X-3261123Y33726846D01*
X-3256433Y33725913D01*
X-2963065Y33652428D01*
X-2899399Y33636480D01*
X-2894797Y33635084D01*
X-2781323Y33594483D01*
X-2548244Y33511085D01*
X-2543817Y33509251D01*
X-2211103Y33351889D01*
X-2206878Y33349632D01*
X-2015692Y33235039D01*
X-1891172Y33160404D01*
X-1887174Y33157732D01*
X-1739367Y33048111D01*
X-1591555Y32938486D01*
X-1587843Y32935440D01*
X-1315133Y32688269D01*
X-1311732Y32684868D01*
X-1064561Y32412158D01*
X-1061511Y32408441D01*
X-842269Y32112827D01*
X-839597Y32108829D01*
X-650374Y31793131D01*
X-648108Y31788890D01*
X-490754Y31456192D01*
X-488913Y31451750D01*
X-364917Y31105204D01*
X-363521Y31100602D01*
X-274091Y30743581D01*
X-273153Y30738865D01*
X-219149Y30374794D01*
X-218678Y30370008D01*
X-200559Y30001201D01*
X-200500Y29998797D01*
X-200500Y21599000D01*
X-214852Y21564352D01*
X-249500Y21550000D01*
X-2500000Y21550000D01*
X-2500000Y12350000D01*
X-249500Y12350000D01*
X-214852Y12335648D01*
X-200500Y12301000D01*
X-200500Y4001204D01*
X-200559Y3998800D01*
X-218678Y3629993D01*
X-219149Y3625207D01*
X-273153Y3261136D01*
X-274091Y3256420D01*
X-363521Y2899399D01*
X-364917Y2894797D01*
X-488913Y2548251D01*
X-490754Y2543809D01*
X-648108Y2211111D01*
X-650374Y2206870D01*
X-839597Y1891172D01*
X-842269Y1887174D01*
X-1061511Y1591560D01*
X-1064561Y1587843D01*
X-1311732Y1315133D01*
X-1315133Y1311732D01*
X-1587843Y1064561D01*
X-1591560Y1061511D01*
X-1887174Y842269D01*
X-1891172Y839597D01*
X-2206870Y650374D01*
X-2211111Y648108D01*
X-2543809Y490754D01*
X-2548251Y488913D01*
X-2894797Y364917D01*
X-2899399Y363521D01*
X-3256420Y274091D01*
X-3261136Y273153D01*
X-3625207Y219149D01*
X-3629993Y218678D01*
X-3998799Y200559D01*
X-4001203Y200500D01*
X-70998797Y200500D01*
X-71001201Y200559D01*
X-71370008Y218678D01*
X-71374794Y219149D01*
X-71738865Y273153D01*
X-71743581Y274091D01*
X-72100602Y363521D01*
X-72105204Y364917D01*
X-72451750Y488913D01*
X-72456192Y490754D01*
X-72788890Y648108D01*
X-72793131Y650374D01*
X-73108829Y839597D01*
X-73112827Y842269D01*
X-73408441Y1061511D01*
X-73412158Y1064561D01*
X-73684868Y1311732D01*
X-73688269Y1315133D01*
X-73917494Y1568043D01*
X-73935443Y1587847D01*
X-73938490Y1591560D01*
X-73971436Y1635982D01*
X-74093079Y1799999D01*
X-74157732Y1887174D01*
X-74160404Y1891172D01*
X-74244788Y2031957D01*
X-74349632Y2206878D01*
X-74351889Y2211103D01*
X-74509251Y2543817D01*
X-74511088Y2548251D01*
X-74529604Y2599999D01*
X-74606282Y2814301D01*
X-74635084Y2894797D01*
X-74636480Y2899399D01*
X-74684152Y3089714D01*
X-74725913Y3256433D01*
X-74726846Y3261123D01*
X-74780854Y3625219D01*
X-74781322Y3629980D01*
X-74799441Y3998800D01*
X-74799500Y4001204D01*
X-74799500Y16995203D01*
X-74432500Y16995203D01*
X-74432500Y4912050D01*
X-74428140Y4878338D01*
X-74428140Y4878337D01*
X-74421800Y4854238D01*
X-74418742Y4844237D01*
X-74418740Y4844233D01*
X-74375265Y4783551D01*
X-74375261Y4783546D01*
X-74375257Y4783543D01*
X-74375255Y4783541D01*
X-74345724Y4760454D01*
X-74345718Y4760450D01*
X-74345715Y4760448D01*
X-74321662Y4745487D01*
X-74299888Y4741890D01*
X-74268043Y4722085D01*
X-74259519Y4685619D01*
X-74285440Y4527500D01*
X-74302718Y4422105D01*
X-74312852Y4360291D01*
X-74312853Y4360287D01*
X-74332387Y4000002D01*
X-74332387Y3999999D01*
X-74312853Y3639714D01*
X-74312853Y3639712D01*
X-74312852Y3639706D01*
X-74275157Y3409775D01*
X-74254478Y3283634D01*
X-74157950Y2935972D01*
X-74157947Y2935963D01*
X-74024395Y2600771D01*
X-74024393Y2600766D01*
X-73855380Y2281975D01*
X-73855376Y2281967D01*
X-73652894Y1983330D01*
X-73652891Y1983327D01*
X-73652890Y1983325D01*
X-73627840Y1953834D01*
X-73419306Y1708327D01*
X-73419296Y1708317D01*
X-73271211Y1568043D01*
X-73157342Y1460181D01*
X-72870092Y1241820D01*
X-72870085Y1241815D01*
X-72694753Y1136322D01*
X-72560918Y1055796D01*
X-72497866Y1026625D01*
X-72233450Y904292D01*
X-72233444Y904290D01*
X-71891508Y789079D01*
X-71748235Y757542D01*
X-71539130Y711514D01*
X-71539129Y711514D01*
X-71539120Y711512D01*
X-71180412Y672500D01*
X-71180407Y672500D01*
X-70819593Y672500D01*
X-70819588Y672500D01*
X-70460880Y711512D01*
X-70305172Y745787D01*
X-70268251Y739220D01*
X-70246786Y708467D01*
X-70245921Y703176D01*
X-70245396Y698293D01*
X-70231045Y663646D01*
X-70219766Y642992D01*
X-70217469Y638785D01*
X-70159337Y591938D01*
X-70159336Y591938D01*
X-70159335Y591937D01*
X-70124697Y577589D01*
X-70124695Y577589D01*
X-70124689Y577586D01*
X-70073982Y567500D01*
X-70073979Y567500D01*
X-56204841Y567500D01*
X-56204823Y567500D01*
X-56191826Y568139D01*
X-56182269Y569081D01*
X-56169411Y570989D01*
X-56154870Y573882D01*
X-56154871Y573883D01*
X-56148507Y575149D01*
X-56107175Y583369D01*
X-56107165Y583373D01*
X-56107161Y583373D01*
X-56098771Y585919D01*
X-56082320Y590908D01*
X-56082315Y590910D01*
X-56064663Y598221D01*
X-56064657Y598224D01*
X-56041749Y610469D01*
X-55993071Y642994D01*
X-55972991Y659472D01*
X-55959472Y672991D01*
X-55942994Y693071D01*
X-55910469Y741749D01*
X-55898224Y764657D01*
X-55898098Y764961D01*
X-55890909Y782317D01*
X-55888858Y789079D01*
X-55883369Y807173D01*
X-55870988Y869413D01*
X-55869081Y882271D01*
X-55868139Y891831D01*
X-55867500Y904824D01*
X-55867500Y1000002D01*
X-54931957Y1000002D01*
X-54931957Y999999D01*
X-54914301Y911236D01*
X-54864019Y835982D01*
X-54826392Y810841D01*
X-54788766Y785700D01*
X-54759178Y779815D01*
X-54700002Y768043D01*
X-54700000Y768043D01*
X-54699998Y768043D01*
X-54655617Y776872D01*
X-54611234Y785700D01*
X-54535982Y835982D01*
X-54485700Y911234D01*
X-54468043Y1000000D01*
X-54468043Y1000002D01*
X-54131957Y1000002D01*
X-54131957Y999999D01*
X-54114301Y911236D01*
X-54064019Y835982D01*
X-54026392Y810841D01*
X-53988766Y785700D01*
X-53959178Y779815D01*
X-53900002Y768043D01*
X-53900000Y768043D01*
X-53899998Y768043D01*
X-53855617Y776872D01*
X-53811234Y785700D01*
X-53735982Y835982D01*
X-53685700Y911234D01*
X-53668043Y1000000D01*
X-53668043Y1000002D01*
X-51731957Y1000002D01*
X-51731957Y999999D01*
X-51714301Y911236D01*
X-51664019Y835982D01*
X-51626392Y810841D01*
X-51588766Y785700D01*
X-51559178Y779815D01*
X-51500002Y768043D01*
X-51500000Y768043D01*
X-51499998Y768043D01*
X-51455617Y776872D01*
X-51411234Y785700D01*
X-51335982Y835982D01*
X-51285700Y911234D01*
X-51268043Y1000000D01*
X-51268043Y1000002D01*
X-49331957Y1000002D01*
X-49331957Y999999D01*
X-49314301Y911236D01*
X-49264019Y835982D01*
X-49226392Y810841D01*
X-49188766Y785700D01*
X-49159178Y779815D01*
X-49100002Y768043D01*
X-49100000Y768043D01*
X-49099998Y768043D01*
X-49055617Y776872D01*
X-49011234Y785700D01*
X-48935982Y835982D01*
X-48885700Y911234D01*
X-48868043Y1000000D01*
X-48868043Y1000002D01*
X-46931957Y1000002D01*
X-46931957Y999999D01*
X-46914301Y911236D01*
X-46864019Y835982D01*
X-46826392Y810841D01*
X-46788766Y785700D01*
X-46759178Y779815D01*
X-46700002Y768043D01*
X-46700000Y768043D01*
X-46699998Y768043D01*
X-46655617Y776872D01*
X-46611234Y785700D01*
X-46535982Y835982D01*
X-46485700Y911234D01*
X-46468043Y1000000D01*
X-46468043Y1000002D01*
X-44531957Y1000002D01*
X-44531957Y999999D01*
X-44514301Y911236D01*
X-44464019Y835982D01*
X-44426392Y810841D01*
X-44388766Y785700D01*
X-44359178Y779815D01*
X-44300002Y768043D01*
X-44300000Y768043D01*
X-44299998Y768043D01*
X-44255617Y776872D01*
X-44211234Y785700D01*
X-44135982Y835982D01*
X-44085700Y911234D01*
X-44068043Y1000000D01*
X-44068043Y1000002D01*
X-42131957Y1000002D01*
X-42131957Y999999D01*
X-42114301Y911236D01*
X-42064019Y835982D01*
X-42026392Y810841D01*
X-41988766Y785700D01*
X-41959178Y779815D01*
X-41900002Y768043D01*
X-41900000Y768043D01*
X-41899998Y768043D01*
X-41855617Y776872D01*
X-41811234Y785700D01*
X-41735982Y835982D01*
X-41685700Y911234D01*
X-41668043Y1000000D01*
X-41668043Y1000002D01*
X-39731957Y1000002D01*
X-39731957Y999999D01*
X-39714301Y911236D01*
X-39664019Y835982D01*
X-39626392Y810841D01*
X-39588766Y785700D01*
X-39559178Y779815D01*
X-39500002Y768043D01*
X-39500000Y768043D01*
X-39499998Y768043D01*
X-39455617Y776872D01*
X-39411234Y785700D01*
X-39335982Y835982D01*
X-39285700Y911234D01*
X-39268043Y1000000D01*
X-39268043Y1000002D01*
X-37331957Y1000002D01*
X-37331957Y999999D01*
X-37314301Y911236D01*
X-37264019Y835982D01*
X-37226392Y810841D01*
X-37188766Y785700D01*
X-37159178Y779815D01*
X-37100002Y768043D01*
X-37100000Y768043D01*
X-37099998Y768043D01*
X-37055617Y776872D01*
X-37011234Y785700D01*
X-36935982Y835982D01*
X-36885700Y911234D01*
X-36868043Y1000000D01*
X-36868043Y1000002D01*
X-34131957Y1000002D01*
X-34131957Y999999D01*
X-34114301Y911236D01*
X-34064019Y835982D01*
X-34026392Y810841D01*
X-33988766Y785700D01*
X-33959178Y779815D01*
X-33900002Y768043D01*
X-33900000Y768043D01*
X-33899998Y768043D01*
X-33855617Y776872D01*
X-33811234Y785700D01*
X-33735982Y835982D01*
X-33685700Y911234D01*
X-33668043Y1000000D01*
X-33668043Y1000002D01*
X-32531957Y1000002D01*
X-32531957Y999999D01*
X-32514301Y911236D01*
X-32464019Y835982D01*
X-32426392Y810841D01*
X-32388766Y785700D01*
X-32359178Y779815D01*
X-32300002Y768043D01*
X-32300000Y768043D01*
X-32299998Y768043D01*
X-32255617Y776872D01*
X-32211234Y785700D01*
X-32135982Y835982D01*
X-32085700Y911234D01*
X-32068043Y1000000D01*
X-32068043Y1000002D01*
X-30131957Y1000002D01*
X-30131957Y999999D01*
X-30114301Y911236D01*
X-30064019Y835982D01*
X-30026392Y810841D01*
X-29988766Y785700D01*
X-29959178Y779815D01*
X-29900002Y768043D01*
X-29900000Y768043D01*
X-29899998Y768043D01*
X-29855617Y776872D01*
X-29811234Y785700D01*
X-29735982Y835982D01*
X-29685700Y911234D01*
X-29668043Y1000000D01*
X-29668043Y1000002D01*
X-27731957Y1000002D01*
X-27731957Y999999D01*
X-27714301Y911236D01*
X-27664019Y835982D01*
X-27626392Y810841D01*
X-27588766Y785700D01*
X-27559178Y779815D01*
X-27500002Y768043D01*
X-27500000Y768043D01*
X-27499998Y768043D01*
X-27455617Y776872D01*
X-27411234Y785700D01*
X-27335982Y835982D01*
X-27285700Y911234D01*
X-27268043Y1000000D01*
X-27268043Y1000002D01*
X-25331957Y1000002D01*
X-25331957Y999999D01*
X-25314301Y911236D01*
X-25264019Y835982D01*
X-25226392Y810841D01*
X-25188766Y785700D01*
X-25159178Y779815D01*
X-25100002Y768043D01*
X-25100000Y768043D01*
X-25099998Y768043D01*
X-25055617Y776872D01*
X-25011234Y785700D01*
X-24935982Y835982D01*
X-24885700Y911234D01*
X-24868043Y1000000D01*
X-24868043Y1000002D01*
X-22931957Y1000002D01*
X-22931957Y999999D01*
X-22914301Y911236D01*
X-22864019Y835982D01*
X-22826392Y810841D01*
X-22788766Y785700D01*
X-22759178Y779815D01*
X-22700002Y768043D01*
X-22700000Y768043D01*
X-22699998Y768043D01*
X-22655617Y776872D01*
X-22611234Y785700D01*
X-22535982Y835982D01*
X-22485700Y911234D01*
X-22468043Y1000000D01*
X-22468043Y1000002D01*
X-20531957Y1000002D01*
X-20531957Y999999D01*
X-20514301Y911236D01*
X-20464019Y835982D01*
X-20426392Y810841D01*
X-20388766Y785700D01*
X-20359178Y779815D01*
X-20300002Y768043D01*
X-20300000Y768043D01*
X-20299998Y768043D01*
X-20255617Y776872D01*
X-20211234Y785700D01*
X-20135982Y835982D01*
X-20085700Y911234D01*
X-20068043Y1000000D01*
X-20068043Y1000002D01*
X-18131957Y1000002D01*
X-18131957Y999999D01*
X-18114301Y911236D01*
X-18064019Y835982D01*
X-18026392Y810841D01*
X-17988766Y785700D01*
X-17959178Y779815D01*
X-17900002Y768043D01*
X-17900000Y768043D01*
X-17899998Y768043D01*
X-17855617Y776872D01*
X-17811234Y785700D01*
X-17735982Y835982D01*
X-17685700Y911234D01*
X-17668043Y1000000D01*
X-17685700Y1088766D01*
X-17710841Y1126392D01*
X-17735982Y1164019D01*
X-17792295Y1201645D01*
X-17811234Y1214300D01*
X-17811235Y1214301D01*
X-17811236Y1214301D01*
X-17899998Y1231957D01*
X-17900002Y1231957D01*
X-17988765Y1214301D01*
X-18064019Y1164019D01*
X-18114301Y1088765D01*
X-18131957Y1000002D01*
X-20068043Y1000002D01*
X-20085700Y1088766D01*
X-20110841Y1126392D01*
X-20135982Y1164019D01*
X-20192295Y1201645D01*
X-20211234Y1214300D01*
X-20211235Y1214301D01*
X-20211236Y1214301D01*
X-20299998Y1231957D01*
X-20300002Y1231957D01*
X-20388765Y1214301D01*
X-20464019Y1164019D01*
X-20514301Y1088765D01*
X-20531957Y1000002D01*
X-22468043Y1000002D01*
X-22485700Y1088766D01*
X-22510841Y1126392D01*
X-22535982Y1164019D01*
X-22592295Y1201645D01*
X-22611234Y1214300D01*
X-22611235Y1214301D01*
X-22611236Y1214301D01*
X-22699998Y1231957D01*
X-22700002Y1231957D01*
X-22788765Y1214301D01*
X-22864019Y1164019D01*
X-22914301Y1088765D01*
X-22931957Y1000002D01*
X-24868043Y1000002D01*
X-24885700Y1088766D01*
X-24910841Y1126392D01*
X-24935982Y1164019D01*
X-24992295Y1201645D01*
X-25011234Y1214300D01*
X-25011235Y1214301D01*
X-25011236Y1214301D01*
X-25099998Y1231957D01*
X-25100002Y1231957D01*
X-25188765Y1214301D01*
X-25264019Y1164019D01*
X-25314301Y1088765D01*
X-25331957Y1000002D01*
X-27268043Y1000002D01*
X-27285700Y1088766D01*
X-27310841Y1126392D01*
X-27335982Y1164019D01*
X-27392295Y1201645D01*
X-27411234Y1214300D01*
X-27411235Y1214301D01*
X-27411236Y1214301D01*
X-27499998Y1231957D01*
X-27500002Y1231957D01*
X-27588765Y1214301D01*
X-27664019Y1164019D01*
X-27714301Y1088765D01*
X-27731957Y1000002D01*
X-29668043Y1000002D01*
X-29685700Y1088766D01*
X-29710841Y1126392D01*
X-29735982Y1164019D01*
X-29792295Y1201645D01*
X-29811234Y1214300D01*
X-29811235Y1214301D01*
X-29811236Y1214301D01*
X-29899998Y1231957D01*
X-29900002Y1231957D01*
X-29988765Y1214301D01*
X-30064019Y1164019D01*
X-30114301Y1088765D01*
X-30131957Y1000002D01*
X-32068043Y1000002D01*
X-32085700Y1088766D01*
X-32110841Y1126392D01*
X-32135982Y1164019D01*
X-32192295Y1201645D01*
X-32211234Y1214300D01*
X-32211235Y1214301D01*
X-32211236Y1214301D01*
X-32299998Y1231957D01*
X-32300002Y1231957D01*
X-32388765Y1214301D01*
X-32464019Y1164019D01*
X-32514301Y1088765D01*
X-32531957Y1000002D01*
X-33668043Y1000002D01*
X-33685700Y1088766D01*
X-33710841Y1126392D01*
X-33735982Y1164019D01*
X-33792295Y1201645D01*
X-33811234Y1214300D01*
X-33811235Y1214301D01*
X-33811236Y1214301D01*
X-33899998Y1231957D01*
X-33900002Y1231957D01*
X-33988765Y1214301D01*
X-34064019Y1164019D01*
X-34114301Y1088765D01*
X-34131957Y1000002D01*
X-36868043Y1000002D01*
X-36885700Y1088766D01*
X-36910841Y1126392D01*
X-36935982Y1164019D01*
X-36992295Y1201645D01*
X-37011234Y1214300D01*
X-37011235Y1214301D01*
X-37011236Y1214301D01*
X-37099998Y1231957D01*
X-37100002Y1231957D01*
X-37188765Y1214301D01*
X-37264019Y1164019D01*
X-37314301Y1088765D01*
X-37331957Y1000002D01*
X-39268043Y1000002D01*
X-39285700Y1088766D01*
X-39310841Y1126392D01*
X-39335982Y1164019D01*
X-39392295Y1201645D01*
X-39411234Y1214300D01*
X-39411235Y1214301D01*
X-39411236Y1214301D01*
X-39499998Y1231957D01*
X-39500002Y1231957D01*
X-39588765Y1214301D01*
X-39664019Y1164019D01*
X-39714301Y1088765D01*
X-39731957Y1000002D01*
X-41668043Y1000002D01*
X-41685700Y1088766D01*
X-41710841Y1126392D01*
X-41735982Y1164019D01*
X-41792295Y1201645D01*
X-41811234Y1214300D01*
X-41811235Y1214301D01*
X-41811236Y1214301D01*
X-41899998Y1231957D01*
X-41900002Y1231957D01*
X-41988765Y1214301D01*
X-42064019Y1164019D01*
X-42114301Y1088765D01*
X-42131957Y1000002D01*
X-44068043Y1000002D01*
X-44085700Y1088766D01*
X-44110841Y1126392D01*
X-44135982Y1164019D01*
X-44192295Y1201645D01*
X-44211234Y1214300D01*
X-44211235Y1214301D01*
X-44211236Y1214301D01*
X-44299998Y1231957D01*
X-44300002Y1231957D01*
X-44388765Y1214301D01*
X-44464019Y1164019D01*
X-44514301Y1088765D01*
X-44531957Y1000002D01*
X-46468043Y1000002D01*
X-46485700Y1088766D01*
X-46510841Y1126392D01*
X-46535982Y1164019D01*
X-46592295Y1201645D01*
X-46611234Y1214300D01*
X-46611235Y1214301D01*
X-46611236Y1214301D01*
X-46699998Y1231957D01*
X-46700002Y1231957D01*
X-46788765Y1214301D01*
X-46864019Y1164019D01*
X-46914301Y1088765D01*
X-46931957Y1000002D01*
X-48868043Y1000002D01*
X-48885700Y1088766D01*
X-48910841Y1126392D01*
X-48935982Y1164019D01*
X-48992295Y1201645D01*
X-49011234Y1214300D01*
X-49011235Y1214301D01*
X-49011236Y1214301D01*
X-49099998Y1231957D01*
X-49100002Y1231957D01*
X-49188765Y1214301D01*
X-49264019Y1164019D01*
X-49314301Y1088765D01*
X-49331957Y1000002D01*
X-51268043Y1000002D01*
X-51285700Y1088766D01*
X-51310841Y1126392D01*
X-51335982Y1164019D01*
X-51392295Y1201645D01*
X-51411234Y1214300D01*
X-51411235Y1214301D01*
X-51411236Y1214301D01*
X-51499998Y1231957D01*
X-51500002Y1231957D01*
X-51588765Y1214301D01*
X-51664019Y1164019D01*
X-51714301Y1088765D01*
X-51731957Y1000002D01*
X-53668043Y1000002D01*
X-53685700Y1088766D01*
X-53710841Y1126392D01*
X-53735982Y1164019D01*
X-53792295Y1201645D01*
X-53811234Y1214300D01*
X-53811235Y1214301D01*
X-53811236Y1214301D01*
X-53899998Y1231957D01*
X-53900002Y1231957D01*
X-53988765Y1214301D01*
X-54064019Y1164019D01*
X-54114301Y1088765D01*
X-54131957Y1000002D01*
X-54468043Y1000002D01*
X-54485700Y1088766D01*
X-54510841Y1126392D01*
X-54535982Y1164019D01*
X-54592295Y1201645D01*
X-54611234Y1214300D01*
X-54611235Y1214301D01*
X-54611236Y1214301D01*
X-54699998Y1231957D01*
X-54700002Y1231957D01*
X-54788765Y1214301D01*
X-54864019Y1164019D01*
X-54914301Y1088765D01*
X-54931957Y1000002D01*
X-55867500Y1000002D01*
X-55867500Y1800002D01*
X-54931957Y1800002D01*
X-54931957Y1799999D01*
X-54914301Y1711236D01*
X-54914301Y1711235D01*
X-54914300Y1711234D01*
X-54912352Y1708319D01*
X-54864019Y1635982D01*
X-54845501Y1623609D01*
X-54788766Y1585700D01*
X-54759178Y1579815D01*
X-54700002Y1568043D01*
X-54700000Y1568043D01*
X-54699998Y1568043D01*
X-54655617Y1576872D01*
X-54611234Y1585700D01*
X-54535982Y1635982D01*
X-54485700Y1711234D01*
X-54468043Y1800000D01*
X-54468043Y1800002D01*
X-54131957Y1800002D01*
X-54131957Y1799999D01*
X-54114301Y1711236D01*
X-54114301Y1711235D01*
X-54114300Y1711234D01*
X-54112352Y1708319D01*
X-54064019Y1635982D01*
X-54045501Y1623609D01*
X-53988766Y1585700D01*
X-53959178Y1579815D01*
X-53900002Y1568043D01*
X-53900000Y1568043D01*
X-53899998Y1568043D01*
X-53855617Y1576872D01*
X-53811234Y1585700D01*
X-53735982Y1635982D01*
X-53685700Y1711234D01*
X-53668043Y1800000D01*
X-53668043Y1800002D01*
X-51731957Y1800002D01*
X-51731957Y1799999D01*
X-51714301Y1711236D01*
X-51714301Y1711235D01*
X-51714300Y1711234D01*
X-51712352Y1708319D01*
X-51664019Y1635982D01*
X-51645501Y1623609D01*
X-51588766Y1585700D01*
X-51559178Y1579815D01*
X-51500002Y1568043D01*
X-51500000Y1568043D01*
X-51499998Y1568043D01*
X-51455617Y1576872D01*
X-51411234Y1585700D01*
X-51335982Y1635982D01*
X-51285700Y1711234D01*
X-51268043Y1800000D01*
X-51268043Y1800002D01*
X-49331957Y1800002D01*
X-49331957Y1799999D01*
X-49314301Y1711236D01*
X-49314301Y1711235D01*
X-49314300Y1711234D01*
X-49312352Y1708319D01*
X-49264019Y1635982D01*
X-49245501Y1623609D01*
X-49188766Y1585700D01*
X-49159178Y1579815D01*
X-49100002Y1568043D01*
X-49100000Y1568043D01*
X-49099998Y1568043D01*
X-49055617Y1576872D01*
X-49011234Y1585700D01*
X-48935982Y1635982D01*
X-48885700Y1711234D01*
X-48868043Y1800000D01*
X-48868043Y1800002D01*
X-46931957Y1800002D01*
X-46931957Y1799999D01*
X-46914301Y1711236D01*
X-46914301Y1711235D01*
X-46914300Y1711234D01*
X-46912352Y1708319D01*
X-46864019Y1635982D01*
X-46845501Y1623609D01*
X-46788766Y1585700D01*
X-46759178Y1579815D01*
X-46700002Y1568043D01*
X-46700000Y1568043D01*
X-46699998Y1568043D01*
X-46655617Y1576872D01*
X-46611234Y1585700D01*
X-46535982Y1635982D01*
X-46485700Y1711234D01*
X-46468043Y1800000D01*
X-46468043Y1800002D01*
X-44531957Y1800002D01*
X-44531957Y1799999D01*
X-44514301Y1711236D01*
X-44514301Y1711235D01*
X-44514300Y1711234D01*
X-44512352Y1708319D01*
X-44464019Y1635982D01*
X-44445501Y1623609D01*
X-44388766Y1585700D01*
X-44359178Y1579815D01*
X-44300002Y1568043D01*
X-44300000Y1568043D01*
X-44299998Y1568043D01*
X-44255617Y1576872D01*
X-44211234Y1585700D01*
X-44135982Y1635982D01*
X-44085700Y1711234D01*
X-44068043Y1800000D01*
X-44068043Y1800002D01*
X-42131957Y1800002D01*
X-42131957Y1799999D01*
X-42114301Y1711236D01*
X-42114301Y1711235D01*
X-42114300Y1711234D01*
X-42112352Y1708319D01*
X-42064019Y1635982D01*
X-42045501Y1623609D01*
X-41988766Y1585700D01*
X-41959178Y1579815D01*
X-41900002Y1568043D01*
X-41900000Y1568043D01*
X-41899998Y1568043D01*
X-41855617Y1576872D01*
X-41811234Y1585700D01*
X-41735982Y1635982D01*
X-41685700Y1711234D01*
X-41668043Y1800000D01*
X-41668043Y1800002D01*
X-39731957Y1800002D01*
X-39731957Y1799999D01*
X-39714301Y1711236D01*
X-39714301Y1711235D01*
X-39714300Y1711234D01*
X-39712352Y1708319D01*
X-39664019Y1635982D01*
X-39645501Y1623609D01*
X-39588766Y1585700D01*
X-39559178Y1579815D01*
X-39500002Y1568043D01*
X-39500000Y1568043D01*
X-39499998Y1568043D01*
X-39455617Y1576872D01*
X-39411234Y1585700D01*
X-39335982Y1635982D01*
X-39285700Y1711234D01*
X-39268043Y1800000D01*
X-39268043Y1800002D01*
X-37331957Y1800002D01*
X-37331957Y1799999D01*
X-37314301Y1711236D01*
X-37314301Y1711235D01*
X-37314300Y1711234D01*
X-37312352Y1708319D01*
X-37264019Y1635982D01*
X-37245501Y1623609D01*
X-37188766Y1585700D01*
X-37159178Y1579815D01*
X-37100002Y1568043D01*
X-37100000Y1568043D01*
X-37099998Y1568043D01*
X-37055617Y1576872D01*
X-37011234Y1585700D01*
X-36935982Y1635982D01*
X-36885700Y1711234D01*
X-36868043Y1800000D01*
X-36868043Y1800002D01*
X-34131957Y1800002D01*
X-34131957Y1799999D01*
X-34114301Y1711236D01*
X-34114301Y1711235D01*
X-34114300Y1711234D01*
X-34112352Y1708319D01*
X-34064019Y1635982D01*
X-34045501Y1623609D01*
X-33988766Y1585700D01*
X-33959178Y1579815D01*
X-33900002Y1568043D01*
X-33900000Y1568043D01*
X-33899998Y1568043D01*
X-33855617Y1576872D01*
X-33811234Y1585700D01*
X-33735982Y1635982D01*
X-33685700Y1711234D01*
X-33668043Y1800000D01*
X-33668043Y1800002D01*
X-32531957Y1800002D01*
X-32531957Y1799999D01*
X-32514301Y1711236D01*
X-32514301Y1711235D01*
X-32514300Y1711234D01*
X-32512352Y1708319D01*
X-32464019Y1635982D01*
X-32445501Y1623609D01*
X-32388766Y1585700D01*
X-32359178Y1579815D01*
X-32300002Y1568043D01*
X-32300000Y1568043D01*
X-32299998Y1568043D01*
X-32255617Y1576872D01*
X-32211234Y1585700D01*
X-32135982Y1635982D01*
X-32085700Y1711234D01*
X-32068043Y1800000D01*
X-32068043Y1800002D01*
X-30131957Y1800002D01*
X-30131957Y1799999D01*
X-30114301Y1711236D01*
X-30114301Y1711235D01*
X-30114300Y1711234D01*
X-30112352Y1708319D01*
X-30064019Y1635982D01*
X-30045501Y1623609D01*
X-29988766Y1585700D01*
X-29959178Y1579815D01*
X-29900002Y1568043D01*
X-29900000Y1568043D01*
X-29899998Y1568043D01*
X-29855617Y1576872D01*
X-29811234Y1585700D01*
X-29735982Y1635982D01*
X-29685700Y1711234D01*
X-29668043Y1800000D01*
X-29668043Y1800002D01*
X-27731957Y1800002D01*
X-27731957Y1799999D01*
X-27714301Y1711236D01*
X-27714301Y1711235D01*
X-27714300Y1711234D01*
X-27712352Y1708319D01*
X-27664019Y1635982D01*
X-27645501Y1623609D01*
X-27588766Y1585700D01*
X-27559178Y1579815D01*
X-27500002Y1568043D01*
X-27500000Y1568043D01*
X-27499998Y1568043D01*
X-27455617Y1576872D01*
X-27411234Y1585700D01*
X-27335982Y1635982D01*
X-27285700Y1711234D01*
X-27268043Y1800000D01*
X-27268043Y1800002D01*
X-25331957Y1800002D01*
X-25331957Y1799999D01*
X-25314301Y1711236D01*
X-25314301Y1711235D01*
X-25314300Y1711234D01*
X-25312352Y1708319D01*
X-25264019Y1635982D01*
X-25245501Y1623609D01*
X-25188766Y1585700D01*
X-25159178Y1579815D01*
X-25100002Y1568043D01*
X-25100000Y1568043D01*
X-25099998Y1568043D01*
X-25055617Y1576872D01*
X-25011234Y1585700D01*
X-24935982Y1635982D01*
X-24885700Y1711234D01*
X-24868043Y1800000D01*
X-24868043Y1800002D01*
X-22931957Y1800002D01*
X-22931957Y1799999D01*
X-22914301Y1711236D01*
X-22914301Y1711235D01*
X-22914300Y1711234D01*
X-22912352Y1708319D01*
X-22864019Y1635982D01*
X-22845501Y1623609D01*
X-22788766Y1585700D01*
X-22759178Y1579815D01*
X-22700002Y1568043D01*
X-22700000Y1568043D01*
X-22699998Y1568043D01*
X-22655617Y1576872D01*
X-22611234Y1585700D01*
X-22535982Y1635982D01*
X-22485700Y1711234D01*
X-22468043Y1800000D01*
X-22468043Y1800002D01*
X-20531957Y1800002D01*
X-20531957Y1799999D01*
X-20514301Y1711236D01*
X-20514301Y1711235D01*
X-20514300Y1711234D01*
X-20512352Y1708319D01*
X-20464019Y1635982D01*
X-20445501Y1623609D01*
X-20388766Y1585700D01*
X-20359178Y1579815D01*
X-20300002Y1568043D01*
X-20300000Y1568043D01*
X-20299998Y1568043D01*
X-20255617Y1576872D01*
X-20211234Y1585700D01*
X-20135982Y1635982D01*
X-20085700Y1711234D01*
X-20068043Y1800000D01*
X-20068043Y1800002D01*
X-18131957Y1800002D01*
X-18131957Y1799999D01*
X-18114301Y1711236D01*
X-18114301Y1711235D01*
X-18114300Y1711234D01*
X-18112352Y1708319D01*
X-18064019Y1635982D01*
X-18045501Y1623609D01*
X-17988766Y1585700D01*
X-17959178Y1579815D01*
X-17900002Y1568043D01*
X-17900000Y1568043D01*
X-17899998Y1568043D01*
X-17855617Y1576872D01*
X-17811234Y1585700D01*
X-17735982Y1635982D01*
X-17685700Y1711234D01*
X-17668043Y1800000D01*
X-17685700Y1888766D01*
X-17729177Y1953834D01*
X-17735982Y1964019D01*
X-17792295Y2001645D01*
X-17811234Y2014300D01*
X-17811235Y2014301D01*
X-17811236Y2014301D01*
X-17899998Y2031957D01*
X-17900002Y2031957D01*
X-17988765Y2014301D01*
X-18064019Y1964019D01*
X-18114301Y1888765D01*
X-18131957Y1800002D01*
X-20068043Y1800002D01*
X-20085700Y1888766D01*
X-20129177Y1953834D01*
X-20135982Y1964019D01*
X-20192295Y2001645D01*
X-20211234Y2014300D01*
X-20211235Y2014301D01*
X-20211236Y2014301D01*
X-20299998Y2031957D01*
X-20300002Y2031957D01*
X-20388765Y2014301D01*
X-20464019Y1964019D01*
X-20514301Y1888765D01*
X-20531957Y1800002D01*
X-22468043Y1800002D01*
X-22485700Y1888766D01*
X-22529177Y1953834D01*
X-22535982Y1964019D01*
X-22592295Y2001645D01*
X-22611234Y2014300D01*
X-22611235Y2014301D01*
X-22611236Y2014301D01*
X-22699998Y2031957D01*
X-22700002Y2031957D01*
X-22788765Y2014301D01*
X-22864019Y1964019D01*
X-22914301Y1888765D01*
X-22931957Y1800002D01*
X-24868043Y1800002D01*
X-24885700Y1888766D01*
X-24929177Y1953834D01*
X-24935982Y1964019D01*
X-24992295Y2001645D01*
X-25011234Y2014300D01*
X-25011235Y2014301D01*
X-25011236Y2014301D01*
X-25099998Y2031957D01*
X-25100002Y2031957D01*
X-25188765Y2014301D01*
X-25264019Y1964019D01*
X-25314301Y1888765D01*
X-25331957Y1800002D01*
X-27268043Y1800002D01*
X-27285700Y1888766D01*
X-27329177Y1953834D01*
X-27335982Y1964019D01*
X-27392295Y2001645D01*
X-27411234Y2014300D01*
X-27411235Y2014301D01*
X-27411236Y2014301D01*
X-27499998Y2031957D01*
X-27500002Y2031957D01*
X-27588765Y2014301D01*
X-27664019Y1964019D01*
X-27714301Y1888765D01*
X-27731957Y1800002D01*
X-29668043Y1800002D01*
X-29685700Y1888766D01*
X-29729177Y1953834D01*
X-29735982Y1964019D01*
X-29792295Y2001645D01*
X-29811234Y2014300D01*
X-29811235Y2014301D01*
X-29811236Y2014301D01*
X-29899998Y2031957D01*
X-29900002Y2031957D01*
X-29988765Y2014301D01*
X-30064019Y1964019D01*
X-30114301Y1888765D01*
X-30131957Y1800002D01*
X-32068043Y1800002D01*
X-32085700Y1888766D01*
X-32129177Y1953834D01*
X-32135982Y1964019D01*
X-32192295Y2001645D01*
X-32211234Y2014300D01*
X-32211235Y2014301D01*
X-32211236Y2014301D01*
X-32299998Y2031957D01*
X-32300002Y2031957D01*
X-32388765Y2014301D01*
X-32464019Y1964019D01*
X-32514301Y1888765D01*
X-32531957Y1800002D01*
X-33668043Y1800002D01*
X-33685700Y1888766D01*
X-33729177Y1953834D01*
X-33735982Y1964019D01*
X-33792295Y2001645D01*
X-33811234Y2014300D01*
X-33811235Y2014301D01*
X-33811236Y2014301D01*
X-33899998Y2031957D01*
X-33900002Y2031957D01*
X-33988765Y2014301D01*
X-34064019Y1964019D01*
X-34114301Y1888765D01*
X-34131957Y1800002D01*
X-36868043Y1800002D01*
X-36885700Y1888766D01*
X-36929177Y1953834D01*
X-36935982Y1964019D01*
X-36992295Y2001645D01*
X-37011234Y2014300D01*
X-37011235Y2014301D01*
X-37011236Y2014301D01*
X-37099998Y2031957D01*
X-37100002Y2031957D01*
X-37188765Y2014301D01*
X-37264019Y1964019D01*
X-37314301Y1888765D01*
X-37331957Y1800002D01*
X-39268043Y1800002D01*
X-39285700Y1888766D01*
X-39329177Y1953834D01*
X-39335982Y1964019D01*
X-39392295Y2001645D01*
X-39411234Y2014300D01*
X-39411235Y2014301D01*
X-39411236Y2014301D01*
X-39499998Y2031957D01*
X-39500002Y2031957D01*
X-39588765Y2014301D01*
X-39664019Y1964019D01*
X-39714301Y1888765D01*
X-39731957Y1800002D01*
X-41668043Y1800002D01*
X-41685700Y1888766D01*
X-41729177Y1953834D01*
X-41735982Y1964019D01*
X-41792295Y2001645D01*
X-41811234Y2014300D01*
X-41811235Y2014301D01*
X-41811236Y2014301D01*
X-41899998Y2031957D01*
X-41900002Y2031957D01*
X-41988765Y2014301D01*
X-42064019Y1964019D01*
X-42114301Y1888765D01*
X-42131957Y1800002D01*
X-44068043Y1800002D01*
X-44085700Y1888766D01*
X-44129177Y1953834D01*
X-44135982Y1964019D01*
X-44192295Y2001645D01*
X-44211234Y2014300D01*
X-44211235Y2014301D01*
X-44211236Y2014301D01*
X-44299998Y2031957D01*
X-44300002Y2031957D01*
X-44388765Y2014301D01*
X-44464019Y1964019D01*
X-44514301Y1888765D01*
X-44531957Y1800002D01*
X-46468043Y1800002D01*
X-46485700Y1888766D01*
X-46529177Y1953834D01*
X-46535982Y1964019D01*
X-46592295Y2001645D01*
X-46611234Y2014300D01*
X-46611235Y2014301D01*
X-46611236Y2014301D01*
X-46699998Y2031957D01*
X-46700002Y2031957D01*
X-46788765Y2014301D01*
X-46864019Y1964019D01*
X-46914301Y1888765D01*
X-46931957Y1800002D01*
X-48868043Y1800002D01*
X-48885700Y1888766D01*
X-48929177Y1953834D01*
X-48935982Y1964019D01*
X-48992295Y2001645D01*
X-49011234Y2014300D01*
X-49011235Y2014301D01*
X-49011236Y2014301D01*
X-49099998Y2031957D01*
X-49100002Y2031957D01*
X-49188765Y2014301D01*
X-49264019Y1964019D01*
X-49314301Y1888765D01*
X-49331957Y1800002D01*
X-51268043Y1800002D01*
X-51285700Y1888766D01*
X-51329177Y1953834D01*
X-51335982Y1964019D01*
X-51392295Y2001645D01*
X-51411234Y2014300D01*
X-51411235Y2014301D01*
X-51411236Y2014301D01*
X-51499998Y2031957D01*
X-51500002Y2031957D01*
X-51588765Y2014301D01*
X-51664019Y1964019D01*
X-51714301Y1888765D01*
X-51731957Y1800002D01*
X-53668043Y1800002D01*
X-53685700Y1888766D01*
X-53729177Y1953834D01*
X-53735982Y1964019D01*
X-53792295Y2001645D01*
X-53811234Y2014300D01*
X-53811235Y2014301D01*
X-53811236Y2014301D01*
X-53899998Y2031957D01*
X-53900002Y2031957D01*
X-53988765Y2014301D01*
X-54064019Y1964019D01*
X-54114301Y1888765D01*
X-54131957Y1800002D01*
X-54468043Y1800002D01*
X-54485700Y1888766D01*
X-54529177Y1953834D01*
X-54535982Y1964019D01*
X-54592295Y2001645D01*
X-54611234Y2014300D01*
X-54611235Y2014301D01*
X-54611236Y2014301D01*
X-54699998Y2031957D01*
X-54700002Y2031957D01*
X-54788765Y2014301D01*
X-54864019Y1964019D01*
X-54914301Y1888765D01*
X-54931957Y1800002D01*
X-55867500Y1800002D01*
X-55867500Y2600002D01*
X-54931957Y2600002D01*
X-54931957Y2599999D01*
X-54914301Y2511236D01*
X-54864019Y2435982D01*
X-54826392Y2410841D01*
X-54788766Y2385700D01*
X-54759178Y2379815D01*
X-54700002Y2368043D01*
X-54700000Y2368043D01*
X-54699998Y2368043D01*
X-54655617Y2376872D01*
X-54611234Y2385700D01*
X-54535982Y2435982D01*
X-54485700Y2511234D01*
X-54468043Y2600000D01*
X-54468196Y2600767D01*
X-54485700Y2688765D01*
X-54485700Y2688766D01*
X-54516526Y2734900D01*
X-54535982Y2764019D01*
X-54604745Y2809964D01*
X-54611234Y2814300D01*
X-54611235Y2814301D01*
X-54611236Y2814301D01*
X-54699998Y2831957D01*
X-54700002Y2831957D01*
X-54788765Y2814301D01*
X-54864019Y2764019D01*
X-54914301Y2688765D01*
X-54931957Y2600002D01*
X-55867500Y2600002D01*
X-55867500Y2712334D01*
X-55868139Y2725327D01*
X-55869081Y2734887D01*
X-55870988Y2747745D01*
X-55883369Y2809985D01*
X-55890908Y2834838D01*
X-55890909Y2834842D01*
X-55898221Y2852495D01*
X-55910468Y2875407D01*
X-55923424Y2894797D01*
X-55945729Y2928180D01*
X-55953478Y2938629D01*
X-55959572Y2946054D01*
X-55968301Y2955685D01*
X-56212616Y3200000D01*
X-54256894Y3200000D01*
X-54239426Y3089714D01*
X-54188733Y2990223D01*
X-54109777Y2911267D01*
X-54033275Y2872288D01*
X-54008919Y2843772D01*
X-54011861Y2806384D01*
X-54028297Y2787888D01*
X-54064018Y2764020D01*
X-54114301Y2688765D01*
X-54131957Y2600002D01*
X-54131957Y2599999D01*
X-54114301Y2511236D01*
X-54064019Y2435982D01*
X-54026392Y2410841D01*
X-53988766Y2385700D01*
X-53959178Y2379815D01*
X-53900002Y2368043D01*
X-53900000Y2368043D01*
X-53899998Y2368043D01*
X-53855617Y2376872D01*
X-53811234Y2385700D01*
X-53735982Y2435982D01*
X-53685700Y2511234D01*
X-53668043Y2600000D01*
X-53668196Y2600767D01*
X-53685700Y2688765D01*
X-53685700Y2688766D01*
X-53716526Y2734900D01*
X-53735982Y2764019D01*
X-53771703Y2787887D01*
X-53792539Y2819070D01*
X-53785222Y2855852D01*
X-53766730Y2872286D01*
X-53690223Y2911267D01*
X-53611267Y2990223D01*
X-53560574Y3089714D01*
X-53543106Y3200000D01*
X-51856894Y3200000D01*
X-51839426Y3089714D01*
X-51788733Y2990223D01*
X-51709777Y2911267D01*
X-51633275Y2872288D01*
X-51608919Y2843772D01*
X-51611861Y2806384D01*
X-51628297Y2787888D01*
X-51664018Y2764020D01*
X-51714301Y2688765D01*
X-51731957Y2600002D01*
X-51731957Y2599999D01*
X-51714301Y2511236D01*
X-51664019Y2435982D01*
X-51626392Y2410841D01*
X-51588766Y2385700D01*
X-51559178Y2379815D01*
X-51500002Y2368043D01*
X-51500000Y2368043D01*
X-51499998Y2368043D01*
X-51455617Y2376872D01*
X-51411234Y2385700D01*
X-51335982Y2435982D01*
X-51285700Y2511234D01*
X-51268043Y2600000D01*
X-51268196Y2600767D01*
X-51285700Y2688765D01*
X-51285700Y2688766D01*
X-51316526Y2734900D01*
X-51335982Y2764019D01*
X-51371703Y2787887D01*
X-51392539Y2819070D01*
X-51385222Y2855852D01*
X-51366730Y2872286D01*
X-51290223Y2911267D01*
X-51211267Y2990223D01*
X-51160574Y3089714D01*
X-51143106Y3200000D01*
X-49456894Y3200000D01*
X-49439426Y3089714D01*
X-49388733Y2990223D01*
X-49309777Y2911267D01*
X-49233275Y2872288D01*
X-49208919Y2843772D01*
X-49211861Y2806384D01*
X-49228297Y2787888D01*
X-49264018Y2764020D01*
X-49314301Y2688765D01*
X-49331957Y2600002D01*
X-49331957Y2599999D01*
X-49314301Y2511236D01*
X-49264019Y2435982D01*
X-49226392Y2410841D01*
X-49188766Y2385700D01*
X-49159178Y2379815D01*
X-49100002Y2368043D01*
X-49100000Y2368043D01*
X-49099998Y2368043D01*
X-49055617Y2376872D01*
X-49011234Y2385700D01*
X-48935982Y2435982D01*
X-48885700Y2511234D01*
X-48868043Y2600000D01*
X-48868196Y2600767D01*
X-48885700Y2688765D01*
X-48885700Y2688766D01*
X-48916526Y2734900D01*
X-48935982Y2764019D01*
X-48971703Y2787887D01*
X-48992539Y2819070D01*
X-48985222Y2855852D01*
X-48966730Y2872286D01*
X-48890223Y2911267D01*
X-48811267Y2990223D01*
X-48760574Y3089714D01*
X-48743106Y3200000D01*
X-47856894Y3200000D01*
X-47839426Y3089714D01*
X-47788733Y2990223D01*
X-47709777Y2911267D01*
X-47610286Y2860574D01*
X-47500000Y2843106D01*
X-47389714Y2860574D01*
X-47290223Y2911267D01*
X-47211267Y2990223D01*
X-47160574Y3089714D01*
X-47148397Y3166601D01*
X-47128801Y3198575D01*
X-47125186Y3199443D01*
X-47079463Y3199443D01*
X-47060358Y3187734D01*
X-47051605Y3166602D01*
X-47039426Y3089714D01*
X-46988733Y2990223D01*
X-46909777Y2911267D01*
X-46833275Y2872288D01*
X-46808919Y2843772D01*
X-46811861Y2806384D01*
X-46828297Y2787888D01*
X-46864018Y2764020D01*
X-46914301Y2688765D01*
X-46931957Y2600002D01*
X-46931957Y2599999D01*
X-46914301Y2511236D01*
X-46864019Y2435982D01*
X-46826392Y2410841D01*
X-46788766Y2385700D01*
X-46759178Y2379815D01*
X-46700002Y2368043D01*
X-46700000Y2368043D01*
X-46699998Y2368043D01*
X-46655617Y2376872D01*
X-46611234Y2385700D01*
X-46535982Y2435982D01*
X-46485700Y2511234D01*
X-46468043Y2600000D01*
X-46468196Y2600767D01*
X-46485700Y2688765D01*
X-46485700Y2688766D01*
X-46516526Y2734900D01*
X-46535982Y2764019D01*
X-46571703Y2787887D01*
X-46592539Y2819070D01*
X-46585222Y2855852D01*
X-46566730Y2872286D01*
X-46490223Y2911267D01*
X-46411267Y2990223D01*
X-46360574Y3089714D01*
X-46348397Y3166601D01*
X-46328801Y3198575D01*
X-46325186Y3199443D01*
X-46279463Y3199443D01*
X-46260358Y3187734D01*
X-46251605Y3166602D01*
X-46239426Y3089714D01*
X-46188733Y2990223D01*
X-46109777Y2911267D01*
X-46010286Y2860574D01*
X-45900000Y2843106D01*
X-45789714Y2860574D01*
X-45690223Y2911267D01*
X-45611267Y2990223D01*
X-45560574Y3089714D01*
X-45548397Y3166601D01*
X-45528801Y3198575D01*
X-45525186Y3199443D01*
X-45479463Y3199443D01*
X-45460358Y3187734D01*
X-45451605Y3166602D01*
X-45439426Y3089714D01*
X-45388733Y2990223D01*
X-45309777Y2911267D01*
X-45210286Y2860574D01*
X-45100000Y2843106D01*
X-44989714Y2860574D01*
X-44890223Y2911267D01*
X-44811267Y2990223D01*
X-44760574Y3089714D01*
X-44748397Y3166601D01*
X-44728801Y3198575D01*
X-44725186Y3199443D01*
X-44679463Y3199443D01*
X-44660358Y3187734D01*
X-44651605Y3166602D01*
X-44639426Y3089714D01*
X-44588733Y2990223D01*
X-44509777Y2911267D01*
X-44433275Y2872288D01*
X-44408919Y2843772D01*
X-44411861Y2806384D01*
X-44428297Y2787888D01*
X-44464018Y2764020D01*
X-44514301Y2688765D01*
X-44531957Y2600002D01*
X-44531957Y2599999D01*
X-44514301Y2511236D01*
X-44464019Y2435982D01*
X-44426392Y2410841D01*
X-44388766Y2385700D01*
X-44359178Y2379815D01*
X-44300002Y2368043D01*
X-44300000Y2368043D01*
X-44299998Y2368043D01*
X-44255617Y2376872D01*
X-44211234Y2385700D01*
X-44135982Y2435982D01*
X-44085700Y2511234D01*
X-44068043Y2600000D01*
X-44068196Y2600767D01*
X-44085700Y2688765D01*
X-44085700Y2688766D01*
X-44116526Y2734900D01*
X-44135982Y2764019D01*
X-44171703Y2787887D01*
X-44192539Y2819070D01*
X-44185222Y2855852D01*
X-44166730Y2872286D01*
X-44090223Y2911267D01*
X-44011267Y2990223D01*
X-43960574Y3089714D01*
X-43948397Y3166601D01*
X-43928801Y3198575D01*
X-43925186Y3199443D01*
X-43879463Y3199443D01*
X-43860358Y3187734D01*
X-43851605Y3166602D01*
X-43839426Y3089714D01*
X-43788733Y2990223D01*
X-43709777Y2911267D01*
X-43610286Y2860574D01*
X-43500000Y2843106D01*
X-43389714Y2860574D01*
X-43290223Y2911267D01*
X-43211267Y2990223D01*
X-43160574Y3089714D01*
X-43148397Y3166601D01*
X-43128801Y3198575D01*
X-43125186Y3199443D01*
X-43079463Y3199443D01*
X-43060358Y3187734D01*
X-43051605Y3166602D01*
X-43039426Y3089714D01*
X-42988733Y2990223D01*
X-42909777Y2911267D01*
X-42810286Y2860574D01*
X-42700000Y2843106D01*
X-42589714Y2860574D01*
X-42490223Y2911267D01*
X-42411267Y2990223D01*
X-42360574Y3089714D01*
X-42348397Y3166601D01*
X-42328801Y3198575D01*
X-42325186Y3199443D01*
X-42279463Y3199443D01*
X-42260358Y3187734D01*
X-42251605Y3166602D01*
X-42239426Y3089714D01*
X-42188733Y2990223D01*
X-42109777Y2911267D01*
X-42033275Y2872288D01*
X-42008919Y2843772D01*
X-42011861Y2806384D01*
X-42028297Y2787888D01*
X-42064018Y2764020D01*
X-42114301Y2688765D01*
X-42131957Y2600002D01*
X-42131957Y2599999D01*
X-42114301Y2511236D01*
X-42064019Y2435982D01*
X-42026392Y2410841D01*
X-41988766Y2385700D01*
X-41959178Y2379815D01*
X-41900002Y2368043D01*
X-41900000Y2368043D01*
X-41899998Y2368043D01*
X-41855617Y2376872D01*
X-41811234Y2385700D01*
X-41735982Y2435982D01*
X-41685700Y2511234D01*
X-41668043Y2600000D01*
X-41668196Y2600767D01*
X-41685700Y2688765D01*
X-41685700Y2688766D01*
X-41716526Y2734900D01*
X-41735982Y2764019D01*
X-41771703Y2787887D01*
X-41792539Y2819070D01*
X-41785222Y2855852D01*
X-41766730Y2872286D01*
X-41690223Y2911267D01*
X-41611267Y2990223D01*
X-41560574Y3089714D01*
X-41548397Y3166601D01*
X-41528801Y3198575D01*
X-41525186Y3199443D01*
X-41479463Y3199443D01*
X-41460358Y3187734D01*
X-41451605Y3166602D01*
X-41439426Y3089714D01*
X-41388733Y2990223D01*
X-41309777Y2911267D01*
X-41210286Y2860574D01*
X-41100000Y2843106D01*
X-40989714Y2860574D01*
X-40890223Y2911267D01*
X-40811267Y2990223D01*
X-40760574Y3089714D01*
X-40748397Y3166601D01*
X-40728801Y3198575D01*
X-40725186Y3199443D01*
X-40679463Y3199443D01*
X-40660358Y3187734D01*
X-40651605Y3166602D01*
X-40639426Y3089714D01*
X-40588733Y2990223D01*
X-40509777Y2911267D01*
X-40410286Y2860574D01*
X-40300000Y2843106D01*
X-40189714Y2860574D01*
X-40090223Y2911267D01*
X-40011267Y2990223D01*
X-39960574Y3089714D01*
X-39948397Y3166601D01*
X-39928801Y3198575D01*
X-39925186Y3199443D01*
X-39879463Y3199443D01*
X-39860358Y3187734D01*
X-39851605Y3166602D01*
X-39839426Y3089714D01*
X-39788733Y2990223D01*
X-39709777Y2911267D01*
X-39633275Y2872288D01*
X-39608919Y2843772D01*
X-39611861Y2806384D01*
X-39628297Y2787888D01*
X-39664018Y2764020D01*
X-39714301Y2688765D01*
X-39731957Y2600002D01*
X-39731957Y2599999D01*
X-39714301Y2511236D01*
X-39664019Y2435982D01*
X-39626392Y2410841D01*
X-39588766Y2385700D01*
X-39559178Y2379815D01*
X-39500002Y2368043D01*
X-39500000Y2368043D01*
X-39499998Y2368043D01*
X-39455617Y2376872D01*
X-39411234Y2385700D01*
X-39335982Y2435982D01*
X-39285700Y2511234D01*
X-39268043Y2600000D01*
X-39268196Y2600767D01*
X-39285700Y2688765D01*
X-39285700Y2688766D01*
X-39316526Y2734900D01*
X-39335982Y2764019D01*
X-39371703Y2787887D01*
X-39392539Y2819070D01*
X-39385222Y2855852D01*
X-39366730Y2872286D01*
X-39290223Y2911267D01*
X-39211267Y2990223D01*
X-39160574Y3089714D01*
X-39148397Y3166601D01*
X-39128801Y3198575D01*
X-39125186Y3199443D01*
X-39079463Y3199443D01*
X-39060358Y3187734D01*
X-39051605Y3166602D01*
X-39039426Y3089714D01*
X-38988733Y2990223D01*
X-38909777Y2911267D01*
X-38810286Y2860574D01*
X-38700000Y2843106D01*
X-38589714Y2860574D01*
X-38490223Y2911267D01*
X-38411267Y2990223D01*
X-38360574Y3089714D01*
X-38348397Y3166601D01*
X-38328801Y3198575D01*
X-38325186Y3199443D01*
X-38279463Y3199443D01*
X-38260358Y3187734D01*
X-38251605Y3166602D01*
X-38239426Y3089714D01*
X-38188733Y2990223D01*
X-38109777Y2911267D01*
X-38010286Y2860574D01*
X-37900000Y2843106D01*
X-37789714Y2860574D01*
X-37690223Y2911267D01*
X-37611267Y2990223D01*
X-37560574Y3089714D01*
X-37548397Y3166601D01*
X-37528801Y3198575D01*
X-37525186Y3199443D01*
X-37479463Y3199443D01*
X-37460358Y3187734D01*
X-37451605Y3166602D01*
X-37439426Y3089714D01*
X-37388733Y2990223D01*
X-37309777Y2911267D01*
X-37233275Y2872288D01*
X-37208919Y2843772D01*
X-37211861Y2806384D01*
X-37228297Y2787888D01*
X-37264018Y2764020D01*
X-37314301Y2688765D01*
X-37331957Y2600002D01*
X-37331957Y2599999D01*
X-37314301Y2511236D01*
X-37264019Y2435982D01*
X-37226392Y2410841D01*
X-37188766Y2385700D01*
X-37159178Y2379815D01*
X-37100002Y2368043D01*
X-37100000Y2368043D01*
X-37099998Y2368043D01*
X-37055617Y2376872D01*
X-37011234Y2385700D01*
X-36935982Y2435982D01*
X-36885700Y2511234D01*
X-36868043Y2600000D01*
X-36868196Y2600767D01*
X-36885700Y2688765D01*
X-36885700Y2688766D01*
X-36916526Y2734900D01*
X-36935982Y2764019D01*
X-36971703Y2787887D01*
X-36992539Y2819070D01*
X-36985222Y2855852D01*
X-36966730Y2872286D01*
X-36890223Y2911267D01*
X-36811267Y2990223D01*
X-36760574Y3089714D01*
X-36748397Y3166601D01*
X-36728801Y3198575D01*
X-36725186Y3199443D01*
X-36679463Y3199443D01*
X-36660358Y3187734D01*
X-36651605Y3166602D01*
X-36639426Y3089714D01*
X-36588733Y2990223D01*
X-36509777Y2911267D01*
X-36410286Y2860574D01*
X-36300000Y2843106D01*
X-36189714Y2860574D01*
X-36090223Y2911267D01*
X-36011267Y2990223D01*
X-35960574Y3089714D01*
X-35943106Y3200000D01*
X-34256894Y3200000D01*
X-34239426Y3089714D01*
X-34188733Y2990223D01*
X-34109777Y2911267D01*
X-34033275Y2872288D01*
X-34008919Y2843772D01*
X-34011861Y2806384D01*
X-34028297Y2787888D01*
X-34064018Y2764020D01*
X-34114301Y2688765D01*
X-34131957Y2600002D01*
X-34131957Y2599999D01*
X-34114301Y2511236D01*
X-34064019Y2435982D01*
X-34026392Y2410841D01*
X-33988766Y2385700D01*
X-33959178Y2379815D01*
X-33900002Y2368043D01*
X-33900000Y2368043D01*
X-33899998Y2368043D01*
X-33855617Y2376872D01*
X-33811234Y2385700D01*
X-33735982Y2435982D01*
X-33685700Y2511234D01*
X-33668043Y2600000D01*
X-33668196Y2600767D01*
X-33685700Y2688765D01*
X-33685700Y2688766D01*
X-33716526Y2734900D01*
X-33735982Y2764019D01*
X-33771703Y2787887D01*
X-33792539Y2819070D01*
X-33785222Y2855852D01*
X-33766730Y2872286D01*
X-33690223Y2911267D01*
X-33611267Y2990223D01*
X-33560574Y3089714D01*
X-33548397Y3166601D01*
X-33528801Y3198575D01*
X-33525186Y3199443D01*
X-33479463Y3199443D01*
X-33460358Y3187734D01*
X-33451605Y3166602D01*
X-33439426Y3089714D01*
X-33388733Y2990223D01*
X-33309777Y2911267D01*
X-33210286Y2860574D01*
X-33100000Y2843106D01*
X-32989714Y2860574D01*
X-32890223Y2911267D01*
X-32811267Y2990223D01*
X-32760574Y3089714D01*
X-32748397Y3166601D01*
X-32728801Y3198575D01*
X-32725186Y3199443D01*
X-32679463Y3199443D01*
X-32660358Y3187734D01*
X-32651605Y3166602D01*
X-32639426Y3089714D01*
X-32588733Y2990223D01*
X-32509777Y2911267D01*
X-32433275Y2872288D01*
X-32408919Y2843772D01*
X-32411861Y2806384D01*
X-32428297Y2787888D01*
X-32464018Y2764020D01*
X-32514301Y2688765D01*
X-32531957Y2600002D01*
X-32531957Y2599999D01*
X-32514301Y2511236D01*
X-32464019Y2435982D01*
X-32426392Y2410841D01*
X-32388766Y2385700D01*
X-32359178Y2379815D01*
X-32300002Y2368043D01*
X-32300000Y2368043D01*
X-32299998Y2368043D01*
X-32255617Y2376872D01*
X-32211234Y2385700D01*
X-32135982Y2435982D01*
X-32085700Y2511234D01*
X-32068043Y2600000D01*
X-32068196Y2600767D01*
X-32085700Y2688765D01*
X-32085700Y2688766D01*
X-32116526Y2734900D01*
X-32135982Y2764019D01*
X-32171703Y2787887D01*
X-32192539Y2819070D01*
X-32185222Y2855852D01*
X-32166730Y2872286D01*
X-32090223Y2911267D01*
X-32011267Y2990223D01*
X-31960574Y3089714D01*
X-31948397Y3166601D01*
X-31928801Y3198575D01*
X-31925186Y3199443D01*
X-31879463Y3199443D01*
X-31860358Y3187734D01*
X-31851605Y3166602D01*
X-31839426Y3089714D01*
X-31788733Y2990223D01*
X-31709777Y2911267D01*
X-31610286Y2860574D01*
X-31500000Y2843106D01*
X-31389714Y2860574D01*
X-31290223Y2911267D01*
X-31211267Y2990223D01*
X-31160574Y3089714D01*
X-31148397Y3166601D01*
X-31128801Y3198575D01*
X-31125186Y3199443D01*
X-31079463Y3199443D01*
X-31060358Y3187734D01*
X-31051605Y3166602D01*
X-31039426Y3089714D01*
X-30988733Y2990223D01*
X-30909777Y2911267D01*
X-30810286Y2860574D01*
X-30700000Y2843106D01*
X-30589714Y2860574D01*
X-30490223Y2911267D01*
X-30411267Y2990223D01*
X-30360574Y3089714D01*
X-30348397Y3166601D01*
X-30328801Y3198575D01*
X-30325186Y3199443D01*
X-30279463Y3199443D01*
X-30260358Y3187734D01*
X-30251605Y3166602D01*
X-30239426Y3089714D01*
X-30188733Y2990223D01*
X-30109777Y2911267D01*
X-30033275Y2872288D01*
X-30008919Y2843772D01*
X-30011861Y2806384D01*
X-30028297Y2787888D01*
X-30064018Y2764020D01*
X-30114301Y2688765D01*
X-30131957Y2600002D01*
X-30131957Y2599999D01*
X-30114301Y2511236D01*
X-30064019Y2435982D01*
X-30026392Y2410841D01*
X-29988766Y2385700D01*
X-29959178Y2379815D01*
X-29900002Y2368043D01*
X-29900000Y2368043D01*
X-29899998Y2368043D01*
X-29855617Y2376872D01*
X-29811234Y2385700D01*
X-29735982Y2435982D01*
X-29685700Y2511234D01*
X-29668043Y2600000D01*
X-29668196Y2600767D01*
X-29685700Y2688765D01*
X-29685700Y2688766D01*
X-29716526Y2734900D01*
X-29735982Y2764019D01*
X-29771703Y2787887D01*
X-29792539Y2819070D01*
X-29785222Y2855852D01*
X-29766730Y2872286D01*
X-29690223Y2911267D01*
X-29611267Y2990223D01*
X-29560574Y3089714D01*
X-29548397Y3166601D01*
X-29528801Y3198575D01*
X-29525186Y3199443D01*
X-29479463Y3199443D01*
X-29460358Y3187734D01*
X-29451605Y3166602D01*
X-29439426Y3089714D01*
X-29388733Y2990223D01*
X-29309777Y2911267D01*
X-29210286Y2860574D01*
X-29100000Y2843106D01*
X-28989714Y2860574D01*
X-28890223Y2911267D01*
X-28811267Y2990223D01*
X-28760574Y3089714D01*
X-28748397Y3166601D01*
X-28728801Y3198575D01*
X-28725186Y3199443D01*
X-28679463Y3199443D01*
X-28660358Y3187734D01*
X-28651605Y3166602D01*
X-28639426Y3089714D01*
X-28588733Y2990223D01*
X-28509777Y2911267D01*
X-28410286Y2860574D01*
X-28300000Y2843106D01*
X-28189714Y2860574D01*
X-28090223Y2911267D01*
X-28011267Y2990223D01*
X-27960574Y3089714D01*
X-27948397Y3166601D01*
X-27928801Y3198575D01*
X-27925186Y3199443D01*
X-27879463Y3199443D01*
X-27860358Y3187734D01*
X-27851605Y3166602D01*
X-27839426Y3089714D01*
X-27788733Y2990223D01*
X-27709777Y2911267D01*
X-27633275Y2872288D01*
X-27608919Y2843772D01*
X-27611861Y2806384D01*
X-27628297Y2787888D01*
X-27664018Y2764020D01*
X-27714301Y2688765D01*
X-27731957Y2600002D01*
X-27731957Y2599999D01*
X-27714301Y2511236D01*
X-27664019Y2435982D01*
X-27626392Y2410841D01*
X-27588766Y2385700D01*
X-27559178Y2379815D01*
X-27500002Y2368043D01*
X-27500000Y2368043D01*
X-27499998Y2368043D01*
X-27455617Y2376872D01*
X-27411234Y2385700D01*
X-27335982Y2435982D01*
X-27285700Y2511234D01*
X-27268043Y2600000D01*
X-27268196Y2600767D01*
X-27285700Y2688765D01*
X-27285700Y2688766D01*
X-27316526Y2734900D01*
X-27335982Y2764019D01*
X-27371703Y2787887D01*
X-27392539Y2819070D01*
X-27385222Y2855852D01*
X-27366730Y2872286D01*
X-27290223Y2911267D01*
X-27211267Y2990223D01*
X-27160574Y3089714D01*
X-27148397Y3166601D01*
X-27128801Y3198575D01*
X-27125186Y3199443D01*
X-27079463Y3199443D01*
X-27060358Y3187734D01*
X-27051605Y3166602D01*
X-27039426Y3089714D01*
X-26988733Y2990223D01*
X-26909777Y2911267D01*
X-26810286Y2860574D01*
X-26700000Y2843106D01*
X-26589714Y2860574D01*
X-26490223Y2911267D01*
X-26411267Y2990223D01*
X-26360574Y3089714D01*
X-26348397Y3166601D01*
X-26328801Y3198575D01*
X-26325186Y3199443D01*
X-26279463Y3199443D01*
X-26260358Y3187734D01*
X-26251605Y3166602D01*
X-26239426Y3089714D01*
X-26188733Y2990223D01*
X-26109777Y2911267D01*
X-26010286Y2860574D01*
X-25900000Y2843106D01*
X-25789714Y2860574D01*
X-25690223Y2911267D01*
X-25611267Y2990223D01*
X-25560574Y3089714D01*
X-25548397Y3166601D01*
X-25528801Y3198575D01*
X-25525186Y3199443D01*
X-25479463Y3199443D01*
X-25460358Y3187734D01*
X-25451605Y3166602D01*
X-25439426Y3089714D01*
X-25388733Y2990223D01*
X-25309777Y2911267D01*
X-25233275Y2872288D01*
X-25208919Y2843772D01*
X-25211861Y2806384D01*
X-25228297Y2787888D01*
X-25264018Y2764020D01*
X-25314301Y2688765D01*
X-25331957Y2600002D01*
X-25331957Y2599999D01*
X-25314301Y2511236D01*
X-25264019Y2435982D01*
X-25226392Y2410841D01*
X-25188766Y2385700D01*
X-25159178Y2379815D01*
X-25100002Y2368043D01*
X-25100000Y2368043D01*
X-25099998Y2368043D01*
X-25055617Y2376872D01*
X-25011234Y2385700D01*
X-24935982Y2435982D01*
X-24885700Y2511234D01*
X-24868043Y2600000D01*
X-24868196Y2600767D01*
X-24885700Y2688765D01*
X-24885700Y2688766D01*
X-24916526Y2734900D01*
X-24935982Y2764019D01*
X-24971703Y2787887D01*
X-24992539Y2819070D01*
X-24985222Y2855852D01*
X-24966730Y2872286D01*
X-24890223Y2911267D01*
X-24811267Y2990223D01*
X-24760574Y3089714D01*
X-24748397Y3166601D01*
X-24728801Y3198575D01*
X-24725186Y3199443D01*
X-24679463Y3199443D01*
X-24660358Y3187734D01*
X-24651605Y3166602D01*
X-24639426Y3089714D01*
X-24588733Y2990223D01*
X-24509777Y2911267D01*
X-24410286Y2860574D01*
X-24300000Y2843106D01*
X-24189714Y2860574D01*
X-24090223Y2911267D01*
X-24011267Y2990223D01*
X-23960574Y3089714D01*
X-23948397Y3166601D01*
X-23928801Y3198575D01*
X-23925186Y3199443D01*
X-23879463Y3199443D01*
X-23860358Y3187734D01*
X-23851605Y3166602D01*
X-23839426Y3089714D01*
X-23788733Y2990223D01*
X-23709777Y2911267D01*
X-23610286Y2860574D01*
X-23500000Y2843106D01*
X-23389714Y2860574D01*
X-23290223Y2911267D01*
X-23211267Y2990223D01*
X-23160574Y3089714D01*
X-23148397Y3166601D01*
X-23128801Y3198575D01*
X-23125186Y3199443D01*
X-23079463Y3199443D01*
X-23060358Y3187734D01*
X-23051605Y3166602D01*
X-23039426Y3089714D01*
X-22988733Y2990223D01*
X-22909777Y2911267D01*
X-22833275Y2872288D01*
X-22808919Y2843772D01*
X-22811861Y2806384D01*
X-22828297Y2787888D01*
X-22864018Y2764020D01*
X-22914301Y2688765D01*
X-22931957Y2600002D01*
X-22931957Y2599999D01*
X-22914301Y2511236D01*
X-22864019Y2435982D01*
X-22826392Y2410841D01*
X-22788766Y2385700D01*
X-22759178Y2379815D01*
X-22700002Y2368043D01*
X-22700000Y2368043D01*
X-22699998Y2368043D01*
X-22655617Y2376872D01*
X-22611234Y2385700D01*
X-22535982Y2435982D01*
X-22485700Y2511234D01*
X-22468043Y2600000D01*
X-22468196Y2600767D01*
X-22485700Y2688765D01*
X-22485700Y2688766D01*
X-22516526Y2734900D01*
X-22535982Y2764019D01*
X-22571703Y2787887D01*
X-22592539Y2819070D01*
X-22585222Y2855852D01*
X-22566730Y2872286D01*
X-22490223Y2911267D01*
X-22411267Y2990223D01*
X-22360574Y3089714D01*
X-22343106Y3200000D01*
X-20656894Y3200000D01*
X-20639426Y3089714D01*
X-20588733Y2990223D01*
X-20509777Y2911267D01*
X-20433275Y2872288D01*
X-20408919Y2843772D01*
X-20411861Y2806384D01*
X-20428297Y2787888D01*
X-20464018Y2764020D01*
X-20514301Y2688765D01*
X-20531957Y2600002D01*
X-20531957Y2599999D01*
X-20514301Y2511236D01*
X-20464019Y2435982D01*
X-20426392Y2410841D01*
X-20388766Y2385700D01*
X-20359178Y2379815D01*
X-20300002Y2368043D01*
X-20300000Y2368043D01*
X-20299998Y2368043D01*
X-20255617Y2376872D01*
X-20211234Y2385700D01*
X-20135982Y2435982D01*
X-20085700Y2511234D01*
X-20068043Y2600000D01*
X-20068196Y2600767D01*
X-20085700Y2688765D01*
X-20085700Y2688766D01*
X-20116526Y2734900D01*
X-20135982Y2764019D01*
X-20171703Y2787887D01*
X-20192539Y2819070D01*
X-20185222Y2855852D01*
X-20166730Y2872286D01*
X-20090223Y2911267D01*
X-20011267Y2990223D01*
X-19960574Y3089714D01*
X-19943106Y3200000D01*
X-18256894Y3200000D01*
X-18239426Y3089714D01*
X-18188733Y2990223D01*
X-18109777Y2911267D01*
X-18033275Y2872288D01*
X-18008919Y2843772D01*
X-18011861Y2806384D01*
X-18028297Y2787888D01*
X-18064018Y2764020D01*
X-18114301Y2688765D01*
X-18131957Y2600002D01*
X-18131957Y2599999D01*
X-18114301Y2511236D01*
X-18064019Y2435982D01*
X-18026392Y2410841D01*
X-17988766Y2385700D01*
X-17959178Y2379815D01*
X-17900002Y2368043D01*
X-17900000Y2368043D01*
X-17899998Y2368043D01*
X-17855617Y2376872D01*
X-17811234Y2385700D01*
X-17735982Y2435982D01*
X-17685700Y2511234D01*
X-17668043Y2600000D01*
X-17668196Y2600767D01*
X-17685700Y2688765D01*
X-17685700Y2688766D01*
X-17716526Y2734900D01*
X-17735982Y2764019D01*
X-17771703Y2787887D01*
X-17792539Y2819070D01*
X-17785222Y2855852D01*
X-17766730Y2872286D01*
X-17690223Y2911267D01*
X-17611267Y2990223D01*
X-17560574Y3089714D01*
X-17543106Y3200000D01*
X-17560574Y3310286D01*
X-17611267Y3409777D01*
X-17690223Y3488733D01*
X-17690226Y3488735D01*
X-17789714Y3539426D01*
X-17900000Y3556894D01*
X-18010287Y3539426D01*
X-18109775Y3488735D01*
X-18109778Y3488733D01*
X-18188733Y3409778D01*
X-18188735Y3409775D01*
X-18239426Y3310287D01*
X-18239426Y3310286D01*
X-18256894Y3200000D01*
X-19943106Y3200000D01*
X-19960574Y3310286D01*
X-20011267Y3409777D01*
X-20090223Y3488733D01*
X-20090226Y3488735D01*
X-20189714Y3539426D01*
X-20300000Y3556894D01*
X-20410287Y3539426D01*
X-20509775Y3488735D01*
X-20509778Y3488733D01*
X-20588733Y3409778D01*
X-20588735Y3409775D01*
X-20639426Y3310287D01*
X-20639426Y3310286D01*
X-20656894Y3200000D01*
X-22343106Y3200000D01*
X-22360574Y3310286D01*
X-22411267Y3409777D01*
X-22490223Y3488733D01*
X-22490226Y3488735D01*
X-22589714Y3539426D01*
X-22700000Y3556894D01*
X-22810287Y3539426D01*
X-22909775Y3488735D01*
X-22909778Y3488733D01*
X-22988733Y3409778D01*
X-22988735Y3409775D01*
X-23039426Y3310287D01*
X-23039426Y3310286D01*
X-23051604Y3233401D01*
X-23071199Y3201426D01*
X-23079463Y3199443D01*
X-23125186Y3199443D01*
X-23120538Y3200559D01*
X-23139642Y3212267D01*
X-23148397Y3233400D01*
X-23160574Y3310286D01*
X-23211267Y3409777D01*
X-23290223Y3488733D01*
X-23290226Y3488735D01*
X-23389714Y3539426D01*
X-23500000Y3556894D01*
X-23610287Y3539426D01*
X-23709775Y3488735D01*
X-23709778Y3488733D01*
X-23788733Y3409778D01*
X-23788735Y3409775D01*
X-23839426Y3310287D01*
X-23839426Y3310286D01*
X-23851604Y3233401D01*
X-23871199Y3201426D01*
X-23879463Y3199443D01*
X-23925186Y3199443D01*
X-23920538Y3200559D01*
X-23939642Y3212267D01*
X-23948397Y3233400D01*
X-23960574Y3310286D01*
X-24011267Y3409777D01*
X-24090223Y3488733D01*
X-24090226Y3488735D01*
X-24189714Y3539426D01*
X-24300000Y3556894D01*
X-24410287Y3539426D01*
X-24509775Y3488735D01*
X-24509778Y3488733D01*
X-24588733Y3409778D01*
X-24588735Y3409775D01*
X-24639426Y3310287D01*
X-24639426Y3310286D01*
X-24651604Y3233401D01*
X-24671199Y3201426D01*
X-24679463Y3199443D01*
X-24725186Y3199443D01*
X-24720538Y3200559D01*
X-24739642Y3212267D01*
X-24748397Y3233400D01*
X-24760574Y3310286D01*
X-24811267Y3409777D01*
X-24890223Y3488733D01*
X-24890226Y3488735D01*
X-24989714Y3539426D01*
X-25100000Y3556894D01*
X-25210287Y3539426D01*
X-25309775Y3488735D01*
X-25309778Y3488733D01*
X-25388733Y3409778D01*
X-25388735Y3409775D01*
X-25439426Y3310287D01*
X-25439426Y3310286D01*
X-25451604Y3233401D01*
X-25471199Y3201426D01*
X-25479463Y3199443D01*
X-25525186Y3199443D01*
X-25520538Y3200559D01*
X-25539642Y3212267D01*
X-25548397Y3233400D01*
X-25560574Y3310286D01*
X-25611267Y3409777D01*
X-25690223Y3488733D01*
X-25690226Y3488735D01*
X-25789714Y3539426D01*
X-25900000Y3556894D01*
X-26010287Y3539426D01*
X-26109775Y3488735D01*
X-26109778Y3488733D01*
X-26188733Y3409778D01*
X-26188735Y3409775D01*
X-26239426Y3310287D01*
X-26239426Y3310286D01*
X-26251604Y3233401D01*
X-26271199Y3201426D01*
X-26279463Y3199443D01*
X-26325186Y3199443D01*
X-26320538Y3200559D01*
X-26339642Y3212267D01*
X-26348397Y3233400D01*
X-26360574Y3310286D01*
X-26411267Y3409777D01*
X-26490223Y3488733D01*
X-26490226Y3488735D01*
X-26589714Y3539426D01*
X-26700000Y3556894D01*
X-26810287Y3539426D01*
X-26909775Y3488735D01*
X-26909778Y3488733D01*
X-26988733Y3409778D01*
X-26988735Y3409775D01*
X-27039426Y3310287D01*
X-27039426Y3310286D01*
X-27051604Y3233401D01*
X-27071199Y3201426D01*
X-27079463Y3199443D01*
X-27125186Y3199443D01*
X-27120538Y3200559D01*
X-27139642Y3212267D01*
X-27148397Y3233400D01*
X-27160574Y3310286D01*
X-27211267Y3409777D01*
X-27290223Y3488733D01*
X-27290226Y3488735D01*
X-27389714Y3539426D01*
X-27500000Y3556894D01*
X-27610287Y3539426D01*
X-27709775Y3488735D01*
X-27709778Y3488733D01*
X-27788733Y3409778D01*
X-27788735Y3409775D01*
X-27839426Y3310287D01*
X-27839426Y3310286D01*
X-27851604Y3233401D01*
X-27871199Y3201426D01*
X-27879463Y3199443D01*
X-27925186Y3199443D01*
X-27920538Y3200559D01*
X-27939642Y3212267D01*
X-27948397Y3233400D01*
X-27960574Y3310286D01*
X-28011267Y3409777D01*
X-28090223Y3488733D01*
X-28090226Y3488735D01*
X-28189714Y3539426D01*
X-28300000Y3556894D01*
X-28410287Y3539426D01*
X-28509775Y3488735D01*
X-28509778Y3488733D01*
X-28588733Y3409778D01*
X-28588735Y3409775D01*
X-28639426Y3310287D01*
X-28639426Y3310286D01*
X-28651604Y3233401D01*
X-28671199Y3201426D01*
X-28679463Y3199443D01*
X-28725186Y3199443D01*
X-28720538Y3200559D01*
X-28739642Y3212267D01*
X-28748397Y3233400D01*
X-28760574Y3310286D01*
X-28811267Y3409777D01*
X-28890223Y3488733D01*
X-28890226Y3488735D01*
X-28989714Y3539426D01*
X-29100000Y3556894D01*
X-29210287Y3539426D01*
X-29309775Y3488735D01*
X-29309778Y3488733D01*
X-29388733Y3409778D01*
X-29388735Y3409775D01*
X-29439426Y3310287D01*
X-29439426Y3310286D01*
X-29451604Y3233401D01*
X-29471199Y3201426D01*
X-29479463Y3199443D01*
X-29525186Y3199443D01*
X-29520538Y3200559D01*
X-29539642Y3212267D01*
X-29548397Y3233400D01*
X-29560574Y3310286D01*
X-29611267Y3409777D01*
X-29690223Y3488733D01*
X-29690226Y3488735D01*
X-29789714Y3539426D01*
X-29900000Y3556894D01*
X-30010287Y3539426D01*
X-30109775Y3488735D01*
X-30109778Y3488733D01*
X-30188733Y3409778D01*
X-30188735Y3409775D01*
X-30239426Y3310287D01*
X-30239426Y3310286D01*
X-30251604Y3233401D01*
X-30271199Y3201426D01*
X-30279463Y3199443D01*
X-30325186Y3199443D01*
X-30320538Y3200559D01*
X-30339642Y3212267D01*
X-30348397Y3233400D01*
X-30360574Y3310286D01*
X-30411267Y3409777D01*
X-30490223Y3488733D01*
X-30490226Y3488735D01*
X-30589714Y3539426D01*
X-30700000Y3556894D01*
X-30810287Y3539426D01*
X-30909775Y3488735D01*
X-30909778Y3488733D01*
X-30988733Y3409778D01*
X-30988735Y3409775D01*
X-31039426Y3310287D01*
X-31039426Y3310286D01*
X-31051604Y3233401D01*
X-31071199Y3201426D01*
X-31079463Y3199443D01*
X-31125186Y3199443D01*
X-31120538Y3200559D01*
X-31139642Y3212267D01*
X-31148397Y3233400D01*
X-31160574Y3310286D01*
X-31211267Y3409777D01*
X-31290223Y3488733D01*
X-31290226Y3488735D01*
X-31389714Y3539426D01*
X-31500000Y3556894D01*
X-31610287Y3539426D01*
X-31709775Y3488735D01*
X-31709778Y3488733D01*
X-31788733Y3409778D01*
X-31788735Y3409775D01*
X-31839426Y3310287D01*
X-31839426Y3310286D01*
X-31851604Y3233401D01*
X-31871199Y3201426D01*
X-31879463Y3199443D01*
X-31925186Y3199443D01*
X-31920538Y3200559D01*
X-31939642Y3212267D01*
X-31948397Y3233400D01*
X-31960574Y3310286D01*
X-32011267Y3409777D01*
X-32090223Y3488733D01*
X-32090226Y3488735D01*
X-32189714Y3539426D01*
X-32300000Y3556894D01*
X-32410287Y3539426D01*
X-32509775Y3488735D01*
X-32509778Y3488733D01*
X-32588733Y3409778D01*
X-32588735Y3409775D01*
X-32639426Y3310287D01*
X-32639426Y3310286D01*
X-32651604Y3233401D01*
X-32671199Y3201426D01*
X-32679463Y3199443D01*
X-32725186Y3199443D01*
X-32720538Y3200559D01*
X-32739642Y3212267D01*
X-32748397Y3233400D01*
X-32760574Y3310286D01*
X-32811267Y3409777D01*
X-32890223Y3488733D01*
X-32890226Y3488735D01*
X-32989714Y3539426D01*
X-33100000Y3556894D01*
X-33210287Y3539426D01*
X-33309775Y3488735D01*
X-33309778Y3488733D01*
X-33388733Y3409778D01*
X-33388735Y3409775D01*
X-33439426Y3310287D01*
X-33439426Y3310286D01*
X-33451604Y3233401D01*
X-33471199Y3201426D01*
X-33479463Y3199443D01*
X-33525186Y3199443D01*
X-33520538Y3200559D01*
X-33539642Y3212267D01*
X-33548397Y3233400D01*
X-33560574Y3310286D01*
X-33611267Y3409777D01*
X-33690223Y3488733D01*
X-33690226Y3488735D01*
X-33789714Y3539426D01*
X-33900000Y3556894D01*
X-34010287Y3539426D01*
X-34109775Y3488735D01*
X-34109778Y3488733D01*
X-34188733Y3409778D01*
X-34188735Y3409775D01*
X-34239426Y3310287D01*
X-34239426Y3310286D01*
X-34256894Y3200000D01*
X-35943106Y3200000D01*
X-35960574Y3310286D01*
X-36011267Y3409777D01*
X-36090223Y3488733D01*
X-36090226Y3488735D01*
X-36189714Y3539426D01*
X-36300000Y3556894D01*
X-36410287Y3539426D01*
X-36509775Y3488735D01*
X-36509778Y3488733D01*
X-36588733Y3409778D01*
X-36588735Y3409775D01*
X-36639426Y3310287D01*
X-36639426Y3310286D01*
X-36651604Y3233401D01*
X-36671199Y3201426D01*
X-36679463Y3199443D01*
X-36725186Y3199443D01*
X-36720538Y3200559D01*
X-36739642Y3212267D01*
X-36748397Y3233400D01*
X-36760574Y3310286D01*
X-36811267Y3409777D01*
X-36890223Y3488733D01*
X-36890226Y3488735D01*
X-36989714Y3539426D01*
X-37100000Y3556894D01*
X-37210287Y3539426D01*
X-37309775Y3488735D01*
X-37309778Y3488733D01*
X-37388733Y3409778D01*
X-37388735Y3409775D01*
X-37439426Y3310287D01*
X-37439426Y3310286D01*
X-37451604Y3233401D01*
X-37471199Y3201426D01*
X-37479463Y3199443D01*
X-37525186Y3199443D01*
X-37520538Y3200559D01*
X-37539642Y3212267D01*
X-37548397Y3233400D01*
X-37560574Y3310286D01*
X-37611267Y3409777D01*
X-37690223Y3488733D01*
X-37690226Y3488735D01*
X-37789714Y3539426D01*
X-37900000Y3556894D01*
X-38010287Y3539426D01*
X-38109775Y3488735D01*
X-38109778Y3488733D01*
X-38188733Y3409778D01*
X-38188735Y3409775D01*
X-38239426Y3310287D01*
X-38239426Y3310286D01*
X-38251604Y3233401D01*
X-38271199Y3201426D01*
X-38279463Y3199443D01*
X-38325186Y3199443D01*
X-38320538Y3200559D01*
X-38339642Y3212267D01*
X-38348397Y3233400D01*
X-38360574Y3310286D01*
X-38411267Y3409777D01*
X-38490223Y3488733D01*
X-38490226Y3488735D01*
X-38589714Y3539426D01*
X-38700000Y3556894D01*
X-38810287Y3539426D01*
X-38909775Y3488735D01*
X-38909778Y3488733D01*
X-38988733Y3409778D01*
X-38988735Y3409775D01*
X-39039426Y3310287D01*
X-39039426Y3310286D01*
X-39051604Y3233401D01*
X-39071199Y3201426D01*
X-39079463Y3199443D01*
X-39125186Y3199443D01*
X-39120538Y3200559D01*
X-39139642Y3212267D01*
X-39148397Y3233400D01*
X-39160574Y3310286D01*
X-39211267Y3409777D01*
X-39290223Y3488733D01*
X-39290226Y3488735D01*
X-39389714Y3539426D01*
X-39500000Y3556894D01*
X-39610287Y3539426D01*
X-39709775Y3488735D01*
X-39709778Y3488733D01*
X-39788733Y3409778D01*
X-39788735Y3409775D01*
X-39839426Y3310287D01*
X-39839426Y3310286D01*
X-39851604Y3233401D01*
X-39871199Y3201426D01*
X-39879463Y3199443D01*
X-39925186Y3199443D01*
X-39920538Y3200559D01*
X-39939642Y3212267D01*
X-39948397Y3233400D01*
X-39960574Y3310286D01*
X-40011267Y3409777D01*
X-40090223Y3488733D01*
X-40090226Y3488735D01*
X-40189714Y3539426D01*
X-40300000Y3556894D01*
X-40410287Y3539426D01*
X-40509775Y3488735D01*
X-40509778Y3488733D01*
X-40588733Y3409778D01*
X-40588735Y3409775D01*
X-40639426Y3310287D01*
X-40639426Y3310286D01*
X-40651604Y3233401D01*
X-40671199Y3201426D01*
X-40679463Y3199443D01*
X-40725186Y3199443D01*
X-40720538Y3200559D01*
X-40739642Y3212267D01*
X-40748397Y3233400D01*
X-40760574Y3310286D01*
X-40811267Y3409777D01*
X-40890223Y3488733D01*
X-40890226Y3488735D01*
X-40989714Y3539426D01*
X-41100000Y3556894D01*
X-41210287Y3539426D01*
X-41309775Y3488735D01*
X-41309778Y3488733D01*
X-41388733Y3409778D01*
X-41388735Y3409775D01*
X-41439426Y3310287D01*
X-41439426Y3310286D01*
X-41451604Y3233401D01*
X-41471199Y3201426D01*
X-41479463Y3199443D01*
X-41525186Y3199443D01*
X-41520538Y3200559D01*
X-41539642Y3212267D01*
X-41548397Y3233400D01*
X-41560574Y3310286D01*
X-41611267Y3409777D01*
X-41690223Y3488733D01*
X-41690226Y3488735D01*
X-41789714Y3539426D01*
X-41900000Y3556894D01*
X-42010287Y3539426D01*
X-42109775Y3488735D01*
X-42109778Y3488733D01*
X-42188733Y3409778D01*
X-42188735Y3409775D01*
X-42239426Y3310287D01*
X-42239426Y3310286D01*
X-42251604Y3233401D01*
X-42271199Y3201426D01*
X-42279463Y3199443D01*
X-42325186Y3199443D01*
X-42320538Y3200559D01*
X-42339642Y3212267D01*
X-42348397Y3233400D01*
X-42360574Y3310286D01*
X-42411267Y3409777D01*
X-42490223Y3488733D01*
X-42490226Y3488735D01*
X-42589714Y3539426D01*
X-42700000Y3556894D01*
X-42810287Y3539426D01*
X-42909775Y3488735D01*
X-42909778Y3488733D01*
X-42988733Y3409778D01*
X-42988735Y3409775D01*
X-43039426Y3310287D01*
X-43039426Y3310286D01*
X-43051604Y3233401D01*
X-43071199Y3201426D01*
X-43079463Y3199443D01*
X-43125186Y3199443D01*
X-43120538Y3200559D01*
X-43139642Y3212267D01*
X-43148397Y3233400D01*
X-43160574Y3310286D01*
X-43211267Y3409777D01*
X-43290223Y3488733D01*
X-43290226Y3488735D01*
X-43389714Y3539426D01*
X-43500000Y3556894D01*
X-43610287Y3539426D01*
X-43709775Y3488735D01*
X-43709778Y3488733D01*
X-43788733Y3409778D01*
X-43788735Y3409775D01*
X-43839426Y3310287D01*
X-43839426Y3310286D01*
X-43851604Y3233401D01*
X-43871199Y3201426D01*
X-43879463Y3199443D01*
X-43925186Y3199443D01*
X-43920538Y3200559D01*
X-43939642Y3212267D01*
X-43948397Y3233400D01*
X-43960574Y3310286D01*
X-44011267Y3409777D01*
X-44090223Y3488733D01*
X-44090226Y3488735D01*
X-44189714Y3539426D01*
X-44300000Y3556894D01*
X-44410287Y3539426D01*
X-44509775Y3488735D01*
X-44509778Y3488733D01*
X-44588733Y3409778D01*
X-44588735Y3409775D01*
X-44639426Y3310287D01*
X-44639426Y3310286D01*
X-44651604Y3233401D01*
X-44671199Y3201426D01*
X-44679463Y3199443D01*
X-44725186Y3199443D01*
X-44720538Y3200559D01*
X-44739642Y3212267D01*
X-44748397Y3233400D01*
X-44760574Y3310286D01*
X-44811267Y3409777D01*
X-44890223Y3488733D01*
X-44890226Y3488735D01*
X-44989714Y3539426D01*
X-45100000Y3556894D01*
X-45210287Y3539426D01*
X-45309775Y3488735D01*
X-45309778Y3488733D01*
X-45388733Y3409778D01*
X-45388735Y3409775D01*
X-45439426Y3310287D01*
X-45439426Y3310286D01*
X-45451604Y3233401D01*
X-45471199Y3201426D01*
X-45479463Y3199443D01*
X-45525186Y3199443D01*
X-45520538Y3200559D01*
X-45539642Y3212267D01*
X-45548397Y3233400D01*
X-45560574Y3310286D01*
X-45611267Y3409777D01*
X-45690223Y3488733D01*
X-45690226Y3488735D01*
X-45789714Y3539426D01*
X-45900000Y3556894D01*
X-46010287Y3539426D01*
X-46109775Y3488735D01*
X-46109778Y3488733D01*
X-46188733Y3409778D01*
X-46188735Y3409775D01*
X-46239426Y3310287D01*
X-46239426Y3310286D01*
X-46251604Y3233401D01*
X-46271199Y3201426D01*
X-46279463Y3199443D01*
X-46325186Y3199443D01*
X-46320538Y3200559D01*
X-46339642Y3212267D01*
X-46348397Y3233400D01*
X-46360574Y3310286D01*
X-46411267Y3409777D01*
X-46490223Y3488733D01*
X-46490226Y3488735D01*
X-46589714Y3539426D01*
X-46700000Y3556894D01*
X-46810287Y3539426D01*
X-46909775Y3488735D01*
X-46909778Y3488733D01*
X-46988733Y3409778D01*
X-46988735Y3409775D01*
X-47039426Y3310287D01*
X-47039426Y3310286D01*
X-47051604Y3233401D01*
X-47071199Y3201426D01*
X-47079463Y3199443D01*
X-47125186Y3199443D01*
X-47120538Y3200559D01*
X-47139642Y3212267D01*
X-47148397Y3233400D01*
X-47160574Y3310286D01*
X-47211267Y3409777D01*
X-47290223Y3488733D01*
X-47290226Y3488735D01*
X-47389714Y3539426D01*
X-47500000Y3556894D01*
X-47610287Y3539426D01*
X-47709775Y3488735D01*
X-47709778Y3488733D01*
X-47788733Y3409778D01*
X-47788735Y3409775D01*
X-47839426Y3310287D01*
X-47839426Y3310286D01*
X-47856894Y3200000D01*
X-48743106Y3200000D01*
X-48760574Y3310286D01*
X-48811267Y3409777D01*
X-48890223Y3488733D01*
X-48890226Y3488735D01*
X-48989714Y3539426D01*
X-49100000Y3556894D01*
X-49210287Y3539426D01*
X-49309775Y3488735D01*
X-49309778Y3488733D01*
X-49388733Y3409778D01*
X-49388735Y3409775D01*
X-49439426Y3310287D01*
X-49439426Y3310286D01*
X-49456894Y3200000D01*
X-51143106Y3200000D01*
X-51160574Y3310286D01*
X-51211267Y3409777D01*
X-51290223Y3488733D01*
X-51290226Y3488735D01*
X-51389714Y3539426D01*
X-51500000Y3556894D01*
X-51610287Y3539426D01*
X-51709775Y3488735D01*
X-51709778Y3488733D01*
X-51788733Y3409778D01*
X-51788735Y3409775D01*
X-51839426Y3310287D01*
X-51839426Y3310286D01*
X-51856894Y3200000D01*
X-53543106Y3200000D01*
X-53560574Y3310286D01*
X-53611267Y3409777D01*
X-53690223Y3488733D01*
X-53690226Y3488735D01*
X-53789714Y3539426D01*
X-53900000Y3556894D01*
X-54010287Y3539426D01*
X-54109775Y3488735D01*
X-54109778Y3488733D01*
X-54188733Y3409778D01*
X-54188735Y3409775D01*
X-54239426Y3310287D01*
X-54239426Y3310286D01*
X-54256894Y3200000D01*
X-56212616Y3200000D01*
X-57082067Y4069451D01*
X-15927500Y4069451D01*
X-15927500Y3930550D01*
X-15891553Y3796395D01*
X-15891552Y3796391D01*
X-15857778Y3737894D01*
X-15822105Y3676107D01*
X-15723893Y3577895D01*
X-15687518Y3556894D01*
X-15603610Y3508449D01*
X-15603608Y3508449D01*
X-15603607Y3508448D01*
X-15530037Y3488735D01*
X-15469451Y3472501D01*
X-15469450Y3472500D01*
X-15469447Y3472500D01*
X-15330550Y3472500D01*
X-15330550Y3472501D01*
X-15196393Y3508448D01*
X-15076107Y3577895D01*
X-14977895Y3676107D01*
X-14908448Y3796393D01*
X-14872501Y3930550D01*
X-14872500Y3930550D01*
X-14872500Y4000002D01*
X-7332387Y4000002D01*
X-7332387Y3999999D01*
X-7312853Y3639714D01*
X-7312853Y3639712D01*
X-7312852Y3639706D01*
X-7275157Y3409775D01*
X-7254478Y3283634D01*
X-7157950Y2935972D01*
X-7157947Y2935963D01*
X-7024395Y2600771D01*
X-7024393Y2600766D01*
X-6855380Y2281975D01*
X-6855376Y2281967D01*
X-6652894Y1983330D01*
X-6652891Y1983327D01*
X-6652890Y1983325D01*
X-6627840Y1953834D01*
X-6419306Y1708327D01*
X-6419296Y1708317D01*
X-6271211Y1568043D01*
X-6157342Y1460181D01*
X-5870092Y1241820D01*
X-5870085Y1241815D01*
X-5694753Y1136322D01*
X-5560918Y1055796D01*
X-5497866Y1026625D01*
X-5233450Y904292D01*
X-5233444Y904290D01*
X-4891508Y789079D01*
X-4748235Y757542D01*
X-4539130Y711514D01*
X-4539129Y711514D01*
X-4539120Y711512D01*
X-4180412Y672500D01*
X-4180407Y672500D01*
X-3819593Y672500D01*
X-3819588Y672500D01*
X-3460880Y711512D01*
X-3108492Y789079D01*
X-2766556Y904290D01*
X-2766554Y904292D01*
X-2766551Y904292D01*
X-2683729Y942611D01*
X-2439082Y1055796D01*
X-2129908Y1241820D01*
X-1842658Y1460181D01*
X-1580702Y1708319D01*
X-1347110Y1983325D01*
X-1250101Y2126404D01*
X-1144625Y2281967D01*
X-1144624Y2281970D01*
X-1144620Y2281975D01*
X-975607Y2600767D01*
X-842053Y2935964D01*
X-745522Y3283635D01*
X-687148Y3639706D01*
X-667613Y4000000D01*
X-687148Y4360294D01*
X-745522Y4716365D01*
X-842053Y5064036D01*
X-975607Y5399233D01*
X-1144620Y5718025D01*
X-1144622Y5718028D01*
X-1144625Y5718034D01*
X-1347107Y6016671D01*
X-1363510Y6035982D01*
X-1427431Y6111236D01*
X-1580695Y6291674D01*
X-1580705Y6291684D01*
X-1842648Y6539810D01*
X-1842651Y6539812D01*
X-1842658Y6539819D01*
X-2129908Y6758180D01*
X-2129909Y6758181D01*
X-2129916Y6758186D01*
X-2439084Y6944205D01*
X-2766551Y7095709D01*
X-3108494Y7210922D01*
X-3460871Y7288487D01*
X-3460880Y7288488D01*
X-3819588Y7327500D01*
X-4180412Y7327500D01*
X-4479021Y7295025D01*
X-4539130Y7288487D01*
X-4891506Y7210922D01*
X-4891509Y7210922D01*
X-5233450Y7095709D01*
X-5560917Y6944205D01*
X-5870085Y6758186D01*
X-6018160Y6645623D01*
X-6157342Y6539819D01*
X-6157346Y6539816D01*
X-6157353Y6539810D01*
X-6419296Y6291684D01*
X-6419306Y6291674D01*
X-6652894Y6016671D01*
X-6855376Y5718034D01*
X-6855380Y5718026D01*
X-7024393Y5399235D01*
X-7024395Y5399230D01*
X-7157947Y5064038D01*
X-7157950Y5064029D01*
X-7254478Y4716367D01*
X-7277828Y4573937D01*
X-7302718Y4422105D01*
X-7312852Y4360291D01*
X-7312853Y4360287D01*
X-7332387Y4000002D01*
X-14872500Y4000002D01*
X-14872500Y4069450D01*
X-14872501Y4069451D01*
X-14908448Y4203606D01*
X-14908449Y4203610D01*
X-14977896Y4323894D01*
X-15076107Y4422105D01*
X-15196391Y4491552D01*
X-15196395Y4491553D01*
X-15330550Y4527500D01*
X-15330553Y4527500D01*
X-15469447Y4527500D01*
X-15469450Y4527500D01*
X-15603606Y4491553D01*
X-15603610Y4491552D01*
X-15723894Y4422105D01*
X-15723894Y4422104D01*
X-15822104Y4323894D01*
X-15822105Y4323894D01*
X-15891552Y4203610D01*
X-15891553Y4203606D01*
X-15927500Y4069451D01*
X-57082067Y4069451D01*
X-58412618Y5400002D01*
X-57331957Y5400002D01*
X-57331957Y5399999D01*
X-57314301Y5311236D01*
X-57264019Y5235982D01*
X-57226392Y5210841D01*
X-57188766Y5185700D01*
X-57159178Y5179815D01*
X-57100002Y5168043D01*
X-57100000Y5168043D01*
X-57099998Y5168043D01*
X-57055617Y5176872D01*
X-57011234Y5185700D01*
X-56935982Y5235982D01*
X-56885700Y5311234D01*
X-56868196Y5399230D01*
X-56868043Y5399999D01*
X-56868043Y5400002D01*
X-54931957Y5400002D01*
X-54931957Y5399999D01*
X-54914301Y5311236D01*
X-54864019Y5235982D01*
X-54826392Y5210841D01*
X-54788766Y5185700D01*
X-54759178Y5179815D01*
X-54700002Y5168043D01*
X-54700000Y5168043D01*
X-54699998Y5168043D01*
X-54655617Y5176872D01*
X-54611234Y5185700D01*
X-54535982Y5235982D01*
X-54485700Y5311234D01*
X-54468196Y5399230D01*
X-54468043Y5399999D01*
X-54468043Y5400002D01*
X-54131957Y5400002D01*
X-54131957Y5399999D01*
X-54114301Y5311236D01*
X-54064019Y5235982D01*
X-54026392Y5210841D01*
X-53988766Y5185700D01*
X-53959178Y5179815D01*
X-53900002Y5168043D01*
X-53900000Y5168043D01*
X-53899998Y5168043D01*
X-53855617Y5176872D01*
X-53811234Y5185700D01*
X-53735982Y5235982D01*
X-53685700Y5311234D01*
X-53668196Y5399230D01*
X-53668043Y5399999D01*
X-53668043Y5400002D01*
X-51731957Y5400002D01*
X-51731957Y5399999D01*
X-51714301Y5311236D01*
X-51664019Y5235982D01*
X-51626392Y5210841D01*
X-51588766Y5185700D01*
X-51559178Y5179815D01*
X-51500002Y5168043D01*
X-51500000Y5168043D01*
X-51499998Y5168043D01*
X-51455617Y5176872D01*
X-51411234Y5185700D01*
X-51335982Y5235982D01*
X-51285700Y5311234D01*
X-51268196Y5399230D01*
X-51268043Y5399999D01*
X-51268043Y5400002D01*
X-49331957Y5400002D01*
X-49331957Y5399999D01*
X-49314301Y5311236D01*
X-49264019Y5235982D01*
X-49226392Y5210841D01*
X-49188766Y5185700D01*
X-49159178Y5179815D01*
X-49100002Y5168043D01*
X-49100000Y5168043D01*
X-49099998Y5168043D01*
X-49055617Y5176872D01*
X-49011234Y5185700D01*
X-48935982Y5235982D01*
X-48885700Y5311234D01*
X-48868196Y5399230D01*
X-48868043Y5399999D01*
X-48868043Y5400002D01*
X-46931957Y5400002D01*
X-46931957Y5399999D01*
X-46914301Y5311236D01*
X-46864019Y5235982D01*
X-46826392Y5210841D01*
X-46788766Y5185700D01*
X-46759178Y5179815D01*
X-46700002Y5168043D01*
X-46700000Y5168043D01*
X-46699998Y5168043D01*
X-46655617Y5176872D01*
X-46611234Y5185700D01*
X-46535982Y5235982D01*
X-46485700Y5311234D01*
X-46468196Y5399230D01*
X-46468043Y5399999D01*
X-46468043Y5400002D01*
X-44531957Y5400002D01*
X-44531957Y5399999D01*
X-44514301Y5311236D01*
X-44464019Y5235982D01*
X-44426392Y5210841D01*
X-44388766Y5185700D01*
X-44359178Y5179815D01*
X-44300002Y5168043D01*
X-44300000Y5168043D01*
X-44299998Y5168043D01*
X-44255617Y5176872D01*
X-44211234Y5185700D01*
X-44135982Y5235982D01*
X-44085700Y5311234D01*
X-44068196Y5399230D01*
X-44068043Y5399999D01*
X-44068043Y5400002D01*
X-42131957Y5400002D01*
X-42131957Y5399999D01*
X-42114301Y5311236D01*
X-42064019Y5235982D01*
X-42026392Y5210841D01*
X-41988766Y5185700D01*
X-41959178Y5179815D01*
X-41900002Y5168043D01*
X-41900000Y5168043D01*
X-41899998Y5168043D01*
X-41855617Y5176872D01*
X-41811234Y5185700D01*
X-41735982Y5235982D01*
X-41685700Y5311234D01*
X-41668196Y5399230D01*
X-41668043Y5399999D01*
X-41668043Y5400002D01*
X-39731957Y5400002D01*
X-39731957Y5399999D01*
X-39714301Y5311236D01*
X-39664019Y5235982D01*
X-39626392Y5210841D01*
X-39588766Y5185700D01*
X-39559178Y5179815D01*
X-39500002Y5168043D01*
X-39500000Y5168043D01*
X-39499998Y5168043D01*
X-39455617Y5176872D01*
X-39411234Y5185700D01*
X-39335982Y5235982D01*
X-39285700Y5311234D01*
X-39268196Y5399230D01*
X-39268043Y5399999D01*
X-39268043Y5400002D01*
X-37331957Y5400002D01*
X-37331957Y5399999D01*
X-37314301Y5311236D01*
X-37264019Y5235982D01*
X-37226392Y5210841D01*
X-37188766Y5185700D01*
X-37159178Y5179815D01*
X-37100002Y5168043D01*
X-37100000Y5168043D01*
X-37099998Y5168043D01*
X-37055617Y5176872D01*
X-37011234Y5185700D01*
X-36935982Y5235982D01*
X-36885700Y5311234D01*
X-36868196Y5399230D01*
X-36868043Y5399999D01*
X-36868043Y5400002D01*
X-34131957Y5400002D01*
X-34131957Y5399999D01*
X-34114301Y5311236D01*
X-34064019Y5235982D01*
X-34026392Y5210841D01*
X-33988766Y5185700D01*
X-33959178Y5179815D01*
X-33900002Y5168043D01*
X-33900000Y5168043D01*
X-33899998Y5168043D01*
X-33855617Y5176872D01*
X-33811234Y5185700D01*
X-33735982Y5235982D01*
X-33685700Y5311234D01*
X-33668196Y5399230D01*
X-33668043Y5399999D01*
X-33668043Y5400002D01*
X-32531957Y5400002D01*
X-32531957Y5399999D01*
X-32514301Y5311236D01*
X-32464019Y5235982D01*
X-32426392Y5210841D01*
X-32388766Y5185700D01*
X-32359178Y5179815D01*
X-32300002Y5168043D01*
X-32300000Y5168043D01*
X-32299998Y5168043D01*
X-32255617Y5176872D01*
X-32211234Y5185700D01*
X-32135982Y5235982D01*
X-32085700Y5311234D01*
X-32068196Y5399230D01*
X-32068043Y5399999D01*
X-32068043Y5400002D01*
X-30131957Y5400002D01*
X-30131957Y5399999D01*
X-30114301Y5311236D01*
X-30064019Y5235982D01*
X-30026392Y5210841D01*
X-29988766Y5185700D01*
X-29959178Y5179815D01*
X-29900002Y5168043D01*
X-29900000Y5168043D01*
X-29899998Y5168043D01*
X-29855617Y5176872D01*
X-29811234Y5185700D01*
X-29735982Y5235982D01*
X-29685700Y5311234D01*
X-29668196Y5399230D01*
X-29668043Y5399999D01*
X-29668043Y5400002D01*
X-27731957Y5400002D01*
X-27731957Y5399999D01*
X-27714301Y5311236D01*
X-27664019Y5235982D01*
X-27626392Y5210841D01*
X-27588766Y5185700D01*
X-27559178Y5179815D01*
X-27500002Y5168043D01*
X-27500000Y5168043D01*
X-27499998Y5168043D01*
X-27455617Y5176872D01*
X-27411234Y5185700D01*
X-27335982Y5235982D01*
X-27285700Y5311234D01*
X-27268196Y5399230D01*
X-27268043Y5399999D01*
X-27268043Y5400002D01*
X-25331957Y5400002D01*
X-25331957Y5399999D01*
X-25314301Y5311236D01*
X-25264019Y5235982D01*
X-25226392Y5210841D01*
X-25188766Y5185700D01*
X-25159178Y5179815D01*
X-25100002Y5168043D01*
X-25100000Y5168043D01*
X-25099998Y5168043D01*
X-25055617Y5176872D01*
X-25011234Y5185700D01*
X-24935982Y5235982D01*
X-24885700Y5311234D01*
X-24868196Y5399230D01*
X-24868043Y5399999D01*
X-24868043Y5400002D01*
X-22931957Y5400002D01*
X-22931957Y5399999D01*
X-22914301Y5311236D01*
X-22864019Y5235982D01*
X-22826392Y5210841D01*
X-22788766Y5185700D01*
X-22759178Y5179815D01*
X-22700002Y5168043D01*
X-22700000Y5168043D01*
X-22699998Y5168043D01*
X-22655617Y5176872D01*
X-22611234Y5185700D01*
X-22535982Y5235982D01*
X-22485700Y5311234D01*
X-22468196Y5399230D01*
X-22468043Y5399999D01*
X-22468043Y5400002D01*
X-20531957Y5400002D01*
X-20531957Y5399999D01*
X-20514301Y5311236D01*
X-20464019Y5235982D01*
X-20426392Y5210841D01*
X-20388766Y5185700D01*
X-20359178Y5179815D01*
X-20300002Y5168043D01*
X-20300000Y5168043D01*
X-20299998Y5168043D01*
X-20255617Y5176872D01*
X-20211234Y5185700D01*
X-20135982Y5235982D01*
X-20085700Y5311234D01*
X-20068196Y5399230D01*
X-20068043Y5399999D01*
X-20068043Y5400002D01*
X-18131957Y5400002D01*
X-18131957Y5399999D01*
X-18114301Y5311236D01*
X-18064019Y5235982D01*
X-18026392Y5210841D01*
X-17988766Y5185700D01*
X-17959178Y5179815D01*
X-17900002Y5168043D01*
X-17900000Y5168043D01*
X-17899998Y5168043D01*
X-17855617Y5176872D01*
X-17811234Y5185700D01*
X-17735982Y5235982D01*
X-17685700Y5311234D01*
X-17668196Y5399230D01*
X-17668043Y5399999D01*
X-17668043Y5400002D01*
X-17685700Y5488765D01*
X-17685700Y5488766D01*
X-17710841Y5526392D01*
X-17735982Y5564019D01*
X-17792295Y5601645D01*
X-17811234Y5614300D01*
X-17811235Y5614301D01*
X-17811236Y5614301D01*
X-17899998Y5631957D01*
X-17900002Y5631957D01*
X-17988765Y5614301D01*
X-18064019Y5564019D01*
X-18114301Y5488765D01*
X-18131957Y5400002D01*
X-20068043Y5400002D01*
X-20085700Y5488765D01*
X-20085700Y5488766D01*
X-20110841Y5526392D01*
X-20135982Y5564019D01*
X-20192295Y5601645D01*
X-20211234Y5614300D01*
X-20211235Y5614301D01*
X-20211236Y5614301D01*
X-20299998Y5631957D01*
X-20300002Y5631957D01*
X-20388765Y5614301D01*
X-20464019Y5564019D01*
X-20514301Y5488765D01*
X-20531957Y5400002D01*
X-22468043Y5400002D01*
X-22485700Y5488765D01*
X-22485700Y5488766D01*
X-22510841Y5526392D01*
X-22535982Y5564019D01*
X-22592295Y5601645D01*
X-22611234Y5614300D01*
X-22611235Y5614301D01*
X-22611236Y5614301D01*
X-22699998Y5631957D01*
X-22700002Y5631957D01*
X-22788765Y5614301D01*
X-22864019Y5564019D01*
X-22914301Y5488765D01*
X-22931957Y5400002D01*
X-24868043Y5400002D01*
X-24885700Y5488765D01*
X-24885700Y5488766D01*
X-24910841Y5526392D01*
X-24935982Y5564019D01*
X-24992295Y5601645D01*
X-25011234Y5614300D01*
X-25011235Y5614301D01*
X-25011236Y5614301D01*
X-25099998Y5631957D01*
X-25100002Y5631957D01*
X-25188765Y5614301D01*
X-25264019Y5564019D01*
X-25314301Y5488765D01*
X-25331957Y5400002D01*
X-27268043Y5400002D01*
X-27285700Y5488765D01*
X-27285700Y5488766D01*
X-27310841Y5526392D01*
X-27335982Y5564019D01*
X-27392295Y5601645D01*
X-27411234Y5614300D01*
X-27411235Y5614301D01*
X-27411236Y5614301D01*
X-27499998Y5631957D01*
X-27500002Y5631957D01*
X-27588765Y5614301D01*
X-27664019Y5564019D01*
X-27714301Y5488765D01*
X-27731957Y5400002D01*
X-29668043Y5400002D01*
X-29685700Y5488765D01*
X-29685700Y5488766D01*
X-29710841Y5526392D01*
X-29735982Y5564019D01*
X-29792295Y5601645D01*
X-29811234Y5614300D01*
X-29811235Y5614301D01*
X-29811236Y5614301D01*
X-29899998Y5631957D01*
X-29900002Y5631957D01*
X-29988765Y5614301D01*
X-30064019Y5564019D01*
X-30114301Y5488765D01*
X-30131957Y5400002D01*
X-32068043Y5400002D01*
X-32085700Y5488765D01*
X-32085700Y5488766D01*
X-32110841Y5526392D01*
X-32135982Y5564019D01*
X-32192295Y5601645D01*
X-32211234Y5614300D01*
X-32211235Y5614301D01*
X-32211236Y5614301D01*
X-32299998Y5631957D01*
X-32300002Y5631957D01*
X-32388765Y5614301D01*
X-32464019Y5564019D01*
X-32514301Y5488765D01*
X-32531957Y5400002D01*
X-33668043Y5400002D01*
X-33685700Y5488765D01*
X-33685700Y5488766D01*
X-33710841Y5526392D01*
X-33735982Y5564019D01*
X-33792295Y5601645D01*
X-33811234Y5614300D01*
X-33811235Y5614301D01*
X-33811236Y5614301D01*
X-33899998Y5631957D01*
X-33900002Y5631957D01*
X-33988765Y5614301D01*
X-34064019Y5564019D01*
X-34114301Y5488765D01*
X-34131957Y5400002D01*
X-36868043Y5400002D01*
X-36885700Y5488765D01*
X-36885700Y5488766D01*
X-36910841Y5526392D01*
X-36935982Y5564019D01*
X-36992295Y5601645D01*
X-37011234Y5614300D01*
X-37011235Y5614301D01*
X-37011236Y5614301D01*
X-37099998Y5631957D01*
X-37100002Y5631957D01*
X-37188765Y5614301D01*
X-37264019Y5564019D01*
X-37314301Y5488765D01*
X-37331957Y5400002D01*
X-39268043Y5400002D01*
X-39285700Y5488765D01*
X-39285700Y5488766D01*
X-39310841Y5526392D01*
X-39335982Y5564019D01*
X-39392295Y5601645D01*
X-39411234Y5614300D01*
X-39411235Y5614301D01*
X-39411236Y5614301D01*
X-39499998Y5631957D01*
X-39500002Y5631957D01*
X-39588765Y5614301D01*
X-39664019Y5564019D01*
X-39714301Y5488765D01*
X-39731957Y5400002D01*
X-41668043Y5400002D01*
X-41685700Y5488765D01*
X-41685700Y5488766D01*
X-41710841Y5526392D01*
X-41735982Y5564019D01*
X-41792295Y5601645D01*
X-41811234Y5614300D01*
X-41811235Y5614301D01*
X-41811236Y5614301D01*
X-41899998Y5631957D01*
X-41900002Y5631957D01*
X-41988765Y5614301D01*
X-42064019Y5564019D01*
X-42114301Y5488765D01*
X-42131957Y5400002D01*
X-44068043Y5400002D01*
X-44085700Y5488765D01*
X-44085700Y5488766D01*
X-44110841Y5526392D01*
X-44135982Y5564019D01*
X-44192295Y5601645D01*
X-44211234Y5614300D01*
X-44211235Y5614301D01*
X-44211236Y5614301D01*
X-44299998Y5631957D01*
X-44300002Y5631957D01*
X-44388765Y5614301D01*
X-44464019Y5564019D01*
X-44514301Y5488765D01*
X-44531957Y5400002D01*
X-46468043Y5400002D01*
X-46485700Y5488765D01*
X-46485700Y5488766D01*
X-46510841Y5526392D01*
X-46535982Y5564019D01*
X-46592295Y5601645D01*
X-46611234Y5614300D01*
X-46611235Y5614301D01*
X-46611236Y5614301D01*
X-46699998Y5631957D01*
X-46700002Y5631957D01*
X-46788765Y5614301D01*
X-46864019Y5564019D01*
X-46914301Y5488765D01*
X-46931957Y5400002D01*
X-48868043Y5400002D01*
X-48885700Y5488765D01*
X-48885700Y5488766D01*
X-48910841Y5526392D01*
X-48935982Y5564019D01*
X-48992295Y5601645D01*
X-49011234Y5614300D01*
X-49011235Y5614301D01*
X-49011236Y5614301D01*
X-49099998Y5631957D01*
X-49100002Y5631957D01*
X-49188765Y5614301D01*
X-49264019Y5564019D01*
X-49314301Y5488765D01*
X-49331957Y5400002D01*
X-51268043Y5400002D01*
X-51285700Y5488765D01*
X-51285700Y5488766D01*
X-51310841Y5526392D01*
X-51335982Y5564019D01*
X-51392295Y5601645D01*
X-51411234Y5614300D01*
X-51411235Y5614301D01*
X-51411236Y5614301D01*
X-51499998Y5631957D01*
X-51500002Y5631957D01*
X-51588765Y5614301D01*
X-51664019Y5564019D01*
X-51714301Y5488765D01*
X-51731957Y5400002D01*
X-53668043Y5400002D01*
X-53685700Y5488765D01*
X-53685700Y5488766D01*
X-53710841Y5526392D01*
X-53735982Y5564019D01*
X-53792295Y5601645D01*
X-53811234Y5614300D01*
X-53811235Y5614301D01*
X-53811236Y5614301D01*
X-53899998Y5631957D01*
X-53900002Y5631957D01*
X-53988765Y5614301D01*
X-54064019Y5564019D01*
X-54114301Y5488765D01*
X-54131957Y5400002D01*
X-54468043Y5400002D01*
X-54485700Y5488765D01*
X-54485700Y5488766D01*
X-54510841Y5526392D01*
X-54535982Y5564019D01*
X-54592295Y5601645D01*
X-54611234Y5614300D01*
X-54611235Y5614301D01*
X-54611236Y5614301D01*
X-54699998Y5631957D01*
X-54700002Y5631957D01*
X-54788765Y5614301D01*
X-54864019Y5564019D01*
X-54914301Y5488765D01*
X-54931957Y5400002D01*
X-56868043Y5400002D01*
X-56885700Y5488765D01*
X-56885700Y5488766D01*
X-56910841Y5526392D01*
X-56935982Y5564019D01*
X-56992295Y5601645D01*
X-57011234Y5614300D01*
X-57011235Y5614301D01*
X-57011236Y5614301D01*
X-57099998Y5631957D01*
X-57100002Y5631957D01*
X-57188765Y5614301D01*
X-57264019Y5564019D01*
X-57314301Y5488765D01*
X-57331957Y5400002D01*
X-58412618Y5400002D01*
X-59212618Y6200002D01*
X-57331957Y6200002D01*
X-57331957Y6199999D01*
X-57314301Y6111236D01*
X-57264019Y6035982D01*
X-57235123Y6016675D01*
X-57188766Y5985700D01*
X-57159178Y5979815D01*
X-57100002Y5968043D01*
X-57100000Y5968043D01*
X-57099998Y5968043D01*
X-57055617Y5976872D01*
X-57011234Y5985700D01*
X-56935982Y6035982D01*
X-56885700Y6111234D01*
X-56868043Y6200000D01*
X-56868043Y6200002D01*
X-54931957Y6200002D01*
X-54931957Y6199999D01*
X-54914301Y6111236D01*
X-54864019Y6035982D01*
X-54835123Y6016675D01*
X-54788766Y5985700D01*
X-54759178Y5979815D01*
X-54700002Y5968043D01*
X-54700000Y5968043D01*
X-54699998Y5968043D01*
X-54655617Y5976872D01*
X-54611234Y5985700D01*
X-54535982Y6035982D01*
X-54485700Y6111234D01*
X-54468043Y6200000D01*
X-54468043Y6200002D01*
X-54131957Y6200002D01*
X-54131957Y6199999D01*
X-54114301Y6111236D01*
X-54064019Y6035982D01*
X-54035123Y6016675D01*
X-53988766Y5985700D01*
X-53959178Y5979815D01*
X-53900002Y5968043D01*
X-53900000Y5968043D01*
X-53899998Y5968043D01*
X-53855617Y5976872D01*
X-53811234Y5985700D01*
X-53735982Y6035982D01*
X-53685700Y6111234D01*
X-53668043Y6200000D01*
X-53668043Y6200002D01*
X-51731957Y6200002D01*
X-51731957Y6199999D01*
X-51714301Y6111236D01*
X-51664019Y6035982D01*
X-51635123Y6016675D01*
X-51588766Y5985700D01*
X-51559178Y5979815D01*
X-51500002Y5968043D01*
X-51500000Y5968043D01*
X-51499998Y5968043D01*
X-51455617Y5976872D01*
X-51411234Y5985700D01*
X-51335982Y6035982D01*
X-51285700Y6111234D01*
X-51268043Y6200000D01*
X-51268043Y6200002D01*
X-49331957Y6200002D01*
X-49331957Y6199999D01*
X-49314301Y6111236D01*
X-49264019Y6035982D01*
X-49235123Y6016675D01*
X-49188766Y5985700D01*
X-49159178Y5979815D01*
X-49100002Y5968043D01*
X-49100000Y5968043D01*
X-49099998Y5968043D01*
X-49055617Y5976872D01*
X-49011234Y5985700D01*
X-48935982Y6035982D01*
X-48885700Y6111234D01*
X-48868043Y6200000D01*
X-48868043Y6200002D01*
X-46931957Y6200002D01*
X-46931957Y6199999D01*
X-46914301Y6111236D01*
X-46864019Y6035982D01*
X-46835123Y6016675D01*
X-46788766Y5985700D01*
X-46759178Y5979815D01*
X-46700002Y5968043D01*
X-46700000Y5968043D01*
X-46699998Y5968043D01*
X-46655617Y5976872D01*
X-46611234Y5985700D01*
X-46535982Y6035982D01*
X-46485700Y6111234D01*
X-46468043Y6200000D01*
X-46468043Y6200002D01*
X-44531957Y6200002D01*
X-44531957Y6199999D01*
X-44514301Y6111236D01*
X-44464019Y6035982D01*
X-44435123Y6016675D01*
X-44388766Y5985700D01*
X-44359178Y5979815D01*
X-44300002Y5968043D01*
X-44300000Y5968043D01*
X-44299998Y5968043D01*
X-44255617Y5976872D01*
X-44211234Y5985700D01*
X-44135982Y6035982D01*
X-44085700Y6111234D01*
X-44068043Y6200000D01*
X-44068043Y6200002D01*
X-42131957Y6200002D01*
X-42131957Y6199999D01*
X-42114301Y6111236D01*
X-42064019Y6035982D01*
X-42035123Y6016675D01*
X-41988766Y5985700D01*
X-41959178Y5979815D01*
X-41900002Y5968043D01*
X-41900000Y5968043D01*
X-41899998Y5968043D01*
X-41855617Y5976872D01*
X-41811234Y5985700D01*
X-41735982Y6035982D01*
X-41685700Y6111234D01*
X-41668043Y6200000D01*
X-41668043Y6200002D01*
X-39731957Y6200002D01*
X-39731957Y6199999D01*
X-39714301Y6111236D01*
X-39664019Y6035982D01*
X-39635123Y6016675D01*
X-39588766Y5985700D01*
X-39559178Y5979815D01*
X-39500002Y5968043D01*
X-39500000Y5968043D01*
X-39499998Y5968043D01*
X-39455617Y5976872D01*
X-39411234Y5985700D01*
X-39335982Y6035982D01*
X-39285700Y6111234D01*
X-39268043Y6200000D01*
X-39268043Y6200002D01*
X-37331957Y6200002D01*
X-37331957Y6199999D01*
X-37314301Y6111236D01*
X-37264019Y6035982D01*
X-37235123Y6016675D01*
X-37188766Y5985700D01*
X-37159178Y5979815D01*
X-37100002Y5968043D01*
X-37100000Y5968043D01*
X-37099998Y5968043D01*
X-37055617Y5976872D01*
X-37011234Y5985700D01*
X-36935982Y6035982D01*
X-36885700Y6111234D01*
X-36868043Y6200000D01*
X-36868043Y6200002D01*
X-34131957Y6200002D01*
X-34131957Y6199999D01*
X-34114301Y6111236D01*
X-34064019Y6035982D01*
X-34035123Y6016675D01*
X-33988766Y5985700D01*
X-33959178Y5979815D01*
X-33900002Y5968043D01*
X-33900000Y5968043D01*
X-33899998Y5968043D01*
X-33855617Y5976872D01*
X-33811234Y5985700D01*
X-33735982Y6035982D01*
X-33685700Y6111234D01*
X-33668043Y6200000D01*
X-33668043Y6200002D01*
X-32531957Y6200002D01*
X-32531957Y6199999D01*
X-32514301Y6111236D01*
X-32464019Y6035982D01*
X-32435123Y6016675D01*
X-32388766Y5985700D01*
X-32359178Y5979815D01*
X-32300002Y5968043D01*
X-32300000Y5968043D01*
X-32299998Y5968043D01*
X-32255617Y5976872D01*
X-32211234Y5985700D01*
X-32135982Y6035982D01*
X-32085700Y6111234D01*
X-32068043Y6200000D01*
X-32068043Y6200002D01*
X-30131957Y6200002D01*
X-30131957Y6199999D01*
X-30114301Y6111236D01*
X-30064019Y6035982D01*
X-30035123Y6016675D01*
X-29988766Y5985700D01*
X-29959178Y5979815D01*
X-29900002Y5968043D01*
X-29900000Y5968043D01*
X-29899998Y5968043D01*
X-29855617Y5976872D01*
X-29811234Y5985700D01*
X-29735982Y6035982D01*
X-29685700Y6111234D01*
X-29668043Y6200000D01*
X-29668043Y6200002D01*
X-27731957Y6200002D01*
X-27731957Y6199999D01*
X-27714301Y6111236D01*
X-27664019Y6035982D01*
X-27635123Y6016675D01*
X-27588766Y5985700D01*
X-27559178Y5979815D01*
X-27500002Y5968043D01*
X-27500000Y5968043D01*
X-27499998Y5968043D01*
X-27455617Y5976872D01*
X-27411234Y5985700D01*
X-27335982Y6035982D01*
X-27285700Y6111234D01*
X-27268043Y6200000D01*
X-27268043Y6200002D01*
X-25331957Y6200002D01*
X-25331957Y6199999D01*
X-25314301Y6111236D01*
X-25264019Y6035982D01*
X-25235123Y6016675D01*
X-25188766Y5985700D01*
X-25159178Y5979815D01*
X-25100002Y5968043D01*
X-25100000Y5968043D01*
X-25099998Y5968043D01*
X-25055617Y5976872D01*
X-25011234Y5985700D01*
X-24935982Y6035982D01*
X-24885700Y6111234D01*
X-24868043Y6200000D01*
X-24868043Y6200002D01*
X-22931957Y6200002D01*
X-22931957Y6199999D01*
X-22914301Y6111236D01*
X-22864019Y6035982D01*
X-22835123Y6016675D01*
X-22788766Y5985700D01*
X-22759178Y5979815D01*
X-22700002Y5968043D01*
X-22700000Y5968043D01*
X-22699998Y5968043D01*
X-22655617Y5976872D01*
X-22611234Y5985700D01*
X-22535982Y6035982D01*
X-22485700Y6111234D01*
X-22468043Y6200000D01*
X-22468043Y6200002D01*
X-20531957Y6200002D01*
X-20531957Y6199999D01*
X-20514301Y6111236D01*
X-20464019Y6035982D01*
X-20435123Y6016675D01*
X-20388766Y5985700D01*
X-20359178Y5979815D01*
X-20300002Y5968043D01*
X-20300000Y5968043D01*
X-20299998Y5968043D01*
X-20255617Y5976872D01*
X-20211234Y5985700D01*
X-20135982Y6035982D01*
X-20085700Y6111234D01*
X-20068043Y6200000D01*
X-20068043Y6200002D01*
X-18131957Y6200002D01*
X-18131957Y6199999D01*
X-18114301Y6111236D01*
X-18064019Y6035982D01*
X-18035123Y6016675D01*
X-17988766Y5985700D01*
X-17959178Y5979815D01*
X-17900002Y5968043D01*
X-17900000Y5968043D01*
X-17899998Y5968043D01*
X-17855617Y5976872D01*
X-17811234Y5985700D01*
X-17735982Y6035982D01*
X-17685700Y6111234D01*
X-17668043Y6200000D01*
X-17685700Y6288766D01*
X-17710841Y6326392D01*
X-17735982Y6364019D01*
X-17792295Y6401645D01*
X-17811234Y6414300D01*
X-17811235Y6414301D01*
X-17811236Y6414301D01*
X-17899998Y6431957D01*
X-17900002Y6431957D01*
X-17988765Y6414301D01*
X-18064019Y6364019D01*
X-18114301Y6288765D01*
X-18131957Y6200002D01*
X-20068043Y6200002D01*
X-20085700Y6288766D01*
X-20110841Y6326392D01*
X-20135982Y6364019D01*
X-20192295Y6401645D01*
X-20211234Y6414300D01*
X-20211235Y6414301D01*
X-20211236Y6414301D01*
X-20299998Y6431957D01*
X-20300002Y6431957D01*
X-20388765Y6414301D01*
X-20464019Y6364019D01*
X-20514301Y6288765D01*
X-20531957Y6200002D01*
X-22468043Y6200002D01*
X-22485700Y6288766D01*
X-22510841Y6326392D01*
X-22535982Y6364019D01*
X-22592295Y6401645D01*
X-22611234Y6414300D01*
X-22611235Y6414301D01*
X-22611236Y6414301D01*
X-22699998Y6431957D01*
X-22700002Y6431957D01*
X-22788765Y6414301D01*
X-22864019Y6364019D01*
X-22914301Y6288765D01*
X-22931957Y6200002D01*
X-24868043Y6200002D01*
X-24885700Y6288766D01*
X-24910841Y6326392D01*
X-24935982Y6364019D01*
X-24992295Y6401645D01*
X-25011234Y6414300D01*
X-25011235Y6414301D01*
X-25011236Y6414301D01*
X-25099998Y6431957D01*
X-25100002Y6431957D01*
X-25188765Y6414301D01*
X-25264019Y6364019D01*
X-25314301Y6288765D01*
X-25331957Y6200002D01*
X-27268043Y6200002D01*
X-27285700Y6288766D01*
X-27310841Y6326392D01*
X-27335982Y6364019D01*
X-27392295Y6401645D01*
X-27411234Y6414300D01*
X-27411235Y6414301D01*
X-27411236Y6414301D01*
X-27499998Y6431957D01*
X-27500002Y6431957D01*
X-27588765Y6414301D01*
X-27664019Y6364019D01*
X-27714301Y6288765D01*
X-27731957Y6200002D01*
X-29668043Y6200002D01*
X-29685700Y6288766D01*
X-29710841Y6326392D01*
X-29735982Y6364019D01*
X-29792295Y6401645D01*
X-29811234Y6414300D01*
X-29811235Y6414301D01*
X-29811236Y6414301D01*
X-29899998Y6431957D01*
X-29900002Y6431957D01*
X-29988765Y6414301D01*
X-30064019Y6364019D01*
X-30114301Y6288765D01*
X-30131957Y6200002D01*
X-32068043Y6200002D01*
X-32085700Y6288766D01*
X-32110841Y6326392D01*
X-32135982Y6364019D01*
X-32192295Y6401645D01*
X-32211234Y6414300D01*
X-32211235Y6414301D01*
X-32211236Y6414301D01*
X-32299998Y6431957D01*
X-32300002Y6431957D01*
X-32388765Y6414301D01*
X-32464019Y6364019D01*
X-32514301Y6288765D01*
X-32531957Y6200002D01*
X-33668043Y6200002D01*
X-33685700Y6288766D01*
X-33710841Y6326392D01*
X-33735982Y6364019D01*
X-33792295Y6401645D01*
X-33811234Y6414300D01*
X-33811235Y6414301D01*
X-33811236Y6414301D01*
X-33899998Y6431957D01*
X-33900002Y6431957D01*
X-33988765Y6414301D01*
X-34064019Y6364019D01*
X-34114301Y6288765D01*
X-34131957Y6200002D01*
X-36868043Y6200002D01*
X-36885700Y6288766D01*
X-36910841Y6326392D01*
X-36935982Y6364019D01*
X-36992295Y6401645D01*
X-37011234Y6414300D01*
X-37011235Y6414301D01*
X-37011236Y6414301D01*
X-37099998Y6431957D01*
X-37100002Y6431957D01*
X-37188765Y6414301D01*
X-37264019Y6364019D01*
X-37314301Y6288765D01*
X-37331957Y6200002D01*
X-39268043Y6200002D01*
X-39285700Y6288766D01*
X-39310841Y6326392D01*
X-39335982Y6364019D01*
X-39392295Y6401645D01*
X-39411234Y6414300D01*
X-39411235Y6414301D01*
X-39411236Y6414301D01*
X-39499998Y6431957D01*
X-39500002Y6431957D01*
X-39588765Y6414301D01*
X-39664019Y6364019D01*
X-39714301Y6288765D01*
X-39731957Y6200002D01*
X-41668043Y6200002D01*
X-41685700Y6288766D01*
X-41710841Y6326392D01*
X-41735982Y6364019D01*
X-41792295Y6401645D01*
X-41811234Y6414300D01*
X-41811235Y6414301D01*
X-41811236Y6414301D01*
X-41899998Y6431957D01*
X-41900002Y6431957D01*
X-41988765Y6414301D01*
X-42064019Y6364019D01*
X-42114301Y6288765D01*
X-42131957Y6200002D01*
X-44068043Y6200002D01*
X-44085700Y6288766D01*
X-44110841Y6326392D01*
X-44135982Y6364019D01*
X-44192295Y6401645D01*
X-44211234Y6414300D01*
X-44211235Y6414301D01*
X-44211236Y6414301D01*
X-44299998Y6431957D01*
X-44300002Y6431957D01*
X-44388765Y6414301D01*
X-44464019Y6364019D01*
X-44514301Y6288765D01*
X-44531957Y6200002D01*
X-46468043Y6200002D01*
X-46485700Y6288766D01*
X-46510841Y6326392D01*
X-46535982Y6364019D01*
X-46592295Y6401645D01*
X-46611234Y6414300D01*
X-46611235Y6414301D01*
X-46611236Y6414301D01*
X-46699998Y6431957D01*
X-46700002Y6431957D01*
X-46788765Y6414301D01*
X-46864019Y6364019D01*
X-46914301Y6288765D01*
X-46931957Y6200002D01*
X-48868043Y6200002D01*
X-48885700Y6288766D01*
X-48910841Y6326392D01*
X-48935982Y6364019D01*
X-48992295Y6401645D01*
X-49011234Y6414300D01*
X-49011235Y6414301D01*
X-49011236Y6414301D01*
X-49099998Y6431957D01*
X-49100002Y6431957D01*
X-49188765Y6414301D01*
X-49264019Y6364019D01*
X-49314301Y6288765D01*
X-49331957Y6200002D01*
X-51268043Y6200002D01*
X-51285700Y6288766D01*
X-51310841Y6326392D01*
X-51335982Y6364019D01*
X-51392295Y6401645D01*
X-51411234Y6414300D01*
X-51411235Y6414301D01*
X-51411236Y6414301D01*
X-51499998Y6431957D01*
X-51500002Y6431957D01*
X-51588765Y6414301D01*
X-51664019Y6364019D01*
X-51714301Y6288765D01*
X-51731957Y6200002D01*
X-53668043Y6200002D01*
X-53685700Y6288766D01*
X-53710841Y6326392D01*
X-53735982Y6364019D01*
X-53792295Y6401645D01*
X-53811234Y6414300D01*
X-53811235Y6414301D01*
X-53811236Y6414301D01*
X-53899998Y6431957D01*
X-53900002Y6431957D01*
X-53988765Y6414301D01*
X-54064019Y6364019D01*
X-54114301Y6288765D01*
X-54131957Y6200002D01*
X-54468043Y6200002D01*
X-54485700Y6288766D01*
X-54510841Y6326392D01*
X-54535982Y6364019D01*
X-54592295Y6401645D01*
X-54611234Y6414300D01*
X-54611235Y6414301D01*
X-54611236Y6414301D01*
X-54699998Y6431957D01*
X-54700002Y6431957D01*
X-54788765Y6414301D01*
X-54864019Y6364019D01*
X-54914301Y6288765D01*
X-54931957Y6200002D01*
X-56868043Y6200002D01*
X-56885700Y6288766D01*
X-56910841Y6326392D01*
X-56935982Y6364019D01*
X-56992295Y6401645D01*
X-57011234Y6414300D01*
X-57011235Y6414301D01*
X-57011236Y6414301D01*
X-57099998Y6431957D01*
X-57100002Y6431957D01*
X-57188765Y6414301D01*
X-57264019Y6364019D01*
X-57314301Y6288765D01*
X-57331957Y6200002D01*
X-59212618Y6200002D01*
X-60012618Y7000002D01*
X-57331957Y7000002D01*
X-57331957Y6999999D01*
X-57314301Y6911236D01*
X-57264019Y6835982D01*
X-57226392Y6810841D01*
X-57188766Y6785700D01*
X-57159178Y6779815D01*
X-57100002Y6768043D01*
X-57100000Y6768043D01*
X-57099998Y6768043D01*
X-57055617Y6776872D01*
X-57011234Y6785700D01*
X-56935982Y6835982D01*
X-56885700Y6911234D01*
X-56868043Y7000000D01*
X-56868043Y7000002D01*
X-54931957Y7000002D01*
X-54931957Y6999999D01*
X-54914301Y6911236D01*
X-54864019Y6835982D01*
X-54826392Y6810841D01*
X-54788766Y6785700D01*
X-54759178Y6779815D01*
X-54700002Y6768043D01*
X-54700000Y6768043D01*
X-54699998Y6768043D01*
X-54655617Y6776872D01*
X-54611234Y6785700D01*
X-54535982Y6835982D01*
X-54485700Y6911234D01*
X-54468043Y7000000D01*
X-54468043Y7000002D01*
X-54131957Y7000002D01*
X-54131957Y6999999D01*
X-54114301Y6911236D01*
X-54064019Y6835982D01*
X-54026392Y6810841D01*
X-53988766Y6785700D01*
X-53959178Y6779815D01*
X-53900002Y6768043D01*
X-53900000Y6768043D01*
X-53899998Y6768043D01*
X-53855617Y6776872D01*
X-53811234Y6785700D01*
X-53735982Y6835982D01*
X-53685700Y6911234D01*
X-53668043Y7000000D01*
X-53668043Y7000002D01*
X-51731957Y7000002D01*
X-51731957Y6999999D01*
X-51714301Y6911236D01*
X-51664019Y6835982D01*
X-51626392Y6810841D01*
X-51588766Y6785700D01*
X-51559178Y6779815D01*
X-51500002Y6768043D01*
X-51500000Y6768043D01*
X-51499998Y6768043D01*
X-51455617Y6776872D01*
X-51411234Y6785700D01*
X-51335982Y6835982D01*
X-51285700Y6911234D01*
X-51268043Y7000000D01*
X-51268043Y7000002D01*
X-49331957Y7000002D01*
X-49331957Y6999999D01*
X-49314301Y6911236D01*
X-49264019Y6835982D01*
X-49226392Y6810841D01*
X-49188766Y6785700D01*
X-49159178Y6779815D01*
X-49100002Y6768043D01*
X-49100000Y6768043D01*
X-49099998Y6768043D01*
X-49055617Y6776872D01*
X-49011234Y6785700D01*
X-48935982Y6835982D01*
X-48885700Y6911234D01*
X-48868043Y7000000D01*
X-48868043Y7000002D01*
X-46931957Y7000002D01*
X-46931957Y6999999D01*
X-46914301Y6911236D01*
X-46864019Y6835982D01*
X-46826392Y6810841D01*
X-46788766Y6785700D01*
X-46759178Y6779815D01*
X-46700002Y6768043D01*
X-46700000Y6768043D01*
X-46699998Y6768043D01*
X-46655617Y6776872D01*
X-46611234Y6785700D01*
X-46535982Y6835982D01*
X-46485700Y6911234D01*
X-46468043Y7000000D01*
X-46468043Y7000002D01*
X-44531957Y7000002D01*
X-44531957Y6999999D01*
X-44514301Y6911236D01*
X-44464019Y6835982D01*
X-44426392Y6810841D01*
X-44388766Y6785700D01*
X-44359178Y6779815D01*
X-44300002Y6768043D01*
X-44300000Y6768043D01*
X-44299998Y6768043D01*
X-44255617Y6776872D01*
X-44211234Y6785700D01*
X-44135982Y6835982D01*
X-44085700Y6911234D01*
X-44068043Y7000000D01*
X-44068043Y7000002D01*
X-42131957Y7000002D01*
X-42131957Y6999999D01*
X-42114301Y6911236D01*
X-42064019Y6835982D01*
X-42026392Y6810841D01*
X-41988766Y6785700D01*
X-41959178Y6779815D01*
X-41900002Y6768043D01*
X-41900000Y6768043D01*
X-41899998Y6768043D01*
X-41855617Y6776872D01*
X-41811234Y6785700D01*
X-41735982Y6835982D01*
X-41685700Y6911234D01*
X-41668043Y7000000D01*
X-41668043Y7000002D01*
X-39731957Y7000002D01*
X-39731957Y6999999D01*
X-39714301Y6911236D01*
X-39664019Y6835982D01*
X-39626392Y6810841D01*
X-39588766Y6785700D01*
X-39559178Y6779815D01*
X-39500002Y6768043D01*
X-39500000Y6768043D01*
X-39499998Y6768043D01*
X-39455617Y6776872D01*
X-39411234Y6785700D01*
X-39335982Y6835982D01*
X-39285700Y6911234D01*
X-39268043Y7000000D01*
X-39268043Y7000002D01*
X-37331957Y7000002D01*
X-37331957Y6999999D01*
X-37314301Y6911236D01*
X-37264019Y6835982D01*
X-37226392Y6810841D01*
X-37188766Y6785700D01*
X-37159178Y6779815D01*
X-37100002Y6768043D01*
X-37100000Y6768043D01*
X-37099998Y6768043D01*
X-37055617Y6776872D01*
X-37011234Y6785700D01*
X-36935982Y6835982D01*
X-36885700Y6911234D01*
X-36868043Y7000000D01*
X-36868043Y7000002D01*
X-34131957Y7000002D01*
X-34131957Y6999999D01*
X-34114301Y6911236D01*
X-34064019Y6835982D01*
X-34026392Y6810841D01*
X-33988766Y6785700D01*
X-33959178Y6779815D01*
X-33900002Y6768043D01*
X-33900000Y6768043D01*
X-33899998Y6768043D01*
X-33855617Y6776872D01*
X-33811234Y6785700D01*
X-33735982Y6835982D01*
X-33685700Y6911234D01*
X-33668043Y7000000D01*
X-33668043Y7000002D01*
X-32531957Y7000002D01*
X-32531957Y6999999D01*
X-32514301Y6911236D01*
X-32464019Y6835982D01*
X-32426392Y6810841D01*
X-32388766Y6785700D01*
X-32359178Y6779815D01*
X-32300002Y6768043D01*
X-32300000Y6768043D01*
X-32299998Y6768043D01*
X-32255617Y6776872D01*
X-32211234Y6785700D01*
X-32135982Y6835982D01*
X-32085700Y6911234D01*
X-32068043Y7000000D01*
X-32068043Y7000002D01*
X-30131957Y7000002D01*
X-30131957Y6999999D01*
X-30114301Y6911236D01*
X-30064019Y6835982D01*
X-30026392Y6810841D01*
X-29988766Y6785700D01*
X-29959178Y6779815D01*
X-29900002Y6768043D01*
X-29900000Y6768043D01*
X-29899998Y6768043D01*
X-29855617Y6776872D01*
X-29811234Y6785700D01*
X-29735982Y6835982D01*
X-29685700Y6911234D01*
X-29668043Y7000000D01*
X-29668043Y7000002D01*
X-27731957Y7000002D01*
X-27731957Y6999999D01*
X-27714301Y6911236D01*
X-27664019Y6835982D01*
X-27626392Y6810841D01*
X-27588766Y6785700D01*
X-27559178Y6779815D01*
X-27500002Y6768043D01*
X-27500000Y6768043D01*
X-27499998Y6768043D01*
X-27455617Y6776872D01*
X-27411234Y6785700D01*
X-27335982Y6835982D01*
X-27285700Y6911234D01*
X-27268043Y7000000D01*
X-27268043Y7000002D01*
X-25331957Y7000002D01*
X-25331957Y6999999D01*
X-25314301Y6911236D01*
X-25264019Y6835982D01*
X-25226392Y6810841D01*
X-25188766Y6785700D01*
X-25159178Y6779815D01*
X-25100002Y6768043D01*
X-25100000Y6768043D01*
X-25099998Y6768043D01*
X-25055617Y6776872D01*
X-25011234Y6785700D01*
X-24935982Y6835982D01*
X-24885700Y6911234D01*
X-24868043Y7000000D01*
X-24868043Y7000002D01*
X-22931957Y7000002D01*
X-22931957Y6999999D01*
X-22914301Y6911236D01*
X-22864019Y6835982D01*
X-22826392Y6810841D01*
X-22788766Y6785700D01*
X-22759178Y6779815D01*
X-22700002Y6768043D01*
X-22700000Y6768043D01*
X-22699998Y6768043D01*
X-22655617Y6776872D01*
X-22611234Y6785700D01*
X-22535982Y6835982D01*
X-22485700Y6911234D01*
X-22468043Y7000000D01*
X-22468043Y7000002D01*
X-20531957Y7000002D01*
X-20531957Y6999999D01*
X-20514301Y6911236D01*
X-20464019Y6835982D01*
X-20426392Y6810841D01*
X-20388766Y6785700D01*
X-20359178Y6779815D01*
X-20300002Y6768043D01*
X-20300000Y6768043D01*
X-20299998Y6768043D01*
X-20255617Y6776872D01*
X-20211234Y6785700D01*
X-20135982Y6835982D01*
X-20085700Y6911234D01*
X-20068043Y7000000D01*
X-20068043Y7000002D01*
X-18131957Y7000002D01*
X-18131957Y6999999D01*
X-18114301Y6911236D01*
X-18064019Y6835982D01*
X-18026392Y6810841D01*
X-17988766Y6785700D01*
X-17959178Y6779815D01*
X-17900002Y6768043D01*
X-17900000Y6768043D01*
X-17899998Y6768043D01*
X-17855617Y6776872D01*
X-17811234Y6785700D01*
X-17735982Y6835982D01*
X-17685700Y6911234D01*
X-17668043Y7000000D01*
X-17674349Y7031700D01*
X-17685700Y7088765D01*
X-17685700Y7088766D01*
X-17718687Y7138135D01*
X-17735982Y7164019D01*
X-17792295Y7201645D01*
X-17811234Y7214300D01*
X-17811235Y7214301D01*
X-17811236Y7214301D01*
X-17899998Y7231957D01*
X-17900002Y7231957D01*
X-17988765Y7214301D01*
X-18064019Y7164019D01*
X-18114301Y7088765D01*
X-18131957Y7000002D01*
X-20068043Y7000002D01*
X-20074349Y7031700D01*
X-20085700Y7088765D01*
X-20085700Y7088766D01*
X-20118687Y7138135D01*
X-20135982Y7164019D01*
X-20192295Y7201645D01*
X-20211234Y7214300D01*
X-20211235Y7214301D01*
X-20211236Y7214301D01*
X-20299998Y7231957D01*
X-20300002Y7231957D01*
X-20388765Y7214301D01*
X-20464019Y7164019D01*
X-20514301Y7088765D01*
X-20531957Y7000002D01*
X-22468043Y7000002D01*
X-22474349Y7031700D01*
X-22485700Y7088765D01*
X-22485700Y7088766D01*
X-22518687Y7138135D01*
X-22535982Y7164019D01*
X-22592295Y7201645D01*
X-22611234Y7214300D01*
X-22611235Y7214301D01*
X-22611236Y7214301D01*
X-22699998Y7231957D01*
X-22700002Y7231957D01*
X-22788765Y7214301D01*
X-22864019Y7164019D01*
X-22914301Y7088765D01*
X-22931957Y7000002D01*
X-24868043Y7000002D01*
X-24874349Y7031700D01*
X-24885700Y7088765D01*
X-24885700Y7088766D01*
X-24918687Y7138135D01*
X-24935982Y7164019D01*
X-24992295Y7201645D01*
X-25011234Y7214300D01*
X-25011235Y7214301D01*
X-25011236Y7214301D01*
X-25099998Y7231957D01*
X-25100002Y7231957D01*
X-25188765Y7214301D01*
X-25264019Y7164019D01*
X-25314301Y7088765D01*
X-25331957Y7000002D01*
X-27268043Y7000002D01*
X-27274349Y7031700D01*
X-27285700Y7088765D01*
X-27285700Y7088766D01*
X-27318687Y7138135D01*
X-27335982Y7164019D01*
X-27392295Y7201645D01*
X-27411234Y7214300D01*
X-27411235Y7214301D01*
X-27411236Y7214301D01*
X-27499998Y7231957D01*
X-27500002Y7231957D01*
X-27588765Y7214301D01*
X-27664019Y7164019D01*
X-27714301Y7088765D01*
X-27731957Y7000002D01*
X-29668043Y7000002D01*
X-29674349Y7031700D01*
X-29685700Y7088765D01*
X-29685700Y7088766D01*
X-29718687Y7138135D01*
X-29735982Y7164019D01*
X-29792295Y7201645D01*
X-29811234Y7214300D01*
X-29811235Y7214301D01*
X-29811236Y7214301D01*
X-29899998Y7231957D01*
X-29900002Y7231957D01*
X-29988765Y7214301D01*
X-30064019Y7164019D01*
X-30114301Y7088765D01*
X-30131957Y7000002D01*
X-32068043Y7000002D01*
X-32074349Y7031700D01*
X-32085700Y7088765D01*
X-32085700Y7088766D01*
X-32118687Y7138135D01*
X-32135982Y7164019D01*
X-32192295Y7201645D01*
X-32211234Y7214300D01*
X-32211235Y7214301D01*
X-32211236Y7214301D01*
X-32299998Y7231957D01*
X-32300002Y7231957D01*
X-32388765Y7214301D01*
X-32464019Y7164019D01*
X-32514301Y7088765D01*
X-32531957Y7000002D01*
X-33668043Y7000002D01*
X-33674349Y7031700D01*
X-33685700Y7088765D01*
X-33685700Y7088766D01*
X-33718687Y7138135D01*
X-33735982Y7164019D01*
X-33792295Y7201645D01*
X-33811234Y7214300D01*
X-33811235Y7214301D01*
X-33811236Y7214301D01*
X-33899998Y7231957D01*
X-33900002Y7231957D01*
X-33988765Y7214301D01*
X-34064019Y7164019D01*
X-34114301Y7088765D01*
X-34131957Y7000002D01*
X-36868043Y7000002D01*
X-36874349Y7031700D01*
X-36885700Y7088765D01*
X-36885700Y7088766D01*
X-36918687Y7138135D01*
X-36935982Y7164019D01*
X-36992295Y7201645D01*
X-37011234Y7214300D01*
X-37011235Y7214301D01*
X-37011236Y7214301D01*
X-37099998Y7231957D01*
X-37100002Y7231957D01*
X-37188765Y7214301D01*
X-37264019Y7164019D01*
X-37314301Y7088765D01*
X-37331957Y7000002D01*
X-39268043Y7000002D01*
X-39274349Y7031700D01*
X-39285700Y7088765D01*
X-39285700Y7088766D01*
X-39318687Y7138135D01*
X-39335982Y7164019D01*
X-39392295Y7201645D01*
X-39411234Y7214300D01*
X-39411235Y7214301D01*
X-39411236Y7214301D01*
X-39499998Y7231957D01*
X-39500002Y7231957D01*
X-39588765Y7214301D01*
X-39664019Y7164019D01*
X-39714301Y7088765D01*
X-39731957Y7000002D01*
X-41668043Y7000002D01*
X-41674349Y7031700D01*
X-41685700Y7088765D01*
X-41685700Y7088766D01*
X-41718687Y7138135D01*
X-41735982Y7164019D01*
X-41792295Y7201645D01*
X-41811234Y7214300D01*
X-41811235Y7214301D01*
X-41811236Y7214301D01*
X-41899998Y7231957D01*
X-41900002Y7231957D01*
X-41988765Y7214301D01*
X-42064019Y7164019D01*
X-42114301Y7088765D01*
X-42131957Y7000002D01*
X-44068043Y7000002D01*
X-44074349Y7031700D01*
X-44085700Y7088765D01*
X-44085700Y7088766D01*
X-44118687Y7138135D01*
X-44135982Y7164019D01*
X-44192295Y7201645D01*
X-44211234Y7214300D01*
X-44211235Y7214301D01*
X-44211236Y7214301D01*
X-44299998Y7231957D01*
X-44300002Y7231957D01*
X-44388765Y7214301D01*
X-44464019Y7164019D01*
X-44514301Y7088765D01*
X-44531957Y7000002D01*
X-46468043Y7000002D01*
X-46474349Y7031700D01*
X-46485700Y7088765D01*
X-46485700Y7088766D01*
X-46518687Y7138135D01*
X-46535982Y7164019D01*
X-46592295Y7201645D01*
X-46611234Y7214300D01*
X-46611235Y7214301D01*
X-46611236Y7214301D01*
X-46699998Y7231957D01*
X-46700002Y7231957D01*
X-46788765Y7214301D01*
X-46864019Y7164019D01*
X-46914301Y7088765D01*
X-46931957Y7000002D01*
X-48868043Y7000002D01*
X-48874349Y7031700D01*
X-48885700Y7088765D01*
X-48885700Y7088766D01*
X-48918687Y7138135D01*
X-48935982Y7164019D01*
X-48992295Y7201645D01*
X-49011234Y7214300D01*
X-49011235Y7214301D01*
X-49011236Y7214301D01*
X-49099998Y7231957D01*
X-49100002Y7231957D01*
X-49188765Y7214301D01*
X-49264019Y7164019D01*
X-49314301Y7088765D01*
X-49331957Y7000002D01*
X-51268043Y7000002D01*
X-51274349Y7031700D01*
X-51285700Y7088765D01*
X-51285700Y7088766D01*
X-51318687Y7138135D01*
X-51335982Y7164019D01*
X-51392295Y7201645D01*
X-51411234Y7214300D01*
X-51411235Y7214301D01*
X-51411236Y7214301D01*
X-51499998Y7231957D01*
X-51500002Y7231957D01*
X-51588765Y7214301D01*
X-51664019Y7164019D01*
X-51714301Y7088765D01*
X-51731957Y7000002D01*
X-53668043Y7000002D01*
X-53674349Y7031700D01*
X-53685700Y7088765D01*
X-53685700Y7088766D01*
X-53718687Y7138135D01*
X-53735982Y7164019D01*
X-53792295Y7201645D01*
X-53811234Y7214300D01*
X-53811235Y7214301D01*
X-53811236Y7214301D01*
X-53899998Y7231957D01*
X-53900002Y7231957D01*
X-53988765Y7214301D01*
X-54064019Y7164019D01*
X-54114301Y7088765D01*
X-54131957Y7000002D01*
X-54468043Y7000002D01*
X-54474349Y7031700D01*
X-54485700Y7088765D01*
X-54485700Y7088766D01*
X-54518687Y7138135D01*
X-54535982Y7164019D01*
X-54592295Y7201645D01*
X-54611234Y7214300D01*
X-54611235Y7214301D01*
X-54611236Y7214301D01*
X-54699998Y7231957D01*
X-54700002Y7231957D01*
X-54788765Y7214301D01*
X-54864019Y7164019D01*
X-54914301Y7088765D01*
X-54931957Y7000002D01*
X-56868043Y7000002D01*
X-56874349Y7031700D01*
X-56885700Y7088765D01*
X-56885700Y7088766D01*
X-56918687Y7138135D01*
X-56935982Y7164019D01*
X-56992295Y7201645D01*
X-57011234Y7214300D01*
X-57011235Y7214301D01*
X-57011236Y7214301D01*
X-57099998Y7231957D01*
X-57100002Y7231957D01*
X-57188765Y7214301D01*
X-57264019Y7164019D01*
X-57314301Y7088765D01*
X-57331957Y7000002D01*
X-60012618Y7000002D01*
X-60044316Y7031700D01*
X-60053947Y7040429D01*
X-60057419Y7043279D01*
X-60058658Y7045476D01*
X-60071973Y7054373D01*
X-60071972Y7054373D01*
X-60092126Y7067840D01*
X-60092200Y7067891D01*
X-60124582Y7089527D01*
X-60124600Y7089538D01*
X-60147480Y7101767D01*
X-60147495Y7101774D01*
X-60147502Y7101778D01*
X-60150255Y7102919D01*
X-60165153Y7109089D01*
X-60165160Y7109092D01*
X-60165166Y7109094D01*
X-60168664Y7110155D01*
X-60190018Y7116633D01*
X-60190024Y7116634D01*
X-60252216Y7129005D01*
X-60252269Y7129014D01*
X-60265099Y7130918D01*
X-60274662Y7131860D01*
X-60274665Y7131861D01*
X-60281669Y7132206D01*
X-60287666Y7132500D01*
X-60287672Y7132500D01*
X-65782128Y7132500D01*
X-65791685Y7133442D01*
X-65804075Y7135907D01*
X-65815278Y7138135D01*
X-65832934Y7145447D01*
X-65834724Y7146643D01*
X-65837789Y7148691D01*
X-65851309Y7162209D01*
X-65854551Y7167060D01*
X-65861866Y7184723D01*
X-65866559Y7208322D01*
X-65867500Y7217879D01*
X-65867500Y7900000D01*
X-62756894Y7900000D01*
X-62739426Y7789714D01*
X-62688733Y7690223D01*
X-62609777Y7611267D01*
X-62510286Y7560574D01*
X-62400000Y7543106D01*
X-62289714Y7560574D01*
X-62190223Y7611267D01*
X-62111267Y7690223D01*
X-62060574Y7789714D01*
X-62043106Y7900000D01*
X-62060574Y8010286D01*
X-62111267Y8109777D01*
X-62190223Y8188733D01*
X-62190226Y8188735D01*
X-62289714Y8239426D01*
X-62400000Y8256894D01*
X-62510287Y8239426D01*
X-62609775Y8188735D01*
X-62609778Y8188733D01*
X-62688733Y8109778D01*
X-62688735Y8109775D01*
X-62739426Y8010287D01*
X-62739426Y8010286D01*
X-62756894Y7900000D01*
X-65867500Y7900000D01*
X-65867500Y8500000D01*
X-63356894Y8500000D01*
X-63339426Y8389714D01*
X-63288733Y8290223D01*
X-63209777Y8211267D01*
X-63110286Y8160574D01*
X-63000000Y8143106D01*
X-62889714Y8160574D01*
X-62790223Y8211267D01*
X-62711267Y8290223D01*
X-62660574Y8389714D01*
X-62643106Y8500000D01*
X-62660574Y8610286D01*
X-62711267Y8709777D01*
X-62790223Y8788733D01*
X-62790226Y8788735D01*
X-62889714Y8839426D01*
X-63000000Y8856894D01*
X-63110287Y8839426D01*
X-63209775Y8788735D01*
X-63209778Y8788733D01*
X-63288733Y8709778D01*
X-63288735Y8709775D01*
X-63339426Y8610287D01*
X-63339426Y8610286D01*
X-63356894Y8500000D01*
X-65867500Y8500000D01*
X-65867500Y16995160D01*
X-65867500Y16995177D01*
X-65868139Y17008170D01*
X-65869081Y17017730D01*
X-65871005Y17030672D01*
X-65871203Y17031664D01*
X-65874113Y17046290D01*
X-65874113Y17046296D01*
X-65883365Y17092805D01*
X-65883369Y17092827D01*
X-65890908Y17117681D01*
X-65890917Y17117703D01*
X-65898221Y17135338D01*
X-65910469Y17158252D01*
X-65910470Y17158254D01*
X-65926733Y17182593D01*
X-65934892Y17194803D01*
X-65942992Y17206928D01*
X-65943002Y17206941D01*
X-65959468Y17227006D01*
X-65959479Y17227018D01*
X-65972984Y17240523D01*
X-65972996Y17240534D01*
X-65993060Y17256999D01*
X-65993070Y17257006D01*
X-66041745Y17289530D01*
X-66041746Y17289531D01*
X-66051723Y17294864D01*
X-66064658Y17301778D01*
X-66082333Y17309098D01*
X-66107184Y17316635D01*
X-66169373Y17329005D01*
X-66169426Y17329014D01*
X-66182256Y17330918D01*
X-66191819Y17331860D01*
X-66191822Y17331861D01*
X-66198826Y17332206D01*
X-66204823Y17332500D01*
X-68423500Y17332500D01*
X-68458148Y17346852D01*
X-68472500Y17381500D01*
X-68472500Y17452347D01*
X-68507650Y17674272D01*
X-68507650Y17674274D01*
X-68577084Y17887970D01*
X-68679093Y18088173D01*
X-68811164Y18269954D01*
X-68811166Y18269956D01*
X-68811169Y18269960D01*
X-68970040Y18428831D01*
X-68970045Y18428835D01*
X-68970046Y18428836D01*
X-69151827Y18560907D01*
X-69352030Y18662916D01*
X-69352031Y18662917D01*
X-69352032Y18662917D01*
X-69565726Y18732350D01*
X-69565729Y18732351D01*
X-69736208Y18759352D01*
X-69787653Y18767500D01*
X-70012347Y18767500D01*
X-70054111Y18760886D01*
X-70234272Y18732351D01*
X-70234275Y18732350D01*
X-70447969Y18662917D01*
X-70648173Y18560907D01*
X-70829956Y18428835D01*
X-70988835Y18269956D01*
X-71120907Y18088173D01*
X-71222917Y17887969D01*
X-71292350Y17674275D01*
X-71292351Y17674272D01*
X-71327500Y17452347D01*
X-71327500Y17381500D01*
X-71341852Y17346852D01*
X-71376500Y17332500D01*
X-74095203Y17332500D01*
X-74108138Y17331865D01*
X-74117707Y17330924D01*
X-74130581Y17329015D01*
X-74192818Y17316635D01*
X-74192829Y17316632D01*
X-74217688Y17309091D01*
X-74217692Y17309090D01*
X-74235340Y17301780D01*
X-74258255Y17289531D01*
X-74306935Y17257004D01*
X-74306945Y17256997D01*
X-74327009Y17240532D01*
X-74327021Y17240521D01*
X-74340521Y17227021D01*
X-74340532Y17227009D01*
X-74356998Y17206944D01*
X-74357005Y17206934D01*
X-74389531Y17158255D01*
X-74401774Y17135351D01*
X-74409086Y17117703D01*
X-74416634Y17092823D01*
X-74416635Y17092818D01*
X-74429015Y17030581D01*
X-74430924Y17017707D01*
X-74431865Y17008138D01*
X-74432500Y16995203D01*
X-74799500Y16995203D01*
X-74799500Y24678742D01*
X-53292501Y24678742D01*
X-53292501Y24533259D01*
X-53254850Y24392745D01*
X-53254849Y24392741D01*
X-53182111Y24266757D01*
X-53079244Y24163890D01*
X-53033132Y24137267D01*
X-52953261Y24091153D01*
X-52953259Y24091153D01*
X-52953258Y24091152D01*
X-52842438Y24061458D01*
X-52812743Y24053501D01*
X-52812742Y24053500D01*
X-52812739Y24053500D01*
X-52667260Y24053500D01*
X-52667260Y24053501D01*
X-52526744Y24091152D01*
X-52400758Y24163890D01*
X-52297891Y24266757D01*
X-52225153Y24392743D01*
X-52187502Y24533259D01*
X-52187501Y24533259D01*
X-52187501Y24678741D01*
X-52187502Y24678742D01*
X-50752500Y24678742D01*
X-50752500Y24533259D01*
X-50714849Y24392745D01*
X-50714848Y24392741D01*
X-50642110Y24266757D01*
X-50539243Y24163890D01*
X-50493131Y24137267D01*
X-50413260Y24091153D01*
X-50413258Y24091153D01*
X-50413257Y24091152D01*
X-50302437Y24061458D01*
X-50272742Y24053501D01*
X-50272741Y24053500D01*
X-50272738Y24053500D01*
X-50127259Y24053500D01*
X-50127259Y24053501D01*
X-49986743Y24091152D01*
X-49860757Y24163890D01*
X-49757890Y24266757D01*
X-49685152Y24392743D01*
X-49647501Y24533259D01*
X-49647500Y24533259D01*
X-49647500Y24678741D01*
X-49647501Y24678742D01*
X-48212499Y24678742D01*
X-48212499Y24533259D01*
X-48174848Y24392745D01*
X-48174847Y24392741D01*
X-48102109Y24266757D01*
X-47999242Y24163890D01*
X-47953130Y24137267D01*
X-47873259Y24091153D01*
X-47873257Y24091153D01*
X-47873256Y24091152D01*
X-47762436Y24061458D01*
X-47732741Y24053501D01*
X-47732740Y24053500D01*
X-47732737Y24053500D01*
X-47587258Y24053500D01*
X-47587258Y24053501D01*
X-47446742Y24091152D01*
X-47320756Y24163890D01*
X-47217889Y24266757D01*
X-47145151Y24392743D01*
X-47107500Y24533259D01*
X-47107499Y24533259D01*
X-47107499Y24678741D01*
X-47107500Y24678742D01*
X-45672499Y24678742D01*
X-45672499Y24533259D01*
X-45634848Y24392745D01*
X-45634847Y24392741D01*
X-45562109Y24266757D01*
X-45459242Y24163890D01*
X-45413130Y24137267D01*
X-45333259Y24091153D01*
X-45333257Y24091153D01*
X-45333256Y24091152D01*
X-45222436Y24061458D01*
X-45192741Y24053501D01*
X-45192740Y24053500D01*
X-45192737Y24053500D01*
X-45047258Y24053500D01*
X-45047258Y24053501D01*
X-44906742Y24091152D01*
X-44780756Y24163890D01*
X-44677889Y24266757D01*
X-44605151Y24392743D01*
X-44567500Y24533259D01*
X-44567499Y24533259D01*
X-44567499Y24678741D01*
X-44567500Y24678742D01*
X-43132498Y24678742D01*
X-43132498Y24533259D01*
X-43094847Y24392745D01*
X-43094846Y24392741D01*
X-43022108Y24266757D01*
X-42919241Y24163890D01*
X-42873129Y24137267D01*
X-42793258Y24091153D01*
X-42793256Y24091153D01*
X-42793255Y24091152D01*
X-42682435Y24061458D01*
X-42652740Y24053501D01*
X-42652739Y24053500D01*
X-42652736Y24053500D01*
X-42507257Y24053500D01*
X-42507257Y24053501D01*
X-42366741Y24091152D01*
X-42240755Y24163890D01*
X-42137888Y24266757D01*
X-42065150Y24392743D01*
X-42027499Y24533259D01*
X-42027498Y24533259D01*
X-42027498Y24678741D01*
X-42027499Y24678742D01*
X-40592497Y24678742D01*
X-40592497Y24533259D01*
X-40554846Y24392745D01*
X-40554845Y24392741D01*
X-40482107Y24266757D01*
X-40379240Y24163890D01*
X-40333128Y24137267D01*
X-40253257Y24091153D01*
X-40253255Y24091153D01*
X-40253254Y24091152D01*
X-40142434Y24061458D01*
X-40112739Y24053501D01*
X-40112738Y24053500D01*
X-40112735Y24053500D01*
X-39967256Y24053500D01*
X-39967256Y24053501D01*
X-39826740Y24091152D01*
X-39700754Y24163890D01*
X-39597887Y24266757D01*
X-39525149Y24392743D01*
X-39487498Y24533259D01*
X-39487497Y24533259D01*
X-39487497Y24678741D01*
X-39487498Y24678742D01*
X-38052500Y24678742D01*
X-38052500Y24533259D01*
X-38014849Y24392745D01*
X-38014848Y24392741D01*
X-37942110Y24266757D01*
X-37839243Y24163890D01*
X-37793131Y24137267D01*
X-37713260Y24091153D01*
X-37713258Y24091153D01*
X-37713257Y24091152D01*
X-37602437Y24061458D01*
X-37572742Y24053501D01*
X-37572741Y24053500D01*
X-37572738Y24053500D01*
X-37427259Y24053500D01*
X-37427259Y24053501D01*
X-37286743Y24091152D01*
X-37160757Y24163890D01*
X-37057890Y24266757D01*
X-36985152Y24392743D01*
X-36947501Y24533259D01*
X-36947500Y24533259D01*
X-36947500Y24678741D01*
X-36947501Y24678742D01*
X-35512499Y24678742D01*
X-35512499Y24533259D01*
X-35474848Y24392745D01*
X-35474847Y24392741D01*
X-35402109Y24266757D01*
X-35299242Y24163890D01*
X-35253130Y24137267D01*
X-35173259Y24091153D01*
X-35173257Y24091153D01*
X-35173256Y24091152D01*
X-35062436Y24061458D01*
X-35032741Y24053501D01*
X-35032740Y24053500D01*
X-35032737Y24053500D01*
X-34887258Y24053500D01*
X-34887258Y24053501D01*
X-34746742Y24091152D01*
X-34620756Y24163890D01*
X-34517889Y24266757D01*
X-34445151Y24392743D01*
X-34407500Y24533259D01*
X-34407499Y24533259D01*
X-34407499Y24678741D01*
X-34407500Y24678742D01*
X-32972498Y24678742D01*
X-32972498Y24533259D01*
X-32934847Y24392745D01*
X-32934846Y24392741D01*
X-32862108Y24266757D01*
X-32759241Y24163890D01*
X-32713129Y24137267D01*
X-32633258Y24091153D01*
X-32633256Y24091153D01*
X-32633255Y24091152D01*
X-32522435Y24061458D01*
X-32492740Y24053501D01*
X-32492739Y24053500D01*
X-32492736Y24053500D01*
X-32347257Y24053500D01*
X-32347257Y24053501D01*
X-32206741Y24091152D01*
X-32080755Y24163890D01*
X-31977888Y24266757D01*
X-31905150Y24392743D01*
X-31867499Y24533259D01*
X-31867498Y24533259D01*
X-31867498Y24678741D01*
X-31867499Y24678742D01*
X-30432501Y24678742D01*
X-30432501Y24533259D01*
X-30394850Y24392745D01*
X-30394849Y24392741D01*
X-30322111Y24266757D01*
X-30219244Y24163890D01*
X-30173132Y24137267D01*
X-30093261Y24091153D01*
X-30093259Y24091153D01*
X-30093258Y24091152D01*
X-29982438Y24061458D01*
X-29952743Y24053501D01*
X-29952742Y24053500D01*
X-29952739Y24053500D01*
X-29807260Y24053500D01*
X-29807260Y24053501D01*
X-29666744Y24091152D01*
X-29540758Y24163890D01*
X-29437891Y24266757D01*
X-29365153Y24392743D01*
X-29327502Y24533259D01*
X-29327501Y24533259D01*
X-29327501Y24678741D01*
X-29327502Y24678742D01*
X-27892500Y24678742D01*
X-27892500Y24533259D01*
X-27854849Y24392745D01*
X-27854848Y24392741D01*
X-27782110Y24266757D01*
X-27679243Y24163890D01*
X-27633131Y24137267D01*
X-27553260Y24091153D01*
X-27553258Y24091153D01*
X-27553257Y24091152D01*
X-27442437Y24061458D01*
X-27412742Y24053501D01*
X-27412741Y24053500D01*
X-27412738Y24053500D01*
X-27267259Y24053500D01*
X-27267259Y24053501D01*
X-27126743Y24091152D01*
X-27000757Y24163890D01*
X-26897890Y24266757D01*
X-26825152Y24392743D01*
X-26787501Y24533259D01*
X-26787500Y24533259D01*
X-26787500Y24678741D01*
X-26787501Y24678742D01*
X-25352499Y24678742D01*
X-25352499Y24533259D01*
X-25314848Y24392745D01*
X-25314847Y24392741D01*
X-25242109Y24266757D01*
X-25139242Y24163890D01*
X-25093130Y24137267D01*
X-25013259Y24091153D01*
X-25013257Y24091153D01*
X-25013256Y24091152D01*
X-24902436Y24061458D01*
X-24872741Y24053501D01*
X-24872740Y24053500D01*
X-24872737Y24053500D01*
X-24727258Y24053500D01*
X-24727258Y24053501D01*
X-24586742Y24091152D01*
X-24460756Y24163890D01*
X-24357889Y24266757D01*
X-24285151Y24392743D01*
X-24247500Y24533259D01*
X-24247499Y24533259D01*
X-24247499Y24678741D01*
X-24247500Y24678742D01*
X-22812499Y24678742D01*
X-22812499Y24533259D01*
X-22774848Y24392745D01*
X-22774847Y24392741D01*
X-22702109Y24266757D01*
X-22599242Y24163890D01*
X-22553130Y24137267D01*
X-22473259Y24091153D01*
X-22473257Y24091153D01*
X-22473256Y24091152D01*
X-22362436Y24061458D01*
X-22332741Y24053501D01*
X-22332740Y24053500D01*
X-22332737Y24053500D01*
X-22187258Y24053500D01*
X-22187258Y24053501D01*
X-22046742Y24091152D01*
X-21920756Y24163890D01*
X-21817889Y24266757D01*
X-21745151Y24392743D01*
X-21707500Y24533259D01*
X-21707499Y24533259D01*
X-21707499Y24678741D01*
X-21707500Y24678742D01*
X-21745151Y24819256D01*
X-21745152Y24819260D01*
X-21817890Y24945244D01*
X-21920756Y25048110D01*
X-22046740Y25120848D01*
X-22046744Y25120849D01*
X-22187258Y25158500D01*
X-22187261Y25158500D01*
X-22332737Y25158500D01*
X-22332740Y25158500D01*
X-22473255Y25120849D01*
X-22473259Y25120848D01*
X-22599243Y25048110D01*
X-22599243Y25048109D01*
X-22702108Y24945244D01*
X-22702109Y24945244D01*
X-22774847Y24819260D01*
X-22774848Y24819256D01*
X-22812499Y24678742D01*
X-24247500Y24678742D01*
X-24285151Y24819256D01*
X-24285152Y24819260D01*
X-24357890Y24945244D01*
X-24460756Y25048110D01*
X-24586740Y25120848D01*
X-24586744Y25120849D01*
X-24727258Y25158500D01*
X-24727261Y25158500D01*
X-24872737Y25158500D01*
X-24872740Y25158500D01*
X-25013255Y25120849D01*
X-25013259Y25120848D01*
X-25139243Y25048110D01*
X-25139243Y25048109D01*
X-25242108Y24945244D01*
X-25242109Y24945244D01*
X-25314847Y24819260D01*
X-25314848Y24819256D01*
X-25352499Y24678742D01*
X-26787501Y24678742D01*
X-26825152Y24819256D01*
X-26825153Y24819260D01*
X-26897891Y24945244D01*
X-27000757Y25048110D01*
X-27126741Y25120848D01*
X-27126745Y25120849D01*
X-27267259Y25158500D01*
X-27267262Y25158500D01*
X-27412738Y25158500D01*
X-27412741Y25158500D01*
X-27553256Y25120849D01*
X-27553260Y25120848D01*
X-27679244Y25048110D01*
X-27679244Y25048109D01*
X-27782109Y24945244D01*
X-27782110Y24945244D01*
X-27854848Y24819260D01*
X-27854849Y24819256D01*
X-27892500Y24678742D01*
X-29327502Y24678742D01*
X-29365153Y24819256D01*
X-29365154Y24819260D01*
X-29437892Y24945244D01*
X-29540758Y25048110D01*
X-29666742Y25120848D01*
X-29666746Y25120849D01*
X-29807260Y25158500D01*
X-29807263Y25158500D01*
X-29952739Y25158500D01*
X-29952742Y25158500D01*
X-30093257Y25120849D01*
X-30093261Y25120848D01*
X-30219245Y25048110D01*
X-30219245Y25048109D01*
X-30322110Y24945244D01*
X-30322111Y24945244D01*
X-30394849Y24819260D01*
X-30394850Y24819256D01*
X-30432501Y24678742D01*
X-31867499Y24678742D01*
X-31905150Y24819256D01*
X-31905151Y24819260D01*
X-31977889Y24945244D01*
X-32080755Y25048110D01*
X-32206739Y25120848D01*
X-32206743Y25120849D01*
X-32347257Y25158500D01*
X-32347260Y25158500D01*
X-32492736Y25158500D01*
X-32492739Y25158500D01*
X-32633254Y25120849D01*
X-32633258Y25120848D01*
X-32759242Y25048110D01*
X-32759242Y25048109D01*
X-32862107Y24945244D01*
X-32862108Y24945244D01*
X-32934846Y24819260D01*
X-32934847Y24819256D01*
X-32972498Y24678742D01*
X-34407500Y24678742D01*
X-34445151Y24819256D01*
X-34445152Y24819260D01*
X-34517890Y24945244D01*
X-34620756Y25048110D01*
X-34746740Y25120848D01*
X-34746744Y25120849D01*
X-34887258Y25158500D01*
X-34887261Y25158500D01*
X-35032737Y25158500D01*
X-35032740Y25158500D01*
X-35173255Y25120849D01*
X-35173259Y25120848D01*
X-35299243Y25048110D01*
X-35299243Y25048109D01*
X-35402108Y24945244D01*
X-35402109Y24945244D01*
X-35474847Y24819260D01*
X-35474848Y24819256D01*
X-35512499Y24678742D01*
X-36947501Y24678742D01*
X-36985152Y24819256D01*
X-36985153Y24819260D01*
X-37057891Y24945244D01*
X-37160757Y25048110D01*
X-37286741Y25120848D01*
X-37286745Y25120849D01*
X-37427259Y25158500D01*
X-37427262Y25158500D01*
X-37572738Y25158500D01*
X-37572741Y25158500D01*
X-37713256Y25120849D01*
X-37713260Y25120848D01*
X-37839244Y25048110D01*
X-37839244Y25048109D01*
X-37942109Y24945244D01*
X-37942110Y24945244D01*
X-38014848Y24819260D01*
X-38014849Y24819256D01*
X-38052500Y24678742D01*
X-39487498Y24678742D01*
X-39525149Y24819256D01*
X-39525150Y24819260D01*
X-39597888Y24945244D01*
X-39700754Y25048110D01*
X-39826738Y25120848D01*
X-39826742Y25120849D01*
X-39967256Y25158500D01*
X-39967259Y25158500D01*
X-40112735Y25158500D01*
X-40112738Y25158500D01*
X-40253253Y25120849D01*
X-40253257Y25120848D01*
X-40379241Y25048110D01*
X-40379241Y25048109D01*
X-40482106Y24945244D01*
X-40482107Y24945244D01*
X-40554845Y24819260D01*
X-40554846Y24819256D01*
X-40592497Y24678742D01*
X-42027499Y24678742D01*
X-42065150Y24819256D01*
X-42065151Y24819260D01*
X-42137889Y24945244D01*
X-42240755Y25048110D01*
X-42366739Y25120848D01*
X-42366743Y25120849D01*
X-42507257Y25158500D01*
X-42507260Y25158500D01*
X-42652736Y25158500D01*
X-42652739Y25158500D01*
X-42793254Y25120849D01*
X-42793258Y25120848D01*
X-42919242Y25048110D01*
X-42919242Y25048109D01*
X-43022107Y24945244D01*
X-43022108Y24945244D01*
X-43094846Y24819260D01*
X-43094847Y24819256D01*
X-43132498Y24678742D01*
X-44567500Y24678742D01*
X-44605151Y24819256D01*
X-44605152Y24819260D01*
X-44677890Y24945244D01*
X-44780756Y25048110D01*
X-44906740Y25120848D01*
X-44906744Y25120849D01*
X-45047258Y25158500D01*
X-45047261Y25158500D01*
X-45192737Y25158500D01*
X-45192740Y25158500D01*
X-45333255Y25120849D01*
X-45333259Y25120848D01*
X-45459243Y25048110D01*
X-45459243Y25048109D01*
X-45562108Y24945244D01*
X-45562109Y24945244D01*
X-45634847Y24819260D01*
X-45634848Y24819256D01*
X-45672499Y24678742D01*
X-47107500Y24678742D01*
X-47145151Y24819256D01*
X-47145152Y24819260D01*
X-47217890Y24945244D01*
X-47320756Y25048110D01*
X-47446740Y25120848D01*
X-47446744Y25120849D01*
X-47587258Y25158500D01*
X-47587261Y25158500D01*
X-47732737Y25158500D01*
X-47732740Y25158500D01*
X-47873255Y25120849D01*
X-47873259Y25120848D01*
X-47999243Y25048110D01*
X-47999243Y25048109D01*
X-48102108Y24945244D01*
X-48102109Y24945244D01*
X-48174847Y24819260D01*
X-48174848Y24819256D01*
X-48212499Y24678742D01*
X-49647501Y24678742D01*
X-49685152Y24819256D01*
X-49685153Y24819260D01*
X-49757891Y24945244D01*
X-49860757Y25048110D01*
X-49986741Y25120848D01*
X-49986745Y25120849D01*
X-50127259Y25158500D01*
X-50127262Y25158500D01*
X-50272738Y25158500D01*
X-50272741Y25158500D01*
X-50413256Y25120849D01*
X-50413260Y25120848D01*
X-50539244Y25048110D01*
X-50539244Y25048109D01*
X-50642109Y24945244D01*
X-50642110Y24945244D01*
X-50714848Y24819260D01*
X-50714849Y24819256D01*
X-50752500Y24678742D01*
X-52187502Y24678742D01*
X-52225153Y24819256D01*
X-52225154Y24819260D01*
X-52297892Y24945244D01*
X-52400758Y25048110D01*
X-52526742Y25120848D01*
X-52526746Y25120849D01*
X-52667260Y25158500D01*
X-52667263Y25158500D01*
X-52812739Y25158500D01*
X-52812742Y25158500D01*
X-52953257Y25120849D01*
X-52953261Y25120848D01*
X-53079245Y25048110D01*
X-53079245Y25048109D01*
X-53182110Y24945244D01*
X-53182111Y24945244D01*
X-53254849Y24819260D01*
X-53254850Y24819256D01*
X-53292501Y24678742D01*
X-74799500Y24678742D01*
X-74799500Y26583743D01*
X-52022500Y26583743D01*
X-52022500Y26438260D01*
X-51984849Y26297746D01*
X-51984848Y26297742D01*
X-51912110Y26171758D01*
X-51809243Y26068891D01*
X-51763131Y26042268D01*
X-51683260Y25996154D01*
X-51683258Y25996154D01*
X-51683257Y25996153D01*
X-51572437Y25966459D01*
X-51542742Y25958502D01*
X-51542741Y25958501D01*
X-51542738Y25958501D01*
X-51397259Y25958501D01*
X-51397259Y25958502D01*
X-51256743Y25996153D01*
X-51130757Y26068891D01*
X-51027890Y26171758D01*
X-50955152Y26297744D01*
X-50917501Y26438260D01*
X-50917500Y26438260D01*
X-50917500Y26583742D01*
X-50917501Y26583743D01*
X-49482501Y26583743D01*
X-49482501Y26438260D01*
X-49444850Y26297746D01*
X-49444849Y26297742D01*
X-49372111Y26171758D01*
X-49269244Y26068891D01*
X-49223132Y26042268D01*
X-49143261Y25996154D01*
X-49143259Y25996154D01*
X-49143258Y25996153D01*
X-49032438Y25966459D01*
X-49002743Y25958502D01*
X-49002742Y25958501D01*
X-49002739Y25958501D01*
X-48857260Y25958501D01*
X-48857260Y25958502D01*
X-48716744Y25996153D01*
X-48590758Y26068891D01*
X-48487891Y26171758D01*
X-48415153Y26297744D01*
X-48377502Y26438260D01*
X-48377501Y26438260D01*
X-48377501Y26583740D01*
X-46942500Y26583740D01*
X-46942500Y26438257D01*
X-46904849Y26297743D01*
X-46904848Y26297739D01*
X-46832112Y26171758D01*
X-46832110Y26171755D01*
X-46729243Y26068888D01*
X-46683131Y26042265D01*
X-46603260Y25996151D01*
X-46603258Y25996151D01*
X-46603257Y25996150D01*
X-46492437Y25966456D01*
X-46462742Y25958499D01*
X-46462741Y25958498D01*
X-46462738Y25958498D01*
X-46317259Y25958498D01*
X-46317259Y25958499D01*
X-46176743Y25996150D01*
X-46050757Y26068888D01*
X-45947890Y26171755D01*
X-45875152Y26297741D01*
X-45837501Y26438257D01*
X-45837500Y26438257D01*
X-45837500Y26583739D01*
X-45837501Y26583740D01*
X-45837502Y26583743D01*
X-44402501Y26583743D01*
X-44402501Y26438260D01*
X-44364850Y26297746D01*
X-44364849Y26297742D01*
X-44292111Y26171758D01*
X-44189244Y26068891D01*
X-44143132Y26042268D01*
X-44063261Y25996154D01*
X-44063259Y25996154D01*
X-44063258Y25996153D01*
X-43952438Y25966459D01*
X-43922743Y25958502D01*
X-43922742Y25958501D01*
X-43922739Y25958501D01*
X-43777260Y25958501D01*
X-43777260Y25958502D01*
X-43636744Y25996153D01*
X-43510758Y26068891D01*
X-43407891Y26171758D01*
X-43335153Y26297744D01*
X-43297502Y26438260D01*
X-43297501Y26438260D01*
X-43297501Y26583742D01*
X-43297502Y26583743D01*
X-41862501Y26583743D01*
X-41862501Y26438260D01*
X-41824850Y26297746D01*
X-41824849Y26297742D01*
X-41752111Y26171758D01*
X-41649244Y26068891D01*
X-41603132Y26042268D01*
X-41523261Y25996154D01*
X-41523259Y25996154D01*
X-41523258Y25996153D01*
X-41412438Y25966459D01*
X-41382743Y25958502D01*
X-41382742Y25958501D01*
X-41382739Y25958501D01*
X-41237260Y25958501D01*
X-41237260Y25958502D01*
X-41096744Y25996153D01*
X-40970758Y26068891D01*
X-40867891Y26171758D01*
X-40795153Y26297744D01*
X-40757502Y26438260D01*
X-40757501Y26438260D01*
X-40757501Y26583742D01*
X-40757502Y26583743D01*
X-39322500Y26583743D01*
X-39322500Y26438260D01*
X-39284849Y26297746D01*
X-39284848Y26297742D01*
X-39212110Y26171758D01*
X-39109243Y26068891D01*
X-39063131Y26042268D01*
X-38983260Y25996154D01*
X-38983258Y25996154D01*
X-38983257Y25996153D01*
X-38872437Y25966459D01*
X-38842742Y25958502D01*
X-38842741Y25958501D01*
X-38842738Y25958501D01*
X-38697259Y25958501D01*
X-38697259Y25958502D01*
X-38556743Y25996153D01*
X-38430757Y26068891D01*
X-38327890Y26171758D01*
X-38255152Y26297744D01*
X-38217501Y26438260D01*
X-38217500Y26438260D01*
X-38217500Y26583740D01*
X-36782499Y26583740D01*
X-36782499Y26438257D01*
X-36744848Y26297743D01*
X-36744847Y26297739D01*
X-36672111Y26171758D01*
X-36672109Y26171755D01*
X-36569242Y26068888D01*
X-36523130Y26042265D01*
X-36443259Y25996151D01*
X-36443257Y25996151D01*
X-36443256Y25996150D01*
X-36332436Y25966456D01*
X-36302741Y25958499D01*
X-36302740Y25958498D01*
X-36302737Y25958498D01*
X-36157258Y25958498D01*
X-36157258Y25958499D01*
X-36016742Y25996150D01*
X-35890756Y26068888D01*
X-35787889Y26171755D01*
X-35715151Y26297741D01*
X-35677500Y26438257D01*
X-35677499Y26438257D01*
X-35677499Y26583739D01*
X-35677500Y26583740D01*
X-34242500Y26583740D01*
X-34242500Y26438257D01*
X-34204849Y26297743D01*
X-34204848Y26297739D01*
X-34132112Y26171758D01*
X-34132110Y26171755D01*
X-34029243Y26068888D01*
X-33983131Y26042265D01*
X-33903260Y25996151D01*
X-33903258Y25996151D01*
X-33903257Y25996150D01*
X-33792437Y25966456D01*
X-33762742Y25958499D01*
X-33762741Y25958498D01*
X-33762738Y25958498D01*
X-33617259Y25958498D01*
X-33617259Y25958499D01*
X-33476743Y25996150D01*
X-33350757Y26068888D01*
X-33247890Y26171755D01*
X-33175152Y26297741D01*
X-33137501Y26438257D01*
X-33137500Y26438257D01*
X-33137500Y26583739D01*
X-33137501Y26583740D01*
X-33137502Y26583743D01*
X-31702499Y26583743D01*
X-31702499Y26438260D01*
X-31664848Y26297746D01*
X-31664847Y26297742D01*
X-31592109Y26171758D01*
X-31489242Y26068891D01*
X-31443130Y26042268D01*
X-31363259Y25996154D01*
X-31363257Y25996154D01*
X-31363256Y25996153D01*
X-31252436Y25966459D01*
X-31222741Y25958502D01*
X-31222740Y25958501D01*
X-31222737Y25958501D01*
X-31077258Y25958501D01*
X-31077258Y25958502D01*
X-30936742Y25996153D01*
X-30810756Y26068891D01*
X-30707889Y26171758D01*
X-30635151Y26297744D01*
X-30597500Y26438260D01*
X-30597499Y26438260D01*
X-30597499Y26583742D01*
X-30597500Y26583743D01*
X-29162500Y26583743D01*
X-29162500Y26438260D01*
X-29124849Y26297746D01*
X-29124848Y26297742D01*
X-29052110Y26171758D01*
X-28949243Y26068891D01*
X-28903131Y26042268D01*
X-28823260Y25996154D01*
X-28823258Y25996154D01*
X-28823257Y25996153D01*
X-28712437Y25966459D01*
X-28682742Y25958502D01*
X-28682741Y25958501D01*
X-28682738Y25958501D01*
X-28537259Y25958501D01*
X-28537259Y25958502D01*
X-28396743Y25996153D01*
X-28270757Y26068891D01*
X-28167890Y26171758D01*
X-28095152Y26297744D01*
X-28057501Y26438260D01*
X-28057500Y26438260D01*
X-28057500Y26583742D01*
X-28057501Y26583743D01*
X-26622500Y26583743D01*
X-26622500Y26438260D01*
X-26584849Y26297746D01*
X-26584848Y26297742D01*
X-26512110Y26171758D01*
X-26409243Y26068891D01*
X-26363131Y26042268D01*
X-26283260Y25996154D01*
X-26283258Y25996154D01*
X-26283257Y25996153D01*
X-26172437Y25966459D01*
X-26142742Y25958502D01*
X-26142741Y25958501D01*
X-26142738Y25958501D01*
X-25997259Y25958501D01*
X-25997259Y25958502D01*
X-25856743Y25996153D01*
X-25730757Y26068891D01*
X-25627890Y26171758D01*
X-25555152Y26297744D01*
X-25517501Y26438260D01*
X-25517500Y26438260D01*
X-25517500Y26583740D01*
X-24082500Y26583740D01*
X-24082500Y26438257D01*
X-24044849Y26297743D01*
X-24044848Y26297739D01*
X-23972112Y26171758D01*
X-23972110Y26171755D01*
X-23869243Y26068888D01*
X-23823131Y26042265D01*
X-23743260Y25996151D01*
X-23743258Y25996151D01*
X-23743257Y25996150D01*
X-23632437Y25966456D01*
X-23602742Y25958499D01*
X-23602741Y25958498D01*
X-23602738Y25958498D01*
X-23457259Y25958498D01*
X-23457259Y25958499D01*
X-23316743Y25996150D01*
X-23190757Y26068888D01*
X-23087890Y26171755D01*
X-23015152Y26297741D01*
X-22977501Y26438257D01*
X-22977500Y26438257D01*
X-22977500Y26583739D01*
X-22977501Y26583740D01*
X-23015152Y26724254D01*
X-23015153Y26724258D01*
X-23087891Y26850242D01*
X-23190757Y26953108D01*
X-23316741Y27025846D01*
X-23316745Y27025847D01*
X-23457259Y27063498D01*
X-23457262Y27063498D01*
X-23602738Y27063498D01*
X-23602741Y27063498D01*
X-23743256Y27025847D01*
X-23743260Y27025846D01*
X-23869244Y26953108D01*
X-23869244Y26953107D01*
X-23972109Y26850242D01*
X-23972110Y26850242D01*
X-24044848Y26724258D01*
X-24044849Y26724254D01*
X-24082500Y26583740D01*
X-25517500Y26583740D01*
X-25517500Y26583742D01*
X-25517501Y26583743D01*
X-25555152Y26724257D01*
X-25555153Y26724261D01*
X-25601267Y26804132D01*
X-25627890Y26850244D01*
X-25730757Y26953111D01*
X-25856741Y27025849D01*
X-25856745Y27025850D01*
X-25997259Y27063501D01*
X-25997262Y27063501D01*
X-26142738Y27063501D01*
X-26142741Y27063501D01*
X-26283256Y27025850D01*
X-26283260Y27025849D01*
X-26409244Y26953111D01*
X-26409244Y26953110D01*
X-26512109Y26850245D01*
X-26512110Y26850245D01*
X-26584848Y26724261D01*
X-26584849Y26724257D01*
X-26622500Y26583743D01*
X-28057501Y26583743D01*
X-28095152Y26724257D01*
X-28095153Y26724261D01*
X-28141267Y26804132D01*
X-28167890Y26850244D01*
X-28270757Y26953111D01*
X-28396741Y27025849D01*
X-28396745Y27025850D01*
X-28537259Y27063501D01*
X-28537262Y27063501D01*
X-28682738Y27063501D01*
X-28682741Y27063501D01*
X-28823256Y27025850D01*
X-28823260Y27025849D01*
X-28949244Y26953111D01*
X-28949244Y26953110D01*
X-29052109Y26850245D01*
X-29052110Y26850245D01*
X-29124848Y26724261D01*
X-29124849Y26724257D01*
X-29162500Y26583743D01*
X-30597500Y26583743D01*
X-30635151Y26724257D01*
X-30635152Y26724261D01*
X-30681266Y26804132D01*
X-30707889Y26850244D01*
X-30810756Y26953111D01*
X-30936740Y27025849D01*
X-30936744Y27025850D01*
X-31077258Y27063501D01*
X-31077261Y27063501D01*
X-31222737Y27063501D01*
X-31222740Y27063501D01*
X-31363255Y27025850D01*
X-31363259Y27025849D01*
X-31489243Y26953111D01*
X-31489243Y26953110D01*
X-31592108Y26850245D01*
X-31592109Y26850245D01*
X-31664847Y26724261D01*
X-31664848Y26724257D01*
X-31702499Y26583743D01*
X-33137502Y26583743D01*
X-33175152Y26724254D01*
X-33175153Y26724258D01*
X-33247891Y26850242D01*
X-33350757Y26953108D01*
X-33476741Y27025846D01*
X-33476745Y27025847D01*
X-33617259Y27063498D01*
X-33617262Y27063498D01*
X-33762738Y27063498D01*
X-33762741Y27063498D01*
X-33903256Y27025847D01*
X-33903260Y27025846D01*
X-34029244Y26953108D01*
X-34029244Y26953107D01*
X-34132109Y26850242D01*
X-34132110Y26850242D01*
X-34204848Y26724258D01*
X-34204849Y26724254D01*
X-34242500Y26583740D01*
X-35677500Y26583740D01*
X-35715151Y26724254D01*
X-35715152Y26724258D01*
X-35787890Y26850242D01*
X-35890756Y26953108D01*
X-36016740Y27025846D01*
X-36016744Y27025847D01*
X-36157258Y27063498D01*
X-36157261Y27063498D01*
X-36302737Y27063498D01*
X-36302740Y27063498D01*
X-36443255Y27025847D01*
X-36443259Y27025846D01*
X-36569243Y26953108D01*
X-36569243Y26953107D01*
X-36672108Y26850242D01*
X-36672109Y26850242D01*
X-36744847Y26724258D01*
X-36744848Y26724254D01*
X-36782499Y26583740D01*
X-38217500Y26583740D01*
X-38217500Y26583742D01*
X-38217501Y26583743D01*
X-38255152Y26724257D01*
X-38255153Y26724261D01*
X-38301267Y26804132D01*
X-38327890Y26850244D01*
X-38430757Y26953111D01*
X-38556741Y27025849D01*
X-38556745Y27025850D01*
X-38697259Y27063501D01*
X-38697262Y27063501D01*
X-38842738Y27063501D01*
X-38842741Y27063501D01*
X-38983256Y27025850D01*
X-38983260Y27025849D01*
X-39109244Y26953111D01*
X-39109244Y26953110D01*
X-39212109Y26850245D01*
X-39212110Y26850245D01*
X-39284848Y26724261D01*
X-39284849Y26724257D01*
X-39322500Y26583743D01*
X-40757502Y26583743D01*
X-40795153Y26724257D01*
X-40795154Y26724261D01*
X-40841268Y26804132D01*
X-40867891Y26850244D01*
X-40970758Y26953111D01*
X-41096742Y27025849D01*
X-41096746Y27025850D01*
X-41237260Y27063501D01*
X-41237263Y27063501D01*
X-41382739Y27063501D01*
X-41382742Y27063501D01*
X-41523257Y27025850D01*
X-41523261Y27025849D01*
X-41649245Y26953111D01*
X-41649245Y26953110D01*
X-41752110Y26850245D01*
X-41752111Y26850245D01*
X-41824849Y26724261D01*
X-41824850Y26724257D01*
X-41862501Y26583743D01*
X-43297502Y26583743D01*
X-43335153Y26724257D01*
X-43335154Y26724261D01*
X-43381268Y26804132D01*
X-43407891Y26850244D01*
X-43510758Y26953111D01*
X-43636742Y27025849D01*
X-43636746Y27025850D01*
X-43777260Y27063501D01*
X-43777263Y27063501D01*
X-43922739Y27063501D01*
X-43922742Y27063501D01*
X-44063257Y27025850D01*
X-44063261Y27025849D01*
X-44189245Y26953111D01*
X-44189245Y26953110D01*
X-44292110Y26850245D01*
X-44292111Y26850245D01*
X-44364849Y26724261D01*
X-44364850Y26724257D01*
X-44402501Y26583743D01*
X-45837502Y26583743D01*
X-45875152Y26724254D01*
X-45875153Y26724258D01*
X-45947891Y26850242D01*
X-46050757Y26953108D01*
X-46176741Y27025846D01*
X-46176745Y27025847D01*
X-46317259Y27063498D01*
X-46317262Y27063498D01*
X-46462738Y27063498D01*
X-46462741Y27063498D01*
X-46603256Y27025847D01*
X-46603260Y27025846D01*
X-46729244Y26953108D01*
X-46729244Y26953107D01*
X-46832109Y26850242D01*
X-46832110Y26850242D01*
X-46904848Y26724258D01*
X-46904849Y26724254D01*
X-46942500Y26583740D01*
X-48377501Y26583740D01*
X-48377501Y26583742D01*
X-48377502Y26583743D01*
X-48415153Y26724257D01*
X-48415154Y26724261D01*
X-48461268Y26804132D01*
X-48487891Y26850244D01*
X-48590758Y26953111D01*
X-48716742Y27025849D01*
X-48716746Y27025850D01*
X-48857260Y27063501D01*
X-48857263Y27063501D01*
X-49002739Y27063501D01*
X-49002742Y27063501D01*
X-49143257Y27025850D01*
X-49143261Y27025849D01*
X-49269245Y26953111D01*
X-49269245Y26953110D01*
X-49372110Y26850245D01*
X-49372111Y26850245D01*
X-49444849Y26724261D01*
X-49444850Y26724257D01*
X-49482501Y26583743D01*
X-50917501Y26583743D01*
X-50955152Y26724257D01*
X-50955153Y26724261D01*
X-51001267Y26804132D01*
X-51027890Y26850244D01*
X-51130757Y26953111D01*
X-51256741Y27025849D01*
X-51256745Y27025850D01*
X-51397259Y27063501D01*
X-51397262Y27063501D01*
X-51542738Y27063501D01*
X-51542741Y27063501D01*
X-51683256Y27025850D01*
X-51683260Y27025849D01*
X-51809244Y26953111D01*
X-51809244Y26953110D01*
X-51912109Y26850245D01*
X-51912110Y26850245D01*
X-51984848Y26724261D01*
X-51984849Y26724257D01*
X-52022500Y26583743D01*
X-74799500Y26583743D01*
X-74799500Y28537003D01*
X-62278500Y28537003D01*
X-62278500Y28294996D01*
X-62240642Y28055970D01*
X-62240641Y28055967D01*
X-62165857Y27825803D01*
X-62055992Y27610179D01*
X-62055989Y27610175D01*
X-62055988Y27610173D01*
X-61913739Y27414385D01*
X-61913737Y27414383D01*
X-61913734Y27414379D01*
X-61742621Y27243266D01*
X-61742618Y27243264D01*
X-61742614Y27243260D01*
X-61546826Y27101011D01*
X-61546824Y27101010D01*
X-61546821Y27101008D01*
X-61399314Y27025850D01*
X-61331195Y26991142D01*
X-61101032Y26916358D01*
X-60862004Y26878499D01*
X-60862003Y26878499D01*
X-60619997Y26878499D01*
X-60619996Y26878499D01*
X-60380968Y26916358D01*
X-60150805Y26991142D01*
X-59935174Y27101011D01*
X-59739386Y27243260D01*
X-59568261Y27414385D01*
X-59426012Y27610173D01*
X-59316143Y27825804D01*
X-59241359Y28055967D01*
X-59203500Y28294995D01*
X-59203500Y28488742D01*
X-53292502Y28488742D01*
X-53292502Y28343259D01*
X-53254851Y28202745D01*
X-53254850Y28202741D01*
X-53182112Y28076757D01*
X-53079245Y27973890D01*
X-53079243Y27973889D01*
X-52953262Y27901153D01*
X-52953260Y27901153D01*
X-52953259Y27901152D01*
X-52842439Y27871458D01*
X-52812744Y27863501D01*
X-52812743Y27863500D01*
X-52812740Y27863500D01*
X-52667261Y27863500D01*
X-52667261Y27863501D01*
X-52526745Y27901152D01*
X-52400759Y27973890D01*
X-52297892Y28076757D01*
X-52225154Y28202743D01*
X-52187503Y28343259D01*
X-52187502Y28343259D01*
X-52187502Y28488741D01*
X-50752502Y28488741D01*
X-50752502Y28343258D01*
X-50714851Y28202744D01*
X-50714850Y28202740D01*
X-50642113Y28076757D01*
X-50642112Y28076756D01*
X-50539245Y27973889D01*
X-50493133Y27947266D01*
X-50413262Y27901152D01*
X-50413260Y27901152D01*
X-50413259Y27901151D01*
X-50302439Y27871457D01*
X-50272744Y27863500D01*
X-50272743Y27863499D01*
X-50272740Y27863499D01*
X-50127261Y27863499D01*
X-50127261Y27863500D01*
X-49986745Y27901151D01*
X-49986741Y27901153D01*
X-49969865Y27910897D01*
X-49860759Y27973889D01*
X-49757892Y28076756D01*
X-49685154Y28202742D01*
X-49647503Y28343258D01*
X-49647502Y28343258D01*
X-49647502Y28488740D01*
X-49647503Y28488741D01*
X-48212500Y28488741D01*
X-48212500Y28343258D01*
X-48174849Y28202744D01*
X-48174848Y28202740D01*
X-48102111Y28076757D01*
X-48102110Y28076756D01*
X-47999243Y27973889D01*
X-47953131Y27947266D01*
X-47873260Y27901152D01*
X-47873258Y27901152D01*
X-47873257Y27901151D01*
X-47762437Y27871457D01*
X-47732742Y27863500D01*
X-47732741Y27863499D01*
X-47732738Y27863499D01*
X-47587259Y27863499D01*
X-47587259Y27863500D01*
X-47446743Y27901151D01*
X-47446739Y27901153D01*
X-47429863Y27910897D01*
X-47320757Y27973889D01*
X-47217890Y28076756D01*
X-47145152Y28202742D01*
X-47107501Y28343258D01*
X-47107500Y28343258D01*
X-47107500Y28488740D01*
X-47107501Y28488741D01*
X-45672500Y28488741D01*
X-45672500Y28343258D01*
X-45634849Y28202744D01*
X-45634848Y28202740D01*
X-45562111Y28076757D01*
X-45562110Y28076756D01*
X-45459243Y27973889D01*
X-45413131Y27947266D01*
X-45333260Y27901152D01*
X-45333258Y27901152D01*
X-45333257Y27901151D01*
X-45222437Y27871457D01*
X-45192742Y27863500D01*
X-45192741Y27863499D01*
X-45192738Y27863499D01*
X-45047259Y27863499D01*
X-45047259Y27863500D01*
X-44906743Y27901151D01*
X-44906739Y27901153D01*
X-44889863Y27910897D01*
X-44780757Y27973889D01*
X-44677890Y28076756D01*
X-44605152Y28202742D01*
X-44567501Y28343258D01*
X-44567500Y28343258D01*
X-44567500Y28488740D01*
X-44567501Y28488741D01*
X-43132501Y28488741D01*
X-43132501Y28343258D01*
X-43094850Y28202744D01*
X-43094849Y28202740D01*
X-43022112Y28076757D01*
X-43022111Y28076756D01*
X-42919244Y27973889D01*
X-42873132Y27947266D01*
X-42793261Y27901152D01*
X-42793259Y27901152D01*
X-42793258Y27901151D01*
X-42682438Y27871457D01*
X-42652743Y27863500D01*
X-42652742Y27863499D01*
X-42652739Y27863499D01*
X-42507260Y27863499D01*
X-42507260Y27863500D01*
X-42366744Y27901151D01*
X-42366740Y27901153D01*
X-42349864Y27910897D01*
X-42240758Y27973889D01*
X-42137891Y28076756D01*
X-42065153Y28202742D01*
X-42027502Y28343258D01*
X-42027501Y28343258D01*
X-42027501Y28488740D01*
X-42027502Y28488741D01*
X-42027502Y28488742D01*
X-40592500Y28488742D01*
X-40592500Y28343259D01*
X-40554849Y28202745D01*
X-40554848Y28202741D01*
X-40482110Y28076757D01*
X-40379243Y27973890D01*
X-40379241Y27973889D01*
X-40253260Y27901153D01*
X-40253258Y27901153D01*
X-40253257Y27901152D01*
X-40142437Y27871458D01*
X-40112742Y27863501D01*
X-40112741Y27863500D01*
X-40112738Y27863500D01*
X-39967259Y27863500D01*
X-39967259Y27863501D01*
X-39826743Y27901152D01*
X-39700757Y27973890D01*
X-39597890Y28076757D01*
X-39525152Y28202743D01*
X-39487501Y28343259D01*
X-39487500Y28343259D01*
X-39487500Y28488741D01*
X-35512502Y28488741D01*
X-35512502Y28343258D01*
X-35474851Y28202744D01*
X-35474850Y28202740D01*
X-35402113Y28076757D01*
X-35402112Y28076756D01*
X-35299245Y27973889D01*
X-35253133Y27947266D01*
X-35173262Y27901152D01*
X-35173260Y27901152D01*
X-35173259Y27901151D01*
X-35062439Y27871457D01*
X-35032744Y27863500D01*
X-35032743Y27863499D01*
X-35032740Y27863499D01*
X-34887261Y27863499D01*
X-34887261Y27863500D01*
X-34746745Y27901151D01*
X-34746741Y27901153D01*
X-34729865Y27910897D01*
X-34620759Y27973889D01*
X-34517892Y28076756D01*
X-34445154Y28202742D01*
X-34407503Y28343258D01*
X-34407502Y28343258D01*
X-34407502Y28488740D01*
X-34407503Y28488741D01*
X-32972500Y28488741D01*
X-32972500Y28343258D01*
X-32934849Y28202744D01*
X-32934848Y28202740D01*
X-32862111Y28076757D01*
X-32862110Y28076756D01*
X-32759243Y27973889D01*
X-32713131Y27947266D01*
X-32633260Y27901152D01*
X-32633258Y27901152D01*
X-32633257Y27901151D01*
X-32522437Y27871457D01*
X-32492742Y27863500D01*
X-32492741Y27863499D01*
X-32492738Y27863499D01*
X-32347259Y27863499D01*
X-32347259Y27863500D01*
X-32206743Y27901151D01*
X-32206739Y27901153D01*
X-32189863Y27910897D01*
X-32080757Y27973889D01*
X-31977890Y28076756D01*
X-31905152Y28202742D01*
X-31867501Y28343258D01*
X-31867500Y28343258D01*
X-31867500Y28488740D01*
X-31867501Y28488741D01*
X-31867501Y28488742D01*
X-30432502Y28488742D01*
X-30432502Y28343259D01*
X-30394851Y28202745D01*
X-30394850Y28202741D01*
X-30322112Y28076757D01*
X-30219245Y27973890D01*
X-30219243Y27973889D01*
X-30093262Y27901153D01*
X-30093260Y27901153D01*
X-30093259Y27901152D01*
X-29982439Y27871458D01*
X-29952744Y27863501D01*
X-29952743Y27863500D01*
X-29952740Y27863500D01*
X-29807261Y27863500D01*
X-29807261Y27863501D01*
X-29666745Y27901152D01*
X-29540759Y27973890D01*
X-29437892Y28076757D01*
X-29365154Y28202743D01*
X-29327503Y28343259D01*
X-29327502Y28343259D01*
X-29327502Y28488741D01*
X-27892502Y28488741D01*
X-27892502Y28343258D01*
X-27854851Y28202744D01*
X-27854850Y28202740D01*
X-27782113Y28076757D01*
X-27782112Y28076756D01*
X-27679245Y27973889D01*
X-27633133Y27947266D01*
X-27553262Y27901152D01*
X-27553260Y27901152D01*
X-27553259Y27901151D01*
X-27442439Y27871457D01*
X-27412744Y27863500D01*
X-27412743Y27863499D01*
X-27412740Y27863499D01*
X-27267261Y27863499D01*
X-27267261Y27863500D01*
X-27126745Y27901151D01*
X-27126741Y27901153D01*
X-27109865Y27910897D01*
X-27000759Y27973889D01*
X-26897892Y28076756D01*
X-26825154Y28202742D01*
X-26787503Y28343258D01*
X-26787502Y28343258D01*
X-26787502Y28488740D01*
X-26787503Y28488741D01*
X-25352500Y28488741D01*
X-25352500Y28343258D01*
X-25314849Y28202744D01*
X-25314848Y28202740D01*
X-25242111Y28076757D01*
X-25242110Y28076756D01*
X-25139243Y27973889D01*
X-25093131Y27947266D01*
X-25013260Y27901152D01*
X-25013258Y27901152D01*
X-25013257Y27901151D01*
X-24902437Y27871457D01*
X-24872742Y27863500D01*
X-24872741Y27863499D01*
X-24872738Y27863499D01*
X-24727259Y27863499D01*
X-24727259Y27863500D01*
X-24586743Y27901151D01*
X-24586739Y27901153D01*
X-24569863Y27910897D01*
X-24460757Y27973889D01*
X-24357890Y28076756D01*
X-24285152Y28202742D01*
X-24247501Y28343258D01*
X-24247500Y28343258D01*
X-24247500Y28488740D01*
X-24247501Y28488741D01*
X-22812500Y28488741D01*
X-22812500Y28343258D01*
X-22774849Y28202744D01*
X-22774848Y28202740D01*
X-22702111Y28076757D01*
X-22702110Y28076756D01*
X-22599243Y27973889D01*
X-22553131Y27947266D01*
X-22473260Y27901152D01*
X-22473258Y27901152D01*
X-22473257Y27901151D01*
X-22362437Y27871457D01*
X-22332742Y27863500D01*
X-22332741Y27863499D01*
X-22332738Y27863499D01*
X-22187259Y27863499D01*
X-22187259Y27863500D01*
X-22046743Y27901151D01*
X-22046739Y27901153D01*
X-22029863Y27910897D01*
X-21920757Y27973889D01*
X-21817890Y28076756D01*
X-21745152Y28202742D01*
X-21707501Y28343258D01*
X-21707500Y28343258D01*
X-21707500Y28488740D01*
X-21707501Y28488741D01*
X-21720433Y28537003D01*
X-15796499Y28537003D01*
X-15796499Y28294996D01*
X-15758641Y28055970D01*
X-15758640Y28055967D01*
X-15683856Y27825803D01*
X-15573991Y27610179D01*
X-15573988Y27610175D01*
X-15573987Y27610173D01*
X-15431738Y27414385D01*
X-15431736Y27414383D01*
X-15431733Y27414379D01*
X-15260620Y27243266D01*
X-15260617Y27243264D01*
X-15260613Y27243260D01*
X-15064825Y27101011D01*
X-15064823Y27101010D01*
X-15064820Y27101008D01*
X-14917313Y27025850D01*
X-14849194Y26991142D01*
X-14619031Y26916358D01*
X-14380003Y26878499D01*
X-14380002Y26878499D01*
X-14137996Y26878499D01*
X-14137995Y26878499D01*
X-13898967Y26916358D01*
X-13668804Y26991142D01*
X-13453173Y27101011D01*
X-13257385Y27243260D01*
X-13086260Y27414385D01*
X-12944011Y27610173D01*
X-12834142Y27825804D01*
X-12759358Y28055967D01*
X-12721499Y28294995D01*
X-12721499Y28537003D01*
X-12759358Y28776031D01*
X-12834142Y29006194D01*
X-12944011Y29221825D01*
X-13086260Y29417613D01*
X-13086264Y29417617D01*
X-13086266Y29417620D01*
X-13257379Y29588733D01*
X-13257378Y29588733D01*
X-13453179Y29730991D01*
X-13668803Y29840856D01*
X-13898967Y29915640D01*
X-13898970Y29915641D01*
X-14082585Y29944723D01*
X-14137995Y29953499D01*
X-14380003Y29953499D01*
X-14424986Y29946375D01*
X-14619029Y29915641D01*
X-14619032Y29915640D01*
X-14849196Y29840856D01*
X-15064820Y29730991D01*
X-15260620Y29588733D01*
X-15431733Y29417620D01*
X-15573991Y29221820D01*
X-15683856Y29006196D01*
X-15758640Y28776032D01*
X-15758641Y28776029D01*
X-15796499Y28537003D01*
X-21720433Y28537003D01*
X-21745152Y28629255D01*
X-21745153Y28629259D01*
X-21817891Y28755243D01*
X-21920757Y28858109D01*
X-22046741Y28930847D01*
X-22046745Y28930848D01*
X-22187259Y28968499D01*
X-22187262Y28968499D01*
X-22332738Y28968499D01*
X-22332741Y28968499D01*
X-22473256Y28930848D01*
X-22473260Y28930847D01*
X-22599244Y28858109D01*
X-22599244Y28858108D01*
X-22702109Y28755243D01*
X-22702110Y28755243D01*
X-22774848Y28629259D01*
X-22774849Y28629255D01*
X-22812500Y28488741D01*
X-24247501Y28488741D01*
X-24285152Y28629255D01*
X-24285153Y28629259D01*
X-24357891Y28755243D01*
X-24460757Y28858109D01*
X-24586741Y28930847D01*
X-24586745Y28930848D01*
X-24727259Y28968499D01*
X-24727262Y28968499D01*
X-24872738Y28968499D01*
X-24872741Y28968499D01*
X-25013256Y28930848D01*
X-25013260Y28930847D01*
X-25139244Y28858109D01*
X-25139244Y28858108D01*
X-25242109Y28755243D01*
X-25242110Y28755243D01*
X-25314848Y28629259D01*
X-25314849Y28629255D01*
X-25352500Y28488741D01*
X-26787503Y28488741D01*
X-26825154Y28629255D01*
X-26825155Y28629259D01*
X-26897893Y28755243D01*
X-27000759Y28858109D01*
X-27126743Y28930847D01*
X-27126747Y28930848D01*
X-27267261Y28968499D01*
X-27267264Y28968499D01*
X-27412740Y28968499D01*
X-27412743Y28968499D01*
X-27553258Y28930848D01*
X-27553262Y28930847D01*
X-27679246Y28858109D01*
X-27679246Y28858108D01*
X-27782111Y28755243D01*
X-27782112Y28755243D01*
X-27854850Y28629259D01*
X-27854851Y28629255D01*
X-27892502Y28488741D01*
X-29327502Y28488741D01*
X-29327503Y28488742D01*
X-29340435Y28537003D01*
X-29365154Y28629257D01*
X-29365155Y28629259D01*
X-29365155Y28629260D01*
X-29411269Y28709131D01*
X-29437892Y28755243D01*
X-29540759Y28858110D01*
X-29666743Y28930848D01*
X-29666747Y28930849D01*
X-29807261Y28968500D01*
X-29807264Y28968500D01*
X-29952740Y28968500D01*
X-29952743Y28968500D01*
X-30093258Y28930849D01*
X-30093262Y28930848D01*
X-30219246Y28858110D01*
X-30219246Y28858109D01*
X-30322111Y28755244D01*
X-30322112Y28755244D01*
X-30394850Y28629260D01*
X-30394851Y28629256D01*
X-30432502Y28488742D01*
X-31867501Y28488742D01*
X-31905152Y28629255D01*
X-31905153Y28629259D01*
X-31977891Y28755243D01*
X-32080757Y28858109D01*
X-32206741Y28930847D01*
X-32206745Y28930848D01*
X-32347259Y28968499D01*
X-32347262Y28968499D01*
X-32492738Y28968499D01*
X-32492741Y28968499D01*
X-32633256Y28930848D01*
X-32633260Y28930847D01*
X-32759244Y28858109D01*
X-32759244Y28858108D01*
X-32862109Y28755243D01*
X-32862110Y28755243D01*
X-32934848Y28629259D01*
X-32934849Y28629255D01*
X-32972500Y28488741D01*
X-34407503Y28488741D01*
X-34445154Y28629255D01*
X-34445155Y28629259D01*
X-34517893Y28755243D01*
X-34620759Y28858109D01*
X-34746743Y28930847D01*
X-34746747Y28930848D01*
X-34887261Y28968499D01*
X-34887264Y28968499D01*
X-35032740Y28968499D01*
X-35032743Y28968499D01*
X-35173258Y28930848D01*
X-35173262Y28930847D01*
X-35299246Y28858109D01*
X-35299246Y28858108D01*
X-35402111Y28755243D01*
X-35402112Y28755243D01*
X-35474850Y28629259D01*
X-35474851Y28629255D01*
X-35512502Y28488741D01*
X-39487500Y28488741D01*
X-39487501Y28488742D01*
X-39500433Y28537003D01*
X-39525152Y28629257D01*
X-39525153Y28629259D01*
X-39525153Y28629260D01*
X-39571267Y28709131D01*
X-39597890Y28755243D01*
X-39700757Y28858110D01*
X-39826741Y28930848D01*
X-39826745Y28930849D01*
X-39967259Y28968500D01*
X-39967262Y28968500D01*
X-40112738Y28968500D01*
X-40112741Y28968500D01*
X-40253256Y28930849D01*
X-40253260Y28930848D01*
X-40379244Y28858110D01*
X-40379244Y28858109D01*
X-40482109Y28755244D01*
X-40482110Y28755244D01*
X-40554848Y28629260D01*
X-40554849Y28629256D01*
X-40592500Y28488742D01*
X-42027502Y28488742D01*
X-42065153Y28629255D01*
X-42065154Y28629259D01*
X-42137892Y28755243D01*
X-42240758Y28858109D01*
X-42366742Y28930847D01*
X-42366746Y28930848D01*
X-42507260Y28968499D01*
X-42507263Y28968499D01*
X-42652739Y28968499D01*
X-42652742Y28968499D01*
X-42793257Y28930848D01*
X-42793261Y28930847D01*
X-42919245Y28858109D01*
X-42919245Y28858108D01*
X-43022110Y28755243D01*
X-43022111Y28755243D01*
X-43094849Y28629259D01*
X-43094850Y28629255D01*
X-43132501Y28488741D01*
X-44567501Y28488741D01*
X-44605152Y28629255D01*
X-44605153Y28629259D01*
X-44677891Y28755243D01*
X-44780757Y28858109D01*
X-44906741Y28930847D01*
X-44906745Y28930848D01*
X-45047259Y28968499D01*
X-45047262Y28968499D01*
X-45192738Y28968499D01*
X-45192741Y28968499D01*
X-45333256Y28930848D01*
X-45333260Y28930847D01*
X-45459244Y28858109D01*
X-45459244Y28858108D01*
X-45562109Y28755243D01*
X-45562110Y28755243D01*
X-45634848Y28629259D01*
X-45634849Y28629255D01*
X-45672500Y28488741D01*
X-47107501Y28488741D01*
X-47145152Y28629255D01*
X-47145153Y28629259D01*
X-47217891Y28755243D01*
X-47320757Y28858109D01*
X-47446741Y28930847D01*
X-47446745Y28930848D01*
X-47587259Y28968499D01*
X-47587262Y28968499D01*
X-47732738Y28968499D01*
X-47732741Y28968499D01*
X-47873256Y28930848D01*
X-47873260Y28930847D01*
X-47999244Y28858109D01*
X-47999244Y28858108D01*
X-48102109Y28755243D01*
X-48102110Y28755243D01*
X-48174848Y28629259D01*
X-48174849Y28629255D01*
X-48212500Y28488741D01*
X-49647503Y28488741D01*
X-49685154Y28629255D01*
X-49685155Y28629259D01*
X-49757893Y28755243D01*
X-49860759Y28858109D01*
X-49986743Y28930847D01*
X-49986747Y28930848D01*
X-50127261Y28968499D01*
X-50127264Y28968499D01*
X-50272740Y28968499D01*
X-50272743Y28968499D01*
X-50413258Y28930848D01*
X-50413262Y28930847D01*
X-50539246Y28858109D01*
X-50539246Y28858108D01*
X-50642111Y28755243D01*
X-50642112Y28755243D01*
X-50714850Y28629259D01*
X-50714851Y28629255D01*
X-50752502Y28488741D01*
X-52187502Y28488741D01*
X-52187503Y28488742D01*
X-52200435Y28537003D01*
X-52225154Y28629257D01*
X-52225155Y28629259D01*
X-52225155Y28629260D01*
X-52271269Y28709131D01*
X-52297892Y28755243D01*
X-52400759Y28858110D01*
X-52526743Y28930848D01*
X-52526747Y28930849D01*
X-52667261Y28968500D01*
X-52667264Y28968500D01*
X-52812740Y28968500D01*
X-52812743Y28968500D01*
X-52953258Y28930849D01*
X-52953262Y28930848D01*
X-53079246Y28858110D01*
X-53079246Y28858109D01*
X-53182111Y28755244D01*
X-53182112Y28755244D01*
X-53254850Y28629260D01*
X-53254851Y28629256D01*
X-53292502Y28488742D01*
X-59203500Y28488742D01*
X-59203500Y28537003D01*
X-59241359Y28776031D01*
X-59316143Y29006194D01*
X-59426012Y29221825D01*
X-59568261Y29417613D01*
X-59568265Y29417617D01*
X-59568267Y29417620D01*
X-59739380Y29588733D01*
X-59739379Y29588733D01*
X-59935180Y29730991D01*
X-60150804Y29840856D01*
X-60380968Y29915640D01*
X-60380971Y29915641D01*
X-60564586Y29944723D01*
X-60619996Y29953499D01*
X-60862004Y29953499D01*
X-60906987Y29946375D01*
X-61101030Y29915641D01*
X-61101033Y29915640D01*
X-61331197Y29840856D01*
X-61546821Y29730991D01*
X-61742621Y29588733D01*
X-61913734Y29417620D01*
X-62055992Y29221820D01*
X-62165857Y29006196D01*
X-62240641Y28776032D01*
X-62240642Y28776029D01*
X-62278500Y28537003D01*
X-74799500Y28537003D01*
X-74799500Y29998797D01*
X-74799441Y30001201D01*
X-74794207Y30107744D01*
X-74781322Y30370023D01*
X-74780854Y30374780D01*
X-74778041Y30393741D01*
X-52022500Y30393741D01*
X-52022500Y30248258D01*
X-51984849Y30107744D01*
X-51984848Y30107740D01*
X-51923337Y30001201D01*
X-51912110Y29981756D01*
X-51809243Y29878889D01*
X-51809241Y29878888D01*
X-51683260Y29806152D01*
X-51683258Y29806152D01*
X-51683257Y29806151D01*
X-51572437Y29776457D01*
X-51542742Y29768500D01*
X-51542741Y29768499D01*
X-51542738Y29768499D01*
X-51397259Y29768499D01*
X-51397259Y29768500D01*
X-51256743Y29806151D01*
X-51130757Y29878889D01*
X-51027890Y29981756D01*
X-50955152Y30107742D01*
X-50917501Y30248258D01*
X-50917500Y30248258D01*
X-50917500Y30393740D01*
X-50917501Y30393741D01*
X-49482498Y30393741D01*
X-49482498Y30248258D01*
X-49444847Y30107744D01*
X-49444846Y30107740D01*
X-49383335Y30001201D01*
X-49372108Y29981756D01*
X-49269241Y29878889D01*
X-49269239Y29878888D01*
X-49143258Y29806152D01*
X-49143256Y29806152D01*
X-49143255Y29806151D01*
X-49032435Y29776457D01*
X-49002740Y29768500D01*
X-49002739Y29768499D01*
X-49002736Y29768499D01*
X-48857257Y29768499D01*
X-48857257Y29768500D01*
X-48716741Y29806151D01*
X-48590755Y29878889D01*
X-48487888Y29981756D01*
X-48415150Y30107742D01*
X-48377499Y30248258D01*
X-48377498Y30248258D01*
X-48377498Y30393740D01*
X-48377499Y30393741D01*
X-46942499Y30393741D01*
X-46942499Y30248258D01*
X-46904848Y30107744D01*
X-46904847Y30107740D01*
X-46843336Y30001201D01*
X-46832109Y29981756D01*
X-46729242Y29878889D01*
X-46729240Y29878888D01*
X-46603259Y29806152D01*
X-46603257Y29806152D01*
X-46603256Y29806151D01*
X-46492436Y29776457D01*
X-46462741Y29768500D01*
X-46462740Y29768499D01*
X-46462737Y29768499D01*
X-46317258Y29768499D01*
X-46317258Y29768500D01*
X-46176742Y29806151D01*
X-46050756Y29878889D01*
X-45947889Y29981756D01*
X-45875151Y30107742D01*
X-45837500Y30248258D01*
X-45837499Y30248258D01*
X-45837499Y30393740D01*
X-45837500Y30393741D01*
X-44402498Y30393741D01*
X-44402498Y30248258D01*
X-44364847Y30107744D01*
X-44364846Y30107740D01*
X-44303335Y30001201D01*
X-44292108Y29981756D01*
X-44189241Y29878889D01*
X-44189239Y29878888D01*
X-44063258Y29806152D01*
X-44063256Y29806152D01*
X-44063255Y29806151D01*
X-43952435Y29776457D01*
X-43922740Y29768500D01*
X-43922739Y29768499D01*
X-43922736Y29768499D01*
X-43777257Y29768499D01*
X-43777257Y29768500D01*
X-43636741Y29806151D01*
X-43510755Y29878889D01*
X-43407888Y29981756D01*
X-43335150Y30107742D01*
X-43297499Y30248258D01*
X-43297498Y30248258D01*
X-43297498Y30393740D01*
X-43297499Y30393741D01*
X-41862499Y30393741D01*
X-41862499Y30248258D01*
X-41824848Y30107744D01*
X-41824847Y30107740D01*
X-41763336Y30001201D01*
X-41752109Y29981756D01*
X-41649242Y29878889D01*
X-41649240Y29878888D01*
X-41523259Y29806152D01*
X-41523257Y29806152D01*
X-41523256Y29806151D01*
X-41412436Y29776457D01*
X-41382741Y29768500D01*
X-41382740Y29768499D01*
X-41382737Y29768499D01*
X-41237258Y29768499D01*
X-41237258Y29768500D01*
X-41096742Y29806151D01*
X-40970756Y29878889D01*
X-40867889Y29981756D01*
X-40795151Y30107742D01*
X-40757500Y30248258D01*
X-40757499Y30248258D01*
X-40757499Y30393740D01*
X-40757500Y30393741D01*
X-39322500Y30393741D01*
X-39322500Y30248258D01*
X-39284849Y30107744D01*
X-39284848Y30107740D01*
X-39223337Y30001201D01*
X-39212110Y29981756D01*
X-39109243Y29878889D01*
X-39109241Y29878888D01*
X-38983260Y29806152D01*
X-38983258Y29806152D01*
X-38983257Y29806151D01*
X-38872437Y29776457D01*
X-38842742Y29768500D01*
X-38842741Y29768499D01*
X-38842738Y29768499D01*
X-38697259Y29768499D01*
X-38697259Y29768500D01*
X-38556743Y29806151D01*
X-38430757Y29878889D01*
X-38327890Y29981756D01*
X-38255152Y30107742D01*
X-38217501Y30248258D01*
X-38217500Y30248258D01*
X-38217500Y30393740D01*
X-38217501Y30393741D01*
X-36782499Y30393741D01*
X-36782499Y30248258D01*
X-36744848Y30107744D01*
X-36744847Y30107740D01*
X-36683336Y30001201D01*
X-36672109Y29981756D01*
X-36569242Y29878889D01*
X-36569240Y29878888D01*
X-36443259Y29806152D01*
X-36443257Y29806152D01*
X-36443256Y29806151D01*
X-36332436Y29776457D01*
X-36302741Y29768500D01*
X-36302740Y29768499D01*
X-36302737Y29768499D01*
X-36157258Y29768499D01*
X-36157258Y29768500D01*
X-36016742Y29806151D01*
X-35890756Y29878889D01*
X-35787889Y29981756D01*
X-35715151Y30107742D01*
X-35677500Y30248258D01*
X-35677499Y30248258D01*
X-35677499Y30393740D01*
X-35677500Y30393741D01*
X-34242497Y30393741D01*
X-34242497Y30248258D01*
X-34204846Y30107744D01*
X-34204845Y30107740D01*
X-34143334Y30001201D01*
X-34132107Y29981756D01*
X-34029240Y29878889D01*
X-34029238Y29878888D01*
X-33903257Y29806152D01*
X-33903255Y29806152D01*
X-33903254Y29806151D01*
X-33792434Y29776457D01*
X-33762739Y29768500D01*
X-33762738Y29768499D01*
X-33762735Y29768499D01*
X-33617256Y29768499D01*
X-33617256Y29768500D01*
X-33476740Y29806151D01*
X-33350754Y29878889D01*
X-33247887Y29981756D01*
X-33175149Y30107742D01*
X-33137498Y30248258D01*
X-33137497Y30248258D01*
X-33137497Y30393740D01*
X-33137498Y30393741D01*
X-31702499Y30393741D01*
X-31702499Y30248258D01*
X-31664848Y30107744D01*
X-31664847Y30107740D01*
X-31603336Y30001201D01*
X-31592109Y29981756D01*
X-31489242Y29878889D01*
X-31489240Y29878888D01*
X-31363259Y29806152D01*
X-31363257Y29806152D01*
X-31363256Y29806151D01*
X-31252436Y29776457D01*
X-31222741Y29768500D01*
X-31222740Y29768499D01*
X-31222737Y29768499D01*
X-31077258Y29768499D01*
X-31077258Y29768500D01*
X-30936742Y29806151D01*
X-30810756Y29878889D01*
X-30707889Y29981756D01*
X-30635151Y30107742D01*
X-30597500Y30248258D01*
X-30597499Y30248258D01*
X-30597499Y30393740D01*
X-29162500Y30393740D01*
X-29162500Y30248257D01*
X-29124849Y30107743D01*
X-29124848Y30107739D01*
X-29085670Y30039882D01*
X-29052110Y29981755D01*
X-28949243Y29878888D01*
X-28903131Y29852265D01*
X-28823260Y29806151D01*
X-28823258Y29806151D01*
X-28823257Y29806150D01*
X-28712437Y29776456D01*
X-28682742Y29768499D01*
X-28682741Y29768498D01*
X-28682738Y29768498D01*
X-28537259Y29768498D01*
X-28537259Y29768499D01*
X-28396743Y29806150D01*
X-28396739Y29806152D01*
X-28379863Y29815896D01*
X-28270757Y29878888D01*
X-28167890Y29981755D01*
X-28095152Y30107741D01*
X-28057501Y30248257D01*
X-28057500Y30248257D01*
X-28057500Y30393739D01*
X-28057501Y30393740D01*
X-28057501Y30393741D01*
X-26622498Y30393741D01*
X-26622498Y30248258D01*
X-26584847Y30107744D01*
X-26584846Y30107740D01*
X-26523335Y30001201D01*
X-26512108Y29981756D01*
X-26409241Y29878889D01*
X-26409239Y29878888D01*
X-26283258Y29806152D01*
X-26283256Y29806152D01*
X-26283255Y29806151D01*
X-26172435Y29776457D01*
X-26142740Y29768500D01*
X-26142739Y29768499D01*
X-26142736Y29768499D01*
X-25997257Y29768499D01*
X-25997257Y29768500D01*
X-25856741Y29806151D01*
X-25730755Y29878889D01*
X-25627888Y29981756D01*
X-25555150Y30107742D01*
X-25517499Y30248258D01*
X-25517498Y30248258D01*
X-25517498Y30393740D01*
X-25517499Y30393741D01*
X-24082499Y30393741D01*
X-24082499Y30248258D01*
X-24044848Y30107744D01*
X-24044847Y30107740D01*
X-23983336Y30001201D01*
X-23972109Y29981756D01*
X-23869242Y29878889D01*
X-23869240Y29878888D01*
X-23743259Y29806152D01*
X-23743257Y29806152D01*
X-23743256Y29806151D01*
X-23632436Y29776457D01*
X-23602741Y29768500D01*
X-23602740Y29768499D01*
X-23602737Y29768499D01*
X-23457258Y29768499D01*
X-23457258Y29768500D01*
X-23316742Y29806151D01*
X-23190756Y29878889D01*
X-23087889Y29981756D01*
X-23015151Y30107742D01*
X-22977500Y30248258D01*
X-22977499Y30248258D01*
X-22977499Y30393740D01*
X-22977500Y30393741D01*
X-22985457Y30423436D01*
X-23015151Y30534256D01*
X-23015152Y30534258D01*
X-23015152Y30534259D01*
X-23061266Y30614130D01*
X-23087889Y30660242D01*
X-23190756Y30763109D01*
X-23316740Y30835847D01*
X-23316744Y30835848D01*
X-23457258Y30873499D01*
X-23457261Y30873499D01*
X-23602737Y30873499D01*
X-23602740Y30873499D01*
X-23743255Y30835848D01*
X-23743259Y30835847D01*
X-23869243Y30763109D01*
X-23869243Y30763108D01*
X-23972108Y30660243D01*
X-23972109Y30660243D01*
X-24044847Y30534259D01*
X-24044848Y30534255D01*
X-24082499Y30393741D01*
X-25517499Y30393741D01*
X-25525456Y30423436D01*
X-25555150Y30534256D01*
X-25555151Y30534258D01*
X-25555151Y30534259D01*
X-25601265Y30614130D01*
X-25627888Y30660242D01*
X-25730755Y30763109D01*
X-25856739Y30835847D01*
X-25856743Y30835848D01*
X-25997257Y30873499D01*
X-25997260Y30873499D01*
X-26142736Y30873499D01*
X-26142739Y30873499D01*
X-26283254Y30835848D01*
X-26283258Y30835847D01*
X-26409242Y30763109D01*
X-26409242Y30763108D01*
X-26512107Y30660243D01*
X-26512108Y30660243D01*
X-26584846Y30534259D01*
X-26584847Y30534255D01*
X-26622498Y30393741D01*
X-28057501Y30393741D01*
X-28095152Y30534254D01*
X-28095153Y30534258D01*
X-28167891Y30660242D01*
X-28270757Y30763108D01*
X-28396741Y30835846D01*
X-28396745Y30835847D01*
X-28537259Y30873498D01*
X-28537262Y30873498D01*
X-28682738Y30873498D01*
X-28682741Y30873498D01*
X-28823256Y30835847D01*
X-28823260Y30835846D01*
X-28949244Y30763108D01*
X-28949244Y30763107D01*
X-29052109Y30660242D01*
X-29052110Y30660242D01*
X-29124848Y30534258D01*
X-29124849Y30534254D01*
X-29162500Y30393740D01*
X-30597499Y30393740D01*
X-30597500Y30393741D01*
X-30605457Y30423436D01*
X-30635151Y30534256D01*
X-30635152Y30534258D01*
X-30635152Y30534259D01*
X-30681266Y30614130D01*
X-30707889Y30660242D01*
X-30810756Y30763109D01*
X-30936740Y30835847D01*
X-30936744Y30835848D01*
X-31077258Y30873499D01*
X-31077261Y30873499D01*
X-31222737Y30873499D01*
X-31222740Y30873499D01*
X-31363255Y30835848D01*
X-31363259Y30835847D01*
X-31489243Y30763109D01*
X-31489243Y30763108D01*
X-31592108Y30660243D01*
X-31592109Y30660243D01*
X-31664847Y30534259D01*
X-31664848Y30534255D01*
X-31702499Y30393741D01*
X-33137498Y30393741D01*
X-33145455Y30423436D01*
X-33175149Y30534256D01*
X-33175150Y30534258D01*
X-33175150Y30534259D01*
X-33221264Y30614130D01*
X-33247887Y30660242D01*
X-33350754Y30763109D01*
X-33476738Y30835847D01*
X-33476742Y30835848D01*
X-33617256Y30873499D01*
X-33617259Y30873499D01*
X-33762735Y30873499D01*
X-33762738Y30873499D01*
X-33903253Y30835848D01*
X-33903257Y30835847D01*
X-34029241Y30763109D01*
X-34029241Y30763108D01*
X-34132106Y30660243D01*
X-34132107Y30660243D01*
X-34204845Y30534259D01*
X-34204846Y30534255D01*
X-34242497Y30393741D01*
X-35677500Y30393741D01*
X-35685457Y30423436D01*
X-35715151Y30534256D01*
X-35715152Y30534258D01*
X-35715152Y30534259D01*
X-35761266Y30614130D01*
X-35787889Y30660242D01*
X-35890756Y30763109D01*
X-36016740Y30835847D01*
X-36016744Y30835848D01*
X-36157258Y30873499D01*
X-36157261Y30873499D01*
X-36302737Y30873499D01*
X-36302740Y30873499D01*
X-36443255Y30835848D01*
X-36443259Y30835847D01*
X-36569243Y30763109D01*
X-36569243Y30763108D01*
X-36672108Y30660243D01*
X-36672109Y30660243D01*
X-36744847Y30534259D01*
X-36744848Y30534255D01*
X-36782499Y30393741D01*
X-38217501Y30393741D01*
X-38225458Y30423436D01*
X-38255152Y30534256D01*
X-38255153Y30534258D01*
X-38255153Y30534259D01*
X-38301267Y30614130D01*
X-38327890Y30660242D01*
X-38430757Y30763109D01*
X-38556741Y30835847D01*
X-38556745Y30835848D01*
X-38697259Y30873499D01*
X-38697262Y30873499D01*
X-38842738Y30873499D01*
X-38842741Y30873499D01*
X-38983256Y30835848D01*
X-38983260Y30835847D01*
X-39109244Y30763109D01*
X-39109244Y30763108D01*
X-39212109Y30660243D01*
X-39212110Y30660243D01*
X-39284848Y30534259D01*
X-39284849Y30534255D01*
X-39322500Y30393741D01*
X-40757500Y30393741D01*
X-40765457Y30423436D01*
X-40795151Y30534256D01*
X-40795152Y30534258D01*
X-40795152Y30534259D01*
X-40841266Y30614130D01*
X-40867889Y30660242D01*
X-40970756Y30763109D01*
X-41096740Y30835847D01*
X-41096744Y30835848D01*
X-41237258Y30873499D01*
X-41237261Y30873499D01*
X-41382737Y30873499D01*
X-41382740Y30873499D01*
X-41523255Y30835848D01*
X-41523259Y30835847D01*
X-41649243Y30763109D01*
X-41649243Y30763108D01*
X-41752108Y30660243D01*
X-41752109Y30660243D01*
X-41824847Y30534259D01*
X-41824848Y30534255D01*
X-41862499Y30393741D01*
X-43297499Y30393741D01*
X-43305456Y30423436D01*
X-43335150Y30534256D01*
X-43335151Y30534258D01*
X-43335151Y30534259D01*
X-43381265Y30614130D01*
X-43407888Y30660242D01*
X-43510755Y30763109D01*
X-43636739Y30835847D01*
X-43636743Y30835848D01*
X-43777257Y30873499D01*
X-43777260Y30873499D01*
X-43922736Y30873499D01*
X-43922739Y30873499D01*
X-44063254Y30835848D01*
X-44063258Y30835847D01*
X-44189242Y30763109D01*
X-44189242Y30763108D01*
X-44292107Y30660243D01*
X-44292108Y30660243D01*
X-44364846Y30534259D01*
X-44364847Y30534255D01*
X-44402498Y30393741D01*
X-45837500Y30393741D01*
X-45845457Y30423436D01*
X-45875151Y30534256D01*
X-45875152Y30534258D01*
X-45875152Y30534259D01*
X-45921266Y30614130D01*
X-45947889Y30660242D01*
X-46050756Y30763109D01*
X-46176740Y30835847D01*
X-46176744Y30835848D01*
X-46317258Y30873499D01*
X-46317261Y30873499D01*
X-46462737Y30873499D01*
X-46462740Y30873499D01*
X-46603255Y30835848D01*
X-46603259Y30835847D01*
X-46729243Y30763109D01*
X-46729243Y30763108D01*
X-46832108Y30660243D01*
X-46832109Y30660243D01*
X-46904847Y30534259D01*
X-46904848Y30534255D01*
X-46942499Y30393741D01*
X-48377499Y30393741D01*
X-48385456Y30423436D01*
X-48415150Y30534256D01*
X-48415151Y30534258D01*
X-48415151Y30534259D01*
X-48461265Y30614130D01*
X-48487888Y30660242D01*
X-48590755Y30763109D01*
X-48716739Y30835847D01*
X-48716743Y30835848D01*
X-48857257Y30873499D01*
X-48857260Y30873499D01*
X-49002736Y30873499D01*
X-49002739Y30873499D01*
X-49143254Y30835848D01*
X-49143258Y30835847D01*
X-49269242Y30763109D01*
X-49269242Y30763108D01*
X-49372107Y30660243D01*
X-49372108Y30660243D01*
X-49444846Y30534259D01*
X-49444847Y30534255D01*
X-49482498Y30393741D01*
X-50917501Y30393741D01*
X-50925458Y30423436D01*
X-50955152Y30534256D01*
X-50955153Y30534258D01*
X-50955153Y30534259D01*
X-51001267Y30614130D01*
X-51027890Y30660242D01*
X-51130757Y30763109D01*
X-51256741Y30835847D01*
X-51256745Y30835848D01*
X-51397259Y30873499D01*
X-51397262Y30873499D01*
X-51542738Y30873499D01*
X-51542741Y30873499D01*
X-51683256Y30835848D01*
X-51683260Y30835847D01*
X-51809244Y30763109D01*
X-51809244Y30763108D01*
X-51912109Y30660243D01*
X-51912110Y30660243D01*
X-51984848Y30534259D01*
X-51984849Y30534255D01*
X-52022500Y30393741D01*
X-74778041Y30393741D01*
X-74726845Y30738882D01*
X-74725914Y30743564D01*
X-74636480Y31100605D01*
X-74635084Y31105204D01*
X-74552393Y31336309D01*
X-74511083Y31451764D01*
X-74509254Y31456177D01*
X-74351885Y31788907D01*
X-74349637Y31793114D01*
X-74160402Y32108834D01*
X-74157732Y32112827D01*
X-73938478Y32408456D01*
X-73935452Y32412144D01*
X-73688269Y32684869D01*
X-73684868Y32688269D01*
X-73412144Y32935452D01*
X-73408456Y32938478D01*
X-73112823Y33157735D01*
X-73108829Y33160404D01*
X-72793114Y33349637D01*
X-72788907Y33351885D01*
X-72456177Y33509254D01*
X-72451764Y33511083D01*
X-72105202Y33635085D01*
X-72100602Y33636480D01*
X-71743564Y33725914D01*
X-71738882Y33726845D01*
X-71374780Y33780854D01*
X-71370023Y33781322D01*
X-71001201Y33799442D01*
X-70998797Y33799500D01*
X-70960118Y33799500D01*
X-4039882Y33799500D01*
X-4001203Y33799500D01*
X-3998800Y33799442D01*
G37*
G04 #@! TD.AperFunction*
G04 #@! TD*
G04 #@! TA.AperFunction,Conductor*
G04 #@! TO.N,+3V3*
G36*
X-71330322Y17185648D02*
G01*
X-71316574Y17158666D01*
X-71312559Y17133320D01*
X-71292351Y17005729D01*
X-71292350Y17005726D01*
X-71222916Y16792030D01*
X-71120907Y16591827D01*
X-70988836Y16410046D01*
X-70988835Y16410045D01*
X-70988831Y16410040D01*
X-70829960Y16251169D01*
X-70829956Y16251166D01*
X-70829954Y16251164D01*
X-70648173Y16119093D01*
X-70447970Y16017084D01*
X-70234274Y15947650D01*
X-70012347Y15912500D01*
X-70012346Y15912500D01*
X-69787654Y15912500D01*
X-69787653Y15912500D01*
X-69565726Y15947650D01*
X-69352030Y16017084D01*
X-69151827Y16119093D01*
X-68970046Y16251164D01*
X-68970043Y16251168D01*
X-68970040Y16251169D01*
X-68811169Y16410040D01*
X-68811168Y16410043D01*
X-68811164Y16410046D01*
X-68679093Y16591827D01*
X-68577084Y16792030D01*
X-68507650Y17005726D01*
X-68483427Y17158666D01*
X-68463832Y17190642D01*
X-68435030Y17200000D01*
X-66204823Y17200000D01*
X-66195264Y17199058D01*
X-66133025Y17186678D01*
X-66115360Y17179362D01*
X-66066681Y17146835D01*
X-66053166Y17133320D01*
X-66036902Y17108979D01*
X-66020639Y17084640D01*
X-66013323Y17066977D01*
X-66004535Y17022798D01*
X-66001140Y17005729D01*
X-66000942Y17004737D01*
X-66000000Y16995177D01*
X-66000000Y7200000D01*
X-65987821Y7138771D01*
X-65984776Y7123462D01*
X-65941422Y7058579D01*
X-65876538Y7015225D01*
X-65876539Y7015225D01*
X-65876537Y7015224D01*
X-65800000Y7000000D01*
X-60287666Y7000000D01*
X-60278107Y6999058D01*
X-60215868Y6986678D01*
X-60198204Y6979362D01*
X-60166267Y6958023D01*
X-60145588Y6944205D01*
X-60145433Y6944102D01*
X-60138008Y6938008D01*
X-56061993Y2861993D01*
X-56055899Y2854568D01*
X-56020639Y2801797D01*
X-56013323Y2784134D01*
X-56000942Y2721894D01*
X-56000000Y2712334D01*
X-56000000Y904824D01*
X-56000942Y895264D01*
X-56013323Y833024D01*
X-56020639Y815361D01*
X-56053164Y766683D01*
X-56066683Y753164D01*
X-56115361Y720639D01*
X-56133024Y713323D01*
X-56180725Y703835D01*
X-56195266Y700942D01*
X-56204823Y700000D01*
X-70073982Y700000D01*
X-70108630Y714352D01*
X-70122982Y749000D01*
X-70108630Y783648D01*
X-70089628Y795435D01*
X-69766556Y904290D01*
X-69766554Y904292D01*
X-69766551Y904292D01*
X-69683729Y942611D01*
X-69439082Y1055796D01*
X-69129908Y1241820D01*
X-68842658Y1460181D01*
X-68580702Y1708319D01*
X-68347110Y1983325D01*
X-68144620Y2281975D01*
X-67975607Y2600767D01*
X-67842053Y2935964D01*
X-67782626Y3150000D01*
X-66406894Y3150000D01*
X-66389426Y3039714D01*
X-66338733Y2940223D01*
X-66259777Y2861267D01*
X-66160286Y2810574D01*
X-66050000Y2793106D01*
X-65939714Y2810574D01*
X-65840223Y2861267D01*
X-65761267Y2940223D01*
X-65710574Y3039714D01*
X-65693106Y3150000D01*
X-65710574Y3260286D01*
X-65761267Y3359777D01*
X-65840223Y3438733D01*
X-65840226Y3438735D01*
X-65939714Y3489426D01*
X-66050000Y3506894D01*
X-66160287Y3489426D01*
X-66259775Y3438735D01*
X-66259778Y3438733D01*
X-66338733Y3359778D01*
X-66338735Y3359775D01*
X-66389426Y3260287D01*
X-66389426Y3260286D01*
X-66406894Y3150000D01*
X-67782626Y3150000D01*
X-67745522Y3283635D01*
X-67687148Y3639706D01*
X-67667613Y4000000D01*
X-65006894Y4000000D01*
X-64989426Y3889714D01*
X-64946670Y3805799D01*
X-64938733Y3790223D01*
X-64859777Y3711267D01*
X-64760286Y3660574D01*
X-64650000Y3643106D01*
X-64539714Y3660574D01*
X-64520866Y3670178D01*
X-64504021Y3678760D01*
X-64466634Y3681703D01*
X-64438117Y3657346D01*
X-64435174Y3619959D01*
X-64438116Y3612857D01*
X-64439425Y3610289D01*
X-64439426Y3610288D01*
X-64439426Y3610286D01*
X-64451153Y3536247D01*
X-64456894Y3500000D01*
X-64439426Y3389714D01*
X-64393948Y3300457D01*
X-64388733Y3290223D01*
X-64309777Y3211267D01*
X-64210286Y3160574D01*
X-64100000Y3143106D01*
X-63989714Y3160574D01*
X-63890223Y3211267D01*
X-63811267Y3290223D01*
X-63760574Y3389714D01*
X-63743106Y3500000D01*
X-63759489Y3603430D01*
X-63750734Y3639893D01*
X-63718758Y3659489D01*
X-63703436Y3659489D01*
X-63600000Y3643106D01*
X-63489714Y3660574D01*
X-63390223Y3711267D01*
X-63311267Y3790223D01*
X-63260574Y3889714D01*
X-63243106Y4000000D01*
X-63254455Y4071652D01*
X-60327500Y4071652D01*
X-60327500Y3928348D01*
X-60313926Y3860108D01*
X-60299544Y3787799D01*
X-60299542Y3787793D01*
X-60246846Y3660574D01*
X-60244702Y3655400D01*
X-60165086Y3536246D01*
X-60063754Y3434914D01*
X-59944600Y3355298D01*
X-59812204Y3300457D01*
X-59671652Y3272500D01*
X-59671649Y3272500D01*
X-59528351Y3272500D01*
X-59528348Y3272500D01*
X-59387796Y3300457D01*
X-59255400Y3355298D01*
X-59136246Y3434914D01*
X-59034914Y3536246D01*
X-58955298Y3655400D01*
X-58900457Y3787796D01*
X-58872500Y3928348D01*
X-58872500Y4071652D01*
X-58900457Y4212204D01*
X-58955298Y4344600D01*
X-59034914Y4463754D01*
X-59136246Y4565086D01*
X-59255400Y4644702D01*
X-59255403Y4644704D01*
X-59255404Y4644704D01*
X-59387793Y4699542D01*
X-59387799Y4699544D01*
X-59444480Y4710818D01*
X-59528348Y4727500D01*
X-59671652Y4727500D01*
X-59727622Y4716367D01*
X-59812202Y4699544D01*
X-59812208Y4699542D01*
X-59944597Y4644704D01*
X-60063754Y4565087D01*
X-60165087Y4463754D01*
X-60244704Y4344597D01*
X-60299542Y4212208D01*
X-60299544Y4212202D01*
X-60311770Y4150734D01*
X-60327500Y4071652D01*
X-63254455Y4071652D01*
X-63260574Y4110286D01*
X-63311267Y4209777D01*
X-63390223Y4288733D01*
X-63390226Y4288735D01*
X-63489714Y4339426D01*
X-63522381Y4344600D01*
X-63600000Y4356894D01*
X-63600001Y4356894D01*
X-63623357Y4353195D01*
X-63703428Y4340513D01*
X-63739893Y4349267D01*
X-63759489Y4381243D01*
X-63759489Y4396565D01*
X-63743106Y4500000D01*
X-63760574Y4610286D01*
X-63811267Y4709777D01*
X-63890223Y4788733D01*
X-63890226Y4788735D01*
X-63989714Y4839426D01*
X-64100000Y4856894D01*
X-64210287Y4839426D01*
X-64309775Y4788735D01*
X-64309778Y4788733D01*
X-64388733Y4709778D01*
X-64388735Y4709775D01*
X-64439426Y4610287D01*
X-64439426Y4610286D01*
X-64456894Y4500000D01*
X-64439426Y4389714D01*
X-64439426Y4389713D01*
X-64439425Y4389712D01*
X-64438118Y4387147D01*
X-64435174Y4349760D01*
X-64459529Y4321242D01*
X-64496916Y4318298D01*
X-64504020Y4321240D01*
X-64539712Y4339425D01*
X-64539713Y4339426D01*
X-64539714Y4339426D01*
X-64650000Y4356894D01*
X-64760287Y4339426D01*
X-64859775Y4288735D01*
X-64859778Y4288733D01*
X-64938733Y4209778D01*
X-64938735Y4209775D01*
X-64989426Y4110287D01*
X-65006894Y4000000D01*
X-67667613Y4000000D01*
X-67687148Y4360294D01*
X-67745522Y4716365D01*
X-67842053Y5064036D01*
X-67975607Y5399233D01*
X-68144620Y5718025D01*
X-68144622Y5718028D01*
X-68144625Y5718034D01*
X-68347107Y6016671D01*
X-68363510Y6035982D01*
X-68427429Y6111234D01*
X-68580695Y6291674D01*
X-68580705Y6291684D01*
X-68842648Y6539810D01*
X-68842651Y6539812D01*
X-68842658Y6539819D01*
X-69129908Y6758180D01*
X-69129909Y6758181D01*
X-69129916Y6758186D01*
X-69428784Y6938008D01*
X-69439082Y6944204D01*
X-69468951Y6958023D01*
X-69766551Y7095709D01*
X-70108494Y7210922D01*
X-70460871Y7288487D01*
X-70460880Y7288488D01*
X-70819588Y7327500D01*
X-71180412Y7327500D01*
X-71479021Y7295025D01*
X-71539130Y7288487D01*
X-71891506Y7210922D01*
X-71891509Y7210922D01*
X-72233450Y7095709D01*
X-72560917Y6944205D01*
X-72870085Y6758186D01*
X-73018160Y6645623D01*
X-73157342Y6539819D01*
X-73157346Y6539816D01*
X-73157353Y6539810D01*
X-73419296Y6291684D01*
X-73419306Y6291674D01*
X-73652894Y6016671D01*
X-73855376Y5718034D01*
X-73855380Y5718026D01*
X-74024393Y5399235D01*
X-74024395Y5399230D01*
X-74157947Y5064038D01*
X-74157950Y5064029D01*
X-74203786Y4898940D01*
X-74226884Y4869394D01*
X-74264109Y4864835D01*
X-74293655Y4887933D01*
X-74300000Y4912049D01*
X-74300000Y10966606D01*
X-73667500Y10966606D01*
X-73667500Y10773395D01*
X-73637276Y10582563D01*
X-73637275Y10582560D01*
X-73577570Y10398805D01*
X-73489851Y10226648D01*
X-73489849Y10226645D01*
X-73376284Y10070336D01*
X-73376280Y10070331D01*
X-73239669Y9933720D01*
X-73239665Y9933717D01*
X-73239663Y9933715D01*
X-73083350Y9820148D01*
X-72911197Y9732431D01*
X-72727440Y9672725D01*
X-72536606Y9642500D01*
X-72536605Y9642500D01*
X-72343395Y9642500D01*
X-72343394Y9642500D01*
X-72152560Y9672725D01*
X-71968803Y9732431D01*
X-71796650Y9820148D01*
X-71640337Y9933715D01*
X-71640334Y9933719D01*
X-71640331Y9933720D01*
X-71503720Y10070331D01*
X-71503719Y10070334D01*
X-71503715Y10070337D01*
X-71390148Y10226650D01*
X-71302431Y10398803D01*
X-71242725Y10582560D01*
X-71212500Y10773394D01*
X-71212500Y10966606D01*
X-71242725Y11157440D01*
X-71302431Y11341197D01*
X-71390148Y11513350D01*
X-71393818Y11518401D01*
X-71482619Y11640626D01*
X-71503715Y11669663D01*
X-71503717Y11669665D01*
X-71503720Y11669669D01*
X-71640331Y11806280D01*
X-71640336Y11806284D01*
X-71646241Y11810574D01*
X-71687509Y11840557D01*
X-71796645Y11919849D01*
X-71796648Y11919851D01*
X-71968805Y12007570D01*
X-72152560Y12067275D01*
X-72152563Y12067276D01*
X-72299158Y12090494D01*
X-72343394Y12097500D01*
X-72536606Y12097500D01*
X-72572518Y12091813D01*
X-72727438Y12067276D01*
X-72727441Y12067275D01*
X-72911196Y12007570D01*
X-73083353Y11919851D01*
X-73083356Y11919849D01*
X-73239665Y11806284D01*
X-73376284Y11669665D01*
X-73489849Y11513356D01*
X-73489851Y11513353D01*
X-73577570Y11341196D01*
X-73637275Y11157441D01*
X-73637276Y11157438D01*
X-73667500Y10966606D01*
X-74300000Y10966606D01*
X-74300000Y12286432D01*
X-70777500Y12286432D01*
X-70777500Y12113569D01*
X-70743781Y11944053D01*
X-70743778Y11944042D01*
X-70681259Y11793107D01*
X-70677631Y11784348D01*
X-70581599Y11640626D01*
X-70459374Y11518401D01*
X-70315652Y11422369D01*
X-70155957Y11356222D01*
X-70155951Y11356221D01*
X-70155948Y11356220D01*
X-69986432Y11322501D01*
X-69986426Y11322500D01*
X-69813574Y11322500D01*
X-69644043Y11356222D01*
X-69484348Y11422369D01*
X-69340626Y11518401D01*
X-69218401Y11640626D01*
X-69122369Y11784348D01*
X-69056222Y11944043D01*
X-69022500Y12113574D01*
X-69022500Y12150000D01*
X-67556894Y12150000D01*
X-67539426Y12039714D01*
X-67490680Y11944043D01*
X-67488733Y11940223D01*
X-67409777Y11861267D01*
X-67310286Y11810574D01*
X-67200000Y11793106D01*
X-67089714Y11810574D01*
X-66990223Y11861267D01*
X-66911267Y11940223D01*
X-66860574Y12039714D01*
X-66843106Y12150000D01*
X-66860574Y12260286D01*
X-66911267Y12359777D01*
X-66990223Y12438733D01*
X-66990226Y12438735D01*
X-67089714Y12489426D01*
X-67200000Y12506894D01*
X-67310287Y12489426D01*
X-67409775Y12438735D01*
X-67409778Y12438733D01*
X-67488733Y12359778D01*
X-67488735Y12359775D01*
X-67539426Y12260287D01*
X-67556894Y12150000D01*
X-69022500Y12150000D01*
X-69022500Y12286426D01*
X-69037090Y12359775D01*
X-69056220Y12455948D01*
X-69056223Y12455959D01*
X-69122368Y12615649D01*
X-69122369Y12615652D01*
X-69218401Y12759374D01*
X-69340626Y12881599D01*
X-69484348Y12977631D01*
X-69484351Y12977633D01*
X-69484352Y12977633D01*
X-69644042Y13043778D01*
X-69644053Y13043781D01*
X-69813569Y13077500D01*
X-69813574Y13077500D01*
X-69986426Y13077500D01*
X-69986432Y13077500D01*
X-70155948Y13043781D01*
X-70155959Y13043778D01*
X-70315649Y12977633D01*
X-70459374Y12881600D01*
X-70581600Y12759374D01*
X-70677633Y12615649D01*
X-70743778Y12455959D01*
X-70743781Y12455948D01*
X-70777500Y12286432D01*
X-74300000Y12286432D01*
X-74300000Y13556432D01*
X-73317500Y13556432D01*
X-73317500Y13383569D01*
X-73283781Y13214053D01*
X-73283778Y13214043D01*
X-73217631Y13054348D01*
X-73121599Y12910626D01*
X-72999374Y12788401D01*
X-72855652Y12692369D01*
X-72695957Y12626222D01*
X-72695951Y12626221D01*
X-72695948Y12626220D01*
X-72526432Y12592501D01*
X-72526426Y12592500D01*
X-72353574Y12592500D01*
X-72184043Y12626222D01*
X-72024348Y12692369D01*
X-71880626Y12788401D01*
X-71758401Y12910626D01*
X-71662369Y13054348D01*
X-71596222Y13214043D01*
X-71562500Y13383574D01*
X-71562500Y13556426D01*
X-71596222Y13725957D01*
X-71662369Y13885652D01*
X-71758401Y14029374D01*
X-71880626Y14151599D01*
X-72024348Y14247631D01*
X-72024351Y14247633D01*
X-72024352Y14247633D01*
X-72184042Y14313778D01*
X-72184053Y14313781D01*
X-72353569Y14347500D01*
X-72353574Y14347500D01*
X-72526426Y14347500D01*
X-72526432Y14347500D01*
X-72695948Y14313781D01*
X-72695959Y14313778D01*
X-72855649Y14247633D01*
X-72999374Y14151600D01*
X-73121600Y14029374D01*
X-73217633Y13885649D01*
X-73283778Y13725959D01*
X-73283781Y13725948D01*
X-73317500Y13556432D01*
X-74300000Y13556432D01*
X-74300000Y14826432D01*
X-70777500Y14826432D01*
X-70777500Y14653569D01*
X-70743781Y14484053D01*
X-70743778Y14484042D01*
X-70687221Y14347500D01*
X-70677631Y14324348D01*
X-70581599Y14180626D01*
X-70459374Y14058401D01*
X-70315652Y13962369D01*
X-70155957Y13896222D01*
X-70155951Y13896221D01*
X-70155948Y13896220D01*
X-69986432Y13862501D01*
X-69986426Y13862500D01*
X-69813574Y13862500D01*
X-69644043Y13896222D01*
X-69484348Y13962369D01*
X-69340626Y14058401D01*
X-69218401Y14180626D01*
X-69122369Y14324348D01*
X-69056222Y14484043D01*
X-69022500Y14653574D01*
X-69022500Y14750000D01*
X-67556894Y14750000D01*
X-67539426Y14639714D01*
X-67488733Y14540223D01*
X-67409777Y14461267D01*
X-67310286Y14410574D01*
X-67200000Y14393106D01*
X-67089714Y14410574D01*
X-66990223Y14461267D01*
X-66911267Y14540223D01*
X-66860574Y14639714D01*
X-66843106Y14750000D01*
X-66860574Y14860286D01*
X-66911267Y14959777D01*
X-66990223Y15038733D01*
X-66990226Y15038735D01*
X-67089714Y15089426D01*
X-67200000Y15106894D01*
X-67310287Y15089426D01*
X-67409775Y15038735D01*
X-67409778Y15038733D01*
X-67488733Y14959778D01*
X-67488735Y14959775D01*
X-67539426Y14860287D01*
X-67539426Y14860286D01*
X-67556894Y14750000D01*
X-69022500Y14750000D01*
X-69022500Y14826426D01*
X-69049025Y14959777D01*
X-69056220Y14995948D01*
X-69056223Y14995959D01*
X-69122368Y15155649D01*
X-69122369Y15155652D01*
X-69218401Y15299374D01*
X-69340626Y15421599D01*
X-69484348Y15517631D01*
X-69484351Y15517633D01*
X-69484352Y15517633D01*
X-69644042Y15583778D01*
X-69644053Y15583781D01*
X-69813569Y15617500D01*
X-69813574Y15617500D01*
X-69986426Y15617500D01*
X-69986432Y15617500D01*
X-70155948Y15583781D01*
X-70155959Y15583778D01*
X-70315649Y15517633D01*
X-70459374Y15421600D01*
X-70581600Y15299374D01*
X-70677633Y15155649D01*
X-70743778Y14995959D01*
X-70743781Y14995948D01*
X-70777500Y14826432D01*
X-74300000Y14826432D01*
X-74300000Y16995177D01*
X-74299061Y17004726D01*
X-74286677Y17066982D01*
X-74279362Y17084640D01*
X-74246833Y17133323D01*
X-74233323Y17146833D01*
X-74184639Y17179363D01*
X-74166982Y17186677D01*
X-74104726Y17199061D01*
X-74095177Y17200000D01*
X-71364970Y17200000D01*
X-71330322Y17185648D01*
G37*
G04 #@! TD.AperFunction*
G04 #@! TD*
M02*
