G04 #@! TF.GenerationSoftware,KiCad,Pcbnew,8.0.6*
G04 #@! TF.CreationDate,2024-11-07T02:26:55-08:00*
G04 #@! TF.ProjectId,hvd-50-idc-panel,6876642d-3530-42d6-9964-632d70616e65,1*
G04 #@! TF.SameCoordinates,Original*
G04 #@! TF.FileFunction,Legend,Top*
G04 #@! TF.FilePolarity,Positive*
%FSLAX46Y46*%
G04 Gerber Fmt 4.6, Leading zero omitted, Abs format (unit mm)*
G04 Created by KiCad (PCBNEW 8.0.6) date 2024-11-07 02:26:55*
%MOMM*%
%LPD*%
G01*
G04 APERTURE LIST*
G04 Aperture macros list*
%AMRoundRect*
0 Rectangle with rounded corners*
0 $1 Rounding radius*
0 $2 $3 $4 $5 $6 $7 $8 $9 X,Y pos of 4 corners*
0 Add a 4 corners polygon primitive as box body*
4,1,4,$2,$3,$4,$5,$6,$7,$8,$9,$2,$3,0*
0 Add four circle primitives for the rounded corners*
1,1,$1+$1,$2,$3*
1,1,$1+$1,$4,$5*
1,1,$1+$1,$6,$7*
1,1,$1+$1,$8,$9*
0 Add four rect primitives between the rounded corners*
20,1,$1+$1,$2,$3,$4,$5,0*
20,1,$1+$1,$4,$5,$6,$7,0*
20,1,$1+$1,$6,$7,$8,$9,0*
20,1,$1+$1,$8,$9,$2,$3,0*%
G04 Aperture macros list end*
%ADD10C,0.300000*%
%ADD11C,0.100000*%
%ADD12C,0.150000*%
%ADD13C,0.120000*%
%ADD14C,0.000000*%
%ADD15C,0.500000*%
%ADD16C,2.500000*%
%ADD17RoundRect,0.264706X0.635294X-0.635294X0.635294X0.635294X-0.635294X0.635294X-0.635294X-0.635294X0*%
%ADD18C,1.800000*%
%ADD19C,6.500000*%
%ADD20RoundRect,0.225000X0.225000X-0.275000X0.225000X0.275000X-0.225000X0.275000X-0.225000X-0.275000X0*%
%ADD21RoundRect,0.225000X-0.225000X0.275000X-0.225000X-0.275000X0.225000X-0.275000X0.225000X0.275000X0*%
%ADD22C,2.300000*%
%ADD23C,2.700000*%
%ADD24C,1.950000*%
%ADD25RoundRect,0.062500X0.137500X-0.287500X0.137500X0.287500X-0.137500X0.287500X-0.137500X-0.287500X0*%
%ADD26RoundRect,0.265625X0.584375X-0.584375X0.584375X0.584375X-0.584375X0.584375X-0.584375X-0.584375X0*%
%ADD27C,0.800000*%
%ADD28C,1.200000*%
%ADD29RoundRect,0.125000X0.125000X0.925000X-0.125000X0.925000X-0.125000X-0.925000X0.125000X-0.925000X0*%
G04 APERTURE END LIST*
D10*
X-44428572Y134325172D02*
X-44428572Y133253743D01*
X-44428572Y133253743D02*
X-44500001Y133039458D01*
X-44500001Y133039458D02*
X-44642858Y132896600D01*
X-44642858Y132896600D02*
X-44857144Y132825172D01*
X-44857144Y132825172D02*
X-45000001Y132825172D01*
X-43000001Y132825172D02*
X-43714287Y132825172D01*
X-43714287Y132825172D02*
X-43714287Y134325172D01*
X-41642858Y132968029D02*
X-41714286Y132896600D01*
X-41714286Y132896600D02*
X-41928572Y132825172D01*
X-41928572Y132825172D02*
X-42071429Y132825172D01*
X-42071429Y132825172D02*
X-42285715Y132896600D01*
X-42285715Y132896600D02*
X-42428572Y133039458D01*
X-42428572Y133039458D02*
X-42500001Y133182315D01*
X-42500001Y133182315D02*
X-42571429Y133468029D01*
X-42571429Y133468029D02*
X-42571429Y133682315D01*
X-42571429Y133682315D02*
X-42500001Y133968029D01*
X-42500001Y133968029D02*
X-42428572Y134110886D01*
X-42428572Y134110886D02*
X-42285715Y134253743D01*
X-42285715Y134253743D02*
X-42071429Y134325172D01*
X-42071429Y134325172D02*
X-41928572Y134325172D01*
X-41928572Y134325172D02*
X-41714286Y134253743D01*
X-41714286Y134253743D02*
X-41642858Y134182315D01*
X-40571429Y134325172D02*
X-40571429Y133253743D01*
X-40571429Y133253743D02*
X-40642858Y133039458D01*
X-40642858Y133039458D02*
X-40785715Y132896600D01*
X-40785715Y132896600D02*
X-41000001Y132825172D01*
X-41000001Y132825172D02*
X-41142858Y132825172D01*
X-39142858Y132825172D02*
X-39857144Y132825172D01*
X-39857144Y132825172D02*
X-39857144Y134325172D01*
X-37785715Y132968029D02*
X-37857143Y132896600D01*
X-37857143Y132896600D02*
X-38071429Y132825172D01*
X-38071429Y132825172D02*
X-38214286Y132825172D01*
X-38214286Y132825172D02*
X-38428572Y132896600D01*
X-38428572Y132896600D02*
X-38571429Y133039458D01*
X-38571429Y133039458D02*
X-38642858Y133182315D01*
X-38642858Y133182315D02*
X-38714286Y133468029D01*
X-38714286Y133468029D02*
X-38714286Y133682315D01*
X-38714286Y133682315D02*
X-38642858Y133968029D01*
X-38642858Y133968029D02*
X-38571429Y134110886D01*
X-38571429Y134110886D02*
X-38428572Y134253743D01*
X-38428572Y134253743D02*
X-38214286Y134325172D01*
X-38214286Y134325172D02*
X-38071429Y134325172D01*
X-38071429Y134325172D02*
X-37857143Y134253743D01*
X-37857143Y134253743D02*
X-37785715Y134182315D01*
X-36714286Y134325172D02*
X-36714286Y133253743D01*
X-36714286Y133253743D02*
X-36785715Y133039458D01*
X-36785715Y133039458D02*
X-36928572Y132896600D01*
X-36928572Y132896600D02*
X-37142858Y132825172D01*
X-37142858Y132825172D02*
X-37285715Y132825172D01*
X-35285715Y132825172D02*
X-36000001Y132825172D01*
X-36000001Y132825172D02*
X-36000001Y134325172D01*
X-33928572Y132968029D02*
X-34000000Y132896600D01*
X-34000000Y132896600D02*
X-34214286Y132825172D01*
X-34214286Y132825172D02*
X-34357143Y132825172D01*
X-34357143Y132825172D02*
X-34571429Y132896600D01*
X-34571429Y132896600D02*
X-34714286Y133039458D01*
X-34714286Y133039458D02*
X-34785715Y133182315D01*
X-34785715Y133182315D02*
X-34857143Y133468029D01*
X-34857143Y133468029D02*
X-34857143Y133682315D01*
X-34857143Y133682315D02*
X-34785715Y133968029D01*
X-34785715Y133968029D02*
X-34714286Y134110886D01*
X-34714286Y134110886D02*
X-34571429Y134253743D01*
X-34571429Y134253743D02*
X-34357143Y134325172D01*
X-34357143Y134325172D02*
X-34214286Y134325172D01*
X-34214286Y134325172D02*
X-34000000Y134253743D01*
X-34000000Y134253743D02*
X-33928572Y134182315D01*
X-32857143Y134325172D02*
X-32857143Y133253743D01*
X-32857143Y133253743D02*
X-32928572Y133039458D01*
X-32928572Y133039458D02*
X-33071429Y132896600D01*
X-33071429Y132896600D02*
X-33285715Y132825172D01*
X-33285715Y132825172D02*
X-33428572Y132825172D01*
X-31428572Y132825172D02*
X-32142858Y132825172D01*
X-32142858Y132825172D02*
X-32142858Y134325172D01*
X-30071429Y132968029D02*
X-30142857Y132896600D01*
X-30142857Y132896600D02*
X-30357143Y132825172D01*
X-30357143Y132825172D02*
X-30500000Y132825172D01*
X-30500000Y132825172D02*
X-30714286Y132896600D01*
X-30714286Y132896600D02*
X-30857143Y133039458D01*
X-30857143Y133039458D02*
X-30928572Y133182315D01*
X-30928572Y133182315D02*
X-31000000Y133468029D01*
X-31000000Y133468029D02*
X-31000000Y133682315D01*
X-31000000Y133682315D02*
X-30928572Y133968029D01*
X-30928572Y133968029D02*
X-30857143Y134110886D01*
X-30857143Y134110886D02*
X-30714286Y134253743D01*
X-30714286Y134253743D02*
X-30500000Y134325172D01*
X-30500000Y134325172D02*
X-30357143Y134325172D01*
X-30357143Y134325172D02*
X-30142857Y134253743D01*
X-30142857Y134253743D02*
X-30071429Y134182315D01*
D11*
X-11857143Y98544581D02*
X-11857143Y99211248D01*
X-11857143Y99020772D02*
X-11809524Y99116010D01*
X-11809524Y99116010D02*
X-11761905Y99163629D01*
X-11761905Y99163629D02*
X-11666667Y99211248D01*
X-11666667Y99211248D02*
X-11571429Y99211248D01*
X-10857143Y98592200D02*
X-10952381Y98544581D01*
X-10952381Y98544581D02*
X-11142857Y98544581D01*
X-11142857Y98544581D02*
X-11238095Y98592200D01*
X-11238095Y98592200D02*
X-11285714Y98687439D01*
X-11285714Y98687439D02*
X-11285714Y99068391D01*
X-11285714Y99068391D02*
X-11238095Y99163629D01*
X-11238095Y99163629D02*
X-11142857Y99211248D01*
X-11142857Y99211248D02*
X-10952381Y99211248D01*
X-10952381Y99211248D02*
X-10857143Y99163629D01*
X-10857143Y99163629D02*
X-10809524Y99068391D01*
X-10809524Y99068391D02*
X-10809524Y98973153D01*
X-10809524Y98973153D02*
X-11285714Y98877915D01*
X-10476190Y99211248D02*
X-10238095Y98544581D01*
X-10238095Y98544581D02*
X-10000000Y99211248D01*
X-9095238Y98544581D02*
X-9666666Y98544581D01*
X-9380952Y98544581D02*
X-9380952Y99544581D01*
X-9380952Y99544581D02*
X-9476190Y99401724D01*
X-9476190Y99401724D02*
X-9571428Y99306486D01*
X-9571428Y99306486D02*
X-9666666Y99258867D01*
X-11857143Y54544581D02*
X-11857143Y55211248D01*
X-11857143Y55020772D02*
X-11809524Y55116010D01*
X-11809524Y55116010D02*
X-11761905Y55163629D01*
X-11761905Y55163629D02*
X-11666667Y55211248D01*
X-11666667Y55211248D02*
X-11571429Y55211248D01*
X-10857143Y54592200D02*
X-10952381Y54544581D01*
X-10952381Y54544581D02*
X-11142857Y54544581D01*
X-11142857Y54544581D02*
X-11238095Y54592200D01*
X-11238095Y54592200D02*
X-11285714Y54687439D01*
X-11285714Y54687439D02*
X-11285714Y55068391D01*
X-11285714Y55068391D02*
X-11238095Y55163629D01*
X-11238095Y55163629D02*
X-11142857Y55211248D01*
X-11142857Y55211248D02*
X-10952381Y55211248D01*
X-10952381Y55211248D02*
X-10857143Y55163629D01*
X-10857143Y55163629D02*
X-10809524Y55068391D01*
X-10809524Y55068391D02*
X-10809524Y54973153D01*
X-10809524Y54973153D02*
X-11285714Y54877915D01*
X-10476190Y55211248D02*
X-10238095Y54544581D01*
X-10238095Y54544581D02*
X-10000000Y55211248D01*
X-9095238Y54544581D02*
X-9666666Y54544581D01*
X-9380952Y54544581D02*
X-9380952Y55544581D01*
X-9380952Y55544581D02*
X-9476190Y55401724D01*
X-9476190Y55401724D02*
X-9571428Y55306486D01*
X-9571428Y55306486D02*
X-9666666Y55258867D01*
X-11857143Y10544581D02*
X-11857143Y11211248D01*
X-11857143Y11020772D02*
X-11809524Y11116010D01*
X-11809524Y11116010D02*
X-11761905Y11163629D01*
X-11761905Y11163629D02*
X-11666667Y11211248D01*
X-11666667Y11211248D02*
X-11571429Y11211248D01*
X-10857143Y10592200D02*
X-10952381Y10544581D01*
X-10952381Y10544581D02*
X-11142857Y10544581D01*
X-11142857Y10544581D02*
X-11238095Y10592200D01*
X-11238095Y10592200D02*
X-11285714Y10687439D01*
X-11285714Y10687439D02*
X-11285714Y11068391D01*
X-11285714Y11068391D02*
X-11238095Y11163629D01*
X-11238095Y11163629D02*
X-11142857Y11211248D01*
X-11142857Y11211248D02*
X-10952381Y11211248D01*
X-10952381Y11211248D02*
X-10857143Y11163629D01*
X-10857143Y11163629D02*
X-10809524Y11068391D01*
X-10809524Y11068391D02*
X-10809524Y10973153D01*
X-10809524Y10973153D02*
X-11285714Y10877915D01*
X-10476190Y11211248D02*
X-10238095Y10544581D01*
X-10238095Y10544581D02*
X-10000000Y11211248D01*
X-9095238Y10544581D02*
X-9666666Y10544581D01*
X-9380952Y10544581D02*
X-9380952Y11544581D01*
X-9380952Y11544581D02*
X-9476190Y11401724D01*
X-9476190Y11401724D02*
X-9571428Y11306486D01*
X-9571428Y11306486D02*
X-9666666Y11258867D01*
D12*
X-74405181Y36243667D02*
X-73690896Y36243667D01*
X-73690896Y36243667D02*
X-73548039Y36196048D01*
X-73548039Y36196048D02*
X-73452800Y36100810D01*
X-73452800Y36100810D02*
X-73405181Y35957953D01*
X-73405181Y35957953D02*
X-73405181Y35862715D01*
X-74309943Y36672239D02*
X-74357562Y36719858D01*
X-74357562Y36719858D02*
X-74405181Y36815096D01*
X-74405181Y36815096D02*
X-74405181Y37053191D01*
X-74405181Y37053191D02*
X-74357562Y37148429D01*
X-74357562Y37148429D02*
X-74309943Y37196048D01*
X-74309943Y37196048D02*
X-74214705Y37243667D01*
X-74214705Y37243667D02*
X-74119467Y37243667D01*
X-74119467Y37243667D02*
X-73976610Y37196048D01*
X-73976610Y37196048D02*
X-73405181Y36624620D01*
X-73405181Y36624620D02*
X-73405181Y37243667D01*
X-74405181Y124243667D02*
X-73690896Y124243667D01*
X-73690896Y124243667D02*
X-73548039Y124196048D01*
X-73548039Y124196048D02*
X-73452800Y124100810D01*
X-73452800Y124100810D02*
X-73405181Y123957953D01*
X-73405181Y123957953D02*
X-73405181Y123862715D01*
X-74309943Y124672239D02*
X-74357562Y124719858D01*
X-74357562Y124719858D02*
X-74405181Y124815096D01*
X-74405181Y124815096D02*
X-74405181Y125053191D01*
X-74405181Y125053191D02*
X-74357562Y125148429D01*
X-74357562Y125148429D02*
X-74309943Y125196048D01*
X-74309943Y125196048D02*
X-74214705Y125243667D01*
X-74214705Y125243667D02*
X-74119467Y125243667D01*
X-74119467Y125243667D02*
X-73976610Y125196048D01*
X-73976610Y125196048D02*
X-73405181Y124624620D01*
X-73405181Y124624620D02*
X-73405181Y125243667D01*
X-74405181Y80243667D02*
X-73690896Y80243667D01*
X-73690896Y80243667D02*
X-73548039Y80196048D01*
X-73548039Y80196048D02*
X-73452800Y80100810D01*
X-73452800Y80100810D02*
X-73405181Y79957953D01*
X-73405181Y79957953D02*
X-73405181Y79862715D01*
X-74309943Y80672239D02*
X-74357562Y80719858D01*
X-74357562Y80719858D02*
X-74405181Y80815096D01*
X-74405181Y80815096D02*
X-74405181Y81053191D01*
X-74405181Y81053191D02*
X-74357562Y81148429D01*
X-74357562Y81148429D02*
X-74309943Y81196048D01*
X-74309943Y81196048D02*
X-74214705Y81243667D01*
X-74214705Y81243667D02*
X-74119467Y81243667D01*
X-74119467Y81243667D02*
X-73976610Y81196048D01*
X-73976610Y81196048D02*
X-73405181Y80624620D01*
X-73405181Y80624620D02*
X-73405181Y81243667D01*
D13*
G04 #@! TO.C,J2*
X-72970000Y43752000D02*
X-1590000Y43752000D01*
X-72970000Y34632000D02*
X-72970000Y43752000D01*
X-68260000Y28012000D02*
X-67260000Y28012000D01*
X-67760000Y29012000D02*
X-68260000Y28012000D01*
X-67260000Y28012000D02*
X-67760000Y29012000D01*
X-39330000Y34632000D02*
X-39330000Y43752000D01*
X-35230000Y34632000D02*
X-35230000Y43752000D01*
X-1590000Y43752000D02*
X-1590000Y34632000D01*
X-1590000Y34632000D02*
X-72970000Y34632000D01*
D11*
G04 #@! TO.C,R1*
X-62499999Y99302000D02*
X-62499999Y98702000D01*
X-61800001Y98702000D02*
X-61800001Y99302000D01*
G04 #@! TO.C,R2*
X-67549999Y22902000D02*
X-67549999Y22302000D01*
X-66850001Y22302000D02*
X-66850001Y22902000D01*
X-67549999Y66902000D02*
X-67549999Y66302000D01*
X-66850001Y66302000D02*
X-66850001Y66902000D01*
D14*
G04 #@! TO.C,kibuzzard-672C6174*
G36*
X-34376111Y109533038D02*
G01*
X-34292811Y109492145D01*
X-34239196Y109418539D01*
X-34221325Y109306766D01*
X-34239499Y109188935D01*
X-34294023Y109111693D01*
X-34384289Y109068983D01*
X-34509693Y109054746D01*
X-34630856Y109054746D01*
X-34630856Y109539399D01*
X-34556947Y109545457D01*
X-34483037Y109546669D01*
X-34376111Y109533038D01*
G37*
G36*
X-40439418Y109504262D02*
G01*
X-40340065Y109391580D01*
X-40289176Y109229221D01*
X-40274637Y109040207D01*
X-40279180Y108933280D01*
X-40292811Y108835441D01*
X-40353393Y108674294D01*
X-40464863Y108567670D01*
X-40635703Y108528898D01*
X-40662359Y108528898D01*
X-40689015Y108531321D01*
X-40689015Y109539399D01*
X-40645396Y109545457D01*
X-40601777Y109546669D01*
X-40439418Y109504262D01*
G37*
G36*
X-36768477Y109534855D02*
G01*
X-36689418Y109433987D01*
X-36653743Y109330729D01*
X-36632337Y109200277D01*
X-36625202Y109042630D01*
X-36632337Y108883637D01*
X-36653743Y108752377D01*
X-36689418Y108648850D01*
X-36768477Y108547981D01*
X-36874798Y108515108D01*
X-36877221Y108514359D01*
X-36984451Y108547981D01*
X-37063813Y108648850D01*
X-37100162Y108752377D01*
X-37121971Y108883637D01*
X-37129241Y109042630D01*
X-37128123Y109066863D01*
X-37010501Y109066863D01*
X-36974152Y108954181D01*
X-36874798Y108906927D01*
X-36779079Y108954181D01*
X-36741519Y109066863D01*
X-36779079Y109180756D01*
X-36874798Y109229221D01*
X-36974152Y109180756D01*
X-37010501Y109066863D01*
X-37128123Y109066863D01*
X-37121971Y109200277D01*
X-37100162Y109330729D01*
X-37063813Y109433987D01*
X-36984451Y109534855D01*
X-36877221Y109568478D01*
X-36768477Y109534855D01*
G37*
G36*
X-31263343Y110143407D02*
G01*
X-31161761Y110128339D01*
X-31062146Y110103386D01*
X-30965455Y110068790D01*
X-30872622Y110024883D01*
X-30784539Y109972088D01*
X-30702055Y109910914D01*
X-30625964Y109841949D01*
X-30556999Y109765858D01*
X-30495825Y109683374D01*
X-30443030Y109595291D01*
X-30399123Y109502458D01*
X-30364526Y109405767D01*
X-30339574Y109306151D01*
X-30324506Y109204570D01*
X-30319467Y109102000D01*
X-30324506Y108999430D01*
X-30339574Y108897849D01*
X-30364526Y108798233D01*
X-30399123Y108701542D01*
X-30443030Y108608709D01*
X-30495825Y108520626D01*
X-30556999Y108438142D01*
X-30625964Y108362051D01*
X-30702055Y108293086D01*
X-30784539Y108231912D01*
X-30872622Y108179117D01*
X-30965455Y108135210D01*
X-31062146Y108100614D01*
X-31161761Y108075661D01*
X-31263343Y108060593D01*
X-31365913Y108055554D01*
X-31567851Y108055554D01*
X-33038772Y108055554D01*
X-34630856Y108055554D01*
X-36877221Y108055554D01*
X-38205170Y108055554D01*
X-40667205Y108055554D01*
X-41878837Y108055554D01*
X-42438611Y108055554D01*
X-43432149Y108055554D01*
X-43634087Y108055554D01*
X-43736657Y108060593D01*
X-43838239Y108075661D01*
X-43937854Y108100614D01*
X-44034545Y108135210D01*
X-44127378Y108179117D01*
X-44215461Y108231912D01*
X-44292429Y108288995D01*
X-43432149Y108288995D01*
X-43134087Y108288995D01*
X-43134087Y108950546D01*
X-42736672Y108950546D01*
X-42736672Y108288995D01*
X-42438611Y108288995D01*
X-42438611Y109788995D01*
X-42298061Y109788995D01*
X-42270194Y109653292D01*
X-42230210Y109483664D01*
X-42198169Y109356712D01*
X-42163436Y109224644D01*
X-42126010Y109087460D01*
X-42086430Y108947584D01*
X-42045234Y108807439D01*
X-42002423Y108667024D01*
X-41938813Y108467105D01*
X-41878837Y108288995D01*
X-41571082Y108288995D01*
X-41524771Y108418101D01*
X-41479537Y108550169D01*
X-41435380Y108685199D01*
X-41392973Y108820901D01*
X-41352989Y108954989D01*
X-41315428Y109087460D01*
X-41263934Y109280413D01*
X-41218498Y109464278D01*
X-41179422Y109635118D01*
X-41151094Y109769609D01*
X-40987076Y109769609D01*
X-40987076Y108305958D01*
X-40823506Y108278090D01*
X-40667205Y108269609D01*
X-40520901Y108280211D01*
X-40387318Y108312016D01*
X-40337587Y108335037D01*
X-38609855Y108335037D01*
X-38540792Y108308381D01*
X-38440226Y108282937D01*
X-38323910Y108264763D01*
X-38205170Y108257493D01*
X-38066438Y108266580D01*
X-37945880Y108293842D01*
X-37843498Y108337460D01*
X-37759289Y108395619D01*
X-37647819Y108549496D01*
X-37611470Y108742145D01*
X-37627894Y108882695D01*
X-37677167Y109000627D01*
X-37713356Y109042630D01*
X-37398223Y109042630D01*
X-37389893Y108856645D01*
X-37364903Y108696103D01*
X-37323253Y108561006D01*
X-37264943Y108451354D01*
X-37162628Y108343653D01*
X-37033387Y108279033D01*
X-36877221Y108257493D01*
X-36721055Y108279033D01*
X-36591815Y108343653D01*
X-36489499Y108451354D01*
X-36431189Y108561006D01*
X-36389540Y108696103D01*
X-36364550Y108856645D01*
X-36356220Y109042630D01*
X-36364550Y109227480D01*
X-36389540Y109387036D01*
X-36431189Y109521300D01*
X-36489499Y109630271D01*
X-36591815Y109737299D01*
X-36656842Y109769609D01*
X-34928918Y109769609D01*
X-34928918Y108288995D01*
X-34630856Y108288995D01*
X-34630856Y108795457D01*
X-34524233Y108795457D01*
X-34345046Y108808785D01*
X-34195207Y108848769D01*
X-34074717Y108915409D01*
X-33986537Y109011935D01*
X-33933630Y109141580D01*
X-33915994Y109304342D01*
X-33929416Y109427929D01*
X-33760905Y109427929D01*
X-33760905Y109180756D01*
X-33445880Y109180756D01*
X-33445880Y108761532D01*
X-33441034Y108649456D01*
X-33426494Y108550708D01*
X-33359855Y108394407D01*
X-33233845Y108296265D01*
X-33145699Y108270821D01*
X-33038772Y108262339D01*
X-32889742Y108278090D01*
X-32716478Y108337460D01*
X-32755250Y108577363D01*
X-32886107Y108532533D01*
X-32985460Y108521628D01*
X-33110258Y108571305D01*
X-33147819Y108722759D01*
X-33147819Y109391580D01*
X-32483845Y109391580D01*
X-32483845Y108288995D01*
X-32185784Y108288995D01*
X-32185784Y109183179D01*
X-32116721Y109190449D01*
X-32050081Y109192872D01*
X-31902262Y109122598D01*
X-31875000Y109029908D01*
X-31865913Y108892388D01*
X-31865913Y108288995D01*
X-31567851Y108288995D01*
X-31567851Y108931160D01*
X-31573304Y109042327D01*
X-31589661Y109143195D01*
X-31663570Y109307977D01*
X-31805331Y109414601D01*
X-31906502Y109442771D01*
X-32030695Y109452162D01*
X-32163671Y109447315D01*
X-32286349Y109432775D01*
X-32394487Y109412784D01*
X-32483845Y109391580D01*
X-33147819Y109391580D01*
X-33147819Y109427929D01*
X-33348950Y109427929D01*
X-33760905Y109427929D01*
X-33929416Y109427929D01*
X-33933495Y109465489D01*
X-33985999Y109593519D01*
X-34073506Y109688430D01*
X-34192784Y109753723D01*
X-34197863Y109755069D01*
X-33535541Y109755069D01*
X-33481018Y109616943D01*
X-33348950Y109566055D01*
X-33215670Y109616943D01*
X-33159935Y109755069D01*
X-33215670Y109895619D01*
X-33348950Y109946507D01*
X-33481018Y109895619D01*
X-33535541Y109755069D01*
X-34197863Y109755069D01*
X-34340603Y109792899D01*
X-34516963Y109805958D01*
X-34611470Y109803535D01*
X-34720517Y109797477D01*
X-34830775Y109786572D01*
X-34928918Y109769609D01*
X-36656842Y109769609D01*
X-36721055Y109801515D01*
X-36877221Y109822921D01*
X-37030964Y109801381D01*
X-37159397Y109736760D01*
X-37262520Y109629060D01*
X-37321890Y109519710D01*
X-37364297Y109385522D01*
X-37389742Y109226495D01*
X-37398223Y109042630D01*
X-37713356Y109042630D01*
X-37759289Y109095942D01*
X-37874798Y109168101D01*
X-38024233Y109216567D01*
X-38207593Y109241338D01*
X-38195477Y109379464D01*
X-38183360Y109541822D01*
X-37667205Y109541822D01*
X-37667205Y109788995D01*
X-38432956Y109788995D01*
X-38442044Y109603918D01*
X-38454766Y109412178D01*
X-38471729Y109214985D01*
X-38493538Y109013551D01*
X-38326939Y109008401D01*
X-38195477Y108992953D01*
X-38019790Y108934795D01*
X-37937399Y108845134D01*
X-37916801Y108730029D01*
X-37928918Y108650061D01*
X-37973748Y108580998D01*
X-38063409Y108531321D01*
X-38207593Y108511935D01*
X-38320880Y108517388D01*
X-38413570Y108533745D01*
X-38549273Y108582210D01*
X-38609855Y108335037D01*
X-40337587Y108335037D01*
X-40268881Y108366842D01*
X-40168013Y108446507D01*
X-40085925Y108552222D01*
X-40023829Y108685199D01*
X-39984754Y108847254D01*
X-39971729Y109040207D01*
X-39983542Y109228918D01*
X-40018982Y109387945D01*
X-40075626Y109519407D01*
X-40151050Y109625425D01*
X-40245254Y109706301D01*
X-40358239Y109762339D01*
X-40486975Y109795053D01*
X-40628433Y109805958D01*
X-40795638Y109798688D01*
X-40987076Y109769609D01*
X-41151094Y109769609D01*
X-41147011Y109788995D01*
X-41459612Y109788995D01*
X-41481422Y109662985D01*
X-41508078Y109517590D01*
X-41538368Y109360380D01*
X-41571082Y109198931D01*
X-41606220Y109036572D01*
X-41643780Y108876637D01*
X-41682553Y108726697D01*
X-41721325Y108594326D01*
X-41760400Y108728515D01*
X-41800081Y108879060D01*
X-41838853Y109038995D01*
X-41875202Y109201354D01*
X-41908825Y109362501D01*
X-41939418Y109518801D01*
X-41964863Y109663288D01*
X-41983037Y109788995D01*
X-42298061Y109788995D01*
X-42438611Y109788995D01*
X-42736672Y109788995D01*
X-42736672Y109197719D01*
X-43134087Y109197719D01*
X-43134087Y109788995D01*
X-43432149Y109788995D01*
X-43432149Y108288995D01*
X-44292429Y108288995D01*
X-44297945Y108293086D01*
X-44374036Y108362051D01*
X-44443001Y108438142D01*
X-44504175Y108520626D01*
X-44556970Y108608709D01*
X-44600877Y108701542D01*
X-44635474Y108798233D01*
X-44660426Y108897849D01*
X-44675494Y108999430D01*
X-44680533Y109102000D01*
X-44675494Y109204570D01*
X-44660426Y109306151D01*
X-44635474Y109405767D01*
X-44600877Y109502458D01*
X-44556970Y109595291D01*
X-44504175Y109683374D01*
X-44443001Y109765858D01*
X-44374036Y109841949D01*
X-44297945Y109910914D01*
X-44215461Y109972088D01*
X-44127378Y110024883D01*
X-44034545Y110068790D01*
X-43937854Y110103386D01*
X-43838239Y110128339D01*
X-43736657Y110143407D01*
X-43634087Y110148446D01*
X-43432149Y110148446D01*
X-31567851Y110148446D01*
X-31365913Y110148446D01*
X-31263343Y110143407D01*
G37*
D11*
G04 #@! TO.C,R3*
X-67549999Y106602000D02*
X-67549999Y106002000D01*
X-66850001Y106002000D02*
X-66850001Y106602000D01*
G04 #@! TO.C,J3*
X-73970000Y115442000D02*
X-68370000Y115442000D01*
X-68370000Y102772000D01*
X-73970000Y102772000D01*
X-73970000Y115442000D01*
D13*
G04 #@! TO.C,J2*
X-72970000Y131752000D02*
X-1590000Y131752000D01*
X-72970000Y122632000D02*
X-72970000Y131752000D01*
X-68260000Y116012000D02*
X-67260000Y116012000D01*
X-67760000Y117012000D02*
X-68260000Y116012000D01*
X-67260000Y116012000D02*
X-67760000Y117012000D01*
X-39330000Y122632000D02*
X-39330000Y131752000D01*
X-35230000Y122632000D02*
X-35230000Y131752000D01*
X-1590000Y131752000D02*
X-1590000Y122632000D01*
X-1590000Y122632000D02*
X-72970000Y122632000D01*
D11*
G04 #@! TO.C,U1*
X-65200000Y53302000D02*
X-65200000Y55952000D01*
X-63000000Y55952000D02*
X-63000000Y54052000D01*
D14*
G04 #@! TO.C,kibuzzard-672C6174*
G36*
X-34376111Y21533038D02*
G01*
X-34292811Y21492145D01*
X-34239196Y21418539D01*
X-34221325Y21306766D01*
X-34239499Y21188935D01*
X-34294023Y21111693D01*
X-34384289Y21068983D01*
X-34509693Y21054746D01*
X-34630856Y21054746D01*
X-34630856Y21539399D01*
X-34556947Y21545457D01*
X-34483037Y21546669D01*
X-34376111Y21533038D01*
G37*
G36*
X-40439418Y21504262D02*
G01*
X-40340065Y21391580D01*
X-40289176Y21229221D01*
X-40274637Y21040207D01*
X-40279180Y20933280D01*
X-40292811Y20835441D01*
X-40353393Y20674294D01*
X-40464863Y20567670D01*
X-40635703Y20528898D01*
X-40662359Y20528898D01*
X-40689015Y20531321D01*
X-40689015Y21539399D01*
X-40645396Y21545457D01*
X-40601777Y21546669D01*
X-40439418Y21504262D01*
G37*
G36*
X-36768477Y21534855D02*
G01*
X-36689418Y21433987D01*
X-36653743Y21330729D01*
X-36632337Y21200277D01*
X-36625202Y21042630D01*
X-36632337Y20883637D01*
X-36653743Y20752377D01*
X-36689418Y20648850D01*
X-36768477Y20547981D01*
X-36874798Y20515108D01*
X-36877221Y20514359D01*
X-36984451Y20547981D01*
X-37063813Y20648850D01*
X-37100162Y20752377D01*
X-37121971Y20883637D01*
X-37129241Y21042630D01*
X-37128123Y21066863D01*
X-37010501Y21066863D01*
X-36974152Y20954181D01*
X-36874798Y20906927D01*
X-36779079Y20954181D01*
X-36741519Y21066863D01*
X-36779079Y21180756D01*
X-36874798Y21229221D01*
X-36974152Y21180756D01*
X-37010501Y21066863D01*
X-37128123Y21066863D01*
X-37121971Y21200277D01*
X-37100162Y21330729D01*
X-37063813Y21433987D01*
X-36984451Y21534855D01*
X-36877221Y21568478D01*
X-36768477Y21534855D01*
G37*
G36*
X-31263343Y22143407D02*
G01*
X-31161761Y22128339D01*
X-31062146Y22103386D01*
X-30965455Y22068790D01*
X-30872622Y22024883D01*
X-30784539Y21972088D01*
X-30702055Y21910914D01*
X-30625964Y21841949D01*
X-30556999Y21765858D01*
X-30495825Y21683374D01*
X-30443030Y21595291D01*
X-30399123Y21502458D01*
X-30364526Y21405767D01*
X-30339574Y21306151D01*
X-30324506Y21204570D01*
X-30319467Y21102000D01*
X-30324506Y20999430D01*
X-30339574Y20897849D01*
X-30364526Y20798233D01*
X-30399123Y20701542D01*
X-30443030Y20608709D01*
X-30495825Y20520626D01*
X-30556999Y20438142D01*
X-30625964Y20362051D01*
X-30702055Y20293086D01*
X-30784539Y20231912D01*
X-30872622Y20179117D01*
X-30965455Y20135210D01*
X-31062146Y20100614D01*
X-31161761Y20075661D01*
X-31263343Y20060593D01*
X-31365913Y20055554D01*
X-31567851Y20055554D01*
X-33038772Y20055554D01*
X-34630856Y20055554D01*
X-36877221Y20055554D01*
X-38205170Y20055554D01*
X-40667205Y20055554D01*
X-41878837Y20055554D01*
X-42438611Y20055554D01*
X-43432149Y20055554D01*
X-43634087Y20055554D01*
X-43736657Y20060593D01*
X-43838239Y20075661D01*
X-43937854Y20100614D01*
X-44034545Y20135210D01*
X-44127378Y20179117D01*
X-44215461Y20231912D01*
X-44292429Y20288995D01*
X-43432149Y20288995D01*
X-43134087Y20288995D01*
X-43134087Y20950546D01*
X-42736672Y20950546D01*
X-42736672Y20288995D01*
X-42438611Y20288995D01*
X-42438611Y21788995D01*
X-42298061Y21788995D01*
X-42270194Y21653292D01*
X-42230210Y21483664D01*
X-42198169Y21356712D01*
X-42163436Y21224644D01*
X-42126010Y21087460D01*
X-42086430Y20947584D01*
X-42045234Y20807439D01*
X-42002423Y20667024D01*
X-41938813Y20467105D01*
X-41878837Y20288995D01*
X-41571082Y20288995D01*
X-41524771Y20418101D01*
X-41479537Y20550169D01*
X-41435380Y20685199D01*
X-41392973Y20820901D01*
X-41352989Y20954989D01*
X-41315428Y21087460D01*
X-41263934Y21280413D01*
X-41218498Y21464278D01*
X-41179422Y21635118D01*
X-41151094Y21769609D01*
X-40987076Y21769609D01*
X-40987076Y20305958D01*
X-40823506Y20278090D01*
X-40667205Y20269609D01*
X-40520901Y20280211D01*
X-40387318Y20312016D01*
X-40337587Y20335037D01*
X-38609855Y20335037D01*
X-38540792Y20308381D01*
X-38440226Y20282937D01*
X-38323910Y20264763D01*
X-38205170Y20257493D01*
X-38066438Y20266580D01*
X-37945880Y20293842D01*
X-37843498Y20337460D01*
X-37759289Y20395619D01*
X-37647819Y20549496D01*
X-37611470Y20742145D01*
X-37627894Y20882695D01*
X-37677167Y21000627D01*
X-37713356Y21042630D01*
X-37398223Y21042630D01*
X-37389893Y20856645D01*
X-37364903Y20696103D01*
X-37323253Y20561006D01*
X-37264943Y20451354D01*
X-37162628Y20343653D01*
X-37033387Y20279033D01*
X-36877221Y20257493D01*
X-36721055Y20279033D01*
X-36591815Y20343653D01*
X-36489499Y20451354D01*
X-36431189Y20561006D01*
X-36389540Y20696103D01*
X-36364550Y20856645D01*
X-36356220Y21042630D01*
X-36364550Y21227480D01*
X-36389540Y21387036D01*
X-36431189Y21521300D01*
X-36489499Y21630271D01*
X-36591815Y21737299D01*
X-36656842Y21769609D01*
X-34928918Y21769609D01*
X-34928918Y20288995D01*
X-34630856Y20288995D01*
X-34630856Y20795457D01*
X-34524233Y20795457D01*
X-34345046Y20808785D01*
X-34195207Y20848769D01*
X-34074717Y20915409D01*
X-33986537Y21011935D01*
X-33933630Y21141580D01*
X-33915994Y21304342D01*
X-33929416Y21427929D01*
X-33760905Y21427929D01*
X-33760905Y21180756D01*
X-33445880Y21180756D01*
X-33445880Y20761532D01*
X-33441034Y20649456D01*
X-33426494Y20550708D01*
X-33359855Y20394407D01*
X-33233845Y20296265D01*
X-33145699Y20270821D01*
X-33038772Y20262339D01*
X-32889742Y20278090D01*
X-32716478Y20337460D01*
X-32755250Y20577363D01*
X-32886107Y20532533D01*
X-32985460Y20521628D01*
X-33110258Y20571305D01*
X-33147819Y20722759D01*
X-33147819Y21391580D01*
X-32483845Y21391580D01*
X-32483845Y20288995D01*
X-32185784Y20288995D01*
X-32185784Y21183179D01*
X-32116721Y21190449D01*
X-32050081Y21192872D01*
X-31902262Y21122598D01*
X-31875000Y21029908D01*
X-31865913Y20892388D01*
X-31865913Y20288995D01*
X-31567851Y20288995D01*
X-31567851Y20931160D01*
X-31573304Y21042327D01*
X-31589661Y21143195D01*
X-31663570Y21307977D01*
X-31805331Y21414601D01*
X-31906502Y21442771D01*
X-32030695Y21452162D01*
X-32163671Y21447315D01*
X-32286349Y21432775D01*
X-32394487Y21412784D01*
X-32483845Y21391580D01*
X-33147819Y21391580D01*
X-33147819Y21427929D01*
X-33348950Y21427929D01*
X-33760905Y21427929D01*
X-33929416Y21427929D01*
X-33933495Y21465489D01*
X-33985999Y21593519D01*
X-34073506Y21688430D01*
X-34192784Y21753723D01*
X-34197863Y21755069D01*
X-33535541Y21755069D01*
X-33481018Y21616943D01*
X-33348950Y21566055D01*
X-33215670Y21616943D01*
X-33159935Y21755069D01*
X-33215670Y21895619D01*
X-33348950Y21946507D01*
X-33481018Y21895619D01*
X-33535541Y21755069D01*
X-34197863Y21755069D01*
X-34340603Y21792899D01*
X-34516963Y21805958D01*
X-34611470Y21803535D01*
X-34720517Y21797477D01*
X-34830775Y21786572D01*
X-34928918Y21769609D01*
X-36656842Y21769609D01*
X-36721055Y21801515D01*
X-36877221Y21822921D01*
X-37030964Y21801381D01*
X-37159397Y21736760D01*
X-37262520Y21629060D01*
X-37321890Y21519710D01*
X-37364297Y21385522D01*
X-37389742Y21226495D01*
X-37398223Y21042630D01*
X-37713356Y21042630D01*
X-37759289Y21095942D01*
X-37874798Y21168101D01*
X-38024233Y21216567D01*
X-38207593Y21241338D01*
X-38195477Y21379464D01*
X-38183360Y21541822D01*
X-37667205Y21541822D01*
X-37667205Y21788995D01*
X-38432956Y21788995D01*
X-38442044Y21603918D01*
X-38454766Y21412178D01*
X-38471729Y21214985D01*
X-38493538Y21013551D01*
X-38326939Y21008401D01*
X-38195477Y20992953D01*
X-38019790Y20934795D01*
X-37937399Y20845134D01*
X-37916801Y20730029D01*
X-37928918Y20650061D01*
X-37973748Y20580998D01*
X-38063409Y20531321D01*
X-38207593Y20511935D01*
X-38320880Y20517388D01*
X-38413570Y20533745D01*
X-38549273Y20582210D01*
X-38609855Y20335037D01*
X-40337587Y20335037D01*
X-40268881Y20366842D01*
X-40168013Y20446507D01*
X-40085925Y20552222D01*
X-40023829Y20685199D01*
X-39984754Y20847254D01*
X-39971729Y21040207D01*
X-39983542Y21228918D01*
X-40018982Y21387945D01*
X-40075626Y21519407D01*
X-40151050Y21625425D01*
X-40245254Y21706301D01*
X-40358239Y21762339D01*
X-40486975Y21795053D01*
X-40628433Y21805958D01*
X-40795638Y21798688D01*
X-40987076Y21769609D01*
X-41151094Y21769609D01*
X-41147011Y21788995D01*
X-41459612Y21788995D01*
X-41481422Y21662985D01*
X-41508078Y21517590D01*
X-41538368Y21360380D01*
X-41571082Y21198931D01*
X-41606220Y21036572D01*
X-41643780Y20876637D01*
X-41682553Y20726697D01*
X-41721325Y20594326D01*
X-41760400Y20728515D01*
X-41800081Y20879060D01*
X-41838853Y21038995D01*
X-41875202Y21201354D01*
X-41908825Y21362501D01*
X-41939418Y21518801D01*
X-41964863Y21663288D01*
X-41983037Y21788995D01*
X-42298061Y21788995D01*
X-42438611Y21788995D01*
X-42736672Y21788995D01*
X-42736672Y21197719D01*
X-43134087Y21197719D01*
X-43134087Y21788995D01*
X-43432149Y21788995D01*
X-43432149Y20288995D01*
X-44292429Y20288995D01*
X-44297945Y20293086D01*
X-44374036Y20362051D01*
X-44443001Y20438142D01*
X-44504175Y20520626D01*
X-44556970Y20608709D01*
X-44600877Y20701542D01*
X-44635474Y20798233D01*
X-44660426Y20897849D01*
X-44675494Y20999430D01*
X-44680533Y21102000D01*
X-44675494Y21204570D01*
X-44660426Y21306151D01*
X-44635474Y21405767D01*
X-44600877Y21502458D01*
X-44556970Y21595291D01*
X-44504175Y21683374D01*
X-44443001Y21765858D01*
X-44374036Y21841949D01*
X-44297945Y21910914D01*
X-44215461Y21972088D01*
X-44127378Y22024883D01*
X-44034545Y22068790D01*
X-43937854Y22103386D01*
X-43838239Y22128339D01*
X-43736657Y22143407D01*
X-43634087Y22148446D01*
X-43432149Y22148446D01*
X-31567851Y22148446D01*
X-31365913Y22148446D01*
X-31263343Y22143407D01*
G37*
G36*
X-34376111Y65533038D02*
G01*
X-34292811Y65492145D01*
X-34239196Y65418539D01*
X-34221325Y65306766D01*
X-34239499Y65188935D01*
X-34294023Y65111693D01*
X-34384289Y65068983D01*
X-34509693Y65054746D01*
X-34630856Y65054746D01*
X-34630856Y65539399D01*
X-34556947Y65545457D01*
X-34483037Y65546669D01*
X-34376111Y65533038D01*
G37*
G36*
X-40439418Y65504262D02*
G01*
X-40340065Y65391580D01*
X-40289176Y65229221D01*
X-40274637Y65040207D01*
X-40279180Y64933280D01*
X-40292811Y64835441D01*
X-40353393Y64674294D01*
X-40464863Y64567670D01*
X-40635703Y64528898D01*
X-40662359Y64528898D01*
X-40689015Y64531321D01*
X-40689015Y65539399D01*
X-40645396Y65545457D01*
X-40601777Y65546669D01*
X-40439418Y65504262D01*
G37*
G36*
X-36768477Y65534855D02*
G01*
X-36689418Y65433987D01*
X-36653743Y65330729D01*
X-36632337Y65200277D01*
X-36625202Y65042630D01*
X-36632337Y64883637D01*
X-36653743Y64752377D01*
X-36689418Y64648850D01*
X-36768477Y64547981D01*
X-36874798Y64515108D01*
X-36877221Y64514359D01*
X-36984451Y64547981D01*
X-37063813Y64648850D01*
X-37100162Y64752377D01*
X-37121971Y64883637D01*
X-37129241Y65042630D01*
X-37128123Y65066863D01*
X-37010501Y65066863D01*
X-36974152Y64954181D01*
X-36874798Y64906927D01*
X-36779079Y64954181D01*
X-36741519Y65066863D01*
X-36779079Y65180756D01*
X-36874798Y65229221D01*
X-36974152Y65180756D01*
X-37010501Y65066863D01*
X-37128123Y65066863D01*
X-37121971Y65200277D01*
X-37100162Y65330729D01*
X-37063813Y65433987D01*
X-36984451Y65534855D01*
X-36877221Y65568478D01*
X-36768477Y65534855D01*
G37*
G36*
X-31263343Y66143407D02*
G01*
X-31161761Y66128339D01*
X-31062146Y66103386D01*
X-30965455Y66068790D01*
X-30872622Y66024883D01*
X-30784539Y65972088D01*
X-30702055Y65910914D01*
X-30625964Y65841949D01*
X-30556999Y65765858D01*
X-30495825Y65683374D01*
X-30443030Y65595291D01*
X-30399123Y65502458D01*
X-30364526Y65405767D01*
X-30339574Y65306151D01*
X-30324506Y65204570D01*
X-30319467Y65102000D01*
X-30324506Y64999430D01*
X-30339574Y64897849D01*
X-30364526Y64798233D01*
X-30399123Y64701542D01*
X-30443030Y64608709D01*
X-30495825Y64520626D01*
X-30556999Y64438142D01*
X-30625964Y64362051D01*
X-30702055Y64293086D01*
X-30784539Y64231912D01*
X-30872622Y64179117D01*
X-30965455Y64135210D01*
X-31062146Y64100614D01*
X-31161761Y64075661D01*
X-31263343Y64060593D01*
X-31365913Y64055554D01*
X-31567851Y64055554D01*
X-33038772Y64055554D01*
X-34630856Y64055554D01*
X-36877221Y64055554D01*
X-38205170Y64055554D01*
X-40667205Y64055554D01*
X-41878837Y64055554D01*
X-42438611Y64055554D01*
X-43432149Y64055554D01*
X-43634087Y64055554D01*
X-43736657Y64060593D01*
X-43838239Y64075661D01*
X-43937854Y64100614D01*
X-44034545Y64135210D01*
X-44127378Y64179117D01*
X-44215461Y64231912D01*
X-44292429Y64288995D01*
X-43432149Y64288995D01*
X-43134087Y64288995D01*
X-43134087Y64950546D01*
X-42736672Y64950546D01*
X-42736672Y64288995D01*
X-42438611Y64288995D01*
X-42438611Y65788995D01*
X-42298061Y65788995D01*
X-42270194Y65653292D01*
X-42230210Y65483664D01*
X-42198169Y65356712D01*
X-42163436Y65224644D01*
X-42126010Y65087460D01*
X-42086430Y64947584D01*
X-42045234Y64807439D01*
X-42002423Y64667024D01*
X-41938813Y64467105D01*
X-41878837Y64288995D01*
X-41571082Y64288995D01*
X-41524771Y64418101D01*
X-41479537Y64550169D01*
X-41435380Y64685199D01*
X-41392973Y64820901D01*
X-41352989Y64954989D01*
X-41315428Y65087460D01*
X-41263934Y65280413D01*
X-41218498Y65464278D01*
X-41179422Y65635118D01*
X-41151094Y65769609D01*
X-40987076Y65769609D01*
X-40987076Y64305958D01*
X-40823506Y64278090D01*
X-40667205Y64269609D01*
X-40520901Y64280211D01*
X-40387318Y64312016D01*
X-40337587Y64335037D01*
X-38609855Y64335037D01*
X-38540792Y64308381D01*
X-38440226Y64282937D01*
X-38323910Y64264763D01*
X-38205170Y64257493D01*
X-38066438Y64266580D01*
X-37945880Y64293842D01*
X-37843498Y64337460D01*
X-37759289Y64395619D01*
X-37647819Y64549496D01*
X-37611470Y64742145D01*
X-37627894Y64882695D01*
X-37677167Y65000627D01*
X-37713356Y65042630D01*
X-37398223Y65042630D01*
X-37389893Y64856645D01*
X-37364903Y64696103D01*
X-37323253Y64561006D01*
X-37264943Y64451354D01*
X-37162628Y64343653D01*
X-37033387Y64279033D01*
X-36877221Y64257493D01*
X-36721055Y64279033D01*
X-36591815Y64343653D01*
X-36489499Y64451354D01*
X-36431189Y64561006D01*
X-36389540Y64696103D01*
X-36364550Y64856645D01*
X-36356220Y65042630D01*
X-36364550Y65227480D01*
X-36389540Y65387036D01*
X-36431189Y65521300D01*
X-36489499Y65630271D01*
X-36591815Y65737299D01*
X-36656842Y65769609D01*
X-34928918Y65769609D01*
X-34928918Y64288995D01*
X-34630856Y64288995D01*
X-34630856Y64795457D01*
X-34524233Y64795457D01*
X-34345046Y64808785D01*
X-34195207Y64848769D01*
X-34074717Y64915409D01*
X-33986537Y65011935D01*
X-33933630Y65141580D01*
X-33915994Y65304342D01*
X-33929416Y65427929D01*
X-33760905Y65427929D01*
X-33760905Y65180756D01*
X-33445880Y65180756D01*
X-33445880Y64761532D01*
X-33441034Y64649456D01*
X-33426494Y64550708D01*
X-33359855Y64394407D01*
X-33233845Y64296265D01*
X-33145699Y64270821D01*
X-33038772Y64262339D01*
X-32889742Y64278090D01*
X-32716478Y64337460D01*
X-32755250Y64577363D01*
X-32886107Y64532533D01*
X-32985460Y64521628D01*
X-33110258Y64571305D01*
X-33147819Y64722759D01*
X-33147819Y65391580D01*
X-32483845Y65391580D01*
X-32483845Y64288995D01*
X-32185784Y64288995D01*
X-32185784Y65183179D01*
X-32116721Y65190449D01*
X-32050081Y65192872D01*
X-31902262Y65122598D01*
X-31875000Y65029908D01*
X-31865913Y64892388D01*
X-31865913Y64288995D01*
X-31567851Y64288995D01*
X-31567851Y64931160D01*
X-31573304Y65042327D01*
X-31589661Y65143195D01*
X-31663570Y65307977D01*
X-31805331Y65414601D01*
X-31906502Y65442771D01*
X-32030695Y65452162D01*
X-32163671Y65447315D01*
X-32286349Y65432775D01*
X-32394487Y65412784D01*
X-32483845Y65391580D01*
X-33147819Y65391580D01*
X-33147819Y65427929D01*
X-33348950Y65427929D01*
X-33760905Y65427929D01*
X-33929416Y65427929D01*
X-33933495Y65465489D01*
X-33985999Y65593519D01*
X-34073506Y65688430D01*
X-34192784Y65753723D01*
X-34197863Y65755069D01*
X-33535541Y65755069D01*
X-33481018Y65616943D01*
X-33348950Y65566055D01*
X-33215670Y65616943D01*
X-33159935Y65755069D01*
X-33215670Y65895619D01*
X-33348950Y65946507D01*
X-33481018Y65895619D01*
X-33535541Y65755069D01*
X-34197863Y65755069D01*
X-34340603Y65792899D01*
X-34516963Y65805958D01*
X-34611470Y65803535D01*
X-34720517Y65797477D01*
X-34830775Y65786572D01*
X-34928918Y65769609D01*
X-36656842Y65769609D01*
X-36721055Y65801515D01*
X-36877221Y65822921D01*
X-37030964Y65801381D01*
X-37159397Y65736760D01*
X-37262520Y65629060D01*
X-37321890Y65519710D01*
X-37364297Y65385522D01*
X-37389742Y65226495D01*
X-37398223Y65042630D01*
X-37713356Y65042630D01*
X-37759289Y65095942D01*
X-37874798Y65168101D01*
X-38024233Y65216567D01*
X-38207593Y65241338D01*
X-38195477Y65379464D01*
X-38183360Y65541822D01*
X-37667205Y65541822D01*
X-37667205Y65788995D01*
X-38432956Y65788995D01*
X-38442044Y65603918D01*
X-38454766Y65412178D01*
X-38471729Y65214985D01*
X-38493538Y65013551D01*
X-38326939Y65008401D01*
X-38195477Y64992953D01*
X-38019790Y64934795D01*
X-37937399Y64845134D01*
X-37916801Y64730029D01*
X-37928918Y64650061D01*
X-37973748Y64580998D01*
X-38063409Y64531321D01*
X-38207593Y64511935D01*
X-38320880Y64517388D01*
X-38413570Y64533745D01*
X-38549273Y64582210D01*
X-38609855Y64335037D01*
X-40337587Y64335037D01*
X-40268881Y64366842D01*
X-40168013Y64446507D01*
X-40085925Y64552222D01*
X-40023829Y64685199D01*
X-39984754Y64847254D01*
X-39971729Y65040207D01*
X-39983542Y65228918D01*
X-40018982Y65387945D01*
X-40075626Y65519407D01*
X-40151050Y65625425D01*
X-40245254Y65706301D01*
X-40358239Y65762339D01*
X-40486975Y65795053D01*
X-40628433Y65805958D01*
X-40795638Y65798688D01*
X-40987076Y65769609D01*
X-41151094Y65769609D01*
X-41147011Y65788995D01*
X-41459612Y65788995D01*
X-41481422Y65662985D01*
X-41508078Y65517590D01*
X-41538368Y65360380D01*
X-41571082Y65198931D01*
X-41606220Y65036572D01*
X-41643780Y64876637D01*
X-41682553Y64726697D01*
X-41721325Y64594326D01*
X-41760400Y64728515D01*
X-41800081Y64879060D01*
X-41838853Y65038995D01*
X-41875202Y65201354D01*
X-41908825Y65362501D01*
X-41939418Y65518801D01*
X-41964863Y65663288D01*
X-41983037Y65788995D01*
X-42298061Y65788995D01*
X-42438611Y65788995D01*
X-42736672Y65788995D01*
X-42736672Y65197719D01*
X-43134087Y65197719D01*
X-43134087Y65788995D01*
X-43432149Y65788995D01*
X-43432149Y64288995D01*
X-44292429Y64288995D01*
X-44297945Y64293086D01*
X-44374036Y64362051D01*
X-44443001Y64438142D01*
X-44504175Y64520626D01*
X-44556970Y64608709D01*
X-44600877Y64701542D01*
X-44635474Y64798233D01*
X-44660426Y64897849D01*
X-44675494Y64999430D01*
X-44680533Y65102000D01*
X-44675494Y65204570D01*
X-44660426Y65306151D01*
X-44635474Y65405767D01*
X-44600877Y65502458D01*
X-44556970Y65595291D01*
X-44504175Y65683374D01*
X-44443001Y65765858D01*
X-44374036Y65841949D01*
X-44297945Y65910914D01*
X-44215461Y65972088D01*
X-44127378Y66024883D01*
X-44034545Y66068790D01*
X-43937854Y66103386D01*
X-43838239Y66128339D01*
X-43736657Y66143407D01*
X-43634087Y66148446D01*
X-43432149Y66148446D01*
X-31567851Y66148446D01*
X-31365913Y66148446D01*
X-31263343Y66143407D01*
G37*
D11*
G04 #@! TO.C,R3*
X-67549999Y62602000D02*
X-67549999Y62002000D01*
X-66850001Y62002000D02*
X-66850001Y62602000D01*
G04 #@! TO.C,R1*
X-62499999Y11302000D02*
X-62499999Y10702000D01*
X-61800001Y10702000D02*
X-61800001Y11302000D01*
D13*
G04 #@! TO.C,J1*
X-60600000Y14102000D02*
X-60600000Y9002000D01*
X-60600000Y14102000D02*
X-57500000Y14102000D01*
X-59500000Y7902000D02*
X-57500000Y7902000D01*
X-17500000Y14102000D02*
X-14400000Y14102000D01*
X-17500000Y7902000D02*
X-14400000Y7902000D01*
X-14400000Y14102000D02*
X-14400000Y7902000D01*
D11*
G04 #@! TO.C,R3*
X-67549999Y18602000D02*
X-67549999Y18002000D01*
X-66850001Y18002000D02*
X-66850001Y18602000D01*
D13*
G04 #@! TO.C,J1*
X-60600000Y102102000D02*
X-60600000Y97002000D01*
X-60600000Y102102000D02*
X-57500000Y102102000D01*
X-59500000Y95902000D02*
X-57500000Y95902000D01*
X-17500000Y102102000D02*
X-14400000Y102102000D01*
X-17500000Y95902000D02*
X-14400000Y95902000D01*
X-14400000Y102102000D02*
X-14400000Y95902000D01*
G04 #@! TO.C,J3*
D11*
X-73970000Y27442000D02*
X-68370000Y27442000D01*
X-68370000Y14772000D01*
X-73970000Y14772000D01*
X-73970000Y27442000D01*
G04 #@! TO.C,C1*
X-66399999Y98702000D02*
X-66399999Y99302000D01*
X-65700001Y99302000D02*
X-65700001Y98702000D01*
X-66399999Y10702000D02*
X-66399999Y11302000D01*
X-65700001Y11302000D02*
X-65700001Y10702000D01*
G04 #@! TO.C,U1*
X-65200000Y97302000D02*
X-65200000Y99952000D01*
X-63000000Y99952000D02*
X-63000000Y98052000D01*
G04 #@! TO.C,J3*
X-73970000Y71442000D02*
X-68370000Y71442000D01*
X-68370000Y58772000D01*
X-73970000Y58772000D01*
X-73970000Y71442000D01*
D13*
G04 #@! TO.C,J1*
X-60600000Y58102000D02*
X-60600000Y53002000D01*
X-60600000Y58102000D02*
X-57500000Y58102000D01*
X-59500000Y51902000D02*
X-57500000Y51902000D01*
X-17500000Y58102000D02*
X-14400000Y58102000D01*
X-17500000Y51902000D02*
X-14400000Y51902000D01*
X-14400000Y58102000D02*
X-14400000Y51902000D01*
G04 #@! TO.C,J2*
X-72970000Y87752000D02*
X-1590000Y87752000D01*
X-72970000Y78632000D02*
X-72970000Y87752000D01*
X-68260000Y72012000D02*
X-67260000Y72012000D01*
X-67760000Y73012000D02*
X-68260000Y72012000D01*
X-67260000Y72012000D02*
X-67760000Y73012000D01*
X-39330000Y78632000D02*
X-39330000Y87752000D01*
X-35230000Y78632000D02*
X-35230000Y87752000D01*
X-1590000Y87752000D02*
X-1590000Y78632000D01*
X-1590000Y78632000D02*
X-72970000Y78632000D01*
D11*
G04 #@! TO.C,U1*
X-65200000Y9302000D02*
X-65200000Y11952000D01*
X-63000000Y11952000D02*
X-63000000Y10052000D01*
G04 #@! TO.C,R1*
X-62499999Y55302000D02*
X-62499999Y54702000D01*
X-61800001Y54702000D02*
X-61800001Y55302000D01*
G04 #@! TO.C,R2*
X-67549999Y110902000D02*
X-67549999Y110302000D01*
X-66850001Y110302000D02*
X-66850001Y110902000D01*
G04 #@! TO.C,C1*
X-66399999Y54702000D02*
X-66399999Y55302000D01*
X-65700001Y55302000D02*
X-65700001Y54702000D01*
G04 #@! TD*
%LPC*%
D15*
G04 #@! TO.C,KiKit_MB_8_1*
X-61899000Y51002000D03*
G04 #@! TD*
G04 #@! TO.C,KiKit_MB_1_2*
X-9739401Y95002000D03*
G04 #@! TD*
G04 #@! TO.C,KiKit_MB_4_6*
X-66100999Y95002000D03*
G04 #@! TD*
G04 #@! TO.C,KiKit_MB_5_5*
X-12260600Y51002000D03*
G04 #@! TD*
G04 #@! TO.C,KiKit_MB_1_3*
X-10579801Y95002000D03*
G04 #@! TD*
D16*
G04 #@! TO.C,KiKit_FID_T_3*
X-72500000Y2500000D03*
G04 #@! TD*
D15*
G04 #@! TO.C,KiKit_MB_2_3*
X-64420199Y129002000D03*
G04 #@! TD*
G04 #@! TO.C,KiKit_MB_4_1*
X-61899000Y95002000D03*
G04 #@! TD*
G04 #@! TO.C,KiKit_MB_3_3*
X-11420200Y129002000D03*
G04 #@! TD*
G04 #@! TO.C,KiKit_MB_9_3*
X-10579801Y7002000D03*
G04 #@! TD*
D17*
G04 #@! TO.C,J2*
X-67760000Y30362000D03*
D18*
X-67760000Y32902000D03*
X-65220000Y30362000D03*
X-65220000Y32902000D03*
X-62680000Y30362000D03*
X-62680000Y32902000D03*
X-60140000Y30362000D03*
X-60140000Y32902000D03*
X-57600000Y30362000D03*
X-57600000Y32902000D03*
X-55060000Y30362000D03*
X-55060000Y32902000D03*
X-52520000Y30362000D03*
X-52520000Y32902000D03*
X-49980000Y30362000D03*
X-49980000Y32902000D03*
X-47440000Y30362000D03*
X-47440000Y32902000D03*
X-44900000Y30362000D03*
X-44900000Y32902000D03*
X-42360000Y30362000D03*
X-42360000Y32902000D03*
X-39820000Y30362000D03*
X-39820000Y32902000D03*
X-37280000Y30362000D03*
X-37280000Y32902000D03*
X-34740000Y30362000D03*
X-34740000Y32902000D03*
X-32200000Y30362000D03*
X-32200000Y32902000D03*
X-29660000Y30362000D03*
X-29660000Y32902000D03*
X-27120000Y30362000D03*
X-27120000Y32902000D03*
X-24580000Y30362000D03*
X-24580000Y32902000D03*
X-22040000Y30362000D03*
X-22040000Y32902000D03*
X-19500000Y30362000D03*
X-19500000Y32902000D03*
X-16960000Y30362000D03*
X-16960000Y32902000D03*
X-14420000Y30362000D03*
X-14420000Y32902000D03*
X-11880000Y30362000D03*
X-11880000Y32902000D03*
X-9340000Y30362000D03*
X-9340000Y32902000D03*
X-6800000Y30362000D03*
X-6800000Y32902000D03*
G04 #@! TD*
D15*
G04 #@! TO.C,KiKit_MB_12_5*
X-65260599Y7002000D03*
G04 #@! TD*
G04 #@! TO.C,KiKit_MB_9_5*
X-12260600Y7002000D03*
G04 #@! TD*
G04 #@! TO.C,KiKit_MB_10_5*
X-62739400Y41002000D03*
G04 #@! TD*
D19*
G04 #@! TO.C,H3*
X-71000000Y11002000D03*
G04 #@! TD*
D20*
G04 #@! TO.C,R1*
X-62150000Y98152000D03*
X-62150000Y99852000D03*
G04 #@! TD*
D15*
G04 #@! TO.C,KiKit_MB_3_1*
X-13101000Y129002000D03*
G04 #@! TD*
G04 #@! TO.C,KiKit_MB_7_5*
X-9739401Y85002000D03*
G04 #@! TD*
G04 #@! TO.C,KiKit_MB_1_4*
X-11420200Y95002000D03*
G04 #@! TD*
D21*
G04 #@! TO.C,R2*
X-67200000Y23452000D03*
X-67200000Y21752000D03*
G04 #@! TD*
D15*
G04 #@! TO.C,KiKit_MB_2_2*
X-65260599Y129002000D03*
G04 #@! TD*
G04 #@! TO.C,KiKit_MB_8_4*
X-64420199Y51002000D03*
G04 #@! TD*
G04 #@! TO.C,KiKit_MB_3_4*
X-10579801Y129002000D03*
G04 #@! TD*
G04 #@! TO.C,KiKit_MB_7_1*
X-13101000Y85002000D03*
G04 #@! TD*
G04 #@! TO.C,KiKit_MB_12_4*
X-64420199Y7002000D03*
G04 #@! TD*
D21*
G04 #@! TO.C,R2*
X-67200000Y67452000D03*
X-67200000Y65752000D03*
G04 #@! TD*
D15*
G04 #@! TO.C,KiKit_MB_3_5*
X-9739401Y129002000D03*
G04 #@! TD*
G04 #@! TO.C,KiKit_MB_6_6*
X-61899000Y85002000D03*
G04 #@! TD*
G04 #@! TO.C,KiKit_MB_9_4*
X-11420200Y7002000D03*
G04 #@! TD*
D20*
G04 #@! TO.C,R3*
X-67200000Y105452000D03*
X-67200000Y107152000D03*
G04 #@! TD*
D15*
G04 #@! TO.C,KiKit_MB_6_5*
X-62739400Y85002000D03*
G04 #@! TD*
G04 #@! TO.C,KiKit_MB_10_1*
X-66100999Y41002000D03*
G04 #@! TD*
D22*
G04 #@! TO.C,J3*
X-72440000Y105872000D03*
D23*
X-69900000Y112342000D03*
D24*
X-72440000Y111012000D03*
X-69900000Y109742000D03*
X-72440000Y108472000D03*
X-69900000Y107202000D03*
G04 #@! TD*
D15*
G04 #@! TO.C,KiKit_MB_11_1*
X-13101000Y41002000D03*
G04 #@! TD*
D17*
G04 #@! TO.C,J2*
X-67760000Y118362000D03*
D18*
X-67760000Y120902000D03*
X-65220000Y118362000D03*
X-65220000Y120902000D03*
X-62680000Y118362000D03*
X-62680000Y120902000D03*
X-60140000Y118362000D03*
X-60140000Y120902000D03*
X-57600000Y118362000D03*
X-57600000Y120902000D03*
X-55060000Y118362000D03*
X-55060000Y120902000D03*
X-52520000Y118362000D03*
X-52520000Y120902000D03*
X-49980000Y118362000D03*
X-49980000Y120902000D03*
X-47440000Y118362000D03*
X-47440000Y120902000D03*
X-44900000Y118362000D03*
X-44900000Y120902000D03*
X-42360000Y118362000D03*
X-42360000Y120902000D03*
X-39820000Y118362000D03*
X-39820000Y120902000D03*
X-37280000Y118362000D03*
X-37280000Y120902000D03*
X-34740000Y118362000D03*
X-34740000Y120902000D03*
X-32200000Y118362000D03*
X-32200000Y120902000D03*
X-29660000Y118362000D03*
X-29660000Y120902000D03*
X-27120000Y118362000D03*
X-27120000Y120902000D03*
X-24580000Y118362000D03*
X-24580000Y120902000D03*
X-22040000Y118362000D03*
X-22040000Y120902000D03*
X-19500000Y118362000D03*
X-19500000Y120902000D03*
X-16960000Y118362000D03*
X-16960000Y120902000D03*
X-14420000Y118362000D03*
X-14420000Y120902000D03*
X-11880000Y118362000D03*
X-11880000Y120902000D03*
X-9340000Y118362000D03*
X-9340000Y120902000D03*
X-6800000Y118362000D03*
X-6800000Y120902000D03*
G04 #@! TD*
D15*
G04 #@! TO.C,KiKit_MB_7_3*
X-11420200Y85002000D03*
G04 #@! TD*
G04 #@! TO.C,KiKit_MB_2_6*
X-61899000Y129002000D03*
G04 #@! TD*
D25*
G04 #@! TO.C,U1*
X-64850001Y53602000D03*
X-64350000Y53602000D03*
X-63850000Y53602000D03*
X-63349999Y53602000D03*
X-63349999Y56402000D03*
X-63850000Y56402000D03*
X-64350000Y56402000D03*
X-64850001Y56402000D03*
D26*
X-64100000Y55002000D03*
G04 #@! TD*
D15*
G04 #@! TO.C,KiKit_MB_5_2*
X-9739401Y51002000D03*
G04 #@! TD*
D19*
G04 #@! TO.C,H3*
X-71000000Y99002000D03*
G04 #@! TD*
D15*
G04 #@! TO.C,KiKit_MB_7_2*
X-12260600Y85002000D03*
G04 #@! TD*
G04 #@! TO.C,KiKit_MB_12_2*
X-62739400Y7002000D03*
G04 #@! TD*
G04 #@! TO.C,KiKit_MB_10_4*
X-63579800Y41002000D03*
G04 #@! TD*
D20*
G04 #@! TO.C,R3*
X-67200000Y61452000D03*
X-67200000Y63152000D03*
G04 #@! TD*
D15*
G04 #@! TO.C,KiKit_MB_1_6*
X-13101000Y95002000D03*
G04 #@! TD*
G04 #@! TO.C,KiKit_MB_6_3*
X-64420199Y85002000D03*
G04 #@! TD*
D20*
G04 #@! TO.C,R1*
X-62150000Y10152000D03*
X-62150000Y11852000D03*
G04 #@! TD*
D15*
G04 #@! TO.C,KiKit_MB_4_2*
X-62739400Y95002000D03*
G04 #@! TD*
G04 #@! TO.C,KiKit_MB_9_6*
X-13101000Y7002000D03*
G04 #@! TD*
G04 #@! TO.C,KiKit_MB_9_2*
X-9739401Y7002000D03*
G04 #@! TD*
G04 #@! TO.C,KiKit_MB_6_1*
X-66100999Y85002000D03*
G04 #@! TD*
G04 #@! TO.C,KiKit_MB_2_4*
X-63579800Y129002000D03*
G04 #@! TD*
D27*
G04 #@! TO.C,J1*
X-15400000Y11002000D03*
D28*
X-59600000Y11002000D03*
D29*
X-57100000Y8802000D03*
X-57100000Y13202000D03*
X-56300000Y8802000D03*
X-56300000Y13202000D03*
X-55500000Y8802000D03*
X-55500000Y13202000D03*
X-54700000Y8802000D03*
X-54700000Y13202000D03*
X-53900000Y8802000D03*
X-53900000Y13202000D03*
X-53100000Y8802000D03*
X-53100000Y13202000D03*
X-52300000Y8802000D03*
X-52300000Y13202000D03*
X-51500000Y8802000D03*
X-51500000Y13202000D03*
X-50700000Y8802000D03*
X-50700000Y13202000D03*
X-49900000Y8802000D03*
X-49900000Y13202000D03*
X-49100000Y8802000D03*
X-49100000Y13202000D03*
X-48300000Y8802000D03*
X-48300000Y13202000D03*
X-47500000Y8802000D03*
X-47500000Y13202000D03*
X-46700000Y8802000D03*
X-46700000Y13202000D03*
X-45900000Y8802000D03*
X-45900000Y13202000D03*
X-45100000Y8802000D03*
X-45100000Y13202000D03*
X-44300000Y8802000D03*
X-44300000Y13202000D03*
X-43500000Y8802000D03*
X-43500000Y13202000D03*
X-42700000Y8802000D03*
X-42700000Y13202000D03*
X-41900000Y8802000D03*
X-41900000Y13202000D03*
X-41100000Y8802000D03*
X-41100000Y13202000D03*
X-40300000Y8802000D03*
X-40300000Y13202000D03*
X-39500000Y8802000D03*
X-39500000Y13202000D03*
X-38700000Y8802000D03*
X-38700000Y13202000D03*
X-37900000Y8802000D03*
X-37900000Y13202000D03*
X-37100000Y8802000D03*
X-37100000Y13202000D03*
X-36300000Y8802000D03*
X-36300000Y13202000D03*
X-35500000Y8802000D03*
X-35500000Y13202000D03*
X-34700000Y8802000D03*
X-34700000Y13202000D03*
X-33900000Y8802000D03*
X-33900000Y13202000D03*
X-33100000Y8802000D03*
X-33100000Y13202000D03*
X-32300000Y8802000D03*
X-32300000Y13202000D03*
X-31500000Y8802000D03*
X-31500000Y13202000D03*
X-30700000Y8802000D03*
X-30700000Y13202000D03*
X-29900000Y8802000D03*
X-29900000Y13202000D03*
X-29100000Y8802000D03*
X-29100000Y13202000D03*
X-28300000Y8802000D03*
X-28300000Y13202000D03*
X-27500000Y8802000D03*
X-27500000Y13202000D03*
X-26700000Y8802000D03*
X-26700000Y13202000D03*
X-25900000Y8802000D03*
X-25900000Y13202000D03*
X-25100000Y8802000D03*
X-25100000Y13202000D03*
X-24300000Y8802000D03*
X-24300000Y13202000D03*
X-23500000Y8802000D03*
X-23500000Y13202000D03*
X-22700000Y8802000D03*
X-22700000Y13202000D03*
X-21900000Y8802000D03*
X-21900000Y13202000D03*
X-21100000Y8802000D03*
X-21100000Y13202000D03*
X-20300000Y8802000D03*
X-20300000Y13202000D03*
X-19500000Y8802000D03*
X-19500000Y13202000D03*
X-18700000Y8802000D03*
X-18700000Y13202000D03*
X-17900000Y8802000D03*
X-17900000Y13202000D03*
G04 #@! TD*
D19*
G04 #@! TO.C,H3*
X-71000000Y55002000D03*
G04 #@! TD*
D15*
G04 #@! TO.C,KiKit_MB_2_5*
X-62739400Y129002000D03*
G04 #@! TD*
G04 #@! TO.C,KiKit_MB_1_1*
X-8899001Y95002000D03*
G04 #@! TD*
G04 #@! TO.C,KiKit_MB_8_5*
X-65260599Y51002000D03*
G04 #@! TD*
G04 #@! TO.C,KiKit_MB_12_6*
X-66100999Y7002000D03*
G04 #@! TD*
D20*
G04 #@! TO.C,R3*
X-67200000Y17452000D03*
X-67200000Y19152000D03*
G04 #@! TD*
D15*
G04 #@! TO.C,KiKit_MB_3_2*
X-12260600Y129002000D03*
G04 #@! TD*
G04 #@! TO.C,KiKit_MB_7_6*
X-8899001Y85002000D03*
G04 #@! TD*
D27*
G04 #@! TO.C,J1*
X-15400000Y99002000D03*
D28*
X-59600000Y99002000D03*
D29*
X-57100000Y96802000D03*
X-57100000Y101202000D03*
X-56300000Y96802000D03*
X-56300000Y101202000D03*
X-55500000Y96802000D03*
X-55500000Y101202000D03*
X-54700000Y96802000D03*
X-54700000Y101202000D03*
X-53900000Y96802000D03*
X-53900000Y101202000D03*
X-53100000Y96802000D03*
X-53100000Y101202000D03*
X-52300000Y96802000D03*
X-52300000Y101202000D03*
X-51500000Y96802000D03*
X-51500000Y101202000D03*
X-50700000Y96802000D03*
X-50700000Y101202000D03*
X-49900000Y96802000D03*
X-49900000Y101202000D03*
X-49100000Y96802000D03*
X-49100000Y101202000D03*
X-48300000Y96802000D03*
X-48300000Y101202000D03*
X-47500000Y96802000D03*
X-47500000Y101202000D03*
X-46700000Y96802000D03*
X-46700000Y101202000D03*
X-45900000Y96802000D03*
X-45900000Y101202000D03*
X-45100000Y96802000D03*
X-45100000Y101202000D03*
X-44300000Y96802000D03*
X-44300000Y101202000D03*
X-43500000Y96802000D03*
X-43500000Y101202000D03*
X-42700000Y96802000D03*
X-42700000Y101202000D03*
X-41900000Y96802000D03*
X-41900000Y101202000D03*
X-41100000Y96802000D03*
X-41100000Y101202000D03*
X-40300000Y96802000D03*
X-40300000Y101202000D03*
X-39500000Y96802000D03*
X-39500000Y101202000D03*
X-38700000Y96802000D03*
X-38700000Y101202000D03*
X-37900000Y96802000D03*
X-37900000Y101202000D03*
X-37100000Y96802000D03*
X-37100000Y101202000D03*
X-36300000Y96802000D03*
X-36300000Y101202000D03*
X-35500000Y96802000D03*
X-35500000Y101202000D03*
X-34700000Y96802000D03*
X-34700000Y101202000D03*
X-33900000Y96802000D03*
X-33900000Y101202000D03*
X-33100000Y96802000D03*
X-33100000Y101202000D03*
X-32300000Y96802000D03*
X-32300000Y101202000D03*
X-31500000Y96802000D03*
X-31500000Y101202000D03*
X-30700000Y96802000D03*
X-30700000Y101202000D03*
X-29900000Y96802000D03*
X-29900000Y101202000D03*
X-29100000Y96802000D03*
X-29100000Y101202000D03*
X-28300000Y96802000D03*
X-28300000Y101202000D03*
X-27500000Y96802000D03*
X-27500000Y101202000D03*
X-26700000Y96802000D03*
X-26700000Y101202000D03*
X-25900000Y96802000D03*
X-25900000Y101202000D03*
X-25100000Y96802000D03*
X-25100000Y101202000D03*
X-24300000Y96802000D03*
X-24300000Y101202000D03*
X-23500000Y96802000D03*
X-23500000Y101202000D03*
X-22700000Y96802000D03*
X-22700000Y101202000D03*
X-21900000Y96802000D03*
X-21900000Y101202000D03*
X-21100000Y96802000D03*
X-21100000Y101202000D03*
X-20300000Y96802000D03*
X-20300000Y101202000D03*
X-19500000Y96802000D03*
X-19500000Y101202000D03*
X-18700000Y96802000D03*
X-18700000Y101202000D03*
X-17900000Y96802000D03*
X-17900000Y101202000D03*
G04 #@! TD*
D15*
G04 #@! TO.C,KiKit_MB_5_6*
X-13101000Y51002000D03*
G04 #@! TD*
G04 #@! TO.C,KiKit_MB_5_4*
X-11420200Y51002000D03*
G04 #@! TD*
G04 #@! TO.C,KiKit_MB_6_4*
X-63579800Y85002000D03*
G04 #@! TD*
D22*
G04 #@! TO.C,J3*
X-72440000Y17872000D03*
D23*
X-69900000Y24342000D03*
D24*
X-72440000Y23012000D03*
X-69900000Y21742000D03*
X-72440000Y20472000D03*
X-69900000Y19202000D03*
G04 #@! TD*
D15*
G04 #@! TO.C,KiKit_MB_11_5*
X-9739401Y41002000D03*
G04 #@! TD*
D19*
G04 #@! TO.C,H4*
X-4000000Y55002000D03*
G04 #@! TD*
D20*
G04 #@! TO.C,C1*
X-66050000Y98152000D03*
X-66050000Y99852000D03*
G04 #@! TD*
D15*
G04 #@! TO.C,KiKit_MB_4_4*
X-64420199Y95002000D03*
G04 #@! TD*
G04 #@! TO.C,KiKit_MB_8_6*
X-66100999Y51002000D03*
G04 #@! TD*
G04 #@! TO.C,KiKit_MB_5_3*
X-10579801Y51002000D03*
G04 #@! TD*
G04 #@! TO.C,KiKit_MB_8_3*
X-63579800Y51002000D03*
G04 #@! TD*
G04 #@! TO.C,KiKit_MB_10_2*
X-65260599Y41002000D03*
G04 #@! TD*
D20*
G04 #@! TO.C,C1*
X-66050000Y10152000D03*
X-66050000Y11852000D03*
G04 #@! TD*
D25*
G04 #@! TO.C,U1*
X-64850001Y97602000D03*
X-64350000Y97602000D03*
X-63850000Y97602000D03*
X-63349999Y97602000D03*
X-63349999Y100402000D03*
X-63850000Y100402000D03*
X-64350000Y100402000D03*
X-64850001Y100402000D03*
D26*
X-64100000Y99002000D03*
G04 #@! TD*
D22*
G04 #@! TO.C,J3*
X-72440000Y61872000D03*
D23*
X-69900000Y68342000D03*
D24*
X-72440000Y67012000D03*
X-69900000Y65742000D03*
X-72440000Y64472000D03*
X-69900000Y63202000D03*
G04 #@! TD*
D15*
G04 #@! TO.C,KiKit_MB_9_1*
X-8899001Y7002000D03*
G04 #@! TD*
G04 #@! TO.C,KiKit_MB_11_4*
X-10579801Y41002000D03*
G04 #@! TD*
G04 #@! TO.C,KiKit_MB_6_2*
X-65260599Y85002000D03*
G04 #@! TD*
G04 #@! TO.C,KiKit_MB_11_3*
X-11420200Y41002000D03*
G04 #@! TD*
G04 #@! TO.C,KiKit_MB_10_6*
X-61899000Y41002000D03*
G04 #@! TD*
D16*
G04 #@! TO.C,KiKit_FID_T_2*
X-2500000Y133503500D03*
G04 #@! TD*
G04 #@! TO.C,KiKit_FID_T_1*
X-72500000Y133503500D03*
G04 #@! TD*
D15*
G04 #@! TO.C,KiKit_MB_11_6*
X-8899001Y41002000D03*
G04 #@! TD*
D27*
G04 #@! TO.C,J1*
X-15400000Y55002000D03*
D28*
X-59600000Y55002000D03*
D29*
X-57100000Y52802000D03*
X-57100000Y57202000D03*
X-56300000Y52802000D03*
X-56300000Y57202000D03*
X-55500000Y52802000D03*
X-55500000Y57202000D03*
X-54700000Y52802000D03*
X-54700000Y57202000D03*
X-53900000Y52802000D03*
X-53900000Y57202000D03*
X-53100000Y52802000D03*
X-53100000Y57202000D03*
X-52300000Y52802000D03*
X-52300000Y57202000D03*
X-51500000Y52802000D03*
X-51500000Y57202000D03*
X-50700000Y52802000D03*
X-50700000Y57202000D03*
X-49900000Y52802000D03*
X-49900000Y57202000D03*
X-49100000Y52802000D03*
X-49100000Y57202000D03*
X-48300000Y52802000D03*
X-48300000Y57202000D03*
X-47500000Y52802000D03*
X-47500000Y57202000D03*
X-46700000Y52802000D03*
X-46700000Y57202000D03*
X-45900000Y52802000D03*
X-45900000Y57202000D03*
X-45100000Y52802000D03*
X-45100000Y57202000D03*
X-44300000Y52802000D03*
X-44300000Y57202000D03*
X-43500000Y52802000D03*
X-43500000Y57202000D03*
X-42700000Y52802000D03*
X-42700000Y57202000D03*
X-41900000Y52802000D03*
X-41900000Y57202000D03*
X-41100000Y52802000D03*
X-41100000Y57202000D03*
X-40300000Y52802000D03*
X-40300000Y57202000D03*
X-39500000Y52802000D03*
X-39500000Y57202000D03*
X-38700000Y52802000D03*
X-38700000Y57202000D03*
X-37900000Y52802000D03*
X-37900000Y57202000D03*
X-37100000Y52802000D03*
X-37100000Y57202000D03*
X-36300000Y52802000D03*
X-36300000Y57202000D03*
X-35500000Y52802000D03*
X-35500000Y57202000D03*
X-34700000Y52802000D03*
X-34700000Y57202000D03*
X-33900000Y52802000D03*
X-33900000Y57202000D03*
X-33100000Y52802000D03*
X-33100000Y57202000D03*
X-32300000Y52802000D03*
X-32300000Y57202000D03*
X-31500000Y52802000D03*
X-31500000Y57202000D03*
X-30700000Y52802000D03*
X-30700000Y57202000D03*
X-29900000Y52802000D03*
X-29900000Y57202000D03*
X-29100000Y52802000D03*
X-29100000Y57202000D03*
X-28300000Y52802000D03*
X-28300000Y57202000D03*
X-27500000Y52802000D03*
X-27500000Y57202000D03*
X-26700000Y52802000D03*
X-26700000Y57202000D03*
X-25900000Y52802000D03*
X-25900000Y57202000D03*
X-25100000Y52802000D03*
X-25100000Y57202000D03*
X-24300000Y52802000D03*
X-24300000Y57202000D03*
X-23500000Y52802000D03*
X-23500000Y57202000D03*
X-22700000Y52802000D03*
X-22700000Y57202000D03*
X-21900000Y52802000D03*
X-21900000Y57202000D03*
X-21100000Y52802000D03*
X-21100000Y57202000D03*
X-20300000Y52802000D03*
X-20300000Y57202000D03*
X-19500000Y52802000D03*
X-19500000Y57202000D03*
X-18700000Y52802000D03*
X-18700000Y57202000D03*
X-17900000Y52802000D03*
X-17900000Y57202000D03*
G04 #@! TD*
D15*
G04 #@! TO.C,KiKit_MB_7_4*
X-10579801Y85002000D03*
G04 #@! TD*
G04 #@! TO.C,KiKit_MB_4_5*
X-65260599Y95002000D03*
G04 #@! TD*
G04 #@! TO.C,KiKit_MB_2_1*
X-66100999Y129002000D03*
G04 #@! TD*
G04 #@! TO.C,KiKit_MB_8_2*
X-62739400Y51002000D03*
G04 #@! TD*
D17*
G04 #@! TO.C,J2*
X-67760000Y74362000D03*
D18*
X-67760000Y76902000D03*
X-65220000Y74362000D03*
X-65220000Y76902000D03*
X-62680000Y74362000D03*
X-62680000Y76902000D03*
X-60140000Y74362000D03*
X-60140000Y76902000D03*
X-57600000Y74362000D03*
X-57600000Y76902000D03*
X-55060000Y74362000D03*
X-55060000Y76902000D03*
X-52520000Y74362000D03*
X-52520000Y76902000D03*
X-49980000Y74362000D03*
X-49980000Y76902000D03*
X-47440000Y74362000D03*
X-47440000Y76902000D03*
X-44900000Y74362000D03*
X-44900000Y76902000D03*
X-42360000Y74362000D03*
X-42360000Y76902000D03*
X-39820000Y74362000D03*
X-39820000Y76902000D03*
X-37280000Y74362000D03*
X-37280000Y76902000D03*
X-34740000Y74362000D03*
X-34740000Y76902000D03*
X-32200000Y74362000D03*
X-32200000Y76902000D03*
X-29660000Y74362000D03*
X-29660000Y76902000D03*
X-27120000Y74362000D03*
X-27120000Y76902000D03*
X-24580000Y74362000D03*
X-24580000Y76902000D03*
X-22040000Y74362000D03*
X-22040000Y76902000D03*
X-19500000Y74362000D03*
X-19500000Y76902000D03*
X-16960000Y74362000D03*
X-16960000Y76902000D03*
X-14420000Y74362000D03*
X-14420000Y76902000D03*
X-11880000Y74362000D03*
X-11880000Y76902000D03*
X-9340000Y74362000D03*
X-9340000Y76902000D03*
X-6800000Y74362000D03*
X-6800000Y76902000D03*
G04 #@! TD*
D15*
G04 #@! TO.C,KiKit_MB_12_1*
X-61899000Y7002000D03*
G04 #@! TD*
D19*
G04 #@! TO.C,H4*
X-4000000Y99002000D03*
G04 #@! TD*
G04 #@! TO.C,H4*
X-4000000Y11002000D03*
G04 #@! TD*
D15*
G04 #@! TO.C,KiKit_MB_3_6*
X-8899001Y129002000D03*
G04 #@! TD*
G04 #@! TO.C,KiKit_MB_10_3*
X-64420199Y41002000D03*
G04 #@! TD*
G04 #@! TO.C,KiKit_MB_11_2*
X-12260600Y41002000D03*
G04 #@! TD*
G04 #@! TO.C,KiKit_MB_12_3*
X-63579800Y7002000D03*
G04 #@! TD*
G04 #@! TO.C,KiKit_MB_1_5*
X-12260600Y95002000D03*
G04 #@! TD*
D25*
G04 #@! TO.C,U1*
X-64850001Y9602000D03*
X-64350000Y9602000D03*
X-63850000Y9602000D03*
X-63349999Y9602000D03*
X-63349999Y12402000D03*
X-63850000Y12402000D03*
X-64350000Y12402000D03*
X-64850001Y12402000D03*
D26*
X-64100000Y11002000D03*
G04 #@! TD*
D15*
G04 #@! TO.C,KiKit_MB_4_3*
X-63579800Y95002000D03*
G04 #@! TD*
D20*
G04 #@! TO.C,R1*
X-62150000Y54152000D03*
X-62150000Y55852000D03*
G04 #@! TD*
D21*
G04 #@! TO.C,R2*
X-67200000Y111452000D03*
X-67200000Y109752000D03*
G04 #@! TD*
D20*
G04 #@! TO.C,C1*
X-66050000Y54152000D03*
X-66050000Y55852000D03*
G04 #@! TD*
D15*
G04 #@! TO.C,KiKit_MB_5_1*
X-8899001Y51002000D03*
G04 #@! TD*
G36*
X-56961Y114532315D02*
G01*
X-11206Y114479511D01*
X0Y114428000D01*
X0Y105476000D01*
X-19685Y105408961D01*
X-72489Y105363206D01*
X-124000Y105352000D01*
X-2376000Y105352000D01*
X-2443039Y105371685D01*
X-2488794Y105424489D01*
X-2500000Y105476000D01*
X-2500000Y114428000D01*
X-2480315Y114495039D01*
X-2427511Y114540794D01*
X-2376000Y114552000D01*
X-124000Y114552000D01*
X-56961Y114532315D01*
G37*
G36*
X-56961Y70532315D02*
G01*
X-11206Y70479511D01*
X0Y70428000D01*
X0Y61476000D01*
X-19685Y61408961D01*
X-72489Y61363206D01*
X-124000Y61352000D01*
X-2376000Y61352000D01*
X-2443039Y61371685D01*
X-2488794Y61424489D01*
X-2500000Y61476000D01*
X-2500000Y70428000D01*
X-2480315Y70495039D01*
X-2427511Y70540794D01*
X-2376000Y70552000D01*
X-124000Y70552000D01*
X-56961Y70532315D01*
G37*
G36*
X-56961Y26532315D02*
G01*
X-11206Y26479511D01*
X0Y26428000D01*
X0Y17476000D01*
X-19685Y17408961D01*
X-72489Y17363206D01*
X-124000Y17352000D01*
X-2376000Y17352000D01*
X-2443039Y17371685D01*
X-2488794Y17424489D01*
X-2500000Y17476000D01*
X-2500000Y26428000D01*
X-2480315Y26495039D01*
X-2427511Y26540794D01*
X-2376000Y26552000D01*
X-124000Y26552000D01*
X-56961Y26532315D01*
G37*
%LPD*%
M02*
