G04 #@! TF.GenerationSoftware,KiCad,Pcbnew,8.0.6*
G04 #@! TF.CreationDate,2024-11-07T02:26:55-08:00*
G04 #@! TF.ProjectId,hvd-50-idc-panel,6876642d-3530-42d6-9964-632d70616e65,1*
G04 #@! TF.SameCoordinates,Original*
G04 #@! TF.FileFunction,Legend,Bot*
G04 #@! TF.FilePolarity,Positive*
%FSLAX46Y46*%
G04 Gerber Fmt 4.6, Leading zero omitted, Abs format (unit mm)*
G04 Created by KiCad (PCBNEW 8.0.6) date 2024-11-07 02:26:55*
%MOMM*%
%LPD*%
G01*
G04 APERTURE LIST*
G04 Aperture macros list*
%AMRoundRect*
0 Rectangle with rounded corners*
0 $1 Rounding radius*
0 $2 $3 $4 $5 $6 $7 $8 $9 X,Y pos of 4 corners*
0 Add a 4 corners polygon primitive as box body*
4,1,4,$2,$3,$4,$5,$6,$7,$8,$9,$2,$3,0*
0 Add four circle primitives for the rounded corners*
1,1,$1+$1,$2,$3*
1,1,$1+$1,$4,$5*
1,1,$1+$1,$6,$7*
1,1,$1+$1,$8,$9*
0 Add four rect primitives between the rounded corners*
20,1,$1+$1,$2,$3,$4,$5,0*
20,1,$1+$1,$4,$5,$6,$7,0*
20,1,$1+$1,$6,$7,$8,$9,0*
20,1,$1+$1,$8,$9,$2,$3,0*%
G04 Aperture macros list end*
%ADD10C,1.350000*%
%ADD11C,0.500000*%
%ADD12RoundRect,0.264706X0.635294X-0.635294X0.635294X0.635294X-0.635294X0.635294X-0.635294X-0.635294X0*%
%ADD13C,1.800000*%
%ADD14C,6.500000*%
%ADD15C,2.300000*%
%ADD16C,2.700000*%
%ADD17C,1.950000*%
%ADD18C,0.800000*%
%ADD19C,1.200000*%
%ADD20C,2.500000*%
G04 APERTURE END LIST*
D10*
X-37500000Y101802001D02*
X-30300001Y109002001D01*
X-30300001Y109002001D02*
X-37500000Y116202000D01*
X-27162247Y21002000D02*
X-34350001Y28202000D01*
X-37500000Y57802001D02*
X-30300001Y65002001D01*
X-30300001Y21002001D02*
X-37500000Y28202000D01*
X-42300001Y18602000D02*
X-37500000Y13802001D01*
X-37500000Y28202000D02*
X-42300001Y23402001D01*
X-42300001Y106602000D02*
X-37500000Y101802001D01*
X-30300001Y65002001D02*
X-37500000Y72202000D01*
X-44700000Y21002001D02*
X-39900000Y21002001D01*
X-34350001Y57802001D02*
X-27162247Y65002000D01*
X-44700000Y109002001D02*
X-39900000Y109002001D01*
X-34350001Y13802001D02*
X-27162247Y21002000D01*
X-27162247Y65002000D02*
X-34350001Y72202000D01*
X-37500000Y13802001D02*
X-30300001Y21002001D01*
X-37500000Y116202000D02*
X-42300001Y111402001D01*
X-42300001Y62602000D02*
X-37500000Y57802001D01*
X-44700000Y65002001D02*
X-39900000Y65002001D01*
X-27162247Y109002000D02*
X-34350001Y116202000D01*
X-34350001Y101802001D02*
X-27162247Y109002000D01*
X-37500000Y72202000D02*
X-42300001Y67402001D01*
%LPC*%
D11*
G04 #@! TO.C,KiKit_MB_8_1*
X-61899000Y51002000D03*
G04 #@! TD*
G04 #@! TO.C,KiKit_MB_1_2*
X-9739401Y95002000D03*
G04 #@! TD*
G04 #@! TO.C,KiKit_MB_4_6*
X-66100999Y95002000D03*
G04 #@! TD*
G04 #@! TO.C,KiKit_MB_5_5*
X-12260600Y51002000D03*
G04 #@! TD*
G04 #@! TO.C,KiKit_MB_1_3*
X-10579801Y95002000D03*
G04 #@! TD*
G04 #@! TO.C,KiKit_MB_2_3*
X-64420199Y129002000D03*
G04 #@! TD*
G04 #@! TO.C,KiKit_MB_4_1*
X-61899000Y95002000D03*
G04 #@! TD*
G04 #@! TO.C,KiKit_MB_3_3*
X-11420200Y129002000D03*
G04 #@! TD*
G04 #@! TO.C,KiKit_MB_9_3*
X-10579801Y7002000D03*
G04 #@! TD*
D12*
G04 #@! TO.C,J2*
X-67760000Y30362000D03*
D13*
X-67760000Y32902000D03*
X-65220000Y30362000D03*
X-65220000Y32902000D03*
X-62680000Y30362000D03*
X-62680000Y32902000D03*
X-60140000Y30362000D03*
X-60140000Y32902000D03*
X-57600000Y30362000D03*
X-57600000Y32902000D03*
X-55060000Y30362000D03*
X-55060000Y32902000D03*
X-52520000Y30362000D03*
X-52520000Y32902000D03*
X-49980000Y30362000D03*
X-49980000Y32902000D03*
X-47440000Y30362000D03*
X-47440000Y32902000D03*
X-44900000Y30362000D03*
X-44900000Y32902000D03*
X-42360000Y30362000D03*
X-42360000Y32902000D03*
X-39820000Y30362000D03*
X-39820000Y32902000D03*
X-37280000Y30362000D03*
X-37280000Y32902000D03*
X-34740000Y30362000D03*
X-34740000Y32902000D03*
X-32200000Y30362000D03*
X-32200000Y32902000D03*
X-29660000Y30362000D03*
X-29660000Y32902000D03*
X-27120000Y30362000D03*
X-27120000Y32902000D03*
X-24580000Y30362000D03*
X-24580000Y32902000D03*
X-22040000Y30362000D03*
X-22040000Y32902000D03*
X-19500000Y30362000D03*
X-19500000Y32902000D03*
X-16960000Y30362000D03*
X-16960000Y32902000D03*
X-14420000Y30362000D03*
X-14420000Y32902000D03*
X-11880000Y30362000D03*
X-11880000Y32902000D03*
X-9340000Y30362000D03*
X-9340000Y32902000D03*
X-6800000Y30362000D03*
X-6800000Y32902000D03*
G04 #@! TD*
D11*
G04 #@! TO.C,KiKit_MB_12_5*
X-65260599Y7002000D03*
G04 #@! TD*
G04 #@! TO.C,KiKit_MB_9_5*
X-12260600Y7002000D03*
G04 #@! TD*
G04 #@! TO.C,KiKit_MB_10_5*
X-62739400Y41002000D03*
G04 #@! TD*
D14*
G04 #@! TO.C,H3*
X-71000000Y11002000D03*
G04 #@! TD*
D11*
G04 #@! TO.C,KiKit_MB_3_1*
X-13101000Y129002000D03*
G04 #@! TD*
G04 #@! TO.C,KiKit_MB_7_5*
X-9739401Y85002000D03*
G04 #@! TD*
G04 #@! TO.C,KiKit_MB_1_4*
X-11420200Y95002000D03*
G04 #@! TD*
G04 #@! TO.C,KiKit_MB_2_2*
X-65260599Y129002000D03*
G04 #@! TD*
G04 #@! TO.C,KiKit_MB_8_4*
X-64420199Y51002000D03*
G04 #@! TD*
G04 #@! TO.C,KiKit_MB_3_4*
X-10579801Y129002000D03*
G04 #@! TD*
G04 #@! TO.C,KiKit_MB_7_1*
X-13101000Y85002000D03*
G04 #@! TD*
G04 #@! TO.C,KiKit_MB_12_4*
X-64420199Y7002000D03*
G04 #@! TD*
G04 #@! TO.C,KiKit_MB_3_5*
X-9739401Y129002000D03*
G04 #@! TD*
G04 #@! TO.C,KiKit_MB_6_6*
X-61899000Y85002000D03*
G04 #@! TD*
G04 #@! TO.C,KiKit_MB_9_4*
X-11420200Y7002000D03*
G04 #@! TD*
G04 #@! TO.C,KiKit_MB_6_5*
X-62739400Y85002000D03*
G04 #@! TD*
G04 #@! TO.C,KiKit_MB_10_1*
X-66100999Y41002000D03*
G04 #@! TD*
D15*
G04 #@! TO.C,J3*
X-72440000Y105872000D03*
D16*
X-69900000Y112342000D03*
D17*
X-72440000Y111012000D03*
X-69900000Y109742000D03*
X-72440000Y108472000D03*
X-69900000Y107202000D03*
G04 #@! TD*
D11*
G04 #@! TO.C,KiKit_MB_11_1*
X-13101000Y41002000D03*
G04 #@! TD*
D12*
G04 #@! TO.C,J2*
X-67760000Y118362000D03*
D13*
X-67760000Y120902000D03*
X-65220000Y118362000D03*
X-65220000Y120902000D03*
X-62680000Y118362000D03*
X-62680000Y120902000D03*
X-60140000Y118362000D03*
X-60140000Y120902000D03*
X-57600000Y118362000D03*
X-57600000Y120902000D03*
X-55060000Y118362000D03*
X-55060000Y120902000D03*
X-52520000Y118362000D03*
X-52520000Y120902000D03*
X-49980000Y118362000D03*
X-49980000Y120902000D03*
X-47440000Y118362000D03*
X-47440000Y120902000D03*
X-44900000Y118362000D03*
X-44900000Y120902000D03*
X-42360000Y118362000D03*
X-42360000Y120902000D03*
X-39820000Y118362000D03*
X-39820000Y120902000D03*
X-37280000Y118362000D03*
X-37280000Y120902000D03*
X-34740000Y118362000D03*
X-34740000Y120902000D03*
X-32200000Y118362000D03*
X-32200000Y120902000D03*
X-29660000Y118362000D03*
X-29660000Y120902000D03*
X-27120000Y118362000D03*
X-27120000Y120902000D03*
X-24580000Y118362000D03*
X-24580000Y120902000D03*
X-22040000Y118362000D03*
X-22040000Y120902000D03*
X-19500000Y118362000D03*
X-19500000Y120902000D03*
X-16960000Y118362000D03*
X-16960000Y120902000D03*
X-14420000Y118362000D03*
X-14420000Y120902000D03*
X-11880000Y118362000D03*
X-11880000Y120902000D03*
X-9340000Y118362000D03*
X-9340000Y120902000D03*
X-6800000Y118362000D03*
X-6800000Y120902000D03*
G04 #@! TD*
D11*
G04 #@! TO.C,KiKit_MB_7_3*
X-11420200Y85002000D03*
G04 #@! TD*
G04 #@! TO.C,KiKit_MB_2_6*
X-61899000Y129002000D03*
G04 #@! TD*
G04 #@! TO.C,KiKit_MB_5_2*
X-9739401Y51002000D03*
G04 #@! TD*
D14*
G04 #@! TO.C,H3*
X-71000000Y99002000D03*
G04 #@! TD*
D11*
G04 #@! TO.C,KiKit_MB_7_2*
X-12260600Y85002000D03*
G04 #@! TD*
G04 #@! TO.C,KiKit_MB_12_2*
X-62739400Y7002000D03*
G04 #@! TD*
G04 #@! TO.C,KiKit_MB_10_4*
X-63579800Y41002000D03*
G04 #@! TD*
G04 #@! TO.C,KiKit_MB_1_6*
X-13101000Y95002000D03*
G04 #@! TD*
G04 #@! TO.C,KiKit_MB_6_3*
X-64420199Y85002000D03*
G04 #@! TD*
G04 #@! TO.C,KiKit_MB_4_2*
X-62739400Y95002000D03*
G04 #@! TD*
G04 #@! TO.C,KiKit_MB_9_6*
X-13101000Y7002000D03*
G04 #@! TD*
G04 #@! TO.C,KiKit_MB_9_2*
X-9739401Y7002000D03*
G04 #@! TD*
G04 #@! TO.C,KiKit_MB_6_1*
X-66100999Y85002000D03*
G04 #@! TD*
G04 #@! TO.C,KiKit_MB_2_4*
X-63579800Y129002000D03*
G04 #@! TD*
D18*
G04 #@! TO.C,J1*
X-15400000Y11002000D03*
D19*
X-59600000Y11002000D03*
G04 #@! TD*
D14*
G04 #@! TO.C,H3*
X-71000000Y55002000D03*
G04 #@! TD*
D11*
G04 #@! TO.C,KiKit_MB_2_5*
X-62739400Y129002000D03*
G04 #@! TD*
G04 #@! TO.C,KiKit_MB_1_1*
X-8899001Y95002000D03*
G04 #@! TD*
G04 #@! TO.C,KiKit_MB_8_5*
X-65260599Y51002000D03*
G04 #@! TD*
G04 #@! TO.C,KiKit_MB_12_6*
X-66100999Y7002000D03*
G04 #@! TD*
G04 #@! TO.C,KiKit_MB_3_2*
X-12260600Y129002000D03*
G04 #@! TD*
G04 #@! TO.C,KiKit_MB_7_6*
X-8899001Y85002000D03*
G04 #@! TD*
D18*
G04 #@! TO.C,J1*
X-15400000Y99002000D03*
D19*
X-59600000Y99002000D03*
G04 #@! TD*
D11*
G04 #@! TO.C,KiKit_MB_5_6*
X-13101000Y51002000D03*
G04 #@! TD*
G04 #@! TO.C,KiKit_MB_5_4*
X-11420200Y51002000D03*
G04 #@! TD*
G04 #@! TO.C,KiKit_MB_6_4*
X-63579800Y85002000D03*
G04 #@! TD*
D15*
G04 #@! TO.C,J3*
X-72440000Y17872000D03*
D16*
X-69900000Y24342000D03*
D17*
X-72440000Y23012000D03*
X-69900000Y21742000D03*
X-72440000Y20472000D03*
X-69900000Y19202000D03*
G04 #@! TD*
D11*
G04 #@! TO.C,KiKit_MB_11_5*
X-9739401Y41002000D03*
G04 #@! TD*
D14*
G04 #@! TO.C,H4*
X-4000000Y55002000D03*
G04 #@! TD*
D11*
G04 #@! TO.C,KiKit_MB_4_4*
X-64420199Y95002000D03*
G04 #@! TD*
G04 #@! TO.C,KiKit_MB_8_6*
X-66100999Y51002000D03*
G04 #@! TD*
G04 #@! TO.C,KiKit_MB_5_3*
X-10579801Y51002000D03*
G04 #@! TD*
G04 #@! TO.C,KiKit_MB_8_3*
X-63579800Y51002000D03*
G04 #@! TD*
G04 #@! TO.C,KiKit_MB_10_2*
X-65260599Y41002000D03*
G04 #@! TD*
D15*
G04 #@! TO.C,J3*
X-72440000Y61872000D03*
D16*
X-69900000Y68342000D03*
D17*
X-72440000Y67012000D03*
X-69900000Y65742000D03*
X-72440000Y64472000D03*
X-69900000Y63202000D03*
G04 #@! TD*
D11*
G04 #@! TO.C,KiKit_MB_9_1*
X-8899001Y7002000D03*
G04 #@! TD*
G04 #@! TO.C,KiKit_MB_11_4*
X-10579801Y41002000D03*
G04 #@! TD*
G04 #@! TO.C,KiKit_MB_6_2*
X-65260599Y85002000D03*
G04 #@! TD*
G04 #@! TO.C,KiKit_MB_11_3*
X-11420200Y41002000D03*
G04 #@! TD*
G04 #@! TO.C,KiKit_MB_10_6*
X-61899000Y41002000D03*
G04 #@! TD*
G04 #@! TO.C,KiKit_MB_11_6*
X-8899001Y41002000D03*
G04 #@! TD*
D18*
G04 #@! TO.C,J1*
X-15400000Y55002000D03*
D19*
X-59600000Y55002000D03*
G04 #@! TD*
D11*
G04 #@! TO.C,KiKit_MB_7_4*
X-10579801Y85002000D03*
G04 #@! TD*
G04 #@! TO.C,KiKit_MB_4_5*
X-65260599Y95002000D03*
G04 #@! TD*
G04 #@! TO.C,KiKit_MB_2_1*
X-66100999Y129002000D03*
G04 #@! TD*
G04 #@! TO.C,KiKit_MB_8_2*
X-62739400Y51002000D03*
G04 #@! TD*
D12*
G04 #@! TO.C,J2*
X-67760000Y74362000D03*
D13*
X-67760000Y76902000D03*
X-65220000Y74362000D03*
X-65220000Y76902000D03*
X-62680000Y74362000D03*
X-62680000Y76902000D03*
X-60140000Y74362000D03*
X-60140000Y76902000D03*
X-57600000Y74362000D03*
X-57600000Y76902000D03*
X-55060000Y74362000D03*
X-55060000Y76902000D03*
X-52520000Y74362000D03*
X-52520000Y76902000D03*
X-49980000Y74362000D03*
X-49980000Y76902000D03*
X-47440000Y74362000D03*
X-47440000Y76902000D03*
X-44900000Y74362000D03*
X-44900000Y76902000D03*
X-42360000Y74362000D03*
X-42360000Y76902000D03*
X-39820000Y74362000D03*
X-39820000Y76902000D03*
X-37280000Y74362000D03*
X-37280000Y76902000D03*
X-34740000Y74362000D03*
X-34740000Y76902000D03*
X-32200000Y74362000D03*
X-32200000Y76902000D03*
X-29660000Y74362000D03*
X-29660000Y76902000D03*
X-27120000Y74362000D03*
X-27120000Y76902000D03*
X-24580000Y74362000D03*
X-24580000Y76902000D03*
X-22040000Y74362000D03*
X-22040000Y76902000D03*
X-19500000Y74362000D03*
X-19500000Y76902000D03*
X-16960000Y74362000D03*
X-16960000Y76902000D03*
X-14420000Y74362000D03*
X-14420000Y76902000D03*
X-11880000Y74362000D03*
X-11880000Y76902000D03*
X-9340000Y74362000D03*
X-9340000Y76902000D03*
X-6800000Y74362000D03*
X-6800000Y76902000D03*
G04 #@! TD*
D11*
G04 #@! TO.C,KiKit_MB_12_1*
X-61899000Y7002000D03*
G04 #@! TD*
D14*
G04 #@! TO.C,H4*
X-4000000Y99002000D03*
G04 #@! TD*
G04 #@! TO.C,H4*
X-4000000Y11002000D03*
G04 #@! TD*
D11*
G04 #@! TO.C,KiKit_MB_3_6*
X-8899001Y129002000D03*
G04 #@! TD*
G04 #@! TO.C,KiKit_MB_10_3*
X-64420199Y41002000D03*
G04 #@! TD*
G04 #@! TO.C,KiKit_MB_11_2*
X-12260600Y41002000D03*
G04 #@! TD*
G04 #@! TO.C,KiKit_MB_12_3*
X-63579800Y7002000D03*
G04 #@! TD*
G04 #@! TO.C,KiKit_MB_1_5*
X-12260600Y95002000D03*
G04 #@! TD*
G04 #@! TO.C,KiKit_MB_4_3*
X-63579800Y95002000D03*
G04 #@! TD*
G04 #@! TO.C,KiKit_MB_5_1*
X-8899001Y51002000D03*
G04 #@! TD*
D20*
G04 #@! TO.C,KiKit_FID_B_2*
X-2500000Y133503500D03*
G04 #@! TD*
G04 #@! TO.C,KiKit_FID_B_3*
X-72500000Y2500000D03*
G04 #@! TD*
G04 #@! TO.C,KiKit_FID_B_1*
X-72500000Y133503500D03*
G04 #@! TD*
G36*
X-56961Y114532315D02*
G01*
X-11206Y114479511D01*
X0Y114428000D01*
X0Y105476000D01*
X-19685Y105408961D01*
X-72489Y105363206D01*
X-124000Y105352000D01*
X-2376000Y105352000D01*
X-2443039Y105371685D01*
X-2488794Y105424489D01*
X-2500000Y105476000D01*
X-2500000Y114428000D01*
X-2480315Y114495039D01*
X-2427511Y114540794D01*
X-2376000Y114552000D01*
X-124000Y114552000D01*
X-56961Y114532315D01*
G37*
G36*
X-56961Y70532315D02*
G01*
X-11206Y70479511D01*
X0Y70428000D01*
X0Y61476000D01*
X-19685Y61408961D01*
X-72489Y61363206D01*
X-124000Y61352000D01*
X-2376000Y61352000D01*
X-2443039Y61371685D01*
X-2488794Y61424489D01*
X-2500000Y61476000D01*
X-2500000Y70428000D01*
X-2480315Y70495039D01*
X-2427511Y70540794D01*
X-2376000Y70552000D01*
X-124000Y70552000D01*
X-56961Y70532315D01*
G37*
G36*
X-56961Y26532315D02*
G01*
X-11206Y26479511D01*
X0Y26428000D01*
X0Y17476000D01*
X-19685Y17408961D01*
X-72489Y17363206D01*
X-124000Y17352000D01*
X-2376000Y17352000D01*
X-2443039Y17371685D01*
X-2488794Y17424489D01*
X-2500000Y17476000D01*
X-2500000Y26428000D01*
X-2480315Y26495039D01*
X-2427511Y26540794D01*
X-2376000Y26552000D01*
X-124000Y26552000D01*
X-56961Y26532315D01*
G37*
%LPD*%
M02*
