G04 #@! TF.GenerationSoftware,KiCad,Pcbnew,8.0.6*
G04 #@! TF.CreationDate,2024-11-07T02:27:38-08:00*
G04 #@! TF.ProjectId,mse-68-hd,6d73652d-3638-42d6-9864-2e6b69636164,1*
G04 #@! TF.SameCoordinates,Original*
G04 #@! TF.FileFunction,Copper,L1,Top*
G04 #@! TF.FilePolarity,Positive*
%FSLAX46Y46*%
G04 Gerber Fmt 4.6, Leading zero omitted, Abs format (unit mm)*
G04 Created by KiCad (PCBNEW 8.0.6) date 2024-11-07 02:27:38*
%MOMM*%
%LPD*%
G01*
G04 APERTURE LIST*
G04 Aperture macros list*
%AMRoundRect*
0 Rectangle with rounded corners*
0 $1 Rounding radius*
0 $2 $3 $4 $5 $6 $7 $8 $9 X,Y pos of 4 corners*
0 Add a 4 corners polygon primitive as box body*
4,1,4,$2,$3,$4,$5,$6,$7,$8,$9,$2,$3,0*
0 Add four circle primitives for the rounded corners*
1,1,$1+$1,$2,$3*
1,1,$1+$1,$4,$5*
1,1,$1+$1,$6,$7*
1,1,$1+$1,$8,$9*
0 Add four rect primitives between the rounded corners*
20,1,$1+$1,$2,$3,$4,$5,0*
20,1,$1+$1,$4,$5,$6,$7,0*
20,1,$1+$1,$6,$7,$8,$9,0*
20,1,$1+$1,$8,$9,$2,$3,0*%
G04 Aperture macros list end*
%ADD10C,0.300000*%
G04 #@! TA.AperFunction,NonConductor*
%ADD11C,0.300000*%
G04 #@! TD*
G04 #@! TA.AperFunction,SMDPad,CuDef*
%ADD12RoundRect,0.100000X0.100000X0.900000X-0.100000X0.900000X-0.100000X-0.900000X0.100000X-0.900000X0*%
G04 #@! TD*
G04 #@! TA.AperFunction,SMDPad,CuDef*
%ADD13RoundRect,0.200000X0.200000X-0.250000X0.200000X0.250000X-0.200000X0.250000X-0.200000X-0.250000X0*%
G04 #@! TD*
G04 #@! TA.AperFunction,SMDPad,CuDef*
%ADD14RoundRect,0.200000X-0.200000X0.250000X-0.200000X-0.250000X0.200000X-0.250000X0.200000X0.250000X0*%
G04 #@! TD*
G04 #@! TA.AperFunction,SMDPad,CuDef*
%ADD15RoundRect,0.200000X-0.250000X-0.200000X0.250000X-0.200000X0.250000X0.200000X-0.250000X0.200000X0*%
G04 #@! TD*
G04 #@! TA.AperFunction,ComponentPad*
%ADD16C,1.200000*%
G04 #@! TD*
G04 #@! TA.AperFunction,ComponentPad*
%ADD17C,4.100000*%
G04 #@! TD*
G04 #@! TA.AperFunction,ComponentPad*
%ADD18C,6.400000*%
G04 #@! TD*
G04 #@! TA.AperFunction,SMDPad,CuDef*
%ADD19RoundRect,0.046875X0.103125X-0.253125X0.103125X0.253125X-0.103125X0.253125X-0.103125X-0.253125X0*%
G04 #@! TD*
G04 #@! TA.AperFunction,SMDPad,CuDef*
%ADD20RoundRect,0.250000X0.550000X-0.550000X0.550000X0.550000X-0.550000X0.550000X-0.550000X-0.550000X0*%
G04 #@! TD*
G04 #@! TA.AperFunction,ComponentPad*
%ADD21C,1.850000*%
G04 #@! TD*
G04 #@! TA.AperFunction,SMDPad,CuDef*
%ADD22RoundRect,0.200000X0.250000X0.200000X-0.250000X0.200000X-0.250000X-0.200000X0.250000X-0.200000X0*%
G04 #@! TD*
G04 #@! TA.AperFunction,ViaPad*
%ADD23C,0.450000*%
G04 #@! TD*
G04 #@! TA.AperFunction,Conductor*
%ADD24C,0.200000*%
G04 #@! TD*
G04 #@! TA.AperFunction,Conductor*
%ADD25C,0.300000*%
G04 #@! TD*
G04 #@! TA.AperFunction,Conductor*
%ADD26C,0.151400*%
G04 #@! TD*
G04 #@! TA.AperFunction,Conductor*
%ADD27C,0.400000*%
G04 #@! TD*
G04 APERTURE END LIST*
D10*
D11*
X-499172Y13678573D02*
X-499172Y12821430D01*
X-499172Y13250001D02*
X-1999172Y13250001D01*
X-1999172Y13250001D02*
X-1784886Y13107144D01*
X-1784886Y13107144D02*
X-1642029Y12964287D01*
X-1642029Y12964287D02*
X-1570600Y12821430D01*
D12*
G04 #@! TO.P,J1,1,Pin_1*
G04 #@! TO.N,GND*
X-57100000Y1800000D03*
G04 #@! TO.P,J1,2,Pin_2*
X-57100000Y6200000D03*
G04 #@! TO.P,J1,3,Pin_3*
G04 #@! TO.N,+3V3*
X-56300000Y1800001D03*
G04 #@! TO.P,J1,4,Pin_4*
G04 #@! TO.N,/PHY.ID_SDA*
X-56300000Y6199999D03*
G04 #@! TO.P,J1,5,Pin_5*
G04 #@! TO.N,unconnected-(J1-Pin_5-Pad5)*
X-55500000Y1800000D03*
G04 #@! TO.P,J1,6,Pin_6*
G04 #@! TO.N,/PHY.ID_SCL*
X-55500000Y6200000D03*
G04 #@! TO.P,J1,7,Pin_7*
G04 #@! TO.N,GND*
X-54700001Y1800000D03*
G04 #@! TO.P,J1,8,Pin_8*
X-54700001Y6200000D03*
G04 #@! TO.P,J1,9,Pin_9*
X-53900000Y1800000D03*
G04 #@! TO.P,J1,10,Pin_10*
X-53900000Y6200000D03*
G04 #@! TO.P,J1,11,Pin_11*
G04 #@! TO.N,/CON.DB12+*
X-53100000Y1800000D03*
G04 #@! TO.P,J1,12,Pin_12*
G04 #@! TO.N,/CON.DB12-*
X-53100000Y6200000D03*
G04 #@! TO.P,J1,13,Pin_13*
G04 #@! TO.N,/CON.DB13+*
X-52299999Y1800000D03*
G04 #@! TO.P,J1,14,Pin_14*
G04 #@! TO.N,/CON.DB13-*
X-52299999Y6200000D03*
G04 #@! TO.P,J1,15,Pin_15*
G04 #@! TO.N,GND*
X-51500000Y1800000D03*
G04 #@! TO.P,J1,16,Pin_16*
X-51500000Y6200000D03*
G04 #@! TO.P,J1,17,Pin_17*
G04 #@! TO.N,/CON.DB14+*
X-50700000Y1800001D03*
G04 #@! TO.P,J1,18,Pin_18*
G04 #@! TO.N,/CON.DB14-*
X-50700000Y6199999D03*
G04 #@! TO.P,J1,19,Pin_19*
G04 #@! TO.N,/CON.DB15+*
X-49900000Y1800000D03*
G04 #@! TO.P,J1,20,Pin_20*
G04 #@! TO.N,/CON.DB15-*
X-49900000Y6200000D03*
G04 #@! TO.P,J1,21,Pin_21*
G04 #@! TO.N,GND*
X-49100000Y1800000D03*
G04 #@! TO.P,J1,22,Pin_22*
X-49100000Y6200000D03*
G04 #@! TO.P,J1,23,Pin_23*
G04 #@! TO.N,/CON.DP1+*
X-48300000Y1800000D03*
G04 #@! TO.P,J1,24,Pin_24*
G04 #@! TO.N,/CON.DP1-*
X-48300000Y6200000D03*
G04 #@! TO.P,J1,25,Pin_25*
G04 #@! TO.N,/CON.DB0+*
X-47500000Y1800000D03*
G04 #@! TO.P,J1,26,Pin_26*
G04 #@! TO.N,/CON.DB0-*
X-47500000Y6200000D03*
G04 #@! TO.P,J1,27,Pin_27*
G04 #@! TO.N,GND*
X-46699999Y1800000D03*
G04 #@! TO.P,J1,28,Pin_28*
X-46699999Y6200000D03*
G04 #@! TO.P,J1,29,Pin_29*
G04 #@! TO.N,/CON.DB1+*
X-45900000Y1800000D03*
G04 #@! TO.P,J1,30,Pin_30*
G04 #@! TO.N,/CON.DB1-*
X-45900000Y6200000D03*
G04 #@! TO.P,J1,31,Pin_31*
G04 #@! TO.N,/CON.DB2+*
X-45100000Y1800001D03*
G04 #@! TO.P,J1,32,Pin_32*
G04 #@! TO.N,/CON.DB2-*
X-45100000Y6199999D03*
G04 #@! TO.P,J1,33,Pin_33*
G04 #@! TO.N,GND*
X-44300000Y1800000D03*
G04 #@! TO.P,J1,34,Pin_34*
X-44300000Y6200000D03*
G04 #@! TO.P,J1,35,Pin_35*
G04 #@! TO.N,/CON.DB3+*
X-43500000Y1800000D03*
G04 #@! TO.P,J1,36,Pin_36*
G04 #@! TO.N,/CON.DB3-*
X-43500000Y6200000D03*
G04 #@! TO.P,J1,37,Pin_37*
G04 #@! TO.N,/CON.DB4+*
X-42700000Y1800000D03*
G04 #@! TO.P,J1,38,Pin_38*
G04 #@! TO.N,/CON.DB4-*
X-42700000Y6200000D03*
G04 #@! TO.P,J1,39,Pin_39*
G04 #@! TO.N,GND*
X-41900000Y1800000D03*
G04 #@! TO.P,J1,40,Pin_40*
X-41900000Y6200000D03*
G04 #@! TO.P,J1,41,Pin_41*
G04 #@! TO.N,/CON.DB5+*
X-41099999Y1800000D03*
G04 #@! TO.P,J1,42,Pin_42*
G04 #@! TO.N,/CON.DB5-*
X-41099999Y6200000D03*
G04 #@! TO.P,J1,43,Pin_43*
G04 #@! TO.N,/CON.DB6+*
X-40300000Y1800000D03*
G04 #@! TO.P,J1,44,Pin_44*
G04 #@! TO.N,/CON.DB6-*
X-40300000Y6200000D03*
G04 #@! TO.P,J1,45,Pin_45*
G04 #@! TO.N,GND*
X-39500000Y1800001D03*
G04 #@! TO.P,J1,46,Pin_46*
X-39500000Y6199999D03*
G04 #@! TO.P,J1,47,Pin_47*
G04 #@! TO.N,/CON.DB7+*
X-38700000Y1800000D03*
G04 #@! TO.P,J1,48,Pin_48*
G04 #@! TO.N,/CON.DB7-*
X-38700000Y6200000D03*
G04 #@! TO.P,J1,49,Pin_49*
G04 #@! TO.N,/CON.DP0+*
X-37900000Y1800000D03*
G04 #@! TO.P,J1,50,Pin_50*
G04 #@! TO.N,/CON.DP0-*
X-37900000Y6200000D03*
G04 #@! TO.P,J1,51,Pin_51*
G04 #@! TO.N,GND*
X-37100000Y1800000D03*
G04 #@! TO.P,J1,52,Pin_52*
X-37100000Y6200000D03*
G04 #@! TO.P,J1,53,Pin_53*
G04 #@! TO.N,/CON.DIFFSENSE*
X-36300000Y1800000D03*
G04 #@! TO.P,J1,54,Pin_54*
G04 #@! TO.N,unconnected-(J1-Pin_54-Pad54)*
X-36300000Y6200000D03*
G04 #@! TO.P,J1,55,Pin_55*
G04 #@! TO.N,/CON.TERMPWR*
X-35500000Y1800001D03*
G04 #@! TO.P,J1,56,Pin_56*
X-35500000Y6199999D03*
G04 #@! TO.P,J1,57,Pin_57*
X-34700000Y1800000D03*
G04 #@! TO.P,J1,58,Pin_58*
X-34700000Y6200000D03*
G04 #@! TO.P,J1,59,Pin_59*
G04 #@! TO.N,GND*
X-33900001Y1800000D03*
G04 #@! TO.P,J1,60,Pin_60*
X-33900001Y6200000D03*
G04 #@! TO.P,J1,61,Pin_61*
G04 #@! TO.N,/CON.ATN+*
X-33100000Y1800000D03*
G04 #@! TO.P,J1,62,Pin_62*
G04 #@! TO.N,/CON.ATN-*
X-33100000Y6200000D03*
G04 #@! TO.P,J1,63,Pin_63*
G04 #@! TO.N,GND*
X-32300000Y1800000D03*
G04 #@! TO.P,J1,64,Pin_64*
X-32300000Y6200000D03*
G04 #@! TO.P,J1,65,Pin_65*
G04 #@! TO.N,/CON.BSY+*
X-31500000Y1800000D03*
G04 #@! TO.P,J1,66,Pin_66*
G04 #@! TO.N,/CON.BSY-*
X-31500000Y6200000D03*
G04 #@! TO.P,J1,67,Pin_67*
G04 #@! TO.N,/CON.ACK+*
X-30700000Y1800000D03*
G04 #@! TO.P,J1,68,Pin_68*
G04 #@! TO.N,/CON.ACK-*
X-30700000Y6200000D03*
G04 #@! TO.P,J1,69,Pin_69*
G04 #@! TO.N,GND*
X-29900000Y1800001D03*
G04 #@! TO.P,J1,70,Pin_70*
X-29900000Y6199999D03*
G04 #@! TO.P,J1,71,Pin_71*
G04 #@! TO.N,/CON.RST+*
X-29100000Y1800000D03*
G04 #@! TO.P,J1,72,Pin_72*
G04 #@! TO.N,/CON.RST-*
X-29100000Y6200000D03*
G04 #@! TO.P,J1,73,Pin_73*
G04 #@! TO.N,/CON.MSG+*
X-28300001Y1800000D03*
G04 #@! TO.P,J1,74,Pin_74*
G04 #@! TO.N,/CON.MSG-*
X-28300001Y6200000D03*
G04 #@! TO.P,J1,75,Pin_75*
G04 #@! TO.N,GND*
X-27500000Y1800000D03*
G04 #@! TO.P,J1,76,Pin_76*
X-27500000Y6200000D03*
G04 #@! TO.P,J1,77,Pin_77*
G04 #@! TO.N,/CON.SEL+*
X-26700000Y1800000D03*
G04 #@! TO.P,J1,78,Pin_78*
G04 #@! TO.N,/CON.SEL-*
X-26700000Y6200000D03*
G04 #@! TO.P,J1,79,Pin_79*
G04 #@! TO.N,/CON.C{slash}D+*
X-25900000Y1800000D03*
G04 #@! TO.P,J1,80,Pin_80*
G04 #@! TO.N,/CON.C{slash}D-*
X-25900000Y6200000D03*
G04 #@! TO.P,J1,81,Pin_81*
G04 #@! TO.N,GND*
X-25100000Y1800000D03*
G04 #@! TO.P,J1,82,Pin_82*
X-25100000Y6200000D03*
G04 #@! TO.P,J1,83,Pin_83*
G04 #@! TO.N,/CON.REQ+*
X-24300000Y1800001D03*
G04 #@! TO.P,J1,84,Pin_84*
G04 #@! TO.N,/CON.REQ-*
X-24300000Y6199999D03*
G04 #@! TO.P,J1,85,Pin_85*
G04 #@! TO.N,/CON.I{slash}O+*
X-23500000Y1800000D03*
G04 #@! TO.P,J1,86,Pin_86*
G04 #@! TO.N,/CON.I{slash}O-*
X-23500000Y6200000D03*
G04 #@! TO.P,J1,87,Pin_87*
G04 #@! TO.N,GND*
X-22700001Y1800000D03*
G04 #@! TO.P,J1,88,Pin_88*
X-22700001Y6200000D03*
G04 #@! TO.P,J1,89,Pin_89*
G04 #@! TO.N,/CON.DB8+*
X-21900000Y1800000D03*
G04 #@! TO.P,J1,90,Pin_90*
G04 #@! TO.N,/CON.DB8-*
X-21900000Y6200000D03*
G04 #@! TO.P,J1,91,Pin_91*
G04 #@! TO.N,/CON.DB9+*
X-21100000Y1800000D03*
G04 #@! TO.P,J1,92,Pin_92*
G04 #@! TO.N,/CON.DB9-*
X-21100000Y6200000D03*
G04 #@! TO.P,J1,93,Pin_93*
G04 #@! TO.N,GND*
X-20299999Y1800000D03*
G04 #@! TO.P,J1,94,Pin_94*
X-20299999Y6200000D03*
G04 #@! TO.P,J1,95,Pin_95*
G04 #@! TO.N,/CON.DB10+*
X-19500000Y1800000D03*
G04 #@! TO.P,J1,96,Pin_96*
G04 #@! TO.N,/CON.DB10-*
X-19500000Y6200000D03*
G04 #@! TO.P,J1,97,Pin_97*
G04 #@! TO.N,/CON.DB11+*
X-18700000Y1800001D03*
G04 #@! TO.P,J1,98,Pin_98*
G04 #@! TO.N,/CON.DB11-*
X-18700000Y6199999D03*
G04 #@! TO.P,J1,99,Pin_99*
G04 #@! TO.N,GND*
X-17900000Y1800000D03*
G04 #@! TO.P,J1,100,Pin_100*
X-17900000Y6200000D03*
G04 #@! TD*
D13*
G04 #@! TO.P,R3,1*
G04 #@! TO.N,+3V3*
X-67200000Y10450000D03*
G04 #@! TO.P,R3,2*
G04 #@! TO.N,/PHY.ID_SCL*
X-67200000Y12150000D03*
G04 #@! TD*
D14*
G04 #@! TO.P,R2,1*
G04 #@! TO.N,+3V3*
X-67200000Y16450000D03*
G04 #@! TO.P,R2,2*
G04 #@! TO.N,/PHY.ID_SDA*
X-67200000Y14750000D03*
G04 #@! TD*
D15*
G04 #@! TO.P,R4,1*
G04 #@! TO.N,/SHIELD*
X-3350000Y27750000D03*
G04 #@! TO.P,R4,2*
G04 #@! TO.N,GND*
X-1650000Y27750000D03*
G04 #@! TD*
D16*
G04 #@! TO.P,J4,1,Pin_1*
G04 #@! TO.N,/CON.DB12+*
X-58550000Y26484001D03*
G04 #@! TO.P,J4,2,Pin_2*
G04 #@! TO.N,/CON.DB13+*
X-57280000Y24579000D03*
G04 #@! TO.P,J4,3,Pin_3*
G04 #@! TO.N,/CON.DB14+*
X-56010000Y26484001D03*
G04 #@! TO.P,J4,4,Pin_4*
G04 #@! TO.N,/CON.DB15+*
X-54739999Y24579000D03*
G04 #@! TO.P,J4,5,Pin_5*
G04 #@! TO.N,/CON.DP1+*
X-53470000Y26484001D03*
G04 #@! TO.P,J4,6,Pin_6*
G04 #@! TO.N,/CON.DB0+*
X-52199999Y24579000D03*
G04 #@! TO.P,J4,7,Pin_7*
G04 #@! TO.N,/CON.DB1+*
X-50930000Y26484000D03*
G04 #@! TO.P,J4,8,Pin_8*
G04 #@! TO.N,/CON.DB2+*
X-49659999Y24579000D03*
G04 #@! TO.P,J4,9,Pin_9*
G04 #@! TO.N,/CON.DB3+*
X-48390000Y26484001D03*
G04 #@! TO.P,J4,10,Pin_10*
G04 #@! TO.N,/CON.DB4+*
X-47119999Y24579000D03*
G04 #@! TO.P,J4,11,Pin_11*
G04 #@! TO.N,/CON.DB5+*
X-45850000Y26484001D03*
G04 #@! TO.P,J4,12,Pin_12*
G04 #@! TO.N,/CON.DB6+*
X-44579998Y24579000D03*
G04 #@! TO.P,J4,13,Pin_13*
G04 #@! TO.N,/CON.DB7+*
X-43310000Y26484001D03*
G04 #@! TO.P,J4,14,Pin_14*
G04 #@! TO.N,/CON.DP0+*
X-42039999Y24579000D03*
G04 #@! TO.P,J4,15,Pin_15*
G04 #@! TO.N,GND*
X-40770000Y26484000D03*
G04 #@! TO.P,J4,16,Pin_16*
G04 #@! TO.N,/CON.DIFFSENSE*
X-39499999Y24579000D03*
G04 #@! TO.P,J4,17,Pin_17*
G04 #@! TO.N,/CON.TERMPWR*
X-38230000Y26484000D03*
G04 #@! TO.P,J4,18,Pin_18*
X-36959999Y24579000D03*
G04 #@! TO.P,J4,19,Pin_19*
G04 #@! TO.N,unconnected-(J4-Pin_19-Pad19)*
X-35690000Y26484001D03*
G04 #@! TO.P,J4,20,Pin_20*
G04 #@! TO.N,GND*
X-34420000Y24579000D03*
G04 #@! TO.P,J4,21,Pin_21*
G04 #@! TO.N,/CON.ATN+*
X-33150000Y26484001D03*
G04 #@! TO.P,J4,22,Pin_22*
G04 #@! TO.N,GND*
X-31879999Y24579000D03*
G04 #@! TO.P,J4,23,Pin_23*
G04 #@! TO.N,/CON.BSY+*
X-30610000Y26484001D03*
G04 #@! TO.P,J4,24,Pin_24*
G04 #@! TO.N,/CON.ACK+*
X-29339999Y24579000D03*
G04 #@! TO.P,J4,25,Pin_25*
G04 #@! TO.N,/CON.RST+*
X-28070000Y26484000D03*
G04 #@! TO.P,J4,26,Pin_26*
G04 #@! TO.N,/CON.MSG+*
X-26799999Y24579000D03*
G04 #@! TO.P,J4,27,Pin_27*
G04 #@! TO.N,/CON.SEL+*
X-25530000Y26484001D03*
G04 #@! TO.P,J4,28,Pin_28*
G04 #@! TO.N,/CON.C{slash}D+*
X-24259999Y24579000D03*
G04 #@! TO.P,J4,29,Pin_29*
G04 #@! TO.N,/CON.REQ+*
X-22990000Y26484001D03*
G04 #@! TO.P,J4,30,Pin_30*
G04 #@! TO.N,/CON.I{slash}O+*
X-21719998Y24579000D03*
G04 #@! TO.P,J4,31,Pin_31*
G04 #@! TO.N,/CON.DB8+*
X-20450000Y26484001D03*
G04 #@! TO.P,J4,32,Pin_32*
G04 #@! TO.N,/CON.DB9+*
X-19179999Y24579000D03*
G04 #@! TO.P,J4,33,Pin_33*
G04 #@! TO.N,/CON.DB10+*
X-17910000Y26484000D03*
G04 #@! TO.P,J4,34,Pin_34*
G04 #@! TO.N,/CON.DB11+*
X-16639999Y24579000D03*
G04 #@! TO.P,J4,35,Pin_35*
G04 #@! TO.N,/CON.DB12-*
X-58550000Y30294000D03*
G04 #@! TO.P,J4,36,Pin_36*
G04 #@! TO.N,/CON.DB13-*
X-57280000Y28389000D03*
G04 #@! TO.P,J4,37,Pin_37*
G04 #@! TO.N,/CON.DB14-*
X-56010000Y30294000D03*
G04 #@! TO.P,J4,38,Pin_38*
G04 #@! TO.N,/CON.DB15-*
X-54740000Y28389000D03*
G04 #@! TO.P,J4,39,Pin_39*
G04 #@! TO.N,/CON.DP1-*
X-53470000Y30294000D03*
G04 #@! TO.P,J4,40,Pin_40*
G04 #@! TO.N,/CON.DB0-*
X-52200000Y28389000D03*
G04 #@! TO.P,J4,41,Pin_41*
G04 #@! TO.N,/CON.DB1-*
X-50930000Y30294000D03*
G04 #@! TO.P,J4,42,Pin_42*
G04 #@! TO.N,/CON.DB2-*
X-49660000Y28389000D03*
G04 #@! TO.P,J4,43,Pin_43*
G04 #@! TO.N,/CON.DB3-*
X-48390000Y30294000D03*
G04 #@! TO.P,J4,44,Pin_44*
G04 #@! TO.N,/CON.DB4-*
X-47120000Y28389000D03*
G04 #@! TO.P,J4,45,Pin_45*
G04 #@! TO.N,/CON.DB5-*
X-45850000Y30294000D03*
G04 #@! TO.P,J4,46,Pin_46*
G04 #@! TO.N,/CON.DB6-*
X-44580000Y28389000D03*
G04 #@! TO.P,J4,47,Pin_47*
G04 #@! TO.N,/CON.DB7-*
X-43310000Y30294000D03*
G04 #@! TO.P,J4,48,Pin_48*
G04 #@! TO.N,/CON.DP0-*
X-42040000Y28389000D03*
G04 #@! TO.P,J4,49,Pin_49*
G04 #@! TO.N,GND*
X-40770000Y30294000D03*
G04 #@! TO.P,J4,50,Pin_50*
X-39500000Y28389000D03*
G04 #@! TO.P,J4,51,Pin_51*
G04 #@! TO.N,/CON.TERMPWR*
X-38230000Y30294000D03*
G04 #@! TO.P,J4,52,Pin_52*
X-36960000Y28389000D03*
G04 #@! TO.P,J4,53,Pin_53*
G04 #@! TO.N,unconnected-(J4-Pin_53-Pad53)*
X-35690000Y30294000D03*
G04 #@! TO.P,J4,54,Pin_54*
G04 #@! TO.N,GND*
X-34420000Y28389000D03*
G04 #@! TO.P,J4,55,Pin_55*
G04 #@! TO.N,/CON.ATN-*
X-33150000Y30294000D03*
G04 #@! TO.P,J4,56,Pin_56*
G04 #@! TO.N,GND*
X-31880000Y28389000D03*
G04 #@! TO.P,J4,57,Pin_57*
G04 #@! TO.N,/CON.BSY-*
X-30610000Y30294000D03*
G04 #@! TO.P,J4,58,Pin_58*
G04 #@! TO.N,/CON.ACK-*
X-29340000Y28389000D03*
G04 #@! TO.P,J4,59,Pin_59*
G04 #@! TO.N,/CON.RST-*
X-28070000Y30294000D03*
G04 #@! TO.P,J4,60,Pin_60*
G04 #@! TO.N,/CON.MSG-*
X-26800000Y28389000D03*
G04 #@! TO.P,J4,61,Pin_61*
G04 #@! TO.N,/CON.SEL-*
X-25530000Y30294000D03*
G04 #@! TO.P,J4,62,Pin_62*
G04 #@! TO.N,/CON.C{slash}D-*
X-24260000Y28389000D03*
G04 #@! TO.P,J4,63,Pin_63*
G04 #@! TO.N,/CON.REQ-*
X-22990000Y30294000D03*
G04 #@! TO.P,J4,64,Pin_64*
G04 #@! TO.N,/CON.I{slash}O-*
X-21720000Y28389000D03*
G04 #@! TO.P,J4,65,Pin_65*
G04 #@! TO.N,/CON.DB8-*
X-20450000Y30294000D03*
G04 #@! TO.P,J4,66,Pin_66*
G04 #@! TO.N,/CON.DB9-*
X-19180000Y28389000D03*
G04 #@! TO.P,J4,67,Pin_67*
G04 #@! TO.N,/CON.DB10-*
X-17910000Y30294000D03*
G04 #@! TO.P,J4,68,Pin_68*
G04 #@! TO.N,/CON.DB11-*
X-16640000Y28389000D03*
D17*
G04 #@! TO.P,J4,SHIELD,SHIELD*
G04 #@! TO.N,/SHIELD*
X-8639000Y28389000D03*
X-66550000Y28389000D03*
G04 #@! TD*
D13*
G04 #@! TO.P,C1,1*
G04 #@! TO.N,GND*
X-66050000Y3150000D03*
G04 #@! TO.P,C1,2*
G04 #@! TO.N,+3V3*
X-66050000Y4850000D03*
G04 #@! TD*
D18*
G04 #@! TO.P,H4,1,1*
G04 #@! TO.N,GND*
X-4000000Y4000000D03*
G04 #@! TD*
D13*
G04 #@! TO.P,R1,1*
G04 #@! TO.N,Net-(U1-E0)*
X-62150000Y3150000D03*
G04 #@! TO.P,R1,2*
G04 #@! TO.N,+3V3*
X-62150000Y4850000D03*
G04 #@! TD*
D19*
G04 #@! TO.P,U1,1,E0*
G04 #@! TO.N,Net-(U1-E0)*
X-64850001Y2600000D03*
G04 #@! TO.P,U1,2,E1*
X-64350000Y2600000D03*
G04 #@! TO.P,U1,3,E2*
G04 #@! TO.N,GND*
X-63850000Y2600000D03*
G04 #@! TO.P,U1,4,VSS*
X-63349999Y2600000D03*
G04 #@! TO.P,U1,5,SDA*
G04 #@! TO.N,/PHY.ID_SDA*
X-63349999Y5400000D03*
G04 #@! TO.P,U1,6,SCL*
G04 #@! TO.N,/PHY.ID_SCL*
X-63850000Y5400000D03*
G04 #@! TO.P,U1,7,~{WC}*
G04 #@! TO.N,GND*
X-64350000Y5400000D03*
G04 #@! TO.P,U1,8,VCC*
G04 #@! TO.N,+3V3*
X-64850001Y5400000D03*
D20*
G04 #@! TO.P,U1,EP,VSS*
G04 #@! TO.N,GND*
X-64100000Y4000000D03*
G04 #@! TD*
D21*
G04 #@! TO.P,J3,1,Pin_1*
G04 #@! TO.N,+3V3*
X-72440000Y16010000D03*
G04 #@! TO.P,J3,2,Pin_2*
G04 #@! TO.N,/PHY.ID_SDA*
X-69900000Y14740000D03*
G04 #@! TO.P,J3,3,Pin_3*
G04 #@! TO.N,GND*
X-72440000Y13470000D03*
G04 #@! TO.P,J3,4,Pin_4*
G04 #@! TO.N,/PHY.ID_SCL*
X-69900000Y12200000D03*
G04 #@! TD*
D22*
G04 #@! TO.P,C2,1*
G04 #@! TO.N,GND*
X-1650000Y29050000D03*
G04 #@! TO.P,C2,2*
G04 #@! TO.N,/SHIELD*
X-3350000Y29050000D03*
G04 #@! TD*
D18*
G04 #@! TO.P,H3,1,1*
G04 #@! TO.N,GND*
X-71000000Y4000000D03*
G04 #@! TD*
D23*
G04 #@! TO.N,GND*
X-20300000Y5400000D03*
X-22700000Y1800000D03*
X-49100000Y1800000D03*
X-53900000Y1000000D03*
X-29900000Y2600000D03*
X-39500000Y6200000D03*
X-53900000Y3200000D03*
X-39500000Y1800000D03*
X-44300000Y7000000D03*
X-49100000Y6200000D03*
X-64650000Y4000000D03*
X-46700000Y6200000D03*
X-51500000Y2600000D03*
X-27500000Y2600000D03*
X-39500000Y7000000D03*
X-32300000Y1800000D03*
X-53900000Y5400000D03*
X-20300000Y1800000D03*
X-53900000Y2600000D03*
X-37100000Y5400000D03*
X-44300000Y3200000D03*
X-63600000Y4000000D03*
X-25100000Y7000000D03*
X-39500000Y5400000D03*
X-51500000Y3200000D03*
X-33900000Y1000000D03*
X-29900000Y3200000D03*
X-41900000Y1000000D03*
X-22700000Y3200000D03*
X-64100000Y4500000D03*
X-33900000Y2600000D03*
X-49100000Y2600000D03*
X-33900000Y6200000D03*
X-51500000Y5400000D03*
X-44300000Y6200000D03*
X-27500000Y6200000D03*
X-39500000Y1000000D03*
X-25100000Y1800000D03*
X-41900000Y7000000D03*
X-53900000Y7000000D03*
X-41900000Y6200000D03*
X-27500000Y5400000D03*
X-54700000Y6200000D03*
X-29900000Y1000000D03*
X-20300000Y1000000D03*
X-53900000Y1800000D03*
X-51500000Y6200000D03*
X-20300000Y2600000D03*
X-32300000Y3200000D03*
X-22700000Y1000000D03*
X-44300000Y5400000D03*
X-33900000Y1800000D03*
X-32300000Y5400000D03*
X-20300000Y6200000D03*
X-37100000Y6200000D03*
X-25100000Y2600000D03*
X-37100000Y7000000D03*
X-39500000Y2600000D03*
X-25100000Y6200000D03*
X-17900000Y3200000D03*
X-33900000Y7000000D03*
X-51500000Y7000000D03*
X-54700000Y7000000D03*
X-29900000Y7000000D03*
X-44300000Y1800000D03*
X-22700000Y2600000D03*
X-46700000Y3200000D03*
X-17900000Y5400000D03*
X-41900000Y2600000D03*
X-17900000Y7000000D03*
X-25100000Y3200000D03*
X-44300000Y1000000D03*
X-32300000Y7000000D03*
X-51500000Y1800000D03*
X-54700000Y5400000D03*
X-22700000Y6200000D03*
X-57100000Y5400000D03*
X-37100000Y1800000D03*
X-46700000Y1000000D03*
X-25100000Y1000000D03*
X-32300000Y2600000D03*
X-44300000Y2600000D03*
X-46700000Y5400000D03*
X-54700000Y1800000D03*
X-22700000Y7000000D03*
X-46700000Y2600000D03*
X-20300000Y3200000D03*
X-37100000Y1000000D03*
X-37100000Y2600000D03*
X-51500000Y1000000D03*
X-33900000Y3200000D03*
X-17900000Y1000000D03*
X-20300000Y7000000D03*
X-57100000Y6200000D03*
X-32300000Y1000000D03*
X-49100000Y3200000D03*
X-33900000Y5400000D03*
X-46700000Y1800000D03*
X-29900000Y5400000D03*
X-27500000Y1800000D03*
X-27500000Y3200000D03*
X-41900000Y1800000D03*
X-53900000Y6200000D03*
X-41900000Y5400000D03*
X-29900000Y6200000D03*
X-49100000Y5400000D03*
X-37100000Y3200000D03*
X-54700000Y2600000D03*
X-49100000Y7000000D03*
X-49100000Y1000000D03*
X-39500000Y3200000D03*
X-41900000Y3200000D03*
X-46700000Y7000000D03*
X-29900000Y1800000D03*
X-25100000Y5400000D03*
X-64100000Y3500000D03*
X-32300000Y6200000D03*
X-17900000Y6200000D03*
X-27500000Y1000000D03*
X-57100000Y7000000D03*
X-22700000Y5400000D03*
X-17900000Y2600000D03*
X-54700000Y1000000D03*
X-17900000Y1800000D03*
X-27500000Y7000000D03*
X-66050000Y3150000D03*
G04 #@! TO.N,/PHY.ID_SCL*
X-67200000Y12150000D03*
X-63000000Y8500000D03*
G04 #@! TO.N,+3V3*
X-56300000Y1800000D03*
X-67200000Y16500000D03*
X-67200000Y10500000D03*
X-66050000Y4850000D03*
X-56300000Y1000000D03*
X-56300000Y2600000D03*
X-62150000Y4850000D03*
G04 #@! TO.N,/PHY.ID_SDA*
X-67200000Y14750000D03*
X-62400000Y7900000D03*
G04 #@! TO.N,/CON.C{slash}D+*
X-25900000Y3200000D03*
G04 #@! TO.N,/CON.ACK+*
X-30700000Y3200000D03*
G04 #@! TO.N,/CON.TERMPWR*
X-34700000Y2600000D03*
X-34700000Y1800000D03*
X-34700000Y6200000D03*
X-35500000Y1000000D03*
X-35500000Y5400000D03*
X-34700000Y5400000D03*
X-35500000Y7000000D03*
X-35500000Y1800000D03*
X-35500000Y6200000D03*
X-34700000Y1000000D03*
X-34700000Y7000000D03*
X-35500000Y2600000D03*
G04 #@! TO.N,/CON.DP1+*
X-48300000Y3200000D03*
G04 #@! TO.N,/CON.BSY+*
X-31500000Y3200000D03*
G04 #@! TO.N,/CON.DB5+*
X-41100000Y3200000D03*
G04 #@! TO.N,/CON.DP0+*
X-37900000Y3200000D03*
G04 #@! TO.N,/CON.SEL+*
X-26700000Y3200000D03*
G04 #@! TO.N,/CON.ATN+*
X-33100000Y3200000D03*
G04 #@! TO.N,/CON.DB9+*
X-21100000Y3200000D03*
G04 #@! TO.N,/CON.DB11+*
X-18700000Y3200000D03*
G04 #@! TO.N,/CON.DB7+*
X-38700000Y3200000D03*
G04 #@! TO.N,/CON.DB13+*
X-52300000Y3200000D03*
G04 #@! TO.N,/CON.REQ+*
X-24300000Y3200000D03*
G04 #@! TO.N,/CON.DB8+*
X-21900000Y3200000D03*
G04 #@! TO.N,/CON.MSG+*
X-28300000Y3200000D03*
G04 #@! TO.N,/CON.DB3+*
X-43500000Y3200000D03*
G04 #@! TO.N,/CON.DIFFSENSE*
X-36300000Y3200000D03*
G04 #@! TO.N,/CON.I{slash}O+*
X-23500000Y3200000D03*
G04 #@! TO.N,/CON.DB4+*
X-42700000Y3200000D03*
G04 #@! TO.N,/CON.DB15+*
X-49900000Y3200000D03*
G04 #@! TO.N,/CON.RST+*
X-29100000Y3200000D03*
G04 #@! TO.N,/CON.DB10+*
X-19500000Y3200000D03*
G04 #@! TO.N,/CON.DB6+*
X-40300000Y3200000D03*
G04 #@! TO.N,/CON.DB1+*
X-45900000Y3200000D03*
G04 #@! TO.N,/CON.DB2+*
X-45100000Y3200000D03*
G04 #@! TO.N,/CON.DB0+*
X-47500000Y3200000D03*
G04 #@! TO.N,/CON.DB14+*
X-50700000Y3200000D03*
G04 #@! TO.N,/CON.DB12+*
X-53100000Y3200000D03*
G04 #@! TD*
D24*
G04 #@! TO.N,/PHY.ID_SCL*
X-67600000Y12200000D02*
X-69900000Y12200000D01*
X-63850000Y5400000D02*
X-63850000Y7650000D01*
X-56500000Y8500000D02*
X-55500000Y7500000D01*
X-67200000Y12150000D02*
X-67550000Y12150000D01*
X-63000000Y8500000D02*
X-56500000Y8500000D01*
X-67550000Y12150000D02*
X-67600000Y12200000D01*
X-63850000Y7650000D02*
X-63000000Y8500000D01*
X-55500000Y7500000D02*
X-55500000Y6200000D01*
D25*
G04 #@! TO.N,+3V3*
X-64850001Y5400000D02*
X-65500000Y5400000D01*
X-65500000Y5400000D02*
X-66050000Y4850000D01*
D24*
G04 #@! TO.N,/PHY.ID_SDA*
X-62900000Y7900000D02*
X-63349999Y7450001D01*
X-56300000Y7500000D02*
X-56700000Y7900000D01*
X-63349999Y7450001D02*
X-63349999Y5400000D01*
X-67200000Y14750000D02*
X-69890000Y14750000D01*
X-62600000Y7900000D02*
X-62900000Y7900000D01*
X-69890000Y14750000D02*
X-69900000Y14740000D01*
X-56300000Y6199999D02*
X-56300000Y7500000D01*
X-56700000Y7900000D02*
X-62600000Y7900000D01*
D26*
G04 #@! TO.N,/CON.C{slash}D+*
X-25900000Y1800000D02*
X-25900000Y3200000D01*
G04 #@! TO.N,/CON.DB10-*
X-15600000Y15608234D02*
X-15600000Y20000000D01*
X-15840000Y12248234D02*
X-15989412Y12248234D01*
X-15989412Y15248234D02*
X-15840000Y15248234D01*
X-15600000Y11400000D02*
X-15600000Y12008234D01*
X-19500000Y6200000D02*
X-19500000Y7500000D01*
X-16800000Y26100000D02*
X-16800000Y27000000D01*
X-15989412Y14048234D02*
X-15840000Y14048234D01*
X-15600000Y24900000D02*
X-16800000Y26100000D01*
X-15600000Y14288234D02*
X-15600000Y14408234D01*
X-17910000Y28110000D02*
X-17910000Y30294000D01*
X-15840000Y14648234D02*
X-15989412Y14648234D01*
X-15840000Y13448234D02*
X-15989412Y13448234D01*
X-16229412Y14888234D02*
X-16229412Y15008234D01*
X-15600000Y20000000D02*
X-15600000Y24900000D01*
X-16800000Y27000000D02*
X-17910000Y28110000D01*
X-19500000Y7500000D02*
X-15600000Y11400000D01*
X-16229412Y13688234D02*
X-16229412Y13808234D01*
X-15600000Y13088234D02*
X-15600000Y13208234D01*
X-15600000Y15488234D02*
X-15600000Y15608234D01*
X-16229412Y12488234D02*
X-16229412Y12608234D01*
X-15989412Y12848234D02*
X-15840000Y12848234D01*
X-15600000Y13208234D02*
G75*
G03*
X-15840000Y13448200I-240000J-34D01*
G01*
X-15989412Y14648234D02*
G75*
G02*
X-16229366Y14888234I12J239966D01*
G01*
X-16229412Y12608234D02*
G75*
G02*
X-15989412Y12848212I240012J-34D01*
G01*
X-16229412Y13808234D02*
G75*
G02*
X-15989412Y14048212I240012J-34D01*
G01*
X-15840000Y12848234D02*
G75*
G03*
X-15600034Y13088234I0J239966D01*
G01*
X-15840000Y14048234D02*
G75*
G03*
X-15600034Y14288234I0J239966D01*
G01*
X-15989412Y12248234D02*
G75*
G02*
X-16229366Y12488234I12J239966D01*
G01*
X-15600000Y14408234D02*
G75*
G03*
X-15840000Y14648200I-240000J-34D01*
G01*
X-16229412Y15008234D02*
G75*
G02*
X-15989412Y15248212I240012J-34D01*
G01*
X-15989412Y13448234D02*
G75*
G02*
X-16229366Y13688234I12J239966D01*
G01*
X-15840000Y15248234D02*
G75*
G03*
X-15600034Y15488234I0J239966D01*
G01*
X-15600000Y12008234D02*
G75*
G03*
X-15840000Y12248200I-240000J-34D01*
G01*
G04 #@! TO.N,/CON.DB4-*
X-42700000Y7500000D02*
X-45700000Y10500000D01*
X-45460000Y15816082D02*
X-45215353Y15816082D01*
X-45700000Y10500000D02*
X-45700000Y11976082D01*
X-44975353Y13656082D02*
X-44975353Y13776082D01*
X-45215353Y14016082D02*
X-45460000Y14016082D01*
X-45460000Y13416082D02*
X-45215353Y13416082D01*
X-45215353Y16416082D02*
X-45460000Y16416082D01*
X-45700000Y16656082D02*
X-45700000Y16776082D01*
X-42700000Y6200000D02*
X-42700000Y7500000D01*
X-45215353Y15216082D02*
X-45460000Y15216082D01*
X-45700000Y14256082D02*
X-45700000Y14376082D01*
X-45215351Y17616082D02*
X-45460000Y17616082D01*
X-45700000Y15456082D02*
X-45700000Y15576082D01*
X-44975353Y14856082D02*
X-44975353Y14976082D01*
X-46900000Y26200000D02*
X-46900000Y27300000D01*
X-45700000Y13056082D02*
X-45700000Y13176082D01*
X-47120000Y27520000D02*
X-47120000Y28389000D01*
X-44975351Y17256082D02*
X-44975351Y17376082D01*
X-45700000Y17856082D02*
X-45700000Y17976082D01*
X-45460000Y12216082D02*
X-45215363Y12216082D01*
X-45700000Y20001613D02*
X-45700000Y25000000D01*
X-45460000Y14616082D02*
X-45215353Y14616082D01*
X-44975363Y12456082D02*
X-44975363Y12576082D01*
X-45700000Y17976082D02*
X-45700000Y20001613D01*
X-45215363Y12816082D02*
X-45460000Y12816082D01*
X-45460000Y17016082D02*
X-45215351Y17016082D01*
X-45700000Y25000000D02*
X-46900000Y26200000D01*
X-44975353Y16056082D02*
X-44975353Y16176082D01*
X-46900000Y27300000D02*
X-47120000Y27520000D01*
X-45215353Y14616082D02*
G75*
G03*
X-44975382Y14856082I-47J240018D01*
G01*
X-45700000Y16776082D02*
G75*
G02*
X-45460000Y17016100I240000J18D01*
G01*
X-45460000Y17616082D02*
G75*
G02*
X-45700018Y17856082I0J240018D01*
G01*
X-45215353Y13416082D02*
G75*
G03*
X-44975382Y13656082I-47J240018D01*
G01*
X-45700000Y13176082D02*
G75*
G02*
X-45460000Y13416100I240000J18D01*
G01*
X-45460000Y12816082D02*
G75*
G02*
X-45700018Y13056082I0J240018D01*
G01*
X-44975363Y12576082D02*
G75*
G03*
X-45215363Y12816137I-240037J18D01*
G01*
X-44975353Y14976082D02*
G75*
G03*
X-45215353Y15216147I-240047J18D01*
G01*
X-44975351Y17376082D02*
G75*
G03*
X-45215351Y17616049I-239949J18D01*
G01*
X-45215351Y17016082D02*
G75*
G03*
X-44975282Y17256082I51J240018D01*
G01*
X-45460000Y16416082D02*
G75*
G02*
X-45700018Y16656082I0J240018D01*
G01*
X-44975353Y16176082D02*
G75*
G03*
X-45215353Y16416147I-240047J18D01*
G01*
X-45700000Y11976082D02*
G75*
G02*
X-45460000Y12216100I240000J18D01*
G01*
X-45215353Y15816082D02*
G75*
G03*
X-44975382Y16056082I-47J240018D01*
G01*
X-45460000Y15216082D02*
G75*
G02*
X-45700018Y15456082I0J240018D01*
G01*
X-44975353Y13776082D02*
G75*
G03*
X-45215353Y14016147I-240047J18D01*
G01*
X-45460000Y14016082D02*
G75*
G02*
X-45700018Y14256082I0J240018D01*
G01*
X-45215363Y12216082D02*
G75*
G03*
X-44975382Y12456082I-37J240018D01*
G01*
X-45700000Y14376082D02*
G75*
G02*
X-45460000Y14616100I240000J18D01*
G01*
X-45700000Y15576082D02*
G75*
G02*
X-45460000Y15816100I240000J18D01*
G01*
G04 #@! TO.N,/CON.ACK+*
X-30700000Y1800000D02*
X-30700000Y3200000D01*
G04 #@! TO.N,/CON.DP1+*
X-48300000Y1800000D02*
X-48300000Y3200000D01*
G04 #@! TO.N,/CON.BSY-*
X-28300000Y10700000D02*
X-28300000Y11977864D01*
X-31500000Y7500000D02*
X-28300000Y10700000D01*
X-31500000Y6200000D02*
X-31500000Y7500000D01*
X-28540000Y13417864D02*
X-28737639Y13417864D01*
X-28977639Y12457864D02*
X-28977639Y12577864D01*
X-28540000Y14617864D02*
X-28737618Y14617864D01*
X-28737639Y14017864D02*
X-28540000Y14017864D01*
X-28300000Y24900000D02*
X-29500000Y26100000D01*
X-28300000Y15577864D02*
X-28300000Y20000000D01*
X-28300000Y14257864D02*
X-28300000Y14377864D01*
X-28737618Y15217864D02*
X-28540000Y15217864D01*
X-28300000Y13057864D02*
X-28300000Y13177864D01*
X-28977618Y14857864D02*
X-28977618Y14977864D01*
X-28300000Y15457864D02*
X-28300000Y15577864D01*
X-30610000Y28010000D02*
X-30610000Y30294000D01*
X-28977639Y13657864D02*
X-28977639Y13777864D01*
X-28300000Y20000000D02*
X-28300000Y24900000D01*
X-28540000Y12217864D02*
X-28737639Y12217864D01*
X-29500000Y26100000D02*
X-29500000Y26900000D01*
X-28737639Y12817864D02*
X-28540000Y12817864D01*
X-29500000Y26900000D02*
X-30610000Y28010000D01*
X-28540000Y15217864D02*
G75*
G03*
X-28299964Y15457864I0J240036D01*
G01*
X-28300000Y13177864D02*
G75*
G03*
X-28540000Y13417900I-240000J36D01*
G01*
X-28977618Y14977864D02*
G75*
G02*
X-28737618Y15217918I240018J36D01*
G01*
X-28977639Y13777864D02*
G75*
G02*
X-28737639Y14017939I240039J36D01*
G01*
X-28737639Y13417864D02*
G75*
G02*
X-28977636Y13657864I39J240036D01*
G01*
X-28300000Y11977864D02*
G75*
G03*
X-28540000Y12217900I-240000J36D01*
G01*
X-28300000Y14377864D02*
G75*
G03*
X-28540000Y14617900I-240000J36D01*
G01*
X-28540000Y12817864D02*
G75*
G03*
X-28299964Y13057864I0J240036D01*
G01*
X-28540000Y14017864D02*
G75*
G03*
X-28299964Y14257864I0J240036D01*
G01*
X-28737618Y14617864D02*
G75*
G02*
X-28977636Y14857864I18J240036D01*
G01*
X-28737639Y12217864D02*
G75*
G02*
X-28977636Y12457864I39J240036D01*
G01*
X-28977639Y12577864D02*
G75*
G02*
X-28737639Y12817939I240039J36D01*
G01*
G04 #@! TO.N,/CON.RST-*
X-25940000Y12217864D02*
X-26119662Y12217864D01*
X-26359662Y14857864D02*
X-26359662Y14977864D01*
X-26119662Y15217864D02*
X-25940000Y15217864D01*
X-26359682Y13657864D02*
X-26359682Y13777864D01*
X-25700000Y24800000D02*
X-27000000Y26100000D01*
X-27000000Y26100000D02*
X-27000000Y27000000D01*
X-26119682Y14017864D02*
X-25940000Y14017864D01*
X-29100000Y7500000D02*
X-25700000Y10900000D01*
X-25700000Y13057864D02*
X-25700000Y13177864D01*
X-25700000Y14257864D02*
X-25700000Y14377864D01*
X-28070000Y28070000D02*
X-28070000Y30294000D01*
X-25700000Y15577864D02*
X-25700000Y20020471D01*
X-25940000Y14617864D02*
X-26119662Y14617864D01*
X-26119662Y12817864D02*
X-25940000Y12817864D01*
X-29100000Y6200000D02*
X-29100000Y7500000D01*
X-25700000Y15457864D02*
X-25700000Y15577864D01*
X-25940000Y13417864D02*
X-26119682Y13417864D01*
X-25700000Y20020471D02*
X-25700000Y24800000D01*
X-26359662Y12457864D02*
X-26359662Y12577864D01*
X-25700000Y10900000D02*
X-25700000Y11977864D01*
X-27000000Y27000000D02*
X-28070000Y28070000D01*
X-25700000Y14377864D02*
G75*
G03*
X-25940000Y14617900I-240000J36D01*
G01*
X-25700000Y11977864D02*
G75*
G03*
X-25940000Y12217900I-240000J36D01*
G01*
X-26119662Y14617864D02*
G75*
G02*
X-26359736Y14857864I-38J240036D01*
G01*
X-26119662Y12217864D02*
G75*
G02*
X-26359736Y12457864I-38J240036D01*
G01*
X-26359662Y12577864D02*
G75*
G02*
X-26119662Y12817862I239962J36D01*
G01*
X-25940000Y14017864D02*
G75*
G03*
X-25699964Y14257864I0J240036D01*
G01*
X-26359682Y13777864D02*
G75*
G02*
X-26119682Y14017882I239982J36D01*
G01*
X-25940000Y15217864D02*
G75*
G03*
X-25699964Y15457864I0J240036D01*
G01*
X-26359662Y14977864D02*
G75*
G02*
X-26119662Y15217862I239962J36D01*
G01*
X-26119682Y13417864D02*
G75*
G02*
X-26359736Y13657864I-18J240036D01*
G01*
X-25940000Y12817864D02*
G75*
G03*
X-25699964Y13057864I0J240036D01*
G01*
X-25700000Y13177864D02*
G75*
G03*
X-25940000Y13417900I-240000J36D01*
G01*
G04 #@! TO.N,/CON.DB2-*
X-47481068Y13678533D02*
X-47481068Y13798533D01*
X-47960000Y12238533D02*
X-47721068Y12238533D01*
X-47960000Y13438533D02*
X-47721068Y13438533D01*
X-47960000Y17038533D02*
X-47721089Y17038533D01*
X-45100000Y7500000D02*
X-48200000Y10600000D01*
X-48200000Y10600000D02*
X-48200000Y11998533D01*
X-48200000Y13078533D02*
X-48200000Y13198533D01*
X-47721089Y15238533D02*
X-47960000Y15238533D01*
X-48200000Y17878533D02*
X-48200000Y17998533D01*
X-47481068Y12478533D02*
X-47481068Y12598533D01*
X-47481089Y17278533D02*
X-47481089Y17398533D01*
X-48200000Y20012601D02*
X-48200000Y24900000D01*
X-47481089Y14878533D02*
X-47481089Y14998533D01*
X-47721068Y16438533D02*
X-47960000Y16438533D01*
X-48200000Y14278533D02*
X-48200000Y14398533D01*
X-47960000Y14638533D02*
X-47721089Y14638533D01*
X-47481068Y16078533D02*
X-47481068Y16198533D01*
X-48200000Y24900000D02*
X-49400000Y26100000D01*
X-47721089Y17638533D02*
X-47960000Y17638533D01*
X-49660000Y27560000D02*
X-49660000Y28389000D01*
X-48200000Y15478533D02*
X-48200000Y15598533D01*
X-49400000Y27300000D02*
X-49660000Y27560000D01*
X-47721068Y14038533D02*
X-47960000Y14038533D01*
X-45100000Y6199999D02*
X-45100000Y7500000D01*
X-49400000Y26100000D02*
X-49400000Y27300000D01*
X-47960000Y15838533D02*
X-47721068Y15838533D01*
X-48200000Y17998533D02*
X-48200000Y20012601D01*
X-48200000Y16678533D02*
X-48200000Y16798533D01*
X-47721068Y12838533D02*
X-47960000Y12838533D01*
X-47481068Y16198533D02*
G75*
G03*
X-47721068Y16438532I-240032J-33D01*
G01*
X-47960000Y17638533D02*
G75*
G02*
X-48199967Y17878533I0J239967D01*
G01*
X-48200000Y13198533D02*
G75*
G02*
X-47960000Y13438500I240000J-33D01*
G01*
X-47481089Y14998533D02*
G75*
G03*
X-47721089Y15238511I-240011J-33D01*
G01*
X-47960000Y16438533D02*
G75*
G02*
X-48199967Y16678533I0J239967D01*
G01*
X-48200000Y14398533D02*
G75*
G02*
X-47960000Y14638500I240000J-33D01*
G01*
X-47721089Y17038533D02*
G75*
G03*
X-47481133Y17278533I-11J239967D01*
G01*
X-47481068Y12598533D02*
G75*
G03*
X-47721068Y12838532I-240032J-33D01*
G01*
X-47481089Y17398533D02*
G75*
G03*
X-47721089Y17638511I-240011J-33D01*
G01*
X-47960000Y14038533D02*
G75*
G02*
X-48199967Y14278533I0J239967D01*
G01*
X-47721089Y14638533D02*
G75*
G03*
X-47481133Y14878533I-11J239967D01*
G01*
X-47960000Y12838533D02*
G75*
G02*
X-48199967Y13078533I0J239967D01*
G01*
X-47960000Y15238533D02*
G75*
G02*
X-48199967Y15478533I0J239967D01*
G01*
X-48200000Y11998533D02*
G75*
G02*
X-47960000Y12238500I240000J-33D01*
G01*
X-47721068Y13438533D02*
G75*
G03*
X-47481133Y13678533I-32J239967D01*
G01*
X-47721068Y15838533D02*
G75*
G03*
X-47481133Y16078533I-32J239967D01*
G01*
X-47721068Y12238533D02*
G75*
G03*
X-47481133Y12478533I-32J239967D01*
G01*
X-47481068Y13798533D02*
G75*
G03*
X-47721068Y14038532I-240032J-33D01*
G01*
X-48200000Y15598533D02*
G75*
G02*
X-47960000Y15838500I240000J-33D01*
G01*
X-48200000Y16798533D02*
G75*
G02*
X-47960000Y17038500I240000J-33D01*
G01*
G04 #@! TO.N,/CON.BSY+*
X-31500000Y1800000D02*
X-31500000Y3200000D01*
G04 #@! TO.N,/CON.DB5+*
X-41099999Y3199999D02*
X-41100000Y3200000D01*
X-41099999Y1800000D02*
X-41099999Y3199999D01*
G04 #@! TO.N,/CON.ATN-*
X-31040000Y14617864D02*
X-31296993Y14617864D01*
X-30800000Y13057864D02*
X-30800000Y13177864D01*
X-33100000Y6200000D02*
X-33100000Y7500000D01*
X-33150000Y28050000D02*
X-33150000Y30294000D01*
X-31296993Y14017864D02*
X-31040000Y14017864D01*
X-31536993Y13657864D02*
X-31536993Y13777864D01*
X-30800000Y15457864D02*
X-30800000Y15577864D01*
X-33100000Y7500000D02*
X-30800000Y9800000D01*
X-31536993Y12457864D02*
X-31536993Y12577864D01*
X-30800000Y19952169D02*
X-30800000Y24900000D01*
X-31296993Y15217864D02*
X-31040000Y15217864D01*
X-32000000Y26100000D02*
X-32000000Y26900000D01*
X-31040000Y12217864D02*
X-31296993Y12217864D01*
X-31296993Y12817864D02*
X-31040000Y12817864D01*
X-30800000Y14257864D02*
X-30800000Y14377864D01*
X-31040000Y13417864D02*
X-31296993Y13417864D01*
X-30800000Y15577864D02*
X-30800000Y19952169D01*
X-31536993Y14857864D02*
X-31536993Y14977864D01*
X-30800000Y9800000D02*
X-30800000Y11977864D01*
X-32000000Y26900000D02*
X-33150000Y28050000D01*
X-30800000Y24900000D02*
X-32000000Y26100000D01*
X-31296993Y12217864D02*
G75*
G02*
X-31537036Y12457864I-7J240036D01*
G01*
X-30800000Y11977864D02*
G75*
G03*
X-31040000Y12217900I-240000J36D01*
G01*
X-31040000Y15217864D02*
G75*
G03*
X-30799964Y15457864I0J240036D01*
G01*
X-31536993Y12577864D02*
G75*
G02*
X-31296993Y12817893I239993J36D01*
G01*
X-31296993Y14617864D02*
G75*
G02*
X-31537036Y14857864I-7J240036D01*
G01*
X-31536993Y14977864D02*
G75*
G02*
X-31296993Y15217893I239993J36D01*
G01*
X-31040000Y12817864D02*
G75*
G03*
X-30799964Y13057864I0J240036D01*
G01*
X-31040000Y14017864D02*
G75*
G03*
X-30799964Y14257864I0J240036D01*
G01*
X-30800000Y14377864D02*
G75*
G03*
X-31040000Y14617900I-240000J36D01*
G01*
X-30800000Y13177864D02*
G75*
G03*
X-31040000Y13417900I-240000J36D01*
G01*
X-31536993Y13777864D02*
G75*
G02*
X-31296993Y14017893I239993J36D01*
G01*
X-31296993Y13417864D02*
G75*
G02*
X-31537036Y13657864I-7J240036D01*
G01*
G04 #@! TO.N,/CON.DP0+*
X-37900000Y1800000D02*
X-37900000Y3200000D01*
G04 #@! TO.N,/CON.SEL+*
X-26700000Y1800000D02*
X-26700000Y3200000D01*
G04 #@! TO.N,/CON.ATN+*
X-33100000Y1800000D02*
X-33100000Y3200000D01*
G04 #@! TO.N,/CON.DB9-*
X-17700000Y13080000D02*
X-17700000Y13200000D01*
X-17234387Y12840000D02*
X-17460000Y12840000D01*
X-17700000Y20000000D02*
X-17700000Y24900000D01*
X-17234387Y14040000D02*
X-17460000Y14040000D01*
X-17700000Y18000000D02*
X-17700000Y20000000D01*
X-19000000Y27400000D02*
X-19180000Y27580000D01*
X-17460000Y12240000D02*
X-17234387Y12240000D01*
X-19000000Y26200000D02*
X-19000000Y27400000D01*
X-21100000Y6200000D02*
X-21100000Y7500000D01*
X-17234387Y16440000D02*
X-17460000Y16440000D01*
X-17700000Y24900000D02*
X-19000000Y26200000D01*
X-16994366Y17280000D02*
X-16994366Y17400000D01*
X-16994387Y14880000D02*
X-16994387Y15000000D01*
X-17234366Y17640000D02*
X-17460000Y17640000D01*
X-17460000Y13440000D02*
X-17234387Y13440000D01*
X-19180000Y27580000D02*
X-19180000Y28389000D01*
X-17700000Y15480000D02*
X-17700000Y15600000D01*
X-17700000Y17880000D02*
X-17700000Y18000000D01*
X-17700000Y16680000D02*
X-17700000Y16800000D01*
X-16994387Y16080000D02*
X-16994387Y16200000D01*
X-16994387Y12480000D02*
X-16994387Y12600000D01*
X-17460000Y15840000D02*
X-17234387Y15840000D01*
X-17700000Y10900000D02*
X-17700000Y12000000D01*
X-16994387Y13680000D02*
X-16994387Y13800000D01*
X-17460000Y14640000D02*
X-17234387Y14640000D01*
X-17700000Y14280000D02*
X-17700000Y14400000D01*
X-21100000Y7500000D02*
X-17700000Y10900000D01*
X-17460000Y17040000D02*
X-17234366Y17040000D01*
X-17234387Y15240000D02*
X-17460000Y15240000D01*
X-16994387Y16200000D02*
G75*
G03*
X-17234387Y16440013I-240013J0D01*
G01*
X-17700000Y13200000D02*
G75*
G02*
X-17460000Y13440000I240000J0D01*
G01*
X-17460000Y14040000D02*
G75*
G02*
X-17700000Y14280000I0J240000D01*
G01*
X-17460000Y17640000D02*
G75*
G02*
X-17700000Y17880000I0J240000D01*
G01*
X-17460000Y12840000D02*
G75*
G02*
X-17700000Y13080000I0J240000D01*
G01*
X-17234387Y12240000D02*
G75*
G03*
X-16994400Y12480000I-13J240000D01*
G01*
X-16994366Y17400000D02*
G75*
G03*
X-17234366Y17640034I-240034J0D01*
G01*
X-17700000Y15600000D02*
G75*
G02*
X-17460000Y15840000I240000J0D01*
G01*
X-16994387Y13800000D02*
G75*
G03*
X-17234387Y14040013I-240013J0D01*
G01*
X-17234387Y15840000D02*
G75*
G03*
X-16994400Y16080000I-13J240000D01*
G01*
X-17234366Y17040000D02*
G75*
G03*
X-16994400Y17280000I-34J240000D01*
G01*
X-17700000Y16800000D02*
G75*
G02*
X-17460000Y17040000I240000J0D01*
G01*
X-17700000Y14400000D02*
G75*
G02*
X-17460000Y14640000I240000J0D01*
G01*
X-17234387Y13440000D02*
G75*
G03*
X-16994400Y13680000I-13J240000D01*
G01*
X-17460000Y15240000D02*
G75*
G02*
X-17700000Y15480000I0J240000D01*
G01*
X-16994387Y12600000D02*
G75*
G03*
X-17234387Y12840013I-240013J0D01*
G01*
X-16994387Y15000000D02*
G75*
G03*
X-17234387Y15240013I-240013J0D01*
G01*
X-17234387Y14640000D02*
G75*
G03*
X-16994400Y14880000I-13J240000D01*
G01*
X-17700000Y12000000D02*
G75*
G02*
X-17460000Y12240000I240000J0D01*
G01*
X-17460000Y16440000D02*
G75*
G02*
X-17700000Y16680000I0J240000D01*
G01*
G04 #@! TO.N,/CON.SEL-*
X-26700000Y6200000D02*
X-26700000Y7500000D01*
X-23200000Y14292015D02*
X-23200000Y14412015D01*
X-23855619Y13692015D02*
X-23855619Y13812015D01*
X-23440000Y13452015D02*
X-23615619Y13452015D01*
X-23440000Y14652015D02*
X-23615619Y14652015D01*
X-23615619Y14052015D02*
X-23440000Y14052015D01*
X-26700000Y7500000D02*
X-23200000Y11000000D01*
X-23200000Y24800000D02*
X-24500000Y26100000D01*
X-23440000Y12252015D02*
X-23615619Y12252015D01*
X-23615619Y12852015D02*
X-23440000Y12852015D01*
X-23200000Y15612015D02*
X-23200000Y20020471D01*
X-24500000Y27000000D02*
X-25530000Y28030000D01*
X-23200000Y20020471D02*
X-23200000Y24800000D01*
X-23855619Y12492015D02*
X-23855619Y12612015D01*
X-23200000Y11000000D02*
X-23200000Y12012015D01*
X-23615619Y15252015D02*
X-23440000Y15252015D01*
X-24500000Y26100000D02*
X-24500000Y27000000D01*
X-23855619Y14892015D02*
X-23855619Y15012015D01*
X-25530000Y28030000D02*
X-25530000Y30294000D01*
X-23200000Y13092015D02*
X-23200000Y13212015D01*
X-23200000Y15492015D02*
X-23200000Y15612015D01*
X-23615619Y12252015D02*
G75*
G02*
X-23855585Y12492015I19J239985D01*
G01*
X-23855619Y15012015D02*
G75*
G02*
X-23615619Y15252019I240019J-15D01*
G01*
X-23440000Y15252015D02*
G75*
G03*
X-23200015Y15492015I0J239985D01*
G01*
X-23855619Y13812015D02*
G75*
G02*
X-23615619Y14052019I240019J-15D01*
G01*
X-23200000Y14412015D02*
G75*
G03*
X-23440000Y14652000I-240000J-15D01*
G01*
X-23855619Y12612015D02*
G75*
G02*
X-23615619Y12852019I240019J-15D01*
G01*
X-23440000Y14052015D02*
G75*
G03*
X-23200015Y14292015I0J239985D01*
G01*
X-23615619Y13452015D02*
G75*
G02*
X-23855585Y13692015I19J239985D01*
G01*
X-23615619Y14652015D02*
G75*
G02*
X-23855585Y14892015I19J239985D01*
G01*
X-23440000Y12852015D02*
G75*
G03*
X-23200015Y13092015I0J239985D01*
G01*
X-23200000Y13212015D02*
G75*
G03*
X-23440000Y13452000I-240000J-15D01*
G01*
X-23200000Y12012015D02*
G75*
G03*
X-23440000Y12252000I-240000J-15D01*
G01*
G04 #@! TO.N,/CON.DB9+*
X-21100000Y1800000D02*
X-21100000Y3200000D01*
G04 #@! TO.N,/CON.DB0-*
X-49986876Y14875738D02*
X-49986876Y14995738D01*
X-50460000Y15835738D02*
X-50226855Y15835738D01*
X-50700000Y13075738D02*
X-50700000Y13195738D01*
X-50226876Y15235738D02*
X-50460000Y15235738D01*
X-50226855Y16435738D02*
X-50460000Y16435738D01*
X-50700000Y14275738D02*
X-50700000Y14395738D01*
X-52000000Y26200000D02*
X-52000000Y27400000D01*
X-50700000Y24900000D02*
X-52000000Y26200000D01*
X-50700000Y15475738D02*
X-50700000Y15595738D01*
X-50226876Y17635738D02*
X-50460000Y17635738D01*
X-50700000Y16675738D02*
X-50700000Y16795738D01*
X-49986855Y16075738D02*
X-49986855Y16195738D01*
X-50700000Y10700000D02*
X-50700000Y11995738D01*
X-47500000Y6200000D02*
X-47500000Y7500000D01*
X-50700000Y17875738D02*
X-50700000Y17995738D01*
X-52200000Y27600000D02*
X-52200000Y28389000D01*
X-52000000Y27400000D02*
X-52200000Y27600000D01*
X-50460000Y12235738D02*
X-50226855Y12235738D01*
X-50226855Y14035738D02*
X-50460000Y14035738D01*
X-50460000Y17035738D02*
X-50226876Y17035738D01*
X-50460000Y14635738D02*
X-50226876Y14635738D01*
X-50460000Y13435738D02*
X-50226855Y13435738D01*
X-50700000Y19999925D02*
X-50700000Y24900000D01*
X-50226855Y12835738D02*
X-50460000Y12835738D01*
X-49986855Y13675738D02*
X-49986855Y13795738D01*
X-49986876Y17275738D02*
X-49986876Y17395738D01*
X-47500000Y7500000D02*
X-50700000Y10700000D01*
X-49986855Y12475738D02*
X-49986855Y12595738D01*
X-50700000Y17995738D02*
X-50700000Y19999925D01*
X-50700000Y11995738D02*
G75*
G02*
X-50460000Y12235700I240000J-38D01*
G01*
X-50460000Y15235738D02*
G75*
G02*
X-50699962Y15475738I0J239962D01*
G01*
X-50460000Y16435738D02*
G75*
G02*
X-50699962Y16675738I0J239962D01*
G01*
X-50460000Y14035738D02*
G75*
G02*
X-50699962Y14275738I0J239962D01*
G01*
X-50460000Y17635738D02*
G75*
G02*
X-50699962Y17875738I0J239962D01*
G01*
X-50226876Y14635738D02*
G75*
G03*
X-49986938Y14875738I-24J239962D01*
G01*
X-49986876Y14995738D02*
G75*
G03*
X-50226876Y15235724I-240024J-38D01*
G01*
X-49986876Y17395738D02*
G75*
G03*
X-50226876Y17635724I-240024J-38D01*
G01*
X-50226855Y12235738D02*
G75*
G03*
X-49986938Y12475738I-45J239962D01*
G01*
X-50700000Y14395738D02*
G75*
G02*
X-50460000Y14635700I240000J-38D01*
G01*
X-49986855Y16195738D02*
G75*
G03*
X-50226855Y16435745I-240045J-38D01*
G01*
X-49986855Y13795738D02*
G75*
G03*
X-50226855Y14035745I-240045J-38D01*
G01*
X-50700000Y15595738D02*
G75*
G02*
X-50460000Y15835700I240000J-38D01*
G01*
X-50226855Y15835738D02*
G75*
G03*
X-49986938Y16075738I-45J239962D01*
G01*
X-50460000Y12835738D02*
G75*
G02*
X-50699962Y13075738I0J239962D01*
G01*
X-49986855Y12595738D02*
G75*
G03*
X-50226855Y12835745I-240045J-38D01*
G01*
X-50226855Y13435738D02*
G75*
G03*
X-49986938Y13675738I-45J239962D01*
G01*
X-50700000Y16795738D02*
G75*
G02*
X-50460000Y17035700I240000J-38D01*
G01*
X-50700000Y13195738D02*
G75*
G02*
X-50460000Y13435700I240000J-38D01*
G01*
X-50226876Y17035738D02*
G75*
G03*
X-49986938Y17275738I-24J239962D01*
G01*
G04 #@! TO.N,/CON.DB11+*
X-18700000Y1800001D02*
X-18700000Y3200000D01*
G04 #@! TO.N,/CON.DB7+*
X-38700000Y1800000D02*
X-38700000Y3200000D01*
G04 #@! TO.N,/CON.DP1-*
X-51561153Y12840000D02*
X-51340000Y12840000D01*
X-51100000Y15600000D02*
X-51100000Y20023641D01*
X-52400000Y26100000D02*
X-52400000Y27000000D01*
X-51340000Y13440000D02*
X-51561149Y13440000D01*
X-52400000Y27000000D02*
X-53470000Y28070000D01*
X-48300000Y7500000D02*
X-51100000Y10300000D01*
X-51100000Y15480000D02*
X-51100000Y15600000D01*
X-51561148Y15240000D02*
X-51340000Y15240000D01*
X-51801149Y13680000D02*
X-51801149Y13800000D01*
X-51340000Y14640000D02*
X-51561148Y14640000D01*
X-51100000Y10300000D02*
X-51100000Y12000000D01*
X-51801148Y14880000D02*
X-51801148Y15000000D01*
X-51100000Y13080000D02*
X-51100000Y13200000D01*
X-51340000Y12240000D02*
X-51561153Y12240000D01*
X-48300000Y6200000D02*
X-48300000Y7500000D01*
X-51100000Y14280000D02*
X-51100000Y14400000D01*
X-53470000Y28070000D02*
X-53470000Y30294000D01*
X-51100000Y24800000D02*
X-52400000Y26100000D01*
X-51561149Y14040000D02*
X-51340000Y14040000D01*
X-51801153Y12480000D02*
X-51801153Y12600000D01*
X-51100000Y20023641D02*
X-51100000Y24800000D01*
X-51100000Y12000000D02*
G75*
G03*
X-51340000Y12240000I-240000J0D01*
G01*
X-51801148Y15000000D02*
G75*
G02*
X-51561148Y15240048I240048J0D01*
G01*
X-51801153Y12600000D02*
G75*
G02*
X-51561153Y12839953I239953J0D01*
G01*
X-51340000Y15240000D02*
G75*
G03*
X-51100000Y15480000I0J240000D01*
G01*
X-51340000Y14040000D02*
G75*
G03*
X-51100000Y14280000I0J240000D01*
G01*
X-51561148Y14640000D02*
G75*
G02*
X-51801100Y14880000I48J240000D01*
G01*
X-51801149Y13800000D02*
G75*
G02*
X-51561149Y14039949I239949J0D01*
G01*
X-51561149Y13440000D02*
G75*
G02*
X-51801200Y13680000I-51J240000D01*
G01*
X-51340000Y12840000D02*
G75*
G03*
X-51100000Y13080000I0J240000D01*
G01*
X-51561153Y12240000D02*
G75*
G02*
X-51801200Y12480000I-47J240000D01*
G01*
X-51100000Y14400000D02*
G75*
G03*
X-51340000Y14640000I-240000J0D01*
G01*
X-51100000Y13200000D02*
G75*
G03*
X-51340000Y13440000I-240000J0D01*
G01*
G04 #@! TO.N,/CON.DB5-*
X-41099999Y7499999D02*
X-43600000Y10000000D01*
X-43600000Y10000000D02*
X-43600000Y11990311D01*
X-43600000Y24900000D02*
X-44800000Y26100000D01*
X-43600000Y20000000D02*
X-43600000Y24900000D01*
X-44090157Y12830311D02*
X-43840000Y12830311D01*
X-44330157Y12470311D02*
X-44330157Y12590311D01*
X-45850000Y28050000D02*
X-45850000Y30294000D01*
X-43840000Y13430311D02*
X-44090157Y13430311D01*
X-44330157Y13670311D02*
X-44330157Y13790311D01*
X-41099999Y6200000D02*
X-41099999Y7499999D01*
X-43600000Y15470311D02*
X-43600000Y15590311D01*
X-43600000Y15590311D02*
X-43600000Y20000000D01*
X-44330157Y14870311D02*
X-44330157Y14990311D01*
X-44090157Y15230311D02*
X-43840000Y15230311D01*
X-44090157Y14030311D02*
X-43840000Y14030311D01*
X-43600000Y14270311D02*
X-43600000Y14390311D01*
X-43600000Y13070311D02*
X-43600000Y13190311D01*
X-43840000Y14630311D02*
X-44090157Y14630311D01*
X-44800000Y27000000D02*
X-45850000Y28050000D01*
X-44800000Y26100000D02*
X-44800000Y27000000D01*
X-43840000Y12230311D02*
X-44090157Y12230311D01*
X-44330157Y13790311D02*
G75*
G02*
X-44090157Y14030257I239957J-11D01*
G01*
X-44090157Y14630311D02*
G75*
G02*
X-44330189Y14870311I-43J239989D01*
G01*
X-43840000Y12830311D02*
G75*
G03*
X-43600011Y13070311I0J239989D01*
G01*
X-44330157Y12590311D02*
G75*
G02*
X-44090157Y12830257I239957J-11D01*
G01*
X-43840000Y15230311D02*
G75*
G03*
X-43600011Y15470311I0J239989D01*
G01*
X-43600000Y13190311D02*
G75*
G03*
X-43840000Y13430300I-240000J-11D01*
G01*
X-43600000Y14390311D02*
G75*
G03*
X-43840000Y14630300I-240000J-11D01*
G01*
X-44330157Y14990311D02*
G75*
G02*
X-44090157Y15230257I239957J-11D01*
G01*
X-43840000Y14030311D02*
G75*
G03*
X-43600011Y14270311I0J239989D01*
G01*
X-43600000Y11990311D02*
G75*
G03*
X-43840000Y12230300I-240000J-11D01*
G01*
X-44090157Y12230311D02*
G75*
G02*
X-44330189Y12470311I-43J239989D01*
G01*
X-44090157Y13430311D02*
G75*
G02*
X-44330189Y13670311I-43J239989D01*
G01*
G04 #@! TO.N,/CON.REQ-*
X-21900000Y27000000D02*
X-22990000Y28090000D01*
X-20600000Y15646167D02*
X-20600000Y20003396D01*
X-20840000Y13486167D02*
X-20997599Y13486167D01*
X-21237579Y14926167D02*
X-21237579Y15046167D01*
X-20600000Y24800000D02*
X-21900000Y26100000D01*
X-20600000Y14326167D02*
X-20600000Y14446167D01*
X-22990000Y28090000D02*
X-22990000Y30294000D01*
X-21900000Y26100000D02*
X-21900000Y27000000D01*
X-20600000Y15526167D02*
X-20600000Y15646167D01*
X-21237599Y13726167D02*
X-21237599Y13846167D01*
X-20840000Y14686167D02*
X-20997579Y14686167D01*
X-21237579Y12526167D02*
X-21237579Y12646167D01*
X-20997599Y14086167D02*
X-20840000Y14086167D01*
X-20600000Y11200000D02*
X-20600000Y12046167D01*
X-20840000Y12286167D02*
X-20997579Y12286167D01*
X-24300000Y6199999D02*
X-24300000Y7500000D01*
X-24300000Y7500000D02*
X-20600000Y11200000D01*
X-20997579Y15286167D02*
X-20840000Y15286167D01*
X-20997579Y12886167D02*
X-20840000Y12886167D01*
X-20600000Y13126167D02*
X-20600000Y13246167D01*
X-20600000Y20003396D02*
X-20600000Y24800000D01*
X-20600000Y14446167D02*
G75*
G03*
X-20840000Y14686200I-240000J33D01*
G01*
X-20600000Y12046167D02*
G75*
G03*
X-20840000Y12286200I-240000J33D01*
G01*
X-20997599Y13486167D02*
G75*
G02*
X-21237633Y13726167I-1J240033D01*
G01*
X-21237579Y12646167D02*
G75*
G02*
X-20997579Y12886179I239979J33D01*
G01*
X-20840000Y15286167D02*
G75*
G03*
X-20599967Y15526167I0J240033D01*
G01*
X-20600000Y13246167D02*
G75*
G03*
X-20840000Y13486200I-240000J33D01*
G01*
X-21237599Y13846167D02*
G75*
G02*
X-20997599Y14086199I239999J33D01*
G01*
X-20840000Y14086167D02*
G75*
G03*
X-20599967Y14326167I0J240033D01*
G01*
X-20840000Y12886167D02*
G75*
G03*
X-20599967Y13126167I0J240033D01*
G01*
X-20997579Y14686167D02*
G75*
G02*
X-21237633Y14926167I-21J240033D01*
G01*
X-20997579Y12286167D02*
G75*
G02*
X-21237633Y12526167I-21J240033D01*
G01*
X-21237579Y15046167D02*
G75*
G02*
X-20997579Y15286179I239979J33D01*
G01*
G04 #@! TO.N,/CON.DB1-*
X-48840000Y14623880D02*
X-49070785Y14623880D01*
X-45900000Y6200000D02*
X-45900000Y7500000D01*
X-48840000Y13423880D02*
X-49070785Y13423880D01*
X-45900000Y7500000D02*
X-48600000Y10200000D01*
X-50930000Y28130000D02*
X-50930000Y30294000D01*
X-48840000Y12223880D02*
X-49070785Y12223880D01*
X-49310785Y12463880D02*
X-49310785Y12583880D01*
X-48600000Y24800000D02*
X-49800000Y26000000D01*
X-49800000Y26000000D02*
X-49800000Y27000000D01*
X-48600000Y14263880D02*
X-48600000Y14383880D01*
X-49310785Y14863880D02*
X-49310785Y14983880D01*
X-48600000Y10200000D02*
X-48600000Y11983880D01*
X-48600000Y15463880D02*
X-48600000Y15583880D01*
X-48600000Y19991191D02*
X-48600000Y24800000D01*
X-49070785Y14023880D02*
X-48840000Y14023880D01*
X-48600000Y13063880D02*
X-48600000Y13183880D01*
X-49800000Y27000000D02*
X-50930000Y28130000D01*
X-49070785Y12823880D02*
X-48840000Y12823880D01*
X-49310785Y13663880D02*
X-49310785Y13783880D01*
X-48600000Y15583880D02*
X-48600000Y19991191D01*
X-49070785Y15223880D02*
X-48840000Y15223880D01*
X-48600000Y14383880D02*
G75*
G03*
X-48840000Y14623900I-240000J20D01*
G01*
X-48840000Y15223880D02*
G75*
G03*
X-48599980Y15463880I0J240020D01*
G01*
X-48600000Y11983880D02*
G75*
G03*
X-48840000Y12223900I-240000J20D01*
G01*
X-49310785Y12583880D02*
G75*
G02*
X-49070785Y12823885I239985J20D01*
G01*
X-49070785Y12223880D02*
G75*
G02*
X-49310820Y12463880I-15J240020D01*
G01*
X-48840000Y14023880D02*
G75*
G03*
X-48599980Y14263880I0J240020D01*
G01*
X-49310785Y13783880D02*
G75*
G02*
X-49070785Y14023885I239985J20D01*
G01*
X-49070785Y14623880D02*
G75*
G02*
X-49310820Y14863880I-15J240020D01*
G01*
X-48600000Y13183880D02*
G75*
G03*
X-48840000Y13423900I-240000J20D01*
G01*
X-48840000Y12823880D02*
G75*
G03*
X-48599980Y13063880I0J240020D01*
G01*
X-49070785Y13423880D02*
G75*
G02*
X-49310820Y13663880I-15J240020D01*
G01*
X-49310785Y14983880D02*
G75*
G02*
X-49070785Y15223885I239985J20D01*
G01*
G04 #@! TO.N,/CON.DB13+*
X-52299999Y3199999D02*
X-52300000Y3200000D01*
X-52299999Y1800000D02*
X-52299999Y3199999D01*
G04 #@! TO.N,/CON.REQ+*
X-24300000Y1800001D02*
X-24300000Y3200000D01*
G04 #@! TO.N,/CON.DB3-*
X-46100000Y19987383D02*
X-46100000Y24900000D01*
X-46100000Y13098771D02*
X-46100000Y13218771D01*
X-46100000Y24900000D02*
X-47300000Y26100000D01*
X-46580444Y14058771D02*
X-46340000Y14058771D01*
X-46340000Y13458771D02*
X-46580444Y13458771D01*
X-43500000Y7500000D02*
X-46100000Y10100000D01*
X-46820444Y13698771D02*
X-46820444Y13818771D01*
X-47300000Y26100000D02*
X-47300000Y27000000D01*
X-46340000Y14658771D02*
X-46580450Y14658771D01*
X-46340000Y12258771D02*
X-46580439Y12258771D01*
X-43500000Y6200000D02*
X-43500000Y7500000D01*
X-46580450Y15258771D02*
X-46340000Y15258771D01*
X-46100000Y15618771D02*
X-46100000Y19987383D01*
X-46100000Y15498771D02*
X-46100000Y15618771D01*
X-46100000Y14298771D02*
X-46100000Y14418771D01*
X-47300000Y27000000D02*
X-48390000Y28090000D01*
X-46820439Y12498771D02*
X-46820439Y12618771D01*
X-48390000Y28090000D02*
X-48390000Y30294000D01*
X-46100000Y10100000D02*
X-46100000Y12018771D01*
X-46580439Y12858771D02*
X-46340000Y12858771D01*
X-46820450Y14898771D02*
X-46820450Y15018771D01*
X-46820450Y15018771D02*
G75*
G02*
X-46580450Y15258750I239950J29D01*
G01*
X-46100000Y14418771D02*
G75*
G03*
X-46340000Y14658800I-240000J29D01*
G01*
X-46580439Y12258771D02*
G75*
G02*
X-46820429Y12498771I39J240029D01*
G01*
X-46340000Y12858771D02*
G75*
G03*
X-46099971Y13098771I0J240029D01*
G01*
X-46100000Y12018771D02*
G75*
G03*
X-46340000Y12258800I-240000J29D01*
G01*
X-46820444Y13818771D02*
G75*
G02*
X-46580444Y14058844I240044J29D01*
G01*
X-46340000Y15258771D02*
G75*
G03*
X-46099971Y15498771I0J240029D01*
G01*
X-46340000Y14058771D02*
G75*
G03*
X-46099971Y14298771I0J240029D01*
G01*
X-46580450Y14658771D02*
G75*
G02*
X-46820529Y14898771I-50J240029D01*
G01*
X-46820439Y12618771D02*
G75*
G02*
X-46580439Y12858839I240039J29D01*
G01*
X-46580444Y13458771D02*
G75*
G02*
X-46820429Y13698771I44J240029D01*
G01*
X-46100000Y13218771D02*
G75*
G03*
X-46340000Y13458800I-240000J29D01*
G01*
G04 #@! TO.N,/CON.DB8+*
X-21900000Y1800000D02*
X-21900000Y3200000D01*
G04 #@! TO.N,/CON.DB13-*
X-55560000Y17042300D02*
X-55338544Y17042300D01*
X-55800000Y19993680D02*
X-55800000Y24900000D01*
X-57280000Y27580000D02*
X-57280000Y28389000D01*
X-57100000Y27400000D02*
X-57280000Y27580000D01*
X-55560000Y13442300D02*
X-55338533Y13442300D01*
X-55800000Y24900000D02*
X-57100000Y26200000D01*
X-55098544Y16082300D02*
X-55098544Y16202300D01*
X-55338533Y12842300D02*
X-55560000Y12842300D01*
X-55338533Y14042300D02*
X-55560000Y14042300D01*
X-55800000Y16682300D02*
X-55800000Y16802300D01*
X-55098533Y12482300D02*
X-55098533Y12602300D01*
X-52299999Y6200000D02*
X-52299999Y7499999D01*
X-55800000Y18002300D02*
X-55800000Y19993680D01*
X-55800000Y13082300D02*
X-55800000Y13202300D01*
X-57100000Y26200000D02*
X-57100000Y27400000D01*
X-55560000Y14642300D02*
X-55338533Y14642300D01*
X-55800000Y15482300D02*
X-55800000Y15602300D01*
X-55800000Y11000000D02*
X-55800000Y12002300D01*
X-55800000Y14282300D02*
X-55800000Y14402300D01*
X-55338544Y16442300D02*
X-55560000Y16442300D01*
X-55338533Y15242300D02*
X-55560000Y15242300D01*
X-55560000Y15842300D02*
X-55338544Y15842300D01*
X-55098533Y14882300D02*
X-55098533Y15002300D01*
X-55338544Y17642300D02*
X-55560000Y17642300D01*
X-55098533Y13682300D02*
X-55098533Y13802300D01*
X-55560000Y12242300D02*
X-55338533Y12242300D01*
X-55098544Y17282300D02*
X-55098544Y17402300D01*
X-55800000Y17882300D02*
X-55800000Y18002300D01*
X-52299999Y7499999D02*
X-55800000Y11000000D01*
X-55800000Y12002300D02*
G75*
G02*
X-55560000Y12242300I240000J0D01*
G01*
X-55560000Y12842300D02*
G75*
G02*
X-55800000Y13082300I0J240000D01*
G01*
X-55338544Y15842300D02*
G75*
G03*
X-55098500Y16082300I44J240000D01*
G01*
X-55800000Y14402300D02*
G75*
G02*
X-55560000Y14642300I240000J0D01*
G01*
X-55338533Y14642300D02*
G75*
G03*
X-55098500Y14882300I33J240000D01*
G01*
X-55338533Y13442300D02*
G75*
G03*
X-55098500Y13682300I33J240000D01*
G01*
X-55560000Y15242300D02*
G75*
G02*
X-55800000Y15482300I0J240000D01*
G01*
X-55338544Y17042300D02*
G75*
G03*
X-55098500Y17282300I44J240000D01*
G01*
X-55098533Y12602300D02*
G75*
G03*
X-55338533Y12842267I-239967J0D01*
G01*
X-55098544Y17402300D02*
G75*
G03*
X-55338544Y17642256I-239956J0D01*
G01*
X-55560000Y14042300D02*
G75*
G02*
X-55800000Y14282300I0J240000D01*
G01*
X-55560000Y16442300D02*
G75*
G02*
X-55800000Y16682300I0J240000D01*
G01*
X-55800000Y13202300D02*
G75*
G02*
X-55560000Y13442300I240000J0D01*
G01*
X-55800000Y15602300D02*
G75*
G02*
X-55560000Y15842300I240000J0D01*
G01*
X-55560000Y17642300D02*
G75*
G02*
X-55800000Y17882300I0J240000D01*
G01*
X-55800000Y16802300D02*
G75*
G02*
X-55560000Y17042300I240000J0D01*
G01*
X-55338533Y12242300D02*
G75*
G03*
X-55098500Y12482300I33J240000D01*
G01*
X-55098533Y15002300D02*
G75*
G03*
X-55338533Y15242267I-239967J0D01*
G01*
X-55098544Y16202300D02*
G75*
G03*
X-55338544Y16442256I-239956J0D01*
G01*
X-55098533Y13802300D02*
G75*
G03*
X-55338533Y14042267I-239967J0D01*
G01*
G04 #@! TO.N,/CON.DB15-*
X-53300000Y15454790D02*
X-53300000Y15574790D01*
X-52832754Y17614790D02*
X-53060000Y17614790D01*
X-52832746Y12814790D02*
X-53060000Y12814790D01*
X-53300000Y25000000D02*
X-54600000Y26300000D01*
X-52832746Y16414790D02*
X-53060000Y16414790D01*
X-52592746Y12454790D02*
X-52592746Y12574790D01*
X-52592746Y16054790D02*
X-52592746Y16174790D01*
X-49900000Y7500000D02*
X-53300000Y10900000D01*
X-53300000Y13054790D02*
X-53300000Y13174790D01*
X-53060000Y14614790D02*
X-52832752Y14614790D01*
X-52592754Y17254790D02*
X-52592754Y17374790D01*
X-53060000Y15814790D02*
X-52832746Y15814790D01*
X-52832752Y15214790D02*
X-53060000Y15214790D01*
X-53300000Y19978976D02*
X-53300000Y25000000D01*
X-53060000Y13414790D02*
X-52832751Y13414790D01*
X-49900000Y6200000D02*
X-49900000Y7500000D01*
X-54740000Y27540000D02*
X-54740000Y28389000D01*
X-54600000Y26300000D02*
X-54600000Y27400000D01*
X-53060000Y17014790D02*
X-52832754Y17014790D01*
X-54600000Y27400000D02*
X-54740000Y27540000D01*
X-52832751Y14014790D02*
X-53060000Y14014790D01*
X-53300000Y10900000D02*
X-53300000Y11974790D01*
X-53300000Y17974790D02*
X-53300000Y19978976D01*
X-53300000Y17854790D02*
X-53300000Y17974790D01*
X-52592752Y14854790D02*
X-52592752Y14974790D01*
X-53060000Y12214790D02*
X-52832746Y12214790D01*
X-53300000Y14254790D02*
X-53300000Y14374790D01*
X-52592751Y13654790D02*
X-52592751Y13774790D01*
X-53300000Y16654790D02*
X-53300000Y16774790D01*
X-52832754Y17014790D02*
G75*
G03*
X-52592790Y17254790I-46J240010D01*
G01*
X-53300000Y11974790D02*
G75*
G02*
X-53060000Y12214800I240000J10D01*
G01*
X-52592746Y12574790D02*
G75*
G03*
X-52832746Y12814754I-239954J10D01*
G01*
X-52592754Y17374790D02*
G75*
G03*
X-52832754Y17614846I-240046J10D01*
G01*
X-52832751Y13414790D02*
G75*
G03*
X-52592690Y13654790I51J240010D01*
G01*
X-53060000Y16414790D02*
G75*
G02*
X-53300010Y16654790I0J240010D01*
G01*
X-52832746Y12214790D02*
G75*
G03*
X-52592690Y12454790I46J240010D01*
G01*
X-52592752Y14974790D02*
G75*
G03*
X-52832752Y15214848I-240048J10D01*
G01*
X-53060000Y15214790D02*
G75*
G02*
X-53300010Y15454790I0J240010D01*
G01*
X-53300000Y16774790D02*
G75*
G02*
X-53060000Y17014800I240000J10D01*
G01*
X-53060000Y12814790D02*
G75*
G02*
X-53300010Y13054790I0J240010D01*
G01*
X-52832752Y14614790D02*
G75*
G03*
X-52592790Y14854790I-48J240010D01*
G01*
X-53300000Y14374790D02*
G75*
G02*
X-53060000Y14614800I240000J10D01*
G01*
X-52832746Y15814790D02*
G75*
G03*
X-52592690Y16054790I46J240010D01*
G01*
X-53300000Y15574790D02*
G75*
G02*
X-53060000Y15814800I240000J10D01*
G01*
X-52592746Y16174790D02*
G75*
G03*
X-52832746Y16414754I-239954J10D01*
G01*
X-52592751Y13774790D02*
G75*
G03*
X-52832751Y14014749I-239949J10D01*
G01*
X-53060000Y17614790D02*
G75*
G02*
X-53300010Y17854790I0J240010D01*
G01*
X-53300000Y13174790D02*
G75*
G02*
X-53060000Y13414800I240000J10D01*
G01*
X-53060000Y14014790D02*
G75*
G02*
X-53300010Y14254790I0J240010D01*
G01*
G04 #@! TO.N,/CON.MSG+*
X-28300001Y3199999D02*
X-28300000Y3200000D01*
X-28300001Y1800000D02*
X-28300001Y3199999D01*
G04 #@! TO.N,/CON.DB11-*
X-14960000Y15836376D02*
X-14736911Y15836376D01*
X-14736911Y12836376D02*
X-14960000Y12836376D01*
X-18700000Y6199999D02*
X-18700000Y7500000D01*
X-14496911Y16076376D02*
X-14496911Y16196376D01*
X-16400000Y27300000D02*
X-16640000Y27540000D01*
X-16640000Y27540000D02*
X-16640000Y28389000D01*
X-15200000Y13076376D02*
X-15200000Y13196376D01*
X-14736911Y17636376D02*
X-14960000Y17636376D01*
X-15200000Y15476376D02*
X-15200000Y15596376D01*
X-14496911Y12476376D02*
X-14496911Y12596376D01*
X-15200000Y25000000D02*
X-16400000Y26200000D01*
X-14496911Y13676376D02*
X-14496911Y13796376D01*
X-15200000Y17996376D02*
X-15200000Y20000563D01*
X-15200000Y17876376D02*
X-15200000Y17996376D01*
X-16400000Y26200000D02*
X-16400000Y27300000D01*
X-14496911Y17276376D02*
X-14496911Y17396376D01*
X-18700000Y7500000D02*
X-15200000Y11000000D01*
X-14960000Y12236376D02*
X-14736911Y12236376D01*
X-15200000Y16676376D02*
X-15200000Y16796376D01*
X-15200000Y20000563D02*
X-15200000Y25000000D01*
X-14960000Y17036376D02*
X-14736911Y17036376D01*
X-15200000Y11000000D02*
X-15200000Y11996376D01*
X-14736911Y16436376D02*
X-14960000Y16436376D01*
X-14960000Y13436376D02*
X-14736911Y13436376D01*
X-15200000Y14276376D02*
X-15200000Y14396376D01*
X-14960000Y14636376D02*
X-14736911Y14636376D01*
X-14736911Y15236376D02*
X-14960000Y15236376D01*
X-14496911Y14876376D02*
X-14496911Y14996376D01*
X-14736911Y14036376D02*
X-14960000Y14036376D01*
X-14496911Y16196376D02*
G75*
G03*
X-14736911Y16436389I-239989J24D01*
G01*
X-15200000Y15596376D02*
G75*
G02*
X-14960000Y15836400I240000J24D01*
G01*
X-14960000Y15236376D02*
G75*
G02*
X-15200024Y15476376I0J240024D01*
G01*
X-14736911Y15836376D02*
G75*
G03*
X-14496876Y16076376I11J240024D01*
G01*
X-14736911Y14636376D02*
G75*
G03*
X-14496876Y14876376I11J240024D01*
G01*
X-14496911Y14996376D02*
G75*
G03*
X-14736911Y15236389I-239989J24D01*
G01*
X-15200000Y11996376D02*
G75*
G02*
X-14960000Y12236400I240000J24D01*
G01*
X-14736911Y13436376D02*
G75*
G03*
X-14496876Y13676376I11J240024D01*
G01*
X-15200000Y13196376D02*
G75*
G02*
X-14960000Y13436400I240000J24D01*
G01*
X-14960000Y12836376D02*
G75*
G02*
X-15200024Y13076376I0J240024D01*
G01*
X-14960000Y14036376D02*
G75*
G02*
X-15200024Y14276376I0J240024D01*
G01*
X-15200000Y16796376D02*
G75*
G02*
X-14960000Y17036400I240000J24D01*
G01*
X-14496911Y13796376D02*
G75*
G03*
X-14736911Y14036389I-239989J24D01*
G01*
X-14960000Y16436376D02*
G75*
G02*
X-15200024Y16676376I0J240024D01*
G01*
X-14736911Y12236376D02*
G75*
G03*
X-14496876Y12476376I11J240024D01*
G01*
X-14496911Y12596376D02*
G75*
G03*
X-14736911Y12836389I-239989J24D01*
G01*
X-15200000Y14396376D02*
G75*
G02*
X-14960000Y14636400I240000J24D01*
G01*
X-14496911Y17396376D02*
G75*
G03*
X-14736911Y17636389I-239989J24D01*
G01*
X-14960000Y17636376D02*
G75*
G02*
X-15200024Y17876376I0J240024D01*
G01*
X-14736911Y17036376D02*
G75*
G03*
X-14496876Y17276376I11J240024D01*
G01*
G04 #@! TO.N,/CON.DB3+*
X-43500000Y1800000D02*
X-43500000Y3200000D01*
G04 #@! TO.N,/CON.ACK-*
X-27167853Y12492015D02*
X-27167853Y12612015D01*
X-27900000Y15492015D02*
X-27900000Y15612015D01*
X-27660000Y12252015D02*
X-27407853Y12252015D01*
X-29100000Y26200000D02*
X-29100000Y27300000D01*
X-27900000Y13092015D02*
X-27900000Y13212015D01*
X-27167852Y13692015D02*
X-27167852Y13812015D01*
X-30700000Y7500000D02*
X-27900000Y10300000D01*
X-27167851Y14892015D02*
X-27167851Y15012015D01*
X-27660000Y17052015D02*
X-27407851Y17052015D01*
X-29340000Y27540000D02*
X-29340000Y28389000D01*
X-27407853Y12852015D02*
X-27660000Y12852015D01*
X-27900000Y10300000D02*
X-27900000Y12012015D01*
X-29100000Y27300000D02*
X-29340000Y27540000D01*
X-27660000Y14652015D02*
X-27407851Y14652015D01*
X-27900000Y20020471D02*
X-27900000Y25000000D01*
X-27900000Y18012015D02*
X-27900000Y20020471D01*
X-27660000Y15852015D02*
X-27407852Y15852015D01*
X-27900000Y17892015D02*
X-27900000Y18012015D01*
X-27167852Y16092015D02*
X-27167852Y16212015D01*
X-27660000Y13452015D02*
X-27407852Y13452015D01*
X-27407851Y15252015D02*
X-27660000Y15252015D01*
X-27900000Y14292015D02*
X-27900000Y14412015D01*
X-30700000Y6200000D02*
X-30700000Y7500000D01*
X-27167851Y17292015D02*
X-27167851Y17412015D01*
X-27900000Y16692015D02*
X-27900000Y16812015D01*
X-27407852Y16452015D02*
X-27660000Y16452015D01*
X-27900000Y25000000D02*
X-29100000Y26200000D01*
X-27407851Y17652015D02*
X-27660000Y17652015D01*
X-27407852Y14052015D02*
X-27660000Y14052015D01*
X-27167851Y15012015D02*
G75*
G03*
X-27407851Y15251949I-239949J-15D01*
G01*
X-27900000Y16812015D02*
G75*
G02*
X-27660000Y17052000I240000J-15D01*
G01*
X-27407851Y17052015D02*
G75*
G03*
X-27167815Y17292015I51J239985D01*
G01*
X-27167851Y17412015D02*
G75*
G03*
X-27407851Y17651949I-239949J-15D01*
G01*
X-27660000Y17652015D02*
G75*
G02*
X-27899985Y17892015I0J239985D01*
G01*
X-27660000Y12852015D02*
G75*
G02*
X-27899985Y13092015I0J239985D01*
G01*
X-27407852Y15852015D02*
G75*
G03*
X-27167915Y16092015I-48J239985D01*
G01*
X-27900000Y13212015D02*
G75*
G02*
X-27660000Y13452000I240000J-15D01*
G01*
X-27900000Y12012015D02*
G75*
G02*
X-27660000Y12252000I240000J-15D01*
G01*
X-27407851Y14652015D02*
G75*
G03*
X-27167815Y14892015I51J239985D01*
G01*
X-27167852Y16212015D02*
G75*
G03*
X-27407852Y16452048I-240048J-15D01*
G01*
X-27167852Y13812015D02*
G75*
G03*
X-27407852Y14052048I-240048J-15D01*
G01*
X-27407852Y13452015D02*
G75*
G03*
X-27167915Y13692015I-48J239985D01*
G01*
X-27660000Y16452015D02*
G75*
G02*
X-27899985Y16692015I0J239985D01*
G01*
X-27660000Y14052015D02*
G75*
G02*
X-27899985Y14292015I0J239985D01*
G01*
X-27407853Y12252015D02*
G75*
G03*
X-27167915Y12492015I-47J239985D01*
G01*
X-27900000Y14412015D02*
G75*
G02*
X-27660000Y14652000I240000J-15D01*
G01*
X-27660000Y15252015D02*
G75*
G02*
X-27899985Y15492015I0J239985D01*
G01*
X-27167853Y12612015D02*
G75*
G03*
X-27407853Y12852047I-240047J-15D01*
G01*
X-27900000Y15612015D02*
G75*
G02*
X-27660000Y15852000I240000J-15D01*
G01*
D27*
G04 #@! TO.N,/CON.DIFFSENSE*
X-36300000Y1800000D02*
X-36300000Y3200000D01*
D26*
G04 #@! TO.N,/CON.I{slash}O+*
X-23500000Y1800000D02*
X-23500000Y3200000D01*
G04 #@! TO.N,/CON.I{slash}O-*
X-19731847Y15234940D02*
X-19960000Y15234940D01*
X-19731852Y17634940D02*
X-19960000Y17634940D01*
X-20200000Y17994940D02*
X-20200000Y20000000D01*
X-19491852Y17274940D02*
X-19491852Y17394940D01*
X-20200000Y17874940D02*
X-20200000Y17994940D01*
X-19960000Y13434940D02*
X-19731842Y13434940D01*
X-19731842Y14034940D02*
X-19960000Y14034940D01*
X-20200000Y24900000D02*
X-21500000Y26200000D01*
X-23500000Y7500000D02*
X-20200000Y10800000D01*
X-19960000Y15834940D02*
X-19731850Y15834940D01*
X-19491847Y14874940D02*
X-19491847Y14994940D01*
X-20200000Y10800000D02*
X-20200000Y11994940D01*
X-21500000Y26200000D02*
X-21500000Y27400000D01*
X-23500000Y6200000D02*
X-23500000Y7500000D01*
X-19960000Y17034940D02*
X-19731852Y17034940D01*
X-21720000Y27620000D02*
X-21720000Y28389000D01*
X-19491842Y12474940D02*
X-19491842Y12594940D01*
X-20200000Y13074940D02*
X-20200000Y13194940D01*
X-19491842Y13674940D02*
X-19491842Y13794940D01*
X-19491850Y16074940D02*
X-19491850Y16194940D01*
X-20200000Y20000000D02*
X-20200000Y24900000D01*
X-20200000Y15474940D02*
X-20200000Y15594940D01*
X-20200000Y14274940D02*
X-20200000Y14394940D01*
X-19960000Y14634940D02*
X-19731847Y14634940D01*
X-21500000Y27400000D02*
X-21720000Y27620000D01*
X-19731842Y12834940D02*
X-19960000Y12834940D01*
X-20200000Y16674940D02*
X-20200000Y16794940D01*
X-19960000Y12234940D02*
X-19731842Y12234940D01*
X-19731850Y16434940D02*
X-19960000Y16434940D01*
X-19731850Y15834940D02*
G75*
G03*
X-19491840Y16074940I50J239960D01*
G01*
X-19731842Y12234940D02*
G75*
G03*
X-19491840Y12474940I42J239960D01*
G01*
X-20200000Y11994940D02*
G75*
G02*
X-19960000Y12234900I240000J-40D01*
G01*
X-20200000Y14394940D02*
G75*
G02*
X-19960000Y14634900I240000J-40D01*
G01*
X-19491850Y16194940D02*
G75*
G03*
X-19731850Y16434850I-239950J-40D01*
G01*
X-19960000Y14034940D02*
G75*
G02*
X-20199960Y14274940I0J239960D01*
G01*
X-19731852Y17034940D02*
G75*
G03*
X-19491940Y17274940I-48J239960D01*
G01*
X-19960000Y17634940D02*
G75*
G02*
X-20199960Y17874940I0J239960D01*
G01*
X-20200000Y13194940D02*
G75*
G02*
X-19960000Y13434900I240000J-40D01*
G01*
X-19491847Y14994940D02*
G75*
G03*
X-19731847Y15234853I-239953J-40D01*
G01*
X-19731847Y14634940D02*
G75*
G03*
X-19491840Y14874940I47J239960D01*
G01*
X-19491852Y17394940D02*
G75*
G03*
X-19731852Y17634948I-240048J-40D01*
G01*
X-19731842Y13434940D02*
G75*
G03*
X-19491840Y13674940I42J239960D01*
G01*
X-19491842Y12594940D02*
G75*
G03*
X-19731842Y12834858I-239958J-40D01*
G01*
X-19960000Y15234940D02*
G75*
G02*
X-20199960Y15474940I0J239960D01*
G01*
X-20200000Y15594940D02*
G75*
G02*
X-19960000Y15834900I240000J-40D01*
G01*
X-19960000Y12834940D02*
G75*
G02*
X-20199960Y13074940I0J239960D01*
G01*
X-19960000Y16434940D02*
G75*
G02*
X-20199960Y16674940I0J239960D01*
G01*
X-20200000Y16794940D02*
G75*
G02*
X-19960000Y17034900I240000J-40D01*
G01*
X-19491842Y13794940D02*
G75*
G03*
X-19731842Y14034858I-239958J-40D01*
G01*
G04 #@! TO.N,/CON.DB4+*
X-42700000Y1800000D02*
X-42700000Y3200000D01*
G04 #@! TO.N,/CON.DB15+*
X-49900000Y1800000D02*
X-49900000Y3200000D01*
G04 #@! TO.N,/CON.DB6-*
X-44580000Y27580000D02*
X-44580000Y28389000D01*
X-42709545Y17640000D02*
X-42960000Y17640000D01*
X-42469545Y16080000D02*
X-42469545Y16200000D01*
X-40300000Y6200000D02*
X-40300000Y7500000D01*
X-42469545Y17280000D02*
X-42469545Y17400000D01*
X-42960000Y12240000D02*
X-42709534Y12240000D01*
X-43200000Y16680000D02*
X-43200000Y16800000D01*
X-42960000Y17040000D02*
X-42709545Y17040000D01*
X-42469545Y14880000D02*
X-42469545Y15000000D01*
X-42709545Y14040000D02*
X-42960000Y14040000D01*
X-43200000Y18000000D02*
X-43200000Y20000000D01*
X-43200000Y10400000D02*
X-43200000Y12000000D01*
X-42469545Y13680000D02*
X-42469545Y13800000D01*
X-44400000Y27400000D02*
X-44580000Y27580000D01*
X-43200000Y14280000D02*
X-43200000Y14400000D01*
X-42960000Y14640000D02*
X-42709545Y14640000D01*
X-42709545Y15240000D02*
X-42960000Y15240000D01*
X-42960000Y13440000D02*
X-42709545Y13440000D01*
X-44400000Y26200000D02*
X-44400000Y27400000D01*
X-42709534Y12840000D02*
X-42960000Y12840000D01*
X-43200000Y25000000D02*
X-44400000Y26200000D01*
X-42709545Y16440000D02*
X-42960000Y16440000D01*
X-40300000Y7500000D02*
X-43200000Y10400000D01*
X-43200000Y13080000D02*
X-43200000Y13200000D01*
X-43200000Y20000000D02*
X-43200000Y25000000D01*
X-43200000Y15480000D02*
X-43200000Y15600000D01*
X-43200000Y17880000D02*
X-43200000Y18000000D01*
X-42960000Y15840000D02*
X-42709545Y15840000D01*
X-42469534Y12480000D02*
X-42469534Y12600000D01*
X-42709545Y17040000D02*
G75*
G03*
X-42469500Y17280000I45J240000D01*
G01*
X-42960000Y16440000D02*
G75*
G02*
X-43200000Y16680000I0J240000D01*
G01*
X-42709534Y12240000D02*
G75*
G03*
X-42469500Y12480000I34J240000D01*
G01*
X-43200000Y12000000D02*
G75*
G02*
X-42960000Y12240000I240000J0D01*
G01*
X-42709545Y15840000D02*
G75*
G03*
X-42469500Y16080000I45J240000D01*
G01*
X-42960000Y17640000D02*
G75*
G02*
X-43200000Y17880000I0J240000D01*
G01*
X-43200000Y16800000D02*
G75*
G02*
X-42960000Y17040000I240000J0D01*
G01*
X-42469545Y17400000D02*
G75*
G03*
X-42709545Y17639955I-239955J0D01*
G01*
X-43200000Y15600000D02*
G75*
G02*
X-42960000Y15840000I240000J0D01*
G01*
X-43200000Y13200000D02*
G75*
G02*
X-42960000Y13440000I240000J0D01*
G01*
X-42709545Y14640000D02*
G75*
G03*
X-42469500Y14880000I45J240000D01*
G01*
X-42469534Y12600000D02*
G75*
G03*
X-42709534Y12839966I-239966J0D01*
G01*
X-43200000Y14400000D02*
G75*
G02*
X-42960000Y14640000I240000J0D01*
G01*
X-42469545Y15000000D02*
G75*
G03*
X-42709545Y15239955I-239955J0D01*
G01*
X-42960000Y12840000D02*
G75*
G02*
X-43200000Y13080000I0J240000D01*
G01*
X-42960000Y15240000D02*
G75*
G02*
X-43200000Y15480000I0J240000D01*
G01*
X-42469545Y13800000D02*
G75*
G03*
X-42709545Y14039955I-239955J0D01*
G01*
X-42709545Y13440000D02*
G75*
G03*
X-42469500Y13680000I45J240000D01*
G01*
X-42469545Y16200000D02*
G75*
G03*
X-42709545Y16439955I-239955J0D01*
G01*
X-42960000Y14040000D02*
G75*
G02*
X-43200000Y14280000I0J240000D01*
G01*
G04 #@! TO.N,/CON.RST+*
X-29100000Y1800000D02*
X-29100000Y3200000D01*
G04 #@! TO.N,/CON.DB8-*
X-18100000Y15612015D02*
X-18100000Y20000000D01*
X-18340000Y14652015D02*
X-18493536Y14652015D01*
X-19400000Y26100000D02*
X-19400000Y27000000D01*
X-18340000Y12252015D02*
X-18493536Y12252015D01*
X-18733536Y14892015D02*
X-18733536Y15012015D01*
X-18733536Y12492015D02*
X-18733536Y12612015D01*
X-18733516Y13692015D02*
X-18733516Y13812015D01*
X-21900000Y6200000D02*
X-21900000Y7500000D01*
X-18100000Y13092015D02*
X-18100000Y13212015D01*
X-20450000Y28050000D02*
X-20450000Y30294000D01*
X-18100000Y24800000D02*
X-19400000Y26100000D01*
X-18493536Y15252015D02*
X-18340000Y15252015D01*
X-21900000Y7500000D02*
X-18100000Y11300000D01*
X-19400000Y27000000D02*
X-20450000Y28050000D01*
X-18100000Y11300000D02*
X-18100000Y12012015D01*
X-18100000Y15492015D02*
X-18100000Y15612015D01*
X-18340000Y13452015D02*
X-18493516Y13452015D01*
X-18100000Y14292015D02*
X-18100000Y14412015D01*
X-18100000Y20000000D02*
X-18100000Y24800000D01*
X-18493536Y12852015D02*
X-18340000Y12852015D01*
X-18493516Y14052015D02*
X-18340000Y14052015D01*
X-18493536Y12252015D02*
G75*
G02*
X-18733485Y12492015I36J239985D01*
G01*
X-18733516Y13812015D02*
G75*
G02*
X-18493516Y14052016I240016J-15D01*
G01*
X-18340000Y12852015D02*
G75*
G03*
X-18100015Y13092015I0J239985D01*
G01*
X-18100000Y12012015D02*
G75*
G03*
X-18340000Y12252000I-240000J-15D01*
G01*
X-18100000Y14412015D02*
G75*
G03*
X-18340000Y14652000I-240000J-15D01*
G01*
X-18340000Y14052015D02*
G75*
G03*
X-18100015Y14292015I0J239985D01*
G01*
X-18733536Y12612015D02*
G75*
G02*
X-18493536Y12852036I240036J-15D01*
G01*
X-18340000Y15252015D02*
G75*
G03*
X-18100015Y15492015I0J239985D01*
G01*
X-18493536Y14652015D02*
G75*
G02*
X-18733485Y14892015I36J239985D01*
G01*
X-18733536Y15012015D02*
G75*
G02*
X-18493536Y15252036I240036J-15D01*
G01*
X-18100000Y13212015D02*
G75*
G03*
X-18340000Y13452000I-240000J-15D01*
G01*
X-18493516Y13452015D02*
G75*
G02*
X-18733485Y13692015I16J239985D01*
G01*
G04 #@! TO.N,/CON.DB10+*
X-19500000Y1800000D02*
X-19500000Y3200000D01*
G04 #@! TO.N,/CON.MSG-*
X-25060000Y14634939D02*
X-24818585Y14634939D01*
X-24578585Y14874939D02*
X-24578585Y14994939D01*
X-24578585Y16074939D02*
X-24578585Y16194939D01*
X-25300000Y15474939D02*
X-25300000Y15594939D01*
X-25300000Y13074939D02*
X-25300000Y13194939D01*
X-24818564Y17634939D02*
X-25060000Y17634939D01*
X-28300001Y7499999D02*
X-25300000Y10500000D01*
X-24818585Y15234939D02*
X-25060000Y15234939D01*
X-25300000Y17874939D02*
X-25300000Y17994939D01*
X-26800000Y27600000D02*
X-26800000Y28389000D01*
X-25060000Y12234939D02*
X-24818585Y12234939D01*
X-25300000Y14274939D02*
X-25300000Y14394939D01*
X-28300001Y6200000D02*
X-28300001Y7499999D01*
X-24578564Y17274939D02*
X-24578564Y17394939D01*
X-24578585Y12474939D02*
X-24578585Y12594939D01*
X-25060000Y17034939D02*
X-24818564Y17034939D01*
X-25300000Y17994939D02*
X-25300000Y20000000D01*
X-25300000Y10500000D02*
X-25300000Y11994939D01*
X-24818585Y16434939D02*
X-25060000Y16434939D01*
X-24818585Y12834939D02*
X-25060000Y12834939D01*
X-24818585Y14034939D02*
X-25060000Y14034939D01*
X-25300000Y16674939D02*
X-25300000Y16794939D01*
X-25060000Y13434939D02*
X-24818585Y13434939D01*
X-25300000Y24900000D02*
X-26600000Y26200000D01*
X-26600000Y27400000D02*
X-26800000Y27600000D01*
X-24578585Y13674939D02*
X-24578585Y13794939D01*
X-25300000Y20000000D02*
X-25300000Y24900000D01*
X-26600000Y26200000D02*
X-26600000Y27400000D01*
X-25060000Y15834939D02*
X-24818585Y15834939D01*
X-24578585Y12594939D02*
G75*
G03*
X-24818585Y12834915I-240015J-39D01*
G01*
X-25060000Y12834939D02*
G75*
G02*
X-25299961Y13074939I0J239961D01*
G01*
X-24578585Y16194939D02*
G75*
G03*
X-24818585Y16434915I-240015J-39D01*
G01*
X-25300000Y14394939D02*
G75*
G02*
X-25060000Y14634900I240000J-39D01*
G01*
X-24818585Y15834939D02*
G75*
G03*
X-24578639Y16074939I-15J239961D01*
G01*
X-25060000Y16434939D02*
G75*
G02*
X-25299961Y16674939I0J239961D01*
G01*
X-24578585Y13794939D02*
G75*
G03*
X-24818585Y14034915I-240015J-39D01*
G01*
X-24818585Y13434939D02*
G75*
G03*
X-24578639Y13674939I-15J239961D01*
G01*
X-24818585Y14634939D02*
G75*
G03*
X-24578639Y14874939I-15J239961D01*
G01*
X-25060000Y15234939D02*
G75*
G02*
X-25299961Y15474939I0J239961D01*
G01*
X-24578585Y14994939D02*
G75*
G03*
X-24818585Y15234915I-240015J-39D01*
G01*
X-25300000Y13194939D02*
G75*
G02*
X-25060000Y13434900I240000J-39D01*
G01*
X-24818585Y12234939D02*
G75*
G03*
X-24578639Y12474939I-15J239961D01*
G01*
X-24578564Y17394939D02*
G75*
G03*
X-24818564Y17634936I-240036J-39D01*
G01*
X-25300000Y11994939D02*
G75*
G02*
X-25060000Y12234900I240000J-39D01*
G01*
X-24818564Y17034939D02*
G75*
G03*
X-24578639Y17274939I-36J239961D01*
G01*
X-25060000Y17634939D02*
G75*
G02*
X-25299961Y17874939I0J239961D01*
G01*
X-25060000Y14034939D02*
G75*
G02*
X-25299961Y14274939I0J239961D01*
G01*
X-25300000Y15594939D02*
G75*
G02*
X-25060000Y15834900I240000J-39D01*
G01*
X-25300000Y16794939D02*
G75*
G02*
X-25060000Y17034900I240000J-39D01*
G01*
G04 #@! TO.N,/CON.DB6+*
X-40300000Y1800000D02*
X-40300000Y3200000D01*
G04 #@! TO.N,/CON.C{slash}D-*
X-22321109Y12852015D02*
X-22560000Y12852015D01*
X-24260000Y27560000D02*
X-24260000Y28389000D01*
X-22081109Y17292015D02*
X-22081109Y17412015D01*
X-22800000Y15492015D02*
X-22800000Y15612015D01*
X-22800000Y10600000D02*
X-22800000Y12012015D01*
X-22800000Y14292015D02*
X-22800000Y14412015D01*
X-22321109Y14052015D02*
X-22560000Y14052015D01*
X-25900000Y7500000D02*
X-22800000Y10600000D01*
X-22800000Y13092015D02*
X-22800000Y13212015D01*
X-25900000Y6200000D02*
X-25900000Y7500000D01*
X-24100000Y26200000D02*
X-24100000Y27400000D01*
X-22081109Y14892015D02*
X-22081109Y15012015D01*
X-22081109Y12492015D02*
X-22081109Y12612015D01*
X-22321109Y16452015D02*
X-22560000Y16452015D01*
X-22800000Y16692015D02*
X-22800000Y16812015D01*
X-22560000Y12252015D02*
X-22321109Y12252015D01*
X-22800000Y24900000D02*
X-24100000Y26200000D01*
X-22560000Y15852015D02*
X-22321109Y15852015D01*
X-22560000Y17052015D02*
X-22321109Y17052015D01*
X-22800000Y18012015D02*
X-22800000Y20037547D01*
X-22321109Y15252015D02*
X-22560000Y15252015D01*
X-22081109Y16092015D02*
X-22081109Y16212015D01*
X-22081109Y13692015D02*
X-22081109Y13812015D01*
X-22321109Y17652015D02*
X-22560000Y17652015D01*
X-22560000Y14652015D02*
X-22321109Y14652015D01*
X-22560000Y13452015D02*
X-22321109Y13452015D01*
X-22800000Y20037547D02*
X-22800000Y24900000D01*
X-22800000Y17892015D02*
X-22800000Y18012015D01*
X-24100000Y27400000D02*
X-24260000Y27560000D01*
X-22321109Y15852015D02*
G75*
G03*
X-22081115Y16092015I9J239985D01*
G01*
X-22800000Y13212015D02*
G75*
G02*
X-22560000Y13452000I240000J-15D01*
G01*
X-22321109Y17052015D02*
G75*
G03*
X-22081115Y17292015I9J239985D01*
G01*
X-22560000Y17652015D02*
G75*
G02*
X-22799985Y17892015I0J239985D01*
G01*
X-22081109Y16212015D02*
G75*
G03*
X-22321109Y16451991I-239991J-15D01*
G01*
X-22321109Y13452015D02*
G75*
G03*
X-22081115Y13692015I9J239985D01*
G01*
X-22081109Y17412015D02*
G75*
G03*
X-22321109Y17651991I-239991J-15D01*
G01*
X-22081109Y15012015D02*
G75*
G03*
X-22321109Y15251991I-239991J-15D01*
G01*
X-22321109Y14652015D02*
G75*
G03*
X-22081115Y14892015I9J239985D01*
G01*
X-22800000Y12012015D02*
G75*
G02*
X-22560000Y12252000I240000J-15D01*
G01*
X-22081109Y13812015D02*
G75*
G03*
X-22321109Y14051991I-239991J-15D01*
G01*
X-22321109Y12252015D02*
G75*
G03*
X-22081115Y12492015I9J239985D01*
G01*
X-22800000Y14412015D02*
G75*
G02*
X-22560000Y14652000I240000J-15D01*
G01*
X-22081109Y12612015D02*
G75*
G03*
X-22321109Y12851991I-239991J-15D01*
G01*
X-22560000Y12852015D02*
G75*
G02*
X-22799985Y13092015I0J239985D01*
G01*
X-22800000Y15612015D02*
G75*
G02*
X-22560000Y15852000I240000J-15D01*
G01*
X-22560000Y16452015D02*
G75*
G02*
X-22799985Y16692015I0J239985D01*
G01*
X-22560000Y14052015D02*
G75*
G02*
X-22799985Y14292015I0J239985D01*
G01*
X-22560000Y15252015D02*
G75*
G02*
X-22799985Y15492015I0J239985D01*
G01*
X-22800000Y16812015D02*
G75*
G02*
X-22560000Y17052000I240000J-15D01*
G01*
G04 #@! TO.N,/CON.DB7-*
X-41240000Y14680400D02*
X-41499804Y14680400D01*
X-41000000Y19966323D02*
X-41000000Y24900000D01*
X-41499825Y12880400D02*
X-41240000Y12880400D01*
X-41000000Y15520400D02*
X-41000000Y15640400D01*
X-41240000Y12280400D02*
X-41499825Y12280400D01*
X-38700000Y7500000D02*
X-41000000Y9800000D01*
X-42227500Y27027500D02*
X-43310000Y28110000D01*
X-38700000Y6200000D02*
X-38700000Y7500000D01*
X-41000000Y9800000D02*
X-41000000Y12040400D01*
X-41499825Y14080400D02*
X-41240000Y14080400D01*
X-41000000Y24900000D02*
X-42227500Y26127500D01*
X-41000000Y14320400D02*
X-41000000Y14440400D01*
X-41739825Y12520400D02*
X-41739825Y12640400D01*
X-43310000Y28110000D02*
X-43310000Y30294000D01*
X-41499804Y15280400D02*
X-41240000Y15280400D01*
X-42227500Y26127500D02*
X-42227500Y27027500D01*
X-41000000Y15640400D02*
X-41000000Y19966323D01*
X-41739825Y13720400D02*
X-41739825Y13840400D01*
X-41000000Y13120400D02*
X-41000000Y13240400D01*
X-41240000Y13480400D02*
X-41499825Y13480400D01*
X-41739804Y14920400D02*
X-41739804Y15040400D01*
X-41000000Y14440400D02*
G75*
G03*
X-41240000Y14680400I-240000J0D01*
G01*
X-41499804Y14680400D02*
G75*
G02*
X-41739800Y14920400I4J240000D01*
G01*
X-41499825Y12280400D02*
G75*
G02*
X-41739800Y12520400I25J240000D01*
G01*
X-41739825Y12640400D02*
G75*
G02*
X-41499825Y12880425I240025J0D01*
G01*
X-41240000Y12880400D02*
G75*
G03*
X-41000000Y13120400I0J240000D01*
G01*
X-41000000Y13240400D02*
G75*
G03*
X-41240000Y13480400I-240000J0D01*
G01*
X-41240000Y14080400D02*
G75*
G03*
X-41000000Y14320400I0J240000D01*
G01*
X-41240000Y15280400D02*
G75*
G03*
X-41000000Y15520400I0J240000D01*
G01*
X-41739804Y15040400D02*
G75*
G02*
X-41499804Y15280404I240004J0D01*
G01*
X-41000000Y12040400D02*
G75*
G03*
X-41240000Y12280400I-240000J0D01*
G01*
X-41499825Y13480400D02*
G75*
G02*
X-41739800Y13720400I25J240000D01*
G01*
X-41739825Y13840400D02*
G75*
G02*
X-41499825Y14080425I240025J0D01*
G01*
G04 #@! TO.N,/CON.DB1+*
X-45900000Y1800000D02*
X-45900000Y3200000D01*
G04 #@! TO.N,/CON.DP0-*
X-40360000Y13423481D02*
X-40103758Y13423481D01*
X-40600000Y13063481D02*
X-40600000Y13183481D01*
X-40103758Y12823481D02*
X-40360000Y12823481D01*
X-40103758Y17623481D02*
X-40360000Y17623481D01*
X-39863758Y17263481D02*
X-39863758Y17383481D01*
X-41800000Y27300000D02*
X-42040000Y27540000D01*
X-39863758Y14863481D02*
X-39863758Y14983481D01*
X-40360000Y12223481D02*
X-40103758Y12223481D01*
X-40600000Y17863481D02*
X-40600000Y17983481D01*
X-40600000Y14263481D02*
X-40600000Y14383481D01*
X-40360000Y17023481D02*
X-40103758Y17023481D01*
X-40103758Y14023481D02*
X-40360000Y14023481D01*
X-40103758Y16423481D02*
X-40360000Y16423481D01*
X-40600000Y17983481D02*
X-40600000Y19952094D01*
X-40600000Y16663481D02*
X-40600000Y16783481D01*
X-40360000Y15823481D02*
X-40103758Y15823481D01*
X-37900000Y7500000D02*
X-40600000Y10200000D01*
X-40103758Y15223481D02*
X-40360000Y15223481D01*
X-39863758Y12463481D02*
X-39863758Y12583481D01*
X-40600000Y19952094D02*
X-40600000Y25000000D01*
X-40600000Y25000000D02*
X-41800000Y26200000D01*
X-37900000Y6200000D02*
X-37900000Y7500000D01*
X-41800000Y26200000D02*
X-41800000Y27300000D01*
X-39863758Y16063481D02*
X-39863758Y16183481D01*
X-42040000Y27540000D02*
X-42040000Y28389000D01*
X-40360000Y14623481D02*
X-40103758Y14623481D01*
X-40600000Y15463481D02*
X-40600000Y15583481D01*
X-40600000Y10200000D02*
X-40600000Y11983481D01*
X-39863758Y13663481D02*
X-39863758Y13783481D01*
X-40360000Y14023481D02*
G75*
G02*
X-40600019Y14263481I0J240019D01*
G01*
X-40103758Y14623481D02*
G75*
G03*
X-39863781Y14863481I-42J240019D01*
G01*
X-39863758Y12583481D02*
G75*
G03*
X-40103758Y12823542I-240042J19D01*
G01*
X-40360000Y16423481D02*
G75*
G02*
X-40600019Y16663481I0J240019D01*
G01*
X-40103758Y15823481D02*
G75*
G03*
X-39863781Y16063481I-42J240019D01*
G01*
X-40103758Y17023481D02*
G75*
G03*
X-39863781Y17263481I-42J240019D01*
G01*
X-40103758Y13423481D02*
G75*
G03*
X-39863781Y13663481I-42J240019D01*
G01*
X-39863758Y13783481D02*
G75*
G03*
X-40103758Y14023542I-240042J19D01*
G01*
X-39863758Y14983481D02*
G75*
G03*
X-40103758Y15223542I-240042J19D01*
G01*
X-40103758Y12223481D02*
G75*
G03*
X-39863781Y12463481I-42J240019D01*
G01*
X-40600000Y13183481D02*
G75*
G02*
X-40360000Y13423500I240000J19D01*
G01*
X-39863758Y16183481D02*
G75*
G03*
X-40103758Y16423542I-240042J19D01*
G01*
X-40600000Y16783481D02*
G75*
G02*
X-40360000Y17023500I240000J19D01*
G01*
X-40600000Y15583481D02*
G75*
G02*
X-40360000Y15823500I240000J19D01*
G01*
X-39863758Y17383481D02*
G75*
G03*
X-40103758Y17623542I-240042J19D01*
G01*
X-40360000Y12823481D02*
G75*
G02*
X-40600019Y13063481I0J240019D01*
G01*
X-40360000Y15223481D02*
G75*
G02*
X-40600019Y15463481I0J240019D01*
G01*
X-40360000Y17623481D02*
G75*
G02*
X-40600019Y17863481I0J240019D01*
G01*
X-40600000Y11983481D02*
G75*
G02*
X-40360000Y12223500I240000J19D01*
G01*
X-40600000Y14383481D02*
G75*
G02*
X-40360000Y14623500I240000J19D01*
G01*
G04 #@! TO.N,/CON.DB2+*
X-45100000Y1800001D02*
X-45100000Y3200000D01*
G04 #@! TO.N,/CON.DB0+*
X-47500000Y1800000D02*
X-47500000Y3200000D01*
D24*
G04 #@! TO.N,Net-(U1-E0)*
X-62900000Y1700000D02*
X-62150000Y2450000D01*
X-64850001Y2600000D02*
X-64350000Y2600000D01*
X-64350000Y2600000D02*
X-64350000Y2000000D01*
X-64050000Y1700000D02*
X-62900000Y1700000D01*
X-64350000Y2000000D02*
X-64050000Y1700000D01*
X-62150000Y2450000D02*
X-62150000Y3150000D01*
D26*
G04 #@! TO.N,/CON.DB14-*
X-53700000Y20000000D02*
X-53700000Y24900000D01*
X-53940000Y14650364D02*
X-54151446Y14650364D01*
X-54151446Y15250364D02*
X-53940000Y15250364D01*
X-54151431Y12850364D02*
X-53940000Y12850364D01*
X-55000000Y26200000D02*
X-55000000Y27100000D01*
X-54391446Y14890364D02*
X-54391446Y15010364D01*
X-53700000Y10500000D02*
X-53700000Y12010364D01*
X-53940000Y12250364D02*
X-54151431Y12250364D01*
X-54391431Y12490364D02*
X-54391431Y12610364D01*
X-53700000Y14290364D02*
X-53700000Y14410364D01*
X-53940000Y13450364D02*
X-54151441Y13450364D01*
X-53700000Y13090364D02*
X-53700000Y13210364D01*
X-53700000Y24900000D02*
X-55000000Y26200000D01*
X-53700000Y15610364D02*
X-53700000Y20000000D01*
X-55000000Y27100000D02*
X-56010000Y28110000D01*
X-56010000Y28110000D02*
X-56010000Y30294000D01*
X-54391441Y13690364D02*
X-54391441Y13810364D01*
X-50700000Y6199999D02*
X-50700000Y7500000D01*
X-54151441Y14050364D02*
X-53940000Y14050364D01*
X-53700000Y15490364D02*
X-53700000Y15610364D01*
X-50700000Y7500000D02*
X-53700000Y10500000D01*
X-53940000Y14050364D02*
G75*
G03*
X-53699964Y14290364I0J240036D01*
G01*
X-54391446Y15010364D02*
G75*
G02*
X-54151446Y15250446I240046J36D01*
G01*
X-53940000Y12850364D02*
G75*
G03*
X-53699964Y13090364I0J240036D01*
G01*
X-53700000Y13210364D02*
G75*
G03*
X-53940000Y13450400I-240000J36D01*
G01*
X-54391441Y13810364D02*
G75*
G02*
X-54151441Y14050441I240041J36D01*
G01*
X-53700000Y14410364D02*
G75*
G03*
X-53940000Y14650400I-240000J36D01*
G01*
X-54151431Y12250364D02*
G75*
G02*
X-54391436Y12490364I31J240036D01*
G01*
X-54151446Y14650364D02*
G75*
G02*
X-54391436Y14890364I46J240036D01*
G01*
X-53700000Y12010364D02*
G75*
G03*
X-53940000Y12250400I-240000J36D01*
G01*
X-53940000Y15250364D02*
G75*
G03*
X-53699964Y15490364I0J240036D01*
G01*
X-54151441Y13450364D02*
G75*
G02*
X-54391436Y13690364I41J240036D01*
G01*
X-54391431Y12610364D02*
G75*
G02*
X-54151431Y12850431I240031J36D01*
G01*
G04 #@! TO.N,/CON.DB14+*
X-50700000Y1800001D02*
X-50700000Y3200000D01*
G04 #@! TO.N,/CON.DB12+*
X-53100000Y1800000D02*
X-53100000Y3200000D01*
G04 #@! TO.N,/CON.DB12-*
X-56440000Y12240000D02*
X-56641827Y12240000D01*
X-53100000Y7500000D02*
X-56200000Y10600000D01*
X-57500000Y27100000D02*
X-58550000Y28150000D01*
X-56200000Y10600000D02*
X-56200000Y12000000D01*
X-56881827Y12480000D02*
X-56881827Y12600000D01*
X-53100000Y6200000D02*
X-53100000Y7500000D01*
X-56200000Y14280000D02*
X-56200000Y14400000D01*
X-56440000Y13440000D02*
X-56641827Y13440000D01*
X-56440000Y14640000D02*
X-56641827Y14640000D01*
X-56641827Y12840000D02*
X-56440000Y12840000D01*
X-56641827Y14040000D02*
X-56440000Y14040000D01*
X-56200000Y20000000D02*
X-56200000Y24800000D01*
X-56641827Y15240000D02*
X-56440000Y15240000D01*
X-56200000Y15480000D02*
X-56200000Y15600000D01*
X-57500000Y26100000D02*
X-57500000Y27100000D01*
X-56881827Y13680000D02*
X-56881827Y13800000D01*
X-56881827Y14880000D02*
X-56881827Y15000000D01*
X-56200000Y24800000D02*
X-57500000Y26100000D01*
X-58550000Y28150000D02*
X-58550000Y30294000D01*
X-56200000Y15600000D02*
X-56200000Y20000000D01*
X-56200000Y13080000D02*
X-56200000Y13200000D01*
X-56200000Y14400000D02*
G75*
G03*
X-56440000Y14640000I-240000J0D01*
G01*
X-56440000Y12840000D02*
G75*
G03*
X-56200000Y13080000I0J240000D01*
G01*
X-56440000Y14040000D02*
G75*
G03*
X-56200000Y14280000I0J240000D01*
G01*
X-56881827Y13800000D02*
G75*
G02*
X-56641827Y14040027I240027J0D01*
G01*
X-56200000Y13200000D02*
G75*
G03*
X-56440000Y13440000I-240000J0D01*
G01*
X-56200000Y12000000D02*
G75*
G03*
X-56440000Y12240000I-240000J0D01*
G01*
X-56641827Y14640000D02*
G75*
G02*
X-56881800Y14880000I27J240000D01*
G01*
X-56440000Y15240000D02*
G75*
G03*
X-56200000Y15480000I0J240000D01*
G01*
X-56641827Y12240000D02*
G75*
G02*
X-56881800Y12480000I27J240000D01*
G01*
X-56641827Y13440000D02*
G75*
G02*
X-56881800Y13680000I27J240000D01*
G01*
X-56881827Y15000000D02*
G75*
G02*
X-56641827Y15240027I240027J0D01*
G01*
X-56881827Y12600000D02*
G75*
G02*
X-56641827Y12840027I240027J0D01*
G01*
G04 #@! TD*
G04 #@! TA.AperFunction,Conductor*
G04 #@! TO.N,/SHIELD*
G36*
X-3778107Y30499058D02*
G01*
X-3715868Y30486678D01*
X-3698204Y30479362D01*
X-3645433Y30444102D01*
X-3638008Y30438008D01*
X-2961993Y29761993D01*
X-2955899Y29754568D01*
X-2920639Y29701797D01*
X-2913323Y29684134D01*
X-2900942Y29621894D01*
X-2900000Y29612334D01*
X-2900000Y27187667D01*
X-2900942Y27178107D01*
X-2913323Y27115867D01*
X-2920639Y27098204D01*
X-2955899Y27045433D01*
X-2961993Y27038008D01*
X-3638008Y26361993D01*
X-3645433Y26355899D01*
X-3698204Y26320639D01*
X-3715867Y26313323D01*
X-3763568Y26303835D01*
X-3778109Y26300942D01*
X-3787666Y26300000D01*
X-8706108Y26300000D01*
X-8716267Y26301065D01*
X-8782210Y26315040D01*
X-8800781Y26323281D01*
X-8855390Y26362807D01*
X-8862995Y26369626D01*
X-10568171Y28254295D01*
X-10575254Y28264457D01*
X-10612972Y28336560D01*
X-10618537Y28360488D01*
X-10616665Y28435392D01*
X-10609910Y28459019D01*
X-10568637Y28529152D01*
X-10561062Y28538939D01*
X-8661988Y30438013D01*
X-8654575Y30444098D01*
X-8601796Y30479363D01*
X-8584139Y30486677D01*
X-8521883Y30499061D01*
X-8512334Y30500000D01*
X-3787666Y30500000D01*
X-3778107Y30499058D01*
G37*
G04 #@! TD.AperFunction*
G04 #@! TD*
G04 #@! TA.AperFunction,Conductor*
G04 #@! TO.N,GND*
G36*
X-3998800Y33799442D02*
G01*
X-3629980Y33781322D01*
X-3625219Y33780854D01*
X-3261123Y33726846D01*
X-3256433Y33725913D01*
X-2963065Y33652428D01*
X-2899399Y33636480D01*
X-2894797Y33635084D01*
X-2781323Y33594483D01*
X-2548244Y33511085D01*
X-2543817Y33509251D01*
X-2211103Y33351889D01*
X-2206878Y33349632D01*
X-2015692Y33235039D01*
X-1891172Y33160404D01*
X-1887174Y33157732D01*
X-1739367Y33048111D01*
X-1591555Y32938486D01*
X-1587843Y32935440D01*
X-1315133Y32688269D01*
X-1311732Y32684868D01*
X-1064561Y32412158D01*
X-1061511Y32408441D01*
X-842269Y32112827D01*
X-839597Y32108829D01*
X-650374Y31793131D01*
X-648108Y31788890D01*
X-490754Y31456192D01*
X-488913Y31451750D01*
X-364917Y31105204D01*
X-363521Y31100602D01*
X-274091Y30743581D01*
X-273153Y30738865D01*
X-219149Y30374794D01*
X-218678Y30370008D01*
X-200559Y30001201D01*
X-200500Y29998797D01*
X-200500Y21649000D01*
X-214852Y21614352D01*
X-249500Y21600000D01*
X-2500000Y21600000D01*
X-2500000Y12400000D01*
X-249500Y12400000D01*
X-214852Y12385648D01*
X-200500Y12351000D01*
X-200500Y4001204D01*
X-200559Y3998800D01*
X-218678Y3629993D01*
X-219149Y3625207D01*
X-273153Y3261136D01*
X-274091Y3256420D01*
X-363521Y2899399D01*
X-364917Y2894797D01*
X-488913Y2548251D01*
X-490754Y2543809D01*
X-648108Y2211111D01*
X-650374Y2206870D01*
X-839597Y1891172D01*
X-842269Y1887174D01*
X-1061511Y1591560D01*
X-1064561Y1587843D01*
X-1311732Y1315133D01*
X-1315133Y1311732D01*
X-1587843Y1064561D01*
X-1591560Y1061511D01*
X-1887174Y842269D01*
X-1891172Y839597D01*
X-2206870Y650374D01*
X-2211111Y648108D01*
X-2543809Y490754D01*
X-2548251Y488913D01*
X-2894797Y364917D01*
X-2899399Y363521D01*
X-3256420Y274091D01*
X-3261136Y273153D01*
X-3625207Y219149D01*
X-3629993Y218678D01*
X-3998799Y200559D01*
X-4001203Y200500D01*
X-18227296Y200500D01*
X-18261944Y214852D01*
X-18276296Y249500D01*
X-18261944Y284148D01*
X-18252646Y291433D01*
X-18245666Y295653D01*
X-18164815Y344529D01*
X-18044528Y464816D01*
X-17956522Y610395D01*
X-17944868Y647795D01*
X-17905915Y772800D01*
X-17905915Y772803D01*
X-17905914Y772805D01*
X-17899500Y843385D01*
X-17899500Y2756617D01*
X-17905914Y2827197D01*
X-17905915Y2827200D01*
X-17905915Y2827203D01*
X-17956521Y2989605D01*
X-17956521Y2989606D01*
X-18016733Y3089208D01*
X-18023800Y3114558D01*
X-18023800Y3266599D01*
X-18023801Y3266606D01*
X-18049784Y3397231D01*
X-18049787Y3397242D01*
X-18072971Y3453214D01*
X-18100759Y3520301D01*
X-18160506Y3609718D01*
X-18174759Y3631050D01*
X-18268951Y3725242D01*
X-18335338Y3769600D01*
X-18379699Y3799241D01*
X-18379702Y3799243D01*
X-18379703Y3799243D01*
X-18502759Y3850214D01*
X-18502770Y3850217D01*
X-18633395Y3876200D01*
X-18633400Y3876200D01*
X-18766600Y3876200D01*
X-18766606Y3876200D01*
X-18897231Y3850217D01*
X-18897242Y3850214D01*
X-19020299Y3799243D01*
X-19020303Y3799241D01*
X-19072778Y3764178D01*
X-19109560Y3756862D01*
X-19127222Y3764178D01*
X-19179698Y3799241D01*
X-19179702Y3799243D01*
X-19302759Y3850214D01*
X-19302770Y3850217D01*
X-19433395Y3876200D01*
X-19433400Y3876200D01*
X-19566600Y3876200D01*
X-19566606Y3876200D01*
X-19697231Y3850217D01*
X-19697242Y3850214D01*
X-19820298Y3799243D01*
X-19931050Y3725242D01*
X-20025242Y3631050D01*
X-20099243Y3520298D01*
X-20150214Y3397242D01*
X-20150217Y3397231D01*
X-20176200Y3266606D01*
X-20176200Y3114557D01*
X-20183267Y3089207D01*
X-20243479Y2989606D01*
X-20253219Y2958348D01*
X-20277229Y2929539D01*
X-20314578Y2926145D01*
X-20343387Y2950155D01*
X-20346781Y2958348D01*
X-20356522Y2989606D01*
X-20416733Y3089207D01*
X-20423800Y3114557D01*
X-20423800Y3266599D01*
X-20423801Y3266606D01*
X-20449784Y3397231D01*
X-20449787Y3397242D01*
X-20472971Y3453214D01*
X-20500759Y3520301D01*
X-20560506Y3609718D01*
X-20574759Y3631050D01*
X-20668951Y3725242D01*
X-20735338Y3769600D01*
X-20779699Y3799241D01*
X-20779702Y3799243D01*
X-20779703Y3799243D01*
X-20902759Y3850214D01*
X-20902770Y3850217D01*
X-21033395Y3876200D01*
X-21033400Y3876200D01*
X-21166600Y3876200D01*
X-21166606Y3876200D01*
X-21297231Y3850217D01*
X-21297242Y3850214D01*
X-21420299Y3799243D01*
X-21420303Y3799241D01*
X-21472778Y3764178D01*
X-21509560Y3756862D01*
X-21527222Y3764178D01*
X-21579698Y3799241D01*
X-21579702Y3799243D01*
X-21702759Y3850214D01*
X-21702770Y3850217D01*
X-21833395Y3876200D01*
X-21833400Y3876200D01*
X-21966600Y3876200D01*
X-21966606Y3876200D01*
X-22097231Y3850217D01*
X-22097242Y3850214D01*
X-22220298Y3799243D01*
X-22331050Y3725242D01*
X-22425242Y3631050D01*
X-22499243Y3520298D01*
X-22550214Y3397242D01*
X-22550217Y3397231D01*
X-22576200Y3266606D01*
X-22576200Y3114557D01*
X-22583267Y3089207D01*
X-22643479Y2989606D01*
X-22653219Y2958348D01*
X-22677229Y2929539D01*
X-22714578Y2926145D01*
X-22743387Y2950155D01*
X-22746781Y2958348D01*
X-22756522Y2989606D01*
X-22816733Y3089207D01*
X-22823800Y3114557D01*
X-22823800Y3266599D01*
X-22823801Y3266606D01*
X-22849784Y3397231D01*
X-22849787Y3397242D01*
X-22872971Y3453214D01*
X-22900759Y3520301D01*
X-22960506Y3609718D01*
X-22974759Y3631050D01*
X-23068951Y3725242D01*
X-23135338Y3769600D01*
X-23179699Y3799241D01*
X-23179702Y3799243D01*
X-23179703Y3799243D01*
X-23302759Y3850214D01*
X-23302770Y3850217D01*
X-23433395Y3876200D01*
X-23433400Y3876200D01*
X-23566600Y3876200D01*
X-23566606Y3876200D01*
X-23697231Y3850217D01*
X-23697242Y3850214D01*
X-23820299Y3799243D01*
X-23820303Y3799241D01*
X-23872778Y3764178D01*
X-23909560Y3756862D01*
X-23927222Y3764178D01*
X-23979698Y3799241D01*
X-23979702Y3799243D01*
X-24102759Y3850214D01*
X-24102770Y3850217D01*
X-24233395Y3876200D01*
X-24233400Y3876200D01*
X-24366600Y3876200D01*
X-24366606Y3876200D01*
X-24497231Y3850217D01*
X-24497242Y3850214D01*
X-24620298Y3799243D01*
X-24731050Y3725242D01*
X-24825242Y3631050D01*
X-24899243Y3520298D01*
X-24950214Y3397242D01*
X-24950217Y3397231D01*
X-24976200Y3266606D01*
X-24976200Y3114558D01*
X-24983267Y3089208D01*
X-25043479Y2989608D01*
X-25053220Y2958347D01*
X-25077230Y2929538D01*
X-25114580Y2926145D01*
X-25143389Y2950155D01*
X-25146781Y2958346D01*
X-25156522Y2989606D01*
X-25216733Y3089207D01*
X-25223800Y3114557D01*
X-25223800Y3266599D01*
X-25223801Y3266606D01*
X-25249784Y3397231D01*
X-25249787Y3397242D01*
X-25272971Y3453214D01*
X-25300759Y3520301D01*
X-25360506Y3609718D01*
X-25374759Y3631050D01*
X-25468951Y3725242D01*
X-25535338Y3769600D01*
X-25579699Y3799241D01*
X-25579702Y3799243D01*
X-25579703Y3799243D01*
X-25702759Y3850214D01*
X-25702770Y3850217D01*
X-25833395Y3876200D01*
X-25833400Y3876200D01*
X-25966600Y3876200D01*
X-25966606Y3876200D01*
X-26097231Y3850217D01*
X-26097242Y3850214D01*
X-26220299Y3799243D01*
X-26220303Y3799241D01*
X-26272778Y3764178D01*
X-26309560Y3756862D01*
X-26327222Y3764178D01*
X-26379698Y3799241D01*
X-26379702Y3799243D01*
X-26502759Y3850214D01*
X-26502770Y3850217D01*
X-26633395Y3876200D01*
X-26633400Y3876200D01*
X-26766600Y3876200D01*
X-26766606Y3876200D01*
X-26897231Y3850217D01*
X-26897242Y3850214D01*
X-27020298Y3799243D01*
X-27131050Y3725242D01*
X-27225242Y3631050D01*
X-27299243Y3520298D01*
X-27350214Y3397242D01*
X-27350217Y3397231D01*
X-27376200Y3266606D01*
X-27376200Y3114557D01*
X-27383267Y3089207D01*
X-27443479Y2989606D01*
X-27453220Y2958346D01*
X-27477230Y2929536D01*
X-27514579Y2926143D01*
X-27543389Y2950153D01*
X-27546781Y2958343D01*
X-27556523Y2989606D01*
X-27561348Y2997587D01*
X-27616734Y3089207D01*
X-27623801Y3114557D01*
X-27623801Y3130969D01*
X-27623800Y3130990D01*
X-27623800Y3266599D01*
X-27623801Y3266606D01*
X-27649784Y3397229D01*
X-27649786Y3397240D01*
X-27700760Y3520301D01*
X-27774761Y3631052D01*
X-27868948Y3725239D01*
X-27979699Y3799240D01*
X-27979702Y3799242D01*
X-27979703Y3799242D01*
X-28102757Y3850213D01*
X-28102759Y3850214D01*
X-28102760Y3850214D01*
X-28102763Y3850215D01*
X-28102772Y3850217D01*
X-28233395Y3876200D01*
X-28233400Y3876200D01*
X-28366601Y3876200D01*
X-28366607Y3876200D01*
X-28497230Y3850217D01*
X-28497245Y3850213D01*
X-28584258Y3814170D01*
X-28620307Y3799238D01*
X-28664664Y3769600D01*
X-28664664Y3769599D01*
X-28672779Y3764177D01*
X-28709562Y3756862D01*
X-28727224Y3764178D01*
X-28779700Y3799242D01*
X-28902759Y3850214D01*
X-28902770Y3850217D01*
X-29033395Y3876200D01*
X-29033400Y3876200D01*
X-29166600Y3876200D01*
X-29166606Y3876200D01*
X-29297231Y3850217D01*
X-29297242Y3850214D01*
X-29420298Y3799243D01*
X-29531050Y3725242D01*
X-29625242Y3631050D01*
X-29699243Y3520298D01*
X-29750214Y3397242D01*
X-29750217Y3397231D01*
X-29776200Y3266606D01*
X-29776200Y3114557D01*
X-29783267Y3089207D01*
X-29843479Y2989606D01*
X-29853219Y2958348D01*
X-29877229Y2929539D01*
X-29914578Y2926145D01*
X-29943387Y2950155D01*
X-29946781Y2958348D01*
X-29956522Y2989606D01*
X-30016733Y3089207D01*
X-30023800Y3114557D01*
X-30023800Y3266599D01*
X-30023801Y3266606D01*
X-30049784Y3397231D01*
X-30049787Y3397242D01*
X-30072971Y3453214D01*
X-30100759Y3520301D01*
X-30160506Y3609718D01*
X-30174759Y3631050D01*
X-30268951Y3725242D01*
X-30335338Y3769600D01*
X-30379699Y3799241D01*
X-30379702Y3799243D01*
X-30379703Y3799243D01*
X-30502759Y3850214D01*
X-30502770Y3850217D01*
X-30633395Y3876200D01*
X-30633400Y3876200D01*
X-30766600Y3876200D01*
X-30766606Y3876200D01*
X-30897231Y3850217D01*
X-30897242Y3850214D01*
X-31020299Y3799243D01*
X-31020303Y3799241D01*
X-31072778Y3764178D01*
X-31109560Y3756862D01*
X-31127222Y3764178D01*
X-31179698Y3799241D01*
X-31179702Y3799243D01*
X-31302759Y3850214D01*
X-31302770Y3850217D01*
X-31433395Y3876200D01*
X-31433400Y3876200D01*
X-31566600Y3876200D01*
X-31566606Y3876200D01*
X-31697231Y3850217D01*
X-31697242Y3850214D01*
X-31820298Y3799243D01*
X-31931050Y3725242D01*
X-32025242Y3631050D01*
X-32099243Y3520298D01*
X-32150214Y3397242D01*
X-32150217Y3397231D01*
X-32176200Y3266606D01*
X-32176200Y3114557D01*
X-32183267Y3089207D01*
X-32243479Y2989606D01*
X-32253219Y2958348D01*
X-32277229Y2929539D01*
X-32314578Y2926145D01*
X-32343387Y2950155D01*
X-32346781Y2958348D01*
X-32356522Y2989606D01*
X-32416733Y3089207D01*
X-32423800Y3114557D01*
X-32423800Y3266599D01*
X-32423801Y3266606D01*
X-32449784Y3397231D01*
X-32449787Y3397242D01*
X-32472971Y3453214D01*
X-32500759Y3520301D01*
X-32560506Y3609718D01*
X-32574759Y3631050D01*
X-32668951Y3725242D01*
X-32735338Y3769600D01*
X-32779699Y3799241D01*
X-32779702Y3799243D01*
X-32779703Y3799243D01*
X-32902759Y3850214D01*
X-32902770Y3850217D01*
X-33033395Y3876200D01*
X-33033400Y3876200D01*
X-33166600Y3876200D01*
X-33166606Y3876200D01*
X-33297231Y3850217D01*
X-33297242Y3850214D01*
X-33420298Y3799243D01*
X-33531050Y3725242D01*
X-33625242Y3631050D01*
X-33699243Y3520298D01*
X-33750214Y3397242D01*
X-33750217Y3397231D01*
X-33776200Y3266606D01*
X-33776200Y3114557D01*
X-33783267Y3089207D01*
X-33843480Y2989605D01*
X-33843480Y2989604D01*
X-33894086Y2827202D01*
X-33897585Y2788698D01*
X-33900500Y2756616D01*
X-33900500Y843384D01*
X-33899284Y830008D01*
X-33894086Y772799D01*
X-33843480Y610397D01*
X-33843480Y610396D01*
X-33755473Y464816D01*
X-33635185Y344528D01*
X-33547356Y291433D01*
X-33525130Y261226D01*
X-33530773Y224150D01*
X-33560980Y201924D01*
X-33572706Y200500D01*
X-37427294Y200500D01*
X-37461942Y214852D01*
X-37476294Y249500D01*
X-37461942Y284148D01*
X-37452644Y291433D01*
X-37426143Y307455D01*
X-37364815Y344528D01*
X-37244528Y464815D01*
X-37156522Y610394D01*
X-37144868Y647794D01*
X-37105915Y772799D01*
X-37105915Y772802D01*
X-37105914Y772804D01*
X-37099500Y843384D01*
X-37099500Y2756616D01*
X-37105914Y2827196D01*
X-37105915Y2827199D01*
X-37105915Y2827202D01*
X-37156521Y2989604D01*
X-37156521Y2989605D01*
X-37216733Y3089207D01*
X-37223800Y3114557D01*
X-37223800Y3200000D01*
X-36730804Y3200000D01*
X-36709719Y3066874D01*
X-36709719Y3066873D01*
X-36709718Y3066872D01*
X-36705841Y3059263D01*
X-36700500Y3037017D01*
X-36700500Y855142D01*
X-36700499Y855132D01*
X-36697585Y830008D01*
X-36652206Y727234D01*
X-36572767Y647795D01*
X-36469994Y602416D01*
X-36469991Y602415D01*
X-36444865Y599500D01*
X-36155136Y599501D01*
X-36130009Y602415D01*
X-36027235Y647794D01*
X-35947794Y727235D01*
X-35944826Y733959D01*
X-35917703Y759858D01*
X-35880210Y758994D01*
X-35855175Y733960D01*
X-35852206Y727235D01*
X-35772767Y647796D01*
X-35772766Y647796D01*
X-35772765Y647795D01*
X-35669991Y602416D01*
X-35661846Y601472D01*
X-35645252Y596459D01*
X-35633126Y590281D01*
X-35500000Y569196D01*
X-35366874Y590281D01*
X-35354752Y596459D01*
X-35338154Y601472D01*
X-35330009Y602416D01*
X-35227235Y647795D01*
X-35147794Y727236D01*
X-35144826Y733958D01*
X-35117706Y759858D01*
X-35080213Y758995D01*
X-35055177Y733962D01*
X-35052207Y727235D01*
X-34972767Y647795D01*
X-34972766Y647795D01*
X-34972765Y647794D01*
X-34869991Y602415D01*
X-34861844Y601470D01*
X-34845243Y596455D01*
X-34833126Y590281D01*
X-34700000Y569196D01*
X-34566874Y590281D01*
X-34554757Y596456D01*
X-34538155Y601471D01*
X-34530009Y602415D01*
X-34427235Y647794D01*
X-34347794Y727235D01*
X-34302415Y830009D01*
X-34301470Y838158D01*
X-34296455Y854758D01*
X-34290281Y866874D01*
X-34269196Y1000000D01*
X-34290281Y1133126D01*
X-34294161Y1140741D01*
X-34299501Y1162986D01*
X-34299501Y1637015D01*
X-34294160Y1659261D01*
X-34290282Y1666872D01*
X-34290282Y1666873D01*
X-34290281Y1666874D01*
X-34269196Y1800000D01*
X-34290281Y1933126D01*
X-34294161Y1940741D01*
X-34299501Y1962986D01*
X-34299501Y2437015D01*
X-34294160Y2459261D01*
X-34290282Y2466872D01*
X-34290282Y2466873D01*
X-34290281Y2466874D01*
X-34269196Y2600000D01*
X-34290281Y2733126D01*
X-34296459Y2745249D01*
X-34301471Y2761846D01*
X-34302415Y2769991D01*
X-34347794Y2872765D01*
X-34347795Y2872766D01*
X-34347795Y2872767D01*
X-34427234Y2952206D01*
X-34427233Y2952206D01*
X-34511936Y2989605D01*
X-34530009Y2997585D01*
X-34530011Y2997586D01*
X-34530017Y2997587D01*
X-34538161Y2998532D01*
X-34554756Y3003545D01*
X-34566873Y3009719D01*
X-34633437Y3020262D01*
X-34700000Y3030804D01*
X-34700001Y3030804D01*
X-34833123Y3009720D01*
X-34833124Y3009720D01*
X-34845249Y3003543D01*
X-34861839Y2998532D01*
X-34869988Y2997586D01*
X-34869993Y2997585D01*
X-34972767Y2952206D01*
X-35052206Y2872766D01*
X-35052208Y2872765D01*
X-35055176Y2866041D01*
X-35082300Y2840142D01*
X-35119793Y2841010D01*
X-35144825Y2866042D01*
X-35147795Y2872768D01*
X-35227234Y2952207D01*
X-35227233Y2952207D01*
X-35330007Y2997586D01*
X-35330013Y2997588D01*
X-35338163Y2998533D01*
X-35354758Y3003546D01*
X-35366873Y3009719D01*
X-35433437Y3020262D01*
X-35500000Y3030804D01*
X-35500001Y3030804D01*
X-35633126Y3009720D01*
X-35645246Y3003545D01*
X-35661838Y2998533D01*
X-35669987Y2997588D01*
X-35669993Y2997586D01*
X-35772767Y2952207D01*
X-35815852Y2909121D01*
X-35850500Y2894769D01*
X-35885148Y2909121D01*
X-35899500Y2943769D01*
X-35899500Y3037017D01*
X-35894159Y3059263D01*
X-35892064Y3063375D01*
X-35890281Y3066874D01*
X-35869196Y3200000D01*
X-35890281Y3333126D01*
X-35922944Y3397231D01*
X-35951468Y3453214D01*
X-35951473Y3453221D01*
X-36046780Y3548528D01*
X-36046787Y3548533D01*
X-36166872Y3609718D01*
X-36166873Y3609719D01*
X-36166874Y3609719D01*
X-36300000Y3630804D01*
X-36433126Y3609719D01*
X-36433128Y3609719D01*
X-36433129Y3609718D01*
X-36553214Y3548533D01*
X-36553221Y3548528D01*
X-36648528Y3453221D01*
X-36648533Y3453214D01*
X-36709718Y3333129D01*
X-36709719Y3333128D01*
X-36709719Y3333126D01*
X-36730804Y3200000D01*
X-37223800Y3200000D01*
X-37223800Y3266599D01*
X-37223801Y3266606D01*
X-37249784Y3397231D01*
X-37249787Y3397242D01*
X-37272971Y3453214D01*
X-37300759Y3520301D01*
X-37360506Y3609718D01*
X-37374759Y3631050D01*
X-37468951Y3725242D01*
X-37535338Y3769600D01*
X-37579699Y3799241D01*
X-37579702Y3799243D01*
X-37579703Y3799243D01*
X-37702759Y3850214D01*
X-37702770Y3850217D01*
X-37833395Y3876200D01*
X-37833400Y3876200D01*
X-37966600Y3876200D01*
X-37966606Y3876200D01*
X-38097231Y3850217D01*
X-38097242Y3850214D01*
X-38220299Y3799243D01*
X-38220303Y3799241D01*
X-38272778Y3764178D01*
X-38309560Y3756862D01*
X-38327222Y3764178D01*
X-38379698Y3799241D01*
X-38379702Y3799243D01*
X-38502759Y3850214D01*
X-38502770Y3850217D01*
X-38633395Y3876200D01*
X-38633400Y3876200D01*
X-38766600Y3876200D01*
X-38766606Y3876200D01*
X-38897231Y3850217D01*
X-38897242Y3850214D01*
X-39020298Y3799243D01*
X-39131050Y3725242D01*
X-39225242Y3631050D01*
X-39299243Y3520298D01*
X-39350214Y3397242D01*
X-39350217Y3397231D01*
X-39376200Y3266606D01*
X-39376200Y3114557D01*
X-39383267Y3089207D01*
X-39443479Y2989606D01*
X-39453219Y2958348D01*
X-39477229Y2929539D01*
X-39514578Y2926145D01*
X-39543387Y2950155D01*
X-39546781Y2958348D01*
X-39556522Y2989606D01*
X-39616733Y3089207D01*
X-39623800Y3114557D01*
X-39623800Y3266599D01*
X-39623801Y3266606D01*
X-39649784Y3397231D01*
X-39649787Y3397242D01*
X-39672971Y3453214D01*
X-39700759Y3520301D01*
X-39760506Y3609718D01*
X-39774759Y3631050D01*
X-39868951Y3725242D01*
X-39935338Y3769600D01*
X-39979699Y3799241D01*
X-39979702Y3799243D01*
X-39979703Y3799243D01*
X-40102759Y3850214D01*
X-40102770Y3850217D01*
X-40233395Y3876200D01*
X-40233400Y3876200D01*
X-40366600Y3876200D01*
X-40366606Y3876200D01*
X-40497231Y3850217D01*
X-40497242Y3850214D01*
X-40620302Y3799241D01*
X-40672778Y3764178D01*
X-40709561Y3756862D01*
X-40727224Y3764178D01*
X-40759352Y3785645D01*
X-40779698Y3799240D01*
X-40779701Y3799242D01*
X-40830672Y3820354D01*
X-40830673Y3820355D01*
X-40902753Y3850212D01*
X-40902759Y3850214D01*
X-40902760Y3850214D01*
X-40902763Y3850215D01*
X-40902772Y3850217D01*
X-41033395Y3876200D01*
X-41033400Y3876200D01*
X-41166600Y3876200D01*
X-41166606Y3876200D01*
X-41297229Y3850217D01*
X-41297244Y3850213D01*
X-41420298Y3799242D01*
X-41531052Y3725240D01*
X-41625240Y3631052D01*
X-41699242Y3520298D01*
X-41750213Y3397244D01*
X-41750217Y3397229D01*
X-41776200Y3266606D01*
X-41776200Y3130991D01*
X-41776199Y3130970D01*
X-41776199Y3114557D01*
X-41783266Y3089207D01*
X-41843478Y2989606D01*
X-41853219Y2958346D01*
X-41877229Y2929536D01*
X-41914578Y2926143D01*
X-41943388Y2950153D01*
X-41946780Y2958343D01*
X-41956522Y2989606D01*
X-41961347Y2997587D01*
X-42016733Y3089207D01*
X-42023800Y3114557D01*
X-42023800Y3266599D01*
X-42023801Y3266606D01*
X-42049784Y3397231D01*
X-42049787Y3397242D01*
X-42072971Y3453214D01*
X-42100759Y3520301D01*
X-42160506Y3609718D01*
X-42174759Y3631050D01*
X-42268951Y3725242D01*
X-42335338Y3769600D01*
X-42379699Y3799241D01*
X-42379702Y3799243D01*
X-42379703Y3799243D01*
X-42502759Y3850214D01*
X-42502770Y3850217D01*
X-42633395Y3876200D01*
X-42633400Y3876200D01*
X-42766600Y3876200D01*
X-42766606Y3876200D01*
X-42897231Y3850217D01*
X-42897242Y3850214D01*
X-43020299Y3799243D01*
X-43020303Y3799241D01*
X-43072778Y3764178D01*
X-43109560Y3756862D01*
X-43127222Y3764178D01*
X-43179698Y3799241D01*
X-43179702Y3799243D01*
X-43302759Y3850214D01*
X-43302770Y3850217D01*
X-43433395Y3876200D01*
X-43433400Y3876200D01*
X-43566600Y3876200D01*
X-43566606Y3876200D01*
X-43697231Y3850217D01*
X-43697242Y3850214D01*
X-43820298Y3799243D01*
X-43931050Y3725242D01*
X-44025242Y3631050D01*
X-44099243Y3520298D01*
X-44150214Y3397242D01*
X-44150217Y3397231D01*
X-44176200Y3266606D01*
X-44176200Y3114557D01*
X-44183267Y3089207D01*
X-44243479Y2989606D01*
X-44253219Y2958348D01*
X-44277229Y2929539D01*
X-44314578Y2926145D01*
X-44343387Y2950155D01*
X-44346781Y2958349D01*
X-44356521Y2989605D01*
X-44356521Y2989606D01*
X-44416733Y3089208D01*
X-44423800Y3114558D01*
X-44423800Y3266599D01*
X-44423801Y3266606D01*
X-44449784Y3397231D01*
X-44449787Y3397242D01*
X-44472971Y3453214D01*
X-44500759Y3520301D01*
X-44560506Y3609718D01*
X-44574759Y3631050D01*
X-44668951Y3725242D01*
X-44735338Y3769600D01*
X-44779699Y3799241D01*
X-44779702Y3799243D01*
X-44779703Y3799243D01*
X-44902759Y3850214D01*
X-44902770Y3850217D01*
X-45033395Y3876200D01*
X-45033400Y3876200D01*
X-45166600Y3876200D01*
X-45166606Y3876200D01*
X-45297231Y3850217D01*
X-45297242Y3850214D01*
X-45420299Y3799243D01*
X-45420303Y3799241D01*
X-45472778Y3764178D01*
X-45509560Y3756862D01*
X-45527222Y3764178D01*
X-45579698Y3799241D01*
X-45579702Y3799243D01*
X-45702759Y3850214D01*
X-45702770Y3850217D01*
X-45833395Y3876200D01*
X-45833400Y3876200D01*
X-45966600Y3876200D01*
X-45966606Y3876200D01*
X-46097231Y3850217D01*
X-46097242Y3850214D01*
X-46220298Y3799243D01*
X-46331050Y3725242D01*
X-46425242Y3631050D01*
X-46499243Y3520298D01*
X-46550214Y3397242D01*
X-46550217Y3397231D01*
X-46576200Y3266606D01*
X-46576200Y3114557D01*
X-46583267Y3089207D01*
X-46643479Y2989606D01*
X-46653219Y2958348D01*
X-46677229Y2929539D01*
X-46714578Y2926145D01*
X-46743387Y2950155D01*
X-46746781Y2958348D01*
X-46756522Y2989606D01*
X-46816733Y3089207D01*
X-46823800Y3114557D01*
X-46823800Y3266599D01*
X-46823801Y3266606D01*
X-46849784Y3397231D01*
X-46849787Y3397242D01*
X-46872971Y3453214D01*
X-46900759Y3520301D01*
X-46960506Y3609718D01*
X-46974759Y3631050D01*
X-47068951Y3725242D01*
X-47135338Y3769600D01*
X-47179699Y3799241D01*
X-47179702Y3799243D01*
X-47179703Y3799243D01*
X-47302759Y3850214D01*
X-47302770Y3850217D01*
X-47433395Y3876200D01*
X-47433400Y3876200D01*
X-47566600Y3876200D01*
X-47566606Y3876200D01*
X-47697231Y3850217D01*
X-47697242Y3850214D01*
X-47820299Y3799243D01*
X-47820303Y3799241D01*
X-47872778Y3764178D01*
X-47909560Y3756862D01*
X-47927222Y3764178D01*
X-47979698Y3799241D01*
X-47979702Y3799243D01*
X-48102759Y3850214D01*
X-48102770Y3850217D01*
X-48233395Y3876200D01*
X-48233400Y3876200D01*
X-48366600Y3876200D01*
X-48366606Y3876200D01*
X-48497231Y3850217D01*
X-48497242Y3850214D01*
X-48620298Y3799243D01*
X-48731050Y3725242D01*
X-48825242Y3631050D01*
X-48899243Y3520298D01*
X-48950214Y3397242D01*
X-48950217Y3397231D01*
X-48976200Y3266606D01*
X-48976200Y3114557D01*
X-48983267Y3089207D01*
X-49043479Y2989606D01*
X-49053219Y2958348D01*
X-49077229Y2929539D01*
X-49114578Y2926145D01*
X-49143387Y2950155D01*
X-49146781Y2958348D01*
X-49156522Y2989606D01*
X-49216733Y3089207D01*
X-49223800Y3114557D01*
X-49223800Y3266599D01*
X-49223801Y3266606D01*
X-49249784Y3397231D01*
X-49249787Y3397242D01*
X-49272971Y3453214D01*
X-49300759Y3520301D01*
X-49360506Y3609718D01*
X-49374759Y3631050D01*
X-49468951Y3725242D01*
X-49535338Y3769600D01*
X-49579699Y3799241D01*
X-49579702Y3799243D01*
X-49579703Y3799243D01*
X-49702759Y3850214D01*
X-49702770Y3850217D01*
X-49833395Y3876200D01*
X-49833400Y3876200D01*
X-49966600Y3876200D01*
X-49966606Y3876200D01*
X-50097231Y3850217D01*
X-50097242Y3850214D01*
X-50220299Y3799243D01*
X-50220303Y3799241D01*
X-50272778Y3764178D01*
X-50309560Y3756862D01*
X-50327222Y3764178D01*
X-50379698Y3799241D01*
X-50379702Y3799243D01*
X-50502759Y3850214D01*
X-50502770Y3850217D01*
X-50633395Y3876200D01*
X-50633400Y3876200D01*
X-50766600Y3876200D01*
X-50766606Y3876200D01*
X-50897231Y3850217D01*
X-50897242Y3850214D01*
X-51020298Y3799243D01*
X-51131050Y3725242D01*
X-51225242Y3631050D01*
X-51299243Y3520298D01*
X-51350214Y3397242D01*
X-51350217Y3397231D01*
X-51376200Y3266606D01*
X-51376200Y3114558D01*
X-51383267Y3089208D01*
X-51443479Y2989607D01*
X-51453219Y2958350D01*
X-51477229Y2929540D01*
X-51514578Y2926147D01*
X-51543388Y2950157D01*
X-51546781Y2958351D01*
X-51556520Y2989604D01*
X-51556520Y2989605D01*
X-51616732Y3089207D01*
X-51623799Y3114557D01*
X-51623799Y3266596D01*
X-51623799Y3266599D01*
X-51637307Y3334511D01*
X-51649785Y3397240D01*
X-51692557Y3500500D01*
X-51700758Y3520300D01*
X-51772443Y3627584D01*
X-51774760Y3631052D01*
X-51774762Y3631055D01*
X-51868945Y3725237D01*
X-51868946Y3725238D01*
X-51905697Y3749794D01*
X-51927224Y3764178D01*
X-51979698Y3799240D01*
X-51979701Y3799242D01*
X-51979702Y3799242D01*
X-52030672Y3820354D01*
X-52030673Y3820355D01*
X-52102753Y3850212D01*
X-52102759Y3850214D01*
X-52102760Y3850214D01*
X-52102763Y3850215D01*
X-52102772Y3850217D01*
X-52233395Y3876200D01*
X-52233400Y3876200D01*
X-52366600Y3876200D01*
X-52366606Y3876200D01*
X-52497229Y3850217D01*
X-52497244Y3850213D01*
X-52620306Y3799238D01*
X-52672778Y3764178D01*
X-52709560Y3756862D01*
X-52727222Y3764178D01*
X-52779698Y3799241D01*
X-52779702Y3799243D01*
X-52902759Y3850214D01*
X-52902770Y3850217D01*
X-53033395Y3876200D01*
X-53033400Y3876200D01*
X-53166600Y3876200D01*
X-53166606Y3876200D01*
X-53297231Y3850217D01*
X-53297242Y3850214D01*
X-53420298Y3799243D01*
X-53531050Y3725242D01*
X-53625242Y3631050D01*
X-53699243Y3520298D01*
X-53750214Y3397242D01*
X-53750217Y3397231D01*
X-53776200Y3266606D01*
X-53776200Y3114557D01*
X-53783267Y3089207D01*
X-53843480Y2989605D01*
X-53843480Y2989604D01*
X-53894086Y2827202D01*
X-53897585Y2788698D01*
X-53900500Y2756616D01*
X-53900500Y843384D01*
X-53899284Y830008D01*
X-53894086Y772799D01*
X-53843480Y610397D01*
X-53843480Y610396D01*
X-53755473Y464816D01*
X-53635185Y344528D01*
X-53547356Y291433D01*
X-53525130Y261226D01*
X-53530773Y224150D01*
X-53560980Y201924D01*
X-53572706Y200500D01*
X-70998797Y200500D01*
X-71001201Y200559D01*
X-71370008Y218678D01*
X-71374794Y219149D01*
X-71738865Y273153D01*
X-71743581Y274091D01*
X-72100602Y363521D01*
X-72105204Y364917D01*
X-72451750Y488913D01*
X-72456192Y490754D01*
X-72788890Y648108D01*
X-72793131Y650374D01*
X-72832312Y673858D01*
X-72921364Y727234D01*
X-73108829Y839597D01*
X-73112827Y842269D01*
X-73408441Y1061511D01*
X-73412158Y1064561D01*
X-73684868Y1311732D01*
X-73688269Y1315133D01*
X-73935440Y1587843D01*
X-73938490Y1591560D01*
X-73972202Y1637015D01*
X-74053974Y1747272D01*
X-74157732Y1887174D01*
X-74160404Y1891172D01*
X-74234535Y2014852D01*
X-74349632Y2206878D01*
X-74351889Y2211103D01*
X-74509251Y2543817D01*
X-74511088Y2548251D01*
X-74514180Y2556892D01*
X-74625668Y2868481D01*
X-74628891Y2877488D01*
X-65200501Y2877488D01*
X-65200501Y2322512D01*
X-65186148Y2250354D01*
X-65186147Y2250353D01*
X-65131474Y2168528D01*
X-65098699Y2146629D01*
X-65049647Y2113853D01*
X-64977489Y2099500D01*
X-64977486Y2099500D01*
X-64722513Y2099500D01*
X-64709061Y2102176D01*
X-64672278Y2094861D01*
X-64651442Y2063679D01*
X-64650500Y2054118D01*
X-64650500Y1960437D01*
X-64630021Y1884011D01*
X-64630021Y1884009D01*
X-64604454Y1839727D01*
X-64590749Y1815989D01*
X-64590460Y1815489D01*
X-64590458Y1815486D01*
X-64434233Y1659262D01*
X-64290460Y1515489D01*
X-64234511Y1459540D01*
X-64165989Y1419979D01*
X-64130522Y1410476D01*
X-64089564Y1399500D01*
X-64089562Y1399500D01*
X-62860436Y1399500D01*
X-62833770Y1406646D01*
X-62784011Y1419979D01*
X-62715489Y1459540D01*
X-62659540Y1515489D01*
X-61909540Y2265489D01*
X-61889904Y2299500D01*
X-61869979Y2334011D01*
X-61849500Y2410438D01*
X-61849500Y2471689D01*
X-61835148Y2506337D01*
X-61822745Y2515348D01*
X-61711665Y2571946D01*
X-61711663Y2571948D01*
X-61711658Y2571950D01*
X-61683607Y2600001D01*
X-56730804Y2600001D01*
X-56730804Y2600000D01*
X-56709719Y2466874D01*
X-56709719Y2466873D01*
X-56709718Y2466872D01*
X-56705841Y2459263D01*
X-56700500Y2437017D01*
X-56700500Y1962985D01*
X-56705839Y1940742D01*
X-56709720Y1933126D01*
X-56730804Y1800001D01*
X-56730804Y1800000D01*
X-56709719Y1666874D01*
X-56705840Y1659261D01*
X-56700500Y1637017D01*
X-56700500Y1162985D01*
X-56705839Y1140742D01*
X-56709720Y1133126D01*
X-56730804Y1000001D01*
X-56709719Y866873D01*
X-56703544Y854754D01*
X-56698531Y838158D01*
X-56697587Y830015D01*
X-56697585Y830009D01*
X-56652206Y727235D01*
X-56572767Y647796D01*
X-56572766Y647796D01*
X-56572765Y647795D01*
X-56469991Y602416D01*
X-56461846Y601472D01*
X-56445252Y596459D01*
X-56433126Y590281D01*
X-56300000Y569196D01*
X-56166874Y590281D01*
X-56154752Y596459D01*
X-56138154Y601472D01*
X-56130009Y602416D01*
X-56027235Y647795D01*
X-55947794Y727236D01*
X-55944826Y733958D01*
X-55917706Y759858D01*
X-55880213Y758995D01*
X-55855177Y733962D01*
X-55852207Y727235D01*
X-55772767Y647795D01*
X-55669994Y602416D01*
X-55669991Y602415D01*
X-55644865Y599500D01*
X-55355136Y599501D01*
X-55330009Y602415D01*
X-55227235Y647794D01*
X-55147794Y727235D01*
X-55102415Y830009D01*
X-55099500Y855135D01*
X-55099501Y2744864D01*
X-55102415Y2769991D01*
X-55147794Y2872765D01*
X-55147795Y2872766D01*
X-55147795Y2872767D01*
X-55227234Y2952206D01*
X-55227233Y2952206D01*
X-55330007Y2997585D01*
X-55342572Y2999043D01*
X-55355135Y3000500D01*
X-55355137Y3000500D01*
X-55644859Y3000500D01*
X-55644869Y3000499D01*
X-55669993Y2997585D01*
X-55772767Y2952206D01*
X-55852206Y2872766D01*
X-55852208Y2872765D01*
X-55855176Y2866041D01*
X-55882300Y2840142D01*
X-55919793Y2841010D01*
X-55944825Y2866042D01*
X-55947795Y2872768D01*
X-56027234Y2952207D01*
X-56027233Y2952207D01*
X-56130007Y2997586D01*
X-56130013Y2997588D01*
X-56138163Y2998533D01*
X-56154758Y3003546D01*
X-56166873Y3009719D01*
X-56233437Y3020262D01*
X-56300000Y3030804D01*
X-56300001Y3030804D01*
X-56433126Y3009720D01*
X-56445246Y3003545D01*
X-56461838Y2998533D01*
X-56469987Y2997588D01*
X-56469993Y2997586D01*
X-56572767Y2952207D01*
X-56652206Y2872768D01*
X-56697585Y2769992D01*
X-56697587Y2769986D01*
X-56698532Y2761840D01*
X-56703544Y2745248D01*
X-56709720Y2733126D01*
X-56730804Y2600001D01*
X-61683607Y2600001D01*
X-61621950Y2661658D01*
X-61585535Y2733126D01*
X-61564356Y2774691D01*
X-61564356Y2774693D01*
X-61564354Y2774696D01*
X-61549500Y2868481D01*
X-61549501Y3431518D01*
X-61564354Y3525304D01*
X-61576190Y3548533D01*
X-61621946Y3638336D01*
X-61621951Y3638343D01*
X-61711658Y3728050D01*
X-61711665Y3728055D01*
X-61824692Y3785645D01*
X-61824695Y3785646D01*
X-61824696Y3785646D01*
X-61918481Y3800500D01*
X-61918483Y3800500D01*
X-62381518Y3800500D01*
X-62475304Y3785647D01*
X-62588336Y3728055D01*
X-62588343Y3728050D01*
X-62678050Y3638343D01*
X-62678055Y3638336D01*
X-62735645Y3525310D01*
X-62735645Y3525308D01*
X-62735646Y3525306D01*
X-62735646Y3525304D01*
X-62744009Y3472501D01*
X-62750500Y3431518D01*
X-62750500Y2868483D01*
X-62735647Y2774697D01*
X-62678055Y2661665D01*
X-62678050Y2661658D01*
X-62588343Y2571951D01*
X-62588336Y2571946D01*
X-62558791Y2556892D01*
X-62534434Y2528375D01*
X-62537377Y2490988D01*
X-62546388Y2478585D01*
X-63010119Y2014852D01*
X-63044767Y2000500D01*
X-63905233Y2000500D01*
X-63939881Y2014852D01*
X-64035148Y2110119D01*
X-64049500Y2144767D01*
X-64049500Y2182142D01*
X-64041241Y2209366D01*
X-64013854Y2250353D01*
X-64013855Y2250353D01*
X-64013853Y2250354D01*
X-63999500Y2322512D01*
X-63999500Y2877488D01*
X-64013853Y2949646D01*
X-64049866Y3003543D01*
X-64068528Y3031473D01*
X-64121510Y3066874D01*
X-64150354Y3086147D01*
X-64222512Y3100500D01*
X-64477488Y3100500D01*
X-64534257Y3089208D01*
X-64549646Y3086147D01*
X-64572779Y3070690D01*
X-64609561Y3063375D01*
X-64627224Y3070691D01*
X-64650355Y3086147D01*
X-64722513Y3100500D01*
X-64977489Y3100500D01*
X-65034258Y3089208D01*
X-65049647Y3086147D01*
X-65131474Y3031473D01*
X-65180334Y2958347D01*
X-65186148Y2949646D01*
X-65200501Y2877488D01*
X-74628891Y2877488D01*
X-74635084Y2894797D01*
X-74636480Y2899399D01*
X-74659076Y2989608D01*
X-74725913Y3256433D01*
X-74726846Y3261123D01*
X-74780854Y3625219D01*
X-74781322Y3629980D01*
X-74799441Y3998800D01*
X-74799500Y4001204D01*
X-74799500Y4071652D01*
X-60327500Y4071652D01*
X-60327500Y3928348D01*
X-60317127Y3876200D01*
X-60299544Y3787799D01*
X-60299542Y3787793D01*
X-60253280Y3676107D01*
X-60244702Y3655400D01*
X-60165086Y3536246D01*
X-60063754Y3434914D01*
X-59944600Y3355298D01*
X-59812204Y3300457D01*
X-59671652Y3272500D01*
X-59671649Y3272500D01*
X-59528351Y3272500D01*
X-59528348Y3272500D01*
X-59387796Y3300457D01*
X-59255400Y3355298D01*
X-59136246Y3434914D01*
X-59034914Y3536246D01*
X-58955298Y3655400D01*
X-58900457Y3787796D01*
X-58872500Y3928348D01*
X-58872500Y4069451D01*
X-15927500Y4069451D01*
X-15927500Y3930550D01*
X-15891553Y3796395D01*
X-15891552Y3796391D01*
X-15822105Y3676107D01*
X-15723893Y3577895D01*
X-15679867Y3552477D01*
X-15603610Y3508449D01*
X-15603608Y3508449D01*
X-15603607Y3508448D01*
X-15497801Y3480098D01*
X-15469451Y3472501D01*
X-15469450Y3472500D01*
X-15469447Y3472500D01*
X-15330550Y3472500D01*
X-15330550Y3472501D01*
X-15196393Y3508448D01*
X-15076107Y3577895D01*
X-14977895Y3676107D01*
X-14908448Y3796393D01*
X-14872501Y3930550D01*
X-14872500Y3930550D01*
X-14872500Y4069450D01*
X-14872501Y4069451D01*
X-14908448Y4203606D01*
X-14908449Y4203610D01*
X-14977896Y4323894D01*
X-15076107Y4422105D01*
X-15196391Y4491552D01*
X-15196395Y4491553D01*
X-15330550Y4527500D01*
X-15330553Y4527500D01*
X-15469447Y4527500D01*
X-15469450Y4527500D01*
X-15603606Y4491553D01*
X-15603610Y4491552D01*
X-15723894Y4422105D01*
X-15723894Y4422104D01*
X-15822104Y4323894D01*
X-15822105Y4323894D01*
X-15891552Y4203610D01*
X-15891553Y4203606D01*
X-15927500Y4069451D01*
X-58872500Y4069451D01*
X-58872500Y4071652D01*
X-58900457Y4212204D01*
X-58955298Y4344600D01*
X-59034914Y4463754D01*
X-59136246Y4565086D01*
X-59255400Y4644702D01*
X-59255403Y4644704D01*
X-59255404Y4644704D01*
X-59387793Y4699542D01*
X-59387799Y4699544D01*
X-59444480Y4710818D01*
X-59528348Y4727500D01*
X-59671652Y4727500D01*
X-59741606Y4713586D01*
X-59812202Y4699544D01*
X-59812208Y4699542D01*
X-59944597Y4644704D01*
X-60063754Y4565087D01*
X-60165087Y4463754D01*
X-60244704Y4344597D01*
X-60299542Y4212208D01*
X-60299544Y4212202D01*
X-60302070Y4199501D01*
X-60327500Y4071652D01*
X-74799500Y4071652D01*
X-74799500Y5131518D01*
X-66650500Y5131518D01*
X-66650500Y4568483D01*
X-66635647Y4474697D01*
X-66578055Y4361665D01*
X-66578050Y4361658D01*
X-66488343Y4271951D01*
X-66488336Y4271946D01*
X-66375309Y4214356D01*
X-66375308Y4214356D01*
X-66375304Y4214354D01*
X-66281519Y4199500D01*
X-65818482Y4199501D01*
X-65724696Y4214354D01*
X-65663613Y4245478D01*
X-65611665Y4271946D01*
X-65611663Y4271948D01*
X-65611658Y4271950D01*
X-65521950Y4361658D01*
X-65491151Y4422104D01*
X-65464356Y4474691D01*
X-65464356Y4474693D01*
X-65464354Y4474696D01*
X-65449500Y4568481D01*
X-65449501Y4934523D01*
X-65435149Y4969170D01*
X-65369170Y5035148D01*
X-65334522Y5049500D01*
X-65211768Y5049500D01*
X-65177120Y5035148D01*
X-65171026Y5027723D01*
X-65131474Y4968528D01*
X-65110955Y4954818D01*
X-65049647Y4913853D01*
X-64977489Y4899500D01*
X-64977486Y4899500D01*
X-64722516Y4899500D01*
X-64722513Y4899500D01*
X-64650355Y4913853D01*
X-64568529Y4968528D01*
X-64513854Y5050354D01*
X-64499501Y5122512D01*
X-64499501Y5677488D01*
X-64200500Y5677488D01*
X-64200500Y5122512D01*
X-64186147Y5050354D01*
X-64171025Y5027723D01*
X-64131473Y4968528D01*
X-64110954Y4954818D01*
X-64049646Y4913853D01*
X-63977488Y4899500D01*
X-63977485Y4899500D01*
X-63722515Y4899500D01*
X-63722512Y4899500D01*
X-63650354Y4913853D01*
X-63627223Y4929310D01*
X-63590443Y4936627D01*
X-63572776Y4929309D01*
X-63549647Y4913854D01*
X-63549645Y4913853D01*
X-63477487Y4899500D01*
X-63477484Y4899500D01*
X-63222514Y4899500D01*
X-63222511Y4899500D01*
X-63150353Y4913853D01*
X-63068527Y4968528D01*
X-63013852Y5050354D01*
X-62999499Y5122512D01*
X-62999499Y5131518D01*
X-62750500Y5131518D01*
X-62750500Y4568483D01*
X-62735647Y4474697D01*
X-62678055Y4361665D01*
X-62678050Y4361658D01*
X-62588343Y4271951D01*
X-62588336Y4271946D01*
X-62475309Y4214356D01*
X-62475308Y4214356D01*
X-62475304Y4214354D01*
X-62381519Y4199500D01*
X-61918482Y4199501D01*
X-61824696Y4214354D01*
X-61763613Y4245478D01*
X-61711665Y4271946D01*
X-61711663Y4271948D01*
X-61711658Y4271950D01*
X-61621950Y4361658D01*
X-61591151Y4422104D01*
X-61564356Y4474691D01*
X-61564356Y4474693D01*
X-61564354Y4474696D01*
X-61549500Y4568481D01*
X-61549501Y5131518D01*
X-61564354Y5225304D01*
X-61576102Y5248361D01*
X-61621946Y5338336D01*
X-61621951Y5338343D01*
X-61711658Y5428050D01*
X-61711665Y5428055D01*
X-61824692Y5485645D01*
X-61824695Y5485646D01*
X-61824696Y5485646D01*
X-61918481Y5500500D01*
X-61918483Y5500500D01*
X-62381518Y5500500D01*
X-62475304Y5485647D01*
X-62588336Y5428055D01*
X-62588343Y5428050D01*
X-62678050Y5338343D01*
X-62678055Y5338336D01*
X-62735645Y5225310D01*
X-62735645Y5225308D01*
X-62735646Y5225306D01*
X-62735646Y5225304D01*
X-62750114Y5133957D01*
X-62750500Y5131518D01*
X-62999499Y5131518D01*
X-62999499Y5677488D01*
X-63013852Y5749646D01*
X-63013853Y5749648D01*
X-63041241Y5790638D01*
X-63049499Y5817860D01*
X-63049499Y7305234D01*
X-63035147Y7339882D01*
X-62789881Y7585148D01*
X-62755233Y7599500D01*
X-62721544Y7599500D01*
X-62686896Y7585148D01*
X-62653221Y7551473D01*
X-62653214Y7551468D01*
X-62580770Y7514557D01*
X-62533126Y7490281D01*
X-62400000Y7469196D01*
X-62266874Y7490281D01*
X-62183580Y7532722D01*
X-62146787Y7551468D01*
X-62146785Y7551470D01*
X-62146780Y7551472D01*
X-62113104Y7585148D01*
X-62078456Y7599500D01*
X-56844767Y7599500D01*
X-56810119Y7585148D01*
X-56614852Y7389881D01*
X-56600500Y7355233D01*
X-56600500Y7344767D01*
X-56614852Y7310119D01*
X-56652206Y7272766D01*
X-56697585Y7169993D01*
X-56700500Y7144865D01*
X-56700500Y5255141D01*
X-56700499Y5255131D01*
X-56697585Y5230007D01*
X-56652206Y5127233D01*
X-56572767Y5047794D01*
X-56469994Y5002415D01*
X-56469991Y5002414D01*
X-56444865Y4999499D01*
X-56155136Y4999500D01*
X-56130009Y5002414D01*
X-56027235Y5047793D01*
X-55947794Y5127234D01*
X-55944826Y5133958D01*
X-55917703Y5159857D01*
X-55880210Y5158993D01*
X-55855175Y5133959D01*
X-55852206Y5127234D01*
X-55772767Y5047795D01*
X-55772766Y5047795D01*
X-55772765Y5047794D01*
X-55758861Y5041655D01*
X-55669994Y5002416D01*
X-55669991Y5002415D01*
X-55644865Y4999500D01*
X-55355136Y4999501D01*
X-55330009Y5002415D01*
X-55227235Y5047794D01*
X-55147794Y5127235D01*
X-55102415Y5230009D01*
X-55099500Y5255135D01*
X-55099501Y7144864D01*
X-55102415Y7169991D01*
X-55147794Y7272765D01*
X-55147795Y7272766D01*
X-55147795Y7272767D01*
X-55185148Y7310120D01*
X-55199500Y7344768D01*
X-55199500Y7539564D01*
X-55206581Y7565988D01*
X-55206581Y7565989D01*
X-55219978Y7615989D01*
X-55219979Y7615990D01*
X-55259541Y7684512D01*
X-56315489Y8740460D01*
X-56337590Y8753220D01*
X-56384010Y8780021D01*
X-56460436Y8800500D01*
X-56460438Y8800500D01*
X-62678456Y8800500D01*
X-62713104Y8814852D01*
X-62746780Y8848528D01*
X-62746787Y8848533D01*
X-62866872Y8909718D01*
X-62866873Y8909719D01*
X-62866874Y8909719D01*
X-63000000Y8930804D01*
X-63133126Y8909719D01*
X-63133128Y8909719D01*
X-63133129Y8909718D01*
X-63253214Y8848533D01*
X-63253221Y8848528D01*
X-63348528Y8753221D01*
X-63348533Y8753214D01*
X-63409718Y8633130D01*
X-63429411Y8508795D01*
X-63443160Y8481813D01*
X-64034511Y7890460D01*
X-64090459Y7834512D01*
X-64090460Y7834512D01*
X-64130021Y7765992D01*
X-64130021Y7765990D01*
X-64150500Y7689564D01*
X-64150500Y5817860D01*
X-64158758Y5790638D01*
X-64186147Y5749648D01*
X-64186147Y5749646D01*
X-64200500Y5677488D01*
X-64499501Y5677488D01*
X-64513854Y5749646D01*
X-64549501Y5802995D01*
X-64568529Y5831473D01*
X-64617581Y5864248D01*
X-64650355Y5886147D01*
X-64722513Y5900500D01*
X-64977489Y5900500D01*
X-65049647Y5886147D01*
X-65131474Y5831473D01*
X-65171026Y5772277D01*
X-65202208Y5751442D01*
X-65211768Y5750500D01*
X-65546147Y5750500D01*
X-65635287Y5726615D01*
X-65635290Y5726614D01*
X-65715214Y5680469D01*
X-65880831Y5514852D01*
X-65915479Y5500500D01*
X-66281518Y5500500D01*
X-66375304Y5485647D01*
X-66488336Y5428055D01*
X-66488343Y5428050D01*
X-66578050Y5338343D01*
X-66578055Y5338336D01*
X-66635645Y5225310D01*
X-66635645Y5225308D01*
X-66635646Y5225306D01*
X-66635646Y5225304D01*
X-66650114Y5133957D01*
X-66650500Y5131518D01*
X-74799500Y5131518D01*
X-74799500Y10966606D01*
X-73667500Y10966606D01*
X-73667500Y10773394D01*
X-73663919Y10750787D01*
X-73637276Y10582563D01*
X-73637275Y10582560D01*
X-73577570Y10398805D01*
X-73489851Y10226648D01*
X-73489849Y10226645D01*
X-73447592Y10168483D01*
X-73379453Y10074697D01*
X-73376284Y10070336D01*
X-73376280Y10070331D01*
X-73239669Y9933720D01*
X-73239665Y9933717D01*
X-73239663Y9933715D01*
X-73154651Y9871951D01*
X-73091806Y9826291D01*
X-73083350Y9820148D01*
X-72911197Y9732431D01*
X-72727440Y9672725D01*
X-72536606Y9642500D01*
X-72536605Y9642500D01*
X-72343395Y9642500D01*
X-72343394Y9642500D01*
X-72152560Y9672725D01*
X-71968803Y9732431D01*
X-71796650Y9820148D01*
X-71640337Y9933715D01*
X-71640334Y9933719D01*
X-71640331Y9933720D01*
X-71503720Y10070331D01*
X-71503719Y10070334D01*
X-71503715Y10070337D01*
X-71390148Y10226650D01*
X-71302431Y10398803D01*
X-71242725Y10582560D01*
X-71219132Y10731518D01*
X-67800500Y10731518D01*
X-67800500Y10168483D01*
X-67785647Y10074697D01*
X-67728055Y9961665D01*
X-67728050Y9961658D01*
X-67638343Y9871951D01*
X-67638336Y9871946D01*
X-67525309Y9814356D01*
X-67525308Y9814356D01*
X-67525304Y9814354D01*
X-67431519Y9799500D01*
X-66968482Y9799501D01*
X-66874696Y9814354D01*
X-66811435Y9846587D01*
X-66761665Y9871946D01*
X-66761663Y9871948D01*
X-66761658Y9871950D01*
X-66671950Y9961658D01*
X-66671946Y9961665D01*
X-66614356Y10074691D01*
X-66614356Y10074693D01*
X-66614354Y10074696D01*
X-66599500Y10168481D01*
X-66599501Y10731518D01*
X-66614354Y10825304D01*
X-66618016Y10832491D01*
X-66671946Y10938336D01*
X-66671951Y10938343D01*
X-66761658Y11028050D01*
X-66761665Y11028055D01*
X-66874692Y11085645D01*
X-66874695Y11085646D01*
X-66874696Y11085646D01*
X-66968481Y11100500D01*
X-66968483Y11100500D01*
X-67431518Y11100500D01*
X-67525304Y11085647D01*
X-67638336Y11028055D01*
X-67638343Y11028050D01*
X-67728050Y10938343D01*
X-67728055Y10938336D01*
X-67785645Y10825310D01*
X-67785645Y10825308D01*
X-67785646Y10825306D01*
X-67785646Y10825304D01*
X-67795080Y10765739D01*
X-67800500Y10731518D01*
X-71219132Y10731518D01*
X-71212500Y10773394D01*
X-71212500Y10966606D01*
X-71242725Y11157440D01*
X-71302431Y11341197D01*
X-71390148Y11513350D01*
X-71396132Y11521586D01*
X-71444069Y11587567D01*
X-71503715Y11669663D01*
X-71503717Y11669665D01*
X-71503720Y11669669D01*
X-71640331Y11806280D01*
X-71640336Y11806284D01*
X-71641326Y11807003D01*
X-71703885Y11852455D01*
X-71796645Y11919849D01*
X-71796648Y11919851D01*
X-71968805Y12007570D01*
X-72152560Y12067275D01*
X-72152563Y12067276D01*
X-72304564Y12091350D01*
X-72343394Y12097500D01*
X-72536606Y12097500D01*
X-72572518Y12091813D01*
X-72727438Y12067276D01*
X-72727441Y12067275D01*
X-72911196Y12007570D01*
X-73083353Y11919851D01*
X-73083356Y11919849D01*
X-73239665Y11806284D01*
X-73376284Y11669665D01*
X-73489849Y11513356D01*
X-73489851Y11513353D01*
X-73577570Y11341196D01*
X-73637275Y11157441D01*
X-73637276Y11157438D01*
X-73665364Y10980092D01*
X-73667500Y10966606D01*
X-74799500Y10966606D01*
X-74799500Y12200000D01*
X-71030322Y12200000D01*
X-71011077Y11992308D01*
X-71011077Y11992305D01*
X-71011076Y11992304D01*
X-70990462Y11919852D01*
X-70953994Y11791681D01*
X-70861021Y11604965D01*
X-70861020Y11604963D01*
X-70861019Y11604962D01*
X-70841340Y11578903D01*
X-70735321Y11438510D01*
X-70735318Y11438507D01*
X-70581176Y11297988D01*
X-70581175Y11297987D01*
X-70581171Y11297984D01*
X-70403828Y11188177D01*
X-70209327Y11112827D01*
X-70004293Y11074500D01*
X-70004291Y11074500D01*
X-69795709Y11074500D01*
X-69795707Y11074500D01*
X-69590673Y11112827D01*
X-69396172Y11188177D01*
X-69218829Y11297984D01*
X-69064682Y11438507D01*
X-68938981Y11604962D01*
X-68846006Y11791681D01*
X-68825456Y11863911D01*
X-68802170Y11893307D01*
X-68778326Y11899500D01*
X-67847262Y11899500D01*
X-67812614Y11885148D01*
X-67798865Y11858164D01*
X-67785647Y11774697D01*
X-67728055Y11661665D01*
X-67728050Y11661658D01*
X-67638343Y11571951D01*
X-67638336Y11571946D01*
X-67525309Y11514356D01*
X-67525308Y11514356D01*
X-67525304Y11514354D01*
X-67431519Y11499500D01*
X-66968482Y11499501D01*
X-66874696Y11514354D01*
X-66779484Y11562867D01*
X-66761665Y11571946D01*
X-66761663Y11571948D01*
X-66761658Y11571950D01*
X-66671950Y11661658D01*
X-66671946Y11661665D01*
X-66614356Y11774691D01*
X-66614356Y11774693D01*
X-66614354Y11774696D01*
X-66599500Y11868481D01*
X-66599501Y12431518D01*
X-66614354Y12525304D01*
X-66642632Y12580803D01*
X-66671946Y12638336D01*
X-66671951Y12638343D01*
X-66761658Y12728050D01*
X-66761665Y12728055D01*
X-66874692Y12785645D01*
X-66874695Y12785646D01*
X-66874696Y12785646D01*
X-66968481Y12800500D01*
X-66968483Y12800500D01*
X-67431518Y12800500D01*
X-67525304Y12785647D01*
X-67638336Y12728055D01*
X-67638343Y12728050D01*
X-67728050Y12638343D01*
X-67728054Y12638338D01*
X-67784653Y12527254D01*
X-67813170Y12502898D01*
X-67828312Y12500500D01*
X-68778326Y12500500D01*
X-68812974Y12514852D01*
X-68825455Y12536090D01*
X-68846006Y12608319D01*
X-68938981Y12795038D01*
X-69064682Y12961493D01*
X-69070143Y12966471D01*
X-69218825Y13102013D01*
X-69218828Y13102015D01*
X-69218829Y13102016D01*
X-69396172Y13211823D01*
X-69396175Y13211824D01*
X-69396176Y13211825D01*
X-69590667Y13287171D01*
X-69590669Y13287172D01*
X-69590673Y13287173D01*
X-69795707Y13325500D01*
X-70004293Y13325500D01*
X-70209327Y13287173D01*
X-70209331Y13287172D01*
X-70209334Y13287171D01*
X-70403825Y13211825D01*
X-70581176Y13102013D01*
X-70735318Y12961494D01*
X-70735321Y12961491D01*
X-70861018Y12795040D01*
X-70861021Y12795036D01*
X-70953994Y12608320D01*
X-71011077Y12407693D01*
X-71030322Y12200000D01*
X-74799500Y12200000D01*
X-74799500Y16010000D01*
X-73570322Y16010000D01*
X-73551077Y15802308D01*
X-73551077Y15802305D01*
X-73551076Y15802304D01*
X-73507830Y15650311D01*
X-73493994Y15601681D01*
X-73401021Y15414965D01*
X-73401018Y15414961D01*
X-73275321Y15248510D01*
X-73275318Y15248507D01*
X-73121176Y15107988D01*
X-73121175Y15107987D01*
X-73121171Y15107984D01*
X-72943828Y14998177D01*
X-72749327Y14922827D01*
X-72544293Y14884500D01*
X-72544291Y14884500D01*
X-72335709Y14884500D01*
X-72335707Y14884500D01*
X-72130673Y14922827D01*
X-71936172Y14998177D01*
X-71758829Y15107984D01*
X-71604682Y15248507D01*
X-71478981Y15414962D01*
X-71386006Y15601681D01*
X-71328924Y15802304D01*
X-71309678Y16010000D01*
X-71328924Y16217696D01*
X-71386006Y16418319D01*
X-71478981Y16605038D01*
X-71553348Y16703516D01*
X-71604680Y16771491D01*
X-71604683Y16771494D01*
X-71758825Y16912013D01*
X-71758828Y16912015D01*
X-71758829Y16912016D01*
X-71936172Y17021823D01*
X-71936175Y17021824D01*
X-71936176Y17021825D01*
X-72130667Y17097171D01*
X-72130669Y17097172D01*
X-72130673Y17097173D01*
X-72335707Y17135500D01*
X-72544293Y17135500D01*
X-72749327Y17097173D01*
X-72749331Y17097172D01*
X-72749334Y17097171D01*
X-72943825Y17021825D01*
X-73121176Y16912013D01*
X-73275318Y16771494D01*
X-73275321Y16771491D01*
X-73401018Y16605040D01*
X-73401021Y16605036D01*
X-73493994Y16418320D01*
X-73551077Y16217693D01*
X-73570322Y16010000D01*
X-74799500Y16010000D01*
X-74799500Y17452347D01*
X-71327500Y17452347D01*
X-71327500Y17227653D01*
X-71322157Y17193917D01*
X-71292351Y17005729D01*
X-71292350Y17005726D01*
X-71233728Y16825304D01*
X-71222916Y16792030D01*
X-71120907Y16591827D01*
X-70990859Y16412831D01*
X-70988835Y16410045D01*
X-70988831Y16410040D01*
X-70829960Y16251169D01*
X-70829956Y16251166D01*
X-70829954Y16251164D01*
X-70648173Y16119093D01*
X-70447970Y16017084D01*
X-70234274Y15947650D01*
X-70164842Y15936653D01*
X-70152240Y15934657D01*
X-70120263Y15915062D01*
X-70111508Y15878595D01*
X-70131103Y15846618D01*
X-70150899Y15838096D01*
X-70209327Y15827173D01*
X-70209331Y15827172D01*
X-70209334Y15827171D01*
X-70403825Y15751825D01*
X-70581176Y15642013D01*
X-70735318Y15501494D01*
X-70735321Y15501491D01*
X-70861018Y15335040D01*
X-70861021Y15335036D01*
X-70953994Y15148320D01*
X-71011077Y14947693D01*
X-71030322Y14740000D01*
X-71011077Y14532308D01*
X-71011077Y14532305D01*
X-71011076Y14532304D01*
X-70966233Y14374696D01*
X-70953994Y14331681D01*
X-70861021Y14144965D01*
X-70861018Y14144961D01*
X-70735321Y13978510D01*
X-70735318Y13978507D01*
X-70581176Y13837988D01*
X-70581175Y13837987D01*
X-70581171Y13837984D01*
X-70403828Y13728177D01*
X-70209327Y13652827D01*
X-70004293Y13614500D01*
X-70004291Y13614500D01*
X-69795709Y13614500D01*
X-69795707Y13614500D01*
X-69590673Y13652827D01*
X-69396172Y13728177D01*
X-69218829Y13837984D01*
X-69064682Y13978507D01*
X-68938981Y14144962D01*
X-68846006Y14331681D01*
X-68822611Y14413911D01*
X-68799325Y14443307D01*
X-68775481Y14449500D01*
X-67839344Y14449500D01*
X-67804696Y14435148D01*
X-67790947Y14408165D01*
X-67785647Y14374696D01*
X-67728055Y14261665D01*
X-67728050Y14261658D01*
X-67638343Y14171951D01*
X-67638336Y14171946D01*
X-67525309Y14114356D01*
X-67525308Y14114356D01*
X-67525304Y14114354D01*
X-67431519Y14099500D01*
X-66968482Y14099501D01*
X-66874696Y14114354D01*
X-66778638Y14163298D01*
X-66761665Y14171946D01*
X-66761663Y14171948D01*
X-66761658Y14171950D01*
X-66671950Y14261658D01*
X-66671946Y14261665D01*
X-66614356Y14374691D01*
X-66614356Y14374693D01*
X-66614354Y14374696D01*
X-66599500Y14468481D01*
X-66599501Y15031518D01*
X-66614354Y15125304D01*
X-66626084Y15148325D01*
X-66671946Y15238336D01*
X-66671951Y15238343D01*
X-66761658Y15328050D01*
X-66761665Y15328055D01*
X-66874692Y15385645D01*
X-66874695Y15385646D01*
X-66874696Y15385646D01*
X-66968481Y15400500D01*
X-66968483Y15400500D01*
X-67431518Y15400500D01*
X-67525304Y15385647D01*
X-67638336Y15328055D01*
X-67638343Y15328050D01*
X-67728050Y15238343D01*
X-67728055Y15238336D01*
X-67785645Y15125310D01*
X-67785645Y15125308D01*
X-67785646Y15125306D01*
X-67785646Y15125304D01*
X-67788389Y15107984D01*
X-67790947Y15091834D01*
X-67810543Y15059858D01*
X-67839344Y15050500D01*
X-68781171Y15050500D01*
X-68815819Y15064852D01*
X-68828300Y15086090D01*
X-68846006Y15148318D01*
X-68846007Y15148320D01*
X-68938981Y15335038D01*
X-69064682Y15501493D01*
X-69064683Y15501494D01*
X-69218825Y15642013D01*
X-69218828Y15642015D01*
X-69218829Y15642016D01*
X-69396172Y15751823D01*
X-69396175Y15751824D01*
X-69396176Y15751825D01*
X-69590667Y15827171D01*
X-69590669Y15827172D01*
X-69590673Y15827173D01*
X-69649102Y15838096D01*
X-69680521Y15858568D01*
X-69688262Y15895264D01*
X-69667788Y15926685D01*
X-69647762Y15934657D01*
X-69565726Y15947650D01*
X-69352030Y16017084D01*
X-69151827Y16119093D01*
X-68970046Y16251164D01*
X-68970043Y16251168D01*
X-68970040Y16251169D01*
X-68811169Y16410040D01*
X-68811168Y16410043D01*
X-68811164Y16410046D01*
X-68679093Y16591827D01*
X-68607917Y16731518D01*
X-67800500Y16731518D01*
X-67800500Y16168483D01*
X-67785647Y16074697D01*
X-67728055Y15961665D01*
X-67728050Y15961658D01*
X-67638343Y15871951D01*
X-67638336Y15871946D01*
X-67525309Y15814356D01*
X-67525308Y15814356D01*
X-67525304Y15814354D01*
X-67431519Y15799500D01*
X-66968482Y15799501D01*
X-66874696Y15814354D01*
X-66796873Y15854007D01*
X-66761665Y15871946D01*
X-66761663Y15871948D01*
X-66761658Y15871950D01*
X-66671950Y15961658D01*
X-66668574Y15968283D01*
X-66614356Y16074691D01*
X-66614356Y16074693D01*
X-66614354Y16074696D01*
X-66599500Y16168481D01*
X-66599501Y16731518D01*
X-66614354Y16825304D01*
X-66635153Y16866125D01*
X-66671946Y16938336D01*
X-66671951Y16938343D01*
X-66761658Y17028050D01*
X-66761665Y17028055D01*
X-66874692Y17085645D01*
X-66874695Y17085646D01*
X-66874696Y17085646D01*
X-66968481Y17100500D01*
X-66968483Y17100500D01*
X-67431518Y17100500D01*
X-67525304Y17085647D01*
X-67638336Y17028055D01*
X-67638343Y17028050D01*
X-67728050Y16938343D01*
X-67728055Y16938336D01*
X-67785645Y16825310D01*
X-67785645Y16825308D01*
X-67785646Y16825306D01*
X-67785646Y16825304D01*
X-67799953Y16734972D01*
X-67800500Y16731518D01*
X-68607917Y16731518D01*
X-68577084Y16792030D01*
X-68507650Y17005726D01*
X-68472500Y17227653D01*
X-68472500Y17452347D01*
X-68507650Y17674274D01*
X-68577084Y17887970D01*
X-68679093Y18088173D01*
X-68811164Y18269954D01*
X-68811166Y18269956D01*
X-68811169Y18269960D01*
X-68970040Y18428831D01*
X-68970045Y18428835D01*
X-68970046Y18428836D01*
X-69151827Y18560907D01*
X-69352030Y18662916D01*
X-69352031Y18662917D01*
X-69352032Y18662917D01*
X-69565726Y18732350D01*
X-69565729Y18732351D01*
X-69736208Y18759352D01*
X-69787653Y18767500D01*
X-70012347Y18767500D01*
X-70054111Y18760886D01*
X-70234272Y18732351D01*
X-70234275Y18732350D01*
X-70447969Y18662917D01*
X-70648173Y18560907D01*
X-70829956Y18428835D01*
X-70988835Y18269956D01*
X-71120907Y18088173D01*
X-71222917Y17887969D01*
X-71292350Y17674275D01*
X-71292351Y17674272D01*
X-71321185Y17492220D01*
X-71327500Y17452347D01*
X-74799500Y17452347D01*
X-74799500Y28389001D01*
X-68805329Y28389001D01*
X-68805329Y28389000D01*
X-68786035Y28094626D01*
X-68728483Y27805284D01*
X-68633653Y27525925D01*
X-68503172Y27261335D01*
X-68339274Y27016043D01*
X-68244199Y26907632D01*
X-68144758Y26794242D01*
X-68043613Y26705540D01*
X-67922958Y26599727D01*
X-67844294Y26547166D01*
X-67677665Y26435828D01*
X-67413077Y26305348D01*
X-67133722Y26210519D01*
X-66844380Y26152966D01*
X-66599064Y26136887D01*
X-66550001Y26133671D01*
X-66550000Y26133671D01*
X-66549999Y26133671D01*
X-66507946Y26136428D01*
X-66255620Y26152966D01*
X-65966278Y26210519D01*
X-65686923Y26305348D01*
X-65422335Y26435828D01*
X-65177043Y26599727D01*
X-64955242Y26794242D01*
X-64760727Y27016043D01*
X-64596828Y27261335D01*
X-64466348Y27525923D01*
X-64371519Y27805278D01*
X-64313966Y28094620D01*
X-64294671Y28389000D01*
X-64313966Y28683380D01*
X-64371519Y28972722D01*
X-64466348Y29252077D01*
X-64596828Y29516664D01*
X-64674227Y29632500D01*
X-64760727Y29761958D01*
X-64854371Y29868737D01*
X-64955242Y29983758D01*
X-65104610Y30114751D01*
X-65177043Y30178274D01*
X-65350242Y30294001D01*
X-59755643Y30294001D01*
X-59750209Y30235358D01*
X-59750000Y30230837D01*
X-59750000Y26547166D01*
X-59750209Y26542645D01*
X-59755643Y26484002D01*
X-59750209Y26425359D01*
X-59750000Y26420838D01*
X-59750000Y25980000D01*
X-58490322Y24720322D01*
X-58475970Y24685674D01*
X-58476179Y24681154D01*
X-58485643Y24579001D01*
X-58465116Y24357468D01*
X-58465115Y24357462D01*
X-58404230Y24143474D01*
X-58404227Y24143467D01*
X-58305060Y23944314D01*
X-58305057Y23944310D01*
X-58170984Y23766767D01*
X-58170981Y23766764D01*
X-58006567Y23616880D01*
X-58006566Y23616879D01*
X-58006562Y23616876D01*
X-57817401Y23499753D01*
X-57609940Y23419382D01*
X-57391243Y23378500D01*
X-57391241Y23378500D01*
X-57189000Y23378500D01*
X-57154352Y23364148D01*
X-57140000Y23329500D01*
X-57140000Y15798617D01*
X-57154352Y15763969D01*
X-57164498Y15756183D01*
X-57169376Y15753367D01*
X-57169389Y15753358D01*
X-57292177Y15650315D01*
X-57292181Y15650311D01*
X-57395222Y15527498D01*
X-57475365Y15388676D01*
X-57475371Y15388662D01*
X-57530191Y15238034D01*
X-57530193Y15238029D01*
X-57558028Y15080156D01*
X-57558028Y15080148D01*
X-57558027Y15039641D01*
X-57558027Y14811264D01*
X-57558001Y14810734D01*
X-57558001Y14799847D01*
X-57530166Y14641979D01*
X-57530164Y14641973D01*
X-57475346Y14491350D01*
X-57475340Y14491336D01*
X-57402131Y14364525D01*
X-57397237Y14327343D01*
X-57402131Y14315528D01*
X-57475367Y14188670D01*
X-57475371Y14188662D01*
X-57530191Y14038034D01*
X-57530193Y14038029D01*
X-57558028Y13880156D01*
X-57558028Y13880148D01*
X-57558027Y13839641D01*
X-57558027Y13611264D01*
X-57558001Y13610734D01*
X-57558001Y13599847D01*
X-57530166Y13441979D01*
X-57530164Y13441973D01*
X-57475346Y13291350D01*
X-57475340Y13291336D01*
X-57402131Y13164525D01*
X-57397237Y13127343D01*
X-57402131Y13115528D01*
X-57475367Y12988670D01*
X-57475371Y12988662D01*
X-57530191Y12838034D01*
X-57530193Y12838029D01*
X-57558028Y12680156D01*
X-57558028Y12680148D01*
X-57558027Y12639641D01*
X-57558027Y12411264D01*
X-57558001Y12410734D01*
X-57558001Y12399847D01*
X-57530166Y12241979D01*
X-57530164Y12241973D01*
X-57475346Y12091350D01*
X-57475340Y12091336D01*
X-57395200Y11952519D01*
X-57395198Y11952517D01*
X-57395197Y11952515D01*
X-57292163Y11829710D01*
X-57292162Y11829709D01*
X-57292158Y11829705D01*
X-57169373Y11726664D01*
X-57169372Y11726663D01*
X-57169370Y11726662D01*
X-57166781Y11725167D01*
X-57164498Y11723849D01*
X-57141669Y11694095D01*
X-57140000Y11681415D01*
X-57140000Y10600000D01*
X-56761458Y10221458D01*
X-56755368Y10214038D01*
X-56745987Y10200000D01*
X-56725240Y10168949D01*
X-53888757Y7332466D01*
X-53874405Y7297818D01*
X-53876623Y7283241D01*
X-53894086Y7227198D01*
X-53894086Y7227196D01*
X-53900500Y7156616D01*
X-53900500Y5243384D01*
X-53898857Y5225308D01*
X-53894086Y5172799D01*
X-53843480Y5010397D01*
X-53843480Y5010396D01*
X-53755473Y4864816D01*
X-53635185Y4744528D01*
X-53489605Y4656521D01*
X-53327202Y4605915D01*
X-53327199Y4605915D01*
X-53327196Y4605914D01*
X-53256616Y4599500D01*
X-53256610Y4599500D01*
X-52943390Y4599500D01*
X-52943384Y4599500D01*
X-52872804Y4605914D01*
X-52714576Y4655219D01*
X-52685423Y4655219D01*
X-52628603Y4637514D01*
X-52527199Y4605915D01*
X-52527198Y4605915D01*
X-52527195Y4605914D01*
X-52456615Y4599500D01*
X-52456609Y4599500D01*
X-52143389Y4599500D01*
X-52143383Y4599500D01*
X-52072803Y4605914D01*
X-52072801Y4605915D01*
X-52072798Y4605915D01*
X-51910396Y4656521D01*
X-51910395Y4656521D01*
X-51839230Y4699542D01*
X-51764814Y4744528D01*
X-51644527Y4864815D01*
X-51556521Y5010394D01*
X-51546782Y5041652D01*
X-51522772Y5070460D01*
X-51485423Y5073855D01*
X-51456613Y5049845D01*
X-51453219Y5041651D01*
X-51443479Y5010394D01*
X-51355473Y4864815D01*
X-51235185Y4744527D01*
X-51089605Y4656520D01*
X-50927202Y4605914D01*
X-50927199Y4605914D01*
X-50927196Y4605913D01*
X-50856616Y4599499D01*
X-50856610Y4599499D01*
X-50543390Y4599499D01*
X-50543384Y4599499D01*
X-50472804Y4605913D01*
X-50314576Y4655218D01*
X-50285423Y4655218D01*
X-50127202Y4605915D01*
X-50127199Y4605915D01*
X-50127196Y4605914D01*
X-50056616Y4599500D01*
X-50056610Y4599500D01*
X-49743390Y4599500D01*
X-49743384Y4599500D01*
X-49672804Y4605914D01*
X-49672802Y4605915D01*
X-49672799Y4605915D01*
X-49510397Y4656521D01*
X-49510396Y4656521D01*
X-49439231Y4699542D01*
X-49364815Y4744528D01*
X-49244528Y4864815D01*
X-49156522Y5010394D01*
X-49146782Y5041650D01*
X-49146781Y5041652D01*
X-49122772Y5070462D01*
X-49085423Y5073856D01*
X-49056613Y5049847D01*
X-49053219Y5041652D01*
X-49043480Y5010397D01*
X-49043480Y5010396D01*
X-48955473Y4864816D01*
X-48835185Y4744528D01*
X-48689605Y4656521D01*
X-48527202Y4605915D01*
X-48527199Y4605915D01*
X-48527196Y4605914D01*
X-48456616Y4599500D01*
X-48456610Y4599500D01*
X-48143390Y4599500D01*
X-48143384Y4599500D01*
X-48072804Y4605914D01*
X-47914576Y4655219D01*
X-47885424Y4655219D01*
X-47765892Y4617972D01*
X-47727200Y4605915D01*
X-47727199Y4605915D01*
X-47727196Y4605914D01*
X-47656616Y4599500D01*
X-47656610Y4599500D01*
X-47343390Y4599500D01*
X-47343384Y4599500D01*
X-47272804Y4605914D01*
X-47272802Y4605915D01*
X-47272799Y4605915D01*
X-47110397Y4656521D01*
X-47110396Y4656521D01*
X-47039231Y4699542D01*
X-46964815Y4744528D01*
X-46844528Y4864815D01*
X-46756522Y5010394D01*
X-46746782Y5041650D01*
X-46746781Y5041652D01*
X-46722772Y5070462D01*
X-46685423Y5073856D01*
X-46656613Y5049847D01*
X-46653219Y5041652D01*
X-46643480Y5010397D01*
X-46643480Y5010396D01*
X-46555473Y4864816D01*
X-46435185Y4744528D01*
X-46289605Y4656521D01*
X-46127202Y4605915D01*
X-46127199Y4605915D01*
X-46127196Y4605914D01*
X-46056616Y4599500D01*
X-46056610Y4599500D01*
X-45743390Y4599500D01*
X-45743384Y4599500D01*
X-45672804Y4605914D01*
X-45514579Y4655218D01*
X-45485424Y4655218D01*
X-45327200Y4605914D01*
X-45327199Y4605914D01*
X-45327196Y4605913D01*
X-45256616Y4599499D01*
X-45256610Y4599499D01*
X-44943390Y4599499D01*
X-44943384Y4599499D01*
X-44872804Y4605913D01*
X-44872802Y4605914D01*
X-44872799Y4605914D01*
X-44710397Y4656520D01*
X-44710396Y4656520D01*
X-44710394Y4656521D01*
X-44564815Y4744527D01*
X-44444528Y4864814D01*
X-44356522Y5010393D01*
X-44346782Y5041653D01*
X-44322772Y5070462D01*
X-44285423Y5073857D01*
X-44256613Y5049847D01*
X-44253219Y5041652D01*
X-44243480Y5010397D01*
X-44243480Y5010396D01*
X-44155473Y4864816D01*
X-44035185Y4744528D01*
X-43889605Y4656521D01*
X-43727202Y4605915D01*
X-43727199Y4605915D01*
X-43727196Y4605914D01*
X-43656616Y4599500D01*
X-43656610Y4599500D01*
X-43343390Y4599500D01*
X-43343384Y4599500D01*
X-43272804Y4605914D01*
X-43114576Y4655219D01*
X-43085424Y4655219D01*
X-42965892Y4617972D01*
X-42927200Y4605915D01*
X-42927199Y4605915D01*
X-42927196Y4605914D01*
X-42856616Y4599500D01*
X-42856610Y4599500D01*
X-42543390Y4599500D01*
X-42543384Y4599500D01*
X-42472804Y4605914D01*
X-42472802Y4605915D01*
X-42472799Y4605915D01*
X-42310397Y4656521D01*
X-42310396Y4656521D01*
X-42239231Y4699542D01*
X-42164815Y4744528D01*
X-42044528Y4864815D01*
X-41956522Y5010394D01*
X-41946781Y5041656D01*
X-41922772Y5070464D01*
X-41885423Y5073859D01*
X-41856613Y5049849D01*
X-41853219Y5041655D01*
X-41843478Y5010395D01*
X-41755472Y4864816D01*
X-41635184Y4744528D01*
X-41489604Y4656521D01*
X-41327201Y4605915D01*
X-41327198Y4605915D01*
X-41327195Y4605914D01*
X-41256615Y4599500D01*
X-41256609Y4599500D01*
X-40943389Y4599500D01*
X-40943383Y4599500D01*
X-40872803Y4605914D01*
X-40714575Y4655219D01*
X-40685424Y4655219D01*
X-40565892Y4617972D01*
X-40527200Y4605915D01*
X-40527199Y4605915D01*
X-40527196Y4605914D01*
X-40456616Y4599500D01*
X-40456610Y4599500D01*
X-40143390Y4599500D01*
X-40143384Y4599500D01*
X-40072804Y4605914D01*
X-40072802Y4605915D01*
X-40072799Y4605915D01*
X-39910397Y4656521D01*
X-39910396Y4656521D01*
X-39839231Y4699542D01*
X-39764815Y4744528D01*
X-39644528Y4864815D01*
X-39556522Y5010394D01*
X-39546782Y5041650D01*
X-39546781Y5041652D01*
X-39522772Y5070462D01*
X-39485423Y5073856D01*
X-39456613Y5049847D01*
X-39453219Y5041652D01*
X-39443480Y5010397D01*
X-39443480Y5010396D01*
X-39355473Y4864816D01*
X-39235185Y4744528D01*
X-39089605Y4656521D01*
X-38927202Y4605915D01*
X-38927199Y4605915D01*
X-38927196Y4605914D01*
X-38856616Y4599500D01*
X-38856610Y4599500D01*
X-38543390Y4599500D01*
X-38543384Y4599500D01*
X-38472804Y4605914D01*
X-38314576Y4655219D01*
X-38285424Y4655219D01*
X-38165892Y4617972D01*
X-38127200Y4605915D01*
X-38127199Y4605915D01*
X-38127196Y4605914D01*
X-38056616Y4599500D01*
X-38056610Y4599500D01*
X-37743390Y4599500D01*
X-37743384Y4599500D01*
X-37672804Y4605914D01*
X-37672802Y4605915D01*
X-37672799Y4605915D01*
X-37510397Y4656521D01*
X-37510396Y4656521D01*
X-37439231Y4699542D01*
X-37364815Y4744528D01*
X-37244528Y4864815D01*
X-37156522Y5010394D01*
X-37144868Y5047794D01*
X-37105915Y5172799D01*
X-37105915Y5172802D01*
X-37105914Y5172804D01*
X-37099500Y5243384D01*
X-37099500Y7144866D01*
X-36700500Y7144866D01*
X-36700500Y5255142D01*
X-36700499Y5255132D01*
X-36697585Y5230008D01*
X-36652206Y5127234D01*
X-36572767Y5047795D01*
X-36572766Y5047795D01*
X-36572765Y5047794D01*
X-36558861Y5041655D01*
X-36469994Y5002416D01*
X-36469991Y5002415D01*
X-36444865Y4999500D01*
X-36155136Y4999501D01*
X-36130009Y5002415D01*
X-36027235Y5047794D01*
X-35947794Y5127235D01*
X-35944826Y5133957D01*
X-35917706Y5159857D01*
X-35880213Y5158994D01*
X-35855177Y5133961D01*
X-35852207Y5127234D01*
X-35772767Y5047794D01*
X-35772766Y5047794D01*
X-35772765Y5047793D01*
X-35669991Y5002414D01*
X-35661843Y5001469D01*
X-35645241Y4996454D01*
X-35633126Y4990281D01*
X-35500000Y4969196D01*
X-35366874Y4990281D01*
X-35354758Y4996455D01*
X-35338151Y5001470D01*
X-35330012Y5002413D01*
X-35330012Y5002414D01*
X-35330009Y5002414D01*
X-35227235Y5047793D01*
X-35147794Y5127234D01*
X-35144826Y5133958D01*
X-35117703Y5159857D01*
X-35080210Y5158993D01*
X-35055175Y5133959D01*
X-35052206Y5127234D01*
X-34972767Y5047795D01*
X-34972766Y5047795D01*
X-34972765Y5047794D01*
X-34869991Y5002415D01*
X-34861844Y5001470D01*
X-34845243Y4996455D01*
X-34833126Y4990281D01*
X-34700000Y4969196D01*
X-34566874Y4990281D01*
X-34554757Y4996456D01*
X-34538155Y5001471D01*
X-34530009Y5002415D01*
X-34427235Y5047794D01*
X-34347794Y5127235D01*
X-34302415Y5230009D01*
X-34301470Y5238158D01*
X-34296455Y5254758D01*
X-34290281Y5266874D01*
X-34269196Y5400000D01*
X-34290281Y5533126D01*
X-34294161Y5540741D01*
X-34299501Y5562986D01*
X-34299501Y6037015D01*
X-34294160Y6059261D01*
X-34290282Y6066872D01*
X-34290282Y6066873D01*
X-34290281Y6066874D01*
X-34269196Y6200000D01*
X-34290281Y6333126D01*
X-34294161Y6340741D01*
X-34299501Y6362986D01*
X-34299501Y6837015D01*
X-34294160Y6859261D01*
X-34290282Y6866872D01*
X-34290282Y6866873D01*
X-34290281Y6866874D01*
X-34269196Y7000000D01*
X-34290281Y7133126D01*
X-34296459Y7145249D01*
X-34301471Y7161846D01*
X-34302415Y7169991D01*
X-34347794Y7272765D01*
X-34347795Y7272766D01*
X-34347795Y7272767D01*
X-34427234Y7352206D01*
X-34427233Y7352206D01*
X-34511936Y7389605D01*
X-34530009Y7397585D01*
X-34530011Y7397586D01*
X-34530017Y7397587D01*
X-34538161Y7398532D01*
X-34554756Y7403545D01*
X-34566873Y7409719D01*
X-34633437Y7420262D01*
X-34700000Y7430804D01*
X-34700001Y7430804D01*
X-34833123Y7409720D01*
X-34833124Y7409720D01*
X-34845249Y7403543D01*
X-34861839Y7398532D01*
X-34869988Y7397586D01*
X-34869993Y7397585D01*
X-34972767Y7352206D01*
X-35052206Y7272767D01*
X-35055177Y7266038D01*
X-35082303Y7240141D01*
X-35119796Y7241009D01*
X-35144826Y7266042D01*
X-35147794Y7272764D01*
X-35147796Y7272766D01*
X-35147796Y7272767D01*
X-35227234Y7352205D01*
X-35227233Y7352205D01*
X-35330008Y7397584D01*
X-35330012Y7397585D01*
X-35338159Y7398530D01*
X-35354749Y7403542D01*
X-35366874Y7409719D01*
X-35366877Y7409720D01*
X-35366878Y7409720D01*
X-35500000Y7430804D01*
X-35633126Y7409720D01*
X-35645251Y7403542D01*
X-35661845Y7398530D01*
X-35669989Y7397585D01*
X-35669994Y7397584D01*
X-35772767Y7352205D01*
X-35852206Y7272765D01*
X-35852208Y7272764D01*
X-35855176Y7266040D01*
X-35882300Y7240141D01*
X-35919793Y7241009D01*
X-35944825Y7266041D01*
X-35947795Y7272767D01*
X-36027234Y7352206D01*
X-36027233Y7352206D01*
X-36130007Y7397585D01*
X-36146895Y7399544D01*
X-36155135Y7400500D01*
X-36155137Y7400500D01*
X-36444859Y7400500D01*
X-36444869Y7400499D01*
X-36469993Y7397585D01*
X-36572767Y7352206D01*
X-36652206Y7272767D01*
X-36697585Y7169994D01*
X-36700500Y7144866D01*
X-37099500Y7144866D01*
X-37099500Y7156616D01*
X-37105914Y7227196D01*
X-37105915Y7227199D01*
X-37105915Y7227202D01*
X-37156521Y7389604D01*
X-37156521Y7389605D01*
X-37216733Y7489207D01*
X-37223800Y7514557D01*
X-37223800Y7566599D01*
X-37223801Y7566604D01*
X-37227490Y7585148D01*
X-37233624Y7615989D01*
X-37249785Y7697240D01*
X-37300759Y7820301D01*
X-37310254Y7834511D01*
X-37374759Y7931050D01*
X-39255648Y9811939D01*
X-39270000Y9846587D01*
X-39270000Y12066795D01*
X-39267045Y12083555D01*
X-39265554Y12087650D01*
X-39215406Y12225421D01*
X-39187563Y12383280D01*
X-39187563Y12393836D01*
X-39187558Y12393917D01*
X-39187558Y12468274D01*
X-39187556Y12493381D01*
X-39187552Y12539617D01*
X-39187554Y12539623D01*
X-39187553Y12542240D01*
X-39187558Y12542350D01*
X-39187558Y12651964D01*
X-39187614Y12653084D01*
X-39187612Y12663578D01*
X-39211742Y12800499D01*
X-39215433Y12821441D01*
X-39215434Y12821442D01*
X-39215434Y12821446D01*
X-39266390Y12961491D01*
X-39267047Y12963298D01*
X-39270000Y12980052D01*
X-39270000Y13266795D01*
X-39267045Y13283555D01*
X-39265554Y13287650D01*
X-39215406Y13425421D01*
X-39187563Y13583280D01*
X-39187563Y13593836D01*
X-39187558Y13593917D01*
X-39187558Y13668274D01*
X-39187555Y13705329D01*
X-39187552Y13739617D01*
X-39187554Y13739623D01*
X-39187553Y13742240D01*
X-39187558Y13742350D01*
X-39187558Y13851964D01*
X-39187614Y13853084D01*
X-39187612Y13863578D01*
X-39215434Y14021446D01*
X-39267047Y14163298D01*
X-39270000Y14180052D01*
X-39270000Y14466795D01*
X-39267045Y14483555D01*
X-39265554Y14487650D01*
X-39215406Y14625421D01*
X-39187563Y14783280D01*
X-39187563Y14793836D01*
X-39187558Y14793917D01*
X-39187558Y14868274D01*
X-39187555Y14905329D01*
X-39187552Y14939617D01*
X-39187554Y14939623D01*
X-39187553Y14942240D01*
X-39187558Y14942350D01*
X-39187558Y15051964D01*
X-39187614Y15053084D01*
X-39187612Y15063578D01*
X-39215434Y15221446D01*
X-39256765Y15335038D01*
X-39267047Y15363298D01*
X-39270000Y15380052D01*
X-39270000Y15666795D01*
X-39267045Y15683555D01*
X-39265554Y15687650D01*
X-39215406Y15825421D01*
X-39187563Y15983280D01*
X-39187563Y15993836D01*
X-39187558Y15993917D01*
X-39187558Y16069196D01*
X-39187558Y16075053D01*
X-39187552Y16139617D01*
X-39187554Y16139623D01*
X-39187553Y16142240D01*
X-39187558Y16142350D01*
X-39187558Y16251964D01*
X-39187614Y16253084D01*
X-39187612Y16263578D01*
X-39215434Y16421446D01*
X-39258741Y16540470D01*
X-39267047Y16563298D01*
X-39270000Y16580052D01*
X-39270000Y16866795D01*
X-39267045Y16883555D01*
X-39265745Y16887127D01*
X-39215406Y17025421D01*
X-39187563Y17183280D01*
X-39187563Y17193836D01*
X-39187558Y17193917D01*
X-39187558Y17268216D01*
X-39187552Y17339617D01*
X-39187554Y17339623D01*
X-39187553Y17342240D01*
X-39187558Y17342350D01*
X-39187558Y17451964D01*
X-39187614Y17453084D01*
X-39187612Y17463578D01*
X-39197093Y17517372D01*
X-39215433Y17621441D01*
X-39215434Y17621442D01*
X-39215434Y17621446D01*
X-39253454Y17725940D01*
X-39267047Y17763298D01*
X-39270000Y17780052D01*
X-39270000Y23776622D01*
X-39255648Y23811270D01*
X-39237187Y23822871D01*
X-39150477Y23853211D01*
X-38997737Y23949184D01*
X-38870183Y24076738D01*
X-38809444Y24173404D01*
X-38774212Y24229474D01*
X-38774212Y24229476D01*
X-38774210Y24229478D01*
X-38714631Y24399745D01*
X-38694434Y24579000D01*
X-37765564Y24579000D01*
X-37745368Y24399751D01*
X-37745366Y24399742D01*
X-37685787Y24229474D01*
X-37631744Y24143467D01*
X-37589815Y24076738D01*
X-37462261Y23949184D01*
X-37454504Y23944310D01*
X-37309526Y23853213D01*
X-37309522Y23853212D01*
X-37309521Y23853211D01*
X-37139254Y23793632D01*
X-36959999Y23773435D01*
X-36780744Y23793632D01*
X-36610477Y23853211D01*
X-36610475Y23853213D01*
X-36610473Y23853213D01*
X-36554403Y23888445D01*
X-36457737Y23949184D01*
X-36330183Y24076738D01*
X-36269444Y24173404D01*
X-36234212Y24229474D01*
X-36234212Y24229476D01*
X-36234210Y24229478D01*
X-36174631Y24399745D01*
X-36154434Y24579000D01*
X-36174631Y24758255D01*
X-36234210Y24928522D01*
X-36234211Y24928523D01*
X-36234212Y24928527D01*
X-36330182Y25081260D01*
X-36330183Y25081262D01*
X-36457737Y25208816D01*
X-36495571Y25232589D01*
X-36610473Y25304788D01*
X-36780741Y25364367D01*
X-36780742Y25364368D01*
X-36780744Y25364368D01*
X-36780748Y25364369D01*
X-36780750Y25364369D01*
X-36959999Y25384565D01*
X-37139249Y25364369D01*
X-37139258Y25364367D01*
X-37309526Y25304788D01*
X-37462259Y25208818D01*
X-37462263Y25208815D01*
X-37589814Y25081264D01*
X-37589817Y25081260D01*
X-37685787Y24928527D01*
X-37745366Y24758259D01*
X-37745368Y24758250D01*
X-37765564Y24579000D01*
X-38694434Y24579000D01*
X-38714631Y24758255D01*
X-38774210Y24928522D01*
X-38774211Y24928523D01*
X-38774212Y24928527D01*
X-38870182Y25081260D01*
X-38870183Y25081262D01*
X-38997737Y25208816D01*
X-39035571Y25232589D01*
X-39150473Y25304788D01*
X-39320741Y25364367D01*
X-39320742Y25364368D01*
X-39320744Y25364368D01*
X-39320748Y25364369D01*
X-39320750Y25364369D01*
X-39499999Y25384565D01*
X-39679249Y25364369D01*
X-39679258Y25364367D01*
X-39849519Y25304790D01*
X-39849525Y25304787D01*
X-39915295Y25263461D01*
X-39952268Y25257180D01*
X-39982854Y25278882D01*
X-39986634Y25286200D01*
X-40000758Y25320298D01*
X-40000759Y25320301D01*
X-40057189Y25404754D01*
X-40074759Y25431050D01*
X-41109448Y26465739D01*
X-41117012Y26484000D01*
X-39035565Y26484000D01*
X-39015369Y26304751D01*
X-39015367Y26304742D01*
X-38955788Y26134474D01*
X-38859819Y25981742D01*
X-38859816Y25981738D01*
X-38732262Y25854184D01*
X-38704225Y25836568D01*
X-38579527Y25758213D01*
X-38579523Y25758212D01*
X-38579522Y25758211D01*
X-38409255Y25698632D01*
X-38230000Y25678435D01*
X-38050745Y25698632D01*
X-37880478Y25758211D01*
X-37880476Y25758213D01*
X-37880474Y25758213D01*
X-37824404Y25793445D01*
X-37727738Y25854184D01*
X-37600184Y25981738D01*
X-37528708Y26095491D01*
X-37504213Y26134474D01*
X-37504213Y26134476D01*
X-37504211Y26134478D01*
X-37444632Y26304745D01*
X-37424435Y26484000D01*
X-37424435Y26484001D01*
X-36495565Y26484001D01*
X-36475368Y26304746D01*
X-36475368Y26304744D01*
X-36475367Y26304743D01*
X-36415788Y26134475D01*
X-36361745Y26048468D01*
X-36319816Y25981739D01*
X-36192262Y25854185D01*
X-36184505Y25849311D01*
X-36039527Y25758214D01*
X-36039523Y25758213D01*
X-36039522Y25758212D01*
X-35869255Y25698633D01*
X-35690000Y25678436D01*
X-35510745Y25698633D01*
X-35340478Y25758212D01*
X-35340476Y25758214D01*
X-35340474Y25758214D01*
X-35284404Y25793446D01*
X-35187738Y25854185D01*
X-35060184Y25981739D01*
X-34988117Y26096433D01*
X-34964213Y26134475D01*
X-34964212Y26134478D01*
X-34964211Y26134479D01*
X-34904632Y26304746D01*
X-34884435Y26484001D01*
X-34904632Y26663256D01*
X-34964211Y26833523D01*
X-34964212Y26833524D01*
X-34964213Y26833528D01*
X-35060183Y26986261D01*
X-35060184Y26986263D01*
X-35187738Y27113817D01*
X-35195493Y27118690D01*
X-35340474Y27209789D01*
X-35510742Y27269368D01*
X-35510743Y27269369D01*
X-35510745Y27269369D01*
X-35510749Y27269370D01*
X-35510751Y27269370D01*
X-35690000Y27289566D01*
X-35869250Y27269370D01*
X-35869259Y27269368D01*
X-36039527Y27209789D01*
X-36192260Y27113819D01*
X-36192264Y27113816D01*
X-36319815Y26986265D01*
X-36319818Y26986261D01*
X-36415788Y26833528D01*
X-36475367Y26663260D01*
X-36475369Y26663251D01*
X-36493719Y26500387D01*
X-36495565Y26484001D01*
X-37424435Y26484001D01*
X-37444632Y26663255D01*
X-37504211Y26833522D01*
X-37504212Y26833523D01*
X-37504213Y26833527D01*
X-37600183Y26986260D01*
X-37600184Y26986262D01*
X-37727738Y27113816D01*
X-37727743Y27113819D01*
X-37880474Y27209788D01*
X-38050742Y27269367D01*
X-38050743Y27269368D01*
X-38050745Y27269368D01*
X-38050749Y27269369D01*
X-38050751Y27269369D01*
X-38230000Y27289565D01*
X-38409250Y27269369D01*
X-38409259Y27269367D01*
X-38579527Y27209788D01*
X-38732260Y27113818D01*
X-38732264Y27113815D01*
X-38859815Y26986264D01*
X-38859818Y26986260D01*
X-38955788Y26833527D01*
X-39015367Y26663259D01*
X-39015369Y26663250D01*
X-39035565Y26484000D01*
X-41117012Y26484000D01*
X-41123800Y26500387D01*
X-41123800Y27366599D01*
X-41123801Y27366606D01*
X-41136620Y27431052D01*
X-41149786Y27497241D01*
X-41160321Y27522675D01*
X-41160321Y27560176D01*
X-41150119Y27574700D01*
X-41150546Y27575089D01*
X-41149024Y27576761D01*
X-41149019Y27576764D01*
X-41014942Y27754311D01*
X-40915771Y27953472D01*
X-40854885Y28167464D01*
X-40834357Y28389000D01*
X-37765565Y28389000D01*
X-37745369Y28209751D01*
X-37745367Y28209742D01*
X-37685788Y28039474D01*
X-37631745Y27953467D01*
X-37589816Y27886738D01*
X-37462262Y27759184D01*
X-37454505Y27754310D01*
X-37309527Y27663213D01*
X-37309523Y27663212D01*
X-37309522Y27663211D01*
X-37139255Y27603632D01*
X-36960000Y27583435D01*
X-36780745Y27603632D01*
X-36610478Y27663211D01*
X-36610476Y27663213D01*
X-36610474Y27663213D01*
X-36554404Y27698445D01*
X-36457738Y27759184D01*
X-36330184Y27886738D01*
X-36269445Y27983404D01*
X-36234213Y28039474D01*
X-36234213Y28039476D01*
X-36234211Y28039478D01*
X-36174632Y28209745D01*
X-36154435Y28389000D01*
X-36174632Y28568255D01*
X-36234211Y28738522D01*
X-36234212Y28738523D01*
X-36234213Y28738527D01*
X-36330183Y28891260D01*
X-36330184Y28891262D01*
X-36457738Y29018816D01*
X-36465493Y29023689D01*
X-36610474Y29114788D01*
X-36780742Y29174367D01*
X-36780743Y29174368D01*
X-36780745Y29174368D01*
X-36780749Y29174369D01*
X-36780751Y29174369D01*
X-36960000Y29194565D01*
X-37139250Y29174369D01*
X-37139259Y29174367D01*
X-37309527Y29114788D01*
X-37462260Y29018818D01*
X-37462264Y29018815D01*
X-37589815Y28891264D01*
X-37589818Y28891260D01*
X-37685788Y28738527D01*
X-37745367Y28568259D01*
X-37745369Y28568250D01*
X-37765565Y28389000D01*
X-40834357Y28389000D01*
X-40854885Y28610536D01*
X-40915771Y28824528D01*
X-41014942Y29023689D01*
X-41083737Y29114789D01*
X-41149017Y29201234D01*
X-41149020Y29201237D01*
X-41313434Y29351121D01*
X-41313437Y29351123D01*
X-41313438Y29351124D01*
X-41502599Y29468247D01*
X-41502602Y29468248D01*
X-41502603Y29468249D01*
X-41606850Y29508634D01*
X-41710060Y29548618D01*
X-41928757Y29589500D01*
X-42151243Y29589500D01*
X-42243972Y29572167D01*
X-42280667Y29579908D01*
X-42301141Y29611330D01*
X-42293400Y29648025D01*
X-42292076Y29649864D01*
X-42284947Y29659305D01*
X-42284942Y29659311D01*
X-42185771Y29858472D01*
X-42124885Y30072464D01*
X-42104357Y30294000D01*
X-39035565Y30294000D01*
X-39015369Y30114751D01*
X-39015367Y30114742D01*
X-38955788Y29944474D01*
X-38859818Y29791741D01*
X-38859816Y29791738D01*
X-38732262Y29664184D01*
X-38724505Y29659310D01*
X-38579527Y29568213D01*
X-38579523Y29568212D01*
X-38579522Y29568211D01*
X-38409255Y29508632D01*
X-38230000Y29488435D01*
X-38050745Y29508632D01*
X-37880478Y29568211D01*
X-37880476Y29568213D01*
X-37880474Y29568213D01*
X-37778187Y29632485D01*
X-37727738Y29664184D01*
X-37600184Y29791738D01*
X-37536953Y29892370D01*
X-37504213Y29944474D01*
X-37504213Y29944476D01*
X-37504211Y29944478D01*
X-37444632Y30114745D01*
X-37424435Y30294000D01*
X-36495565Y30294000D01*
X-36475369Y30114751D01*
X-36475367Y30114742D01*
X-36415788Y29944474D01*
X-36319818Y29791741D01*
X-36319816Y29791738D01*
X-36192262Y29664184D01*
X-36184505Y29659310D01*
X-36039527Y29568213D01*
X-36039523Y29568212D01*
X-36039522Y29568211D01*
X-35869255Y29508632D01*
X-35690000Y29488435D01*
X-35510745Y29508632D01*
X-35340478Y29568211D01*
X-35340476Y29568213D01*
X-35340474Y29568213D01*
X-35238187Y29632485D01*
X-35187738Y29664184D01*
X-35060184Y29791738D01*
X-34996953Y29892370D01*
X-34964213Y29944474D01*
X-34964213Y29944476D01*
X-34964211Y29944478D01*
X-34904632Y30114745D01*
X-34884435Y30294000D01*
X-34355643Y30294000D01*
X-34335116Y30072468D01*
X-34335115Y30072462D01*
X-34274230Y29858474D01*
X-34274227Y29858467D01*
X-34175060Y29659314D01*
X-34175057Y29659310D01*
X-34040984Y29481767D01*
X-34040981Y29481764D01*
X-33876567Y29331880D01*
X-33876566Y29331879D01*
X-33876562Y29331876D01*
X-33849405Y29315062D01*
X-33827502Y29284620D01*
X-33826200Y29273401D01*
X-33826200Y27983395D01*
X-33800217Y27852770D01*
X-33800214Y27852759D01*
X-33749242Y27729700D01*
X-33680655Y27627054D01*
X-33673338Y27590272D01*
X-33694174Y27559089D01*
X-33695595Y27558175D01*
X-33747680Y27525925D01*
X-33876567Y27446122D01*
X-34040981Y27296238D01*
X-34040984Y27296235D01*
X-34175057Y27118692D01*
X-34175060Y27118688D01*
X-34274227Y26919535D01*
X-34274230Y26919528D01*
X-34335115Y26705540D01*
X-34335116Y26705534D01*
X-34355643Y26484001D01*
X-34335116Y26262469D01*
X-34335115Y26262463D01*
X-34274230Y26048475D01*
X-34274227Y26048468D01*
X-34175060Y25849315D01*
X-34175057Y25849311D01*
X-34040984Y25671768D01*
X-34040981Y25671765D01*
X-33876567Y25521881D01*
X-33876566Y25521880D01*
X-33876562Y25521877D01*
X-33687401Y25404754D01*
X-33479940Y25324383D01*
X-33261243Y25283501D01*
X-33261241Y25283501D01*
X-33038759Y25283501D01*
X-33038757Y25283501D01*
X-32820060Y25324383D01*
X-32612599Y25404754D01*
X-32428477Y25518758D01*
X-32391464Y25524794D01*
X-32368035Y25511744D01*
X-31490552Y24634261D01*
X-31476200Y24599613D01*
X-31476200Y24549000D01*
X-31490552Y24514352D01*
X-31525200Y24500000D01*
X-32000000Y24500000D01*
X-32000000Y15583273D01*
X-32011462Y15551779D01*
X-32050411Y15505356D01*
X-32130560Y15366504D01*
X-32130565Y15366495D01*
X-32185384Y15215828D01*
X-32213205Y15057928D01*
X-32213193Y14979991D01*
X-32213193Y14936785D01*
X-32213205Y14936569D01*
X-32213197Y14878105D01*
X-32213239Y14878002D01*
X-32213226Y14777616D01*
X-32213224Y14777600D01*
X-32185369Y14619747D01*
X-32185367Y14619739D01*
X-32130520Y14469108D01*
X-32057332Y14342374D01*
X-32052433Y14305193D01*
X-32057327Y14293374D01*
X-32130565Y14166495D01*
X-32185384Y14015828D01*
X-32213205Y13857928D01*
X-32213193Y13779943D01*
X-32213193Y13736785D01*
X-32213205Y13736569D01*
X-32213197Y13678105D01*
X-32213239Y13678002D01*
X-32213226Y13577616D01*
X-32213224Y13577600D01*
X-32185369Y13419747D01*
X-32185367Y13419739D01*
X-32130520Y13269108D01*
X-32057332Y13142374D01*
X-32052433Y13105193D01*
X-32057327Y13093374D01*
X-32130565Y12966495D01*
X-32185384Y12815828D01*
X-32213205Y12657928D01*
X-32213193Y12580803D01*
X-32213193Y12536785D01*
X-32213205Y12536569D01*
X-32213205Y12533954D01*
X-32213205Y12533952D01*
X-32213202Y12517864D01*
X-32213197Y12478105D01*
X-32213239Y12478002D01*
X-32213226Y12377616D01*
X-32213224Y12377600D01*
X-32185369Y12219747D01*
X-32185367Y12219739D01*
X-32130535Y12069150D01*
X-32130519Y12069106D01*
X-32050349Y11930283D01*
X-32011467Y11883955D01*
X-32000000Y11852455D01*
X-32000000Y9576587D01*
X-32014352Y9541939D01*
X-33625241Y7931051D01*
X-33625242Y7931050D01*
X-33699243Y7820298D01*
X-33750214Y7697242D01*
X-33750217Y7697231D01*
X-33776200Y7566606D01*
X-33776200Y7514557D01*
X-33783267Y7489207D01*
X-33843480Y7389605D01*
X-33843480Y7389604D01*
X-33894086Y7227202D01*
X-33897585Y7188698D01*
X-33900500Y7156616D01*
X-33900500Y5243384D01*
X-33898857Y5225308D01*
X-33894086Y5172799D01*
X-33843480Y5010397D01*
X-33843480Y5010396D01*
X-33755473Y4864816D01*
X-33635185Y4744528D01*
X-33489605Y4656521D01*
X-33327202Y4605915D01*
X-33327199Y4605915D01*
X-33327196Y4605914D01*
X-33256616Y4599500D01*
X-33256610Y4599500D01*
X-32943390Y4599500D01*
X-32943384Y4599500D01*
X-32872804Y4605914D01*
X-32872802Y4605915D01*
X-32872799Y4605915D01*
X-32710397Y4656521D01*
X-32710396Y4656521D01*
X-32639231Y4699542D01*
X-32564815Y4744528D01*
X-32444528Y4864815D01*
X-32356522Y5010394D01*
X-32346782Y5041650D01*
X-32346781Y5041652D01*
X-32322772Y5070462D01*
X-32285423Y5073856D01*
X-32256613Y5049847D01*
X-32253219Y5041652D01*
X-32243480Y5010397D01*
X-32243480Y5010396D01*
X-32155473Y4864816D01*
X-32035185Y4744528D01*
X-31889605Y4656521D01*
X-31727202Y4605915D01*
X-31727199Y4605915D01*
X-31727196Y4605914D01*
X-31656616Y4599500D01*
X-31656610Y4599500D01*
X-31343390Y4599500D01*
X-31343384Y4599500D01*
X-31272804Y4605914D01*
X-31114576Y4655219D01*
X-31085424Y4655219D01*
X-30965892Y4617972D01*
X-30927200Y4605915D01*
X-30927199Y4605915D01*
X-30927196Y4605914D01*
X-30856616Y4599500D01*
X-30856610Y4599500D01*
X-30543390Y4599500D01*
X-30543384Y4599500D01*
X-30472804Y4605914D01*
X-30472802Y4605915D01*
X-30472799Y4605915D01*
X-30310397Y4656521D01*
X-30310396Y4656521D01*
X-30239231Y4699542D01*
X-30164815Y4744528D01*
X-30044528Y4864815D01*
X-29956522Y5010394D01*
X-29946782Y5041650D01*
X-29946781Y5041652D01*
X-29922772Y5070462D01*
X-29885423Y5073856D01*
X-29856613Y5049847D01*
X-29853219Y5041652D01*
X-29843480Y5010397D01*
X-29843480Y5010396D01*
X-29755473Y4864816D01*
X-29635185Y4744528D01*
X-29489605Y4656521D01*
X-29327202Y4605915D01*
X-29327199Y4605915D01*
X-29327196Y4605914D01*
X-29256616Y4599500D01*
X-29256610Y4599500D01*
X-28943390Y4599500D01*
X-28943384Y4599500D01*
X-28872804Y4605914D01*
X-28714576Y4655219D01*
X-28685425Y4655219D01*
X-28565893Y4617972D01*
X-28527201Y4605915D01*
X-28527200Y4605915D01*
X-28527197Y4605914D01*
X-28456617Y4599500D01*
X-28456611Y4599500D01*
X-28143391Y4599500D01*
X-28143385Y4599500D01*
X-28072805Y4605914D01*
X-28072803Y4605915D01*
X-28072800Y4605915D01*
X-27910398Y4656521D01*
X-27910397Y4656521D01*
X-27839232Y4699542D01*
X-27764816Y4744528D01*
X-27644529Y4864815D01*
X-27556523Y5010394D01*
X-27546782Y5041656D01*
X-27522773Y5070464D01*
X-27485424Y5073859D01*
X-27456614Y5049849D01*
X-27453220Y5041655D01*
X-27443479Y5010395D01*
X-27355473Y4864816D01*
X-27235185Y4744528D01*
X-27089605Y4656521D01*
X-26927202Y4605915D01*
X-26927199Y4605915D01*
X-26927196Y4605914D01*
X-26856616Y4599500D01*
X-26856610Y4599500D01*
X-26543390Y4599500D01*
X-26543384Y4599500D01*
X-26472804Y4605914D01*
X-26314576Y4655219D01*
X-26285424Y4655219D01*
X-26165892Y4617972D01*
X-26127200Y4605915D01*
X-26127199Y4605915D01*
X-26127196Y4605914D01*
X-26056616Y4599500D01*
X-26056610Y4599500D01*
X-25743390Y4599500D01*
X-25743384Y4599500D01*
X-25672804Y4605914D01*
X-25672802Y4605915D01*
X-25672799Y4605915D01*
X-25510397Y4656521D01*
X-25510396Y4656521D01*
X-25439231Y4699542D01*
X-25364815Y4744528D01*
X-25244528Y4864815D01*
X-25156522Y5010394D01*
X-25146781Y5041654D01*
X-25122774Y5070462D01*
X-25085425Y5073857D01*
X-25056614Y5049848D01*
X-25053220Y5041653D01*
X-25043479Y5010394D01*
X-24955473Y4864815D01*
X-24835185Y4744527D01*
X-24689605Y4656520D01*
X-24527202Y4605914D01*
X-24527199Y4605914D01*
X-24527196Y4605913D01*
X-24456616Y4599499D01*
X-24456610Y4599499D01*
X-24143390Y4599499D01*
X-24143384Y4599499D01*
X-24072804Y4605913D01*
X-23914576Y4655218D01*
X-23885423Y4655218D01*
X-23727202Y4605915D01*
X-23727199Y4605915D01*
X-23727196Y4605914D01*
X-23656616Y4599500D01*
X-23656610Y4599500D01*
X-23343390Y4599500D01*
X-23343384Y4599500D01*
X-23272804Y4605914D01*
X-23272802Y4605915D01*
X-23272799Y4605915D01*
X-23110397Y4656521D01*
X-23110396Y4656521D01*
X-23039231Y4699542D01*
X-22964815Y4744528D01*
X-22844528Y4864815D01*
X-22756522Y5010394D01*
X-22746782Y5041650D01*
X-22746781Y5041652D01*
X-22722772Y5070462D01*
X-22685423Y5073856D01*
X-22656613Y5049847D01*
X-22653219Y5041652D01*
X-22643480Y5010397D01*
X-22643480Y5010396D01*
X-22555473Y4864816D01*
X-22435185Y4744528D01*
X-22289605Y4656521D01*
X-22127202Y4605915D01*
X-22127199Y4605915D01*
X-22127196Y4605914D01*
X-22056616Y4599500D01*
X-22056610Y4599500D01*
X-21743390Y4599500D01*
X-21743384Y4599500D01*
X-21672804Y4605914D01*
X-21514576Y4655219D01*
X-21485424Y4655219D01*
X-21365892Y4617972D01*
X-21327200Y4605915D01*
X-21327199Y4605915D01*
X-21327196Y4605914D01*
X-21256616Y4599500D01*
X-21256610Y4599500D01*
X-20943390Y4599500D01*
X-20943384Y4599500D01*
X-20872804Y4605914D01*
X-20872802Y4605915D01*
X-20872799Y4605915D01*
X-20710397Y4656521D01*
X-20710396Y4656521D01*
X-20639231Y4699542D01*
X-20564815Y4744528D01*
X-20444528Y4864815D01*
X-20356522Y5010394D01*
X-20346782Y5041650D01*
X-20346781Y5041652D01*
X-20322772Y5070462D01*
X-20285423Y5073856D01*
X-20256613Y5049847D01*
X-20253219Y5041652D01*
X-20243480Y5010397D01*
X-20243480Y5010396D01*
X-20155473Y4864816D01*
X-20035185Y4744528D01*
X-19889605Y4656521D01*
X-19727202Y4605915D01*
X-19727199Y4605915D01*
X-19727196Y4605914D01*
X-19656616Y4599500D01*
X-19656610Y4599500D01*
X-19343390Y4599500D01*
X-19343384Y4599500D01*
X-19272804Y4605914D01*
X-19114579Y4655218D01*
X-19085424Y4655218D01*
X-18927200Y4605914D01*
X-18927199Y4605914D01*
X-18927196Y4605913D01*
X-18856616Y4599499D01*
X-18856610Y4599499D01*
X-18543390Y4599499D01*
X-18543384Y4599499D01*
X-18472804Y4605913D01*
X-18472802Y4605914D01*
X-18472799Y4605914D01*
X-18310397Y4656520D01*
X-18310396Y4656520D01*
X-18310394Y4656521D01*
X-18164815Y4744527D01*
X-18044528Y4864814D01*
X-17956522Y5010393D01*
X-17946781Y5041654D01*
X-17905915Y5172798D01*
X-17905915Y5172801D01*
X-17905914Y5172803D01*
X-17899500Y5243383D01*
X-17899500Y7156615D01*
X-17905914Y7227195D01*
X-17923378Y7283241D01*
X-17919984Y7320589D01*
X-17911248Y7332463D01*
X-14674761Y10568947D01*
X-14644634Y10614038D01*
X-14638549Y10621453D01*
X-13920000Y11340000D01*
X-13920000Y12045795D01*
X-13913433Y12070299D01*
X-13903412Y12087652D01*
X-13848570Y12238286D01*
X-13820718Y12396155D01*
X-13820718Y12407230D01*
X-13820711Y12407336D01*
X-13820711Y12480759D01*
X-13820709Y12502898D01*
X-13820703Y12552498D01*
X-13820705Y12552504D01*
X-13820704Y12555102D01*
X-13820711Y12555248D01*
X-13820711Y12665563D01*
X-13820718Y12665687D01*
X-13820716Y12676471D01*
X-13842575Y12800500D01*
X-13848542Y12834358D01*
X-13848544Y12834366D01*
X-13864687Y12878725D01*
X-13903367Y12985022D01*
X-13903373Y12985032D01*
X-13903374Y12985035D01*
X-13913437Y13002468D01*
X-13920000Y13026964D01*
X-13920000Y13245795D01*
X-13913433Y13270299D01*
X-13903412Y13287652D01*
X-13848570Y13438286D01*
X-13820718Y13596155D01*
X-13820718Y13607230D01*
X-13820711Y13607336D01*
X-13820711Y13680759D01*
X-13820710Y13693381D01*
X-13820703Y13752498D01*
X-13820705Y13752504D01*
X-13820704Y13755102D01*
X-13820711Y13755248D01*
X-13820711Y13865563D01*
X-13820718Y13865687D01*
X-13820716Y13876471D01*
X-13838699Y13978507D01*
X-13848542Y14034358D01*
X-13848544Y14034366D01*
X-13872247Y14099501D01*
X-13903367Y14185022D01*
X-13903373Y14185032D01*
X-13903374Y14185035D01*
X-13913437Y14202468D01*
X-13920000Y14226964D01*
X-13920000Y14445795D01*
X-13913433Y14470299D01*
X-13903412Y14487652D01*
X-13848570Y14638286D01*
X-13820718Y14796155D01*
X-13820718Y14807230D01*
X-13820711Y14807336D01*
X-13820711Y14880759D01*
X-13820710Y14893381D01*
X-13820703Y14952498D01*
X-13820705Y14952504D01*
X-13820704Y14955102D01*
X-13820711Y14955248D01*
X-13820711Y15065563D01*
X-13820718Y15065687D01*
X-13820716Y15076471D01*
X-13833380Y15148325D01*
X-13848542Y15234358D01*
X-13848544Y15234366D01*
X-13864687Y15278725D01*
X-13903367Y15385022D01*
X-13903373Y15385032D01*
X-13903374Y15385035D01*
X-13913437Y15402468D01*
X-13920000Y15426964D01*
X-13920000Y15645795D01*
X-13913433Y15670299D01*
X-13903412Y15687652D01*
X-13848570Y15838286D01*
X-13820718Y15996155D01*
X-13820718Y16007230D01*
X-13820711Y16007336D01*
X-13820711Y16080759D01*
X-13820707Y16119656D01*
X-13820703Y16152498D01*
X-13820705Y16152504D01*
X-13820704Y16155102D01*
X-13820711Y16155248D01*
X-13820711Y16265563D01*
X-13820718Y16265687D01*
X-13820716Y16276471D01*
X-13844257Y16410045D01*
X-13848542Y16434358D01*
X-13848544Y16434366D01*
X-13875864Y16509442D01*
X-13903367Y16585022D01*
X-13903373Y16585032D01*
X-13903374Y16585035D01*
X-13913437Y16602468D01*
X-13920000Y16626964D01*
X-13920000Y16845795D01*
X-13913433Y16870299D01*
X-13903412Y16887652D01*
X-13848570Y17038286D01*
X-13820718Y17196155D01*
X-13820718Y17207230D01*
X-13820711Y17207336D01*
X-13820711Y17280759D01*
X-13820707Y17319656D01*
X-13820703Y17352498D01*
X-13820705Y17352504D01*
X-13820704Y17355102D01*
X-13820711Y17355248D01*
X-13820711Y17465563D01*
X-13820718Y17465687D01*
X-13820716Y17476471D01*
X-13846266Y17621441D01*
X-13848542Y17634358D01*
X-13848544Y17634366D01*
X-13868573Y17689405D01*
X-13903367Y17785022D01*
X-13903373Y17785032D01*
X-13903374Y17785035D01*
X-13913437Y17802468D01*
X-13920000Y17826964D01*
X-13920000Y27370000D01*
X-14939001Y28389001D01*
X-10894329Y28389001D01*
X-10894329Y28389000D01*
X-10875035Y28094626D01*
X-10817483Y27805284D01*
X-10722653Y27525925D01*
X-10592172Y27261335D01*
X-10428274Y27016043D01*
X-10333199Y26907632D01*
X-10233758Y26794242D01*
X-10132613Y26705540D01*
X-10011958Y26599727D01*
X-9933294Y26547166D01*
X-9766665Y26435828D01*
X-9502077Y26305348D01*
X-9222722Y26210519D01*
X-8933380Y26152966D01*
X-8923536Y26152321D01*
X-8902304Y26145898D01*
X-8884135Y26135445D01*
X-8865564Y26127204D01*
X-8833211Y26116725D01*
X-8824830Y26114010D01*
X-8824826Y26114009D01*
X-8824814Y26114005D01*
X-8824807Y26114004D01*
X-8824805Y26114003D01*
X-8758886Y26100033D01*
X-8758887Y26100033D01*
X-8758880Y26100032D01*
X-8758871Y26100030D01*
X-8737693Y26096685D01*
X-8727534Y26095620D01*
X-8716743Y26095056D01*
X-8706135Y26094501D01*
X-8706115Y26094501D01*
X-8706108Y26094500D01*
X-8706104Y26094500D01*
X-3787684Y26094500D01*
X-3787666Y26094500D01*
X-3767508Y26095491D01*
X-3757951Y26096433D01*
X-3757941Y26096435D01*
X-3757936Y26096435D01*
X-3753469Y26097099D01*
X-3738010Y26099392D01*
X-3728008Y26101383D01*
X-3723479Y26102284D01*
X-3723478Y26102283D01*
X-3675777Y26111771D01*
X-3637228Y26123465D01*
X-3619565Y26130781D01*
X-3584035Y26149771D01*
X-3531264Y26185031D01*
X-3515059Y26197050D01*
X-3507634Y26203144D01*
X-3492698Y26216683D01*
X-3492693Y26216688D01*
X-3492690Y26216690D01*
X-2816690Y26892690D01*
X-2816688Y26892693D01*
X-2816683Y26892698D01*
X-2803144Y26907634D01*
X-2797050Y26915059D01*
X-2785031Y26931264D01*
X-2749771Y26984035D01*
X-2730781Y27019565D01*
X-2723465Y27037228D01*
X-2711772Y27075774D01*
X-2711770Y27075788D01*
X-2711767Y27075796D01*
X-2699398Y27137979D01*
X-2699391Y27138014D01*
X-2696432Y27157956D01*
X-2695490Y27167516D01*
X-2694500Y27187667D01*
X-2694500Y29612334D01*
X-2695490Y29632485D01*
X-2696432Y29642045D01*
X-2699391Y29661987D01*
X-2699828Y29664186D01*
X-2711767Y29724206D01*
X-2711771Y29724218D01*
X-2711772Y29724227D01*
X-2723465Y29762773D01*
X-2730781Y29780436D01*
X-2749771Y29815966D01*
X-2785031Y29868737D01*
X-2797050Y29884942D01*
X-2803144Y29892367D01*
X-2816683Y29907303D01*
X-2816688Y29907309D01*
X-3492693Y30583314D01*
X-3507632Y30596855D01*
X-3515051Y30602945D01*
X-3515059Y30602951D01*
X-3531264Y30614970D01*
X-3584035Y30650230D01*
X-3584037Y30650231D01*
X-3619562Y30669219D01*
X-3619572Y30669223D01*
X-3622155Y30670293D01*
X-3637232Y30676538D01*
X-3637230Y30676538D01*
X-3675773Y30688229D01*
X-3675779Y30688231D01*
X-3737969Y30700601D01*
X-3738032Y30700612D01*
X-3757941Y30703566D01*
X-3767501Y30704508D01*
X-3767507Y30704509D01*
X-3778709Y30705060D01*
X-3787666Y30705500D01*
X-8512334Y30705500D01*
X-8512362Y30705500D01*
X-8532424Y30704516D01*
X-8532455Y30704514D01*
X-8541994Y30703575D01*
X-8561974Y30700613D01*
X-8561977Y30700613D01*
X-8624218Y30688232D01*
X-8624235Y30688228D01*
X-8662777Y30676536D01*
X-8662786Y30676533D01*
X-8680434Y30669223D01*
X-8705584Y30655780D01*
X-8715964Y30650231D01*
X-8715967Y30650230D01*
X-8715969Y30650228D01*
X-8723215Y30645387D01*
X-8747230Y30637236D01*
X-8933375Y30625035D01*
X-9222717Y30567483D01*
X-9502079Y30472652D01*
X-9766665Y30342172D01*
X-10011958Y30178274D01*
X-10233758Y29983758D01*
X-10428274Y29761958D01*
X-10592172Y29516665D01*
X-10722652Y29252079D01*
X-10817483Y28972717D01*
X-10875035Y28683375D01*
X-10894329Y28389001D01*
X-14939001Y28389001D01*
X-15739774Y29189774D01*
X-15744230Y29194894D01*
X-15749019Y29201236D01*
X-15749020Y29201237D01*
X-15773268Y29223342D01*
X-15774905Y29224905D01*
X-16699935Y30149935D01*
X-16714287Y30184583D01*
X-16714079Y30189093D01*
X-16704357Y30294000D01*
X-16724885Y30515536D01*
X-16785771Y30729528D01*
X-16884942Y30928689D01*
X-16953737Y31019789D01*
X-17019017Y31106234D01*
X-17019020Y31106237D01*
X-17183434Y31256121D01*
X-17183437Y31256123D01*
X-17183438Y31256124D01*
X-17372599Y31373247D01*
X-17372602Y31373248D01*
X-17372603Y31373249D01*
X-17476330Y31413433D01*
X-17580060Y31453618D01*
X-17798757Y31494500D01*
X-18021243Y31494500D01*
X-18021247Y31494500D01*
X-18021831Y31494446D01*
X-18022188Y31494500D01*
X-18023508Y31494500D01*
X-18023508Y31494700D01*
X-18045093Y31497968D01*
X-18049999Y31500000D01*
X-18050000Y31500000D01*
X-33100000Y31500000D01*
X-33112518Y31500000D01*
X-33125796Y31494500D01*
X-33261243Y31494500D01*
X-33479940Y31453618D01*
X-33479945Y31453616D01*
X-33687398Y31373249D01*
X-33876567Y31256121D01*
X-34040981Y31106237D01*
X-34040984Y31106234D01*
X-34175057Y30928691D01*
X-34175060Y30928687D01*
X-34274227Y30729534D01*
X-34274230Y30729527D01*
X-34335115Y30515539D01*
X-34335116Y30515533D01*
X-34355643Y30294000D01*
X-34884435Y30294000D01*
X-34904632Y30473255D01*
X-34964211Y30643522D01*
X-34964212Y30643523D01*
X-34964213Y30643527D01*
X-35060183Y30796260D01*
X-35060184Y30796262D01*
X-35187738Y30923816D01*
X-35195493Y30928689D01*
X-35340474Y31019788D01*
X-35510742Y31079367D01*
X-35510743Y31079368D01*
X-35510745Y31079368D01*
X-35510749Y31079369D01*
X-35510751Y31079369D01*
X-35690000Y31099565D01*
X-35869250Y31079369D01*
X-35869259Y31079367D01*
X-36039527Y31019788D01*
X-36192260Y30923818D01*
X-36192264Y30923815D01*
X-36319815Y30796264D01*
X-36319818Y30796260D01*
X-36415788Y30643527D01*
X-36475367Y30473259D01*
X-36475369Y30473250D01*
X-36495565Y30294000D01*
X-37424435Y30294000D01*
X-37444632Y30473255D01*
X-37504211Y30643522D01*
X-37504212Y30643523D01*
X-37504213Y30643527D01*
X-37600183Y30796260D01*
X-37600184Y30796262D01*
X-37727738Y30923816D01*
X-37735493Y30928689D01*
X-37880474Y31019788D01*
X-38050742Y31079367D01*
X-38050743Y31079368D01*
X-38050745Y31079368D01*
X-38050749Y31079369D01*
X-38050751Y31079369D01*
X-38230000Y31099565D01*
X-38409250Y31079369D01*
X-38409259Y31079367D01*
X-38579527Y31019788D01*
X-38732260Y30923818D01*
X-38732264Y30923815D01*
X-38859815Y30796264D01*
X-38859818Y30796260D01*
X-38955788Y30643527D01*
X-39015367Y30473259D01*
X-39015369Y30473250D01*
X-39035565Y30294000D01*
X-42104357Y30294000D01*
X-42124885Y30515536D01*
X-42185771Y30729528D01*
X-42284942Y30928689D01*
X-42353737Y31019789D01*
X-42419017Y31106234D01*
X-42419020Y31106237D01*
X-42583434Y31256121D01*
X-42583437Y31256123D01*
X-42583438Y31256124D01*
X-42772599Y31373247D01*
X-42772602Y31373248D01*
X-42772603Y31373249D01*
X-42876330Y31413433D01*
X-42980060Y31453618D01*
X-43198757Y31494500D01*
X-43198759Y31494500D01*
X-43274204Y31494500D01*
X-43287482Y31500000D01*
X-43300000Y31500000D01*
X-58500000Y31500000D01*
X-58500002Y31499999D01*
X-58504271Y31498230D01*
X-58523024Y31494500D01*
X-58661243Y31494500D01*
X-58879940Y31453618D01*
X-58879945Y31453616D01*
X-59087398Y31373249D01*
X-59276567Y31256121D01*
X-59440981Y31106237D01*
X-59440984Y31106234D01*
X-59575057Y30928691D01*
X-59575060Y30928687D01*
X-59674227Y30729534D01*
X-59674230Y30729527D01*
X-59735115Y30515539D01*
X-59735116Y30515533D01*
X-59755643Y30294001D01*
X-65350242Y30294001D01*
X-65422335Y30342172D01*
X-65686925Y30472653D01*
X-65966284Y30567483D01*
X-66205029Y30614971D01*
X-66255620Y30625034D01*
X-66255622Y30625035D01*
X-66255626Y30625035D01*
X-66549999Y30644329D01*
X-66550001Y30644329D01*
X-66844375Y30625035D01*
X-67133717Y30567483D01*
X-67413079Y30472652D01*
X-67677665Y30342172D01*
X-67922958Y30178274D01*
X-68144758Y29983758D01*
X-68339274Y29761958D01*
X-68503172Y29516665D01*
X-68633652Y29252079D01*
X-68728483Y28972717D01*
X-68786035Y28683375D01*
X-68805329Y28389001D01*
X-74799500Y28389001D01*
X-74799500Y29998797D01*
X-74799441Y30001201D01*
X-74790210Y30189105D01*
X-74781322Y30370023D01*
X-74780854Y30374780D01*
X-74726845Y30738882D01*
X-74725914Y30743564D01*
X-74636480Y31100605D01*
X-74635084Y31105204D01*
X-74552393Y31336309D01*
X-74511083Y31451764D01*
X-74509254Y31456177D01*
X-74351885Y31788907D01*
X-74349637Y31793114D01*
X-74160402Y32108834D01*
X-74157732Y32112827D01*
X-73938478Y32408456D01*
X-73935452Y32412144D01*
X-73688269Y32684869D01*
X-73684868Y32688269D01*
X-73412144Y32935452D01*
X-73408456Y32938478D01*
X-73112823Y33157735D01*
X-73108829Y33160404D01*
X-72793114Y33349637D01*
X-72788907Y33351885D01*
X-72456177Y33509254D01*
X-72451764Y33511083D01*
X-72105202Y33635085D01*
X-72100602Y33636480D01*
X-71743564Y33725914D01*
X-71738882Y33726845D01*
X-71374780Y33780854D01*
X-71370023Y33781322D01*
X-71001201Y33799442D01*
X-70998797Y33799500D01*
X-70960118Y33799500D01*
X-4039882Y33799500D01*
X-4001203Y33799500D01*
X-3998800Y33799442D01*
G37*
G04 #@! TD.AperFunction*
G04 #@! TD*
M02*
