G04 #@! TF.GenerationSoftware,KiCad,Pcbnew,8.0.6*
G04 #@! TF.CreationDate,2024-11-07T02:27:38-08:00*
G04 #@! TF.ProjectId,mse-68-hd,6d73652d-3638-42d6-9864-2e6b69636164,1*
G04 #@! TF.SameCoordinates,Original*
G04 #@! TF.FileFunction,Legend,Top*
G04 #@! TF.FilePolarity,Positive*
%FSLAX46Y46*%
G04 Gerber Fmt 4.6, Leading zero omitted, Abs format (unit mm)*
G04 Created by KiCad (PCBNEW 8.0.6) date 2024-11-07 02:27:38*
%MOMM*%
%LPD*%
G01*
G04 APERTURE LIST*
G04 Aperture macros list*
%AMRoundRect*
0 Rectangle with rounded corners*
0 $1 Rounding radius*
0 $2 $3 $4 $5 $6 $7 $8 $9 X,Y pos of 4 corners*
0 Add a 4 corners polygon primitive as box body*
4,1,4,$2,$3,$4,$5,$6,$7,$8,$9,$2,$3,0*
0 Add four circle primitives for the rounded corners*
1,1,$1+$1,$2,$3*
1,1,$1+$1,$4,$5*
1,1,$1+$1,$6,$7*
1,1,$1+$1,$8,$9*
0 Add four rect primitives between the rounded corners*
20,1,$1+$1,$2,$3,$4,$5,0*
20,1,$1+$1,$4,$5,$6,$7,0*
20,1,$1+$1,$6,$7,$8,$9,0*
20,1,$1+$1,$8,$9,$2,$3,0*%
G04 Aperture macros list end*
%ADD10C,0.100000*%
%ADD11C,0.150000*%
%ADD12C,0.120000*%
%ADD13C,0.000000*%
%ADD14C,0.800000*%
%ADD15C,1.200000*%
%ADD16RoundRect,0.125000X0.125000X0.925000X-0.125000X0.925000X-0.125000X-0.925000X0.125000X-0.925000X0*%
%ADD17RoundRect,0.225000X0.225000X-0.275000X0.225000X0.275000X-0.225000X0.275000X-0.225000X-0.275000X0*%
%ADD18RoundRect,0.225000X-0.225000X0.275000X-0.225000X-0.275000X0.225000X-0.275000X0.225000X0.275000X0*%
%ADD19RoundRect,0.225000X-0.275000X-0.225000X0.275000X-0.225000X0.275000X0.225000X-0.275000X0.225000X0*%
%ADD20C,1.300000*%
%ADD21C,4.200000*%
%ADD22C,6.500000*%
%ADD23RoundRect,0.062500X0.137500X-0.287500X0.137500X0.287500X-0.137500X0.287500X-0.137500X-0.287500X0*%
%ADD24RoundRect,0.265625X0.584375X-0.584375X0.584375X0.584375X-0.584375X0.584375X-0.584375X-0.584375X0*%
%ADD25C,2.300000*%
%ADD26C,2.700000*%
%ADD27C,1.950000*%
%ADD28RoundRect,0.225000X0.275000X0.225000X-0.275000X0.225000X-0.275000X-0.225000X0.275000X-0.225000X0*%
G04 APERTURE END LIST*
D10*
X-12357143Y3627581D02*
X-12357143Y4294248D01*
X-12357143Y4103772D02*
X-12309524Y4199010D01*
X-12309524Y4199010D02*
X-12261905Y4246629D01*
X-12261905Y4246629D02*
X-12166667Y4294248D01*
X-12166667Y4294248D02*
X-12071429Y4294248D01*
X-11357143Y3675200D02*
X-11452381Y3627581D01*
X-11452381Y3627581D02*
X-11642857Y3627581D01*
X-11642857Y3627581D02*
X-11738095Y3675200D01*
X-11738095Y3675200D02*
X-11785714Y3770439D01*
X-11785714Y3770439D02*
X-11785714Y4151391D01*
X-11785714Y4151391D02*
X-11738095Y4246629D01*
X-11738095Y4246629D02*
X-11642857Y4294248D01*
X-11642857Y4294248D02*
X-11452381Y4294248D01*
X-11452381Y4294248D02*
X-11357143Y4246629D01*
X-11357143Y4246629D02*
X-11309524Y4151391D01*
X-11309524Y4151391D02*
X-11309524Y4056153D01*
X-11309524Y4056153D02*
X-11785714Y3960915D01*
X-10976190Y4294248D02*
X-10738095Y3627581D01*
X-10738095Y3627581D02*
X-10500000Y4294248D01*
X-9595238Y3627581D02*
X-10166666Y3627581D01*
X-9880952Y3627581D02*
X-9880952Y4627581D01*
X-9880952Y4627581D02*
X-9976190Y4484724D01*
X-9976190Y4484724D02*
X-10071428Y4389486D01*
X-10071428Y4389486D02*
X-10166666Y4341867D01*
D11*
X-39166667Y32354820D02*
X-39166667Y33069105D01*
X-39166667Y33069105D02*
X-39119048Y33211962D01*
X-39119048Y33211962D02*
X-39023810Y33307200D01*
X-39023810Y33307200D02*
X-38880953Y33354820D01*
X-38880953Y33354820D02*
X-38785715Y33354820D01*
X-40071429Y32688153D02*
X-40071429Y33354820D01*
X-39833334Y32307200D02*
X-39595239Y33021486D01*
X-39595239Y33021486D02*
X-40214286Y33021486D01*
D12*
G04 #@! TO.C,J1*
X-60600001Y7100000D02*
X-60600000Y2000000D01*
X-60600001Y7100000D02*
X-57500001Y7100000D01*
X-59500000Y900000D02*
X-57500001Y900000D01*
X-17499999Y7100000D02*
X-14399999Y7100000D01*
X-17499999Y900000D02*
X-14399999Y900000D01*
X-14399999Y7100000D02*
X-14399999Y900000D01*
D10*
G04 #@! TO.C,R3*
X-67549999Y11600000D02*
X-67549999Y11000000D01*
X-66850001Y11000000D02*
X-66850001Y11600000D01*
G04 #@! TO.C,R2*
X-67549999Y15900000D02*
X-67549999Y15300000D01*
X-66850001Y15300000D02*
X-66850001Y15900000D01*
G04 #@! TO.C,R4*
X-2800000Y27400000D02*
X-2200000Y27400000D01*
X-2200000Y28100000D02*
X-2800000Y28100000D01*
D12*
G04 #@! TO.C,J4*
X-57750000Y26484001D02*
G75*
G02*
X-59350000Y26484001I-800000J0D01*
G01*
X-59350000Y26484001D02*
G75*
G02*
X-57750000Y26484001I800000J0D01*
G01*
D10*
G04 #@! TO.C,C1*
X-66399999Y3700000D02*
X-66399999Y4300000D01*
X-65700001Y4300000D02*
X-65700001Y3700000D01*
D13*
G04 #@! TO.C,kibuzzard-672C6177*
G36*
X-36612783Y15733764D02*
G01*
X-36555836Y15606543D01*
X-36587338Y15476898D01*
X-36693962Y15354523D01*
X-36813308Y15411470D01*
X-36890246Y15465994D01*
X-36945981Y15604120D01*
X-36886611Y15732553D01*
X-36749697Y15776171D01*
X-36612783Y15733764D01*
G37*
G36*
X-36693962Y15091599D02*
G01*
X-36590973Y15031018D01*
X-36532815Y14964378D01*
X-36514641Y14879564D01*
X-36578857Y14754766D01*
X-36752120Y14702666D01*
X-36915691Y14752342D01*
X-36984754Y14898950D01*
X-36948405Y15031018D01*
X-36844204Y15155816D01*
X-36693962Y15091599D01*
G37*
G36*
X-34248586Y15731038D02*
G01*
X-34165287Y15690145D01*
X-34111672Y15616539D01*
X-34093800Y15504766D01*
X-34111975Y15386935D01*
X-34166498Y15309693D01*
X-34256765Y15266983D01*
X-34382169Y15252746D01*
X-34503332Y15252746D01*
X-34503332Y15737399D01*
X-34429422Y15743457D01*
X-34355513Y15744669D01*
X-34248586Y15731038D01*
G37*
G36*
X-37875909Y15183986D02*
G01*
X-37806240Y15137641D01*
X-37755351Y14961955D01*
X-37766256Y14877141D01*
X-37800182Y14797173D01*
X-37859552Y14736591D01*
X-37946789Y14712359D01*
X-38052201Y14742649D01*
X-38118841Y14823829D01*
X-38152767Y14938934D01*
X-38162460Y15073425D01*
X-38161248Y15119467D01*
X-38157613Y15163086D01*
X-38077645Y15189742D01*
X-37983138Y15199435D01*
X-37875909Y15183986D01*
G37*
G36*
X-31337556Y16341407D02*
G01*
X-31235974Y16326339D01*
X-31136358Y16301386D01*
X-31039668Y16266790D01*
X-30946834Y16222883D01*
X-30858751Y16170088D01*
X-30776267Y16108914D01*
X-30700176Y16039949D01*
X-30631212Y15963858D01*
X-30570037Y15881374D01*
X-30517242Y15793291D01*
X-30473335Y15700458D01*
X-30438739Y15603767D01*
X-30413786Y15504151D01*
X-30398718Y15402570D01*
X-30393679Y15300000D01*
X-30398718Y15197430D01*
X-30413786Y15095849D01*
X-30438739Y14996233D01*
X-30473335Y14899542D01*
X-30517242Y14806709D01*
X-30570037Y14718626D01*
X-30631212Y14636142D01*
X-30700176Y14560051D01*
X-30776267Y14491086D01*
X-30858751Y14429912D01*
X-30946834Y14377117D01*
X-31039668Y14333210D01*
X-31136358Y14298614D01*
X-31235974Y14273661D01*
X-31337556Y14258593D01*
X-31440125Y14253554D01*
X-31440327Y14253554D01*
X-32911248Y14253554D01*
X-34503332Y14253554D01*
X-36756967Y14253554D01*
X-37939519Y14253554D01*
X-40837742Y14253554D01*
X-41639842Y14253554D01*
X-42257775Y14253554D01*
X-43357936Y14253554D01*
X-43559875Y14253554D01*
X-43662444Y14258593D01*
X-43764026Y14273661D01*
X-43863642Y14298614D01*
X-43960332Y14333210D01*
X-44053166Y14377117D01*
X-44141249Y14429912D01*
X-44218217Y14486995D01*
X-43357936Y14486995D01*
X-43084107Y14486995D01*
X-43096224Y15652585D01*
X-42919326Y15017690D01*
X-42701232Y15017690D01*
X-42517064Y15652585D01*
X-42531603Y14486995D01*
X-42257775Y14486995D01*
X-42260118Y14569386D01*
X-42105109Y14569386D01*
X-41937904Y14495477D01*
X-41807653Y14465489D01*
X-41639842Y14455493D01*
X-41469810Y14468282D01*
X-41402247Y14486995D01*
X-40837742Y14486995D01*
X-39875707Y14486995D01*
X-39875707Y14734168D01*
X-40539681Y14734168D01*
X-40539681Y15100081D01*
X-38455674Y15100081D01*
X-38441000Y14898277D01*
X-38396978Y14735514D01*
X-38323607Y14611793D01*
X-38222233Y14524960D01*
X-38094204Y14472859D01*
X-37939519Y14455493D01*
X-37824414Y14467306D01*
X-37726272Y14502746D01*
X-37578453Y14625121D01*
X-37492427Y14789903D01*
X-37480975Y14862601D01*
X-37263429Y14862601D01*
X-37227080Y14691761D01*
X-37124091Y14563328D01*
X-36964156Y14483360D01*
X-36865711Y14462460D01*
X-36756967Y14455493D01*
X-36623082Y14465186D01*
X-36512217Y14494265D01*
X-36351070Y14592407D01*
X-36261410Y14726898D01*
X-36233542Y14874717D01*
X-36247779Y14983764D01*
X-36290489Y15083118D01*
X-36367730Y15173990D01*
X-36485561Y15257593D01*
X-36391054Y15333623D01*
X-36325626Y15426010D01*
X-36287460Y15527484D01*
X-36274737Y15630775D01*
X-36306543Y15791922D01*
X-36401959Y15916721D01*
X-36496989Y15967609D01*
X-34801393Y15967609D01*
X-34801393Y14486995D01*
X-34503332Y14486995D01*
X-34503332Y14993457D01*
X-34396708Y14993457D01*
X-34217522Y15006785D01*
X-34067683Y15046769D01*
X-33947193Y15113409D01*
X-33859013Y15209935D01*
X-33806105Y15339580D01*
X-33788469Y15502342D01*
X-33801892Y15625929D01*
X-33633380Y15625929D01*
X-33633380Y15378756D01*
X-33318356Y15378756D01*
X-33318356Y14959532D01*
X-33313510Y14847456D01*
X-33298970Y14748708D01*
X-33232330Y14592407D01*
X-33106321Y14494265D01*
X-33018174Y14468821D01*
X-32911248Y14460339D01*
X-32762217Y14476090D01*
X-32588954Y14535460D01*
X-32627726Y14775363D01*
X-32758582Y14730533D01*
X-32857936Y14719628D01*
X-32982734Y14769305D01*
X-33020295Y14920759D01*
X-33020295Y15589580D01*
X-32356321Y15589580D01*
X-32356321Y14486995D01*
X-32058259Y14486995D01*
X-32058259Y15381179D01*
X-31989196Y15388449D01*
X-31922557Y15390872D01*
X-31774737Y15320598D01*
X-31747476Y15227908D01*
X-31738389Y15090388D01*
X-31738389Y14486995D01*
X-31440327Y14486995D01*
X-31440327Y15129160D01*
X-31445779Y15240327D01*
X-31462137Y15341195D01*
X-31536046Y15505977D01*
X-31677807Y15612601D01*
X-31778978Y15640771D01*
X-31903170Y15650162D01*
X-32036147Y15645315D01*
X-32158825Y15630775D01*
X-32266963Y15610784D01*
X-32356321Y15589580D01*
X-33020295Y15589580D01*
X-33020295Y15625929D01*
X-33221426Y15625929D01*
X-33633380Y15625929D01*
X-33801892Y15625929D01*
X-33805971Y15663489D01*
X-33858475Y15791519D01*
X-33945981Y15886430D01*
X-34065260Y15951723D01*
X-34070339Y15953069D01*
X-33408017Y15953069D01*
X-33353494Y15814943D01*
X-33221426Y15764055D01*
X-33088146Y15814943D01*
X-33032411Y15953069D01*
X-33088146Y16093619D01*
X-33221426Y16144507D01*
X-33353494Y16093619D01*
X-33408017Y15953069D01*
X-34070339Y15953069D01*
X-34213079Y15990899D01*
X-34389439Y16003958D01*
X-34483946Y16001535D01*
X-34592993Y15995477D01*
X-34703251Y15984572D01*
X-34801393Y15967609D01*
X-36496989Y15967609D01*
X-36551292Y15996688D01*
X-36744851Y16023344D01*
X-36869649Y16013045D01*
X-36972637Y15982149D01*
X-37120456Y15877948D01*
X-37201636Y15736187D01*
X-37227080Y15584733D01*
X-37188308Y15410258D01*
X-37132573Y15330291D01*
X-37042912Y15255170D01*
X-37141660Y15171870D01*
X-37210117Y15077060D01*
X-37250101Y14973162D01*
X-37263429Y14862601D01*
X-37480975Y14862601D01*
X-37464560Y14966801D01*
X-37490004Y15150969D01*
X-37573607Y15303635D01*
X-37722637Y15407835D01*
X-37823506Y15436914D01*
X-37944366Y15446607D01*
X-38021910Y15435703D01*
X-38111571Y15405412D01*
X-38027968Y15562924D01*
X-37893477Y15665913D01*
X-37723849Y15722859D01*
X-37534834Y15742246D01*
X-37551797Y15996688D01*
X-37746264Y15982149D01*
X-37922557Y15938530D01*
X-38077645Y15866438D01*
X-38208502Y15766478D01*
X-38313611Y15639257D01*
X-38391458Y15485380D01*
X-38439620Y15305452D01*
X-38455674Y15100081D01*
X-40539681Y15100081D01*
X-40539681Y15155816D01*
X-40008986Y15155816D01*
X-40008986Y15402989D01*
X-40539681Y15402989D01*
X-40539681Y15739822D01*
X-39929019Y15739822D01*
X-39929019Y15986995D01*
X-40837742Y15986995D01*
X-40837742Y14486995D01*
X-41402247Y14486995D01*
X-41331280Y14506651D01*
X-41224253Y14570598D01*
X-41121567Y14709632D01*
X-41087338Y14896527D01*
X-41097637Y15009511D01*
X-41128534Y15101292D01*
X-41233946Y15236995D01*
X-41374495Y15324233D01*
X-41521103Y15383603D01*
X-41614398Y15419952D01*
X-41699212Y15464782D01*
X-41761006Y15522940D01*
X-41785238Y15599273D01*
X-41758852Y15694857D01*
X-41679692Y15752208D01*
X-41547758Y15771325D01*
X-41376918Y15747092D01*
X-41242427Y15688934D01*
X-41155190Y15919144D01*
X-41328453Y15989418D01*
X-41440226Y16013045D01*
X-41569568Y16020921D01*
X-41718060Y16007728D01*
X-41843666Y15968148D01*
X-41946385Y15902181D01*
X-42049071Y15760420D01*
X-42083300Y15572617D01*
X-42044527Y15394507D01*
X-41946385Y15274556D01*
X-41814317Y15194588D01*
X-41673768Y15138853D01*
X-41571991Y15096446D01*
X-41479907Y15045557D01*
X-41412056Y14981341D01*
X-41385400Y14898950D01*
X-41396305Y14827464D01*
X-41436288Y14764459D01*
X-41515044Y14720840D01*
X-41639842Y14705089D01*
X-41760703Y14713570D01*
X-41861571Y14739015D01*
X-42017872Y14811712D01*
X-42105109Y14569386D01*
X-42260118Y14569386D01*
X-42263227Y14678736D01*
X-42269891Y14866236D01*
X-42278069Y15051010D01*
X-42288065Y15234572D01*
X-42300182Y15418437D01*
X-42314721Y15604120D01*
X-42330775Y15793134D01*
X-42347435Y15986995D01*
X-42594608Y15986995D01*
X-42638227Y15858562D01*
X-42691539Y15692569D01*
X-42752120Y15508401D01*
X-42812702Y15323021D01*
X-42868437Y15497496D01*
X-42926595Y15684087D01*
X-42981119Y15856139D01*
X-43023526Y15986995D01*
X-43270699Y15986995D01*
X-43286753Y15822819D01*
X-43300989Y15645315D01*
X-43313409Y15458118D01*
X-43324011Y15264863D01*
X-43333401Y15067973D01*
X-43342185Y14869871D01*
X-43350363Y14674798D01*
X-43357936Y14486995D01*
X-44218217Y14486995D01*
X-44223733Y14491086D01*
X-44299824Y14560051D01*
X-44368788Y14636142D01*
X-44429963Y14718626D01*
X-44482758Y14806709D01*
X-44526665Y14899542D01*
X-44561261Y14996233D01*
X-44586214Y15095849D01*
X-44601282Y15197430D01*
X-44606321Y15300000D01*
X-44601282Y15402570D01*
X-44586214Y15504151D01*
X-44561261Y15603767D01*
X-44526665Y15700458D01*
X-44482758Y15793291D01*
X-44429963Y15881374D01*
X-44368788Y15963858D01*
X-44299824Y16039949D01*
X-44223733Y16108914D01*
X-44141249Y16170088D01*
X-44053166Y16222883D01*
X-43960332Y16266790D01*
X-43863642Y16301386D01*
X-43764026Y16326339D01*
X-43662444Y16341407D01*
X-43559875Y16346446D01*
X-43357936Y16346446D01*
X-31440327Y16346446D01*
X-31440125Y16346446D01*
X-31337556Y16341407D01*
G37*
D10*
G04 #@! TO.C,R1*
X-62499999Y4300000D02*
X-62499999Y3700000D01*
X-61800001Y3700000D02*
X-61800001Y4300000D01*
G04 #@! TO.C,U1*
X-65200000Y2300000D02*
X-65200000Y4950000D01*
X-63000000Y4950000D02*
X-63000000Y3050000D01*
G04 #@! TO.C,J3*
X-68370000Y7770001D02*
X-73969999Y7770000D01*
X-73969999Y20440000D01*
X-68369999Y20440000D01*
X-68370000Y7770001D01*
G04 #@! TO.C,C2*
X-2800000Y29400000D02*
X-2200000Y29400000D01*
X-2200000Y28700000D02*
X-2800000Y28700000D01*
G04 #@! TD*
%LPC*%
D14*
G04 #@! TO.C,J1*
X-15400000Y4000000D03*
D15*
X-59600000Y4000000D03*
D16*
X-57100000Y1800000D03*
X-57100000Y6200000D03*
X-56300000Y1800001D03*
X-56300000Y6199999D03*
X-55500000Y1800000D03*
X-55500000Y6200000D03*
X-54700001Y1800000D03*
X-54700001Y6200000D03*
X-53900000Y1800000D03*
X-53900000Y6200000D03*
X-53100000Y1800000D03*
X-53100000Y6200000D03*
X-52299999Y1800000D03*
X-52299999Y6200000D03*
X-51500000Y1800000D03*
X-51500000Y6200000D03*
X-50700000Y1800001D03*
X-50700000Y6199999D03*
X-49900000Y1800000D03*
X-49900000Y6200000D03*
X-49100000Y1800000D03*
X-49100000Y6200000D03*
X-48300000Y1800000D03*
X-48300000Y6200000D03*
X-47500000Y1800000D03*
X-47500000Y6200000D03*
X-46699999Y1800000D03*
X-46699999Y6200000D03*
X-45900000Y1800000D03*
X-45900000Y6200000D03*
X-45100000Y1800001D03*
X-45100000Y6199999D03*
X-44300000Y1800000D03*
X-44300000Y6200000D03*
X-43500000Y1800000D03*
X-43500000Y6200000D03*
X-42700000Y1800000D03*
X-42700000Y6200000D03*
X-41900000Y1800000D03*
X-41900000Y6200000D03*
X-41099999Y1800000D03*
X-41099999Y6200000D03*
X-40300000Y1800000D03*
X-40300000Y6200000D03*
X-39500000Y1800001D03*
X-39500000Y6199999D03*
X-38700000Y1800000D03*
X-38700000Y6200000D03*
X-37900000Y1800000D03*
X-37900000Y6200000D03*
X-37100000Y1800000D03*
X-37100000Y6200000D03*
X-36300000Y1800000D03*
X-36300000Y6200000D03*
X-35500000Y1800001D03*
X-35500000Y6199999D03*
X-34700000Y1800000D03*
X-34700000Y6200000D03*
X-33900001Y1800000D03*
X-33900001Y6200000D03*
X-33100000Y1800000D03*
X-33100000Y6200000D03*
X-32300000Y1800000D03*
X-32300000Y6200000D03*
X-31500000Y1800000D03*
X-31500000Y6200000D03*
X-30700000Y1800000D03*
X-30700000Y6200000D03*
X-29900000Y1800001D03*
X-29900000Y6199999D03*
X-29100000Y1800000D03*
X-29100000Y6200000D03*
X-28300001Y1800000D03*
X-28300001Y6200000D03*
X-27500000Y1800000D03*
X-27500000Y6200000D03*
X-26700000Y1800000D03*
X-26700000Y6200000D03*
X-25900000Y1800000D03*
X-25900000Y6200000D03*
X-25100000Y1800000D03*
X-25100000Y6200000D03*
X-24300000Y1800001D03*
X-24300000Y6199999D03*
X-23500000Y1800000D03*
X-23500000Y6200000D03*
X-22700001Y1800000D03*
X-22700001Y6200000D03*
X-21900000Y1800000D03*
X-21900000Y6200000D03*
X-21100000Y1800000D03*
X-21100000Y6200000D03*
X-20299999Y1800000D03*
X-20299999Y6200000D03*
X-19500000Y1800000D03*
X-19500000Y6200000D03*
X-18700000Y1800001D03*
X-18700000Y6199999D03*
X-17900000Y1800000D03*
X-17900000Y6200000D03*
G04 #@! TD*
D17*
G04 #@! TO.C,R3*
X-67200000Y10450000D03*
X-67200000Y12150000D03*
G04 #@! TD*
D18*
G04 #@! TO.C,R2*
X-67200000Y16450000D03*
X-67200000Y14750000D03*
G04 #@! TD*
D19*
G04 #@! TO.C,R4*
X-3350000Y27750000D03*
X-1650000Y27750000D03*
G04 #@! TD*
D20*
G04 #@! TO.C,J4*
X-58550000Y26484001D03*
X-57280000Y24579000D03*
X-56010000Y26484001D03*
X-54739999Y24579000D03*
X-53470000Y26484001D03*
X-52199999Y24579000D03*
X-50930000Y26484000D03*
X-49659999Y24579000D03*
X-48390000Y26484001D03*
X-47119999Y24579000D03*
X-45850000Y26484001D03*
X-44579998Y24579000D03*
X-43310000Y26484001D03*
X-42039999Y24579000D03*
X-40770000Y26484000D03*
X-39499999Y24579000D03*
X-38230000Y26484000D03*
X-36959999Y24579000D03*
X-35690000Y26484001D03*
X-34420000Y24579000D03*
X-33150000Y26484001D03*
X-31879999Y24579000D03*
X-30610000Y26484001D03*
X-29339999Y24579000D03*
X-28070000Y26484000D03*
X-26799999Y24579000D03*
X-25530000Y26484001D03*
X-24259999Y24579000D03*
X-22990000Y26484001D03*
X-21719998Y24579000D03*
X-20450000Y26484001D03*
X-19179999Y24579000D03*
X-17910000Y26484000D03*
X-16639999Y24579000D03*
X-58550000Y30294000D03*
X-57280000Y28389000D03*
X-56010000Y30294000D03*
X-54740000Y28389000D03*
X-53470000Y30294000D03*
X-52200000Y28389000D03*
X-50930000Y30294000D03*
X-49660000Y28389000D03*
X-48390000Y30294000D03*
X-47120000Y28389000D03*
X-45850000Y30294000D03*
X-44580000Y28389000D03*
X-43310000Y30294000D03*
X-42040000Y28389000D03*
X-40770000Y30294000D03*
X-39500000Y28389000D03*
X-38230000Y30294000D03*
X-36960000Y28389000D03*
X-35690000Y30294000D03*
X-34420000Y28389000D03*
X-33150000Y30294000D03*
X-31880000Y28389000D03*
X-30610000Y30294000D03*
X-29340000Y28389000D03*
X-28070000Y30294000D03*
X-26800000Y28389000D03*
X-25530000Y30294000D03*
X-24260000Y28389000D03*
X-22990000Y30294000D03*
X-21720000Y28389000D03*
X-20450000Y30294000D03*
X-19180000Y28389000D03*
X-17910000Y30294000D03*
X-16640000Y28389000D03*
D21*
X-8639000Y28389000D03*
X-66550000Y28389000D03*
G04 #@! TD*
D17*
G04 #@! TO.C,C1*
X-66050000Y3150000D03*
X-66050000Y4850000D03*
G04 #@! TD*
D22*
G04 #@! TO.C,H4*
X-4000000Y4000000D03*
G04 #@! TD*
D17*
G04 #@! TO.C,R1*
X-62150000Y3150000D03*
X-62150000Y4850000D03*
G04 #@! TD*
D23*
G04 #@! TO.C,U1*
X-64850001Y2600000D03*
X-64350000Y2600000D03*
X-63850000Y2600000D03*
X-63349999Y2600000D03*
X-63349999Y5400000D03*
X-63850000Y5400000D03*
X-64350000Y5400000D03*
X-64850001Y5400000D03*
D24*
X-64100000Y4000000D03*
G04 #@! TD*
D25*
G04 #@! TO.C,J3*
X-72440000Y10870000D03*
D26*
X-69900000Y17340000D03*
D27*
X-72440000Y16010000D03*
X-69900000Y14740000D03*
X-72440000Y13470000D03*
X-69900000Y12200000D03*
G04 #@! TD*
D28*
G04 #@! TO.C,C2*
X-1650000Y29050000D03*
X-3350000Y29050000D03*
G04 #@! TD*
D22*
G04 #@! TO.C,H3*
X-71000000Y4000000D03*
G04 #@! TD*
G36*
X-56961Y21580315D02*
G01*
X-11206Y21527511D01*
X0Y21476000D01*
X0Y12524000D01*
X-19685Y12456961D01*
X-72489Y12411206D01*
X-124000Y12400000D01*
X-2376000Y12400000D01*
X-2443039Y12419685D01*
X-2488794Y12472489D01*
X-2500000Y12524000D01*
X-2500000Y21476000D01*
X-2480315Y21543039D01*
X-2427511Y21588794D01*
X-2376000Y21600000D01*
X-124000Y21600000D01*
X-56961Y21580315D01*
G37*
%LPD*%
M02*
