G04 #@! TF.GenerationSoftware,KiCad,Pcbnew,8.0.6*
G04 #@! TF.CreationDate,2024-11-07T02:27:38-08:00*
G04 #@! TF.ProjectId,mse-68-hd,6d73652d-3638-42d6-9864-2e6b69636164,1*
G04 #@! TF.SameCoordinates,Original*
G04 #@! TF.FileFunction,Legend,Bot*
G04 #@! TF.FilePolarity,Positive*
%FSLAX46Y46*%
G04 Gerber Fmt 4.6, Leading zero omitted, Abs format (unit mm)*
G04 Created by KiCad (PCBNEW 8.0.6) date 2024-11-07 02:27:38*
%MOMM*%
%LPD*%
G01*
G04 APERTURE LIST*
%ADD10C,1.350000*%
%ADD11C,0.800000*%
%ADD12C,1.200000*%
%ADD13C,1.300000*%
%ADD14C,4.200000*%
%ADD15C,6.500000*%
%ADD16C,2.300000*%
%ADD17C,2.700000*%
%ADD18C,1.950000*%
G04 APERTURE END LIST*
D10*
X-37499999Y8100000D02*
X-30300000Y15300000D01*
X-42300000Y12899999D02*
X-37499999Y8100000D01*
X-44699999Y15300000D02*
X-39899999Y15300000D01*
X-30300000Y15300000D02*
X-37499999Y22499999D01*
X-33607288Y15299999D02*
X-37200000Y18892711D01*
X-37207287Y11700000D02*
X-33607288Y15299999D01*
X-37499999Y22499999D02*
X-42300000Y17700000D01*
X-37200000Y18892711D02*
X-37200000Y18899999D01*
%LPC*%
D11*
G04 #@! TO.C,J1*
X-15400000Y4000000D03*
D12*
X-59600000Y4000000D03*
G04 #@! TD*
D13*
G04 #@! TO.C,J4*
X-58550000Y26484001D03*
X-57280000Y24579000D03*
X-56010000Y26484001D03*
X-54739999Y24579000D03*
X-53470000Y26484001D03*
X-52199999Y24579000D03*
X-50930000Y26484000D03*
X-49659999Y24579000D03*
X-48390000Y26484001D03*
X-47119999Y24579000D03*
X-45850000Y26484001D03*
X-44579998Y24579000D03*
X-43310000Y26484001D03*
X-42039999Y24579000D03*
X-40770000Y26484000D03*
X-39499999Y24579000D03*
X-38230000Y26484000D03*
X-36959999Y24579000D03*
X-35690000Y26484001D03*
X-34420000Y24579000D03*
X-33150000Y26484001D03*
X-31879999Y24579000D03*
X-30610000Y26484001D03*
X-29339999Y24579000D03*
X-28070000Y26484000D03*
X-26799999Y24579000D03*
X-25530000Y26484001D03*
X-24259999Y24579000D03*
X-22990000Y26484001D03*
X-21719998Y24579000D03*
X-20450000Y26484001D03*
X-19179999Y24579000D03*
X-17910000Y26484000D03*
X-16639999Y24579000D03*
X-58550000Y30294000D03*
X-57280000Y28389000D03*
X-56010000Y30294000D03*
X-54740000Y28389000D03*
X-53470000Y30294000D03*
X-52200000Y28389000D03*
X-50930000Y30294000D03*
X-49660000Y28389000D03*
X-48390000Y30294000D03*
X-47120000Y28389000D03*
X-45850000Y30294000D03*
X-44580000Y28389000D03*
X-43310000Y30294000D03*
X-42040000Y28389000D03*
X-40770000Y30294000D03*
X-39500000Y28389000D03*
X-38230000Y30294000D03*
X-36960000Y28389000D03*
X-35690000Y30294000D03*
X-34420000Y28389000D03*
X-33150000Y30294000D03*
X-31880000Y28389000D03*
X-30610000Y30294000D03*
X-29340000Y28389000D03*
X-28070000Y30294000D03*
X-26800000Y28389000D03*
X-25530000Y30294000D03*
X-24260000Y28389000D03*
X-22990000Y30294000D03*
X-21720000Y28389000D03*
X-20450000Y30294000D03*
X-19180000Y28389000D03*
X-17910000Y30294000D03*
X-16640000Y28389000D03*
D14*
X-8639000Y28389000D03*
X-66550000Y28389000D03*
G04 #@! TD*
D15*
G04 #@! TO.C,H4*
X-4000000Y4000000D03*
G04 #@! TD*
D16*
G04 #@! TO.C,J3*
X-72440000Y10870000D03*
D17*
X-69900000Y17340000D03*
D18*
X-72440000Y16010000D03*
X-69900000Y14740000D03*
X-72440000Y13470000D03*
X-69900000Y12200000D03*
G04 #@! TD*
D15*
G04 #@! TO.C,H3*
X-71000000Y4000000D03*
G04 #@! TD*
G36*
X-56961Y21580315D02*
G01*
X-11206Y21527511D01*
X0Y21476000D01*
X0Y12524000D01*
X-19685Y12456961D01*
X-72489Y12411206D01*
X-124000Y12400000D01*
X-2376000Y12400000D01*
X-2443039Y12419685D01*
X-2488794Y12472489D01*
X-2500000Y12524000D01*
X-2500000Y21476000D01*
X-2480315Y21543039D01*
X-2427511Y21588794D01*
X-2376000Y21600000D01*
X-124000Y21600000D01*
X-56961Y21580315D01*
G37*
%LPD*%
M02*
