G04 #@! TF.GenerationSoftware,KiCad,Pcbnew,8.0.6*
G04 #@! TF.CreationDate,2024-11-07T02:27:38-08:00*
G04 #@! TF.ProjectId,mse-68-hd,6d73652d-3638-42d6-9864-2e6b69636164,1*
G04 #@! TF.SameCoordinates,Original*
G04 #@! TF.FileFunction,Soldermask,Top*
G04 #@! TF.FilePolarity,Negative*
%FSLAX46Y46*%
G04 Gerber Fmt 4.6, Leading zero omitted, Abs format (unit mm)*
G04 Created by KiCad (PCBNEW 8.0.6) date 2024-11-07 02:27:38*
%MOMM*%
%LPD*%
G01*
G04 APERTURE LIST*
G04 Aperture macros list*
%AMRoundRect*
0 Rectangle with rounded corners*
0 $1 Rounding radius*
0 $2 $3 $4 $5 $6 $7 $8 $9 X,Y pos of 4 corners*
0 Add a 4 corners polygon primitive as box body*
4,1,4,$2,$3,$4,$5,$6,$7,$8,$9,$2,$3,0*
0 Add four circle primitives for the rounded corners*
1,1,$1+$1,$2,$3*
1,1,$1+$1,$4,$5*
1,1,$1+$1,$6,$7*
1,1,$1+$1,$8,$9*
0 Add four rect primitives between the rounded corners*
20,1,$1+$1,$2,$3,$4,$5,0*
20,1,$1+$1,$4,$5,$6,$7,0*
20,1,$1+$1,$6,$7,$8,$9,0*
20,1,$1+$1,$8,$9,$2,$3,0*%
G04 Aperture macros list end*
%ADD10C,0.800000*%
%ADD11C,1.200000*%
%ADD12RoundRect,0.125000X0.125000X0.925000X-0.125000X0.925000X-0.125000X-0.925000X0.125000X-0.925000X0*%
%ADD13RoundRect,0.225000X0.225000X-0.275000X0.225000X0.275000X-0.225000X0.275000X-0.225000X-0.275000X0*%
%ADD14RoundRect,0.225000X-0.225000X0.275000X-0.225000X-0.275000X0.225000X-0.275000X0.225000X0.275000X0*%
%ADD15RoundRect,0.225000X-0.275000X-0.225000X0.275000X-0.225000X0.275000X0.225000X-0.275000X0.225000X0*%
%ADD16C,1.300000*%
%ADD17C,4.200000*%
%ADD18C,6.500000*%
%ADD19RoundRect,0.062500X0.137500X-0.287500X0.137500X0.287500X-0.137500X0.287500X-0.137500X-0.287500X0*%
%ADD20RoundRect,0.265625X0.584375X-0.584375X0.584375X0.584375X-0.584375X0.584375X-0.584375X-0.584375X0*%
%ADD21C,2.300000*%
%ADD22C,2.700000*%
%ADD23C,1.950000*%
%ADD24RoundRect,0.225000X0.275000X0.225000X-0.275000X0.225000X-0.275000X-0.225000X0.275000X-0.225000X0*%
G04 APERTURE END LIST*
D10*
G04 #@! TO.C,J1*
X-15400000Y4000000D03*
D11*
X-59600000Y4000000D03*
D12*
X-57100000Y1800000D03*
X-57100000Y6200000D03*
X-56300000Y1800001D03*
X-56300000Y6199999D03*
X-55500000Y1800000D03*
X-55500000Y6200000D03*
X-54700001Y1800000D03*
X-54700001Y6200000D03*
X-53900000Y1800000D03*
X-53900000Y6200000D03*
X-53100000Y1800000D03*
X-53100000Y6200000D03*
X-52299999Y1800000D03*
X-52299999Y6200000D03*
X-51500000Y1800000D03*
X-51500000Y6200000D03*
X-50700000Y1800001D03*
X-50700000Y6199999D03*
X-49900000Y1800000D03*
X-49900000Y6200000D03*
X-49100000Y1800000D03*
X-49100000Y6200000D03*
X-48300000Y1800000D03*
X-48300000Y6200000D03*
X-47500000Y1800000D03*
X-47500000Y6200000D03*
X-46699999Y1800000D03*
X-46699999Y6200000D03*
X-45900000Y1800000D03*
X-45900000Y6200000D03*
X-45100000Y1800001D03*
X-45100000Y6199999D03*
X-44300000Y1800000D03*
X-44300000Y6200000D03*
X-43500000Y1800000D03*
X-43500000Y6200000D03*
X-42700000Y1800000D03*
X-42700000Y6200000D03*
X-41900000Y1800000D03*
X-41900000Y6200000D03*
X-41099999Y1800000D03*
X-41099999Y6200000D03*
X-40300000Y1800000D03*
X-40300000Y6200000D03*
X-39500000Y1800001D03*
X-39500000Y6199999D03*
X-38700000Y1800000D03*
X-38700000Y6200000D03*
X-37900000Y1800000D03*
X-37900000Y6200000D03*
X-37100000Y1800000D03*
X-37100000Y6200000D03*
X-36300000Y1800000D03*
X-36300000Y6200000D03*
X-35500000Y1800001D03*
X-35500000Y6199999D03*
X-34700000Y1800000D03*
X-34700000Y6200000D03*
X-33900001Y1800000D03*
X-33900001Y6200000D03*
X-33100000Y1800000D03*
X-33100000Y6200000D03*
X-32300000Y1800000D03*
X-32300000Y6200000D03*
X-31500000Y1800000D03*
X-31500000Y6200000D03*
X-30700000Y1800000D03*
X-30700000Y6200000D03*
X-29900000Y1800001D03*
X-29900000Y6199999D03*
X-29100000Y1800000D03*
X-29100000Y6200000D03*
X-28300001Y1800000D03*
X-28300001Y6200000D03*
X-27500000Y1800000D03*
X-27500000Y6200000D03*
X-26700000Y1800000D03*
X-26700000Y6200000D03*
X-25900000Y1800000D03*
X-25900000Y6200000D03*
X-25100000Y1800000D03*
X-25100000Y6200000D03*
X-24300000Y1800001D03*
X-24300000Y6199999D03*
X-23500000Y1800000D03*
X-23500000Y6200000D03*
X-22700001Y1800000D03*
X-22700001Y6200000D03*
X-21900000Y1800000D03*
X-21900000Y6200000D03*
X-21100000Y1800000D03*
X-21100000Y6200000D03*
X-20299999Y1800000D03*
X-20299999Y6200000D03*
X-19500000Y1800000D03*
X-19500000Y6200000D03*
X-18700000Y1800001D03*
X-18700000Y6199999D03*
X-17900000Y1800000D03*
X-17900000Y6200000D03*
G04 #@! TD*
D13*
G04 #@! TO.C,R3*
X-67200000Y10450000D03*
X-67200000Y12150000D03*
G04 #@! TD*
D14*
G04 #@! TO.C,R2*
X-67200000Y16450000D03*
X-67200000Y14750000D03*
G04 #@! TD*
D15*
G04 #@! TO.C,R4*
X-3350000Y27750000D03*
X-1650000Y27750000D03*
G04 #@! TD*
D16*
G04 #@! TO.C,J4*
X-58550000Y26484001D03*
X-57280000Y24579000D03*
X-56010000Y26484001D03*
X-54739999Y24579000D03*
X-53470000Y26484001D03*
X-52199999Y24579000D03*
X-50930000Y26484000D03*
X-49659999Y24579000D03*
X-48390000Y26484001D03*
X-47119999Y24579000D03*
X-45850000Y26484001D03*
X-44579998Y24579000D03*
X-43310000Y26484001D03*
X-42039999Y24579000D03*
X-40770000Y26484000D03*
X-39499999Y24579000D03*
X-38230000Y26484000D03*
X-36959999Y24579000D03*
X-35690000Y26484001D03*
X-34420000Y24579000D03*
X-33150000Y26484001D03*
X-31879999Y24579000D03*
X-30610000Y26484001D03*
X-29339999Y24579000D03*
X-28070000Y26484000D03*
X-26799999Y24579000D03*
X-25530000Y26484001D03*
X-24259999Y24579000D03*
X-22990000Y26484001D03*
X-21719998Y24579000D03*
X-20450000Y26484001D03*
X-19179999Y24579000D03*
X-17910000Y26484000D03*
X-16639999Y24579000D03*
X-58550000Y30294000D03*
X-57280000Y28389000D03*
X-56010000Y30294000D03*
X-54740000Y28389000D03*
X-53470000Y30294000D03*
X-52200000Y28389000D03*
X-50930000Y30294000D03*
X-49660000Y28389000D03*
X-48390000Y30294000D03*
X-47120000Y28389000D03*
X-45850000Y30294000D03*
X-44580000Y28389000D03*
X-43310000Y30294000D03*
X-42040000Y28389000D03*
X-40770000Y30294000D03*
X-39500000Y28389000D03*
X-38230000Y30294000D03*
X-36960000Y28389000D03*
X-35690000Y30294000D03*
X-34420000Y28389000D03*
X-33150000Y30294000D03*
X-31880000Y28389000D03*
X-30610000Y30294000D03*
X-29340000Y28389000D03*
X-28070000Y30294000D03*
X-26800000Y28389000D03*
X-25530000Y30294000D03*
X-24260000Y28389000D03*
X-22990000Y30294000D03*
X-21720000Y28389000D03*
X-20450000Y30294000D03*
X-19180000Y28389000D03*
X-17910000Y30294000D03*
X-16640000Y28389000D03*
D17*
X-8639000Y28389000D03*
X-66550000Y28389000D03*
G04 #@! TD*
D13*
G04 #@! TO.C,C1*
X-66050000Y3150000D03*
X-66050000Y4850000D03*
G04 #@! TD*
D18*
G04 #@! TO.C,H4*
X-4000000Y4000000D03*
G04 #@! TD*
D13*
G04 #@! TO.C,R1*
X-62150000Y3150000D03*
X-62150000Y4850000D03*
G04 #@! TD*
D19*
G04 #@! TO.C,U1*
X-64850001Y2600000D03*
X-64350000Y2600000D03*
X-63850000Y2600000D03*
X-63349999Y2600000D03*
X-63349999Y5400000D03*
X-63850000Y5400000D03*
X-64350000Y5400000D03*
X-64850001Y5400000D03*
D20*
X-64100000Y4000000D03*
G04 #@! TD*
D21*
G04 #@! TO.C,J3*
X-72440000Y10870000D03*
D22*
X-69900000Y17340000D03*
D23*
X-72440000Y16010000D03*
X-69900000Y14740000D03*
X-72440000Y13470000D03*
X-69900000Y12200000D03*
G04 #@! TD*
D24*
G04 #@! TO.C,C2*
X-1650000Y29050000D03*
X-3350000Y29050000D03*
G04 #@! TD*
D18*
G04 #@! TO.C,H3*
X-71000000Y4000000D03*
G04 #@! TD*
G36*
X-56961Y21580315D02*
G01*
X-11206Y21527511D01*
X0Y21476000D01*
X0Y12524000D01*
X-19685Y12456961D01*
X-72489Y12411206D01*
X-124000Y12400000D01*
X-2376000Y12400000D01*
X-2443039Y12419685D01*
X-2488794Y12472489D01*
X-2500000Y12524000D01*
X-2500000Y21476000D01*
X-2480315Y21543039D01*
X-2427511Y21588794D01*
X-2376000Y21600000D01*
X-124000Y21600000D01*
X-56961Y21580315D01*
G37*
M02*
