G04 #@! TF.GenerationSoftware,KiCad,Pcbnew,8.0.6*
G04 #@! TF.CreationDate,2024-11-07T02:26:50-08:00*
G04 #@! TF.ProjectId,hvd-50-idc,6876642d-3530-42d6-9964-632e6b696361,1*
G04 #@! TF.SameCoordinates,Original*
G04 #@! TF.FileFunction,Soldermask,Bot*
G04 #@! TF.FilePolarity,Negative*
%FSLAX46Y46*%
G04 Gerber Fmt 4.6, Leading zero omitted, Abs format (unit mm)*
G04 Created by KiCad (PCBNEW 8.0.6) date 2024-11-07 02:26:50*
%MOMM*%
%LPD*%
G01*
G04 APERTURE LIST*
G04 Aperture macros list*
%AMRoundRect*
0 Rectangle with rounded corners*
0 $1 Rounding radius*
0 $2 $3 $4 $5 $6 $7 $8 $9 X,Y pos of 4 corners*
0 Add a 4 corners polygon primitive as box body*
4,1,4,$2,$3,$4,$5,$6,$7,$8,$9,$2,$3,0*
0 Add four circle primitives for the rounded corners*
1,1,$1+$1,$2,$3*
1,1,$1+$1,$4,$5*
1,1,$1+$1,$6,$7*
1,1,$1+$1,$8,$9*
0 Add four rect primitives between the rounded corners*
20,1,$1+$1,$2,$3,$4,$5,0*
20,1,$1+$1,$4,$5,$6,$7,0*
20,1,$1+$1,$6,$7,$8,$9,0*
20,1,$1+$1,$8,$9,$2,$3,0*%
G04 Aperture macros list end*
%ADD10C,0.800000*%
%ADD11C,1.200000*%
%ADD12C,6.500000*%
%ADD13C,2.300000*%
%ADD14C,2.700000*%
%ADD15C,1.950000*%
%ADD16RoundRect,0.264706X0.635294X-0.635294X0.635294X0.635294X-0.635294X0.635294X-0.635294X-0.635294X0*%
%ADD17C,1.800000*%
G04 APERTURE END LIST*
D10*
G04 #@! TO.C,J1*
X-15400000Y4000000D03*
D11*
X-59600000Y4000000D03*
G04 #@! TD*
D12*
G04 #@! TO.C,H4*
X-4000000Y4000000D03*
G04 #@! TD*
D13*
G04 #@! TO.C,J3*
X-72440000Y10870000D03*
D14*
X-69900000Y17340000D03*
D15*
X-72440000Y16010000D03*
X-69900000Y14740000D03*
X-72440000Y13470000D03*
X-69900000Y12200000D03*
G04 #@! TD*
D12*
G04 #@! TO.C,H3*
X-71000000Y4000000D03*
G04 #@! TD*
D16*
G04 #@! TO.C,J2*
X-67760000Y23360000D03*
D17*
X-67760000Y25900000D03*
X-65220000Y23360000D03*
X-65220000Y25900000D03*
X-62680000Y23360000D03*
X-62680000Y25900000D03*
X-60140000Y23360000D03*
X-60140000Y25900000D03*
X-57600000Y23360000D03*
X-57600000Y25900000D03*
X-55060000Y23360000D03*
X-55060000Y25900000D03*
X-52520000Y23360000D03*
X-52520000Y25900000D03*
X-49980000Y23360000D03*
X-49980000Y25900000D03*
X-47440000Y23360000D03*
X-47440000Y25900000D03*
X-44900000Y23360000D03*
X-44900000Y25900000D03*
X-42360000Y23360000D03*
X-42360000Y25900000D03*
X-39820000Y23360000D03*
X-39820000Y25900000D03*
X-37280000Y23360000D03*
X-37280000Y25900000D03*
X-34740000Y23360000D03*
X-34740000Y25900000D03*
X-32200000Y23360000D03*
X-32200000Y25900000D03*
X-29660000Y23360000D03*
X-29660000Y25900000D03*
X-27120000Y23360000D03*
X-27120000Y25900000D03*
X-24580000Y23360000D03*
X-24580000Y25900000D03*
X-22040000Y23360000D03*
X-22040000Y25900000D03*
X-19500000Y23360000D03*
X-19500000Y25900000D03*
X-16960000Y23360000D03*
X-16960000Y25900000D03*
X-14420000Y23360000D03*
X-14420000Y25900000D03*
X-11880000Y23360000D03*
X-11880000Y25900000D03*
X-9340000Y23360000D03*
X-9340000Y25900000D03*
X-6800000Y23360000D03*
X-6800000Y25900000D03*
G04 #@! TD*
G36*
X-56961Y19530315D02*
G01*
X-11206Y19477511D01*
X0Y19426000D01*
X0Y10474000D01*
X-19685Y10406961D01*
X-72489Y10361206D01*
X-124000Y10350000D01*
X-2376000Y10350000D01*
X-2443039Y10369685D01*
X-2488794Y10422489D01*
X-2500000Y10474000D01*
X-2500000Y19426000D01*
X-2480315Y19493039D01*
X-2427511Y19538794D01*
X-2376000Y19550000D01*
X-124000Y19550000D01*
X-56961Y19530315D01*
G37*
M02*
