M48
; DRILL file {KiCad 8.0.6} date 2024-11-07T02:26:50-0800
; FORMAT={-:-/ absolute / metric / decimal}
; #@! TF.CreationDate,2024-11-07T02:26:50-08:00
; #@! TF.GenerationSoftware,Kicad,Pcbnew,8.0.6
; #@! TF.FileFunction,MixedPlating,1,6
FMAT,2
METRIC
; #@! TA.AperFunction,Plated,PTH,ViaDrill
T1C0.200
; #@! TA.AperFunction,Plated,PTH,ComponentDrill
T2C1.000
; #@! TA.AperFunction,Plated,PTH,ComponentDrill
T3C1.500
; #@! TA.AperFunction,Plated,PTH,ComponentDrill
T4C3.200
; #@! TA.AperFunction,NonPlated,NPTH,ComponentDrill
T5C0.800
; #@! TA.AperFunction,NonPlated,NPTH,ComponentDrill
T6C1.200
; #@! TA.AperFunction,NonPlated,NPTH,ComponentDrill
T7C2.200
; #@! TA.AperFunction,NonPlated,NPTH,ComponentDrill
T8C2.600
%
G90
G05
T1
X-67.2Y16.5
X-67.2Y14.75
X-67.2Y12.15
X-67.2Y10.5
X-66.05Y4.85
X-66.05Y3.15
X-64.65Y4.0
X-64.1Y4.5
X-64.1Y3.5
X-63.6Y4.0
X-63.0Y8.5
X-62.4Y7.9
X-62.15Y4.85
X-57.1Y7.0
X-57.1Y6.2
X-57.1Y5.4
X-56.3Y2.6
X-56.3Y1.8
X-56.3Y1.0
X-54.7Y7.0
X-54.7Y6.2
X-54.7Y5.4
X-54.7Y3.2
X-54.7Y2.6
X-54.7Y1.8
X-54.7Y1.0
X-53.9Y7.0
X-53.9Y6.2
X-53.9Y5.4
X-53.9Y3.2
X-53.9Y2.6
X-53.9Y1.8
X-53.9Y1.0
X-51.5Y7.0
X-51.5Y6.2
X-51.5Y5.4
X-51.5Y3.2
X-51.5Y2.6
X-51.5Y1.8
X-51.5Y1.0
X-49.1Y7.0
X-49.1Y6.2
X-49.1Y5.4
X-49.1Y3.2
X-49.1Y2.6
X-49.1Y1.8
X-49.1Y1.0
X-47.5Y3.2
X-46.7Y7.0
X-46.7Y6.2
X-46.7Y5.4
X-46.7Y3.2
X-46.7Y2.6
X-46.7Y1.8
X-46.7Y1.0
X-45.9Y3.2
X-45.1Y3.2
X-44.3Y7.0
X-44.3Y6.2
X-44.3Y5.4
X-44.3Y3.2
X-44.3Y2.6
X-44.3Y1.8
X-44.3Y1.0
X-43.5Y3.2
X-42.7Y3.2
X-41.9Y7.0
X-41.9Y6.2
X-41.9Y5.4
X-41.9Y3.2
X-41.9Y2.6
X-41.9Y1.8
X-41.9Y1.0
X-41.1Y3.2
X-40.3Y3.2
X-39.5Y7.0
X-39.5Y6.2
X-39.5Y5.4
X-39.5Y3.2
X-39.5Y2.6
X-39.5Y1.8
X-39.5Y1.0
X-38.7Y3.2
X-37.9Y3.2
X-37.1Y7.0
X-37.1Y6.2
X-37.1Y5.4
X-37.1Y3.2
X-37.1Y2.6
X-37.1Y1.8
X-37.1Y1.0
X-36.3Y3.2
X-35.5Y7.0
X-35.5Y6.2
X-35.5Y5.4
X-35.5Y2.6
X-35.5Y1.8
X-35.5Y1.0
X-34.7Y7.0
X-34.7Y6.2
X-34.7Y5.4
X-34.7Y2.6
X-34.7Y1.8
X-34.7Y1.0
X-33.9Y7.0
X-33.9Y6.2
X-33.9Y5.4
X-33.9Y3.2
X-33.9Y2.6
X-33.9Y1.8
X-33.9Y1.0
X-33.1Y3.2
X-32.3Y7.0
X-32.3Y6.2
X-32.3Y5.4
X-32.3Y3.2
X-32.3Y2.6
X-32.3Y1.8
X-32.3Y1.0
X-31.5Y3.2
X-30.7Y3.2
X-29.9Y7.0
X-29.9Y6.2
X-29.9Y5.4
X-29.9Y3.2
X-29.9Y2.6
X-29.9Y1.8
X-29.9Y1.0
X-29.1Y3.2
X-28.3Y3.2
X-27.5Y7.0
X-27.5Y6.2
X-27.5Y5.4
X-27.5Y3.2
X-27.5Y2.6
X-27.5Y1.8
X-27.5Y1.0
X-26.7Y3.2
X-25.9Y3.2
X-25.1Y7.0
X-25.1Y6.2
X-25.1Y5.4
X-25.1Y3.2
X-25.1Y2.6
X-25.1Y1.8
X-25.1Y1.0
X-24.3Y3.2
X-23.5Y3.2
X-22.7Y7.0
X-22.7Y6.2
X-22.7Y5.4
X-22.7Y3.2
X-22.7Y2.6
X-22.7Y1.8
X-22.7Y1.0
X-20.3Y7.0
X-20.3Y6.2
X-20.3Y5.4
X-20.3Y3.2
X-20.3Y2.6
X-20.3Y1.8
X-20.3Y1.0
X-17.9Y7.0
X-17.9Y6.2
X-17.9Y5.4
X-17.9Y3.2
X-17.9Y2.6
X-17.9Y1.8
X-17.9Y1.0
T2
X-67.76Y25.9
X-67.76Y23.36
X-65.22Y25.9
X-65.22Y23.36
X-62.68Y25.9
X-62.68Y23.36
X-60.14Y25.9
X-60.14Y23.36
X-57.6Y25.9
X-57.6Y23.36
X-55.06Y25.9
X-55.06Y23.36
X-52.52Y25.9
X-52.52Y23.36
X-49.98Y25.9
X-49.98Y23.36
X-47.44Y25.9
X-47.44Y23.36
X-44.9Y25.9
X-44.9Y23.36
X-42.36Y25.9
X-42.36Y23.36
X-39.82Y25.9
X-39.82Y23.36
X-37.28Y25.9
X-37.28Y23.36
X-34.74Y25.9
X-34.74Y23.36
X-32.2Y25.9
X-32.2Y23.36
X-29.66Y25.9
X-29.66Y23.36
X-27.12Y25.9
X-27.12Y23.36
X-24.58Y25.9
X-24.58Y23.36
X-22.04Y25.9
X-22.04Y23.36
X-19.5Y25.9
X-19.5Y23.36
X-16.96Y25.9
X-16.96Y23.36
X-14.42Y25.9
X-14.42Y23.36
X-11.88Y25.9
X-11.88Y23.36
X-9.34Y25.9
X-9.34Y23.36
X-6.8Y25.9
X-6.8Y23.36
T3
X-72.44Y16.01
X-72.44Y13.47
X-69.9Y14.74
X-69.9Y12.2
T4
X-71.0Y4.0
X-4.0Y4.0
T5
X-15.4Y4.0
T6
X-59.6Y4.0
T7
X-72.44Y10.87
T8
X-69.9Y17.34
M30
