G04 #@! TF.GenerationSoftware,KiCad,Pcbnew,8.0.6*
G04 #@! TF.CreationDate,2024-11-07T02:26:50-08:00*
G04 #@! TF.ProjectId,hvd-50-idc,6876642d-3530-42d6-9964-632e6b696361,1*
G04 #@! TF.SameCoordinates,Original*
G04 #@! TF.FileFunction,Copper,L6,Bot*
G04 #@! TF.FilePolarity,Positive*
%FSLAX46Y46*%
G04 Gerber Fmt 4.6, Leading zero omitted, Abs format (unit mm)*
G04 Created by KiCad (PCBNEW 8.0.6) date 2024-11-07 02:26:50*
%MOMM*%
%LPD*%
G01*
G04 APERTURE LIST*
G04 Aperture macros list*
%AMRoundRect*
0 Rectangle with rounded corners*
0 $1 Rounding radius*
0 $2 $3 $4 $5 $6 $7 $8 $9 X,Y pos of 4 corners*
0 Add a 4 corners polygon primitive as box body*
4,1,4,$2,$3,$4,$5,$6,$7,$8,$9,$2,$3,0*
0 Add four circle primitives for the rounded corners*
1,1,$1+$1,$2,$3*
1,1,$1+$1,$4,$5*
1,1,$1+$1,$6,$7*
1,1,$1+$1,$8,$9*
0 Add four rect primitives between the rounded corners*
20,1,$1+$1,$2,$3,$4,$5,0*
20,1,$1+$1,$4,$5,$6,$7,0*
20,1,$1+$1,$6,$7,$8,$9,0*
20,1,$1+$1,$8,$9,$2,$3,0*%
G04 Aperture macros list end*
%ADD10C,0.300000*%
G04 #@! TA.AperFunction,NonConductor*
%ADD11C,0.300000*%
G04 #@! TD*
G04 #@! TA.AperFunction,ComponentPad*
%ADD12C,6.400000*%
G04 #@! TD*
G04 #@! TA.AperFunction,ComponentPad*
%ADD13C,1.850000*%
G04 #@! TD*
G04 #@! TA.AperFunction,ComponentPad*
%ADD14RoundRect,0.250000X0.600000X-0.600000X0.600000X0.600000X-0.600000X0.600000X-0.600000X-0.600000X0*%
G04 #@! TD*
G04 #@! TA.AperFunction,ComponentPad*
%ADD15C,1.700000*%
G04 #@! TD*
G04 #@! TA.AperFunction,ViaPad*
%ADD16C,0.450000*%
G04 #@! TD*
G04 #@! TA.AperFunction,Conductor*
%ADD17C,0.200000*%
G04 #@! TD*
G04 #@! TA.AperFunction,Conductor*
%ADD18C,0.127500*%
G04 #@! TD*
G04 #@! TA.AperFunction,Conductor*
%ADD19C,0.400000*%
G04 #@! TD*
G04 APERTURE END LIST*
D10*
D11*
X-1999172Y18414285D02*
X-1999172Y18700000D01*
X-1999172Y18700000D02*
X-1927743Y18842857D01*
X-1927743Y18842857D02*
X-1856315Y18914285D01*
X-1856315Y18914285D02*
X-1642029Y19057143D01*
X-1642029Y19057143D02*
X-1356315Y19128571D01*
X-1356315Y19128571D02*
X-784886Y19128571D01*
X-784886Y19128571D02*
X-642029Y19057143D01*
X-642029Y19057143D02*
X-570600Y18985714D01*
X-570600Y18985714D02*
X-499172Y18842857D01*
X-499172Y18842857D02*
X-499172Y18557143D01*
X-499172Y18557143D02*
X-570600Y18414285D01*
X-570600Y18414285D02*
X-642029Y18342857D01*
X-642029Y18342857D02*
X-784886Y18271428D01*
X-784886Y18271428D02*
X-1142029Y18271428D01*
X-1142029Y18271428D02*
X-1284886Y18342857D01*
X-1284886Y18342857D02*
X-1356315Y18414285D01*
X-1356315Y18414285D02*
X-1427743Y18557143D01*
X-1427743Y18557143D02*
X-1427743Y18842857D01*
X-1427743Y18842857D02*
X-1356315Y18985714D01*
X-1356315Y18985714D02*
X-1284886Y19057143D01*
X-1284886Y19057143D02*
X-1142029Y19128571D01*
D12*
G04 #@! TO.P,H4,1,1*
G04 #@! TO.N,GND*
X-4000000Y4000000D03*
G04 #@! TD*
D13*
G04 #@! TO.P,J3,1,Pin_1*
G04 #@! TO.N,+3V3*
X-72440000Y16010000D03*
G04 #@! TO.P,J3,2,Pin_2*
G04 #@! TO.N,/PHY.ID_SDA*
X-69900000Y14740000D03*
G04 #@! TO.P,J3,3,Pin_3*
G04 #@! TO.N,GND*
X-72440000Y13470000D03*
G04 #@! TO.P,J3,4,Pin_4*
G04 #@! TO.N,/PHY.ID_SCL*
X-69900000Y12200000D03*
G04 #@! TD*
D12*
G04 #@! TO.P,H3,1,1*
G04 #@! TO.N,GND*
X-71000000Y4000000D03*
G04 #@! TD*
D14*
G04 #@! TO.P,J2,1,Pin_1*
G04 #@! TO.N,GND*
X-67760000Y23360000D03*
D15*
G04 #@! TO.P,J2,2,Pin_2*
X-67760000Y25900000D03*
G04 #@! TO.P,J2,3,Pin_3*
G04 #@! TO.N,/CON.DB0+*
X-65220000Y23360000D03*
G04 #@! TO.P,J2,4,Pin_4*
G04 #@! TO.N,/CON.DB0-*
X-65220000Y25900000D03*
G04 #@! TO.P,J2,5,Pin_5*
G04 #@! TO.N,/CON.DB1+*
X-62680000Y23360000D03*
G04 #@! TO.P,J2,6,Pin_6*
G04 #@! TO.N,/CON.DB1-*
X-62680000Y25900000D03*
G04 #@! TO.P,J2,7,Pin_7*
G04 #@! TO.N,/CON.DB2+*
X-60140000Y23360000D03*
G04 #@! TO.P,J2,8,Pin_8*
G04 #@! TO.N,/CON.DB2-*
X-60140000Y25900000D03*
G04 #@! TO.P,J2,9,Pin_9*
G04 #@! TO.N,/CON.DB3+*
X-57600000Y23360000D03*
G04 #@! TO.P,J2,10,Pin_10*
G04 #@! TO.N,/CON.DB3-*
X-57600000Y25900000D03*
G04 #@! TO.P,J2,11,Pin_11*
G04 #@! TO.N,/CON.DB4+*
X-55060000Y23360000D03*
G04 #@! TO.P,J2,12,Pin_12*
G04 #@! TO.N,/CON.DB4-*
X-55060000Y25900000D03*
G04 #@! TO.P,J2,13,Pin_13*
G04 #@! TO.N,/CON.DB5+*
X-52520000Y23360000D03*
G04 #@! TO.P,J2,14,Pin_14*
G04 #@! TO.N,/CON.DB5-*
X-52520000Y25900000D03*
G04 #@! TO.P,J2,15,Pin_15*
G04 #@! TO.N,/CON.DB6+*
X-49980000Y23360000D03*
G04 #@! TO.P,J2,16,Pin_16*
G04 #@! TO.N,/CON.DB6-*
X-49980000Y25900000D03*
G04 #@! TO.P,J2,17,Pin_17*
G04 #@! TO.N,/CON.DB7+*
X-47440000Y23360000D03*
G04 #@! TO.P,J2,18,Pin_18*
G04 #@! TO.N,/CON.DB7-*
X-47440000Y25900000D03*
G04 #@! TO.P,J2,19,Pin_19*
G04 #@! TO.N,/CON.DP0+*
X-44900000Y23360000D03*
G04 #@! TO.P,J2,20,Pin_20*
G04 #@! TO.N,/CON.DP0-*
X-44900000Y25900000D03*
G04 #@! TO.P,J2,21,Pin_21*
G04 #@! TO.N,/CON.DIFFSENSE*
X-42360000Y23360000D03*
G04 #@! TO.P,J2,22,Pin_22*
G04 #@! TO.N,GND*
X-42360000Y25900000D03*
G04 #@! TO.P,J2,23,Pin_23*
X-39820000Y23360000D03*
G04 #@! TO.P,J2,24,Pin_24*
X-39820000Y25900000D03*
G04 #@! TO.P,J2,25,Pin_25*
G04 #@! TO.N,/CON.TERMPWR*
X-37280000Y23360000D03*
G04 #@! TO.P,J2,26,Pin_26*
X-37280000Y25900000D03*
G04 #@! TO.P,J2,27,Pin_27*
G04 #@! TO.N,GND*
X-34740000Y23360000D03*
G04 #@! TO.P,J2,28,Pin_28*
X-34740000Y25900000D03*
G04 #@! TO.P,J2,29,Pin_29*
G04 #@! TO.N,/CON.ATN+*
X-32200000Y23360000D03*
G04 #@! TO.P,J2,30,Pin_30*
G04 #@! TO.N,/CON.ATN-*
X-32200000Y25900000D03*
G04 #@! TO.P,J2,31,Pin_31*
G04 #@! TO.N,GND*
X-29660000Y23360000D03*
G04 #@! TO.P,J2,32,Pin_32*
X-29660000Y25900000D03*
G04 #@! TO.P,J2,33,Pin_33*
G04 #@! TO.N,/CON.BSY+*
X-27120000Y23360000D03*
G04 #@! TO.P,J2,34,Pin_34*
G04 #@! TO.N,/CON.BSY-*
X-27120000Y25900000D03*
G04 #@! TO.P,J2,35,Pin_35*
G04 #@! TO.N,/CON.ACK+*
X-24580000Y23360000D03*
G04 #@! TO.P,J2,36,Pin_36*
G04 #@! TO.N,/CON.ACK-*
X-24580000Y25900000D03*
G04 #@! TO.P,J2,37,Pin_37*
G04 #@! TO.N,/CON.RST+*
X-22040000Y23360000D03*
G04 #@! TO.P,J2,38,Pin_38*
G04 #@! TO.N,/CON.RST-*
X-22040000Y25900000D03*
G04 #@! TO.P,J2,39,Pin_39*
G04 #@! TO.N,/CON.MSG+*
X-19500000Y23360000D03*
G04 #@! TO.P,J2,40,Pin_40*
G04 #@! TO.N,/CON.MSG-*
X-19500000Y25900000D03*
G04 #@! TO.P,J2,41,Pin_41*
G04 #@! TO.N,/CON.SEL+*
X-16960000Y23360000D03*
G04 #@! TO.P,J2,42,Pin_42*
G04 #@! TO.N,/CON.SEL-*
X-16960000Y25900000D03*
G04 #@! TO.P,J2,43,Pin_43*
G04 #@! TO.N,/CON.C{slash}D+*
X-14420000Y23360000D03*
G04 #@! TO.P,J2,44,Pin_44*
G04 #@! TO.N,/CON.C{slash}D-*
X-14420000Y25900000D03*
G04 #@! TO.P,J2,45,Pin_45*
G04 #@! TO.N,/CON.REQ+*
X-11880000Y23360000D03*
G04 #@! TO.P,J2,46,Pin_46*
G04 #@! TO.N,/CON.REQ-*
X-11880000Y25900000D03*
G04 #@! TO.P,J2,47,Pin_47*
G04 #@! TO.N,/CON.I{slash}O+*
X-9340000Y23360000D03*
G04 #@! TO.P,J2,48,Pin_48*
G04 #@! TO.N,/CON.I{slash}O-*
X-9340000Y25900000D03*
G04 #@! TO.P,J2,49,Pin_49*
G04 #@! TO.N,GND*
X-6800000Y23360000D03*
G04 #@! TO.P,J2,50,Pin_50*
X-6800000Y25900000D03*
G04 #@! TD*
D16*
G04 #@! TO.N,GND*
X-20300000Y5400000D03*
X-22700000Y1800000D03*
X-49100000Y1800000D03*
X-53900000Y1000000D03*
X-29900000Y2600000D03*
X-17900000Y3200000D03*
X-39500000Y6200000D03*
X-39500000Y1800000D03*
X-44300000Y7000000D03*
X-49100000Y6200000D03*
X-64650000Y4000000D03*
X-46700000Y6200000D03*
X-27500000Y3200000D03*
X-51500000Y2600000D03*
X-27500000Y2600000D03*
X-39500000Y7000000D03*
X-32300000Y1800000D03*
X-53900000Y5400000D03*
X-20300000Y1800000D03*
X-53900000Y2600000D03*
X-37100000Y5400000D03*
X-63600000Y4000000D03*
X-49100000Y3200000D03*
X-25100000Y7000000D03*
X-39500000Y5400000D03*
X-33900000Y1000000D03*
X-41900000Y1000000D03*
X-64100000Y4500000D03*
X-33900000Y2600000D03*
X-49100000Y2600000D03*
X-33900000Y6200000D03*
X-51500000Y5400000D03*
X-44300000Y3200000D03*
X-44300000Y6200000D03*
X-27500000Y6200000D03*
X-39500000Y1000000D03*
X-54700000Y3200000D03*
X-25100000Y1800000D03*
X-41900000Y7000000D03*
X-53900000Y7000000D03*
X-41900000Y6200000D03*
X-46700000Y3200000D03*
X-29900000Y3200000D03*
X-27500000Y5400000D03*
X-54700000Y6200000D03*
X-29900000Y1000000D03*
X-20300000Y1000000D03*
X-53900000Y1800000D03*
X-51500000Y6200000D03*
X-20300000Y2600000D03*
X-22700000Y1000000D03*
X-44300000Y5400000D03*
X-33900000Y1800000D03*
X-32300000Y5400000D03*
X-20300000Y6200000D03*
X-37100000Y6200000D03*
X-25100000Y2600000D03*
X-37100000Y7000000D03*
X-22700000Y3200000D03*
X-39500000Y2600000D03*
X-25100000Y6200000D03*
X-33900000Y7000000D03*
X-51500000Y7000000D03*
X-54700000Y7000000D03*
X-29900000Y7000000D03*
X-44300000Y1800000D03*
X-22700000Y2600000D03*
X-17900000Y5400000D03*
X-41900000Y2600000D03*
X-17900000Y7000000D03*
X-44300000Y1000000D03*
X-32300000Y7000000D03*
X-51500000Y1800000D03*
X-54700000Y5400000D03*
X-22700000Y6200000D03*
X-57100000Y5400000D03*
X-37100000Y1800000D03*
X-46700000Y1000000D03*
X-25100000Y1000000D03*
X-25100000Y3200000D03*
X-32300000Y2600000D03*
X-44300000Y2600000D03*
X-46700000Y5400000D03*
X-39500000Y3200000D03*
X-54700000Y1800000D03*
X-22700000Y7000000D03*
X-20300000Y3200000D03*
X-46700000Y2600000D03*
X-37100000Y1000000D03*
X-37100000Y2600000D03*
X-51500000Y1000000D03*
X-17900000Y1000000D03*
X-20300000Y7000000D03*
X-57100000Y6200000D03*
X-32300000Y1000000D03*
X-41900000Y3200000D03*
X-33900000Y5400000D03*
X-46700000Y1800000D03*
X-29900000Y5400000D03*
X-27500000Y1800000D03*
X-53900000Y3200000D03*
X-51500000Y3200000D03*
X-37100000Y3200000D03*
X-41900000Y1800000D03*
X-53900000Y6200000D03*
X-41900000Y5400000D03*
X-29900000Y6200000D03*
X-49100000Y5400000D03*
X-54700000Y2600000D03*
X-49100000Y7000000D03*
X-49100000Y1000000D03*
X-46700000Y7000000D03*
X-29900000Y1800000D03*
X-25100000Y5400000D03*
X-64100000Y3500000D03*
X-32300000Y6200000D03*
X-32300000Y3200000D03*
X-17900000Y6200000D03*
X-27500000Y1000000D03*
X-57100000Y7000000D03*
X-22700000Y5400000D03*
X-17900000Y2600000D03*
X-54700000Y1000000D03*
X-17900000Y1800000D03*
X-33900000Y3200000D03*
X-27500000Y7000000D03*
X-66050000Y3150000D03*
G04 #@! TO.N,/PHY.ID_SCL*
X-67200000Y12150000D03*
X-63000000Y8500000D03*
G04 #@! TO.N,+3V3*
X-56300000Y1800000D03*
X-67200000Y16500000D03*
X-67200000Y10500000D03*
X-66050000Y4850000D03*
X-56300000Y1000000D03*
X-56300000Y2600000D03*
X-62150000Y4850000D03*
G04 #@! TO.N,/PHY.ID_SDA*
X-67200000Y14750000D03*
X-62400000Y7900000D03*
G04 #@! TO.N,/CON.C{slash}D+*
X-25900000Y3200000D03*
G04 #@! TO.N,/CON.ACK+*
X-30700000Y3200000D03*
G04 #@! TO.N,/CON.TERMPWR*
X-35500000Y6200000D03*
X-34700000Y6200000D03*
X-34700000Y7000000D03*
X-35500000Y1000000D03*
X-35500000Y7000000D03*
X-34700000Y5400000D03*
X-35500000Y2600000D03*
X-34700000Y2600000D03*
X-34700000Y1000000D03*
X-35500000Y1800000D03*
X-34700000Y1800000D03*
X-35500000Y5400000D03*
G04 #@! TO.N,/CON.BSY+*
X-31500000Y3200000D03*
G04 #@! TO.N,/CON.DB5+*
X-41100000Y3200000D03*
G04 #@! TO.N,/CON.DP0+*
X-37900000Y3200000D03*
G04 #@! TO.N,/CON.SEL+*
X-26700000Y3200000D03*
G04 #@! TO.N,/CON.ATN+*
X-33100000Y3200000D03*
G04 #@! TO.N,/CON.DB7+*
X-38700000Y3200000D03*
G04 #@! TO.N,/CON.REQ+*
X-24300000Y3200000D03*
G04 #@! TO.N,/CON.MSG+*
X-28300000Y3200000D03*
G04 #@! TO.N,/CON.DB3+*
X-43500000Y3200000D03*
G04 #@! TO.N,/CON.DIFFSENSE*
X-36300000Y3200000D03*
G04 #@! TO.N,/CON.I{slash}O+*
X-23500000Y3200000D03*
G04 #@! TO.N,/CON.DB4+*
X-42700000Y3200000D03*
G04 #@! TO.N,/CON.RST+*
X-29100000Y3200000D03*
G04 #@! TO.N,/CON.DB6+*
X-40300000Y3200000D03*
G04 #@! TO.N,/CON.DB1+*
X-45900000Y3200000D03*
G04 #@! TO.N,/CON.DB2+*
X-45100000Y3200000D03*
G04 #@! TO.N,/CON.DB0+*
X-47500000Y3200000D03*
G04 #@! TD*
D17*
G04 #@! TO.N,/PHY.ID_SCL*
X-64200000Y12100000D02*
X-67150000Y12100000D01*
X-67150000Y12100000D02*
X-67200000Y12150000D01*
X-63000000Y10900000D02*
X-64200000Y12100000D01*
X-63000000Y8500000D02*
X-63000000Y10900000D01*
G04 #@! TO.N,/PHY.ID_SDA*
X-62400000Y11200000D02*
X-63900000Y12700000D01*
X-65150000Y12700000D02*
X-67200000Y14750000D01*
X-62400000Y7900000D02*
X-62400000Y11200000D01*
X-63900000Y12700000D02*
X-65150000Y12700000D01*
D18*
G04 #@! TO.N,/CON.C{slash}D+*
X-25900000Y12816611D02*
X-25900000Y12844920D01*
X-24162674Y14134009D02*
X-24217089Y14188424D01*
X-25660000Y8256611D02*
X-25583060Y8256611D01*
X-24217089Y14527835D02*
X-24132234Y14612687D01*
X-25660000Y10656611D02*
X-25583060Y10656611D01*
X-25900000Y11496611D02*
X-25900000Y11616611D01*
X-25900000Y3200000D02*
X-25900000Y8016611D01*
X-25660000Y9456611D02*
X-25583060Y9456611D01*
X-25343060Y12096611D02*
X-25343060Y12216611D01*
X-25900000Y10296611D02*
X-25900000Y10416611D01*
X-25583060Y12456611D02*
X-25660000Y12456611D01*
X-15384920Y23360000D02*
X-14420000Y23360000D01*
X-25900000Y9096611D02*
X-25900000Y9216611D01*
X-24247526Y13709744D02*
X-24162674Y13794597D01*
X-25900000Y12844920D02*
X-25440381Y13304539D01*
X-25660000Y11856611D02*
X-25583060Y11856611D01*
X-25583060Y11256611D02*
X-25660000Y11256611D01*
X-24641351Y13764158D02*
X-24586937Y13709744D01*
X-25343060Y8496611D02*
X-25343060Y8616611D01*
X-24132234Y14612687D02*
X-16884382Y21860538D01*
X-25343060Y10896611D02*
X-25343060Y11016611D01*
X-25583060Y8856611D02*
X-25660000Y8856611D01*
X-25343060Y9696611D02*
X-25343060Y9816611D01*
X-25583060Y10056611D02*
X-25660000Y10056611D01*
X-25900000Y12696611D02*
X-25900000Y12816611D01*
X-16884382Y21860538D02*
X-16734592Y22010328D01*
X-16734592Y22010328D02*
X-15384920Y23360000D01*
X-25440381Y13304539D02*
X-24980762Y13764158D01*
X-25660000Y11256611D02*
G75*
G02*
X-25899989Y11496611I0J239989D01*
G01*
X-24980762Y13764158D02*
G75*
G02*
X-24641351Y13764159I169706J-169707D01*
G01*
X-25343060Y12216611D02*
G75*
G03*
X-25583060Y12456640I-240040J-11D01*
G01*
X-25343060Y8616611D02*
G75*
G03*
X-25583060Y8856640I-240040J-11D01*
G01*
X-25660000Y12456611D02*
G75*
G02*
X-25899989Y12696611I0J239989D01*
G01*
X-25900000Y9216611D02*
G75*
G02*
X-25660000Y9456600I240000J-11D01*
G01*
X-25900000Y10416611D02*
G75*
G02*
X-25660000Y10656600I240000J-11D01*
G01*
X-25583060Y11856611D02*
G75*
G03*
X-25343111Y12096611I-40J239989D01*
G01*
X-25583060Y8256611D02*
G75*
G03*
X-25343111Y8496611I-40J239989D01*
G01*
X-24586937Y13709744D02*
G75*
G03*
X-24247526Y13709743I169706J169707D01*
G01*
X-25660000Y8856611D02*
G75*
G02*
X-25899989Y9096611I0J239989D01*
G01*
X-25900000Y8016611D02*
G75*
G02*
X-25660000Y8256600I240000J-11D01*
G01*
X-24162674Y13794597D02*
G75*
G03*
X-24162677Y14134006I-169726J169703D01*
G01*
X-25583060Y9456611D02*
G75*
G03*
X-25343111Y9696611I-40J239989D01*
G01*
X-25583060Y10656611D02*
G75*
G03*
X-25343111Y10896611I-40J239989D01*
G01*
X-25343060Y11016611D02*
G75*
G03*
X-25583060Y11256640I-240040J-11D01*
G01*
X-25343060Y9816611D02*
G75*
G03*
X-25583060Y10056640I-240040J-11D01*
G01*
X-25660000Y10056611D02*
G75*
G02*
X-25899989Y10296611I0J239989D01*
G01*
X-25900000Y11616611D02*
G75*
G02*
X-25660000Y11856600I240000J-11D01*
G01*
X-24217089Y14188424D02*
G75*
G02*
X-24217060Y14527805I169689J169676D01*
G01*
G04 #@! TO.N,/CON.ACK+*
X-30375907Y11240000D02*
X-30460000Y11240000D01*
X-30700000Y17480000D02*
X-30700000Y17600000D01*
X-30700000Y9080000D02*
X-30700000Y9200000D01*
X-30700000Y13880000D02*
X-30700000Y14000000D01*
X-30700000Y11480000D02*
X-30700000Y11600000D01*
X-30135922Y15680000D02*
X-30135922Y15800000D01*
X-30135907Y12080000D02*
X-30135907Y12200000D01*
X-30460000Y14240000D02*
X-30375907Y14240000D01*
X-30135907Y14480000D02*
X-30135907Y14600000D01*
X-30700000Y12680000D02*
X-30700000Y12800000D01*
X-30700000Y17600000D02*
X-30700000Y18204918D01*
X-30460000Y16640000D02*
X-30375922Y16640000D01*
X-30460000Y8240000D02*
X-30375907Y8240000D01*
X-30375922Y16040000D02*
X-30460000Y16040000D01*
X-30700000Y18204918D02*
X-26883099Y22021819D01*
X-30460000Y10640000D02*
X-30375907Y10640000D01*
X-30375922Y17240000D02*
X-30460000Y17240000D01*
X-30135907Y8480000D02*
X-30135907Y8600000D01*
X-30700000Y16280000D02*
X-30700000Y16400000D01*
X-30135922Y16880000D02*
X-30135922Y17000000D01*
X-30375907Y8840000D02*
X-30460000Y8840000D01*
X-25544918Y23360000D02*
X-24580000Y23360000D01*
X-30375907Y10040000D02*
X-30460000Y10040000D01*
X-30460000Y13040000D02*
X-30375907Y13040000D01*
X-30460000Y11840000D02*
X-30375907Y11840000D01*
X-30135907Y9680000D02*
X-30135907Y9800000D01*
X-30375907Y14840000D02*
X-30460000Y14840000D01*
X-30460000Y15440000D02*
X-30375922Y15440000D01*
X-30700000Y3200000D02*
X-30700000Y8000000D01*
X-30460000Y9440000D02*
X-30375907Y9440000D01*
X-26883099Y22021819D02*
X-25544918Y23360000D01*
X-30375907Y13640000D02*
X-30460000Y13640000D01*
X-30700000Y15080000D02*
X-30700000Y15200000D01*
X-30700000Y10280000D02*
X-30700000Y10400000D01*
X-30135907Y10880000D02*
X-30135907Y11000000D01*
X-30375907Y12440000D02*
X-30460000Y12440000D01*
X-30135907Y13280000D02*
X-30135907Y13400000D01*
X-30135907Y13400000D02*
G75*
G03*
X-30375907Y13639993I-239993J0D01*
G01*
X-30700000Y11600000D02*
G75*
G02*
X-30460000Y11840000I240000J0D01*
G01*
X-30460000Y17240000D02*
G75*
G02*
X-30700000Y17480000I0J240000D01*
G01*
X-30135922Y15800000D02*
G75*
G03*
X-30375922Y16039978I-239978J0D01*
G01*
X-30700000Y15200000D02*
G75*
G02*
X-30460000Y15440000I240000J0D01*
G01*
X-30460000Y11240000D02*
G75*
G02*
X-30700000Y11480000I0J240000D01*
G01*
X-30700000Y9200000D02*
G75*
G02*
X-30460000Y9440000I240000J0D01*
G01*
X-30135907Y14600000D02*
G75*
G03*
X-30375907Y14839993I-239993J0D01*
G01*
X-30375907Y9440000D02*
G75*
G03*
X-30135900Y9680000I7J240000D01*
G01*
X-30135922Y17000000D02*
G75*
G03*
X-30375922Y17239978I-239978J0D01*
G01*
X-30375907Y10640000D02*
G75*
G03*
X-30135900Y10880000I7J240000D01*
G01*
X-30700000Y8000000D02*
G75*
G02*
X-30460000Y8240000I240000J0D01*
G01*
X-30135907Y9800000D02*
G75*
G03*
X-30375907Y10039993I-239993J0D01*
G01*
X-30700000Y14000000D02*
G75*
G02*
X-30460000Y14240000I240000J0D01*
G01*
X-30700000Y10400000D02*
G75*
G02*
X-30460000Y10640000I240000J0D01*
G01*
X-30135907Y8600000D02*
G75*
G03*
X-30375907Y8839993I-239993J0D01*
G01*
X-30700000Y16400000D02*
G75*
G02*
X-30460000Y16640000I240000J0D01*
G01*
X-30460000Y16040000D02*
G75*
G02*
X-30700000Y16280000I0J240000D01*
G01*
X-30375907Y13040000D02*
G75*
G03*
X-30135900Y13280000I7J240000D01*
G01*
X-30375907Y14240000D02*
G75*
G03*
X-30135900Y14480000I7J240000D01*
G01*
X-30375922Y16640000D02*
G75*
G03*
X-30135900Y16880000I22J240000D01*
G01*
X-30135907Y12200000D02*
G75*
G03*
X-30375907Y12439993I-239993J0D01*
G01*
X-30135907Y11000000D02*
G75*
G03*
X-30375907Y11239993I-239993J0D01*
G01*
X-30460000Y14840000D02*
G75*
G02*
X-30700000Y15080000I0J240000D01*
G01*
X-30460000Y12440000D02*
G75*
G02*
X-30700000Y12680000I0J240000D01*
G01*
X-30375907Y11840000D02*
G75*
G03*
X-30135900Y12080000I7J240000D01*
G01*
X-30375907Y8240000D02*
G75*
G03*
X-30135900Y8480000I7J240000D01*
G01*
X-30700000Y12800000D02*
G75*
G02*
X-30460000Y13040000I240000J0D01*
G01*
X-30375922Y15440000D02*
G75*
G03*
X-30135900Y15680000I22J240000D01*
G01*
X-30460000Y13640000D02*
G75*
G02*
X-30700000Y13880000I0J240000D01*
G01*
X-30460000Y10040000D02*
G75*
G02*
X-30700000Y10280000I0J240000D01*
G01*
X-30460000Y8840000D02*
G75*
G02*
X-30700000Y9080000I0J240000D01*
G01*
G04 #@! TO.N,/CON.BSY+*
X-32100000Y12080000D02*
X-32100000Y12200000D01*
X-31740000Y11840000D02*
X-31860000Y11840000D01*
X-31499999Y20284332D02*
X-31584851Y20369184D01*
X-31500000Y3200000D02*
X-31500000Y8000000D01*
X-29887792Y21557124D02*
X-29802940Y21641979D01*
X-30312057Y21641977D02*
X-30227204Y21557124D01*
X-29802940Y21641979D02*
X-29426331Y22018589D01*
X-31500000Y13880000D02*
X-31500000Y14000000D01*
X-31160587Y20793447D02*
X-31075734Y20708594D01*
X-31860000Y16040000D02*
X-31740000Y16040000D01*
X-29426331Y22018589D02*
X-28084920Y23360000D01*
X-31740000Y17840000D02*
X-31860000Y17840000D01*
X-31500000Y10280000D02*
X-31500000Y10400000D01*
X-31740000Y16640000D02*
X-31860000Y16640000D01*
X-32100000Y14480000D02*
X-32100000Y14600000D01*
X-31740000Y9440000D02*
X-31860000Y9440000D01*
X-31740000Y14240000D02*
X-31860000Y14240000D01*
X-31860000Y11240000D02*
X-31740000Y11240000D01*
X-31860000Y18440000D02*
X-31740000Y18440000D01*
X-30736321Y21557126D02*
X-30651469Y21641977D01*
X-32100000Y8480000D02*
X-32100000Y8600000D01*
X-31740000Y10640000D02*
X-31860000Y10640000D01*
X-31500000Y18680000D02*
X-31500000Y18800000D01*
X-31500000Y12680000D02*
X-31500000Y12800000D01*
X-31500000Y19450000D02*
X-31500000Y19944920D01*
X-32100000Y16880000D02*
X-32100000Y17000000D01*
X-31860000Y8840000D02*
X-31740000Y8840000D01*
X-32100000Y9680000D02*
X-32100000Y9800000D01*
X-30736322Y20708594D02*
X-30651470Y20793449D01*
X-31500000Y18800000D02*
X-31500000Y19450000D01*
X-31860000Y14840000D02*
X-31740000Y14840000D01*
X-30651469Y21132862D02*
X-30736321Y21217714D01*
X-31740000Y8240000D02*
X-31860000Y8240000D01*
X-32100000Y15680000D02*
X-32100000Y15800000D01*
X-31740000Y15440000D02*
X-31860000Y15440000D01*
X-31500000Y17480000D02*
X-31500000Y17600000D01*
X-31500000Y11480000D02*
X-31500000Y11600000D01*
X-31584851Y20708596D02*
X-31499999Y20793447D01*
X-31860000Y17240000D02*
X-31740000Y17240000D01*
X-28084920Y23360000D02*
X-27119999Y23360000D01*
X-31500000Y9080000D02*
X-31500000Y9200000D01*
X-31860000Y12440000D02*
X-31740000Y12440000D01*
X-31860000Y13640000D02*
X-31740000Y13640000D01*
X-31860000Y10040000D02*
X-31740000Y10040000D01*
X-32100000Y10880000D02*
X-32100000Y11000000D01*
X-31500000Y15080000D02*
X-31500000Y15200000D01*
X-32100000Y13280000D02*
X-32100000Y13400000D01*
X-31500000Y16280000D02*
X-31500000Y16400000D01*
X-30651470Y20793449D02*
X-30651470Y20793450D01*
X-31740000Y13040000D02*
X-31860000Y13040000D01*
X-32100000Y18080000D02*
X-32100000Y18200000D01*
X-31740000Y11240000D02*
G75*
G03*
X-31500000Y11480000I0J240000D01*
G01*
X-31740000Y12440000D02*
G75*
G03*
X-31500000Y12680000I0J240000D01*
G01*
X-31860000Y16640000D02*
G75*
G02*
X-32100000Y16880000I0J240000D01*
G01*
X-32100000Y15800000D02*
G75*
G02*
X-31860000Y16040000I240000J0D01*
G01*
X-31500000Y8000000D02*
G75*
G03*
X-31740000Y8240000I-240000J0D01*
G01*
X-31500000Y14000000D02*
G75*
G03*
X-31740000Y14240000I-240000J0D01*
G01*
X-31500000Y11600000D02*
G75*
G03*
X-31740000Y11840000I-240000J0D01*
G01*
X-32100000Y9800000D02*
G75*
G02*
X-31860000Y10040000I240000J0D01*
G01*
X-31740000Y10040000D02*
G75*
G03*
X-31500000Y10280000I0J240000D01*
G01*
X-31500000Y9200000D02*
G75*
G03*
X-31740000Y9440000I-240000J0D01*
G01*
X-31860000Y8240000D02*
G75*
G02*
X-32100000Y8480000I0J240000D01*
G01*
X-31860000Y17840000D02*
G75*
G02*
X-32100000Y18080000I0J240000D01*
G01*
X-32100000Y12200000D02*
G75*
G02*
X-31860000Y12440000I240000J0D01*
G01*
X-31860000Y13040000D02*
G75*
G02*
X-32100000Y13280000I0J240000D01*
G01*
X-31860000Y15440000D02*
G75*
G02*
X-32100000Y15680000I0J240000D01*
G01*
X-31860000Y14240000D02*
G75*
G02*
X-32100000Y14480000I0J240000D01*
G01*
X-32100000Y11000000D02*
G75*
G02*
X-31860000Y11240000I240000J0D01*
G01*
X-31740000Y17240000D02*
G75*
G03*
X-31500000Y17480000I0J240000D01*
G01*
X-31500000Y16400000D02*
G75*
G03*
X-31740000Y16640000I-240000J0D01*
G01*
X-32100000Y17000000D02*
G75*
G02*
X-31860000Y17240000I240000J0D01*
G01*
X-31740000Y13640000D02*
G75*
G03*
X-31500000Y13880000I0J240000D01*
G01*
X-30736321Y21217714D02*
G75*
G02*
X-30736301Y21557106I169721J169686D01*
G01*
X-31740000Y14840000D02*
G75*
G03*
X-31500000Y15080000I0J240000D01*
G01*
X-31500000Y15200000D02*
G75*
G03*
X-31740000Y15440000I-240000J0D01*
G01*
X-31075734Y20708594D02*
G75*
G03*
X-30736322Y20708594I169706J169708D01*
G01*
X-31740000Y18440000D02*
G75*
G03*
X-31500000Y18680000I0J240000D01*
G01*
X-31584851Y20369184D02*
G75*
G02*
X-31584861Y20708606I169651J169716D01*
G01*
X-30227204Y21557124D02*
G75*
G03*
X-29887792Y21557124I169706J169708D01*
G01*
X-31500000Y10400000D02*
G75*
G03*
X-31740000Y10640000I-240000J0D01*
G01*
X-31860000Y9440000D02*
G75*
G02*
X-32100000Y9680000I0J240000D01*
G01*
X-30651470Y20793450D02*
G75*
G03*
X-30651425Y21132905I-169730J169750D01*
G01*
X-31740000Y8840000D02*
G75*
G03*
X-31500000Y9080000I0J240000D01*
G01*
X-31500000Y12800000D02*
G75*
G03*
X-31740000Y13040000I-240000J0D01*
G01*
X-31740000Y16040000D02*
G75*
G03*
X-31500000Y16280000I0J240000D01*
G01*
X-31500000Y17600000D02*
G75*
G03*
X-31740000Y17840000I-240000J0D01*
G01*
X-32100000Y18200000D02*
G75*
G02*
X-31860000Y18440000I240000J0D01*
G01*
X-31860000Y10640000D02*
G75*
G02*
X-32100000Y10880000I0J240000D01*
G01*
X-32100000Y13400000D02*
G75*
G02*
X-31860000Y13640000I240000J0D01*
G01*
X-31499999Y20793447D02*
G75*
G02*
X-31160587Y20793447I169706J-169701D01*
G01*
X-32100000Y14600000D02*
G75*
G02*
X-31860000Y14840000I240000J0D01*
G01*
X-31500000Y19944920D02*
G75*
G03*
X-31500025Y20284305I-169700J169680D01*
G01*
X-31860000Y11840000D02*
G75*
G02*
X-32100000Y12080000I0J240000D01*
G01*
X-30651469Y21641977D02*
G75*
G02*
X-30312057Y21641977I169706J-169701D01*
G01*
X-32100000Y8600000D02*
G75*
G02*
X-31860000Y8840000I240000J0D01*
G01*
G04 #@! TO.N,/CON.DB5+*
X-43898543Y15698543D02*
X-43675329Y15921758D01*
X-43474276Y15274276D02*
X-43697513Y15051042D01*
X-42826777Y15412655D02*
X-42911632Y15497510D01*
X-44747077Y16547077D02*
X-44747076Y16547076D01*
X-50190682Y21990682D02*
X-51560000Y23360000D01*
X-41100000Y3200000D02*
X-41100000Y12900000D01*
X-43474277Y15274277D02*
X-43474276Y15274276D01*
X-42625744Y14425744D02*
X-42625743Y14425743D01*
X-43675329Y16261169D02*
X-43760184Y16346024D01*
X-44322809Y16122809D02*
X-44546044Y15899577D01*
X-52520000Y23360000D02*
X-51560000Y23360000D01*
X-43188365Y14202536D02*
X-43273221Y14287392D01*
X-44036923Y15051041D02*
X-44121779Y15135897D01*
X-44523812Y17109752D02*
X-44608665Y17194605D01*
X-44885454Y15899576D02*
X-44970310Y15984432D01*
X-41946917Y13407505D02*
X-42000422Y13354003D01*
X-42371185Y13831774D02*
X-42201480Y14001479D01*
X-44970311Y16323844D02*
X-44747077Y16547077D01*
X-44577371Y16716782D02*
X-44523812Y16770341D01*
X-41978263Y14564103D02*
X-42063118Y14648958D01*
X-45341048Y17141046D02*
X-45425899Y17225899D01*
X-41100000Y12900000D02*
X-41607505Y13407505D01*
X-42201477Y14001477D02*
X-41978263Y14224692D01*
X-43898544Y15698544D02*
X-43898543Y15698543D01*
X-43273220Y14626802D02*
X-43050013Y14850012D01*
X-43251043Y15497510D02*
X-43474277Y15274277D01*
X-44099595Y16346024D02*
X-44322810Y16122810D01*
X-42424687Y13778269D02*
X-42371185Y13831774D01*
X-45425899Y17225899D02*
X-50190682Y21990682D01*
X-44948077Y17194605D02*
X-45001637Y17141046D01*
X-44121780Y15475309D02*
X-43898544Y15698544D01*
X-43050010Y14850010D02*
X-42826777Y15073244D01*
X-42339832Y13354002D02*
X-42424687Y13438857D01*
X-42201480Y14001479D02*
X-42201477Y14001477D01*
X-42402529Y14648958D02*
X-42625744Y14425744D01*
X-44322810Y16122810D02*
X-44322809Y16122809D01*
X-51560000Y23360000D02*
X-50200000Y22000000D01*
X-44747076Y16547076D02*
X-44577371Y16716782D01*
X-42625743Y14425743D02*
X-42848953Y14202536D01*
X-43050013Y14850012D02*
X-43050010Y14850010D01*
X-43675329Y15921758D02*
G75*
G03*
X-43675292Y16261206I-169671J169742D01*
G01*
X-42848953Y14202536D02*
G75*
G02*
X-43188365Y14202536I-169706J169701D01*
G01*
X-42000422Y13354003D02*
G75*
G02*
X-42339804Y13354029I-169678J169697D01*
G01*
X-43760184Y16346024D02*
G75*
G03*
X-44099594Y16346024I-169705J-169703D01*
G01*
X-44523812Y16770341D02*
G75*
G03*
X-44523858Y17109705I-169688J169659D01*
G01*
X-42424687Y13438857D02*
G75*
G02*
X-42424724Y13778306I169687J169743D01*
G01*
X-43273221Y14287392D02*
G75*
G02*
X-43273224Y14626805I169721J169708D01*
G01*
X-44121779Y15135897D02*
G75*
G02*
X-44121777Y15475305I169679J169703D01*
G01*
X-44970310Y15984432D02*
G75*
G02*
X-44970273Y16323805I169710J169668D01*
G01*
X-42826777Y15073244D02*
G75*
G03*
X-42826826Y15412605I-169723J169656D01*
G01*
X-44546044Y15899577D02*
G75*
G02*
X-44885404Y15899625I-169656J169723D01*
G01*
X-44608665Y17194605D02*
G75*
G03*
X-44948077Y17194605I-169706J-169704D01*
G01*
X-41607505Y13407505D02*
G75*
G03*
X-41946917Y13407505I-169706J-169701D01*
G01*
X-45001637Y17141046D02*
G75*
G02*
X-45341047Y17141046I-169705J169703D01*
G01*
X-42911632Y15497510D02*
G75*
G03*
X-43251044Y15497511I-169706J-169703D01*
G01*
X-41978263Y14224692D02*
G75*
G03*
X-41978260Y14564105I-169737J169708D01*
G01*
X-43697513Y15051042D02*
G75*
G02*
X-44036904Y15051059I-169687J169658D01*
G01*
X-42063118Y14648958D02*
G75*
G03*
X-42402530Y14648959I-169706J-169703D01*
G01*
G04 #@! TO.N,/CON.DP0+*
X-39989083Y19414002D02*
X-39757652Y19645434D01*
X-39310258Y18395766D02*
X-39140553Y18565471D01*
X-40413349Y19838268D02*
X-40644762Y19606858D01*
X-40135610Y18758356D02*
X-40220466Y18843212D01*
X-39989086Y19414004D02*
X-39989083Y19414002D01*
X-41516439Y20941358D02*
X-42601889Y22026808D01*
X-40984172Y19606857D02*
X-41069028Y19691713D01*
X-40220465Y19182622D02*
X-39989086Y19414004D01*
X-39371922Y18334099D02*
X-39310258Y18395766D01*
X-39140553Y18565471D02*
X-39140550Y18565469D01*
X-39757652Y19984846D02*
X-39842507Y20069701D01*
X-37900000Y3200000D02*
X-37900000Y17324919D01*
X-40606215Y20833348D02*
X-40691068Y20918201D01*
X-41069029Y20031125D02*
X-40837617Y20262536D01*
X-39287067Y17909832D02*
X-39371922Y17994687D01*
X-40667911Y20432241D02*
X-40606215Y20493937D01*
X-39564816Y18989735D02*
X-39796198Y18758356D01*
X-39333442Y19221110D02*
X-39564817Y18989736D01*
X-38885990Y17971497D02*
X-38947657Y17909833D01*
X-40181918Y20069701D02*
X-40413350Y19838270D01*
X-41030480Y20918201D02*
X-41092176Y20856506D01*
X-38909176Y19136255D02*
X-38994031Y19221110D01*
X-40413350Y19838270D02*
X-40413349Y19838268D01*
X-39564817Y18989736D02*
X-39564816Y18989735D01*
X-40837616Y20262535D02*
X-40667911Y20432241D01*
X-39140550Y18565469D02*
X-38909176Y18796844D01*
X-37900000Y17324919D02*
X-38546578Y17971497D01*
X-42601889Y22026808D02*
X-43935081Y23360000D01*
X-41431588Y20856506D02*
X-41516439Y20941358D01*
X-43935081Y23360000D02*
X-44900000Y23360000D01*
X-40837617Y20262536D02*
X-40837616Y20262535D01*
X-40220466Y18843212D02*
G75*
G02*
X-40220449Y19182605I169666J169688D01*
G01*
X-38546578Y17971497D02*
G75*
G03*
X-38885990Y17971497I-169706J-169701D01*
G01*
X-38994031Y19221110D02*
G75*
G03*
X-39333441Y19221110I-169705J-169703D01*
G01*
X-39757652Y19645434D02*
G75*
G03*
X-39757692Y19984806I-169748J169666D01*
G01*
X-40644762Y19606858D02*
G75*
G02*
X-40984204Y19606824I-169738J169742D01*
G01*
X-41092176Y20856506D02*
G75*
G02*
X-41431588Y20856506I-169706J169704D01*
G01*
X-41069028Y19691713D02*
G75*
G02*
X-41069010Y20031106I169728J169687D01*
G01*
X-38909176Y18796844D02*
G75*
G03*
X-38909225Y19136205I-169724J169656D01*
G01*
X-39842507Y20069701D02*
G75*
G03*
X-40181917Y20069701I-169705J-169703D01*
G01*
X-40606215Y20493937D02*
G75*
G03*
X-40606257Y20833305I-169685J169663D01*
G01*
X-40691068Y20918201D02*
G75*
G03*
X-41030480Y20918201I-169706J-169704D01*
G01*
X-39371922Y17994687D02*
G75*
G02*
X-39371929Y18334106I169722J169713D01*
G01*
X-38947657Y17909833D02*
G75*
G02*
X-39287105Y17909794I-169743J169667D01*
G01*
X-39796198Y18758356D02*
G75*
G02*
X-40135610Y18758356I-169706J169701D01*
G01*
G04 #@! TO.N,/CON.SEL+*
X-27282150Y9655638D02*
X-27282150Y9775638D01*
X-24191290Y17577507D02*
X-24119055Y17505272D01*
X-26940000Y10615638D02*
X-27042150Y10615638D01*
X-27282148Y13255638D02*
X-27282148Y13375638D01*
X-26940000Y9415638D02*
X-27042150Y9415638D01*
X-24615555Y17492654D02*
X-24530700Y17577508D01*
X-26940000Y8215638D02*
X-27042150Y8215638D01*
X-25391851Y15893067D02*
X-25391851Y15893068D01*
X-27282149Y12055638D02*
X-27282149Y12175638D01*
X-26940000Y11815638D02*
X-27042149Y11815638D01*
X-19262062Y22022857D02*
X-17924919Y23360000D01*
X-25464059Y16644098D02*
X-25379204Y16728952D01*
X-26700000Y12655638D02*
X-26700000Y12775638D01*
X-26700000Y3200000D02*
X-26700000Y7975638D01*
X-17924919Y23360000D02*
X-16960001Y23360000D01*
X-24543320Y17081010D02*
X-24615554Y17153244D01*
X-24543321Y16741597D02*
X-24543321Y16741598D01*
X-25039794Y16728951D02*
X-24967585Y16656742D01*
X-26700000Y11455638D02*
X-26700000Y11575638D01*
X-27042149Y12415638D02*
X-26940000Y12415638D01*
X-24628173Y16656743D02*
X-24543321Y16741597D01*
X-27282150Y10855638D02*
X-27282150Y10975638D01*
X-26940000Y13015638D02*
X-27042148Y13015638D01*
X-26700000Y13855638D02*
X-26700000Y13975638D01*
X-27042148Y13615638D02*
X-26940000Y13615638D01*
X-26312578Y15795557D02*
X-26227723Y15880411D01*
X-23779643Y17505273D02*
X-23694791Y17590127D01*
X-26700000Y13975638D02*
X-26700000Y14584919D01*
X-26700000Y14584919D02*
X-26240381Y15044538D01*
X-23766999Y18341158D02*
X-23682144Y18426012D01*
X-22931113Y18353803D02*
X-22846261Y18438657D01*
X-27042150Y10015638D02*
X-26940000Y10015638D01*
X-27282150Y8455638D02*
X-27282150Y8575638D01*
X-25476703Y15808213D02*
X-25391851Y15893067D01*
X-25888313Y15880410D02*
X-25816115Y15808212D01*
X-27042150Y11215638D02*
X-26940000Y11215638D01*
X-22846261Y18438657D02*
X-19262062Y22022857D01*
X-23342734Y18426011D02*
X-23270525Y18353802D01*
X-25391850Y16232480D02*
X-25464058Y16304688D01*
X-27042150Y8815638D02*
X-26940000Y8815638D01*
X-26700000Y9055638D02*
X-26700000Y9175638D01*
X-26700000Y10255638D02*
X-26700000Y10375638D01*
X-26240380Y15383950D02*
X-26312577Y15456147D01*
X-23694790Y17929540D02*
X-23766998Y18001748D01*
X-23694791Y17590127D02*
X-23694791Y17590128D01*
X-23766998Y18001748D02*
G75*
G02*
X-23767046Y18341204I169698J169752D01*
G01*
X-27042150Y10615638D02*
G75*
G02*
X-27282162Y10855638I-50J239962D01*
G01*
X-24530700Y17577508D02*
G75*
G02*
X-24191294Y17577503I169700J-169708D01*
G01*
X-26940000Y10015638D02*
G75*
G03*
X-26700038Y10255638I0J239962D01*
G01*
X-27282150Y8575638D02*
G75*
G02*
X-27042150Y8815550I239950J-38D01*
G01*
X-26700000Y7975638D02*
G75*
G03*
X-26940000Y8215600I-240000J-38D01*
G01*
X-26940000Y13615638D02*
G75*
G03*
X-26700038Y13855638I0J239962D01*
G01*
X-26940000Y11215638D02*
G75*
G03*
X-26700038Y11455638I0J239962D01*
G01*
X-24615554Y17153244D02*
G75*
G02*
X-24615506Y17492605I169754J169656D01*
G01*
X-26312577Y15456147D02*
G75*
G02*
X-26312626Y15795605I169677J169753D01*
G01*
X-27042149Y11815638D02*
G75*
G02*
X-27282162Y12055638I-51J239962D01*
G01*
X-24119055Y17505272D02*
G75*
G03*
X-23779594Y17505223I169755J169728D01*
G01*
X-27282149Y12175638D02*
G75*
G02*
X-27042149Y12415549I239949J-38D01*
G01*
X-27042148Y13015638D02*
G75*
G02*
X-27282062Y13255638I48J239962D01*
G01*
X-26240381Y15044538D02*
G75*
G03*
X-26240424Y15383905I-169719J169662D01*
G01*
X-24543321Y16741598D02*
G75*
G03*
X-24543324Y17081005I-169679J169702D01*
G01*
X-25464058Y16304688D02*
G75*
G02*
X-25464066Y16644105I169658J169712D01*
G01*
X-25379204Y16728952D02*
G75*
G02*
X-25039794Y16728951I169704J-169752D01*
G01*
X-26700000Y12775638D02*
G75*
G03*
X-26940000Y13015600I-240000J-38D01*
G01*
X-26700000Y9175638D02*
G75*
G03*
X-26940000Y9415600I-240000J-38D01*
G01*
X-27282150Y10975638D02*
G75*
G02*
X-27042150Y11215550I239950J-38D01*
G01*
X-24967585Y16656742D02*
G75*
G03*
X-24628194Y16656763I169685J169658D01*
G01*
X-27042150Y8215638D02*
G75*
G02*
X-27282162Y8455638I-50J239962D01*
G01*
X-26940000Y12415638D02*
G75*
G03*
X-26700038Y12655638I0J239962D01*
G01*
X-23682144Y18426012D02*
G75*
G02*
X-23342695Y18426051I169744J-169712D01*
G01*
X-26700000Y11575638D02*
G75*
G03*
X-26940000Y11815600I-240000J-38D01*
G01*
X-26227723Y15880411D02*
G75*
G02*
X-25888295Y15880429I169723J-169711D01*
G01*
X-25391851Y15893068D02*
G75*
G03*
X-25391824Y16232505I-169749J169732D01*
G01*
X-26940000Y8815638D02*
G75*
G03*
X-26700038Y9055638I0J239962D01*
G01*
X-23694791Y17590128D02*
G75*
G03*
X-23694824Y17929505I-169709J169672D01*
G01*
X-27282148Y13375638D02*
G75*
G02*
X-27042148Y13615648I240048J-38D01*
G01*
X-27042150Y9415638D02*
G75*
G02*
X-27282162Y9655638I-50J239962D01*
G01*
X-25816115Y15808212D02*
G75*
G03*
X-25476693Y15808203I169715J169688D01*
G01*
X-23270525Y18353802D02*
G75*
G03*
X-22931094Y18353783I169725J169698D01*
G01*
X-27282150Y9775638D02*
G75*
G02*
X-27042150Y10015550I239950J-38D01*
G01*
X-26700000Y10375638D02*
G75*
G03*
X-26940000Y10615600I-240000J-38D01*
G01*
G04 #@! TO.N,/CON.ATN+*
X-33340000Y8840000D02*
X-33100000Y8840000D01*
X-33100000Y11840000D02*
X-33444253Y11840000D01*
X-33100000Y8840000D02*
X-32755747Y8840000D01*
X-33100000Y11240000D02*
X-32755747Y11240000D01*
X-33444253Y8840000D02*
X-33340000Y8840000D01*
X-33684253Y9680000D02*
X-33684253Y9800000D01*
X-33684253Y12080000D02*
X-33684253Y12200000D01*
X-33100000Y10640000D02*
X-33444253Y10640000D01*
X-32515747Y10280000D02*
X-32515747Y10400000D01*
X-32755718Y13040000D02*
X-33100000Y13040000D01*
X-33100000Y12440000D02*
X-32755718Y12440000D01*
X-33100000Y13040000D02*
X-33340000Y13040000D01*
X-32515747Y9080000D02*
X-32515747Y9200000D01*
X-33100000Y14000000D02*
X-33100000Y21992169D01*
X-33444253Y10040000D02*
X-33100000Y10040000D01*
X-33100000Y22460000D02*
X-32200000Y23360000D01*
X-33684253Y13280000D02*
X-33684253Y13400000D01*
X-33100000Y9440000D02*
X-33444253Y9440000D01*
X-33100000Y13880000D02*
X-33100000Y14000000D01*
X-33100000Y21992169D02*
X-33100000Y22460000D01*
X-33340000Y8240000D02*
X-33444253Y8240000D01*
X-32515718Y12680000D02*
X-32515718Y12800000D01*
X-33444253Y11240000D02*
X-33100000Y11240000D01*
X-32755747Y11840000D02*
X-33100000Y11840000D01*
X-33340000Y13040000D02*
X-33444253Y13040000D01*
X-32515747Y11480000D02*
X-32515747Y11600000D01*
X-32755747Y9440000D02*
X-33100000Y9440000D01*
X-33100000Y10040000D02*
X-32755747Y10040000D01*
X-33684253Y8480000D02*
X-33684253Y8600000D01*
X-32755747Y10640000D02*
X-33100000Y10640000D01*
X-33100000Y3200000D02*
X-33100000Y8000000D01*
X-33444253Y13640000D02*
X-33340000Y13640000D01*
X-33444253Y12440000D02*
X-33100000Y12440000D01*
X-33684253Y10880000D02*
X-33684253Y11000000D01*
X-32755747Y8840000D02*
G75*
G03*
X-32515700Y9080000I47J240000D01*
G01*
X-32515718Y12800000D02*
G75*
G03*
X-32755718Y13039982I-239982J0D01*
G01*
X-33444253Y10640000D02*
G75*
G02*
X-33684300Y10880000I-47J240000D01*
G01*
X-33444253Y8240000D02*
G75*
G02*
X-33684300Y8480000I-47J240000D01*
G01*
X-33100000Y8000000D02*
G75*
G03*
X-33340000Y8240000I-240000J0D01*
G01*
X-32755747Y11240000D02*
G75*
G03*
X-32515700Y11480000I47J240000D01*
G01*
X-33444253Y9440000D02*
G75*
G02*
X-33684300Y9680000I-47J240000D01*
G01*
X-33340000Y13640000D02*
G75*
G03*
X-33100000Y13880000I0J240000D01*
G01*
X-33684253Y12200000D02*
G75*
G02*
X-33444253Y12439953I239953J0D01*
G01*
X-32755718Y12440000D02*
G75*
G03*
X-32515700Y12680000I18J240000D01*
G01*
X-32515747Y11600000D02*
G75*
G03*
X-32755747Y11839953I-239953J0D01*
G01*
X-32515747Y10400000D02*
G75*
G03*
X-32755747Y10639953I-239953J0D01*
G01*
X-33444253Y11840000D02*
G75*
G02*
X-33684300Y12080000I-47J240000D01*
G01*
X-33684253Y9800000D02*
G75*
G02*
X-33444253Y10039953I239953J0D01*
G01*
X-33684253Y8600000D02*
G75*
G02*
X-33444253Y8839953I239953J0D01*
G01*
X-33444253Y13040000D02*
G75*
G02*
X-33684300Y13280000I-47J240000D01*
G01*
X-33684253Y11000000D02*
G75*
G02*
X-33444253Y11239953I239953J0D01*
G01*
X-33684253Y13400000D02*
G75*
G02*
X-33444253Y13639953I239953J0D01*
G01*
X-32755747Y10040000D02*
G75*
G03*
X-32515700Y10280000I47J240000D01*
G01*
X-32515747Y9200000D02*
G75*
G03*
X-32755747Y9439953I-239953J0D01*
G01*
G04 #@! TO.N,/CON.DB7+*
X-39696154Y16581073D02*
X-39450084Y16827144D01*
X-39857376Y15910734D02*
X-39942231Y15995589D01*
X-46475081Y23360000D02*
X-47440000Y23360000D01*
X-39865862Y16411369D02*
X-39696156Y16581075D01*
X-40298573Y18015133D02*
X-40383428Y18099988D01*
X-41138660Y17684168D02*
X-41215049Y17607779D01*
X-38700000Y15584919D02*
X-39102182Y15987101D01*
X-39874350Y17251410D02*
X-40120421Y17005340D01*
X-39696156Y16581075D02*
X-39696154Y16581073D01*
X-39942231Y16335001D02*
X-39865862Y16411369D01*
X-38700000Y3200000D02*
X-38700000Y15584919D01*
X-47440000Y23360000D02*
X-46560000Y23360000D01*
X-39441594Y15987101D02*
X-39517964Y15910734D01*
X-40722839Y18099988D02*
X-40968954Y17853874D01*
X-40705916Y16759255D02*
X-40790772Y16844111D01*
X-40120420Y17005339D02*
X-40366506Y16759256D01*
X-41562925Y18447845D02*
X-41647776Y18532695D01*
X-41554459Y17607778D02*
X-41639312Y17692631D01*
X-40544688Y17429607D02*
X-40544687Y17429606D01*
X-39450084Y17166555D02*
X-39534939Y17251410D01*
X-40790773Y17183523D02*
X-40544688Y17429607D01*
X-40968954Y17853874D02*
X-40968953Y17853872D01*
X-45089850Y21974769D02*
X-46475081Y23360000D01*
X-40968953Y17853872D02*
X-41138660Y17684168D01*
X-41647776Y18532695D02*
X-45089850Y21974769D01*
X-40544687Y17429606D02*
X-40298573Y17675721D01*
X-41639312Y18032043D02*
X-41562925Y18108433D01*
X-40120421Y17005340D02*
X-40120420Y17005339D01*
X-40790772Y16844111D02*
G75*
G02*
X-40790756Y17183505I169672J169689D01*
G01*
X-39450084Y16827144D02*
G75*
G03*
X-39450133Y17166505I-169716J169656D01*
G01*
X-40366506Y16759256D02*
G75*
G02*
X-40705905Y16759266I-169694J169744D01*
G01*
X-39102182Y15987101D02*
G75*
G03*
X-39441594Y15987101I-169706J-169701D01*
G01*
X-39942231Y15995589D02*
G75*
G02*
X-39942236Y16335006I169731J169711D01*
G01*
X-40298573Y17675721D02*
G75*
G03*
X-40298600Y18015106I-169727J169679D01*
G01*
X-41215049Y17607779D02*
G75*
G02*
X-41554504Y17607732I-169751J169721D01*
G01*
X-41562925Y18108433D02*
G75*
G03*
X-41562964Y18447806I-169675J169667D01*
G01*
X-39517964Y15910734D02*
G75*
G02*
X-39857376Y15910734I-169706J169701D01*
G01*
X-41639312Y17692631D02*
G75*
G02*
X-41639275Y18032006I169712J169669D01*
G01*
X-40383428Y18099988D02*
G75*
G03*
X-40722838Y18099988I-169705J-169703D01*
G01*
X-39534939Y17251410D02*
G75*
G03*
X-39874349Y17251410I-169705J-169703D01*
G01*
G04 #@! TO.N,/CON.REQ+*
X-24300000Y3200000D02*
X-24300000Y8000000D01*
X-24300000Y9080000D02*
X-24300000Y9200000D01*
X-24300000Y10280000D02*
X-24300000Y10400000D01*
X-24300000Y11600000D02*
X-24300000Y11904919D01*
X-24895975Y8480000D02*
X-24895975Y8600000D01*
X-24540000Y8240000D02*
X-24655975Y8240000D01*
X-24300000Y11480000D02*
X-24300000Y11600000D01*
X-14198623Y22006296D02*
X-12844919Y23360000D01*
X-24655975Y8840000D02*
X-24540000Y8840000D01*
X-24540000Y10640000D02*
X-24655990Y10640000D01*
X-22991851Y13213067D02*
X-14198623Y22006296D01*
X-12844919Y23360000D02*
X-11880000Y23360000D01*
X-23076703Y13128213D02*
X-22991851Y13213067D01*
X-24540000Y9440000D02*
X-24655975Y9440000D01*
X-23922375Y13125354D02*
X-23837520Y13210208D01*
X-23840380Y12703950D02*
X-23922374Y12785944D01*
X-23498110Y13210207D02*
X-23416115Y13128212D01*
X-24895990Y10880000D02*
X-24895990Y11000000D01*
X-24300000Y11904919D02*
X-23840381Y12364538D01*
X-24895975Y9680000D02*
X-24895975Y9800000D01*
X-24655990Y11240000D02*
X-24540000Y11240000D01*
X-24655975Y10040000D02*
X-24540000Y10040000D01*
X-23922374Y12785944D02*
G75*
G02*
X-23922326Y13125304I169674J169656D01*
G01*
X-24300000Y10400000D02*
G75*
G03*
X-24540000Y10640000I-240000J0D01*
G01*
X-24540000Y11240000D02*
G75*
G03*
X-24300000Y11480000I0J240000D01*
G01*
X-24895990Y11000000D02*
G75*
G02*
X-24655990Y11239990I239990J0D01*
G01*
X-24540000Y8840000D02*
G75*
G03*
X-24300000Y9080000I0J240000D01*
G01*
X-23837520Y13210208D02*
G75*
G02*
X-23498095Y13210223I169720J-169708D01*
G01*
X-24895975Y8600000D02*
G75*
G02*
X-24655975Y8839975I239975J0D01*
G01*
X-24540000Y10040000D02*
G75*
G03*
X-24300000Y10280000I0J240000D01*
G01*
X-24895975Y9800000D02*
G75*
G02*
X-24655975Y10039975I239975J0D01*
G01*
X-24655975Y9440000D02*
G75*
G02*
X-24896000Y9680000I-25J240000D01*
G01*
X-23840381Y12364538D02*
G75*
G03*
X-23840424Y12703905I-169719J169662D01*
G01*
X-24300000Y9200000D02*
G75*
G03*
X-24540000Y9440000I-240000J0D01*
G01*
X-24300000Y8000000D02*
G75*
G03*
X-24540000Y8240000I-240000J0D01*
G01*
X-24655990Y10640000D02*
G75*
G02*
X-24896000Y10880000I-10J240000D01*
G01*
X-24655975Y8240000D02*
G75*
G02*
X-24896000Y8480000I-25J240000D01*
G01*
X-23416115Y13128212D02*
G75*
G03*
X-23076693Y13128203I169715J169688D01*
G01*
G04 #@! TO.N,/CON.MSG+*
X-28060000Y13030736D02*
X-27948999Y13030736D01*
X-27708999Y10870736D02*
X-27708999Y10990736D01*
X-28300000Y3200000D02*
X-28300000Y7990736D01*
X-27948999Y8830736D02*
X-28060000Y8830736D01*
X-28060000Y10630736D02*
X-27948999Y10630736D01*
X-20464919Y23360000D02*
X-19500000Y23360000D01*
X-28060000Y9430736D02*
X-27948999Y9430736D01*
X-28300000Y12670736D02*
X-28300000Y12790736D01*
X-27948999Y12430736D02*
X-28060000Y12430736D01*
X-28300000Y15070736D02*
X-28300000Y15190736D01*
X-28300000Y11470736D02*
X-28300000Y11590736D01*
X-27948999Y10030736D02*
X-28060000Y10030736D01*
X-27948999Y13630736D02*
X-28060000Y13630736D01*
X-28300000Y10270736D02*
X-28300000Y10390736D01*
X-27949014Y14830736D02*
X-28060000Y14830736D01*
X-27708999Y9670736D02*
X-27708999Y9790736D01*
X-28060000Y8230736D02*
X-27948999Y8230736D01*
X-27709014Y14470736D02*
X-27709014Y14590736D01*
X-28300000Y15190736D02*
X-28300000Y15524919D01*
X-28300000Y9070736D02*
X-28300000Y9190736D01*
X-28060000Y11830736D02*
X-27948999Y11830736D01*
X-27708999Y12070736D02*
X-27708999Y12190736D01*
X-28060000Y14230736D02*
X-27949014Y14230736D01*
X-27708999Y8470736D02*
X-27708999Y8590736D01*
X-27708999Y13270736D02*
X-27708999Y13390736D01*
X-21821045Y22003874D02*
X-20464919Y23360000D01*
X-27948999Y11230736D02*
X-28060000Y11230736D01*
X-28300000Y15524919D02*
X-21821045Y22003874D01*
X-28300000Y13870736D02*
X-28300000Y13990736D01*
X-28300000Y12790736D02*
G75*
G02*
X-28060000Y13030700I240000J-36D01*
G01*
X-28300000Y7990736D02*
G75*
G02*
X-28060000Y8230700I240000J-36D01*
G01*
X-27708999Y12190736D02*
G75*
G03*
X-27948999Y12430701I-240001J-36D01*
G01*
X-28300000Y13990736D02*
G75*
G02*
X-28060000Y14230700I240000J-36D01*
G01*
X-27948999Y9430736D02*
G75*
G03*
X-27709036Y9670736I-1J239964D01*
G01*
X-27708999Y8590736D02*
G75*
G03*
X-27948999Y8830701I-240001J-36D01*
G01*
X-28300000Y10390736D02*
G75*
G02*
X-28060000Y10630700I240000J-36D01*
G01*
X-28060000Y14830736D02*
G75*
G02*
X-28299964Y15070736I0J239964D01*
G01*
X-27708999Y13390736D02*
G75*
G03*
X-27948999Y13630701I-240001J-36D01*
G01*
X-27708999Y10990736D02*
G75*
G03*
X-27948999Y11230701I-240001J-36D01*
G01*
X-28060000Y12430736D02*
G75*
G02*
X-28299964Y12670736I0J239964D01*
G01*
X-27948999Y10630736D02*
G75*
G03*
X-27709036Y10870736I-1J239964D01*
G01*
X-28300000Y9190736D02*
G75*
G02*
X-28060000Y9430700I240000J-36D01*
G01*
X-27708999Y9790736D02*
G75*
G03*
X-27948999Y10030701I-240001J-36D01*
G01*
X-28060000Y8830736D02*
G75*
G02*
X-28299964Y9070736I0J239964D01*
G01*
X-28060000Y13630736D02*
G75*
G02*
X-28299964Y13870736I0J239964D01*
G01*
X-28300000Y11590736D02*
G75*
G02*
X-28060000Y11830700I240000J-36D01*
G01*
X-27709014Y14590736D02*
G75*
G03*
X-27949014Y14830686I-239986J-36D01*
G01*
X-28060000Y10030736D02*
G75*
G02*
X-28299964Y10270736I0J239964D01*
G01*
X-27949014Y14230736D02*
G75*
G03*
X-27709036Y14470736I14J239964D01*
G01*
X-28060000Y11230736D02*
G75*
G02*
X-28299964Y11470736I0J239964D01*
G01*
X-27948999Y11830736D02*
G75*
G03*
X-27709036Y12070736I-1J239964D01*
G01*
X-27948999Y13030736D02*
G75*
G03*
X-27709036Y13270736I-1J239964D01*
G01*
X-27948999Y8230736D02*
G75*
G03*
X-27709036Y8470736I-1J239964D01*
G01*
G04 #@! TO.N,/CON.DB3+*
X-45462938Y12187858D02*
X-45547789Y12272708D01*
X-45547789Y12272708D02*
X-55315130Y22040049D01*
X-44614408Y10999915D02*
X-44444702Y11169621D01*
X-56635081Y23360000D02*
X-57600000Y23360000D01*
X-44190140Y10575647D02*
X-44233484Y10532306D01*
X-55315130Y22040049D02*
X-56635081Y23360000D01*
X-45506269Y11805112D02*
X-45462938Y11848446D01*
X-44655928Y11806924D02*
X-44868967Y11593886D01*
X-43500000Y3200000D02*
X-43500000Y10224919D01*
X-44444702Y11169621D02*
X-44444700Y11169619D01*
X-44444700Y11169619D02*
X-44231662Y11382658D01*
X-44868966Y11593885D02*
X-45038673Y11424181D01*
X-44231662Y11722069D02*
X-44316517Y11806924D01*
X-45421416Y11380847D02*
X-45506269Y11465700D01*
X-45038673Y11424181D02*
X-45082006Y11380848D01*
X-44572896Y10532306D02*
X-44657751Y10617161D01*
X-44868967Y11593886D02*
X-44868966Y11593885D01*
X-43500000Y10224919D02*
X-43850728Y10575647D01*
X-44657751Y10956573D02*
X-44614408Y10999915D01*
X-45082006Y11380848D02*
G75*
G02*
X-45421404Y11380858I-169694J169652D01*
G01*
X-45462938Y11848446D02*
G75*
G03*
X-45462890Y12187906I-169662J169754D01*
G01*
X-44657751Y10617161D02*
G75*
G02*
X-44657784Y10956606I169751J169739D01*
G01*
X-44231662Y11382658D02*
G75*
G03*
X-44231625Y11722105I-169738J169742D01*
G01*
X-43850728Y10575647D02*
G75*
G03*
X-44190140Y10575647I-169706J-169701D01*
G01*
X-44233484Y10532306D02*
G75*
G02*
X-44572896Y10532306I-169706J169701D01*
G01*
X-45506269Y11465700D02*
G75*
G02*
X-45506263Y11805106I169669J169700D01*
G01*
X-44316517Y11806924D02*
G75*
G03*
X-44655927Y11806924I-169705J-169703D01*
G01*
D19*
G04 #@! TO.N,/CON.DIFFSENSE*
X-36300000Y3200000D02*
X-36300000Y17300000D01*
X-36300000Y17300000D02*
X-42360000Y23360000D01*
D18*
G04 #@! TO.N,/CON.I{slash}O+*
X-21887798Y11777125D02*
X-21802943Y11861977D01*
X-21954328Y10995127D02*
X-21869476Y11079980D01*
X-23260000Y8240000D02*
X-23234132Y8240000D01*
X-23500000Y3200000D02*
X-23500000Y8000000D01*
X-12009504Y21655415D02*
X-11651525Y22013394D01*
X-20954414Y12710506D02*
X-12009504Y21655415D01*
X-22718045Y10570904D02*
X-22736326Y10589185D01*
X-22802897Y10146639D02*
X-22718045Y10231492D01*
X-21105797Y11843654D02*
X-21020945Y11928507D01*
X-22994132Y8480000D02*
X-22994132Y8600000D01*
X-23160589Y10164919D02*
X-23142309Y10146639D01*
X-23500000Y9200000D02*
X-23500000Y9850000D01*
X-22651472Y11013448D02*
X-22651471Y11013448D01*
X-23500000Y9080000D02*
X-23500000Y9200000D01*
X-23234132Y8840000D02*
X-23260000Y8840000D01*
X-21463531Y11861977D02*
X-21445208Y11843654D01*
X-10304919Y23360000D02*
X-9340000Y23360000D01*
X-21039269Y12625654D02*
X-20954414Y12710506D01*
X-22312060Y11013448D02*
X-22293739Y10995127D01*
X-22736326Y10928597D02*
X-22651472Y11013448D01*
X-21020945Y12267919D02*
X-21039269Y12286243D01*
X-21802943Y11861977D02*
X-21802942Y11861977D01*
X-23500000Y9850000D02*
X-23500000Y10164919D01*
X-21869476Y11419392D02*
X-21887798Y11437714D01*
X-11651525Y22013394D02*
X-10304919Y23360000D01*
X-22736326Y10589185D02*
G75*
G02*
X-22736335Y10928606I169726J169715D01*
G01*
X-23500000Y10164919D02*
G75*
G02*
X-23160589Y10164920I169706J-169707D01*
G01*
X-22994132Y8600000D02*
G75*
G03*
X-23234132Y8839968I-239968J0D01*
G01*
X-22718045Y10231492D02*
G75*
G03*
X-22718043Y10570906I-169655J169708D01*
G01*
X-23500000Y8000000D02*
G75*
G02*
X-23260000Y8240000I240000J0D01*
G01*
X-21802942Y11861977D02*
G75*
G02*
X-21463531Y11861978I169706J-169707D01*
G01*
X-21039269Y12286243D02*
G75*
G02*
X-21039221Y12625605I169669J169657D01*
G01*
X-21887798Y11437714D02*
G75*
G02*
X-21887779Y11777105I169698J169686D01*
G01*
X-23234132Y8240000D02*
G75*
G03*
X-22994100Y8480000I32J240000D01*
G01*
X-21020945Y11928507D02*
G75*
G03*
X-21020958Y12267906I-169655J169693D01*
G01*
X-22293739Y10995127D02*
G75*
G03*
X-21954328Y10995127I169705J169707D01*
G01*
X-22651471Y11013448D02*
G75*
G02*
X-22312060Y11013449I169706J-169707D01*
G01*
X-21869476Y11079980D02*
G75*
G03*
X-21869462Y11419406I-169724J169720D01*
G01*
X-23260000Y8840000D02*
G75*
G02*
X-23500000Y9080000I0J240000D01*
G01*
X-21445208Y11843654D02*
G75*
G03*
X-21105797Y11843654I169705J169707D01*
G01*
X-23142309Y10146639D02*
G75*
G03*
X-22802897Y10146639I169706J169704D01*
G01*
G04 #@! TO.N,/CON.DB4+*
X-54095081Y23360000D02*
X-55060000Y23360000D01*
X-43787399Y13052318D02*
X-43588106Y13251612D01*
X-44835206Y13701580D02*
X-44635933Y13900852D01*
X-43787402Y13052320D02*
X-43787399Y13052318D01*
X-44012372Y13675878D02*
X-44211666Y13476585D01*
X-43901853Y12428744D02*
X-43986708Y12513599D01*
X-44635933Y13900852D02*
X-44635932Y13900851D01*
X-44466227Y14070557D02*
X-44436650Y14100134D01*
X-43532839Y12458346D02*
X-43562443Y12428745D01*
X-52739394Y22004313D02*
X-54095081Y23360000D01*
X-44860915Y14524398D02*
X-44890492Y14494822D01*
X-45229904Y14494822D02*
X-45314755Y14579674D01*
X-43957107Y12882615D02*
X-43787402Y13052320D01*
X-44635932Y13900851D02*
X-44466227Y14070557D01*
X-43986708Y12853011D02*
X-43957107Y12882615D01*
X-44436650Y14439545D02*
X-44521503Y14524398D01*
X-42700000Y3200000D02*
X-42700000Y11964919D01*
X-44750349Y13277312D02*
X-44835205Y13362168D01*
X-43588106Y13591023D02*
X-43672961Y13675878D01*
X-44211666Y13476585D02*
X-44211665Y13476584D01*
X-44211665Y13476584D02*
X-44410939Y13277313D01*
X-45314755Y14579674D02*
X-52739394Y22004313D01*
X-42700000Y11964919D02*
X-43193427Y12458346D01*
X-43672961Y13675878D02*
G75*
G03*
X-44012373Y13675879I-169706J-169703D01*
G01*
X-43562443Y12428745D02*
G75*
G02*
X-43901804Y12428792I-169657J169655D01*
G01*
X-43193427Y12458346D02*
G75*
G03*
X-43532839Y12458346I-169706J-169701D01*
G01*
X-44410939Y13277313D02*
G75*
G02*
X-44750304Y13277356I-169661J169687D01*
G01*
X-44890492Y14494822D02*
G75*
G02*
X-45229904Y14494822I-169706J169704D01*
G01*
X-44835205Y13362168D02*
G75*
G02*
X-44835232Y13701605I169705J169732D01*
G01*
X-43986708Y12513599D02*
G75*
G02*
X-43986703Y12853006I169708J169701D01*
G01*
X-44521503Y14524398D02*
G75*
G03*
X-44860915Y14524398I-169706J-169704D01*
G01*
X-44436650Y14100134D02*
G75*
G03*
X-44436689Y14439506I-169750J169666D01*
G01*
X-43588106Y13251612D02*
G75*
G03*
X-43588123Y13591005I-169694J169688D01*
G01*
G04 #@! TO.N,/CON.RST+*
X-29100000Y13880103D02*
X-29100000Y14000103D01*
X-29447448Y14840103D02*
X-29340000Y14840103D01*
X-29100000Y17264919D02*
X-24372293Y21992626D01*
X-29340000Y14240103D02*
X-29447448Y14240103D01*
X-29100000Y10280103D02*
X-29100000Y10400103D01*
X-29687445Y12080103D02*
X-29687445Y12200103D01*
X-29687438Y8480103D02*
X-29687438Y8600103D01*
X-23004919Y23360000D02*
X-22040000Y23360000D01*
X-29687453Y15680103D02*
X-29687453Y15800103D01*
X-29447438Y8840103D02*
X-29340000Y8840103D01*
X-29340000Y13040103D02*
X-29447447Y13040103D01*
X-29447445Y11240103D02*
X-29340000Y11240103D01*
X-29100000Y16400103D02*
X-29100000Y17264919D01*
X-29447445Y10040103D02*
X-29340000Y10040103D01*
X-29340000Y11840103D02*
X-29447445Y11840103D01*
X-29340000Y9440103D02*
X-29447445Y9440103D01*
X-29447453Y16040103D02*
X-29340000Y16040103D01*
X-29447447Y13640103D02*
X-29340000Y13640103D01*
X-29687448Y14480103D02*
X-29687448Y14600103D01*
X-29100000Y12680103D02*
X-29100000Y12800103D01*
X-29100000Y3200000D02*
X-29100000Y8000103D01*
X-29340000Y10640103D02*
X-29447445Y10640103D01*
X-29100000Y16280103D02*
X-29100000Y16400103D01*
X-29687445Y10880103D02*
X-29687445Y11000103D01*
X-24372293Y21992626D02*
X-23004919Y23360000D01*
X-29687447Y13280103D02*
X-29687447Y13400103D01*
X-29687445Y9680103D02*
X-29687445Y9800103D01*
X-29100000Y11480103D02*
X-29100000Y11600103D01*
X-29100000Y9080103D02*
X-29100000Y9200103D01*
X-29340000Y8240103D02*
X-29447438Y8240103D01*
X-29447445Y12440103D02*
X-29340000Y12440103D01*
X-29340000Y15440103D02*
X-29447453Y15440103D01*
X-29100000Y15080103D02*
X-29100000Y15200103D01*
X-29687438Y8600103D02*
G75*
G02*
X-29447438Y8840138I240038J-3D01*
G01*
X-29100000Y9200103D02*
G75*
G03*
X-29340000Y9440100I-240000J-3D01*
G01*
X-29100000Y14000103D02*
G75*
G03*
X-29340000Y14240100I-240000J-3D01*
G01*
X-29100000Y12800103D02*
G75*
G03*
X-29340000Y13040100I-240000J-3D01*
G01*
X-29100000Y11600103D02*
G75*
G03*
X-29340000Y11840100I-240000J-3D01*
G01*
X-29447445Y9440103D02*
G75*
G02*
X-29687397Y9680103I45J239997D01*
G01*
X-29687448Y14600103D02*
G75*
G02*
X-29447448Y14840148I240048J-3D01*
G01*
X-29447438Y8240103D02*
G75*
G02*
X-29687397Y8480103I38J239997D01*
G01*
X-29447448Y14240103D02*
G75*
G02*
X-29687397Y14480103I48J239997D01*
G01*
X-29340000Y8840103D02*
G75*
G03*
X-29100003Y9080103I0J239997D01*
G01*
X-29687445Y11000103D02*
G75*
G02*
X-29447445Y11240145I240045J-3D01*
G01*
X-29687447Y13400103D02*
G75*
G02*
X-29447447Y13640147I240047J-3D01*
G01*
X-29100000Y15200103D02*
G75*
G03*
X-29340000Y15440100I-240000J-3D01*
G01*
X-29447445Y11840103D02*
G75*
G02*
X-29687397Y12080103I45J239997D01*
G01*
X-29447445Y10640103D02*
G75*
G02*
X-29687397Y10880103I45J239997D01*
G01*
X-29447447Y13040103D02*
G75*
G02*
X-29687397Y13280103I47J239997D01*
G01*
X-29340000Y10040103D02*
G75*
G03*
X-29100003Y10280103I0J239997D01*
G01*
X-29447453Y15440103D02*
G75*
G02*
X-29687497Y15680103I-47J239997D01*
G01*
X-29340000Y14840103D02*
G75*
G03*
X-29100003Y15080103I0J239997D01*
G01*
X-29687445Y9800103D02*
G75*
G02*
X-29447445Y10040145I240045J-3D01*
G01*
X-29340000Y16040103D02*
G75*
G03*
X-29100003Y16280103I0J239997D01*
G01*
X-29340000Y11240103D02*
G75*
G03*
X-29100003Y11480103I0J239997D01*
G01*
X-29687445Y12200103D02*
G75*
G02*
X-29447445Y12440145I240045J-3D01*
G01*
X-29100000Y8000103D02*
G75*
G03*
X-29340000Y8240100I-240000J-3D01*
G01*
X-29100000Y10400103D02*
G75*
G03*
X-29340000Y10640100I-240000J-3D01*
G01*
X-29340000Y12440103D02*
G75*
G03*
X-29100003Y12680103I0J239997D01*
G01*
X-29340000Y13640103D02*
G75*
G03*
X-29100003Y13880103I0J239997D01*
G01*
X-29687453Y15800103D02*
G75*
G02*
X-29447453Y16040053I239953J-3D01*
G01*
G04 #@! TO.N,/CON.DB6+*
X-47632061Y21976980D02*
X-49015081Y23360000D01*
X-42411951Y16756870D02*
X-42411950Y16756869D01*
X-43047942Y18157355D02*
X-43132797Y18242210D01*
X-40300000Y14644919D02*
X-40969445Y15314364D01*
X-41733125Y15738633D02*
X-41563420Y15908338D01*
X-41775176Y16545110D02*
X-41987684Y16332603D01*
X-41308857Y15314364D02*
X-41351682Y15271542D01*
X-49015081Y23360000D02*
X-49979999Y23360000D01*
X-43260484Y17605403D02*
X-43260483Y17605402D01*
X-43472208Y18242210D02*
X-43684750Y18029669D01*
X-40300000Y3200000D02*
X-40300000Y14644919D01*
X-43939311Y18623641D02*
X-43896488Y18666464D01*
X-42411950Y16756869D02*
X-42199448Y16969372D01*
X-44109016Y18453935D02*
X-43939311Y18623641D01*
X-42624439Y16544383D02*
X-42411951Y16756870D01*
X-43388146Y16968617D02*
X-43473002Y17053473D01*
X-41987684Y16332603D02*
X-41987683Y16332602D01*
X-44236699Y17817130D02*
X-44321555Y17901986D01*
X-41350910Y16460255D02*
X-41435765Y16545110D01*
X-43473003Y17392885D02*
X-43260484Y17605403D01*
X-44787839Y19132758D02*
X-47632061Y21976980D01*
X-43684749Y18029668D02*
X-43897289Y17817131D01*
X-44109017Y18453936D02*
X-44109016Y18453935D01*
X-41987683Y16332602D02*
X-42200172Y16120116D01*
X-44321556Y18241398D02*
X-44109017Y18453936D01*
X-41775947Y15695808D02*
X-41733125Y15738633D01*
X-42836216Y17181135D02*
X-43048736Y16968618D01*
X-44702988Y19047905D02*
X-44787839Y19132758D01*
X-43260483Y17605402D02*
X-43047942Y17817944D01*
X-44320753Y19090728D02*
X-44363577Y19047905D01*
X-41563420Y15908338D02*
X-41563417Y15908336D01*
X-42836217Y17181136D02*
X-42836216Y17181135D01*
X-42199448Y17308783D02*
X-42284303Y17393638D01*
X-41563417Y15908336D02*
X-41350910Y16120844D01*
X-43896488Y19005875D02*
X-43981341Y19090728D01*
X-42623714Y17393638D02*
X-42836217Y17181136D01*
X-43684750Y18029669D02*
X-43684749Y18029668D01*
X-42539582Y16120115D02*
X-42624438Y16204971D01*
X-41691092Y15271541D02*
X-41775947Y15356396D01*
X-43047942Y17817944D02*
G75*
G03*
X-43047991Y18157305I-169658J169656D01*
G01*
X-44321555Y17901986D02*
G75*
G02*
X-44321564Y18241405I169755J169714D01*
G01*
X-41775947Y15356396D02*
G75*
G02*
X-41775945Y15695806I169747J169704D01*
G01*
X-41350910Y16120844D02*
G75*
G03*
X-41350959Y16460205I-169690J169656D01*
G01*
X-43132797Y18242210D02*
G75*
G03*
X-43472207Y18242210I-169705J-169703D01*
G01*
X-42624438Y16204971D02*
G75*
G02*
X-42624462Y16544405I169738J169729D01*
G01*
X-40969445Y15314364D02*
G75*
G03*
X-41308857Y15314364I-169706J-169701D01*
G01*
X-43897289Y17817131D02*
G75*
G02*
X-44236705Y17817124I-169711J169669D01*
G01*
X-43473002Y17053473D02*
G75*
G02*
X-43473024Y17392905I169702J169727D01*
G01*
X-41351682Y15271542D02*
G75*
G02*
X-41691105Y15271528I-169718J169658D01*
G01*
X-41435765Y16545110D02*
G75*
G03*
X-41775177Y16545111I-169706J-169703D01*
G01*
X-42284303Y17393638D02*
G75*
G03*
X-42623713Y17393638I-169705J-169703D01*
G01*
X-44363577Y19047905D02*
G75*
G02*
X-44702987Y19047905I-169705J169703D01*
G01*
X-43981341Y19090728D02*
G75*
G03*
X-44320753Y19090728I-169706J-169704D01*
G01*
X-42199448Y16969372D02*
G75*
G03*
X-42199425Y17308805I-169752J169728D01*
G01*
X-43048736Y16968618D02*
G75*
G02*
X-43388104Y16968658I-169664J169682D01*
G01*
X-43896488Y18666464D02*
G75*
G03*
X-43896457Y19005905I-169712J169736D01*
G01*
X-42200172Y16120116D02*
G75*
G02*
X-42539605Y16120092I-169728J169684D01*
G01*
G04 #@! TO.N,/CON.DB1+*
X-48997497Y10261936D02*
X-48976964Y10282472D01*
X-48148941Y9413432D02*
X-47958729Y9603647D01*
X-47110195Y8755114D02*
X-47110193Y8755112D01*
X-45900000Y3200000D02*
X-45900000Y7544919D01*
X-48382993Y10027913D02*
X-48382992Y10027911D01*
X-48382992Y10027911D02*
X-48552699Y9858207D01*
X-47534459Y9179378D02*
X-47724674Y8989166D01*
X-49061815Y10706734D02*
X-60384251Y22029170D01*
X-61715081Y23360000D02*
X-62680001Y23360000D01*
X-47768528Y10133256D02*
X-47853383Y10218111D01*
X-48976963Y10621882D02*
X-49061815Y10706734D01*
X-48552699Y9858207D02*
X-48573234Y9837672D01*
X-48912644Y9837671D02*
X-48997497Y9922524D01*
X-48192794Y10218111D02*
X-48382993Y10027913D01*
X-47958729Y9603647D02*
X-47958726Y9603645D01*
X-48064086Y8989166D02*
X-48148942Y9074022D01*
X-47958726Y9603645D02*
X-47768528Y9793844D01*
X-45900000Y7544919D02*
X-46516221Y8161140D01*
X-47110193Y8755112D02*
X-46919964Y8945342D01*
X-47300374Y8564936D02*
X-47279901Y8585408D01*
X-60384251Y22029170D02*
X-61715081Y23360000D01*
X-46855633Y8161140D02*
X-46876107Y8140669D01*
X-47344230Y9369608D02*
X-47534460Y9179379D01*
X-47534460Y9179379D02*
X-47534459Y9179378D01*
X-47215519Y8140669D02*
X-47300374Y8225524D01*
X-46919964Y9284753D02*
X-47004819Y9369608D01*
X-47279901Y8585408D02*
X-47110195Y8755114D01*
X-47004819Y9369608D02*
G75*
G03*
X-47344229Y9369608I-169705J-169703D01*
G01*
X-47768528Y9793844D02*
G75*
G03*
X-47768578Y10133206I-169672J169656D01*
G01*
X-47853383Y10218111D02*
G75*
G03*
X-48192795Y10218112I-169706J-169703D01*
G01*
X-46876107Y8140669D02*
G75*
G02*
X-47215519Y8140669I-169706J169701D01*
G01*
X-47300374Y8225524D02*
G75*
G02*
X-47300344Y8564906I169674J169676D01*
G01*
X-47724674Y8989166D02*
G75*
G02*
X-48064086Y8989166I-169706J169701D01*
G01*
X-46516221Y8161140D02*
G75*
G03*
X-46855633Y8161140I-169706J-169701D01*
G01*
X-46919964Y8945342D02*
G75*
G03*
X-46920011Y9284706I-169736J169658D01*
G01*
X-48976964Y10282472D02*
G75*
G03*
X-48976940Y10621904I-169736J169728D01*
G01*
X-48148942Y9074022D02*
G75*
G02*
X-48148915Y9413406I169742J169678D01*
G01*
X-48997497Y9922524D02*
G75*
G02*
X-48997467Y10261906I169697J169676D01*
G01*
X-48573234Y9837672D02*
G75*
G02*
X-48912605Y9837710I-169666J169728D01*
G01*
G04 #@! TO.N,/CON.DB2+*
X-46345949Y10530868D02*
X-46345948Y10530867D01*
X-46177844Y10698972D02*
X-46345949Y10530868D01*
X-57829885Y22014804D02*
X-59175081Y23360000D01*
X-47024771Y11209690D02*
X-57829885Y22014804D01*
X-45100000Y3200000D02*
X-45100000Y9284919D01*
X-45998958Y9512629D02*
X-46089494Y9603165D01*
X-45921684Y10106602D02*
X-45921682Y10106601D01*
X-46345948Y10530867D02*
X-46513800Y10363018D01*
X-46849502Y10363018D02*
X-46938065Y10451581D01*
X-45100000Y9284919D02*
X-45327710Y9512629D01*
X-59175081Y23360000D02*
X-60140000Y23360000D01*
X-46089494Y9938789D02*
X-45921684Y10106602D01*
X-45753578Y10610914D02*
X-45841636Y10698972D01*
X-45921682Y10106601D02*
X-45753578Y10274706D01*
X-46938065Y11122985D02*
X-47024771Y11209690D01*
X-45841636Y10698972D02*
G75*
G03*
X-46177844Y10698972I-168104J-168104D01*
G01*
X-46089494Y9603165D02*
G75*
G02*
X-46089517Y9938812I167794J167835D01*
G01*
X-46938065Y10787283D02*
G75*
G03*
X-46938099Y11122951I-167835J167817D01*
G01*
X-45663334Y9512629D02*
G75*
G02*
X-45998958Y9512629I-167812J167812D01*
G01*
X-45753578Y10274706D02*
G75*
G03*
X-45753588Y10610904I-168122J168094D01*
G01*
X-46938065Y10451581D02*
G75*
G02*
X-46938033Y10787251I167865J167819D01*
G01*
X-45327710Y9512629D02*
G75*
G03*
X-45663334Y9512629I-167812J-167812D01*
G01*
X-46513800Y10363018D02*
G75*
G02*
X-46849502Y10363018I-167851J167848D01*
G01*
G04 #@! TO.N,/CON.DB0+*
X-47500000Y3200000D02*
X-47500000Y7500000D01*
X-64260000Y23360000D02*
X-65220000Y23360000D01*
X-48200000Y8200000D02*
X-49100000Y8200000D01*
X-49100000Y8200000D02*
X-49313502Y8413502D01*
X-50162031Y9262031D02*
X-62896875Y21996875D01*
X-49985533Y9085533D02*
X-50162031Y9262031D01*
X-62896875Y21996875D02*
X-64260000Y23360000D01*
X-49809034Y8413502D02*
X-49985533Y8590001D01*
X-47500000Y7500000D02*
X-48200000Y8200000D01*
X-49985533Y8590001D02*
G75*
G02*
X-49985549Y8837783I123833J123899D01*
G01*
X-49985533Y8837767D02*
G75*
G03*
X-49985583Y9085483I-123867J123833D01*
G01*
X-49313502Y8413502D02*
G75*
G03*
X-49561268Y8413502I-123883J-123880D01*
G01*
X-49561268Y8413502D02*
G75*
G02*
X-49809034Y8413502I-123883J123886D01*
G01*
G04 #@! TD*
G04 #@! TA.AperFunction,Conductor*
G04 #@! TO.N,GND*
G36*
X-3998800Y33799442D02*
G01*
X-3629980Y33781322D01*
X-3625219Y33780854D01*
X-3261123Y33726846D01*
X-3256433Y33725913D01*
X-2963065Y33652428D01*
X-2899399Y33636480D01*
X-2894797Y33635084D01*
X-2781323Y33594483D01*
X-2548244Y33511085D01*
X-2543817Y33509251D01*
X-2211103Y33351889D01*
X-2206878Y33349632D01*
X-2015692Y33235039D01*
X-1891172Y33160404D01*
X-1887174Y33157732D01*
X-1739367Y33048111D01*
X-1591555Y32938486D01*
X-1587843Y32935440D01*
X-1315133Y32688269D01*
X-1311732Y32684868D01*
X-1064561Y32412158D01*
X-1061511Y32408441D01*
X-842269Y32112827D01*
X-839597Y32108829D01*
X-650374Y31793131D01*
X-648108Y31788890D01*
X-490754Y31456192D01*
X-488913Y31451750D01*
X-364917Y31105204D01*
X-363521Y31100602D01*
X-274091Y30743581D01*
X-273153Y30738865D01*
X-219149Y30374794D01*
X-218678Y30370008D01*
X-200559Y30001201D01*
X-200500Y29998797D01*
X-200500Y19599000D01*
X-214852Y19564352D01*
X-249500Y19550000D01*
X-2500000Y19550000D01*
X-2500000Y10350000D01*
X-249500Y10350000D01*
X-214852Y10335648D01*
X-200500Y10301000D01*
X-200500Y4001204D01*
X-200559Y3998800D01*
X-218678Y3629993D01*
X-219149Y3625207D01*
X-273153Y3261136D01*
X-274091Y3256420D01*
X-363521Y2899399D01*
X-364917Y2894797D01*
X-488913Y2548251D01*
X-490754Y2543809D01*
X-648108Y2211111D01*
X-650374Y2206870D01*
X-839597Y1891172D01*
X-842269Y1887174D01*
X-1061511Y1591560D01*
X-1064561Y1587843D01*
X-1311732Y1315133D01*
X-1315133Y1311732D01*
X-1587843Y1064561D01*
X-1591560Y1061511D01*
X-1887174Y842269D01*
X-1891172Y839597D01*
X-2206870Y650374D01*
X-2211111Y648108D01*
X-2543809Y490754D01*
X-2548251Y488913D01*
X-2894797Y364917D01*
X-2899399Y363521D01*
X-3256420Y274091D01*
X-3261136Y273153D01*
X-3625207Y219149D01*
X-3629993Y218678D01*
X-3998799Y200559D01*
X-4001203Y200500D01*
X-70998797Y200500D01*
X-71001201Y200559D01*
X-71370008Y218678D01*
X-71374794Y219149D01*
X-71738865Y273153D01*
X-71743581Y274091D01*
X-72100602Y363521D01*
X-72105204Y364917D01*
X-72451750Y488913D01*
X-72456192Y490754D01*
X-72788890Y648108D01*
X-72793131Y650374D01*
X-72794965Y651473D01*
X-72979554Y762112D01*
X-73108829Y839597D01*
X-73112827Y842269D01*
X-73408441Y1061511D01*
X-73412158Y1064561D01*
X-73684868Y1311732D01*
X-73688269Y1315133D01*
X-73870173Y1515832D01*
X-73935443Y1587847D01*
X-73938490Y1591560D01*
X-73994347Y1666874D01*
X-74048111Y1739367D01*
X-74157732Y1887174D01*
X-74160404Y1891172D01*
X-74345509Y2200000D01*
X-74349632Y2206878D01*
X-74351889Y2211103D01*
X-74509251Y2543817D01*
X-74511088Y2548251D01*
X-74515749Y2561277D01*
X-74529604Y2600000D01*
X-56730804Y2600000D01*
X-56709719Y2466874D01*
X-56709719Y2466873D01*
X-56709718Y2466872D01*
X-56648533Y2346787D01*
X-56648528Y2346780D01*
X-56553221Y2251473D01*
X-56553216Y2251469D01*
X-56537888Y2243659D01*
X-56513532Y2215141D01*
X-56516475Y2177754D01*
X-56537888Y2156341D01*
X-56553216Y2148532D01*
X-56553221Y2148528D01*
X-56648528Y2053221D01*
X-56648533Y2053214D01*
X-56709718Y1933129D01*
X-56709719Y1933128D01*
X-56709719Y1933126D01*
X-56730804Y1800000D01*
X-56709719Y1666874D01*
X-56709719Y1666873D01*
X-56709718Y1666872D01*
X-56648533Y1546787D01*
X-56648528Y1546780D01*
X-56553221Y1451473D01*
X-56553216Y1451469D01*
X-56537888Y1443659D01*
X-56513532Y1415141D01*
X-56516475Y1377754D01*
X-56537888Y1356341D01*
X-56553216Y1348532D01*
X-56553221Y1348528D01*
X-56648528Y1253221D01*
X-56648533Y1253214D01*
X-56709718Y1133129D01*
X-56709719Y1133128D01*
X-56709719Y1133126D01*
X-56730804Y1000000D01*
X-56709719Y866874D01*
X-56709719Y866873D01*
X-56709718Y866872D01*
X-56648533Y746787D01*
X-56648528Y746780D01*
X-56553221Y651473D01*
X-56553214Y651468D01*
X-56473158Y610678D01*
X-56433126Y590281D01*
X-56300000Y569196D01*
X-56166874Y590281D01*
X-56053382Y648108D01*
X-56046787Y651468D01*
X-56046785Y651470D01*
X-56046780Y651472D01*
X-55951472Y746780D01*
X-55890281Y866874D01*
X-55869196Y1000000D01*
X-55890281Y1133126D01*
X-55910678Y1173158D01*
X-55951468Y1253214D01*
X-55951473Y1253221D01*
X-56046780Y1348528D01*
X-56046783Y1348530D01*
X-56062112Y1356340D01*
X-56086469Y1384858D01*
X-56083527Y1422245D01*
X-56062112Y1443660D01*
X-56046780Y1451472D01*
X-55951472Y1546780D01*
X-55890281Y1666874D01*
X-55869196Y1800000D01*
X-55890281Y1933126D01*
X-55910678Y1973158D01*
X-55951468Y2053214D01*
X-55951473Y2053221D01*
X-56046780Y2148528D01*
X-56046783Y2148530D01*
X-56062112Y2156340D01*
X-56086469Y2184858D01*
X-56083527Y2222245D01*
X-56062112Y2243660D01*
X-56046780Y2251472D01*
X-55951472Y2346780D01*
X-55890281Y2466874D01*
X-55869196Y2600000D01*
X-55890281Y2733126D01*
X-55919404Y2790283D01*
X-55951468Y2853214D01*
X-55951474Y2853222D01*
X-56046780Y2948528D01*
X-56046787Y2948533D01*
X-56166872Y3009718D01*
X-56166873Y3009719D01*
X-56166874Y3009719D01*
X-56300000Y3030804D01*
X-56433126Y3009719D01*
X-56433128Y3009719D01*
X-56433129Y3009718D01*
X-56553214Y2948533D01*
X-56553221Y2948528D01*
X-56648526Y2853222D01*
X-56648533Y2853214D01*
X-56709718Y2733129D01*
X-56709719Y2733128D01*
X-56709719Y2733126D01*
X-56730804Y2600000D01*
X-74529604Y2600000D01*
X-74619582Y2851472D01*
X-74635084Y2894797D01*
X-74636480Y2899399D01*
X-74652428Y2963065D01*
X-74725913Y3256433D01*
X-74726846Y3261123D01*
X-74780854Y3625219D01*
X-74781322Y3629980D01*
X-74799441Y3998800D01*
X-74799500Y4001204D01*
X-74799500Y4071652D01*
X-60327500Y4071652D01*
X-60327500Y3928348D01*
X-60308948Y3835077D01*
X-60299544Y3787799D01*
X-60299542Y3787793D01*
X-60253280Y3676107D01*
X-60244702Y3655400D01*
X-60165086Y3536246D01*
X-60063754Y3434914D01*
X-59944600Y3355298D01*
X-59812204Y3300457D01*
X-59671652Y3272500D01*
X-59671649Y3272500D01*
X-59528351Y3272500D01*
X-59528348Y3272500D01*
X-59387796Y3300457D01*
X-59255400Y3355298D01*
X-59136246Y3434914D01*
X-59034914Y3536246D01*
X-58955298Y3655400D01*
X-58900457Y3787796D01*
X-58872500Y3928348D01*
X-58872500Y4071652D01*
X-58900457Y4212204D01*
X-58955298Y4344600D01*
X-59034914Y4463754D01*
X-59136246Y4565086D01*
X-59255400Y4644702D01*
X-59255403Y4644704D01*
X-59255404Y4644704D01*
X-59387793Y4699542D01*
X-59387799Y4699544D01*
X-59444480Y4710818D01*
X-59528348Y4727500D01*
X-59671652Y4727500D01*
X-59741606Y4713586D01*
X-59812202Y4699544D01*
X-59812208Y4699542D01*
X-59944597Y4644704D01*
X-60063754Y4565087D01*
X-60165087Y4463754D01*
X-60244704Y4344597D01*
X-60299542Y4212208D01*
X-60299544Y4212202D01*
X-60313586Y4141606D01*
X-60327500Y4071652D01*
X-74799500Y4071652D01*
X-74799500Y4850000D01*
X-66480804Y4850000D01*
X-66459719Y4716874D01*
X-66459719Y4716873D01*
X-66459718Y4716872D01*
X-66398533Y4596787D01*
X-66398528Y4596780D01*
X-66303221Y4501473D01*
X-66303214Y4501468D01*
X-66229194Y4463754D01*
X-66183126Y4440281D01*
X-66050000Y4419196D01*
X-65916874Y4440281D01*
X-65816247Y4491553D01*
X-65796787Y4501468D01*
X-65796785Y4501470D01*
X-65796780Y4501472D01*
X-65701472Y4596780D01*
X-65640281Y4716874D01*
X-65619196Y4850000D01*
X-62580804Y4850000D01*
X-62559719Y4716874D01*
X-62559719Y4716873D01*
X-62559718Y4716872D01*
X-62498533Y4596787D01*
X-62498528Y4596780D01*
X-62403221Y4501473D01*
X-62403214Y4501468D01*
X-62329194Y4463754D01*
X-62283126Y4440281D01*
X-62150000Y4419196D01*
X-62016874Y4440281D01*
X-61916247Y4491553D01*
X-61896787Y4501468D01*
X-61896785Y4501470D01*
X-61896780Y4501472D01*
X-61801472Y4596780D01*
X-61740281Y4716874D01*
X-61719196Y4850000D01*
X-61740281Y4983126D01*
X-61775105Y5051472D01*
X-61801468Y5103214D01*
X-61801473Y5103221D01*
X-61896780Y5198528D01*
X-61896787Y5198533D01*
X-62016872Y5259718D01*
X-62016873Y5259719D01*
X-62016874Y5259719D01*
X-62150000Y5280804D01*
X-62283126Y5259719D01*
X-62283128Y5259719D01*
X-62283129Y5259718D01*
X-62403214Y5198533D01*
X-62403221Y5198528D01*
X-62498528Y5103221D01*
X-62498533Y5103214D01*
X-62559718Y4983129D01*
X-62559719Y4983128D01*
X-62559719Y4983126D01*
X-62580804Y4850000D01*
X-65619196Y4850000D01*
X-65640281Y4983126D01*
X-65675105Y5051472D01*
X-65701468Y5103214D01*
X-65701473Y5103221D01*
X-65796780Y5198528D01*
X-65796787Y5198533D01*
X-65916872Y5259718D01*
X-65916873Y5259719D01*
X-65916874Y5259719D01*
X-66050000Y5280804D01*
X-66183126Y5259719D01*
X-66183128Y5259719D01*
X-66183129Y5259718D01*
X-66303214Y5198533D01*
X-66303221Y5198528D01*
X-66398528Y5103221D01*
X-66398533Y5103214D01*
X-66459718Y4983129D01*
X-66459719Y4983128D01*
X-66459719Y4983126D01*
X-66480804Y4850000D01*
X-74799500Y4850000D01*
X-74799500Y10966606D01*
X-73667500Y10966606D01*
X-73667500Y10773394D01*
X-73664305Y10753221D01*
X-73637276Y10582563D01*
X-73637275Y10582560D01*
X-73594734Y10451630D01*
X-73577569Y10398803D01*
X-73555780Y10356040D01*
X-73489851Y10226648D01*
X-73489849Y10226645D01*
X-73376284Y10070336D01*
X-73376280Y10070331D01*
X-73239669Y9933720D01*
X-73239665Y9933717D01*
X-73239663Y9933715D01*
X-73155136Y9872303D01*
X-73085911Y9822008D01*
X-73083350Y9820148D01*
X-72911197Y9732431D01*
X-72727440Y9672725D01*
X-72536606Y9642500D01*
X-72536605Y9642500D01*
X-72343395Y9642500D01*
X-72343394Y9642500D01*
X-72152560Y9672725D01*
X-71968803Y9732431D01*
X-71796650Y9820148D01*
X-71640337Y9933715D01*
X-71640334Y9933719D01*
X-71640331Y9933720D01*
X-71503720Y10070331D01*
X-71503719Y10070334D01*
X-71503715Y10070337D01*
X-71390148Y10226650D01*
X-71302431Y10398803D01*
X-71269550Y10500000D01*
X-67630804Y10500000D01*
X-67609719Y10366874D01*
X-67609719Y10366873D01*
X-67609718Y10366872D01*
X-67548533Y10246787D01*
X-67548528Y10246780D01*
X-67453221Y10151473D01*
X-67453214Y10151468D01*
X-67373158Y10110678D01*
X-67333126Y10090281D01*
X-67200000Y10069196D01*
X-67066874Y10090281D01*
X-66983580Y10132722D01*
X-66946787Y10151468D01*
X-66946785Y10151470D01*
X-66946780Y10151472D01*
X-66851472Y10246780D01*
X-66840560Y10268195D01*
X-66826733Y10295333D01*
X-66790281Y10366874D01*
X-66769196Y10500000D01*
X-66790281Y10633126D01*
X-66810738Y10673276D01*
X-66851468Y10753214D01*
X-66851473Y10753221D01*
X-66946780Y10848528D01*
X-66946787Y10848533D01*
X-67066872Y10909718D01*
X-67066873Y10909719D01*
X-67066874Y10909719D01*
X-67200000Y10930804D01*
X-67333126Y10909719D01*
X-67333128Y10909719D01*
X-67333129Y10909718D01*
X-67453214Y10848533D01*
X-67453221Y10848528D01*
X-67548528Y10753221D01*
X-67548533Y10753214D01*
X-67609718Y10633129D01*
X-67609719Y10633128D01*
X-67609719Y10633126D01*
X-67630804Y10500000D01*
X-71269550Y10500000D01*
X-71242725Y10582560D01*
X-71212500Y10773394D01*
X-71212500Y10966606D01*
X-71242725Y11157440D01*
X-71302431Y11341197D01*
X-71390148Y11513350D01*
X-71401813Y11529405D01*
X-71456707Y11604961D01*
X-71503715Y11669663D01*
X-71503717Y11669665D01*
X-71503720Y11669669D01*
X-71640331Y11806280D01*
X-71640336Y11806284D01*
X-71653990Y11816204D01*
X-71689481Y11841990D01*
X-71796645Y11919849D01*
X-71796648Y11919851D01*
X-71929759Y11987675D01*
X-71968803Y12007569D01*
X-71968804Y12007570D01*
X-71968805Y12007570D01*
X-72152560Y12067275D01*
X-72152563Y12067276D01*
X-72299158Y12090494D01*
X-72343394Y12097500D01*
X-72536606Y12097500D01*
X-72572518Y12091813D01*
X-72727438Y12067276D01*
X-72727441Y12067275D01*
X-72911196Y12007570D01*
X-73083353Y11919851D01*
X-73083356Y11919849D01*
X-73239665Y11806284D01*
X-73376284Y11669665D01*
X-73489849Y11513356D01*
X-73489851Y11513353D01*
X-73577570Y11341196D01*
X-73637275Y11157441D01*
X-73637276Y11157438D01*
X-73664440Y10985928D01*
X-73667500Y10966606D01*
X-74799500Y10966606D01*
X-74799500Y12200000D01*
X-71030322Y12200000D01*
X-71011077Y11992308D01*
X-71011077Y11992305D01*
X-71011076Y11992304D01*
X-70960971Y11816204D01*
X-70953994Y11791681D01*
X-70861021Y11604965D01*
X-70861020Y11604963D01*
X-70861019Y11604962D01*
X-70851798Y11592751D01*
X-70735321Y11438510D01*
X-70735318Y11438507D01*
X-70581176Y11297988D01*
X-70581175Y11297987D01*
X-70581171Y11297984D01*
X-70403828Y11188177D01*
X-70209327Y11112827D01*
X-70004293Y11074500D01*
X-70004291Y11074500D01*
X-69795709Y11074500D01*
X-69795707Y11074500D01*
X-69590673Y11112827D01*
X-69396172Y11188177D01*
X-69218829Y11297984D01*
X-69064682Y11438507D01*
X-68938981Y11604962D01*
X-68846006Y11791681D01*
X-68788924Y11992304D01*
X-68769678Y12200000D01*
X-68788924Y12407696D01*
X-68846006Y12608319D01*
X-68938981Y12795038D01*
X-69048797Y12940458D01*
X-69064680Y12961491D01*
X-69064683Y12961494D01*
X-69218825Y13102013D01*
X-69218828Y13102015D01*
X-69218829Y13102016D01*
X-69396172Y13211823D01*
X-69396175Y13211824D01*
X-69396176Y13211825D01*
X-69590667Y13287171D01*
X-69590669Y13287172D01*
X-69590673Y13287173D01*
X-69795707Y13325500D01*
X-70004293Y13325500D01*
X-70209327Y13287173D01*
X-70209331Y13287172D01*
X-70209334Y13287171D01*
X-70403825Y13211825D01*
X-70581176Y13102013D01*
X-70735318Y12961494D01*
X-70735321Y12961491D01*
X-70861018Y12795040D01*
X-70861021Y12795036D01*
X-70953994Y12608320D01*
X-71011077Y12407693D01*
X-71030322Y12200000D01*
X-74799500Y12200000D01*
X-74799500Y16010000D01*
X-73570322Y16010000D01*
X-73551077Y15802308D01*
X-73551077Y15802305D01*
X-73551076Y15802304D01*
X-73536713Y15751823D01*
X-73493994Y15601681D01*
X-73401021Y15414965D01*
X-73401020Y15414963D01*
X-73401019Y15414962D01*
X-73390729Y15401336D01*
X-73275321Y15248510D01*
X-73275318Y15248507D01*
X-73121176Y15107988D01*
X-73121175Y15107987D01*
X-73121171Y15107984D01*
X-72943828Y14998177D01*
X-72749327Y14922827D01*
X-72544293Y14884500D01*
X-72544291Y14884500D01*
X-72335709Y14884500D01*
X-72335707Y14884500D01*
X-72130673Y14922827D01*
X-71936172Y14998177D01*
X-71758829Y15107984D01*
X-71604682Y15248507D01*
X-71478981Y15414962D01*
X-71386006Y15601681D01*
X-71328924Y15802304D01*
X-71309678Y16010000D01*
X-71328924Y16217696D01*
X-71386006Y16418319D01*
X-71478981Y16605038D01*
X-71575742Y16733170D01*
X-71604680Y16771491D01*
X-71604683Y16771494D01*
X-71758825Y16912013D01*
X-71758828Y16912015D01*
X-71758829Y16912016D01*
X-71936172Y17021823D01*
X-71936175Y17021824D01*
X-71936176Y17021825D01*
X-72130667Y17097171D01*
X-72130669Y17097172D01*
X-72130673Y17097173D01*
X-72335707Y17135500D01*
X-72544293Y17135500D01*
X-72749327Y17097173D01*
X-72749331Y17097172D01*
X-72749334Y17097171D01*
X-72943825Y17021825D01*
X-73121176Y16912013D01*
X-73275318Y16771494D01*
X-73275321Y16771491D01*
X-73401018Y16605040D01*
X-73401021Y16605036D01*
X-73493994Y16418320D01*
X-73551077Y16217693D01*
X-73570322Y16010000D01*
X-74799500Y16010000D01*
X-74799500Y17452347D01*
X-71327500Y17452347D01*
X-71327500Y17227654D01*
X-71292351Y17005729D01*
X-71292350Y17005726D01*
X-71226309Y16802471D01*
X-71222916Y16792030D01*
X-71120907Y16591827D01*
X-70994578Y16417949D01*
X-70988835Y16410045D01*
X-70988831Y16410040D01*
X-70829960Y16251169D01*
X-70829956Y16251166D01*
X-70829954Y16251164D01*
X-70648173Y16119093D01*
X-70447970Y16017084D01*
X-70234274Y15947650D01*
X-70167664Y15937100D01*
X-70152240Y15934657D01*
X-70120263Y15915062D01*
X-70111508Y15878595D01*
X-70131103Y15846618D01*
X-70150899Y15838096D01*
X-70209327Y15827173D01*
X-70209331Y15827172D01*
X-70209334Y15827171D01*
X-70403825Y15751825D01*
X-70581176Y15642013D01*
X-70735318Y15501494D01*
X-70735321Y15501491D01*
X-70861018Y15335040D01*
X-70861021Y15335036D01*
X-70953994Y15148320D01*
X-71011077Y14947693D01*
X-71030322Y14740000D01*
X-71011077Y14532308D01*
X-71011077Y14532305D01*
X-71011076Y14532304D01*
X-70991628Y14463952D01*
X-70953994Y14331681D01*
X-70861021Y14144965D01*
X-70861020Y14144963D01*
X-70861019Y14144962D01*
X-70835451Y14111105D01*
X-70735321Y13978510D01*
X-70735318Y13978507D01*
X-70581176Y13837988D01*
X-70581175Y13837987D01*
X-70581171Y13837984D01*
X-70403828Y13728177D01*
X-70209327Y13652827D01*
X-70004293Y13614500D01*
X-70004291Y13614500D01*
X-69795709Y13614500D01*
X-69795707Y13614500D01*
X-69590673Y13652827D01*
X-69396172Y13728177D01*
X-69218829Y13837984D01*
X-69064682Y13978507D01*
X-68938981Y14144962D01*
X-68846006Y14331681D01*
X-68788924Y14532304D01*
X-68769678Y14740000D01*
X-68770605Y14750000D01*
X-67630804Y14750000D01*
X-67609719Y14616874D01*
X-67609719Y14616873D01*
X-67609718Y14616872D01*
X-67548533Y14496787D01*
X-67548528Y14496780D01*
X-67453221Y14401473D01*
X-67453214Y14401468D01*
X-67373158Y14360678D01*
X-67333126Y14340281D01*
X-67208793Y14320589D01*
X-67181812Y14306841D01*
X-65359119Y12484148D01*
X-65344767Y12449500D01*
X-65359119Y12414852D01*
X-65393767Y12400500D01*
X-66828455Y12400500D01*
X-66863103Y12414852D01*
X-66946779Y12498527D01*
X-66946787Y12498533D01*
X-67066872Y12559718D01*
X-67066873Y12559719D01*
X-67066874Y12559719D01*
X-67200000Y12580804D01*
X-67333126Y12559719D01*
X-67333128Y12559719D01*
X-67333129Y12559718D01*
X-67453214Y12498533D01*
X-67453221Y12498528D01*
X-67548528Y12403221D01*
X-67548533Y12403214D01*
X-67609718Y12283129D01*
X-67609719Y12283128D01*
X-67609719Y12283126D01*
X-67630804Y12150000D01*
X-67609719Y12016874D01*
X-67609719Y12016873D01*
X-67609718Y12016872D01*
X-67548533Y11896787D01*
X-67548528Y11896780D01*
X-67453221Y11801473D01*
X-67453214Y11801468D01*
X-67394509Y11771557D01*
X-67333126Y11740281D01*
X-67200000Y11719196D01*
X-67066874Y11740281D01*
X-66978817Y11785148D01*
X-66961131Y11794159D01*
X-66938886Y11799500D01*
X-64344767Y11799500D01*
X-64310119Y11785148D01*
X-63314852Y10789881D01*
X-63300500Y10755233D01*
X-63300500Y8821544D01*
X-63314852Y8786896D01*
X-63348528Y8753221D01*
X-63348533Y8753214D01*
X-63409718Y8633129D01*
X-63409719Y8633128D01*
X-63409719Y8633126D01*
X-63430804Y8500000D01*
X-63409719Y8366874D01*
X-63409719Y8366873D01*
X-63409718Y8366872D01*
X-63348533Y8246787D01*
X-63348528Y8246780D01*
X-63253221Y8151473D01*
X-63253214Y8151468D01*
X-63199706Y8124205D01*
X-63133126Y8090281D01*
X-63000000Y8069196D01*
X-62866874Y8090281D01*
X-62866870Y8090284D01*
X-62865576Y8090488D01*
X-62829109Y8081733D01*
X-62809513Y8049757D01*
X-62809513Y8034426D01*
X-62830247Y7903514D01*
X-62830804Y7900000D01*
X-62809719Y7766874D01*
X-62809719Y7766873D01*
X-62809718Y7766872D01*
X-62748533Y7646787D01*
X-62748528Y7646780D01*
X-62653221Y7551473D01*
X-62653214Y7551468D01*
X-62594197Y7521398D01*
X-62533126Y7490281D01*
X-62400000Y7469196D01*
X-62266874Y7490281D01*
X-62177634Y7535751D01*
X-62146787Y7551468D01*
X-62146785Y7551470D01*
X-62146780Y7551472D01*
X-62051472Y7646780D01*
X-62047661Y7654258D01*
X-62022967Y7702724D01*
X-61990281Y7766874D01*
X-61969196Y7900000D01*
X-61990281Y8033126D01*
X-62010678Y8073158D01*
X-62051468Y8153214D01*
X-62051474Y8153222D01*
X-62085148Y8186896D01*
X-62099500Y8221544D01*
X-62099500Y11239564D01*
X-62108157Y11271866D01*
X-62119979Y11315989D01*
X-62119980Y11315991D01*
X-62119980Y11315992D01*
X-62145061Y11359432D01*
X-62159540Y11384511D01*
X-62215489Y11440460D01*
X-63715489Y12940460D01*
X-63715491Y12940461D01*
X-63715493Y12940463D01*
X-63727193Y12947217D01*
X-63734353Y12951351D01*
X-63784009Y12980021D01*
X-63784013Y12980022D01*
X-63860436Y13000500D01*
X-63860438Y13000500D01*
X-65005233Y13000500D01*
X-65039881Y13014852D01*
X-66756841Y14731812D01*
X-66770589Y14758793D01*
X-66790281Y14883126D01*
X-66816508Y14934600D01*
X-66851468Y15003214D01*
X-66851473Y15003221D01*
X-66946780Y15098528D01*
X-66946787Y15098533D01*
X-67066872Y15159718D01*
X-67066873Y15159719D01*
X-67066874Y15159719D01*
X-67200000Y15180804D01*
X-67333126Y15159719D01*
X-67333128Y15159719D01*
X-67333129Y15159718D01*
X-67453214Y15098533D01*
X-67453221Y15098528D01*
X-67548528Y15003221D01*
X-67548533Y15003214D01*
X-67609718Y14883129D01*
X-67609719Y14883128D01*
X-67609719Y14883126D01*
X-67630804Y14750000D01*
X-68770605Y14750000D01*
X-68788924Y14947696D01*
X-68846006Y15148319D01*
X-68938981Y15335038D01*
X-69021623Y15444474D01*
X-69064680Y15501491D01*
X-69064683Y15501494D01*
X-69218825Y15642013D01*
X-69218828Y15642015D01*
X-69218829Y15642016D01*
X-69396172Y15751823D01*
X-69396175Y15751824D01*
X-69396176Y15751825D01*
X-69590667Y15827171D01*
X-69590669Y15827172D01*
X-69590673Y15827173D01*
X-69649102Y15838096D01*
X-69680521Y15858568D01*
X-69688262Y15895264D01*
X-69667788Y15926685D01*
X-69647762Y15934657D01*
X-69565726Y15947650D01*
X-69352030Y16017084D01*
X-69151827Y16119093D01*
X-68970046Y16251164D01*
X-68970043Y16251168D01*
X-68970040Y16251169D01*
X-68811169Y16410040D01*
X-68811168Y16410043D01*
X-68811164Y16410046D01*
X-68745809Y16500000D01*
X-67630804Y16500000D01*
X-67609719Y16366874D01*
X-67609719Y16366873D01*
X-67609718Y16366872D01*
X-67548533Y16246787D01*
X-67548528Y16246780D01*
X-67453221Y16151473D01*
X-67453214Y16151468D01*
X-67399592Y16124147D01*
X-67333126Y16090281D01*
X-67200000Y16069196D01*
X-67066874Y16090281D01*
X-66983580Y16132722D01*
X-66946787Y16151468D01*
X-66946785Y16151470D01*
X-66946780Y16151472D01*
X-66851472Y16246780D01*
X-66849235Y16251169D01*
X-66832722Y16283580D01*
X-66790281Y16366874D01*
X-66769196Y16500000D01*
X-66790281Y16633126D01*
X-66841253Y16733165D01*
X-66851468Y16753214D01*
X-66851473Y16753221D01*
X-66946780Y16848528D01*
X-66946787Y16848533D01*
X-67066872Y16909718D01*
X-67066873Y16909719D01*
X-67066874Y16909719D01*
X-67200000Y16930804D01*
X-67333126Y16909719D01*
X-67333128Y16909719D01*
X-67333129Y16909718D01*
X-67453214Y16848533D01*
X-67453221Y16848528D01*
X-67548528Y16753221D01*
X-67548533Y16753214D01*
X-67609718Y16633129D01*
X-67609719Y16633128D01*
X-67609719Y16633126D01*
X-67630804Y16500000D01*
X-68745809Y16500000D01*
X-68679093Y16591827D01*
X-68577084Y16792030D01*
X-68507650Y17005726D01*
X-68472500Y17227653D01*
X-68472500Y17452347D01*
X-68507650Y17674274D01*
X-68577084Y17887970D01*
X-68679093Y18088173D01*
X-68811164Y18269954D01*
X-68811166Y18269956D01*
X-68811169Y18269960D01*
X-68970040Y18428831D01*
X-68970045Y18428835D01*
X-69002427Y18452362D01*
X-69151827Y18560907D01*
X-69352030Y18662916D01*
X-69352031Y18662917D01*
X-69352032Y18662917D01*
X-69565726Y18732350D01*
X-69565729Y18732351D01*
X-69736208Y18759352D01*
X-69787653Y18767500D01*
X-70012347Y18767500D01*
X-70054111Y18760886D01*
X-70234272Y18732351D01*
X-70234275Y18732350D01*
X-70447969Y18662917D01*
X-70648173Y18560907D01*
X-70829956Y18428835D01*
X-70988835Y18269956D01*
X-71120907Y18088173D01*
X-71222917Y17887969D01*
X-71292350Y17674275D01*
X-71292351Y17674272D01*
X-71327500Y17452347D01*
X-74799500Y17452347D01*
X-74799500Y25900000D01*
X-66675471Y25900000D01*
X-66655620Y25660437D01*
X-66613991Y25496044D01*
X-66596609Y25427407D01*
X-66500051Y25207275D01*
X-66500049Y25207272D01*
X-66368571Y25006031D01*
X-66293765Y24924770D01*
X-66205762Y24829173D01*
X-66053326Y24710528D01*
X-66016067Y24681528D01*
X-66016063Y24681526D01*
X-66016058Y24681523D01*
X-66000484Y24673094D01*
X-65976842Y24643981D01*
X-65980711Y24606679D01*
X-66000484Y24586906D01*
X-66016058Y24578478D01*
X-66016072Y24578469D01*
X-66205762Y24430828D01*
X-66368573Y24253967D01*
X-66500047Y24052732D01*
X-66500051Y24052726D01*
X-66596609Y23832594D01*
X-66655620Y23599564D01*
X-66658407Y23565935D01*
X-66675471Y23360000D01*
X-66655620Y23120437D01*
X-66596610Y22887409D01*
X-66594867Y22883435D01*
X-66500051Y22667275D01*
X-66500049Y22667272D01*
X-66368571Y22466031D01*
X-66223171Y22308084D01*
X-66205762Y22289173D01*
X-66205758Y22289170D01*
X-66016067Y22141528D01*
X-66016060Y22141524D01*
X-66016058Y22141523D01*
X-65804664Y22027122D01*
X-65804662Y22027122D01*
X-65804656Y22027118D01*
X-65577297Y21949066D01*
X-65340192Y21909500D01*
X-65340189Y21909500D01*
X-65099811Y21909500D01*
X-65099808Y21909500D01*
X-64862703Y21949066D01*
X-64635344Y22027118D01*
X-64423933Y22141528D01*
X-64234236Y22289175D01*
X-64218175Y22306622D01*
X-64184150Y22322394D01*
X-64148938Y22309487D01*
X-64147476Y22308084D01*
X-50708831Y8869439D01*
X-50694479Y8834791D01*
X-50695420Y8825234D01*
X-50701126Y8796543D01*
X-50701116Y8631152D01*
X-50701115Y8631150D01*
X-50668830Y8468934D01*
X-50605511Y8316143D01*
X-50519111Y8186896D01*
X-50513592Y8178641D01*
X-50459137Y8124213D01*
X-50459141Y8124210D01*
X-50459129Y8124205D01*
X-50333368Y7998444D01*
X-50333347Y7998421D01*
X-50315579Y7980655D01*
X-50315577Y7980653D01*
X-50230357Y7895432D01*
X-50230332Y7895410D01*
X-50220262Y7885340D01*
X-50082774Y7793475D01*
X-49930006Y7730197D01*
X-49767828Y7697939D01*
X-49767825Y7697939D01*
X-49602474Y7697939D01*
X-49573827Y7703638D01*
X-49537047Y7696323D01*
X-49529620Y7690228D01*
X-49523435Y7684043D01*
X-49425492Y7618600D01*
X-49424427Y7617889D01*
X-49424427Y7617888D01*
X-49414637Y7611347D01*
X-49333037Y7577548D01*
X-49293755Y7561277D01*
X-49293749Y7561276D01*
X-49293746Y7561275D01*
X-49165429Y7535751D01*
X-49165423Y7535750D01*
X-49034577Y7535750D01*
X-48495438Y7535750D01*
X-48460790Y7521398D01*
X-48178602Y7239211D01*
X-48164250Y7204563D01*
X-48164250Y3134572D01*
X-48138726Y3006255D01*
X-48138723Y3006245D01*
X-48088651Y2885360D01*
X-48015957Y2776565D01*
X-47923435Y2684043D01*
X-47814640Y2611349D01*
X-47693755Y2561277D01*
X-47693749Y2561276D01*
X-47693746Y2561275D01*
X-47565429Y2535751D01*
X-47565423Y2535750D01*
X-47434577Y2535750D01*
X-47306245Y2561277D01*
X-47185360Y2611349D01*
X-47076565Y2684043D01*
X-46984043Y2776565D01*
X-46911349Y2885360D01*
X-46861277Y3006245D01*
X-46835750Y3134577D01*
X-46835750Y7389981D01*
X-46821398Y7424629D01*
X-46796309Y7438039D01*
X-46782049Y7440875D01*
X-46779283Y7442022D01*
X-46741782Y7442029D01*
X-46725876Y7431403D01*
X-46578602Y7284129D01*
X-46564250Y7249481D01*
X-46564250Y3134572D01*
X-46538726Y3006255D01*
X-46538723Y3006245D01*
X-46488651Y2885360D01*
X-46415957Y2776565D01*
X-46323435Y2684043D01*
X-46214640Y2611349D01*
X-46093755Y2561277D01*
X-46093749Y2561276D01*
X-46093746Y2561275D01*
X-45965429Y2535751D01*
X-45965423Y2535750D01*
X-45834577Y2535750D01*
X-45706245Y2561277D01*
X-45585360Y2611349D01*
X-45527222Y2650197D01*
X-45490441Y2657513D01*
X-45472781Y2650198D01*
X-45414640Y2611349D01*
X-45293755Y2561277D01*
X-45293749Y2561276D01*
X-45293746Y2561275D01*
X-45165429Y2535751D01*
X-45165423Y2535750D01*
X-45034577Y2535750D01*
X-44906245Y2561277D01*
X-44785360Y2611349D01*
X-44676565Y2684043D01*
X-44584043Y2776565D01*
X-44511349Y2885360D01*
X-44461277Y3006245D01*
X-44435750Y3134577D01*
X-44435750Y7451000D01*
X-44421398Y7485648D01*
X-44386750Y7500000D01*
X-44213250Y7500000D01*
X-44178602Y7485648D01*
X-44164250Y7451000D01*
X-44164250Y3134572D01*
X-44138726Y3006255D01*
X-44138723Y3006245D01*
X-44088651Y2885360D01*
X-44015957Y2776565D01*
X-43923435Y2684043D01*
X-43814640Y2611349D01*
X-43693755Y2561277D01*
X-43693749Y2561276D01*
X-43693746Y2561275D01*
X-43565429Y2535751D01*
X-43565423Y2535750D01*
X-43434577Y2535750D01*
X-43306245Y2561277D01*
X-43185360Y2611349D01*
X-43127222Y2650197D01*
X-43090441Y2657513D01*
X-43072781Y2650198D01*
X-43014640Y2611349D01*
X-42893755Y2561277D01*
X-42893749Y2561276D01*
X-42893746Y2561275D01*
X-42765429Y2535751D01*
X-42765423Y2535750D01*
X-42634577Y2535750D01*
X-42506245Y2561277D01*
X-42385360Y2611349D01*
X-42276565Y2684043D01*
X-42184043Y2776565D01*
X-42111349Y2885360D01*
X-42061277Y3006245D01*
X-42035750Y3134577D01*
X-42035750Y7451000D01*
X-42021398Y7485648D01*
X-41986750Y7500000D01*
X-41813250Y7500000D01*
X-41778602Y7485648D01*
X-41764250Y7451000D01*
X-41764250Y3134572D01*
X-41738726Y3006255D01*
X-41738723Y3006245D01*
X-41688651Y2885360D01*
X-41615957Y2776565D01*
X-41523435Y2684043D01*
X-41414640Y2611349D01*
X-41293755Y2561277D01*
X-41293749Y2561276D01*
X-41293746Y2561275D01*
X-41165429Y2535751D01*
X-41165423Y2535750D01*
X-41034577Y2535750D01*
X-40906245Y2561277D01*
X-40785360Y2611349D01*
X-40727222Y2650197D01*
X-40690441Y2657513D01*
X-40672781Y2650198D01*
X-40614640Y2611349D01*
X-40493755Y2561277D01*
X-40493749Y2561276D01*
X-40493746Y2561275D01*
X-40365429Y2535751D01*
X-40365423Y2535750D01*
X-40234577Y2535750D01*
X-40106245Y2561277D01*
X-39985360Y2611349D01*
X-39876565Y2684043D01*
X-39784043Y2776565D01*
X-39711349Y2885360D01*
X-39661277Y3006245D01*
X-39635750Y3134577D01*
X-39635750Y7451000D01*
X-39621398Y7485648D01*
X-39586750Y7500000D01*
X-39413250Y7500000D01*
X-39378602Y7485648D01*
X-39364250Y7451000D01*
X-39364250Y3134572D01*
X-39338726Y3006255D01*
X-39338723Y3006245D01*
X-39288651Y2885360D01*
X-39215957Y2776565D01*
X-39123435Y2684043D01*
X-39014640Y2611349D01*
X-38893755Y2561277D01*
X-38893749Y2561276D01*
X-38893746Y2561275D01*
X-38765429Y2535751D01*
X-38765423Y2535750D01*
X-38634577Y2535750D01*
X-38506245Y2561277D01*
X-38385360Y2611349D01*
X-38327222Y2650197D01*
X-38290441Y2657513D01*
X-38272781Y2650198D01*
X-38214640Y2611349D01*
X-38093755Y2561277D01*
X-38093749Y2561276D01*
X-38093746Y2561275D01*
X-37965429Y2535751D01*
X-37965423Y2535750D01*
X-37834577Y2535750D01*
X-37706245Y2561277D01*
X-37612759Y2600000D01*
X-35930804Y2600000D01*
X-35909719Y2466874D01*
X-35909719Y2466873D01*
X-35909718Y2466872D01*
X-35848533Y2346787D01*
X-35848528Y2346780D01*
X-35753221Y2251473D01*
X-35753216Y2251469D01*
X-35737888Y2243659D01*
X-35713532Y2215141D01*
X-35716475Y2177754D01*
X-35737888Y2156341D01*
X-35753216Y2148532D01*
X-35753221Y2148528D01*
X-35848528Y2053221D01*
X-35848533Y2053214D01*
X-35909718Y1933129D01*
X-35909719Y1933128D01*
X-35909719Y1933126D01*
X-35930804Y1800000D01*
X-35909719Y1666874D01*
X-35909719Y1666873D01*
X-35909718Y1666872D01*
X-35848533Y1546787D01*
X-35848528Y1546780D01*
X-35753221Y1451473D01*
X-35753216Y1451469D01*
X-35737888Y1443659D01*
X-35713532Y1415141D01*
X-35716475Y1377754D01*
X-35737888Y1356341D01*
X-35753216Y1348532D01*
X-35753221Y1348528D01*
X-35848528Y1253221D01*
X-35848533Y1253214D01*
X-35909718Y1133129D01*
X-35909719Y1133128D01*
X-35909719Y1133126D01*
X-35930804Y1000000D01*
X-35909719Y866874D01*
X-35909719Y866873D01*
X-35909718Y866872D01*
X-35848533Y746787D01*
X-35848528Y746780D01*
X-35753221Y651473D01*
X-35753214Y651468D01*
X-35673158Y610678D01*
X-35633126Y590281D01*
X-35500000Y569196D01*
X-35366874Y590281D01*
X-35253382Y648108D01*
X-35246787Y651468D01*
X-35246785Y651470D01*
X-35246780Y651472D01*
X-35151472Y746780D01*
X-35143660Y762113D01*
X-35115142Y786469D01*
X-35077755Y783527D01*
X-35056340Y762112D01*
X-35048530Y746783D01*
X-35048528Y746780D01*
X-34953221Y651473D01*
X-34953214Y651468D01*
X-34873158Y610678D01*
X-34833126Y590281D01*
X-34700000Y569196D01*
X-34566874Y590281D01*
X-34453382Y648108D01*
X-34446787Y651468D01*
X-34446785Y651470D01*
X-34446780Y651472D01*
X-34351472Y746780D01*
X-34290281Y866874D01*
X-34269196Y1000000D01*
X-34290281Y1133126D01*
X-34310678Y1173158D01*
X-34351468Y1253214D01*
X-34351473Y1253221D01*
X-34446780Y1348528D01*
X-34446783Y1348530D01*
X-34462112Y1356340D01*
X-34486469Y1384858D01*
X-34483527Y1422245D01*
X-34462112Y1443660D01*
X-34446780Y1451472D01*
X-34351472Y1546780D01*
X-34290281Y1666874D01*
X-34269196Y1800000D01*
X-34290281Y1933126D01*
X-34310678Y1973158D01*
X-34351468Y2053214D01*
X-34351473Y2053221D01*
X-34446780Y2148528D01*
X-34446783Y2148530D01*
X-34462112Y2156340D01*
X-34486469Y2184858D01*
X-34483527Y2222245D01*
X-34462112Y2243660D01*
X-34446780Y2251472D01*
X-34351472Y2346780D01*
X-34290281Y2466874D01*
X-34269196Y2600000D01*
X-34290281Y2733126D01*
X-34319404Y2790283D01*
X-34351468Y2853214D01*
X-34351474Y2853222D01*
X-34446780Y2948528D01*
X-34446787Y2948533D01*
X-34566872Y3009718D01*
X-34566873Y3009719D01*
X-34566874Y3009719D01*
X-34700000Y3030804D01*
X-34833126Y3009719D01*
X-34833128Y3009719D01*
X-34833129Y3009718D01*
X-34953214Y2948533D01*
X-34953221Y2948528D01*
X-35048526Y2853222D01*
X-35048532Y2853216D01*
X-35056341Y2837888D01*
X-35084859Y2813532D01*
X-35122246Y2816475D01*
X-35143659Y2837888D01*
X-35151469Y2853216D01*
X-35151474Y2853222D01*
X-35246780Y2948528D01*
X-35246787Y2948533D01*
X-35366872Y3009718D01*
X-35366873Y3009719D01*
X-35366874Y3009719D01*
X-35500000Y3030804D01*
X-35633126Y3009719D01*
X-35633128Y3009719D01*
X-35633129Y3009718D01*
X-35753214Y2948533D01*
X-35753221Y2948528D01*
X-35848526Y2853222D01*
X-35848533Y2853214D01*
X-35909718Y2733129D01*
X-35909719Y2733128D01*
X-35909719Y2733126D01*
X-35930804Y2600000D01*
X-37612759Y2600000D01*
X-37585360Y2611349D01*
X-37476565Y2684043D01*
X-37384043Y2776565D01*
X-37311349Y2885360D01*
X-37261277Y3006245D01*
X-37235750Y3134577D01*
X-37235750Y7451000D01*
X-37221398Y7485648D01*
X-37186750Y7500000D01*
X-36749500Y7500000D01*
X-36714852Y7485648D01*
X-36700500Y7451000D01*
X-36700500Y3362984D01*
X-36705839Y3340741D01*
X-36709719Y3333127D01*
X-36709719Y3333126D01*
X-36730804Y3200000D01*
X-36709719Y3066874D01*
X-36709719Y3066873D01*
X-36709718Y3066872D01*
X-36648533Y2946787D01*
X-36648528Y2946780D01*
X-36553221Y2851473D01*
X-36553214Y2851468D01*
X-36484535Y2816475D01*
X-36433126Y2790281D01*
X-36300000Y2769196D01*
X-36166874Y2790281D01*
X-36073440Y2837888D01*
X-36046787Y2851468D01*
X-36046785Y2851470D01*
X-36046780Y2851472D01*
X-35951472Y2946780D01*
X-35950578Y2948533D01*
X-35921168Y3006255D01*
X-35890281Y3066874D01*
X-35869196Y3200000D01*
X-35890281Y3333126D01*
X-35894162Y3340742D01*
X-35899500Y3362984D01*
X-35899500Y5079456D01*
X-35885148Y5114104D01*
X-35850500Y5128456D01*
X-35815852Y5114104D01*
X-35753221Y5051473D01*
X-35753214Y5051468D01*
X-35673158Y5010678D01*
X-35633126Y4990281D01*
X-35500000Y4969196D01*
X-35366874Y4990281D01*
X-35283580Y5032722D01*
X-35246787Y5051468D01*
X-35246785Y5051470D01*
X-35246780Y5051472D01*
X-35151472Y5146780D01*
X-35143660Y5162113D01*
X-35115142Y5186469D01*
X-35077755Y5183527D01*
X-35056340Y5162112D01*
X-35048530Y5146783D01*
X-35048528Y5146780D01*
X-34953221Y5051473D01*
X-34953214Y5051468D01*
X-34873158Y5010678D01*
X-34833126Y4990281D01*
X-34700000Y4969196D01*
X-34566874Y4990281D01*
X-34483580Y5032722D01*
X-34446787Y5051468D01*
X-34446785Y5051470D01*
X-34446780Y5051472D01*
X-34351472Y5146780D01*
X-34290281Y5266874D01*
X-34269196Y5400000D01*
X-34290281Y5533126D01*
X-34310678Y5573158D01*
X-34351468Y5653214D01*
X-34351473Y5653221D01*
X-34446780Y5748528D01*
X-34446783Y5748530D01*
X-34462112Y5756340D01*
X-34486469Y5784858D01*
X-34483527Y5822245D01*
X-34462112Y5843660D01*
X-34446780Y5851472D01*
X-34351472Y5946780D01*
X-34290281Y6066874D01*
X-34269196Y6200000D01*
X-34290281Y6333126D01*
X-34310678Y6373158D01*
X-34351468Y6453214D01*
X-34351473Y6453221D01*
X-34446780Y6548528D01*
X-34446783Y6548530D01*
X-34462112Y6556340D01*
X-34486469Y6584858D01*
X-34483527Y6622245D01*
X-34462112Y6643660D01*
X-34446780Y6651472D01*
X-34351472Y6746780D01*
X-34290281Y6866874D01*
X-34269196Y7000000D01*
X-34290281Y7133126D01*
X-34326680Y7204563D01*
X-34351468Y7253214D01*
X-34351473Y7253221D01*
X-34446780Y7348528D01*
X-34446787Y7348533D01*
X-34566872Y7409718D01*
X-34566873Y7409719D01*
X-34566874Y7409719D01*
X-34700000Y7430804D01*
X-34833126Y7409719D01*
X-34833128Y7409719D01*
X-34833129Y7409718D01*
X-34953214Y7348533D01*
X-34953221Y7348528D01*
X-35048528Y7253221D01*
X-35048532Y7253216D01*
X-35056341Y7237888D01*
X-35084859Y7213532D01*
X-35122246Y7216475D01*
X-35143659Y7237888D01*
X-35151469Y7253216D01*
X-35151473Y7253221D01*
X-35246780Y7348528D01*
X-35246787Y7348533D01*
X-35366872Y7409718D01*
X-35366873Y7409719D01*
X-35366874Y7409719D01*
X-35500000Y7430804D01*
X-35633126Y7409719D01*
X-35633128Y7409719D01*
X-35633129Y7409718D01*
X-35753214Y7348533D01*
X-35753221Y7348528D01*
X-35815852Y7285896D01*
X-35850500Y7271544D01*
X-35885148Y7285896D01*
X-35899500Y7320544D01*
X-35899500Y13300229D01*
X-34348550Y13300229D01*
X-34348550Y13190928D01*
X-34348549Y13190927D01*
X-34340540Y13150670D01*
X-34316730Y13030984D01*
X-34313789Y13016204D01*
X-34245610Y12851630D01*
X-34189177Y12767185D01*
X-34181858Y12730403D01*
X-34189177Y12712733D01*
X-34245569Y12628350D01*
X-34313743Y12463786D01*
X-34313746Y12463776D01*
X-34348502Y12289070D01*
X-34348503Y12289067D01*
X-34348503Y12100344D01*
X-34348550Y12100229D01*
X-34348550Y11990928D01*
X-34348549Y11990927D01*
X-34341009Y11953027D01*
X-34317416Y11834432D01*
X-34313789Y11816204D01*
X-34245610Y11651630D01*
X-34245609Y11651628D01*
X-34240598Y11644130D01*
X-34189177Y11567185D01*
X-34181858Y11530403D01*
X-34189177Y11512733D01*
X-34245569Y11428350D01*
X-34313743Y11263786D01*
X-34313746Y11263776D01*
X-34348502Y11089070D01*
X-34348503Y11089067D01*
X-34348503Y10900344D01*
X-34348550Y10900229D01*
X-34348550Y10790928D01*
X-34348549Y10790927D01*
X-34322144Y10658198D01*
X-34313789Y10616204D01*
X-34245610Y10451630D01*
X-34189177Y10367185D01*
X-34181858Y10330403D01*
X-34189177Y10312733D01*
X-34245569Y10228350D01*
X-34313743Y10063786D01*
X-34313746Y10063776D01*
X-34348502Y9889070D01*
X-34348503Y9889067D01*
X-34348503Y9700344D01*
X-34348550Y9700229D01*
X-34348550Y9590928D01*
X-34348549Y9590927D01*
X-34319444Y9444626D01*
X-34313789Y9416204D01*
X-34245610Y9251630D01*
X-34189177Y9167185D01*
X-34181858Y9130403D01*
X-34189177Y9112733D01*
X-34245569Y9028350D01*
X-34313743Y8863786D01*
X-34313746Y8863776D01*
X-34348502Y8689070D01*
X-34348503Y8689067D01*
X-34348503Y8500344D01*
X-34348550Y8500229D01*
X-34348550Y8390928D01*
X-34348549Y8390927D01*
X-34333671Y8316143D01*
X-34314852Y8221544D01*
X-34313789Y8216204D01*
X-34245610Y8051629D01*
X-34146654Y7903554D01*
X-34146627Y7903514D01*
X-34020648Y7777560D01*
X-34020645Y7777558D01*
X-33872522Y7678611D01*
X-33872518Y7678609D01*
X-33872515Y7678607D01*
X-33794505Y7646308D01*
X-33767983Y7619793D01*
X-33764250Y7601035D01*
X-33764250Y3134572D01*
X-33738726Y3006255D01*
X-33738723Y3006245D01*
X-33688651Y2885360D01*
X-33615957Y2776565D01*
X-33523435Y2684043D01*
X-33414640Y2611349D01*
X-33293755Y2561277D01*
X-33293749Y2561276D01*
X-33293746Y2561275D01*
X-33165429Y2535751D01*
X-33165423Y2535750D01*
X-33034577Y2535750D01*
X-32906245Y2561277D01*
X-32785360Y2611349D01*
X-32676565Y2684043D01*
X-32584043Y2776565D01*
X-32511349Y2885360D01*
X-32461277Y3006245D01*
X-32435750Y3134577D01*
X-32435750Y7685500D01*
X-32421398Y7720148D01*
X-32386750Y7734500D01*
X-32359530Y7726243D01*
X-32288323Y7678664D01*
X-32194498Y7639801D01*
X-32167980Y7613284D01*
X-32164250Y7594532D01*
X-32164250Y3134572D01*
X-32138726Y3006255D01*
X-32138723Y3006245D01*
X-32088651Y2885360D01*
X-32015957Y2776565D01*
X-31923435Y2684043D01*
X-31814640Y2611349D01*
X-31693755Y2561277D01*
X-31693749Y2561276D01*
X-31693746Y2561275D01*
X-31565429Y2535751D01*
X-31565423Y2535750D01*
X-31434577Y2535750D01*
X-31306245Y2561277D01*
X-31185360Y2611349D01*
X-31127222Y2650197D01*
X-31090441Y2657513D01*
X-31072781Y2650198D01*
X-31014640Y2611349D01*
X-30893755Y2561277D01*
X-30893749Y2561276D01*
X-30893746Y2561275D01*
X-30765429Y2535751D01*
X-30765423Y2535750D01*
X-30634577Y2535750D01*
X-30506245Y2561277D01*
X-30385360Y2611349D01*
X-30276565Y2684043D01*
X-30184043Y2776565D01*
X-30111349Y2885360D01*
X-30061277Y3006245D01*
X-30035750Y3134577D01*
X-30035750Y7609410D01*
X-30021398Y7644058D01*
X-30005505Y7654679D01*
X-29947597Y7678662D01*
X-29938815Y7684531D01*
X-29902034Y7691849D01*
X-29884364Y7684531D01*
X-29875812Y7678815D01*
X-29872013Y7677241D01*
X-29794494Y7645121D01*
X-29767978Y7618600D01*
X-29764250Y7599853D01*
X-29764250Y3134572D01*
X-29738726Y3006255D01*
X-29738723Y3006245D01*
X-29688651Y2885360D01*
X-29615957Y2776565D01*
X-29523435Y2684043D01*
X-29414640Y2611349D01*
X-29293755Y2561277D01*
X-29293749Y2561276D01*
X-29293746Y2561275D01*
X-29165429Y2535751D01*
X-29165423Y2535750D01*
X-29034577Y2535750D01*
X-28906245Y2561277D01*
X-28785360Y2611349D01*
X-28727222Y2650197D01*
X-28690441Y2657513D01*
X-28672781Y2650198D01*
X-28614640Y2611349D01*
X-28493755Y2561277D01*
X-28493749Y2561276D01*
X-28493746Y2561275D01*
X-28365429Y2535751D01*
X-28365423Y2535750D01*
X-28234577Y2535750D01*
X-28106245Y2561277D01*
X-27985360Y2611349D01*
X-27876565Y2684043D01*
X-27784043Y2776565D01*
X-27711349Y2885360D01*
X-27661277Y3006245D01*
X-27635750Y3134577D01*
X-27635750Y7588960D01*
X-27621398Y7623608D01*
X-27605507Y7634227D01*
X-27527819Y7666411D01*
X-27490316Y7666412D01*
X-27481849Y7661887D01*
X-27474611Y7657051D01*
X-27470432Y7654259D01*
X-27470431Y7654259D01*
X-27470430Y7654258D01*
X-27394503Y7622819D01*
X-27367982Y7596306D01*
X-27364250Y7577548D01*
X-27364250Y3134572D01*
X-27338726Y3006255D01*
X-27338723Y3006245D01*
X-27288651Y2885360D01*
X-27215957Y2776565D01*
X-27123435Y2684043D01*
X-27014640Y2611349D01*
X-26893755Y2561277D01*
X-26893749Y2561276D01*
X-26893746Y2561275D01*
X-26765429Y2535751D01*
X-26765423Y2535750D01*
X-26634577Y2535750D01*
X-26506245Y2561277D01*
X-26385360Y2611349D01*
X-26327222Y2650197D01*
X-26290441Y2657513D01*
X-26272781Y2650198D01*
X-26214640Y2611349D01*
X-26093755Y2561277D01*
X-26093749Y2561276D01*
X-26093746Y2561275D01*
X-25965429Y2535751D01*
X-25965423Y2535750D01*
X-25834577Y2535750D01*
X-25706245Y2561277D01*
X-25585360Y2611349D01*
X-25476565Y2684043D01*
X-25384043Y2776565D01*
X-25311349Y2885360D01*
X-25261277Y3006245D01*
X-25235750Y3134577D01*
X-25235750Y7628945D01*
X-25221398Y7663593D01*
X-25205509Y7674213D01*
X-25154655Y7695284D01*
X-25154654Y7695286D01*
X-25152431Y7696206D01*
X-25152037Y7695255D01*
X-25118000Y7698626D01*
X-25104977Y7692472D01*
X-25084265Y7678634D01*
X-24994501Y7641461D01*
X-24967981Y7614945D01*
X-24964250Y7596190D01*
X-24964250Y3134572D01*
X-24938726Y3006255D01*
X-24938723Y3006245D01*
X-24888651Y2885360D01*
X-24815957Y2776565D01*
X-24723435Y2684043D01*
X-24614640Y2611349D01*
X-24493755Y2561277D01*
X-24493749Y2561276D01*
X-24493746Y2561275D01*
X-24365429Y2535751D01*
X-24365423Y2535750D01*
X-24234577Y2535750D01*
X-24106245Y2561277D01*
X-23985360Y2611349D01*
X-23927222Y2650197D01*
X-23890441Y2657513D01*
X-23872781Y2650198D01*
X-23814640Y2611349D01*
X-23693755Y2561277D01*
X-23693749Y2561276D01*
X-23693746Y2561275D01*
X-23565429Y2535751D01*
X-23565423Y2535750D01*
X-23434577Y2535750D01*
X-23306245Y2561277D01*
X-23185360Y2611349D01*
X-23076565Y2684043D01*
X-22984043Y2776565D01*
X-22911349Y2885360D01*
X-22861277Y3006245D01*
X-22835750Y3134577D01*
X-22835750Y4069451D01*
X-15927500Y4069451D01*
X-15927500Y3930550D01*
X-15891553Y3796395D01*
X-15891552Y3796391D01*
X-15822105Y3676107D01*
X-15723893Y3577895D01*
X-15679867Y3552477D01*
X-15603610Y3508449D01*
X-15603608Y3508449D01*
X-15603607Y3508448D01*
X-15497801Y3480098D01*
X-15469451Y3472501D01*
X-15469450Y3472500D01*
X-15469447Y3472500D01*
X-15330550Y3472500D01*
X-15330550Y3472501D01*
X-15196393Y3508448D01*
X-15076107Y3577895D01*
X-14977895Y3676107D01*
X-14908448Y3796393D01*
X-14872501Y3930550D01*
X-14872500Y3930550D01*
X-14872500Y4069450D01*
X-14872501Y4069451D01*
X-14908448Y4203606D01*
X-14908449Y4203610D01*
X-14977896Y4323894D01*
X-15076107Y4422105D01*
X-15196391Y4491552D01*
X-15196395Y4491553D01*
X-15330550Y4527500D01*
X-15330553Y4527500D01*
X-15469447Y4527500D01*
X-15469450Y4527500D01*
X-15603606Y4491553D01*
X-15603610Y4491552D01*
X-15723894Y4422105D01*
X-15723894Y4422104D01*
X-15822104Y4323894D01*
X-15822105Y4323894D01*
X-15891552Y4203610D01*
X-15891553Y4203606D01*
X-15927500Y4069451D01*
X-22835750Y4069451D01*
X-22835750Y7633535D01*
X-22821398Y7668183D01*
X-22807837Y7677241D01*
X-22807986Y7677521D01*
X-22805878Y7678649D01*
X-22805866Y7678653D01*
X-22657747Y7777605D01*
X-22531782Y7903554D01*
X-22432810Y8051659D01*
X-22364637Y8216228D01*
X-22329883Y8390935D01*
X-22329883Y8410621D01*
X-22329882Y8410634D01*
X-22329882Y8579672D01*
X-22329851Y8579750D01*
X-22329851Y8600000D01*
X-22329850Y8600000D01*
X-22329851Y8689068D01*
X-22354607Y8813514D01*
X-22364605Y8863773D01*
X-22364606Y8863776D01*
X-22364607Y8863782D01*
X-22364801Y8864250D01*
X-22432780Y9028352D01*
X-22432781Y9028354D01*
X-22432782Y9028356D01*
X-22531757Y9176467D01*
X-22657727Y9302420D01*
X-22737665Y9355823D01*
X-22758503Y9387004D01*
X-22751189Y9423787D01*
X-22720011Y9444624D01*
X-22708841Y9446845D01*
X-22544278Y9515010D01*
X-22396174Y9613970D01*
X-22365076Y9645068D01*
X-22233204Y9776942D01*
X-22233199Y9776947D01*
X-22185434Y9824698D01*
X-22185434Y9824699D01*
X-22185431Y9824701D01*
X-22086440Y9972815D01*
X-22018252Y10137397D01*
X-21998433Y10237014D01*
X-21977596Y10268195D01*
X-21959940Y10275509D01*
X-21860274Y10295333D01*
X-21695712Y10363497D01*
X-21642869Y10398805D01*
X-21547614Y10462451D01*
X-21547613Y10462453D01*
X-21547609Y10462455D01*
X-21533683Y10476382D01*
X-21533678Y10476386D01*
X-21530893Y10479172D01*
X-21530890Y10479173D01*
X-21456731Y10553335D01*
X-21456727Y10553337D01*
X-21452698Y10557367D01*
X-21452696Y10557367D01*
X-21413331Y10596733D01*
X-21353516Y10656549D01*
X-21353513Y10656555D01*
X-21351869Y10658198D01*
X-21351614Y10658482D01*
X-21336818Y10673276D01*
X-21237865Y10821369D01*
X-21169703Y10985921D01*
X-21169702Y10985925D01*
X-21169701Y10985928D01*
X-21149884Y11085543D01*
X-21129048Y11116726D01*
X-21111394Y11124039D01*
X-21011743Y11143860D01*
X-20847181Y11212024D01*
X-20847180Y11212025D01*
X-20840871Y11216240D01*
X-20797590Y11245160D01*
X-20699083Y11310978D01*
X-20699082Y11310980D01*
X-20699078Y11310982D01*
X-20682363Y11327698D01*
X-20682359Y11327700D01*
X-20565666Y11444396D01*
X-20565625Y11444413D01*
X-20530031Y11480000D01*
X-20488298Y11521726D01*
X-20389312Y11669845D01*
X-20321131Y11834432D01*
X-20286375Y12009159D01*
X-20286382Y12187310D01*
X-20288722Y12199067D01*
X-20305449Y12283126D01*
X-20321151Y12362034D01*
X-20321154Y12362040D01*
X-20321851Y12364340D01*
X-20321023Y12364592D01*
X-20321026Y12399228D01*
X-20310405Y12415125D01*
X-11588863Y21136666D01*
X-11588856Y21136672D01*
X-11586072Y21139457D01*
X-11586069Y21139458D01*
X-11232125Y21493405D01*
X-11232120Y21493408D01*
X-11228092Y21497437D01*
X-11228090Y21497437D01*
X-10414882Y22310648D01*
X-10380235Y22324999D01*
X-10345587Y22310647D01*
X-10344197Y22309199D01*
X-10343171Y22308084D01*
X-10325765Y22289175D01*
X-10159252Y22159574D01*
X-10136067Y22141528D01*
X-10136060Y22141524D01*
X-10136058Y22141523D01*
X-9924664Y22027122D01*
X-9924662Y22027122D01*
X-9924656Y22027118D01*
X-9697297Y21949066D01*
X-9460192Y21909500D01*
X-9460189Y21909500D01*
X-9219811Y21909500D01*
X-9219808Y21909500D01*
X-8982703Y21949066D01*
X-8755344Y22027118D01*
X-8543933Y22141528D01*
X-8354236Y22289175D01*
X-8191429Y22466031D01*
X-8059951Y22667272D01*
X-7963390Y22887409D01*
X-7904380Y23120437D01*
X-7884529Y23360000D01*
X-7904380Y23599563D01*
X-7963390Y23832591D01*
X-8059951Y24052728D01*
X-8191429Y24253969D01*
X-8354236Y24430825D01*
X-8354237Y24430826D01*
X-8354239Y24430828D01*
X-8543929Y24578469D01*
X-8543938Y24578475D01*
X-8559516Y24586905D01*
X-8583159Y24616017D01*
X-8579291Y24653320D01*
X-8559516Y24673095D01*
X-8543933Y24681528D01*
X-8354236Y24829175D01*
X-8191429Y25006031D01*
X-8059951Y25207272D01*
X-7963390Y25427409D01*
X-7904380Y25660437D01*
X-7884529Y25900000D01*
X-7904380Y26139563D01*
X-7963390Y26372591D01*
X-8059951Y26592728D01*
X-8191429Y26793969D01*
X-8354236Y26970825D01*
X-8354237Y26970826D01*
X-8354239Y26970828D01*
X-8543929Y27118469D01*
X-8543930Y27118470D01*
X-8543933Y27118472D01*
X-8543938Y27118475D01*
X-8543943Y27118478D01*
X-8755337Y27232879D01*
X-8755343Y27232882D01*
X-8755344Y27232882D01*
X-8773560Y27239136D01*
X-8982702Y27310934D01*
X-9041980Y27320826D01*
X-9219808Y27350500D01*
X-9460192Y27350500D01*
X-9602455Y27326761D01*
X-9697299Y27310934D01*
X-9924654Y27232883D01*
X-9924664Y27232879D01*
X-10136058Y27118478D01*
X-10136072Y27118469D01*
X-10325762Y26970828D01*
X-10488573Y26793967D01*
X-10568979Y26670897D01*
X-10599945Y26649741D01*
X-10636801Y26656677D01*
X-10651021Y26670897D01*
X-10684462Y26722081D01*
X-10731429Y26793969D01*
X-10894236Y26970825D01*
X-10894237Y26970826D01*
X-10894239Y26970828D01*
X-11083929Y27118469D01*
X-11083930Y27118470D01*
X-11083933Y27118472D01*
X-11083938Y27118475D01*
X-11083943Y27118478D01*
X-11295337Y27232879D01*
X-11295343Y27232882D01*
X-11295344Y27232882D01*
X-11313560Y27239136D01*
X-11522702Y27310934D01*
X-11581980Y27320826D01*
X-11759808Y27350500D01*
X-12000192Y27350500D01*
X-12142455Y27326761D01*
X-12237299Y27310934D01*
X-12464654Y27232883D01*
X-12464664Y27232879D01*
X-12676058Y27118478D01*
X-12676072Y27118469D01*
X-12865762Y26970828D01*
X-13028573Y26793967D01*
X-13108979Y26670897D01*
X-13139945Y26649741D01*
X-13176801Y26656677D01*
X-13191021Y26670897D01*
X-13224462Y26722081D01*
X-13271429Y26793969D01*
X-13434236Y26970825D01*
X-13434237Y26970826D01*
X-13434239Y26970828D01*
X-13623929Y27118469D01*
X-13623930Y27118470D01*
X-13623933Y27118472D01*
X-13623938Y27118475D01*
X-13623943Y27118478D01*
X-13835337Y27232879D01*
X-13835343Y27232882D01*
X-13835344Y27232882D01*
X-13853560Y27239136D01*
X-14062702Y27310934D01*
X-14121980Y27320826D01*
X-14299808Y27350500D01*
X-14540192Y27350500D01*
X-14682455Y27326761D01*
X-14777299Y27310934D01*
X-15004654Y27232883D01*
X-15004664Y27232879D01*
X-15216058Y27118478D01*
X-15216072Y27118469D01*
X-15405762Y26970828D01*
X-15568573Y26793967D01*
X-15648979Y26670897D01*
X-15679945Y26649741D01*
X-15716801Y26656677D01*
X-15731021Y26670897D01*
X-15764462Y26722081D01*
X-15811429Y26793969D01*
X-15974236Y26970825D01*
X-15974237Y26970826D01*
X-15974239Y26970828D01*
X-16163929Y27118469D01*
X-16163930Y27118470D01*
X-16163933Y27118472D01*
X-16163938Y27118475D01*
X-16163943Y27118478D01*
X-16375337Y27232879D01*
X-16375343Y27232882D01*
X-16375344Y27232882D01*
X-16393560Y27239136D01*
X-16602702Y27310934D01*
X-16661980Y27320826D01*
X-16839808Y27350500D01*
X-17080192Y27350500D01*
X-17222455Y27326761D01*
X-17317299Y27310934D01*
X-17544654Y27232883D01*
X-17544664Y27232879D01*
X-17756058Y27118478D01*
X-17756072Y27118469D01*
X-17945762Y26970828D01*
X-18108573Y26793967D01*
X-18188979Y26670897D01*
X-18219945Y26649741D01*
X-18256801Y26656677D01*
X-18271021Y26670897D01*
X-18304462Y26722081D01*
X-18351429Y26793969D01*
X-18514236Y26970825D01*
X-18514237Y26970826D01*
X-18514239Y26970828D01*
X-18703929Y27118469D01*
X-18703930Y27118470D01*
X-18703933Y27118472D01*
X-18703938Y27118475D01*
X-18703943Y27118478D01*
X-18915337Y27232879D01*
X-18915343Y27232882D01*
X-18915344Y27232882D01*
X-18933560Y27239136D01*
X-19142702Y27310934D01*
X-19201980Y27320826D01*
X-19379808Y27350500D01*
X-19620192Y27350500D01*
X-19762455Y27326761D01*
X-19857299Y27310934D01*
X-20084654Y27232883D01*
X-20084664Y27232879D01*
X-20296058Y27118478D01*
X-20296072Y27118469D01*
X-20485762Y26970828D01*
X-20648573Y26793967D01*
X-20728979Y26670897D01*
X-20759945Y26649741D01*
X-20796801Y26656677D01*
X-20811021Y26670897D01*
X-20844462Y26722081D01*
X-20891429Y26793969D01*
X-21054236Y26970825D01*
X-21054237Y26970826D01*
X-21054239Y26970828D01*
X-21243929Y27118469D01*
X-21243930Y27118470D01*
X-21243933Y27118472D01*
X-21243938Y27118475D01*
X-21243943Y27118478D01*
X-21455337Y27232879D01*
X-21455343Y27232882D01*
X-21455344Y27232882D01*
X-21473560Y27239136D01*
X-21682702Y27310934D01*
X-21741980Y27320826D01*
X-21919808Y27350500D01*
X-22160192Y27350500D01*
X-22302455Y27326761D01*
X-22397299Y27310934D01*
X-22624654Y27232883D01*
X-22624664Y27232879D01*
X-22836058Y27118478D01*
X-22836072Y27118469D01*
X-23025762Y26970828D01*
X-23188573Y26793967D01*
X-23268979Y26670897D01*
X-23299945Y26649741D01*
X-23336801Y26656677D01*
X-23351021Y26670897D01*
X-23384462Y26722081D01*
X-23431429Y26793969D01*
X-23594236Y26970825D01*
X-23594237Y26970826D01*
X-23594239Y26970828D01*
X-23783929Y27118469D01*
X-23783930Y27118470D01*
X-23783933Y27118472D01*
X-23783938Y27118475D01*
X-23783943Y27118478D01*
X-23995337Y27232879D01*
X-23995343Y27232882D01*
X-23995344Y27232882D01*
X-24013560Y27239136D01*
X-24222702Y27310934D01*
X-24281980Y27320826D01*
X-24459808Y27350500D01*
X-24700192Y27350500D01*
X-24842455Y27326761D01*
X-24937299Y27310934D01*
X-25164654Y27232883D01*
X-25164664Y27232879D01*
X-25376058Y27118478D01*
X-25376072Y27118469D01*
X-25565762Y26970828D01*
X-25728573Y26793967D01*
X-25808979Y26670897D01*
X-25839945Y26649741D01*
X-25876801Y26656677D01*
X-25891021Y26670897D01*
X-25924462Y26722081D01*
X-25971429Y26793969D01*
X-26134236Y26970825D01*
X-26134237Y26970826D01*
X-26134239Y26970828D01*
X-26323929Y27118469D01*
X-26323930Y27118470D01*
X-26323933Y27118472D01*
X-26323938Y27118475D01*
X-26323943Y27118478D01*
X-26535337Y27232879D01*
X-26535343Y27232882D01*
X-26535344Y27232882D01*
X-26553560Y27239136D01*
X-26762702Y27310934D01*
X-26821980Y27320826D01*
X-26999808Y27350500D01*
X-27240192Y27350500D01*
X-27382455Y27326761D01*
X-27477299Y27310934D01*
X-27704654Y27232883D01*
X-27704664Y27232879D01*
X-27916058Y27118478D01*
X-27916072Y27118469D01*
X-28105762Y26970828D01*
X-28268573Y26793967D01*
X-28400047Y26592732D01*
X-28400051Y26592726D01*
X-28496609Y26372594D01*
X-28555620Y26139564D01*
X-28558407Y26105935D01*
X-28575471Y25900000D01*
X-28555620Y25660437D01*
X-28513991Y25496044D01*
X-28496609Y25427407D01*
X-28400051Y25207275D01*
X-28400049Y25207272D01*
X-28268571Y25006031D01*
X-28193765Y24924770D01*
X-28105762Y24829173D01*
X-27953326Y24710528D01*
X-27916067Y24681528D01*
X-27916063Y24681526D01*
X-27916058Y24681523D01*
X-27900484Y24673094D01*
X-27876842Y24643981D01*
X-27880711Y24606679D01*
X-27900484Y24586906D01*
X-27916058Y24578478D01*
X-27916072Y24578469D01*
X-28105762Y24430828D01*
X-28268573Y24253967D01*
X-28400047Y24052732D01*
X-28400051Y24052726D01*
X-28459083Y23918146D01*
X-28476732Y23897088D01*
X-28508353Y23875959D01*
X-28508357Y23875956D01*
X-28600879Y23783433D01*
X-29856659Y22527654D01*
X-29856660Y22527653D01*
X-30057508Y22326804D01*
X-30092156Y22312452D01*
X-30126804Y22326804D01*
X-30776227Y22976227D01*
X-30790579Y23010875D01*
X-30789081Y23022897D01*
X-30764380Y23120437D01*
X-30744529Y23360000D01*
X-30764380Y23599563D01*
X-30823390Y23832591D01*
X-30919951Y24052728D01*
X-31051429Y24253969D01*
X-31214236Y24430825D01*
X-31214237Y24430826D01*
X-31214239Y24430828D01*
X-31403929Y24578469D01*
X-31403938Y24578475D01*
X-31419516Y24586905D01*
X-31443159Y24616017D01*
X-31439291Y24653320D01*
X-31419516Y24673095D01*
X-31403933Y24681528D01*
X-31214236Y24829175D01*
X-31051429Y25006031D01*
X-30919951Y25207272D01*
X-30823390Y25427409D01*
X-30764380Y25660437D01*
X-30744529Y25900000D01*
X-30764380Y26139563D01*
X-30823390Y26372591D01*
X-30919951Y26592728D01*
X-31051429Y26793969D01*
X-31214236Y26970825D01*
X-31214237Y26970826D01*
X-31214239Y26970828D01*
X-31403929Y27118469D01*
X-31403930Y27118470D01*
X-31403933Y27118472D01*
X-31403938Y27118475D01*
X-31403943Y27118478D01*
X-31615337Y27232879D01*
X-31615343Y27232882D01*
X-31615344Y27232882D01*
X-31633560Y27239136D01*
X-31842702Y27310934D01*
X-31901980Y27320826D01*
X-32079808Y27350500D01*
X-32320192Y27350500D01*
X-32462455Y27326761D01*
X-32557299Y27310934D01*
X-32784654Y27232883D01*
X-32784664Y27232879D01*
X-32996058Y27118478D01*
X-32996072Y27118469D01*
X-33185762Y26970828D01*
X-33348573Y26793967D01*
X-33480047Y26592732D01*
X-33480051Y26592726D01*
X-33576609Y26372594D01*
X-33635620Y26139564D01*
X-33638407Y26105935D01*
X-33655471Y25900000D01*
X-33635620Y25660437D01*
X-33593991Y25496044D01*
X-33576609Y25427407D01*
X-33480051Y25207275D01*
X-33480049Y25207272D01*
X-33348571Y25006031D01*
X-33273765Y24924770D01*
X-33185762Y24829173D01*
X-33033326Y24710528D01*
X-32996067Y24681528D01*
X-32996063Y24681526D01*
X-32996058Y24681523D01*
X-32980484Y24673094D01*
X-32956842Y24643981D01*
X-32960711Y24606679D01*
X-32980484Y24586906D01*
X-32996058Y24578478D01*
X-32996072Y24578469D01*
X-33185762Y24430828D01*
X-33348573Y24253967D01*
X-33480047Y24052732D01*
X-33480051Y24052726D01*
X-33576609Y23832594D01*
X-33635620Y23599564D01*
X-33655471Y23360000D01*
X-33635620Y23120436D01*
X-33590593Y22942624D01*
X-33596001Y22905513D01*
X-33603445Y22895949D01*
X-33615955Y22883439D01*
X-33688653Y22774637D01*
X-33738723Y22653757D01*
X-33738726Y22653746D01*
X-33764250Y22525429D01*
X-33764250Y14278916D01*
X-33778602Y14244268D01*
X-33794505Y14233643D01*
X-33872493Y14201352D01*
X-33872500Y14201349D01*
X-34020615Y14102407D01*
X-34146594Y13976453D01*
X-34245569Y13828350D01*
X-34313743Y13663786D01*
X-34313746Y13663776D01*
X-34348502Y13489070D01*
X-34348503Y13489067D01*
X-34348503Y13300344D01*
X-34348550Y13300229D01*
X-35899500Y13300229D01*
X-35899500Y17352728D01*
X-35902570Y17364183D01*
X-35902570Y17364185D01*
X-35926793Y17454588D01*
X-35926794Y17454590D01*
X-35979521Y17545914D01*
X-41365138Y22931531D01*
X-41379490Y22966179D01*
X-41377381Y22980400D01*
X-41324700Y23154066D01*
X-41304417Y23360000D01*
X-38335583Y23360000D01*
X-38315300Y23154066D01*
X-38255232Y22956046D01*
X-38157685Y22773550D01*
X-38026410Y22613590D01*
X-37866450Y22482315D01*
X-37683954Y22384768D01*
X-37485934Y22324700D01*
X-37280000Y22304417D01*
X-37074066Y22324700D01*
X-36876046Y22384768D01*
X-36693550Y22482315D01*
X-36533590Y22613590D01*
X-36402315Y22773550D01*
X-36304768Y22956046D01*
X-36244700Y23154066D01*
X-36224417Y23360000D01*
X-36244700Y23565934D01*
X-36304768Y23763954D01*
X-36402315Y23946450D01*
X-36533590Y24106410D01*
X-36693550Y24237685D01*
X-36876046Y24335232D01*
X-37074066Y24395300D01*
X-37280000Y24415583D01*
X-37485935Y24395300D01*
X-37485936Y24395300D01*
X-37683957Y24335231D01*
X-37866452Y24237684D01*
X-38026410Y24106410D01*
X-38157684Y23946452D01*
X-38255231Y23763957D01*
X-38315300Y23565936D01*
X-38315300Y23565935D01*
X-38315300Y23565934D01*
X-38335583Y23360000D01*
X-41304417Y23360000D01*
X-41324700Y23565934D01*
X-41384768Y23763954D01*
X-41482315Y23946450D01*
X-41613590Y24106410D01*
X-41773550Y24237685D01*
X-41956046Y24335232D01*
X-42154066Y24395300D01*
X-42360000Y24415583D01*
X-42565935Y24395300D01*
X-42565936Y24395300D01*
X-42763957Y24335231D01*
X-42946452Y24237684D01*
X-43106410Y24106410D01*
X-43237684Y23946452D01*
X-43326524Y23780246D01*
X-43355514Y23756455D01*
X-43392837Y23760131D01*
X-43404386Y23768697D01*
X-43511646Y23875957D01*
X-43511649Y23875959D01*
X-43543270Y23897088D01*
X-43560917Y23918144D01*
X-43619951Y24052728D01*
X-43751429Y24253969D01*
X-43914236Y24430825D01*
X-43914237Y24430826D01*
X-43914239Y24430828D01*
X-44103929Y24578469D01*
X-44103938Y24578475D01*
X-44119516Y24586905D01*
X-44143159Y24616017D01*
X-44139291Y24653320D01*
X-44119516Y24673095D01*
X-44103933Y24681528D01*
X-43914236Y24829175D01*
X-43751429Y25006031D01*
X-43619951Y25207272D01*
X-43523390Y25427409D01*
X-43464380Y25660437D01*
X-43444529Y25900000D01*
X-38335583Y25900000D01*
X-38315300Y25694066D01*
X-38255232Y25496046D01*
X-38157685Y25313550D01*
X-38026410Y25153590D01*
X-37866450Y25022315D01*
X-37683954Y24924768D01*
X-37485934Y24864700D01*
X-37280000Y24844417D01*
X-37074066Y24864700D01*
X-36876046Y24924768D01*
X-36693550Y25022315D01*
X-36533590Y25153590D01*
X-36402315Y25313550D01*
X-36304768Y25496046D01*
X-36244700Y25694066D01*
X-36224417Y25900000D01*
X-36244700Y26105934D01*
X-36304768Y26303954D01*
X-36402315Y26486450D01*
X-36533590Y26646410D01*
X-36693550Y26777685D01*
X-36876046Y26875232D01*
X-37074066Y26935300D01*
X-37280000Y26955583D01*
X-37485935Y26935300D01*
X-37485936Y26935300D01*
X-37683957Y26875231D01*
X-37866452Y26777684D01*
X-38026410Y26646410D01*
X-38157684Y26486452D01*
X-38255231Y26303957D01*
X-38315300Y26105936D01*
X-38315300Y26105935D01*
X-38315300Y26105934D01*
X-38335583Y25900000D01*
X-43444529Y25900000D01*
X-43464380Y26139563D01*
X-43523390Y26372591D01*
X-43619951Y26592728D01*
X-43751429Y26793969D01*
X-43914236Y26970825D01*
X-43914237Y26970826D01*
X-43914239Y26970828D01*
X-44103929Y27118469D01*
X-44103930Y27118470D01*
X-44103933Y27118472D01*
X-44103938Y27118475D01*
X-44103943Y27118478D01*
X-44315337Y27232879D01*
X-44315343Y27232882D01*
X-44315344Y27232882D01*
X-44333560Y27239136D01*
X-44542702Y27310934D01*
X-44601980Y27320826D01*
X-44779808Y27350500D01*
X-45020192Y27350500D01*
X-45162455Y27326761D01*
X-45257299Y27310934D01*
X-45484654Y27232883D01*
X-45484664Y27232879D01*
X-45696058Y27118478D01*
X-45696072Y27118469D01*
X-45885762Y26970828D01*
X-46048573Y26793967D01*
X-46128979Y26670897D01*
X-46159945Y26649741D01*
X-46196801Y26656677D01*
X-46211021Y26670897D01*
X-46244462Y26722081D01*
X-46291429Y26793969D01*
X-46454236Y26970825D01*
X-46454237Y26970826D01*
X-46454239Y26970828D01*
X-46643929Y27118469D01*
X-46643930Y27118470D01*
X-46643933Y27118472D01*
X-46643938Y27118475D01*
X-46643943Y27118478D01*
X-46855337Y27232879D01*
X-46855343Y27232882D01*
X-46855344Y27232882D01*
X-46873560Y27239136D01*
X-47082702Y27310934D01*
X-47141980Y27320826D01*
X-47319808Y27350500D01*
X-47560192Y27350500D01*
X-47702455Y27326761D01*
X-47797299Y27310934D01*
X-48024654Y27232883D01*
X-48024664Y27232879D01*
X-48236058Y27118478D01*
X-48236072Y27118469D01*
X-48425762Y26970828D01*
X-48588573Y26793967D01*
X-48668979Y26670897D01*
X-48699945Y26649741D01*
X-48736801Y26656677D01*
X-48751021Y26670897D01*
X-48784462Y26722081D01*
X-48831429Y26793969D01*
X-48994236Y26970825D01*
X-48994237Y26970826D01*
X-48994239Y26970828D01*
X-49183929Y27118469D01*
X-49183930Y27118470D01*
X-49183933Y27118472D01*
X-49183938Y27118475D01*
X-49183943Y27118478D01*
X-49395337Y27232879D01*
X-49395343Y27232882D01*
X-49395344Y27232882D01*
X-49413560Y27239136D01*
X-49622702Y27310934D01*
X-49681980Y27320826D01*
X-49859808Y27350500D01*
X-50100192Y27350500D01*
X-50242455Y27326761D01*
X-50337299Y27310934D01*
X-50564654Y27232883D01*
X-50564664Y27232879D01*
X-50776058Y27118478D01*
X-50776072Y27118469D01*
X-50965762Y26970828D01*
X-51128573Y26793967D01*
X-51208979Y26670897D01*
X-51239945Y26649741D01*
X-51276801Y26656677D01*
X-51291021Y26670897D01*
X-51324462Y26722081D01*
X-51371429Y26793969D01*
X-51534236Y26970825D01*
X-51534237Y26970826D01*
X-51534239Y26970828D01*
X-51723929Y27118469D01*
X-51723930Y27118470D01*
X-51723933Y27118472D01*
X-51723938Y27118475D01*
X-51723943Y27118478D01*
X-51935337Y27232879D01*
X-51935343Y27232882D01*
X-51935344Y27232882D01*
X-51953560Y27239136D01*
X-52162702Y27310934D01*
X-52221980Y27320826D01*
X-52399808Y27350500D01*
X-52640192Y27350500D01*
X-52782455Y27326761D01*
X-52877299Y27310934D01*
X-53104654Y27232883D01*
X-53104664Y27232879D01*
X-53316058Y27118478D01*
X-53316072Y27118469D01*
X-53505762Y26970828D01*
X-53668573Y26793967D01*
X-53748979Y26670897D01*
X-53779945Y26649741D01*
X-53816801Y26656677D01*
X-53831021Y26670897D01*
X-53864462Y26722081D01*
X-53911429Y26793969D01*
X-54074236Y26970825D01*
X-54074237Y26970826D01*
X-54074239Y26970828D01*
X-54263929Y27118469D01*
X-54263930Y27118470D01*
X-54263933Y27118472D01*
X-54263938Y27118475D01*
X-54263943Y27118478D01*
X-54475337Y27232879D01*
X-54475343Y27232882D01*
X-54475344Y27232882D01*
X-54493560Y27239136D01*
X-54702702Y27310934D01*
X-54761980Y27320826D01*
X-54939808Y27350500D01*
X-55180192Y27350500D01*
X-55322455Y27326761D01*
X-55417299Y27310934D01*
X-55644654Y27232883D01*
X-55644664Y27232879D01*
X-55856058Y27118478D01*
X-55856072Y27118469D01*
X-56045762Y26970828D01*
X-56208573Y26793967D01*
X-56288979Y26670897D01*
X-56319945Y26649741D01*
X-56356801Y26656677D01*
X-56371021Y26670897D01*
X-56404462Y26722081D01*
X-56451429Y26793969D01*
X-56614236Y26970825D01*
X-56614237Y26970826D01*
X-56614239Y26970828D01*
X-56803929Y27118469D01*
X-56803930Y27118470D01*
X-56803933Y27118472D01*
X-56803938Y27118475D01*
X-56803943Y27118478D01*
X-57015337Y27232879D01*
X-57015343Y27232882D01*
X-57015344Y27232882D01*
X-57033560Y27239136D01*
X-57242702Y27310934D01*
X-57301980Y27320826D01*
X-57479808Y27350500D01*
X-57720192Y27350500D01*
X-57862455Y27326761D01*
X-57957299Y27310934D01*
X-58184654Y27232883D01*
X-58184664Y27232879D01*
X-58396058Y27118478D01*
X-58396072Y27118469D01*
X-58585762Y26970828D01*
X-58748573Y26793967D01*
X-58828979Y26670897D01*
X-58859945Y26649741D01*
X-58896801Y26656677D01*
X-58911021Y26670897D01*
X-58944462Y26722081D01*
X-58991429Y26793969D01*
X-59154236Y26970825D01*
X-59154237Y26970826D01*
X-59154239Y26970828D01*
X-59343929Y27118469D01*
X-59343930Y27118470D01*
X-59343933Y27118472D01*
X-59343938Y27118475D01*
X-59343943Y27118478D01*
X-59555337Y27232879D01*
X-59555343Y27232882D01*
X-59555344Y27232882D01*
X-59573560Y27239136D01*
X-59782702Y27310934D01*
X-59841980Y27320826D01*
X-60019808Y27350500D01*
X-60260192Y27350500D01*
X-60402455Y27326761D01*
X-60497299Y27310934D01*
X-60724654Y27232883D01*
X-60724664Y27232879D01*
X-60936058Y27118478D01*
X-60936072Y27118469D01*
X-61125762Y26970828D01*
X-61288573Y26793967D01*
X-61368979Y26670897D01*
X-61399945Y26649741D01*
X-61436801Y26656677D01*
X-61451021Y26670897D01*
X-61484462Y26722081D01*
X-61531429Y26793969D01*
X-61694236Y26970825D01*
X-61694237Y26970826D01*
X-61694239Y26970828D01*
X-61883929Y27118469D01*
X-61883930Y27118470D01*
X-61883933Y27118472D01*
X-61883938Y27118475D01*
X-61883943Y27118478D01*
X-62095337Y27232879D01*
X-62095343Y27232882D01*
X-62095344Y27232882D01*
X-62113560Y27239136D01*
X-62322702Y27310934D01*
X-62381980Y27320826D01*
X-62559808Y27350500D01*
X-62800192Y27350500D01*
X-62942455Y27326761D01*
X-63037299Y27310934D01*
X-63264654Y27232883D01*
X-63264664Y27232879D01*
X-63476058Y27118478D01*
X-63476072Y27118469D01*
X-63665762Y26970828D01*
X-63828573Y26793967D01*
X-63908979Y26670897D01*
X-63939945Y26649741D01*
X-63976801Y26656677D01*
X-63991021Y26670897D01*
X-64024462Y26722081D01*
X-64071429Y26793969D01*
X-64234236Y26970825D01*
X-64234237Y26970826D01*
X-64234239Y26970828D01*
X-64423929Y27118469D01*
X-64423930Y27118470D01*
X-64423933Y27118472D01*
X-64423938Y27118475D01*
X-64423943Y27118478D01*
X-64635337Y27232879D01*
X-64635343Y27232882D01*
X-64635344Y27232882D01*
X-64653560Y27239136D01*
X-64862702Y27310934D01*
X-64921980Y27320826D01*
X-65099808Y27350500D01*
X-65340192Y27350500D01*
X-65482455Y27326761D01*
X-65577299Y27310934D01*
X-65804654Y27232883D01*
X-65804664Y27232879D01*
X-66016058Y27118478D01*
X-66016072Y27118469D01*
X-66205762Y26970828D01*
X-66368573Y26793967D01*
X-66500047Y26592732D01*
X-66500051Y26592726D01*
X-66596609Y26372594D01*
X-66655620Y26139564D01*
X-66658407Y26105935D01*
X-66675471Y25900000D01*
X-74799500Y25900000D01*
X-74799500Y29998797D01*
X-74799441Y30001201D01*
X-74797541Y30039882D01*
X-74781322Y30370023D01*
X-74780854Y30374780D01*
X-74726845Y30738882D01*
X-74725914Y30743564D01*
X-74636480Y31100605D01*
X-74635084Y31105204D01*
X-74552393Y31336309D01*
X-74511083Y31451764D01*
X-74509254Y31456177D01*
X-74351885Y31788907D01*
X-74349637Y31793114D01*
X-74160402Y32108834D01*
X-74157732Y32112827D01*
X-73938478Y32408456D01*
X-73935452Y32412144D01*
X-73688269Y32684869D01*
X-73684868Y32688269D01*
X-73412144Y32935452D01*
X-73408456Y32938478D01*
X-73112823Y33157735D01*
X-73108829Y33160404D01*
X-72793114Y33349637D01*
X-72788907Y33351885D01*
X-72456177Y33509254D01*
X-72451764Y33511083D01*
X-72105202Y33635085D01*
X-72100602Y33636480D01*
X-71743564Y33725914D01*
X-71738882Y33726845D01*
X-71374780Y33780854D01*
X-71370023Y33781322D01*
X-71001201Y33799442D01*
X-70998797Y33799500D01*
X-70960118Y33799500D01*
X-4039882Y33799500D01*
X-4001203Y33799500D01*
X-3998800Y33799442D01*
G37*
G04 #@! TD.AperFunction*
G04 #@! TD*
M02*
