G04 #@! TF.GenerationSoftware,KiCad,Pcbnew,8.0.6*
G04 #@! TF.CreationDate,2024-11-07T02:27:35-08:00*
G04 #@! TF.ProjectId,mse-50-idc-panel,6d73652d-3530-42d6-9964-632d70616e65,1*
G04 #@! TF.SameCoordinates,Original*
G04 #@! TF.FileFunction,Soldermask,Bot*
G04 #@! TF.FilePolarity,Negative*
%FSLAX46Y46*%
G04 Gerber Fmt 4.6, Leading zero omitted, Abs format (unit mm)*
G04 Created by KiCad (PCBNEW 8.0.6) date 2024-11-07 02:27:35*
%MOMM*%
%LPD*%
G01*
G04 APERTURE LIST*
G04 Aperture macros list*
%AMRoundRect*
0 Rectangle with rounded corners*
0 $1 Rounding radius*
0 $2 $3 $4 $5 $6 $7 $8 $9 X,Y pos of 4 corners*
0 Add a 4 corners polygon primitive as box body*
4,1,4,$2,$3,$4,$5,$6,$7,$8,$9,$2,$3,0*
0 Add four circle primitives for the rounded corners*
1,1,$1+$1,$2,$3*
1,1,$1+$1,$4,$5*
1,1,$1+$1,$6,$7*
1,1,$1+$1,$8,$9*
0 Add four rect primitives between the rounded corners*
20,1,$1+$1,$2,$3,$4,$5,0*
20,1,$1+$1,$4,$5,$6,$7,0*
20,1,$1+$1,$6,$7,$8,$9,0*
20,1,$1+$1,$8,$9,$2,$3,0*%
G04 Aperture macros list end*
%ADD10C,0.500000*%
%ADD11RoundRect,0.264706X0.635294X-0.635294X0.635294X0.635294X-0.635294X0.635294X-0.635294X-0.635294X0*%
%ADD12C,1.800000*%
%ADD13C,6.500000*%
%ADD14C,2.300000*%
%ADD15C,2.700000*%
%ADD16C,1.950000*%
%ADD17C,0.800000*%
%ADD18C,1.200000*%
%ADD19C,2.500000*%
G04 APERTURE END LIST*
D10*
G04 #@! TO.C,KiKit_MB_9_2*
X-9739401Y7002000D03*
G04 #@! TD*
G04 #@! TO.C,KiKit_MB_4_1*
X-61899000Y95002000D03*
G04 #@! TD*
G04 #@! TO.C,KiKit_MB_5_5*
X-12260600Y51002000D03*
G04 #@! TD*
G04 #@! TO.C,KiKit_MB_11_4*
X-10579801Y41002000D03*
G04 #@! TD*
G04 #@! TO.C,KiKit_MB_4_3*
X-63579800Y95002000D03*
G04 #@! TD*
G04 #@! TO.C,KiKit_MB_9_1*
X-8899001Y7002000D03*
G04 #@! TD*
D11*
G04 #@! TO.C,J2*
X-67980000Y32762000D03*
D12*
X-67980000Y35302000D03*
X-65440000Y32762000D03*
X-65440000Y35302000D03*
X-62900001Y32762000D03*
X-62900000Y35302000D03*
X-60360000Y32762000D03*
X-60360000Y35302000D03*
X-57820000Y32762000D03*
X-57820000Y35302000D03*
X-55280000Y32762000D03*
X-55280000Y35302000D03*
X-52740000Y32762000D03*
X-52740000Y35302000D03*
X-50199999Y32762000D03*
X-50200000Y35302000D03*
X-47660000Y32762000D03*
X-47660000Y35302000D03*
X-45120000Y32762000D03*
X-45120000Y35302000D03*
X-42580000Y32762000D03*
X-42580000Y35302000D03*
X-40040001Y32762000D03*
X-40040000Y35302000D03*
X-37500000Y32762000D03*
X-37500000Y35302000D03*
X-34960000Y32762000D03*
X-34960000Y35302000D03*
X-32420000Y32762000D03*
X-32420000Y35302000D03*
X-29880001Y32762000D03*
X-29880000Y35302000D03*
X-27339999Y32762000D03*
X-27340000Y35302000D03*
X-24800000Y32762000D03*
X-24800000Y35302000D03*
X-22260000Y32762000D03*
X-22260000Y35302000D03*
X-19720000Y32762000D03*
X-19720000Y35302000D03*
X-17180001Y32762000D03*
X-17180000Y35302000D03*
X-14640000Y32762000D03*
X-14640000Y35302000D03*
X-12100000Y32762000D03*
X-12100000Y35302000D03*
X-9560000Y32762000D03*
X-9560000Y35302000D03*
X-7020001Y32762000D03*
X-7020000Y35302000D03*
G04 #@! TD*
D10*
G04 #@! TO.C,KiKit_MB_3_2*
X-12260600Y129002000D03*
G04 #@! TD*
G04 #@! TO.C,KiKit_MB_10_6*
X-61899000Y41002000D03*
G04 #@! TD*
G04 #@! TO.C,KiKit_MB_2_3*
X-64420199Y129002000D03*
G04 #@! TD*
G04 #@! TO.C,KiKit_MB_8_1*
X-61899000Y51002000D03*
G04 #@! TD*
G04 #@! TO.C,KiKit_MB_5_3*
X-10579801Y51002000D03*
G04 #@! TD*
D13*
G04 #@! TO.C,H3*
X-71000000Y11002000D03*
G04 #@! TD*
D11*
G04 #@! TO.C,J2*
X-67980000Y76762000D03*
D12*
X-67980000Y79302000D03*
X-65440000Y76762000D03*
X-65440000Y79302000D03*
X-62900001Y76762000D03*
X-62900000Y79302000D03*
X-60360000Y76762000D03*
X-60360000Y79302000D03*
X-57820000Y76762000D03*
X-57820000Y79302000D03*
X-55280000Y76762000D03*
X-55280000Y79302000D03*
X-52740000Y76762000D03*
X-52740000Y79302000D03*
X-50199999Y76762000D03*
X-50200000Y79302000D03*
X-47660000Y76762000D03*
X-47660000Y79302000D03*
X-45120000Y76762000D03*
X-45120000Y79302000D03*
X-42580000Y76762000D03*
X-42580000Y79302000D03*
X-40040001Y76762000D03*
X-40040000Y79302000D03*
X-37500000Y76762000D03*
X-37500000Y79302000D03*
X-34960000Y76762000D03*
X-34960000Y79302000D03*
X-32420000Y76762000D03*
X-32420000Y79302000D03*
X-29880001Y76762000D03*
X-29880000Y79302000D03*
X-27339999Y76762000D03*
X-27340000Y79302000D03*
X-24800000Y76762000D03*
X-24800000Y79302000D03*
X-22260000Y76762000D03*
X-22260000Y79302000D03*
X-19720000Y76762000D03*
X-19720000Y79302000D03*
X-17180001Y76762000D03*
X-17180000Y79302000D03*
X-14640000Y76762000D03*
X-14640000Y79302000D03*
X-12100000Y76762000D03*
X-12100000Y79302000D03*
X-9560000Y76762000D03*
X-9560000Y79302000D03*
X-7020001Y76762000D03*
X-7020000Y79302000D03*
G04 #@! TD*
D10*
G04 #@! TO.C,KiKit_MB_1_4*
X-11420200Y95002000D03*
G04 #@! TD*
G04 #@! TO.C,KiKit_MB_1_6*
X-13101000Y95002000D03*
G04 #@! TD*
D14*
G04 #@! TO.C,J3*
X-72440000Y61872000D03*
D15*
X-69900000Y68342000D03*
D16*
X-72440000Y67012000D03*
X-69900000Y65742000D03*
X-72440000Y64472000D03*
X-69900000Y63202000D03*
G04 #@! TD*
D10*
G04 #@! TO.C,KiKit_MB_7_4*
X-10579801Y85002000D03*
G04 #@! TD*
G04 #@! TO.C,KiKit_MB_6_3*
X-64420199Y85002000D03*
G04 #@! TD*
G04 #@! TO.C,KiKit_MB_3_3*
X-11420200Y129002000D03*
G04 #@! TD*
G04 #@! TO.C,KiKit_MB_5_4*
X-11420200Y51002000D03*
G04 #@! TD*
G04 #@! TO.C,KiKit_MB_11_2*
X-12260600Y41002000D03*
G04 #@! TD*
G04 #@! TO.C,KiKit_MB_10_2*
X-65260599Y41002000D03*
G04 #@! TD*
G04 #@! TO.C,KiKit_MB_10_4*
X-63579800Y41002000D03*
G04 #@! TD*
G04 #@! TO.C,KiKit_MB_5_6*
X-13101000Y51002000D03*
G04 #@! TD*
G04 #@! TO.C,KiKit_MB_5_2*
X-9739401Y51002000D03*
G04 #@! TD*
G04 #@! TO.C,KiKit_MB_11_5*
X-9739401Y41002000D03*
G04 #@! TD*
D17*
G04 #@! TO.C,J1*
X-15400000Y11002000D03*
D18*
X-59600000Y11002000D03*
G04 #@! TD*
D10*
G04 #@! TO.C,KiKit_MB_12_2*
X-62739400Y7002000D03*
G04 #@! TD*
D13*
G04 #@! TO.C,H4*
X-4000000Y99002000D03*
G04 #@! TD*
D10*
G04 #@! TO.C,KiKit_MB_3_5*
X-9739401Y129002000D03*
G04 #@! TD*
G04 #@! TO.C,KiKit_MB_8_3*
X-63579800Y51002000D03*
G04 #@! TD*
D13*
G04 #@! TO.C,H3*
X-71000000Y99002000D03*
G04 #@! TD*
D10*
G04 #@! TO.C,KiKit_MB_3_1*
X-13101000Y129002000D03*
G04 #@! TD*
G04 #@! TO.C,KiKit_MB_4_4*
X-64420199Y95002000D03*
G04 #@! TD*
G04 #@! TO.C,KiKit_MB_2_6*
X-61899000Y129002000D03*
G04 #@! TD*
G04 #@! TO.C,KiKit_MB_7_2*
X-12260600Y85002000D03*
G04 #@! TD*
G04 #@! TO.C,KiKit_MB_7_6*
X-8899001Y85002000D03*
G04 #@! TD*
G04 #@! TO.C,KiKit_MB_1_1*
X-8899001Y95002000D03*
G04 #@! TD*
D13*
G04 #@! TO.C,H4*
X-4000000Y11002000D03*
G04 #@! TD*
D10*
G04 #@! TO.C,KiKit_MB_11_3*
X-11420200Y41002000D03*
G04 #@! TD*
G04 #@! TO.C,KiKit_MB_3_6*
X-8899001Y129002000D03*
G04 #@! TD*
G04 #@! TO.C,KiKit_MB_4_2*
X-62739400Y95002000D03*
G04 #@! TD*
G04 #@! TO.C,KiKit_MB_7_5*
X-9739401Y85002000D03*
G04 #@! TD*
G04 #@! TO.C,KiKit_MB_10_5*
X-62739400Y41002000D03*
G04 #@! TD*
G04 #@! TO.C,KiKit_MB_9_5*
X-12260600Y7002000D03*
G04 #@! TD*
G04 #@! TO.C,KiKit_MB_10_3*
X-64420199Y41002000D03*
G04 #@! TD*
G04 #@! TO.C,KiKit_MB_8_4*
X-64420199Y51002000D03*
G04 #@! TD*
G04 #@! TO.C,KiKit_MB_7_1*
X-13101000Y85002000D03*
G04 #@! TD*
G04 #@! TO.C,KiKit_MB_2_4*
X-63579800Y129002000D03*
G04 #@! TD*
G04 #@! TO.C,KiKit_MB_8_6*
X-66100999Y51002000D03*
G04 #@! TD*
G04 #@! TO.C,KiKit_MB_4_5*
X-65260599Y95002000D03*
G04 #@! TD*
G04 #@! TO.C,KiKit_MB_6_6*
X-61899000Y85002000D03*
G04 #@! TD*
D11*
G04 #@! TO.C,J2*
X-67980000Y120762000D03*
D12*
X-67980000Y123302000D03*
X-65440000Y120762000D03*
X-65440000Y123302000D03*
X-62900001Y120762000D03*
X-62900000Y123302000D03*
X-60360000Y120762000D03*
X-60360000Y123302000D03*
X-57820000Y120762000D03*
X-57820000Y123302000D03*
X-55280000Y120762000D03*
X-55280000Y123302000D03*
X-52740000Y120762000D03*
X-52740000Y123302000D03*
X-50199999Y120762000D03*
X-50200000Y123302000D03*
X-47660000Y120762000D03*
X-47660000Y123302000D03*
X-45120000Y120762000D03*
X-45120000Y123302000D03*
X-42580000Y120762000D03*
X-42580000Y123302000D03*
X-40040001Y120762000D03*
X-40040000Y123302000D03*
X-37500000Y120762000D03*
X-37500000Y123302000D03*
X-34960000Y120762000D03*
X-34960000Y123302000D03*
X-32420000Y120762000D03*
X-32420000Y123302000D03*
X-29880001Y120762000D03*
X-29880000Y123302000D03*
X-27339999Y120762000D03*
X-27340000Y123302000D03*
X-24800000Y120762000D03*
X-24800000Y123302000D03*
X-22260000Y120762000D03*
X-22260000Y123302000D03*
X-19720000Y120762000D03*
X-19720000Y123302000D03*
X-17180001Y120762000D03*
X-17180000Y123302000D03*
X-14640000Y120762000D03*
X-14640000Y123302000D03*
X-12100000Y120762000D03*
X-12100000Y123302000D03*
X-9560000Y120762000D03*
X-9560000Y123302000D03*
X-7020001Y120762000D03*
X-7020000Y123302000D03*
G04 #@! TD*
D10*
G04 #@! TO.C,KiKit_MB_6_1*
X-66100999Y85002000D03*
G04 #@! TD*
G04 #@! TO.C,KiKit_MB_1_3*
X-10579801Y95002000D03*
G04 #@! TD*
G04 #@! TO.C,KiKit_MB_9_3*
X-10579801Y7002000D03*
G04 #@! TD*
G04 #@! TO.C,KiKit_MB_2_1*
X-66100999Y129002000D03*
G04 #@! TD*
G04 #@! TO.C,KiKit_MB_8_2*
X-62739400Y51002000D03*
G04 #@! TD*
G04 #@! TO.C,KiKit_MB_1_5*
X-12260600Y95002000D03*
G04 #@! TD*
D13*
G04 #@! TO.C,H4*
X-4000000Y55002000D03*
G04 #@! TD*
D10*
G04 #@! TO.C,KiKit_MB_12_1*
X-61899000Y7002000D03*
G04 #@! TD*
D13*
G04 #@! TO.C,H3*
X-71000000Y55002000D03*
G04 #@! TD*
D14*
G04 #@! TO.C,J3*
X-72440000Y105872000D03*
D15*
X-69900000Y112342000D03*
D16*
X-72440000Y111012000D03*
X-69900000Y109742000D03*
X-72440000Y108472000D03*
X-69900000Y107202000D03*
G04 #@! TD*
D10*
G04 #@! TO.C,KiKit_MB_10_1*
X-66100999Y41002000D03*
G04 #@! TD*
G04 #@! TO.C,KiKit_MB_11_6*
X-8899001Y41002000D03*
G04 #@! TD*
D14*
G04 #@! TO.C,J3*
X-72440000Y17872000D03*
D15*
X-69900000Y24342000D03*
D16*
X-72440000Y23012000D03*
X-69900000Y21742000D03*
X-72440000Y20472000D03*
X-69900000Y19202000D03*
G04 #@! TD*
D10*
G04 #@! TO.C,KiKit_MB_12_4*
X-64420199Y7002000D03*
G04 #@! TD*
G04 #@! TO.C,KiKit_MB_6_2*
X-65260599Y85002000D03*
G04 #@! TD*
G04 #@! TO.C,KiKit_MB_6_5*
X-62739400Y85002000D03*
G04 #@! TD*
G04 #@! TO.C,KiKit_MB_2_2*
X-65260599Y129002000D03*
G04 #@! TD*
G04 #@! TO.C,KiKit_MB_1_2*
X-9739401Y95002000D03*
G04 #@! TD*
G04 #@! TO.C,KiKit_MB_11_1*
X-13101000Y41002000D03*
G04 #@! TD*
G04 #@! TO.C,KiKit_MB_12_3*
X-63579800Y7002000D03*
G04 #@! TD*
G04 #@! TO.C,KiKit_MB_3_4*
X-10579801Y129002000D03*
G04 #@! TD*
G04 #@! TO.C,KiKit_MB_7_3*
X-11420200Y85002000D03*
G04 #@! TD*
D17*
G04 #@! TO.C,J1*
X-15400000Y55002000D03*
D18*
X-59600000Y55002000D03*
G04 #@! TD*
D10*
G04 #@! TO.C,KiKit_MB_6_4*
X-63579800Y85002000D03*
G04 #@! TD*
G04 #@! TO.C,KiKit_MB_8_5*
X-65260599Y51002000D03*
G04 #@! TD*
G04 #@! TO.C,KiKit_MB_12_5*
X-65260599Y7002000D03*
G04 #@! TD*
G04 #@! TO.C,KiKit_MB_12_6*
X-66100999Y7002000D03*
G04 #@! TD*
G04 #@! TO.C,KiKit_MB_9_6*
X-13101000Y7002000D03*
G04 #@! TD*
G04 #@! TO.C,KiKit_MB_2_5*
X-62739400Y129002000D03*
G04 #@! TD*
G04 #@! TO.C,KiKit_MB_4_6*
X-66100999Y95002000D03*
G04 #@! TD*
G04 #@! TO.C,KiKit_MB_5_1*
X-8899001Y51002000D03*
G04 #@! TD*
D17*
G04 #@! TO.C,J1*
X-15400000Y99002000D03*
D18*
X-59600000Y99002000D03*
G04 #@! TD*
D10*
G04 #@! TO.C,KiKit_MB_9_4*
X-11420200Y7002000D03*
G04 #@! TD*
D19*
G04 #@! TO.C,KiKit_FID_B_2*
X-2500000Y133503500D03*
G04 #@! TD*
G04 #@! TO.C,KiKit_FID_B_3*
X-72500000Y2500000D03*
G04 #@! TD*
G04 #@! TO.C,KiKit_FID_B_1*
X-72500000Y133503500D03*
G04 #@! TD*
G36*
X-56961Y72632315D02*
G01*
X-11206Y72579511D01*
X0Y72528000D01*
X0Y63576000D01*
X-19685Y63508961D01*
X-72489Y63463206D01*
X-124000Y63452000D01*
X-2376000Y63452000D01*
X-2443039Y63471685D01*
X-2488794Y63524489D01*
X-2500000Y63576000D01*
X-2500000Y72528000D01*
X-2480315Y72595039D01*
X-2427511Y72640794D01*
X-2376000Y72652000D01*
X-124000Y72652000D01*
X-56961Y72632315D01*
G37*
G36*
X-56961Y28632315D02*
G01*
X-11206Y28579511D01*
X0Y28528000D01*
X0Y19576000D01*
X-19685Y19508961D01*
X-72489Y19463206D01*
X-124000Y19452000D01*
X-2376000Y19452000D01*
X-2443039Y19471685D01*
X-2488794Y19524489D01*
X-2500000Y19576000D01*
X-2500000Y28528000D01*
X-2480315Y28595039D01*
X-2427511Y28640794D01*
X-2376000Y28652000D01*
X-124000Y28652000D01*
X-56961Y28632315D01*
G37*
G36*
X-56961Y116632315D02*
G01*
X-11206Y116579511D01*
X0Y116528000D01*
X0Y107576000D01*
X-19685Y107508961D01*
X-72489Y107463206D01*
X-124000Y107452000D01*
X-2376000Y107452000D01*
X-2443039Y107471685D01*
X-2488794Y107524489D01*
X-2500000Y107576000D01*
X-2500000Y116528000D01*
X-2480315Y116595039D01*
X-2427511Y116640794D01*
X-2376000Y116652000D01*
X-124000Y116652000D01*
X-56961Y116632315D01*
G37*
M02*
