%TF.GenerationSoftware,KiCad,Pcbnew,8.0.3*%
%TF.CreationDate,2024-06-14T09:01:22-07:00*%
%TF.ProjectId,squishy-main-panel,73717569-7368-4792-9d6d-61696e2d7061,2*%
%TF.SameCoordinates,PX102721c0PY8e19cec*%
%TF.FileFunction,Soldermask,Top*%
%TF.FilePolarity,Negative*%
%FSLAX46Y46*%
G04 Gerber Fmt 4.6, Leading zero omitted, Abs format (unit mm)*
G04 Created by KiCad (PCBNEW 8.0.3) date 2024-06-14 09:01:22*
%MOMM*%
%LPD*%
G01*
G04 APERTURE LIST*
G04 Aperture macros list*
%AMRoundRect*
0 Rectangle with rounded corners*
0 $1 Rounding radius*
0 $2 $3 $4 $5 $6 $7 $8 $9 X,Y pos of 4 corners*
0 Add a 4 corners polygon primitive as box body*
4,1,4,$2,$3,$4,$5,$6,$7,$8,$9,$2,$3,0*
0 Add four circle primitives for the rounded corners*
1,1,$1+$1,$2,$3*
1,1,$1+$1,$4,$5*
1,1,$1+$1,$6,$7*
1,1,$1+$1,$8,$9*
0 Add four rect primitives between the rounded corners*
20,1,$1+$1,$2,$3,$4,$5,0*
20,1,$1+$1,$4,$5,$6,$7,0*
20,1,$1+$1,$6,$7,$8,$9,0*
20,1,$1+$1,$8,$9,$2,$3,0*%
%AMFreePoly0*
4,1,16,0.535355,0.785355,0.541603,0.777735,1.041603,0.027735,1.049029,-0.009806,1.041603,-0.027735,0.541603,-0.777735,0.509806,-0.799029,0.500000,-0.800000,-0.500000,-0.800000,-0.535355,-0.785355,-0.550000,-0.750000,-0.550000,0.750000,-0.535355,0.785355,-0.500000,0.800000,0.500000,0.800000,0.535355,0.785355,0.535355,0.785355,$1*%
%AMFreePoly1*
4,1,16,0.535355,0.785355,0.550000,0.750000,0.550000,-0.750000,0.535355,-0.785355,0.500000,-0.800000,-0.650000,-0.800000,-0.685355,-0.785355,-0.700000,-0.750000,-0.691603,-0.722265,-0.210093,0.000000,-0.691603,0.722265,-0.699029,0.759806,-0.677735,0.791603,-0.650000,0.800000,0.500000,0.800000,0.535355,0.785355,0.535355,0.785355,$1*%
%AMFreePoly2*
4,1,37,-0.662145,2.810355,-0.647500,2.775000,-0.647500,2.330000,2.502500,2.330000,2.537855,2.315355,2.552500,2.280000,2.552500,1.530000,2.537855,1.494645,2.502500,1.480000,2.077500,1.480000,2.077500,-1.480000,2.502500,-1.480000,2.537855,-1.494645,2.552500,-1.530000,2.552500,-2.280000,2.537855,-2.315355,2.502500,-2.330000,-0.647500,-2.330000,-0.647500,-2.775000,-0.662145,-2.810355,
-0.697500,-2.825000,-1.602500,-2.825000,-1.637855,-2.810355,-1.652500,-2.775000,-1.652500,-2.330000,-2.027500,-2.330000,-2.062855,-2.315355,-2.077500,-2.280000,-2.077500,2.280000,-2.062855,2.315355,-2.027500,2.330000,-1.652500,2.330000,-1.652500,2.775000,-1.637855,2.810355,-1.602500,2.825000,-0.697500,2.825000,-0.662145,2.810355,-0.662145,2.810355,$1*%
G04 Aperture macros list end*
%ADD10C,0.010000*%
%ADD11C,0.500000*%
%ADD12RoundRect,0.225000X-0.275000X-0.225000X0.275000X-0.225000X0.275000X0.225000X-0.275000X0.225000X0*%
%ADD13RoundRect,0.225000X-0.225000X0.275000X-0.225000X-0.275000X0.225000X-0.275000X0.225000X0.275000X0*%
%ADD14RoundRect,0.118750X0.118750X0.131250X-0.118750X0.131250X-0.118750X-0.131250X0.118750X-0.131250X0*%
%ADD15RoundRect,0.050000X0.500000X0.800000X-0.500000X0.800000X-0.500000X-0.800000X0.500000X-0.800000X0*%
%ADD16RoundRect,0.200000X0.200000X0.350000X-0.200000X0.350000X-0.200000X-0.350000X0.200000X-0.350000X0*%
%ADD17RoundRect,0.175000X0.225000X0.175000X-0.225000X0.175000X-0.225000X-0.175000X0.225000X-0.175000X0*%
%ADD18RoundRect,0.268500X-0.581500X-0.481500X0.581500X-0.481500X0.581500X0.481500X-0.581500X0.481500X0*%
%ADD19RoundRect,0.087500X-0.462500X-0.087500X0.462500X-0.087500X0.462500X0.087500X-0.462500X0.087500X0*%
%ADD20RoundRect,0.087500X-0.087500X-0.462500X0.087500X-0.462500X0.087500X0.462500X-0.087500X0.462500X0*%
%ADD21RoundRect,0.259200X-1.090800X-1.090800X1.090800X-1.090800X1.090800X1.090800X-1.090800X1.090800X0*%
%ADD22RoundRect,0.150000X0.247487X-0.035355X-0.035355X0.247487X-0.247487X0.035355X0.035355X-0.247487X0*%
%ADD23RoundRect,0.225000X0.225000X-0.275000X0.225000X0.275000X-0.225000X0.275000X-0.225000X-0.275000X0*%
%ADD24RoundRect,0.217100X-0.432900X-0.432900X0.432900X-0.432900X0.432900X0.432900X-0.432900X0.432900X0*%
%ADD25RoundRect,0.100000X0.272500X0.100000X-0.272500X0.100000X-0.272500X-0.100000X0.272500X-0.100000X0*%
%ADD26RoundRect,0.050000X0.505000X0.850000X-0.505000X0.850000X-0.505000X-0.850000X0.505000X-0.850000X0*%
%ADD27RoundRect,0.150000X0.150000X-0.200000X0.150000X0.200000X-0.150000X0.200000X-0.150000X-0.200000X0*%
%ADD28RoundRect,0.125000X0.125000X-0.525000X0.125000X0.525000X-0.125000X0.525000X-0.125000X-0.525000X0*%
%ADD29RoundRect,0.259000X1.791000X-1.491000X1.791000X1.491000X-1.791000X1.491000X-1.791000X-1.491000X0*%
%ADD30C,1.500000*%
%ADD31RoundRect,0.267857X1.482143X-0.482143X1.482143X0.482143X-1.482143X0.482143X-1.482143X-0.482143X0*%
%ADD32RoundRect,0.217100X0.432900X-0.432900X0.432900X0.432900X-0.432900X0.432900X-0.432900X-0.432900X0*%
%ADD33RoundRect,0.262500X0.312500X0.262500X-0.312500X0.262500X-0.312500X-0.262500X0.312500X-0.262500X0*%
%ADD34C,6.500000*%
%ADD35RoundRect,0.150000X0.200000X0.150000X-0.200000X0.150000X-0.200000X-0.150000X0.200000X-0.150000X0*%
%ADD36RoundRect,0.227027X-1.217973X0.192973X-1.217973X-0.192973X1.217973X-0.192973X1.217973X0.192973X0*%
%ADD37RoundRect,0.270000X0.655000X-0.405000X0.655000X0.405000X-0.655000X0.405000X-0.655000X-0.405000X0*%
%ADD38RoundRect,0.100000X-0.125000X0.100000X-0.125000X-0.100000X0.125000X-0.100000X0.125000X0.100000X0*%
%ADD39RoundRect,0.205000X0.205000X0.370000X-0.205000X0.370000X-0.205000X-0.370000X0.205000X-0.370000X0*%
%ADD40RoundRect,0.087500X0.087500X-0.300000X0.087500X0.300000X-0.087500X0.300000X-0.087500X-0.300000X0*%
%ADD41RoundRect,0.087500X0.300000X-0.087500X0.300000X0.087500X-0.300000X0.087500X-0.300000X-0.087500X0*%
%ADD42RoundRect,0.050000X0.725000X-0.725000X0.725000X0.725000X-0.725000X0.725000X-0.725000X-0.725000X0*%
%ADD43RoundRect,0.262500X0.262500X-0.312500X0.262500X0.312500X-0.262500X0.312500X-0.262500X-0.312500X0*%
%ADD44RoundRect,0.255297X2.194703X2.154703X-2.194703X2.154703X-2.194703X-2.154703X2.194703X-2.154703X0*%
%ADD45RoundRect,0.269685X0.480315X0.415315X-0.480315X0.415315X-0.480315X-0.415315X0.480315X-0.415315X0*%
%ADD46RoundRect,0.150000X-0.150000X0.200000X-0.150000X-0.200000X0.150000X-0.200000X0.150000X0.200000X0*%
%ADD47RoundRect,0.262500X-0.787500X2.087500X-0.787500X-2.087500X0.787500X-2.087500X0.787500X2.087500X0*%
%ADD48O,2.100000X4.300000*%
%ADD49O,4.300000X2.100000*%
%ADD50RoundRect,0.225000X0.275000X0.225000X-0.275000X0.225000X-0.275000X-0.225000X0.275000X-0.225000X0*%
%ADD51FreePoly0,0.000000*%
%ADD52FreePoly1,0.000000*%
%ADD53RoundRect,0.260361X2.456639X-0.996139X2.456639X0.996139X-2.456639X0.996139X-2.456639X-0.996139X0*%
%ADD54C,1.000000*%
%ADD55RoundRect,0.127500X0.282500X0.127500X-0.282500X0.127500X-0.282500X-0.127500X0.282500X-0.127500X0*%
%ADD56RoundRect,0.050000X0.255000X0.292500X-0.255000X0.292500X-0.255000X-0.292500X0.255000X-0.292500X0*%
%ADD57RoundRect,0.050000X1.995000X0.865000X-1.995000X0.865000X-1.995000X-0.865000X1.995000X-0.865000X0*%
%ADD58RoundRect,0.050000X0.205000X0.235000X-0.205000X0.235000X-0.205000X-0.235000X0.205000X-0.235000X0*%
%ADD59RoundRect,0.264045X-1.758455X-0.675955X1.758455X-0.675955X1.758455X0.675955X-1.758455X0.675955X0*%
%ADD60RoundRect,0.269756X-1.752744X-1.112744X1.752744X-1.112744X1.752744X1.112744X-1.752744X1.112744X0*%
%ADD61RoundRect,0.269756X-1.747744X-1.112744X1.747744X-1.112744X1.747744X1.112744X-1.747744X1.112744X0*%
%ADD62RoundRect,0.062500X0.187500X0.337500X-0.187500X0.337500X-0.187500X-0.337500X0.187500X-0.337500X0*%
%ADD63RoundRect,0.125000X-0.250000X-0.125000X0.250000X-0.125000X0.250000X0.125000X-0.250000X0.125000X0*%
%ADD64RoundRect,0.150000X-0.200000X-0.150000X0.200000X-0.150000X0.200000X0.150000X-0.200000X0.150000X0*%
%ADD65RoundRect,0.050000X0.850000X0.850000X-0.850000X0.850000X-0.850000X-0.850000X0.850000X-0.850000X0*%
%ADD66O,1.800000X1.800000*%
%ADD67C,0.850000*%
%ADD68RoundRect,0.270400X-0.379600X-0.679600X0.379600X-0.679600X0.379600X0.679600X-0.379600X0.679600X0*%
%ADD69RoundRect,0.265625X0.584375X-1.534375X0.584375X1.534375X-0.584375X1.534375X-0.584375X-1.534375X0*%
%ADD70C,0.750000*%
%ADD71O,0.750000X1.050000*%
%ADD72RoundRect,0.112500X-0.487500X0.112500X-0.487500X-0.112500X0.487500X-0.112500X0.487500X0.112500X0*%
%ADD73C,0.700000*%
%ADD74C,0.600000*%
%ADD75O,2.100000X1.100000*%
%ADD76O,1.700000X1.100000*%
%ADD77RoundRect,0.261628X-2.038372X0.863372X-2.038372X-0.863372X2.038372X-0.863372X2.038372X0.863372X0*%
%ADD78RoundRect,0.087500X0.087500X-0.312500X0.087500X0.312500X-0.087500X0.312500X-0.087500X-0.312500X0*%
%ADD79RoundRect,0.275000X1.125000X-0.275000X1.125000X0.275000X-1.125000X0.275000X-1.125000X-0.275000X0*%
%ADD80RoundRect,0.150000X-0.035355X-0.247487X0.247487X0.035355X0.035355X0.247487X-0.247487X-0.035355X0*%
%ADD81RoundRect,0.100000X-0.450000X-0.100000X0.450000X-0.100000X0.450000X0.100000X-0.450000X0.100000X0*%
%ADD82RoundRect,0.100000X0.100000X-0.450000X0.100000X0.450000X-0.100000X0.450000X-0.100000X-0.450000X0*%
%ADD83RoundRect,0.262500X-0.787500X-1.787500X0.787500X-1.787500X0.787500X1.787500X-0.787500X1.787500X0*%
%ADD84RoundRect,0.225000X0.035355X0.353553X-0.353553X-0.035355X-0.035355X-0.353553X0.353553X0.035355X0*%
%ADD85RoundRect,0.087500X-0.362500X0.087500X-0.362500X-0.087500X0.362500X-0.087500X0.362500X0.087500X0*%
%ADD86RoundRect,0.112500X-0.337500X0.112500X-0.337500X-0.112500X0.337500X-0.112500X0.337500X0.112500X0*%
%ADD87RoundRect,0.087500X0.087500X-0.212500X0.087500X0.212500X-0.087500X0.212500X-0.087500X-0.212500X0*%
%ADD88RoundRect,0.050000X0.800000X-0.450000X0.800000X0.450000X-0.800000X0.450000X-0.800000X-0.450000X0*%
%ADD89RoundRect,0.200000X-0.318198X-0.035355X-0.035355X-0.318198X0.318198X0.035355X0.035355X0.318198X0*%
%ADD90C,0.800000*%
%ADD91C,1.200000*%
%ADD92RoundRect,0.125000X-0.125000X-0.925000X0.125000X-0.925000X0.125000X0.925000X-0.125000X0.925000X0*%
%ADD93RoundRect,0.217100X0.432900X0.432900X-0.432900X0.432900X-0.432900X-0.432900X0.432900X-0.432900X0*%
%ADD94RoundRect,0.250000X-0.350000X0.250000X-0.350000X-0.250000X0.350000X-0.250000X0.350000X0.250000X0*%
%ADD95RoundRect,0.087500X-0.375000X-0.087500X0.375000X-0.087500X0.375000X0.087500X-0.375000X0.087500X0*%
%ADD96RoundRect,0.087500X-0.087500X-0.375000X0.087500X-0.375000X0.087500X0.375000X-0.087500X0.375000X0*%
%ADD97RoundRect,0.050000X-1.300000X-1.300000X1.300000X-1.300000X1.300000X1.300000X-1.300000X1.300000X0*%
%ADD98RoundRect,0.270000X-0.655000X0.405000X-0.655000X-0.405000X0.655000X-0.405000X0.655000X0.405000X0*%
%ADD99RoundRect,0.212500X0.337500X0.212500X-0.337500X0.212500X-0.337500X-0.212500X0.337500X-0.212500X0*%
%ADD100FreePoly2,180.000000*%
%ADD101C,1.300000*%
G04 APERTURE END LIST*
D10*
%TO.C,G1*%
X-105281184Y17349486D02*
X-105271281Y17341925D01*
X-105252552Y17327174D01*
X-105226999Y17306824D01*
X-105196622Y17282469D01*
X-105164620Y17256671D01*
X-105005796Y17131823D01*
X-104840403Y17008474D01*
X-104672305Y16889385D01*
X-104505367Y16777314D01*
X-104394622Y16706612D01*
X-104160256Y16566785D01*
X-103926781Y16440600D01*
X-103693555Y16327841D01*
X-103459936Y16228293D01*
X-103225282Y16141740D01*
X-102988949Y16067968D01*
X-102750297Y16006762D01*
X-102508682Y15957905D01*
X-102263462Y15921185D01*
X-102013995Y15896384D01*
X-101965036Y15892934D01*
X-101917290Y15890492D01*
X-101858355Y15888598D01*
X-101790971Y15887251D01*
X-101717881Y15886450D01*
X-101641824Y15886195D01*
X-101565542Y15886485D01*
X-101491775Y15887320D01*
X-101423265Y15888699D01*
X-101362752Y15890621D01*
X-101313307Y15893066D01*
X-101216368Y15900119D01*
X-101111439Y15909476D01*
X-101004040Y15920569D01*
X-100899692Y15932828D01*
X-100806363Y15945331D01*
X-100714632Y15959156D01*
X-100628169Y15973588D01*
X-100544934Y15989123D01*
X-100462884Y16006257D01*
X-100379977Y16025484D01*
X-100294172Y16047302D01*
X-100203425Y16072205D01*
X-100105696Y16100688D01*
X-99998942Y16133248D01*
X-99887868Y16168228D01*
X-99790138Y16199186D01*
X-99704018Y16226017D01*
X-99627941Y16249150D01*
X-99560342Y16269014D01*
X-99499656Y16286041D01*
X-99444316Y16300660D01*
X-99392757Y16313300D01*
X-99343413Y16324393D01*
X-99294720Y16334368D01*
X-99257050Y16341491D01*
X-99114368Y16362712D01*
X-98977252Y16372763D01*
X-98843878Y16371430D01*
X-98712418Y16358502D01*
X-98581048Y16333766D01*
X-98447941Y16297011D01*
X-98311271Y16248024D01*
X-98255582Y16225120D01*
X-98207831Y16204081D01*
X-98160575Y16181949D01*
X-98116575Y16160116D01*
X-98078592Y16139973D01*
X-98049385Y16122910D01*
X-98038775Y16115855D01*
X-98037520Y16114797D01*
X-98036535Y16113271D01*
X-98035962Y16110875D01*
X-98035944Y16107206D01*
X-98036622Y16101863D01*
X-98038139Y16094445D01*
X-98040639Y16084550D01*
X-98044262Y16071776D01*
X-98049152Y16055720D01*
X-98055450Y16035982D01*
X-98063300Y16012160D01*
X-98072843Y15983852D01*
X-98084223Y15950656D01*
X-98097580Y15912171D01*
X-98113059Y15867994D01*
X-98130801Y15817724D01*
X-98150948Y15760960D01*
X-98173643Y15697299D01*
X-98199029Y15626339D01*
X-98227247Y15547680D01*
X-98258441Y15460919D01*
X-98292752Y15365654D01*
X-98330323Y15261484D01*
X-98371297Y15148007D01*
X-98415815Y15024821D01*
X-98464020Y14891525D01*
X-98516055Y14747717D01*
X-98572061Y14592994D01*
X-98632182Y14426956D01*
X-98696560Y14249200D01*
X-98765336Y14059325D01*
X-98838654Y13856929D01*
X-98873814Y13759873D01*
X-98937069Y13585263D01*
X-98999114Y13413995D01*
X-99059780Y13246534D01*
X-99118898Y13083345D01*
X-99176300Y12924895D01*
X-99231818Y12771648D01*
X-99285282Y12624071D01*
X-99336524Y12482628D01*
X-99385375Y12347787D01*
X-99431666Y12220011D01*
X-99475229Y12099768D01*
X-99515895Y11987522D01*
X-99553495Y11883739D01*
X-99587861Y11788885D01*
X-99618823Y11703426D01*
X-99646214Y11627827D01*
X-99669865Y11562553D01*
X-99689606Y11508070D01*
X-99705270Y11464845D01*
X-99716687Y11433342D01*
X-99723689Y11414027D01*
X-99726103Y11407375D01*
X-99733952Y11404172D01*
X-99753069Y11401747D01*
X-99780804Y11400141D01*
X-99814503Y11399396D01*
X-99851514Y11399552D01*
X-99889185Y11400650D01*
X-99924864Y11402732D01*
X-99940145Y11404058D01*
X-99993888Y11410286D01*
X-100048416Y11418340D01*
X-100102033Y11427801D01*
X-100153040Y11438251D01*
X-100199738Y11449269D01*
X-100240428Y11460439D01*
X-100273412Y11471341D01*
X-100296992Y11481556D01*
X-100309468Y11490666D01*
X-100310911Y11495453D01*
X-100308495Y11502924D01*
X-100301830Y11522957D01*
X-100291135Y11554908D01*
X-100276627Y11598131D01*
X-100258523Y11651982D01*
X-100237041Y11715818D01*
X-100212396Y11788993D01*
X-100184808Y11870863D01*
X-100154492Y11960783D01*
X-100121667Y12058110D01*
X-100086549Y12162197D01*
X-100049356Y12272402D01*
X-100010305Y12388079D01*
X-99969613Y12508585D01*
X-99927497Y12633273D01*
X-99884175Y12761501D01*
X-99880491Y12772403D01*
X-99837091Y12900891D01*
X-99794901Y13025896D01*
X-99754136Y13146771D01*
X-99715012Y13262874D01*
X-99677746Y13373559D01*
X-99642554Y13478183D01*
X-99609651Y13576100D01*
X-99579255Y13666667D01*
X-99551581Y13749238D01*
X-99526845Y13823170D01*
X-99505264Y13887819D01*
X-99487053Y13942539D01*
X-99472428Y13986687D01*
X-99461607Y14019617D01*
X-99454804Y14040686D01*
X-99452236Y14049250D01*
X-99452220Y14049380D01*
X-99457585Y14057122D01*
X-99472100Y14070647D01*
X-99493395Y14087888D01*
X-99513211Y14102601D01*
X-99532128Y14115710D01*
X-99551098Y14127686D01*
X-99571923Y14139377D01*
X-99596403Y14151634D01*
X-99626336Y14165308D01*
X-99663525Y14181248D01*
X-99709768Y14200305D01*
X-99766867Y14223330D01*
X-99779827Y14228517D01*
X-99879876Y14268036D01*
X-99968918Y14302007D01*
X-100048554Y14330820D01*
X-100120389Y14354869D01*
X-100186025Y14374546D01*
X-100247067Y14390242D01*
X-100305116Y14402351D01*
X-100361777Y14411265D01*
X-100418652Y14417375D01*
X-100477345Y14421075D01*
X-100539459Y14422757D01*
X-100574448Y14422964D01*
X-100639721Y14422129D01*
X-100702478Y14419438D01*
X-100765778Y14414595D01*
X-100832679Y14407303D01*
X-100906241Y14397265D01*
X-100989522Y14384183D01*
X-101011437Y14380534D01*
X-101081227Y14369111D01*
X-101143395Y14359740D01*
X-101200524Y14352228D01*
X-101255199Y14346380D01*
X-101310000Y14342000D01*
X-101367513Y14338896D01*
X-101430319Y14336872D01*
X-101501002Y14335735D01*
X-101582145Y14335289D01*
X-101613032Y14335261D01*
X-101690424Y14335401D01*
X-101756471Y14335924D01*
X-101813769Y14336972D01*
X-101864913Y14338686D01*
X-101912496Y14341208D01*
X-101959113Y14344680D01*
X-102007359Y14349243D01*
X-102059829Y14355039D01*
X-102119116Y14362210D01*
X-102128839Y14363423D01*
X-102254815Y14381863D01*
X-102388832Y14406389D01*
X-102526870Y14436093D01*
X-102664910Y14470068D01*
X-102798933Y14507408D01*
X-102885701Y14534251D01*
X-103098843Y14609453D01*
X-103304735Y14694762D01*
X-103502898Y14789816D01*
X-103692851Y14894253D01*
X-103874111Y15007711D01*
X-104046199Y15129829D01*
X-104208634Y15260245D01*
X-104360935Y15398596D01*
X-104502620Y15544522D01*
X-104633210Y15697660D01*
X-104752223Y15857648D01*
X-104853709Y16014961D01*
X-104874780Y16051585D01*
X-104900482Y16098615D01*
X-104929671Y16153768D01*
X-104961204Y16214763D01*
X-104993938Y16279316D01*
X-105026728Y16345144D01*
X-105058433Y16409966D01*
X-105087909Y16471499D01*
X-105114011Y16527459D01*
X-105135598Y16575565D01*
X-105142262Y16591035D01*
X-105194381Y16730334D01*
X-105235995Y16877268D01*
X-105266658Y17029816D01*
X-105285922Y17185957D01*
X-105291058Y17263028D01*
X-105295700Y17359818D01*
X-105281184Y17349486D01*
G36*
X-105281184Y17349486D02*
G01*
X-105271281Y17341925D01*
X-105252552Y17327174D01*
X-105226999Y17306824D01*
X-105196622Y17282469D01*
X-105164620Y17256671D01*
X-105005796Y17131823D01*
X-104840403Y17008474D01*
X-104672305Y16889385D01*
X-104505367Y16777314D01*
X-104394622Y16706612D01*
X-104160256Y16566785D01*
X-103926781Y16440600D01*
X-103693555Y16327841D01*
X-103459936Y16228293D01*
X-103225282Y16141740D01*
X-102988949Y16067968D01*
X-102750297Y16006762D01*
X-102508682Y15957905D01*
X-102263462Y15921185D01*
X-102013995Y15896384D01*
X-101965036Y15892934D01*
X-101917290Y15890492D01*
X-101858355Y15888598D01*
X-101790971Y15887251D01*
X-101717881Y15886450D01*
X-101641824Y15886195D01*
X-101565542Y15886485D01*
X-101491775Y15887320D01*
X-101423265Y15888699D01*
X-101362752Y15890621D01*
X-101313307Y15893066D01*
X-101216368Y15900119D01*
X-101111439Y15909476D01*
X-101004040Y15920569D01*
X-100899692Y15932828D01*
X-100806363Y15945331D01*
X-100714632Y15959156D01*
X-100628169Y15973588D01*
X-100544934Y15989123D01*
X-100462884Y16006257D01*
X-100379977Y16025484D01*
X-100294172Y16047302D01*
X-100203425Y16072205D01*
X-100105696Y16100688D01*
X-99998942Y16133248D01*
X-99887868Y16168228D01*
X-99790138Y16199186D01*
X-99704018Y16226017D01*
X-99627941Y16249150D01*
X-99560342Y16269014D01*
X-99499656Y16286041D01*
X-99444316Y16300660D01*
X-99392757Y16313300D01*
X-99343413Y16324393D01*
X-99294720Y16334368D01*
X-99257050Y16341491D01*
X-99114368Y16362712D01*
X-98977252Y16372763D01*
X-98843878Y16371430D01*
X-98712418Y16358502D01*
X-98581048Y16333766D01*
X-98447941Y16297011D01*
X-98311271Y16248024D01*
X-98255582Y16225120D01*
X-98207831Y16204081D01*
X-98160575Y16181949D01*
X-98116575Y16160116D01*
X-98078592Y16139973D01*
X-98049385Y16122910D01*
X-98038775Y16115855D01*
X-98037520Y16114797D01*
X-98036535Y16113271D01*
X-98035962Y16110875D01*
X-98035944Y16107206D01*
X-98036622Y16101863D01*
X-98038139Y16094445D01*
X-98040639Y16084550D01*
X-98044262Y16071776D01*
X-98049152Y16055720D01*
X-98055450Y16035982D01*
X-98063300Y16012160D01*
X-98072843Y15983852D01*
X-98084223Y15950656D01*
X-98097580Y15912171D01*
X-98113059Y15867994D01*
X-98130801Y15817724D01*
X-98150948Y15760960D01*
X-98173643Y15697299D01*
X-98199029Y15626339D01*
X-98227247Y15547680D01*
X-98258441Y15460919D01*
X-98292752Y15365654D01*
X-98330323Y15261484D01*
X-98371297Y15148007D01*
X-98415815Y15024821D01*
X-98464020Y14891525D01*
X-98516055Y14747717D01*
X-98572061Y14592994D01*
X-98632182Y14426956D01*
X-98696560Y14249200D01*
X-98765336Y14059325D01*
X-98838654Y13856929D01*
X-98873814Y13759873D01*
X-98937069Y13585263D01*
X-98999114Y13413995D01*
X-99059780Y13246534D01*
X-99118898Y13083345D01*
X-99176300Y12924895D01*
X-99231818Y12771648D01*
X-99285282Y12624071D01*
X-99336524Y12482628D01*
X-99385375Y12347787D01*
X-99431666Y12220011D01*
X-99475229Y12099768D01*
X-99515895Y11987522D01*
X-99553495Y11883739D01*
X-99587861Y11788885D01*
X-99618823Y11703426D01*
X-99646214Y11627827D01*
X-99669865Y11562553D01*
X-99689606Y11508070D01*
X-99705270Y11464845D01*
X-99716687Y11433342D01*
X-99723689Y11414027D01*
X-99726103Y11407375D01*
X-99733952Y11404172D01*
X-99753069Y11401747D01*
X-99780804Y11400141D01*
X-99814503Y11399396D01*
X-99851514Y11399552D01*
X-99889185Y11400650D01*
X-99924864Y11402732D01*
X-99940145Y11404058D01*
X-99993888Y11410286D01*
X-100048416Y11418340D01*
X-100102033Y11427801D01*
X-100153040Y11438251D01*
X-100199738Y11449269D01*
X-100240428Y11460439D01*
X-100273412Y11471341D01*
X-100296992Y11481556D01*
X-100309468Y11490666D01*
X-100310911Y11495453D01*
X-100308495Y11502924D01*
X-100301830Y11522957D01*
X-100291135Y11554908D01*
X-100276627Y11598131D01*
X-100258523Y11651982D01*
X-100237041Y11715818D01*
X-100212396Y11788993D01*
X-100184808Y11870863D01*
X-100154492Y11960783D01*
X-100121667Y12058110D01*
X-100086549Y12162197D01*
X-100049356Y12272402D01*
X-100010305Y12388079D01*
X-99969613Y12508585D01*
X-99927497Y12633273D01*
X-99884175Y12761501D01*
X-99880491Y12772403D01*
X-99837091Y12900891D01*
X-99794901Y13025896D01*
X-99754136Y13146771D01*
X-99715012Y13262874D01*
X-99677746Y13373559D01*
X-99642554Y13478183D01*
X-99609651Y13576100D01*
X-99579255Y13666667D01*
X-99551581Y13749238D01*
X-99526845Y13823170D01*
X-99505264Y13887819D01*
X-99487053Y13942539D01*
X-99472428Y13986687D01*
X-99461607Y14019617D01*
X-99454804Y14040686D01*
X-99452236Y14049250D01*
X-99452220Y14049380D01*
X-99457585Y14057122D01*
X-99472100Y14070647D01*
X-99493395Y14087888D01*
X-99513211Y14102601D01*
X-99532128Y14115710D01*
X-99551098Y14127686D01*
X-99571923Y14139377D01*
X-99596403Y14151634D01*
X-99626336Y14165308D01*
X-99663525Y14181248D01*
X-99709768Y14200305D01*
X-99766867Y14223330D01*
X-99779827Y14228517D01*
X-99879876Y14268036D01*
X-99968918Y14302007D01*
X-100048554Y14330820D01*
X-100120389Y14354869D01*
X-100186025Y14374546D01*
X-100247067Y14390242D01*
X-100305116Y14402351D01*
X-100361777Y14411265D01*
X-100418652Y14417375D01*
X-100477345Y14421075D01*
X-100539459Y14422757D01*
X-100574448Y14422964D01*
X-100639721Y14422129D01*
X-100702478Y14419438D01*
X-100765778Y14414595D01*
X-100832679Y14407303D01*
X-100906241Y14397265D01*
X-100989522Y14384183D01*
X-101011437Y14380534D01*
X-101081227Y14369111D01*
X-101143395Y14359740D01*
X-101200524Y14352228D01*
X-101255199Y14346380D01*
X-101310000Y14342000D01*
X-101367513Y14338896D01*
X-101430319Y14336872D01*
X-101501002Y14335735D01*
X-101582145Y14335289D01*
X-101613032Y14335261D01*
X-101690424Y14335401D01*
X-101756471Y14335924D01*
X-101813769Y14336972D01*
X-101864913Y14338686D01*
X-101912496Y14341208D01*
X-101959113Y14344680D01*
X-102007359Y14349243D01*
X-102059829Y14355039D01*
X-102119116Y14362210D01*
X-102128839Y14363423D01*
X-102254815Y14381863D01*
X-102388832Y14406389D01*
X-102526870Y14436093D01*
X-102664910Y14470068D01*
X-102798933Y14507408D01*
X-102885701Y14534251D01*
X-103098843Y14609453D01*
X-103304735Y14694762D01*
X-103502898Y14789816D01*
X-103692851Y14894253D01*
X-103874111Y15007711D01*
X-104046199Y15129829D01*
X-104208634Y15260245D01*
X-104360935Y15398596D01*
X-104502620Y15544522D01*
X-104633210Y15697660D01*
X-104752223Y15857648D01*
X-104853709Y16014961D01*
X-104874780Y16051585D01*
X-104900482Y16098615D01*
X-104929671Y16153768D01*
X-104961204Y16214763D01*
X-104993938Y16279316D01*
X-105026728Y16345144D01*
X-105058433Y16409966D01*
X-105087909Y16471499D01*
X-105114011Y16527459D01*
X-105135598Y16575565D01*
X-105142262Y16591035D01*
X-105194381Y16730334D01*
X-105235995Y16877268D01*
X-105266658Y17029816D01*
X-105285922Y17185957D01*
X-105291058Y17263028D01*
X-105295700Y17359818D01*
X-105281184Y17349486D01*
G37*
X-190281184Y17349486D02*
X-190271281Y17341925D01*
X-190252552Y17327174D01*
X-190226999Y17306824D01*
X-190196622Y17282469D01*
X-190164620Y17256671D01*
X-190005796Y17131823D01*
X-189840403Y17008474D01*
X-189672305Y16889385D01*
X-189505367Y16777314D01*
X-189394622Y16706612D01*
X-189160256Y16566785D01*
X-188926781Y16440600D01*
X-188693555Y16327841D01*
X-188459936Y16228293D01*
X-188225282Y16141740D01*
X-187988949Y16067968D01*
X-187750297Y16006762D01*
X-187508682Y15957905D01*
X-187263462Y15921185D01*
X-187013995Y15896384D01*
X-186965036Y15892934D01*
X-186917290Y15890492D01*
X-186858355Y15888598D01*
X-186790971Y15887251D01*
X-186717881Y15886450D01*
X-186641824Y15886195D01*
X-186565542Y15886485D01*
X-186491775Y15887320D01*
X-186423265Y15888699D01*
X-186362752Y15890621D01*
X-186313307Y15893066D01*
X-186216368Y15900119D01*
X-186111439Y15909476D01*
X-186004040Y15920569D01*
X-185899692Y15932828D01*
X-185806363Y15945331D01*
X-185714632Y15959156D01*
X-185628169Y15973588D01*
X-185544934Y15989123D01*
X-185462884Y16006257D01*
X-185379977Y16025484D01*
X-185294172Y16047302D01*
X-185203425Y16072205D01*
X-185105696Y16100688D01*
X-184998942Y16133248D01*
X-184887868Y16168228D01*
X-184790138Y16199186D01*
X-184704018Y16226017D01*
X-184627941Y16249150D01*
X-184560342Y16269014D01*
X-184499656Y16286041D01*
X-184444316Y16300660D01*
X-184392757Y16313300D01*
X-184343413Y16324393D01*
X-184294720Y16334368D01*
X-184257050Y16341491D01*
X-184114368Y16362712D01*
X-183977252Y16372763D01*
X-183843878Y16371430D01*
X-183712418Y16358502D01*
X-183581048Y16333766D01*
X-183447941Y16297011D01*
X-183311271Y16248024D01*
X-183255582Y16225120D01*
X-183207831Y16204081D01*
X-183160575Y16181949D01*
X-183116575Y16160116D01*
X-183078592Y16139973D01*
X-183049385Y16122910D01*
X-183038775Y16115855D01*
X-183037520Y16114797D01*
X-183036535Y16113271D01*
X-183035962Y16110875D01*
X-183035944Y16107206D01*
X-183036622Y16101863D01*
X-183038139Y16094445D01*
X-183040639Y16084550D01*
X-183044262Y16071776D01*
X-183049152Y16055720D01*
X-183055450Y16035982D01*
X-183063300Y16012160D01*
X-183072843Y15983852D01*
X-183084223Y15950656D01*
X-183097580Y15912171D01*
X-183113059Y15867994D01*
X-183130801Y15817724D01*
X-183150948Y15760960D01*
X-183173643Y15697299D01*
X-183199029Y15626339D01*
X-183227247Y15547680D01*
X-183258441Y15460919D01*
X-183292752Y15365654D01*
X-183330323Y15261484D01*
X-183371297Y15148007D01*
X-183415815Y15024821D01*
X-183464020Y14891525D01*
X-183516055Y14747717D01*
X-183572061Y14592994D01*
X-183632182Y14426956D01*
X-183696560Y14249200D01*
X-183765336Y14059325D01*
X-183838654Y13856929D01*
X-183873814Y13759873D01*
X-183937069Y13585263D01*
X-183999114Y13413995D01*
X-184059780Y13246534D01*
X-184118898Y13083345D01*
X-184176300Y12924895D01*
X-184231818Y12771648D01*
X-184285282Y12624071D01*
X-184336524Y12482628D01*
X-184385375Y12347787D01*
X-184431666Y12220011D01*
X-184475229Y12099768D01*
X-184515895Y11987522D01*
X-184553495Y11883739D01*
X-184587861Y11788885D01*
X-184618823Y11703426D01*
X-184646214Y11627827D01*
X-184669865Y11562553D01*
X-184689606Y11508070D01*
X-184705270Y11464845D01*
X-184716687Y11433342D01*
X-184723689Y11414027D01*
X-184726103Y11407375D01*
X-184733952Y11404172D01*
X-184753069Y11401747D01*
X-184780804Y11400141D01*
X-184814503Y11399396D01*
X-184851514Y11399552D01*
X-184889185Y11400650D01*
X-184924864Y11402732D01*
X-184940145Y11404058D01*
X-184993888Y11410286D01*
X-185048416Y11418340D01*
X-185102033Y11427801D01*
X-185153040Y11438251D01*
X-185199738Y11449269D01*
X-185240428Y11460439D01*
X-185273412Y11471341D01*
X-185296992Y11481556D01*
X-185309468Y11490666D01*
X-185310911Y11495453D01*
X-185308495Y11502924D01*
X-185301830Y11522957D01*
X-185291135Y11554908D01*
X-185276627Y11598131D01*
X-185258523Y11651982D01*
X-185237041Y11715818D01*
X-185212396Y11788993D01*
X-185184808Y11870863D01*
X-185154492Y11960783D01*
X-185121667Y12058110D01*
X-185086549Y12162197D01*
X-185049356Y12272402D01*
X-185010305Y12388079D01*
X-184969613Y12508585D01*
X-184927497Y12633273D01*
X-184884175Y12761501D01*
X-184880491Y12772403D01*
X-184837091Y12900891D01*
X-184794901Y13025896D01*
X-184754136Y13146771D01*
X-184715012Y13262874D01*
X-184677746Y13373559D01*
X-184642554Y13478183D01*
X-184609651Y13576100D01*
X-184579255Y13666667D01*
X-184551581Y13749238D01*
X-184526845Y13823170D01*
X-184505264Y13887819D01*
X-184487053Y13942539D01*
X-184472428Y13986687D01*
X-184461607Y14019617D01*
X-184454804Y14040686D01*
X-184452236Y14049250D01*
X-184452220Y14049380D01*
X-184457585Y14057122D01*
X-184472100Y14070647D01*
X-184493395Y14087888D01*
X-184513211Y14102601D01*
X-184532128Y14115710D01*
X-184551098Y14127686D01*
X-184571923Y14139377D01*
X-184596403Y14151634D01*
X-184626336Y14165308D01*
X-184663525Y14181248D01*
X-184709768Y14200305D01*
X-184766867Y14223330D01*
X-184779827Y14228517D01*
X-184879876Y14268036D01*
X-184968918Y14302007D01*
X-185048554Y14330820D01*
X-185120389Y14354869D01*
X-185186025Y14374546D01*
X-185247067Y14390242D01*
X-185305116Y14402351D01*
X-185361777Y14411265D01*
X-185418652Y14417375D01*
X-185477345Y14421075D01*
X-185539459Y14422757D01*
X-185574448Y14422964D01*
X-185639721Y14422129D01*
X-185702478Y14419438D01*
X-185765778Y14414595D01*
X-185832679Y14407303D01*
X-185906241Y14397265D01*
X-185989522Y14384183D01*
X-186011437Y14380534D01*
X-186081227Y14369111D01*
X-186143395Y14359740D01*
X-186200524Y14352228D01*
X-186255199Y14346380D01*
X-186310000Y14342000D01*
X-186367513Y14338896D01*
X-186430319Y14336872D01*
X-186501002Y14335735D01*
X-186582145Y14335289D01*
X-186613032Y14335261D01*
X-186690424Y14335401D01*
X-186756471Y14335924D01*
X-186813769Y14336972D01*
X-186864913Y14338686D01*
X-186912496Y14341208D01*
X-186959113Y14344680D01*
X-187007359Y14349243D01*
X-187059829Y14355039D01*
X-187119116Y14362210D01*
X-187128839Y14363423D01*
X-187254815Y14381863D01*
X-187388832Y14406389D01*
X-187526870Y14436093D01*
X-187664910Y14470068D01*
X-187798933Y14507408D01*
X-187885701Y14534251D01*
X-188098843Y14609453D01*
X-188304735Y14694762D01*
X-188502898Y14789816D01*
X-188692851Y14894253D01*
X-188874111Y15007711D01*
X-189046199Y15129829D01*
X-189208634Y15260245D01*
X-189360935Y15398596D01*
X-189502620Y15544522D01*
X-189633210Y15697660D01*
X-189752223Y15857648D01*
X-189853709Y16014961D01*
X-189874780Y16051585D01*
X-189900482Y16098615D01*
X-189929671Y16153768D01*
X-189961204Y16214763D01*
X-189993938Y16279316D01*
X-190026728Y16345144D01*
X-190058433Y16409966D01*
X-190087909Y16471499D01*
X-190114011Y16527459D01*
X-190135598Y16575565D01*
X-190142262Y16591035D01*
X-190194381Y16730334D01*
X-190235995Y16877268D01*
X-190266658Y17029816D01*
X-190285922Y17185957D01*
X-190291058Y17263028D01*
X-190295700Y17359818D01*
X-190281184Y17349486D01*
G36*
X-190281184Y17349486D02*
G01*
X-190271281Y17341925D01*
X-190252552Y17327174D01*
X-190226999Y17306824D01*
X-190196622Y17282469D01*
X-190164620Y17256671D01*
X-190005796Y17131823D01*
X-189840403Y17008474D01*
X-189672305Y16889385D01*
X-189505367Y16777314D01*
X-189394622Y16706612D01*
X-189160256Y16566785D01*
X-188926781Y16440600D01*
X-188693555Y16327841D01*
X-188459936Y16228293D01*
X-188225282Y16141740D01*
X-187988949Y16067968D01*
X-187750297Y16006762D01*
X-187508682Y15957905D01*
X-187263462Y15921185D01*
X-187013995Y15896384D01*
X-186965036Y15892934D01*
X-186917290Y15890492D01*
X-186858355Y15888598D01*
X-186790971Y15887251D01*
X-186717881Y15886450D01*
X-186641824Y15886195D01*
X-186565542Y15886485D01*
X-186491775Y15887320D01*
X-186423265Y15888699D01*
X-186362752Y15890621D01*
X-186313307Y15893066D01*
X-186216368Y15900119D01*
X-186111439Y15909476D01*
X-186004040Y15920569D01*
X-185899692Y15932828D01*
X-185806363Y15945331D01*
X-185714632Y15959156D01*
X-185628169Y15973588D01*
X-185544934Y15989123D01*
X-185462884Y16006257D01*
X-185379977Y16025484D01*
X-185294172Y16047302D01*
X-185203425Y16072205D01*
X-185105696Y16100688D01*
X-184998942Y16133248D01*
X-184887868Y16168228D01*
X-184790138Y16199186D01*
X-184704018Y16226017D01*
X-184627941Y16249150D01*
X-184560342Y16269014D01*
X-184499656Y16286041D01*
X-184444316Y16300660D01*
X-184392757Y16313300D01*
X-184343413Y16324393D01*
X-184294720Y16334368D01*
X-184257050Y16341491D01*
X-184114368Y16362712D01*
X-183977252Y16372763D01*
X-183843878Y16371430D01*
X-183712418Y16358502D01*
X-183581048Y16333766D01*
X-183447941Y16297011D01*
X-183311271Y16248024D01*
X-183255582Y16225120D01*
X-183207831Y16204081D01*
X-183160575Y16181949D01*
X-183116575Y16160116D01*
X-183078592Y16139973D01*
X-183049385Y16122910D01*
X-183038775Y16115855D01*
X-183037520Y16114797D01*
X-183036535Y16113271D01*
X-183035962Y16110875D01*
X-183035944Y16107206D01*
X-183036622Y16101863D01*
X-183038139Y16094445D01*
X-183040639Y16084550D01*
X-183044262Y16071776D01*
X-183049152Y16055720D01*
X-183055450Y16035982D01*
X-183063300Y16012160D01*
X-183072843Y15983852D01*
X-183084223Y15950656D01*
X-183097580Y15912171D01*
X-183113059Y15867994D01*
X-183130801Y15817724D01*
X-183150948Y15760960D01*
X-183173643Y15697299D01*
X-183199029Y15626339D01*
X-183227247Y15547680D01*
X-183258441Y15460919D01*
X-183292752Y15365654D01*
X-183330323Y15261484D01*
X-183371297Y15148007D01*
X-183415815Y15024821D01*
X-183464020Y14891525D01*
X-183516055Y14747717D01*
X-183572061Y14592994D01*
X-183632182Y14426956D01*
X-183696560Y14249200D01*
X-183765336Y14059325D01*
X-183838654Y13856929D01*
X-183873814Y13759873D01*
X-183937069Y13585263D01*
X-183999114Y13413995D01*
X-184059780Y13246534D01*
X-184118898Y13083345D01*
X-184176300Y12924895D01*
X-184231818Y12771648D01*
X-184285282Y12624071D01*
X-184336524Y12482628D01*
X-184385375Y12347787D01*
X-184431666Y12220011D01*
X-184475229Y12099768D01*
X-184515895Y11987522D01*
X-184553495Y11883739D01*
X-184587861Y11788885D01*
X-184618823Y11703426D01*
X-184646214Y11627827D01*
X-184669865Y11562553D01*
X-184689606Y11508070D01*
X-184705270Y11464845D01*
X-184716687Y11433342D01*
X-184723689Y11414027D01*
X-184726103Y11407375D01*
X-184733952Y11404172D01*
X-184753069Y11401747D01*
X-184780804Y11400141D01*
X-184814503Y11399396D01*
X-184851514Y11399552D01*
X-184889185Y11400650D01*
X-184924864Y11402732D01*
X-184940145Y11404058D01*
X-184993888Y11410286D01*
X-185048416Y11418340D01*
X-185102033Y11427801D01*
X-185153040Y11438251D01*
X-185199738Y11449269D01*
X-185240428Y11460439D01*
X-185273412Y11471341D01*
X-185296992Y11481556D01*
X-185309468Y11490666D01*
X-185310911Y11495453D01*
X-185308495Y11502924D01*
X-185301830Y11522957D01*
X-185291135Y11554908D01*
X-185276627Y11598131D01*
X-185258523Y11651982D01*
X-185237041Y11715818D01*
X-185212396Y11788993D01*
X-185184808Y11870863D01*
X-185154492Y11960783D01*
X-185121667Y12058110D01*
X-185086549Y12162197D01*
X-185049356Y12272402D01*
X-185010305Y12388079D01*
X-184969613Y12508585D01*
X-184927497Y12633273D01*
X-184884175Y12761501D01*
X-184880491Y12772403D01*
X-184837091Y12900891D01*
X-184794901Y13025896D01*
X-184754136Y13146771D01*
X-184715012Y13262874D01*
X-184677746Y13373559D01*
X-184642554Y13478183D01*
X-184609651Y13576100D01*
X-184579255Y13666667D01*
X-184551581Y13749238D01*
X-184526845Y13823170D01*
X-184505264Y13887819D01*
X-184487053Y13942539D01*
X-184472428Y13986687D01*
X-184461607Y14019617D01*
X-184454804Y14040686D01*
X-184452236Y14049250D01*
X-184452220Y14049380D01*
X-184457585Y14057122D01*
X-184472100Y14070647D01*
X-184493395Y14087888D01*
X-184513211Y14102601D01*
X-184532128Y14115710D01*
X-184551098Y14127686D01*
X-184571923Y14139377D01*
X-184596403Y14151634D01*
X-184626336Y14165308D01*
X-184663525Y14181248D01*
X-184709768Y14200305D01*
X-184766867Y14223330D01*
X-184779827Y14228517D01*
X-184879876Y14268036D01*
X-184968918Y14302007D01*
X-185048554Y14330820D01*
X-185120389Y14354869D01*
X-185186025Y14374546D01*
X-185247067Y14390242D01*
X-185305116Y14402351D01*
X-185361777Y14411265D01*
X-185418652Y14417375D01*
X-185477345Y14421075D01*
X-185539459Y14422757D01*
X-185574448Y14422964D01*
X-185639721Y14422129D01*
X-185702478Y14419438D01*
X-185765778Y14414595D01*
X-185832679Y14407303D01*
X-185906241Y14397265D01*
X-185989522Y14384183D01*
X-186011437Y14380534D01*
X-186081227Y14369111D01*
X-186143395Y14359740D01*
X-186200524Y14352228D01*
X-186255199Y14346380D01*
X-186310000Y14342000D01*
X-186367513Y14338896D01*
X-186430319Y14336872D01*
X-186501002Y14335735D01*
X-186582145Y14335289D01*
X-186613032Y14335261D01*
X-186690424Y14335401D01*
X-186756471Y14335924D01*
X-186813769Y14336972D01*
X-186864913Y14338686D01*
X-186912496Y14341208D01*
X-186959113Y14344680D01*
X-187007359Y14349243D01*
X-187059829Y14355039D01*
X-187119116Y14362210D01*
X-187128839Y14363423D01*
X-187254815Y14381863D01*
X-187388832Y14406389D01*
X-187526870Y14436093D01*
X-187664910Y14470068D01*
X-187798933Y14507408D01*
X-187885701Y14534251D01*
X-188098843Y14609453D01*
X-188304735Y14694762D01*
X-188502898Y14789816D01*
X-188692851Y14894253D01*
X-188874111Y15007711D01*
X-189046199Y15129829D01*
X-189208634Y15260245D01*
X-189360935Y15398596D01*
X-189502620Y15544522D01*
X-189633210Y15697660D01*
X-189752223Y15857648D01*
X-189853709Y16014961D01*
X-189874780Y16051585D01*
X-189900482Y16098615D01*
X-189929671Y16153768D01*
X-189961204Y16214763D01*
X-189993938Y16279316D01*
X-190026728Y16345144D01*
X-190058433Y16409966D01*
X-190087909Y16471499D01*
X-190114011Y16527459D01*
X-190135598Y16575565D01*
X-190142262Y16591035D01*
X-190194381Y16730334D01*
X-190235995Y16877268D01*
X-190266658Y17029816D01*
X-190285922Y17185957D01*
X-190291058Y17263028D01*
X-190295700Y17359818D01*
X-190281184Y17349486D01*
G37*
X-20281184Y17349486D02*
X-20271281Y17341925D01*
X-20252552Y17327174D01*
X-20226999Y17306824D01*
X-20196622Y17282469D01*
X-20164620Y17256671D01*
X-20005796Y17131823D01*
X-19840403Y17008474D01*
X-19672305Y16889385D01*
X-19505367Y16777314D01*
X-19394622Y16706612D01*
X-19160256Y16566785D01*
X-18926781Y16440600D01*
X-18693555Y16327841D01*
X-18459936Y16228293D01*
X-18225282Y16141740D01*
X-17988949Y16067968D01*
X-17750297Y16006762D01*
X-17508682Y15957905D01*
X-17263462Y15921185D01*
X-17013995Y15896384D01*
X-16965036Y15892934D01*
X-16917290Y15890492D01*
X-16858355Y15888598D01*
X-16790971Y15887251D01*
X-16717881Y15886450D01*
X-16641824Y15886195D01*
X-16565542Y15886485D01*
X-16491775Y15887320D01*
X-16423265Y15888699D01*
X-16362752Y15890621D01*
X-16313307Y15893066D01*
X-16216368Y15900119D01*
X-16111439Y15909476D01*
X-16004040Y15920569D01*
X-15899692Y15932828D01*
X-15806363Y15945331D01*
X-15714632Y15959156D01*
X-15628169Y15973588D01*
X-15544934Y15989123D01*
X-15462884Y16006257D01*
X-15379977Y16025484D01*
X-15294172Y16047302D01*
X-15203425Y16072205D01*
X-15105696Y16100688D01*
X-14998942Y16133248D01*
X-14887868Y16168228D01*
X-14790138Y16199186D01*
X-14704018Y16226017D01*
X-14627941Y16249150D01*
X-14560342Y16269014D01*
X-14499656Y16286041D01*
X-14444316Y16300660D01*
X-14392757Y16313300D01*
X-14343413Y16324393D01*
X-14294720Y16334368D01*
X-14257050Y16341491D01*
X-14114368Y16362712D01*
X-13977252Y16372763D01*
X-13843878Y16371430D01*
X-13712418Y16358502D01*
X-13581048Y16333766D01*
X-13447941Y16297011D01*
X-13311271Y16248024D01*
X-13255582Y16225120D01*
X-13207831Y16204081D01*
X-13160575Y16181949D01*
X-13116575Y16160116D01*
X-13078592Y16139973D01*
X-13049385Y16122910D01*
X-13038775Y16115855D01*
X-13037520Y16114797D01*
X-13036535Y16113271D01*
X-13035962Y16110875D01*
X-13035944Y16107206D01*
X-13036622Y16101863D01*
X-13038139Y16094445D01*
X-13040639Y16084550D01*
X-13044262Y16071776D01*
X-13049152Y16055720D01*
X-13055450Y16035982D01*
X-13063300Y16012160D01*
X-13072843Y15983852D01*
X-13084223Y15950656D01*
X-13097580Y15912171D01*
X-13113059Y15867994D01*
X-13130801Y15817724D01*
X-13150948Y15760960D01*
X-13173643Y15697299D01*
X-13199029Y15626339D01*
X-13227247Y15547680D01*
X-13258441Y15460919D01*
X-13292752Y15365654D01*
X-13330323Y15261484D01*
X-13371297Y15148007D01*
X-13415815Y15024821D01*
X-13464020Y14891525D01*
X-13516055Y14747717D01*
X-13572061Y14592994D01*
X-13632182Y14426956D01*
X-13696560Y14249200D01*
X-13765336Y14059325D01*
X-13838654Y13856929D01*
X-13873814Y13759873D01*
X-13937069Y13585263D01*
X-13999114Y13413995D01*
X-14059780Y13246534D01*
X-14118898Y13083345D01*
X-14176300Y12924895D01*
X-14231818Y12771648D01*
X-14285282Y12624071D01*
X-14336524Y12482628D01*
X-14385375Y12347787D01*
X-14431666Y12220011D01*
X-14475229Y12099768D01*
X-14515895Y11987522D01*
X-14553495Y11883739D01*
X-14587861Y11788885D01*
X-14618823Y11703426D01*
X-14646214Y11627827D01*
X-14669865Y11562553D01*
X-14689606Y11508070D01*
X-14705270Y11464845D01*
X-14716687Y11433342D01*
X-14723689Y11414027D01*
X-14726103Y11407375D01*
X-14733952Y11404172D01*
X-14753069Y11401747D01*
X-14780804Y11400141D01*
X-14814503Y11399396D01*
X-14851514Y11399552D01*
X-14889185Y11400650D01*
X-14924864Y11402732D01*
X-14940145Y11404058D01*
X-14993888Y11410286D01*
X-15048416Y11418340D01*
X-15102033Y11427801D01*
X-15153040Y11438251D01*
X-15199738Y11449269D01*
X-15240428Y11460439D01*
X-15273412Y11471341D01*
X-15296992Y11481556D01*
X-15309468Y11490666D01*
X-15310911Y11495453D01*
X-15308495Y11502924D01*
X-15301830Y11522957D01*
X-15291135Y11554908D01*
X-15276627Y11598131D01*
X-15258523Y11651982D01*
X-15237041Y11715818D01*
X-15212396Y11788993D01*
X-15184808Y11870863D01*
X-15154492Y11960783D01*
X-15121667Y12058110D01*
X-15086549Y12162197D01*
X-15049356Y12272402D01*
X-15010305Y12388079D01*
X-14969613Y12508585D01*
X-14927497Y12633273D01*
X-14884175Y12761501D01*
X-14880491Y12772403D01*
X-14837091Y12900891D01*
X-14794901Y13025896D01*
X-14754136Y13146771D01*
X-14715012Y13262874D01*
X-14677746Y13373559D01*
X-14642554Y13478183D01*
X-14609651Y13576100D01*
X-14579255Y13666667D01*
X-14551581Y13749238D01*
X-14526845Y13823170D01*
X-14505264Y13887819D01*
X-14487053Y13942539D01*
X-14472428Y13986687D01*
X-14461607Y14019617D01*
X-14454804Y14040686D01*
X-14452236Y14049250D01*
X-14452220Y14049380D01*
X-14457585Y14057122D01*
X-14472100Y14070647D01*
X-14493395Y14087888D01*
X-14513211Y14102601D01*
X-14532128Y14115710D01*
X-14551098Y14127686D01*
X-14571923Y14139377D01*
X-14596403Y14151634D01*
X-14626336Y14165308D01*
X-14663525Y14181248D01*
X-14709768Y14200305D01*
X-14766867Y14223330D01*
X-14779827Y14228517D01*
X-14879876Y14268036D01*
X-14968918Y14302007D01*
X-15048554Y14330820D01*
X-15120389Y14354869D01*
X-15186025Y14374546D01*
X-15247067Y14390242D01*
X-15305116Y14402351D01*
X-15361777Y14411265D01*
X-15418652Y14417375D01*
X-15477345Y14421075D01*
X-15539459Y14422757D01*
X-15574448Y14422964D01*
X-15639721Y14422129D01*
X-15702478Y14419438D01*
X-15765778Y14414595D01*
X-15832679Y14407303D01*
X-15906241Y14397265D01*
X-15989522Y14384183D01*
X-16011437Y14380534D01*
X-16081227Y14369111D01*
X-16143395Y14359740D01*
X-16200524Y14352228D01*
X-16255199Y14346380D01*
X-16310000Y14342000D01*
X-16367513Y14338896D01*
X-16430319Y14336872D01*
X-16501002Y14335735D01*
X-16582145Y14335289D01*
X-16613032Y14335261D01*
X-16690424Y14335401D01*
X-16756471Y14335924D01*
X-16813769Y14336972D01*
X-16864913Y14338686D01*
X-16912496Y14341208D01*
X-16959113Y14344680D01*
X-17007359Y14349243D01*
X-17059829Y14355039D01*
X-17119116Y14362210D01*
X-17128839Y14363423D01*
X-17254815Y14381863D01*
X-17388832Y14406389D01*
X-17526870Y14436093D01*
X-17664910Y14470068D01*
X-17798933Y14507408D01*
X-17885701Y14534251D01*
X-18098843Y14609453D01*
X-18304735Y14694762D01*
X-18502898Y14789816D01*
X-18692851Y14894253D01*
X-18874111Y15007711D01*
X-19046199Y15129829D01*
X-19208634Y15260245D01*
X-19360935Y15398596D01*
X-19502620Y15544522D01*
X-19633210Y15697660D01*
X-19752223Y15857648D01*
X-19853709Y16014961D01*
X-19874780Y16051585D01*
X-19900482Y16098615D01*
X-19929671Y16153768D01*
X-19961204Y16214763D01*
X-19993938Y16279316D01*
X-20026728Y16345144D01*
X-20058433Y16409966D01*
X-20087909Y16471499D01*
X-20114011Y16527459D01*
X-20135598Y16575565D01*
X-20142262Y16591035D01*
X-20194381Y16730334D01*
X-20235995Y16877268D01*
X-20266658Y17029816D01*
X-20285922Y17185957D01*
X-20291058Y17263028D01*
X-20295700Y17359818D01*
X-20281184Y17349486D01*
G36*
X-20281184Y17349486D02*
G01*
X-20271281Y17341925D01*
X-20252552Y17327174D01*
X-20226999Y17306824D01*
X-20196622Y17282469D01*
X-20164620Y17256671D01*
X-20005796Y17131823D01*
X-19840403Y17008474D01*
X-19672305Y16889385D01*
X-19505367Y16777314D01*
X-19394622Y16706612D01*
X-19160256Y16566785D01*
X-18926781Y16440600D01*
X-18693555Y16327841D01*
X-18459936Y16228293D01*
X-18225282Y16141740D01*
X-17988949Y16067968D01*
X-17750297Y16006762D01*
X-17508682Y15957905D01*
X-17263462Y15921185D01*
X-17013995Y15896384D01*
X-16965036Y15892934D01*
X-16917290Y15890492D01*
X-16858355Y15888598D01*
X-16790971Y15887251D01*
X-16717881Y15886450D01*
X-16641824Y15886195D01*
X-16565542Y15886485D01*
X-16491775Y15887320D01*
X-16423265Y15888699D01*
X-16362752Y15890621D01*
X-16313307Y15893066D01*
X-16216368Y15900119D01*
X-16111439Y15909476D01*
X-16004040Y15920569D01*
X-15899692Y15932828D01*
X-15806363Y15945331D01*
X-15714632Y15959156D01*
X-15628169Y15973588D01*
X-15544934Y15989123D01*
X-15462884Y16006257D01*
X-15379977Y16025484D01*
X-15294172Y16047302D01*
X-15203425Y16072205D01*
X-15105696Y16100688D01*
X-14998942Y16133248D01*
X-14887868Y16168228D01*
X-14790138Y16199186D01*
X-14704018Y16226017D01*
X-14627941Y16249150D01*
X-14560342Y16269014D01*
X-14499656Y16286041D01*
X-14444316Y16300660D01*
X-14392757Y16313300D01*
X-14343413Y16324393D01*
X-14294720Y16334368D01*
X-14257050Y16341491D01*
X-14114368Y16362712D01*
X-13977252Y16372763D01*
X-13843878Y16371430D01*
X-13712418Y16358502D01*
X-13581048Y16333766D01*
X-13447941Y16297011D01*
X-13311271Y16248024D01*
X-13255582Y16225120D01*
X-13207831Y16204081D01*
X-13160575Y16181949D01*
X-13116575Y16160116D01*
X-13078592Y16139973D01*
X-13049385Y16122910D01*
X-13038775Y16115855D01*
X-13037520Y16114797D01*
X-13036535Y16113271D01*
X-13035962Y16110875D01*
X-13035944Y16107206D01*
X-13036622Y16101863D01*
X-13038139Y16094445D01*
X-13040639Y16084550D01*
X-13044262Y16071776D01*
X-13049152Y16055720D01*
X-13055450Y16035982D01*
X-13063300Y16012160D01*
X-13072843Y15983852D01*
X-13084223Y15950656D01*
X-13097580Y15912171D01*
X-13113059Y15867994D01*
X-13130801Y15817724D01*
X-13150948Y15760960D01*
X-13173643Y15697299D01*
X-13199029Y15626339D01*
X-13227247Y15547680D01*
X-13258441Y15460919D01*
X-13292752Y15365654D01*
X-13330323Y15261484D01*
X-13371297Y15148007D01*
X-13415815Y15024821D01*
X-13464020Y14891525D01*
X-13516055Y14747717D01*
X-13572061Y14592994D01*
X-13632182Y14426956D01*
X-13696560Y14249200D01*
X-13765336Y14059325D01*
X-13838654Y13856929D01*
X-13873814Y13759873D01*
X-13937069Y13585263D01*
X-13999114Y13413995D01*
X-14059780Y13246534D01*
X-14118898Y13083345D01*
X-14176300Y12924895D01*
X-14231818Y12771648D01*
X-14285282Y12624071D01*
X-14336524Y12482628D01*
X-14385375Y12347787D01*
X-14431666Y12220011D01*
X-14475229Y12099768D01*
X-14515895Y11987522D01*
X-14553495Y11883739D01*
X-14587861Y11788885D01*
X-14618823Y11703426D01*
X-14646214Y11627827D01*
X-14669865Y11562553D01*
X-14689606Y11508070D01*
X-14705270Y11464845D01*
X-14716687Y11433342D01*
X-14723689Y11414027D01*
X-14726103Y11407375D01*
X-14733952Y11404172D01*
X-14753069Y11401747D01*
X-14780804Y11400141D01*
X-14814503Y11399396D01*
X-14851514Y11399552D01*
X-14889185Y11400650D01*
X-14924864Y11402732D01*
X-14940145Y11404058D01*
X-14993888Y11410286D01*
X-15048416Y11418340D01*
X-15102033Y11427801D01*
X-15153040Y11438251D01*
X-15199738Y11449269D01*
X-15240428Y11460439D01*
X-15273412Y11471341D01*
X-15296992Y11481556D01*
X-15309468Y11490666D01*
X-15310911Y11495453D01*
X-15308495Y11502924D01*
X-15301830Y11522957D01*
X-15291135Y11554908D01*
X-15276627Y11598131D01*
X-15258523Y11651982D01*
X-15237041Y11715818D01*
X-15212396Y11788993D01*
X-15184808Y11870863D01*
X-15154492Y11960783D01*
X-15121667Y12058110D01*
X-15086549Y12162197D01*
X-15049356Y12272402D01*
X-15010305Y12388079D01*
X-14969613Y12508585D01*
X-14927497Y12633273D01*
X-14884175Y12761501D01*
X-14880491Y12772403D01*
X-14837091Y12900891D01*
X-14794901Y13025896D01*
X-14754136Y13146771D01*
X-14715012Y13262874D01*
X-14677746Y13373559D01*
X-14642554Y13478183D01*
X-14609651Y13576100D01*
X-14579255Y13666667D01*
X-14551581Y13749238D01*
X-14526845Y13823170D01*
X-14505264Y13887819D01*
X-14487053Y13942539D01*
X-14472428Y13986687D01*
X-14461607Y14019617D01*
X-14454804Y14040686D01*
X-14452236Y14049250D01*
X-14452220Y14049380D01*
X-14457585Y14057122D01*
X-14472100Y14070647D01*
X-14493395Y14087888D01*
X-14513211Y14102601D01*
X-14532128Y14115710D01*
X-14551098Y14127686D01*
X-14571923Y14139377D01*
X-14596403Y14151634D01*
X-14626336Y14165308D01*
X-14663525Y14181248D01*
X-14709768Y14200305D01*
X-14766867Y14223330D01*
X-14779827Y14228517D01*
X-14879876Y14268036D01*
X-14968918Y14302007D01*
X-15048554Y14330820D01*
X-15120389Y14354869D01*
X-15186025Y14374546D01*
X-15247067Y14390242D01*
X-15305116Y14402351D01*
X-15361777Y14411265D01*
X-15418652Y14417375D01*
X-15477345Y14421075D01*
X-15539459Y14422757D01*
X-15574448Y14422964D01*
X-15639721Y14422129D01*
X-15702478Y14419438D01*
X-15765778Y14414595D01*
X-15832679Y14407303D01*
X-15906241Y14397265D01*
X-15989522Y14384183D01*
X-16011437Y14380534D01*
X-16081227Y14369111D01*
X-16143395Y14359740D01*
X-16200524Y14352228D01*
X-16255199Y14346380D01*
X-16310000Y14342000D01*
X-16367513Y14338896D01*
X-16430319Y14336872D01*
X-16501002Y14335735D01*
X-16582145Y14335289D01*
X-16613032Y14335261D01*
X-16690424Y14335401D01*
X-16756471Y14335924D01*
X-16813769Y14336972D01*
X-16864913Y14338686D01*
X-16912496Y14341208D01*
X-16959113Y14344680D01*
X-17007359Y14349243D01*
X-17059829Y14355039D01*
X-17119116Y14362210D01*
X-17128839Y14363423D01*
X-17254815Y14381863D01*
X-17388832Y14406389D01*
X-17526870Y14436093D01*
X-17664910Y14470068D01*
X-17798933Y14507408D01*
X-17885701Y14534251D01*
X-18098843Y14609453D01*
X-18304735Y14694762D01*
X-18502898Y14789816D01*
X-18692851Y14894253D01*
X-18874111Y15007711D01*
X-19046199Y15129829D01*
X-19208634Y15260245D01*
X-19360935Y15398596D01*
X-19502620Y15544522D01*
X-19633210Y15697660D01*
X-19752223Y15857648D01*
X-19853709Y16014961D01*
X-19874780Y16051585D01*
X-19900482Y16098615D01*
X-19929671Y16153768D01*
X-19961204Y16214763D01*
X-19993938Y16279316D01*
X-20026728Y16345144D01*
X-20058433Y16409966D01*
X-20087909Y16471499D01*
X-20114011Y16527459D01*
X-20135598Y16575565D01*
X-20142262Y16591035D01*
X-20194381Y16730334D01*
X-20235995Y16877268D01*
X-20266658Y17029816D01*
X-20285922Y17185957D01*
X-20291058Y17263028D01*
X-20295700Y17359818D01*
X-20281184Y17349486D01*
G37*
%TD*%
D11*
%TO.C,KiKit_MB_14_3*%
X-149520200Y122002000D03*
%TD*%
D12*
%TO.C,R7*%
X-157850000Y74802001D03*
X-156150000Y74802001D03*
%TD*%
D13*
%TO.C,R20*%
X-236600000Y86352000D03*
X-236600000Y84652000D03*
%TD*%
D11*
%TO.C,KiKit_MB_10_2*%
X-85000000Y109462599D03*
%TD*%
D14*
%TO.C,U16*%
X-99812500Y41752000D03*
X-99812500Y42402000D03*
X-99812500Y43052000D03*
X-101587500Y43052000D03*
X-101587500Y42402000D03*
X-101587500Y41752000D03*
D15*
X-100700000Y42402000D03*
%TD*%
D16*
%TO.C,U4*%
X-123000000Y9252000D03*
D17*
X-123000000Y10952000D03*
X-125000000Y10952000D03*
X-125000000Y9052000D03*
%TD*%
D13*
%TO.C,C42*%
X-13700000Y42002000D03*
X-13700000Y40302000D03*
%TD*%
%TO.C,R71*%
X-63200000Y85752000D03*
X-63200000Y84052000D03*
%TD*%
D11*
%TO.C,KiKit_MB_18_5*%
X-159999931Y36062598D03*
%TD*%
D12*
%TO.C,R27*%
X-157850000Y50202000D03*
X-156150000Y50202000D03*
%TD*%
D18*
%TO.C,X4*%
X-233700000Y71252000D03*
X-231300000Y71252000D03*
X-231300000Y73152000D03*
X-233700000Y73152000D03*
%TD*%
D11*
%TO.C,KiKit_MB_23_3*%
X-37079801Y7002000D03*
%TD*%
D19*
%TO.C,U11*%
X-142525000Y77452000D03*
X-142525000Y76952000D03*
X-142525000Y76452000D03*
X-142525000Y75952000D03*
X-142525000Y75452000D03*
X-142525000Y74952000D03*
D20*
X-141750000Y74177000D03*
X-141250000Y74177000D03*
X-140750000Y74177000D03*
X-140250000Y74177000D03*
X-139750000Y74177000D03*
X-139250000Y74177000D03*
D19*
X-138475000Y74952000D03*
X-138475000Y75452000D03*
X-138475000Y75952000D03*
X-138475000Y76452000D03*
X-138475000Y76952000D03*
X-138475000Y77452000D03*
D20*
X-139250000Y78227000D03*
X-139750000Y78227000D03*
X-140250000Y78227000D03*
X-140750000Y78227000D03*
X-141250000Y78227000D03*
X-141750000Y78227000D03*
D21*
X-140500000Y76202000D03*
%TD*%
D22*
%TO.C,R11*%
X-30211091Y74113091D03*
X-30988909Y74890909D03*
%TD*%
D11*
%TO.C,KiKit_MB_16_3*%
X-122079801Y7002000D03*
%TD*%
D13*
%TO.C,R38*%
X-213100000Y76152000D03*
X-213100000Y74452000D03*
%TD*%
D11*
%TO.C,KiKit_MB_27_5*%
X-81260000Y7002000D03*
%TD*%
D23*
%TO.C,R60*%
X-59500000Y94652000D03*
X-59500000Y96352000D03*
%TD*%
D12*
%TO.C,R24*%
X-157850000Y45701999D03*
X-156150000Y45701999D03*
%TD*%
D24*
%TO.C,C32*%
X-125550000Y39352000D03*
X-123550000Y39352000D03*
%TD*%
D12*
%TO.C,R27*%
X-242850000Y50202000D03*
X-241150000Y50202000D03*
%TD*%
D13*
%TO.C,R79*%
X-29500000Y17352000D03*
X-29500000Y15652000D03*
%TD*%
D11*
%TO.C,U3*%
X-5000001Y99702000D03*
X-4000001Y99702001D03*
X-3000001Y99702000D03*
X-2000001Y99702000D03*
X-6000001Y98702000D03*
X-5000001Y98702000D03*
X-4000001Y98702000D03*
X-3000001Y98702000D03*
X-2000001Y98702000D03*
X-6000002Y97702000D03*
X-5000001Y97702000D03*
X-4000001Y97702000D03*
X-3000001Y97702000D03*
X-2000000Y97702000D03*
X-6000001Y96702000D03*
X-5000001Y96702000D03*
X-4000001Y96702000D03*
X-3000001Y96702000D03*
X-2000001Y96702000D03*
X-6000001Y95702000D03*
X-5000001Y95702000D03*
X-4000001Y95701999D03*
X-3000001Y95702000D03*
X-2000001Y95702000D03*
%TD*%
%TO.C,KiKit_MB_26_6*%
X-82100000Y122002000D03*
%TD*%
%TO.C,KiKit_MB_26_5*%
X-81260000Y122002000D03*
%TD*%
D13*
%TO.C,R42*%
X-204600003Y17352000D03*
X-204600003Y15652000D03*
%TD*%
D25*
%TO.C,U21*%
X-32400000Y49252000D03*
X-32400000Y49902000D03*
X-32400000Y50552000D03*
X-34455000Y50552000D03*
X-34455000Y49902000D03*
X-34455000Y49252000D03*
D26*
X-33427500Y49902000D03*
%TD*%
D13*
%TO.C,R79*%
X-114500000Y17352000D03*
X-114500000Y15652000D03*
%TD*%
D11*
%TO.C,KiKit_MB_4_4*%
X-234520199Y7002000D03*
%TD*%
D27*
%TO.C,C31*%
X-136550000Y28752000D03*
X-136550000Y29852000D03*
%TD*%
D13*
%TO.C,R54*%
X-237000000Y54052000D03*
X-237000000Y52352000D03*
%TD*%
D11*
%TO.C,KiKit_MB_29_1*%
X-162900000Y7002000D03*
%TD*%
D28*
%TO.C,U12*%
X-61505000Y84002000D03*
X-60235000Y84002000D03*
X-58965000Y84002000D03*
X-57695000Y84002000D03*
X-57695000Y90002000D03*
X-58965000Y90002000D03*
X-60235000Y90002000D03*
X-61505000Y90002000D03*
D29*
X-59600000Y87002000D03*
%TD*%
D11*
%TO.C,KiKit_MB_29_2*%
X-163740000Y7002000D03*
%TD*%
D30*
%TO.C,FID5*%
X-89000000Y16202000D03*
%TD*%
D12*
%TO.C,R74*%
X-133750000Y80402000D03*
X-132050000Y80402000D03*
%TD*%
D31*
%TO.C,C28*%
X-35050000Y27302001D03*
X-35050000Y31402001D03*
%TD*%
D32*
%TO.C,C33*%
X-54650000Y28302000D03*
X-54650000Y30302000D03*
%TD*%
D11*
%TO.C,KiKit_MB_14_2*%
X-150360600Y122002000D03*
%TD*%
%TO.C,KiKit_MB_11_3*%
X-85000000Y70622199D03*
%TD*%
D33*
%TO.C,D15*%
X-152825000Y74802001D03*
X-154575000Y74802001D03*
%TD*%
D34*
%TO.C,H3*%
X-241000000Y11002000D03*
%TD*%
D11*
%TO.C,KiKit_MB_7_4*%
X-207920199Y7002000D03*
%TD*%
D13*
%TO.C,R80*%
X-197800000Y17352000D03*
X-197800000Y15652000D03*
%TD*%
D11*
%TO.C,KiKit_MB_3_6*%
X-170000000Y23101001D03*
%TD*%
D23*
%TO.C,R60*%
X-144500000Y94652000D03*
X-144500000Y96352000D03*
%TD*%
D13*
%TO.C,R9*%
X-219900000Y67077000D03*
X-219900000Y65377000D03*
%TD*%
D12*
%TO.C,R21*%
X-72850000Y76302000D03*
X-71150000Y76302000D03*
%TD*%
D11*
%TO.C,KiKit_MB_27_1*%
X-77900000Y7002000D03*
%TD*%
D13*
%TO.C,R54*%
X-152000000Y54052000D03*
X-152000000Y52352000D03*
%TD*%
D27*
%TO.C,C31*%
X-51550000Y28752000D03*
X-51550000Y29852000D03*
%TD*%
D13*
%TO.C,R79*%
X-199500000Y17352000D03*
X-199500000Y15652000D03*
%TD*%
D23*
%TO.C,R60*%
X-229500000Y94652000D03*
X-229500000Y96352000D03*
%TD*%
D35*
%TO.C,C38*%
X-214150000Y38702000D03*
X-215250000Y38702000D03*
%TD*%
D34*
%TO.C,H2*%
X-156000000Y118002000D03*
%TD*%
D11*
%TO.C,KiKit_MB_4_2*%
X-232839400Y7002000D03*
%TD*%
D36*
%TO.C,J4*%
X-73035000Y84542000D03*
X-68965000Y84542000D03*
X-73035000Y83272000D03*
X-68965000Y83272000D03*
X-73035000Y82002000D03*
X-68965000Y82002000D03*
X-73035000Y80732000D03*
X-68965000Y80732000D03*
X-73035000Y79462000D03*
X-68965000Y79462000D03*
%TD*%
D37*
%TO.C,F1*%
X-60600000Y24752000D03*
X-60600000Y27552000D03*
%TD*%
D13*
%TO.C,R9*%
X-49900000Y67077000D03*
X-49900000Y65377000D03*
%TD*%
D38*
%TO.C,Q7*%
X-144950000Y101777000D03*
X-145600000Y101776999D03*
D39*
X-146090000Y100902000D03*
D38*
X-146250000Y101777000D03*
X-146250000Y100027000D03*
X-145600000Y100027001D03*
X-144950000Y100027000D03*
D39*
X-145110000Y100902000D03*
%TD*%
D40*
%TO.C,U10*%
X-230500001Y56239500D03*
X-230000001Y56239500D03*
X-229500001Y56239500D03*
D41*
X-228737501Y56752000D03*
X-228737501Y57252000D03*
X-228737501Y57752000D03*
X-228737501Y58252000D03*
D40*
X-229500001Y58764500D03*
X-230000001Y58764500D03*
X-230500001Y58764500D03*
D41*
X-231262501Y58252000D03*
X-231262501Y57752000D03*
X-231262501Y57252000D03*
X-231262501Y56752000D03*
D42*
X-230000001Y57502000D03*
%TD*%
D32*
%TO.C,C27*%
X-52900000Y28302000D03*
X-52900000Y30302000D03*
%TD*%
D43*
%TO.C,D11*%
X-201200000Y12427000D03*
X-201200000Y14177000D03*
%TD*%
D13*
%TO.C,R54*%
X-67000000Y54052000D03*
X-67000000Y52352000D03*
%TD*%
%TO.C,R71*%
X-148200000Y85752000D03*
X-148200000Y84052000D03*
%TD*%
D14*
%TO.C,U20*%
X-184812500Y48352000D03*
X-184812500Y49002000D03*
X-184812500Y49652000D03*
X-186587500Y49652000D03*
X-186587500Y49002000D03*
X-186587500Y48352000D03*
D15*
X-185700000Y49002000D03*
%TD*%
D11*
%TO.C,KiKit_MB_12_3*%
X-85000000Y25622200D03*
%TD*%
D44*
%TO.C,D1*%
X-119550000Y37541999D03*
D45*
X-118510000Y33736999D03*
X-120590000Y33736999D03*
%TD*%
D11*
%TO.C,KiKit_MB_12_2*%
X-85000000Y26462600D03*
%TD*%
%TO.C,KiKit_MB_4_6*%
X-236200999Y7002000D03*
%TD*%
%TO.C,KiKit_MB_28_5*%
X-166260000Y122002000D03*
%TD*%
D24*
%TO.C,C32*%
X-210550000Y39352000D03*
X-208550000Y39352000D03*
%TD*%
D46*
%TO.C,R30*%
X-132250001Y68752000D03*
X-132250001Y67652000D03*
%TD*%
D47*
%TO.C,J5*%
X-63900000Y23002000D03*
D48*
X-70200000Y23002000D03*
D49*
X-66800000Y18202000D03*
%TD*%
D11*
%TO.C,KiKit_MB_14_4*%
X-148679801Y122002000D03*
%TD*%
D13*
%TO.C,R38*%
X-128100000Y76152000D03*
X-128100000Y74452000D03*
%TD*%
D50*
%TO.C,R15*%
X-212350000Y37552000D03*
X-214050000Y37552000D03*
%TD*%
%TO.C,R59*%
X-60050000Y111302000D03*
X-61750000Y111302000D03*
%TD*%
D11*
%TO.C,KiKit_MB_15_5*%
X-94639401Y122002000D03*
%TD*%
D13*
%TO.C,C42*%
X-183700000Y42002000D03*
X-183700000Y40302000D03*
%TD*%
D12*
%TO.C,C40*%
X-187450000Y40452000D03*
X-185750000Y40452000D03*
%TD*%
D51*
%TO.C,JP1*%
X-56675000Y39202000D03*
D52*
X-55225000Y39202000D03*
%TD*%
D12*
%TO.C,R16*%
X-218400000Y21602000D03*
X-216700000Y21602000D03*
%TD*%
D30*
%TO.C,FID6*%
X-73000000Y16002000D03*
%TD*%
D11*
%TO.C,KiKit_MB_19_5*%
X-75000000Y87662599D03*
%TD*%
%TO.C,KiKit_MB_29_4*%
X-165420000Y7002000D03*
%TD*%
%TO.C,KiKit_MB_26_4*%
X-80420000Y122002000D03*
%TD*%
D33*
%TO.C,D15*%
X-67825000Y74802001D03*
X-69575000Y74802001D03*
%TD*%
D53*
%TO.C,L3*%
X-109800000Y38382500D03*
X-109800000Y45621500D03*
%TD*%
D13*
%TO.C,R12*%
X-220700000Y80652000D03*
X-220700000Y78952000D03*
%TD*%
D33*
%TO.C,D4*%
X-67825000Y47202001D03*
X-69575000Y47202001D03*
%TD*%
D11*
%TO.C,U14*%
X-12000000Y90702000D03*
X-11000000Y90702001D03*
X-10000000Y90702000D03*
X-9000000Y90702000D03*
X-13000000Y89702000D03*
X-12000000Y89702000D03*
X-11000000Y89702000D03*
X-10000000Y89702000D03*
X-9000000Y89702000D03*
X-13000001Y88702000D03*
X-12000000Y88702000D03*
X-11000000Y88702000D03*
X-10000000Y88702000D03*
X-8999999Y88702000D03*
X-13000000Y87702000D03*
X-12000000Y87702000D03*
X-11000000Y87702000D03*
X-10000000Y87702000D03*
X-9000000Y87702000D03*
X-13000000Y86702000D03*
X-12000000Y86702000D03*
X-11000000Y86701999D03*
X-10000000Y86702000D03*
X-9000000Y86702000D03*
%TD*%
D54*
%TO.C,KiKit_FID_T_3*%
X-240000000Y2500000D03*
%TD*%
D27*
%TO.C,C31*%
X-221550000Y28752000D03*
X-221550000Y29852000D03*
%TD*%
D11*
%TO.C,KiKit_MB_23_6*%
X-39601000Y7002000D03*
%TD*%
D22*
%TO.C,R11*%
X-115211091Y74113091D03*
X-115988909Y74890909D03*
%TD*%
D12*
%TO.C,R25*%
X-72850000Y47202001D03*
X-71150000Y47202001D03*
%TD*%
D23*
%TO.C,R55*%
X-22150000Y32732499D03*
X-22150000Y34432499D03*
%TD*%
D55*
%TO.C,Q10*%
X-55450000Y32632000D03*
X-55450000Y33902000D03*
X-55450000Y35172000D03*
X-55450000Y36442000D03*
D56*
X-58165000Y36809500D03*
D57*
X-59245000Y35652000D03*
D58*
X-61035000Y36752000D03*
D56*
X-58165000Y32264500D03*
D57*
X-59245000Y33422000D03*
D58*
X-61035000Y32322000D03*
%TD*%
D51*
%TO.C,JP1*%
X-226675000Y39202000D03*
D52*
X-225225000Y39202000D03*
%TD*%
D44*
%TO.C,D1*%
X-34550000Y37541999D03*
D45*
X-33510000Y33736999D03*
X-35590000Y33736999D03*
%TD*%
D12*
%TO.C,R27*%
X-72850000Y50202000D03*
X-71150000Y50202000D03*
%TD*%
D11*
%TO.C,KiKit_MB_22_3*%
X-11320200Y122002000D03*
%TD*%
%TO.C,KiKit_MB_9_1*%
X-160000000Y84301000D03*
%TD*%
%TO.C,KiKit_MB_8_6*%
X-183001000Y7002000D03*
%TD*%
%TO.C,KiKit_MB_17_3*%
X-95479801Y7002000D03*
%TD*%
D43*
%TO.C,D7*%
X-111100000Y12427001D03*
X-111100000Y14177001D03*
%TD*%
D11*
%TO.C,KiKit_MB_16_2*%
X-121239401Y7002000D03*
%TD*%
D59*
%TO.C,J2*%
X-242752500Y105202000D03*
D60*
X-242752500Y101702000D03*
D61*
X-242757500Y108694500D03*
%TD*%
D62*
%TO.C,D17*%
X-238500001Y101702000D03*
X-239199999Y101702000D03*
%TD*%
D34*
%TO.C,H4*%
X-174000000Y11002000D03*
%TD*%
D63*
%TO.C,U24*%
X-126800000Y77302000D03*
X-126800000Y76652000D03*
X-126800000Y76002000D03*
X-124900000Y76002000D03*
X-124900000Y77302000D03*
%TD*%
D11*
%TO.C,KiKit_MB_18_6*%
X-159999929Y36902997D03*
%TD*%
D35*
%TO.C,C26*%
X-45350000Y37702000D03*
X-46450000Y37702000D03*
%TD*%
D34*
%TO.C,H4*%
X-89000000Y11002000D03*
%TD*%
D64*
%TO.C,C86*%
X-101850000Y50752000D03*
X-100750000Y50752000D03*
%TD*%
D27*
%TO.C,R13*%
X-52400000Y84052000D03*
X-52400000Y85152000D03*
%TD*%
D13*
%TO.C,C23*%
X-148100000Y89952000D03*
X-148100000Y88252000D03*
%TD*%
D12*
%TO.C,R21*%
X-242850000Y76302000D03*
X-241150000Y76302000D03*
%TD*%
D13*
%TO.C,R39*%
X-44400000Y76152000D03*
X-44400000Y74452000D03*
%TD*%
%TO.C,C23*%
X-233100000Y89952000D03*
X-233100000Y88252000D03*
%TD*%
D23*
%TO.C,R45*%
X-227300000Y55052000D03*
X-227300000Y56752000D03*
%TD*%
D65*
%TO.C,J1*%
X-68500000Y105227000D03*
D66*
X-68500000Y107767000D03*
%TD*%
D13*
%TO.C,R9*%
X-134900000Y67077000D03*
X-134900000Y65377000D03*
%TD*%
%TO.C,R71*%
X-233200000Y85752000D03*
X-233200000Y84052000D03*
%TD*%
D11*
%TO.C,KiKit_MB_1_6*%
X-170000000Y106101000D03*
%TD*%
D67*
%TO.C,SW2*%
X-70700000Y53202000D03*
D68*
X-72600000Y53202000D03*
X-68800000Y53202000D03*
%TD*%
D11*
%TO.C,KiKit_MB_2_3*%
X-170000000Y70622199D03*
%TD*%
D50*
%TO.C,C99*%
X-59750000Y108702000D03*
X-61450000Y108702000D03*
%TD*%
D36*
%TO.C,J4*%
X-243035000Y84542000D03*
X-238965000Y84542000D03*
X-243035000Y83272000D03*
X-238965000Y83272000D03*
X-243035000Y82002000D03*
X-238965000Y82002000D03*
X-243035000Y80732000D03*
X-238965000Y80732000D03*
X-243035000Y79462000D03*
X-238965000Y79462000D03*
%TD*%
D13*
%TO.C,R78*%
X-201200000Y17352000D03*
X-201200000Y15652000D03*
%TD*%
%TO.C,R31*%
X-196100002Y17352000D03*
X-196100002Y15652000D03*
%TD*%
D12*
%TO.C,R18*%
X-46800000Y42902000D03*
X-45100000Y42902000D03*
%TD*%
D14*
%TO.C,U16*%
X-14812500Y41752000D03*
X-14812500Y42402000D03*
X-14812500Y43052000D03*
X-16587500Y43052000D03*
X-16587500Y42402000D03*
X-16587500Y41752000D03*
D15*
X-15700000Y42402000D03*
%TD*%
D33*
%TO.C,D15*%
X-237825000Y74802001D03*
X-239575000Y74802001D03*
%TD*%
D43*
%TO.C,D8*%
X-119600003Y12426997D03*
X-119600003Y14176997D03*
%TD*%
D64*
%TO.C,C41*%
X-16850000Y44152000D03*
X-15750000Y44152000D03*
%TD*%
%TO.C,C44*%
X-101850000Y37752000D03*
X-100750000Y37752000D03*
%TD*%
D12*
%TO.C,R23*%
X-157850000Y44202000D03*
X-156150000Y44202000D03*
%TD*%
%TO.C,R33*%
X-38050000Y48502001D03*
X-36350000Y48502001D03*
%TD*%
D50*
%TO.C,C98*%
X-144750000Y110002000D03*
X-146450000Y110002000D03*
%TD*%
D11*
%TO.C,KiKit_MB_27_3*%
X-79580000Y7002000D03*
%TD*%
D31*
%TO.C,C28*%
X-205050000Y27302001D03*
X-205050000Y31402001D03*
%TD*%
D11*
%TO.C,KiKit_MB_21_1*%
X-66201000Y122002000D03*
%TD*%
%TO.C,KiKit_MB_10_5*%
X-85000000Y106941400D03*
%TD*%
D69*
%TO.C,C94*%
X-67300000Y31802000D03*
X-67300000Y37202000D03*
%TD*%
D11*
%TO.C,KiKit_MB_5_6*%
X-231999000Y122002000D03*
%TD*%
D38*
%TO.C,Q7*%
X-229950000Y101777000D03*
X-230600000Y101776999D03*
D39*
X-231090000Y100902000D03*
D38*
X-231250000Y101777000D03*
X-231250000Y100027000D03*
X-230600000Y100027001D03*
X-229950000Y100027000D03*
D39*
X-230110000Y100902000D03*
%TD*%
D11*
%TO.C,KiKit_MB_3_5*%
X-170000000Y23941401D03*
%TD*%
D33*
%TO.C,D3*%
X-152825000Y45701999D03*
X-154575000Y45701999D03*
%TD*%
D11*
%TO.C,KiKit_MB_7_2*%
X-206239401Y7002000D03*
%TD*%
D36*
%TO.C,J4*%
X-158035000Y84542000D03*
X-153965000Y84542000D03*
X-158035000Y83272000D03*
X-153965000Y83272000D03*
X-158035000Y82002000D03*
X-153965000Y82002000D03*
X-158035000Y80732000D03*
X-153965000Y80732000D03*
X-158035000Y79462000D03*
X-153965000Y79462000D03*
%TD*%
D13*
%TO.C,C89*%
X-124400000Y50552000D03*
X-124400000Y48852000D03*
%TD*%
D33*
%TO.C,D4*%
X-152825000Y47202001D03*
X-154575000Y47202001D03*
%TD*%
D23*
%TO.C,C8*%
X-153350000Y55902000D03*
X-153350000Y57602000D03*
%TD*%
D51*
%TO.C,JP1*%
X-141675000Y39202000D03*
D52*
X-140225000Y39202000D03*
%TD*%
D11*
%TO.C,KiKit_MB_25_3*%
X-74999936Y34381798D03*
%TD*%
D33*
%TO.C,D16*%
X-237825000Y76302000D03*
X-239575000Y76302000D03*
%TD*%
D11*
%TO.C,KiKit_MB_3_4*%
X-170000000Y24781801D03*
%TD*%
%TO.C,KiKit_MB_4_3*%
X-233679800Y7002000D03*
%TD*%
%TO.C,KiKit_MB_13_5*%
X-150360600Y7002000D03*
%TD*%
D70*
%TO.C,J3*%
X-239100000Y68977001D03*
D71*
X-239100000Y61527001D03*
D72*
X-237100000Y68002001D03*
X-237100000Y67502001D03*
X-237100000Y67002001D03*
X-237100000Y66502001D03*
X-237100000Y66002001D03*
X-237100000Y65502001D03*
X-237100000Y65002001D03*
X-237100000Y64502001D03*
X-237100000Y64002001D03*
X-237100000Y63502001D03*
X-237100000Y63002001D03*
X-237100000Y62502001D03*
D73*
X-238400000Y62202001D03*
D74*
X-239100000Y62852001D03*
X-239100000Y63652001D03*
X-238400000Y64052001D03*
X-239100000Y64452001D03*
X-238400000Y64852001D03*
X-238400000Y65652001D03*
X-239100000Y66052001D03*
X-238400000Y66452001D03*
X-239100000Y66852001D03*
X-239100000Y67652001D03*
D73*
X-238400000Y68302001D03*
D75*
X-243100000Y71252001D03*
D76*
X-237600000Y69752001D03*
X-237600000Y60752001D03*
D75*
X-243100000Y59252001D03*
%TD*%
D11*
%TO.C,KiKit_MB_3_2*%
X-170000000Y26462600D03*
%TD*%
%TO.C,KiKit_MB_11_5*%
X-85000000Y68941400D03*
%TD*%
D13*
%TO.C,C23*%
X-63100000Y89952000D03*
X-63100000Y88252000D03*
%TD*%
D35*
%TO.C,C26*%
X-215350000Y37702000D03*
X-216450000Y37702000D03*
%TD*%
D32*
%TO.C,C33*%
X-224650000Y28302000D03*
X-224650000Y30302000D03*
%TD*%
D30*
%TO.C,FID4*%
X-72800000Y97802000D03*
%TD*%
D64*
%TO.C,C44*%
X-16850000Y37752000D03*
X-15750000Y37752000D03*
%TD*%
%TO.C,R29*%
X-228050000Y72902000D03*
X-226950000Y72902000D03*
%TD*%
D34*
%TO.C,H3*%
X-156000000Y11002000D03*
%TD*%
D14*
%TO.C,U17*%
X-14812500Y35352000D03*
X-14812500Y36002000D03*
X-14812500Y36652000D03*
X-16587500Y36652000D03*
X-16587500Y36002000D03*
X-16587500Y35352000D03*
D15*
X-15700000Y36002000D03*
%TD*%
D77*
%TO.C,L1*%
X-48300000Y31067001D03*
X-48300000Y27637001D03*
X-39800000Y27637001D03*
X-39800000Y31067001D03*
%TD*%
D13*
%TO.C,R80*%
X-112800000Y17352000D03*
X-112800000Y15652000D03*
%TD*%
%TO.C,R39*%
X-214400000Y76152000D03*
X-214400000Y74452000D03*
%TD*%
D12*
%TO.C,R23*%
X-72850000Y44202000D03*
X-71150000Y44202000D03*
%TD*%
D11*
%TO.C,KiKit_MB_10_3*%
X-85000000Y108622199D03*
%TD*%
%TO.C,KiKit_MB_5_1*%
X-236200999Y122002000D03*
%TD*%
D62*
%TO.C,D17*%
X-68500001Y101702000D03*
X-69199999Y101702000D03*
%TD*%
D14*
%TO.C,U17*%
X-99812500Y35352000D03*
X-99812500Y36002000D03*
X-99812500Y36652000D03*
X-101587500Y36652000D03*
X-101587500Y36002000D03*
X-101587500Y35352000D03*
D15*
X-100700000Y36002000D03*
%TD*%
D59*
%TO.C,J2*%
X-157752500Y105202000D03*
D60*
X-157752500Y101702000D03*
D61*
X-157757500Y108694500D03*
%TD*%
D11*
%TO.C,KiKit_MB_27_6*%
X-82100000Y7002000D03*
%TD*%
%TO.C,KiKit_MB_7_1*%
X-205399001Y7002000D03*
%TD*%
%TO.C,KiKit_MB_2_1*%
X-170000000Y72302999D03*
%TD*%
D13*
%TO.C,C45*%
X-13700000Y35602000D03*
X-13700000Y33902000D03*
%TD*%
D11*
%TO.C,KiKit_MB_21_5*%
X-62839401Y122002000D03*
%TD*%
%TO.C,KiKit_MB_12_1*%
X-85000000Y27303000D03*
%TD*%
D78*
%TO.C,U13*%
X-219150000Y39102000D03*
X-218650000Y39102000D03*
X-218150000Y39102000D03*
X-217650000Y39102000D03*
X-217150000Y39102000D03*
X-216650000Y39102000D03*
X-216650000Y41202000D03*
X-217150000Y41202000D03*
X-217650000Y41202000D03*
X-218150000Y41202000D03*
X-218650000Y41202000D03*
X-219150000Y41202000D03*
D79*
X-217900000Y40152000D03*
%TD*%
D12*
%TO.C,C39*%
X-17450000Y47052000D03*
X-15750000Y47052000D03*
%TD*%
D11*
%TO.C,KiKit_MB_8_5*%
X-182160600Y7002000D03*
%TD*%
D23*
%TO.C,R44*%
X-226000000Y55602000D03*
X-226000000Y57302000D03*
%TD*%
D65*
%TO.C,J1*%
X-238500000Y105227000D03*
D66*
X-238500000Y107767000D03*
%TD*%
D11*
%TO.C,KiKit_MB_16_5*%
X-123760600Y7002000D03*
%TD*%
D80*
%TO.C,C9*%
X-33288909Y78113091D03*
X-32511091Y78890909D03*
%TD*%
D11*
%TO.C,KiKit_MB_23_4*%
X-37920200Y7002000D03*
%TD*%
%TO.C,KiKit_MB_28_4*%
X-165420000Y122002000D03*
%TD*%
%TO.C,KiKit_MB_20_1*%
X-61999001Y7002000D03*
%TD*%
%TO.C,KiKit_MB_5_2*%
X-235360599Y122002000D03*
%TD*%
D13*
%TO.C,C89*%
X-39400000Y50552000D03*
X-39400000Y48852000D03*
%TD*%
%TO.C,R22*%
X-56000000Y60402000D03*
X-56000000Y58702000D03*
%TD*%
D11*
%TO.C,KiKit_MB_11_1*%
X-85000000Y72302999D03*
%TD*%
%TO.C,KiKit_MB_5_4*%
X-233679800Y122002000D03*
%TD*%
D30*
%TO.C,FID5*%
X-4000000Y16202000D03*
%TD*%
D11*
%TO.C,KiKit_MB_20_3*%
X-63679801Y7002000D03*
%TD*%
%TO.C,KiKit_MB_13_3*%
X-148679801Y7002000D03*
%TD*%
D13*
%TO.C,R4*%
X-219600000Y44952000D03*
X-219600000Y43252000D03*
%TD*%
D81*
%TO.C,U5*%
X-225440361Y67502001D03*
X-225440361Y67002001D03*
X-225440361Y66502001D03*
X-225440361Y66002001D03*
X-225440361Y65502001D03*
X-225440361Y65002001D03*
X-225440361Y64502001D03*
X-225440361Y64002001D03*
X-225440361Y63502001D03*
X-225440361Y63002001D03*
D82*
X-224440361Y62502001D03*
X-223940361Y62502001D03*
X-223440361Y62502001D03*
X-222940361Y62502001D03*
D81*
X-221940361Y63002001D03*
X-221940361Y63502001D03*
X-221940361Y64002001D03*
X-221940361Y64502001D03*
X-221940361Y65002001D03*
X-221940361Y65502001D03*
X-221940361Y66002001D03*
X-221940361Y66502001D03*
X-221940361Y67002001D03*
X-221940361Y67502001D03*
D82*
X-222940361Y68002001D03*
X-223440361Y68002001D03*
X-223940361Y68002001D03*
X-224440361Y68002001D03*
D83*
X-223690361Y65252001D03*
%TD*%
D11*
%TO.C,KiKit_MB_24_5*%
X-12160600Y7002000D03*
%TD*%
D13*
%TO.C,R78*%
X-116200000Y17352000D03*
X-116200000Y15652000D03*
%TD*%
%TO.C,R12*%
X-50700000Y80652000D03*
X-50700000Y78952000D03*
%TD*%
D84*
%TO.C,C101*%
X-104198959Y35403041D03*
X-105401041Y34200959D03*
%TD*%
D11*
%TO.C,KiKit_MB_6_1*%
X-183001000Y122002000D03*
%TD*%
D43*
%TO.C,D10*%
X-29500002Y12427000D03*
X-29500002Y14177000D03*
%TD*%
D84*
%TO.C,C101*%
X-189198959Y35403041D03*
X-190401041Y34200959D03*
%TD*%
D27*
%TO.C,R2*%
X-50200000Y39451999D03*
X-50200000Y40551999D03*
%TD*%
D12*
%TO.C,R26*%
X-72850000Y48702000D03*
X-71150000Y48702000D03*
%TD*%
D70*
%TO.C,J3*%
X-69100000Y68977001D03*
D71*
X-69100000Y61527001D03*
D72*
X-67100000Y68002001D03*
X-67100000Y67502001D03*
X-67100000Y67002001D03*
X-67100000Y66502001D03*
X-67100000Y66002001D03*
X-67100000Y65502001D03*
X-67100000Y65002001D03*
X-67100000Y64502001D03*
X-67100000Y64002001D03*
X-67100000Y63502001D03*
X-67100000Y63002001D03*
X-67100000Y62502001D03*
D73*
X-68400000Y62202001D03*
D74*
X-69100000Y62852001D03*
X-69100000Y63652001D03*
X-68400000Y64052001D03*
X-69100000Y64452001D03*
X-68400000Y64852001D03*
X-68400000Y65652001D03*
X-69100000Y66052001D03*
X-68400000Y66452001D03*
X-69100000Y66852001D03*
X-69100000Y67652001D03*
D73*
X-68400000Y68302001D03*
D75*
X-73100000Y71252001D03*
D76*
X-67600000Y69752001D03*
X-67600000Y60752001D03*
D75*
X-73100000Y59252001D03*
%TD*%
D11*
%TO.C,KiKit_MB_19_3*%
X-75000000Y85981800D03*
%TD*%
D85*
%TO.C,U8*%
X-58690361Y65002000D03*
X-58690361Y64502000D03*
D86*
X-58690361Y64002000D03*
D85*
X-58690361Y63502000D03*
X-58690361Y63002000D03*
X-57590361Y63002000D03*
X-57590361Y63502000D03*
D86*
X-57590361Y64002000D03*
D85*
X-57590361Y64502000D03*
X-57590361Y65002000D03*
%TD*%
D11*
%TO.C,KiKit_MB_2_2*%
X-170000000Y71462599D03*
%TD*%
D85*
%TO.C,U6*%
X-231750000Y67502000D03*
X-231750000Y67002000D03*
D86*
X-231750000Y66502000D03*
D85*
X-231750000Y66002000D03*
X-231750000Y65502000D03*
X-230650000Y65502000D03*
X-230650000Y66002000D03*
D86*
X-230650000Y66502000D03*
D85*
X-230650000Y67002000D03*
X-230650000Y67502000D03*
%TD*%
D78*
%TO.C,U13*%
X-134150000Y39102000D03*
X-133650000Y39102000D03*
X-133150000Y39102000D03*
X-132650000Y39102000D03*
X-132150000Y39102000D03*
X-131650000Y39102000D03*
X-131650000Y41202000D03*
X-132150000Y41202000D03*
X-132650000Y41202000D03*
X-133150000Y41202000D03*
X-133650000Y41202000D03*
X-134150000Y41202000D03*
D79*
X-132900000Y40152000D03*
%TD*%
D11*
%TO.C,KiKit_MB_1_2*%
X-170000000Y109462599D03*
%TD*%
D34*
%TO.C,H1*%
X-4000000Y118002000D03*
%TD*%
D11*
%TO.C,KiKit_MB_18_3*%
X-159999936Y34381798D03*
%TD*%
D32*
%TO.C,C33*%
X-139650000Y28302000D03*
X-139650000Y30302000D03*
%TD*%
D11*
%TO.C,KiKit_MB_15_6*%
X-93799001Y122002000D03*
%TD*%
D43*
%TO.C,D11*%
X-31200000Y12427000D03*
X-31200000Y14177000D03*
%TD*%
D11*
%TO.C,KiKit_MB_1_3*%
X-170000000Y108622199D03*
%TD*%
%TO.C,U2*%
X-182000000Y99702000D03*
X-181000000Y99702001D03*
X-180000000Y99702000D03*
X-179000000Y99702000D03*
X-183000000Y98702000D03*
X-182000000Y98702000D03*
X-181000000Y98702000D03*
X-180000000Y98702000D03*
X-179000000Y98702000D03*
X-183000001Y97702000D03*
X-182000000Y97702000D03*
X-181000000Y97702000D03*
X-180000000Y97702000D03*
X-178999999Y97702000D03*
X-183000000Y96702000D03*
X-182000000Y96702000D03*
X-181000000Y96702000D03*
X-180000000Y96702000D03*
X-179000000Y96702000D03*
X-183000000Y95702000D03*
X-182000000Y95702000D03*
X-181000000Y95701999D03*
X-180000000Y95702000D03*
X-179000000Y95702000D03*
%TD*%
D12*
%TO.C,C30*%
X-40400000Y41102000D03*
X-38700000Y41102000D03*
%TD*%
D87*
%TO.C,U23*%
X-25050000Y32682500D03*
X-24550000Y32682500D03*
X-24050000Y32682500D03*
X-23550000Y32682500D03*
X-23550000Y34582500D03*
X-24050000Y34582500D03*
X-24550000Y34582500D03*
X-25050000Y34582500D03*
D88*
X-24300000Y33632500D03*
%TD*%
D23*
%TO.C,C21*%
X-222000000Y78952000D03*
X-222000000Y80652000D03*
%TD*%
D80*
%TO.C,C10*%
X-202581802Y77405984D03*
X-201803984Y78183802D03*
%TD*%
D30*
%TO.C,FID4*%
X-157800000Y97802000D03*
%TD*%
D43*
%TO.C,D12*%
X-197800000Y12427000D03*
X-197800000Y14177000D03*
%TD*%
D70*
%TO.C,J3*%
X-154100000Y68977001D03*
D71*
X-154100000Y61527001D03*
D72*
X-152100000Y68002001D03*
X-152100000Y67502001D03*
X-152100000Y67002001D03*
X-152100000Y66502001D03*
X-152100000Y66002001D03*
X-152100000Y65502001D03*
X-152100000Y65002001D03*
X-152100000Y64502001D03*
X-152100000Y64002001D03*
X-152100000Y63502001D03*
X-152100000Y63002001D03*
X-152100000Y62502001D03*
D73*
X-153400000Y62202001D03*
D74*
X-154100000Y62852001D03*
X-154100000Y63652001D03*
X-153400000Y64052001D03*
X-154100000Y64452001D03*
X-153400000Y64852001D03*
X-153400000Y65652001D03*
X-154100000Y66052001D03*
X-153400000Y66452001D03*
X-154100000Y66852001D03*
X-154100000Y67652001D03*
D73*
X-153400000Y68302001D03*
D75*
X-158100000Y71252001D03*
D76*
X-152600000Y69752001D03*
X-152600000Y60752001D03*
D75*
X-158100000Y59252001D03*
%TD*%
D11*
%TO.C,KiKit_MB_25_2*%
X-74999938Y33541398D03*
%TD*%
D43*
%TO.C,D8*%
X-34600003Y12426997D03*
X-34600003Y14176997D03*
%TD*%
D34*
%TO.C,H2*%
X-71000000Y118002000D03*
%TD*%
D23*
%TO.C,R8*%
X-152000000Y55902000D03*
X-152000000Y57602000D03*
%TD*%
D11*
%TO.C,KiKit_MB_1_4*%
X-170000000Y107781800D03*
%TD*%
%TO.C,KiKit_MB_21_3*%
X-64520200Y122002000D03*
%TD*%
D54*
%TO.C,KiKit_FID_T_2*%
X-5000000Y126503500D03*
%TD*%
D89*
%TO.C,X3*%
X-33449049Y73767165D03*
X-32741942Y73060058D03*
X-32034835Y72352951D03*
X-31150951Y73236835D03*
X-31858058Y73943942D03*
X-32565165Y74651049D03*
%TD*%
D34*
%TO.C,H3*%
X-71000000Y11002000D03*
%TD*%
D11*
%TO.C,KiKit_MB_6_3*%
X-181320200Y122002000D03*
%TD*%
%TO.C,KiKit_MB_11_2*%
X-85000000Y71462599D03*
%TD*%
D23*
%TO.C,C8*%
X-238350000Y55902000D03*
X-238350000Y57602000D03*
%TD*%
D89*
%TO.C,X3*%
X-203449049Y73767165D03*
X-202741942Y73060058D03*
X-202034835Y72352951D03*
X-201150951Y73236835D03*
X-201858058Y73943942D03*
X-202565165Y74651049D03*
%TD*%
D43*
%TO.C,D7*%
X-196100000Y12427001D03*
X-196100000Y14177001D03*
%TD*%
D13*
%TO.C,R22*%
X-141000000Y60402000D03*
X-141000000Y58702000D03*
%TD*%
D43*
%TO.C,D11*%
X-116200000Y12427000D03*
X-116200000Y14177000D03*
%TD*%
D11*
%TO.C,KiKit_MB_22_6*%
X-8799001Y122002000D03*
%TD*%
D33*
%TO.C,D5*%
X-152825000Y48702000D03*
X-154575000Y48702000D03*
%TD*%
D24*
%TO.C,C32*%
X-40550000Y39352000D03*
X-38550000Y39352000D03*
%TD*%
D80*
%TO.C,C10*%
X-32581802Y77405984D03*
X-31803984Y78183802D03*
%TD*%
D11*
%TO.C,KiKit_MB_24_4*%
X-11320200Y7002000D03*
%TD*%
D90*
%TO.C,J7*%
X-59600000Y118002000D03*
D91*
X-15400000Y118002000D03*
D92*
X-57100000Y120202000D03*
X-57100000Y115802000D03*
X-56300000Y120202000D03*
X-56300000Y115802000D03*
X-55500000Y120202000D03*
X-55500000Y115802000D03*
X-54700000Y120202000D03*
X-54700000Y115802000D03*
X-53900000Y120202000D03*
X-53900000Y115802000D03*
X-53100000Y120202000D03*
X-53100000Y115802000D03*
X-52300000Y120202000D03*
X-52300000Y115802000D03*
X-51500000Y120202000D03*
X-51500000Y115802000D03*
X-50700000Y120202000D03*
X-50700000Y115802000D03*
X-49900000Y120202000D03*
X-49900000Y115802000D03*
X-49100000Y120202000D03*
X-49100000Y115802000D03*
X-48300000Y120202000D03*
X-48300000Y115802000D03*
X-47500000Y120202000D03*
X-47500000Y115802000D03*
X-46700000Y120202000D03*
X-46700000Y115802000D03*
X-45900000Y120202000D03*
X-45900000Y115802000D03*
X-45100000Y120202000D03*
X-45100000Y115802000D03*
X-44300000Y120202000D03*
X-44300000Y115802000D03*
X-43500000Y120202000D03*
X-43500000Y115802000D03*
X-42700000Y120202000D03*
X-42700000Y115802000D03*
X-41900000Y120202000D03*
X-41900000Y115802000D03*
X-41100000Y120202000D03*
X-41100000Y115802000D03*
X-40300000Y120202000D03*
X-40300000Y115802000D03*
X-39500000Y120202000D03*
X-39500000Y115802000D03*
X-38700000Y120202000D03*
X-38700000Y115802000D03*
X-37900000Y120202000D03*
X-37900000Y115802000D03*
X-37100000Y120202000D03*
X-37100000Y115802000D03*
X-36300000Y120202000D03*
X-36300000Y115802000D03*
X-35500000Y120202000D03*
X-35500000Y115802000D03*
X-34700000Y120202000D03*
X-34700000Y115802000D03*
X-33900000Y120202000D03*
X-33900000Y115802000D03*
X-33100000Y120202000D03*
X-33100000Y115802000D03*
X-32300000Y120202000D03*
X-32300000Y115802000D03*
X-31500000Y120202000D03*
X-31500000Y115802000D03*
X-30700000Y120202000D03*
X-30700000Y115802000D03*
X-29900000Y120202000D03*
X-29900000Y115802000D03*
X-29100000Y120202000D03*
X-29100000Y115802000D03*
X-28300000Y120202000D03*
X-28300000Y115802000D03*
X-27500000Y120202000D03*
X-27500000Y115802000D03*
X-26700000Y120202000D03*
X-26700000Y115802000D03*
X-25900000Y120202000D03*
X-25900000Y115802000D03*
X-25100000Y120202000D03*
X-25100000Y115802000D03*
X-24300000Y120202000D03*
X-24300000Y115802000D03*
X-23500000Y120202000D03*
X-23500000Y115802000D03*
X-22700000Y120202000D03*
X-22700000Y115802000D03*
X-21900000Y120202000D03*
X-21900000Y115802000D03*
X-21100000Y120202000D03*
X-21100000Y115802000D03*
X-20300000Y120202000D03*
X-20300000Y115802000D03*
X-19500000Y120202000D03*
X-19500000Y115802000D03*
X-18700000Y120202000D03*
X-18700000Y115802000D03*
X-17900000Y120202000D03*
X-17900000Y115802000D03*
%TD*%
D50*
%TO.C,L2*%
X-121050000Y50602000D03*
X-122750000Y50602000D03*
%TD*%
D43*
%TO.C,D9*%
X-202900002Y12427000D03*
X-202900002Y14177000D03*
%TD*%
D12*
%TO.C,R24*%
X-72850000Y45701999D03*
X-71150000Y45701999D03*
%TD*%
D11*
%TO.C,KiKit_MB_12_5*%
X-85000000Y23941401D03*
%TD*%
D12*
%TO.C,R16*%
X-48400000Y21602000D03*
X-46700000Y21602000D03*
%TD*%
D11*
%TO.C,KiKit_MB_5_3*%
X-234520199Y122002000D03*
%TD*%
D81*
%TO.C,U5*%
X-55440361Y67502001D03*
X-55440361Y67002001D03*
X-55440361Y66502001D03*
X-55440361Y66002001D03*
X-55440361Y65502001D03*
X-55440361Y65002001D03*
X-55440361Y64502001D03*
X-55440361Y64002001D03*
X-55440361Y63502001D03*
X-55440361Y63002001D03*
D82*
X-54440361Y62502001D03*
X-53940361Y62502001D03*
X-53440361Y62502001D03*
X-52940361Y62502001D03*
D81*
X-51940361Y63002001D03*
X-51940361Y63502001D03*
X-51940361Y64002001D03*
X-51940361Y64502001D03*
X-51940361Y65002001D03*
X-51940361Y65502001D03*
X-51940361Y66002001D03*
X-51940361Y66502001D03*
X-51940361Y67002001D03*
X-51940361Y67502001D03*
D82*
X-52940361Y68002001D03*
X-53440361Y68002001D03*
X-53940361Y68002001D03*
X-54440361Y68002001D03*
D83*
X-53690361Y65252001D03*
%TD*%
D77*
%TO.C,L1*%
X-133300000Y31067001D03*
X-133300000Y27637001D03*
X-124800000Y27637001D03*
X-124800000Y31067001D03*
%TD*%
D50*
%TO.C,C99*%
X-229750000Y108702000D03*
X-231450000Y108702000D03*
%TD*%
D11*
%TO.C,KiKit_MB_4_5*%
X-235360599Y7002000D03*
%TD*%
D43*
%TO.C,D12*%
X-112800000Y12427000D03*
X-112800000Y14177000D03*
%TD*%
D11*
%TO.C,U2*%
X-12000000Y99702000D03*
X-11000000Y99702001D03*
X-10000000Y99702000D03*
X-9000000Y99702000D03*
X-13000000Y98702000D03*
X-12000000Y98702000D03*
X-11000000Y98702000D03*
X-10000000Y98702000D03*
X-9000000Y98702000D03*
X-13000001Y97702000D03*
X-12000000Y97702000D03*
X-11000000Y97702000D03*
X-10000000Y97702000D03*
X-8999999Y97702000D03*
X-13000000Y96702000D03*
X-12000000Y96702000D03*
X-11000000Y96702000D03*
X-10000000Y96702000D03*
X-9000000Y96702000D03*
X-13000000Y95702000D03*
X-12000000Y95702000D03*
X-11000000Y95701999D03*
X-10000000Y95702000D03*
X-9000000Y95702000D03*
%TD*%
%TO.C,U14*%
X-182000000Y90702000D03*
X-181000000Y90702001D03*
X-180000000Y90702000D03*
X-179000000Y90702000D03*
X-183000000Y89702000D03*
X-182000000Y89702000D03*
X-181000000Y89702000D03*
X-180000000Y89702000D03*
X-179000000Y89702000D03*
X-183000001Y88702000D03*
X-182000000Y88702000D03*
X-181000000Y88702000D03*
X-180000000Y88702000D03*
X-178999999Y88702000D03*
X-183000000Y87702000D03*
X-182000000Y87702000D03*
X-181000000Y87702000D03*
X-180000000Y87702000D03*
X-179000000Y87702000D03*
X-183000000Y86702000D03*
X-182000000Y86702000D03*
X-181000000Y86701999D03*
X-180000000Y86702000D03*
X-179000000Y86702000D03*
%TD*%
D35*
%TO.C,C38*%
X-44150000Y38702000D03*
X-45250000Y38702000D03*
%TD*%
D13*
%TO.C,R80*%
X-27800000Y17352000D03*
X-27800000Y15652000D03*
%TD*%
D23*
%TO.C,R55*%
X-107150000Y32732499D03*
X-107150000Y34432499D03*
%TD*%
D33*
%TO.C,D16*%
X-67825000Y76302000D03*
X-69575000Y76302000D03*
%TD*%
D23*
%TO.C,R8*%
X-237000000Y55902000D03*
X-237000000Y57602000D03*
%TD*%
D87*
%TO.C,U23*%
X-195050000Y32682500D03*
X-194550000Y32682500D03*
X-194050000Y32682500D03*
X-193550000Y32682500D03*
X-193550000Y34582500D03*
X-194050000Y34582500D03*
X-194550000Y34582500D03*
X-195050000Y34582500D03*
D88*
X-194300000Y33632500D03*
%TD*%
D93*
%TO.C,FB2*%
X-125900001Y50551999D03*
X-127900001Y50551999D03*
%TD*%
D43*
%TO.C,D12*%
X-27800000Y12427000D03*
X-27800000Y14177000D03*
%TD*%
D11*
%TO.C,U15*%
X-90000001Y90702000D03*
X-89000001Y90702001D03*
X-88000001Y90702000D03*
X-87000001Y90702000D03*
X-91000001Y89702000D03*
X-90000001Y89702000D03*
X-89000001Y89702000D03*
X-88000001Y89702000D03*
X-87000001Y89702000D03*
X-91000002Y88702000D03*
X-90000001Y88702000D03*
X-89000001Y88702000D03*
X-88000001Y88702000D03*
X-87000000Y88702000D03*
X-91000001Y87702000D03*
X-90000001Y87702000D03*
X-89000001Y87702000D03*
X-88000001Y87702000D03*
X-87000001Y87702000D03*
X-91000001Y86702000D03*
X-90000001Y86702000D03*
X-89000001Y86701999D03*
X-88000001Y86702000D03*
X-87000001Y86702000D03*
%TD*%
%TO.C,KiKit_MB_15_4*%
X-95479801Y122002000D03*
%TD*%
D19*
%TO.C,U11*%
X-57525000Y77452000D03*
X-57525000Y76952000D03*
X-57525000Y76452000D03*
X-57525000Y75952000D03*
X-57525000Y75452000D03*
X-57525000Y74952000D03*
D20*
X-56750000Y74177000D03*
X-56250000Y74177000D03*
X-55750000Y74177000D03*
X-55250000Y74177000D03*
X-54750000Y74177000D03*
X-54250000Y74177000D03*
D19*
X-53475000Y74952000D03*
X-53475000Y75452000D03*
X-53475000Y75952000D03*
X-53475000Y76452000D03*
X-53475000Y76952000D03*
X-53475000Y77452000D03*
D20*
X-54250000Y78227000D03*
X-54750000Y78227000D03*
X-55250000Y78227000D03*
X-55750000Y78227000D03*
X-56250000Y78227000D03*
X-56750000Y78227000D03*
D21*
X-55500000Y76202000D03*
%TD*%
D11*
%TO.C,KiKit_MB_2_6*%
X-170000000Y68101000D03*
%TD*%
D80*
%TO.C,C9*%
X-118288909Y78113091D03*
X-117511091Y78890909D03*
%TD*%
D11*
%TO.C,KiKit_MB_29_6*%
X-167100000Y7002000D03*
%TD*%
D12*
%TO.C,R24*%
X-242850000Y45701999D03*
X-241150000Y45701999D03*
%TD*%
D11*
%TO.C,U15*%
X-175000001Y90702000D03*
X-174000001Y90702001D03*
X-173000001Y90702000D03*
X-172000001Y90702000D03*
X-176000001Y89702000D03*
X-175000001Y89702000D03*
X-174000001Y89702000D03*
X-173000001Y89702000D03*
X-172000001Y89702000D03*
X-176000002Y88702000D03*
X-175000001Y88702000D03*
X-174000001Y88702000D03*
X-173000001Y88702000D03*
X-172000000Y88702000D03*
X-176000001Y87702000D03*
X-175000001Y87702000D03*
X-174000001Y87702000D03*
X-173000001Y87702000D03*
X-172000001Y87702000D03*
X-176000001Y86702000D03*
X-175000001Y86702000D03*
X-174000001Y86701999D03*
X-173000001Y86702000D03*
X-172000001Y86702000D03*
%TD*%
D23*
%TO.C,R45*%
X-142300000Y55052000D03*
X-142300000Y56752000D03*
%TD*%
D11*
%TO.C,KiKit_MB_17_2*%
X-94639401Y7002000D03*
%TD*%
D33*
%TO.C,D6*%
X-152825000Y50202000D03*
X-154575000Y50202000D03*
%TD*%
D69*
%TO.C,C94*%
X-237300000Y31802000D03*
X-237300000Y37202000D03*
%TD*%
D80*
%TO.C,C10*%
X-117581802Y77405984D03*
X-116803984Y78183802D03*
%TD*%
D31*
%TO.C,C28*%
X-120050000Y27302001D03*
X-120050000Y31402001D03*
%TD*%
D13*
%TO.C,R34*%
X-32900000Y17352000D03*
X-32900000Y15652000D03*
%TD*%
D12*
%TO.C,R74*%
X-218750000Y80402000D03*
X-217050000Y80402000D03*
%TD*%
D64*
%TO.C,R29*%
X-58050000Y72902000D03*
X-56950000Y72902000D03*
%TD*%
D12*
%TO.C,R25*%
X-242850000Y47202001D03*
X-241150000Y47202001D03*
%TD*%
D11*
%TO.C,KiKit_MB_18_2*%
X-159999938Y33541398D03*
%TD*%
D65*
%TO.C,J1*%
X-153500000Y105227000D03*
D66*
X-153500000Y107767000D03*
%TD*%
D27*
%TO.C,R13*%
X-137400000Y84052000D03*
X-137400000Y85152000D03*
%TD*%
D11*
%TO.C,KiKit_MB_11_6*%
X-85000000Y68101000D03*
%TD*%
D94*
%TO.C,X1*%
X-140300000Y86402001D03*
X-140299999Y85202000D03*
X-140300000Y84001999D03*
X-138700000Y84001999D03*
X-138700001Y85202000D03*
X-138700000Y86402001D03*
%TD*%
D11*
%TO.C,U14*%
X-97000000Y90702000D03*
X-96000000Y90702001D03*
X-95000000Y90702000D03*
X-94000000Y90702000D03*
X-98000000Y89702000D03*
X-97000000Y89702000D03*
X-96000000Y89702000D03*
X-95000000Y89702000D03*
X-94000000Y89702000D03*
X-98000001Y88702000D03*
X-97000000Y88702000D03*
X-96000000Y88702000D03*
X-95000000Y88702000D03*
X-93999999Y88702000D03*
X-98000000Y87702000D03*
X-97000000Y87702000D03*
X-96000000Y87702000D03*
X-95000000Y87702000D03*
X-94000000Y87702000D03*
X-98000000Y86702000D03*
X-97000000Y86702000D03*
X-96000000Y86701999D03*
X-95000000Y86702000D03*
X-94000000Y86702000D03*
%TD*%
D12*
%TO.C,R16*%
X-133400000Y21602000D03*
X-131700000Y21602000D03*
%TD*%
D44*
%TO.C,D1*%
X-204550000Y37541999D03*
D45*
X-203510000Y33736999D03*
X-205590000Y33736999D03*
%TD*%
D43*
%TO.C,D10*%
X-199500002Y12427000D03*
X-199500002Y14177000D03*
%TD*%
D23*
%TO.C,R19*%
X-66600000Y81552000D03*
X-66600000Y83252000D03*
%TD*%
D64*
%TO.C,C86*%
X-16850000Y50752000D03*
X-15750000Y50752000D03*
%TD*%
D23*
%TO.C,C21*%
X-52000000Y78952000D03*
X-52000000Y80652000D03*
%TD*%
D18*
%TO.C,X4*%
X-148700000Y71252000D03*
X-146300000Y71252000D03*
X-146300000Y73152000D03*
X-148700000Y73152000D03*
%TD*%
D11*
%TO.C,KiKit_MB_20_6*%
X-66201000Y7002000D03*
%TD*%
D95*
%TO.C,U9*%
X-218437500Y65439501D03*
X-218437500Y64939501D03*
X-218437500Y64439501D03*
X-218437500Y63939501D03*
X-218437500Y63439501D03*
X-218437500Y62939501D03*
D96*
X-217750000Y62252001D03*
X-217250000Y62252001D03*
X-216750000Y62252001D03*
X-216250000Y62252001D03*
X-215750000Y62252001D03*
X-215250000Y62252001D03*
D95*
X-214562500Y62939501D03*
X-214562500Y63439501D03*
X-214562500Y63939501D03*
X-214562500Y64439501D03*
X-214562500Y64939501D03*
X-214562500Y65439501D03*
D96*
X-215250000Y66127001D03*
X-215750000Y66127001D03*
X-216250000Y66127001D03*
X-216750000Y66127001D03*
X-217250000Y66127001D03*
X-217750000Y66127001D03*
D97*
X-216500000Y64189501D03*
%TD*%
D12*
%TO.C,C90*%
X-123050000Y47202000D03*
X-121350000Y47202000D03*
%TD*%
D11*
%TO.C,KiKit_MB_9_3*%
X-160000000Y85981800D03*
%TD*%
D98*
%TO.C,F2*%
X-235100000Y58152000D03*
X-235100000Y55352000D03*
%TD*%
D16*
%TO.C,U4*%
X-38000000Y9252000D03*
D17*
X-38000000Y10952000D03*
X-40000000Y10952000D03*
X-40000000Y9052000D03*
%TD*%
D13*
%TO.C,C87*%
X-13700001Y48602000D03*
X-13700001Y46902000D03*
%TD*%
D11*
%TO.C,KiKit_MB_6_6*%
X-178799001Y122002000D03*
%TD*%
D12*
%TO.C,R7*%
X-72850000Y74802001D03*
X-71150000Y74802001D03*
%TD*%
D32*
%TO.C,C27*%
X-222900000Y28302000D03*
X-222900000Y30302000D03*
%TD*%
D11*
%TO.C,KiKit_MB_15_1*%
X-98001000Y122002000D03*
%TD*%
%TO.C,KiKit_MB_15_3*%
X-96320200Y122002000D03*
%TD*%
D85*
%TO.C,U6*%
X-146750000Y67502000D03*
X-146750000Y67002000D03*
D86*
X-146750000Y66502000D03*
D85*
X-146750000Y66002000D03*
X-146750000Y65502000D03*
X-145650000Y65502000D03*
X-145650000Y66002000D03*
D86*
X-145650000Y66502000D03*
D85*
X-145650000Y67002000D03*
X-145650000Y67502000D03*
%TD*%
D99*
%TO.C,Q1*%
X-124302750Y21257000D03*
X-124302750Y17447000D03*
X-124302750Y18717000D03*
X-124302750Y19987000D03*
D100*
X-127795000Y19352000D03*
%TD*%
D11*
%TO.C,KiKit_MB_20_2*%
X-62839401Y7002000D03*
%TD*%
D13*
%TO.C,C45*%
X-183700000Y35602000D03*
X-183700000Y33902000D03*
%TD*%
D98*
%TO.C,F2*%
X-65100000Y58152000D03*
X-65100000Y55352000D03*
%TD*%
D11*
%TO.C,KiKit_MB_19_6*%
X-75000000Y88502999D03*
%TD*%
%TO.C,KiKit_MB_25_6*%
X-74999929Y36902997D03*
%TD*%
D62*
%TO.C,D17*%
X-153500001Y101702000D03*
X-154199999Y101702000D03*
%TD*%
D67*
%TO.C,SW2*%
X-240700000Y53202000D03*
D68*
X-242600000Y53202000D03*
X-238800000Y53202000D03*
%TD*%
D47*
%TO.C,J5*%
X-233900000Y23002000D03*
D48*
X-240200000Y23002000D03*
D49*
X-236800000Y18202000D03*
%TD*%
D93*
%TO.C,FB2*%
X-210900001Y50551999D03*
X-212900001Y50551999D03*
%TD*%
D46*
%TO.C,R30*%
X-217250001Y68752000D03*
X-217250001Y67652000D03*
%TD*%
D40*
%TO.C,U10*%
X-60500001Y56239500D03*
X-60000001Y56239500D03*
X-59500001Y56239500D03*
D41*
X-58737501Y56752000D03*
X-58737501Y57252000D03*
X-58737501Y57752000D03*
X-58737501Y58252000D03*
D40*
X-59500001Y58764500D03*
X-60000001Y58764500D03*
X-60500001Y58764500D03*
D41*
X-61262501Y58252000D03*
X-61262501Y57752000D03*
X-61262501Y57252000D03*
X-61262501Y56752000D03*
D42*
X-60000001Y57502000D03*
%TD*%
D12*
%TO.C,C90*%
X-208050000Y47202000D03*
X-206350000Y47202000D03*
%TD*%
D33*
%TO.C,D3*%
X-67825000Y45701999D03*
X-69575000Y45701999D03*
%TD*%
D30*
%TO.C,FID6*%
X-158000000Y16002000D03*
%TD*%
D33*
%TO.C,D6*%
X-67825000Y50202000D03*
X-69575000Y50202000D03*
%TD*%
D11*
%TO.C,KiKit_MB_23_5*%
X-38760600Y7002000D03*
%TD*%
%TO.C,KiKit_MB_17_5*%
X-97160600Y7002000D03*
%TD*%
D33*
%TO.C,D3*%
X-237825000Y45701999D03*
X-239575000Y45701999D03*
%TD*%
D13*
%TO.C,C89*%
X-209400000Y50552000D03*
X-209400000Y48852000D03*
%TD*%
D43*
%TO.C,D8*%
X-204600003Y12426997D03*
X-204600003Y14176997D03*
%TD*%
D11*
%TO.C,KiKit_MB_8_2*%
X-179639401Y7002000D03*
%TD*%
D23*
%TO.C,R44*%
X-141000000Y55602000D03*
X-141000000Y57302000D03*
%TD*%
D55*
%TO.C,Q10*%
X-225450000Y32632000D03*
X-225450000Y33902000D03*
X-225450000Y35172000D03*
X-225450000Y36442000D03*
D56*
X-228165000Y36809500D03*
D57*
X-229245000Y35652000D03*
D58*
X-231035000Y36752000D03*
D56*
X-228165000Y32264500D03*
D57*
X-229245000Y33422000D03*
D58*
X-231035000Y32322000D03*
%TD*%
D11*
%TO.C,KiKit_MB_2_5*%
X-170000000Y68941400D03*
%TD*%
D18*
%TO.C,X4*%
X-63700000Y71252000D03*
X-61300000Y71252000D03*
X-61300000Y73152000D03*
X-63700000Y73152000D03*
%TD*%
D14*
%TO.C,U20*%
X-99812500Y48352000D03*
X-99812500Y49002000D03*
X-99812500Y49652000D03*
X-101587500Y49652000D03*
X-101587500Y49002000D03*
X-101587500Y48352000D03*
D15*
X-100700000Y49002000D03*
%TD*%
D50*
%TO.C,R57*%
X-21949998Y35932500D03*
X-23649998Y35932500D03*
%TD*%
D23*
%TO.C,C21*%
X-137000000Y78952000D03*
X-137000000Y80652000D03*
%TD*%
D11*
%TO.C,KiKit_MB_9_2*%
X-160000000Y85141400D03*
%TD*%
D12*
%TO.C,R33*%
X-208050000Y48502001D03*
X-206350000Y48502001D03*
%TD*%
D30*
%TO.C,FID4*%
X-242800000Y97802000D03*
%TD*%
D23*
%TO.C,R55*%
X-192150000Y32732499D03*
X-192150000Y34432499D03*
%TD*%
D50*
%TO.C,R57*%
X-106949998Y35932500D03*
X-108649998Y35932500D03*
%TD*%
D13*
%TO.C,R20*%
X-151600000Y86352000D03*
X-151600000Y84652000D03*
%TD*%
D93*
%TO.C,FB2*%
X-40900001Y50551999D03*
X-42900001Y50551999D03*
%TD*%
D33*
%TO.C,D2*%
X-237825000Y44202000D03*
X-239575000Y44202000D03*
%TD*%
D11*
%TO.C,KiKit_MB_1_1*%
X-170000000Y110302999D03*
%TD*%
D95*
%TO.C,U9*%
X-48437500Y65439501D03*
X-48437500Y64939501D03*
X-48437500Y64439501D03*
X-48437500Y63939501D03*
X-48437500Y63439501D03*
X-48437500Y62939501D03*
D96*
X-47750000Y62252001D03*
X-47250000Y62252001D03*
X-46750000Y62252001D03*
X-46250000Y62252001D03*
X-45750000Y62252001D03*
X-45250000Y62252001D03*
D95*
X-44562500Y62939501D03*
X-44562500Y63439501D03*
X-44562500Y63939501D03*
X-44562500Y64439501D03*
X-44562500Y64939501D03*
X-44562500Y65439501D03*
D96*
X-45250000Y66127001D03*
X-45750000Y66127001D03*
X-46250000Y66127001D03*
X-46750000Y66127001D03*
X-47250000Y66127001D03*
X-47750000Y66127001D03*
D97*
X-46500000Y64189501D03*
%TD*%
D23*
%TO.C,R44*%
X-56000000Y55602000D03*
X-56000000Y57302000D03*
%TD*%
D22*
%TO.C,R11*%
X-200211091Y74113091D03*
X-200988909Y74890909D03*
%TD*%
D24*
%TO.C,C29*%
X-125550000Y37351999D03*
X-123550000Y37351999D03*
%TD*%
D12*
%TO.C,R25*%
X-157850000Y47202001D03*
X-156150000Y47202001D03*
%TD*%
D13*
%TO.C,R5*%
X-219400000Y79002000D03*
X-219400000Y77302000D03*
%TD*%
D33*
%TO.C,D5*%
X-67825000Y48702000D03*
X-69575000Y48702000D03*
%TD*%
D13*
%TO.C,R42*%
X-119600003Y17352000D03*
X-119600003Y15652000D03*
%TD*%
%TO.C,R20*%
X-66600000Y86352000D03*
X-66600000Y84652000D03*
%TD*%
D98*
%TO.C,F2*%
X-150100000Y58152000D03*
X-150100000Y55352000D03*
%TD*%
D78*
%TO.C,U13*%
X-49150000Y39102000D03*
X-48650000Y39102000D03*
X-48150000Y39102000D03*
X-47650000Y39102000D03*
X-47150000Y39102000D03*
X-46650000Y39102000D03*
X-46650000Y41202000D03*
X-47150000Y41202000D03*
X-47650000Y41202000D03*
X-48150000Y41202000D03*
X-48650000Y41202000D03*
X-49150000Y41202000D03*
D79*
X-47900000Y40152000D03*
%TD*%
D64*
%TO.C,C41*%
X-101850000Y44152000D03*
X-100750000Y44152000D03*
%TD*%
D12*
%TO.C,R26*%
X-242850000Y48702000D03*
X-241150000Y48702000D03*
%TD*%
D99*
%TO.C,Q1*%
X-209302750Y21257000D03*
X-209302750Y17447000D03*
X-209302750Y18717000D03*
X-209302750Y19987000D03*
D100*
X-212795000Y19352000D03*
%TD*%
D12*
%TO.C,R21*%
X-157850000Y76302000D03*
X-156150000Y76302000D03*
%TD*%
D11*
%TO.C,KiKit_MB_20_4*%
X-64520200Y7002000D03*
%TD*%
D85*
%TO.C,U8*%
X-228690361Y65002000D03*
X-228690361Y64502000D03*
D86*
X-228690361Y64002000D03*
D85*
X-228690361Y63502000D03*
X-228690361Y63002000D03*
X-227590361Y63002000D03*
X-227590361Y63502000D03*
D86*
X-227590361Y64002000D03*
D85*
X-227590361Y64502000D03*
X-227590361Y65002000D03*
%TD*%
D12*
%TO.C,R18*%
X-216800000Y42902000D03*
X-215100000Y42902000D03*
%TD*%
D11*
%TO.C,KiKit_MB_25_4*%
X-74999933Y35222198D03*
%TD*%
D85*
%TO.C,U8*%
X-143690361Y65002000D03*
X-143690361Y64502000D03*
D86*
X-143690361Y64002000D03*
D85*
X-143690361Y63502000D03*
X-143690361Y63002000D03*
X-142590361Y63002000D03*
X-142590361Y63502000D03*
D86*
X-142590361Y64002000D03*
D85*
X-142590361Y64502000D03*
X-142590361Y65002000D03*
%TD*%
D11*
%TO.C,KiKit_MB_7_6*%
X-209600999Y7002000D03*
%TD*%
D13*
%TO.C,R34*%
X-202900000Y17352000D03*
X-202900000Y15652000D03*
%TD*%
D11*
%TO.C,KiKit_MB_28_6*%
X-167100000Y122002000D03*
%TD*%
D13*
%TO.C,R4*%
X-49600000Y44952000D03*
X-49600000Y43252000D03*
%TD*%
D23*
%TO.C,C47*%
X-123600000Y77352000D03*
X-123600000Y79052000D03*
%TD*%
D12*
%TO.C,C39*%
X-187450000Y47052000D03*
X-185750000Y47052000D03*
%TD*%
D101*
%TO.C,SW1*%
X-127100000Y10402000D03*
X-130100000Y10402000D03*
X-128600000Y8552000D03*
%TD*%
D12*
%TO.C,C40*%
X-102450000Y40452000D03*
X-100750000Y40452000D03*
%TD*%
D13*
%TO.C,R78*%
X-31200000Y17352000D03*
X-31200000Y15652000D03*
%TD*%
D32*
%TO.C,C27*%
X-137900000Y28302000D03*
X-137900000Y30302000D03*
%TD*%
D11*
%TO.C,KiKit_MB_21_6*%
X-61999001Y122002000D03*
%TD*%
D12*
%TO.C,C90*%
X-38050000Y47202000D03*
X-36350000Y47202000D03*
%TD*%
D64*
%TO.C,C44*%
X-186850000Y37752000D03*
X-185750000Y37752000D03*
%TD*%
D23*
%TO.C,R45*%
X-57300000Y55052000D03*
X-57300000Y56752000D03*
%TD*%
D11*
%TO.C,KiKit_MB_3_3*%
X-170000000Y25622200D03*
%TD*%
%TO.C,KiKit_MB_26_1*%
X-77900000Y122002000D03*
%TD*%
D94*
%TO.C,X1*%
X-55300000Y86402001D03*
X-55299999Y85202000D03*
X-55300000Y84001999D03*
X-53700000Y84001999D03*
X-53700001Y85202000D03*
X-53700000Y86402001D03*
%TD*%
D43*
%TO.C,D7*%
X-26100000Y12427001D03*
X-26100000Y14177001D03*
%TD*%
D11*
%TO.C,KiKit_MB_18_1*%
X-159999940Y32700998D03*
%TD*%
%TO.C,KiKit_MB_2_4*%
X-170000000Y69781800D03*
%TD*%
%TO.C,KiKit_MB_12_4*%
X-85000000Y24781801D03*
%TD*%
%TO.C,KiKit_MB_14_6*%
X-146999001Y122002000D03*
%TD*%
%TO.C,KiKit_MB_24_3*%
X-10479801Y7002000D03*
%TD*%
%TO.C,KiKit_MB_28_2*%
X-163740000Y122002000D03*
%TD*%
D30*
%TO.C,FID6*%
X-243000000Y16002000D03*
%TD*%
D38*
%TO.C,Q7*%
X-59950000Y101777000D03*
X-60600000Y101776999D03*
D39*
X-61090000Y100902000D03*
D38*
X-61250000Y101777000D03*
X-61250000Y100027000D03*
X-60600000Y100027001D03*
X-59950000Y100027000D03*
D39*
X-60110000Y100902000D03*
%TD*%
D11*
%TO.C,KiKit_MB_15_2*%
X-97160600Y122002000D03*
%TD*%
D101*
%TO.C,SW1*%
X-42100000Y10402000D03*
X-45100000Y10402000D03*
X-43600000Y8552000D03*
%TD*%
D16*
%TO.C,U4*%
X-208000000Y9252000D03*
D17*
X-208000000Y10952000D03*
X-210000000Y10952000D03*
X-210000000Y9052000D03*
%TD*%
D94*
%TO.C,X1*%
X-225300000Y86402001D03*
X-225299999Y85202000D03*
X-225300000Y84001999D03*
X-223700000Y84001999D03*
X-223700001Y85202000D03*
X-223700000Y86402001D03*
%TD*%
D11*
%TO.C,KiKit_MB_14_5*%
X-147839401Y122002000D03*
%TD*%
%TO.C,KiKit_MB_9_4*%
X-160000000Y86822199D03*
%TD*%
D40*
%TO.C,U10*%
X-145500001Y56239500D03*
X-145000001Y56239500D03*
X-144500001Y56239500D03*
D41*
X-143737501Y56752000D03*
X-143737501Y57252000D03*
X-143737501Y57752000D03*
X-143737501Y58252000D03*
D40*
X-144500001Y58764500D03*
X-145000001Y58764500D03*
X-145500001Y58764500D03*
D41*
X-146262501Y58252000D03*
X-146262501Y57752000D03*
X-146262501Y57252000D03*
X-146262501Y56752000D03*
D42*
X-145000001Y57502000D03*
%TD*%
D13*
%TO.C,C25*%
X-48300000Y44952000D03*
X-48300000Y43252000D03*
%TD*%
%TO.C,R22*%
X-226000000Y60402000D03*
X-226000000Y58702000D03*
%TD*%
D11*
%TO.C,KiKit_MB_9_5*%
X-160000000Y87662599D03*
%TD*%
%TO.C,KiKit_MB_25_5*%
X-74999931Y36062598D03*
%TD*%
D13*
%TO.C,C25*%
X-218300000Y44952000D03*
X-218300000Y43252000D03*
%TD*%
D64*
%TO.C,C41*%
X-186850000Y44152000D03*
X-185750000Y44152000D03*
%TD*%
D11*
%TO.C,KiKit_MB_16_4*%
X-122920200Y7002000D03*
%TD*%
%TO.C,KiKit_MB_13_2*%
X-147839401Y7002000D03*
%TD*%
D12*
%TO.C,C43*%
X-187450000Y34052000D03*
X-185750000Y34052000D03*
%TD*%
D89*
%TO.C,X3*%
X-118449049Y73767165D03*
X-117741942Y73060058D03*
X-117034835Y72352951D03*
X-116150951Y73236835D03*
X-116858058Y73943942D03*
X-117565165Y74651049D03*
%TD*%
D11*
%TO.C,U2*%
X-97000000Y99702000D03*
X-96000000Y99702001D03*
X-95000000Y99702000D03*
X-94000000Y99702000D03*
X-98000000Y98702000D03*
X-97000000Y98702000D03*
X-96000000Y98702000D03*
X-95000000Y98702000D03*
X-94000000Y98702000D03*
X-98000001Y97702000D03*
X-97000000Y97702000D03*
X-96000000Y97702000D03*
X-95000000Y97702000D03*
X-93999999Y97702000D03*
X-98000000Y96702000D03*
X-97000000Y96702000D03*
X-96000000Y96702000D03*
X-95000000Y96702000D03*
X-94000000Y96702000D03*
X-98000000Y95702000D03*
X-97000000Y95702000D03*
X-96000000Y95701999D03*
X-95000000Y95702000D03*
X-94000000Y95702000D03*
%TD*%
D12*
%TO.C,R26*%
X-157850000Y48702000D03*
X-156150000Y48702000D03*
%TD*%
D11*
%TO.C,KiKit_MB_25_1*%
X-74999940Y32700998D03*
%TD*%
D12*
%TO.C,C30*%
X-125400000Y41102000D03*
X-123700000Y41102000D03*
%TD*%
D11*
%TO.C,KiKit_MB_24_1*%
X-8799001Y7002000D03*
%TD*%
%TO.C,KiKit_MB_24_2*%
X-9639401Y7002000D03*
%TD*%
D85*
%TO.C,U6*%
X-61750000Y67502000D03*
X-61750000Y67002000D03*
D86*
X-61750000Y66502000D03*
D85*
X-61750000Y66002000D03*
X-61750000Y65502000D03*
X-60650000Y65502000D03*
X-60650000Y66002000D03*
D86*
X-60650000Y66502000D03*
D85*
X-60650000Y67002000D03*
X-60650000Y67502000D03*
%TD*%
D13*
%TO.C,R4*%
X-134600000Y44952000D03*
X-134600000Y43252000D03*
%TD*%
D11*
%TO.C,KiKit_MB_20_5*%
X-65360600Y7002000D03*
%TD*%
%TO.C,KiKit_MB_16_6*%
X-124601000Y7002000D03*
%TD*%
D23*
%TO.C,R19*%
X-151600000Y81552000D03*
X-151600000Y83252000D03*
%TD*%
D13*
%TO.C,R5*%
X-49400000Y79002000D03*
X-49400000Y77302000D03*
%TD*%
D11*
%TO.C,KiKit_MB_4_1*%
X-231999000Y7002000D03*
%TD*%
D12*
%TO.C,C40*%
X-17450000Y40452000D03*
X-15750000Y40452000D03*
%TD*%
D28*
%TO.C,U12*%
X-146505000Y84002000D03*
X-145235000Y84002000D03*
X-143965000Y84002000D03*
X-142695000Y84002000D03*
X-142695000Y90002000D03*
X-143965000Y90002000D03*
X-145235000Y90002000D03*
X-146505000Y90002000D03*
D29*
X-144600000Y87002000D03*
%TD*%
D34*
%TO.C,H4*%
X-4000000Y11002000D03*
%TD*%
D11*
%TO.C,KiKit_MB_21_2*%
X-65360600Y122002000D03*
%TD*%
%TO.C,U1*%
X-214300000Y96802000D03*
X-213500000Y96802000D03*
X-212700000Y96802000D03*
X-211900000Y96802000D03*
X-211100000Y96802000D03*
X-210300000Y96802000D03*
X-209500000Y96802000D03*
X-208700000Y96802000D03*
X-207900000Y96802000D03*
X-207100000Y96802000D03*
X-206300000Y96802000D03*
X-205500000Y96802000D03*
X-204700000Y96802000D03*
X-203900000Y96802000D03*
X-203100000Y96802000D03*
X-202300000Y96802000D03*
X-201500000Y96802000D03*
X-200700000Y96802000D03*
X-215100000Y96002000D03*
X-214300000Y96002000D03*
X-213500000Y96002000D03*
X-212700000Y96002000D03*
X-211900000Y96002000D03*
X-211100000Y96002000D03*
X-210300000Y96002000D03*
X-209500000Y96002000D03*
X-208700000Y96002000D03*
X-207900000Y96002000D03*
X-207100000Y96002000D03*
X-206300000Y96002000D03*
X-205500000Y96002000D03*
X-204700000Y96002000D03*
X-203900000Y96002000D03*
X-203100000Y96002000D03*
X-202300000Y96002000D03*
X-201500000Y96002000D03*
X-200700000Y96002000D03*
X-199900000Y96002000D03*
X-215100000Y95202000D03*
X-214300000Y95202000D03*
X-213500000Y95202000D03*
X-212700000Y95202000D03*
X-211900000Y95202000D03*
X-211100000Y95202000D03*
X-210300000Y95202000D03*
X-209500000Y95202000D03*
X-208700000Y95202000D03*
X-207900000Y95202000D03*
X-207100000Y95202000D03*
X-206300000Y95202000D03*
X-205500000Y95202000D03*
X-204700000Y95202000D03*
X-203900000Y95202000D03*
X-203100000Y95202000D03*
X-202300000Y95202000D03*
X-201500000Y95202000D03*
X-200700000Y95202000D03*
X-199900000Y95202000D03*
X-215100000Y94402000D03*
X-214300000Y94402000D03*
X-213500000Y94402000D03*
X-212700000Y94402000D03*
X-211900000Y94402000D03*
X-211100000Y94402000D03*
X-210300000Y94402000D03*
X-209500000Y94402000D03*
X-208700000Y94402000D03*
X-207900000Y94402000D03*
X-207100000Y94402000D03*
X-206300000Y94402000D03*
X-205500000Y94402000D03*
X-204700000Y94402000D03*
X-203900000Y94402000D03*
X-203100000Y94402000D03*
X-202300000Y94402000D03*
X-201500000Y94402000D03*
X-200700000Y94402000D03*
X-199900000Y94402000D03*
X-215100000Y93602000D03*
X-214300000Y93602000D03*
X-213500000Y93602000D03*
X-212700000Y93602000D03*
X-211900000Y93602000D03*
X-211100000Y93602000D03*
X-210300000Y93602000D03*
X-209500000Y93602000D03*
X-208700000Y93602000D03*
X-207900000Y93602000D03*
X-207100000Y93602000D03*
X-206300000Y93602000D03*
X-205500000Y93602000D03*
X-204700000Y93602000D03*
X-203900000Y93602000D03*
X-203100000Y93602000D03*
X-202300000Y93602000D03*
X-201500000Y93602000D03*
X-200700000Y93602000D03*
X-199900000Y93602000D03*
X-215100000Y92802000D03*
X-214300000Y92802000D03*
X-213500000Y92802000D03*
X-212700000Y92802000D03*
X-211900000Y92802000D03*
X-211100000Y92802000D03*
X-210300000Y92802000D03*
X-209500000Y92802000D03*
X-208700000Y92802000D03*
X-207900000Y92802000D03*
X-207100000Y92802000D03*
X-206300000Y92802000D03*
X-205500000Y92802000D03*
X-204700000Y92802000D03*
X-203900000Y92802000D03*
X-203100000Y92802000D03*
X-202300000Y92802000D03*
X-201500000Y92802000D03*
X-200700000Y92802000D03*
X-199900000Y92802000D03*
X-215100000Y92002000D03*
X-214300000Y92002000D03*
X-213500000Y92002000D03*
X-212700000Y92002000D03*
X-211900000Y92002000D03*
X-211100000Y92002000D03*
X-210300000Y92002000D03*
X-209500000Y92002000D03*
X-208700000Y92002000D03*
X-207900000Y92002000D03*
X-207100000Y92002000D03*
X-206300000Y92002000D03*
X-205500000Y92002000D03*
X-204700000Y92002000D03*
X-203900000Y92002000D03*
X-203100000Y92002000D03*
X-202300000Y92002000D03*
X-201500000Y92002000D03*
X-200700000Y92002000D03*
X-199900000Y92002000D03*
X-215100000Y91202000D03*
X-214300000Y91202000D03*
X-213500000Y91202000D03*
X-212700000Y91202000D03*
X-211900000Y91202000D03*
X-211100000Y91202000D03*
X-210300000Y91202000D03*
X-209500000Y91202000D03*
X-208700000Y91202000D03*
X-207900000Y91202000D03*
X-207100000Y91202000D03*
X-206300000Y91202000D03*
X-205500000Y91202000D03*
X-204700000Y91202000D03*
X-203900000Y91202000D03*
X-203100000Y91202000D03*
X-202300000Y91202000D03*
X-201500000Y91202000D03*
X-200700000Y91202000D03*
X-199900000Y91202000D03*
X-215100000Y90402000D03*
X-214300000Y90402000D03*
X-213500000Y90402000D03*
X-212700000Y90402000D03*
X-211900000Y90402000D03*
X-211100000Y90402000D03*
X-210300000Y90402000D03*
X-209500000Y90402000D03*
X-208700000Y90402000D03*
X-207900000Y90402000D03*
X-207100000Y90402000D03*
X-206300000Y90402000D03*
X-205500000Y90402000D03*
X-204700000Y90402000D03*
X-203900000Y90402000D03*
X-203100000Y90402000D03*
X-202300000Y90402000D03*
X-201500000Y90402000D03*
X-200700000Y90402000D03*
X-199900000Y90402000D03*
X-215100000Y89602000D03*
X-214300000Y89602000D03*
X-213500000Y89602000D03*
X-212700000Y89602000D03*
X-211900000Y89602000D03*
X-211100000Y89602000D03*
X-210300000Y89602000D03*
X-209500000Y89602000D03*
X-208700000Y89602000D03*
X-207900000Y89602000D03*
X-207100000Y89602000D03*
X-206300000Y89602000D03*
X-205500000Y89602000D03*
X-204700000Y89602000D03*
X-203900000Y89602000D03*
X-203100000Y89602000D03*
X-202300000Y89602000D03*
X-201500000Y89602000D03*
X-200700000Y89602000D03*
X-199900000Y89602000D03*
X-215100000Y88802000D03*
X-214300000Y88802000D03*
X-213500000Y88802000D03*
X-212700000Y88802000D03*
X-211900000Y88802000D03*
X-211100000Y88802000D03*
X-210300000Y88802000D03*
X-209500000Y88802000D03*
X-208700000Y88802000D03*
X-207900000Y88802000D03*
X-207100000Y88802000D03*
X-206300000Y88802000D03*
X-205500000Y88802000D03*
X-204700000Y88802000D03*
X-203900000Y88802000D03*
X-203100000Y88802000D03*
X-202300000Y88802000D03*
X-201500000Y88802000D03*
X-200700000Y88802000D03*
X-199900000Y88802000D03*
X-215100000Y88002000D03*
X-214300000Y88002000D03*
X-213500000Y88002000D03*
X-212700000Y88002000D03*
X-211900000Y88002000D03*
X-211100000Y88002000D03*
X-210300000Y88002000D03*
X-209500000Y88002000D03*
X-208700000Y88002000D03*
X-207900000Y88002000D03*
X-207100000Y88002000D03*
X-206300000Y88002000D03*
X-205500000Y88002000D03*
X-204700000Y88002000D03*
X-203900000Y88002000D03*
X-203100000Y88002000D03*
X-202300000Y88002000D03*
X-201500000Y88002000D03*
X-200700000Y88002000D03*
X-199900000Y88002000D03*
X-215100000Y87202000D03*
X-214300000Y87202000D03*
X-213500000Y87202000D03*
X-212700000Y87202000D03*
X-211900000Y87202000D03*
X-211100000Y87202000D03*
X-210300000Y87202000D03*
X-209500000Y87202000D03*
X-208700000Y87202000D03*
X-207900000Y87202000D03*
X-207100000Y87202000D03*
X-206300000Y87202000D03*
X-205500000Y87202000D03*
X-204700000Y87202000D03*
X-203900000Y87202000D03*
X-203100000Y87202000D03*
X-202300000Y87202000D03*
X-201500000Y87202000D03*
X-200700000Y87202000D03*
X-199900000Y87202000D03*
X-215100000Y86402000D03*
X-214300000Y86402000D03*
X-213500000Y86402000D03*
X-212700000Y86402000D03*
X-211900000Y86402000D03*
X-211100000Y86402000D03*
X-210300000Y86402000D03*
X-209500000Y86402000D03*
X-208700000Y86402000D03*
X-207900000Y86402000D03*
X-207100000Y86402000D03*
X-206300000Y86402000D03*
X-205500000Y86402000D03*
X-204700000Y86402000D03*
X-203900000Y86402000D03*
X-203100000Y86402000D03*
X-202300000Y86402000D03*
X-201500000Y86402000D03*
X-200700000Y86402000D03*
X-199900000Y86402000D03*
X-215100000Y85602000D03*
X-214300000Y85602000D03*
X-213500000Y85602000D03*
X-212700000Y85602000D03*
X-211900000Y85602000D03*
X-203100000Y85602000D03*
X-202300000Y85602000D03*
X-201500000Y85602000D03*
X-200700000Y85602000D03*
X-199900000Y85602000D03*
X-215100000Y84802000D03*
X-214300000Y84802000D03*
X-213500000Y84802000D03*
X-212700000Y84802000D03*
X-211900000Y84802000D03*
X-211100000Y84802000D03*
X-210300000Y84802000D03*
X-209500000Y84802000D03*
X-208700000Y84802000D03*
X-207900000Y84802000D03*
X-207100000Y84802000D03*
X-206300000Y84802000D03*
X-205500000Y84802000D03*
X-204700000Y84802000D03*
X-203900000Y84802000D03*
X-203100000Y84802000D03*
X-202300000Y84802000D03*
X-201500000Y84802000D03*
X-200700000Y84802000D03*
X-199900000Y84802000D03*
X-215100000Y84002000D03*
X-214300000Y84002000D03*
X-213500000Y84002000D03*
X-212700000Y84002000D03*
X-211900000Y84002000D03*
X-211100000Y84002000D03*
X-210300000Y84002000D03*
X-209500000Y84002000D03*
X-208700000Y84002000D03*
X-207900000Y84002000D03*
X-207100000Y84002000D03*
X-206300000Y84002000D03*
X-205500000Y84002000D03*
X-204700000Y84002000D03*
X-203900000Y84002000D03*
X-203100000Y84002000D03*
X-202300000Y84002000D03*
X-201500000Y84002000D03*
X-200700000Y84002000D03*
X-199900000Y84002000D03*
X-215100000Y83202000D03*
X-214300000Y83202000D03*
X-213500000Y83202000D03*
X-212700000Y83202000D03*
X-211900000Y83202000D03*
X-211100000Y83202000D03*
X-210300000Y83202000D03*
X-209500000Y83202000D03*
X-208700000Y83202000D03*
X-207900000Y83202000D03*
X-207100000Y83202000D03*
X-206300000Y83202000D03*
X-205500000Y83202000D03*
X-204700000Y83202000D03*
X-203900000Y83202000D03*
X-203100000Y83202000D03*
X-202300000Y83202000D03*
X-201500000Y83202000D03*
X-200700000Y83202000D03*
X-199900000Y83202000D03*
X-215100000Y82402000D03*
X-214300000Y82402000D03*
X-213500000Y82402000D03*
X-212700000Y82402000D03*
X-211900000Y82402000D03*
X-211100000Y82402000D03*
X-210300000Y82402000D03*
X-209500000Y82402000D03*
X-208700000Y82402000D03*
X-207900000Y82402000D03*
X-207100000Y82402000D03*
X-206300000Y82402000D03*
X-205500000Y82402000D03*
X-204700000Y82402000D03*
X-203900000Y82402000D03*
X-203100000Y82402000D03*
X-202300000Y82402000D03*
X-201500000Y82402000D03*
X-200700000Y82402000D03*
X-199900000Y82402000D03*
X-214300000Y81602000D03*
X-213500000Y81602000D03*
X-211900000Y81602000D03*
X-211100000Y81602000D03*
X-210300000Y81602000D03*
X-209500000Y81602000D03*
X-207100000Y81602000D03*
X-206300000Y81602000D03*
X-204700000Y81602000D03*
X-203900000Y81602000D03*
X-203100000Y81602000D03*
X-202300000Y81602000D03*
X-200700000Y81602000D03*
%TD*%
D84*
%TO.C,C101*%
X-19198959Y35403041D03*
X-20401041Y34200959D03*
%TD*%
D64*
%TO.C,R29*%
X-143050000Y72902000D03*
X-141950000Y72902000D03*
%TD*%
D90*
%TO.C,J7*%
X-144600000Y118002000D03*
D91*
X-100400000Y118002000D03*
D92*
X-142100000Y120202000D03*
X-142100000Y115802000D03*
X-141300000Y120202000D03*
X-141300000Y115802000D03*
X-140500000Y120202000D03*
X-140500000Y115802000D03*
X-139700000Y120202000D03*
X-139700000Y115802000D03*
X-138900000Y120202000D03*
X-138900000Y115802000D03*
X-138100000Y120202000D03*
X-138100000Y115802000D03*
X-137300000Y120202000D03*
X-137300000Y115802000D03*
X-136500000Y120202000D03*
X-136500000Y115802000D03*
X-135700000Y120202000D03*
X-135700000Y115802000D03*
X-134900000Y120202000D03*
X-134900000Y115802000D03*
X-134100000Y120202000D03*
X-134100000Y115802000D03*
X-133300000Y120202000D03*
X-133300000Y115802000D03*
X-132500000Y120202000D03*
X-132500000Y115802000D03*
X-131700000Y120202000D03*
X-131700000Y115802000D03*
X-130900000Y120202000D03*
X-130900000Y115802000D03*
X-130100000Y120202000D03*
X-130100000Y115802000D03*
X-129300000Y120202000D03*
X-129300000Y115802000D03*
X-128500000Y120202000D03*
X-128500000Y115802000D03*
X-127700000Y120202000D03*
X-127700000Y115802000D03*
X-126900000Y120202000D03*
X-126900000Y115802000D03*
X-126100000Y120202000D03*
X-126100000Y115802000D03*
X-125300000Y120202000D03*
X-125300000Y115802000D03*
X-124500000Y120202000D03*
X-124500000Y115802000D03*
X-123700000Y120202000D03*
X-123700000Y115802000D03*
X-122900000Y120202000D03*
X-122900000Y115802000D03*
X-122100000Y120202000D03*
X-122100000Y115802000D03*
X-121300000Y120202000D03*
X-121300000Y115802000D03*
X-120500000Y120202000D03*
X-120500000Y115802000D03*
X-119700000Y120202000D03*
X-119700000Y115802000D03*
X-118900000Y120202000D03*
X-118900000Y115802000D03*
X-118100000Y120202000D03*
X-118100000Y115802000D03*
X-117300000Y120202000D03*
X-117300000Y115802000D03*
X-116500000Y120202000D03*
X-116500000Y115802000D03*
X-115700000Y120202000D03*
X-115700000Y115802000D03*
X-114900000Y120202000D03*
X-114900000Y115802000D03*
X-114100000Y120202000D03*
X-114100000Y115802000D03*
X-113300000Y120202000D03*
X-113300000Y115802000D03*
X-112500000Y120202000D03*
X-112500000Y115802000D03*
X-111700000Y120202000D03*
X-111700000Y115802000D03*
X-110900000Y120202000D03*
X-110900000Y115802000D03*
X-110100000Y120202000D03*
X-110100000Y115802000D03*
X-109300000Y120202000D03*
X-109300000Y115802000D03*
X-108500000Y120202000D03*
X-108500000Y115802000D03*
X-107700000Y120202000D03*
X-107700000Y115802000D03*
X-106900000Y120202000D03*
X-106900000Y115802000D03*
X-106100000Y120202000D03*
X-106100000Y115802000D03*
X-105300000Y120202000D03*
X-105300000Y115802000D03*
X-104500000Y120202000D03*
X-104500000Y115802000D03*
X-103700000Y120202000D03*
X-103700000Y115802000D03*
X-102900000Y120202000D03*
X-102900000Y115802000D03*
%TD*%
D50*
%TO.C,L2*%
X-206050000Y50602000D03*
X-207750000Y50602000D03*
%TD*%
D11*
%TO.C,KiKit_MB_6_5*%
X-179639401Y122002000D03*
%TD*%
%TO.C,KiKit_MB_19_4*%
X-75000000Y86822199D03*
%TD*%
D12*
%TO.C,R74*%
X-48750000Y80402000D03*
X-47050000Y80402000D03*
%TD*%
D33*
%TO.C,D2*%
X-152825000Y44202000D03*
X-154575000Y44202000D03*
%TD*%
D36*
%TO.C,J8*%
X-73035000Y93542000D03*
X-68965000Y93542000D03*
X-73035000Y92272000D03*
X-68965000Y92272000D03*
X-73035000Y91002000D03*
X-68965000Y91002000D03*
X-73035000Y89732000D03*
X-68965000Y89732000D03*
X-73035000Y88462000D03*
X-68965000Y88462000D03*
%TD*%
D24*
%TO.C,C29*%
X-210550000Y37351999D03*
X-208550000Y37351999D03*
%TD*%
D43*
%TO.C,D10*%
X-114500002Y12427000D03*
X-114500002Y14177000D03*
%TD*%
D24*
%TO.C,C29*%
X-40550000Y37351999D03*
X-38550000Y37351999D03*
%TD*%
D14*
%TO.C,U17*%
X-184812500Y35352000D03*
X-184812500Y36002000D03*
X-184812500Y36652000D03*
X-186587500Y36652000D03*
X-186587500Y36002000D03*
X-186587500Y35352000D03*
D15*
X-185700000Y36002000D03*
%TD*%
D11*
%TO.C,KiKit_MB_17_4*%
X-96320200Y7002000D03*
%TD*%
D19*
%TO.C,U11*%
X-227525000Y77452000D03*
X-227525000Y76952000D03*
X-227525000Y76452000D03*
X-227525000Y75952000D03*
X-227525000Y75452000D03*
X-227525000Y74952000D03*
D20*
X-226750000Y74177000D03*
X-226250000Y74177000D03*
X-225750000Y74177000D03*
X-225250000Y74177000D03*
X-224750000Y74177000D03*
X-224250000Y74177000D03*
D19*
X-223475000Y74952000D03*
X-223475000Y75452000D03*
X-223475000Y75952000D03*
X-223475000Y76452000D03*
X-223475000Y76952000D03*
X-223475000Y77452000D03*
D20*
X-224250000Y78227000D03*
X-224750000Y78227000D03*
X-225250000Y78227000D03*
X-225750000Y78227000D03*
X-226250000Y78227000D03*
X-226750000Y78227000D03*
D21*
X-225500000Y76202000D03*
%TD*%
D13*
%TO.C,R31*%
X-111100002Y17352000D03*
X-111100002Y15652000D03*
%TD*%
%TO.C,C48*%
X-44400000Y50552000D03*
X-44400000Y48852000D03*
%TD*%
D14*
%TO.C,U20*%
X-14812500Y48352000D03*
X-14812500Y49002000D03*
X-14812500Y49652000D03*
X-16587500Y49652000D03*
X-16587500Y49002000D03*
X-16587500Y48352000D03*
D15*
X-15700000Y49002000D03*
%TD*%
D53*
%TO.C,L3*%
X-24800000Y38382500D03*
X-24800000Y45621500D03*
%TD*%
D33*
%TO.C,D2*%
X-67825000Y44202000D03*
X-69575000Y44202000D03*
%TD*%
D14*
%TO.C,U16*%
X-184812500Y41752000D03*
X-184812500Y42402000D03*
X-184812500Y43052000D03*
X-186587500Y43052000D03*
X-186587500Y42402000D03*
X-186587500Y41752000D03*
D15*
X-185700000Y42402000D03*
%TD*%
D25*
%TO.C,U21*%
X-117400000Y49252000D03*
X-117400000Y49902000D03*
X-117400000Y50552000D03*
X-119455000Y50552000D03*
X-119455000Y49902000D03*
X-119455000Y49252000D03*
D26*
X-118427500Y49902000D03*
%TD*%
D67*
%TO.C,SW2*%
X-155700000Y53202000D03*
D68*
X-157600000Y53202000D03*
X-153800000Y53202000D03*
%TD*%
D23*
%TO.C,C47*%
X-208600000Y77352000D03*
X-208600000Y79052000D03*
%TD*%
D11*
%TO.C,KiKit_MB_6_2*%
X-182160600Y122002000D03*
%TD*%
D90*
%TO.C,J7*%
X-229600000Y118002000D03*
D91*
X-185400000Y118002000D03*
D92*
X-227100000Y120202000D03*
X-227100000Y115802000D03*
X-226300000Y120202000D03*
X-226300000Y115802000D03*
X-225500000Y120202000D03*
X-225500000Y115802000D03*
X-224700000Y120202000D03*
X-224700000Y115802000D03*
X-223900000Y120202000D03*
X-223900000Y115802000D03*
X-223100000Y120202000D03*
X-223100000Y115802000D03*
X-222300000Y120202000D03*
X-222300000Y115802000D03*
X-221500000Y120202000D03*
X-221500000Y115802000D03*
X-220700000Y120202000D03*
X-220700000Y115802000D03*
X-219900000Y120202000D03*
X-219900000Y115802000D03*
X-219100000Y120202000D03*
X-219100000Y115802000D03*
X-218300000Y120202000D03*
X-218300000Y115802000D03*
X-217500000Y120202000D03*
X-217500000Y115802000D03*
X-216700000Y120202000D03*
X-216700000Y115802000D03*
X-215900000Y120202000D03*
X-215900000Y115802000D03*
X-215100000Y120202000D03*
X-215100000Y115802000D03*
X-214300000Y120202000D03*
X-214300000Y115802000D03*
X-213500000Y120202000D03*
X-213500000Y115802000D03*
X-212700000Y120202000D03*
X-212700000Y115802000D03*
X-211900000Y120202000D03*
X-211900000Y115802000D03*
X-211100000Y120202000D03*
X-211100000Y115802000D03*
X-210300000Y120202000D03*
X-210300000Y115802000D03*
X-209500000Y120202000D03*
X-209500000Y115802000D03*
X-208700000Y120202000D03*
X-208700000Y115802000D03*
X-207900000Y120202000D03*
X-207900000Y115802000D03*
X-207100000Y120202000D03*
X-207100000Y115802000D03*
X-206300000Y120202000D03*
X-206300000Y115802000D03*
X-205500000Y120202000D03*
X-205500000Y115802000D03*
X-204700000Y120202000D03*
X-204700000Y115802000D03*
X-203900000Y120202000D03*
X-203900000Y115802000D03*
X-203100000Y120202000D03*
X-203100000Y115802000D03*
X-202300000Y120202000D03*
X-202300000Y115802000D03*
X-201500000Y120202000D03*
X-201500000Y115802000D03*
X-200700000Y120202000D03*
X-200700000Y115802000D03*
X-199900000Y120202000D03*
X-199900000Y115802000D03*
X-199100000Y120202000D03*
X-199100000Y115802000D03*
X-198300000Y120202000D03*
X-198300000Y115802000D03*
X-197500000Y120202000D03*
X-197500000Y115802000D03*
X-196700000Y120202000D03*
X-196700000Y115802000D03*
X-195900000Y120202000D03*
X-195900000Y115802000D03*
X-195100000Y120202000D03*
X-195100000Y115802000D03*
X-194300000Y120202000D03*
X-194300000Y115802000D03*
X-193500000Y120202000D03*
X-193500000Y115802000D03*
X-192700000Y120202000D03*
X-192700000Y115802000D03*
X-191900000Y120202000D03*
X-191900000Y115802000D03*
X-191100000Y120202000D03*
X-191100000Y115802000D03*
X-190300000Y120202000D03*
X-190300000Y115802000D03*
X-189500000Y120202000D03*
X-189500000Y115802000D03*
X-188700000Y120202000D03*
X-188700000Y115802000D03*
X-187900000Y120202000D03*
X-187900000Y115802000D03*
%TD*%
D69*
%TO.C,C94*%
X-152300000Y31802000D03*
X-152300000Y37202000D03*
%TD*%
D11*
%TO.C,U15*%
X-5000001Y90702000D03*
X-4000001Y90702001D03*
X-3000001Y90702000D03*
X-2000001Y90702000D03*
X-6000001Y89702000D03*
X-5000001Y89702000D03*
X-4000001Y89702000D03*
X-3000001Y89702000D03*
X-2000001Y89702000D03*
X-6000002Y88702000D03*
X-5000001Y88702000D03*
X-4000001Y88702000D03*
X-3000001Y88702000D03*
X-2000000Y88702000D03*
X-6000001Y87702000D03*
X-5000001Y87702000D03*
X-4000001Y87702000D03*
X-3000001Y87702000D03*
X-2000001Y87702000D03*
X-6000001Y86702000D03*
X-5000001Y86702000D03*
X-4000001Y86701999D03*
X-3000001Y86702000D03*
X-2000001Y86702000D03*
%TD*%
D50*
%TO.C,R15*%
X-127350000Y37552000D03*
X-129050000Y37552000D03*
%TD*%
D11*
%TO.C,KiKit_MB_10_6*%
X-85000000Y106101000D03*
%TD*%
%TO.C,KiKit_MB_26_2*%
X-78740000Y122002000D03*
%TD*%
D95*
%TO.C,U9*%
X-133437500Y65439501D03*
X-133437500Y64939501D03*
X-133437500Y64439501D03*
X-133437500Y63939501D03*
X-133437500Y63439501D03*
X-133437500Y62939501D03*
D96*
X-132750000Y62252001D03*
X-132250000Y62252001D03*
X-131750000Y62252001D03*
X-131250000Y62252001D03*
X-130750000Y62252001D03*
X-130250000Y62252001D03*
D95*
X-129562500Y62939501D03*
X-129562500Y63439501D03*
X-129562500Y63939501D03*
X-129562500Y64439501D03*
X-129562500Y64939501D03*
X-129562500Y65439501D03*
D96*
X-130250000Y66127001D03*
X-130750000Y66127001D03*
X-131250000Y66127001D03*
X-131750000Y66127001D03*
X-132250000Y66127001D03*
X-132750000Y66127001D03*
D97*
X-131500000Y64189501D03*
%TD*%
D27*
%TO.C,R2*%
X-220200000Y39451999D03*
X-220200000Y40551999D03*
%TD*%
D11*
%TO.C,KiKit_MB_17_6*%
X-98001000Y7002000D03*
%TD*%
D12*
%TO.C,R33*%
X-123050000Y48502001D03*
X-121350000Y48502001D03*
%TD*%
D11*
%TO.C,KiKit_MB_17_1*%
X-93799001Y7002000D03*
%TD*%
%TO.C,KiKit_MB_8_3*%
X-180479801Y7002000D03*
%TD*%
D35*
%TO.C,C38*%
X-129150000Y38702000D03*
X-130250000Y38702000D03*
%TD*%
D11*
%TO.C,KiKit_MB_7_3*%
X-207079801Y7002000D03*
%TD*%
%TO.C,KiKit_MB_3_1*%
X-170000000Y27303000D03*
%TD*%
%TO.C,KiKit_MB_28_1*%
X-162900000Y122002000D03*
%TD*%
D13*
%TO.C,C87*%
X-183700001Y48602000D03*
X-183700001Y46902000D03*
%TD*%
D11*
%TO.C,KiKit_MB_12_6*%
X-85000000Y23101001D03*
%TD*%
%TO.C,KiKit_MB_24_6*%
X-13001000Y7002000D03*
%TD*%
D35*
%TO.C,C26*%
X-130350000Y37702000D03*
X-131450000Y37702000D03*
%TD*%
D63*
%TO.C,U24*%
X-211800000Y77302000D03*
X-211800000Y76652000D03*
X-211800000Y76002000D03*
X-209900000Y76002000D03*
X-209900000Y77302000D03*
%TD*%
D12*
%TO.C,C39*%
X-102450000Y47052000D03*
X-100750000Y47052000D03*
%TD*%
D13*
%TO.C,R31*%
X-26100002Y17352000D03*
X-26100002Y15652000D03*
%TD*%
D50*
%TO.C,C98*%
X-59750000Y110002000D03*
X-61450000Y110002000D03*
%TD*%
D11*
%TO.C,KiKit_MB_10_1*%
X-85000000Y110302999D03*
%TD*%
D13*
%TO.C,R34*%
X-117900000Y17352000D03*
X-117900000Y15652000D03*
%TD*%
D11*
%TO.C,KiKit_MB_13_1*%
X-146999001Y7002000D03*
%TD*%
D101*
%TO.C,SW1*%
X-212100000Y10402000D03*
X-215100000Y10402000D03*
X-213600000Y8552000D03*
%TD*%
D13*
%TO.C,R5*%
X-134400000Y79002000D03*
X-134400000Y77302000D03*
%TD*%
D12*
%TO.C,R23*%
X-242850000Y44202000D03*
X-241150000Y44202000D03*
%TD*%
D11*
%TO.C,KiKit_MB_8_1*%
X-178799001Y7002000D03*
%TD*%
%TO.C,KiKit_MB_18_4*%
X-159999933Y35222198D03*
%TD*%
D50*
%TO.C,L2*%
X-36050000Y50602000D03*
X-37750000Y50602000D03*
%TD*%
D11*
%TO.C,KiKit_MB_10_4*%
X-85000000Y107781800D03*
%TD*%
D80*
%TO.C,C9*%
X-203288909Y78113091D03*
X-202511091Y78890909D03*
%TD*%
D11*
%TO.C,KiKit_MB_7_5*%
X-208760599Y7002000D03*
%TD*%
%TO.C,KiKit_MB_26_3*%
X-79580000Y122002000D03*
%TD*%
D53*
%TO.C,L3*%
X-194800000Y38382500D03*
X-194800000Y45621500D03*
%TD*%
D23*
%TO.C,R8*%
X-67000000Y55902000D03*
X-67000000Y57602000D03*
%TD*%
D77*
%TO.C,L1*%
X-218300000Y31067001D03*
X-218300000Y27637001D03*
X-209800000Y27637001D03*
X-209800000Y31067001D03*
%TD*%
D11*
%TO.C,KiKit_MB_16_1*%
X-120399001Y7002000D03*
%TD*%
%TO.C,KiKit_MB_1_5*%
X-170000000Y106941400D03*
%TD*%
D13*
%TO.C,C48*%
X-129400000Y50552000D03*
X-129400000Y48852000D03*
%TD*%
D47*
%TO.C,J5*%
X-148900000Y23002000D03*
D48*
X-155200000Y23002000D03*
D49*
X-151800000Y18202000D03*
%TD*%
D11*
%TO.C,KiKit_MB_6_4*%
X-180479801Y122002000D03*
%TD*%
D13*
%TO.C,C45*%
X-98700000Y35602000D03*
X-98700000Y33902000D03*
%TD*%
D23*
%TO.C,R19*%
X-236600000Y81552000D03*
X-236600000Y83252000D03*
%TD*%
D13*
%TO.C,C48*%
X-214400000Y50552000D03*
X-214400000Y48852000D03*
%TD*%
%TO.C,R12*%
X-135700000Y80652000D03*
X-135700000Y78952000D03*
%TD*%
D33*
%TO.C,D16*%
X-152825000Y76302000D03*
X-154575000Y76302000D03*
%TD*%
D50*
%TO.C,R59*%
X-230050000Y111302000D03*
X-231750000Y111302000D03*
%TD*%
D11*
%TO.C,KiKit_MB_27_2*%
X-78740000Y7002000D03*
%TD*%
D33*
%TO.C,D5*%
X-237825000Y48702000D03*
X-239575000Y48702000D03*
%TD*%
D34*
%TO.C,H1*%
X-174000000Y118002000D03*
%TD*%
D27*
%TO.C,R13*%
X-222400000Y84052000D03*
X-222400000Y85152000D03*
%TD*%
D11*
%TO.C,KiKit_MB_9_6*%
X-160000000Y88502999D03*
%TD*%
D12*
%TO.C,R7*%
X-242850000Y74802001D03*
X-241150000Y74802001D03*
%TD*%
%TO.C,R18*%
X-131800000Y42902000D03*
X-130100000Y42902000D03*
%TD*%
D63*
%TO.C,U24*%
X-41800000Y77302000D03*
X-41800000Y76652000D03*
X-41800000Y76002000D03*
X-39900000Y76002000D03*
X-39900000Y77302000D03*
%TD*%
D23*
%TO.C,C47*%
X-38600000Y77352000D03*
X-38600000Y79052000D03*
%TD*%
D34*
%TO.C,H2*%
X-241000000Y118002000D03*
%TD*%
D11*
%TO.C,KiKit_MB_29_5*%
X-166260000Y7002000D03*
%TD*%
D64*
%TO.C,C86*%
X-186850000Y50752000D03*
X-185750000Y50752000D03*
%TD*%
D30*
%TO.C,FID5*%
X-174000000Y16202000D03*
%TD*%
D11*
%TO.C,KiKit_MB_5_5*%
X-232839400Y122002000D03*
%TD*%
D99*
%TO.C,Q1*%
X-39302750Y21257000D03*
X-39302750Y17447000D03*
X-39302750Y18717000D03*
X-39302750Y19987000D03*
D100*
X-42795000Y19352000D03*
%TD*%
D46*
%TO.C,R30*%
X-47250001Y68752000D03*
X-47250001Y67652000D03*
%TD*%
D34*
%TO.C,H1*%
X-89000000Y118002000D03*
%TD*%
D50*
%TO.C,R59*%
X-145050000Y111302000D03*
X-146750000Y111302000D03*
%TD*%
D81*
%TO.C,U5*%
X-140440361Y67502001D03*
X-140440361Y67002001D03*
X-140440361Y66502001D03*
X-140440361Y66002001D03*
X-140440361Y65502001D03*
X-140440361Y65002001D03*
X-140440361Y64502001D03*
X-140440361Y64002001D03*
X-140440361Y63502001D03*
X-140440361Y63002001D03*
D82*
X-139440361Y62502001D03*
X-138940361Y62502001D03*
X-138440361Y62502001D03*
X-137940361Y62502001D03*
D81*
X-136940361Y63002001D03*
X-136940361Y63502001D03*
X-136940361Y64002001D03*
X-136940361Y64502001D03*
X-136940361Y65002001D03*
X-136940361Y65502001D03*
X-136940361Y66002001D03*
X-136940361Y66502001D03*
X-136940361Y67002001D03*
X-136940361Y67502001D03*
D82*
X-137940361Y68002001D03*
X-138440361Y68002001D03*
X-138940361Y68002001D03*
X-139440361Y68002001D03*
D83*
X-138690361Y65252001D03*
%TD*%
D36*
%TO.C,J8*%
X-243035000Y93542000D03*
X-238965000Y93542000D03*
X-243035000Y92272000D03*
X-238965000Y92272000D03*
X-243035000Y91002000D03*
X-238965000Y91002000D03*
X-243035000Y89732000D03*
X-238965000Y89732000D03*
X-243035000Y88462000D03*
X-238965000Y88462000D03*
%TD*%
D28*
%TO.C,U12*%
X-231505000Y84002000D03*
X-230235000Y84002000D03*
X-228965000Y84002000D03*
X-227695000Y84002000D03*
X-227695000Y90002000D03*
X-228965000Y90002000D03*
X-230235000Y90002000D03*
X-231505000Y90002000D03*
D29*
X-229600000Y87002000D03*
%TD*%
D11*
%TO.C,U3*%
X-90000001Y99702000D03*
X-89000001Y99702001D03*
X-88000001Y99702000D03*
X-87000001Y99702000D03*
X-91000001Y98702000D03*
X-90000001Y98702000D03*
X-89000001Y98702000D03*
X-88000001Y98702000D03*
X-87000001Y98702000D03*
X-91000002Y97702000D03*
X-90000001Y97702000D03*
X-89000001Y97702000D03*
X-88000001Y97702000D03*
X-87000000Y97702000D03*
X-91000001Y96702000D03*
X-90000001Y96702000D03*
X-89000001Y96702000D03*
X-88000001Y96702000D03*
X-87000001Y96702000D03*
X-91000001Y95702000D03*
X-90000001Y95702000D03*
X-89000001Y95701999D03*
X-88000001Y95702000D03*
X-87000001Y95702000D03*
%TD*%
%TO.C,U1*%
X-129300000Y96802000D03*
X-128500000Y96802000D03*
X-127700000Y96802000D03*
X-126900000Y96802000D03*
X-126100000Y96802000D03*
X-125300000Y96802000D03*
X-124500000Y96802000D03*
X-123700000Y96802000D03*
X-122900000Y96802000D03*
X-122100000Y96802000D03*
X-121300000Y96802000D03*
X-120500000Y96802000D03*
X-119700000Y96802000D03*
X-118900000Y96802000D03*
X-118100000Y96802000D03*
X-117300000Y96802000D03*
X-116500000Y96802000D03*
X-115700000Y96802000D03*
X-130100000Y96002000D03*
X-129300000Y96002000D03*
X-128500000Y96002000D03*
X-127700000Y96002000D03*
X-126900000Y96002000D03*
X-126100000Y96002000D03*
X-125300000Y96002000D03*
X-124500000Y96002000D03*
X-123700000Y96002000D03*
X-122900000Y96002000D03*
X-122100000Y96002000D03*
X-121300000Y96002000D03*
X-120500000Y96002000D03*
X-119700000Y96002000D03*
X-118900000Y96002000D03*
X-118100000Y96002000D03*
X-117300000Y96002000D03*
X-116500000Y96002000D03*
X-115700000Y96002000D03*
X-114900000Y96002000D03*
X-130100000Y95202000D03*
X-129300000Y95202000D03*
X-128500000Y95202000D03*
X-127700000Y95202000D03*
X-126900000Y95202000D03*
X-126100000Y95202000D03*
X-125300000Y95202000D03*
X-124500000Y95202000D03*
X-123700000Y95202000D03*
X-122900000Y95202000D03*
X-122100000Y95202000D03*
X-121300000Y95202000D03*
X-120500000Y95202000D03*
X-119700000Y95202000D03*
X-118900000Y95202000D03*
X-118100000Y95202000D03*
X-117300000Y95202000D03*
X-116500000Y95202000D03*
X-115700000Y95202000D03*
X-114900000Y95202000D03*
X-130100000Y94402000D03*
X-129300000Y94402000D03*
X-128500000Y94402000D03*
X-127700000Y94402000D03*
X-126900000Y94402000D03*
X-126100000Y94402000D03*
X-125300000Y94402000D03*
X-124500000Y94402000D03*
X-123700000Y94402000D03*
X-122900000Y94402000D03*
X-122100000Y94402000D03*
X-121300000Y94402000D03*
X-120500000Y94402000D03*
X-119700000Y94402000D03*
X-118900000Y94402000D03*
X-118100000Y94402000D03*
X-117300000Y94402000D03*
X-116500000Y94402000D03*
X-115700000Y94402000D03*
X-114900000Y94402000D03*
X-130100000Y93602000D03*
X-129300000Y93602000D03*
X-128500000Y93602000D03*
X-127700000Y93602000D03*
X-126900000Y93602000D03*
X-126100000Y93602000D03*
X-125300000Y93602000D03*
X-124500000Y93602000D03*
X-123700000Y93602000D03*
X-122900000Y93602000D03*
X-122100000Y93602000D03*
X-121300000Y93602000D03*
X-120500000Y93602000D03*
X-119700000Y93602000D03*
X-118900000Y93602000D03*
X-118100000Y93602000D03*
X-117300000Y93602000D03*
X-116500000Y93602000D03*
X-115700000Y93602000D03*
X-114900000Y93602000D03*
X-130100000Y92802000D03*
X-129300000Y92802000D03*
X-128500000Y92802000D03*
X-127700000Y92802000D03*
X-126900000Y92802000D03*
X-126100000Y92802000D03*
X-125300000Y92802000D03*
X-124500000Y92802000D03*
X-123700000Y92802000D03*
X-122900000Y92802000D03*
X-122100000Y92802000D03*
X-121300000Y92802000D03*
X-120500000Y92802000D03*
X-119700000Y92802000D03*
X-118900000Y92802000D03*
X-118100000Y92802000D03*
X-117300000Y92802000D03*
X-116500000Y92802000D03*
X-115700000Y92802000D03*
X-114900000Y92802000D03*
X-130100000Y92002000D03*
X-129300000Y92002000D03*
X-128500000Y92002000D03*
X-127700000Y92002000D03*
X-126900000Y92002000D03*
X-126100000Y92002000D03*
X-125300000Y92002000D03*
X-124500000Y92002000D03*
X-123700000Y92002000D03*
X-122900000Y92002000D03*
X-122100000Y92002000D03*
X-121300000Y92002000D03*
X-120500000Y92002000D03*
X-119700000Y92002000D03*
X-118900000Y92002000D03*
X-118100000Y92002000D03*
X-117300000Y92002000D03*
X-116500000Y92002000D03*
X-115700000Y92002000D03*
X-114900000Y92002000D03*
X-130100000Y91202000D03*
X-129300000Y91202000D03*
X-128500000Y91202000D03*
X-127700000Y91202000D03*
X-126900000Y91202000D03*
X-126100000Y91202000D03*
X-125300000Y91202000D03*
X-124500000Y91202000D03*
X-123700000Y91202000D03*
X-122900000Y91202000D03*
X-122100000Y91202000D03*
X-121300000Y91202000D03*
X-120500000Y91202000D03*
X-119700000Y91202000D03*
X-118900000Y91202000D03*
X-118100000Y91202000D03*
X-117300000Y91202000D03*
X-116500000Y91202000D03*
X-115700000Y91202000D03*
X-114900000Y91202000D03*
X-130100000Y90402000D03*
X-129300000Y90402000D03*
X-128500000Y90402000D03*
X-127700000Y90402000D03*
X-126900000Y90402000D03*
X-126100000Y90402000D03*
X-125300000Y90402000D03*
X-124500000Y90402000D03*
X-123700000Y90402000D03*
X-122900000Y90402000D03*
X-122100000Y90402000D03*
X-121300000Y90402000D03*
X-120500000Y90402000D03*
X-119700000Y90402000D03*
X-118900000Y90402000D03*
X-118100000Y90402000D03*
X-117300000Y90402000D03*
X-116500000Y90402000D03*
X-115700000Y90402000D03*
X-114900000Y90402000D03*
X-130100000Y89602000D03*
X-129300000Y89602000D03*
X-128500000Y89602000D03*
X-127700000Y89602000D03*
X-126900000Y89602000D03*
X-126100000Y89602000D03*
X-125300000Y89602000D03*
X-124500000Y89602000D03*
X-123700000Y89602000D03*
X-122900000Y89602000D03*
X-122100000Y89602000D03*
X-121300000Y89602000D03*
X-120500000Y89602000D03*
X-119700000Y89602000D03*
X-118900000Y89602000D03*
X-118100000Y89602000D03*
X-117300000Y89602000D03*
X-116500000Y89602000D03*
X-115700000Y89602000D03*
X-114900000Y89602000D03*
X-130100000Y88802000D03*
X-129300000Y88802000D03*
X-128500000Y88802000D03*
X-127700000Y88802000D03*
X-126900000Y88802000D03*
X-126100000Y88802000D03*
X-125300000Y88802000D03*
X-124500000Y88802000D03*
X-123700000Y88802000D03*
X-122900000Y88802000D03*
X-122100000Y88802000D03*
X-121300000Y88802000D03*
X-120500000Y88802000D03*
X-119700000Y88802000D03*
X-118900000Y88802000D03*
X-118100000Y88802000D03*
X-117300000Y88802000D03*
X-116500000Y88802000D03*
X-115700000Y88802000D03*
X-114900000Y88802000D03*
X-130100000Y88002000D03*
X-129300000Y88002000D03*
X-128500000Y88002000D03*
X-127700000Y88002000D03*
X-126900000Y88002000D03*
X-126100000Y88002000D03*
X-125300000Y88002000D03*
X-124500000Y88002000D03*
X-123700000Y88002000D03*
X-122900000Y88002000D03*
X-122100000Y88002000D03*
X-121300000Y88002000D03*
X-120500000Y88002000D03*
X-119700000Y88002000D03*
X-118900000Y88002000D03*
X-118100000Y88002000D03*
X-117300000Y88002000D03*
X-116500000Y88002000D03*
X-115700000Y88002000D03*
X-114900000Y88002000D03*
X-130100000Y87202000D03*
X-129300000Y87202000D03*
X-128500000Y87202000D03*
X-127700000Y87202000D03*
X-126900000Y87202000D03*
X-126100000Y87202000D03*
X-125300000Y87202000D03*
X-124500000Y87202000D03*
X-123700000Y87202000D03*
X-122900000Y87202000D03*
X-122100000Y87202000D03*
X-121300000Y87202000D03*
X-120500000Y87202000D03*
X-119700000Y87202000D03*
X-118900000Y87202000D03*
X-118100000Y87202000D03*
X-117300000Y87202000D03*
X-116500000Y87202000D03*
X-115700000Y87202000D03*
X-114900000Y87202000D03*
X-130100000Y86402000D03*
X-129300000Y86402000D03*
X-128500000Y86402000D03*
X-127700000Y86402000D03*
X-126900000Y86402000D03*
X-126100000Y86402000D03*
X-125300000Y86402000D03*
X-124500000Y86402000D03*
X-123700000Y86402000D03*
X-122900000Y86402000D03*
X-122100000Y86402000D03*
X-121300000Y86402000D03*
X-120500000Y86402000D03*
X-119700000Y86402000D03*
X-118900000Y86402000D03*
X-118100000Y86402000D03*
X-117300000Y86402000D03*
X-116500000Y86402000D03*
X-115700000Y86402000D03*
X-114900000Y86402000D03*
X-130100000Y85602000D03*
X-129300000Y85602000D03*
X-128500000Y85602000D03*
X-127700000Y85602000D03*
X-126900000Y85602000D03*
X-118100000Y85602000D03*
X-117300000Y85602000D03*
X-116500000Y85602000D03*
X-115700000Y85602000D03*
X-114900000Y85602000D03*
X-130100000Y84802000D03*
X-129300000Y84802000D03*
X-128500000Y84802000D03*
X-127700000Y84802000D03*
X-126900000Y84802000D03*
X-126100000Y84802000D03*
X-125300000Y84802000D03*
X-124500000Y84802000D03*
X-123700000Y84802000D03*
X-122900000Y84802000D03*
X-122100000Y84802000D03*
X-121300000Y84802000D03*
X-120500000Y84802000D03*
X-119700000Y84802000D03*
X-118900000Y84802000D03*
X-118100000Y84802000D03*
X-117300000Y84802000D03*
X-116500000Y84802000D03*
X-115700000Y84802000D03*
X-114900000Y84802000D03*
X-130100000Y84002000D03*
X-129300000Y84002000D03*
X-128500000Y84002000D03*
X-127700000Y84002000D03*
X-126900000Y84002000D03*
X-126100000Y84002000D03*
X-125300000Y84002000D03*
X-124500000Y84002000D03*
X-123700000Y84002000D03*
X-122900000Y84002000D03*
X-122100000Y84002000D03*
X-121300000Y84002000D03*
X-120500000Y84002000D03*
X-119700000Y84002000D03*
X-118900000Y84002000D03*
X-118100000Y84002000D03*
X-117300000Y84002000D03*
X-116500000Y84002000D03*
X-115700000Y84002000D03*
X-114900000Y84002000D03*
X-130100000Y83202000D03*
X-129300000Y83202000D03*
X-128500000Y83202000D03*
X-127700000Y83202000D03*
X-126900000Y83202000D03*
X-126100000Y83202000D03*
X-125300000Y83202000D03*
X-124500000Y83202000D03*
X-123700000Y83202000D03*
X-122900000Y83202000D03*
X-122100000Y83202000D03*
X-121300000Y83202000D03*
X-120500000Y83202000D03*
X-119700000Y83202000D03*
X-118900000Y83202000D03*
X-118100000Y83202000D03*
X-117300000Y83202000D03*
X-116500000Y83202000D03*
X-115700000Y83202000D03*
X-114900000Y83202000D03*
X-130100000Y82402000D03*
X-129300000Y82402000D03*
X-128500000Y82402000D03*
X-127700000Y82402000D03*
X-126900000Y82402000D03*
X-126100000Y82402000D03*
X-125300000Y82402000D03*
X-124500000Y82402000D03*
X-123700000Y82402000D03*
X-122900000Y82402000D03*
X-122100000Y82402000D03*
X-121300000Y82402000D03*
X-120500000Y82402000D03*
X-119700000Y82402000D03*
X-118900000Y82402000D03*
X-118100000Y82402000D03*
X-117300000Y82402000D03*
X-116500000Y82402000D03*
X-115700000Y82402000D03*
X-114900000Y82402000D03*
X-129300000Y81602000D03*
X-128500000Y81602000D03*
X-126900000Y81602000D03*
X-126100000Y81602000D03*
X-125300000Y81602000D03*
X-124500000Y81602000D03*
X-122100000Y81602000D03*
X-121300000Y81602000D03*
X-119700000Y81602000D03*
X-118900000Y81602000D03*
X-118100000Y81602000D03*
X-117300000Y81602000D03*
X-115700000Y81602000D03*
%TD*%
D43*
%TO.C,D9*%
X-117900002Y12427000D03*
X-117900002Y14177000D03*
%TD*%
D11*
%TO.C,KiKit_MB_29_3*%
X-164580000Y7002000D03*
%TD*%
D50*
%TO.C,C98*%
X-229750000Y110002000D03*
X-231450000Y110002000D03*
%TD*%
D55*
%TO.C,Q10*%
X-140450000Y32632000D03*
X-140450000Y33902000D03*
X-140450000Y35172000D03*
X-140450000Y36442000D03*
D56*
X-143165000Y36809500D03*
D57*
X-144245000Y35652000D03*
D58*
X-146035000Y36752000D03*
D56*
X-143165000Y32264500D03*
D57*
X-144245000Y33422000D03*
D58*
X-146035000Y32322000D03*
%TD*%
D11*
%TO.C,KiKit_MB_23_1*%
X-35399001Y7002000D03*
%TD*%
D33*
%TO.C,D4*%
X-237825000Y47202001D03*
X-239575000Y47202001D03*
%TD*%
D11*
%TO.C,KiKit_MB_13_6*%
X-151201000Y7002000D03*
%TD*%
%TO.C,U1*%
X-44300000Y96802000D03*
X-43500000Y96802000D03*
X-42700000Y96802000D03*
X-41900000Y96802000D03*
X-41100000Y96802000D03*
X-40300000Y96802000D03*
X-39500000Y96802000D03*
X-38700000Y96802000D03*
X-37900000Y96802000D03*
X-37100000Y96802000D03*
X-36300000Y96802000D03*
X-35500000Y96802000D03*
X-34700000Y96802000D03*
X-33900000Y96802000D03*
X-33100000Y96802000D03*
X-32300000Y96802000D03*
X-31500000Y96802000D03*
X-30700000Y96802000D03*
X-45100000Y96002000D03*
X-44300000Y96002000D03*
X-43500000Y96002000D03*
X-42700000Y96002000D03*
X-41900000Y96002000D03*
X-41100000Y96002000D03*
X-40300000Y96002000D03*
X-39500000Y96002000D03*
X-38700000Y96002000D03*
X-37900000Y96002000D03*
X-37100000Y96002000D03*
X-36300000Y96002000D03*
X-35500000Y96002000D03*
X-34700000Y96002000D03*
X-33900000Y96002000D03*
X-33100000Y96002000D03*
X-32300000Y96002000D03*
X-31500000Y96002000D03*
X-30700000Y96002000D03*
X-29900000Y96002000D03*
X-45100000Y95202000D03*
X-44300000Y95202000D03*
X-43500000Y95202000D03*
X-42700000Y95202000D03*
X-41900000Y95202000D03*
X-41100000Y95202000D03*
X-40300000Y95202000D03*
X-39500000Y95202000D03*
X-38700000Y95202000D03*
X-37900000Y95202000D03*
X-37100000Y95202000D03*
X-36300000Y95202000D03*
X-35500000Y95202000D03*
X-34700000Y95202000D03*
X-33900000Y95202000D03*
X-33100000Y95202000D03*
X-32300000Y95202000D03*
X-31500000Y95202000D03*
X-30700000Y95202000D03*
X-29900000Y95202000D03*
X-45100000Y94402000D03*
X-44300000Y94402000D03*
X-43500000Y94402000D03*
X-42700000Y94402000D03*
X-41900000Y94402000D03*
X-41100000Y94402000D03*
X-40300000Y94402000D03*
X-39500000Y94402000D03*
X-38700000Y94402000D03*
X-37900000Y94402000D03*
X-37100000Y94402000D03*
X-36300000Y94402000D03*
X-35500000Y94402000D03*
X-34700000Y94402000D03*
X-33900000Y94402000D03*
X-33100000Y94402000D03*
X-32300000Y94402000D03*
X-31500000Y94402000D03*
X-30700000Y94402000D03*
X-29900000Y94402000D03*
X-45100000Y93602000D03*
X-44300000Y93602000D03*
X-43500000Y93602000D03*
X-42700000Y93602000D03*
X-41900000Y93602000D03*
X-41100000Y93602000D03*
X-40300000Y93602000D03*
X-39500000Y93602000D03*
X-38700000Y93602000D03*
X-37900000Y93602000D03*
X-37100000Y93602000D03*
X-36300000Y93602000D03*
X-35500000Y93602000D03*
X-34700000Y93602000D03*
X-33900000Y93602000D03*
X-33100000Y93602000D03*
X-32300000Y93602000D03*
X-31500000Y93602000D03*
X-30700000Y93602000D03*
X-29900000Y93602000D03*
X-45100000Y92802000D03*
X-44300000Y92802000D03*
X-43500000Y92802000D03*
X-42700000Y92802000D03*
X-41900000Y92802000D03*
X-41100000Y92802000D03*
X-40300000Y92802000D03*
X-39500000Y92802000D03*
X-38700000Y92802000D03*
X-37900000Y92802000D03*
X-37100000Y92802000D03*
X-36300000Y92802000D03*
X-35500000Y92802000D03*
X-34700000Y92802000D03*
X-33900000Y92802000D03*
X-33100000Y92802000D03*
X-32300000Y92802000D03*
X-31500000Y92802000D03*
X-30700000Y92802000D03*
X-29900000Y92802000D03*
X-45100000Y92002000D03*
X-44300000Y92002000D03*
X-43500000Y92002000D03*
X-42700000Y92002000D03*
X-41900000Y92002000D03*
X-41100000Y92002000D03*
X-40300000Y92002000D03*
X-39500000Y92002000D03*
X-38700000Y92002000D03*
X-37900000Y92002000D03*
X-37100000Y92002000D03*
X-36300000Y92002000D03*
X-35500000Y92002000D03*
X-34700000Y92002000D03*
X-33900000Y92002000D03*
X-33100000Y92002000D03*
X-32300000Y92002000D03*
X-31500000Y92002000D03*
X-30700000Y92002000D03*
X-29900000Y92002000D03*
X-45100000Y91202000D03*
X-44300000Y91202000D03*
X-43500000Y91202000D03*
X-42700000Y91202000D03*
X-41900000Y91202000D03*
X-41100000Y91202000D03*
X-40300000Y91202000D03*
X-39500000Y91202000D03*
X-38700000Y91202000D03*
X-37900000Y91202000D03*
X-37100000Y91202000D03*
X-36300000Y91202000D03*
X-35500000Y91202000D03*
X-34700000Y91202000D03*
X-33900000Y91202000D03*
X-33100000Y91202000D03*
X-32300000Y91202000D03*
X-31500000Y91202000D03*
X-30700000Y91202000D03*
X-29900000Y91202000D03*
X-45100000Y90402000D03*
X-44300000Y90402000D03*
X-43500000Y90402000D03*
X-42700000Y90402000D03*
X-41900000Y90402000D03*
X-41100000Y90402000D03*
X-40300000Y90402000D03*
X-39500000Y90402000D03*
X-38700000Y90402000D03*
X-37900000Y90402000D03*
X-37100000Y90402000D03*
X-36300000Y90402000D03*
X-35500000Y90402000D03*
X-34700000Y90402000D03*
X-33900000Y90402000D03*
X-33100000Y90402000D03*
X-32300000Y90402000D03*
X-31500000Y90402000D03*
X-30700000Y90402000D03*
X-29900000Y90402000D03*
X-45100000Y89602000D03*
X-44300000Y89602000D03*
X-43500000Y89602000D03*
X-42700000Y89602000D03*
X-41900000Y89602000D03*
X-41100000Y89602000D03*
X-40300000Y89602000D03*
X-39500000Y89602000D03*
X-38700000Y89602000D03*
X-37900000Y89602000D03*
X-37100000Y89602000D03*
X-36300000Y89602000D03*
X-35500000Y89602000D03*
X-34700000Y89602000D03*
X-33900000Y89602000D03*
X-33100000Y89602000D03*
X-32300000Y89602000D03*
X-31500000Y89602000D03*
X-30700000Y89602000D03*
X-29900000Y89602000D03*
X-45100000Y88802000D03*
X-44300000Y88802000D03*
X-43500000Y88802000D03*
X-42700000Y88802000D03*
X-41900000Y88802000D03*
X-41100000Y88802000D03*
X-40300000Y88802000D03*
X-39500000Y88802000D03*
X-38700000Y88802000D03*
X-37900000Y88802000D03*
X-37100000Y88802000D03*
X-36300000Y88802000D03*
X-35500000Y88802000D03*
X-34700000Y88802000D03*
X-33900000Y88802000D03*
X-33100000Y88802000D03*
X-32300000Y88802000D03*
X-31500000Y88802000D03*
X-30700000Y88802000D03*
X-29900000Y88802000D03*
X-45100000Y88002000D03*
X-44300000Y88002000D03*
X-43500000Y88002000D03*
X-42700000Y88002000D03*
X-41900000Y88002000D03*
X-41100000Y88002000D03*
X-40300000Y88002000D03*
X-39500000Y88002000D03*
X-38700000Y88002000D03*
X-37900000Y88002000D03*
X-37100000Y88002000D03*
X-36300000Y88002000D03*
X-35500000Y88002000D03*
X-34700000Y88002000D03*
X-33900000Y88002000D03*
X-33100000Y88002000D03*
X-32300000Y88002000D03*
X-31500000Y88002000D03*
X-30700000Y88002000D03*
X-29900000Y88002000D03*
X-45100000Y87202000D03*
X-44300000Y87202000D03*
X-43500000Y87202000D03*
X-42700000Y87202000D03*
X-41900000Y87202000D03*
X-41100000Y87202000D03*
X-40300000Y87202000D03*
X-39500000Y87202000D03*
X-38700000Y87202000D03*
X-37900000Y87202000D03*
X-37100000Y87202000D03*
X-36300000Y87202000D03*
X-35500000Y87202000D03*
X-34700000Y87202000D03*
X-33900000Y87202000D03*
X-33100000Y87202000D03*
X-32300000Y87202000D03*
X-31500000Y87202000D03*
X-30700000Y87202000D03*
X-29900000Y87202000D03*
X-45100000Y86402000D03*
X-44300000Y86402000D03*
X-43500000Y86402000D03*
X-42700000Y86402000D03*
X-41900000Y86402000D03*
X-41100000Y86402000D03*
X-40300000Y86402000D03*
X-39500000Y86402000D03*
X-38700000Y86402000D03*
X-37900000Y86402000D03*
X-37100000Y86402000D03*
X-36300000Y86402000D03*
X-35500000Y86402000D03*
X-34700000Y86402000D03*
X-33900000Y86402000D03*
X-33100000Y86402000D03*
X-32300000Y86402000D03*
X-31500000Y86402000D03*
X-30700000Y86402000D03*
X-29900000Y86402000D03*
X-45100000Y85602000D03*
X-44300000Y85602000D03*
X-43500000Y85602000D03*
X-42700000Y85602000D03*
X-41900000Y85602000D03*
X-33100000Y85602000D03*
X-32300000Y85602000D03*
X-31500000Y85602000D03*
X-30700000Y85602000D03*
X-29900000Y85602000D03*
X-45100000Y84802000D03*
X-44300000Y84802000D03*
X-43500000Y84802000D03*
X-42700000Y84802000D03*
X-41900000Y84802000D03*
X-41100000Y84802000D03*
X-40300000Y84802000D03*
X-39500000Y84802000D03*
X-38700000Y84802000D03*
X-37900000Y84802000D03*
X-37100000Y84802000D03*
X-36300000Y84802000D03*
X-35500000Y84802000D03*
X-34700000Y84802000D03*
X-33900000Y84802000D03*
X-33100000Y84802000D03*
X-32300000Y84802000D03*
X-31500000Y84802000D03*
X-30700000Y84802000D03*
X-29900000Y84802000D03*
X-45100000Y84002000D03*
X-44300000Y84002000D03*
X-43500000Y84002000D03*
X-42700000Y84002000D03*
X-41900000Y84002000D03*
X-41100000Y84002000D03*
X-40300000Y84002000D03*
X-39500000Y84002000D03*
X-38700000Y84002000D03*
X-37900000Y84002000D03*
X-37100000Y84002000D03*
X-36300000Y84002000D03*
X-35500000Y84002000D03*
X-34700000Y84002000D03*
X-33900000Y84002000D03*
X-33100000Y84002000D03*
X-32300000Y84002000D03*
X-31500000Y84002000D03*
X-30700000Y84002000D03*
X-29900000Y84002000D03*
X-45100000Y83202000D03*
X-44300000Y83202000D03*
X-43500000Y83202000D03*
X-42700000Y83202000D03*
X-41900000Y83202000D03*
X-41100000Y83202000D03*
X-40300000Y83202000D03*
X-39500000Y83202000D03*
X-38700000Y83202000D03*
X-37900000Y83202000D03*
X-37100000Y83202000D03*
X-36300000Y83202000D03*
X-35500000Y83202000D03*
X-34700000Y83202000D03*
X-33900000Y83202000D03*
X-33100000Y83202000D03*
X-32300000Y83202000D03*
X-31500000Y83202000D03*
X-30700000Y83202000D03*
X-29900000Y83202000D03*
X-45100000Y82402000D03*
X-44300000Y82402000D03*
X-43500000Y82402000D03*
X-42700000Y82402000D03*
X-41900000Y82402000D03*
X-41100000Y82402000D03*
X-40300000Y82402000D03*
X-39500000Y82402000D03*
X-38700000Y82402000D03*
X-37900000Y82402000D03*
X-37100000Y82402000D03*
X-36300000Y82402000D03*
X-35500000Y82402000D03*
X-34700000Y82402000D03*
X-33900000Y82402000D03*
X-33100000Y82402000D03*
X-32300000Y82402000D03*
X-31500000Y82402000D03*
X-30700000Y82402000D03*
X-29900000Y82402000D03*
X-44300000Y81602000D03*
X-43500000Y81602000D03*
X-41900000Y81602000D03*
X-41100000Y81602000D03*
X-40300000Y81602000D03*
X-39500000Y81602000D03*
X-37100000Y81602000D03*
X-36300000Y81602000D03*
X-34700000Y81602000D03*
X-33900000Y81602000D03*
X-33100000Y81602000D03*
X-32300000Y81602000D03*
X-30700000Y81602000D03*
%TD*%
D13*
%TO.C,C42*%
X-98700000Y42002000D03*
X-98700000Y40302000D03*
%TD*%
D43*
%TO.C,D9*%
X-32900002Y12427000D03*
X-32900002Y14177000D03*
%TD*%
D13*
%TO.C,C87*%
X-98700001Y48602000D03*
X-98700001Y46902000D03*
%TD*%
D11*
%TO.C,U3*%
X-175000001Y99702000D03*
X-174000001Y99702001D03*
X-173000001Y99702000D03*
X-172000001Y99702000D03*
X-176000001Y98702000D03*
X-175000001Y98702000D03*
X-174000001Y98702000D03*
X-173000001Y98702000D03*
X-172000001Y98702000D03*
X-176000002Y97702000D03*
X-175000001Y97702000D03*
X-174000001Y97702000D03*
X-173000001Y97702000D03*
X-172000000Y97702000D03*
X-176000001Y96702000D03*
X-175000001Y96702000D03*
X-174000001Y96702000D03*
X-173000001Y96702000D03*
X-172000001Y96702000D03*
X-176000001Y95702000D03*
X-175000001Y95702000D03*
X-174000001Y95701999D03*
X-173000001Y95702000D03*
X-172000001Y95702000D03*
%TD*%
%TO.C,KiKit_MB_27_4*%
X-80420000Y7002000D03*
%TD*%
%TO.C,KiKit_MB_21_4*%
X-63679801Y122002000D03*
%TD*%
D33*
%TO.C,D6*%
X-237825000Y50202000D03*
X-239575000Y50202000D03*
%TD*%
D11*
%TO.C,KiKit_MB_13_4*%
X-149520200Y7002000D03*
%TD*%
D54*
%TO.C,KiKit_FID_T_1*%
X-240000000Y126503500D03*
%TD*%
D87*
%TO.C,U23*%
X-110050000Y32682500D03*
X-109550000Y32682500D03*
X-109050000Y32682500D03*
X-108550000Y32682500D03*
X-108550000Y34582500D03*
X-109050000Y34582500D03*
X-109550000Y34582500D03*
X-110050000Y34582500D03*
D88*
X-109300000Y33632500D03*
%TD*%
D12*
%TO.C,C43*%
X-17450000Y34052000D03*
X-15750000Y34052000D03*
%TD*%
D37*
%TO.C,F1*%
X-230600000Y24752000D03*
X-230600000Y27552000D03*
%TD*%
D23*
%TO.C,C8*%
X-68350000Y55902000D03*
X-68350000Y57602000D03*
%TD*%
D59*
%TO.C,J2*%
X-72752500Y105202000D03*
D60*
X-72752500Y101702000D03*
D61*
X-72757500Y108694500D03*
%TD*%
D11*
%TO.C,KiKit_MB_22_1*%
X-13001000Y122002000D03*
%TD*%
%TO.C,KiKit_MB_8_4*%
X-181320200Y7002000D03*
%TD*%
D13*
%TO.C,R42*%
X-34600003Y17352000D03*
X-34600003Y15652000D03*
%TD*%
D11*
%TO.C,KiKit_MB_22_4*%
X-10479801Y122002000D03*
%TD*%
D37*
%TO.C,F1*%
X-145600000Y24752000D03*
X-145600000Y27552000D03*
%TD*%
D11*
%TO.C,KiKit_MB_14_1*%
X-151201000Y122002000D03*
%TD*%
D50*
%TO.C,R15*%
X-42350000Y37552000D03*
X-44050000Y37552000D03*
%TD*%
D11*
%TO.C,KiKit_MB_19_1*%
X-75000000Y84301000D03*
%TD*%
D25*
%TO.C,U21*%
X-202400000Y49252000D03*
X-202400000Y49902000D03*
X-202400000Y50552000D03*
X-204455000Y50552000D03*
X-204455000Y49902000D03*
X-204455000Y49252000D03*
D26*
X-203427500Y49902000D03*
%TD*%
D50*
%TO.C,R57*%
X-191949998Y35932500D03*
X-193649998Y35932500D03*
%TD*%
D13*
%TO.C,R38*%
X-43100000Y76152000D03*
X-43100000Y74452000D03*
%TD*%
D11*
%TO.C,KiKit_MB_23_2*%
X-36239401Y7002000D03*
%TD*%
%TO.C,KiKit_MB_22_5*%
X-9639401Y122002000D03*
%TD*%
D27*
%TO.C,R2*%
X-135200000Y39451999D03*
X-135200000Y40551999D03*
%TD*%
D13*
%TO.C,R39*%
X-129400000Y76152000D03*
X-129400000Y74452000D03*
%TD*%
%TO.C,C25*%
X-133300000Y44952000D03*
X-133300000Y43252000D03*
%TD*%
D11*
%TO.C,KiKit_MB_28_3*%
X-164580000Y122002000D03*
%TD*%
D12*
%TO.C,C43*%
X-102450000Y34052000D03*
X-100750000Y34052000D03*
%TD*%
D50*
%TO.C,C99*%
X-144750000Y108702000D03*
X-146450000Y108702000D03*
%TD*%
D11*
%TO.C,KiKit_MB_19_2*%
X-75000000Y85141400D03*
%TD*%
%TO.C,KiKit_MB_22_2*%
X-12160600Y122002000D03*
%TD*%
%TO.C,KiKit_MB_11_4*%
X-85000000Y69781800D03*
%TD*%
D12*
%TO.C,C30*%
X-210400000Y41102000D03*
X-208700000Y41102000D03*
%TD*%
D36*
%TO.C,J8*%
X-158035000Y93542000D03*
X-153965000Y93542000D03*
X-158035000Y92272000D03*
X-153965000Y92272000D03*
X-158035000Y91002000D03*
X-153965000Y91002000D03*
X-158035000Y89732000D03*
X-153965000Y89732000D03*
X-158035000Y88462000D03*
X-153965000Y88462000D03*
%TD*%
G36*
X-143195264Y8901058D02*
G01*
X-143133025Y8888678D01*
X-143115361Y8881362D01*
X-143066683Y8848837D01*
X-143053164Y8835318D01*
X-143020639Y8786640D01*
X-143013323Y8768977D01*
X-143000942Y8706737D01*
X-143000000Y8697177D01*
X-143000000Y7206824D01*
X-143000942Y7197264D01*
X-143013323Y7135024D01*
X-143020639Y7117361D01*
X-143053164Y7068683D01*
X-143066683Y7055164D01*
X-143115361Y7022639D01*
X-143133024Y7015323D01*
X-143195263Y7002942D01*
X-143204823Y7002000D01*
X-151295177Y7002000D01*
X-151304737Y7002942D01*
X-151366977Y7015323D01*
X-151384640Y7022639D01*
X-151433318Y7055164D01*
X-151446837Y7068683D01*
X-151479362Y7117361D01*
X-151486679Y7135025D01*
X-151499059Y7197265D01*
X-151500000Y7206824D01*
X-151500000Y8697177D01*
X-151499059Y8706736D01*
X-151486679Y8768976D01*
X-151479362Y8786640D01*
X-151446837Y8835318D01*
X-151433318Y8848837D01*
X-151384640Y8881362D01*
X-151366976Y8888679D01*
X-151304736Y8901059D01*
X-151295177Y8902000D01*
X-143204823Y8902000D01*
X-143195264Y8901058D01*
G37*
G36*
X-58195264Y8901058D02*
G01*
X-58133025Y8888678D01*
X-58115361Y8881362D01*
X-58066683Y8848837D01*
X-58053164Y8835318D01*
X-58020639Y8786640D01*
X-58013323Y8768977D01*
X-58000942Y8706737D01*
X-58000000Y8697177D01*
X-58000000Y7206824D01*
X-58000942Y7197264D01*
X-58013323Y7135024D01*
X-58020639Y7117361D01*
X-58053164Y7068683D01*
X-58066683Y7055164D01*
X-58115361Y7022639D01*
X-58133024Y7015323D01*
X-58195263Y7002942D01*
X-58204823Y7002000D01*
X-66295177Y7002000D01*
X-66304737Y7002942D01*
X-66366977Y7015323D01*
X-66384640Y7022639D01*
X-66433318Y7055164D01*
X-66446837Y7068683D01*
X-66479362Y7117361D01*
X-66486679Y7135025D01*
X-66499059Y7197265D01*
X-66500000Y7206824D01*
X-66500000Y8697177D01*
X-66499059Y8706736D01*
X-66486679Y8768976D01*
X-66479362Y8786640D01*
X-66446837Y8835318D01*
X-66433318Y8848837D01*
X-66384640Y8881362D01*
X-66366976Y8888679D01*
X-66304736Y8901059D01*
X-66295177Y8902000D01*
X-58204823Y8902000D01*
X-58195264Y8901058D01*
G37*
G36*
X-228195264Y8901058D02*
G01*
X-228133025Y8888678D01*
X-228115361Y8881362D01*
X-228066683Y8848837D01*
X-228053164Y8835318D01*
X-228020639Y8786640D01*
X-228013323Y8768977D01*
X-228000942Y8706737D01*
X-228000000Y8697177D01*
X-228000000Y7206824D01*
X-228000942Y7197264D01*
X-228013323Y7135024D01*
X-228020639Y7117361D01*
X-228053164Y7068683D01*
X-228066683Y7055164D01*
X-228115361Y7022639D01*
X-228133024Y7015323D01*
X-228195263Y7002942D01*
X-228204823Y7002000D01*
X-236295177Y7002000D01*
X-236304737Y7002942D01*
X-236366977Y7015323D01*
X-236384640Y7022639D01*
X-236433318Y7055164D01*
X-236446837Y7068683D01*
X-236479362Y7117361D01*
X-236486679Y7135025D01*
X-236499059Y7197265D01*
X-236500000Y7206824D01*
X-236500000Y8697177D01*
X-236499059Y8706736D01*
X-236486679Y8768976D01*
X-236479362Y8786640D01*
X-236446837Y8835318D01*
X-236433318Y8848837D01*
X-236384640Y8881362D01*
X-236366976Y8888679D01*
X-236304736Y8901059D01*
X-236295177Y8902000D01*
X-228204823Y8902000D01*
X-228195264Y8901058D01*
G37*
M02*
