%TF.GenerationSoftware,KiCad,Pcbnew,8.0.3*%
%TF.CreationDate,2024-06-14T08:49:56-07:00*%
%TF.ProjectId,squishy-main,73717569-7368-4792-9d6d-61696e2e6b69,2*%
%TF.SameCoordinates,PXb3c4820PY930e7c0*%
%TF.FileFunction,Soldermask,Top*%
%TF.FilePolarity,Negative*%
%FSLAX46Y46*%
G04 Gerber Fmt 4.6, Leading zero omitted, Abs format (unit mm)*
G04 Created by KiCad (PCBNEW 8.0.3) date 2024-06-14 08:49:56*
%MOMM*%
%LPD*%
G01*
G04 APERTURE LIST*
G04 Aperture macros list*
%AMRoundRect*
0 Rectangle with rounded corners*
0 $1 Rounding radius*
0 $2 $3 $4 $5 $6 $7 $8 $9 X,Y pos of 4 corners*
0 Add a 4 corners polygon primitive as box body*
4,1,4,$2,$3,$4,$5,$6,$7,$8,$9,$2,$3,0*
0 Add four circle primitives for the rounded corners*
1,1,$1+$1,$2,$3*
1,1,$1+$1,$4,$5*
1,1,$1+$1,$6,$7*
1,1,$1+$1,$8,$9*
0 Add four rect primitives between the rounded corners*
20,1,$1+$1,$2,$3,$4,$5,0*
20,1,$1+$1,$4,$5,$6,$7,0*
20,1,$1+$1,$6,$7,$8,$9,0*
20,1,$1+$1,$8,$9,$2,$3,0*%
%AMFreePoly0*
4,1,37,-0.662145,2.810355,-0.647500,2.775000,-0.647500,2.330000,2.502500,2.330000,2.537855,2.315355,2.552500,2.280000,2.552500,1.530000,2.537855,1.494645,2.502500,1.480000,2.077500,1.480000,2.077500,-1.480000,2.502500,-1.480000,2.537855,-1.494645,2.552500,-1.530000,2.552500,-2.280000,2.537855,-2.315355,2.502500,-2.330000,-0.647500,-2.330000,-0.647500,-2.775000,-0.662145,-2.810355,
-0.697500,-2.825000,-1.602500,-2.825000,-1.637855,-2.810355,-1.652500,-2.775000,-1.652500,-2.330000,-2.027500,-2.330000,-2.062855,-2.315355,-2.077500,-2.280000,-2.077500,2.280000,-2.062855,2.315355,-2.027500,2.330000,-1.652500,2.330000,-1.652500,2.775000,-1.637855,2.810355,-1.602500,2.825000,-0.697500,2.825000,-0.662145,2.810355,-0.662145,2.810355,$1*%
%AMFreePoly1*
4,1,16,0.535355,0.785355,0.541603,0.777735,1.041603,0.027735,1.049029,-0.009806,1.041603,-0.027735,0.541603,-0.777735,0.509806,-0.799029,0.500000,-0.800000,-0.500000,-0.800000,-0.535355,-0.785355,-0.550000,-0.750000,-0.550000,0.750000,-0.535355,0.785355,-0.500000,0.800000,0.500000,0.800000,0.535355,0.785355,0.535355,0.785355,$1*%
%AMFreePoly2*
4,1,16,0.535355,0.785355,0.550000,0.750000,0.550000,-0.750000,0.535355,-0.785355,0.500000,-0.800000,-0.650000,-0.800000,-0.685355,-0.785355,-0.700000,-0.750000,-0.691603,-0.722265,-0.210093,0.000000,-0.691603,0.722265,-0.699029,0.759806,-0.677735,0.791603,-0.650000,0.800000,0.500000,0.800000,0.535355,0.785355,0.535355,0.785355,$1*%
G04 Aperture macros list end*
%ADD10C,0.010000*%
%ADD11RoundRect,0.087500X-0.462500X-0.087500X0.462500X-0.087500X0.462500X0.087500X-0.462500X0.087500X0*%
%ADD12RoundRect,0.087500X-0.087500X-0.462500X0.087500X-0.462500X0.087500X0.462500X-0.087500X0.462500X0*%
%ADD13RoundRect,0.259200X-1.090800X-1.090800X1.090800X-1.090800X1.090800X1.090800X-1.090800X1.090800X0*%
%ADD14RoundRect,0.062500X0.187500X0.337500X-0.187500X0.337500X-0.187500X-0.337500X0.187500X-0.337500X0*%
%ADD15RoundRect,0.225000X-0.225000X0.275000X-0.225000X-0.275000X0.225000X-0.275000X0.225000X0.275000X0*%
%ADD16C,6.500000*%
%ADD17RoundRect,0.125000X-0.250000X-0.125000X0.250000X-0.125000X0.250000X0.125000X-0.250000X0.125000X0*%
%ADD18RoundRect,0.087500X0.087500X-0.300000X0.087500X0.300000X-0.087500X0.300000X-0.087500X-0.300000X0*%
%ADD19RoundRect,0.087500X0.300000X-0.087500X0.300000X0.087500X-0.300000X0.087500X-0.300000X-0.087500X0*%
%ADD20RoundRect,0.050000X0.725000X-0.725000X0.725000X0.725000X-0.725000X0.725000X-0.725000X-0.725000X0*%
%ADD21RoundRect,0.270000X0.655000X-0.405000X0.655000X0.405000X-0.655000X0.405000X-0.655000X-0.405000X0*%
%ADD22RoundRect,0.260361X2.456639X-0.996139X2.456639X0.996139X-2.456639X0.996139X-2.456639X-0.996139X0*%
%ADD23RoundRect,0.150000X-0.150000X0.200000X-0.150000X-0.200000X0.150000X-0.200000X0.150000X0.200000X0*%
%ADD24RoundRect,0.087500X-0.362500X0.087500X-0.362500X-0.087500X0.362500X-0.087500X0.362500X0.087500X0*%
%ADD25RoundRect,0.112500X-0.337500X0.112500X-0.337500X-0.112500X0.337500X-0.112500X0.337500X0.112500X0*%
%ADD26RoundRect,0.262500X0.262500X-0.312500X0.262500X0.312500X-0.262500X0.312500X-0.262500X-0.312500X0*%
%ADD27RoundRect,0.150000X0.200000X0.150000X-0.200000X0.150000X-0.200000X-0.150000X0.200000X-0.150000X0*%
%ADD28RoundRect,0.265625X0.584375X-1.534375X0.584375X1.534375X-0.584375X1.534375X-0.584375X-1.534375X0*%
%ADD29RoundRect,0.225000X-0.275000X-0.225000X0.275000X-0.225000X0.275000X0.225000X-0.275000X0.225000X0*%
%ADD30RoundRect,0.262500X0.312500X0.262500X-0.312500X0.262500X-0.312500X-0.262500X0.312500X-0.262500X0*%
%ADD31RoundRect,0.270000X-0.655000X0.405000X-0.655000X-0.405000X0.655000X-0.405000X0.655000X0.405000X0*%
%ADD32RoundRect,0.118750X0.118750X0.131250X-0.118750X0.131250X-0.118750X-0.131250X0.118750X-0.131250X0*%
%ADD33RoundRect,0.050000X0.500000X0.800000X-0.500000X0.800000X-0.500000X-0.800000X0.500000X-0.800000X0*%
%ADD34C,0.500000*%
%ADD35RoundRect,0.264045X-1.758455X-0.675955X1.758455X-0.675955X1.758455X0.675955X-1.758455X0.675955X0*%
%ADD36RoundRect,0.269756X-1.752744X-1.112744X1.752744X-1.112744X1.752744X1.112744X-1.752744X1.112744X0*%
%ADD37RoundRect,0.269756X-1.747744X-1.112744X1.747744X-1.112744X1.747744X1.112744X-1.747744X1.112744X0*%
%ADD38RoundRect,0.087500X0.087500X-0.212500X0.087500X0.212500X-0.087500X0.212500X-0.087500X-0.212500X0*%
%ADD39RoundRect,0.050000X0.800000X-0.450000X0.800000X0.450000X-0.800000X0.450000X-0.800000X-0.450000X0*%
%ADD40RoundRect,0.100000X-0.125000X0.100000X-0.125000X-0.100000X0.125000X-0.100000X0.125000X0.100000X0*%
%ADD41RoundRect,0.205000X0.205000X0.370000X-0.205000X0.370000X-0.205000X-0.370000X0.205000X-0.370000X0*%
%ADD42RoundRect,0.100000X-0.450000X-0.100000X0.450000X-0.100000X0.450000X0.100000X-0.450000X0.100000X0*%
%ADD43RoundRect,0.100000X0.100000X-0.450000X0.100000X0.450000X-0.100000X0.450000X-0.100000X-0.450000X0*%
%ADD44RoundRect,0.262500X-0.787500X-1.787500X0.787500X-1.787500X0.787500X1.787500X-0.787500X1.787500X0*%
%ADD45C,1.500000*%
%ADD46RoundRect,0.268500X-0.581500X-0.481500X0.581500X-0.481500X0.581500X0.481500X-0.581500X0.481500X0*%
%ADD47RoundRect,0.261628X-2.038372X0.863372X-2.038372X-0.863372X2.038372X-0.863372X2.038372X0.863372X0*%
%ADD48C,0.800000*%
%ADD49C,1.200000*%
%ADD50RoundRect,0.125000X-0.125000X-0.925000X0.125000X-0.925000X0.125000X0.925000X-0.125000X0.925000X0*%
%ADD51RoundRect,0.267857X1.482143X-0.482143X1.482143X0.482143X-1.482143X0.482143X-1.482143X-0.482143X0*%
%ADD52RoundRect,0.212500X0.337500X0.212500X-0.337500X0.212500X-0.337500X-0.212500X0.337500X-0.212500X0*%
%ADD53FreePoly0,180.000000*%
%ADD54RoundRect,0.225000X0.225000X-0.275000X0.225000X0.275000X-0.225000X0.275000X-0.225000X-0.275000X0*%
%ADD55RoundRect,0.255297X2.194703X2.154703X-2.194703X2.154703X-2.194703X-2.154703X2.194703X-2.154703X0*%
%ADD56RoundRect,0.269685X0.480315X0.415315X-0.480315X0.415315X-0.480315X-0.415315X0.480315X-0.415315X0*%
%ADD57RoundRect,0.150000X-0.200000X-0.150000X0.200000X-0.150000X0.200000X0.150000X-0.200000X0.150000X0*%
%ADD58C,0.750000*%
%ADD59O,0.750000X1.050000*%
%ADD60RoundRect,0.112500X-0.487500X0.112500X-0.487500X-0.112500X0.487500X-0.112500X0.487500X0.112500X0*%
%ADD61C,0.700000*%
%ADD62C,0.600000*%
%ADD63O,2.100000X1.100000*%
%ADD64O,1.700000X1.100000*%
%ADD65RoundRect,0.250000X-0.350000X0.250000X-0.350000X-0.250000X0.350000X-0.250000X0.350000X0.250000X0*%
%ADD66RoundRect,0.225000X0.275000X0.225000X-0.275000X0.225000X-0.275000X-0.225000X0.275000X-0.225000X0*%
%ADD67C,0.850000*%
%ADD68RoundRect,0.270400X-0.379600X-0.679600X0.379600X-0.679600X0.379600X0.679600X-0.379600X0.679600X0*%
%ADD69RoundRect,0.217100X0.432900X0.432900X-0.432900X0.432900X-0.432900X-0.432900X0.432900X-0.432900X0*%
%ADD70RoundRect,0.227027X-1.217973X0.192973X-1.217973X-0.192973X1.217973X-0.192973X1.217973X0.192973X0*%
%ADD71RoundRect,0.150000X0.150000X-0.200000X0.150000X0.200000X-0.150000X0.200000X-0.150000X-0.200000X0*%
%ADD72RoundRect,0.217100X-0.432900X-0.432900X0.432900X-0.432900X0.432900X0.432900X-0.432900X0.432900X0*%
%ADD73FreePoly1,0.000000*%
%ADD74FreePoly2,0.000000*%
%ADD75RoundRect,0.150000X0.247487X-0.035355X-0.035355X0.247487X-0.247487X0.035355X0.035355X-0.247487X0*%
%ADD76RoundRect,0.200000X0.200000X0.350000X-0.200000X0.350000X-0.200000X-0.350000X0.200000X-0.350000X0*%
%ADD77RoundRect,0.175000X0.225000X0.175000X-0.225000X0.175000X-0.225000X-0.175000X0.225000X-0.175000X0*%
%ADD78RoundRect,0.225000X0.035355X0.353553X-0.353553X-0.035355X-0.035355X-0.353553X0.353553X0.035355X0*%
%ADD79RoundRect,0.150000X-0.035355X-0.247487X0.247487X0.035355X0.035355X0.247487X-0.247487X-0.035355X0*%
%ADD80C,1.300000*%
%ADD81RoundRect,0.100000X0.272500X0.100000X-0.272500X0.100000X-0.272500X-0.100000X0.272500X-0.100000X0*%
%ADD82RoundRect,0.050000X0.505000X0.850000X-0.505000X0.850000X-0.505000X-0.850000X0.505000X-0.850000X0*%
%ADD83RoundRect,0.087500X0.087500X-0.312500X0.087500X0.312500X-0.087500X0.312500X-0.087500X-0.312500X0*%
%ADD84RoundRect,0.275000X1.125000X-0.275000X1.125000X0.275000X-1.125000X0.275000X-1.125000X-0.275000X0*%
%ADD85RoundRect,0.087500X-0.375000X-0.087500X0.375000X-0.087500X0.375000X0.087500X-0.375000X0.087500X0*%
%ADD86RoundRect,0.087500X-0.087500X-0.375000X0.087500X-0.375000X0.087500X0.375000X-0.087500X0.375000X0*%
%ADD87RoundRect,0.050000X-1.300000X-1.300000X1.300000X-1.300000X1.300000X1.300000X-1.300000X1.300000X0*%
%ADD88RoundRect,0.217100X0.432900X-0.432900X0.432900X0.432900X-0.432900X0.432900X-0.432900X-0.432900X0*%
%ADD89RoundRect,0.050000X0.850000X0.850000X-0.850000X0.850000X-0.850000X-0.850000X0.850000X-0.850000X0*%
%ADD90O,1.800000X1.800000*%
%ADD91RoundRect,0.262500X-0.787500X2.087500X-0.787500X-2.087500X0.787500X-2.087500X0.787500X2.087500X0*%
%ADD92O,2.100000X4.300000*%
%ADD93O,4.300000X2.100000*%
%ADD94RoundRect,0.127500X0.282500X0.127500X-0.282500X0.127500X-0.282500X-0.127500X0.282500X-0.127500X0*%
%ADD95RoundRect,0.050000X0.255000X0.292500X-0.255000X0.292500X-0.255000X-0.292500X0.255000X-0.292500X0*%
%ADD96RoundRect,0.050000X1.995000X0.865000X-1.995000X0.865000X-1.995000X-0.865000X1.995000X-0.865000X0*%
%ADD97RoundRect,0.050000X0.205000X0.235000X-0.205000X0.235000X-0.205000X-0.235000X0.205000X-0.235000X0*%
%ADD98RoundRect,0.125000X0.125000X-0.525000X0.125000X0.525000X-0.125000X0.525000X-0.125000X-0.525000X0*%
%ADD99RoundRect,0.259000X1.791000X-1.491000X1.791000X1.491000X-1.791000X1.491000X-1.791000X-1.491000X0*%
%ADD100RoundRect,0.200000X-0.318198X-0.035355X-0.035355X-0.318198X0.318198X0.035355X0.035355X0.318198X0*%
G04 APERTURE END LIST*
D10*
%TO.C,G1*%
X-20281184Y10347486D02*
X-20271281Y10339925D01*
X-20252552Y10325174D01*
X-20226999Y10304824D01*
X-20196622Y10280469D01*
X-20164620Y10254671D01*
X-20005796Y10129823D01*
X-19840403Y10006474D01*
X-19672305Y9887385D01*
X-19505367Y9775314D01*
X-19394622Y9704612D01*
X-19160256Y9564785D01*
X-18926781Y9438600D01*
X-18693555Y9325841D01*
X-18459936Y9226293D01*
X-18225282Y9139740D01*
X-17988949Y9065968D01*
X-17750297Y9004762D01*
X-17508682Y8955905D01*
X-17263462Y8919185D01*
X-17013995Y8894384D01*
X-16965036Y8890934D01*
X-16917290Y8888492D01*
X-16858355Y8886598D01*
X-16790971Y8885251D01*
X-16717881Y8884450D01*
X-16641824Y8884195D01*
X-16565542Y8884485D01*
X-16491775Y8885320D01*
X-16423265Y8886699D01*
X-16362752Y8888621D01*
X-16313307Y8891066D01*
X-16216368Y8898119D01*
X-16111439Y8907476D01*
X-16004040Y8918569D01*
X-15899692Y8930828D01*
X-15806363Y8943331D01*
X-15714632Y8957156D01*
X-15628169Y8971588D01*
X-15544934Y8987123D01*
X-15462884Y9004257D01*
X-15379977Y9023484D01*
X-15294172Y9045302D01*
X-15203425Y9070205D01*
X-15105696Y9098688D01*
X-14998942Y9131248D01*
X-14887868Y9166228D01*
X-14790138Y9197186D01*
X-14704018Y9224017D01*
X-14627941Y9247150D01*
X-14560342Y9267014D01*
X-14499656Y9284041D01*
X-14444316Y9298660D01*
X-14392757Y9311300D01*
X-14343413Y9322393D01*
X-14294720Y9332368D01*
X-14257050Y9339491D01*
X-14114368Y9360712D01*
X-13977252Y9370763D01*
X-13843878Y9369430D01*
X-13712418Y9356502D01*
X-13581048Y9331766D01*
X-13447941Y9295011D01*
X-13311271Y9246024D01*
X-13255582Y9223120D01*
X-13207831Y9202081D01*
X-13160575Y9179949D01*
X-13116575Y9158116D01*
X-13078592Y9137973D01*
X-13049385Y9120910D01*
X-13038775Y9113855D01*
X-13037520Y9112797D01*
X-13036535Y9111271D01*
X-13035962Y9108875D01*
X-13035944Y9105206D01*
X-13036622Y9099863D01*
X-13038139Y9092445D01*
X-13040639Y9082550D01*
X-13044262Y9069776D01*
X-13049152Y9053720D01*
X-13055450Y9033982D01*
X-13063300Y9010160D01*
X-13072843Y8981852D01*
X-13084223Y8948656D01*
X-13097580Y8910171D01*
X-13113059Y8865994D01*
X-13130801Y8815724D01*
X-13150948Y8758960D01*
X-13173643Y8695299D01*
X-13199029Y8624339D01*
X-13227247Y8545680D01*
X-13258441Y8458919D01*
X-13292752Y8363654D01*
X-13330323Y8259484D01*
X-13371297Y8146007D01*
X-13415815Y8022821D01*
X-13464020Y7889525D01*
X-13516055Y7745717D01*
X-13572061Y7590994D01*
X-13632182Y7424956D01*
X-13696560Y7247200D01*
X-13765336Y7057325D01*
X-13838654Y6854929D01*
X-13873814Y6757873D01*
X-13937069Y6583263D01*
X-13999114Y6411995D01*
X-14059780Y6244534D01*
X-14118898Y6081345D01*
X-14176300Y5922895D01*
X-14231818Y5769648D01*
X-14285282Y5622071D01*
X-14336524Y5480628D01*
X-14385375Y5345787D01*
X-14431666Y5218011D01*
X-14475229Y5097768D01*
X-14515895Y4985522D01*
X-14553495Y4881739D01*
X-14587861Y4786885D01*
X-14618823Y4701426D01*
X-14646214Y4625827D01*
X-14669865Y4560553D01*
X-14689606Y4506070D01*
X-14705270Y4462845D01*
X-14716687Y4431342D01*
X-14723689Y4412027D01*
X-14726103Y4405375D01*
X-14733952Y4402172D01*
X-14753069Y4399747D01*
X-14780804Y4398141D01*
X-14814503Y4397396D01*
X-14851514Y4397552D01*
X-14889185Y4398650D01*
X-14924864Y4400732D01*
X-14940145Y4402058D01*
X-14993888Y4408286D01*
X-15048416Y4416340D01*
X-15102033Y4425801D01*
X-15153040Y4436251D01*
X-15199738Y4447269D01*
X-15240428Y4458439D01*
X-15273412Y4469341D01*
X-15296992Y4479556D01*
X-15309468Y4488666D01*
X-15310911Y4493453D01*
X-15308495Y4500924D01*
X-15301830Y4520957D01*
X-15291135Y4552908D01*
X-15276627Y4596131D01*
X-15258523Y4649982D01*
X-15237041Y4713818D01*
X-15212396Y4786993D01*
X-15184808Y4868863D01*
X-15154492Y4958783D01*
X-15121667Y5056110D01*
X-15086549Y5160197D01*
X-15049356Y5270402D01*
X-15010305Y5386079D01*
X-14969613Y5506585D01*
X-14927497Y5631273D01*
X-14884175Y5759501D01*
X-14880491Y5770403D01*
X-14837091Y5898891D01*
X-14794901Y6023896D01*
X-14754136Y6144771D01*
X-14715012Y6260874D01*
X-14677746Y6371559D01*
X-14642554Y6476183D01*
X-14609651Y6574100D01*
X-14579255Y6664667D01*
X-14551581Y6747238D01*
X-14526845Y6821170D01*
X-14505264Y6885819D01*
X-14487053Y6940539D01*
X-14472428Y6984687D01*
X-14461607Y7017617D01*
X-14454804Y7038686D01*
X-14452236Y7047250D01*
X-14452220Y7047380D01*
X-14457585Y7055122D01*
X-14472100Y7068647D01*
X-14493395Y7085888D01*
X-14513211Y7100601D01*
X-14532128Y7113710D01*
X-14551098Y7125686D01*
X-14571923Y7137377D01*
X-14596403Y7149634D01*
X-14626336Y7163308D01*
X-14663525Y7179248D01*
X-14709768Y7198305D01*
X-14766867Y7221330D01*
X-14779827Y7226517D01*
X-14879876Y7266036D01*
X-14968918Y7300007D01*
X-15048554Y7328820D01*
X-15120389Y7352869D01*
X-15186025Y7372546D01*
X-15247067Y7388242D01*
X-15305116Y7400351D01*
X-15361777Y7409265D01*
X-15418652Y7415375D01*
X-15477345Y7419075D01*
X-15539459Y7420757D01*
X-15574448Y7420964D01*
X-15639721Y7420129D01*
X-15702478Y7417438D01*
X-15765778Y7412595D01*
X-15832679Y7405303D01*
X-15906241Y7395265D01*
X-15989522Y7382183D01*
X-16011437Y7378534D01*
X-16081227Y7367111D01*
X-16143395Y7357740D01*
X-16200524Y7350228D01*
X-16255199Y7344380D01*
X-16310000Y7340000D01*
X-16367513Y7336896D01*
X-16430319Y7334872D01*
X-16501002Y7333735D01*
X-16582145Y7333289D01*
X-16613032Y7333261D01*
X-16690424Y7333401D01*
X-16756471Y7333924D01*
X-16813769Y7334972D01*
X-16864913Y7336686D01*
X-16912496Y7339208D01*
X-16959113Y7342680D01*
X-17007359Y7347243D01*
X-17059829Y7353039D01*
X-17119116Y7360210D01*
X-17128839Y7361423D01*
X-17254815Y7379863D01*
X-17388832Y7404389D01*
X-17526870Y7434093D01*
X-17664910Y7468068D01*
X-17798933Y7505408D01*
X-17885701Y7532251D01*
X-18098843Y7607453D01*
X-18304735Y7692762D01*
X-18502898Y7787816D01*
X-18692851Y7892253D01*
X-18874111Y8005711D01*
X-19046199Y8127829D01*
X-19208634Y8258245D01*
X-19360935Y8396596D01*
X-19502620Y8542522D01*
X-19633210Y8695660D01*
X-19752223Y8855648D01*
X-19853709Y9012961D01*
X-19874780Y9049585D01*
X-19900482Y9096615D01*
X-19929671Y9151768D01*
X-19961204Y9212763D01*
X-19993938Y9277316D01*
X-20026728Y9343144D01*
X-20058433Y9407966D01*
X-20087909Y9469499D01*
X-20114011Y9525459D01*
X-20135598Y9573565D01*
X-20142262Y9589035D01*
X-20194381Y9728334D01*
X-20235995Y9875268D01*
X-20266658Y10027816D01*
X-20285922Y10183957D01*
X-20291058Y10261028D01*
X-20295700Y10357818D01*
X-20281184Y10347486D01*
G36*
X-20281184Y10347486D02*
G01*
X-20271281Y10339925D01*
X-20252552Y10325174D01*
X-20226999Y10304824D01*
X-20196622Y10280469D01*
X-20164620Y10254671D01*
X-20005796Y10129823D01*
X-19840403Y10006474D01*
X-19672305Y9887385D01*
X-19505367Y9775314D01*
X-19394622Y9704612D01*
X-19160256Y9564785D01*
X-18926781Y9438600D01*
X-18693555Y9325841D01*
X-18459936Y9226293D01*
X-18225282Y9139740D01*
X-17988949Y9065968D01*
X-17750297Y9004762D01*
X-17508682Y8955905D01*
X-17263462Y8919185D01*
X-17013995Y8894384D01*
X-16965036Y8890934D01*
X-16917290Y8888492D01*
X-16858355Y8886598D01*
X-16790971Y8885251D01*
X-16717881Y8884450D01*
X-16641824Y8884195D01*
X-16565542Y8884485D01*
X-16491775Y8885320D01*
X-16423265Y8886699D01*
X-16362752Y8888621D01*
X-16313307Y8891066D01*
X-16216368Y8898119D01*
X-16111439Y8907476D01*
X-16004040Y8918569D01*
X-15899692Y8930828D01*
X-15806363Y8943331D01*
X-15714632Y8957156D01*
X-15628169Y8971588D01*
X-15544934Y8987123D01*
X-15462884Y9004257D01*
X-15379977Y9023484D01*
X-15294172Y9045302D01*
X-15203425Y9070205D01*
X-15105696Y9098688D01*
X-14998942Y9131248D01*
X-14887868Y9166228D01*
X-14790138Y9197186D01*
X-14704018Y9224017D01*
X-14627941Y9247150D01*
X-14560342Y9267014D01*
X-14499656Y9284041D01*
X-14444316Y9298660D01*
X-14392757Y9311300D01*
X-14343413Y9322393D01*
X-14294720Y9332368D01*
X-14257050Y9339491D01*
X-14114368Y9360712D01*
X-13977252Y9370763D01*
X-13843878Y9369430D01*
X-13712418Y9356502D01*
X-13581048Y9331766D01*
X-13447941Y9295011D01*
X-13311271Y9246024D01*
X-13255582Y9223120D01*
X-13207831Y9202081D01*
X-13160575Y9179949D01*
X-13116575Y9158116D01*
X-13078592Y9137973D01*
X-13049385Y9120910D01*
X-13038775Y9113855D01*
X-13037520Y9112797D01*
X-13036535Y9111271D01*
X-13035962Y9108875D01*
X-13035944Y9105206D01*
X-13036622Y9099863D01*
X-13038139Y9092445D01*
X-13040639Y9082550D01*
X-13044262Y9069776D01*
X-13049152Y9053720D01*
X-13055450Y9033982D01*
X-13063300Y9010160D01*
X-13072843Y8981852D01*
X-13084223Y8948656D01*
X-13097580Y8910171D01*
X-13113059Y8865994D01*
X-13130801Y8815724D01*
X-13150948Y8758960D01*
X-13173643Y8695299D01*
X-13199029Y8624339D01*
X-13227247Y8545680D01*
X-13258441Y8458919D01*
X-13292752Y8363654D01*
X-13330323Y8259484D01*
X-13371297Y8146007D01*
X-13415815Y8022821D01*
X-13464020Y7889525D01*
X-13516055Y7745717D01*
X-13572061Y7590994D01*
X-13632182Y7424956D01*
X-13696560Y7247200D01*
X-13765336Y7057325D01*
X-13838654Y6854929D01*
X-13873814Y6757873D01*
X-13937069Y6583263D01*
X-13999114Y6411995D01*
X-14059780Y6244534D01*
X-14118898Y6081345D01*
X-14176300Y5922895D01*
X-14231818Y5769648D01*
X-14285282Y5622071D01*
X-14336524Y5480628D01*
X-14385375Y5345787D01*
X-14431666Y5218011D01*
X-14475229Y5097768D01*
X-14515895Y4985522D01*
X-14553495Y4881739D01*
X-14587861Y4786885D01*
X-14618823Y4701426D01*
X-14646214Y4625827D01*
X-14669865Y4560553D01*
X-14689606Y4506070D01*
X-14705270Y4462845D01*
X-14716687Y4431342D01*
X-14723689Y4412027D01*
X-14726103Y4405375D01*
X-14733952Y4402172D01*
X-14753069Y4399747D01*
X-14780804Y4398141D01*
X-14814503Y4397396D01*
X-14851514Y4397552D01*
X-14889185Y4398650D01*
X-14924864Y4400732D01*
X-14940145Y4402058D01*
X-14993888Y4408286D01*
X-15048416Y4416340D01*
X-15102033Y4425801D01*
X-15153040Y4436251D01*
X-15199738Y4447269D01*
X-15240428Y4458439D01*
X-15273412Y4469341D01*
X-15296992Y4479556D01*
X-15309468Y4488666D01*
X-15310911Y4493453D01*
X-15308495Y4500924D01*
X-15301830Y4520957D01*
X-15291135Y4552908D01*
X-15276627Y4596131D01*
X-15258523Y4649982D01*
X-15237041Y4713818D01*
X-15212396Y4786993D01*
X-15184808Y4868863D01*
X-15154492Y4958783D01*
X-15121667Y5056110D01*
X-15086549Y5160197D01*
X-15049356Y5270402D01*
X-15010305Y5386079D01*
X-14969613Y5506585D01*
X-14927497Y5631273D01*
X-14884175Y5759501D01*
X-14880491Y5770403D01*
X-14837091Y5898891D01*
X-14794901Y6023896D01*
X-14754136Y6144771D01*
X-14715012Y6260874D01*
X-14677746Y6371559D01*
X-14642554Y6476183D01*
X-14609651Y6574100D01*
X-14579255Y6664667D01*
X-14551581Y6747238D01*
X-14526845Y6821170D01*
X-14505264Y6885819D01*
X-14487053Y6940539D01*
X-14472428Y6984687D01*
X-14461607Y7017617D01*
X-14454804Y7038686D01*
X-14452236Y7047250D01*
X-14452220Y7047380D01*
X-14457585Y7055122D01*
X-14472100Y7068647D01*
X-14493395Y7085888D01*
X-14513211Y7100601D01*
X-14532128Y7113710D01*
X-14551098Y7125686D01*
X-14571923Y7137377D01*
X-14596403Y7149634D01*
X-14626336Y7163308D01*
X-14663525Y7179248D01*
X-14709768Y7198305D01*
X-14766867Y7221330D01*
X-14779827Y7226517D01*
X-14879876Y7266036D01*
X-14968918Y7300007D01*
X-15048554Y7328820D01*
X-15120389Y7352869D01*
X-15186025Y7372546D01*
X-15247067Y7388242D01*
X-15305116Y7400351D01*
X-15361777Y7409265D01*
X-15418652Y7415375D01*
X-15477345Y7419075D01*
X-15539459Y7420757D01*
X-15574448Y7420964D01*
X-15639721Y7420129D01*
X-15702478Y7417438D01*
X-15765778Y7412595D01*
X-15832679Y7405303D01*
X-15906241Y7395265D01*
X-15989522Y7382183D01*
X-16011437Y7378534D01*
X-16081227Y7367111D01*
X-16143395Y7357740D01*
X-16200524Y7350228D01*
X-16255199Y7344380D01*
X-16310000Y7340000D01*
X-16367513Y7336896D01*
X-16430319Y7334872D01*
X-16501002Y7333735D01*
X-16582145Y7333289D01*
X-16613032Y7333261D01*
X-16690424Y7333401D01*
X-16756471Y7333924D01*
X-16813769Y7334972D01*
X-16864913Y7336686D01*
X-16912496Y7339208D01*
X-16959113Y7342680D01*
X-17007359Y7347243D01*
X-17059829Y7353039D01*
X-17119116Y7360210D01*
X-17128839Y7361423D01*
X-17254815Y7379863D01*
X-17388832Y7404389D01*
X-17526870Y7434093D01*
X-17664910Y7468068D01*
X-17798933Y7505408D01*
X-17885701Y7532251D01*
X-18098843Y7607453D01*
X-18304735Y7692762D01*
X-18502898Y7787816D01*
X-18692851Y7892253D01*
X-18874111Y8005711D01*
X-19046199Y8127829D01*
X-19208634Y8258245D01*
X-19360935Y8396596D01*
X-19502620Y8542522D01*
X-19633210Y8695660D01*
X-19752223Y8855648D01*
X-19853709Y9012961D01*
X-19874780Y9049585D01*
X-19900482Y9096615D01*
X-19929671Y9151768D01*
X-19961204Y9212763D01*
X-19993938Y9277316D01*
X-20026728Y9343144D01*
X-20058433Y9407966D01*
X-20087909Y9469499D01*
X-20114011Y9525459D01*
X-20135598Y9573565D01*
X-20142262Y9589035D01*
X-20194381Y9728334D01*
X-20235995Y9875268D01*
X-20266658Y10027816D01*
X-20285922Y10183957D01*
X-20291058Y10261028D01*
X-20295700Y10357818D01*
X-20281184Y10347486D01*
G37*
%TD*%
D11*
%TO.C,U11*%
X-57525000Y70450000D03*
X-57525000Y69950000D03*
X-57525000Y69450000D03*
X-57525000Y68950000D03*
X-57525000Y68450000D03*
X-57525000Y67950000D03*
D12*
X-56750000Y67175000D03*
X-56250000Y67175000D03*
X-55750000Y67175000D03*
X-55250000Y67175000D03*
X-54750000Y67175000D03*
X-54250000Y67175000D03*
D11*
X-53475000Y67950000D03*
X-53475000Y68450000D03*
X-53475000Y68950000D03*
X-53475000Y69450000D03*
X-53475000Y69950000D03*
X-53475000Y70450000D03*
D12*
X-54250000Y71225000D03*
X-54750000Y71225000D03*
X-55250000Y71225000D03*
X-55750000Y71225000D03*
X-56250000Y71225000D03*
X-56750000Y71225000D03*
D13*
X-55500000Y69200000D03*
%TD*%
D14*
%TO.C,D17*%
X-68500001Y94700000D03*
X-69199999Y94700000D03*
%TD*%
D15*
%TO.C,R39*%
X-44400000Y69150000D03*
X-44400000Y67450000D03*
%TD*%
D16*
%TO.C,H2*%
X-71000000Y111000000D03*
%TD*%
D17*
%TO.C,U24*%
X-41800000Y70300000D03*
X-41800000Y69650000D03*
X-41800000Y69000000D03*
X-39900000Y69000000D03*
X-39900000Y70300000D03*
%TD*%
D18*
%TO.C,U10*%
X-60500001Y49237500D03*
X-60000001Y49237500D03*
X-59500001Y49237500D03*
D19*
X-58737501Y49750000D03*
X-58737501Y50250000D03*
X-58737501Y50750000D03*
X-58737501Y51250000D03*
D18*
X-59500001Y51762500D03*
X-60000001Y51762500D03*
X-60500001Y51762500D03*
D19*
X-61262501Y51250000D03*
X-61262501Y50750000D03*
X-61262501Y50250000D03*
X-61262501Y49750000D03*
D20*
X-60000001Y50500000D03*
%TD*%
D15*
%TO.C,R9*%
X-49900000Y60075000D03*
X-49900000Y58375000D03*
%TD*%
D21*
%TO.C,F1*%
X-60600000Y17750000D03*
X-60600000Y20550000D03*
%TD*%
D22*
%TO.C,L3*%
X-24800000Y31380500D03*
X-24800000Y38619500D03*
%TD*%
D23*
%TO.C,R30*%
X-47250001Y61750000D03*
X-47250001Y60650000D03*
%TD*%
D24*
%TO.C,U6*%
X-61750000Y60500000D03*
X-61750000Y60000000D03*
D25*
X-61750000Y59500000D03*
D24*
X-61750000Y59000000D03*
X-61750000Y58500000D03*
X-60650000Y58500000D03*
X-60650000Y59000000D03*
D25*
X-60650000Y59500000D03*
D24*
X-60650000Y60000000D03*
X-60650000Y60500000D03*
%TD*%
D26*
%TO.C,D9*%
X-32900002Y5425000D03*
X-32900002Y7175000D03*
%TD*%
D27*
%TO.C,C26*%
X-45350000Y30700000D03*
X-46450000Y30700000D03*
%TD*%
D28*
%TO.C,C94*%
X-67300000Y24800000D03*
X-67300000Y30200000D03*
%TD*%
D29*
%TO.C,C43*%
X-17450000Y27050000D03*
X-15750000Y27050000D03*
%TD*%
D30*
%TO.C,D16*%
X-67825000Y69300000D03*
X-69575000Y69300000D03*
%TD*%
D31*
%TO.C,F2*%
X-65100000Y51150000D03*
X-65100000Y48350000D03*
%TD*%
D16*
%TO.C,H1*%
X-4000000Y111000000D03*
%TD*%
D15*
%TO.C,R38*%
X-43100000Y69150000D03*
X-43100000Y67450000D03*
%TD*%
%TO.C,R79*%
X-29500000Y10350000D03*
X-29500000Y8650000D03*
%TD*%
D32*
%TO.C,U16*%
X-14812500Y34750000D03*
X-14812500Y35400000D03*
X-14812500Y36050000D03*
X-16587500Y36050000D03*
X-16587500Y35400000D03*
X-16587500Y34750000D03*
D33*
X-15700000Y35400000D03*
%TD*%
D34*
%TO.C,U3*%
X-5000001Y92700000D03*
X-4000001Y92700001D03*
X-3000001Y92700000D03*
X-2000001Y92700000D03*
X-6000001Y91700000D03*
X-5000001Y91700000D03*
X-4000001Y91700000D03*
X-3000001Y91700000D03*
X-2000001Y91700000D03*
X-6000002Y90700000D03*
X-5000001Y90700000D03*
X-4000001Y90700000D03*
X-3000001Y90700000D03*
X-2000000Y90700000D03*
X-6000001Y89700000D03*
X-5000001Y89700000D03*
X-4000001Y89700000D03*
X-3000001Y89700000D03*
X-2000001Y89700000D03*
X-6000001Y88700000D03*
X-5000001Y88700000D03*
X-4000001Y88699999D03*
X-3000001Y88700000D03*
X-2000001Y88700000D03*
%TD*%
D32*
%TO.C,U17*%
X-14812500Y28350000D03*
X-14812500Y29000000D03*
X-14812500Y29650000D03*
X-16587500Y29650000D03*
X-16587500Y29000000D03*
X-16587500Y28350000D03*
D33*
X-15700000Y29000000D03*
%TD*%
D35*
%TO.C,J2*%
X-72752500Y98200000D03*
D36*
X-72752500Y94700000D03*
D37*
X-72757500Y101692500D03*
%TD*%
D26*
%TO.C,D10*%
X-29500002Y5425000D03*
X-29500002Y7175000D03*
%TD*%
D38*
%TO.C,U23*%
X-25050000Y25680500D03*
X-24550000Y25680500D03*
X-24050000Y25680500D03*
X-23550000Y25680500D03*
X-23550000Y27580500D03*
X-24050000Y27580500D03*
X-24550000Y27580500D03*
X-25050000Y27580500D03*
D39*
X-24300000Y26630500D03*
%TD*%
D15*
%TO.C,R20*%
X-66600000Y79350000D03*
X-66600000Y77650000D03*
%TD*%
D40*
%TO.C,Q7*%
X-59950000Y94775000D03*
X-60600000Y94774999D03*
D41*
X-61090000Y93900000D03*
D40*
X-61250000Y94775000D03*
X-61250000Y93025000D03*
X-60600000Y93025001D03*
X-59950000Y93025000D03*
D41*
X-60110000Y93900000D03*
%TD*%
D30*
%TO.C,D4*%
X-67825000Y40200001D03*
X-69575000Y40200001D03*
%TD*%
%TO.C,D15*%
X-67825000Y67800001D03*
X-69575000Y67800001D03*
%TD*%
D29*
%TO.C,R24*%
X-72850000Y38699999D03*
X-71150000Y38699999D03*
%TD*%
D42*
%TO.C,U5*%
X-55440361Y60500001D03*
X-55440361Y60000001D03*
X-55440361Y59500001D03*
X-55440361Y59000001D03*
X-55440361Y58500001D03*
X-55440361Y58000001D03*
X-55440361Y57500001D03*
X-55440361Y57000001D03*
X-55440361Y56500001D03*
X-55440361Y56000001D03*
D43*
X-54440361Y55500001D03*
X-53940361Y55500001D03*
X-53440361Y55500001D03*
X-52940361Y55500001D03*
D42*
X-51940361Y56000001D03*
X-51940361Y56500001D03*
X-51940361Y57000001D03*
X-51940361Y57500001D03*
X-51940361Y58000001D03*
X-51940361Y58500001D03*
X-51940361Y59000001D03*
X-51940361Y59500001D03*
X-51940361Y60000001D03*
X-51940361Y60500001D03*
D43*
X-52940361Y61000001D03*
X-53440361Y61000001D03*
X-53940361Y61000001D03*
X-54440361Y61000001D03*
D44*
X-53690361Y58250001D03*
%TD*%
D45*
%TO.C,FID5*%
X-4000000Y9200000D03*
%TD*%
D46*
%TO.C,X4*%
X-63700000Y64250000D03*
X-61300000Y64250000D03*
X-61300000Y66150000D03*
X-63700000Y66150000D03*
%TD*%
D29*
%TO.C,R16*%
X-48400000Y14600000D03*
X-46700000Y14600000D03*
%TD*%
D47*
%TO.C,L1*%
X-48300000Y24065001D03*
X-48300000Y20635001D03*
X-39800000Y20635001D03*
X-39800000Y24065001D03*
%TD*%
D48*
%TO.C,J7*%
X-59600000Y111000000D03*
D49*
X-15400000Y111000000D03*
D50*
X-57100000Y113200000D03*
X-57100000Y108800000D03*
X-56300000Y113200000D03*
X-56300000Y108800000D03*
X-55500000Y113200000D03*
X-55500000Y108800000D03*
X-54700000Y113200000D03*
X-54700000Y108800000D03*
X-53900000Y113200000D03*
X-53900000Y108800000D03*
X-53100000Y113200000D03*
X-53100000Y108800000D03*
X-52300000Y113200000D03*
X-52300000Y108800000D03*
X-51500000Y113200000D03*
X-51500000Y108800000D03*
X-50700000Y113200000D03*
X-50700000Y108800000D03*
X-49900000Y113200000D03*
X-49900000Y108800000D03*
X-49100000Y113200000D03*
X-49100000Y108800000D03*
X-48300000Y113200000D03*
X-48300000Y108800000D03*
X-47500000Y113200000D03*
X-47500000Y108800000D03*
X-46700000Y113200000D03*
X-46700000Y108800000D03*
X-45900000Y113200000D03*
X-45900000Y108800000D03*
X-45100000Y113200000D03*
X-45100000Y108800000D03*
X-44300000Y113200000D03*
X-44300000Y108800000D03*
X-43500000Y113200000D03*
X-43500000Y108800000D03*
X-42700000Y113200000D03*
X-42700000Y108800000D03*
X-41900000Y113200000D03*
X-41900000Y108800000D03*
X-41100000Y113200000D03*
X-41100000Y108800000D03*
X-40300000Y113200000D03*
X-40300000Y108800000D03*
X-39500000Y113200000D03*
X-39500000Y108800000D03*
X-38700000Y113200000D03*
X-38700000Y108800000D03*
X-37900000Y113200000D03*
X-37900000Y108800000D03*
X-37100000Y113200000D03*
X-37100000Y108800000D03*
X-36300000Y113200000D03*
X-36300000Y108800000D03*
X-35500000Y113200000D03*
X-35500000Y108800000D03*
X-34700000Y113200000D03*
X-34700000Y108800000D03*
X-33900000Y113200000D03*
X-33900000Y108800000D03*
X-33100000Y113200000D03*
X-33100000Y108800000D03*
X-32300000Y113200000D03*
X-32300000Y108800000D03*
X-31500000Y113200000D03*
X-31500000Y108800000D03*
X-30700000Y113200000D03*
X-30700000Y108800000D03*
X-29900000Y113200000D03*
X-29900000Y108800000D03*
X-29100000Y113200000D03*
X-29100000Y108800000D03*
X-28300000Y113200000D03*
X-28300000Y108800000D03*
X-27500000Y113200000D03*
X-27500000Y108800000D03*
X-26700000Y113200000D03*
X-26700000Y108800000D03*
X-25900000Y113200000D03*
X-25900000Y108800000D03*
X-25100000Y113200000D03*
X-25100000Y108800000D03*
X-24300000Y113200000D03*
X-24300000Y108800000D03*
X-23500000Y113200000D03*
X-23500000Y108800000D03*
X-22700000Y113200000D03*
X-22700000Y108800000D03*
X-21900000Y113200000D03*
X-21900000Y108800000D03*
X-21100000Y113200000D03*
X-21100000Y108800000D03*
X-20300000Y113200000D03*
X-20300000Y108800000D03*
X-19500000Y113200000D03*
X-19500000Y108800000D03*
X-18700000Y113200000D03*
X-18700000Y108800000D03*
X-17900000Y113200000D03*
X-17900000Y108800000D03*
%TD*%
D29*
%TO.C,R74*%
X-48750000Y73400000D03*
X-47050000Y73400000D03*
%TD*%
%TO.C,R27*%
X-72850000Y43200000D03*
X-71150000Y43200000D03*
%TD*%
D15*
%TO.C,R4*%
X-49600000Y37950000D03*
X-49600000Y36250000D03*
%TD*%
%TO.C,C48*%
X-44400000Y43550000D03*
X-44400000Y41850000D03*
%TD*%
%TO.C,C87*%
X-13700001Y41600000D03*
X-13700001Y39900000D03*
%TD*%
D51*
%TO.C,C28*%
X-35050000Y20300001D03*
X-35050000Y24400001D03*
%TD*%
D52*
%TO.C,Q1*%
X-39302750Y14255000D03*
X-39302750Y10445000D03*
X-39302750Y11715000D03*
X-39302750Y12985000D03*
D53*
X-42795000Y12350000D03*
%TD*%
D54*
%TO.C,R8*%
X-67000000Y48900000D03*
X-67000000Y50600000D03*
%TD*%
D55*
%TO.C,D1*%
X-34550000Y30539999D03*
D56*
X-33510000Y26734999D03*
X-35590000Y26734999D03*
%TD*%
D15*
%TO.C,R71*%
X-63200000Y78750000D03*
X-63200000Y77050000D03*
%TD*%
D57*
%TO.C,C44*%
X-16850000Y30750000D03*
X-15750000Y30750000D03*
%TD*%
D58*
%TO.C,J3*%
X-69100000Y61975001D03*
D59*
X-69100000Y54525001D03*
D60*
X-67100000Y61000001D03*
X-67100000Y60500001D03*
X-67100000Y60000001D03*
X-67100000Y59500001D03*
X-67100000Y59000001D03*
X-67100000Y58500001D03*
X-67100000Y58000001D03*
X-67100000Y57500001D03*
X-67100000Y57000001D03*
X-67100000Y56500001D03*
X-67100000Y56000001D03*
X-67100000Y55500001D03*
D61*
X-68400000Y55200001D03*
D62*
X-69100000Y55850001D03*
X-69100000Y56650001D03*
X-68400000Y57050001D03*
X-69100000Y57450001D03*
X-68400000Y57850001D03*
X-68400000Y58650001D03*
X-69100000Y59050001D03*
X-68400000Y59450001D03*
X-69100000Y59850001D03*
X-69100000Y60650001D03*
D61*
X-68400000Y61300001D03*
D63*
X-73100000Y64250001D03*
D64*
X-67600000Y62750001D03*
X-67600000Y53750001D03*
D63*
X-73100000Y52250001D03*
%TD*%
D65*
%TO.C,X1*%
X-55300000Y79400001D03*
X-55299999Y78200000D03*
X-55300000Y76999999D03*
X-53700000Y76999999D03*
X-53700001Y78200000D03*
X-53700000Y79400001D03*
%TD*%
D66*
%TO.C,R15*%
X-42350000Y30550000D03*
X-44050000Y30550000D03*
%TD*%
D67*
%TO.C,SW2*%
X-70700000Y46200000D03*
D68*
X-72600000Y46200000D03*
X-68800000Y46200000D03*
%TD*%
D26*
%TO.C,D8*%
X-34600003Y5424997D03*
X-34600003Y7174997D03*
%TD*%
D34*
%TO.C,U15*%
X-5000001Y83700000D03*
X-4000001Y83700001D03*
X-3000001Y83700000D03*
X-2000001Y83700000D03*
X-6000001Y82700000D03*
X-5000001Y82700000D03*
X-4000001Y82700000D03*
X-3000001Y82700000D03*
X-2000001Y82700000D03*
X-6000002Y81700000D03*
X-5000001Y81700000D03*
X-4000001Y81700000D03*
X-3000001Y81700000D03*
X-2000000Y81700000D03*
X-6000001Y80700000D03*
X-5000001Y80700000D03*
X-4000001Y80700000D03*
X-3000001Y80700000D03*
X-2000001Y80700000D03*
X-6000001Y79700000D03*
X-5000001Y79700000D03*
X-4000001Y79699999D03*
X-3000001Y79700000D03*
X-2000001Y79700000D03*
%TD*%
D69*
%TO.C,FB2*%
X-40900001Y43549999D03*
X-42900001Y43549999D03*
%TD*%
D70*
%TO.C,J4*%
X-73035000Y77540000D03*
X-68965000Y77540000D03*
X-73035000Y76270000D03*
X-68965000Y76270000D03*
X-73035000Y75000000D03*
X-68965000Y75000000D03*
X-73035000Y73730000D03*
X-68965000Y73730000D03*
X-73035000Y72460000D03*
X-68965000Y72460000D03*
%TD*%
D24*
%TO.C,U8*%
X-58690361Y58000000D03*
X-58690361Y57500000D03*
D25*
X-58690361Y57000000D03*
D24*
X-58690361Y56500000D03*
X-58690361Y56000000D03*
X-57590361Y56000000D03*
X-57590361Y56500000D03*
D25*
X-57590361Y57000000D03*
D24*
X-57590361Y57500000D03*
X-57590361Y58000000D03*
%TD*%
D71*
%TO.C,R13*%
X-52400000Y77050000D03*
X-52400000Y78150000D03*
%TD*%
D15*
%TO.C,C89*%
X-39400000Y43550000D03*
X-39400000Y41850000D03*
%TD*%
D72*
%TO.C,C29*%
X-40550000Y30349999D03*
X-38550000Y30349999D03*
%TD*%
D29*
%TO.C,R23*%
X-72850000Y37200000D03*
X-71150000Y37200000D03*
%TD*%
%TO.C,R7*%
X-72850000Y67800001D03*
X-71150000Y67800001D03*
%TD*%
D15*
%TO.C,R22*%
X-56000000Y53400000D03*
X-56000000Y51700000D03*
%TD*%
D26*
%TO.C,D11*%
X-31200000Y5425000D03*
X-31200000Y7175000D03*
%TD*%
D15*
%TO.C,R54*%
X-67000000Y47050000D03*
X-67000000Y45350000D03*
%TD*%
%TO.C,C42*%
X-13700000Y35000000D03*
X-13700000Y33300000D03*
%TD*%
D29*
%TO.C,R18*%
X-46800000Y35900000D03*
X-45100000Y35900000D03*
%TD*%
D45*
%TO.C,FID6*%
X-73000000Y9000000D03*
%TD*%
D54*
%TO.C,R19*%
X-66600000Y74550000D03*
X-66600000Y76250000D03*
%TD*%
D66*
%TO.C,R57*%
X-21949998Y28930500D03*
X-23649998Y28930500D03*
%TD*%
D15*
%TO.C,R80*%
X-27800000Y10350000D03*
X-27800000Y8650000D03*
%TD*%
D27*
%TO.C,C38*%
X-44150000Y31700000D03*
X-45250000Y31700000D03*
%TD*%
D15*
%TO.C,C45*%
X-13700000Y28600000D03*
X-13700000Y26900000D03*
%TD*%
D73*
%TO.C,JP1*%
X-56675000Y32200000D03*
D74*
X-55225000Y32200000D03*
%TD*%
D29*
%TO.C,C40*%
X-17450000Y33450000D03*
X-15750000Y33450000D03*
%TD*%
D75*
%TO.C,R11*%
X-30211091Y67111091D03*
X-30988909Y67888909D03*
%TD*%
D76*
%TO.C,U4*%
X-38000000Y2250000D03*
D77*
X-38000000Y3950000D03*
X-40000000Y3950000D03*
X-40000000Y2050000D03*
%TD*%
D54*
%TO.C,R60*%
X-59500000Y87650000D03*
X-59500000Y89350000D03*
%TD*%
%TO.C,C8*%
X-68350000Y48900000D03*
X-68350000Y50600000D03*
%TD*%
D78*
%TO.C,C101*%
X-19198959Y28401041D03*
X-20401041Y27198959D03*
%TD*%
D66*
%TO.C,C99*%
X-59750000Y101700000D03*
X-61450000Y101700000D03*
%TD*%
D57*
%TO.C,C86*%
X-16850000Y43750000D03*
X-15750000Y43750000D03*
%TD*%
D30*
%TO.C,D2*%
X-67825000Y37200000D03*
X-69575000Y37200000D03*
%TD*%
D79*
%TO.C,C10*%
X-32581802Y70403984D03*
X-31803984Y71181802D03*
%TD*%
%TO.C,C9*%
X-33288909Y71111091D03*
X-32511091Y71888909D03*
%TD*%
D54*
%TO.C,C47*%
X-38600000Y70350000D03*
X-38600000Y72050000D03*
%TD*%
D16*
%TO.C,H4*%
X-4000000Y4000000D03*
%TD*%
D15*
%TO.C,R34*%
X-32900000Y10350000D03*
X-32900000Y8650000D03*
%TD*%
D80*
%TO.C,SW1*%
X-42100000Y3400000D03*
X-45100000Y3400000D03*
X-43600000Y1550000D03*
%TD*%
D29*
%TO.C,R25*%
X-72850000Y40200001D03*
X-71150000Y40200001D03*
%TD*%
%TO.C,C39*%
X-17450000Y40050000D03*
X-15750000Y40050000D03*
%TD*%
D81*
%TO.C,U21*%
X-32400000Y42250000D03*
X-32400000Y42900000D03*
X-32400000Y43550000D03*
X-34455000Y43550000D03*
X-34455000Y42900000D03*
X-34455000Y42250000D03*
D82*
X-33427500Y42900000D03*
%TD*%
D54*
%TO.C,R45*%
X-57300000Y48050000D03*
X-57300000Y49750000D03*
%TD*%
D30*
%TO.C,D6*%
X-67825000Y43200000D03*
X-69575000Y43200000D03*
%TD*%
D26*
%TO.C,D12*%
X-27800000Y5425000D03*
X-27800000Y7175000D03*
%TD*%
D83*
%TO.C,U13*%
X-49150000Y32100000D03*
X-48650000Y32100000D03*
X-48150000Y32100000D03*
X-47650000Y32100000D03*
X-47150000Y32100000D03*
X-46650000Y32100000D03*
X-46650000Y34200000D03*
X-47150000Y34200000D03*
X-47650000Y34200000D03*
X-48150000Y34200000D03*
X-48650000Y34200000D03*
X-49150000Y34200000D03*
D84*
X-47900000Y33150000D03*
%TD*%
D15*
%TO.C,C25*%
X-48300000Y37950000D03*
X-48300000Y36250000D03*
%TD*%
D34*
%TO.C,U2*%
X-12000000Y92700000D03*
X-11000000Y92700001D03*
X-10000000Y92700000D03*
X-9000000Y92700000D03*
X-13000000Y91700000D03*
X-12000000Y91700000D03*
X-11000000Y91700000D03*
X-10000000Y91700000D03*
X-9000000Y91700000D03*
X-13000001Y90700000D03*
X-12000000Y90700000D03*
X-11000000Y90700000D03*
X-10000000Y90700000D03*
X-8999999Y90700000D03*
X-13000000Y89700000D03*
X-12000000Y89700000D03*
X-11000000Y89700000D03*
X-10000000Y89700000D03*
X-9000000Y89700000D03*
X-13000000Y88700000D03*
X-12000000Y88700000D03*
X-11000000Y88699999D03*
X-10000000Y88700000D03*
X-9000000Y88700000D03*
%TD*%
D54*
%TO.C,R44*%
X-56000000Y48600000D03*
X-56000000Y50300000D03*
%TD*%
D85*
%TO.C,U9*%
X-48437500Y58437501D03*
X-48437500Y57937501D03*
X-48437500Y57437501D03*
X-48437500Y56937501D03*
X-48437500Y56437501D03*
X-48437500Y55937501D03*
D86*
X-47750000Y55250001D03*
X-47250000Y55250001D03*
X-46750000Y55250001D03*
X-46250000Y55250001D03*
X-45750000Y55250001D03*
X-45250000Y55250001D03*
D85*
X-44562500Y55937501D03*
X-44562500Y56437501D03*
X-44562500Y56937501D03*
X-44562500Y57437501D03*
X-44562500Y57937501D03*
X-44562500Y58437501D03*
D86*
X-45250000Y59125001D03*
X-45750000Y59125001D03*
X-46250000Y59125001D03*
X-46750000Y59125001D03*
X-47250000Y59125001D03*
X-47750000Y59125001D03*
D87*
X-46500000Y57187501D03*
%TD*%
D30*
%TO.C,D5*%
X-67825000Y41700000D03*
X-69575000Y41700000D03*
%TD*%
D54*
%TO.C,C21*%
X-52000000Y71950000D03*
X-52000000Y73650000D03*
%TD*%
D66*
%TO.C,L2*%
X-36050000Y43600000D03*
X-37750000Y43600000D03*
%TD*%
D34*
%TO.C,U14*%
X-12000000Y83700000D03*
X-11000000Y83700001D03*
X-10000000Y83700000D03*
X-9000000Y83700000D03*
X-13000000Y82700000D03*
X-12000000Y82700000D03*
X-11000000Y82700000D03*
X-10000000Y82700000D03*
X-9000000Y82700000D03*
X-13000001Y81700000D03*
X-12000000Y81700000D03*
X-11000000Y81700000D03*
X-10000000Y81700000D03*
X-8999999Y81700000D03*
X-13000000Y80700000D03*
X-12000000Y80700000D03*
X-11000000Y80700000D03*
X-10000000Y80700000D03*
X-9000000Y80700000D03*
X-13000000Y79700000D03*
X-12000000Y79700000D03*
X-11000000Y79699999D03*
X-10000000Y79700000D03*
X-9000000Y79700000D03*
%TD*%
D29*
%TO.C,R33*%
X-38050000Y41500001D03*
X-36350000Y41500001D03*
%TD*%
%TO.C,C30*%
X-40400000Y34100000D03*
X-38700000Y34100000D03*
%TD*%
D26*
%TO.C,D7*%
X-26100000Y5425001D03*
X-26100000Y7175001D03*
%TD*%
D66*
%TO.C,R59*%
X-60050000Y104300000D03*
X-61750000Y104300000D03*
%TD*%
D70*
%TO.C,J8*%
X-73035000Y86540000D03*
X-68965000Y86540000D03*
X-73035000Y85270000D03*
X-68965000Y85270000D03*
X-73035000Y84000000D03*
X-68965000Y84000000D03*
X-73035000Y82730000D03*
X-68965000Y82730000D03*
X-73035000Y81460000D03*
X-68965000Y81460000D03*
%TD*%
D16*
%TO.C,H3*%
X-71000000Y4000000D03*
%TD*%
D88*
%TO.C,C33*%
X-54650000Y21300000D03*
X-54650000Y23300000D03*
%TD*%
D34*
%TO.C,U1*%
X-44300000Y89800000D03*
X-43500000Y89800000D03*
X-42700000Y89800000D03*
X-41900000Y89800000D03*
X-41100000Y89800000D03*
X-40300000Y89800000D03*
X-39500000Y89800000D03*
X-38700000Y89800000D03*
X-37900000Y89800000D03*
X-37100000Y89800000D03*
X-36300000Y89800000D03*
X-35500000Y89800000D03*
X-34700000Y89800000D03*
X-33900000Y89800000D03*
X-33100000Y89800000D03*
X-32300000Y89800000D03*
X-31500000Y89800000D03*
X-30700000Y89800000D03*
X-45100000Y89000000D03*
X-44300000Y89000000D03*
X-43500000Y89000000D03*
X-42700000Y89000000D03*
X-41900000Y89000000D03*
X-41100000Y89000000D03*
X-40300000Y89000000D03*
X-39500000Y89000000D03*
X-38700000Y89000000D03*
X-37900000Y89000000D03*
X-37100000Y89000000D03*
X-36300000Y89000000D03*
X-35500000Y89000000D03*
X-34700000Y89000000D03*
X-33900000Y89000000D03*
X-33100000Y89000000D03*
X-32300000Y89000000D03*
X-31500000Y89000000D03*
X-30700000Y89000000D03*
X-29900000Y89000000D03*
X-45100000Y88200000D03*
X-44300000Y88200000D03*
X-43500000Y88200000D03*
X-42700000Y88200000D03*
X-41900000Y88200000D03*
X-41100000Y88200000D03*
X-40300000Y88200000D03*
X-39500000Y88200000D03*
X-38700000Y88200000D03*
X-37900000Y88200000D03*
X-37100000Y88200000D03*
X-36300000Y88200000D03*
X-35500000Y88200000D03*
X-34700000Y88200000D03*
X-33900000Y88200000D03*
X-33100000Y88200000D03*
X-32300000Y88200000D03*
X-31500000Y88200000D03*
X-30700000Y88200000D03*
X-29900000Y88200000D03*
X-45100000Y87400000D03*
X-44300000Y87400000D03*
X-43500000Y87400000D03*
X-42700000Y87400000D03*
X-41900000Y87400000D03*
X-41100000Y87400000D03*
X-40300000Y87400000D03*
X-39500000Y87400000D03*
X-38700000Y87400000D03*
X-37900000Y87400000D03*
X-37100000Y87400000D03*
X-36300000Y87400000D03*
X-35500000Y87400000D03*
X-34700000Y87400000D03*
X-33900000Y87400000D03*
X-33100000Y87400000D03*
X-32300000Y87400000D03*
X-31500000Y87400000D03*
X-30700000Y87400000D03*
X-29900000Y87400000D03*
X-45100000Y86600000D03*
X-44300000Y86600000D03*
X-43500000Y86600000D03*
X-42700000Y86600000D03*
X-41900000Y86600000D03*
X-41100000Y86600000D03*
X-40300000Y86600000D03*
X-39500000Y86600000D03*
X-38700000Y86600000D03*
X-37900000Y86600000D03*
X-37100000Y86600000D03*
X-36300000Y86600000D03*
X-35500000Y86600000D03*
X-34700000Y86600000D03*
X-33900000Y86600000D03*
X-33100000Y86600000D03*
X-32300000Y86600000D03*
X-31500000Y86600000D03*
X-30700000Y86600000D03*
X-29900000Y86600000D03*
X-45100000Y85800000D03*
X-44300000Y85800000D03*
X-43500000Y85800000D03*
X-42700000Y85800000D03*
X-41900000Y85800000D03*
X-41100000Y85800000D03*
X-40300000Y85800000D03*
X-39500000Y85800000D03*
X-38700000Y85800000D03*
X-37900000Y85800000D03*
X-37100000Y85800000D03*
X-36300000Y85800000D03*
X-35500000Y85800000D03*
X-34700000Y85800000D03*
X-33900000Y85800000D03*
X-33100000Y85800000D03*
X-32300000Y85800000D03*
X-31500000Y85800000D03*
X-30700000Y85800000D03*
X-29900000Y85800000D03*
X-45100000Y85000000D03*
X-44300000Y85000000D03*
X-43500000Y85000000D03*
X-42700000Y85000000D03*
X-41900000Y85000000D03*
X-41100000Y85000000D03*
X-40300000Y85000000D03*
X-39500000Y85000000D03*
X-38700000Y85000000D03*
X-37900000Y85000000D03*
X-37100000Y85000000D03*
X-36300000Y85000000D03*
X-35500000Y85000000D03*
X-34700000Y85000000D03*
X-33900000Y85000000D03*
X-33100000Y85000000D03*
X-32300000Y85000000D03*
X-31500000Y85000000D03*
X-30700000Y85000000D03*
X-29900000Y85000000D03*
X-45100000Y84200000D03*
X-44300000Y84200000D03*
X-43500000Y84200000D03*
X-42700000Y84200000D03*
X-41900000Y84200000D03*
X-41100000Y84200000D03*
X-40300000Y84200000D03*
X-39500000Y84200000D03*
X-38700000Y84200000D03*
X-37900000Y84200000D03*
X-37100000Y84200000D03*
X-36300000Y84200000D03*
X-35500000Y84200000D03*
X-34700000Y84200000D03*
X-33900000Y84200000D03*
X-33100000Y84200000D03*
X-32300000Y84200000D03*
X-31500000Y84200000D03*
X-30700000Y84200000D03*
X-29900000Y84200000D03*
X-45100000Y83400000D03*
X-44300000Y83400000D03*
X-43500000Y83400000D03*
X-42700000Y83400000D03*
X-41900000Y83400000D03*
X-41100000Y83400000D03*
X-40300000Y83400000D03*
X-39500000Y83400000D03*
X-38700000Y83400000D03*
X-37900000Y83400000D03*
X-37100000Y83400000D03*
X-36300000Y83400000D03*
X-35500000Y83400000D03*
X-34700000Y83400000D03*
X-33900000Y83400000D03*
X-33100000Y83400000D03*
X-32300000Y83400000D03*
X-31500000Y83400000D03*
X-30700000Y83400000D03*
X-29900000Y83400000D03*
X-45100000Y82600000D03*
X-44300000Y82600000D03*
X-43500000Y82600000D03*
X-42700000Y82600000D03*
X-41900000Y82600000D03*
X-41100000Y82600000D03*
X-40300000Y82600000D03*
X-39500000Y82600000D03*
X-38700000Y82600000D03*
X-37900000Y82600000D03*
X-37100000Y82600000D03*
X-36300000Y82600000D03*
X-35500000Y82600000D03*
X-34700000Y82600000D03*
X-33900000Y82600000D03*
X-33100000Y82600000D03*
X-32300000Y82600000D03*
X-31500000Y82600000D03*
X-30700000Y82600000D03*
X-29900000Y82600000D03*
X-45100000Y81800000D03*
X-44300000Y81800000D03*
X-43500000Y81800000D03*
X-42700000Y81800000D03*
X-41900000Y81800000D03*
X-41100000Y81800000D03*
X-40300000Y81800000D03*
X-39500000Y81800000D03*
X-38700000Y81800000D03*
X-37900000Y81800000D03*
X-37100000Y81800000D03*
X-36300000Y81800000D03*
X-35500000Y81800000D03*
X-34700000Y81800000D03*
X-33900000Y81800000D03*
X-33100000Y81800000D03*
X-32300000Y81800000D03*
X-31500000Y81800000D03*
X-30700000Y81800000D03*
X-29900000Y81800000D03*
X-45100000Y81000000D03*
X-44300000Y81000000D03*
X-43500000Y81000000D03*
X-42700000Y81000000D03*
X-41900000Y81000000D03*
X-41100000Y81000000D03*
X-40300000Y81000000D03*
X-39500000Y81000000D03*
X-38700000Y81000000D03*
X-37900000Y81000000D03*
X-37100000Y81000000D03*
X-36300000Y81000000D03*
X-35500000Y81000000D03*
X-34700000Y81000000D03*
X-33900000Y81000000D03*
X-33100000Y81000000D03*
X-32300000Y81000000D03*
X-31500000Y81000000D03*
X-30700000Y81000000D03*
X-29900000Y81000000D03*
X-45100000Y80200000D03*
X-44300000Y80200000D03*
X-43500000Y80200000D03*
X-42700000Y80200000D03*
X-41900000Y80200000D03*
X-41100000Y80200000D03*
X-40300000Y80200000D03*
X-39500000Y80200000D03*
X-38700000Y80200000D03*
X-37900000Y80200000D03*
X-37100000Y80200000D03*
X-36300000Y80200000D03*
X-35500000Y80200000D03*
X-34700000Y80200000D03*
X-33900000Y80200000D03*
X-33100000Y80200000D03*
X-32300000Y80200000D03*
X-31500000Y80200000D03*
X-30700000Y80200000D03*
X-29900000Y80200000D03*
X-45100000Y79400000D03*
X-44300000Y79400000D03*
X-43500000Y79400000D03*
X-42700000Y79400000D03*
X-41900000Y79400000D03*
X-41100000Y79400000D03*
X-40300000Y79400000D03*
X-39500000Y79400000D03*
X-38700000Y79400000D03*
X-37900000Y79400000D03*
X-37100000Y79400000D03*
X-36300000Y79400000D03*
X-35500000Y79400000D03*
X-34700000Y79400000D03*
X-33900000Y79400000D03*
X-33100000Y79400000D03*
X-32300000Y79400000D03*
X-31500000Y79400000D03*
X-30700000Y79400000D03*
X-29900000Y79400000D03*
X-45100000Y78600000D03*
X-44300000Y78600000D03*
X-43500000Y78600000D03*
X-42700000Y78600000D03*
X-41900000Y78600000D03*
X-33100000Y78600000D03*
X-32300000Y78600000D03*
X-31500000Y78600000D03*
X-30700000Y78600000D03*
X-29900000Y78600000D03*
X-45100000Y77800000D03*
X-44300000Y77800000D03*
X-43500000Y77800000D03*
X-42700000Y77800000D03*
X-41900000Y77800000D03*
X-41100000Y77800000D03*
X-40300000Y77800000D03*
X-39500000Y77800000D03*
X-38700000Y77800000D03*
X-37900000Y77800000D03*
X-37100000Y77800000D03*
X-36300000Y77800000D03*
X-35500000Y77800000D03*
X-34700000Y77800000D03*
X-33900000Y77800000D03*
X-33100000Y77800000D03*
X-32300000Y77800000D03*
X-31500000Y77800000D03*
X-30700000Y77800000D03*
X-29900000Y77800000D03*
X-45100000Y77000000D03*
X-44300000Y77000000D03*
X-43500000Y77000000D03*
X-42700000Y77000000D03*
X-41900000Y77000000D03*
X-41100000Y77000000D03*
X-40300000Y77000000D03*
X-39500000Y77000000D03*
X-38700000Y77000000D03*
X-37900000Y77000000D03*
X-37100000Y77000000D03*
X-36300000Y77000000D03*
X-35500000Y77000000D03*
X-34700000Y77000000D03*
X-33900000Y77000000D03*
X-33100000Y77000000D03*
X-32300000Y77000000D03*
X-31500000Y77000000D03*
X-30700000Y77000000D03*
X-29900000Y77000000D03*
X-45100000Y76200000D03*
X-44300000Y76200000D03*
X-43500000Y76200000D03*
X-42700000Y76200000D03*
X-41900000Y76200000D03*
X-41100000Y76200000D03*
X-40300000Y76200000D03*
X-39500000Y76200000D03*
X-38700000Y76200000D03*
X-37900000Y76200000D03*
X-37100000Y76200000D03*
X-36300000Y76200000D03*
X-35500000Y76200000D03*
X-34700000Y76200000D03*
X-33900000Y76200000D03*
X-33100000Y76200000D03*
X-32300000Y76200000D03*
X-31500000Y76200000D03*
X-30700000Y76200000D03*
X-29900000Y76200000D03*
X-45100000Y75400000D03*
X-44300000Y75400000D03*
X-43500000Y75400000D03*
X-42700000Y75400000D03*
X-41900000Y75400000D03*
X-41100000Y75400000D03*
X-40300000Y75400000D03*
X-39500000Y75400000D03*
X-38700000Y75400000D03*
X-37900000Y75400000D03*
X-37100000Y75400000D03*
X-36300000Y75400000D03*
X-35500000Y75400000D03*
X-34700000Y75400000D03*
X-33900000Y75400000D03*
X-33100000Y75400000D03*
X-32300000Y75400000D03*
X-31500000Y75400000D03*
X-30700000Y75400000D03*
X-29900000Y75400000D03*
X-44300000Y74600000D03*
X-43500000Y74600000D03*
X-41900000Y74600000D03*
X-41100000Y74600000D03*
X-40300000Y74600000D03*
X-39500000Y74600000D03*
X-37100000Y74600000D03*
X-36300000Y74600000D03*
X-34700000Y74600000D03*
X-33900000Y74600000D03*
X-33100000Y74600000D03*
X-32300000Y74600000D03*
X-30700000Y74600000D03*
%TD*%
D89*
%TO.C,J1*%
X-68500000Y98225000D03*
D90*
X-68500000Y100765000D03*
%TD*%
D66*
%TO.C,C98*%
X-59750000Y103000000D03*
X-61450000Y103000000D03*
%TD*%
D29*
%TO.C,R21*%
X-72850000Y69300000D03*
X-71150000Y69300000D03*
%TD*%
D15*
%TO.C,C23*%
X-63100000Y82950000D03*
X-63100000Y81250000D03*
%TD*%
D30*
%TO.C,D3*%
X-67825000Y38699999D03*
X-69575000Y38699999D03*
%TD*%
D15*
%TO.C,R78*%
X-31200000Y10350000D03*
X-31200000Y8650000D03*
%TD*%
D32*
%TO.C,U20*%
X-14812500Y41350000D03*
X-14812500Y42000000D03*
X-14812500Y42650000D03*
X-16587500Y42650000D03*
X-16587500Y42000000D03*
X-16587500Y41350000D03*
D33*
X-15700000Y42000000D03*
%TD*%
D72*
%TO.C,C32*%
X-40550000Y32350000D03*
X-38550000Y32350000D03*
%TD*%
D91*
%TO.C,J5*%
X-63900000Y16000000D03*
D92*
X-70200000Y16000000D03*
D93*
X-66800000Y11200000D03*
%TD*%
D15*
%TO.C,R31*%
X-26100002Y10350000D03*
X-26100002Y8650000D03*
%TD*%
D45*
%TO.C,FID4*%
X-72800000Y90800000D03*
%TD*%
D71*
%TO.C,C31*%
X-51550000Y21750000D03*
X-51550000Y22850000D03*
%TD*%
D94*
%TO.C,Q10*%
X-55450000Y25630000D03*
X-55450000Y26900000D03*
X-55450000Y28170000D03*
X-55450000Y29440000D03*
D95*
X-58165000Y29807500D03*
D96*
X-59245000Y28650000D03*
D97*
X-61035000Y29750000D03*
D95*
X-58165000Y25262500D03*
D96*
X-59245000Y26420000D03*
D97*
X-61035000Y25320000D03*
%TD*%
D29*
%TO.C,C90*%
X-38050000Y40200000D03*
X-36350000Y40200000D03*
%TD*%
D15*
%TO.C,R12*%
X-50700000Y73650000D03*
X-50700000Y71950000D03*
%TD*%
D54*
%TO.C,R55*%
X-22150000Y25730499D03*
X-22150000Y27430499D03*
%TD*%
D57*
%TO.C,R29*%
X-58050000Y65900000D03*
X-56950000Y65900000D03*
%TD*%
D98*
%TO.C,U12*%
X-61505000Y77000000D03*
X-60235000Y77000000D03*
X-58965000Y77000000D03*
X-57695000Y77000000D03*
X-57695000Y83000000D03*
X-58965000Y83000000D03*
X-60235000Y83000000D03*
X-61505000Y83000000D03*
D99*
X-59600000Y80000000D03*
%TD*%
D15*
%TO.C,R42*%
X-34600003Y10350000D03*
X-34600003Y8650000D03*
%TD*%
D100*
%TO.C,X3*%
X-33449049Y66765165D03*
X-32741942Y66058058D03*
X-32034835Y65350951D03*
X-31150951Y66234835D03*
X-31858058Y66941942D03*
X-32565165Y67649049D03*
%TD*%
D29*
%TO.C,R26*%
X-72850000Y41700000D03*
X-71150000Y41700000D03*
%TD*%
D15*
%TO.C,R5*%
X-49400000Y72000000D03*
X-49400000Y70300000D03*
%TD*%
D71*
%TO.C,R2*%
X-50200000Y32449999D03*
X-50200000Y33549999D03*
%TD*%
D57*
%TO.C,C41*%
X-16850000Y37150000D03*
X-15750000Y37150000D03*
%TD*%
D88*
%TO.C,C27*%
X-52900000Y21300000D03*
X-52900000Y23300000D03*
%TD*%
G36*
X-58195264Y1899058D02*
G01*
X-58133025Y1886678D01*
X-58115361Y1879362D01*
X-58066683Y1846837D01*
X-58053164Y1833318D01*
X-58020639Y1784640D01*
X-58013323Y1766977D01*
X-58000942Y1704737D01*
X-58000000Y1695177D01*
X-58000000Y204824D01*
X-58000942Y195264D01*
X-58013323Y133024D01*
X-58020639Y115361D01*
X-58053164Y66683D01*
X-58066683Y53164D01*
X-58115361Y20639D01*
X-58133024Y13323D01*
X-58195263Y942D01*
X-58204823Y0D01*
X-66295177Y0D01*
X-66304737Y942D01*
X-66366977Y13323D01*
X-66384640Y20639D01*
X-66433318Y53164D01*
X-66446837Y66683D01*
X-66479362Y115361D01*
X-66486679Y133025D01*
X-66499059Y195265D01*
X-66500000Y204824D01*
X-66500000Y1695177D01*
X-66499059Y1704736D01*
X-66486679Y1766976D01*
X-66479362Y1784640D01*
X-66446837Y1833318D01*
X-66433318Y1846837D01*
X-66384640Y1879362D01*
X-66366976Y1886679D01*
X-66304736Y1899059D01*
X-66295177Y1900000D01*
X-58204823Y1900000D01*
X-58195264Y1899058D01*
G37*
M02*
