%TF.GenerationSoftware,KiCad,Pcbnew,8.0.3*%
%TF.CreationDate,2024-06-14T08:49:56-07:00*%
%TF.ProjectId,squishy-main,73717569-7368-4792-9d6d-61696e2e6b69,2*%
%TF.SameCoordinates,PXb3c4820PY930e7c0*%
%TF.FileFunction,Paste,Bot*%
%TF.FilePolarity,Positive*%
%FSLAX46Y46*%
G04 Gerber Fmt 4.6, Leading zero omitted, Abs format (unit mm)*
G04 Created by KiCad (PCBNEW 8.0.3) date 2024-06-14 08:49:56*
%MOMM*%
%LPD*%
G01*
G04 APERTURE LIST*
G04 Aperture macros list*
%AMRoundRect*
0 Rectangle with rounded corners*
0 $1 Rounding radius*
0 $2 $3 $4 $5 $6 $7 $8 $9 X,Y pos of 4 corners*
0 Add a 4 corners polygon primitive as box body*
4,1,4,$2,$3,$4,$5,$6,$7,$8,$9,$2,$3,0*
0 Add four circle primitives for the rounded corners*
1,1,$1+$1,$2,$3*
1,1,$1+$1,$4,$5*
1,1,$1+$1,$6,$7*
1,1,$1+$1,$8,$9*
0 Add four rect primitives between the rounded corners*
20,1,$1+$1,$2,$3,$4,$5,0*
20,1,$1+$1,$4,$5,$6,$7,0*
20,1,$1+$1,$6,$7,$8,$9,0*
20,1,$1+$1,$8,$9,$2,$3,0*%
G04 Aperture macros list end*
%ADD10C,0.500000*%
%ADD11RoundRect,0.200000X-0.200000X0.250000X-0.200000X-0.250000X0.200000X-0.250000X0.200000X0.250000X0*%
%ADD12RoundRect,0.079500X-0.100500X0.079500X-0.100500X-0.079500X0.100500X-0.079500X0.100500X0.079500X0*%
%ADD13RoundRect,0.125000X0.175000X0.125000X-0.175000X0.125000X-0.175000X-0.125000X0.175000X-0.125000X0*%
%ADD14RoundRect,0.079500X0.079500X0.100500X-0.079500X0.100500X-0.079500X-0.100500X0.079500X-0.100500X0*%
%ADD15RoundRect,0.125000X-0.325000X-0.125000X0.325000X-0.125000X0.325000X0.125000X-0.325000X0.125000X0*%
%ADD16RoundRect,0.150000X-0.150000X0.587500X-0.150000X-0.587500X0.150000X-0.587500X0.150000X0.587500X0*%
%ADD17RoundRect,0.200000X-0.250000X-0.200000X0.250000X-0.200000X0.250000X0.200000X-0.250000X0.200000X0*%
%ADD18RoundRect,0.200000X0.200000X-0.250000X0.200000X0.250000X-0.200000X0.250000X-0.200000X-0.250000X0*%
%ADD19RoundRect,0.250000X-0.350000X0.400000X-0.350000X-0.400000X0.350000X-0.400000X0.350000X0.400000X0*%
%ADD20RoundRect,0.075000X0.325000X0.075000X-0.325000X0.075000X-0.325000X-0.075000X0.325000X-0.075000X0*%
%ADD21RoundRect,0.112500X-0.112500X0.187500X-0.112500X-0.187500X0.112500X-0.187500X0.112500X0.187500X0*%
%ADD22RoundRect,0.079500X0.100500X-0.079500X0.100500X0.079500X-0.100500X0.079500X-0.100500X-0.079500X0*%
%ADD23RoundRect,0.150000X0.150000X-0.825000X0.150000X0.825000X-0.150000X0.825000X-0.150000X-0.825000X0*%
%ADD24RoundRect,0.200400X-0.399600X0.399600X-0.399600X-0.399600X0.399600X-0.399600X0.399600X0.399600X0*%
%ADD25RoundRect,0.125000X0.125000X-0.175000X0.125000X0.175000X-0.125000X0.175000X-0.125000X-0.175000X0*%
%ADD26RoundRect,0.062500X0.337500X-0.062500X0.337500X0.062500X-0.337500X0.062500X-0.337500X-0.062500X0*%
%ADD27RoundRect,0.087500X0.312500X-0.087500X0.312500X0.087500X-0.312500X0.087500X-0.312500X-0.087500X0*%
%ADD28RoundRect,0.150000X-0.587500X-0.150000X0.587500X-0.150000X0.587500X0.150000X-0.587500X0.150000X0*%
%ADD29RoundRect,0.079500X-0.079500X-0.100500X0.079500X-0.100500X0.079500X0.100500X-0.079500X0.100500X0*%
%ADD30RoundRect,0.200000X0.250000X0.200000X-0.250000X0.200000X-0.250000X-0.200000X0.250000X-0.200000X0*%
%ADD31RoundRect,0.087500X-0.087500X0.127500X-0.087500X-0.127500X0.087500X-0.127500X0.087500X0.127500X0*%
%ADD32RoundRect,0.250000X-0.375000X0.300000X-0.375000X-0.300000X0.375000X-0.300000X0.375000X0.300000X0*%
%ADD33RoundRect,0.087500X-0.087500X0.242500X-0.087500X-0.242500X0.087500X-0.242500X0.087500X0.242500X0*%
%ADD34RoundRect,0.112500X0.112500X-0.550000X0.112500X0.550000X-0.112500X0.550000X-0.112500X-0.550000X0*%
%ADD35RoundRect,0.125000X-0.125000X0.175000X-0.125000X-0.175000X0.125000X-0.175000X0.125000X0.175000X0*%
%ADD36RoundRect,0.150000X0.150000X-0.587500X0.150000X0.587500X-0.150000X0.587500X-0.150000X-0.587500X0*%
%ADD37RoundRect,0.250000X0.300000X-2.050000X0.300000X2.050000X-0.300000X2.050000X-0.300000X-2.050000X0*%
%ADD38RoundRect,0.250000X2.375000X-2.025000X2.375000X2.025000X-2.375000X2.025000X-2.375000X-2.025000X0*%
%ADD39RoundRect,0.125000X0.325000X0.125000X-0.325000X0.125000X-0.325000X-0.125000X0.325000X-0.125000X0*%
%ADD40RoundRect,0.200400X-0.399600X-0.399600X0.399600X-0.399600X0.399600X0.399600X-0.399600X0.399600X0*%
%ADD41RoundRect,0.200000X-0.318198X0.035355X0.035355X-0.318198X0.318198X-0.035355X-0.035355X0.318198X0*%
%ADD42RoundRect,0.125000X0.125000X-0.325000X0.125000X0.325000X-0.125000X0.325000X-0.125000X-0.325000X0*%
%ADD43RoundRect,0.200000X0.800000X-0.200000X0.800000X0.200000X-0.800000X0.200000X-0.800000X-0.200000X0*%
%ADD44RoundRect,0.250000X0.450000X-0.650000X0.450000X0.650000X-0.450000X0.650000X-0.450000X-0.650000X0*%
%ADD45RoundRect,0.250000X0.700000X-0.450000X0.700000X0.450000X-0.700000X0.450000X-0.700000X-0.450000X0*%
G04 APERTURE END LIST*
D10*
%TO.C,U19*%
X-60500000Y98125000D02*
X-60700000Y98125000D01*
X-60700000Y98300000D01*
X-60500000Y98300000D01*
X-60500000Y98125000D01*
G36*
X-60500000Y98125000D02*
G01*
X-60700000Y98125000D01*
X-60700000Y98300000D01*
X-60500000Y98300000D01*
X-60500000Y98125000D01*
G37*
X-60500000Y97300000D02*
X-60700000Y97300000D01*
X-60700000Y97475000D01*
X-60500000Y97475000D01*
X-60500000Y97300000D01*
G36*
X-60500000Y97300000D02*
G01*
X-60700000Y97300000D01*
X-60700000Y97475000D01*
X-60500000Y97475000D01*
X-60500000Y97300000D01*
G37*
%TD*%
D11*
%TO.C,C46*%
X-25050000Y27480500D03*
X-25050000Y25780500D03*
%TD*%
D12*
%TO.C,C78*%
X-34700000Y84945000D03*
X-34700000Y84255000D03*
%TD*%
D13*
%TO.C,C2*%
X-9950000Y91600000D03*
X-11050000Y91600000D03*
%TD*%
D14*
%TO.C,C58*%
X-33155000Y76900000D03*
X-33845000Y76900000D03*
%TD*%
D15*
%TO.C,R50*%
X-64750000Y23300000D03*
X-63050000Y23300000D03*
X-64750000Y24100000D03*
X-63050000Y24100000D03*
X-64750000Y24900000D03*
X-63050000Y24900000D03*
X-64750000Y25700000D03*
X-63050000Y25700000D03*
%TD*%
D16*
%TO.C,Q2*%
X-33050001Y6537501D03*
X-31150001Y6537501D03*
X-32100001Y4662501D03*
%TD*%
D14*
%TO.C,C57*%
X-33155000Y78300000D03*
X-33845000Y78300000D03*
%TD*%
D17*
%TO.C,C49*%
X-62500000Y48375000D03*
X-60800000Y48375000D03*
%TD*%
D18*
%TO.C,C12*%
X-44550000Y56225000D03*
X-44550000Y57925000D03*
%TD*%
D14*
%TO.C,C66*%
X-38755000Y81800000D03*
X-39445000Y81800000D03*
%TD*%
D19*
%TO.C,X2*%
X-45400000Y64250000D03*
X-45400000Y62150000D03*
X-47200000Y62150000D03*
X-47200000Y64250000D03*
%TD*%
D20*
%TO.C,U19*%
X-59600000Y98550000D03*
X-59600000Y98050000D03*
X-59600000Y97550000D03*
X-59600000Y97050000D03*
X-61600000Y97050000D03*
X-61600000Y97550000D03*
X-61600000Y98050000D03*
X-61600000Y98550000D03*
%TD*%
D21*
%TO.C,D13*%
X-63300000Y8350000D03*
X-63300000Y6250000D03*
%TD*%
D16*
%TO.C,Q3*%
X-36550001Y6537500D03*
X-34650001Y6537500D03*
X-35600001Y4662500D03*
%TD*%
D22*
%TO.C,C76*%
X-37900000Y85055000D03*
X-37900000Y85745000D03*
%TD*%
D23*
%TO.C,U18*%
X-38995000Y67225000D03*
X-40265000Y67225000D03*
X-41535000Y67225000D03*
X-42805000Y67225000D03*
X-42805000Y72175000D03*
X-41535000Y72175000D03*
X-40265000Y72175000D03*
X-38995000Y72175000D03*
%TD*%
D14*
%TO.C,C112*%
X-36355000Y76200000D03*
X-37045000Y76200000D03*
%TD*%
D11*
%TO.C,R69*%
X-15200000Y85250000D03*
X-15200000Y83550000D03*
%TD*%
D24*
%TO.C,R52*%
X-57400000Y98800000D03*
X-57400000Y96800000D03*
%TD*%
D25*
%TO.C,C5*%
X-6000000Y89650001D03*
X-6000000Y90750001D03*
%TD*%
D12*
%TO.C,C79*%
X-33900000Y84945000D03*
X-33900000Y84255000D03*
%TD*%
D26*
%TO.C,U7*%
X-61750000Y58500000D03*
X-61750000Y59000000D03*
D27*
X-61750000Y59500000D03*
X-60650000Y59500000D03*
D26*
X-60650000Y59000000D03*
X-60650000Y58500000D03*
%TD*%
D12*
%TO.C,C67*%
X-37900000Y80945000D03*
X-37900000Y80255000D03*
%TD*%
%TO.C,C72*%
X-41100000Y82545000D03*
X-41100000Y81855000D03*
%TD*%
D14*
%TO.C,C108*%
X-30755000Y76200000D03*
X-31445000Y76200000D03*
%TD*%
D11*
%TO.C,C19*%
X-56500000Y71150000D03*
X-56500000Y69450000D03*
%TD*%
D22*
%TO.C,C75*%
X-36300000Y85055000D03*
X-36300000Y85745000D03*
%TD*%
D17*
%TO.C,C15*%
X-47150000Y65900000D03*
X-45450000Y65900000D03*
%TD*%
D11*
%TO.C,R72*%
X-45300000Y74850000D03*
X-45300000Y73150000D03*
%TD*%
D18*
%TO.C,R73*%
X-43500000Y74250000D03*
X-43500000Y75950000D03*
%TD*%
D28*
%TO.C,Q9*%
X-66837500Y89850000D03*
X-66837500Y91750000D03*
X-64962499Y90800000D03*
%TD*%
D14*
%TO.C,C56*%
X-40355000Y77800000D03*
X-41045000Y77800000D03*
%TD*%
D29*
%TO.C,C63*%
X-34645000Y85800000D03*
X-33955000Y85800000D03*
%TD*%
D12*
%TO.C,C73*%
X-41100000Y84945000D03*
X-41100000Y84255000D03*
%TD*%
D16*
%TO.C,Q4*%
X-29550000Y6537499D03*
X-27650000Y6537499D03*
X-28600000Y4662499D03*
%TD*%
D30*
%TO.C,C88*%
X-31850000Y43599999D03*
X-33550000Y43599999D03*
%TD*%
D22*
%TO.C,C52*%
X-37900000Y83455000D03*
X-37900000Y84145000D03*
%TD*%
D14*
%TO.C,C51*%
X-38755000Y82600000D03*
X-39445000Y82600000D03*
%TD*%
D15*
%TO.C,R48*%
X-59015000Y26335000D03*
X-57315000Y26335000D03*
X-59015000Y27135000D03*
X-57315000Y27135000D03*
X-59015000Y27935000D03*
X-57315000Y27935000D03*
X-59015000Y28735000D03*
X-57315000Y28735000D03*
%TD*%
D22*
%TO.C,C105*%
X-37900000Y78655000D03*
X-37900000Y79345000D03*
%TD*%
%TO.C,C82*%
X-35250000Y77055000D03*
X-35250000Y77745000D03*
%TD*%
%TO.C,C81*%
X-34550000Y77055000D03*
X-34550000Y77745000D03*
%TD*%
D12*
%TO.C,C103*%
X-40300000Y84945000D03*
X-40300000Y84255000D03*
%TD*%
D25*
%TO.C,C64*%
X-41950000Y84850000D03*
X-41950000Y85950000D03*
%TD*%
D31*
%TO.C,Q6*%
X-66700000Y23635001D03*
X-67350000Y23635001D03*
D32*
X-66985000Y22700001D03*
D31*
X-66700000Y21765001D03*
X-67350000Y21765001D03*
X-66050000Y23635001D03*
D33*
X-65925000Y22700001D03*
D31*
X-66050000Y21765001D03*
%TD*%
D14*
%TO.C,C55*%
X-40355000Y77100000D03*
X-41045000Y77100000D03*
%TD*%
D30*
%TO.C,R49*%
X-50350000Y103700000D03*
X-52050000Y103700000D03*
%TD*%
D22*
%TO.C,C100*%
X-38700000Y85055000D03*
X-38700000Y85745000D03*
%TD*%
%TO.C,C84*%
X-36650000Y77055000D03*
X-36650000Y77745000D03*
%TD*%
D14*
%TO.C,C59*%
X-33155000Y77600000D03*
X-33845000Y77600000D03*
%TD*%
D29*
%TO.C,C111*%
X-38645000Y76200000D03*
X-37955000Y76200000D03*
%TD*%
%TO.C,C68*%
X-36245000Y81800000D03*
X-35555000Y81800000D03*
%TD*%
D11*
%TO.C,R67*%
X-11000000Y85750000D03*
X-11000000Y84050000D03*
%TD*%
D30*
%TO.C,C95*%
X-63050000Y3200000D03*
X-64750000Y3200000D03*
%TD*%
D11*
%TO.C,R37*%
X-37550000Y69600000D03*
X-37550000Y67900000D03*
%TD*%
D22*
%TO.C,C102*%
X-37100000Y85055000D03*
X-37100000Y85745000D03*
%TD*%
D34*
%TO.C,U22*%
X-59625000Y102862500D03*
X-60275000Y102862500D03*
X-60925000Y102862500D03*
X-61575000Y102862500D03*
X-61575000Y105137500D03*
X-60925000Y105137500D03*
X-60275000Y105137500D03*
X-59625000Y105137500D03*
%TD*%
D35*
%TO.C,C97*%
X-62800000Y105150000D03*
X-62800000Y104050000D03*
%TD*%
D36*
%TO.C,Q8*%
X-66249999Y25362500D03*
X-68149999Y25362500D03*
X-67199999Y27237500D03*
%TD*%
D11*
%TO.C,R36*%
X-11000000Y94750000D03*
X-11000000Y93050000D03*
%TD*%
D30*
%TO.C,C11*%
X-51850000Y58250001D03*
X-53550000Y58250001D03*
%TD*%
D37*
%TO.C,D14*%
X-54110000Y4575000D03*
D38*
X-59425000Y11300000D03*
X-53875000Y11300000D03*
X-59425000Y16150000D03*
X-53875000Y16150000D03*
D37*
X-59190000Y4575000D03*
%TD*%
D22*
%TO.C,C83*%
X-37350000Y77055000D03*
X-37350000Y77745000D03*
%TD*%
D25*
%TO.C,R3*%
X-50200000Y32449999D03*
X-50200000Y33549999D03*
%TD*%
D13*
%TO.C,C3*%
X-2950000Y91600000D03*
X-4050000Y91600000D03*
%TD*%
D18*
%TO.C,R1*%
X-48400000Y70550000D03*
X-48400000Y72250000D03*
%TD*%
D11*
%TO.C,C20*%
X-57800000Y71150000D03*
X-57800000Y69450000D03*
%TD*%
D39*
%TO.C,R66*%
X-55950000Y87000000D03*
X-57650000Y87000000D03*
X-55950000Y86200000D03*
X-57650000Y86200000D03*
X-55950000Y85400000D03*
X-57650000Y85400000D03*
X-55950000Y84600000D03*
X-57650000Y84600000D03*
%TD*%
D12*
%TO.C,C65*%
X-37100000Y80945000D03*
X-37100000Y80255000D03*
%TD*%
%TO.C,C77*%
X-34700000Y82545000D03*
X-34700000Y81855000D03*
%TD*%
D30*
%TO.C,R47*%
X-63050001Y4750001D03*
X-64750001Y4750001D03*
%TD*%
D29*
%TO.C,C61*%
X-34645000Y79400000D03*
X-33955000Y79400000D03*
%TD*%
D18*
%TO.C,R56*%
X-22150000Y25730499D03*
X-22150000Y27430499D03*
%TD*%
D40*
%TO.C,FB3*%
X-66200000Y105100000D03*
X-64200000Y105100000D03*
%TD*%
D17*
%TO.C,C91*%
X-62500000Y52625000D03*
X-60800000Y52625000D03*
%TD*%
D30*
%TO.C,R10*%
X-46700000Y60500000D03*
X-48400000Y60500000D03*
%TD*%
D25*
%TO.C,C4*%
X-13000000Y89650000D03*
X-13000000Y90750000D03*
%TD*%
D11*
%TO.C,C7*%
X-37550000Y72700000D03*
X-37550000Y71000000D03*
%TD*%
D12*
%TO.C,C74*%
X-33900000Y82545000D03*
X-33900000Y81855000D03*
%TD*%
D41*
%TO.C,C22*%
X-63101041Y65801041D03*
X-61898959Y64598959D03*
%TD*%
D29*
%TO.C,C109*%
X-33045000Y76200000D03*
X-32355000Y76200000D03*
%TD*%
D15*
%TO.C,R14*%
X-49850000Y74500000D03*
X-48150000Y74500000D03*
X-49850000Y75300000D03*
X-48150000Y75300000D03*
X-49850000Y76100000D03*
X-48150000Y76100000D03*
X-49850000Y76900000D03*
X-48150000Y76900000D03*
%TD*%
D11*
%TO.C,C80*%
X-73500000Y90150000D03*
X-73500000Y88450000D03*
%TD*%
D18*
%TO.C,C17*%
X-58050000Y49575000D03*
X-58050000Y51275000D03*
%TD*%
D11*
%TO.C,R68*%
X-16700000Y94350000D03*
X-16700000Y92650000D03*
%TD*%
D14*
%TO.C,C60*%
X-40355000Y85800000D03*
X-41045000Y85800000D03*
%TD*%
D11*
%TO.C,R41*%
X-72200000Y90150000D03*
X-72200000Y88450000D03*
%TD*%
D16*
%TO.C,Q5*%
X-26050001Y6537498D03*
X-24150001Y6537498D03*
X-25100001Y4662498D03*
%TD*%
D17*
%TO.C,R61*%
X-67350000Y93200000D03*
X-65650000Y93200000D03*
%TD*%
D41*
%TO.C,C18*%
X-32901041Y67101041D03*
X-31698959Y65898959D03*
%TD*%
D14*
%TO.C,C62*%
X-40355000Y79400000D03*
X-41045000Y79400000D03*
%TD*%
D11*
%TO.C,R28*%
X-55900000Y82450000D03*
X-55900000Y80750000D03*
%TD*%
D17*
%TO.C,R76*%
X-56950000Y92200000D03*
X-55250000Y92200000D03*
%TD*%
D22*
%TO.C,C106*%
X-38700000Y78655000D03*
X-38700000Y79345000D03*
%TD*%
D17*
%TO.C,R63*%
X-63250000Y89800000D03*
X-61550000Y89800000D03*
%TD*%
D11*
%TO.C,C1*%
X-54500000Y79050000D03*
X-54500000Y77350000D03*
%TD*%
D18*
%TO.C,R32*%
X-40300000Y2150000D03*
X-40300000Y3850000D03*
%TD*%
D12*
%TO.C,C104*%
X-40300000Y82545000D03*
X-40300000Y81855000D03*
%TD*%
D30*
%TO.C,R17*%
X-45100000Y35900000D03*
X-46800000Y35900000D03*
%TD*%
D14*
%TO.C,C50*%
X-38755000Y83400000D03*
X-39445000Y83400000D03*
%TD*%
D17*
%TO.C,R62*%
X-63250000Y88500000D03*
X-61550000Y88500000D03*
%TD*%
D30*
%TO.C,C13*%
X-46700000Y59150000D03*
X-48400000Y59150000D03*
%TD*%
D18*
%TO.C,R40*%
X-39000000Y2150000D03*
X-39000000Y3850000D03*
%TD*%
D17*
%TO.C,C14*%
X-48400000Y57250000D03*
X-46700000Y57250000D03*
%TD*%
D30*
%TO.C,R43*%
X-36350000Y41500001D03*
X-38050000Y41500001D03*
%TD*%
D17*
%TO.C,C93*%
X-62500000Y51275000D03*
X-60800000Y51275000D03*
%TD*%
D22*
%TO.C,C69*%
X-37100000Y83455000D03*
X-37100000Y84145000D03*
%TD*%
D17*
%TO.C,R51*%
X-64250000Y93200000D03*
X-62550000Y93200000D03*
%TD*%
%TO.C,R65*%
X-48000000Y7400000D03*
X-46300000Y7400000D03*
%TD*%
%TO.C,R58*%
X-55150000Y103700000D03*
X-53450000Y103700000D03*
%TD*%
%TO.C,R6*%
X-56950000Y90900000D03*
X-55250000Y90900000D03*
%TD*%
D29*
%TO.C,C53*%
X-36245000Y82600000D03*
X-35555000Y82600000D03*
%TD*%
D15*
%TO.C,R46*%
X-62550001Y27100000D03*
X-60850001Y27100000D03*
X-62550001Y27900000D03*
X-60850001Y27900000D03*
X-62550001Y28700000D03*
X-60850001Y28700000D03*
X-62550001Y29500000D03*
X-60850001Y29500000D03*
%TD*%
D30*
%TO.C,C6*%
X-41350000Y5400000D03*
X-43050000Y5400000D03*
%TD*%
D24*
%TO.C,R53*%
X-63800000Y98300000D03*
X-63800000Y96300000D03*
%TD*%
D22*
%TO.C,C85*%
X-35950000Y77055000D03*
X-35950000Y77745000D03*
%TD*%
D18*
%TO.C,R64*%
X-51200000Y100350000D03*
X-51200000Y102050000D03*
%TD*%
D13*
%TO.C,C35*%
X-2950000Y82600000D03*
X-4050000Y82600000D03*
%TD*%
D14*
%TO.C,C70*%
X-38755000Y81000000D03*
X-39445000Y81000000D03*
%TD*%
D42*
%TO.C,R35*%
X-29150001Y8949999D03*
X-29150001Y10649999D03*
X-29950001Y8949999D03*
X-29950001Y10649999D03*
X-30750001Y8949999D03*
X-30750001Y10649999D03*
X-31550001Y8949999D03*
X-31550001Y10649999D03*
%TD*%
D25*
%TO.C,C36*%
X-13000000Y80650000D03*
X-13000000Y81750000D03*
%TD*%
D43*
%TO.C,J6*%
X-69725000Y81940000D03*
X-69325000Y80840000D03*
X-69725000Y79740000D03*
X-69925000Y78640000D03*
X-69725000Y77540000D03*
X-69925000Y76440000D03*
X-69725000Y75340000D03*
X-69725000Y74240000D03*
D44*
X-59175000Y75050000D03*
X-59175000Y80750000D03*
D45*
X-72325000Y73450000D03*
X-73325000Y86600000D03*
%TD*%
D11*
%TO.C,R70*%
X-53700000Y84050000D03*
X-53700000Y82350000D03*
%TD*%
D14*
%TO.C,C54*%
X-40355000Y78500000D03*
X-41045000Y78500000D03*
%TD*%
D17*
%TO.C,C16*%
X-62500000Y49725000D03*
X-60800000Y49725000D03*
%TD*%
%TO.C,R77*%
X-56950000Y88300000D03*
X-55250000Y88300000D03*
%TD*%
D13*
%TO.C,C34*%
X-9950000Y82600000D03*
X-11050000Y82600000D03*
%TD*%
%TO.C,C96*%
X-60600000Y99600000D03*
X-61700000Y99600000D03*
%TD*%
%TO.C,C71*%
X-34550000Y80600000D03*
X-35650000Y80600000D03*
%TD*%
D17*
%TO.C,R75*%
X-56950000Y89600000D03*
X-55250000Y89600000D03*
%TD*%
D18*
%TO.C,C24*%
X-48700000Y32299999D03*
X-48700000Y33999999D03*
%TD*%
D25*
%TO.C,C37*%
X-6000000Y80650001D03*
X-6000000Y81750001D03*
%TD*%
D11*
%TO.C,C92*%
X-59400000Y51275001D03*
X-59400000Y49575001D03*
%TD*%
M02*
