%TF.GenerationSoftware,KiCad,Pcbnew,8.0.3*%
%TF.CreationDate,2024-06-20T21:56:17-07:00*%
%TF.ProjectId,squishy-main,73717569-7368-4792-9d6d-61696e2e6b69,2*%
%TF.SameCoordinates,PXb3c4820PY930e7c0*%
%TF.FileFunction,Soldermask,Bot*%
%TF.FilePolarity,Negative*%
%FSLAX46Y46*%
G04 Gerber Fmt 4.6, Leading zero omitted, Abs format (unit mm)*
G04 Created by KiCad (PCBNEW 8.0.3) date 2024-06-20 21:56:17*
%MOMM*%
%LPD*%
G01*
G04 APERTURE LIST*
G04 Aperture macros list*
%AMRoundRect*
0 Rectangle with rounded corners*
0 $1 Rounding radius*
0 $2 $3 $4 $5 $6 $7 $8 $9 X,Y pos of 4 corners*
0 Add a 4 corners polygon primitive as box body*
4,1,4,$2,$3,$4,$5,$6,$7,$8,$9,$2,$3,0*
0 Add four circle primitives for the rounded corners*
1,1,$1+$1,$2,$3*
1,1,$1+$1,$4,$5*
1,1,$1+$1,$6,$7*
1,1,$1+$1,$8,$9*
0 Add four rect primitives between the rounded corners*
20,1,$1+$1,$2,$3,$4,$5,0*
20,1,$1+$1,$4,$5,$6,$7,0*
20,1,$1+$1,$6,$7,$8,$9,0*
20,1,$1+$1,$8,$9,$2,$3,0*%
G04 Aperture macros list end*
%ADD10C,6.500000*%
%ADD11RoundRect,0.269756X-1.752744X-1.112744X1.752744X-1.112744X1.752744X1.112744X-1.752744X1.112744X0*%
%ADD12RoundRect,0.269756X1.752744X1.112744X-1.752744X1.112744X-1.752744X-1.112744X1.752744X-1.112744X0*%
%ADD13C,0.800000*%
%ADD14C,1.200000*%
%ADD15C,0.750000*%
%ADD16O,0.750000X1.050000*%
%ADD17C,0.700000*%
%ADD18C,0.600000*%
%ADD19O,2.100000X1.100000*%
%ADD20O,1.700000X1.100000*%
%ADD21C,0.850000*%
%ADD22C,1.300000*%
%ADD23RoundRect,0.050000X0.850000X0.850000X-0.850000X0.850000X-0.850000X-0.850000X0.850000X-0.850000X0*%
%ADD24O,1.800000X1.800000*%
%ADD25RoundRect,0.262500X-0.787500X2.087500X-0.787500X-2.087500X0.787500X-2.087500X0.787500X2.087500X0*%
%ADD26O,2.100000X4.300000*%
%ADD27O,4.300000X2.100000*%
%ADD28RoundRect,0.225000X-0.225000X0.275000X-0.225000X-0.275000X0.225000X-0.275000X0.225000X0.275000X0*%
%ADD29RoundRect,0.125000X-0.125000X0.155000X-0.125000X-0.155000X0.125000X-0.155000X0.125000X0.155000X0*%
%ADD30RoundRect,0.150000X0.200000X0.150000X-0.200000X0.150000X-0.200000X-0.150000X0.200000X-0.150000X0*%
%ADD31RoundRect,0.125000X0.155000X0.125000X-0.155000X0.125000X-0.155000X-0.125000X0.155000X-0.125000X0*%
%ADD32C,1.100000*%
%ADD33RoundRect,0.150000X-0.350000X-0.150000X0.350000X-0.150000X0.350000X0.150000X-0.350000X0.150000X0*%
%ADD34RoundRect,0.175000X-0.175000X0.612500X-0.175000X-0.612500X0.175000X-0.612500X0.175000X0.612500X0*%
%ADD35RoundRect,0.225000X-0.275000X-0.225000X0.275000X-0.225000X0.275000X0.225000X-0.275000X0.225000X0*%
%ADD36RoundRect,0.225000X0.225000X-0.275000X0.225000X0.275000X-0.225000X0.275000X-0.225000X-0.275000X0*%
%ADD37RoundRect,0.270833X-0.379167X0.429167X-0.379167X-0.429167X0.379167X-0.429167X0.379167X0.429167X0*%
%ADD38RoundRect,0.100000X0.350000X0.100000X-0.350000X0.100000X-0.350000X-0.100000X0.350000X-0.100000X0*%
%ADD39RoundRect,0.225000X0.225000X0.625000X-0.225000X0.625000X-0.225000X-0.625000X0.225000X-0.625000X0*%
%ADD40RoundRect,0.137500X-0.137500X0.212500X-0.137500X-0.212500X0.137500X-0.212500X0.137500X0.212500X0*%
%ADD41RoundRect,0.125000X0.125000X-0.155000X0.125000X0.155000X-0.125000X0.155000X-0.125000X-0.155000X0*%
%ADD42RoundRect,0.175000X0.175000X-0.850000X0.175000X0.850000X-0.175000X0.850000X-0.175000X-0.850000X0*%
%ADD43RoundRect,0.217100X-0.432900X0.432900X-0.432900X-0.432900X0.432900X-0.432900X0.432900X0.432900X0*%
%ADD44RoundRect,0.150000X0.150000X-0.200000X0.150000X0.200000X-0.150000X0.200000X-0.150000X-0.200000X0*%
%ADD45RoundRect,0.087500X0.362500X-0.087500X0.362500X0.087500X-0.362500X0.087500X-0.362500X-0.087500X0*%
%ADD46RoundRect,0.112500X0.337500X-0.112500X0.337500X0.112500X-0.337500X0.112500X-0.337500X-0.112500X0*%
%ADD47C,1.500000*%
%ADD48RoundRect,0.175000X-0.612500X-0.175000X0.612500X-0.175000X0.612500X0.175000X-0.612500X0.175000X0*%
%ADD49RoundRect,0.125000X-0.155000X-0.125000X0.155000X-0.125000X0.155000X0.125000X-0.155000X0.125000X0*%
%ADD50RoundRect,0.225000X0.275000X0.225000X-0.275000X0.225000X-0.275000X-0.225000X0.275000X-0.225000X0*%
%ADD51RoundRect,0.112500X-0.112500X0.152500X-0.112500X-0.152500X0.112500X-0.152500X0.112500X0.152500X0*%
%ADD52RoundRect,0.272727X-0.402273X0.327273X-0.402273X-0.327273X0.402273X-0.327273X0.402273X0.327273X0*%
%ADD53RoundRect,0.112500X-0.112500X0.267500X-0.112500X-0.267500X0.112500X-0.267500X0.112500X0.267500X0*%
%ADD54RoundRect,0.137500X0.137500X-0.575000X0.137500X0.575000X-0.137500X0.575000X-0.137500X-0.575000X0*%
%ADD55RoundRect,0.150000X-0.150000X0.200000X-0.150000X-0.200000X0.150000X-0.200000X0.150000X0.200000X0*%
%ADD56RoundRect,0.175000X0.175000X-0.612500X0.175000X0.612500X-0.175000X0.612500X-0.175000X-0.612500X0*%
%ADD57RoundRect,0.272728X0.327272X-2.077272X0.327272X2.077272X-0.327272X2.077272X-0.327272X-2.077272X0*%
%ADD58RoundRect,0.252662X5.197338X-4.497338X5.197338X4.497338X-5.197338X4.497338X-5.197338X-4.497338X0*%
%ADD59RoundRect,0.150000X0.350000X0.150000X-0.350000X0.150000X-0.350000X-0.150000X0.350000X-0.150000X0*%
%ADD60RoundRect,0.217100X-0.432900X-0.432900X0.432900X-0.432900X0.432900X0.432900X-0.432900X0.432900X0*%
%ADD61RoundRect,0.225000X-0.353553X0.035355X0.035355X-0.353553X0.353553X-0.035355X-0.035355X0.353553X0*%
%ADD62RoundRect,0.150000X0.150000X-0.350000X0.150000X0.350000X-0.150000X0.350000X-0.150000X-0.350000X0*%
%ADD63RoundRect,0.225000X0.825000X-0.225000X0.825000X0.225000X-0.825000X0.225000X-0.825000X-0.225000X0*%
%ADD64RoundRect,0.267857X0.482143X-0.682143X0.482143X0.682143X-0.482143X0.682143X-0.482143X-0.682143X0*%
%ADD65RoundRect,0.267857X0.732143X-0.482143X0.732143X0.482143X-0.732143X0.482143X-0.732143X-0.482143X0*%
G04 APERTURE END LIST*
D10*
%TO.C,H2*%
X-71000000Y111000000D03*
%TD*%
%TO.C,H1*%
X-4000000Y111000000D03*
%TD*%
D11*
%TO.C,J2*%
X-72752500Y94700000D03*
D12*
X-72752500Y101692500D03*
%TD*%
D13*
%TO.C,J7*%
X-59600000Y111000000D03*
D14*
X-15400000Y111000000D03*
%TD*%
D15*
%TO.C,J3*%
X-69100000Y61975001D03*
D16*
X-69100000Y54525001D03*
D17*
X-68400000Y55200001D03*
D18*
X-69100000Y55850001D03*
X-69100000Y56650001D03*
X-68400000Y57050001D03*
X-69100000Y57450001D03*
X-68400000Y57850001D03*
X-68400000Y58650001D03*
X-69100000Y59050001D03*
X-68400000Y59450001D03*
X-69100000Y59850001D03*
X-69100000Y60650001D03*
D17*
X-68400000Y61300001D03*
D19*
X-73100000Y64250001D03*
D20*
X-67600000Y62750001D03*
X-67600000Y53750001D03*
D19*
X-73100000Y52250001D03*
%TD*%
D21*
%TO.C,SW2*%
X-70700000Y46200000D03*
%TD*%
D10*
%TO.C,H4*%
X-4000000Y4000000D03*
%TD*%
D22*
%TO.C,SW1*%
X-42100000Y3400000D03*
X-45100000Y3400000D03*
X-43600000Y1550000D03*
%TD*%
D10*
%TO.C,H3*%
X-71000000Y4000000D03*
%TD*%
D23*
%TO.C,J1*%
X-68500000Y98225000D03*
D24*
X-68500000Y100765000D03*
%TD*%
D25*
%TO.C,J5*%
X-63900000Y16000000D03*
D26*
X-70200000Y16000000D03*
D27*
X-66800000Y11200000D03*
%TD*%
D28*
%TO.C,C46*%
X-25050000Y27480500D03*
X-25050000Y25780500D03*
%TD*%
D29*
%TO.C,C78*%
X-34700000Y84920000D03*
X-34700000Y84280000D03*
%TD*%
D30*
%TO.C,C2*%
X-9950000Y91600000D03*
X-11050000Y91600000D03*
%TD*%
D31*
%TO.C,C58*%
X-33180000Y76900000D03*
X-33820000Y76900000D03*
%TD*%
D32*
%TO.C,TP14*%
X-58650000Y32000000D03*
%TD*%
D33*
%TO.C,R50*%
X-64750000Y23300000D03*
X-63050000Y23300000D03*
X-64750000Y24100000D03*
X-63050000Y24100000D03*
X-64750000Y24900000D03*
X-63050000Y24900000D03*
X-64750000Y25700000D03*
X-63050000Y25700000D03*
%TD*%
D34*
%TO.C,Q2*%
X-33050001Y6537501D03*
X-31150001Y6537501D03*
X-32100001Y4662501D03*
%TD*%
D31*
%TO.C,C57*%
X-33180000Y78300000D03*
X-33820000Y78300000D03*
%TD*%
D32*
%TO.C,TP21*%
X-47050000Y67950000D03*
%TD*%
D35*
%TO.C,C49*%
X-62500000Y48375000D03*
X-60800000Y48375000D03*
%TD*%
D32*
%TO.C,TP19*%
X-50100000Y71300000D03*
%TD*%
%TO.C,TP15*%
X-53200000Y87300000D03*
%TD*%
%TO.C,TP40*%
X-7500000Y93200000D03*
%TD*%
D36*
%TO.C,C12*%
X-44550000Y56225000D03*
X-44550000Y57925000D03*
%TD*%
D32*
%TO.C,TP46*%
X-52000000Y72000000D03*
%TD*%
D31*
%TO.C,C66*%
X-38780000Y81800000D03*
X-39420000Y81800000D03*
%TD*%
D32*
%TO.C,TP34*%
X-56000000Y52100000D03*
%TD*%
D37*
%TO.C,X2*%
X-45400000Y64250000D03*
X-45400000Y62150000D03*
X-47200000Y62150000D03*
X-47200000Y64250000D03*
%TD*%
D38*
%TO.C,U19*%
X-59600000Y98550000D03*
X-59600000Y98050000D03*
X-59600000Y97550000D03*
X-59600000Y97050000D03*
X-61600000Y97050000D03*
X-61600000Y97550000D03*
X-61600000Y98050000D03*
X-61600000Y98550000D03*
D39*
X-60600000Y97800000D03*
%TD*%
D40*
%TO.C,D13*%
X-63300000Y8350000D03*
X-63300000Y6250000D03*
%TD*%
D34*
%TO.C,Q3*%
X-36550001Y6537500D03*
X-34650001Y6537500D03*
X-35600001Y4662500D03*
%TD*%
D41*
%TO.C,C76*%
X-37900000Y85080000D03*
X-37900000Y85720000D03*
%TD*%
D42*
%TO.C,U18*%
X-38995000Y67225000D03*
X-40265000Y67225000D03*
X-41535000Y67225000D03*
X-42805000Y67225000D03*
X-42805000Y72175000D03*
X-41535000Y72175000D03*
X-40265000Y72175000D03*
X-38995000Y72175000D03*
%TD*%
D31*
%TO.C,C112*%
X-36380000Y76200000D03*
X-37020000Y76200000D03*
%TD*%
D28*
%TO.C,R69*%
X-15200000Y85250000D03*
X-15200000Y83550000D03*
%TD*%
D32*
%TO.C,TP26*%
X-51450000Y68950000D03*
%TD*%
%TO.C,TP11*%
X-11300000Y41600000D03*
%TD*%
%TO.C,TP42*%
X-39000000Y5800000D03*
%TD*%
D43*
%TO.C,R52*%
X-57400000Y98800000D03*
X-57400000Y96800000D03*
%TD*%
D44*
%TO.C,C5*%
X-6000000Y89650001D03*
X-6000000Y90750001D03*
%TD*%
D29*
%TO.C,C79*%
X-33900000Y84920000D03*
X-33900000Y84280000D03*
%TD*%
D45*
%TO.C,U7*%
X-61750000Y58500000D03*
X-61750000Y59000000D03*
D46*
X-61750000Y59500000D03*
X-60650000Y59500000D03*
D45*
X-60650000Y59000000D03*
X-60650000Y58500000D03*
%TD*%
D32*
%TO.C,TP12*%
X-13700000Y44200000D03*
%TD*%
D47*
%TO.C,FID1*%
X-4100000Y105200000D03*
%TD*%
D32*
%TO.C,TP8*%
X-60600000Y22550000D03*
%TD*%
D29*
%TO.C,C67*%
X-37900000Y80920000D03*
X-37900000Y80280000D03*
%TD*%
%TO.C,C72*%
X-41100000Y82520000D03*
X-41100000Y81880000D03*
%TD*%
D31*
%TO.C,C108*%
X-30780000Y76200000D03*
X-31420000Y76200000D03*
%TD*%
D28*
%TO.C,C19*%
X-56500000Y71150000D03*
X-56500000Y69450000D03*
%TD*%
D41*
%TO.C,C75*%
X-36300000Y85080000D03*
X-36300000Y85720000D03*
%TD*%
D35*
%TO.C,C15*%
X-47150000Y65900000D03*
X-45450000Y65900000D03*
%TD*%
D28*
%TO.C,R72*%
X-45300000Y74850000D03*
X-45300000Y73150000D03*
%TD*%
D36*
%TO.C,R73*%
X-43500000Y74250000D03*
X-43500000Y75950000D03*
%TD*%
D48*
%TO.C,Q9*%
X-66837500Y89850000D03*
X-66837500Y91750000D03*
X-64962499Y90800000D03*
%TD*%
D32*
%TO.C,TP22*%
X-49250000Y68450000D03*
%TD*%
D31*
%TO.C,C56*%
X-40380000Y77800000D03*
X-41020000Y77800000D03*
%TD*%
D49*
%TO.C,C63*%
X-34620000Y85800000D03*
X-33980000Y85800000D03*
%TD*%
D32*
%TO.C,TP28*%
X-58800000Y68200000D03*
%TD*%
D29*
%TO.C,C73*%
X-41100000Y84920000D03*
X-41100000Y84280000D03*
%TD*%
D34*
%TO.C,Q4*%
X-29550000Y6537499D03*
X-27650000Y6537499D03*
X-28600000Y4662499D03*
%TD*%
D50*
%TO.C,C88*%
X-31850000Y43599999D03*
X-33550000Y43599999D03*
%TD*%
D41*
%TO.C,C52*%
X-37900000Y83480000D03*
X-37900000Y84120000D03*
%TD*%
D31*
%TO.C,C51*%
X-38780000Y82600000D03*
X-39420000Y82600000D03*
%TD*%
D32*
%TO.C,TP35*%
X-56000000Y49900000D03*
%TD*%
%TO.C,TP5*%
X-13700000Y31100000D03*
%TD*%
D33*
%TO.C,R48*%
X-59015000Y26335000D03*
X-57315000Y26335000D03*
X-59015000Y27135000D03*
X-57315000Y27135000D03*
X-59015000Y27935000D03*
X-57315000Y27935000D03*
X-59015000Y28735000D03*
X-57315000Y28735000D03*
%TD*%
D41*
%TO.C,C105*%
X-37900000Y78680000D03*
X-37900000Y79320000D03*
%TD*%
%TO.C,C82*%
X-35250000Y77080000D03*
X-35250000Y77720000D03*
%TD*%
%TO.C,C81*%
X-34550000Y77080000D03*
X-34550000Y77720000D03*
%TD*%
D29*
%TO.C,C103*%
X-40300000Y84920000D03*
X-40300000Y84280000D03*
%TD*%
D44*
%TO.C,C64*%
X-41950000Y84850000D03*
X-41950000Y85950000D03*
%TD*%
D51*
%TO.C,Q6*%
X-66700000Y23635001D03*
X-67350000Y23635001D03*
D52*
X-66985000Y22700001D03*
D51*
X-66700000Y21765001D03*
X-67350000Y21765001D03*
X-66050000Y23635001D03*
D53*
X-65925000Y22700001D03*
D51*
X-66050000Y21765001D03*
%TD*%
D31*
%TO.C,C55*%
X-40380000Y77100000D03*
X-41020000Y77100000D03*
%TD*%
D50*
%TO.C,R49*%
X-50350000Y103700000D03*
X-52050000Y103700000D03*
%TD*%
D41*
%TO.C,C100*%
X-38700000Y85080000D03*
X-38700000Y85720000D03*
%TD*%
D32*
%TO.C,TP10*%
X-52900000Y27000000D03*
%TD*%
D41*
%TO.C,C84*%
X-36650000Y77080000D03*
X-36650000Y77720000D03*
%TD*%
D31*
%TO.C,C59*%
X-33180000Y77600000D03*
X-33820000Y77600000D03*
%TD*%
D49*
%TO.C,C111*%
X-38620000Y76200000D03*
X-37980000Y76200000D03*
%TD*%
%TO.C,C68*%
X-36220000Y81800000D03*
X-35580000Y81800000D03*
%TD*%
D28*
%TO.C,R67*%
X-11000000Y85750000D03*
X-11000000Y84050000D03*
%TD*%
D50*
%TO.C,C95*%
X-63050000Y3200000D03*
X-64750000Y3200000D03*
%TD*%
D28*
%TO.C,R37*%
X-37550000Y69600000D03*
X-37550000Y67900000D03*
%TD*%
D41*
%TO.C,C102*%
X-37100000Y85080000D03*
X-37100000Y85720000D03*
%TD*%
D54*
%TO.C,U22*%
X-59625000Y102862500D03*
X-60275000Y102862500D03*
X-60925000Y102862500D03*
X-61575000Y102862500D03*
X-61575000Y105137500D03*
X-60925000Y105137500D03*
X-60275000Y105137500D03*
X-59625000Y105137500D03*
%TD*%
D55*
%TO.C,C97*%
X-62800000Y105150000D03*
X-62800000Y104050000D03*
%TD*%
D56*
%TO.C,Q8*%
X-66249999Y25362500D03*
X-68149999Y25362500D03*
X-67199999Y27237500D03*
%TD*%
D28*
%TO.C,R36*%
X-11000000Y94750000D03*
X-11000000Y93050000D03*
%TD*%
D50*
%TO.C,C11*%
X-51850000Y58250001D03*
X-53550000Y58250001D03*
%TD*%
D57*
%TO.C,D14*%
X-54110000Y4575000D03*
D58*
X-56650000Y13725000D03*
D57*
X-59190000Y4575000D03*
%TD*%
D41*
%TO.C,C83*%
X-37350000Y77080000D03*
X-37350000Y77720000D03*
%TD*%
D44*
%TO.C,R3*%
X-50200000Y32449999D03*
X-50200000Y33549999D03*
%TD*%
D30*
%TO.C,C3*%
X-2950000Y91600000D03*
X-4050000Y91600000D03*
%TD*%
D36*
%TO.C,R1*%
X-48400000Y70550000D03*
X-48400000Y72250000D03*
%TD*%
D28*
%TO.C,C20*%
X-57800000Y71150000D03*
X-57800000Y69450000D03*
%TD*%
D59*
%TO.C,R66*%
X-55950000Y87000000D03*
X-57650000Y87000000D03*
X-55950000Y86200000D03*
X-57650000Y86200000D03*
X-55950000Y85400000D03*
X-57650000Y85400000D03*
X-55950000Y84600000D03*
X-57650000Y84600000D03*
%TD*%
D29*
%TO.C,C65*%
X-37100000Y80920000D03*
X-37100000Y80280000D03*
%TD*%
%TO.C,C77*%
X-34700000Y82520000D03*
X-34700000Y81880000D03*
%TD*%
D32*
%TO.C,TP45*%
X-55100000Y98700000D03*
%TD*%
D47*
%TO.C,FID2*%
X-4100000Y28200000D03*
%TD*%
D50*
%TO.C,R47*%
X-63050001Y4750001D03*
X-64750001Y4750001D03*
%TD*%
D32*
%TO.C,TP3*%
X-11300000Y37700000D03*
%TD*%
%TO.C,TP23*%
X-54800000Y71300000D03*
%TD*%
D49*
%TO.C,C61*%
X-34620000Y79400000D03*
X-33980000Y79400000D03*
%TD*%
D36*
%TO.C,R56*%
X-22150000Y25730499D03*
X-22150000Y27430499D03*
%TD*%
D60*
%TO.C,FB3*%
X-66200000Y105100000D03*
X-64200000Y105100000D03*
%TD*%
D32*
%TO.C,TP17*%
X-51300000Y89600000D03*
%TD*%
D35*
%TO.C,C91*%
X-62500000Y52625000D03*
X-60800000Y52625000D03*
%TD*%
D32*
%TO.C,TP43*%
X-59800000Y88800000D03*
%TD*%
D50*
%TO.C,R10*%
X-46700000Y60500000D03*
X-48400000Y60500000D03*
%TD*%
D44*
%TO.C,C4*%
X-13000000Y89650000D03*
X-13000000Y90750000D03*
%TD*%
D32*
%TO.C,TP16*%
X-49200000Y86100000D03*
%TD*%
D28*
%TO.C,C7*%
X-37550000Y72700000D03*
X-37550000Y71000000D03*
%TD*%
D29*
%TO.C,C74*%
X-33900000Y82520000D03*
X-33900000Y81880000D03*
%TD*%
D61*
%TO.C,C22*%
X-63101041Y65801041D03*
X-61898959Y64598959D03*
%TD*%
D32*
%TO.C,TP1*%
X-32300000Y34500000D03*
%TD*%
D49*
%TO.C,C109*%
X-33020000Y76200000D03*
X-32380000Y76200000D03*
%TD*%
D33*
%TO.C,R14*%
X-49850000Y74500000D03*
X-48150000Y74500000D03*
X-49850000Y75300000D03*
X-48150000Y75300000D03*
X-49850000Y76100000D03*
X-48150000Y76100000D03*
X-49850000Y76900000D03*
X-48150000Y76900000D03*
%TD*%
D32*
%TO.C,TP27*%
X-60700000Y67500000D03*
%TD*%
%TO.C,TP32*%
X-55800000Y74400000D03*
%TD*%
D28*
%TO.C,C80*%
X-73500000Y90150000D03*
X-73500000Y88450000D03*
%TD*%
D36*
%TO.C,C17*%
X-58050000Y49575000D03*
X-58050000Y51275000D03*
%TD*%
D28*
%TO.C,R68*%
X-16700000Y94350000D03*
X-16700000Y92650000D03*
%TD*%
D31*
%TO.C,C60*%
X-40380000Y85800000D03*
X-41020000Y85800000D03*
%TD*%
D28*
%TO.C,R41*%
X-72200000Y90150000D03*
X-72200000Y88450000D03*
%TD*%
D34*
%TO.C,Q5*%
X-26050001Y6537498D03*
X-24150001Y6537498D03*
X-25100001Y4662498D03*
%TD*%
D35*
%TO.C,R61*%
X-67350000Y93200000D03*
X-65650000Y93200000D03*
%TD*%
D32*
%TO.C,TP33*%
X-53300000Y49750000D03*
%TD*%
%TO.C,TP20*%
X-45350000Y70300000D03*
%TD*%
D61*
%TO.C,C18*%
X-32901041Y67101041D03*
X-31698959Y65898959D03*
%TD*%
D31*
%TO.C,C62*%
X-40380000Y79400000D03*
X-41020000Y79400000D03*
%TD*%
D28*
%TO.C,R28*%
X-55900000Y82450000D03*
X-55900000Y80750000D03*
%TD*%
D35*
%TO.C,R76*%
X-56950000Y92200000D03*
X-55250000Y92200000D03*
%TD*%
D41*
%TO.C,C106*%
X-38700000Y78680000D03*
X-38700000Y79320000D03*
%TD*%
D35*
%TO.C,R63*%
X-63250000Y89800000D03*
X-61550000Y89800000D03*
%TD*%
D28*
%TO.C,C1*%
X-54500000Y79050000D03*
X-54500000Y77350000D03*
%TD*%
D32*
%TO.C,TP41*%
X-3500000Y86700000D03*
%TD*%
D36*
%TO.C,R32*%
X-40300000Y2150000D03*
X-40300000Y3850000D03*
%TD*%
D32*
%TO.C,TP6*%
X-27500000Y42600000D03*
%TD*%
%TO.C,TP7*%
X-27500000Y44850000D03*
%TD*%
D29*
%TO.C,C104*%
X-40300000Y82520000D03*
X-40300000Y81880000D03*
%TD*%
D50*
%TO.C,R17*%
X-45100000Y35900000D03*
X-46800000Y35900000D03*
%TD*%
D31*
%TO.C,C50*%
X-38780000Y83400000D03*
X-39420000Y83400000D03*
%TD*%
D35*
%TO.C,R62*%
X-63250000Y88500000D03*
X-61550000Y88500000D03*
%TD*%
D50*
%TO.C,C13*%
X-46700000Y59150000D03*
X-48400000Y59150000D03*
%TD*%
D36*
%TO.C,R40*%
X-39000000Y2150000D03*
X-39000000Y3850000D03*
%TD*%
D35*
%TO.C,C14*%
X-48400000Y57250000D03*
X-46700000Y57250000D03*
%TD*%
D32*
%TO.C,TP30*%
X-60500000Y69500000D03*
%TD*%
D50*
%TO.C,R43*%
X-36350000Y41500001D03*
X-38050000Y41500001D03*
%TD*%
D35*
%TO.C,C93*%
X-62500000Y51275000D03*
X-60800000Y51275000D03*
%TD*%
D41*
%TO.C,C69*%
X-37100000Y83480000D03*
X-37100000Y84120000D03*
%TD*%
D35*
%TO.C,R51*%
X-64250000Y93200000D03*
X-62550000Y93200000D03*
%TD*%
%TO.C,R65*%
X-48000000Y7400000D03*
X-46300000Y7400000D03*
%TD*%
%TO.C,R58*%
X-55150000Y103700000D03*
X-53450000Y103700000D03*
%TD*%
%TO.C,R6*%
X-56950000Y90900000D03*
X-55250000Y90900000D03*
%TD*%
D32*
%TO.C,TP13*%
X-42800000Y43550000D03*
%TD*%
D49*
%TO.C,C53*%
X-36220000Y82600000D03*
X-35580000Y82600000D03*
%TD*%
D33*
%TO.C,R46*%
X-62550001Y27100000D03*
X-60850001Y27100000D03*
X-62550001Y27900000D03*
X-60850001Y27900000D03*
X-62550001Y28700000D03*
X-60850001Y28700000D03*
X-62550001Y29500000D03*
X-60850001Y29500000D03*
%TD*%
D32*
%TO.C,TP31*%
X-57200000Y72900000D03*
%TD*%
D50*
%TO.C,C6*%
X-41350000Y5400000D03*
X-43050000Y5400000D03*
%TD*%
D43*
%TO.C,R53*%
X-63800000Y98300000D03*
X-63800000Y96300000D03*
%TD*%
D41*
%TO.C,C85*%
X-35950000Y77080000D03*
X-35950000Y77720000D03*
%TD*%
D32*
%TO.C,TP18*%
X-51200000Y86700000D03*
%TD*%
D47*
%TO.C,FID3*%
X-72600000Y29000000D03*
%TD*%
D36*
%TO.C,R64*%
X-51200000Y100350000D03*
X-51200000Y102050000D03*
%TD*%
D32*
%TO.C,TP44*%
X-66100000Y98200000D03*
%TD*%
D30*
%TO.C,C35*%
X-2950000Y82600000D03*
X-4050000Y82600000D03*
%TD*%
D31*
%TO.C,C70*%
X-38780000Y81000000D03*
X-39420000Y81000000D03*
%TD*%
D32*
%TO.C,TP24*%
X-53900000Y73100000D03*
%TD*%
%TO.C,TP4*%
X-11300000Y28600000D03*
%TD*%
D62*
%TO.C,R35*%
X-29150001Y8949999D03*
X-29150001Y10649999D03*
X-29950001Y8949999D03*
X-29950001Y10649999D03*
X-30750001Y8949999D03*
X-30750001Y10649999D03*
X-31550001Y8949999D03*
X-31550001Y10649999D03*
%TD*%
D44*
%TO.C,C36*%
X-13000000Y80650000D03*
X-13000000Y81750000D03*
%TD*%
D32*
%TO.C,TP47*%
X-48000000Y9150000D03*
%TD*%
D63*
%TO.C,J6*%
X-69725000Y81940000D03*
X-69325000Y80840000D03*
X-69725000Y79740000D03*
X-69925000Y78640000D03*
X-69725000Y77540000D03*
X-69925000Y76440000D03*
X-69725000Y75340000D03*
X-69725000Y74240000D03*
D64*
X-59175000Y75050000D03*
X-59175000Y80750000D03*
D65*
X-72325000Y73450000D03*
X-73325000Y86600000D03*
%TD*%
D28*
%TO.C,R70*%
X-53700000Y84050000D03*
X-53700000Y82350000D03*
%TD*%
D32*
%TO.C,TP29*%
X-59450000Y71450000D03*
%TD*%
D31*
%TO.C,C54*%
X-40380000Y78500000D03*
X-41020000Y78500000D03*
%TD*%
D35*
%TO.C,C16*%
X-62500000Y49725000D03*
X-60800000Y49725000D03*
%TD*%
D32*
%TO.C,TP2*%
X-11300000Y35000000D03*
%TD*%
%TO.C,TP9*%
X-41650000Y41650000D03*
%TD*%
D35*
%TO.C,R77*%
X-56950000Y88300000D03*
X-55250000Y88300000D03*
%TD*%
D30*
%TO.C,C34*%
X-9950000Y82600000D03*
X-11050000Y82600000D03*
%TD*%
%TO.C,C96*%
X-60600000Y99600000D03*
X-61700000Y99600000D03*
%TD*%
%TO.C,C71*%
X-34550000Y80600000D03*
X-35650000Y80600000D03*
%TD*%
D35*
%TO.C,R75*%
X-56950000Y89600000D03*
X-55250000Y89600000D03*
%TD*%
D36*
%TO.C,C24*%
X-48700000Y32299999D03*
X-48700000Y33999999D03*
%TD*%
D44*
%TO.C,C37*%
X-6000000Y80650001D03*
X-6000000Y81750001D03*
%TD*%
D28*
%TO.C,C92*%
X-59400000Y51275001D03*
X-59400000Y49575001D03*
%TD*%
G36*
X-58195264Y1899058D02*
G01*
X-58133025Y1886678D01*
X-58115361Y1879362D01*
X-58066683Y1846837D01*
X-58053164Y1833318D01*
X-58020639Y1784640D01*
X-58013323Y1766977D01*
X-58000942Y1704737D01*
X-58000000Y1695177D01*
X-58000000Y204824D01*
X-58000942Y195264D01*
X-58013323Y133024D01*
X-58020639Y115361D01*
X-58053164Y66683D01*
X-58066683Y53164D01*
X-58115361Y20639D01*
X-58133024Y13323D01*
X-58195263Y942D01*
X-58204823Y0D01*
X-66295177Y0D01*
X-66304737Y942D01*
X-66366977Y13323D01*
X-66384640Y20639D01*
X-66433318Y53164D01*
X-66446837Y66683D01*
X-66479362Y115361D01*
X-66486679Y133025D01*
X-66499059Y195265D01*
X-66500000Y204824D01*
X-66500000Y1695177D01*
X-66499059Y1704736D01*
X-66486679Y1766976D01*
X-66479362Y1784640D01*
X-66446837Y1833318D01*
X-66433318Y1846837D01*
X-66384640Y1879362D01*
X-66366976Y1886679D01*
X-66304736Y1899059D01*
X-66295177Y1900000D01*
X-58204823Y1900000D01*
X-58195264Y1899058D01*
G37*
M02*
