%TF.GenerationSoftware,KiCad,Pcbnew,8.0.3*%
%TF.CreationDate,2024-06-13T08:31:56-07:00*%
%TF.ProjectId,squishy-main,73717569-7368-4792-9d6d-61696e2e6b69,2*%
%TF.SameCoordinates,PXb3c4820PY930e7c0*%
%TF.FileFunction,Legend,Bot*%
%TF.FilePolarity,Positive*%
%FSLAX46Y46*%
G04 Gerber Fmt 4.6, Leading zero omitted, Abs format (unit mm)*
G04 Created by KiCad (PCBNEW 8.0.3) date 2024-06-13 08:31:56*
%MOMM*%
%LPD*%
G01*
G04 APERTURE LIST*
G04 Aperture macros list*
%AMRoundRect*
0 Rectangle with rounded corners*
0 $1 Rounding radius*
0 $2 $3 $4 $5 $6 $7 $8 $9 X,Y pos of 4 corners*
0 Add a 4 corners polygon primitive as box body*
4,1,4,$2,$3,$4,$5,$6,$7,$8,$9,$2,$3,0*
0 Add four circle primitives for the rounded corners*
1,1,$1+$1,$2,$3*
1,1,$1+$1,$4,$5*
1,1,$1+$1,$6,$7*
1,1,$1+$1,$8,$9*
0 Add four rect primitives between the rounded corners*
20,1,$1+$1,$2,$3,$4,$5,0*
20,1,$1+$1,$4,$5,$6,$7,0*
20,1,$1+$1,$6,$7,$8,$9,0*
20,1,$1+$1,$8,$9,$2,$3,0*%
G04 Aperture macros list end*
%ADD10C,0.203200*%
%ADD11C,0.150000*%
%ADD12C,0.200000*%
%ADD13C,0.100000*%
%ADD14C,0.120000*%
%ADD15C,0.050000*%
%ADD16C,6.400000*%
%ADD17RoundRect,0.260000X-1.712500X-1.072500X1.712500X-1.072500X1.712500X1.072500X-1.712500X1.072500X0*%
%ADD18RoundRect,0.260000X1.712500X1.072500X-1.712500X1.072500X-1.712500X-1.072500X1.712500X-1.072500X0*%
%ADD19C,0.800000*%
%ADD20C,1.200000*%
%ADD21C,0.750000*%
%ADD22O,0.750000X1.050000*%
%ADD23C,0.700000*%
%ADD24C,0.600000*%
%ADD25O,2.100000X1.100000*%
%ADD26O,1.700000X1.100000*%
%ADD27C,0.850000*%
%ADD28R,1.700000X1.700000*%
%ADD29O,1.700000X1.700000*%
%ADD30RoundRect,0.250000X-0.750000X2.050000X-0.750000X-2.050000X0.750000X-2.050000X0.750000X2.050000X0*%
%ADD31O,2.000000X4.200000*%
%ADD32O,4.200000X2.000000*%
%ADD33RoundRect,0.225000X-0.225000X0.275000X-0.225000X-0.275000X0.225000X-0.275000X0.225000X0.275000X0*%
%ADD34RoundRect,0.100000X-0.100000X0.130000X-0.100000X-0.130000X0.100000X-0.130000X0.100000X0.130000X0*%
%ADD35RoundRect,0.150000X0.200000X0.150000X-0.200000X0.150000X-0.200000X-0.150000X0.200000X-0.150000X0*%
%ADD36RoundRect,0.100000X0.130000X0.100000X-0.130000X0.100000X-0.130000X-0.100000X0.130000X-0.100000X0*%
%ADD37C,1.000000*%
%ADD38RoundRect,0.125000X-0.325000X-0.125000X0.325000X-0.125000X0.325000X0.125000X-0.325000X0.125000X0*%
%ADD39RoundRect,0.150000X-0.150000X0.587500X-0.150000X-0.587500X0.150000X-0.587500X0.150000X0.587500X0*%
%ADD40RoundRect,0.225000X-0.275000X-0.225000X0.275000X-0.225000X0.275000X0.225000X-0.275000X0.225000X0*%
%ADD41RoundRect,0.225000X0.225000X-0.275000X0.225000X0.275000X-0.225000X0.275000X-0.225000X-0.275000X0*%
%ADD42RoundRect,0.270833X-0.379167X0.429167X-0.379167X-0.429167X0.379167X-0.429167X0.379167X0.429167X0*%
%ADD43RoundRect,0.075000X0.325000X0.075000X-0.325000X0.075000X-0.325000X-0.075000X0.325000X-0.075000X0*%
%ADD44RoundRect,0.200000X0.200000X0.600000X-0.200000X0.600000X-0.200000X-0.600000X0.200000X-0.600000X0*%
%ADD45RoundRect,0.112500X-0.112500X0.187500X-0.112500X-0.187500X0.112500X-0.187500X0.112500X0.187500X0*%
%ADD46RoundRect,0.100000X0.100000X-0.130000X0.100000X0.130000X-0.100000X0.130000X-0.100000X-0.130000X0*%
%ADD47RoundRect,0.150000X0.150000X-0.825000X0.150000X0.825000X-0.150000X0.825000X-0.150000X-0.825000X0*%
%ADD48RoundRect,0.217100X-0.432900X0.432900X-0.432900X-0.432900X0.432900X-0.432900X0.432900X0.432900X0*%
%ADD49RoundRect,0.150000X0.150000X-0.200000X0.150000X0.200000X-0.150000X0.200000X-0.150000X-0.200000X0*%
%ADD50RoundRect,0.087500X0.362500X-0.087500X0.362500X0.087500X-0.362500X0.087500X-0.362500X-0.087500X0*%
%ADD51RoundRect,0.112500X0.337500X-0.112500X0.337500X0.112500X-0.337500X0.112500X-0.337500X-0.112500X0*%
%ADD52C,1.500000*%
%ADD53RoundRect,0.150000X-0.587500X-0.150000X0.587500X-0.150000X0.587500X0.150000X-0.587500X0.150000X0*%
%ADD54RoundRect,0.100000X-0.130000X-0.100000X0.130000X-0.100000X0.130000X0.100000X-0.130000X0.100000X0*%
%ADD55RoundRect,0.225000X0.275000X0.225000X-0.275000X0.225000X-0.275000X-0.225000X0.275000X-0.225000X0*%
%ADD56RoundRect,0.087500X-0.087500X0.127500X-0.087500X-0.127500X0.087500X-0.127500X0.087500X0.127500X0*%
%ADD57RoundRect,0.250000X-0.375000X0.300000X-0.375000X-0.300000X0.375000X-0.300000X0.375000X0.300000X0*%
%ADD58RoundRect,0.087500X-0.087500X0.242500X-0.087500X-0.242500X0.087500X-0.242500X0.087500X0.242500X0*%
%ADD59RoundRect,0.112500X0.112500X-0.550000X0.112500X0.550000X-0.112500X0.550000X-0.112500X-0.550000X0*%
%ADD60RoundRect,0.150000X-0.150000X0.200000X-0.150000X-0.200000X0.150000X-0.200000X0.150000X0.200000X0*%
%ADD61RoundRect,0.150000X0.150000X-0.587500X0.150000X0.587500X-0.150000X0.587500X-0.150000X-0.587500X0*%
%ADD62RoundRect,0.250000X0.300000X-2.050000X0.300000X2.050000X-0.300000X2.050000X-0.300000X-2.050000X0*%
%ADD63RoundRect,0.250002X5.149998X-4.449998X5.149998X4.449998X-5.149998X4.449998X-5.149998X-4.449998X0*%
%ADD64RoundRect,0.125000X0.325000X0.125000X-0.325000X0.125000X-0.325000X-0.125000X0.325000X-0.125000X0*%
%ADD65RoundRect,0.217100X-0.432900X-0.432900X0.432900X-0.432900X0.432900X0.432900X-0.432900X0.432900X0*%
%ADD66RoundRect,0.225000X-0.353553X0.035355X0.035355X-0.353553X0.353553X-0.035355X-0.035355X0.353553X0*%
%ADD67RoundRect,0.125000X0.125000X-0.325000X0.125000X0.325000X-0.125000X0.325000X-0.125000X-0.325000X0*%
%ADD68RoundRect,0.200000X0.800000X-0.200000X0.800000X0.200000X-0.800000X0.200000X-0.800000X-0.200000X0*%
%ADD69RoundRect,0.250000X0.450000X-0.650000X0.450000X0.650000X-0.450000X0.650000X-0.450000X-0.650000X0*%
%ADD70RoundRect,0.250000X0.700000X-0.450000X0.700000X0.450000X-0.700000X0.450000X-0.700000X-0.450000X0*%
G04 APERTURE END LIST*
D10*
X-54800000Y74400000D02*
X-53300000Y74400000D01*
X-53400000Y88400000D02*
X-53200000Y88200000D01*
X-47800000Y67300000D02*
X-48082843Y67300000D01*
X-50600000Y87400000D02*
X-50317157Y87400000D01*
X-53600000Y72200000D02*
X-53600000Y71917157D01*
X-43502318Y65552318D02*
X-43502318Y64800000D01*
X-54992219Y67417831D02*
X-53105025Y69305025D01*
X-60600000Y23600000D02*
X-60400000Y23800000D01*
X-45323077Y69300000D02*
X-45323077Y67400000D01*
X-48000000Y10200000D02*
X-48000000Y11100000D01*
X-27500000Y41650000D02*
X-27500000Y40950000D01*
X-63221759Y67478241D02*
X-64200000Y66500000D01*
X-10150000Y37900000D02*
X-10350000Y37700000D01*
D11*
X-2000000Y75200000D02*
G75*
G02*
X-1500000Y74700000I0J-500000D01*
G01*
X-1500000Y50700000D02*
G75*
G02*
X-2000000Y50200000I-500000J0D01*
G01*
D10*
X-52300000Y49750000D02*
X-52100000Y49550000D01*
X-11300000Y27650000D02*
X-11500000Y27450000D01*
X-61900000Y67300000D02*
X-61700000Y67500000D01*
X-53600000Y71917157D02*
X-53317157Y72200000D01*
X-50300000Y72500000D02*
X-50100000Y72300000D01*
X-10350000Y35000000D02*
X-10150000Y34800000D01*
X-7300000Y94400000D02*
X-7700000Y94400000D01*
X-53300000Y100400000D02*
X-53300000Y101300000D01*
X-48000000Y11100000D02*
X-48500000Y11099999D01*
X-27500000Y46500000D02*
X-28000000Y46499998D01*
X-48300000Y86100000D02*
X-46900000Y86100000D01*
X-11100000Y27450000D02*
X-11300000Y27650000D01*
X-10350000Y35000000D02*
X-9650000Y35000000D01*
X-61700000Y67500000D02*
X-61900000Y67700000D01*
X-53105025Y69305025D02*
X-53105025Y71705025D01*
X-4500000Y86700000D02*
X-5200000Y86700000D01*
X-9650000Y34500000D02*
X-9650002Y35000000D01*
X-48300000Y86100000D02*
X-48100000Y85900000D01*
X-47800000Y67300000D02*
X-49795807Y65304193D01*
D11*
X-9499999Y74700000D02*
X-9500000Y50700001D01*
D10*
X-51800000Y73200000D02*
X-52200000Y73200000D01*
X-9650000Y37700000D02*
X-9650002Y38200000D01*
X-60500000Y88200000D02*
X-60994975Y87705025D01*
X-54800000Y51900000D02*
X-54800000Y52300000D01*
X-39000000Y7500000D02*
X-39500000Y7499998D01*
X-58600000Y67000000D02*
X-58800000Y67200000D01*
X-50100000Y72300000D02*
X-50100000Y73500000D01*
X-41800000Y43550000D02*
X-41600000Y43350000D01*
X-61700000Y69300000D02*
X-61500000Y69500000D01*
X-57200000Y73900000D02*
X-57000000Y74100000D01*
X-58650000Y33000000D02*
X-58450000Y33200000D01*
X-13700000Y33250001D02*
X-14200000Y33249999D01*
X-51400000Y67100000D02*
X-50600000Y67100000D01*
X-55000000Y67400000D02*
X-55000000Y66200000D01*
X-11500000Y27450000D02*
X-11100000Y27450000D01*
X-10299999Y41600000D02*
X-9599999Y41600000D01*
X-66700000Y97500000D02*
X-67901803Y96298197D01*
X-11300000Y26950000D02*
X-10800000Y26950002D01*
D11*
X-9499999Y74700000D02*
G75*
G02*
X-9000001Y75199999I499999J0D01*
G01*
D10*
X-27700000Y46000000D02*
X-27500000Y45800000D01*
X-49799999Y64600000D02*
X-49799999Y65300000D01*
X-54800000Y52300000D02*
X-55000000Y52100000D01*
X-60782843Y88200000D02*
X-60500000Y87917157D01*
X-10150000Y34800000D02*
X-10150000Y35200000D01*
X-52900000Y28050000D02*
X-52700000Y28250000D01*
X-58850000Y33200000D02*
X-58650000Y33000000D01*
X-52100000Y49550000D02*
X-52100000Y49950000D01*
X-50797261Y77202739D02*
X-50005788Y77994212D01*
X-48082843Y67300000D02*
X-47800000Y67017157D01*
X-52200000Y73200000D02*
X-52000000Y73000000D01*
X-12750000Y44200000D02*
X-12050000Y44200000D01*
X-45323077Y69300000D02*
X-45523077Y69100000D01*
X-4700000Y86500000D02*
X-4500000Y86700000D01*
X-41600000Y43750000D02*
X-41800000Y43550000D01*
X-50000000Y67700000D02*
X-50600000Y67100000D01*
X-69200000Y96300000D02*
X-67900000Y96300000D01*
X-61900000Y67700000D02*
X-61900000Y67300000D01*
X-60600000Y71600000D02*
X-60600000Y71200000D01*
X-13900000Y32250000D02*
X-13700000Y32050000D01*
X-13500000Y32250000D02*
X-13900000Y32250000D01*
D11*
X-9000000Y50200000D02*
G75*
G02*
X-9500000Y50700001I0J500000D01*
G01*
D10*
X-52200000Y68200000D02*
X-52482843Y68200000D01*
X-50000000Y67417157D02*
X-50000000Y67700000D01*
X-50317157Y87400000D02*
X-50600000Y87682843D01*
X-59000000Y67000000D02*
X-58600000Y67000000D01*
X-56600000Y67800000D02*
X-56600000Y64900000D01*
X-47800000Y67017157D02*
X-47800000Y67300000D01*
X-53000000Y88400000D02*
X-53400000Y88400000D01*
X-51300000Y90500000D02*
X-51100000Y90700000D01*
X-52200000Y68200000D02*
X-53198879Y67201121D01*
X-56000000Y48900000D02*
X-56200000Y48700000D01*
X-42900002Y41450000D02*
X-42700002Y41650000D01*
X-53200000Y88200000D02*
X-53200000Y88900000D01*
X-54800000Y70300000D02*
X-55000000Y70100000D01*
X-11300000Y27650000D02*
X-11300000Y26950000D01*
X-5200000Y87100000D02*
X-5500000Y87100000D01*
X-45523077Y69100000D02*
X-45123077Y69100000D01*
X-7500000Y94200000D02*
X-7300000Y94400000D01*
X-54600000Y74200000D02*
X-54600000Y74600000D01*
X-50282843Y67700000D02*
X-50000000Y67417157D01*
D11*
X-9000000Y50200000D02*
X-2000000Y50200000D01*
D10*
X-10350000Y37700000D02*
X-9650000Y37700000D01*
X-53100000Y28250000D02*
X-52900000Y28050000D01*
X-60400000Y71400000D02*
X-60600000Y71600000D01*
X-54800000Y74400000D02*
X-54600000Y74200000D01*
X-27700000Y41450000D02*
X-27300000Y41450000D01*
X-54600000Y74600000D02*
X-54800000Y74400000D01*
X-27500000Y41650000D02*
X-27700000Y41450000D01*
X-47800000Y10400001D02*
X-48200000Y10400001D01*
X-51500000Y90700000D02*
X-51300000Y90500000D01*
X-60800000Y23800000D02*
X-60600000Y23600000D01*
X-50000000Y67700000D02*
X-50282843Y67700000D01*
X-32100000Y35650000D02*
X-32500000Y35650000D01*
X-10099999Y41400000D02*
X-10099999Y41800000D01*
X-49900000Y72500000D02*
X-50300000Y72500000D01*
X-52200000Y67917157D02*
X-52200000Y68200000D01*
X-54117157Y99300000D02*
X-54400000Y99582843D01*
X-53200000Y66800000D02*
X-53200000Y67200000D01*
X-66982843Y97500000D02*
X-66700000Y97217157D01*
X-57400000Y74100000D02*
X-57200000Y73900000D01*
X-48100000Y85900000D02*
X-48100000Y86300000D01*
X-10299999Y41600000D02*
X-10099999Y41400000D01*
X-58650000Y33000000D02*
X-58650000Y33700000D01*
X-56000000Y47699998D02*
X-55500000Y47700000D01*
X-50100000Y73500000D02*
X-47600000Y73500000D01*
X-51100000Y90700000D02*
X-51500000Y90700000D01*
X-49100000Y78700000D02*
X-49100000Y78000000D01*
X-41600000Y43350000D02*
X-41600000Y43750000D01*
X-61700000Y69700000D02*
X-61700000Y69300000D01*
X-61700000Y67500000D02*
X-63200000Y67500000D01*
X-12550000Y44400000D02*
X-12750000Y44200000D01*
X-57200000Y73900000D02*
X-57200000Y74600000D01*
X-50600000Y87682843D02*
X-50600000Y87400000D01*
X-41800000Y43550000D02*
X-41100000Y43550000D01*
X-46900000Y85200000D02*
X-46900000Y86100000D01*
X-54800000Y70300000D02*
X-54800000Y69600000D01*
X-13700000Y32050000D02*
X-13700000Y33250000D01*
X-32300000Y36150000D02*
X-32800000Y36149998D01*
X-48100000Y86300000D02*
X-48300000Y86100000D01*
X-54400000Y99582843D02*
X-54400000Y99300000D01*
X-27500000Y45800000D02*
X-27500000Y46500000D01*
X-53200000Y88200000D02*
X-53000000Y88400000D01*
X-39000000Y6800000D02*
X-38800000Y7000000D01*
X-56000000Y48900000D02*
X-56000000Y47700000D01*
X-57000000Y74100000D02*
X-57400000Y74100000D01*
X-52100000Y75600000D02*
X-52100000Y76400000D01*
X-50800000Y77200000D02*
X-50800000Y74800000D01*
X-60600000Y23600000D02*
X-60600000Y24300000D01*
X-64200000Y66500000D02*
X-64900000Y66500000D01*
D11*
X-9000001Y75199999D02*
X-2000000Y75199999D01*
D10*
X-32300000Y35450000D02*
X-32300000Y36150000D01*
X-56596078Y67803922D02*
X-54800000Y69600000D01*
X-58650000Y33700000D02*
X-59150000Y33699998D01*
X-48000000Y10200000D02*
X-47800000Y10400001D01*
X-27300000Y46000000D02*
X-27700000Y46000000D01*
X-60400000Y23800000D02*
X-60800000Y23800000D01*
X-52000000Y73600000D02*
X-50797394Y74802606D01*
X-10350000Y37700000D02*
X-10150000Y37500000D01*
X-69200000Y96300000D02*
X-69200000Y95700000D01*
X-7500000Y95000001D02*
X-6959522Y95000001D01*
X-54400000Y99300000D02*
X-54117157Y99300000D01*
X-55000000Y52100000D02*
X-54800000Y51900000D01*
X-55800000Y48700000D02*
X-56000000Y48900000D01*
X-50000000Y78000000D02*
X-49100000Y78000000D01*
X-54400000Y99300000D02*
X-53300649Y100399351D01*
X-58800000Y67200000D02*
X-59000000Y67000000D01*
X-43502318Y65552318D02*
X-45325587Y67375587D01*
X-42700002Y41650000D02*
X-42900002Y41850000D01*
X-27300000Y41450000D02*
X-27500000Y41650000D01*
X-61500000Y69500000D02*
X-61700000Y69700000D01*
X-12750000Y44200000D02*
X-12550000Y44000000D01*
X-10150000Y35200000D02*
X-10350000Y35000000D01*
D11*
X-1500000Y50700000D02*
X-1500000Y74700000D01*
D10*
X-10099999Y41800000D02*
X-10299999Y41600000D01*
X-64600000Y87699999D02*
X-61000000Y87699999D01*
X-53600000Y72200000D02*
X-53105025Y71705025D01*
X-55000000Y70100000D02*
X-54600000Y70100000D01*
X-38800000Y7000000D02*
X-39200000Y7000000D01*
X-51300000Y90500000D02*
X-51300000Y91200000D01*
X-45123077Y69100000D02*
X-45323077Y69300000D01*
X-50100000Y72300000D02*
X-49900000Y72500000D01*
X-10150000Y37500000D02*
X-10150000Y37900000D01*
X-27500000Y45800000D02*
X-27300000Y46000000D01*
X-56200000Y48700000D02*
X-55800000Y48700000D01*
X-55000000Y52100000D02*
X-54300000Y52100000D01*
X-51400000Y66800000D02*
X-51400000Y67100000D01*
X-52900000Y28050000D02*
X-52900000Y28750000D01*
X-52300000Y49750000D02*
X-51600000Y49750000D01*
X-58800000Y67200000D02*
X-58800000Y66500000D01*
X-52000000Y73000000D02*
X-51800000Y73200000D01*
X-7700000Y94400000D02*
X-7500000Y94200000D01*
X-60400000Y71400000D02*
X-61100000Y71400000D01*
X-12050000Y44200000D02*
X-12050002Y44700000D01*
X-42700002Y41650000D02*
X-43400002Y41650000D01*
X-12550000Y44000000D02*
X-12550000Y44400000D01*
X-28000000Y40950000D02*
X-27500000Y40950002D01*
X-9599999Y41600000D02*
X-9600001Y42100000D01*
X-39000000Y6800000D02*
X-39000000Y7500000D01*
X-60600000Y71200000D02*
X-60400000Y71400000D01*
X-66700000Y97217157D02*
X-66700000Y97500000D01*
X-53300000Y74400000D02*
X-52103063Y75596937D01*
X-53317157Y72200000D02*
X-53600000Y72200000D01*
X-13700000Y32050000D02*
X-13500000Y32250000D01*
X-60500000Y88200000D02*
X-60782843Y88200000D01*
X-61500000Y69500000D02*
X-62200000Y69500000D01*
X-66700000Y97500000D02*
X-66982843Y97500000D01*
X-60100000Y24300002D02*
X-60600000Y24300000D01*
X-52400000Y28750002D02*
X-52900000Y28750000D01*
X-4500000Y86700000D02*
X-4700000Y86900000D01*
X-48200000Y10400001D02*
X-48000000Y10200000D01*
X-32300000Y35450000D02*
X-32100000Y35650000D01*
X-52100000Y49950000D02*
X-52300000Y49750000D01*
X-7500000Y94200000D02*
X-7500000Y95000000D01*
X-54600000Y70100000D02*
X-54800000Y70300000D01*
X-52700000Y28250000D02*
X-53100000Y28250000D01*
X-60500000Y87917157D02*
X-60500000Y88200000D01*
X-52000000Y73000000D02*
X-52000000Y73600000D01*
X-4700000Y86900000D02*
X-4700000Y86500000D01*
X-52482843Y68200000D02*
X-52200000Y67917157D01*
X-32500000Y35650000D02*
X-32300000Y35450000D01*
X-42900002Y41850000D02*
X-42900002Y41450000D01*
X-39200000Y7000000D02*
X-39000000Y6800000D01*
X-41100000Y43550000D02*
X-41100002Y44050000D01*
X-43400002Y41650000D02*
X-43400000Y41150000D01*
X-5200000Y87100000D02*
X-5200000Y86700000D01*
X-58450000Y33200000D02*
X-58850000Y33200000D01*
X-50600000Y87400000D02*
X-50105025Y87894975D01*
D11*
X-3322200Y50989161D02*
X-3369820Y51132018D01*
X-3369820Y51132018D02*
X-3369820Y51370113D01*
X-3369820Y51370113D02*
X-3322200Y51465351D01*
X-3322200Y51465351D02*
X-3274581Y51512970D01*
X-3274581Y51512970D02*
X-3179343Y51560589D01*
X-3179343Y51560589D02*
X-3084105Y51560589D01*
X-3084105Y51560589D02*
X-2988867Y51512970D01*
X-2988867Y51512970D02*
X-2941248Y51465351D01*
X-2941248Y51465351D02*
X-2893629Y51370113D01*
X-2893629Y51370113D02*
X-2846010Y51179637D01*
X-2846010Y51179637D02*
X-2798391Y51084399D01*
X-2798391Y51084399D02*
X-2750772Y51036780D01*
X-2750772Y51036780D02*
X-2655534Y50989161D01*
X-2655534Y50989161D02*
X-2560296Y50989161D01*
X-2560296Y50989161D02*
X-2465058Y51036780D01*
X-2465058Y51036780D02*
X-2417439Y51084399D01*
X-2417439Y51084399D02*
X-2369820Y51179637D01*
X-2369820Y51179637D02*
X-2369820Y51417732D01*
X-2369820Y51417732D02*
X-2417439Y51560589D01*
X-2846010Y51989161D02*
X-2846010Y52322494D01*
X-3369820Y52465351D02*
X-3369820Y51989161D01*
X-3369820Y51989161D02*
X-2369820Y51989161D01*
X-2369820Y51989161D02*
X-2369820Y52465351D01*
X-3369820Y53465351D02*
X-2893629Y53132018D01*
X-3369820Y52893923D02*
X-2369820Y52893923D01*
X-2369820Y52893923D02*
X-2369820Y53274875D01*
X-2369820Y53274875D02*
X-2417439Y53370113D01*
X-2417439Y53370113D02*
X-2465058Y53417732D01*
X-2465058Y53417732D02*
X-2560296Y53465351D01*
X-2560296Y53465351D02*
X-2703153Y53465351D01*
X-2703153Y53465351D02*
X-2798391Y53417732D01*
X-2798391Y53417732D02*
X-2846010Y53370113D01*
X-2846010Y53370113D02*
X-2893629Y53274875D01*
X-2893629Y53274875D02*
X-2893629Y52893923D01*
X-3369820Y53893923D02*
X-2369820Y53893923D01*
X-3084105Y54322494D02*
X-3084105Y54798684D01*
X-3369820Y54227256D02*
X-2369820Y54560589D01*
X-2369820Y54560589D02*
X-3369820Y54893922D01*
X-3369820Y55703446D02*
X-3369820Y55227256D01*
X-3369820Y55227256D02*
X-2369820Y55227256D01*
D12*
X-12175435Y51848245D02*
X-10425435Y51848245D01*
X-12175435Y52598245D02*
X-11258768Y52598245D01*
X-11258768Y52598245D02*
X-11092101Y52514912D01*
X-11092101Y52514912D02*
X-11008768Y52348245D01*
X-11008768Y52348245D02*
X-11008768Y52098245D01*
X-11008768Y52098245D02*
X-11092101Y51931578D01*
X-11092101Y51931578D02*
X-11175435Y51848245D01*
X-11008768Y53181578D02*
X-11008768Y53848245D01*
X-10425435Y53431578D02*
X-11925435Y53431578D01*
X-11925435Y53431578D02*
X-12092101Y53514911D01*
X-12092101Y53514911D02*
X-12175435Y53681578D01*
X-12175435Y53681578D02*
X-12175435Y53848245D01*
X-11008768Y54181578D02*
X-11008768Y54848245D01*
X-10425435Y54431578D02*
X-11925435Y54431578D01*
X-11925435Y54431578D02*
X-12092101Y54514911D01*
X-12092101Y54514911D02*
X-12175435Y54681578D01*
X-12175435Y54681578D02*
X-12175435Y54848245D01*
X-11008768Y55431578D02*
X-12758768Y55431578D01*
X-11092101Y55431578D02*
X-11008768Y55598245D01*
X-11008768Y55598245D02*
X-11008768Y55931578D01*
X-11008768Y55931578D02*
X-11092101Y56098245D01*
X-11092101Y56098245D02*
X-11175435Y56181578D01*
X-11175435Y56181578D02*
X-11342101Y56264911D01*
X-11342101Y56264911D02*
X-11842101Y56264911D01*
X-11842101Y56264911D02*
X-12008768Y56181578D01*
X-12008768Y56181578D02*
X-12092101Y56098245D01*
X-12092101Y56098245D02*
X-12175435Y55931578D01*
X-12175435Y55931578D02*
X-12175435Y55598245D01*
X-12175435Y55598245D02*
X-12092101Y55431578D01*
X-12092101Y56931578D02*
X-12175435Y57098244D01*
X-12175435Y57098244D02*
X-12175435Y57431578D01*
X-12175435Y57431578D02*
X-12092101Y57598244D01*
X-12092101Y57598244D02*
X-11925435Y57681578D01*
X-11925435Y57681578D02*
X-11842101Y57681578D01*
X-11842101Y57681578D02*
X-11675435Y57598244D01*
X-11675435Y57598244D02*
X-11592101Y57431578D01*
X-11592101Y57431578D02*
X-11592101Y57181578D01*
X-11592101Y57181578D02*
X-11508768Y57014911D01*
X-11508768Y57014911D02*
X-11342101Y56931578D01*
X-11342101Y56931578D02*
X-11258768Y56931578D01*
X-11258768Y56931578D02*
X-11092101Y57014911D01*
X-11092101Y57014911D02*
X-11008768Y57181578D01*
X-11008768Y57181578D02*
X-11008768Y57431578D01*
X-11008768Y57431578D02*
X-11092101Y57598244D01*
X-12008768Y58431578D02*
X-12092101Y58514911D01*
X-12092101Y58514911D02*
X-12175435Y58431578D01*
X-12175435Y58431578D02*
X-12092101Y58348245D01*
X-12092101Y58348245D02*
X-12008768Y58431578D01*
X-12008768Y58431578D02*
X-12175435Y58431578D01*
X-11092101Y58431578D02*
X-11175435Y58514911D01*
X-11175435Y58514911D02*
X-11258768Y58431578D01*
X-11258768Y58431578D02*
X-11175435Y58348245D01*
X-11175435Y58348245D02*
X-11092101Y58431578D01*
X-11092101Y58431578D02*
X-11258768Y58431578D01*
X-10342101Y60514911D02*
X-12592101Y59014911D01*
X-10342101Y62348244D02*
X-12592101Y60848244D01*
X-12092101Y62848244D02*
X-12175435Y63014910D01*
X-12175435Y63014910D02*
X-12175435Y63348244D01*
X-12175435Y63348244D02*
X-12092101Y63514910D01*
X-12092101Y63514910D02*
X-11925435Y63598244D01*
X-11925435Y63598244D02*
X-11842101Y63598244D01*
X-11842101Y63598244D02*
X-11675435Y63514910D01*
X-11675435Y63514910D02*
X-11592101Y63348244D01*
X-11592101Y63348244D02*
X-11592101Y63098244D01*
X-11592101Y63098244D02*
X-11508768Y62931577D01*
X-11508768Y62931577D02*
X-11342101Y62848244D01*
X-11342101Y62848244D02*
X-11258768Y62848244D01*
X-11258768Y62848244D02*
X-11092101Y62931577D01*
X-11092101Y62931577D02*
X-11008768Y63098244D01*
X-11008768Y63098244D02*
X-11008768Y63348244D01*
X-11008768Y63348244D02*
X-11092101Y63514910D01*
X-12092101Y65098244D02*
X-12175435Y64931577D01*
X-12175435Y64931577D02*
X-12175435Y64598244D01*
X-12175435Y64598244D02*
X-12092101Y64431577D01*
X-12092101Y64431577D02*
X-12008768Y64348244D01*
X-12008768Y64348244D02*
X-11842101Y64264911D01*
X-11842101Y64264911D02*
X-11342101Y64264911D01*
X-11342101Y64264911D02*
X-11175435Y64348244D01*
X-11175435Y64348244D02*
X-11092101Y64431577D01*
X-11092101Y64431577D02*
X-11008768Y64598244D01*
X-11008768Y64598244D02*
X-11008768Y64931577D01*
X-11008768Y64931577D02*
X-11092101Y65098244D01*
X-12092101Y65764911D02*
X-12175435Y65931577D01*
X-12175435Y65931577D02*
X-12175435Y66264911D01*
X-12175435Y66264911D02*
X-12092101Y66431577D01*
X-12092101Y66431577D02*
X-11925435Y66514911D01*
X-11925435Y66514911D02*
X-11842101Y66514911D01*
X-11842101Y66514911D02*
X-11675435Y66431577D01*
X-11675435Y66431577D02*
X-11592101Y66264911D01*
X-11592101Y66264911D02*
X-11592101Y66014911D01*
X-11592101Y66014911D02*
X-11508768Y65848244D01*
X-11508768Y65848244D02*
X-11342101Y65764911D01*
X-11342101Y65764911D02*
X-11258768Y65764911D01*
X-11258768Y65764911D02*
X-11092101Y65848244D01*
X-11092101Y65848244D02*
X-11008768Y66014911D01*
X-11008768Y66014911D02*
X-11008768Y66264911D01*
X-11008768Y66264911D02*
X-11092101Y66431577D01*
X-12175435Y67264911D02*
X-11008768Y67264911D01*
X-10425435Y67264911D02*
X-10508768Y67181578D01*
X-10508768Y67181578D02*
X-10592101Y67264911D01*
X-10592101Y67264911D02*
X-10508768Y67348244D01*
X-10508768Y67348244D02*
X-10425435Y67264911D01*
X-10425435Y67264911D02*
X-10592101Y67264911D01*
X-12008768Y68098244D02*
X-12092101Y68181577D01*
X-12092101Y68181577D02*
X-12175435Y68098244D01*
X-12175435Y68098244D02*
X-12092101Y68014911D01*
X-12092101Y68014911D02*
X-12008768Y68098244D01*
X-12008768Y68098244D02*
X-12175435Y68098244D01*
X-12175435Y68931577D02*
X-11008768Y68931577D01*
X-11175435Y68931577D02*
X-11092101Y69014910D01*
X-11092101Y69014910D02*
X-11008768Y69181577D01*
X-11008768Y69181577D02*
X-11008768Y69431577D01*
X-11008768Y69431577D02*
X-11092101Y69598244D01*
X-11092101Y69598244D02*
X-11258768Y69681577D01*
X-11258768Y69681577D02*
X-12175435Y69681577D01*
X-11258768Y69681577D02*
X-11092101Y69764910D01*
X-11092101Y69764910D02*
X-11008768Y69931577D01*
X-11008768Y69931577D02*
X-11008768Y70181577D01*
X-11008768Y70181577D02*
X-11092101Y70348244D01*
X-11092101Y70348244D02*
X-11258768Y70431577D01*
X-11258768Y70431577D02*
X-12175435Y70431577D01*
X-12175435Y71514910D02*
X-12092101Y71348243D01*
X-12092101Y71348243D02*
X-12008768Y71264910D01*
X-12008768Y71264910D02*
X-11842101Y71181577D01*
X-11842101Y71181577D02*
X-11342101Y71181577D01*
X-11342101Y71181577D02*
X-11175435Y71264910D01*
X-11175435Y71264910D02*
X-11092101Y71348243D01*
X-11092101Y71348243D02*
X-11008768Y71514910D01*
X-11008768Y71514910D02*
X-11008768Y71764910D01*
X-11008768Y71764910D02*
X-11092101Y71931577D01*
X-11092101Y71931577D02*
X-11175435Y72014910D01*
X-11175435Y72014910D02*
X-11342101Y72098243D01*
X-11342101Y72098243D02*
X-11842101Y72098243D01*
X-11842101Y72098243D02*
X-12008768Y72014910D01*
X-12008768Y72014910D02*
X-12092101Y71931577D01*
X-12092101Y71931577D02*
X-12175435Y71764910D01*
X-12175435Y71764910D02*
X-12175435Y71514910D01*
X-12092101Y73514910D02*
X-12175435Y73348243D01*
X-12175435Y73348243D02*
X-12175435Y73014910D01*
X-12175435Y73014910D02*
X-12092101Y72848243D01*
X-12092101Y72848243D02*
X-11925435Y72764910D01*
X-11925435Y72764910D02*
X-11258768Y72764910D01*
X-11258768Y72764910D02*
X-11092101Y72848243D01*
X-11092101Y72848243D02*
X-11008768Y73014910D01*
X-11008768Y73014910D02*
X-11008768Y73348243D01*
X-11008768Y73348243D02*
X-11092101Y73514910D01*
X-11092101Y73514910D02*
X-11258768Y73598243D01*
X-11258768Y73598243D02*
X-11425435Y73598243D01*
X-11425435Y73598243D02*
X-11592101Y72764910D01*
D11*
X-59366668Y34245181D02*
X-59700001Y33245181D01*
X-59700001Y33245181D02*
X-60033334Y34245181D01*
X-60700001Y33768991D02*
X-60842858Y33721372D01*
X-60842858Y33721372D02*
X-60890477Y33673753D01*
X-60890477Y33673753D02*
X-60938096Y33578515D01*
X-60938096Y33578515D02*
X-60938096Y33435658D01*
X-60938096Y33435658D02*
X-60890477Y33340420D01*
X-60890477Y33340420D02*
X-60842858Y33292800D01*
X-60842858Y33292800D02*
X-60747620Y33245181D01*
X-60747620Y33245181D02*
X-60366668Y33245181D01*
X-60366668Y33245181D02*
X-60366668Y34245181D01*
X-60366668Y34245181D02*
X-60700001Y34245181D01*
X-60700001Y34245181D02*
X-60795239Y34197562D01*
X-60795239Y34197562D02*
X-60842858Y34149943D01*
X-60842858Y34149943D02*
X-60890477Y34054705D01*
X-60890477Y34054705D02*
X-60890477Y33959467D01*
X-60890477Y33959467D02*
X-60842858Y33864229D01*
X-60842858Y33864229D02*
X-60795239Y33816610D01*
X-60795239Y33816610D02*
X-60700001Y33768991D01*
X-60700001Y33768991D02*
X-60366668Y33768991D01*
X-61366668Y34245181D02*
X-61366668Y33435658D01*
X-61366668Y33435658D02*
X-61414287Y33340420D01*
X-61414287Y33340420D02*
X-61461906Y33292800D01*
X-61461906Y33292800D02*
X-61557144Y33245181D01*
X-61557144Y33245181D02*
X-61747620Y33245181D01*
X-61747620Y33245181D02*
X-61842858Y33292800D01*
X-61842858Y33292800D02*
X-61890477Y33340420D01*
X-61890477Y33340420D02*
X-61938096Y33435658D01*
X-61938096Y33435658D02*
X-61938096Y34245181D01*
X-62366668Y33292800D02*
X-62509525Y33245181D01*
X-62509525Y33245181D02*
X-62747620Y33245181D01*
X-62747620Y33245181D02*
X-62842858Y33292800D01*
X-62842858Y33292800D02*
X-62890477Y33340420D01*
X-62890477Y33340420D02*
X-62938096Y33435658D01*
X-62938096Y33435658D02*
X-62938096Y33530896D01*
X-62938096Y33530896D02*
X-62890477Y33626134D01*
X-62890477Y33626134D02*
X-62842858Y33673753D01*
X-62842858Y33673753D02*
X-62747620Y33721372D01*
X-62747620Y33721372D02*
X-62557144Y33768991D01*
X-62557144Y33768991D02*
X-62461906Y33816610D01*
X-62461906Y33816610D02*
X-62414287Y33864229D01*
X-62414287Y33864229D02*
X-62366668Y33959467D01*
X-62366668Y33959467D02*
X-62366668Y34054705D01*
X-62366668Y34054705D02*
X-62414287Y34149943D01*
X-62414287Y34149943D02*
X-62461906Y34197562D01*
X-62461906Y34197562D02*
X-62557144Y34245181D01*
X-62557144Y34245181D02*
X-62795239Y34245181D01*
X-62795239Y34245181D02*
X-62938096Y34197562D01*
X-49768991Y63928572D02*
X-49768991Y64261905D01*
X-49245181Y64261905D02*
X-50245181Y64261905D01*
X-50245181Y64261905D02*
X-50245181Y63785715D01*
X-49245181Y63404762D02*
X-50245181Y63404762D01*
X-50245181Y63404762D02*
X-50245181Y63023810D01*
X-50245181Y63023810D02*
X-50197562Y62928572D01*
X-50197562Y62928572D02*
X-50149943Y62880953D01*
X-50149943Y62880953D02*
X-50054705Y62833334D01*
X-50054705Y62833334D02*
X-49911848Y62833334D01*
X-49911848Y62833334D02*
X-49816610Y62880953D01*
X-49816610Y62880953D02*
X-49768991Y62928572D01*
X-49768991Y62928572D02*
X-49721372Y63023810D01*
X-49721372Y63023810D02*
X-49721372Y63404762D01*
X-50197562Y61880953D02*
X-50245181Y61976191D01*
X-50245181Y61976191D02*
X-50245181Y62119048D01*
X-50245181Y62119048D02*
X-50197562Y62261905D01*
X-50197562Y62261905D02*
X-50102324Y62357143D01*
X-50102324Y62357143D02*
X-50007086Y62404762D01*
X-50007086Y62404762D02*
X-49816610Y62452381D01*
X-49816610Y62452381D02*
X-49673753Y62452381D01*
X-49673753Y62452381D02*
X-49483277Y62404762D01*
X-49483277Y62404762D02*
X-49388039Y62357143D01*
X-49388039Y62357143D02*
X-49292800Y62261905D01*
X-49292800Y62261905D02*
X-49245181Y62119048D01*
X-49245181Y62119048D02*
X-49245181Y62023810D01*
X-49245181Y62023810D02*
X-49292800Y61880953D01*
X-49292800Y61880953D02*
X-49340420Y61833334D01*
X-49340420Y61833334D02*
X-49673753Y61833334D01*
X-49673753Y61833334D02*
X-49673753Y62023810D01*
X-49530896Y61452381D02*
X-49530896Y60976191D01*
X-49245181Y61547619D02*
X-50245181Y61214286D01*
X-50245181Y61214286D02*
X-49245181Y60880953D01*
X-49149943Y60785714D02*
X-49149943Y60023810D01*
X-49340420Y59214286D02*
X-49292800Y59261905D01*
X-49292800Y59261905D02*
X-49245181Y59404762D01*
X-49245181Y59404762D02*
X-49245181Y59500000D01*
X-49245181Y59500000D02*
X-49292800Y59642857D01*
X-49292800Y59642857D02*
X-49388039Y59738095D01*
X-49388039Y59738095D02*
X-49483277Y59785714D01*
X-49483277Y59785714D02*
X-49673753Y59833333D01*
X-49673753Y59833333D02*
X-49816610Y59833333D01*
X-49816610Y59833333D02*
X-50007086Y59785714D01*
X-50007086Y59785714D02*
X-50102324Y59738095D01*
X-50102324Y59738095D02*
X-50197562Y59642857D01*
X-50197562Y59642857D02*
X-50245181Y59500000D01*
X-50245181Y59500000D02*
X-50245181Y59404762D01*
X-50245181Y59404762D02*
X-50197562Y59261905D01*
X-50197562Y59261905D02*
X-50149943Y59214286D01*
X-50245181Y58595238D02*
X-50245181Y58404762D01*
X-50245181Y58404762D02*
X-50197562Y58309524D01*
X-50197562Y58309524D02*
X-50102324Y58214286D01*
X-50102324Y58214286D02*
X-49911848Y58166667D01*
X-49911848Y58166667D02*
X-49578515Y58166667D01*
X-49578515Y58166667D02*
X-49388039Y58214286D01*
X-49388039Y58214286D02*
X-49292800Y58309524D01*
X-49292800Y58309524D02*
X-49245181Y58404762D01*
X-49245181Y58404762D02*
X-49245181Y58595238D01*
X-49245181Y58595238D02*
X-49292800Y58690476D01*
X-49292800Y58690476D02*
X-49388039Y58785714D01*
X-49388039Y58785714D02*
X-49578515Y58833333D01*
X-49578515Y58833333D02*
X-49911848Y58833333D01*
X-49911848Y58833333D02*
X-50102324Y58785714D01*
X-50102324Y58785714D02*
X-50197562Y58690476D01*
X-50197562Y58690476D02*
X-50245181Y58595238D01*
X-49245181Y57738095D02*
X-50245181Y57738095D01*
X-50245181Y57738095D02*
X-50245181Y57357143D01*
X-50245181Y57357143D02*
X-50197562Y57261905D01*
X-50197562Y57261905D02*
X-50149943Y57214286D01*
X-50149943Y57214286D02*
X-50054705Y57166667D01*
X-50054705Y57166667D02*
X-49911848Y57166667D01*
X-49911848Y57166667D02*
X-49816610Y57214286D01*
X-49816610Y57214286D02*
X-49768991Y57261905D01*
X-49768991Y57261905D02*
X-49721372Y57357143D01*
X-49721372Y57357143D02*
X-49721372Y57738095D01*
X-49245181Y56738095D02*
X-50245181Y56738095D01*
X-46868991Y77066667D02*
X-46868991Y77400000D01*
X-46345181Y77400000D02*
X-47345181Y77400000D01*
X-47345181Y77400000D02*
X-47345181Y76923810D01*
X-46345181Y76542857D02*
X-47345181Y76542857D01*
X-47345181Y76542857D02*
X-47345181Y76161905D01*
X-47345181Y76161905D02*
X-47297562Y76066667D01*
X-47297562Y76066667D02*
X-47249943Y76019048D01*
X-47249943Y76019048D02*
X-47154705Y75971429D01*
X-47154705Y75971429D02*
X-47011848Y75971429D01*
X-47011848Y75971429D02*
X-46916610Y76019048D01*
X-46916610Y76019048D02*
X-46868991Y76066667D01*
X-46868991Y76066667D02*
X-46821372Y76161905D01*
X-46821372Y76161905D02*
X-46821372Y76542857D01*
X-47297562Y75019048D02*
X-47345181Y75114286D01*
X-47345181Y75114286D02*
X-47345181Y75257143D01*
X-47345181Y75257143D02*
X-47297562Y75400000D01*
X-47297562Y75400000D02*
X-47202324Y75495238D01*
X-47202324Y75495238D02*
X-47107086Y75542857D01*
X-47107086Y75542857D02*
X-46916610Y75590476D01*
X-46916610Y75590476D02*
X-46773753Y75590476D01*
X-46773753Y75590476D02*
X-46583277Y75542857D01*
X-46583277Y75542857D02*
X-46488039Y75495238D01*
X-46488039Y75495238D02*
X-46392800Y75400000D01*
X-46392800Y75400000D02*
X-46345181Y75257143D01*
X-46345181Y75257143D02*
X-46345181Y75161905D01*
X-46345181Y75161905D02*
X-46392800Y75019048D01*
X-46392800Y75019048D02*
X-46440420Y74971429D01*
X-46440420Y74971429D02*
X-46773753Y74971429D01*
X-46773753Y74971429D02*
X-46773753Y75161905D01*
X-46630896Y74590476D02*
X-46630896Y74114286D01*
X-46345181Y74685714D02*
X-47345181Y74352381D01*
X-47345181Y74352381D02*
X-46345181Y74019048D01*
X-46249943Y73923809D02*
X-46249943Y73161905D01*
X-46345181Y72923809D02*
X-47345181Y72923809D01*
X-47345181Y72923809D02*
X-47345181Y72685714D01*
X-47345181Y72685714D02*
X-47297562Y72542857D01*
X-47297562Y72542857D02*
X-47202324Y72447619D01*
X-47202324Y72447619D02*
X-47107086Y72400000D01*
X-47107086Y72400000D02*
X-46916610Y72352381D01*
X-46916610Y72352381D02*
X-46773753Y72352381D01*
X-46773753Y72352381D02*
X-46583277Y72400000D01*
X-46583277Y72400000D02*
X-46488039Y72447619D01*
X-46488039Y72447619D02*
X-46392800Y72542857D01*
X-46392800Y72542857D02*
X-46345181Y72685714D01*
X-46345181Y72685714D02*
X-46345181Y72923809D01*
X-47345181Y71733333D02*
X-47345181Y71542857D01*
X-47345181Y71542857D02*
X-47297562Y71447619D01*
X-47297562Y71447619D02*
X-47202324Y71352381D01*
X-47202324Y71352381D02*
X-47011848Y71304762D01*
X-47011848Y71304762D02*
X-46678515Y71304762D01*
X-46678515Y71304762D02*
X-46488039Y71352381D01*
X-46488039Y71352381D02*
X-46392800Y71447619D01*
X-46392800Y71447619D02*
X-46345181Y71542857D01*
X-46345181Y71542857D02*
X-46345181Y71733333D01*
X-46345181Y71733333D02*
X-46392800Y71828571D01*
X-46392800Y71828571D02*
X-46488039Y71923809D01*
X-46488039Y71923809D02*
X-46678515Y71971428D01*
X-46678515Y71971428D02*
X-47011848Y71971428D01*
X-47011848Y71971428D02*
X-47202324Y71923809D01*
X-47202324Y71923809D02*
X-47297562Y71828571D01*
X-47297562Y71828571D02*
X-47345181Y71733333D01*
X-46345181Y70876190D02*
X-47345181Y70876190D01*
X-47345181Y70876190D02*
X-46345181Y70304762D01*
X-46345181Y70304762D02*
X-47345181Y70304762D01*
X-46868991Y69828571D02*
X-46868991Y69495238D01*
X-46345181Y69352381D02*
X-46345181Y69828571D01*
X-46345181Y69828571D02*
X-47345181Y69828571D01*
X-47345181Y69828571D02*
X-47345181Y69352381D01*
X-53268991Y95771429D02*
X-53268991Y96104762D01*
X-52745181Y96104762D02*
X-53745181Y96104762D01*
X-53745181Y96104762D02*
X-53745181Y95628572D01*
X-52745181Y95247619D02*
X-53745181Y95247619D01*
X-53745181Y95247619D02*
X-53745181Y94866667D01*
X-53745181Y94866667D02*
X-53697562Y94771429D01*
X-53697562Y94771429D02*
X-53649943Y94723810D01*
X-53649943Y94723810D02*
X-53554705Y94676191D01*
X-53554705Y94676191D02*
X-53411848Y94676191D01*
X-53411848Y94676191D02*
X-53316610Y94723810D01*
X-53316610Y94723810D02*
X-53268991Y94771429D01*
X-53268991Y94771429D02*
X-53221372Y94866667D01*
X-53221372Y94866667D02*
X-53221372Y95247619D01*
X-53697562Y93723810D02*
X-53745181Y93819048D01*
X-53745181Y93819048D02*
X-53745181Y93961905D01*
X-53745181Y93961905D02*
X-53697562Y94104762D01*
X-53697562Y94104762D02*
X-53602324Y94200000D01*
X-53602324Y94200000D02*
X-53507086Y94247619D01*
X-53507086Y94247619D02*
X-53316610Y94295238D01*
X-53316610Y94295238D02*
X-53173753Y94295238D01*
X-53173753Y94295238D02*
X-52983277Y94247619D01*
X-52983277Y94247619D02*
X-52888039Y94200000D01*
X-52888039Y94200000D02*
X-52792800Y94104762D01*
X-52792800Y94104762D02*
X-52745181Y93961905D01*
X-52745181Y93961905D02*
X-52745181Y93866667D01*
X-52745181Y93866667D02*
X-52792800Y93723810D01*
X-52792800Y93723810D02*
X-52840420Y93676191D01*
X-52840420Y93676191D02*
X-53173753Y93676191D01*
X-53173753Y93676191D02*
X-53173753Y93866667D01*
X-53030896Y93295238D02*
X-53030896Y92819048D01*
X-52745181Y93390476D02*
X-53745181Y93057143D01*
X-53745181Y93057143D02*
X-52745181Y92723810D01*
X-52649943Y92628571D02*
X-52649943Y91866667D01*
X-53745181Y91771428D02*
X-53745181Y91200000D01*
X-52745181Y91485714D02*
X-53745181Y91485714D01*
X-52745181Y90866666D02*
X-53745181Y90866666D01*
X-53745181Y90866666D02*
X-53745181Y90628571D01*
X-53745181Y90628571D02*
X-53697562Y90485714D01*
X-53697562Y90485714D02*
X-53602324Y90390476D01*
X-53602324Y90390476D02*
X-53507086Y90342857D01*
X-53507086Y90342857D02*
X-53316610Y90295238D01*
X-53316610Y90295238D02*
X-53173753Y90295238D01*
X-53173753Y90295238D02*
X-52983277Y90342857D01*
X-52983277Y90342857D02*
X-52888039Y90390476D01*
X-52888039Y90390476D02*
X-52792800Y90485714D01*
X-52792800Y90485714D02*
X-52745181Y90628571D01*
X-52745181Y90628571D02*
X-52745181Y90866666D01*
X-53745181Y89676190D02*
X-53745181Y89485714D01*
X-53745181Y89485714D02*
X-53697562Y89390476D01*
X-53697562Y89390476D02*
X-53602324Y89295238D01*
X-53602324Y89295238D02*
X-53411848Y89247619D01*
X-53411848Y89247619D02*
X-53078515Y89247619D01*
X-53078515Y89247619D02*
X-52888039Y89295238D01*
X-52888039Y89295238D02*
X-52792800Y89390476D01*
X-52792800Y89390476D02*
X-52745181Y89485714D01*
X-52745181Y89485714D02*
X-52745181Y89676190D01*
X-52745181Y89676190D02*
X-52792800Y89771428D01*
X-52792800Y89771428D02*
X-52888039Y89866666D01*
X-52888039Y89866666D02*
X-53078515Y89914285D01*
X-53078515Y89914285D02*
X-53411848Y89914285D01*
X-53411848Y89914285D02*
X-53602324Y89866666D01*
X-53602324Y89866666D02*
X-53697562Y89771428D01*
X-53697562Y89771428D02*
X-53745181Y89676190D01*
X-1071429Y94445181D02*
X-738096Y94921372D01*
X-500001Y94445181D02*
X-500001Y95445181D01*
X-500001Y95445181D02*
X-880953Y95445181D01*
X-880953Y95445181D02*
X-976191Y95397562D01*
X-976191Y95397562D02*
X-1023810Y95349943D01*
X-1023810Y95349943D02*
X-1071429Y95254705D01*
X-1071429Y95254705D02*
X-1071429Y95111848D01*
X-1071429Y95111848D02*
X-1023810Y95016610D01*
X-1023810Y95016610D02*
X-976191Y94968991D01*
X-976191Y94968991D02*
X-880953Y94921372D01*
X-880953Y94921372D02*
X-500001Y94921372D01*
X-1452382Y94730896D02*
X-1928572Y94730896D01*
X-1357144Y94445181D02*
X-1690477Y95445181D01*
X-1690477Y95445181D02*
X-2023810Y94445181D01*
X-2357144Y94445181D02*
X-2357144Y95445181D01*
X-2357144Y95445181D02*
X-2690477Y94730896D01*
X-2690477Y94730896D02*
X-3023810Y95445181D01*
X-3023810Y95445181D02*
X-3023810Y94445181D01*
X-4833334Y94445181D02*
X-4500001Y94921372D01*
X-4261906Y94445181D02*
X-4261906Y95445181D01*
X-4261906Y95445181D02*
X-4642858Y95445181D01*
X-4642858Y95445181D02*
X-4738096Y95397562D01*
X-4738096Y95397562D02*
X-4785715Y95349943D01*
X-4785715Y95349943D02*
X-4833334Y95254705D01*
X-4833334Y95254705D02*
X-4833334Y95111848D01*
X-4833334Y95111848D02*
X-4785715Y95016610D01*
X-4785715Y95016610D02*
X-4738096Y94968991D01*
X-4738096Y94968991D02*
X-4642858Y94921372D01*
X-4642858Y94921372D02*
X-4261906Y94921372D01*
X-5214287Y94492800D02*
X-5357144Y94445181D01*
X-5357144Y94445181D02*
X-5595239Y94445181D01*
X-5595239Y94445181D02*
X-5690477Y94492800D01*
X-5690477Y94492800D02*
X-5738096Y94540420D01*
X-5738096Y94540420D02*
X-5785715Y94635658D01*
X-5785715Y94635658D02*
X-5785715Y94730896D01*
X-5785715Y94730896D02*
X-5738096Y94826134D01*
X-5738096Y94826134D02*
X-5690477Y94873753D01*
X-5690477Y94873753D02*
X-5595239Y94921372D01*
X-5595239Y94921372D02*
X-5404763Y94968991D01*
X-5404763Y94968991D02*
X-5309525Y95016610D01*
X-5309525Y95016610D02*
X-5261906Y95064229D01*
X-5261906Y95064229D02*
X-5214287Y95159467D01*
X-5214287Y95159467D02*
X-5214287Y95254705D01*
X-5214287Y95254705D02*
X-5261906Y95349943D01*
X-5261906Y95349943D02*
X-5309525Y95397562D01*
X-5309525Y95397562D02*
X-5404763Y95445181D01*
X-5404763Y95445181D02*
X-5642858Y95445181D01*
X-5642858Y95445181D02*
X-5785715Y95397562D01*
X-6071430Y95445181D02*
X-6642858Y95445181D01*
X-6357144Y94445181D02*
X-6357144Y95445181D01*
X-4123810Y95722800D02*
X-6638096Y95722800D01*
X-48592800Y84347619D02*
X-48545181Y84204762D01*
X-48545181Y84204762D02*
X-48545181Y83966667D01*
X-48545181Y83966667D02*
X-48592800Y83871429D01*
X-48592800Y83871429D02*
X-48640420Y83823810D01*
X-48640420Y83823810D02*
X-48735658Y83776191D01*
X-48735658Y83776191D02*
X-48830896Y83776191D01*
X-48830896Y83776191D02*
X-48926134Y83823810D01*
X-48926134Y83823810D02*
X-48973753Y83871429D01*
X-48973753Y83871429D02*
X-49021372Y83966667D01*
X-49021372Y83966667D02*
X-49068991Y84157143D01*
X-49068991Y84157143D02*
X-49116610Y84252381D01*
X-49116610Y84252381D02*
X-49164229Y84300000D01*
X-49164229Y84300000D02*
X-49259467Y84347619D01*
X-49259467Y84347619D02*
X-49354705Y84347619D01*
X-49354705Y84347619D02*
X-49449943Y84300000D01*
X-49449943Y84300000D02*
X-49497562Y84252381D01*
X-49497562Y84252381D02*
X-49545181Y84157143D01*
X-49545181Y84157143D02*
X-49545181Y83919048D01*
X-49545181Y83919048D02*
X-49497562Y83776191D01*
X-49545181Y83347619D02*
X-48735658Y83347619D01*
X-48735658Y83347619D02*
X-48640420Y83300000D01*
X-48640420Y83300000D02*
X-48592800Y83252381D01*
X-48592800Y83252381D02*
X-48545181Y83157143D01*
X-48545181Y83157143D02*
X-48545181Y82966667D01*
X-48545181Y82966667D02*
X-48592800Y82871429D01*
X-48592800Y82871429D02*
X-48640420Y82823810D01*
X-48640420Y82823810D02*
X-48735658Y82776191D01*
X-48735658Y82776191D02*
X-49545181Y82776191D01*
X-48449943Y82538095D02*
X-48449943Y81776191D01*
X-48545181Y80966667D02*
X-49021372Y81300000D01*
X-48545181Y81538095D02*
X-49545181Y81538095D01*
X-49545181Y81538095D02*
X-49545181Y81157143D01*
X-49545181Y81157143D02*
X-49497562Y81061905D01*
X-49497562Y81061905D02*
X-49449943Y81014286D01*
X-49449943Y81014286D02*
X-49354705Y80966667D01*
X-49354705Y80966667D02*
X-49211848Y80966667D01*
X-49211848Y80966667D02*
X-49116610Y81014286D01*
X-49116610Y81014286D02*
X-49068991Y81061905D01*
X-49068991Y81061905D02*
X-49021372Y81157143D01*
X-49021372Y81157143D02*
X-49021372Y81538095D01*
X-48592800Y80585714D02*
X-48545181Y80442857D01*
X-48545181Y80442857D02*
X-48545181Y80204762D01*
X-48545181Y80204762D02*
X-48592800Y80109524D01*
X-48592800Y80109524D02*
X-48640420Y80061905D01*
X-48640420Y80061905D02*
X-48735658Y80014286D01*
X-48735658Y80014286D02*
X-48830896Y80014286D01*
X-48830896Y80014286D02*
X-48926134Y80061905D01*
X-48926134Y80061905D02*
X-48973753Y80109524D01*
X-48973753Y80109524D02*
X-49021372Y80204762D01*
X-49021372Y80204762D02*
X-49068991Y80395238D01*
X-49068991Y80395238D02*
X-49116610Y80490476D01*
X-49116610Y80490476D02*
X-49164229Y80538095D01*
X-49164229Y80538095D02*
X-49259467Y80585714D01*
X-49259467Y80585714D02*
X-49354705Y80585714D01*
X-49354705Y80585714D02*
X-49449943Y80538095D01*
X-49449943Y80538095D02*
X-49497562Y80490476D01*
X-49497562Y80490476D02*
X-49545181Y80395238D01*
X-49545181Y80395238D02*
X-49545181Y80157143D01*
X-49545181Y80157143D02*
X-49497562Y80014286D01*
X-49545181Y79728571D02*
X-49545181Y79157143D01*
X-48545181Y79442857D02*
X-49545181Y79442857D01*
X-49822800Y84438095D02*
X-49822800Y79161904D01*
X-48752382Y51645181D02*
X-48752382Y52645181D01*
X-48752382Y52645181D02*
X-49133334Y52645181D01*
X-49133334Y52645181D02*
X-49228572Y52597562D01*
X-49228572Y52597562D02*
X-49276191Y52549943D01*
X-49276191Y52549943D02*
X-49323810Y52454705D01*
X-49323810Y52454705D02*
X-49323810Y52311848D01*
X-49323810Y52311848D02*
X-49276191Y52216610D01*
X-49276191Y52216610D02*
X-49228572Y52168991D01*
X-49228572Y52168991D02*
X-49133334Y52121372D01*
X-49133334Y52121372D02*
X-48752382Y52121372D01*
X-49752382Y51645181D02*
X-49752382Y52645181D01*
X-49752382Y52645181D02*
X-49990477Y52645181D01*
X-49990477Y52645181D02*
X-50133334Y52597562D01*
X-50133334Y52597562D02*
X-50228572Y52502324D01*
X-50228572Y52502324D02*
X-50276191Y52407086D01*
X-50276191Y52407086D02*
X-50323810Y52216610D01*
X-50323810Y52216610D02*
X-50323810Y52073753D01*
X-50323810Y52073753D02*
X-50276191Y51883277D01*
X-50276191Y51883277D02*
X-50228572Y51788039D01*
X-50228572Y51788039D02*
X-50133334Y51692800D01*
X-50133334Y51692800D02*
X-49990477Y51645181D01*
X-49990477Y51645181D02*
X-49752382Y51645181D01*
X-50514286Y51549943D02*
X-51276191Y51549943D01*
X-51466668Y51692800D02*
X-51609525Y51645181D01*
X-51609525Y51645181D02*
X-51847620Y51645181D01*
X-51847620Y51645181D02*
X-51942858Y51692800D01*
X-51942858Y51692800D02*
X-51990477Y51740420D01*
X-51990477Y51740420D02*
X-52038096Y51835658D01*
X-52038096Y51835658D02*
X-52038096Y51930896D01*
X-52038096Y51930896D02*
X-51990477Y52026134D01*
X-51990477Y52026134D02*
X-51942858Y52073753D01*
X-51942858Y52073753D02*
X-51847620Y52121372D01*
X-51847620Y52121372D02*
X-51657144Y52168991D01*
X-51657144Y52168991D02*
X-51561906Y52216610D01*
X-51561906Y52216610D02*
X-51514287Y52264229D01*
X-51514287Y52264229D02*
X-51466668Y52359467D01*
X-51466668Y52359467D02*
X-51466668Y52454705D01*
X-51466668Y52454705D02*
X-51514287Y52549943D01*
X-51514287Y52549943D02*
X-51561906Y52597562D01*
X-51561906Y52597562D02*
X-51657144Y52645181D01*
X-51657144Y52645181D02*
X-51895239Y52645181D01*
X-51895239Y52645181D02*
X-52038096Y52597562D01*
X-53038096Y51740420D02*
X-52990477Y51692800D01*
X-52990477Y51692800D02*
X-52847620Y51645181D01*
X-52847620Y51645181D02*
X-52752382Y51645181D01*
X-52752382Y51645181D02*
X-52609525Y51692800D01*
X-52609525Y51692800D02*
X-52514287Y51788039D01*
X-52514287Y51788039D02*
X-52466668Y51883277D01*
X-52466668Y51883277D02*
X-52419049Y52073753D01*
X-52419049Y52073753D02*
X-52419049Y52216610D01*
X-52419049Y52216610D02*
X-52466668Y52407086D01*
X-52466668Y52407086D02*
X-52514287Y52502324D01*
X-52514287Y52502324D02*
X-52609525Y52597562D01*
X-52609525Y52597562D02*
X-52752382Y52645181D01*
X-52752382Y52645181D02*
X-52847620Y52645181D01*
X-52847620Y52645181D02*
X-52990477Y52597562D01*
X-52990477Y52597562D02*
X-53038096Y52549943D01*
X-53419049Y51930896D02*
X-53895239Y51930896D01*
X-53323811Y51645181D02*
X-53657144Y52645181D01*
X-53657144Y52645181D02*
X-53990477Y51645181D01*
X-53168991Y66042858D02*
X-53168991Y66376191D01*
X-52645181Y66376191D02*
X-53645181Y66376191D01*
X-53645181Y66376191D02*
X-53645181Y65900001D01*
X-52645181Y65519048D02*
X-53645181Y65519048D01*
X-53645181Y65519048D02*
X-53645181Y65138096D01*
X-53645181Y65138096D02*
X-53597562Y65042858D01*
X-53597562Y65042858D02*
X-53549943Y64995239D01*
X-53549943Y64995239D02*
X-53454705Y64947620D01*
X-53454705Y64947620D02*
X-53311848Y64947620D01*
X-53311848Y64947620D02*
X-53216610Y64995239D01*
X-53216610Y64995239D02*
X-53168991Y65042858D01*
X-53168991Y65042858D02*
X-53121372Y65138096D01*
X-53121372Y65138096D02*
X-53121372Y65519048D01*
X-53597562Y63995239D02*
X-53645181Y64090477D01*
X-53645181Y64090477D02*
X-53645181Y64233334D01*
X-53645181Y64233334D02*
X-53597562Y64376191D01*
X-53597562Y64376191D02*
X-53502324Y64471429D01*
X-53502324Y64471429D02*
X-53407086Y64519048D01*
X-53407086Y64519048D02*
X-53216610Y64566667D01*
X-53216610Y64566667D02*
X-53073753Y64566667D01*
X-53073753Y64566667D02*
X-52883277Y64519048D01*
X-52883277Y64519048D02*
X-52788039Y64471429D01*
X-52788039Y64471429D02*
X-52692800Y64376191D01*
X-52692800Y64376191D02*
X-52645181Y64233334D01*
X-52645181Y64233334D02*
X-52645181Y64138096D01*
X-52645181Y64138096D02*
X-52692800Y63995239D01*
X-52692800Y63995239D02*
X-52740420Y63947620D01*
X-52740420Y63947620D02*
X-53073753Y63947620D01*
X-53073753Y63947620D02*
X-53073753Y64138096D01*
X-52930896Y63566667D02*
X-52930896Y63090477D01*
X-52645181Y63661905D02*
X-53645181Y63328572D01*
X-53645181Y63328572D02*
X-52645181Y62995239D01*
X-52549943Y62900000D02*
X-52549943Y62138096D01*
X-52740420Y61328572D02*
X-52692800Y61376191D01*
X-52692800Y61376191D02*
X-52645181Y61519048D01*
X-52645181Y61519048D02*
X-52645181Y61614286D01*
X-52645181Y61614286D02*
X-52692800Y61757143D01*
X-52692800Y61757143D02*
X-52788039Y61852381D01*
X-52788039Y61852381D02*
X-52883277Y61900000D01*
X-52883277Y61900000D02*
X-53073753Y61947619D01*
X-53073753Y61947619D02*
X-53216610Y61947619D01*
X-53216610Y61947619D02*
X-53407086Y61900000D01*
X-53407086Y61900000D02*
X-53502324Y61852381D01*
X-53502324Y61852381D02*
X-53597562Y61757143D01*
X-53597562Y61757143D02*
X-53645181Y61614286D01*
X-53645181Y61614286D02*
X-53645181Y61519048D01*
X-53645181Y61519048D02*
X-53597562Y61376191D01*
X-53597562Y61376191D02*
X-53549943Y61328572D01*
X-52692800Y60947619D02*
X-52645181Y60804762D01*
X-52645181Y60804762D02*
X-52645181Y60566667D01*
X-52645181Y60566667D02*
X-52692800Y60471429D01*
X-52692800Y60471429D02*
X-52740420Y60423810D01*
X-52740420Y60423810D02*
X-52835658Y60376191D01*
X-52835658Y60376191D02*
X-52930896Y60376191D01*
X-52930896Y60376191D02*
X-53026134Y60423810D01*
X-53026134Y60423810D02*
X-53073753Y60471429D01*
X-53073753Y60471429D02*
X-53121372Y60566667D01*
X-53121372Y60566667D02*
X-53168991Y60757143D01*
X-53168991Y60757143D02*
X-53216610Y60852381D01*
X-53216610Y60852381D02*
X-53264229Y60900000D01*
X-53264229Y60900000D02*
X-53359467Y60947619D01*
X-53359467Y60947619D02*
X-53454705Y60947619D01*
X-53454705Y60947619D02*
X-53549943Y60900000D01*
X-53549943Y60900000D02*
X-53597562Y60852381D01*
X-53597562Y60852381D02*
X-53645181Y60757143D01*
X-53645181Y60757143D02*
X-53645181Y60519048D01*
X-53645181Y60519048D02*
X-53597562Y60376191D01*
X-53922800Y66514286D02*
X-53922800Y60285714D01*
X-9145181Y44221429D02*
X-9145181Y44792857D01*
X-9145181Y44507143D02*
X-10145181Y44507143D01*
X-10145181Y44507143D02*
X-10002324Y44602381D01*
X-10002324Y44602381D02*
X-9907086Y44697619D01*
X-9907086Y44697619D02*
X-9859467Y44792857D01*
X-9811848Y43888095D02*
X-9145181Y43650000D01*
X-9145181Y43650000D02*
X-9811848Y43411905D01*
X-10049943Y43078571D02*
X-10097562Y43030952D01*
X-10097562Y43030952D02*
X-10145181Y42935714D01*
X-10145181Y42935714D02*
X-10145181Y42697619D01*
X-10145181Y42697619D02*
X-10097562Y42602381D01*
X-10097562Y42602381D02*
X-10049943Y42554762D01*
X-10049943Y42554762D02*
X-9954705Y42507143D01*
X-9954705Y42507143D02*
X-9859467Y42507143D01*
X-9859467Y42507143D02*
X-9716610Y42554762D01*
X-9716610Y42554762D02*
X-9145181Y43126190D01*
X-9145181Y43126190D02*
X-9145181Y42507143D01*
X-39880953Y7045181D02*
X-39880953Y8045181D01*
X-39880953Y8045181D02*
X-40261905Y8045181D01*
X-40261905Y8045181D02*
X-40357143Y7997562D01*
X-40357143Y7997562D02*
X-40404762Y7949943D01*
X-40404762Y7949943D02*
X-40452381Y7854705D01*
X-40452381Y7854705D02*
X-40452381Y7711848D01*
X-40452381Y7711848D02*
X-40404762Y7616610D01*
X-40404762Y7616610D02*
X-40357143Y7568991D01*
X-40357143Y7568991D02*
X-40261905Y7521372D01*
X-40261905Y7521372D02*
X-39880953Y7521372D01*
X-40833334Y7092800D02*
X-40976191Y7045181D01*
X-40976191Y7045181D02*
X-41214286Y7045181D01*
X-41214286Y7045181D02*
X-41309524Y7092800D01*
X-41309524Y7092800D02*
X-41357143Y7140420D01*
X-41357143Y7140420D02*
X-41404762Y7235658D01*
X-41404762Y7235658D02*
X-41404762Y7330896D01*
X-41404762Y7330896D02*
X-41357143Y7426134D01*
X-41357143Y7426134D02*
X-41309524Y7473753D01*
X-41309524Y7473753D02*
X-41214286Y7521372D01*
X-41214286Y7521372D02*
X-41023810Y7568991D01*
X-41023810Y7568991D02*
X-40928572Y7616610D01*
X-40928572Y7616610D02*
X-40880953Y7664229D01*
X-40880953Y7664229D02*
X-40833334Y7759467D01*
X-40833334Y7759467D02*
X-40833334Y7854705D01*
X-40833334Y7854705D02*
X-40880953Y7949943D01*
X-40880953Y7949943D02*
X-40928572Y7997562D01*
X-40928572Y7997562D02*
X-41023810Y8045181D01*
X-41023810Y8045181D02*
X-41261905Y8045181D01*
X-41261905Y8045181D02*
X-41404762Y7997562D01*
X-41833334Y8045181D02*
X-41833334Y7235658D01*
X-41833334Y7235658D02*
X-41880953Y7140420D01*
X-41880953Y7140420D02*
X-41928572Y7092800D01*
X-41928572Y7092800D02*
X-42023810Y7045181D01*
X-42023810Y7045181D02*
X-42214286Y7045181D01*
X-42214286Y7045181D02*
X-42309524Y7092800D01*
X-42309524Y7092800D02*
X-42357143Y7140420D01*
X-42357143Y7140420D02*
X-42404762Y7235658D01*
X-42404762Y7235658D02*
X-42404762Y8045181D01*
X-42642857Y6949943D02*
X-43404762Y6949943D01*
X-43642858Y7568991D02*
X-43976191Y7568991D01*
X-44119048Y7045181D02*
X-43642858Y7045181D01*
X-43642858Y7045181D02*
X-43642858Y8045181D01*
X-43642858Y8045181D02*
X-44119048Y8045181D01*
X-44547620Y7045181D02*
X-44547620Y8045181D01*
X-44547620Y8045181D02*
X-45119048Y7045181D01*
X-45119048Y7045181D02*
X-45119048Y8045181D01*
X-12547562Y47211905D02*
X-12595181Y47307143D01*
X-12595181Y47307143D02*
X-12595181Y47450000D01*
X-12595181Y47450000D02*
X-12547562Y47592857D01*
X-12547562Y47592857D02*
X-12452324Y47688095D01*
X-12452324Y47688095D02*
X-12357086Y47735714D01*
X-12357086Y47735714D02*
X-12166610Y47783333D01*
X-12166610Y47783333D02*
X-12023753Y47783333D01*
X-12023753Y47783333D02*
X-11833277Y47735714D01*
X-11833277Y47735714D02*
X-11738039Y47688095D01*
X-11738039Y47688095D02*
X-11642800Y47592857D01*
X-11642800Y47592857D02*
X-11595181Y47450000D01*
X-11595181Y47450000D02*
X-11595181Y47354762D01*
X-11595181Y47354762D02*
X-11642800Y47211905D01*
X-11642800Y47211905D02*
X-11690420Y47164286D01*
X-11690420Y47164286D02*
X-12023753Y47164286D01*
X-12023753Y47164286D02*
X-12023753Y47354762D01*
X-11595181Y46735714D02*
X-12595181Y46735714D01*
X-12595181Y46735714D02*
X-11595181Y46164286D01*
X-11595181Y46164286D02*
X-12595181Y46164286D01*
X-11595181Y45688095D02*
X-12595181Y45688095D01*
X-12595181Y45688095D02*
X-12595181Y45450000D01*
X-12595181Y45450000D02*
X-12547562Y45307143D01*
X-12547562Y45307143D02*
X-12452324Y45211905D01*
X-12452324Y45211905D02*
X-12357086Y45164286D01*
X-12357086Y45164286D02*
X-12166610Y45116667D01*
X-12166610Y45116667D02*
X-12023753Y45116667D01*
X-12023753Y45116667D02*
X-11833277Y45164286D01*
X-11833277Y45164286D02*
X-11738039Y45211905D01*
X-11738039Y45211905D02*
X-11642800Y45307143D01*
X-11642800Y45307143D02*
X-11595181Y45450000D01*
X-11595181Y45450000D02*
X-11595181Y45688095D01*
X-57316668Y24795181D02*
X-57650001Y23795181D01*
X-57650001Y23795181D02*
X-57983334Y24795181D01*
X-58316668Y23795181D02*
X-58316668Y24795181D01*
X-58316668Y24795181D02*
X-58554763Y24795181D01*
X-58554763Y24795181D02*
X-58697620Y24747562D01*
X-58697620Y24747562D02*
X-58792858Y24652324D01*
X-58792858Y24652324D02*
X-58840477Y24557086D01*
X-58840477Y24557086D02*
X-58888096Y24366610D01*
X-58888096Y24366610D02*
X-58888096Y24223753D01*
X-58888096Y24223753D02*
X-58840477Y24033277D01*
X-58840477Y24033277D02*
X-58792858Y23938039D01*
X-58792858Y23938039D02*
X-58697620Y23842800D01*
X-58697620Y23842800D02*
X-58554763Y23795181D01*
X-58554763Y23795181D02*
X-58316668Y23795181D01*
X-59888096Y23890420D02*
X-59840477Y23842800D01*
X-59840477Y23842800D02*
X-59697620Y23795181D01*
X-59697620Y23795181D02*
X-59602382Y23795181D01*
X-59602382Y23795181D02*
X-59459525Y23842800D01*
X-59459525Y23842800D02*
X-59364287Y23938039D01*
X-59364287Y23938039D02*
X-59316668Y24033277D01*
X-59316668Y24033277D02*
X-59269049Y24223753D01*
X-59269049Y24223753D02*
X-59269049Y24366610D01*
X-59269049Y24366610D02*
X-59316668Y24557086D01*
X-59316668Y24557086D02*
X-59364287Y24652324D01*
X-59364287Y24652324D02*
X-59459525Y24747562D01*
X-59459525Y24747562D02*
X-59602382Y24795181D01*
X-59602382Y24795181D02*
X-59697620Y24795181D01*
X-59697620Y24795181D02*
X-59840477Y24747562D01*
X-59840477Y24747562D02*
X-59888096Y24699943D01*
X-51418991Y66128572D02*
X-51418991Y66461905D01*
X-50895181Y66461905D02*
X-51895181Y66461905D01*
X-51895181Y66461905D02*
X-51895181Y65985715D01*
X-50895181Y65604762D02*
X-51895181Y65604762D01*
X-51895181Y65604762D02*
X-51895181Y65223810D01*
X-51895181Y65223810D02*
X-51847562Y65128572D01*
X-51847562Y65128572D02*
X-51799943Y65080953D01*
X-51799943Y65080953D02*
X-51704705Y65033334D01*
X-51704705Y65033334D02*
X-51561848Y65033334D01*
X-51561848Y65033334D02*
X-51466610Y65080953D01*
X-51466610Y65080953D02*
X-51418991Y65128572D01*
X-51418991Y65128572D02*
X-51371372Y65223810D01*
X-51371372Y65223810D02*
X-51371372Y65604762D01*
X-51847562Y64080953D02*
X-51895181Y64176191D01*
X-51895181Y64176191D02*
X-51895181Y64319048D01*
X-51895181Y64319048D02*
X-51847562Y64461905D01*
X-51847562Y64461905D02*
X-51752324Y64557143D01*
X-51752324Y64557143D02*
X-51657086Y64604762D01*
X-51657086Y64604762D02*
X-51466610Y64652381D01*
X-51466610Y64652381D02*
X-51323753Y64652381D01*
X-51323753Y64652381D02*
X-51133277Y64604762D01*
X-51133277Y64604762D02*
X-51038039Y64557143D01*
X-51038039Y64557143D02*
X-50942800Y64461905D01*
X-50942800Y64461905D02*
X-50895181Y64319048D01*
X-50895181Y64319048D02*
X-50895181Y64223810D01*
X-50895181Y64223810D02*
X-50942800Y64080953D01*
X-50942800Y64080953D02*
X-50990420Y64033334D01*
X-50990420Y64033334D02*
X-51323753Y64033334D01*
X-51323753Y64033334D02*
X-51323753Y64223810D01*
X-51180896Y63652381D02*
X-51180896Y63176191D01*
X-50895181Y63747619D02*
X-51895181Y63414286D01*
X-51895181Y63414286D02*
X-50895181Y63080953D01*
X-50799943Y62985714D02*
X-50799943Y62223810D01*
X-50990420Y61414286D02*
X-50942800Y61461905D01*
X-50942800Y61461905D02*
X-50895181Y61604762D01*
X-50895181Y61604762D02*
X-50895181Y61700000D01*
X-50895181Y61700000D02*
X-50942800Y61842857D01*
X-50942800Y61842857D02*
X-51038039Y61938095D01*
X-51038039Y61938095D02*
X-51133277Y61985714D01*
X-51133277Y61985714D02*
X-51323753Y62033333D01*
X-51323753Y62033333D02*
X-51466610Y62033333D01*
X-51466610Y62033333D02*
X-51657086Y61985714D01*
X-51657086Y61985714D02*
X-51752324Y61938095D01*
X-51752324Y61938095D02*
X-51847562Y61842857D01*
X-51847562Y61842857D02*
X-51895181Y61700000D01*
X-51895181Y61700000D02*
X-51895181Y61604762D01*
X-51895181Y61604762D02*
X-51847562Y61461905D01*
X-51847562Y61461905D02*
X-51799943Y61414286D01*
X-50895181Y60985714D02*
X-51895181Y60985714D01*
X-50895181Y60509524D02*
X-51895181Y60509524D01*
X-51895181Y60509524D02*
X-51895181Y60128572D01*
X-51895181Y60128572D02*
X-51847562Y60033334D01*
X-51847562Y60033334D02*
X-51799943Y59985715D01*
X-51799943Y59985715D02*
X-51704705Y59938096D01*
X-51704705Y59938096D02*
X-51561848Y59938096D01*
X-51561848Y59938096D02*
X-51466610Y59985715D01*
X-51466610Y59985715D02*
X-51418991Y60033334D01*
X-51418991Y60033334D02*
X-51371372Y60128572D01*
X-51371372Y60128572D02*
X-51371372Y60509524D01*
X-51895181Y59319048D02*
X-51895181Y59128572D01*
X-51895181Y59128572D02*
X-51847562Y59033334D01*
X-51847562Y59033334D02*
X-51752324Y58938096D01*
X-51752324Y58938096D02*
X-51561848Y58890477D01*
X-51561848Y58890477D02*
X-51228515Y58890477D01*
X-51228515Y58890477D02*
X-51038039Y58938096D01*
X-51038039Y58938096D02*
X-50942800Y59033334D01*
X-50942800Y59033334D02*
X-50895181Y59128572D01*
X-50895181Y59128572D02*
X-50895181Y59319048D01*
X-50895181Y59319048D02*
X-50942800Y59414286D01*
X-50942800Y59414286D02*
X-51038039Y59509524D01*
X-51038039Y59509524D02*
X-51228515Y59557143D01*
X-51228515Y59557143D02*
X-51561848Y59557143D01*
X-51561848Y59557143D02*
X-51752324Y59509524D01*
X-51752324Y59509524D02*
X-51847562Y59414286D01*
X-51847562Y59414286D02*
X-51895181Y59319048D01*
X-58868991Y65833334D02*
X-58868991Y66166667D01*
X-58345181Y66166667D02*
X-59345181Y66166667D01*
X-59345181Y66166667D02*
X-59345181Y65690477D01*
X-58345181Y64833334D02*
X-58345181Y65309524D01*
X-58345181Y65309524D02*
X-59345181Y65309524D01*
X-58630896Y64547619D02*
X-58630896Y64071429D01*
X-58345181Y64642857D02*
X-59345181Y64309524D01*
X-59345181Y64309524D02*
X-58345181Y63976191D01*
X-58392800Y63690476D02*
X-58345181Y63547619D01*
X-58345181Y63547619D02*
X-58345181Y63309524D01*
X-58345181Y63309524D02*
X-58392800Y63214286D01*
X-58392800Y63214286D02*
X-58440420Y63166667D01*
X-58440420Y63166667D02*
X-58535658Y63119048D01*
X-58535658Y63119048D02*
X-58630896Y63119048D01*
X-58630896Y63119048D02*
X-58726134Y63166667D01*
X-58726134Y63166667D02*
X-58773753Y63214286D01*
X-58773753Y63214286D02*
X-58821372Y63309524D01*
X-58821372Y63309524D02*
X-58868991Y63500000D01*
X-58868991Y63500000D02*
X-58916610Y63595238D01*
X-58916610Y63595238D02*
X-58964229Y63642857D01*
X-58964229Y63642857D02*
X-59059467Y63690476D01*
X-59059467Y63690476D02*
X-59154705Y63690476D01*
X-59154705Y63690476D02*
X-59249943Y63642857D01*
X-59249943Y63642857D02*
X-59297562Y63595238D01*
X-59297562Y63595238D02*
X-59345181Y63500000D01*
X-59345181Y63500000D02*
X-59345181Y63261905D01*
X-59345181Y63261905D02*
X-59297562Y63119048D01*
X-58345181Y62690476D02*
X-59345181Y62690476D01*
X-58868991Y62690476D02*
X-58868991Y62119048D01*
X-58345181Y62119048D02*
X-59345181Y62119048D01*
X-58249943Y61880952D02*
X-58249943Y61119048D01*
X-58440420Y60309524D02*
X-58392800Y60357143D01*
X-58392800Y60357143D02*
X-58345181Y60500000D01*
X-58345181Y60500000D02*
X-58345181Y60595238D01*
X-58345181Y60595238D02*
X-58392800Y60738095D01*
X-58392800Y60738095D02*
X-58488039Y60833333D01*
X-58488039Y60833333D02*
X-58583277Y60880952D01*
X-58583277Y60880952D02*
X-58773753Y60928571D01*
X-58773753Y60928571D02*
X-58916610Y60928571D01*
X-58916610Y60928571D02*
X-59107086Y60880952D01*
X-59107086Y60880952D02*
X-59202324Y60833333D01*
X-59202324Y60833333D02*
X-59297562Y60738095D01*
X-59297562Y60738095D02*
X-59345181Y60595238D01*
X-59345181Y60595238D02*
X-59345181Y60500000D01*
X-59345181Y60500000D02*
X-59297562Y60357143D01*
X-59297562Y60357143D02*
X-59249943Y60309524D01*
X-59345181Y59690476D02*
X-59345181Y59500000D01*
X-59345181Y59500000D02*
X-59297562Y59404762D01*
X-59297562Y59404762D02*
X-59202324Y59309524D01*
X-59202324Y59309524D02*
X-59011848Y59261905D01*
X-59011848Y59261905D02*
X-58678515Y59261905D01*
X-58678515Y59261905D02*
X-58488039Y59309524D01*
X-58488039Y59309524D02*
X-58392800Y59404762D01*
X-58392800Y59404762D02*
X-58345181Y59500000D01*
X-58345181Y59500000D02*
X-58345181Y59690476D01*
X-58345181Y59690476D02*
X-58392800Y59785714D01*
X-58392800Y59785714D02*
X-58488039Y59880952D01*
X-58488039Y59880952D02*
X-58678515Y59928571D01*
X-58678515Y59928571D02*
X-59011848Y59928571D01*
X-59011848Y59928571D02*
X-59202324Y59880952D01*
X-59202324Y59880952D02*
X-59297562Y59785714D01*
X-59297562Y59785714D02*
X-59345181Y59690476D01*
X-58345181Y58833333D02*
X-59345181Y58833333D01*
X-59345181Y58833333D02*
X-59345181Y58452381D01*
X-59345181Y58452381D02*
X-59297562Y58357143D01*
X-59297562Y58357143D02*
X-59249943Y58309524D01*
X-59249943Y58309524D02*
X-59154705Y58261905D01*
X-59154705Y58261905D02*
X-59011848Y58261905D01*
X-59011848Y58261905D02*
X-58916610Y58309524D01*
X-58916610Y58309524D02*
X-58868991Y58357143D01*
X-58868991Y58357143D02*
X-58821372Y58452381D01*
X-58821372Y58452381D02*
X-58821372Y58833333D01*
X-58345181Y57833333D02*
X-59345181Y57833333D01*
X-50026191Y47245181D02*
X-50026191Y48245181D01*
X-50026191Y48245181D02*
X-50407143Y48245181D01*
X-50407143Y48245181D02*
X-50502381Y48197562D01*
X-50502381Y48197562D02*
X-50550000Y48149943D01*
X-50550000Y48149943D02*
X-50597619Y48054705D01*
X-50597619Y48054705D02*
X-50597619Y47911848D01*
X-50597619Y47911848D02*
X-50550000Y47816610D01*
X-50550000Y47816610D02*
X-50502381Y47768991D01*
X-50502381Y47768991D02*
X-50407143Y47721372D01*
X-50407143Y47721372D02*
X-50026191Y47721372D01*
X-51026191Y47245181D02*
X-51026191Y48245181D01*
X-51026191Y48245181D02*
X-51264286Y48245181D01*
X-51264286Y48245181D02*
X-51407143Y48197562D01*
X-51407143Y48197562D02*
X-51502381Y48102324D01*
X-51502381Y48102324D02*
X-51550000Y48007086D01*
X-51550000Y48007086D02*
X-51597619Y47816610D01*
X-51597619Y47816610D02*
X-51597619Y47673753D01*
X-51597619Y47673753D02*
X-51550000Y47483277D01*
X-51550000Y47483277D02*
X-51502381Y47388039D01*
X-51502381Y47388039D02*
X-51407143Y47292800D01*
X-51407143Y47292800D02*
X-51264286Y47245181D01*
X-51264286Y47245181D02*
X-51026191Y47245181D01*
X-51788095Y47149943D02*
X-52550000Y47149943D01*
X-52740477Y47292800D02*
X-52883334Y47245181D01*
X-52883334Y47245181D02*
X-53121429Y47245181D01*
X-53121429Y47245181D02*
X-53216667Y47292800D01*
X-53216667Y47292800D02*
X-53264286Y47340420D01*
X-53264286Y47340420D02*
X-53311905Y47435658D01*
X-53311905Y47435658D02*
X-53311905Y47530896D01*
X-53311905Y47530896D02*
X-53264286Y47626134D01*
X-53264286Y47626134D02*
X-53216667Y47673753D01*
X-53216667Y47673753D02*
X-53121429Y47721372D01*
X-53121429Y47721372D02*
X-52930953Y47768991D01*
X-52930953Y47768991D02*
X-52835715Y47816610D01*
X-52835715Y47816610D02*
X-52788096Y47864229D01*
X-52788096Y47864229D02*
X-52740477Y47959467D01*
X-52740477Y47959467D02*
X-52740477Y48054705D01*
X-52740477Y48054705D02*
X-52788096Y48149943D01*
X-52788096Y48149943D02*
X-52835715Y48197562D01*
X-52835715Y48197562D02*
X-52930953Y48245181D01*
X-52930953Y48245181D02*
X-53169048Y48245181D01*
X-53169048Y48245181D02*
X-53311905Y48197562D01*
X-54311905Y47340420D02*
X-54264286Y47292800D01*
X-54264286Y47292800D02*
X-54121429Y47245181D01*
X-54121429Y47245181D02*
X-54026191Y47245181D01*
X-54026191Y47245181D02*
X-53883334Y47292800D01*
X-53883334Y47292800D02*
X-53788096Y47388039D01*
X-53788096Y47388039D02*
X-53740477Y47483277D01*
X-53740477Y47483277D02*
X-53692858Y47673753D01*
X-53692858Y47673753D02*
X-53692858Y47816610D01*
X-53692858Y47816610D02*
X-53740477Y48007086D01*
X-53740477Y48007086D02*
X-53788096Y48102324D01*
X-53788096Y48102324D02*
X-53883334Y48197562D01*
X-53883334Y48197562D02*
X-54026191Y48245181D01*
X-54026191Y48245181D02*
X-54121429Y48245181D01*
X-54121429Y48245181D02*
X-54264286Y48197562D01*
X-54264286Y48197562D02*
X-54311905Y48149943D01*
X-55216667Y47245181D02*
X-54740477Y47245181D01*
X-54740477Y47245181D02*
X-54740477Y48245181D01*
X-15238096Y33697562D02*
X-15142858Y33745181D01*
X-15142858Y33745181D02*
X-15000001Y33745181D01*
X-15000001Y33745181D02*
X-14857144Y33697562D01*
X-14857144Y33697562D02*
X-14761906Y33602324D01*
X-14761906Y33602324D02*
X-14714287Y33507086D01*
X-14714287Y33507086D02*
X-14666668Y33316610D01*
X-14666668Y33316610D02*
X-14666668Y33173753D01*
X-14666668Y33173753D02*
X-14714287Y32983277D01*
X-14714287Y32983277D02*
X-14761906Y32888039D01*
X-14761906Y32888039D02*
X-14857144Y32792800D01*
X-14857144Y32792800D02*
X-15000001Y32745181D01*
X-15000001Y32745181D02*
X-15095239Y32745181D01*
X-15095239Y32745181D02*
X-15238096Y32792800D01*
X-15238096Y32792800D02*
X-15285715Y32840420D01*
X-15285715Y32840420D02*
X-15285715Y33173753D01*
X-15285715Y33173753D02*
X-15095239Y33173753D01*
X-15714287Y32745181D02*
X-15714287Y33745181D01*
X-15714287Y33745181D02*
X-16285715Y32745181D01*
X-16285715Y32745181D02*
X-16285715Y33745181D01*
X-16761906Y32745181D02*
X-16761906Y33745181D01*
X-16761906Y33745181D02*
X-17000001Y33745181D01*
X-17000001Y33745181D02*
X-17142858Y33697562D01*
X-17142858Y33697562D02*
X-17238096Y33602324D01*
X-17238096Y33602324D02*
X-17285715Y33507086D01*
X-17285715Y33507086D02*
X-17333334Y33316610D01*
X-17333334Y33316610D02*
X-17333334Y33173753D01*
X-17333334Y33173753D02*
X-17285715Y32983277D01*
X-17285715Y32983277D02*
X-17238096Y32888039D01*
X-17238096Y32888039D02*
X-17142858Y32792800D01*
X-17142858Y32792800D02*
X-17000001Y32745181D01*
X-17000001Y32745181D02*
X-16761906Y32745181D01*
X-49616668Y29245181D02*
X-49950001Y28245181D01*
X-49950001Y28245181D02*
X-50283334Y29245181D01*
X-51188096Y28340420D02*
X-51140477Y28292800D01*
X-51140477Y28292800D02*
X-50997620Y28245181D01*
X-50997620Y28245181D02*
X-50902382Y28245181D01*
X-50902382Y28245181D02*
X-50759525Y28292800D01*
X-50759525Y28292800D02*
X-50664287Y28388039D01*
X-50664287Y28388039D02*
X-50616668Y28483277D01*
X-50616668Y28483277D02*
X-50569049Y28673753D01*
X-50569049Y28673753D02*
X-50569049Y28816610D01*
X-50569049Y28816610D02*
X-50616668Y29007086D01*
X-50616668Y29007086D02*
X-50664287Y29102324D01*
X-50664287Y29102324D02*
X-50759525Y29197562D01*
X-50759525Y29197562D02*
X-50902382Y29245181D01*
X-50902382Y29245181D02*
X-50997620Y29245181D01*
X-50997620Y29245181D02*
X-51140477Y29197562D01*
X-51140477Y29197562D02*
X-51188096Y29149943D01*
X-52188096Y28340420D02*
X-52140477Y28292800D01*
X-52140477Y28292800D02*
X-51997620Y28245181D01*
X-51997620Y28245181D02*
X-51902382Y28245181D01*
X-51902382Y28245181D02*
X-51759525Y28292800D01*
X-51759525Y28292800D02*
X-51664287Y28388039D01*
X-51664287Y28388039D02*
X-51616668Y28483277D01*
X-51616668Y28483277D02*
X-51569049Y28673753D01*
X-51569049Y28673753D02*
X-51569049Y28816610D01*
X-51569049Y28816610D02*
X-51616668Y29007086D01*
X-51616668Y29007086D02*
X-51664287Y29102324D01*
X-51664287Y29102324D02*
X-51759525Y29197562D01*
X-51759525Y29197562D02*
X-51902382Y29245181D01*
X-51902382Y29245181D02*
X-51997620Y29245181D01*
X-51997620Y29245181D02*
X-52140477Y29197562D01*
X-52140477Y29197562D02*
X-52188096Y29149943D01*
X-52571429Y101645181D02*
X-52571429Y102645181D01*
X-52571429Y102645181D02*
X-52952381Y102645181D01*
X-52952381Y102645181D02*
X-53047619Y102597562D01*
X-53047619Y102597562D02*
X-53095238Y102549943D01*
X-53095238Y102549943D02*
X-53142857Y102454705D01*
X-53142857Y102454705D02*
X-53142857Y102311848D01*
X-53142857Y102311848D02*
X-53095238Y102216610D01*
X-53095238Y102216610D02*
X-53047619Y102168991D01*
X-53047619Y102168991D02*
X-52952381Y102121372D01*
X-52952381Y102121372D02*
X-52571429Y102121372D01*
X-53571429Y101645181D02*
X-53571429Y102645181D01*
X-53571429Y102168991D02*
X-54142857Y102168991D01*
X-54142857Y101645181D02*
X-54142857Y102645181D01*
X-54809524Y102121372D02*
X-54809524Y101645181D01*
X-54476191Y102645181D02*
X-54809524Y102121372D01*
X-54809524Y102121372D02*
X-55142857Y102645181D01*
X-55238095Y101549943D02*
X-56000000Y101549943D01*
X-56142858Y102645181D02*
X-56761905Y102645181D01*
X-56761905Y102645181D02*
X-56428572Y102264229D01*
X-56428572Y102264229D02*
X-56571429Y102264229D01*
X-56571429Y102264229D02*
X-56666667Y102216610D01*
X-56666667Y102216610D02*
X-56714286Y102168991D01*
X-56714286Y102168991D02*
X-56761905Y102073753D01*
X-56761905Y102073753D02*
X-56761905Y101835658D01*
X-56761905Y101835658D02*
X-56714286Y101740420D01*
X-56714286Y101740420D02*
X-56666667Y101692800D01*
X-56666667Y101692800D02*
X-56571429Y101645181D01*
X-56571429Y101645181D02*
X-56285715Y101645181D01*
X-56285715Y101645181D02*
X-56190477Y101692800D01*
X-56190477Y101692800D02*
X-56142858Y101740420D01*
X-57095239Y102311848D02*
X-57333334Y101645181D01*
X-57333334Y101645181D02*
X-57571429Y102311848D01*
X-57857144Y102645181D02*
X-58476191Y102645181D01*
X-58476191Y102645181D02*
X-58142858Y102264229D01*
X-58142858Y102264229D02*
X-58285715Y102264229D01*
X-58285715Y102264229D02*
X-58380953Y102216610D01*
X-58380953Y102216610D02*
X-58428572Y102168991D01*
X-58428572Y102168991D02*
X-58476191Y102073753D01*
X-58476191Y102073753D02*
X-58476191Y101835658D01*
X-58476191Y101835658D02*
X-58428572Y101740420D01*
X-58428572Y101740420D02*
X-58380953Y101692800D01*
X-58380953Y101692800D02*
X-58285715Y101645181D01*
X-58285715Y101645181D02*
X-58000001Y101645181D01*
X-58000001Y101645181D02*
X-57904763Y101692800D01*
X-57904763Y101692800D02*
X-57857144Y101740420D01*
X-8888096Y39697562D02*
X-8792858Y39745181D01*
X-8792858Y39745181D02*
X-8650001Y39745181D01*
X-8650001Y39745181D02*
X-8507144Y39697562D01*
X-8507144Y39697562D02*
X-8411906Y39602324D01*
X-8411906Y39602324D02*
X-8364287Y39507086D01*
X-8364287Y39507086D02*
X-8316668Y39316610D01*
X-8316668Y39316610D02*
X-8316668Y39173753D01*
X-8316668Y39173753D02*
X-8364287Y38983277D01*
X-8364287Y38983277D02*
X-8411906Y38888039D01*
X-8411906Y38888039D02*
X-8507144Y38792800D01*
X-8507144Y38792800D02*
X-8650001Y38745181D01*
X-8650001Y38745181D02*
X-8745239Y38745181D01*
X-8745239Y38745181D02*
X-8888096Y38792800D01*
X-8888096Y38792800D02*
X-8935715Y38840420D01*
X-8935715Y38840420D02*
X-8935715Y39173753D01*
X-8935715Y39173753D02*
X-8745239Y39173753D01*
X-9364287Y38745181D02*
X-9364287Y39745181D01*
X-9364287Y39745181D02*
X-9935715Y38745181D01*
X-9935715Y38745181D02*
X-9935715Y39745181D01*
X-10411906Y38745181D02*
X-10411906Y39745181D01*
X-10411906Y39745181D02*
X-10650001Y39745181D01*
X-10650001Y39745181D02*
X-10792858Y39697562D01*
X-10792858Y39697562D02*
X-10888096Y39602324D01*
X-10888096Y39602324D02*
X-10935715Y39507086D01*
X-10935715Y39507086D02*
X-10983334Y39316610D01*
X-10983334Y39316610D02*
X-10983334Y39173753D01*
X-10983334Y39173753D02*
X-10935715Y38983277D01*
X-10935715Y38983277D02*
X-10888096Y38888039D01*
X-10888096Y38888039D02*
X-10792858Y38792800D01*
X-10792858Y38792800D02*
X-10650001Y38745181D01*
X-10650001Y38745181D02*
X-10411906Y38745181D01*
X-56568991Y64047619D02*
X-56568991Y64380952D01*
X-56045181Y64380952D02*
X-57045181Y64380952D01*
X-57045181Y64380952D02*
X-57045181Y63904762D01*
X-56045181Y63523809D02*
X-57045181Y63523809D01*
X-57045181Y63523809D02*
X-57045181Y63142857D01*
X-57045181Y63142857D02*
X-56997562Y63047619D01*
X-56997562Y63047619D02*
X-56949943Y63000000D01*
X-56949943Y63000000D02*
X-56854705Y62952381D01*
X-56854705Y62952381D02*
X-56711848Y62952381D01*
X-56711848Y62952381D02*
X-56616610Y63000000D01*
X-56616610Y63000000D02*
X-56568991Y63047619D01*
X-56568991Y63047619D02*
X-56521372Y63142857D01*
X-56521372Y63142857D02*
X-56521372Y63523809D01*
X-56997562Y62000000D02*
X-57045181Y62095238D01*
X-57045181Y62095238D02*
X-57045181Y62238095D01*
X-57045181Y62238095D02*
X-56997562Y62380952D01*
X-56997562Y62380952D02*
X-56902324Y62476190D01*
X-56902324Y62476190D02*
X-56807086Y62523809D01*
X-56807086Y62523809D02*
X-56616610Y62571428D01*
X-56616610Y62571428D02*
X-56473753Y62571428D01*
X-56473753Y62571428D02*
X-56283277Y62523809D01*
X-56283277Y62523809D02*
X-56188039Y62476190D01*
X-56188039Y62476190D02*
X-56092800Y62380952D01*
X-56092800Y62380952D02*
X-56045181Y62238095D01*
X-56045181Y62238095D02*
X-56045181Y62142857D01*
X-56045181Y62142857D02*
X-56092800Y62000000D01*
X-56092800Y62000000D02*
X-56140420Y61952381D01*
X-56140420Y61952381D02*
X-56473753Y61952381D01*
X-56473753Y61952381D02*
X-56473753Y62142857D01*
X-56330896Y61571428D02*
X-56330896Y61095238D01*
X-56045181Y61666666D02*
X-57045181Y61333333D01*
X-57045181Y61333333D02*
X-56045181Y61000000D01*
X-55949943Y60904761D02*
X-55949943Y60142857D01*
X-56045181Y59904761D02*
X-57045181Y59904761D01*
X-56045181Y59428571D02*
X-57045181Y59428571D01*
X-57045181Y59428571D02*
X-56045181Y58857143D01*
X-56045181Y58857143D02*
X-57045181Y58857143D01*
X-56045181Y58380952D02*
X-57045181Y58380952D01*
X-57045181Y58047619D02*
X-57045181Y57476191D01*
X-56045181Y57761905D02*
X-57045181Y57761905D01*
X-57322800Y64519047D02*
X-57322800Y57480952D01*
X-51368991Y97485715D02*
X-51368991Y97819048D01*
X-50845181Y97819048D02*
X-51845181Y97819048D01*
X-51845181Y97819048D02*
X-51845181Y97342858D01*
X-50845181Y96961905D02*
X-51845181Y96961905D01*
X-51845181Y96961905D02*
X-51845181Y96580953D01*
X-51845181Y96580953D02*
X-51797562Y96485715D01*
X-51797562Y96485715D02*
X-51749943Y96438096D01*
X-51749943Y96438096D02*
X-51654705Y96390477D01*
X-51654705Y96390477D02*
X-51511848Y96390477D01*
X-51511848Y96390477D02*
X-51416610Y96438096D01*
X-51416610Y96438096D02*
X-51368991Y96485715D01*
X-51368991Y96485715D02*
X-51321372Y96580953D01*
X-51321372Y96580953D02*
X-51321372Y96961905D01*
X-51797562Y95438096D02*
X-51845181Y95533334D01*
X-51845181Y95533334D02*
X-51845181Y95676191D01*
X-51845181Y95676191D02*
X-51797562Y95819048D01*
X-51797562Y95819048D02*
X-51702324Y95914286D01*
X-51702324Y95914286D02*
X-51607086Y95961905D01*
X-51607086Y95961905D02*
X-51416610Y96009524D01*
X-51416610Y96009524D02*
X-51273753Y96009524D01*
X-51273753Y96009524D02*
X-51083277Y95961905D01*
X-51083277Y95961905D02*
X-50988039Y95914286D01*
X-50988039Y95914286D02*
X-50892800Y95819048D01*
X-50892800Y95819048D02*
X-50845181Y95676191D01*
X-50845181Y95676191D02*
X-50845181Y95580953D01*
X-50845181Y95580953D02*
X-50892800Y95438096D01*
X-50892800Y95438096D02*
X-50940420Y95390477D01*
X-50940420Y95390477D02*
X-51273753Y95390477D01*
X-51273753Y95390477D02*
X-51273753Y95580953D01*
X-51130896Y95009524D02*
X-51130896Y94533334D01*
X-50845181Y95104762D02*
X-51845181Y94771429D01*
X-51845181Y94771429D02*
X-50845181Y94438096D01*
X-50749943Y94342857D02*
X-50749943Y93580953D01*
X-51845181Y93485714D02*
X-51845181Y92914286D01*
X-50845181Y93200000D02*
X-51845181Y93200000D01*
X-50845181Y92580952D02*
X-51845181Y92580952D01*
X-51845181Y92580952D02*
X-51845181Y92342857D01*
X-51845181Y92342857D02*
X-51797562Y92200000D01*
X-51797562Y92200000D02*
X-51702324Y92104762D01*
X-51702324Y92104762D02*
X-51607086Y92057143D01*
X-51607086Y92057143D02*
X-51416610Y92009524D01*
X-51416610Y92009524D02*
X-51273753Y92009524D01*
X-51273753Y92009524D02*
X-51083277Y92057143D01*
X-51083277Y92057143D02*
X-50988039Y92104762D01*
X-50988039Y92104762D02*
X-50892800Y92200000D01*
X-50892800Y92200000D02*
X-50845181Y92342857D01*
X-50845181Y92342857D02*
X-50845181Y92580952D01*
X-50845181Y91580952D02*
X-51845181Y91580952D01*
X-64933334Y87345181D02*
X-64933334Y88345181D01*
X-64933334Y88345181D02*
X-65314286Y88345181D01*
X-65314286Y88345181D02*
X-65409524Y88297562D01*
X-65409524Y88297562D02*
X-65457143Y88249943D01*
X-65457143Y88249943D02*
X-65504762Y88154705D01*
X-65504762Y88154705D02*
X-65504762Y88011848D01*
X-65504762Y88011848D02*
X-65457143Y87916610D01*
X-65457143Y87916610D02*
X-65409524Y87868991D01*
X-65409524Y87868991D02*
X-65314286Y87821372D01*
X-65314286Y87821372D02*
X-64933334Y87821372D01*
X-65933334Y87345181D02*
X-65933334Y88345181D01*
X-65933334Y87868991D02*
X-66504762Y87868991D01*
X-66504762Y87345181D02*
X-66504762Y88345181D01*
X-67171429Y87821372D02*
X-67171429Y87345181D01*
X-66838096Y88345181D02*
X-67171429Y87821372D01*
X-67171429Y87821372D02*
X-67504762Y88345181D01*
X-67600000Y87249943D02*
X-68361905Y87249943D01*
X-68600001Y87345181D02*
X-68600001Y88345181D01*
X-68600001Y88345181D02*
X-68980953Y88345181D01*
X-68980953Y88345181D02*
X-69076191Y88297562D01*
X-69076191Y88297562D02*
X-69123810Y88249943D01*
X-69123810Y88249943D02*
X-69171429Y88154705D01*
X-69171429Y88154705D02*
X-69171429Y88011848D01*
X-69171429Y88011848D02*
X-69123810Y87916610D01*
X-69123810Y87916610D02*
X-69076191Y87868991D01*
X-69076191Y87868991D02*
X-68980953Y87821372D01*
X-68980953Y87821372D02*
X-68600001Y87821372D01*
X-69504763Y88345181D02*
X-69742858Y87345181D01*
X-69742858Y87345181D02*
X-69933334Y88059467D01*
X-69933334Y88059467D02*
X-70123810Y87345181D01*
X-70123810Y87345181D02*
X-70361905Y88345181D01*
X-71314286Y87345181D02*
X-70980953Y87821372D01*
X-70742858Y87345181D02*
X-70742858Y88345181D01*
X-70742858Y88345181D02*
X-71123810Y88345181D01*
X-71123810Y88345181D02*
X-71219048Y88297562D01*
X-71219048Y88297562D02*
X-71266667Y88249943D01*
X-71266667Y88249943D02*
X-71314286Y88154705D01*
X-71314286Y88154705D02*
X-71314286Y88011848D01*
X-71314286Y88011848D02*
X-71266667Y87916610D01*
X-71266667Y87916610D02*
X-71219048Y87868991D01*
X-71219048Y87868991D02*
X-71123810Y87821372D01*
X-71123810Y87821372D02*
X-70742858Y87821372D01*
X-64795238Y88622800D02*
X-71404762Y88622800D01*
X-46868991Y84547620D02*
X-46868991Y84880953D01*
X-46345181Y84880953D02*
X-47345181Y84880953D01*
X-47345181Y84880953D02*
X-47345181Y84404763D01*
X-46345181Y84023810D02*
X-47345181Y84023810D01*
X-47345181Y84023810D02*
X-47345181Y83642858D01*
X-47345181Y83642858D02*
X-47297562Y83547620D01*
X-47297562Y83547620D02*
X-47249943Y83500001D01*
X-47249943Y83500001D02*
X-47154705Y83452382D01*
X-47154705Y83452382D02*
X-47011848Y83452382D01*
X-47011848Y83452382D02*
X-46916610Y83500001D01*
X-46916610Y83500001D02*
X-46868991Y83547620D01*
X-46868991Y83547620D02*
X-46821372Y83642858D01*
X-46821372Y83642858D02*
X-46821372Y84023810D01*
X-47297562Y82500001D02*
X-47345181Y82595239D01*
X-47345181Y82595239D02*
X-47345181Y82738096D01*
X-47345181Y82738096D02*
X-47297562Y82880953D01*
X-47297562Y82880953D02*
X-47202324Y82976191D01*
X-47202324Y82976191D02*
X-47107086Y83023810D01*
X-47107086Y83023810D02*
X-46916610Y83071429D01*
X-46916610Y83071429D02*
X-46773753Y83071429D01*
X-46773753Y83071429D02*
X-46583277Y83023810D01*
X-46583277Y83023810D02*
X-46488039Y82976191D01*
X-46488039Y82976191D02*
X-46392800Y82880953D01*
X-46392800Y82880953D02*
X-46345181Y82738096D01*
X-46345181Y82738096D02*
X-46345181Y82642858D01*
X-46345181Y82642858D02*
X-46392800Y82500001D01*
X-46392800Y82500001D02*
X-46440420Y82452382D01*
X-46440420Y82452382D02*
X-46773753Y82452382D01*
X-46773753Y82452382D02*
X-46773753Y82642858D01*
X-46630896Y82071429D02*
X-46630896Y81595239D01*
X-46345181Y82166667D02*
X-47345181Y81833334D01*
X-47345181Y81833334D02*
X-46345181Y81500001D01*
X-46249943Y81404762D02*
X-46249943Y80642858D01*
X-47345181Y80547619D02*
X-47345181Y79976191D01*
X-46345181Y80261905D02*
X-47345181Y80261905D01*
X-46440420Y79071429D02*
X-46392800Y79119048D01*
X-46392800Y79119048D02*
X-46345181Y79261905D01*
X-46345181Y79261905D02*
X-46345181Y79357143D01*
X-46345181Y79357143D02*
X-46392800Y79500000D01*
X-46392800Y79500000D02*
X-46488039Y79595238D01*
X-46488039Y79595238D02*
X-46583277Y79642857D01*
X-46583277Y79642857D02*
X-46773753Y79690476D01*
X-46773753Y79690476D02*
X-46916610Y79690476D01*
X-46916610Y79690476D02*
X-47107086Y79642857D01*
X-47107086Y79642857D02*
X-47202324Y79595238D01*
X-47202324Y79595238D02*
X-47297562Y79500000D01*
X-47297562Y79500000D02*
X-47345181Y79357143D01*
X-47345181Y79357143D02*
X-47345181Y79261905D01*
X-47345181Y79261905D02*
X-47297562Y79119048D01*
X-47297562Y79119048D02*
X-47249943Y79071429D01*
X-46345181Y78642857D02*
X-47345181Y78642857D01*
X-46345181Y78071429D02*
X-46916610Y78500000D01*
X-47345181Y78071429D02*
X-46773753Y78642857D01*
X-33659524Y36695181D02*
X-33183334Y36695181D01*
X-33183334Y36695181D02*
X-33135715Y36218991D01*
X-33135715Y36218991D02*
X-33183334Y36266610D01*
X-33183334Y36266610D02*
X-33278572Y36314229D01*
X-33278572Y36314229D02*
X-33516667Y36314229D01*
X-33516667Y36314229D02*
X-33611905Y36266610D01*
X-33611905Y36266610D02*
X-33659524Y36218991D01*
X-33659524Y36218991D02*
X-33707143Y36123753D01*
X-33707143Y36123753D02*
X-33707143Y35885658D01*
X-33707143Y35885658D02*
X-33659524Y35790420D01*
X-33659524Y35790420D02*
X-33611905Y35742800D01*
X-33611905Y35742800D02*
X-33516667Y35695181D01*
X-33516667Y35695181D02*
X-33278572Y35695181D01*
X-33278572Y35695181D02*
X-33183334Y35742800D01*
X-33183334Y35742800D02*
X-33135715Y35790420D01*
X-33992858Y36695181D02*
X-34326191Y35695181D01*
X-34326191Y35695181D02*
X-34659524Y36695181D01*
X-65566667Y66568991D02*
X-65233334Y66568991D01*
X-65233334Y66045181D02*
X-65233334Y67045181D01*
X-65233334Y67045181D02*
X-65709524Y67045181D01*
X-66566667Y66045181D02*
X-66090477Y66045181D01*
X-66090477Y66045181D02*
X-66090477Y67045181D01*
X-66852382Y66330896D02*
X-67328572Y66330896D01*
X-66757144Y66045181D02*
X-67090477Y67045181D01*
X-67090477Y67045181D02*
X-67423810Y66045181D01*
X-67709525Y66092800D02*
X-67852382Y66045181D01*
X-67852382Y66045181D02*
X-68090477Y66045181D01*
X-68090477Y66045181D02*
X-68185715Y66092800D01*
X-68185715Y66092800D02*
X-68233334Y66140420D01*
X-68233334Y66140420D02*
X-68280953Y66235658D01*
X-68280953Y66235658D02*
X-68280953Y66330896D01*
X-68280953Y66330896D02*
X-68233334Y66426134D01*
X-68233334Y66426134D02*
X-68185715Y66473753D01*
X-68185715Y66473753D02*
X-68090477Y66521372D01*
X-68090477Y66521372D02*
X-67900001Y66568991D01*
X-67900001Y66568991D02*
X-67804763Y66616610D01*
X-67804763Y66616610D02*
X-67757144Y66664229D01*
X-67757144Y66664229D02*
X-67709525Y66759467D01*
X-67709525Y66759467D02*
X-67709525Y66854705D01*
X-67709525Y66854705D02*
X-67757144Y66949943D01*
X-67757144Y66949943D02*
X-67804763Y66997562D01*
X-67804763Y66997562D02*
X-67900001Y67045181D01*
X-67900001Y67045181D02*
X-68138096Y67045181D01*
X-68138096Y67045181D02*
X-68280953Y66997562D01*
X-68709525Y66045181D02*
X-68709525Y67045181D01*
X-68709525Y66568991D02*
X-69280953Y66568991D01*
X-69280953Y66045181D02*
X-69280953Y67045181D01*
X-69519048Y65949943D02*
X-70280953Y65949943D01*
X-71090477Y66140420D02*
X-71042858Y66092800D01*
X-71042858Y66092800D02*
X-70900001Y66045181D01*
X-70900001Y66045181D02*
X-70804763Y66045181D01*
X-70804763Y66045181D02*
X-70661906Y66092800D01*
X-70661906Y66092800D02*
X-70566668Y66188039D01*
X-70566668Y66188039D02*
X-70519049Y66283277D01*
X-70519049Y66283277D02*
X-70471430Y66473753D01*
X-70471430Y66473753D02*
X-70471430Y66616610D01*
X-70471430Y66616610D02*
X-70519049Y66807086D01*
X-70519049Y66807086D02*
X-70566668Y66902324D01*
X-70566668Y66902324D02*
X-70661906Y66997562D01*
X-70661906Y66997562D02*
X-70804763Y67045181D01*
X-70804763Y67045181D02*
X-70900001Y67045181D01*
X-70900001Y67045181D02*
X-71042858Y66997562D01*
X-71042858Y66997562D02*
X-71090477Y66949943D01*
X-71519049Y66045181D02*
X-71519049Y67045181D01*
X-71995239Y66045181D02*
X-71995239Y67045181D01*
X-71995239Y67045181D02*
X-72376191Y67045181D01*
X-72376191Y67045181D02*
X-72471429Y66997562D01*
X-72471429Y66997562D02*
X-72519048Y66949943D01*
X-72519048Y66949943D02*
X-72566667Y66854705D01*
X-72566667Y66854705D02*
X-72566667Y66711848D01*
X-72566667Y66711848D02*
X-72519048Y66616610D01*
X-72519048Y66616610D02*
X-72471429Y66568991D01*
X-72471429Y66568991D02*
X-72376191Y66521372D01*
X-72376191Y66521372D02*
X-71995239Y66521372D01*
X-73185715Y67045181D02*
X-73376191Y67045181D01*
X-73376191Y67045181D02*
X-73471429Y66997562D01*
X-73471429Y66997562D02*
X-73566667Y66902324D01*
X-73566667Y66902324D02*
X-73614286Y66711848D01*
X-73614286Y66711848D02*
X-73614286Y66378515D01*
X-73614286Y66378515D02*
X-73566667Y66188039D01*
X-73566667Y66188039D02*
X-73471429Y66092800D01*
X-73471429Y66092800D02*
X-73376191Y66045181D01*
X-73376191Y66045181D02*
X-73185715Y66045181D01*
X-73185715Y66045181D02*
X-73090477Y66092800D01*
X-73090477Y66092800D02*
X-72995239Y66188039D01*
X-72995239Y66188039D02*
X-72947620Y66378515D01*
X-72947620Y66378515D02*
X-72947620Y66711848D01*
X-72947620Y66711848D02*
X-72995239Y66902324D01*
X-72995239Y66902324D02*
X-73090477Y66997562D01*
X-73090477Y66997562D02*
X-73185715Y67045181D01*
X-51592800Y83942857D02*
X-51545181Y83800000D01*
X-51545181Y83800000D02*
X-51545181Y83561905D01*
X-51545181Y83561905D02*
X-51592800Y83466667D01*
X-51592800Y83466667D02*
X-51640420Y83419048D01*
X-51640420Y83419048D02*
X-51735658Y83371429D01*
X-51735658Y83371429D02*
X-51830896Y83371429D01*
X-51830896Y83371429D02*
X-51926134Y83419048D01*
X-51926134Y83419048D02*
X-51973753Y83466667D01*
X-51973753Y83466667D02*
X-52021372Y83561905D01*
X-52021372Y83561905D02*
X-52068991Y83752381D01*
X-52068991Y83752381D02*
X-52116610Y83847619D01*
X-52116610Y83847619D02*
X-52164229Y83895238D01*
X-52164229Y83895238D02*
X-52259467Y83942857D01*
X-52259467Y83942857D02*
X-52354705Y83942857D01*
X-52354705Y83942857D02*
X-52449943Y83895238D01*
X-52449943Y83895238D02*
X-52497562Y83847619D01*
X-52497562Y83847619D02*
X-52545181Y83752381D01*
X-52545181Y83752381D02*
X-52545181Y83514286D01*
X-52545181Y83514286D02*
X-52497562Y83371429D01*
X-52545181Y82942857D02*
X-51735658Y82942857D01*
X-51735658Y82942857D02*
X-51640420Y82895238D01*
X-51640420Y82895238D02*
X-51592800Y82847619D01*
X-51592800Y82847619D02*
X-51545181Y82752381D01*
X-51545181Y82752381D02*
X-51545181Y82561905D01*
X-51545181Y82561905D02*
X-51592800Y82466667D01*
X-51592800Y82466667D02*
X-51640420Y82419048D01*
X-51640420Y82419048D02*
X-51735658Y82371429D01*
X-51735658Y82371429D02*
X-52545181Y82371429D01*
X-51449943Y82133333D02*
X-51449943Y81371429D01*
X-51592800Y81180952D02*
X-51545181Y81038095D01*
X-51545181Y81038095D02*
X-51545181Y80800000D01*
X-51545181Y80800000D02*
X-51592800Y80704762D01*
X-51592800Y80704762D02*
X-51640420Y80657143D01*
X-51640420Y80657143D02*
X-51735658Y80609524D01*
X-51735658Y80609524D02*
X-51830896Y80609524D01*
X-51830896Y80609524D02*
X-51926134Y80657143D01*
X-51926134Y80657143D02*
X-51973753Y80704762D01*
X-51973753Y80704762D02*
X-52021372Y80800000D01*
X-52021372Y80800000D02*
X-52068991Y80990476D01*
X-52068991Y80990476D02*
X-52116610Y81085714D01*
X-52116610Y81085714D02*
X-52164229Y81133333D01*
X-52164229Y81133333D02*
X-52259467Y81180952D01*
X-52259467Y81180952D02*
X-52354705Y81180952D01*
X-52354705Y81180952D02*
X-52449943Y81133333D01*
X-52449943Y81133333D02*
X-52497562Y81085714D01*
X-52497562Y81085714D02*
X-52545181Y80990476D01*
X-52545181Y80990476D02*
X-52545181Y80752381D01*
X-52545181Y80752381D02*
X-52497562Y80609524D01*
X-52545181Y80276190D02*
X-51545181Y80038095D01*
X-51545181Y80038095D02*
X-52259467Y79847619D01*
X-52259467Y79847619D02*
X-51545181Y79657143D01*
X-51545181Y79657143D02*
X-52545181Y79419047D01*
X-51640420Y78466667D02*
X-51592800Y78514286D01*
X-51592800Y78514286D02*
X-51545181Y78657143D01*
X-51545181Y78657143D02*
X-51545181Y78752381D01*
X-51545181Y78752381D02*
X-51592800Y78895238D01*
X-51592800Y78895238D02*
X-51688039Y78990476D01*
X-51688039Y78990476D02*
X-51783277Y79038095D01*
X-51783277Y79038095D02*
X-51973753Y79085714D01*
X-51973753Y79085714D02*
X-52116610Y79085714D01*
X-52116610Y79085714D02*
X-52307086Y79038095D01*
X-52307086Y79038095D02*
X-52402324Y78990476D01*
X-52402324Y78990476D02*
X-52497562Y78895238D01*
X-52497562Y78895238D02*
X-52545181Y78752381D01*
X-52545181Y78752381D02*
X-52545181Y78657143D01*
X-52545181Y78657143D02*
X-52497562Y78514286D01*
X-52497562Y78514286D02*
X-52449943Y78466667D01*
X-51545181Y77561905D02*
X-51545181Y78038095D01*
X-51545181Y78038095D02*
X-52545181Y78038095D01*
X-51545181Y77228571D02*
X-52545181Y77228571D01*
X-51545181Y76657143D02*
X-52116610Y77085714D01*
X-52545181Y76657143D02*
X-51973753Y77228571D01*
X-46176192Y49295181D02*
X-46176192Y50295181D01*
X-46176192Y50295181D02*
X-46557144Y50295181D01*
X-46557144Y50295181D02*
X-46652382Y50247562D01*
X-46652382Y50247562D02*
X-46700001Y50199943D01*
X-46700001Y50199943D02*
X-46747620Y50104705D01*
X-46747620Y50104705D02*
X-46747620Y49961848D01*
X-46747620Y49961848D02*
X-46700001Y49866610D01*
X-46700001Y49866610D02*
X-46652382Y49818991D01*
X-46652382Y49818991D02*
X-46557144Y49771372D01*
X-46557144Y49771372D02*
X-46176192Y49771372D01*
X-47176192Y49295181D02*
X-47176192Y50295181D01*
X-47176192Y50295181D02*
X-47414287Y50295181D01*
X-47414287Y50295181D02*
X-47557144Y50247562D01*
X-47557144Y50247562D02*
X-47652382Y50152324D01*
X-47652382Y50152324D02*
X-47700001Y50057086D01*
X-47700001Y50057086D02*
X-47747620Y49866610D01*
X-47747620Y49866610D02*
X-47747620Y49723753D01*
X-47747620Y49723753D02*
X-47700001Y49533277D01*
X-47700001Y49533277D02*
X-47652382Y49438039D01*
X-47652382Y49438039D02*
X-47557144Y49342800D01*
X-47557144Y49342800D02*
X-47414287Y49295181D01*
X-47414287Y49295181D02*
X-47176192Y49295181D01*
X-47938096Y49199943D02*
X-48700001Y49199943D01*
X-48938097Y49295181D02*
X-48938097Y50295181D01*
X-49414287Y49295181D02*
X-49414287Y50295181D01*
X-49414287Y50295181D02*
X-49985715Y49295181D01*
X-49985715Y49295181D02*
X-49985715Y50295181D01*
X-50461906Y49295181D02*
X-50461906Y50295181D01*
X-50795239Y50295181D02*
X-51366667Y50295181D01*
X-51080953Y49295181D02*
X-51080953Y50295181D01*
X-46038096Y50572800D02*
X-51361905Y50572800D01*
X-43092800Y64554762D02*
X-43045181Y64411905D01*
X-43045181Y64411905D02*
X-43045181Y64173810D01*
X-43045181Y64173810D02*
X-43092800Y64078572D01*
X-43092800Y64078572D02*
X-43140420Y64030953D01*
X-43140420Y64030953D02*
X-43235658Y63983334D01*
X-43235658Y63983334D02*
X-43330896Y63983334D01*
X-43330896Y63983334D02*
X-43426134Y64030953D01*
X-43426134Y64030953D02*
X-43473753Y64078572D01*
X-43473753Y64078572D02*
X-43521372Y64173810D01*
X-43521372Y64173810D02*
X-43568991Y64364286D01*
X-43568991Y64364286D02*
X-43616610Y64459524D01*
X-43616610Y64459524D02*
X-43664229Y64507143D01*
X-43664229Y64507143D02*
X-43759467Y64554762D01*
X-43759467Y64554762D02*
X-43854705Y64554762D01*
X-43854705Y64554762D02*
X-43949943Y64507143D01*
X-43949943Y64507143D02*
X-43997562Y64459524D01*
X-43997562Y64459524D02*
X-44045181Y64364286D01*
X-44045181Y64364286D02*
X-44045181Y64126191D01*
X-44045181Y64126191D02*
X-43997562Y63983334D01*
X-44045181Y63554762D02*
X-43235658Y63554762D01*
X-43235658Y63554762D02*
X-43140420Y63507143D01*
X-43140420Y63507143D02*
X-43092800Y63459524D01*
X-43092800Y63459524D02*
X-43045181Y63364286D01*
X-43045181Y63364286D02*
X-43045181Y63173810D01*
X-43045181Y63173810D02*
X-43092800Y63078572D01*
X-43092800Y63078572D02*
X-43140420Y63030953D01*
X-43140420Y63030953D02*
X-43235658Y62983334D01*
X-43235658Y62983334D02*
X-44045181Y62983334D01*
X-42949943Y62745238D02*
X-42949943Y61983334D01*
X-43330896Y61792857D02*
X-43330896Y61316667D01*
X-43045181Y61888095D02*
X-44045181Y61554762D01*
X-44045181Y61554762D02*
X-43045181Y61221429D01*
X-44045181Y61030952D02*
X-44045181Y60459524D01*
X-43045181Y60745238D02*
X-44045181Y60745238D01*
X-44045181Y60269047D02*
X-44045181Y59697619D01*
X-43045181Y59983333D02*
X-44045181Y59983333D01*
X-43045181Y59364285D02*
X-44045181Y59364285D01*
X-44045181Y59364285D02*
X-43045181Y58792857D01*
X-43045181Y58792857D02*
X-44045181Y58792857D01*
X-6380953Y86645181D02*
X-6047620Y87121372D01*
X-5809525Y86645181D02*
X-5809525Y87645181D01*
X-5809525Y87645181D02*
X-6190477Y87645181D01*
X-6190477Y87645181D02*
X-6285715Y87597562D01*
X-6285715Y87597562D02*
X-6333334Y87549943D01*
X-6333334Y87549943D02*
X-6380953Y87454705D01*
X-6380953Y87454705D02*
X-6380953Y87311848D01*
X-6380953Y87311848D02*
X-6333334Y87216610D01*
X-6333334Y87216610D02*
X-6285715Y87168991D01*
X-6285715Y87168991D02*
X-6190477Y87121372D01*
X-6190477Y87121372D02*
X-5809525Y87121372D01*
X-6761906Y86930896D02*
X-7238096Y86930896D01*
X-6666668Y86645181D02*
X-7000001Y87645181D01*
X-7000001Y87645181D02*
X-7333334Y86645181D01*
X-7666668Y86645181D02*
X-7666668Y87645181D01*
X-7666668Y87645181D02*
X-8000001Y86930896D01*
X-8000001Y86930896D02*
X-8333334Y87645181D01*
X-8333334Y87645181D02*
X-8333334Y86645181D01*
X-10142858Y86645181D02*
X-9809525Y87121372D01*
X-9571430Y86645181D02*
X-9571430Y87645181D01*
X-9571430Y87645181D02*
X-9952382Y87645181D01*
X-9952382Y87645181D02*
X-10047620Y87597562D01*
X-10047620Y87597562D02*
X-10095239Y87549943D01*
X-10095239Y87549943D02*
X-10142858Y87454705D01*
X-10142858Y87454705D02*
X-10142858Y87311848D01*
X-10142858Y87311848D02*
X-10095239Y87216610D01*
X-10095239Y87216610D02*
X-10047620Y87168991D01*
X-10047620Y87168991D02*
X-9952382Y87121372D01*
X-9952382Y87121372D02*
X-9571430Y87121372D01*
X-10476192Y87645181D02*
X-10714287Y86645181D01*
X-10714287Y86645181D02*
X-10904763Y87359467D01*
X-10904763Y87359467D02*
X-11095239Y86645181D01*
X-11095239Y86645181D02*
X-11333334Y87645181D01*
X-11714287Y86645181D02*
X-11714287Y87645181D01*
X-11714287Y87645181D02*
X-11952382Y87645181D01*
X-11952382Y87645181D02*
X-12095239Y87597562D01*
X-12095239Y87597562D02*
X-12190477Y87502324D01*
X-12190477Y87502324D02*
X-12238096Y87407086D01*
X-12238096Y87407086D02*
X-12285715Y87216610D01*
X-12285715Y87216610D02*
X-12285715Y87073753D01*
X-12285715Y87073753D02*
X-12238096Y86883277D01*
X-12238096Y86883277D02*
X-12190477Y86788039D01*
X-12190477Y86788039D02*
X-12095239Y86692800D01*
X-12095239Y86692800D02*
X-11952382Y86645181D01*
X-11952382Y86645181D02*
X-11714287Y86645181D01*
X-12666668Y86692800D02*
X-12809525Y86645181D01*
X-12809525Y86645181D02*
X-13047620Y86645181D01*
X-13047620Y86645181D02*
X-13142858Y86692800D01*
X-13142858Y86692800D02*
X-13190477Y86740420D01*
X-13190477Y86740420D02*
X-13238096Y86835658D01*
X-13238096Y86835658D02*
X-13238096Y86930896D01*
X-13238096Y86930896D02*
X-13190477Y87026134D01*
X-13190477Y87026134D02*
X-13142858Y87073753D01*
X-13142858Y87073753D02*
X-13047620Y87121372D01*
X-13047620Y87121372D02*
X-12857144Y87168991D01*
X-12857144Y87168991D02*
X-12761906Y87216610D01*
X-12761906Y87216610D02*
X-12714287Y87264229D01*
X-12714287Y87264229D02*
X-12666668Y87359467D01*
X-12666668Y87359467D02*
X-12666668Y87454705D01*
X-12666668Y87454705D02*
X-12714287Y87549943D01*
X-12714287Y87549943D02*
X-12761906Y87597562D01*
X-12761906Y87597562D02*
X-12857144Y87645181D01*
X-12857144Y87645181D02*
X-13095239Y87645181D01*
X-13095239Y87645181D02*
X-13238096Y87597562D01*
X-28259525Y41495181D02*
X-28878572Y41495181D01*
X-28878572Y41495181D02*
X-28545239Y41114229D01*
X-28545239Y41114229D02*
X-28688096Y41114229D01*
X-28688096Y41114229D02*
X-28783334Y41066610D01*
X-28783334Y41066610D02*
X-28830953Y41018991D01*
X-28830953Y41018991D02*
X-28878572Y40923753D01*
X-28878572Y40923753D02*
X-28878572Y40685658D01*
X-28878572Y40685658D02*
X-28830953Y40590420D01*
X-28830953Y40590420D02*
X-28783334Y40542800D01*
X-28783334Y40542800D02*
X-28688096Y40495181D01*
X-28688096Y40495181D02*
X-28402382Y40495181D01*
X-28402382Y40495181D02*
X-28307144Y40542800D01*
X-28307144Y40542800D02*
X-28259525Y40590420D01*
X-29211906Y41161848D02*
X-29450001Y40495181D01*
X-29450001Y40495181D02*
X-29688096Y41161848D01*
X-29973811Y41495181D02*
X-30592858Y41495181D01*
X-30592858Y41495181D02*
X-30259525Y41114229D01*
X-30259525Y41114229D02*
X-30402382Y41114229D01*
X-30402382Y41114229D02*
X-30497620Y41066610D01*
X-30497620Y41066610D02*
X-30545239Y41018991D01*
X-30545239Y41018991D02*
X-30592858Y40923753D01*
X-30592858Y40923753D02*
X-30592858Y40685658D01*
X-30592858Y40685658D02*
X-30545239Y40590420D01*
X-30545239Y40590420D02*
X-30497620Y40542800D01*
X-30497620Y40542800D02*
X-30402382Y40495181D01*
X-30402382Y40495181D02*
X-30116668Y40495181D01*
X-30116668Y40495181D02*
X-30021430Y40542800D01*
X-30021430Y40542800D02*
X-29973811Y40590420D01*
X-28888096Y46997562D02*
X-28792858Y47045181D01*
X-28792858Y47045181D02*
X-28650001Y47045181D01*
X-28650001Y47045181D02*
X-28507144Y46997562D01*
X-28507144Y46997562D02*
X-28411906Y46902324D01*
X-28411906Y46902324D02*
X-28364287Y46807086D01*
X-28364287Y46807086D02*
X-28316668Y46616610D01*
X-28316668Y46616610D02*
X-28316668Y46473753D01*
X-28316668Y46473753D02*
X-28364287Y46283277D01*
X-28364287Y46283277D02*
X-28411906Y46188039D01*
X-28411906Y46188039D02*
X-28507144Y46092800D01*
X-28507144Y46092800D02*
X-28650001Y46045181D01*
X-28650001Y46045181D02*
X-28745239Y46045181D01*
X-28745239Y46045181D02*
X-28888096Y46092800D01*
X-28888096Y46092800D02*
X-28935715Y46140420D01*
X-28935715Y46140420D02*
X-28935715Y46473753D01*
X-28935715Y46473753D02*
X-28745239Y46473753D01*
X-29364287Y46045181D02*
X-29364287Y47045181D01*
X-29364287Y47045181D02*
X-29935715Y46045181D01*
X-29935715Y46045181D02*
X-29935715Y47045181D01*
X-30411906Y46045181D02*
X-30411906Y47045181D01*
X-30411906Y47045181D02*
X-30650001Y47045181D01*
X-30650001Y47045181D02*
X-30792858Y46997562D01*
X-30792858Y46997562D02*
X-30888096Y46902324D01*
X-30888096Y46902324D02*
X-30935715Y46807086D01*
X-30935715Y46807086D02*
X-30983334Y46616610D01*
X-30983334Y46616610D02*
X-30983334Y46473753D01*
X-30983334Y46473753D02*
X-30935715Y46283277D01*
X-30935715Y46283277D02*
X-30888096Y46188039D01*
X-30888096Y46188039D02*
X-30792858Y46092800D01*
X-30792858Y46092800D02*
X-30650001Y46045181D01*
X-30650001Y46045181D02*
X-30411906Y46045181D01*
X-62952381Y69568991D02*
X-62619048Y69568991D01*
X-62619048Y69045181D02*
X-62619048Y70045181D01*
X-62619048Y70045181D02*
X-63095238Y70045181D01*
X-63952381Y69045181D02*
X-63476191Y69045181D01*
X-63476191Y69045181D02*
X-63476191Y70045181D01*
X-64238096Y69330896D02*
X-64714286Y69330896D01*
X-64142858Y69045181D02*
X-64476191Y70045181D01*
X-64476191Y70045181D02*
X-64809524Y69045181D01*
X-65095239Y69092800D02*
X-65238096Y69045181D01*
X-65238096Y69045181D02*
X-65476191Y69045181D01*
X-65476191Y69045181D02*
X-65571429Y69092800D01*
X-65571429Y69092800D02*
X-65619048Y69140420D01*
X-65619048Y69140420D02*
X-65666667Y69235658D01*
X-65666667Y69235658D02*
X-65666667Y69330896D01*
X-65666667Y69330896D02*
X-65619048Y69426134D01*
X-65619048Y69426134D02*
X-65571429Y69473753D01*
X-65571429Y69473753D02*
X-65476191Y69521372D01*
X-65476191Y69521372D02*
X-65285715Y69568991D01*
X-65285715Y69568991D02*
X-65190477Y69616610D01*
X-65190477Y69616610D02*
X-65142858Y69664229D01*
X-65142858Y69664229D02*
X-65095239Y69759467D01*
X-65095239Y69759467D02*
X-65095239Y69854705D01*
X-65095239Y69854705D02*
X-65142858Y69949943D01*
X-65142858Y69949943D02*
X-65190477Y69997562D01*
X-65190477Y69997562D02*
X-65285715Y70045181D01*
X-65285715Y70045181D02*
X-65523810Y70045181D01*
X-65523810Y70045181D02*
X-65666667Y69997562D01*
X-66095239Y69045181D02*
X-66095239Y70045181D01*
X-66095239Y69568991D02*
X-66666667Y69568991D01*
X-66666667Y69045181D02*
X-66666667Y70045181D01*
X-66904762Y68949943D02*
X-67666667Y68949943D01*
X-68476191Y69140420D02*
X-68428572Y69092800D01*
X-68428572Y69092800D02*
X-68285715Y69045181D01*
X-68285715Y69045181D02*
X-68190477Y69045181D01*
X-68190477Y69045181D02*
X-68047620Y69092800D01*
X-68047620Y69092800D02*
X-67952382Y69188039D01*
X-67952382Y69188039D02*
X-67904763Y69283277D01*
X-67904763Y69283277D02*
X-67857144Y69473753D01*
X-67857144Y69473753D02*
X-67857144Y69616610D01*
X-67857144Y69616610D02*
X-67904763Y69807086D01*
X-67904763Y69807086D02*
X-67952382Y69902324D01*
X-67952382Y69902324D02*
X-68047620Y69997562D01*
X-68047620Y69997562D02*
X-68190477Y70045181D01*
X-68190477Y70045181D02*
X-68285715Y70045181D01*
X-68285715Y70045181D02*
X-68428572Y69997562D01*
X-68428572Y69997562D02*
X-68476191Y69949943D01*
X-68857144Y69092800D02*
X-69000001Y69045181D01*
X-69000001Y69045181D02*
X-69238096Y69045181D01*
X-69238096Y69045181D02*
X-69333334Y69092800D01*
X-69333334Y69092800D02*
X-69380953Y69140420D01*
X-69380953Y69140420D02*
X-69428572Y69235658D01*
X-69428572Y69235658D02*
X-69428572Y69330896D01*
X-69428572Y69330896D02*
X-69380953Y69426134D01*
X-69380953Y69426134D02*
X-69333334Y69473753D01*
X-69333334Y69473753D02*
X-69238096Y69521372D01*
X-69238096Y69521372D02*
X-69047620Y69568991D01*
X-69047620Y69568991D02*
X-68952382Y69616610D01*
X-68952382Y69616610D02*
X-68904763Y69664229D01*
X-68904763Y69664229D02*
X-68857144Y69759467D01*
X-68857144Y69759467D02*
X-68857144Y69854705D01*
X-68857144Y69854705D02*
X-68904763Y69949943D01*
X-68904763Y69949943D02*
X-68952382Y69997562D01*
X-68952382Y69997562D02*
X-69047620Y70045181D01*
X-69047620Y70045181D02*
X-69285715Y70045181D01*
X-69285715Y70045181D02*
X-69428572Y69997562D01*
X-62480952Y70322800D02*
X-69519048Y70322800D01*
X-40645181Y46171429D02*
X-40645181Y46742857D01*
X-40645181Y46457143D02*
X-41645181Y46457143D01*
X-41645181Y46457143D02*
X-41502324Y46552381D01*
X-41502324Y46552381D02*
X-41407086Y46647619D01*
X-41407086Y46647619D02*
X-41359467Y46742857D01*
X-41311848Y45838095D02*
X-40645181Y45600000D01*
X-40645181Y45600000D02*
X-41311848Y45361905D01*
X-41216610Y44838095D02*
X-41264229Y44933333D01*
X-41264229Y44933333D02*
X-41311848Y44980952D01*
X-41311848Y44980952D02*
X-41407086Y45028571D01*
X-41407086Y45028571D02*
X-41454705Y45028571D01*
X-41454705Y45028571D02*
X-41549943Y44980952D01*
X-41549943Y44980952D02*
X-41597562Y44933333D01*
X-41597562Y44933333D02*
X-41645181Y44838095D01*
X-41645181Y44838095D02*
X-41645181Y44647619D01*
X-41645181Y44647619D02*
X-41597562Y44552381D01*
X-41597562Y44552381D02*
X-41549943Y44504762D01*
X-41549943Y44504762D02*
X-41454705Y44457143D01*
X-41454705Y44457143D02*
X-41407086Y44457143D01*
X-41407086Y44457143D02*
X-41311848Y44504762D01*
X-41311848Y44504762D02*
X-41264229Y44552381D01*
X-41264229Y44552381D02*
X-41216610Y44647619D01*
X-41216610Y44647619D02*
X-41216610Y44838095D01*
X-41216610Y44838095D02*
X-41168991Y44933333D01*
X-41168991Y44933333D02*
X-41121372Y44980952D01*
X-41121372Y44980952D02*
X-41026134Y45028571D01*
X-41026134Y45028571D02*
X-40835658Y45028571D01*
X-40835658Y45028571D02*
X-40740420Y44980952D01*
X-40740420Y44980952D02*
X-40692800Y44933333D01*
X-40692800Y44933333D02*
X-40645181Y44838095D01*
X-40645181Y44838095D02*
X-40645181Y44647619D01*
X-40645181Y44647619D02*
X-40692800Y44552381D01*
X-40692800Y44552381D02*
X-40740420Y44504762D01*
X-40740420Y44504762D02*
X-40835658Y44457143D01*
X-40835658Y44457143D02*
X-41026134Y44457143D01*
X-41026134Y44457143D02*
X-41121372Y44504762D01*
X-41121372Y44504762D02*
X-41168991Y44552381D01*
X-41168991Y44552381D02*
X-41216610Y44647619D01*
X-56792800Y82200000D02*
X-56745181Y82057143D01*
X-56745181Y82057143D02*
X-56745181Y81819048D01*
X-56745181Y81819048D02*
X-56792800Y81723810D01*
X-56792800Y81723810D02*
X-56840420Y81676191D01*
X-56840420Y81676191D02*
X-56935658Y81628572D01*
X-56935658Y81628572D02*
X-57030896Y81628572D01*
X-57030896Y81628572D02*
X-57126134Y81676191D01*
X-57126134Y81676191D02*
X-57173753Y81723810D01*
X-57173753Y81723810D02*
X-57221372Y81819048D01*
X-57221372Y81819048D02*
X-57268991Y82009524D01*
X-57268991Y82009524D02*
X-57316610Y82104762D01*
X-57316610Y82104762D02*
X-57364229Y82152381D01*
X-57364229Y82152381D02*
X-57459467Y82200000D01*
X-57459467Y82200000D02*
X-57554705Y82200000D01*
X-57554705Y82200000D02*
X-57649943Y82152381D01*
X-57649943Y82152381D02*
X-57697562Y82104762D01*
X-57697562Y82104762D02*
X-57745181Y82009524D01*
X-57745181Y82009524D02*
X-57745181Y81771429D01*
X-57745181Y81771429D02*
X-57697562Y81628572D01*
X-57745181Y81200000D02*
X-56935658Y81200000D01*
X-56935658Y81200000D02*
X-56840420Y81152381D01*
X-56840420Y81152381D02*
X-56792800Y81104762D01*
X-56792800Y81104762D02*
X-56745181Y81009524D01*
X-56745181Y81009524D02*
X-56745181Y80819048D01*
X-56745181Y80819048D02*
X-56792800Y80723810D01*
X-56792800Y80723810D02*
X-56840420Y80676191D01*
X-56840420Y80676191D02*
X-56935658Y80628572D01*
X-56935658Y80628572D02*
X-57745181Y80628572D01*
X-56649943Y80390476D02*
X-56649943Y79628572D01*
X-56792800Y79438095D02*
X-56745181Y79295238D01*
X-56745181Y79295238D02*
X-56745181Y79057143D01*
X-56745181Y79057143D02*
X-56792800Y78961905D01*
X-56792800Y78961905D02*
X-56840420Y78914286D01*
X-56840420Y78914286D02*
X-56935658Y78866667D01*
X-56935658Y78866667D02*
X-57030896Y78866667D01*
X-57030896Y78866667D02*
X-57126134Y78914286D01*
X-57126134Y78914286D02*
X-57173753Y78961905D01*
X-57173753Y78961905D02*
X-57221372Y79057143D01*
X-57221372Y79057143D02*
X-57268991Y79247619D01*
X-57268991Y79247619D02*
X-57316610Y79342857D01*
X-57316610Y79342857D02*
X-57364229Y79390476D01*
X-57364229Y79390476D02*
X-57459467Y79438095D01*
X-57459467Y79438095D02*
X-57554705Y79438095D01*
X-57554705Y79438095D02*
X-57649943Y79390476D01*
X-57649943Y79390476D02*
X-57697562Y79342857D01*
X-57697562Y79342857D02*
X-57745181Y79247619D01*
X-57745181Y79247619D02*
X-57745181Y79009524D01*
X-57745181Y79009524D02*
X-57697562Y78866667D01*
X-57745181Y78533333D02*
X-56745181Y78295238D01*
X-56745181Y78295238D02*
X-57459467Y78104762D01*
X-57459467Y78104762D02*
X-56745181Y77914286D01*
X-56745181Y77914286D02*
X-57745181Y77676190D01*
X-56745181Y77295238D02*
X-57745181Y77295238D01*
X-57745181Y77295238D02*
X-57745181Y77057143D01*
X-57745181Y77057143D02*
X-57697562Y76914286D01*
X-57697562Y76914286D02*
X-57602324Y76819048D01*
X-57602324Y76819048D02*
X-57507086Y76771429D01*
X-57507086Y76771429D02*
X-57316610Y76723810D01*
X-57316610Y76723810D02*
X-57173753Y76723810D01*
X-57173753Y76723810D02*
X-56983277Y76771429D01*
X-56983277Y76771429D02*
X-56888039Y76819048D01*
X-56888039Y76819048D02*
X-56792800Y76914286D01*
X-56792800Y76914286D02*
X-56745181Y77057143D01*
X-56745181Y77057143D02*
X-56745181Y77295238D01*
X-56745181Y76295238D02*
X-57745181Y76295238D01*
X-57745181Y75628572D02*
X-57745181Y75438096D01*
X-57745181Y75438096D02*
X-57697562Y75342858D01*
X-57697562Y75342858D02*
X-57602324Y75247620D01*
X-57602324Y75247620D02*
X-57411848Y75200001D01*
X-57411848Y75200001D02*
X-57078515Y75200001D01*
X-57078515Y75200001D02*
X-56888039Y75247620D01*
X-56888039Y75247620D02*
X-56792800Y75342858D01*
X-56792800Y75342858D02*
X-56745181Y75438096D01*
X-56745181Y75438096D02*
X-56745181Y75628572D01*
X-56745181Y75628572D02*
X-56792800Y75723810D01*
X-56792800Y75723810D02*
X-56888039Y75819048D01*
X-56888039Y75819048D02*
X-57078515Y75866667D01*
X-57078515Y75866667D02*
X-57411848Y75866667D01*
X-57411848Y75866667D02*
X-57602324Y75819048D01*
X-57602324Y75819048D02*
X-57697562Y75723810D01*
X-57697562Y75723810D02*
X-57745181Y75628572D01*
X-49468991Y94695239D02*
X-49468991Y95028572D01*
X-48945181Y95028572D02*
X-49945181Y95028572D01*
X-49945181Y95028572D02*
X-49945181Y94552382D01*
X-48945181Y94171429D02*
X-49945181Y94171429D01*
X-49945181Y94171429D02*
X-49945181Y93790477D01*
X-49945181Y93790477D02*
X-49897562Y93695239D01*
X-49897562Y93695239D02*
X-49849943Y93647620D01*
X-49849943Y93647620D02*
X-49754705Y93600001D01*
X-49754705Y93600001D02*
X-49611848Y93600001D01*
X-49611848Y93600001D02*
X-49516610Y93647620D01*
X-49516610Y93647620D02*
X-49468991Y93695239D01*
X-49468991Y93695239D02*
X-49421372Y93790477D01*
X-49421372Y93790477D02*
X-49421372Y94171429D01*
X-49897562Y92647620D02*
X-49945181Y92742858D01*
X-49945181Y92742858D02*
X-49945181Y92885715D01*
X-49945181Y92885715D02*
X-49897562Y93028572D01*
X-49897562Y93028572D02*
X-49802324Y93123810D01*
X-49802324Y93123810D02*
X-49707086Y93171429D01*
X-49707086Y93171429D02*
X-49516610Y93219048D01*
X-49516610Y93219048D02*
X-49373753Y93219048D01*
X-49373753Y93219048D02*
X-49183277Y93171429D01*
X-49183277Y93171429D02*
X-49088039Y93123810D01*
X-49088039Y93123810D02*
X-48992800Y93028572D01*
X-48992800Y93028572D02*
X-48945181Y92885715D01*
X-48945181Y92885715D02*
X-48945181Y92790477D01*
X-48945181Y92790477D02*
X-48992800Y92647620D01*
X-48992800Y92647620D02*
X-49040420Y92600001D01*
X-49040420Y92600001D02*
X-49373753Y92600001D01*
X-49373753Y92600001D02*
X-49373753Y92790477D01*
X-49230896Y92219048D02*
X-49230896Y91742858D01*
X-48945181Y92314286D02*
X-49945181Y91980953D01*
X-49945181Y91980953D02*
X-48945181Y91647620D01*
X-48849943Y91552381D02*
X-48849943Y90790477D01*
X-49945181Y90695238D02*
X-49945181Y90123810D01*
X-48945181Y90409524D02*
X-49945181Y90409524D01*
X-48945181Y89790476D02*
X-49945181Y89790476D01*
X-49945181Y89790476D02*
X-49230896Y89457143D01*
X-49230896Y89457143D02*
X-49945181Y89123810D01*
X-49945181Y89123810D02*
X-48945181Y89123810D01*
X-48992800Y88695238D02*
X-48945181Y88552381D01*
X-48945181Y88552381D02*
X-48945181Y88314286D01*
X-48945181Y88314286D02*
X-48992800Y88219048D01*
X-48992800Y88219048D02*
X-49040420Y88171429D01*
X-49040420Y88171429D02*
X-49135658Y88123810D01*
X-49135658Y88123810D02*
X-49230896Y88123810D01*
X-49230896Y88123810D02*
X-49326134Y88171429D01*
X-49326134Y88171429D02*
X-49373753Y88219048D01*
X-49373753Y88219048D02*
X-49421372Y88314286D01*
X-49421372Y88314286D02*
X-49468991Y88504762D01*
X-49468991Y88504762D02*
X-49516610Y88600000D01*
X-49516610Y88600000D02*
X-49564229Y88647619D01*
X-49564229Y88647619D02*
X-49659467Y88695238D01*
X-49659467Y88695238D02*
X-49754705Y88695238D01*
X-49754705Y88695238D02*
X-49849943Y88647619D01*
X-49849943Y88647619D02*
X-49897562Y88600000D01*
X-49897562Y88600000D02*
X-49945181Y88504762D01*
X-49945181Y88504762D02*
X-49945181Y88266667D01*
X-49945181Y88266667D02*
X-49897562Y88123810D01*
X-68645181Y95428572D02*
X-69645181Y95428572D01*
X-69645181Y95428572D02*
X-69645181Y95047620D01*
X-69645181Y95047620D02*
X-69597562Y94952382D01*
X-69597562Y94952382D02*
X-69549943Y94904763D01*
X-69549943Y94904763D02*
X-69454705Y94857144D01*
X-69454705Y94857144D02*
X-69311848Y94857144D01*
X-69311848Y94857144D02*
X-69216610Y94904763D01*
X-69216610Y94904763D02*
X-69168991Y94952382D01*
X-69168991Y94952382D02*
X-69121372Y95047620D01*
X-69121372Y95047620D02*
X-69121372Y95428572D01*
X-68645181Y94428572D02*
X-69645181Y94428572D01*
X-69168991Y94428572D02*
X-69168991Y93857144D01*
X-68645181Y93857144D02*
X-69645181Y93857144D01*
X-69121372Y93190477D02*
X-68645181Y93190477D01*
X-69645181Y93523810D02*
X-69121372Y93190477D01*
X-69121372Y93190477D02*
X-69645181Y92857144D01*
X-68549943Y92761905D02*
X-68549943Y92000001D01*
X-69645181Y91285715D02*
X-69645181Y91761905D01*
X-69645181Y91761905D02*
X-69168991Y91809524D01*
X-69168991Y91809524D02*
X-69216610Y91761905D01*
X-69216610Y91761905D02*
X-69264229Y91666667D01*
X-69264229Y91666667D02*
X-69264229Y91428572D01*
X-69264229Y91428572D02*
X-69216610Y91333334D01*
X-69216610Y91333334D02*
X-69168991Y91285715D01*
X-69168991Y91285715D02*
X-69073753Y91238096D01*
X-69073753Y91238096D02*
X-68835658Y91238096D01*
X-68835658Y91238096D02*
X-68740420Y91285715D01*
X-68740420Y91285715D02*
X-68692800Y91333334D01*
X-68692800Y91333334D02*
X-68645181Y91428572D01*
X-68645181Y91428572D02*
X-68645181Y91666667D01*
X-68645181Y91666667D02*
X-68692800Y91761905D01*
X-68692800Y91761905D02*
X-68740420Y91809524D01*
X-69311848Y90904762D02*
X-68645181Y90666667D01*
X-68645181Y90666667D02*
X-69311848Y90428572D01*
X-69645181Y89857143D02*
X-69645181Y89761905D01*
X-69645181Y89761905D02*
X-69597562Y89666667D01*
X-69597562Y89666667D02*
X-69549943Y89619048D01*
X-69549943Y89619048D02*
X-69454705Y89571429D01*
X-69454705Y89571429D02*
X-69264229Y89523810D01*
X-69264229Y89523810D02*
X-69026134Y89523810D01*
X-69026134Y89523810D02*
X-68835658Y89571429D01*
X-68835658Y89571429D02*
X-68740420Y89619048D01*
X-68740420Y89619048D02*
X-68692800Y89666667D01*
X-68692800Y89666667D02*
X-68645181Y89761905D01*
X-68645181Y89761905D02*
X-68645181Y89857143D01*
X-68645181Y89857143D02*
X-68692800Y89952381D01*
X-68692800Y89952381D02*
X-68740420Y90000000D01*
X-68740420Y90000000D02*
X-68835658Y90047619D01*
X-68835658Y90047619D02*
X-69026134Y90095238D01*
X-69026134Y90095238D02*
X-69264229Y90095238D01*
X-69264229Y90095238D02*
X-69454705Y90047619D01*
X-69454705Y90047619D02*
X-69549943Y90000000D01*
X-69549943Y90000000D02*
X-69597562Y89952381D01*
X-69597562Y89952381D02*
X-69645181Y89857143D01*
X-54968991Y65490477D02*
X-54968991Y65823810D01*
X-54445181Y65823810D02*
X-55445181Y65823810D01*
X-55445181Y65823810D02*
X-55445181Y65347620D01*
X-54445181Y64966667D02*
X-55445181Y64966667D01*
X-55445181Y64966667D02*
X-55445181Y64585715D01*
X-55445181Y64585715D02*
X-55397562Y64490477D01*
X-55397562Y64490477D02*
X-55349943Y64442858D01*
X-55349943Y64442858D02*
X-55254705Y64395239D01*
X-55254705Y64395239D02*
X-55111848Y64395239D01*
X-55111848Y64395239D02*
X-55016610Y64442858D01*
X-55016610Y64442858D02*
X-54968991Y64490477D01*
X-54968991Y64490477D02*
X-54921372Y64585715D01*
X-54921372Y64585715D02*
X-54921372Y64966667D01*
X-55397562Y63442858D02*
X-55445181Y63538096D01*
X-55445181Y63538096D02*
X-55445181Y63680953D01*
X-55445181Y63680953D02*
X-55397562Y63823810D01*
X-55397562Y63823810D02*
X-55302324Y63919048D01*
X-55302324Y63919048D02*
X-55207086Y63966667D01*
X-55207086Y63966667D02*
X-55016610Y64014286D01*
X-55016610Y64014286D02*
X-54873753Y64014286D01*
X-54873753Y64014286D02*
X-54683277Y63966667D01*
X-54683277Y63966667D02*
X-54588039Y63919048D01*
X-54588039Y63919048D02*
X-54492800Y63823810D01*
X-54492800Y63823810D02*
X-54445181Y63680953D01*
X-54445181Y63680953D02*
X-54445181Y63585715D01*
X-54445181Y63585715D02*
X-54492800Y63442858D01*
X-54492800Y63442858D02*
X-54540420Y63395239D01*
X-54540420Y63395239D02*
X-54873753Y63395239D01*
X-54873753Y63395239D02*
X-54873753Y63585715D01*
X-54730896Y63014286D02*
X-54730896Y62538096D01*
X-54445181Y63109524D02*
X-55445181Y62776191D01*
X-55445181Y62776191D02*
X-54445181Y62442858D01*
X-54349943Y62347619D02*
X-54349943Y61585715D01*
X-54445181Y61347619D02*
X-55445181Y61347619D01*
X-55445181Y61347619D02*
X-55445181Y60966667D01*
X-55445181Y60966667D02*
X-55397562Y60871429D01*
X-55397562Y60871429D02*
X-55349943Y60823810D01*
X-55349943Y60823810D02*
X-55254705Y60776191D01*
X-55254705Y60776191D02*
X-55111848Y60776191D01*
X-55111848Y60776191D02*
X-55016610Y60823810D01*
X-55016610Y60823810D02*
X-54968991Y60871429D01*
X-54968991Y60871429D02*
X-54921372Y60966667D01*
X-54921372Y60966667D02*
X-54921372Y61347619D01*
X-54445181Y59776191D02*
X-54921372Y60109524D01*
X-54445181Y60347619D02*
X-55445181Y60347619D01*
X-55445181Y60347619D02*
X-55445181Y59966667D01*
X-55445181Y59966667D02*
X-55397562Y59871429D01*
X-55397562Y59871429D02*
X-55349943Y59823810D01*
X-55349943Y59823810D02*
X-55254705Y59776191D01*
X-55254705Y59776191D02*
X-55111848Y59776191D01*
X-55111848Y59776191D02*
X-55016610Y59823810D01*
X-55016610Y59823810D02*
X-54968991Y59871429D01*
X-54968991Y59871429D02*
X-54921372Y59966667D01*
X-54921372Y59966667D02*
X-54921372Y60347619D01*
X-55445181Y59157143D02*
X-55445181Y58966667D01*
X-55445181Y58966667D02*
X-55397562Y58871429D01*
X-55397562Y58871429D02*
X-55302324Y58776191D01*
X-55302324Y58776191D02*
X-55111848Y58728572D01*
X-55111848Y58728572D02*
X-54778515Y58728572D01*
X-54778515Y58728572D02*
X-54588039Y58776191D01*
X-54588039Y58776191D02*
X-54492800Y58871429D01*
X-54492800Y58871429D02*
X-54445181Y58966667D01*
X-54445181Y58966667D02*
X-54445181Y59157143D01*
X-54445181Y59157143D02*
X-54492800Y59252381D01*
X-54492800Y59252381D02*
X-54588039Y59347619D01*
X-54588039Y59347619D02*
X-54778515Y59395238D01*
X-54778515Y59395238D02*
X-55111848Y59395238D01*
X-55111848Y59395238D02*
X-55302324Y59347619D01*
X-55302324Y59347619D02*
X-55397562Y59252381D01*
X-55397562Y59252381D02*
X-55445181Y59157143D01*
X-55397562Y57776191D02*
X-55445181Y57871429D01*
X-55445181Y57871429D02*
X-55445181Y58014286D01*
X-55445181Y58014286D02*
X-55397562Y58157143D01*
X-55397562Y58157143D02*
X-55302324Y58252381D01*
X-55302324Y58252381D02*
X-55207086Y58300000D01*
X-55207086Y58300000D02*
X-55016610Y58347619D01*
X-55016610Y58347619D02*
X-54873753Y58347619D01*
X-54873753Y58347619D02*
X-54683277Y58300000D01*
X-54683277Y58300000D02*
X-54588039Y58252381D01*
X-54588039Y58252381D02*
X-54492800Y58157143D01*
X-54492800Y58157143D02*
X-54445181Y58014286D01*
X-54445181Y58014286D02*
X-54445181Y57919048D01*
X-54445181Y57919048D02*
X-54492800Y57776191D01*
X-54492800Y57776191D02*
X-54540420Y57728572D01*
X-54540420Y57728572D02*
X-54873753Y57728572D01*
X-54873753Y57728572D02*
X-54873753Y57919048D01*
X-55722800Y65961905D02*
X-55722800Y57638095D01*
X-8157144Y27399943D02*
X-8204763Y27447562D01*
X-8204763Y27447562D02*
X-8300001Y27495181D01*
X-8300001Y27495181D02*
X-8538096Y27495181D01*
X-8538096Y27495181D02*
X-8633334Y27447562D01*
X-8633334Y27447562D02*
X-8680953Y27399943D01*
X-8680953Y27399943D02*
X-8728572Y27304705D01*
X-8728572Y27304705D02*
X-8728572Y27209467D01*
X-8728572Y27209467D02*
X-8680953Y27066610D01*
X-8680953Y27066610D02*
X-8109525Y26495181D01*
X-8109525Y26495181D02*
X-8728572Y26495181D01*
X-9061906Y27161848D02*
X-9300001Y26495181D01*
X-9300001Y26495181D02*
X-9538096Y27161848D01*
X-10395239Y27495181D02*
X-9919049Y27495181D01*
X-9919049Y27495181D02*
X-9871430Y27018991D01*
X-9871430Y27018991D02*
X-9919049Y27066610D01*
X-9919049Y27066610D02*
X-10014287Y27114229D01*
X-10014287Y27114229D02*
X-10252382Y27114229D01*
X-10252382Y27114229D02*
X-10347620Y27066610D01*
X-10347620Y27066610D02*
X-10395239Y27018991D01*
X-10395239Y27018991D02*
X-10442858Y26923753D01*
X-10442858Y26923753D02*
X-10442858Y26685658D01*
X-10442858Y26685658D02*
X-10395239Y26590420D01*
X-10395239Y26590420D02*
X-10347620Y26542800D01*
X-10347620Y26542800D02*
X-10252382Y26495181D01*
X-10252382Y26495181D02*
X-10014287Y26495181D01*
X-10014287Y26495181D02*
X-9919049Y26542800D01*
X-9919049Y26542800D02*
X-9871430Y26590420D01*
X-49142801Y13554762D02*
X-49095182Y13411905D01*
X-49095182Y13411905D02*
X-49095182Y13173810D01*
X-49095182Y13173810D02*
X-49142801Y13078572D01*
X-49142801Y13078572D02*
X-49190421Y13030953D01*
X-49190421Y13030953D02*
X-49285659Y12983334D01*
X-49285659Y12983334D02*
X-49380897Y12983334D01*
X-49380897Y12983334D02*
X-49476135Y13030953D01*
X-49476135Y13030953D02*
X-49523754Y13078572D01*
X-49523754Y13078572D02*
X-49571373Y13173810D01*
X-49571373Y13173810D02*
X-49618992Y13364286D01*
X-49618992Y13364286D02*
X-49666611Y13459524D01*
X-49666611Y13459524D02*
X-49714230Y13507143D01*
X-49714230Y13507143D02*
X-49809468Y13554762D01*
X-49809468Y13554762D02*
X-49904706Y13554762D01*
X-49904706Y13554762D02*
X-49999944Y13507143D01*
X-49999944Y13507143D02*
X-50047563Y13459524D01*
X-50047563Y13459524D02*
X-50095182Y13364286D01*
X-50095182Y13364286D02*
X-50095182Y13126191D01*
X-50095182Y13126191D02*
X-50047563Y12983334D01*
X-49618992Y12554762D02*
X-49618992Y12221429D01*
X-49095182Y12078572D02*
X-49095182Y12554762D01*
X-49095182Y12554762D02*
X-50095182Y12554762D01*
X-50095182Y12554762D02*
X-50095182Y12078572D01*
X-49095182Y11650000D02*
X-50095182Y11650000D01*
X-50095182Y11650000D02*
X-50095182Y11269048D01*
X-50095182Y11269048D02*
X-50047563Y11173810D01*
X-50047563Y11173810D02*
X-49999944Y11126191D01*
X-49999944Y11126191D02*
X-49904706Y11078572D01*
X-49904706Y11078572D02*
X-49761849Y11078572D01*
X-49761849Y11078572D02*
X-49666611Y11126191D01*
X-49666611Y11126191D02*
X-49618992Y11173810D01*
X-49618992Y11173810D02*
X-49571373Y11269048D01*
X-49571373Y11269048D02*
X-49571373Y11650000D01*
X-49095182Y10650000D02*
X-50095182Y10650000D01*
X-49190421Y9602382D02*
X-49142801Y9650001D01*
X-49142801Y9650001D02*
X-49095182Y9792858D01*
X-49095182Y9792858D02*
X-49095182Y9888096D01*
X-49095182Y9888096D02*
X-49142801Y10030953D01*
X-49142801Y10030953D02*
X-49238040Y10126191D01*
X-49238040Y10126191D02*
X-49333278Y10173810D01*
X-49333278Y10173810D02*
X-49523754Y10221429D01*
X-49523754Y10221429D02*
X-49666611Y10221429D01*
X-49666611Y10221429D02*
X-49857087Y10173810D01*
X-49857087Y10173810D02*
X-49952325Y10126191D01*
X-49952325Y10126191D02*
X-50047563Y10030953D01*
X-50047563Y10030953D02*
X-50095182Y9888096D01*
X-50095182Y9888096D02*
X-50095182Y9792858D01*
X-50095182Y9792858D02*
X-50047563Y9650001D01*
X-50047563Y9650001D02*
X-49999944Y9602382D01*
X-48999944Y9411905D02*
X-48999944Y8650001D01*
X-50047563Y7888096D02*
X-50095182Y7983334D01*
X-50095182Y7983334D02*
X-50095182Y8126191D01*
X-50095182Y8126191D02*
X-50047563Y8269048D01*
X-50047563Y8269048D02*
X-49952325Y8364286D01*
X-49952325Y8364286D02*
X-49857087Y8411905D01*
X-49857087Y8411905D02*
X-49666611Y8459524D01*
X-49666611Y8459524D02*
X-49523754Y8459524D01*
X-49523754Y8459524D02*
X-49333278Y8411905D01*
X-49333278Y8411905D02*
X-49238040Y8364286D01*
X-49238040Y8364286D02*
X-49142801Y8269048D01*
X-49142801Y8269048D02*
X-49095182Y8126191D01*
X-49095182Y8126191D02*
X-49095182Y8030953D01*
X-49095182Y8030953D02*
X-49142801Y7888096D01*
X-49142801Y7888096D02*
X-49190421Y7840477D01*
X-49190421Y7840477D02*
X-49523754Y7840477D01*
X-49523754Y7840477D02*
X-49523754Y8030953D01*
X-50095182Y7221429D02*
X-50095182Y7030953D01*
X-50095182Y7030953D02*
X-50047563Y6935715D01*
X-50047563Y6935715D02*
X-49952325Y6840477D01*
X-49952325Y6840477D02*
X-49761849Y6792858D01*
X-49761849Y6792858D02*
X-49428516Y6792858D01*
X-49428516Y6792858D02*
X-49238040Y6840477D01*
X-49238040Y6840477D02*
X-49142801Y6935715D01*
X-49142801Y6935715D02*
X-49095182Y7030953D01*
X-49095182Y7030953D02*
X-49095182Y7221429D01*
X-49095182Y7221429D02*
X-49142801Y7316667D01*
X-49142801Y7316667D02*
X-49238040Y7411905D01*
X-49238040Y7411905D02*
X-49428516Y7459524D01*
X-49428516Y7459524D02*
X-49761849Y7459524D01*
X-49761849Y7459524D02*
X-49952325Y7411905D01*
X-49952325Y7411905D02*
X-50047563Y7316667D01*
X-50047563Y7316667D02*
X-50095182Y7221429D01*
X-50095182Y6173810D02*
X-50095182Y5983334D01*
X-50095182Y5983334D02*
X-50047563Y5888096D01*
X-50047563Y5888096D02*
X-49952325Y5792858D01*
X-49952325Y5792858D02*
X-49761849Y5745239D01*
X-49761849Y5745239D02*
X-49428516Y5745239D01*
X-49428516Y5745239D02*
X-49238040Y5792858D01*
X-49238040Y5792858D02*
X-49142801Y5888096D01*
X-49142801Y5888096D02*
X-49095182Y5983334D01*
X-49095182Y5983334D02*
X-49095182Y6173810D01*
X-49095182Y6173810D02*
X-49142801Y6269048D01*
X-49142801Y6269048D02*
X-49238040Y6364286D01*
X-49238040Y6364286D02*
X-49428516Y6411905D01*
X-49428516Y6411905D02*
X-49761849Y6411905D01*
X-49761849Y6411905D02*
X-49952325Y6364286D01*
X-49952325Y6364286D02*
X-50047563Y6269048D01*
X-50047563Y6269048D02*
X-50095182Y6173810D01*
X-49095182Y5316667D02*
X-50095182Y5316667D01*
X-50095182Y5316667D02*
X-50095182Y5078572D01*
X-50095182Y5078572D02*
X-50047563Y4935715D01*
X-50047563Y4935715D02*
X-49952325Y4840477D01*
X-49952325Y4840477D02*
X-49857087Y4792858D01*
X-49857087Y4792858D02*
X-49666611Y4745239D01*
X-49666611Y4745239D02*
X-49523754Y4745239D01*
X-49523754Y4745239D02*
X-49333278Y4792858D01*
X-49333278Y4792858D02*
X-49238040Y4840477D01*
X-49238040Y4840477D02*
X-49142801Y4935715D01*
X-49142801Y4935715D02*
X-49095182Y5078572D01*
X-49095182Y5078572D02*
X-49095182Y5316667D01*
X-61823810Y71518991D02*
X-61490477Y71518991D01*
X-61490477Y70995181D02*
X-61490477Y71995181D01*
X-61490477Y71995181D02*
X-61966667Y71995181D01*
X-62823810Y70995181D02*
X-62347620Y70995181D01*
X-62347620Y70995181D02*
X-62347620Y71995181D01*
X-63109525Y71280896D02*
X-63585715Y71280896D01*
X-63014287Y70995181D02*
X-63347620Y71995181D01*
X-63347620Y71995181D02*
X-63680953Y70995181D01*
X-63966668Y71042800D02*
X-64109525Y70995181D01*
X-64109525Y70995181D02*
X-64347620Y70995181D01*
X-64347620Y70995181D02*
X-64442858Y71042800D01*
X-64442858Y71042800D02*
X-64490477Y71090420D01*
X-64490477Y71090420D02*
X-64538096Y71185658D01*
X-64538096Y71185658D02*
X-64538096Y71280896D01*
X-64538096Y71280896D02*
X-64490477Y71376134D01*
X-64490477Y71376134D02*
X-64442858Y71423753D01*
X-64442858Y71423753D02*
X-64347620Y71471372D01*
X-64347620Y71471372D02*
X-64157144Y71518991D01*
X-64157144Y71518991D02*
X-64061906Y71566610D01*
X-64061906Y71566610D02*
X-64014287Y71614229D01*
X-64014287Y71614229D02*
X-63966668Y71709467D01*
X-63966668Y71709467D02*
X-63966668Y71804705D01*
X-63966668Y71804705D02*
X-64014287Y71899943D01*
X-64014287Y71899943D02*
X-64061906Y71947562D01*
X-64061906Y71947562D02*
X-64157144Y71995181D01*
X-64157144Y71995181D02*
X-64395239Y71995181D01*
X-64395239Y71995181D02*
X-64538096Y71947562D01*
X-64966668Y70995181D02*
X-64966668Y71995181D01*
X-64966668Y71518991D02*
X-65538096Y71518991D01*
X-65538096Y70995181D02*
X-65538096Y71995181D01*
X-65776191Y70899943D02*
X-66538096Y70899943D01*
X-67347620Y71090420D02*
X-67300001Y71042800D01*
X-67300001Y71042800D02*
X-67157144Y70995181D01*
X-67157144Y70995181D02*
X-67061906Y70995181D01*
X-67061906Y70995181D02*
X-66919049Y71042800D01*
X-66919049Y71042800D02*
X-66823811Y71138039D01*
X-66823811Y71138039D02*
X-66776192Y71233277D01*
X-66776192Y71233277D02*
X-66728573Y71423753D01*
X-66728573Y71423753D02*
X-66728573Y71566610D01*
X-66728573Y71566610D02*
X-66776192Y71757086D01*
X-66776192Y71757086D02*
X-66823811Y71852324D01*
X-66823811Y71852324D02*
X-66919049Y71947562D01*
X-66919049Y71947562D02*
X-67061906Y71995181D01*
X-67061906Y71995181D02*
X-67157144Y71995181D01*
X-67157144Y71995181D02*
X-67300001Y71947562D01*
X-67300001Y71947562D02*
X-67347620Y71899943D01*
X-68252382Y70995181D02*
X-67776192Y70995181D01*
X-67776192Y70995181D02*
X-67776192Y71995181D01*
X-68585716Y70995181D02*
X-68585716Y71995181D01*
X-69157144Y70995181D02*
X-68728573Y71566610D01*
X-69157144Y71995181D02*
X-68585716Y71423753D01*
X-9195181Y33500001D02*
X-9195181Y34071429D01*
X-9195181Y33785715D02*
X-10195181Y33785715D01*
X-10195181Y33785715D02*
X-10052324Y33880953D01*
X-10052324Y33880953D02*
X-9957086Y33976191D01*
X-9957086Y33976191D02*
X-9909467Y34071429D01*
X-9861848Y33166667D02*
X-9195181Y32928572D01*
X-9195181Y32928572D02*
X-9861848Y32690477D01*
X-10099943Y32357143D02*
X-10147562Y32309524D01*
X-10147562Y32309524D02*
X-10195181Y32214286D01*
X-10195181Y32214286D02*
X-10195181Y31976191D01*
X-10195181Y31976191D02*
X-10147562Y31880953D01*
X-10147562Y31880953D02*
X-10099943Y31833334D01*
X-10099943Y31833334D02*
X-10004705Y31785715D01*
X-10004705Y31785715D02*
X-9909467Y31785715D01*
X-9909467Y31785715D02*
X-9766610Y31833334D01*
X-9766610Y31833334D02*
X-9195181Y32404762D01*
X-9195181Y32404762D02*
X-9195181Y31785715D01*
X-9480896Y31404762D02*
X-9480896Y30928572D01*
X-9195181Y31500000D02*
X-10195181Y31166667D01*
X-10195181Y31166667D02*
X-9195181Y30833334D01*
X-43897564Y40211905D02*
X-43945183Y40307143D01*
X-43945183Y40307143D02*
X-43945183Y40450000D01*
X-43945183Y40450000D02*
X-43897564Y40592857D01*
X-43897564Y40592857D02*
X-43802326Y40688095D01*
X-43802326Y40688095D02*
X-43707088Y40735714D01*
X-43707088Y40735714D02*
X-43516612Y40783333D01*
X-43516612Y40783333D02*
X-43373755Y40783333D01*
X-43373755Y40783333D02*
X-43183279Y40735714D01*
X-43183279Y40735714D02*
X-43088041Y40688095D01*
X-43088041Y40688095D02*
X-42992802Y40592857D01*
X-42992802Y40592857D02*
X-42945183Y40450000D01*
X-42945183Y40450000D02*
X-42945183Y40354762D01*
X-42945183Y40354762D02*
X-42992802Y40211905D01*
X-42992802Y40211905D02*
X-43040422Y40164286D01*
X-43040422Y40164286D02*
X-43373755Y40164286D01*
X-43373755Y40164286D02*
X-43373755Y40354762D01*
X-42945183Y39735714D02*
X-43945183Y39735714D01*
X-43945183Y39735714D02*
X-42945183Y39164286D01*
X-42945183Y39164286D02*
X-43945183Y39164286D01*
X-42945183Y38688095D02*
X-43945183Y38688095D01*
X-43945183Y38688095D02*
X-43945183Y38450000D01*
X-43945183Y38450000D02*
X-43897564Y38307143D01*
X-43897564Y38307143D02*
X-43802326Y38211905D01*
X-43802326Y38211905D02*
X-43707088Y38164286D01*
X-43707088Y38164286D02*
X-43516612Y38116667D01*
X-43516612Y38116667D02*
X-43373755Y38116667D01*
X-43373755Y38116667D02*
X-43183279Y38164286D01*
X-43183279Y38164286D02*
X-43088041Y38211905D01*
X-43088041Y38211905D02*
X-42992802Y38307143D01*
X-42992802Y38307143D02*
X-42945183Y38450000D01*
X-42945183Y38450000D02*
X-42945183Y38688095D01*
D13*
%TO.C,C46*%
X-25400000Y26330500D02*
X-25400000Y26930500D01*
X-24700000Y26930500D02*
X-24700000Y26330500D01*
%TO.C,C2*%
X-10600000Y91400000D02*
X-10400000Y91400000D01*
X-10400000Y91800000D02*
X-10600000Y91800000D01*
D14*
%TO.C,TP14*%
X-57950000Y32000000D02*
G75*
G02*
X-59350000Y32000000I-700000J0D01*
G01*
X-59350000Y32000000D02*
G75*
G02*
X-57950000Y32000000I700000J0D01*
G01*
%TO.C,R50*%
X-64300000Y26125000D02*
X-63500000Y26125000D01*
X-64300000Y22875000D02*
X-63500000Y22875000D01*
D15*
X-63575000Y25500000D02*
X-64225000Y25500000D01*
X-64225000Y25900000D01*
X-63575000Y25900000D01*
X-63575000Y25500000D01*
G36*
X-63575000Y25500000D02*
G01*
X-64225000Y25500000D01*
X-64225000Y25900000D01*
X-63575000Y25900000D01*
X-63575000Y25500000D01*
G37*
X-63575000Y24700000D02*
X-64225000Y24700000D01*
X-64225000Y25100000D01*
X-63575000Y25100000D01*
X-63575000Y24700000D01*
G36*
X-63575000Y24700000D02*
G01*
X-64225000Y24700000D01*
X-64225000Y25100000D01*
X-63575000Y25100000D01*
X-63575000Y24700000D01*
G37*
X-63575000Y23900000D02*
X-64225000Y23900000D01*
X-64225000Y24300000D01*
X-63575000Y24300000D01*
X-63575000Y23900000D01*
G36*
X-63575000Y23900000D02*
G01*
X-64225000Y23900000D01*
X-64225000Y24300000D01*
X-63575000Y24300000D01*
X-63575000Y23900000D01*
G37*
X-63575000Y23100000D02*
X-64225000Y23100000D01*
X-64225000Y23500000D01*
X-63575000Y23500000D01*
X-63575000Y23100000D01*
G36*
X-63575000Y23100000D02*
G01*
X-64225000Y23100000D01*
X-64225000Y23500000D01*
X-63575000Y23500000D01*
X-63575000Y23100000D01*
G37*
D14*
%TO.C,Q2*%
X-33660001Y6250001D02*
X-33660001Y5600001D01*
X-33660001Y4950001D02*
X-33660001Y5600001D01*
X-30540001Y6250001D02*
X-30540001Y5600001D01*
X-30540001Y4950001D02*
X-30540001Y5600001D01*
X-33610001Y6762501D02*
X-33940001Y6522501D01*
X-33940001Y7002501D01*
X-33610001Y6762501D01*
G36*
X-33610001Y6762501D02*
G01*
X-33940001Y6522501D01*
X-33940001Y7002501D01*
X-33610001Y6762501D01*
G37*
%TO.C,TP21*%
X-46350000Y67950000D02*
G75*
G02*
X-47750000Y67950000I-700000J0D01*
G01*
X-47750000Y67950000D02*
G75*
G02*
X-46350000Y67950000I700000J0D01*
G01*
D13*
%TO.C,C49*%
X-61950000Y48725000D02*
X-61350000Y48725000D01*
X-61350000Y48025000D02*
X-61950000Y48025000D01*
D14*
%TO.C,TP19*%
X-49400000Y71300000D02*
G75*
G02*
X-50800000Y71300000I-700000J0D01*
G01*
X-50800000Y71300000D02*
G75*
G02*
X-49400000Y71300000I700000J0D01*
G01*
%TO.C,TP15*%
X-52500000Y87300000D02*
G75*
G02*
X-53900000Y87300000I-700000J0D01*
G01*
X-53900000Y87300000D02*
G75*
G02*
X-52500000Y87300000I700000J0D01*
G01*
%TO.C,TP40*%
X-6800000Y93200000D02*
G75*
G02*
X-8200000Y93200000I-700000J0D01*
G01*
X-8200000Y93200000D02*
G75*
G02*
X-6800000Y93200000I700000J0D01*
G01*
D13*
%TO.C,C12*%
X-44900000Y56775000D02*
X-44900000Y57375000D01*
X-44200000Y57375000D02*
X-44200000Y56775000D01*
D14*
%TO.C,TP46*%
X-51300000Y72000000D02*
G75*
G02*
X-52700000Y72000000I-700000J0D01*
G01*
X-52700000Y72000000D02*
G75*
G02*
X-51300000Y72000000I700000J0D01*
G01*
%TO.C,TP34*%
X-55300000Y52100000D02*
G75*
G02*
X-56700000Y52100000I-700000J0D01*
G01*
X-56700000Y52100000D02*
G75*
G02*
X-55300000Y52100000I700000J0D01*
G01*
D13*
%TO.C,X2*%
X-47450000Y63100000D02*
X-47450000Y63300000D01*
X-46300000Y65200000D02*
X-46300000Y64550000D01*
X-45150000Y63100000D02*
X-45150000Y63300000D01*
X-44850000Y65200000D02*
X-46300000Y65200000D01*
%TO.C,U19*%
X-59600000Y96750000D02*
X-61600000Y96750000D01*
X-59250000Y98850000D02*
X-61600000Y98850000D01*
D14*
%TO.C,D13*%
X-64150000Y6250000D02*
X-64150000Y8910000D01*
X-62450000Y8910000D02*
X-64150000Y8910000D01*
X-62450000Y6250000D02*
X-62450000Y8910000D01*
%TO.C,Q3*%
X-37160001Y6250000D02*
X-37160001Y5600000D01*
X-37160001Y4950000D02*
X-37160001Y5600000D01*
X-34040001Y6250000D02*
X-34040001Y5600000D01*
X-34040001Y4950000D02*
X-34040001Y5600000D01*
X-37110001Y6762500D02*
X-37440001Y6522500D01*
X-37440001Y7002500D01*
X-37110001Y6762500D01*
G36*
X-37110001Y6762500D02*
G01*
X-37440001Y6522500D01*
X-37440001Y7002500D01*
X-37110001Y6762500D01*
G37*
%TO.C,U18*%
X-43460000Y71650000D02*
X-43459999Y69700000D01*
X-43460000Y67750000D02*
X-43459999Y69700000D01*
X-38340000Y71650000D02*
X-38340001Y69700000D01*
X-38340000Y67750000D02*
X-38340001Y69700000D01*
X-38105000Y66760001D02*
X-38435000Y67000000D01*
X-38105000Y67240000D01*
X-38105000Y66760001D01*
G36*
X-38105000Y66760001D02*
G01*
X-38435000Y67000000D01*
X-38105000Y67240000D01*
X-38105000Y66760001D01*
G37*
D13*
%TO.C,R69*%
X-15549999Y84700000D02*
X-15549999Y84100000D01*
X-14850001Y84100000D02*
X-14850001Y84700000D01*
D14*
%TO.C,TP26*%
X-50750000Y68950000D02*
G75*
G02*
X-52150000Y68950000I-700000J0D01*
G01*
X-52150000Y68950000D02*
G75*
G02*
X-50750000Y68950000I700000J0D01*
G01*
%TO.C,TP11*%
X-10600000Y41600000D02*
G75*
G02*
X-12000000Y41600000I-700000J0D01*
G01*
X-12000000Y41600000D02*
G75*
G02*
X-10600000Y41600000I700000J0D01*
G01*
%TO.C,TP42*%
X-38300000Y5800000D02*
G75*
G02*
X-39700000Y5800000I-700000J0D01*
G01*
X-39700000Y5800000D02*
G75*
G02*
X-38300000Y5800000I700000J0D01*
G01*
D13*
%TO.C,R52*%
X-57950000Y97500000D02*
X-57950000Y98100000D01*
X-56850000Y97500000D02*
X-56850000Y98100000D01*
%TO.C,C5*%
X-6200000Y90300001D02*
X-6200000Y90100001D01*
X-5800000Y90100001D02*
X-5800000Y90300001D01*
%TO.C,U7*%
X-60750000Y59900000D02*
X-61650000Y59900000D01*
X-60750000Y58200000D02*
X-62100000Y58200000D01*
D14*
%TO.C,TP12*%
X-13000000Y44200000D02*
G75*
G02*
X-14400000Y44200000I-700000J0D01*
G01*
X-14400000Y44200000D02*
G75*
G02*
X-13000000Y44200000I700000J0D01*
G01*
%TO.C,TP8*%
X-59900000Y22550000D02*
G75*
G02*
X-61300000Y22550000I-700000J0D01*
G01*
X-61300000Y22550000D02*
G75*
G02*
X-59900000Y22550000I700000J0D01*
G01*
D13*
%TO.C,C19*%
X-56849999Y70000000D02*
X-56849999Y70600000D01*
X-56150001Y70600000D02*
X-56150001Y70000000D01*
%TO.C,C15*%
X-46600000Y66250000D02*
X-46000000Y66250000D01*
X-46000000Y65550000D02*
X-46600000Y65550000D01*
%TO.C,R72*%
X-45649999Y74300000D02*
X-45649999Y73700000D01*
X-44950001Y73700000D02*
X-44950001Y74300000D01*
%TO.C,R73*%
X-43849999Y75400000D02*
X-43849999Y74800000D01*
X-43150001Y74800000D02*
X-43150001Y75400000D01*
D14*
%TO.C,Q9*%
X-66550000Y92360000D02*
X-65900000Y92360001D01*
X-66550000Y89240000D02*
X-65900000Y89239999D01*
X-65250000Y92360000D02*
X-65900000Y92360001D01*
X-65250000Y89240000D02*
X-65900000Y89239999D01*
X-66822500Y88960001D02*
X-67302500Y88960000D01*
X-67062500Y89290000D01*
X-66822500Y88960001D01*
G36*
X-66822500Y88960001D02*
G01*
X-67302500Y88960000D01*
X-67062500Y89290000D01*
X-66822500Y88960001D01*
G37*
%TO.C,TP22*%
X-48550000Y68450000D02*
G75*
G02*
X-49950000Y68450000I-700000J0D01*
G01*
X-49950000Y68450000D02*
G75*
G02*
X-48550000Y68450000I700000J0D01*
G01*
%TO.C,TP28*%
X-58100000Y68200000D02*
G75*
G02*
X-59500000Y68200000I-700000J0D01*
G01*
X-59500000Y68200000D02*
G75*
G02*
X-58100000Y68200000I700000J0D01*
G01*
%TO.C,Q4*%
X-30160000Y6249999D02*
X-30160000Y5599999D01*
X-30160000Y4949999D02*
X-30160000Y5599999D01*
X-27040000Y6249999D02*
X-27040000Y5599999D01*
X-27040000Y4949999D02*
X-27040000Y5599999D01*
X-30110000Y6762499D02*
X-30440000Y6522499D01*
X-30440000Y7002499D01*
X-30110000Y6762499D01*
G36*
X-30110000Y6762499D02*
G01*
X-30440000Y6522499D01*
X-30440000Y7002499D01*
X-30110000Y6762499D01*
G37*
D13*
%TO.C,C88*%
X-33000000Y43949999D02*
X-32400000Y43949999D01*
X-32400000Y43249999D02*
X-33000000Y43249999D01*
D14*
%TO.C,TP35*%
X-55300000Y49900000D02*
G75*
G02*
X-56700000Y49900000I-700000J0D01*
G01*
X-56700000Y49900000D02*
G75*
G02*
X-55300000Y49900000I700000J0D01*
G01*
%TO.C,TP5*%
X-13000000Y31100000D02*
G75*
G02*
X-14400000Y31100000I-700000J0D01*
G01*
X-14400000Y31100000D02*
G75*
G02*
X-13000000Y31100000I700000J0D01*
G01*
%TO.C,R48*%
X-58565000Y29160000D02*
X-57765000Y29160000D01*
X-58565000Y25910000D02*
X-57765000Y25910000D01*
D15*
X-57840000Y28535000D02*
X-58490000Y28535000D01*
X-58490000Y28935000D01*
X-57840000Y28935000D01*
X-57840000Y28535000D01*
G36*
X-57840000Y28535000D02*
G01*
X-58490000Y28535000D01*
X-58490000Y28935000D01*
X-57840000Y28935000D01*
X-57840000Y28535000D01*
G37*
X-57840000Y27735000D02*
X-58490000Y27735000D01*
X-58490000Y28135000D01*
X-57840000Y28135000D01*
X-57840000Y27735000D01*
G36*
X-57840000Y27735000D02*
G01*
X-58490000Y27735000D01*
X-58490000Y28135000D01*
X-57840000Y28135000D01*
X-57840000Y27735000D01*
G37*
X-57840000Y26935000D02*
X-58490000Y26935000D01*
X-58490000Y27335000D01*
X-57840000Y27335000D01*
X-57840000Y26935000D01*
G36*
X-57840000Y26935000D02*
G01*
X-58490000Y26935000D01*
X-58490000Y27335000D01*
X-57840000Y27335000D01*
X-57840000Y26935000D01*
G37*
X-57840000Y26135000D02*
X-58490000Y26135000D01*
X-58490000Y26535000D01*
X-57840000Y26535000D01*
X-57840000Y26135000D01*
G36*
X-57840000Y26135000D02*
G01*
X-58490000Y26135000D01*
X-58490000Y26535000D01*
X-57840000Y26535000D01*
X-57840000Y26135000D01*
G37*
D13*
%TO.C,C64*%
X-42150000Y85500000D02*
X-42150000Y85300000D01*
X-41750000Y85300000D02*
X-41750000Y85500000D01*
%TO.C,Q6*%
X-67600000Y24000001D02*
X-65600000Y24000001D01*
X-67000000Y21400001D02*
X-65600000Y21400001D01*
%TO.C,R49*%
X-51500000Y103350000D02*
X-50900000Y103350000D01*
X-50900000Y104050000D02*
X-51500000Y104050000D01*
D14*
%TO.C,TP10*%
X-52200000Y27000000D02*
G75*
G02*
X-53600000Y27000000I-700000J0D01*
G01*
X-53600000Y27000000D02*
G75*
G02*
X-52200000Y27000000I700000J0D01*
G01*
D13*
%TO.C,R67*%
X-11349999Y85200000D02*
X-11349999Y84600000D01*
X-10650001Y84600000D02*
X-10650001Y85200000D01*
%TO.C,C95*%
X-64200000Y3550000D02*
X-63600000Y3550000D01*
X-63600000Y2850000D02*
X-64200000Y2850000D01*
%TO.C,R37*%
X-37899999Y69050000D02*
X-37899999Y68450000D01*
X-37200001Y68450000D02*
X-37200001Y69050000D01*
D14*
%TO.C,U22*%
X-62160000Y104800000D02*
X-62160000Y104000000D01*
X-62160000Y103200000D02*
X-62160000Y104000000D01*
X-59040000Y104800000D02*
X-59040000Y104000000D01*
X-59040000Y103200000D02*
X-59040000Y104000000D01*
X-58785000Y102460000D02*
X-59115000Y102700000D01*
X-58785000Y102940000D01*
X-58785000Y102460000D01*
G36*
X-58785000Y102460000D02*
G01*
X-59115000Y102700000D01*
X-58785000Y102940000D01*
X-58785000Y102460000D01*
G37*
D13*
%TO.C,C97*%
X-63000000Y104700000D02*
X-63000000Y104500000D01*
X-62600000Y104500000D02*
X-62600000Y104700000D01*
D14*
%TO.C,Q8*%
X-68759999Y26950000D02*
X-68759999Y26300000D01*
X-68759999Y25650000D02*
X-68759999Y26300000D01*
X-65639999Y26950000D02*
X-65639999Y26300000D01*
X-65639999Y25650000D02*
X-65639999Y26300000D01*
X-65359999Y24897500D02*
X-65689999Y25137500D01*
X-65359999Y25377500D01*
X-65359999Y24897500D01*
G36*
X-65359999Y24897500D02*
G01*
X-65689999Y25137500D01*
X-65359999Y25377500D01*
X-65359999Y24897500D01*
G37*
D13*
%TO.C,R36*%
X-11349999Y94200000D02*
X-11349999Y93600000D01*
X-10650001Y93600000D02*
X-10650001Y94200000D01*
%TO.C,C11*%
X-53000000Y58600001D02*
X-52400000Y58600001D01*
X-52400000Y57900001D02*
X-53000000Y57900001D01*
D14*
%TO.C,D14*%
X-61850000Y7400000D02*
X-61850000Y8900000D01*
X-60040000Y7400000D02*
X-61850000Y7400000D01*
X-53260000Y7400000D02*
X-51450000Y7400000D01*
X-51450000Y7400000D02*
X-51450000Y8900000D01*
X-52930000Y4597500D02*
X-53260000Y4837500D01*
X-52930000Y5077500D01*
X-52930000Y4597500D01*
G36*
X-52930000Y4597500D02*
G01*
X-53260000Y4837500D01*
X-52930000Y5077500D01*
X-52930000Y4597500D01*
G37*
D13*
%TO.C,R3*%
X-50400000Y33099999D02*
X-50400000Y32899999D01*
X-50000000Y32899999D02*
X-50000000Y33099999D01*
%TO.C,C3*%
X-3600000Y91400000D02*
X-3400000Y91400000D01*
X-3400000Y91800000D02*
X-3600000Y91800000D01*
%TO.C,R1*%
X-48749999Y71700000D02*
X-48749999Y71100000D01*
X-48050001Y71100000D02*
X-48050001Y71700000D01*
%TO.C,C20*%
X-58149999Y70000000D02*
X-58149999Y70600000D01*
X-57450001Y70600000D02*
X-57450001Y70000000D01*
D14*
%TO.C,R66*%
X-56400000Y87425000D02*
X-57200000Y87425000D01*
X-56400000Y84175000D02*
X-57200000Y84175000D01*
D15*
X-56475000Y86800000D02*
X-57125000Y86800000D01*
X-57125000Y87200000D01*
X-56475000Y87200000D01*
X-56475000Y86800000D01*
G36*
X-56475000Y86800000D02*
G01*
X-57125000Y86800000D01*
X-57125000Y87200000D01*
X-56475000Y87200000D01*
X-56475000Y86800000D01*
G37*
X-56475000Y86000000D02*
X-57125000Y86000000D01*
X-57125000Y86400000D01*
X-56475000Y86400000D01*
X-56475000Y86000000D01*
G36*
X-56475000Y86000000D02*
G01*
X-57125000Y86000000D01*
X-57125000Y86400000D01*
X-56475000Y86400000D01*
X-56475000Y86000000D01*
G37*
X-56475000Y85200000D02*
X-57125000Y85200000D01*
X-57125000Y85600000D01*
X-56475000Y85600000D01*
X-56475000Y85200000D01*
G36*
X-56475000Y85200000D02*
G01*
X-57125000Y85200000D01*
X-57125000Y85600000D01*
X-56475000Y85600000D01*
X-56475000Y85200000D01*
G37*
X-56475000Y84400000D02*
X-57125000Y84400000D01*
X-57125000Y84800000D01*
X-56475000Y84800000D01*
X-56475000Y84400000D01*
G36*
X-56475000Y84400000D02*
G01*
X-57125000Y84400000D01*
X-57125000Y84800000D01*
X-56475000Y84800000D01*
X-56475000Y84400000D01*
G37*
D14*
%TO.C,TP45*%
X-54400000Y98700000D02*
G75*
G02*
X-55800000Y98700000I-700000J0D01*
G01*
X-55800000Y98700000D02*
G75*
G02*
X-54400000Y98700000I700000J0D01*
G01*
D13*
%TO.C,R47*%
X-64200001Y4400001D02*
X-63600001Y4400001D01*
X-63600001Y5100001D02*
X-64200001Y5100001D01*
D14*
%TO.C,TP3*%
X-10600000Y37700000D02*
G75*
G02*
X-12000000Y37700000I-700000J0D01*
G01*
X-12000000Y37700000D02*
G75*
G02*
X-10600000Y37700000I700000J0D01*
G01*
%TO.C,TP23*%
X-54100000Y71300000D02*
G75*
G02*
X-55500000Y71300000I-700000J0D01*
G01*
X-55500000Y71300000D02*
G75*
G02*
X-54100000Y71300000I700000J0D01*
G01*
D13*
%TO.C,R56*%
X-22500000Y26880499D02*
X-22500000Y26280499D01*
X-21800000Y26280499D02*
X-21800000Y26880499D01*
%TO.C,FB3*%
X-64900000Y105650000D02*
X-65500000Y105650000D01*
X-64900000Y104550000D02*
X-65500000Y104550000D01*
D14*
%TO.C,TP17*%
X-50600000Y89600000D02*
G75*
G02*
X-52000000Y89600000I-700000J0D01*
G01*
X-52000000Y89600000D02*
G75*
G02*
X-50600000Y89600000I700000J0D01*
G01*
D13*
%TO.C,C91*%
X-61950000Y52975000D02*
X-61350000Y52975000D01*
X-61350000Y52275000D02*
X-61950000Y52275000D01*
D14*
%TO.C,TP43*%
X-59100000Y88800000D02*
G75*
G02*
X-60500000Y88800000I-700000J0D01*
G01*
X-60500000Y88800000D02*
G75*
G02*
X-59100000Y88800000I700000J0D01*
G01*
D13*
%TO.C,R10*%
X-47850000Y60150000D02*
X-47250000Y60150000D01*
X-47250000Y60850000D02*
X-47850000Y60850000D01*
%TO.C,C4*%
X-13200000Y90300000D02*
X-13200000Y90100000D01*
X-12800000Y90100000D02*
X-12800000Y90300000D01*
D14*
%TO.C,TP16*%
X-48500000Y86100000D02*
G75*
G02*
X-49900000Y86100000I-700000J0D01*
G01*
X-49900000Y86100000D02*
G75*
G02*
X-48500000Y86100000I700000J0D01*
G01*
D13*
%TO.C,C7*%
X-37899999Y71550000D02*
X-37899999Y72150000D01*
X-37200001Y72150000D02*
X-37200001Y71550000D01*
%TO.C,C22*%
X-62535355Y64740381D02*
X-62959619Y65164645D01*
X-62464645Y65659619D02*
X-62040381Y65235355D01*
D14*
%TO.C,TP1*%
X-31600000Y34500000D02*
G75*
G02*
X-33000000Y34500000I-700000J0D01*
G01*
X-33000000Y34500000D02*
G75*
G02*
X-31600000Y34500000I700000J0D01*
G01*
%TO.C,R14*%
X-49400000Y77325000D02*
X-48600000Y77325000D01*
X-49400000Y74075000D02*
X-48600000Y74075000D01*
D15*
X-48675000Y76700000D02*
X-49325000Y76700000D01*
X-49325000Y77100000D01*
X-48675000Y77100000D01*
X-48675000Y76700000D01*
G36*
X-48675000Y76700000D02*
G01*
X-49325000Y76700000D01*
X-49325000Y77100000D01*
X-48675000Y77100000D01*
X-48675000Y76700000D01*
G37*
X-48675000Y75900000D02*
X-49325000Y75900000D01*
X-49325000Y76300000D01*
X-48675000Y76300000D01*
X-48675000Y75900000D01*
G36*
X-48675000Y75900000D02*
G01*
X-49325000Y75900000D01*
X-49325000Y76300000D01*
X-48675000Y76300000D01*
X-48675000Y75900000D01*
G37*
X-48675000Y75100000D02*
X-49325000Y75100000D01*
X-49325000Y75500000D01*
X-48675000Y75500000D01*
X-48675000Y75100000D01*
G36*
X-48675000Y75100000D02*
G01*
X-49325000Y75100000D01*
X-49325000Y75500000D01*
X-48675000Y75500000D01*
X-48675000Y75100000D01*
G37*
X-48675000Y74300000D02*
X-49325000Y74300000D01*
X-49325000Y74700000D01*
X-48675000Y74700000D01*
X-48675000Y74300000D01*
G36*
X-48675000Y74300000D02*
G01*
X-49325000Y74300000D01*
X-49325000Y74700000D01*
X-48675000Y74700000D01*
X-48675000Y74300000D01*
G37*
D14*
%TO.C,TP27*%
X-60000000Y67500000D02*
G75*
G02*
X-61400000Y67500000I-700000J0D01*
G01*
X-61400000Y67500000D02*
G75*
G02*
X-60000000Y67500000I700000J0D01*
G01*
%TO.C,TP32*%
X-55100000Y74400000D02*
G75*
G02*
X-56500000Y74400000I-700000J0D01*
G01*
X-56500000Y74400000D02*
G75*
G02*
X-55100000Y74400000I700000J0D01*
G01*
D13*
%TO.C,C80*%
X-73850000Y89000000D02*
X-73850000Y89600000D01*
X-73150000Y89600000D02*
X-73150000Y89000000D01*
%TO.C,C17*%
X-58400000Y50125000D02*
X-58400000Y50725000D01*
X-57700000Y50725000D02*
X-57700000Y50125000D01*
%TO.C,R68*%
X-17049999Y93800000D02*
X-17049999Y93200000D01*
X-16350001Y93200000D02*
X-16350001Y93800000D01*
%TO.C,R41*%
X-72550000Y89600000D02*
X-72550000Y89000000D01*
X-71850000Y89000000D02*
X-71850000Y89600000D01*
D14*
%TO.C,Q5*%
X-26660001Y6249998D02*
X-26660001Y5599998D01*
X-26660001Y4949998D02*
X-26660001Y5599998D01*
X-23540001Y6249998D02*
X-23540001Y5599998D01*
X-23540001Y4949998D02*
X-23540001Y5599998D01*
X-26610001Y6762498D02*
X-26940001Y6522498D01*
X-26940001Y7002498D01*
X-26610001Y6762498D01*
G36*
X-26610001Y6762498D02*
G01*
X-26940001Y6522498D01*
X-26940001Y7002498D01*
X-26610001Y6762498D01*
G37*
D13*
%TO.C,R61*%
X-66800000Y92850001D02*
X-66200000Y92850001D01*
X-66200000Y93549999D02*
X-66800000Y93549999D01*
D14*
%TO.C,TP33*%
X-52600000Y49750000D02*
G75*
G02*
X-54000000Y49750000I-700000J0D01*
G01*
X-54000000Y49750000D02*
G75*
G02*
X-52600000Y49750000I700000J0D01*
G01*
%TO.C,TP20*%
X-44650000Y70300000D02*
G75*
G02*
X-46050000Y70300000I-700000J0D01*
G01*
X-46050000Y70300000D02*
G75*
G02*
X-44650000Y70300000I700000J0D01*
G01*
D13*
%TO.C,C18*%
X-32335355Y66040381D02*
X-32759619Y66464645D01*
X-32264645Y66959619D02*
X-31840381Y66535355D01*
%TO.C,R28*%
X-56249999Y81900000D02*
X-56249999Y81300000D01*
X-55550001Y81300000D02*
X-55550001Y81900000D01*
%TO.C,R76*%
X-56400000Y91850001D02*
X-55800000Y91850001D01*
X-55800000Y92549999D02*
X-56400000Y92549999D01*
%TO.C,R63*%
X-62700000Y89450001D02*
X-62100000Y89450001D01*
X-62100000Y90149999D02*
X-62700000Y90149999D01*
%TO.C,C1*%
X-54849999Y77900000D02*
X-54849999Y78500000D01*
X-54150001Y78500000D02*
X-54150001Y77900000D01*
D14*
%TO.C,TP41*%
X-2800000Y86700000D02*
G75*
G02*
X-4200000Y86700000I-700000J0D01*
G01*
X-4200000Y86700000D02*
G75*
G02*
X-2800000Y86700000I700000J0D01*
G01*
D13*
%TO.C,R32*%
X-40650000Y3300000D02*
X-40650000Y2700000D01*
X-39950000Y2700000D02*
X-39950000Y3300000D01*
D14*
%TO.C,TP6*%
X-26800000Y42600000D02*
G75*
G02*
X-28200000Y42600000I-700000J0D01*
G01*
X-28200000Y42600000D02*
G75*
G02*
X-26800000Y42600000I700000J0D01*
G01*
%TO.C,TP7*%
X-26800000Y44850000D02*
G75*
G02*
X-28200000Y44850000I-700000J0D01*
G01*
X-28200000Y44850000D02*
G75*
G02*
X-26800000Y44850000I700000J0D01*
G01*
D13*
%TO.C,R17*%
X-46250000Y35550000D02*
X-45650000Y35550000D01*
X-45650000Y36250000D02*
X-46250000Y36250000D01*
%TO.C,R62*%
X-62700000Y88150001D02*
X-62100000Y88150001D01*
X-62100000Y88849999D02*
X-62700000Y88849999D01*
%TO.C,C13*%
X-47850000Y59500000D02*
X-47250000Y59500000D01*
X-47250000Y58800000D02*
X-47850000Y58800000D01*
%TO.C,R40*%
X-39350000Y3300000D02*
X-39350000Y2700000D01*
X-38650000Y2700000D02*
X-38650000Y3300000D01*
%TO.C,C14*%
X-47850000Y57600000D02*
X-47250000Y57600000D01*
X-47250000Y56900000D02*
X-47850000Y56900000D01*
D14*
%TO.C,TP30*%
X-59800000Y69500000D02*
G75*
G02*
X-61200000Y69500000I-700000J0D01*
G01*
X-61200000Y69500000D02*
G75*
G02*
X-59800000Y69500000I700000J0D01*
G01*
D13*
%TO.C,R43*%
X-37500000Y41150001D02*
X-36900000Y41150001D01*
X-36900000Y41850001D02*
X-37500000Y41850001D01*
%TO.C,C93*%
X-61950000Y51625000D02*
X-61350000Y51625000D01*
X-61350000Y50925000D02*
X-61950000Y50925000D01*
%TO.C,R51*%
X-63700000Y92850001D02*
X-63100000Y92850001D01*
X-63100000Y93549999D02*
X-63700000Y93549999D01*
%TO.C,R65*%
X-47450000Y7050001D02*
X-46850000Y7050001D01*
X-46850000Y7749999D02*
X-47450000Y7749999D01*
%TO.C,R58*%
X-54600000Y103350001D02*
X-54000000Y103350001D01*
X-54000000Y104049999D02*
X-54600000Y104049999D01*
%TO.C,R6*%
X-56400000Y90550001D02*
X-55800000Y90550001D01*
X-55800000Y91249999D02*
X-56400000Y91249999D01*
D14*
%TO.C,TP13*%
X-42100000Y43550000D02*
G75*
G02*
X-43500000Y43550000I-700000J0D01*
G01*
X-43500000Y43550000D02*
G75*
G02*
X-42100000Y43550000I700000J0D01*
G01*
%TO.C,R46*%
X-62100001Y29925000D02*
X-61300001Y29925000D01*
X-62100001Y26675000D02*
X-61300001Y26675000D01*
D15*
X-61375001Y29300000D02*
X-62025001Y29300000D01*
X-62025001Y29700000D01*
X-61375001Y29700000D01*
X-61375001Y29300000D01*
G36*
X-61375001Y29300000D02*
G01*
X-62025001Y29300000D01*
X-62025001Y29700000D01*
X-61375001Y29700000D01*
X-61375001Y29300000D01*
G37*
X-61375001Y28500000D02*
X-62025001Y28500000D01*
X-62025001Y28900000D01*
X-61375001Y28900000D01*
X-61375001Y28500000D01*
G36*
X-61375001Y28500000D02*
G01*
X-62025001Y28500000D01*
X-62025001Y28900000D01*
X-61375001Y28900000D01*
X-61375001Y28500000D01*
G37*
X-61375001Y27700000D02*
X-62025001Y27700000D01*
X-62025001Y28100000D01*
X-61375001Y28100000D01*
X-61375001Y27700000D01*
G36*
X-61375001Y27700000D02*
G01*
X-62025001Y27700000D01*
X-62025001Y28100000D01*
X-61375001Y28100000D01*
X-61375001Y27700000D01*
G37*
X-61375001Y26900000D02*
X-62025001Y26900000D01*
X-62025001Y27300000D01*
X-61375001Y27300000D01*
X-61375001Y26900000D01*
G36*
X-61375001Y26900000D02*
G01*
X-62025001Y26900000D01*
X-62025001Y27300000D01*
X-61375001Y27300000D01*
X-61375001Y26900000D01*
G37*
D14*
%TO.C,TP31*%
X-56500000Y72900000D02*
G75*
G02*
X-57900000Y72900000I-700000J0D01*
G01*
X-57900000Y72900000D02*
G75*
G02*
X-56500000Y72900000I700000J0D01*
G01*
D13*
%TO.C,C6*%
X-42500000Y5750000D02*
X-41900000Y5750000D01*
X-41900000Y5050000D02*
X-42500000Y5050000D01*
%TO.C,R53*%
X-64350000Y97000000D02*
X-64350000Y97600000D01*
X-63250000Y97000000D02*
X-63250000Y97600000D01*
D14*
%TO.C,TP18*%
X-50500000Y86700000D02*
G75*
G02*
X-51900000Y86700000I-700000J0D01*
G01*
X-51900000Y86700000D02*
G75*
G02*
X-50500000Y86700000I700000J0D01*
G01*
D13*
%TO.C,R64*%
X-51549999Y101500000D02*
X-51549999Y100900000D01*
X-50850001Y100900000D02*
X-50850001Y101500000D01*
D14*
%TO.C,TP44*%
X-65400000Y98200000D02*
G75*
G02*
X-66800000Y98200000I-700000J0D01*
G01*
X-66800000Y98200000D02*
G75*
G02*
X-65400000Y98200000I700000J0D01*
G01*
D13*
%TO.C,C35*%
X-3600000Y82400000D02*
X-3400000Y82400000D01*
X-3400000Y82800000D02*
X-3600000Y82800000D01*
D14*
%TO.C,TP24*%
X-53200000Y73100000D02*
G75*
G02*
X-54600000Y73100000I-700000J0D01*
G01*
X-54600000Y73100000D02*
G75*
G02*
X-53200000Y73100000I700000J0D01*
G01*
%TO.C,TP4*%
X-10600000Y28600000D02*
G75*
G02*
X-12000000Y28600000I-700000J0D01*
G01*
X-12000000Y28600000D02*
G75*
G02*
X-10600000Y28600000I700000J0D01*
G01*
%TO.C,R35*%
X-31975001Y9399999D02*
X-31975001Y10199999D01*
X-28725001Y9399999D02*
X-28725001Y10199999D01*
D15*
X-31350001Y9474999D02*
X-31750001Y9474999D01*
X-31750001Y10124999D01*
X-31350001Y10124999D01*
X-31350001Y9474999D01*
G36*
X-31350001Y9474999D02*
G01*
X-31750001Y9474999D01*
X-31750001Y10124999D01*
X-31350001Y10124999D01*
X-31350001Y9474999D01*
G37*
X-30550001Y9474999D02*
X-30950001Y9474999D01*
X-30950001Y10124999D01*
X-30550001Y10124999D01*
X-30550001Y9474999D01*
G36*
X-30550001Y9474999D02*
G01*
X-30950001Y9474999D01*
X-30950001Y10124999D01*
X-30550001Y10124999D01*
X-30550001Y9474999D01*
G37*
X-29750001Y9474999D02*
X-30150001Y9474999D01*
X-30150001Y10124999D01*
X-29750001Y10124999D01*
X-29750001Y9474999D01*
G36*
X-29750001Y9474999D02*
G01*
X-30150001Y9474999D01*
X-30150001Y10124999D01*
X-29750001Y10124999D01*
X-29750001Y9474999D01*
G37*
X-28950001Y9474999D02*
X-29350001Y9474999D01*
X-29350001Y10124999D01*
X-28950001Y10124999D01*
X-28950001Y9474999D01*
G36*
X-28950001Y9474999D02*
G01*
X-29350001Y9474999D01*
X-29350001Y10124999D01*
X-28950001Y10124999D01*
X-28950001Y9474999D01*
G37*
D13*
%TO.C,C36*%
X-13200000Y81300000D02*
X-13200000Y81100000D01*
X-12800000Y81100000D02*
X-12800000Y81300000D01*
D14*
%TO.C,TP47*%
X-47300000Y9150000D02*
G75*
G02*
X-48700000Y9150000I-700000J0D01*
G01*
X-48700000Y9150000D02*
G75*
G02*
X-47300000Y9150000I700000J0D01*
G01*
D12*
%TO.C,J6*%
X-74225000Y85550000D02*
X-74225000Y73000000D01*
X-73550000Y73000000D02*
X-74225000Y73000000D01*
X-58775000Y87000000D02*
X-72050000Y87000000D01*
X-58775000Y87000000D02*
X-58775000Y81981200D01*
X-58775000Y79542800D02*
X-58775000Y76190000D01*
X-58775000Y73726200D02*
X-58775000Y73000000D01*
X-58775000Y73000000D02*
X-71050000Y73000000D01*
X-69650000Y83000000D02*
G75*
G02*
X-69850000Y83000000I-100000J0D01*
G01*
X-69850000Y83000000D02*
G75*
G02*
X-69650000Y83000000I100000J0D01*
G01*
D13*
%TO.C,R70*%
X-54049999Y83500000D02*
X-54049999Y82900000D01*
X-53350001Y82900000D02*
X-53350001Y83500000D01*
D14*
%TO.C,TP29*%
X-58750000Y71450000D02*
G75*
G02*
X-60150000Y71450000I-700000J0D01*
G01*
X-60150000Y71450000D02*
G75*
G02*
X-58750000Y71450000I700000J0D01*
G01*
D13*
%TO.C,C16*%
X-61950000Y50075000D02*
X-61350000Y50075000D01*
X-61350000Y49375000D02*
X-61950000Y49375000D01*
D14*
%TO.C,TP2*%
X-10600000Y35000000D02*
G75*
G02*
X-12000000Y35000000I-700000J0D01*
G01*
X-12000000Y35000000D02*
G75*
G02*
X-10600000Y35000000I700000J0D01*
G01*
%TO.C,TP9*%
X-40950000Y41650000D02*
G75*
G02*
X-42350000Y41650000I-700000J0D01*
G01*
X-42350000Y41650000D02*
G75*
G02*
X-40950000Y41650000I700000J0D01*
G01*
D13*
%TO.C,R77*%
X-56400000Y87950001D02*
X-55800000Y87950001D01*
X-55800000Y88649999D02*
X-56400000Y88649999D01*
%TO.C,C34*%
X-10600000Y82400000D02*
X-10400000Y82400000D01*
X-10400000Y82800000D02*
X-10600000Y82800000D01*
%TO.C,C96*%
X-61250000Y99400000D02*
X-61050000Y99400000D01*
X-61050000Y99800000D02*
X-61250000Y99800000D01*
%TO.C,C71*%
X-35200000Y80400000D02*
X-35000000Y80400000D01*
X-35000000Y80800000D02*
X-35200000Y80800000D01*
%TO.C,R75*%
X-56400000Y89250001D02*
X-55800000Y89250001D01*
X-55800000Y89949999D02*
X-56400000Y89949999D01*
%TO.C,C24*%
X-49050000Y32849999D02*
X-49050000Y33449999D01*
X-48350000Y33449999D02*
X-48350000Y32849999D01*
%TO.C,C37*%
X-6200000Y81300001D02*
X-6200000Y81100001D01*
X-5800000Y81100001D02*
X-5800000Y81300001D01*
%TO.C,C92*%
X-59750000Y50125001D02*
X-59750000Y50725001D01*
X-59050000Y50725001D02*
X-59050000Y50125001D01*
%TD*%
G36*
X-1991941Y75198939D02*
G01*
X-1886777Y75185094D01*
X-1855509Y75176716D01*
X-1765082Y75139260D01*
X-1737049Y75123075D01*
X-1659399Y75063492D01*
X-1636509Y75040602D01*
X-1576926Y74962952D01*
X-1560741Y74934919D01*
X-1523285Y74844492D01*
X-1514907Y74813225D01*
X-1501061Y74708061D01*
X-1500000Y74691875D01*
X-1500000Y56958126D01*
X-1501061Y56941940D01*
X-1514907Y56836776D01*
X-1523285Y56805509D01*
X-1560741Y56715082D01*
X-1576926Y56687049D01*
X-1636509Y56609399D01*
X-1659399Y56586509D01*
X-1737049Y56526926D01*
X-1765082Y56510741D01*
X-1855509Y56473285D01*
X-1886776Y56464907D01*
X-1991940Y56451061D01*
X-2008126Y56450000D01*
X-3749993Y56450000D01*
X-3750010Y56449999D01*
X-3879409Y56432964D01*
X-3879414Y56432962D01*
X-3999996Y56383016D01*
X-3999997Y56383016D01*
X-4103553Y56303553D01*
X-4183016Y56199997D01*
X-4183016Y56199996D01*
X-4232962Y56079414D01*
X-4232964Y56079409D01*
X-4249999Y55950010D01*
X-4250000Y55949994D01*
X-4250000Y50708126D01*
X-4251061Y50691940D01*
X-4264907Y50586776D01*
X-4273285Y50555509D01*
X-4310741Y50465082D01*
X-4326926Y50437049D01*
X-4386509Y50359399D01*
X-4409399Y50336509D01*
X-4487049Y50276926D01*
X-4515082Y50260741D01*
X-4605509Y50223285D01*
X-4636776Y50214907D01*
X-4741940Y50201061D01*
X-4758126Y50200000D01*
X-8991874Y50200000D01*
X-9008060Y50201061D01*
X-9113225Y50214907D01*
X-9144492Y50223285D01*
X-9234919Y50260741D01*
X-9262952Y50276926D01*
X-9340602Y50336509D01*
X-9363492Y50359399D01*
X-9423075Y50437049D01*
X-9439260Y50465082D01*
X-9476716Y50555509D01*
X-9485094Y50586777D01*
X-9498939Y50691941D01*
X-9500000Y50708126D01*
X-9500000Y74691875D01*
X-9498939Y74708060D01*
X-9485094Y74813224D01*
X-9476716Y74844492D01*
X-9439260Y74934919D01*
X-9423075Y74962952D01*
X-9363492Y75040602D01*
X-9340602Y75063492D01*
X-9262952Y75123075D01*
X-9234919Y75139260D01*
X-9144492Y75176716D01*
X-9113224Y75185094D01*
X-9008059Y75198939D01*
X-8991874Y75200000D01*
X-2008126Y75200000D01*
X-1991941Y75198939D01*
G37*
%LPC*%
D16*
%TO.C,H2*%
X-71000000Y111000000D03*
%TD*%
%TO.C,H1*%
X-4000000Y111000000D03*
%TD*%
D17*
%TO.C,J2*%
X-72752500Y94700000D03*
D18*
X-72752500Y101692500D03*
%TD*%
D19*
%TO.C,J7*%
X-59600000Y111000000D03*
D20*
X-15400000Y111000000D03*
%TD*%
D21*
%TO.C,J3*%
X-69100000Y61975001D03*
D22*
X-69100000Y54525001D03*
D23*
X-68400000Y55200001D03*
D24*
X-69100000Y55850001D03*
X-69100000Y56650001D03*
X-68400000Y57050001D03*
X-69100000Y57450001D03*
X-68400000Y57850001D03*
X-68400000Y58650001D03*
X-69100000Y59050001D03*
X-68400000Y59450001D03*
X-69100000Y59850001D03*
X-69100000Y60650001D03*
D23*
X-68400000Y61300001D03*
D25*
X-73100000Y64250001D03*
D26*
X-67600000Y62750001D03*
X-67600000Y53750001D03*
D25*
X-73100000Y52250001D03*
%TD*%
D27*
%TO.C,SW2*%
X-70700000Y46200000D03*
%TD*%
D16*
%TO.C,H4*%
X-4000000Y4000000D03*
%TD*%
D20*
%TO.C,SW1*%
X-42100000Y3400000D03*
X-45100000Y3400000D03*
X-43600000Y1550000D03*
%TD*%
D16*
%TO.C,H3*%
X-71000000Y4000000D03*
%TD*%
D28*
%TO.C,J1*%
X-68500000Y98225000D03*
D29*
X-68500000Y100765000D03*
%TD*%
D30*
%TO.C,J5*%
X-63900000Y16000000D03*
D31*
X-70200000Y16000000D03*
D32*
X-66800000Y11200000D03*
%TD*%
D33*
%TO.C,C46*%
X-25050000Y27480500D03*
X-25050000Y25780500D03*
%TD*%
D34*
%TO.C,C78*%
X-34700000Y84920000D03*
X-34700000Y84280000D03*
%TD*%
D35*
%TO.C,C2*%
X-9950000Y91600000D03*
X-11050000Y91600000D03*
%TD*%
D36*
%TO.C,C58*%
X-33180000Y76900000D03*
X-33820000Y76900000D03*
%TD*%
D37*
%TO.C,TP14*%
X-58650000Y32000000D03*
%TD*%
D38*
%TO.C,R50*%
X-64750000Y23300000D03*
X-63050000Y23300000D03*
X-64750000Y24100000D03*
X-63050000Y24100000D03*
X-64750000Y24900000D03*
X-63050000Y24900000D03*
X-64750000Y25700000D03*
X-63050000Y25700000D03*
%TD*%
D39*
%TO.C,Q2*%
X-33050001Y6537501D03*
X-31150001Y6537501D03*
X-32100001Y4662501D03*
%TD*%
D36*
%TO.C,C57*%
X-33180000Y78300000D03*
X-33820000Y78300000D03*
%TD*%
D37*
%TO.C,TP21*%
X-47050000Y67950000D03*
%TD*%
D40*
%TO.C,C49*%
X-62500000Y48375000D03*
X-60800000Y48375000D03*
%TD*%
D37*
%TO.C,TP19*%
X-50100000Y71300000D03*
%TD*%
%TO.C,TP15*%
X-53200000Y87300000D03*
%TD*%
%TO.C,TP40*%
X-7500000Y93200000D03*
%TD*%
D41*
%TO.C,C12*%
X-44550000Y56225000D03*
X-44550000Y57925000D03*
%TD*%
D37*
%TO.C,TP46*%
X-52000000Y72000000D03*
%TD*%
D36*
%TO.C,C66*%
X-38780000Y81800000D03*
X-39420000Y81800000D03*
%TD*%
D37*
%TO.C,TP34*%
X-56000000Y52100000D03*
%TD*%
D42*
%TO.C,X2*%
X-45400000Y64250000D03*
X-45400000Y62150000D03*
X-47200000Y62150000D03*
X-47200000Y64250000D03*
%TD*%
D43*
%TO.C,U19*%
X-59600000Y98550000D03*
X-59600000Y98050000D03*
X-59600000Y97550000D03*
X-59600000Y97050000D03*
X-61600000Y97050000D03*
X-61600000Y97550000D03*
X-61600000Y98050000D03*
X-61600000Y98550000D03*
D44*
X-60600000Y97800000D03*
%TD*%
D45*
%TO.C,D13*%
X-63300000Y8350000D03*
X-63300000Y6250000D03*
%TD*%
D39*
%TO.C,Q3*%
X-36550001Y6537500D03*
X-34650001Y6537500D03*
X-35600001Y4662500D03*
%TD*%
D46*
%TO.C,C76*%
X-37900000Y85080000D03*
X-37900000Y85720000D03*
%TD*%
D47*
%TO.C,U18*%
X-38995000Y67225000D03*
X-40265000Y67225000D03*
X-41535000Y67225000D03*
X-42805000Y67225000D03*
X-42805000Y72175000D03*
X-41535000Y72175000D03*
X-40265000Y72175000D03*
X-38995000Y72175000D03*
%TD*%
D36*
%TO.C,C112*%
X-36380000Y76200000D03*
X-37020000Y76200000D03*
%TD*%
D33*
%TO.C,R69*%
X-15200000Y85250000D03*
X-15200000Y83550000D03*
%TD*%
D37*
%TO.C,TP26*%
X-51450000Y68950000D03*
%TD*%
%TO.C,TP11*%
X-11300000Y41600000D03*
%TD*%
%TO.C,TP42*%
X-39000000Y5800000D03*
%TD*%
D48*
%TO.C,R52*%
X-57400000Y98800000D03*
X-57400000Y96800000D03*
%TD*%
D49*
%TO.C,C5*%
X-6000000Y89650001D03*
X-6000000Y90750001D03*
%TD*%
D34*
%TO.C,C79*%
X-33900000Y84920000D03*
X-33900000Y84280000D03*
%TD*%
D50*
%TO.C,U7*%
X-61750000Y58500000D03*
X-61750000Y59000000D03*
D51*
X-61750000Y59500000D03*
X-60650000Y59500000D03*
D50*
X-60650000Y59000000D03*
X-60650000Y58500000D03*
%TD*%
D37*
%TO.C,TP12*%
X-13700000Y44200000D03*
%TD*%
D52*
%TO.C,FID1*%
X-4100000Y105200000D03*
%TD*%
D37*
%TO.C,TP8*%
X-60600000Y22550000D03*
%TD*%
D34*
%TO.C,C67*%
X-37900000Y80920000D03*
X-37900000Y80280000D03*
%TD*%
%TO.C,C72*%
X-41100000Y82520000D03*
X-41100000Y81880000D03*
%TD*%
D36*
%TO.C,C108*%
X-30780000Y76200000D03*
X-31420000Y76200000D03*
%TD*%
D33*
%TO.C,C19*%
X-56500000Y71150000D03*
X-56500000Y69450000D03*
%TD*%
D46*
%TO.C,C75*%
X-36300000Y85080000D03*
X-36300000Y85720000D03*
%TD*%
D40*
%TO.C,C15*%
X-47150000Y65900000D03*
X-45450000Y65900000D03*
%TD*%
D33*
%TO.C,R72*%
X-45300000Y74850000D03*
X-45300000Y73150000D03*
%TD*%
D41*
%TO.C,R73*%
X-43500000Y74250000D03*
X-43500000Y75950000D03*
%TD*%
D53*
%TO.C,Q9*%
X-66837500Y89850000D03*
X-66837500Y91750000D03*
X-64962499Y90800000D03*
%TD*%
D37*
%TO.C,TP22*%
X-49250000Y68450000D03*
%TD*%
D36*
%TO.C,C56*%
X-40380000Y77800000D03*
X-41020000Y77800000D03*
%TD*%
D54*
%TO.C,C63*%
X-34620000Y85800000D03*
X-33980000Y85800000D03*
%TD*%
D37*
%TO.C,TP28*%
X-58800000Y68200000D03*
%TD*%
D34*
%TO.C,C73*%
X-41100000Y84920000D03*
X-41100000Y84280000D03*
%TD*%
D39*
%TO.C,Q4*%
X-29550000Y6537499D03*
X-27650000Y6537499D03*
X-28600000Y4662499D03*
%TD*%
D55*
%TO.C,C88*%
X-31850000Y43599999D03*
X-33550000Y43599999D03*
%TD*%
D46*
%TO.C,C52*%
X-37900000Y83480000D03*
X-37900000Y84120000D03*
%TD*%
D36*
%TO.C,C51*%
X-38780000Y82600000D03*
X-39420000Y82600000D03*
%TD*%
D37*
%TO.C,TP35*%
X-56000000Y49900000D03*
%TD*%
%TO.C,TP5*%
X-13700000Y31100000D03*
%TD*%
D38*
%TO.C,R48*%
X-59015000Y26335000D03*
X-57315000Y26335000D03*
X-59015000Y27135000D03*
X-57315000Y27135000D03*
X-59015000Y27935000D03*
X-57315000Y27935000D03*
X-59015000Y28735000D03*
X-57315000Y28735000D03*
%TD*%
D46*
%TO.C,C105*%
X-37900000Y78680000D03*
X-37900000Y79320000D03*
%TD*%
%TO.C,C82*%
X-35250000Y77080000D03*
X-35250000Y77720000D03*
%TD*%
%TO.C,C81*%
X-34550000Y77080000D03*
X-34550000Y77720000D03*
%TD*%
D34*
%TO.C,C103*%
X-40300000Y84920000D03*
X-40300000Y84280000D03*
%TD*%
D49*
%TO.C,C64*%
X-41950000Y84850000D03*
X-41950000Y85950000D03*
%TD*%
D56*
%TO.C,Q6*%
X-66700000Y23635001D03*
X-67350000Y23635001D03*
D57*
X-66985000Y22700001D03*
D56*
X-66700000Y21765001D03*
X-67350000Y21765001D03*
X-66050000Y23635001D03*
D58*
X-65925000Y22700001D03*
D56*
X-66050000Y21765001D03*
%TD*%
D36*
%TO.C,C55*%
X-40380000Y77100000D03*
X-41020000Y77100000D03*
%TD*%
D55*
%TO.C,R49*%
X-50350000Y103700000D03*
X-52050000Y103700000D03*
%TD*%
D46*
%TO.C,C100*%
X-38700000Y85080000D03*
X-38700000Y85720000D03*
%TD*%
D37*
%TO.C,TP10*%
X-52900000Y27000000D03*
%TD*%
D46*
%TO.C,C84*%
X-36650000Y77080000D03*
X-36650000Y77720000D03*
%TD*%
D36*
%TO.C,C59*%
X-33180000Y77600000D03*
X-33820000Y77600000D03*
%TD*%
D54*
%TO.C,C111*%
X-38620000Y76200000D03*
X-37980000Y76200000D03*
%TD*%
%TO.C,C68*%
X-36220000Y81800000D03*
X-35580000Y81800000D03*
%TD*%
D33*
%TO.C,R67*%
X-11000000Y85750000D03*
X-11000000Y84050000D03*
%TD*%
D55*
%TO.C,C95*%
X-63050000Y3200000D03*
X-64750000Y3200000D03*
%TD*%
D33*
%TO.C,R37*%
X-37550000Y69600000D03*
X-37550000Y67900000D03*
%TD*%
D46*
%TO.C,C102*%
X-37100000Y85080000D03*
X-37100000Y85720000D03*
%TD*%
D59*
%TO.C,U22*%
X-59625000Y102862500D03*
X-60275000Y102862500D03*
X-60925000Y102862500D03*
X-61575000Y102862500D03*
X-61575000Y105137500D03*
X-60925000Y105137500D03*
X-60275000Y105137500D03*
X-59625000Y105137500D03*
%TD*%
D60*
%TO.C,C97*%
X-62800000Y105150000D03*
X-62800000Y104050000D03*
%TD*%
D61*
%TO.C,Q8*%
X-66249999Y25362500D03*
X-68149999Y25362500D03*
X-67199999Y27237500D03*
%TD*%
D33*
%TO.C,R36*%
X-11000000Y94750000D03*
X-11000000Y93050000D03*
%TD*%
D55*
%TO.C,C11*%
X-51850000Y58250001D03*
X-53550000Y58250001D03*
%TD*%
D62*
%TO.C,D14*%
X-54110000Y4575000D03*
D63*
X-56650000Y13725000D03*
D62*
X-59190000Y4575000D03*
%TD*%
D46*
%TO.C,C83*%
X-37350000Y77080000D03*
X-37350000Y77720000D03*
%TD*%
D49*
%TO.C,R3*%
X-50200000Y32449999D03*
X-50200000Y33549999D03*
%TD*%
D35*
%TO.C,C3*%
X-2950000Y91600000D03*
X-4050000Y91600000D03*
%TD*%
D41*
%TO.C,R1*%
X-48400000Y70550000D03*
X-48400000Y72250000D03*
%TD*%
D33*
%TO.C,C20*%
X-57800000Y71150000D03*
X-57800000Y69450000D03*
%TD*%
D64*
%TO.C,R66*%
X-55950000Y87000000D03*
X-57650000Y87000000D03*
X-55950000Y86200000D03*
X-57650000Y86200000D03*
X-55950000Y85400000D03*
X-57650000Y85400000D03*
X-55950000Y84600000D03*
X-57650000Y84600000D03*
%TD*%
D34*
%TO.C,C65*%
X-37100000Y80920000D03*
X-37100000Y80280000D03*
%TD*%
%TO.C,C77*%
X-34700000Y82520000D03*
X-34700000Y81880000D03*
%TD*%
D37*
%TO.C,TP45*%
X-55100000Y98700000D03*
%TD*%
D52*
%TO.C,FID2*%
X-4100000Y28200000D03*
%TD*%
D55*
%TO.C,R47*%
X-63050001Y4750001D03*
X-64750001Y4750001D03*
%TD*%
D37*
%TO.C,TP3*%
X-11300000Y37700000D03*
%TD*%
%TO.C,TP23*%
X-54800000Y71300000D03*
%TD*%
D54*
%TO.C,C61*%
X-34620000Y79400000D03*
X-33980000Y79400000D03*
%TD*%
D41*
%TO.C,R56*%
X-22150000Y25730499D03*
X-22150000Y27430499D03*
%TD*%
D65*
%TO.C,FB3*%
X-66200000Y105100000D03*
X-64200000Y105100000D03*
%TD*%
D37*
%TO.C,TP17*%
X-51300000Y89600000D03*
%TD*%
D40*
%TO.C,C91*%
X-62500000Y52625000D03*
X-60800000Y52625000D03*
%TD*%
D37*
%TO.C,TP43*%
X-59800000Y88800000D03*
%TD*%
D55*
%TO.C,R10*%
X-46700000Y60500000D03*
X-48400000Y60500000D03*
%TD*%
D49*
%TO.C,C4*%
X-13000000Y89650000D03*
X-13000000Y90750000D03*
%TD*%
D37*
%TO.C,TP16*%
X-49200000Y86100000D03*
%TD*%
D33*
%TO.C,C7*%
X-37550000Y72700000D03*
X-37550000Y71000000D03*
%TD*%
D34*
%TO.C,C74*%
X-33900000Y82520000D03*
X-33900000Y81880000D03*
%TD*%
D66*
%TO.C,C22*%
X-63101041Y65801041D03*
X-61898959Y64598959D03*
%TD*%
D37*
%TO.C,TP1*%
X-32300000Y34500000D03*
%TD*%
D54*
%TO.C,C109*%
X-33020000Y76200000D03*
X-32380000Y76200000D03*
%TD*%
D38*
%TO.C,R14*%
X-49850000Y74500000D03*
X-48150000Y74500000D03*
X-49850000Y75300000D03*
X-48150000Y75300000D03*
X-49850000Y76100000D03*
X-48150000Y76100000D03*
X-49850000Y76900000D03*
X-48150000Y76900000D03*
%TD*%
D37*
%TO.C,TP27*%
X-60700000Y67500000D03*
%TD*%
%TO.C,TP32*%
X-55800000Y74400000D03*
%TD*%
D33*
%TO.C,C80*%
X-73500000Y90150000D03*
X-73500000Y88450000D03*
%TD*%
D41*
%TO.C,C17*%
X-58050000Y49575000D03*
X-58050000Y51275000D03*
%TD*%
D33*
%TO.C,R68*%
X-16700000Y94350000D03*
X-16700000Y92650000D03*
%TD*%
D36*
%TO.C,C60*%
X-40380000Y85800000D03*
X-41020000Y85800000D03*
%TD*%
D33*
%TO.C,R41*%
X-72200000Y90150000D03*
X-72200000Y88450000D03*
%TD*%
D39*
%TO.C,Q5*%
X-26050001Y6537498D03*
X-24150001Y6537498D03*
X-25100001Y4662498D03*
%TD*%
D40*
%TO.C,R61*%
X-67350000Y93200000D03*
X-65650000Y93200000D03*
%TD*%
D37*
%TO.C,TP33*%
X-53300000Y49750000D03*
%TD*%
%TO.C,TP20*%
X-45350000Y70300000D03*
%TD*%
D66*
%TO.C,C18*%
X-32901041Y67101041D03*
X-31698959Y65898959D03*
%TD*%
D36*
%TO.C,C62*%
X-40380000Y79400000D03*
X-41020000Y79400000D03*
%TD*%
D33*
%TO.C,R28*%
X-55900000Y82450000D03*
X-55900000Y80750000D03*
%TD*%
D40*
%TO.C,R76*%
X-56950000Y92200000D03*
X-55250000Y92200000D03*
%TD*%
D46*
%TO.C,C106*%
X-38700000Y78680000D03*
X-38700000Y79320000D03*
%TD*%
D40*
%TO.C,R63*%
X-63250000Y89800000D03*
X-61550000Y89800000D03*
%TD*%
D33*
%TO.C,C1*%
X-54500000Y79050000D03*
X-54500000Y77350000D03*
%TD*%
D37*
%TO.C,TP41*%
X-3500000Y86700000D03*
%TD*%
D41*
%TO.C,R32*%
X-40300000Y2150000D03*
X-40300000Y3850000D03*
%TD*%
D37*
%TO.C,TP6*%
X-27500000Y42600000D03*
%TD*%
%TO.C,TP7*%
X-27500000Y44850000D03*
%TD*%
D34*
%TO.C,C104*%
X-40300000Y82520000D03*
X-40300000Y81880000D03*
%TD*%
D55*
%TO.C,R17*%
X-45100000Y35900000D03*
X-46800000Y35900000D03*
%TD*%
D36*
%TO.C,C50*%
X-38780000Y83400000D03*
X-39420000Y83400000D03*
%TD*%
D40*
%TO.C,R62*%
X-63250000Y88500000D03*
X-61550000Y88500000D03*
%TD*%
D55*
%TO.C,C13*%
X-46700000Y59150000D03*
X-48400000Y59150000D03*
%TD*%
D41*
%TO.C,R40*%
X-39000000Y2150000D03*
X-39000000Y3850000D03*
%TD*%
D40*
%TO.C,C14*%
X-48400000Y57250000D03*
X-46700000Y57250000D03*
%TD*%
D37*
%TO.C,TP30*%
X-60500000Y69500000D03*
%TD*%
D55*
%TO.C,R43*%
X-36350000Y41500001D03*
X-38050000Y41500001D03*
%TD*%
D40*
%TO.C,C93*%
X-62500000Y51275000D03*
X-60800000Y51275000D03*
%TD*%
D46*
%TO.C,C69*%
X-37100000Y83480000D03*
X-37100000Y84120000D03*
%TD*%
D40*
%TO.C,R51*%
X-64250000Y93200000D03*
X-62550000Y93200000D03*
%TD*%
%TO.C,R65*%
X-48000000Y7400000D03*
X-46300000Y7400000D03*
%TD*%
%TO.C,R58*%
X-55150000Y103700000D03*
X-53450000Y103700000D03*
%TD*%
%TO.C,R6*%
X-56950000Y90900000D03*
X-55250000Y90900000D03*
%TD*%
D37*
%TO.C,TP13*%
X-42800000Y43550000D03*
%TD*%
D54*
%TO.C,C53*%
X-36220000Y82600000D03*
X-35580000Y82600000D03*
%TD*%
D38*
%TO.C,R46*%
X-62550001Y27100000D03*
X-60850001Y27100000D03*
X-62550001Y27900000D03*
X-60850001Y27900000D03*
X-62550001Y28700000D03*
X-60850001Y28700000D03*
X-62550001Y29500000D03*
X-60850001Y29500000D03*
%TD*%
D37*
%TO.C,TP31*%
X-57200000Y72900000D03*
%TD*%
D55*
%TO.C,C6*%
X-41350000Y5400000D03*
X-43050000Y5400000D03*
%TD*%
D48*
%TO.C,R53*%
X-63800000Y98300000D03*
X-63800000Y96300000D03*
%TD*%
D46*
%TO.C,C85*%
X-35950000Y77080000D03*
X-35950000Y77720000D03*
%TD*%
D37*
%TO.C,TP18*%
X-51200000Y86700000D03*
%TD*%
D52*
%TO.C,FID3*%
X-72600000Y29000000D03*
%TD*%
D41*
%TO.C,R64*%
X-51200000Y100350000D03*
X-51200000Y102050000D03*
%TD*%
D37*
%TO.C,TP44*%
X-66100000Y98200000D03*
%TD*%
D35*
%TO.C,C35*%
X-2950000Y82600000D03*
X-4050000Y82600000D03*
%TD*%
D36*
%TO.C,C70*%
X-38780000Y81000000D03*
X-39420000Y81000000D03*
%TD*%
D37*
%TO.C,TP24*%
X-53900000Y73100000D03*
%TD*%
%TO.C,TP4*%
X-11300000Y28600000D03*
%TD*%
D67*
%TO.C,R35*%
X-29150001Y8949999D03*
X-29150001Y10649999D03*
X-29950001Y8949999D03*
X-29950001Y10649999D03*
X-30750001Y8949999D03*
X-30750001Y10649999D03*
X-31550001Y8949999D03*
X-31550001Y10649999D03*
%TD*%
D49*
%TO.C,C36*%
X-13000000Y80650000D03*
X-13000000Y81750000D03*
%TD*%
D37*
%TO.C,TP47*%
X-48000000Y9150000D03*
%TD*%
D68*
%TO.C,J6*%
X-69725000Y81940000D03*
X-69325000Y80840000D03*
X-69725000Y79740000D03*
X-69925000Y78640000D03*
X-69725000Y77540000D03*
X-69925000Y76440000D03*
X-69725000Y75340000D03*
X-69725000Y74240000D03*
D69*
X-59175000Y75050000D03*
X-59175000Y80750000D03*
D70*
X-72325000Y73450000D03*
X-73325000Y86600000D03*
%TD*%
D33*
%TO.C,R70*%
X-53700000Y84050000D03*
X-53700000Y82350000D03*
%TD*%
D37*
%TO.C,TP29*%
X-59450000Y71450000D03*
%TD*%
D36*
%TO.C,C54*%
X-40380000Y78500000D03*
X-41020000Y78500000D03*
%TD*%
D40*
%TO.C,C16*%
X-62500000Y49725000D03*
X-60800000Y49725000D03*
%TD*%
D37*
%TO.C,TP2*%
X-11300000Y35000000D03*
%TD*%
%TO.C,TP9*%
X-41650000Y41650000D03*
%TD*%
D40*
%TO.C,R77*%
X-56950000Y88300000D03*
X-55250000Y88300000D03*
%TD*%
D35*
%TO.C,C34*%
X-9950000Y82600000D03*
X-11050000Y82600000D03*
%TD*%
%TO.C,C96*%
X-60600000Y99600000D03*
X-61700000Y99600000D03*
%TD*%
%TO.C,C71*%
X-34550000Y80600000D03*
X-35650000Y80600000D03*
%TD*%
D40*
%TO.C,R75*%
X-56950000Y89600000D03*
X-55250000Y89600000D03*
%TD*%
D41*
%TO.C,C24*%
X-48700000Y32299999D03*
X-48700000Y33999999D03*
%TD*%
D49*
%TO.C,C37*%
X-6000000Y80650001D03*
X-6000000Y81750001D03*
%TD*%
D33*
%TO.C,C92*%
X-59400000Y51275001D03*
X-59400000Y49575001D03*
%TD*%
G36*
X-58195264Y1899058D02*
G01*
X-58133025Y1886678D01*
X-58115361Y1879362D01*
X-58066683Y1846837D01*
X-58053164Y1833318D01*
X-58020639Y1784640D01*
X-58013323Y1766977D01*
X-58000942Y1704737D01*
X-58000000Y1695177D01*
X-58000000Y204824D01*
X-58000942Y195264D01*
X-58013323Y133024D01*
X-58020639Y115361D01*
X-58053164Y66683D01*
X-58066683Y53164D01*
X-58115361Y20639D01*
X-58133024Y13323D01*
X-58195263Y942D01*
X-58204823Y0D01*
X-66295177Y0D01*
X-66304737Y942D01*
X-66366977Y13323D01*
X-66384640Y20639D01*
X-66433318Y53164D01*
X-66446837Y66683D01*
X-66479362Y115361D01*
X-66486679Y133025D01*
X-66499059Y195265D01*
X-66500000Y204824D01*
X-66500000Y1695177D01*
X-66499059Y1704736D01*
X-66486679Y1766976D01*
X-66479362Y1784640D01*
X-66446837Y1833318D01*
X-66433318Y1846837D01*
X-66384640Y1879362D01*
X-66366976Y1886679D01*
X-66304736Y1899059D01*
X-66295177Y1900000D01*
X-58204823Y1900000D01*
X-58195264Y1899058D01*
G37*
%LPD*%
M02*
