M48
; DRILL file {KiCad 8.0.3} date 2024-06-13T08:32:38-0700
; FORMAT={-:-/ absolute / metric / decimal}
; #@! TF.CreationDate,2024-06-13T08:32:38-07:00
; #@! TF.GenerationSoftware,Kicad,Pcbnew,8.0.3
; #@! TF.FileFunction,MixedPlating,1,8
FMAT,2
METRIC
; #@! TA.AperFunction,Plated,PTH,ViaDrill
T1C0.200
; #@! TA.AperFunction,Plated,PTH,ViaDrill
T2C0.300
; #@! TA.AperFunction,Plated,PTH,ComponentDrill
T3C0.300
; #@! TA.AperFunction,Plated,PTH,ViaDrill
T4C0.400
; #@! TA.AperFunction,Plated,PTH,ComponentDrill
T5C0.400
; #@! TA.AperFunction,Plated,PTH,ComponentDrill
T6C0.500
; #@! TA.AperFunction,Plated,PTH,ComponentDrill
T7C0.800
; #@! TA.AperFunction,Plated,PTH,ComponentDrill
T8C1.000
; #@! TA.AperFunction,Plated,PTH,ComponentDrill
T9C3.200
; #@! TA.AperFunction,NonPlated,NPTH,ComponentDrill
T10C0.650
; #@! TA.AperFunction,NonPlated,NPTH,ComponentDrill
T11C0.750
; #@! TA.AperFunction,NonPlated,NPTH,ComponentDrill
T12C0.800
; #@! TA.AperFunction,NonPlated,NPTH,ComponentDrill
T13C1.200
%
G90
G05
T1
X-73.0Y77.5
X-72.9Y40.2
X-72.85Y68.55
X-72.85Y43.2
X-72.85Y37.2
X-71.9Y86.5
X-71.5Y79.6
X-69.9Y78.6
X-69.1Y58.25
X-68.9Y72.4
X-67.8Y43.2
X-67.8Y41.7
X-67.8Y40.2
X-67.8Y38.7
X-67.8Y37.2
X-67.65Y58.0
X-67.4Y93.2
X-67.0Y47.1
X-67.0Y45.35
X-66.6Y43.8
X-66.6Y42.4
X-66.6Y40.9
X-66.6Y39.4
X-66.6Y37.9
X-66.6Y36.3
X-66.1Y59.3
X-65.9Y81.4
X-65.7Y75.4
X-65.7Y74.8
X-65.5Y81.9
X-65.5Y80.9
X-65.5Y80.1
X-65.5Y79.5
X-65.5Y73.6
X-65.5Y73.0
X-65.35Y59.3
X-65.35Y57.2
X-65.323Y57.935
X-65.323Y58.565
X-65.0Y81.4
X-64.8Y78.1
X-64.8Y77.5
X-64.3Y57.6
X-63.8Y68.2
X-63.7Y66.2
X-63.565Y57.6
X-63.3Y60.54
X-63.3Y59.96
X-63.225Y50.5
X-63.2Y88.5
X-63.2Y79.0
X-62.975Y55.925
X-62.975Y55.165
X-62.975Y54.585
X-62.975Y53.8
X-62.935Y57.6
X-62.8Y61.05
X-62.8Y59.5
X-62.32Y53.745
X-62.225Y57.6
X-62.15Y86.55
X-61.74Y53.745
X-61.7Y99.6
X-61.505Y77.0
X-61.5Y96.15
X-61.5Y95.45
X-61.5Y92.35
X-61.5Y91.65
X-61.3Y64.2
X-61.05Y95.8
X-61.05Y92.0
X-61.05Y53.8
X-60.9Y105.1
X-60.6Y96.15
X-60.6Y95.1
X-60.6Y92.7
X-60.6Y91.65
X-60.6Y22.55
X-60.5Y69.45
X-60.5Y43.8
X-60.5Y42.4
X-60.5Y40.9
X-60.5Y39.5
X-60.5Y37.9
X-60.5Y36.3
X-60.3Y105.1
X-60.3Y88.5
X-60.235Y77.0
X-60.15Y95.8
X-60.15Y92.0
X-60.0Y50.5
X-59.9Y67.6
X-59.7Y96.15
X-59.7Y95.45
X-59.7Y92.35
X-59.7Y91.65
X-59.65Y103.0
X-59.65Y84.0
X-59.6Y105.1
X-59.6Y57.0
X-59.4Y71.6
X-59.4Y68.95
X-58.965Y83.0
X-58.8Y68.2
X-58.79Y59.5
X-58.65Y32.0
X-58.165Y29.807
X-58.165Y25.262
X-57.695Y83.0
X-57.4Y59.5
X-57.3Y92.2
X-57.3Y49.75
X-57.3Y48.0
X-57.2Y72.9
X-57.15Y71.2
X-56.725Y59.5
X-56.59Y57.0
X-56.5Y70.2
X-56.5Y68.2
X-56.0Y65.7
X-56.0Y53.4
X-56.0Y51.7
X-56.0Y50.3
X-56.0Y48.6
X-55.8Y77.0
X-55.8Y74.4
X-55.75Y72.3
X-55.5Y69.2
X-55.25Y71.9
X-54.846Y87.262
X-54.8Y86.3
X-54.8Y85.3
X-54.8Y84.3
X-54.8Y83.3
X-54.8Y82.3
X-54.8Y81.3
X-54.75Y66.45
X-54.5Y86.8
X-54.5Y85.8
X-54.5Y84.8
X-54.5Y83.8
X-54.5Y82.8
X-54.5Y81.8
X-54.5Y80.8
X-54.5Y79.4
X-54.5Y70.2
X-54.5Y68.2
X-54.2Y50.3
X-53.7Y84.752
X-53.1Y111.8
X-53.1Y97.7
X-52.9Y27.0
X-52.3Y111.8
X-52.3Y97.7
X-52.0Y72.0
X-51.7Y98.5
X-51.45Y69.95
X-51.45Y68.95
X-51.2Y100.35
X-51.075Y53.975
X-50.95Y35.4
X-50.9Y58.25
X-50.7Y111.8
X-50.45Y69.95
X-50.4Y91.5
X-50.4Y66.6
X-50.382Y53.966
X-50.3Y79.6
X-50.3Y78.0
X-50.2Y85.7
X-49.95Y79.125
X-49.95Y78.475
X-49.9Y111.8
X-49.9Y60.4
X-49.802Y53.966
X-49.8Y87.4
X-49.25Y68.45
X-49.25Y67.05
X-49.1Y53.975
X-48.9Y33.15
X-48.4Y69.45
X-48.4Y60.5
X-48.225Y67.425
X-48.1Y76.9
X-48.1Y76.1
X-48.1Y75.3
X-48.0Y7.4
X-47.9Y33.15
X-47.6Y85.1
X-47.3Y88.2
X-47.3Y87.5
X-47.25Y61.85
X-47.05Y67.95
X-46.9Y33.15
X-46.7Y71.6
X-46.7Y65.9
X-46.6Y83.4
X-46.3Y7.4
X-46.264Y59.777
X-46.1Y67.4
X-45.35Y70.3
X-45.1Y111.9
X-45.1Y85.8
X-45.1Y85.0
X-45.1Y76.2
X-44.3Y111.9
X-44.3Y89.8
X-44.3Y85.0
X-44.3Y83.4
X-44.3Y81.0
X-44.3Y74.6
X-44.2Y73.1
X-44.2Y72.3
X-43.775Y57.925
X-43.5Y89.8
X-43.5Y79.4
X-43.5Y76.2
X-42.8Y71.0
X-42.7Y111.9
X-42.7Y87.4
X-42.7Y85.0
X-42.7Y82.6
X-42.7Y81.8
X-42.7Y79.4
X-42.7Y78.6
X-42.7Y77.8
X-42.7Y77.0
X-42.7Y76.2
X-41.9Y111.9
X-41.9Y89.8
X-41.9Y82.6
X-41.9Y81.8
X-41.9Y81.0
X-41.9Y78.6
X-41.9Y77.8
X-41.9Y77.0
X-41.9Y76.2
X-41.535Y72.175
X-41.4Y50.3
X-41.3Y69.65
X-41.1Y89.8
X-41.1Y85.8
X-41.1Y85.0
X-41.1Y84.2
X-41.1Y83.4
X-41.1Y82.6
X-41.1Y81.8
X-41.1Y81.0
X-41.1Y80.2
X-41.1Y79.4
X-41.1Y78.6
X-41.1Y77.8
X-41.1Y77.0
X-41.1Y76.2
X-41.1Y75.4
X-40.3Y111.9
X-40.3Y89.0
X-40.3Y85.8
X-40.3Y85.0
X-40.3Y84.2
X-40.3Y83.4
X-40.3Y82.6
X-40.3Y81.8
X-40.3Y81.0
X-40.3Y80.2
X-40.3Y79.4
X-40.3Y78.6
X-40.3Y77.0
X-40.3Y76.2
X-40.3Y75.4
X-40.265Y67.225
X-39.5Y111.9
X-39.5Y89.8
X-39.5Y85.8
X-39.5Y85.0
X-39.5Y84.2
X-39.5Y83.4
X-39.5Y82.6
X-39.5Y81.8
X-39.5Y81.0
X-39.5Y80.2
X-39.5Y79.4
X-39.5Y77.0
X-39.5Y76.2
X-39.0Y69.0
X-39.0Y2.15
X-38.7Y89.8
X-38.7Y85.8
X-38.7Y85.0
X-38.7Y84.2
X-38.7Y83.4
X-38.7Y82.6
X-38.7Y81.8
X-38.7Y81.0
X-38.7Y80.2
X-38.7Y79.4
X-38.7Y78.6
X-38.7Y77.0
X-38.7Y76.2
X-37.9Y111.9
X-37.9Y89.8
X-37.9Y85.8
X-37.9Y85.0
X-37.9Y84.2
X-37.9Y83.4
X-37.9Y82.6
X-37.9Y81.8
X-37.9Y81.0
X-37.9Y80.2
X-37.9Y79.4
X-37.9Y78.6
X-37.9Y77.0
X-37.9Y76.2
X-37.1Y111.9
X-37.1Y89.8
X-37.1Y85.8
X-37.1Y85.0
X-37.1Y84.2
X-37.1Y83.4
X-37.1Y82.6
X-37.1Y81.8
X-37.1Y81.0
X-37.1Y80.2
X-37.1Y79.4
X-37.1Y77.8
X-37.1Y77.0
X-37.1Y76.2
X-36.3Y89.8
X-36.3Y85.8
X-36.3Y85.0
X-36.3Y84.2
X-36.3Y83.4
X-36.3Y82.6
X-36.3Y81.8
X-36.3Y81.0
X-36.3Y80.2
X-36.3Y79.4
X-36.3Y78.6
X-36.3Y77.8
X-36.3Y77.0
X-36.3Y76.2
X-36.3Y75.4
X-35.9Y79.0
X-35.5Y111.9
X-35.5Y89.8
X-35.5Y85.8
X-35.5Y85.0
X-35.5Y84.2
X-35.5Y83.4
X-35.5Y82.6
X-35.5Y81.8
X-35.5Y81.0
X-35.5Y80.2
X-35.5Y79.4
X-35.5Y78.6
X-35.5Y77.8
X-35.5Y77.0
X-35.5Y76.2
X-35.1Y79.0
X-34.7Y111.9
X-34.7Y89.0
X-34.7Y85.8
X-34.7Y85.0
X-34.7Y84.2
X-34.7Y83.4
X-34.7Y82.6
X-34.7Y81.8
X-34.7Y81.0
X-34.7Y80.2
X-34.7Y79.4
X-34.7Y78.6
X-34.7Y77.8
X-34.7Y77.0
X-34.7Y76.2
X-33.9Y89.8
X-33.9Y85.8
X-33.9Y85.0
X-33.9Y84.2
X-33.9Y83.4
X-33.9Y82.6
X-33.9Y81.8
X-33.9Y81.0
X-33.9Y80.2
X-33.9Y79.4
X-33.9Y78.9
X-33.9Y77.8
X-33.9Y77.0
X-33.9Y76.2
X-33.9Y75.4
X-33.4Y43.5
X-33.4Y42.9
X-33.4Y42.3
X-33.1Y111.9
X-33.1Y89.8
X-33.1Y81.0
X-33.1Y76.2
X-33.1Y75.4
X-33.0Y67.2
X-32.7Y78.2
X-32.7Y77.4
X-32.5Y64.9
X-32.3Y111.9
X-32.3Y87.4
X-32.3Y86.6
X-32.3Y85.8
X-32.3Y85.0
X-32.3Y83.4
X-32.3Y81.0
X-32.3Y80.2
X-32.3Y76.2
X-32.3Y34.5
X-31.8Y42.6
X-31.5Y89.8
X-31.5Y88.2
X-31.5Y87.4
X-31.5Y86.6
X-31.5Y85.8
X-31.5Y85.0
X-31.5Y84.2
X-31.5Y83.4
X-31.5Y82.6
X-31.5Y81.0
X-31.5Y80.2
X-31.5Y76.2
X-30.7Y111.9
X-30.7Y88.2
X-30.7Y87.4
X-30.7Y86.6
X-30.7Y84.2
X-30.7Y83.4
X-30.7Y82.6
X-30.7Y78.6
X-30.7Y76.2
X-30.7Y75.4
X-29.9Y88.2
X-29.9Y85.8
X-29.9Y85.0
X-29.9Y76.2
X-28.5Y64.2
X-21.5Y89.2
X-16.7Y94.35
X-15.2Y85.7
X-14.9Y38.4
X-14.9Y23.4
X-14.8Y43.5
X-14.2Y94.9
X-14.2Y92.9
X-14.2Y86.0
X-14.2Y83.9
X-13.0Y90.7
X-13.0Y81.7
X-13.0Y91.7
X-13.0Y89.7
X-13.0Y88.7
X-13.0Y82.7
X-13.0Y80.7
X-13.0Y79.7
X-12.0Y91.7
X-12.0Y89.7
X-12.0Y88.7
X-12.0Y82.7
X-12.0Y80.7
X-12.0Y79.7
X-11.0Y94.5
X-11.0Y92.7
X-11.0Y91.7
X-11.0Y90.7
X-11.0Y89.7
X-11.0Y85.7
X-11.0Y83.7
X-11.0Y82.7
X-11.0Y81.7
X-11.0Y80.7
X-10.0Y92.7
X-10.0Y91.7
X-10.0Y90.7
X-10.0Y89.7
X-10.0Y88.7
X-10.0Y83.7
X-10.0Y82.7
X-10.0Y81.7
X-10.0Y80.7
X-10.0Y79.7
X-9.0Y88.7
X-9.0Y79.7
X-6.0Y88.7
X-6.0Y91.7
X-6.0Y90.7
X-6.0Y89.7
X-6.0Y82.7
X-6.0Y81.7
X-6.0Y80.7
X-6.0Y79.7
X-5.0Y91.7
X-5.0Y89.7
X-5.0Y88.7
X-5.0Y82.7
X-5.0Y80.7
X-5.0Y79.7
X-4.0Y90.7
X-4.0Y81.7
X-4.0Y92.7
X-4.0Y91.7
X-4.0Y89.7
X-4.0Y83.7
X-4.0Y82.7
X-4.0Y80.7
X-3.5Y86.7
X-3.0Y92.7
X-3.0Y91.7
X-3.0Y90.7
X-3.0Y89.7
X-3.0Y88.7
X-3.0Y83.7
X-3.0Y82.7
X-3.0Y81.7
X-3.0Y80.7
X-3.0Y79.7
X-2.0Y88.7
X-2.0Y79.7
T2
X-68.8Y31.4
X-68.8Y30.6
X-68.8Y29.6
X-68.8Y28.8
X-68.25Y105.1
X-67.65Y105.1
X-66.6Y79.4
X-66.6Y74.6
X-66.5Y100.4
X-66.5Y99.2
X-66.5Y95.4
X-66.5Y94.2
X-66.1Y99.8
X-66.1Y94.8
X-65.8Y30.6
X-65.8Y29.6
X-65.8Y28.8
X-65.8Y31.4
X-65.75Y53.45
X-65.75Y52.65
X-65.7Y100.4
X-65.7Y99.2
X-65.7Y95.4
X-65.7Y94.2
X-65.3Y99.8
X-65.3Y94.8
X-65.15Y53.05
X-65.15Y52.25
X-64.9Y100.4
X-64.9Y99.2
X-64.9Y95.4
X-64.9Y94.2
X-64.6Y20.8
X-64.5Y99.8
X-64.5Y94.8
X-64.45Y53.45
X-64.45Y52.65
X-64.1Y100.4
X-64.1Y99.2
X-64.1Y95.4
X-64.1Y94.2
X-63.7Y99.8
X-63.7Y94.8
X-63.65Y20.8
X-63.55Y28.7
X-63.55Y27.9
X-63.3Y100.4
X-63.3Y99.2
X-63.3Y95.4
X-63.3Y94.2
X-63.1Y83.0
X-61.975Y50.5
X-61.6Y52.125
X-61.6Y48.825
X-61.35Y81.45
X-61.35Y80.0
X-61.35Y78.55
X-60.6Y100.8
X-58.75Y20.5
X-58.75Y19.8
X-58.75Y19.1
X-58.7Y48.775
X-58.45Y87.9
X-58.35Y77.0
X-58.05Y21.2
X-58.05Y20.5
X-58.05Y19.8
X-58.05Y19.1
X-57.9Y100.9
X-57.9Y99.7
X-57.9Y95.4
X-57.9Y94.2
X-57.85Y81.45
X-57.85Y80.0
X-57.85Y78.55
X-57.7Y21.9
X-57.5Y100.3
X-57.5Y94.8
X-57.35Y21.2
X-57.35Y20.5
X-57.35Y19.8
X-57.35Y19.1
X-57.1Y100.9
X-57.1Y99.7
X-57.1Y95.4
X-57.1Y94.2
X-56.7Y100.3
X-56.7Y94.8
X-56.65Y19.8
X-56.65Y19.1
X-56.65Y20.5
X-56.3Y100.9
X-56.3Y99.7
X-56.3Y95.4
X-56.3Y94.2
X-56.2Y5.5
X-56.2Y4.5
X-55.9Y100.3
X-55.9Y94.8
X-55.5Y100.9
X-55.5Y99.7
X-55.5Y95.4
X-55.5Y94.2
X-55.3Y6.5
X-55.3Y5.5
X-55.3Y4.5
X-55.1Y100.3
X-55.1Y94.8
X-54.7Y100.9
X-54.7Y99.7
X-54.7Y95.4
X-54.7Y94.2
X-54.65Y19.8
X-54.2Y59.8
X-54.2Y56.6
X-53.3Y49.75
X-53.2Y59.8
X-53.2Y56.6
X-52.9Y19.8
X-52.8Y6.5
X-52.8Y5.5
X-52.8Y4.5
X-52.0Y73.7
X-51.9Y6.5
X-51.9Y5.5
X-51.8Y64.0
X-51.5Y20.6
X-51.5Y18.9
X-51.2Y103.7
X-50.7Y73.7
X-50.2Y34.3
X-49.8Y75.3
X-49.6Y38.95
X-49.6Y14.6
X-49.35Y57.2
X-48.6Y31.1
X-48.4Y70.5
X-48.3Y38.95
X-47.7Y31.0
X-47.5Y29.5
X-46.8Y35.1
X-46.7Y15.4
X-46.6Y58.1
X-46.6Y56.3
X-45.9Y29.4
X-45.7Y33.1
X-45.7Y57.2
X-45.7Y34.4
X-45.6Y44.6
X-45.6Y44.0
X-45.6Y43.4
X-45.4Y65.9
X-45.4Y62.1
X-45.0Y44.6
X-45.0Y44.0
X-45.0Y43.4
X-44.8Y5.4
X-44.45Y40.35
X-44.4Y44.6
X-44.1Y32.7
X-42.9Y43.55
X-42.5Y31.7
X-42.3Y29.4
X-41.7Y34.1
X-41.1Y64.0
X-40.0Y3.0
X-39.4Y40.45
X-39.3Y15.4
X-39.0Y5.8
X-38.6Y70.4
X-37.5Y72.7
X-37.5Y64.2
X-36.9Y42.6
X-36.9Y34.4
X-36.9Y33.6
X-36.6Y1.0
X-36.1Y35.2
X-36.1Y34.4
X-36.1Y33.6
X-36.0Y42.6
X-35.45Y41.5
X-35.3Y35.2
X-35.3Y34.4
X-35.3Y33.6
X-35.1Y66.0
X-34.6Y70.2
X-34.6Y10.8
X-33.9Y35.2
X-33.9Y34.4
X-33.9Y33.6
X-33.777Y6.3
X-32.05Y6.35
X-31.6Y70.1
X-31.0Y16.4
X-31.0Y22.4
X-30.85Y43.55
X-30.6Y72.5
X-30.1Y21.2
X-29.15Y11.8
X-28.65Y6.3
X-28.5Y70.2
X-28.3Y75.3
X-27.5Y42.6
X-27.5Y41.2
X-27.1Y41.9
X-26.95Y13.95
X-26.923Y6.3
X-26.8Y21.6
X-26.7Y42.6
X-26.7Y41.2
X-26.3Y41.9
X-25.9Y42.6
X-25.9Y41.2
X-25.85Y27.58
X-25.5Y41.9
X-25.1Y42.6
X-25.1Y41.2
X-25.0Y24.0
X-24.7Y41.9
X-24.3Y42.6
X-24.3Y41.2
X-24.3Y24.7
X-23.95Y12.7
X-23.9Y41.9
X-23.5Y42.6
X-23.5Y41.2
X-23.1Y41.9
X-22.95Y26.65
X-22.95Y25.73
X-22.7Y42.6
X-22.7Y41.2
X-22.3Y41.9
X-21.9Y42.6
X-21.9Y41.2
X-21.5Y41.9
X-21.1Y42.6
X-21.1Y41.2
X-21.1Y2.6
X-21.0Y26.5
X-20.7Y41.9
X-20.35Y20.7
X-20.3Y42.6
X-20.3Y41.2
X-19.9Y41.9
X-18.4Y18.1
X-18.2Y72.0
X-18.2Y71.3
X-18.2Y70.6
X-18.2Y69.9
X-18.2Y69.2
X-18.2Y68.5
X-17.65Y71.65
X-17.65Y70.95
X-17.65Y70.25
X-17.65Y69.55
X-17.65Y68.85
X-17.3Y42.4
X-17.3Y35.8
X-17.3Y29.4
X-17.1Y72.0
X-17.1Y71.3
X-17.1Y70.6
X-17.1Y69.9
X-17.1Y69.2
X-17.1Y68.5
X-16.55Y71.65
X-16.55Y70.95
X-16.55Y70.25
X-16.55Y69.55
X-16.55Y68.85
X-16.0Y72.0
X-16.0Y71.3
X-16.0Y70.6
X-16.0Y69.9
X-16.0Y69.2
X-16.0Y68.5
X-15.7Y42.0
X-15.7Y35.4
X-15.7Y32.1
X-15.7Y29.0
X-15.45Y71.65
X-15.45Y70.95
X-15.45Y70.25
X-15.45Y69.55
X-15.45Y68.85
X-14.2Y94.263
X-14.2Y93.536
X-14.2Y85.3
X-14.2Y84.573
X-13.7Y44.2
X-13.7Y31.1
X-12.7Y43.1
X-12.7Y41.7
X-12.7Y36.5
X-12.7Y35.1
X-12.7Y30.1
X-12.7Y28.7
X-12.3Y42.5
X-12.3Y35.9
X-12.3Y29.5
X-11.9Y43.1
X-11.9Y36.5
X-11.9Y30.1
X-11.5Y42.5
X-11.5Y35.9
X-11.5Y29.5
X-11.3Y41.6
X-11.3Y35.0
X-11.3Y28.6
X-11.0Y43.1
X-11.0Y36.5
X-11.0Y30.1
X-11.0Y24.9
X-11.0Y20.3
X-10.6Y24.2
X-10.6Y19.6
X-10.2Y24.9
X-10.2Y20.3
X-9.8Y24.2
X-9.8Y19.6
X-9.4Y24.9
X-9.4Y20.3
X-9.0Y24.2
X-9.0Y19.6
X-8.6Y24.9
X-8.6Y20.3
X-8.2Y24.2
X-8.2Y19.6
X-7.8Y24.9
X-7.8Y20.3
X-7.4Y24.2
X-7.4Y19.6
X-7.0Y24.9
X-7.0Y20.3
T3
X-69.1Y60.65
X-69.1Y59.85
X-69.1Y59.05
X-69.1Y57.45
X-69.1Y56.65
X-69.1Y55.85
X-68.4Y59.45
X-68.4Y58.65
X-68.4Y57.85
X-68.4Y57.05
T4
X-62.1Y24.5
X-56.3Y29.45
X-56.25Y26.9
X-56.25Y25.6
T5
X-68.4Y61.3
X-68.4Y55.2
T7
X-45.1Y3.4
X-43.6Y1.55
X-42.1Y3.4
T8
X-68.5Y100.765
X-68.5Y98.225
T9
X-71.0Y111.0
X-71.0Y4.0
X-4.0Y111.0
X-4.0Y4.0
T10
X-69.1Y61.975
T11
X-70.7Y46.2
T12
X-59.6Y111.0
T13
X-15.4Y111.0
T6
G00X-72.6Y64.25
M15
G01X-73.6Y64.25
M16
G05
G00X-72.6Y52.25
M15
G01X-73.6Y52.25
M16
G05
G00X-67.3Y62.75
M15
G01X-67.9Y62.75
M16
G05
G00X-67.3Y53.75
M15
G01X-67.9Y53.75
M16
G05
T8
G00X-70.2Y17.1
M15
G01X-70.2Y14.9
M16
G05
G00X-65.7Y11.2
M15
G01X-67.9Y11.2
M16
G05
G00X-63.9Y17.3
M15
G01X-63.9Y14.7
M16
G05
T10
G00X-69.1Y54.675
M15
G01X-69.1Y54.375
M16
G05
M30
