M48
; DRILL file {KiCad 8.0.6} date 2024-11-07T02:26:35-0800
; FORMAT={-:-/ absolute / metric / decimal}
; #@! TF.CreationDate,2024-11-07T02:26:35-08:00
; #@! TF.GenerationSoftware,Kicad,Pcbnew,8.0.6
; #@! TF.FileFunction,MixedPlating,1,6
FMAT,2
METRIC
; #@! TA.AperFunction,Plated,PTH,ViaDrill
T1C0.200
; #@! TA.AperFunction,Plated,PTH,ComponentDrill
T2C1.100
; #@! TA.AperFunction,Plated,PTH,ComponentDrill
T3C1.500
; #@! TA.AperFunction,Plated,PTH,ComponentDrill
T4C3.100
; #@! TA.AperFunction,Plated,PTH,ComponentDrill
T5C3.200
; #@! TA.AperFunction,NonPlated,NPTH,ComponentDrill
T6C0.800
; #@! TA.AperFunction,NonPlated,NPTH,ComponentDrill
T7C1.200
; #@! TA.AperFunction,NonPlated,NPTH,ComponentDrill
T8C2.200
; #@! TA.AperFunction,NonPlated,NPTH,ComponentDrill
T9C2.600
%
G90
G05
T1
X-67.2Y16.5
X-67.2Y14.75
X-67.2Y12.15
X-67.2Y10.5
X-66.05Y4.85
X-66.05Y3.15
X-64.65Y4.0
X-64.1Y4.5
X-64.1Y3.5
X-63.6Y4.0
X-63.0Y8.5
X-62.4Y7.9
X-62.15Y4.85
X-57.1Y7.0
X-57.1Y6.2
X-57.1Y5.4
X-56.3Y2.6
X-56.3Y1.8
X-56.3Y1.0
X-54.7Y7.0
X-54.7Y6.2
X-54.7Y5.4
X-54.7Y3.2
X-54.7Y2.6
X-54.7Y1.8
X-54.7Y1.0
X-53.9Y7.0
X-53.9Y6.2
X-53.9Y5.4
X-53.9Y3.2
X-53.9Y2.6
X-53.9Y1.8
X-53.9Y1.0
X-51.5Y7.0
X-51.5Y6.2
X-51.5Y5.4
X-51.5Y3.2
X-51.5Y2.6
X-51.5Y1.8
X-51.5Y1.0
X-49.1Y7.0
X-49.1Y6.2
X-49.1Y5.4
X-49.1Y3.2
X-49.1Y2.6
X-49.1Y1.8
X-49.1Y1.0
X-47.5Y3.2
X-46.7Y7.0
X-46.7Y6.2
X-46.7Y5.4
X-46.7Y3.2
X-46.7Y2.6
X-46.7Y1.8
X-46.7Y1.0
X-45.9Y3.2
X-45.1Y3.2
X-44.3Y7.0
X-44.3Y6.2
X-44.3Y5.4
X-44.3Y3.2
X-44.3Y2.6
X-44.3Y1.8
X-44.3Y1.0
X-43.5Y3.2
X-42.7Y3.2
X-41.9Y7.0
X-41.9Y6.2
X-41.9Y5.4
X-41.9Y3.2
X-41.9Y2.6
X-41.9Y1.8
X-41.9Y1.0
X-41.1Y3.2
X-40.3Y3.2
X-39.5Y7.0
X-39.5Y6.2
X-39.5Y5.4
X-39.5Y3.2
X-39.5Y2.6
X-39.5Y1.8
X-39.5Y1.0
X-38.7Y3.2
X-37.9Y3.2
X-37.1Y7.0
X-37.1Y6.2
X-37.1Y5.4
X-37.1Y3.2
X-37.1Y2.6
X-37.1Y1.8
X-37.1Y1.0
X-36.3Y3.2
X-35.5Y7.0
X-35.5Y6.2
X-35.5Y5.4
X-35.5Y2.6
X-35.5Y1.8
X-35.5Y1.0
X-34.7Y7.0
X-34.7Y6.2
X-34.7Y5.4
X-34.7Y2.6
X-34.7Y1.8
X-34.7Y1.0
X-33.9Y7.0
X-33.9Y6.2
X-33.9Y5.4
X-33.9Y3.2
X-33.9Y2.6
X-33.9Y1.8
X-33.9Y1.0
X-33.1Y3.2
X-32.3Y7.0
X-32.3Y6.2
X-32.3Y5.4
X-32.3Y3.2
X-32.3Y2.6
X-32.3Y1.8
X-32.3Y1.0
X-31.5Y3.2
X-30.7Y3.2
X-29.9Y7.0
X-29.9Y6.2
X-29.9Y5.4
X-29.9Y3.2
X-29.9Y2.6
X-29.9Y1.8
X-29.9Y1.0
X-29.1Y3.2
X-28.3Y3.2
X-27.5Y7.0
X-27.5Y6.2
X-27.5Y5.4
X-27.5Y3.2
X-27.5Y2.6
X-27.5Y1.8
X-27.5Y1.0
X-26.7Y3.2
X-25.9Y3.2
X-25.1Y7.0
X-25.1Y6.2
X-25.1Y5.4
X-25.1Y3.2
X-25.1Y2.6
X-25.1Y1.8
X-25.1Y1.0
X-24.3Y3.2
X-23.5Y3.2
X-22.7Y7.0
X-22.7Y6.2
X-22.7Y5.4
X-22.7Y3.2
X-22.7Y2.6
X-22.7Y1.8
X-22.7Y1.0
X-20.3Y7.0
X-20.3Y6.2
X-20.3Y5.4
X-20.3Y3.2
X-20.3Y2.6
X-20.3Y1.8
X-20.3Y1.0
X-17.9Y7.0
X-17.9Y6.2
X-17.9Y5.4
X-17.9Y3.2
X-17.9Y2.6
X-17.9Y1.8
X-17.9Y1.0
T2
X-63.42Y28.19
X-63.42Y23.9
X-61.26Y28.19
X-61.26Y23.9
X-59.1Y28.19
X-59.1Y23.9
X-56.94Y28.19
X-56.94Y23.9
X-54.78Y28.19
X-54.78Y23.9
X-52.62Y28.19
X-52.62Y23.9
X-50.46Y28.19
X-50.46Y23.9
X-48.3Y28.19
X-48.3Y23.9
X-46.14Y28.19
X-46.14Y23.9
X-43.98Y28.19
X-43.98Y23.9
X-41.82Y28.19
X-41.82Y23.9
X-39.66Y28.19
X-39.66Y23.9
X-37.5Y28.19
X-37.5Y23.9
X-35.34Y28.19
X-35.34Y23.9
X-33.18Y28.19
X-33.18Y23.9
X-31.02Y28.19
X-31.02Y23.9
X-28.86Y28.19
X-28.86Y23.9
X-26.7Y28.19
X-26.7Y23.9
X-24.54Y28.19
X-24.54Y23.9
X-22.38Y28.19
X-22.38Y23.9
X-20.22Y28.19
X-20.22Y23.9
X-18.06Y28.19
X-18.06Y23.9
X-15.9Y28.19
X-15.9Y23.9
X-13.74Y28.19
X-13.74Y23.9
X-11.58Y28.19
X-11.58Y23.9
T3
X-72.44Y16.01
X-72.44Y13.47
X-69.9Y14.74
X-69.9Y12.2
T4
X-74.925Y26.045
X-0.075Y26.045
T5
X-71.0Y4.0
X-4.0Y4.0
T6
X-15.4Y4.0
T7
X-59.6Y4.0
T8
X-72.44Y10.87
T9
X-69.9Y17.34
M30
