G04 #@! TF.GenerationSoftware,KiCad,Pcbnew,8.0.6*
G04 #@! TF.CreationDate,2024-11-07T02:26:34-08:00*
G04 #@! TF.ProjectId,hvd-50-ce,6876642d-3530-42d6-9365-2e6b69636164,1*
G04 #@! TF.SameCoordinates,Original*
G04 #@! TF.FileFunction,Copper,L5,Inr*
G04 #@! TF.FilePolarity,Positive*
%FSLAX46Y46*%
G04 Gerber Fmt 4.6, Leading zero omitted, Abs format (unit mm)*
G04 Created by KiCad (PCBNEW 8.0.6) date 2024-11-07 02:26:34*
%MOMM*%
%LPD*%
G01*
G04 APERTURE LIST*
%ADD10C,0.300000*%
G04 #@! TA.AperFunction,NonConductor*
%ADD11C,0.300000*%
G04 #@! TD*
G04 #@! TA.AperFunction,ComponentPad*
%ADD12C,1.600000*%
G04 #@! TD*
G04 #@! TA.AperFunction,ComponentPad*
%ADD13C,4.650000*%
G04 #@! TD*
G04 #@! TA.AperFunction,ComponentPad*
%ADD14C,6.400000*%
G04 #@! TD*
G04 #@! TA.AperFunction,ComponentPad*
%ADD15C,1.850000*%
G04 #@! TD*
G04 #@! TA.AperFunction,ViaPad*
%ADD16C,0.450000*%
G04 #@! TD*
G04 APERTURE END LIST*
D10*
D11*
X-1999172Y15357144D02*
X-1999172Y14642858D01*
X-1999172Y14642858D02*
X-1284886Y14571430D01*
X-1284886Y14571430D02*
X-1356315Y14642858D01*
X-1356315Y14642858D02*
X-1427743Y14785715D01*
X-1427743Y14785715D02*
X-1427743Y15142858D01*
X-1427743Y15142858D02*
X-1356315Y15285715D01*
X-1356315Y15285715D02*
X-1284886Y15357144D01*
X-1284886Y15357144D02*
X-1142029Y15428573D01*
X-1142029Y15428573D02*
X-784886Y15428573D01*
X-784886Y15428573D02*
X-642029Y15357144D01*
X-642029Y15357144D02*
X-570600Y15285715D01*
X-570600Y15285715D02*
X-499172Y15142858D01*
X-499172Y15142858D02*
X-499172Y14785715D01*
X-499172Y14785715D02*
X-570600Y14642858D01*
X-570600Y14642858D02*
X-642029Y14571430D01*
D12*
G04 #@! TO.N,GND*
G04 #@! TO.C,J5*
X-63420000Y23900000D03*
G04 #@! TO.N,/CON.DB0+*
X-61260000Y23900000D03*
G04 #@! TO.N,/CON.DB1+*
X-59100000Y23900000D03*
G04 #@! TO.N,/CON.DB2+*
X-56940000Y23900000D03*
G04 #@! TO.N,/CON.DB3+*
X-54780000Y23900000D03*
G04 #@! TO.N,/CON.DB4+*
X-52620000Y23900000D03*
G04 #@! TO.N,/CON.DB5+*
X-50460000Y23900000D03*
G04 #@! TO.N,/CON.DB6+*
X-48300000Y23900000D03*
G04 #@! TO.N,/CON.DB7+*
X-46140000Y23900000D03*
G04 #@! TO.N,/CON.DP0+*
X-43980000Y23900000D03*
G04 #@! TO.N,/CON.DIFFSENSE*
X-41820000Y23900000D03*
G04 #@! TO.N,GND*
X-39660000Y23900000D03*
G04 #@! TO.N,/CON.TERMPWR*
X-37500000Y23900000D03*
G04 #@! TO.N,GND*
X-35340000Y23900000D03*
G04 #@! TO.N,/CON.ATN+*
X-33180000Y23900000D03*
G04 #@! TO.N,GND*
X-31020000Y23900000D03*
G04 #@! TO.N,/CON.BSY+*
X-28860000Y23900000D03*
G04 #@! TO.N,/CON.ACK+*
X-26700000Y23900000D03*
G04 #@! TO.N,/CON.RST+*
X-24540000Y23900000D03*
G04 #@! TO.N,/CON.MSG+*
X-22380000Y23900000D03*
G04 #@! TO.N,/CON.SEL+*
X-20220000Y23900000D03*
G04 #@! TO.N,/CON.C{slash}D+*
X-18060000Y23900000D03*
G04 #@! TO.N,/CON.REQ+*
X-15900000Y23900000D03*
G04 #@! TO.N,/CON.I{slash}O+*
X-13740000Y23900000D03*
G04 #@! TO.N,GND*
X-11580000Y23900000D03*
X-63420000Y28190000D03*
G04 #@! TO.N,/CON.DB0-*
X-61260000Y28190000D03*
G04 #@! TO.N,/CON.DB1-*
X-59100000Y28190000D03*
G04 #@! TO.N,/CON.DB2-*
X-56940000Y28190000D03*
G04 #@! TO.N,/CON.DB3-*
X-54780000Y28190000D03*
G04 #@! TO.N,/CON.DB4-*
X-52620000Y28190000D03*
G04 #@! TO.N,/CON.DB5-*
X-50460000Y28190000D03*
G04 #@! TO.N,/CON.DB6-*
X-48300000Y28190000D03*
G04 #@! TO.N,/CON.DB7-*
X-46140000Y28190000D03*
G04 #@! TO.N,/CON.DP0-*
X-43980000Y28190000D03*
G04 #@! TO.N,GND*
X-41820000Y28190000D03*
X-39660000Y28190000D03*
G04 #@! TO.N,/CON.TERMPWR*
X-37500000Y28190000D03*
G04 #@! TO.N,GND*
X-35340000Y28190000D03*
G04 #@! TO.N,/CON.ATN-*
X-33180000Y28190000D03*
G04 #@! TO.N,GND*
X-31020000Y28190000D03*
G04 #@! TO.N,/CON.BSY-*
X-28860000Y28190000D03*
G04 #@! TO.N,/CON.ACK-*
X-26700000Y28190000D03*
G04 #@! TO.N,/CON.RST-*
X-24540000Y28190000D03*
G04 #@! TO.N,/CON.MSG-*
X-22380000Y28190000D03*
G04 #@! TO.N,/CON.SEL-*
X-20220000Y28190000D03*
G04 #@! TO.N,/CON.C{slash}D-*
X-18060000Y28190000D03*
G04 #@! TO.N,/CON.REQ-*
X-15900000Y28190000D03*
G04 #@! TO.N,/CON.I{slash}O-*
X-13740000Y28190000D03*
G04 #@! TO.N,GND*
X-11580000Y28190000D03*
D13*
G04 #@! TO.N,Net-(C2-Pad1)*
X-75000Y26045000D03*
X-74925000Y26045000D03*
G04 #@! TD*
D14*
G04 #@! TO.N,GND*
G04 #@! TO.C,H4*
X-4000000Y4000000D03*
G04 #@! TD*
D15*
G04 #@! TO.N,+3V3*
G04 #@! TO.C,J3*
X-72440000Y16010000D03*
G04 #@! TO.N,/PHY.ID_SDA*
X-69900000Y14740000D03*
G04 #@! TO.N,GND*
X-72440000Y13470000D03*
G04 #@! TO.N,/PHY.ID_SCL*
X-69900000Y12200000D03*
G04 #@! TD*
D14*
G04 #@! TO.N,GND*
G04 #@! TO.C,H3*
X-71000000Y4000000D03*
G04 #@! TD*
D16*
G04 #@! TO.N,GND*
X-20300000Y5400000D03*
X-22700000Y1800000D03*
X-49100000Y1800000D03*
X-53900000Y1000000D03*
X-29900000Y2600000D03*
X-39500000Y6200000D03*
X-39500000Y1800000D03*
X-44300000Y7000000D03*
X-49100000Y6200000D03*
X-33900000Y3200000D03*
X-32300000Y3200000D03*
X-64650000Y4000000D03*
X-46700000Y6200000D03*
X-17900000Y3200000D03*
X-51500000Y2600000D03*
X-54700000Y3200000D03*
X-27500000Y2600000D03*
X-39500000Y7000000D03*
X-32300000Y1800000D03*
X-53900000Y5400000D03*
X-20300000Y1800000D03*
X-25100000Y3200000D03*
X-53900000Y2600000D03*
X-37100000Y5400000D03*
X-51500000Y3200000D03*
X-63600000Y4000000D03*
X-25100000Y7000000D03*
X-39500000Y5400000D03*
X-33900000Y1000000D03*
X-27500000Y3200000D03*
X-22700000Y3200000D03*
X-41900000Y1000000D03*
X-64100000Y4500000D03*
X-33900000Y2600000D03*
X-49100000Y2600000D03*
X-33900000Y6200000D03*
X-51500000Y5400000D03*
X-44300000Y6200000D03*
X-27500000Y6200000D03*
X-39500000Y3200000D03*
X-39500000Y1000000D03*
X-25100000Y1800000D03*
X-41900000Y7000000D03*
X-53900000Y7000000D03*
X-41900000Y6200000D03*
X-27500000Y5400000D03*
X-54700000Y6200000D03*
X-29900000Y1000000D03*
X-20300000Y1000000D03*
X-53900000Y1800000D03*
X-51500000Y6200000D03*
X-20300000Y2600000D03*
X-41900000Y3200000D03*
X-22700000Y1000000D03*
X-44300000Y5400000D03*
X-33900000Y1800000D03*
X-32300000Y5400000D03*
X-20300000Y6200000D03*
X-37100000Y6200000D03*
X-25100000Y2600000D03*
X-37100000Y7000000D03*
X-39500000Y2600000D03*
X-29900000Y3200000D03*
X-25100000Y6200000D03*
X-33900000Y7000000D03*
X-51500000Y7000000D03*
X-54700000Y7000000D03*
X-29900000Y7000000D03*
X-44300000Y1800000D03*
X-22700000Y2600000D03*
X-17900000Y5400000D03*
X-49100000Y3200000D03*
X-41900000Y2600000D03*
X-17900000Y7000000D03*
X-44300000Y1000000D03*
X-32300000Y7000000D03*
X-51500000Y1800000D03*
X-54700000Y5400000D03*
X-53900000Y3200000D03*
X-22700000Y6200000D03*
X-57100000Y5400000D03*
X-37100000Y1800000D03*
X-46700000Y1000000D03*
X-25100000Y1000000D03*
X-32300000Y2600000D03*
X-44300000Y2600000D03*
X-46700000Y5400000D03*
X-54700000Y1800000D03*
X-22700000Y7000000D03*
X-46700000Y2600000D03*
X-37100000Y1000000D03*
X-37100000Y2600000D03*
X-51500000Y1000000D03*
X-20300000Y3200000D03*
X-17900000Y1000000D03*
X-20300000Y7000000D03*
X-57100000Y6200000D03*
X-32300000Y1000000D03*
X-33900000Y5400000D03*
X-46700000Y1800000D03*
X-29900000Y5400000D03*
X-27500000Y1800000D03*
X-41900000Y1800000D03*
X-53900000Y6200000D03*
X-41900000Y5400000D03*
X-29900000Y6200000D03*
X-49100000Y5400000D03*
X-54700000Y2600000D03*
X-49100000Y7000000D03*
X-49100000Y1000000D03*
X-37100000Y3200000D03*
X-46700000Y3200000D03*
X-46700000Y7000000D03*
X-29900000Y1800000D03*
X-25100000Y5400000D03*
X-64100000Y3500000D03*
X-32300000Y6200000D03*
X-44300000Y3200000D03*
X-17900000Y6200000D03*
X-27500000Y1000000D03*
X-57100000Y7000000D03*
X-22700000Y5400000D03*
X-17900000Y2600000D03*
X-54700000Y1000000D03*
X-17900000Y1800000D03*
X-27500000Y7000000D03*
X-66050000Y3150000D03*
G04 #@! TO.N,/PHY.ID_SCL*
X-67200000Y12150000D03*
X-63000000Y8500000D03*
G04 #@! TO.N,+3V3*
X-56300000Y1800000D03*
X-67200000Y16500000D03*
X-67200000Y10500000D03*
X-66050000Y4850000D03*
X-56300000Y1000000D03*
X-56300000Y2600000D03*
X-62150000Y4850000D03*
G04 #@! TO.N,/PHY.ID_SDA*
X-67200000Y14750000D03*
X-62400000Y7900000D03*
G04 #@! TO.N,/CON.C{slash}D+*
X-25900000Y3200000D03*
G04 #@! TO.N,/CON.ACK+*
X-30700000Y3200000D03*
G04 #@! TO.N,/CON.TERMPWR*
X-34700000Y1000000D03*
X-35500000Y5400000D03*
X-34700000Y1800000D03*
X-34700000Y2600000D03*
X-34700000Y7000000D03*
X-35500000Y6199999D03*
X-34700000Y6200000D03*
X-35500000Y7000000D03*
X-35500000Y2600000D03*
X-35500000Y1000000D03*
X-35500000Y1800001D03*
X-34700000Y5400000D03*
G04 #@! TO.N,/CON.BSY+*
X-31500000Y3200000D03*
G04 #@! TO.N,/CON.DB5+*
X-41100000Y3200000D03*
G04 #@! TO.N,/CON.DP0+*
X-37900000Y3200000D03*
G04 #@! TO.N,/CON.SEL+*
X-26700000Y3200000D03*
G04 #@! TO.N,/CON.ATN+*
X-33100000Y3200000D03*
G04 #@! TO.N,/CON.DB7+*
X-38700000Y3200000D03*
G04 #@! TO.N,/CON.REQ+*
X-24300000Y3200000D03*
G04 #@! TO.N,/CON.MSG+*
X-28300000Y3200000D03*
G04 #@! TO.N,/CON.DB3+*
X-43500000Y3200000D03*
G04 #@! TO.N,/CON.DIFFSENSE*
X-36300000Y3200000D03*
G04 #@! TO.N,/CON.I{slash}O+*
X-23500000Y3200000D03*
G04 #@! TO.N,/CON.DB4+*
X-42700000Y3200000D03*
G04 #@! TO.N,/CON.RST+*
X-29100000Y3200000D03*
G04 #@! TO.N,/CON.DB6+*
X-40300000Y3200000D03*
G04 #@! TO.N,/CON.DB1+*
X-45900000Y3200000D03*
G04 #@! TO.N,/CON.DB2+*
X-45100000Y3200000D03*
G04 #@! TO.N,/CON.DB0+*
X-47500000Y3200000D03*
G04 #@! TD*
G04 #@! TA.AperFunction,Conductor*
G04 #@! TO.N,GND*
G36*
X2901601Y33799396D02*
G01*
X3131683Y33784315D01*
X3138017Y33783482D01*
X3362609Y33738808D01*
X3368769Y33737158D01*
X3585605Y33663551D01*
X3591517Y33661102D01*
X3796878Y33559829D01*
X3802413Y33556634D01*
X3981014Y33437296D01*
X3992796Y33429423D01*
X3997881Y33425521D01*
X4170024Y33274557D01*
X4174556Y33270025D01*
X4325520Y33097882D01*
X4329422Y33092797D01*
X4456628Y32902422D01*
X4459833Y32896871D01*
X4561099Y32691522D01*
X4563552Y32685601D01*
X4637154Y32468779D01*
X4638809Y32462600D01*
X4683478Y32238036D01*
X4684314Y32231682D01*
X4699395Y32001602D01*
X4699500Y31998397D01*
X4699500Y22701604D01*
X4699395Y22698399D01*
X4684314Y22468319D01*
X4683478Y22461968D01*
X4638810Y22237405D01*
X4637154Y22231222D01*
X4563552Y22014400D01*
X4561099Y22008479D01*
X4459833Y21803130D01*
X4456628Y21797579D01*
X4329422Y21607204D01*
X4325520Y21602119D01*
X4174556Y21429976D01*
X4170024Y21425444D01*
X3997881Y21274480D01*
X3992796Y21270578D01*
X3802421Y21143372D01*
X3796870Y21140167D01*
X3591521Y21038901D01*
X3585600Y21036448D01*
X3368778Y20962846D01*
X3362595Y20961190D01*
X3138032Y20916522D01*
X3131681Y20915686D01*
X2901602Y20900605D01*
X2898397Y20900500D01*
X2039882Y20900500D01*
X2000000Y20900500D01*
X1866894Y20900500D01*
X1655478Y20874830D01*
X1602623Y20868412D01*
X1602619Y20868411D01*
X1344154Y20804705D01*
X1344152Y20804705D01*
X1095240Y20710305D01*
X1095231Y20710301D01*
X859526Y20586594D01*
X859505Y20586582D01*
X640434Y20435367D01*
X640425Y20435360D01*
X441168Y20258832D01*
X264640Y20059575D01*
X264633Y20059566D01*
X113418Y19840495D01*
X113406Y19840474D01*
X-10301Y19604769D01*
X-10305Y19604760D01*
X-104705Y19355848D01*
X-104705Y19355846D01*
X-168411Y19097381D01*
X-168412Y19097377D01*
X-200500Y18833102D01*
X-200500Y17399000D01*
X-214852Y17364352D01*
X-249500Y17350000D01*
X-2500000Y17350000D01*
X-2500000Y8150000D01*
X-249500Y8150000D01*
X-214852Y8135648D01*
X-200500Y8101000D01*
X-200500Y4001204D01*
X-200559Y3998800D01*
X-218678Y3629993D01*
X-219149Y3625207D01*
X-273153Y3261136D01*
X-274091Y3256420D01*
X-363521Y2899399D01*
X-364917Y2894797D01*
X-488913Y2548251D01*
X-490754Y2543809D01*
X-648108Y2211111D01*
X-650374Y2206870D01*
X-839597Y1891172D01*
X-842269Y1887174D01*
X-1061511Y1591560D01*
X-1064561Y1587843D01*
X-1311732Y1315133D01*
X-1315133Y1311732D01*
X-1587843Y1064561D01*
X-1591560Y1061511D01*
X-1887174Y842269D01*
X-1891172Y839597D01*
X-2206870Y650374D01*
X-2211111Y648108D01*
X-2543809Y490754D01*
X-2548251Y488913D01*
X-2894797Y364917D01*
X-2899399Y363521D01*
X-3256420Y274091D01*
X-3261136Y273153D01*
X-3625207Y219149D01*
X-3629993Y218678D01*
X-3998799Y200559D01*
X-4001203Y200500D01*
X-70998797Y200500D01*
X-71001201Y200559D01*
X-71370008Y218678D01*
X-71374794Y219149D01*
X-71738865Y273153D01*
X-71743581Y274091D01*
X-72100602Y363521D01*
X-72105204Y364917D01*
X-72451750Y488913D01*
X-72456192Y490754D01*
X-72788890Y648108D01*
X-72793131Y650374D01*
X-72810149Y660574D01*
X-72894723Y711266D01*
X-73108829Y839597D01*
X-73112827Y842269D01*
X-73325503Y1000000D01*
X-56656894Y1000000D01*
X-56639426Y889714D01*
X-56588733Y790223D01*
X-56509777Y711267D01*
X-56410286Y660574D01*
X-56300000Y643106D01*
X-56189714Y660574D01*
X-56090223Y711267D01*
X-56011267Y790223D01*
X-55960574Y889714D01*
X-55943106Y1000000D01*
X-35856894Y1000000D01*
X-35839426Y889714D01*
X-35788733Y790223D01*
X-35709777Y711267D01*
X-35610286Y660574D01*
X-35500000Y643106D01*
X-35389714Y660574D01*
X-35290223Y711267D01*
X-35211267Y790223D01*
X-35160574Y889714D01*
X-35148397Y966601D01*
X-35128801Y998575D01*
X-35125186Y999443D01*
X-35079463Y999443D01*
X-35060358Y987734D01*
X-35051605Y966602D01*
X-35039426Y889714D01*
X-34988733Y790223D01*
X-34909777Y711267D01*
X-34810286Y660574D01*
X-34700000Y643106D01*
X-34589714Y660574D01*
X-34490223Y711267D01*
X-34411267Y790223D01*
X-34360574Y889714D01*
X-34343106Y1000000D01*
X-34360574Y1110286D01*
X-34411267Y1209777D01*
X-34490223Y1288733D01*
X-34490226Y1288735D01*
X-34589714Y1339426D01*
X-34666601Y1351604D01*
X-34698575Y1371199D01*
X-34700559Y1379463D01*
X-34712267Y1360358D01*
X-34733400Y1351604D01*
X-34792274Y1342279D01*
X-34810287Y1339426D01*
X-34909775Y1288735D01*
X-34909778Y1288733D01*
X-34988733Y1209778D01*
X-34988735Y1209775D01*
X-35039426Y1110287D01*
X-35039426Y1110286D01*
X-35051604Y1033401D01*
X-35071199Y1001426D01*
X-35079463Y999443D01*
X-35125186Y999443D01*
X-35120538Y1000559D01*
X-35139642Y1012267D01*
X-35148397Y1033400D01*
X-35160574Y1110286D01*
X-35211267Y1209777D01*
X-35290223Y1288733D01*
X-35290226Y1288735D01*
X-35389714Y1339426D01*
X-35466603Y1351605D01*
X-35498578Y1371200D01*
X-35500561Y1379458D01*
X-35512264Y1360359D01*
X-35533399Y1351604D01*
X-35610287Y1339426D01*
X-35709775Y1288735D01*
X-35709778Y1288733D01*
X-35788733Y1209778D01*
X-35788735Y1209775D01*
X-35839426Y1110287D01*
X-35839426Y1110286D01*
X-35856894Y1000000D01*
X-55943106Y1000000D01*
X-55960574Y1110286D01*
X-56011267Y1209777D01*
X-56090223Y1288733D01*
X-56090226Y1288735D01*
X-56189714Y1339426D01*
X-56266601Y1351604D01*
X-56298575Y1371199D01*
X-56300559Y1379463D01*
X-56312267Y1360358D01*
X-56333400Y1351604D01*
X-56392274Y1342279D01*
X-56410287Y1339426D01*
X-56509775Y1288735D01*
X-56509778Y1288733D01*
X-56588733Y1209778D01*
X-56588735Y1209775D01*
X-56639426Y1110287D01*
X-56639426Y1110286D01*
X-56656894Y1000000D01*
X-73325503Y1000000D01*
X-73408441Y1061511D01*
X-73412158Y1064561D01*
X-73684868Y1311732D01*
X-73688269Y1315133D01*
X-73935440Y1587843D01*
X-73938490Y1591560D01*
X-74011287Y1689715D01*
X-74092023Y1798575D01*
X-74093080Y1800000D01*
X-56656894Y1800000D01*
X-56639426Y1689714D01*
X-56588736Y1590227D01*
X-56588733Y1590223D01*
X-56509777Y1511267D01*
X-56410286Y1460574D01*
X-56333401Y1448397D01*
X-56301426Y1428801D01*
X-56299443Y1420538D01*
X-56287734Y1439642D01*
X-56266602Y1448396D01*
X-56189714Y1460574D01*
X-56090223Y1511267D01*
X-56011267Y1590223D01*
X-55960574Y1689714D01*
X-55943106Y1800000D01*
X-55943106Y1800001D01*
X-35856894Y1800001D01*
X-35839426Y1689715D01*
X-35805744Y1623609D01*
X-35788733Y1590224D01*
X-35709777Y1511268D01*
X-35610286Y1460575D01*
X-35533399Y1448397D01*
X-35501423Y1428802D01*
X-35499441Y1420546D01*
X-35487737Y1439643D01*
X-35466605Y1448397D01*
X-35389714Y1460575D01*
X-35290223Y1511268D01*
X-35211267Y1590224D01*
X-35160574Y1689715D01*
X-35148397Y1766601D01*
X-35128803Y1798575D01*
X-35125188Y1799443D01*
X-35079465Y1799443D01*
X-35060359Y1787735D01*
X-35051604Y1766599D01*
X-35039426Y1689714D01*
X-34988736Y1590227D01*
X-34988733Y1590223D01*
X-34909777Y1511267D01*
X-34810286Y1460574D01*
X-34733401Y1448397D01*
X-34701426Y1428801D01*
X-34699443Y1420538D01*
X-34687734Y1439642D01*
X-34666602Y1448396D01*
X-34589714Y1460574D01*
X-34490223Y1511267D01*
X-34411267Y1590223D01*
X-34360574Y1689714D01*
X-34343106Y1800000D01*
X-34360574Y1910286D01*
X-34411267Y2009777D01*
X-34490223Y2088733D01*
X-34490225Y2088734D01*
X-34490226Y2088735D01*
X-34589714Y2139426D01*
X-34589720Y2139427D01*
X-34666601Y2151604D01*
X-34698575Y2171199D01*
X-34700559Y2179463D01*
X-34712267Y2160358D01*
X-34733400Y2151604D01*
X-34792274Y2142279D01*
X-34810287Y2139426D01*
X-34909775Y2088735D01*
X-34909778Y2088733D01*
X-34988733Y2009778D01*
X-34988735Y2009775D01*
X-35039426Y1910287D01*
X-35051603Y1833403D01*
X-35071199Y1801427D01*
X-35079465Y1799443D01*
X-35125188Y1799443D01*
X-35120537Y1800560D01*
X-35139642Y1812268D01*
X-35148397Y1833401D01*
X-35160574Y1910287D01*
X-35211267Y2009778D01*
X-35290223Y2088734D01*
X-35290225Y2088735D01*
X-35290226Y2088736D01*
X-35389714Y2139427D01*
X-35466597Y2151605D01*
X-35498572Y2171200D01*
X-35500558Y2179472D01*
X-35512270Y2160359D01*
X-35533405Y2151605D01*
X-35549668Y2149029D01*
X-35610287Y2139427D01*
X-35709775Y2088736D01*
X-35709778Y2088734D01*
X-35788733Y2009779D01*
X-35788735Y2009776D01*
X-35839426Y1910288D01*
X-35856894Y1800001D01*
X-55943106Y1800001D01*
X-55960574Y1910286D01*
X-56011267Y2009777D01*
X-56090223Y2088733D01*
X-56090225Y2088734D01*
X-56090226Y2088735D01*
X-56189714Y2139426D01*
X-56189720Y2139427D01*
X-56266601Y2151604D01*
X-56298575Y2171199D01*
X-56300559Y2179463D01*
X-56312267Y2160358D01*
X-56333400Y2151604D01*
X-56392274Y2142279D01*
X-56410287Y2139426D01*
X-56509775Y2088735D01*
X-56509778Y2088733D01*
X-56588733Y2009778D01*
X-56588735Y2009775D01*
X-56639426Y1910287D01*
X-56656894Y1800000D01*
X-74093080Y1800000D01*
X-74157732Y1887174D01*
X-74160404Y1891172D01*
X-74278818Y2088733D01*
X-74349632Y2206878D01*
X-74351889Y2211103D01*
X-74509251Y2543817D01*
X-74511088Y2548251D01*
X-74529405Y2599443D01*
X-74529604Y2600000D01*
X-56656894Y2600000D01*
X-56639426Y2489714D01*
X-56588733Y2390223D01*
X-56509777Y2311267D01*
X-56410286Y2260574D01*
X-56333401Y2248397D01*
X-56301426Y2228801D01*
X-56299443Y2220538D01*
X-56287734Y2239642D01*
X-56266602Y2248396D01*
X-56189714Y2260574D01*
X-56090223Y2311267D01*
X-56011267Y2390223D01*
X-55960574Y2489714D01*
X-55943106Y2600000D01*
X-35856894Y2600000D01*
X-35839426Y2489714D01*
X-35788733Y2390223D01*
X-35709777Y2311267D01*
X-35610286Y2260574D01*
X-35533405Y2248397D01*
X-35501429Y2228802D01*
X-35499444Y2220532D01*
X-35487731Y2239643D01*
X-35466600Y2248397D01*
X-35389714Y2260574D01*
X-35290223Y2311267D01*
X-35211267Y2390223D01*
X-35160574Y2489714D01*
X-35148397Y2566601D01*
X-35128801Y2598575D01*
X-35125186Y2599443D01*
X-35079463Y2599443D01*
X-35060358Y2587734D01*
X-35051605Y2566602D01*
X-35039426Y2489714D01*
X-34988733Y2390223D01*
X-34909777Y2311267D01*
X-34810286Y2260574D01*
X-34733401Y2248397D01*
X-34701426Y2228801D01*
X-34699443Y2220538D01*
X-34687734Y2239642D01*
X-34666602Y2248396D01*
X-34589714Y2260574D01*
X-34490223Y2311267D01*
X-34411267Y2390223D01*
X-34360574Y2489714D01*
X-34343106Y2600000D01*
X-34360574Y2710286D01*
X-34411267Y2809777D01*
X-34490223Y2888733D01*
X-34490226Y2888735D01*
X-34589714Y2939426D01*
X-34700000Y2956894D01*
X-34810287Y2939426D01*
X-34909775Y2888735D01*
X-34909778Y2888733D01*
X-34988733Y2809778D01*
X-34988735Y2809775D01*
X-35039426Y2710287D01*
X-35039426Y2710286D01*
X-35051604Y2633401D01*
X-35071199Y2601426D01*
X-35079463Y2599443D01*
X-35125186Y2599443D01*
X-35120538Y2600559D01*
X-35139642Y2612267D01*
X-35148397Y2633400D01*
X-35160574Y2710286D01*
X-35211267Y2809777D01*
X-35290223Y2888733D01*
X-35290226Y2888735D01*
X-35389714Y2939426D01*
X-35500000Y2956894D01*
X-35610287Y2939426D01*
X-35709775Y2888735D01*
X-35709778Y2888733D01*
X-35788733Y2809778D01*
X-35788735Y2809775D01*
X-35839426Y2710287D01*
X-35839426Y2710286D01*
X-35856894Y2600000D01*
X-55943106Y2600000D01*
X-55960574Y2710286D01*
X-56011267Y2809777D01*
X-56090223Y2888733D01*
X-56090226Y2888735D01*
X-56189714Y2939426D01*
X-56300000Y2956894D01*
X-56410287Y2939426D01*
X-56509775Y2888735D01*
X-56509778Y2888733D01*
X-56588733Y2809778D01*
X-56588735Y2809775D01*
X-56639426Y2710287D01*
X-56639426Y2710286D01*
X-56656894Y2600000D01*
X-74529604Y2600000D01*
X-74635084Y2894797D01*
X-74636480Y2899399D01*
X-74684152Y3089714D01*
X-74711777Y3200000D01*
X-47856894Y3200000D01*
X-47839426Y3089714D01*
X-47788733Y2990223D01*
X-47709777Y2911267D01*
X-47610286Y2860574D01*
X-47500000Y2843106D01*
X-47389714Y2860574D01*
X-47290223Y2911267D01*
X-47211267Y2990223D01*
X-47160574Y3089714D01*
X-47143106Y3200000D01*
X-46256894Y3200000D01*
X-46239426Y3089714D01*
X-46188733Y2990223D01*
X-46109777Y2911267D01*
X-46010286Y2860574D01*
X-45900000Y2843106D01*
X-45789714Y2860574D01*
X-45690223Y2911267D01*
X-45611267Y2990223D01*
X-45560574Y3089714D01*
X-45548397Y3166601D01*
X-45528801Y3198575D01*
X-45525186Y3199443D01*
X-45479463Y3199443D01*
X-45460358Y3187734D01*
X-45451605Y3166602D01*
X-45439426Y3089714D01*
X-45388733Y2990223D01*
X-45309777Y2911267D01*
X-45210286Y2860574D01*
X-45100000Y2843106D01*
X-44989714Y2860574D01*
X-44890223Y2911267D01*
X-44811267Y2990223D01*
X-44760574Y3089714D01*
X-44743106Y3200000D01*
X-43856894Y3200000D01*
X-43839426Y3089714D01*
X-43788733Y2990223D01*
X-43709777Y2911267D01*
X-43610286Y2860574D01*
X-43500000Y2843106D01*
X-43389714Y2860574D01*
X-43290223Y2911267D01*
X-43211267Y2990223D01*
X-43160574Y3089714D01*
X-43148397Y3166601D01*
X-43128801Y3198575D01*
X-43125186Y3199443D01*
X-43079463Y3199443D01*
X-43060358Y3187734D01*
X-43051605Y3166602D01*
X-43039426Y3089714D01*
X-42988733Y2990223D01*
X-42909777Y2911267D01*
X-42810286Y2860574D01*
X-42700000Y2843106D01*
X-42589714Y2860574D01*
X-42490223Y2911267D01*
X-42411267Y2990223D01*
X-42360574Y3089714D01*
X-42343106Y3200000D01*
X-41456894Y3200000D01*
X-41439426Y3089714D01*
X-41388733Y2990223D01*
X-41309777Y2911267D01*
X-41210286Y2860574D01*
X-41100000Y2843106D01*
X-40989714Y2860574D01*
X-40890223Y2911267D01*
X-40811267Y2990223D01*
X-40760574Y3089714D01*
X-40748397Y3166601D01*
X-40728801Y3198575D01*
X-40725186Y3199443D01*
X-40679463Y3199443D01*
X-40660358Y3187734D01*
X-40651605Y3166602D01*
X-40639426Y3089714D01*
X-40588733Y2990223D01*
X-40509777Y2911267D01*
X-40410286Y2860574D01*
X-40300000Y2843106D01*
X-40189714Y2860574D01*
X-40090223Y2911267D01*
X-40011267Y2990223D01*
X-39960574Y3089714D01*
X-39943106Y3200000D01*
X-39056894Y3200000D01*
X-39039426Y3089714D01*
X-38988733Y2990223D01*
X-38909777Y2911267D01*
X-38810286Y2860574D01*
X-38700000Y2843106D01*
X-38589714Y2860574D01*
X-38490223Y2911267D01*
X-38411267Y2990223D01*
X-38360574Y3089714D01*
X-38348397Y3166601D01*
X-38328801Y3198575D01*
X-38325186Y3199443D01*
X-38279463Y3199443D01*
X-38260358Y3187734D01*
X-38251605Y3166602D01*
X-38239426Y3089714D01*
X-38188733Y2990223D01*
X-38109777Y2911267D01*
X-38010286Y2860574D01*
X-37900000Y2843106D01*
X-37789714Y2860574D01*
X-37690223Y2911267D01*
X-37611267Y2990223D01*
X-37560574Y3089714D01*
X-37543106Y3200000D01*
X-36656894Y3200000D01*
X-36639426Y3089714D01*
X-36588733Y2990223D01*
X-36509777Y2911267D01*
X-36410286Y2860574D01*
X-36300000Y2843106D01*
X-36189714Y2860574D01*
X-36090223Y2911267D01*
X-36011267Y2990223D01*
X-35960574Y3089714D01*
X-35943106Y3200000D01*
X-33456894Y3200000D01*
X-33439426Y3089714D01*
X-33388733Y2990223D01*
X-33309777Y2911267D01*
X-33210286Y2860574D01*
X-33100000Y2843106D01*
X-32989714Y2860574D01*
X-32890223Y2911267D01*
X-32811267Y2990223D01*
X-32760574Y3089714D01*
X-32743106Y3200000D01*
X-31856894Y3200000D01*
X-31839426Y3089714D01*
X-31788733Y2990223D01*
X-31709777Y2911267D01*
X-31610286Y2860574D01*
X-31500000Y2843106D01*
X-31389714Y2860574D01*
X-31290223Y2911267D01*
X-31211267Y2990223D01*
X-31160574Y3089714D01*
X-31148397Y3166601D01*
X-31128801Y3198575D01*
X-31125186Y3199443D01*
X-31079463Y3199443D01*
X-31060358Y3187734D01*
X-31051605Y3166602D01*
X-31039426Y3089714D01*
X-30988733Y2990223D01*
X-30909777Y2911267D01*
X-30810286Y2860574D01*
X-30700000Y2843106D01*
X-30589714Y2860574D01*
X-30490223Y2911267D01*
X-30411267Y2990223D01*
X-30360574Y3089714D01*
X-30343106Y3200000D01*
X-29456894Y3200000D01*
X-29439426Y3089714D01*
X-29388733Y2990223D01*
X-29309777Y2911267D01*
X-29210286Y2860574D01*
X-29100000Y2843106D01*
X-28989714Y2860574D01*
X-28890223Y2911267D01*
X-28811267Y2990223D01*
X-28760574Y3089714D01*
X-28748397Y3166601D01*
X-28728801Y3198575D01*
X-28725186Y3199443D01*
X-28679463Y3199443D01*
X-28660358Y3187734D01*
X-28651605Y3166602D01*
X-28639426Y3089714D01*
X-28588733Y2990223D01*
X-28509777Y2911267D01*
X-28410286Y2860574D01*
X-28300000Y2843106D01*
X-28189714Y2860574D01*
X-28090223Y2911267D01*
X-28011267Y2990223D01*
X-27960574Y3089714D01*
X-27943106Y3200000D01*
X-27056894Y3200000D01*
X-27039426Y3089714D01*
X-26988733Y2990223D01*
X-26909777Y2911267D01*
X-26810286Y2860574D01*
X-26700000Y2843106D01*
X-26589714Y2860574D01*
X-26490223Y2911267D01*
X-26411267Y2990223D01*
X-26360574Y3089714D01*
X-26348397Y3166601D01*
X-26328801Y3198575D01*
X-26325186Y3199443D01*
X-26279463Y3199443D01*
X-26260358Y3187734D01*
X-26251605Y3166602D01*
X-26239426Y3089714D01*
X-26188733Y2990223D01*
X-26109777Y2911267D01*
X-26010286Y2860574D01*
X-25900000Y2843106D01*
X-25789714Y2860574D01*
X-25690223Y2911267D01*
X-25611267Y2990223D01*
X-25560574Y3089714D01*
X-25543106Y3200000D01*
X-24656894Y3200000D01*
X-24639426Y3089714D01*
X-24588733Y2990223D01*
X-24509777Y2911267D01*
X-24410286Y2860574D01*
X-24300000Y2843106D01*
X-24189714Y2860574D01*
X-24090223Y2911267D01*
X-24011267Y2990223D01*
X-23960574Y3089714D01*
X-23948397Y3166601D01*
X-23928801Y3198575D01*
X-23925186Y3199443D01*
X-23879463Y3199443D01*
X-23860358Y3187734D01*
X-23851605Y3166602D01*
X-23839426Y3089714D01*
X-23788733Y2990223D01*
X-23709777Y2911267D01*
X-23610286Y2860574D01*
X-23500000Y2843106D01*
X-23389714Y2860574D01*
X-23290223Y2911267D01*
X-23211267Y2990223D01*
X-23160574Y3089714D01*
X-23143106Y3200000D01*
X-23160574Y3310286D01*
X-23211267Y3409777D01*
X-23290223Y3488733D01*
X-23290226Y3488735D01*
X-23389714Y3539426D01*
X-23500000Y3556894D01*
X-23610287Y3539426D01*
X-23709775Y3488735D01*
X-23709778Y3488733D01*
X-23788733Y3409778D01*
X-23788735Y3409775D01*
X-23839426Y3310287D01*
X-23840983Y3300457D01*
X-23851604Y3233401D01*
X-23871199Y3201426D01*
X-23879463Y3199443D01*
X-23925186Y3199443D01*
X-23920538Y3200559D01*
X-23939642Y3212267D01*
X-23948397Y3233400D01*
X-23960574Y3310286D01*
X-24011267Y3409777D01*
X-24090223Y3488733D01*
X-24090226Y3488735D01*
X-24189714Y3539426D01*
X-24300000Y3556894D01*
X-24410287Y3539426D01*
X-24509775Y3488735D01*
X-24509778Y3488733D01*
X-24588733Y3409778D01*
X-24588735Y3409775D01*
X-24639426Y3310287D01*
X-24640983Y3300457D01*
X-24656894Y3200000D01*
X-25543106Y3200000D01*
X-25560574Y3310286D01*
X-25611267Y3409777D01*
X-25690223Y3488733D01*
X-25690226Y3488735D01*
X-25789714Y3539426D01*
X-25900000Y3556894D01*
X-26010287Y3539426D01*
X-26109775Y3488735D01*
X-26109778Y3488733D01*
X-26188733Y3409778D01*
X-26188735Y3409775D01*
X-26239426Y3310287D01*
X-26240983Y3300457D01*
X-26251604Y3233401D01*
X-26271199Y3201426D01*
X-26279463Y3199443D01*
X-26325186Y3199443D01*
X-26320538Y3200559D01*
X-26339642Y3212267D01*
X-26348397Y3233400D01*
X-26360574Y3310286D01*
X-26411267Y3409777D01*
X-26490223Y3488733D01*
X-26490226Y3488735D01*
X-26589714Y3539426D01*
X-26700000Y3556894D01*
X-26810287Y3539426D01*
X-26909775Y3488735D01*
X-26909778Y3488733D01*
X-26988733Y3409778D01*
X-26988735Y3409775D01*
X-27039426Y3310287D01*
X-27040983Y3300457D01*
X-27056894Y3200000D01*
X-27943106Y3200000D01*
X-27960574Y3310286D01*
X-28011267Y3409777D01*
X-28090223Y3488733D01*
X-28090226Y3488735D01*
X-28189714Y3539426D01*
X-28300000Y3556894D01*
X-28410287Y3539426D01*
X-28509775Y3488735D01*
X-28509778Y3488733D01*
X-28588733Y3409778D01*
X-28588735Y3409775D01*
X-28639426Y3310287D01*
X-28640983Y3300457D01*
X-28651604Y3233401D01*
X-28671199Y3201426D01*
X-28679463Y3199443D01*
X-28725186Y3199443D01*
X-28720538Y3200559D01*
X-28739642Y3212267D01*
X-28748397Y3233400D01*
X-28760574Y3310286D01*
X-28811267Y3409777D01*
X-28890223Y3488733D01*
X-28890226Y3488735D01*
X-28989714Y3539426D01*
X-29100000Y3556894D01*
X-29210287Y3539426D01*
X-29309775Y3488735D01*
X-29309778Y3488733D01*
X-29388733Y3409778D01*
X-29388735Y3409775D01*
X-29439426Y3310287D01*
X-29440983Y3300457D01*
X-29456894Y3200000D01*
X-30343106Y3200000D01*
X-30360574Y3310286D01*
X-30411267Y3409777D01*
X-30490223Y3488733D01*
X-30490226Y3488735D01*
X-30589714Y3539426D01*
X-30700000Y3556894D01*
X-30810287Y3539426D01*
X-30909775Y3488735D01*
X-30909778Y3488733D01*
X-30988733Y3409778D01*
X-30988735Y3409775D01*
X-31039426Y3310287D01*
X-31040983Y3300457D01*
X-31051604Y3233401D01*
X-31071199Y3201426D01*
X-31079463Y3199443D01*
X-31125186Y3199443D01*
X-31120538Y3200559D01*
X-31139642Y3212267D01*
X-31148397Y3233400D01*
X-31160574Y3310286D01*
X-31211267Y3409777D01*
X-31290223Y3488733D01*
X-31290226Y3488735D01*
X-31389714Y3539426D01*
X-31500000Y3556894D01*
X-31610287Y3539426D01*
X-31709775Y3488735D01*
X-31709778Y3488733D01*
X-31788733Y3409778D01*
X-31788735Y3409775D01*
X-31839426Y3310287D01*
X-31840983Y3300457D01*
X-31856894Y3200000D01*
X-32743106Y3200000D01*
X-32760574Y3310286D01*
X-32811267Y3409777D01*
X-32890223Y3488733D01*
X-32890226Y3488735D01*
X-32989714Y3539426D01*
X-33100000Y3556894D01*
X-33210287Y3539426D01*
X-33309775Y3488735D01*
X-33309778Y3488733D01*
X-33388733Y3409778D01*
X-33388735Y3409775D01*
X-33439426Y3310287D01*
X-33440983Y3300457D01*
X-33456894Y3200000D01*
X-35943106Y3200000D01*
X-35960574Y3310286D01*
X-36011267Y3409777D01*
X-36090223Y3488733D01*
X-36090226Y3488735D01*
X-36189714Y3539426D01*
X-36300000Y3556894D01*
X-36410287Y3539426D01*
X-36509775Y3488735D01*
X-36509778Y3488733D01*
X-36588733Y3409778D01*
X-36588735Y3409775D01*
X-36639426Y3310287D01*
X-36640983Y3300457D01*
X-36656894Y3200000D01*
X-37543106Y3200000D01*
X-37560574Y3310286D01*
X-37611267Y3409777D01*
X-37690223Y3488733D01*
X-37690226Y3488735D01*
X-37789714Y3539426D01*
X-37900000Y3556894D01*
X-38010287Y3539426D01*
X-38109775Y3488735D01*
X-38109778Y3488733D01*
X-38188733Y3409778D01*
X-38188735Y3409775D01*
X-38239426Y3310287D01*
X-38240983Y3300457D01*
X-38251604Y3233401D01*
X-38271199Y3201426D01*
X-38279463Y3199443D01*
X-38325186Y3199443D01*
X-38320538Y3200559D01*
X-38339642Y3212267D01*
X-38348397Y3233400D01*
X-38360574Y3310286D01*
X-38411267Y3409777D01*
X-38490223Y3488733D01*
X-38490226Y3488735D01*
X-38589714Y3539426D01*
X-38700000Y3556894D01*
X-38810287Y3539426D01*
X-38909775Y3488735D01*
X-38909778Y3488733D01*
X-38988733Y3409778D01*
X-38988735Y3409775D01*
X-39039426Y3310287D01*
X-39040983Y3300457D01*
X-39056894Y3200000D01*
X-39943106Y3200000D01*
X-39960574Y3310286D01*
X-40011267Y3409777D01*
X-40090223Y3488733D01*
X-40090226Y3488735D01*
X-40189714Y3539426D01*
X-40300000Y3556894D01*
X-40410287Y3539426D01*
X-40509775Y3488735D01*
X-40509778Y3488733D01*
X-40588733Y3409778D01*
X-40588735Y3409775D01*
X-40639426Y3310287D01*
X-40640983Y3300457D01*
X-40651604Y3233401D01*
X-40671199Y3201426D01*
X-40679463Y3199443D01*
X-40725186Y3199443D01*
X-40720538Y3200559D01*
X-40739642Y3212267D01*
X-40748397Y3233400D01*
X-40760574Y3310286D01*
X-40811267Y3409777D01*
X-40890223Y3488733D01*
X-40890226Y3488735D01*
X-40989714Y3539426D01*
X-41100000Y3556894D01*
X-41210287Y3539426D01*
X-41309775Y3488735D01*
X-41309778Y3488733D01*
X-41388733Y3409778D01*
X-41388735Y3409775D01*
X-41439426Y3310287D01*
X-41440983Y3300457D01*
X-41456894Y3200000D01*
X-42343106Y3200000D01*
X-42360574Y3310286D01*
X-42411267Y3409777D01*
X-42490223Y3488733D01*
X-42490226Y3488735D01*
X-42589714Y3539426D01*
X-42700000Y3556894D01*
X-42810287Y3539426D01*
X-42909775Y3488735D01*
X-42909778Y3488733D01*
X-42988733Y3409778D01*
X-42988735Y3409775D01*
X-43039426Y3310287D01*
X-43040983Y3300457D01*
X-43051604Y3233401D01*
X-43071199Y3201426D01*
X-43079463Y3199443D01*
X-43125186Y3199443D01*
X-43120538Y3200559D01*
X-43139642Y3212267D01*
X-43148397Y3233400D01*
X-43160574Y3310286D01*
X-43211267Y3409777D01*
X-43290223Y3488733D01*
X-43290226Y3488735D01*
X-43389714Y3539426D01*
X-43500000Y3556894D01*
X-43610287Y3539426D01*
X-43709775Y3488735D01*
X-43709778Y3488733D01*
X-43788733Y3409778D01*
X-43788735Y3409775D01*
X-43839426Y3310287D01*
X-43840983Y3300457D01*
X-43856894Y3200000D01*
X-44743106Y3200000D01*
X-44760574Y3310286D01*
X-44811267Y3409777D01*
X-44890223Y3488733D01*
X-44890226Y3488735D01*
X-44989714Y3539426D01*
X-45100000Y3556894D01*
X-45210287Y3539426D01*
X-45309775Y3488735D01*
X-45309778Y3488733D01*
X-45388733Y3409778D01*
X-45388735Y3409775D01*
X-45439426Y3310287D01*
X-45440983Y3300457D01*
X-45451604Y3233401D01*
X-45471199Y3201426D01*
X-45479463Y3199443D01*
X-45525186Y3199443D01*
X-45520538Y3200559D01*
X-45539642Y3212267D01*
X-45548397Y3233400D01*
X-45560574Y3310286D01*
X-45611267Y3409777D01*
X-45690223Y3488733D01*
X-45690226Y3488735D01*
X-45789714Y3539426D01*
X-45900000Y3556894D01*
X-46010287Y3539426D01*
X-46109775Y3488735D01*
X-46109778Y3488733D01*
X-46188733Y3409778D01*
X-46188735Y3409775D01*
X-46239426Y3310287D01*
X-46240983Y3300457D01*
X-46256894Y3200000D01*
X-47143106Y3200000D01*
X-47160574Y3310286D01*
X-47211267Y3409777D01*
X-47290223Y3488733D01*
X-47290226Y3488735D01*
X-47389714Y3539426D01*
X-47500000Y3556894D01*
X-47610287Y3539426D01*
X-47709775Y3488735D01*
X-47709778Y3488733D01*
X-47788733Y3409778D01*
X-47788735Y3409775D01*
X-47839426Y3310287D01*
X-47840983Y3300457D01*
X-47856894Y3200000D01*
X-74711777Y3200000D01*
X-74725913Y3256433D01*
X-74726846Y3261123D01*
X-74780854Y3625219D01*
X-74781322Y3629980D01*
X-74799441Y3998800D01*
X-74799500Y4001204D01*
X-74799500Y4071652D01*
X-60327500Y4071652D01*
X-60327500Y3928348D01*
X-60308948Y3835077D01*
X-60299544Y3787799D01*
X-60299542Y3787793D01*
X-60253280Y3676107D01*
X-60244702Y3655400D01*
X-60165086Y3536246D01*
X-60063754Y3434914D01*
X-59944600Y3355298D01*
X-59812204Y3300457D01*
X-59671652Y3272500D01*
X-59671649Y3272500D01*
X-59528351Y3272500D01*
X-59528348Y3272500D01*
X-59387796Y3300457D01*
X-59255400Y3355298D01*
X-59136246Y3434914D01*
X-59034914Y3536246D01*
X-58955298Y3655400D01*
X-58900457Y3787796D01*
X-58872500Y3928348D01*
X-58872500Y4069451D01*
X-15927500Y4069451D01*
X-15927500Y3930550D01*
X-15891553Y3796395D01*
X-15891552Y3796391D01*
X-15822105Y3676107D01*
X-15723893Y3577895D01*
X-15687518Y3556894D01*
X-15603610Y3508449D01*
X-15603608Y3508449D01*
X-15603607Y3508448D01*
X-15530037Y3488735D01*
X-15469451Y3472501D01*
X-15469450Y3472500D01*
X-15469447Y3472500D01*
X-15330550Y3472500D01*
X-15330550Y3472501D01*
X-15196393Y3508448D01*
X-15076107Y3577895D01*
X-14977895Y3676107D01*
X-14908448Y3796393D01*
X-14872501Y3930550D01*
X-14872500Y3930550D01*
X-14872500Y4069450D01*
X-14872501Y4069451D01*
X-14908448Y4203606D01*
X-14908449Y4203610D01*
X-14977896Y4323894D01*
X-15076107Y4422105D01*
X-15196391Y4491552D01*
X-15196395Y4491553D01*
X-15330550Y4527500D01*
X-15330553Y4527500D01*
X-15469447Y4527500D01*
X-15469450Y4527500D01*
X-15603606Y4491553D01*
X-15603610Y4491552D01*
X-15723894Y4422105D01*
X-15723894Y4422104D01*
X-15822104Y4323894D01*
X-15822105Y4323894D01*
X-15891552Y4203610D01*
X-15891553Y4203606D01*
X-15927500Y4069451D01*
X-58872500Y4069451D01*
X-58872500Y4071652D01*
X-58900457Y4212204D01*
X-58955298Y4344600D01*
X-59034914Y4463754D01*
X-59136246Y4565086D01*
X-59255400Y4644702D01*
X-59255403Y4644704D01*
X-59255404Y4644704D01*
X-59387793Y4699542D01*
X-59387799Y4699544D01*
X-59444480Y4710818D01*
X-59528348Y4727500D01*
X-59671652Y4727500D01*
X-59741606Y4713586D01*
X-59812202Y4699544D01*
X-59812208Y4699542D01*
X-59944597Y4644704D01*
X-60063754Y4565087D01*
X-60165087Y4463754D01*
X-60244704Y4344597D01*
X-60299542Y4212208D01*
X-60299544Y4212202D01*
X-60313586Y4141606D01*
X-60327500Y4071652D01*
X-74799500Y4071652D01*
X-74799500Y4850000D01*
X-66406894Y4850000D01*
X-66389426Y4739714D01*
X-66341016Y4644702D01*
X-66338733Y4640223D01*
X-66259777Y4561267D01*
X-66160286Y4510574D01*
X-66050000Y4493106D01*
X-65939714Y4510574D01*
X-65840223Y4561267D01*
X-65761267Y4640223D01*
X-65710574Y4739714D01*
X-65693106Y4850000D01*
X-62506894Y4850000D01*
X-62489426Y4739714D01*
X-62441016Y4644702D01*
X-62438733Y4640223D01*
X-62359777Y4561267D01*
X-62260286Y4510574D01*
X-62150000Y4493106D01*
X-62039714Y4510574D01*
X-61940223Y4561267D01*
X-61861267Y4640223D01*
X-61810574Y4739714D01*
X-61793106Y4850000D01*
X-61810574Y4960286D01*
X-61861267Y5059777D01*
X-61940223Y5138733D01*
X-61940226Y5138735D01*
X-62039714Y5189426D01*
X-62150000Y5206894D01*
X-62260287Y5189426D01*
X-62359775Y5138735D01*
X-62359778Y5138733D01*
X-62438733Y5059778D01*
X-62438735Y5059775D01*
X-62489426Y4960287D01*
X-62506894Y4850000D01*
X-65693106Y4850000D01*
X-65710574Y4960286D01*
X-65761267Y5059777D01*
X-65840223Y5138733D01*
X-65840226Y5138735D01*
X-65939714Y5189426D01*
X-66050000Y5206894D01*
X-66160287Y5189426D01*
X-66259775Y5138735D01*
X-66259778Y5138733D01*
X-66338733Y5059778D01*
X-66338735Y5059775D01*
X-66389426Y4960287D01*
X-66406894Y4850000D01*
X-74799500Y4850000D01*
X-74799500Y5400000D01*
X-35856894Y5400000D01*
X-35839426Y5289714D01*
X-35797228Y5206894D01*
X-35788733Y5190223D01*
X-35709777Y5111267D01*
X-35610286Y5060574D01*
X-35500000Y5043106D01*
X-35389714Y5060574D01*
X-35290223Y5111267D01*
X-35211267Y5190223D01*
X-35160574Y5289714D01*
X-35148397Y5366601D01*
X-35128801Y5398575D01*
X-35125186Y5399443D01*
X-35079463Y5399443D01*
X-35060358Y5387734D01*
X-35051605Y5366602D01*
X-35039426Y5289714D01*
X-34997228Y5206894D01*
X-34988733Y5190223D01*
X-34909777Y5111267D01*
X-34810286Y5060574D01*
X-34700000Y5043106D01*
X-34589714Y5060574D01*
X-34490223Y5111267D01*
X-34411267Y5190223D01*
X-34360574Y5289714D01*
X-34343106Y5400000D01*
X-34360574Y5510286D01*
X-34411267Y5609777D01*
X-34490223Y5688733D01*
X-34490226Y5688735D01*
X-34589714Y5739426D01*
X-34666601Y5751604D01*
X-34698575Y5771199D01*
X-34700559Y5779463D01*
X-34712267Y5760358D01*
X-34733400Y5751604D01*
X-34792274Y5742279D01*
X-34810287Y5739426D01*
X-34909775Y5688735D01*
X-34909778Y5688733D01*
X-34988733Y5609778D01*
X-34988735Y5609775D01*
X-35039426Y5510287D01*
X-35039426Y5510286D01*
X-35051604Y5433401D01*
X-35071199Y5401426D01*
X-35079463Y5399443D01*
X-35125186Y5399443D01*
X-35120538Y5400559D01*
X-35139642Y5412267D01*
X-35148397Y5433400D01*
X-35160574Y5510286D01*
X-35211267Y5609777D01*
X-35290223Y5688733D01*
X-35290226Y5688735D01*
X-35389714Y5739426D01*
X-35466597Y5751604D01*
X-35498572Y5771199D01*
X-35500558Y5779471D01*
X-35512270Y5760358D01*
X-35533405Y5751603D01*
X-35610287Y5739426D01*
X-35709775Y5688735D01*
X-35709778Y5688733D01*
X-35788733Y5609778D01*
X-35788735Y5609775D01*
X-35839426Y5510287D01*
X-35856894Y5400000D01*
X-74799500Y5400000D01*
X-74799500Y6199999D01*
X-35856894Y6199999D01*
X-35839426Y6089713D01*
X-35788736Y5990226D01*
X-35788733Y5990222D01*
X-35709777Y5911266D01*
X-35610286Y5860573D01*
X-35533405Y5848396D01*
X-35501429Y5828801D01*
X-35499444Y5820531D01*
X-35487731Y5839642D01*
X-35466600Y5848396D01*
X-35389714Y5860573D01*
X-35290223Y5911266D01*
X-35211267Y5990222D01*
X-35160574Y6089713D01*
X-35148397Y6166600D01*
X-35128801Y6198574D01*
X-35125187Y6199442D01*
X-35079465Y6199442D01*
X-35060358Y6187733D01*
X-35051604Y6166601D01*
X-35039426Y6089714D01*
X-34988733Y5990223D01*
X-34909777Y5911267D01*
X-34810286Y5860574D01*
X-34733401Y5848397D01*
X-34701426Y5828801D01*
X-34699443Y5820538D01*
X-34687734Y5839642D01*
X-34666602Y5848396D01*
X-34589714Y5860574D01*
X-34490223Y5911267D01*
X-34411267Y5990223D01*
X-34360574Y6089714D01*
X-34343106Y6200000D01*
X-34360574Y6310286D01*
X-34411267Y6409777D01*
X-34490223Y6488733D01*
X-34490225Y6488734D01*
X-34490226Y6488735D01*
X-34589714Y6539426D01*
X-34666601Y6551604D01*
X-34698575Y6571199D01*
X-34700559Y6579463D01*
X-34712267Y6560358D01*
X-34733400Y6551604D01*
X-34792274Y6542279D01*
X-34810287Y6539426D01*
X-34909775Y6488735D01*
X-34909778Y6488733D01*
X-34988733Y6409778D01*
X-34988735Y6409775D01*
X-35039426Y6310287D01*
X-35051604Y6233402D01*
X-35071200Y6201426D01*
X-35079465Y6199442D01*
X-35125187Y6199442D01*
X-35120537Y6200559D01*
X-35139643Y6212267D01*
X-35148397Y6233399D01*
X-35160574Y6310285D01*
X-35211267Y6409776D01*
X-35290223Y6488732D01*
X-35290225Y6488733D01*
X-35290226Y6488734D01*
X-35389714Y6539425D01*
X-35389720Y6539426D01*
X-35466603Y6551604D01*
X-35498578Y6571199D01*
X-35500561Y6579457D01*
X-35512264Y6560358D01*
X-35533399Y6551603D01*
X-35610287Y6539425D01*
X-35709775Y6488734D01*
X-35709778Y6488732D01*
X-35788733Y6409777D01*
X-35788735Y6409774D01*
X-35839426Y6310286D01*
X-35856894Y6199999D01*
X-74799500Y6199999D01*
X-74799500Y7000000D01*
X-35856894Y7000000D01*
X-35839426Y6889714D01*
X-35788733Y6790223D01*
X-35709777Y6711267D01*
X-35610286Y6660574D01*
X-35533399Y6648396D01*
X-35501423Y6628801D01*
X-35499441Y6620545D01*
X-35487737Y6639642D01*
X-35466605Y6648396D01*
X-35389714Y6660574D01*
X-35290223Y6711267D01*
X-35211267Y6790223D01*
X-35160574Y6889714D01*
X-35148397Y6966601D01*
X-35128801Y6998575D01*
X-35125186Y6999443D01*
X-35079463Y6999443D01*
X-35060358Y6987734D01*
X-35051605Y6966602D01*
X-35039426Y6889714D01*
X-34988733Y6790223D01*
X-34909777Y6711267D01*
X-34810286Y6660574D01*
X-34733401Y6648397D01*
X-34701426Y6628801D01*
X-34699443Y6620538D01*
X-34687734Y6639642D01*
X-34666602Y6648396D01*
X-34589714Y6660574D01*
X-34490223Y6711267D01*
X-34411267Y6790223D01*
X-34360574Y6889714D01*
X-34343106Y7000000D01*
X-34360574Y7110286D01*
X-34411267Y7209777D01*
X-34490223Y7288733D01*
X-34490226Y7288735D01*
X-34589714Y7339426D01*
X-34700000Y7356894D01*
X-34810287Y7339426D01*
X-34909775Y7288735D01*
X-34909778Y7288733D01*
X-34988733Y7209778D01*
X-34988735Y7209775D01*
X-35039426Y7110287D01*
X-35039426Y7110286D01*
X-35051604Y7033401D01*
X-35071199Y7001426D01*
X-35079463Y6999443D01*
X-35125186Y6999443D01*
X-35120538Y7000559D01*
X-35139642Y7012267D01*
X-35148397Y7033400D01*
X-35160574Y7110286D01*
X-35211267Y7209777D01*
X-35290223Y7288733D01*
X-35290226Y7288735D01*
X-35389714Y7339426D01*
X-35500000Y7356894D01*
X-35610287Y7339426D01*
X-35709775Y7288735D01*
X-35709778Y7288733D01*
X-35788733Y7209778D01*
X-35788735Y7209775D01*
X-35839426Y7110287D01*
X-35839426Y7110286D01*
X-35856894Y7000000D01*
X-74799500Y7000000D01*
X-74799500Y7900000D01*
X-62756894Y7900000D01*
X-62739426Y7789714D01*
X-62688733Y7690223D01*
X-62609777Y7611267D01*
X-62510286Y7560574D01*
X-62400000Y7543106D01*
X-62289714Y7560574D01*
X-62190223Y7611267D01*
X-62111267Y7690223D01*
X-62060574Y7789714D01*
X-62043106Y7900000D01*
X-62060574Y8010286D01*
X-62111267Y8109777D01*
X-62190223Y8188733D01*
X-62190226Y8188735D01*
X-62289714Y8239426D01*
X-62400000Y8256894D01*
X-62510287Y8239426D01*
X-62609775Y8188735D01*
X-62609778Y8188733D01*
X-62688733Y8109778D01*
X-62688735Y8109775D01*
X-62739426Y8010287D01*
X-62739426Y8010286D01*
X-62756894Y7900000D01*
X-74799500Y7900000D01*
X-74799500Y8500000D01*
X-63356894Y8500000D01*
X-63339426Y8389714D01*
X-63288733Y8290223D01*
X-63209777Y8211267D01*
X-63110286Y8160574D01*
X-63000000Y8143106D01*
X-62889714Y8160574D01*
X-62790223Y8211267D01*
X-62711267Y8290223D01*
X-62660574Y8389714D01*
X-62643106Y8500000D01*
X-62660574Y8610286D01*
X-62711267Y8709777D01*
X-62790223Y8788733D01*
X-62790226Y8788735D01*
X-62889714Y8839426D01*
X-63000000Y8856894D01*
X-63110287Y8839426D01*
X-63209775Y8788735D01*
X-63209778Y8788733D01*
X-63288733Y8709778D01*
X-63288735Y8709775D01*
X-63339426Y8610287D01*
X-63339426Y8610286D01*
X-63356894Y8500000D01*
X-74799500Y8500000D01*
X-74799500Y10966606D01*
X-73667500Y10966606D01*
X-73667500Y10773395D01*
X-73637276Y10582563D01*
X-73637275Y10582560D01*
X-73577570Y10398805D01*
X-73489851Y10226648D01*
X-73489849Y10226645D01*
X-73376284Y10070336D01*
X-73376280Y10070331D01*
X-73239669Y9933720D01*
X-73239665Y9933717D01*
X-73239663Y9933715D01*
X-73083350Y9820148D01*
X-72911197Y9732431D01*
X-72727440Y9672725D01*
X-72536606Y9642500D01*
X-72536605Y9642500D01*
X-72343395Y9642500D01*
X-72343394Y9642500D01*
X-72152560Y9672725D01*
X-71968803Y9732431D01*
X-71796650Y9820148D01*
X-71640337Y9933715D01*
X-71640334Y9933719D01*
X-71640331Y9933720D01*
X-71503720Y10070331D01*
X-71503719Y10070334D01*
X-71503715Y10070337D01*
X-71390148Y10226650D01*
X-71302431Y10398803D01*
X-71269550Y10500000D01*
X-67556894Y10500000D01*
X-67539426Y10389714D01*
X-67488733Y10290223D01*
X-67409777Y10211267D01*
X-67310286Y10160574D01*
X-67200000Y10143106D01*
X-67089714Y10160574D01*
X-66990223Y10211267D01*
X-66911267Y10290223D01*
X-66860574Y10389714D01*
X-66843106Y10500000D01*
X-66860574Y10610286D01*
X-66911267Y10709777D01*
X-66990223Y10788733D01*
X-66990226Y10788735D01*
X-67089714Y10839426D01*
X-67200000Y10856894D01*
X-67310287Y10839426D01*
X-67409775Y10788735D01*
X-67409778Y10788733D01*
X-67488733Y10709778D01*
X-67488735Y10709775D01*
X-67539426Y10610287D01*
X-67556894Y10500000D01*
X-71269550Y10500000D01*
X-71242725Y10582560D01*
X-71212500Y10773394D01*
X-71212500Y10966606D01*
X-71242725Y11157440D01*
X-71302431Y11341197D01*
X-71390148Y11513350D01*
X-71503715Y11669663D01*
X-71503717Y11669665D01*
X-71503720Y11669669D01*
X-71640331Y11806280D01*
X-71640336Y11806284D01*
X-71646241Y11810574D01*
X-71687509Y11840557D01*
X-71796645Y11919849D01*
X-71796648Y11919851D01*
X-71968805Y12007570D01*
X-72152560Y12067275D01*
X-72152563Y12067276D01*
X-72299158Y12090494D01*
X-72343394Y12097500D01*
X-72536606Y12097500D01*
X-72572518Y12091813D01*
X-72727438Y12067276D01*
X-72727441Y12067275D01*
X-72911196Y12007570D01*
X-73083353Y11919851D01*
X-73083356Y11919849D01*
X-73239665Y11806284D01*
X-73376284Y11669665D01*
X-73489849Y11513356D01*
X-73489851Y11513353D01*
X-73577570Y11341196D01*
X-73637275Y11157441D01*
X-73637276Y11157438D01*
X-73667500Y10966606D01*
X-74799500Y10966606D01*
X-74799500Y12200001D01*
X-70957593Y12200001D01*
X-70957593Y12200000D01*
X-70937272Y11993674D01*
X-70937272Y11993673D01*
X-70897107Y11861268D01*
X-70877089Y11795277D01*
X-70809950Y11669669D01*
X-70779355Y11612432D01*
X-70779353Y11612429D01*
X-70698044Y11513353D01*
X-70647831Y11452169D01*
X-70487567Y11320644D01*
X-70304723Y11222911D01*
X-70106326Y11162728D01*
X-69900000Y11142407D01*
X-69693674Y11162728D01*
X-69495277Y11222911D01*
X-69312433Y11320644D01*
X-69152169Y11452169D01*
X-69020644Y11612433D01*
X-68922911Y11795277D01*
X-68862728Y11993674D01*
X-68847331Y12150000D01*
X-67556894Y12150000D01*
X-67539426Y12039714D01*
X-67523048Y12007569D01*
X-67488733Y11940223D01*
X-67409777Y11861267D01*
X-67310286Y11810574D01*
X-67200000Y11793106D01*
X-67089714Y11810574D01*
X-66990223Y11861267D01*
X-66911267Y11940223D01*
X-66860574Y12039714D01*
X-66843106Y12150000D01*
X-66860574Y12260286D01*
X-66911267Y12359777D01*
X-66990223Y12438733D01*
X-66990226Y12438735D01*
X-67089714Y12489426D01*
X-67200000Y12506894D01*
X-67310287Y12489426D01*
X-67409775Y12438735D01*
X-67409778Y12438733D01*
X-67488733Y12359778D01*
X-67488735Y12359775D01*
X-67539426Y12260287D01*
X-67556894Y12150000D01*
X-68847331Y12150000D01*
X-68842407Y12200000D01*
X-68862728Y12406326D01*
X-68922911Y12604723D01*
X-69020644Y12787567D01*
X-69152169Y12947831D01*
X-69312433Y13079356D01*
X-69495277Y13177089D01*
X-69693674Y13237272D01*
X-69900000Y13257593D01*
X-70106327Y13237272D01*
X-70106328Y13237272D01*
X-70304721Y13177090D01*
X-70304728Y13177087D01*
X-70487569Y13079355D01*
X-70487572Y13079353D01*
X-70647830Y12947833D01*
X-70647833Y12947830D01*
X-70779353Y12787572D01*
X-70779355Y12787569D01*
X-70877087Y12604728D01*
X-70877090Y12604721D01*
X-70937272Y12406328D01*
X-70937272Y12406327D01*
X-70957593Y12200001D01*
X-74799500Y12200001D01*
X-74799500Y14740001D01*
X-70957593Y14740001D01*
X-70957593Y14740000D01*
X-70937272Y14533674D01*
X-70937272Y14533673D01*
X-70899930Y14410574D01*
X-70877089Y14335277D01*
X-70779356Y14152433D01*
X-70647831Y13992169D01*
X-70487567Y13860644D01*
X-70304723Y13762911D01*
X-70106326Y13702728D01*
X-69900000Y13682407D01*
X-69693674Y13702728D01*
X-69495277Y13762911D01*
X-69312433Y13860644D01*
X-69152169Y13992169D01*
X-69020644Y14152433D01*
X-68922911Y14335277D01*
X-68862728Y14533674D01*
X-68842407Y14740000D01*
X-68843392Y14750000D01*
X-67556894Y14750000D01*
X-67539426Y14639714D01*
X-67488733Y14540223D01*
X-67409777Y14461267D01*
X-67310286Y14410574D01*
X-67200000Y14393106D01*
X-67089714Y14410574D01*
X-66990223Y14461267D01*
X-66911267Y14540223D01*
X-66860574Y14639714D01*
X-66843106Y14750000D01*
X-66860574Y14860286D01*
X-66911267Y14959777D01*
X-66990223Y15038733D01*
X-66990226Y15038735D01*
X-67089714Y15089426D01*
X-67200000Y15106894D01*
X-67310287Y15089426D01*
X-67409775Y15038735D01*
X-67409778Y15038733D01*
X-67488733Y14959778D01*
X-67488735Y14959775D01*
X-67539426Y14860287D01*
X-67539426Y14860286D01*
X-67556894Y14750000D01*
X-68843392Y14750000D01*
X-68862728Y14946326D01*
X-68922911Y15144723D01*
X-69020644Y15327567D01*
X-69098495Y15422429D01*
X-69152168Y15487830D01*
X-69152171Y15487833D01*
X-69312429Y15619353D01*
X-69312432Y15619355D01*
X-69312433Y15619356D01*
X-69495277Y15717089D01*
X-69693674Y15777272D01*
X-69900000Y15797593D01*
X-70106327Y15777272D01*
X-70106328Y15777272D01*
X-70304721Y15717090D01*
X-70304728Y15717087D01*
X-70487569Y15619355D01*
X-70487572Y15619353D01*
X-70647830Y15487833D01*
X-70647833Y15487830D01*
X-70779353Y15327572D01*
X-70779355Y15327569D01*
X-70877087Y15144728D01*
X-70877090Y15144721D01*
X-70937272Y14946328D01*
X-70937272Y14946327D01*
X-70957593Y14740001D01*
X-74799500Y14740001D01*
X-74799500Y16010001D01*
X-73497593Y16010001D01*
X-73497593Y16010000D01*
X-73477272Y15803674D01*
X-73477272Y15803673D01*
X-73469263Y15777272D01*
X-73417089Y15605277D01*
X-73354312Y15487830D01*
X-73319355Y15422432D01*
X-73319353Y15422429D01*
X-73187833Y15262171D01*
X-73187830Y15262168D01*
X-73044722Y15144723D01*
X-73027567Y15130644D01*
X-72844723Y15032911D01*
X-72646326Y14972728D01*
X-72440000Y14952407D01*
X-72233674Y14972728D01*
X-72035277Y15032911D01*
X-71852433Y15130644D01*
X-71692169Y15262169D01*
X-71560644Y15422433D01*
X-71462911Y15605277D01*
X-71402728Y15803674D01*
X-71382407Y16010000D01*
X-71402728Y16216326D01*
X-71462911Y16414723D01*
X-71560644Y16597567D01*
X-71571083Y16610287D01*
X-71692168Y16757830D01*
X-71692171Y16757833D01*
X-71852429Y16889353D01*
X-71852432Y16889355D01*
X-71852433Y16889356D01*
X-72035277Y16987089D01*
X-72233674Y17047272D01*
X-72440000Y17067593D01*
X-72646327Y17047272D01*
X-72646328Y17047272D01*
X-72844721Y16987090D01*
X-72844728Y16987087D01*
X-73027569Y16889355D01*
X-73027572Y16889353D01*
X-73187830Y16757833D01*
X-73187833Y16757830D01*
X-73319353Y16597572D01*
X-73319355Y16597569D01*
X-73417087Y16414728D01*
X-73417090Y16414721D01*
X-73477272Y16216328D01*
X-73477272Y16216327D01*
X-73497593Y16010001D01*
X-74799500Y16010001D01*
X-74799500Y17452347D01*
X-71327500Y17452347D01*
X-71327500Y17227654D01*
X-71292351Y17005729D01*
X-71292350Y17005726D01*
X-71286295Y16987089D01*
X-71222916Y16792030D01*
X-71120907Y16591827D01*
X-70988836Y16410046D01*
X-70988835Y16410045D01*
X-70988831Y16410040D01*
X-70829960Y16251169D01*
X-70829956Y16251166D01*
X-70829954Y16251164D01*
X-70648173Y16119093D01*
X-70447970Y16017084D01*
X-70234274Y15947650D01*
X-70012347Y15912500D01*
X-70012346Y15912500D01*
X-69787654Y15912500D01*
X-69787653Y15912500D01*
X-69565726Y15947650D01*
X-69352030Y16017084D01*
X-69151827Y16119093D01*
X-68970046Y16251164D01*
X-68970043Y16251168D01*
X-68970040Y16251169D01*
X-68811169Y16410040D01*
X-68811168Y16410043D01*
X-68811164Y16410046D01*
X-68745809Y16500000D01*
X-67556894Y16500000D01*
X-67539426Y16389714D01*
X-67488733Y16290223D01*
X-67409777Y16211267D01*
X-67310286Y16160574D01*
X-67200000Y16143106D01*
X-67089714Y16160574D01*
X-66990223Y16211267D01*
X-66911267Y16290223D01*
X-66860574Y16389714D01*
X-66843106Y16500000D01*
X-66860574Y16610286D01*
X-66911267Y16709777D01*
X-66990223Y16788733D01*
X-66990226Y16788735D01*
X-67089714Y16839426D01*
X-67200000Y16856894D01*
X-67310287Y16839426D01*
X-67409775Y16788735D01*
X-67409778Y16788733D01*
X-67488733Y16709778D01*
X-67488735Y16709775D01*
X-67539426Y16610287D01*
X-67539426Y16610286D01*
X-67556894Y16500000D01*
X-68745809Y16500000D01*
X-68679093Y16591827D01*
X-68577084Y16792030D01*
X-68507650Y17005726D01*
X-68472500Y17227653D01*
X-68472500Y17452347D01*
X-68507650Y17674274D01*
X-68577084Y17887970D01*
X-68679093Y18088173D01*
X-68811164Y18269954D01*
X-68811166Y18269956D01*
X-68811169Y18269960D01*
X-68970040Y18428831D01*
X-68970045Y18428835D01*
X-68970046Y18428836D01*
X-69151827Y18560907D01*
X-69352030Y18662916D01*
X-69352031Y18662917D01*
X-69352032Y18662917D01*
X-69565726Y18732350D01*
X-69565729Y18732351D01*
X-69736208Y18759352D01*
X-69787653Y18767500D01*
X-70012347Y18767500D01*
X-70054111Y18760886D01*
X-70234272Y18732351D01*
X-70234275Y18732350D01*
X-70447969Y18662917D01*
X-70648173Y18560907D01*
X-70829956Y18428835D01*
X-70988835Y18269956D01*
X-71120907Y18088173D01*
X-71222917Y17887969D01*
X-71292350Y17674275D01*
X-71292351Y17674272D01*
X-71327500Y17452347D01*
X-74799500Y17452347D01*
X-74799500Y18833102D01*
X-74811858Y18934882D01*
X-74831588Y19097376D01*
X-74895297Y19355852D01*
X-74989697Y19604764D01*
X-75113411Y19840483D01*
X-75264637Y20059570D01*
X-75441168Y20258832D01*
X-75564647Y20368225D01*
X-75640426Y20435360D01*
X-75640435Y20435367D01*
X-75859506Y20586582D01*
X-75859511Y20586585D01*
X-75859517Y20586589D01*
X-76095236Y20710303D01*
X-76344148Y20804703D01*
X-76344151Y20804704D01*
X-76344154Y20804705D01*
X-76602620Y20868411D01*
X-76602624Y20868412D01*
X-76866894Y20900500D01*
X-76866898Y20900500D01*
X-77898397Y20900500D01*
X-77901602Y20900605D01*
X-78131682Y20915686D01*
X-78138031Y20916522D01*
X-78362600Y20961191D01*
X-78368779Y20962846D01*
X-78585601Y21036448D01*
X-78591522Y21038901D01*
X-78796871Y21140167D01*
X-78802418Y21143370D01*
X-78898178Y21207355D01*
X-78992797Y21270578D01*
X-78997882Y21274480D01*
X-79170025Y21425444D01*
X-79174557Y21429976D01*
X-79325521Y21602119D01*
X-79329423Y21607204D01*
X-79455063Y21795236D01*
X-79456634Y21797587D01*
X-79459829Y21803122D01*
X-79561102Y22008483D01*
X-79563553Y22014400D01*
X-79573651Y22044148D01*
X-79637158Y22231231D01*
X-79638808Y22237391D01*
X-79683482Y22461983D01*
X-79684315Y22468319D01*
X-79699395Y22698399D01*
X-79699500Y22701604D01*
X-79699500Y26045005D01*
X-77382349Y26045005D01*
X-77382349Y26044996D01*
X-77362973Y25737016D01*
X-77305149Y25433886D01*
X-77209786Y25140391D01*
X-77078391Y24861163D01*
X-76980978Y24707663D01*
X-76913037Y24600606D01*
X-76906797Y24593063D01*
X-76716336Y24362836D01*
X-76716329Y24362828D01*
X-76491378Y24151584D01*
X-76491375Y24151582D01*
X-76491373Y24151580D01*
X-76241713Y23970192D01*
X-75971288Y23821524D01*
X-75684363Y23707922D01*
X-75385461Y23631177D01*
X-75079298Y23592500D01*
X-75079297Y23592500D01*
X-74770703Y23592500D01*
X-74770702Y23592500D01*
X-74464539Y23631177D01*
X-74165637Y23707922D01*
X-73878712Y23821524D01*
X-73735965Y23900000D01*
X-62192609Y23900000D01*
X-62172229Y23706100D01*
X-62111981Y23520674D01*
X-62014497Y23351826D01*
X-62014494Y23351823D01*
X-61884043Y23206941D01*
X-61884039Y23206938D01*
X-61884037Y23206936D01*
X-61726305Y23092337D01*
X-61548192Y23013036D01*
X-61357484Y22972500D01*
X-61162516Y22972500D01*
X-60971808Y23013036D01*
X-60793695Y23092337D01*
X-60635963Y23206936D01*
X-60505503Y23351826D01*
X-60408019Y23520674D01*
X-60347771Y23706100D01*
X-60327391Y23900000D01*
X-60032609Y23900000D01*
X-60012229Y23706100D01*
X-59951981Y23520674D01*
X-59854497Y23351826D01*
X-59854494Y23351823D01*
X-59724043Y23206941D01*
X-59724039Y23206938D01*
X-59724037Y23206936D01*
X-59566305Y23092337D01*
X-59388192Y23013036D01*
X-59197484Y22972500D01*
X-59002516Y22972500D01*
X-58811808Y23013036D01*
X-58633695Y23092337D01*
X-58475963Y23206936D01*
X-58345503Y23351826D01*
X-58248019Y23520674D01*
X-58187771Y23706100D01*
X-58167391Y23900000D01*
X-57872609Y23900000D01*
X-57852229Y23706100D01*
X-57791981Y23520674D01*
X-57694497Y23351826D01*
X-57694494Y23351823D01*
X-57564043Y23206941D01*
X-57564039Y23206938D01*
X-57564037Y23206936D01*
X-57406305Y23092337D01*
X-57228192Y23013036D01*
X-57037484Y22972500D01*
X-56842516Y22972500D01*
X-56651808Y23013036D01*
X-56473695Y23092337D01*
X-56315963Y23206936D01*
X-56185503Y23351826D01*
X-56088019Y23520674D01*
X-56027771Y23706100D01*
X-56007391Y23900000D01*
X-55712609Y23900000D01*
X-55692229Y23706100D01*
X-55631981Y23520674D01*
X-55534497Y23351826D01*
X-55534494Y23351823D01*
X-55404043Y23206941D01*
X-55404039Y23206938D01*
X-55404037Y23206936D01*
X-55246305Y23092337D01*
X-55068192Y23013036D01*
X-54877484Y22972500D01*
X-54682516Y22972500D01*
X-54491808Y23013036D01*
X-54313695Y23092337D01*
X-54155963Y23206936D01*
X-54025503Y23351826D01*
X-53928019Y23520674D01*
X-53867771Y23706100D01*
X-53847391Y23900000D01*
X-53552609Y23900000D01*
X-53532229Y23706100D01*
X-53471981Y23520674D01*
X-53374497Y23351826D01*
X-53374494Y23351823D01*
X-53244043Y23206941D01*
X-53244039Y23206938D01*
X-53244037Y23206936D01*
X-53086305Y23092337D01*
X-52908192Y23013036D01*
X-52717484Y22972500D01*
X-52522516Y22972500D01*
X-52331808Y23013036D01*
X-52153695Y23092337D01*
X-51995963Y23206936D01*
X-51865503Y23351826D01*
X-51768019Y23520674D01*
X-51707771Y23706100D01*
X-51687391Y23900000D01*
X-51392609Y23900000D01*
X-51372229Y23706100D01*
X-51311981Y23520674D01*
X-51214497Y23351826D01*
X-51214494Y23351823D01*
X-51084043Y23206941D01*
X-51084039Y23206938D01*
X-51084037Y23206936D01*
X-50926305Y23092337D01*
X-50748192Y23013036D01*
X-50557484Y22972500D01*
X-50362516Y22972500D01*
X-50171808Y23013036D01*
X-49993695Y23092337D01*
X-49835963Y23206936D01*
X-49705503Y23351826D01*
X-49608019Y23520674D01*
X-49547771Y23706100D01*
X-49527391Y23900000D01*
X-49232609Y23900000D01*
X-49212229Y23706100D01*
X-49151981Y23520674D01*
X-49054497Y23351826D01*
X-49054494Y23351823D01*
X-48924043Y23206941D01*
X-48924039Y23206938D01*
X-48924037Y23206936D01*
X-48766305Y23092337D01*
X-48588192Y23013036D01*
X-48397484Y22972500D01*
X-48202516Y22972500D01*
X-48011808Y23013036D01*
X-47833695Y23092337D01*
X-47675963Y23206936D01*
X-47545503Y23351826D01*
X-47448019Y23520674D01*
X-47387771Y23706100D01*
X-47367391Y23900000D01*
X-47072609Y23900000D01*
X-47052229Y23706100D01*
X-46991981Y23520674D01*
X-46894497Y23351826D01*
X-46894494Y23351823D01*
X-46764043Y23206941D01*
X-46764039Y23206938D01*
X-46764037Y23206936D01*
X-46606305Y23092337D01*
X-46428192Y23013036D01*
X-46237484Y22972500D01*
X-46042516Y22972500D01*
X-45851808Y23013036D01*
X-45673695Y23092337D01*
X-45515963Y23206936D01*
X-45385503Y23351826D01*
X-45288019Y23520674D01*
X-45227771Y23706100D01*
X-45207391Y23900000D01*
X-44912609Y23900000D01*
X-44892229Y23706100D01*
X-44831981Y23520674D01*
X-44734497Y23351826D01*
X-44734494Y23351823D01*
X-44604043Y23206941D01*
X-44604039Y23206938D01*
X-44604037Y23206936D01*
X-44446305Y23092337D01*
X-44268192Y23013036D01*
X-44077484Y22972500D01*
X-43882516Y22972500D01*
X-43691808Y23013036D01*
X-43513695Y23092337D01*
X-43355963Y23206936D01*
X-43225503Y23351826D01*
X-43128019Y23520674D01*
X-43067771Y23706100D01*
X-43047391Y23900000D01*
X-42752609Y23900000D01*
X-42732229Y23706100D01*
X-42671981Y23520674D01*
X-42574497Y23351826D01*
X-42574494Y23351823D01*
X-42444043Y23206941D01*
X-42444039Y23206938D01*
X-42444037Y23206936D01*
X-42286305Y23092337D01*
X-42108192Y23013036D01*
X-41917484Y22972500D01*
X-41722516Y22972500D01*
X-41531808Y23013036D01*
X-41353695Y23092337D01*
X-41195963Y23206936D01*
X-41065503Y23351826D01*
X-40968019Y23520674D01*
X-40907771Y23706100D01*
X-40887391Y23900000D01*
X-38432609Y23900000D01*
X-38412229Y23706100D01*
X-38351981Y23520674D01*
X-38254497Y23351826D01*
X-38254494Y23351823D01*
X-38124043Y23206941D01*
X-38124039Y23206938D01*
X-38124037Y23206936D01*
X-37966305Y23092337D01*
X-37788192Y23013036D01*
X-37597484Y22972500D01*
X-37402516Y22972500D01*
X-37211808Y23013036D01*
X-37033695Y23092337D01*
X-36875963Y23206936D01*
X-36745503Y23351826D01*
X-36648019Y23520674D01*
X-36587771Y23706100D01*
X-36567391Y23900000D01*
X-34112609Y23900000D01*
X-34092229Y23706100D01*
X-34031981Y23520674D01*
X-33934497Y23351826D01*
X-33934494Y23351823D01*
X-33804043Y23206941D01*
X-33804039Y23206938D01*
X-33804037Y23206936D01*
X-33646305Y23092337D01*
X-33468192Y23013036D01*
X-33277484Y22972500D01*
X-33082516Y22972500D01*
X-32891808Y23013036D01*
X-32713695Y23092337D01*
X-32555963Y23206936D01*
X-32425503Y23351826D01*
X-32328019Y23520674D01*
X-32267771Y23706100D01*
X-32247391Y23900000D01*
X-29792609Y23900000D01*
X-29772229Y23706100D01*
X-29711981Y23520674D01*
X-29614497Y23351826D01*
X-29614494Y23351823D01*
X-29484043Y23206941D01*
X-29484039Y23206938D01*
X-29484037Y23206936D01*
X-29326305Y23092337D01*
X-29148192Y23013036D01*
X-28957484Y22972500D01*
X-28762516Y22972500D01*
X-28571808Y23013036D01*
X-28393695Y23092337D01*
X-28235963Y23206936D01*
X-28105503Y23351826D01*
X-28008019Y23520674D01*
X-27947771Y23706100D01*
X-27927391Y23900000D01*
X-27632609Y23900000D01*
X-27612229Y23706100D01*
X-27551981Y23520674D01*
X-27454497Y23351826D01*
X-27454494Y23351823D01*
X-27324043Y23206941D01*
X-27324039Y23206938D01*
X-27324037Y23206936D01*
X-27166305Y23092337D01*
X-26988192Y23013036D01*
X-26797484Y22972500D01*
X-26602516Y22972500D01*
X-26411808Y23013036D01*
X-26233695Y23092337D01*
X-26075963Y23206936D01*
X-25945503Y23351826D01*
X-25848019Y23520674D01*
X-25787771Y23706100D01*
X-25767391Y23900000D01*
X-25472609Y23900000D01*
X-25452229Y23706100D01*
X-25391981Y23520674D01*
X-25294497Y23351826D01*
X-25294494Y23351823D01*
X-25164043Y23206941D01*
X-25164039Y23206938D01*
X-25164037Y23206936D01*
X-25006305Y23092337D01*
X-24828192Y23013036D01*
X-24637484Y22972500D01*
X-24442516Y22972500D01*
X-24251808Y23013036D01*
X-24073695Y23092337D01*
X-23915963Y23206936D01*
X-23785503Y23351826D01*
X-23688019Y23520674D01*
X-23627771Y23706100D01*
X-23607391Y23900000D01*
X-23312609Y23900000D01*
X-23292229Y23706100D01*
X-23231981Y23520674D01*
X-23134497Y23351826D01*
X-23134494Y23351823D01*
X-23004043Y23206941D01*
X-23004039Y23206938D01*
X-23004037Y23206936D01*
X-22846305Y23092337D01*
X-22668192Y23013036D01*
X-22477484Y22972500D01*
X-22282516Y22972500D01*
X-22091808Y23013036D01*
X-21913695Y23092337D01*
X-21755963Y23206936D01*
X-21625503Y23351826D01*
X-21528019Y23520674D01*
X-21467771Y23706100D01*
X-21447391Y23900000D01*
X-21152609Y23900000D01*
X-21132229Y23706100D01*
X-21071981Y23520674D01*
X-20974497Y23351826D01*
X-20974494Y23351823D01*
X-20844043Y23206941D01*
X-20844039Y23206938D01*
X-20844037Y23206936D01*
X-20686305Y23092337D01*
X-20508192Y23013036D01*
X-20317484Y22972500D01*
X-20122516Y22972500D01*
X-19931808Y23013036D01*
X-19753695Y23092337D01*
X-19595963Y23206936D01*
X-19465503Y23351826D01*
X-19368019Y23520674D01*
X-19307771Y23706100D01*
X-19287391Y23900000D01*
X-18992609Y23900000D01*
X-18972229Y23706100D01*
X-18911981Y23520674D01*
X-18814497Y23351826D01*
X-18814494Y23351823D01*
X-18684043Y23206941D01*
X-18684039Y23206938D01*
X-18684037Y23206936D01*
X-18526305Y23092337D01*
X-18348192Y23013036D01*
X-18157484Y22972500D01*
X-17962516Y22972500D01*
X-17771808Y23013036D01*
X-17593695Y23092337D01*
X-17435963Y23206936D01*
X-17305503Y23351826D01*
X-17208019Y23520674D01*
X-17147771Y23706100D01*
X-17127391Y23900000D01*
X-16832609Y23900000D01*
X-16812229Y23706100D01*
X-16751981Y23520674D01*
X-16654497Y23351826D01*
X-16654494Y23351823D01*
X-16524043Y23206941D01*
X-16524039Y23206938D01*
X-16524037Y23206936D01*
X-16366305Y23092337D01*
X-16188192Y23013036D01*
X-15997484Y22972500D01*
X-15802516Y22972500D01*
X-15611808Y23013036D01*
X-15433695Y23092337D01*
X-15275963Y23206936D01*
X-15145503Y23351826D01*
X-15048019Y23520674D01*
X-14987771Y23706100D01*
X-14967391Y23900000D01*
X-14672609Y23900000D01*
X-14652229Y23706100D01*
X-14591981Y23520674D01*
X-14494497Y23351826D01*
X-14494494Y23351823D01*
X-14364043Y23206941D01*
X-14364039Y23206938D01*
X-14364037Y23206936D01*
X-14206305Y23092337D01*
X-14028192Y23013036D01*
X-13837484Y22972500D01*
X-13642516Y22972500D01*
X-13451808Y23013036D01*
X-13273695Y23092337D01*
X-13115963Y23206936D01*
X-12985503Y23351826D01*
X-12888019Y23520674D01*
X-12827771Y23706100D01*
X-12807391Y23900000D01*
X-12827771Y24093900D01*
X-12888019Y24279326D01*
X-12985503Y24448174D01*
X-13014431Y24480302D01*
X-13115958Y24593060D01*
X-13115963Y24593063D01*
X-13115963Y24593064D01*
X-13273695Y24707663D01*
X-13451808Y24786964D01*
X-13642516Y24827500D01*
X-13837484Y24827500D01*
X-14028186Y24786966D01*
X-14028195Y24786963D01*
X-14206306Y24707662D01*
X-14364039Y24593063D01*
X-14364042Y24593061D01*
X-14494494Y24448178D01*
X-14494500Y24448170D01*
X-14591979Y24279330D01*
X-14591981Y24279327D01*
X-14652229Y24093900D01*
X-14672609Y23900000D01*
X-14967391Y23900000D01*
X-14987771Y24093900D01*
X-15048019Y24279326D01*
X-15145503Y24448174D01*
X-15174431Y24480302D01*
X-15275958Y24593060D01*
X-15275963Y24593063D01*
X-15275963Y24593064D01*
X-15433695Y24707663D01*
X-15611808Y24786964D01*
X-15802516Y24827500D01*
X-15997484Y24827500D01*
X-16188186Y24786966D01*
X-16188195Y24786963D01*
X-16366306Y24707662D01*
X-16524039Y24593063D01*
X-16524042Y24593061D01*
X-16654494Y24448178D01*
X-16654500Y24448170D01*
X-16751979Y24279330D01*
X-16751981Y24279327D01*
X-16812229Y24093900D01*
X-16832609Y23900000D01*
X-17127391Y23900000D01*
X-17147771Y24093900D01*
X-17208019Y24279326D01*
X-17305503Y24448174D01*
X-17334431Y24480302D01*
X-17435958Y24593060D01*
X-17435963Y24593063D01*
X-17435963Y24593064D01*
X-17593695Y24707663D01*
X-17771808Y24786964D01*
X-17962516Y24827500D01*
X-18157484Y24827500D01*
X-18348186Y24786966D01*
X-18348195Y24786963D01*
X-18526306Y24707662D01*
X-18684039Y24593063D01*
X-18684042Y24593061D01*
X-18814494Y24448178D01*
X-18814500Y24448170D01*
X-18911979Y24279330D01*
X-18911981Y24279327D01*
X-18972229Y24093900D01*
X-18992609Y23900000D01*
X-19287391Y23900000D01*
X-19307771Y24093900D01*
X-19368019Y24279326D01*
X-19465503Y24448174D01*
X-19494431Y24480302D01*
X-19595958Y24593060D01*
X-19595963Y24593063D01*
X-19595963Y24593064D01*
X-19753695Y24707663D01*
X-19931808Y24786964D01*
X-20122516Y24827500D01*
X-20317484Y24827500D01*
X-20508186Y24786966D01*
X-20508195Y24786963D01*
X-20686306Y24707662D01*
X-20844039Y24593063D01*
X-20844042Y24593061D01*
X-20974494Y24448178D01*
X-20974500Y24448170D01*
X-21071979Y24279330D01*
X-21071981Y24279327D01*
X-21132229Y24093900D01*
X-21152609Y23900000D01*
X-21447391Y23900000D01*
X-21467771Y24093900D01*
X-21528019Y24279326D01*
X-21625503Y24448174D01*
X-21654431Y24480302D01*
X-21755958Y24593060D01*
X-21755963Y24593063D01*
X-21755963Y24593064D01*
X-21913695Y24707663D01*
X-22091808Y24786964D01*
X-22282516Y24827500D01*
X-22477484Y24827500D01*
X-22668186Y24786966D01*
X-22668195Y24786963D01*
X-22846306Y24707662D01*
X-23004039Y24593063D01*
X-23004042Y24593061D01*
X-23134494Y24448178D01*
X-23134500Y24448170D01*
X-23231979Y24279330D01*
X-23231981Y24279327D01*
X-23292229Y24093900D01*
X-23312609Y23900000D01*
X-23607391Y23900000D01*
X-23627771Y24093900D01*
X-23688019Y24279326D01*
X-23785503Y24448174D01*
X-23814431Y24480302D01*
X-23915958Y24593060D01*
X-23915963Y24593063D01*
X-23915963Y24593064D01*
X-24073695Y24707663D01*
X-24251808Y24786964D01*
X-24442516Y24827500D01*
X-24637484Y24827500D01*
X-24828186Y24786966D01*
X-24828195Y24786963D01*
X-25006306Y24707662D01*
X-25164039Y24593063D01*
X-25164042Y24593061D01*
X-25294494Y24448178D01*
X-25294500Y24448170D01*
X-25391979Y24279330D01*
X-25391981Y24279327D01*
X-25452229Y24093900D01*
X-25472609Y23900000D01*
X-25767391Y23900000D01*
X-25787771Y24093900D01*
X-25848019Y24279326D01*
X-25945503Y24448174D01*
X-25974431Y24480302D01*
X-26075958Y24593060D01*
X-26075963Y24593063D01*
X-26075963Y24593064D01*
X-26233695Y24707663D01*
X-26411808Y24786964D01*
X-26602516Y24827500D01*
X-26797484Y24827500D01*
X-26988186Y24786966D01*
X-26988195Y24786963D01*
X-27166306Y24707662D01*
X-27324039Y24593063D01*
X-27324042Y24593061D01*
X-27454494Y24448178D01*
X-27454500Y24448170D01*
X-27551979Y24279330D01*
X-27551981Y24279327D01*
X-27612229Y24093900D01*
X-27632609Y23900000D01*
X-27927391Y23900000D01*
X-27947771Y24093900D01*
X-28008019Y24279326D01*
X-28105503Y24448174D01*
X-28134431Y24480302D01*
X-28235958Y24593060D01*
X-28235963Y24593063D01*
X-28235963Y24593064D01*
X-28393695Y24707663D01*
X-28571808Y24786964D01*
X-28762516Y24827500D01*
X-28957484Y24827500D01*
X-29148186Y24786966D01*
X-29148195Y24786963D01*
X-29326306Y24707662D01*
X-29484039Y24593063D01*
X-29484042Y24593061D01*
X-29614494Y24448178D01*
X-29614500Y24448170D01*
X-29711979Y24279330D01*
X-29711981Y24279327D01*
X-29772229Y24093900D01*
X-29792609Y23900000D01*
X-32247391Y23900000D01*
X-32267771Y24093900D01*
X-32328019Y24279326D01*
X-32425503Y24448174D01*
X-32454431Y24480302D01*
X-32555958Y24593060D01*
X-32555963Y24593063D01*
X-32555963Y24593064D01*
X-32713695Y24707663D01*
X-32891808Y24786964D01*
X-33082516Y24827500D01*
X-33277484Y24827500D01*
X-33468186Y24786966D01*
X-33468195Y24786963D01*
X-33646306Y24707662D01*
X-33804039Y24593063D01*
X-33804042Y24593061D01*
X-33934494Y24448178D01*
X-33934500Y24448170D01*
X-34031979Y24279330D01*
X-34031981Y24279327D01*
X-34092229Y24093900D01*
X-34112609Y23900000D01*
X-36567391Y23900000D01*
X-36587771Y24093900D01*
X-36648019Y24279326D01*
X-36745503Y24448174D01*
X-36774431Y24480302D01*
X-36875958Y24593060D01*
X-36875963Y24593063D01*
X-36875963Y24593064D01*
X-37033695Y24707663D01*
X-37211808Y24786964D01*
X-37402516Y24827500D01*
X-37597484Y24827500D01*
X-37788186Y24786966D01*
X-37788195Y24786963D01*
X-37966306Y24707662D01*
X-38124039Y24593063D01*
X-38124042Y24593061D01*
X-38254494Y24448178D01*
X-38254500Y24448170D01*
X-38351979Y24279330D01*
X-38351981Y24279327D01*
X-38412229Y24093900D01*
X-38432609Y23900000D01*
X-40887391Y23900000D01*
X-40907771Y24093900D01*
X-40968019Y24279326D01*
X-41065503Y24448174D01*
X-41094431Y24480302D01*
X-41195958Y24593060D01*
X-41195963Y24593063D01*
X-41195963Y24593064D01*
X-41353695Y24707663D01*
X-41531808Y24786964D01*
X-41722516Y24827500D01*
X-41917484Y24827500D01*
X-42108186Y24786966D01*
X-42108195Y24786963D01*
X-42286306Y24707662D01*
X-42444039Y24593063D01*
X-42444042Y24593061D01*
X-42574494Y24448178D01*
X-42574500Y24448170D01*
X-42671979Y24279330D01*
X-42671981Y24279327D01*
X-42732229Y24093900D01*
X-42752609Y23900000D01*
X-43047391Y23900000D01*
X-43067771Y24093900D01*
X-43128019Y24279326D01*
X-43225503Y24448174D01*
X-43254431Y24480302D01*
X-43355958Y24593060D01*
X-43355963Y24593063D01*
X-43355963Y24593064D01*
X-43513695Y24707663D01*
X-43691808Y24786964D01*
X-43882516Y24827500D01*
X-44077484Y24827500D01*
X-44268186Y24786966D01*
X-44268195Y24786963D01*
X-44446306Y24707662D01*
X-44604039Y24593063D01*
X-44604042Y24593061D01*
X-44734494Y24448178D01*
X-44734500Y24448170D01*
X-44831979Y24279330D01*
X-44831981Y24279327D01*
X-44892229Y24093900D01*
X-44912609Y23900000D01*
X-45207391Y23900000D01*
X-45227771Y24093900D01*
X-45288019Y24279326D01*
X-45385503Y24448174D01*
X-45414431Y24480302D01*
X-45515958Y24593060D01*
X-45515963Y24593063D01*
X-45515963Y24593064D01*
X-45673695Y24707663D01*
X-45851808Y24786964D01*
X-46042516Y24827500D01*
X-46237484Y24827500D01*
X-46428186Y24786966D01*
X-46428195Y24786963D01*
X-46606306Y24707662D01*
X-46764039Y24593063D01*
X-46764042Y24593061D01*
X-46894494Y24448178D01*
X-46894500Y24448170D01*
X-46991979Y24279330D01*
X-46991981Y24279327D01*
X-47052229Y24093900D01*
X-47072609Y23900000D01*
X-47367391Y23900000D01*
X-47387771Y24093900D01*
X-47448019Y24279326D01*
X-47545503Y24448174D01*
X-47574431Y24480302D01*
X-47675958Y24593060D01*
X-47675963Y24593063D01*
X-47675963Y24593064D01*
X-47833695Y24707663D01*
X-48011808Y24786964D01*
X-48202516Y24827500D01*
X-48397484Y24827500D01*
X-48588186Y24786966D01*
X-48588195Y24786963D01*
X-48766306Y24707662D01*
X-48924039Y24593063D01*
X-48924042Y24593061D01*
X-49054494Y24448178D01*
X-49054500Y24448170D01*
X-49151979Y24279330D01*
X-49151981Y24279327D01*
X-49212229Y24093900D01*
X-49232609Y23900000D01*
X-49527391Y23900000D01*
X-49547771Y24093900D01*
X-49608019Y24279326D01*
X-49705503Y24448174D01*
X-49734431Y24480302D01*
X-49835958Y24593060D01*
X-49835963Y24593063D01*
X-49835963Y24593064D01*
X-49993695Y24707663D01*
X-50171808Y24786964D01*
X-50362516Y24827500D01*
X-50557484Y24827500D01*
X-50748186Y24786966D01*
X-50748195Y24786963D01*
X-50926306Y24707662D01*
X-51084039Y24593063D01*
X-51084042Y24593061D01*
X-51214494Y24448178D01*
X-51214500Y24448170D01*
X-51311979Y24279330D01*
X-51311981Y24279327D01*
X-51372229Y24093900D01*
X-51392609Y23900000D01*
X-51687391Y23900000D01*
X-51707771Y24093900D01*
X-51768019Y24279326D01*
X-51865503Y24448174D01*
X-51894431Y24480302D01*
X-51995958Y24593060D01*
X-51995963Y24593063D01*
X-51995963Y24593064D01*
X-52153695Y24707663D01*
X-52331808Y24786964D01*
X-52522516Y24827500D01*
X-52717484Y24827500D01*
X-52908186Y24786966D01*
X-52908195Y24786963D01*
X-53086306Y24707662D01*
X-53244039Y24593063D01*
X-53244042Y24593061D01*
X-53374494Y24448178D01*
X-53374500Y24448170D01*
X-53471979Y24279330D01*
X-53471981Y24279327D01*
X-53532229Y24093900D01*
X-53552609Y23900000D01*
X-53847391Y23900000D01*
X-53867771Y24093900D01*
X-53928019Y24279326D01*
X-54025503Y24448174D01*
X-54054431Y24480302D01*
X-54155958Y24593060D01*
X-54155963Y24593063D01*
X-54155963Y24593064D01*
X-54313695Y24707663D01*
X-54491808Y24786964D01*
X-54682516Y24827500D01*
X-54877484Y24827500D01*
X-55068186Y24786966D01*
X-55068195Y24786963D01*
X-55246306Y24707662D01*
X-55404039Y24593063D01*
X-55404042Y24593061D01*
X-55534494Y24448178D01*
X-55534500Y24448170D01*
X-55631979Y24279330D01*
X-55631981Y24279327D01*
X-55692229Y24093900D01*
X-55712609Y23900000D01*
X-56007391Y23900000D01*
X-56027771Y24093900D01*
X-56088019Y24279326D01*
X-56185503Y24448174D01*
X-56214431Y24480302D01*
X-56315958Y24593060D01*
X-56315963Y24593063D01*
X-56315963Y24593064D01*
X-56473695Y24707663D01*
X-56651808Y24786964D01*
X-56842516Y24827500D01*
X-57037484Y24827500D01*
X-57228186Y24786966D01*
X-57228195Y24786963D01*
X-57406306Y24707662D01*
X-57564039Y24593063D01*
X-57564042Y24593061D01*
X-57694494Y24448178D01*
X-57694500Y24448170D01*
X-57791979Y24279330D01*
X-57791981Y24279327D01*
X-57852229Y24093900D01*
X-57872609Y23900000D01*
X-58167391Y23900000D01*
X-58187771Y24093900D01*
X-58248019Y24279326D01*
X-58345503Y24448174D01*
X-58374431Y24480302D01*
X-58475958Y24593060D01*
X-58475963Y24593063D01*
X-58475963Y24593064D01*
X-58633695Y24707663D01*
X-58811808Y24786964D01*
X-59002516Y24827500D01*
X-59197484Y24827500D01*
X-59388186Y24786966D01*
X-59388195Y24786963D01*
X-59566306Y24707662D01*
X-59724039Y24593063D01*
X-59724042Y24593061D01*
X-59854494Y24448178D01*
X-59854500Y24448170D01*
X-59951979Y24279330D01*
X-59951981Y24279327D01*
X-60012229Y24093900D01*
X-60032609Y23900000D01*
X-60327391Y23900000D01*
X-60347771Y24093900D01*
X-60408019Y24279326D01*
X-60505503Y24448174D01*
X-60534431Y24480302D01*
X-60635958Y24593060D01*
X-60635963Y24593063D01*
X-60635963Y24593064D01*
X-60793695Y24707663D01*
X-60971808Y24786964D01*
X-61162516Y24827500D01*
X-61357484Y24827500D01*
X-61548186Y24786966D01*
X-61548195Y24786963D01*
X-61726306Y24707662D01*
X-61884039Y24593063D01*
X-61884042Y24593061D01*
X-62014494Y24448178D01*
X-62014500Y24448170D01*
X-62111979Y24279330D01*
X-62111981Y24279327D01*
X-62172229Y24093900D01*
X-62192609Y23900000D01*
X-73735965Y23900000D01*
X-73608287Y23970192D01*
X-73358627Y24151580D01*
X-73133670Y24362829D01*
X-72936963Y24600606D01*
X-72771609Y24861163D01*
X-72640215Y25140389D01*
X-72544853Y25433882D01*
X-72487028Y25737013D01*
X-72467651Y26045000D01*
X-72467651Y26045005D01*
X-2532349Y26045005D01*
X-2532349Y26044996D01*
X-2512973Y25737016D01*
X-2455149Y25433886D01*
X-2359786Y25140391D01*
X-2228391Y24861163D01*
X-2130978Y24707663D01*
X-2063037Y24600606D01*
X-2056797Y24593063D01*
X-1866336Y24362836D01*
X-1866329Y24362828D01*
X-1641378Y24151584D01*
X-1641375Y24151582D01*
X-1641373Y24151580D01*
X-1391713Y23970192D01*
X-1121288Y23821524D01*
X-834363Y23707922D01*
X-535461Y23631177D01*
X-229298Y23592500D01*
X-229297Y23592500D01*
X79297Y23592500D01*
X79298Y23592500D01*
X385461Y23631177D01*
X684363Y23707922D01*
X971288Y23821524D01*
X1241713Y23970192D01*
X1491373Y24151580D01*
X1716330Y24362829D01*
X1913037Y24600606D01*
X2078391Y24861163D01*
X2209785Y25140389D01*
X2305147Y25433882D01*
X2362972Y25737013D01*
X2382349Y26045000D01*
X2362972Y26352987D01*
X2305147Y26656118D01*
X2209785Y26949611D01*
X2078391Y27228837D01*
X1913037Y27489394D01*
X1716330Y27727171D01*
X1627412Y27810671D01*
X1491377Y27938417D01*
X1491369Y27938423D01*
X1241720Y28119803D01*
X1241714Y28119807D01*
X1241715Y28119807D01*
X1241713Y28119808D01*
X971288Y28268476D01*
X872425Y28307619D01*
X684364Y28382078D01*
X385460Y28458824D01*
X79300Y28497500D01*
X79298Y28497500D01*
X-229298Y28497500D01*
X-229301Y28497500D01*
X-535461Y28458824D01*
X-834365Y28382078D01*
X-1121291Y28268475D01*
X-1391715Y28119807D01*
X-1391721Y28119803D01*
X-1641370Y27938423D01*
X-1641378Y27938417D01*
X-1866329Y27727173D01*
X-1866336Y27727165D01*
X-2063040Y27489391D01*
X-2228391Y27228838D01*
X-2359786Y26949610D01*
X-2455149Y26656115D01*
X-2512973Y26352985D01*
X-2532349Y26045005D01*
X-72467651Y26045005D01*
X-72487028Y26352987D01*
X-72544853Y26656118D01*
X-72640215Y26949611D01*
X-72771609Y27228837D01*
X-72936963Y27489394D01*
X-73133670Y27727171D01*
X-73222588Y27810671D01*
X-73358623Y27938417D01*
X-73358631Y27938423D01*
X-73608280Y28119803D01*
X-73608286Y28119807D01*
X-73608285Y28119807D01*
X-73608287Y28119808D01*
X-73735965Y28190000D01*
X-62192609Y28190000D01*
X-62172229Y27996100D01*
X-62111981Y27810674D01*
X-62014497Y27641826D01*
X-62014494Y27641823D01*
X-61884043Y27496941D01*
X-61884039Y27496938D01*
X-61884037Y27496936D01*
X-61726305Y27382337D01*
X-61548192Y27303036D01*
X-61357484Y27262500D01*
X-61162516Y27262500D01*
X-60971808Y27303036D01*
X-60793695Y27382337D01*
X-60635963Y27496936D01*
X-60505503Y27641826D01*
X-60408019Y27810674D01*
X-60347771Y27996100D01*
X-60327391Y28190000D01*
X-60032609Y28190000D01*
X-60012229Y27996100D01*
X-59951981Y27810674D01*
X-59854497Y27641826D01*
X-59854494Y27641823D01*
X-59724043Y27496941D01*
X-59724039Y27496938D01*
X-59724037Y27496936D01*
X-59566305Y27382337D01*
X-59388192Y27303036D01*
X-59197484Y27262500D01*
X-59002516Y27262500D01*
X-58811808Y27303036D01*
X-58633695Y27382337D01*
X-58475963Y27496936D01*
X-58345503Y27641826D01*
X-58248019Y27810674D01*
X-58187771Y27996100D01*
X-58167391Y28190000D01*
X-57872609Y28190000D01*
X-57852229Y27996100D01*
X-57791981Y27810674D01*
X-57694497Y27641826D01*
X-57694494Y27641823D01*
X-57564043Y27496941D01*
X-57564039Y27496938D01*
X-57564037Y27496936D01*
X-57406305Y27382337D01*
X-57228192Y27303036D01*
X-57037484Y27262500D01*
X-56842516Y27262500D01*
X-56651808Y27303036D01*
X-56473695Y27382337D01*
X-56315963Y27496936D01*
X-56185503Y27641826D01*
X-56088019Y27810674D01*
X-56027771Y27996100D01*
X-56007391Y28190000D01*
X-55712609Y28190000D01*
X-55692229Y27996100D01*
X-55631981Y27810674D01*
X-55534497Y27641826D01*
X-55534494Y27641823D01*
X-55404043Y27496941D01*
X-55404039Y27496938D01*
X-55404037Y27496936D01*
X-55246305Y27382337D01*
X-55068192Y27303036D01*
X-54877484Y27262500D01*
X-54682516Y27262500D01*
X-54491808Y27303036D01*
X-54313695Y27382337D01*
X-54155963Y27496936D01*
X-54025503Y27641826D01*
X-53928019Y27810674D01*
X-53867771Y27996100D01*
X-53847391Y28190000D01*
X-53552609Y28190000D01*
X-53532229Y27996100D01*
X-53471981Y27810674D01*
X-53374497Y27641826D01*
X-53374494Y27641823D01*
X-53244043Y27496941D01*
X-53244039Y27496938D01*
X-53244037Y27496936D01*
X-53086305Y27382337D01*
X-52908192Y27303036D01*
X-52717484Y27262500D01*
X-52522516Y27262500D01*
X-52331808Y27303036D01*
X-52153695Y27382337D01*
X-51995963Y27496936D01*
X-51865503Y27641826D01*
X-51768019Y27810674D01*
X-51707771Y27996100D01*
X-51687391Y28190000D01*
X-51392609Y28190000D01*
X-51372229Y27996100D01*
X-51311981Y27810674D01*
X-51214497Y27641826D01*
X-51214494Y27641823D01*
X-51084043Y27496941D01*
X-51084039Y27496938D01*
X-51084037Y27496936D01*
X-50926305Y27382337D01*
X-50748192Y27303036D01*
X-50557484Y27262500D01*
X-50362516Y27262500D01*
X-50171808Y27303036D01*
X-49993695Y27382337D01*
X-49835963Y27496936D01*
X-49705503Y27641826D01*
X-49608019Y27810674D01*
X-49547771Y27996100D01*
X-49527391Y28190000D01*
X-49232609Y28190000D01*
X-49212229Y27996100D01*
X-49151981Y27810674D01*
X-49054497Y27641826D01*
X-49054494Y27641823D01*
X-48924043Y27496941D01*
X-48924039Y27496938D01*
X-48924037Y27496936D01*
X-48766305Y27382337D01*
X-48588192Y27303036D01*
X-48397484Y27262500D01*
X-48202516Y27262500D01*
X-48011808Y27303036D01*
X-47833695Y27382337D01*
X-47675963Y27496936D01*
X-47545503Y27641826D01*
X-47448019Y27810674D01*
X-47387771Y27996100D01*
X-47367391Y28190000D01*
X-47072609Y28190000D01*
X-47052229Y27996100D01*
X-46991981Y27810674D01*
X-46894497Y27641826D01*
X-46894494Y27641823D01*
X-46764043Y27496941D01*
X-46764039Y27496938D01*
X-46764037Y27496936D01*
X-46606305Y27382337D01*
X-46428192Y27303036D01*
X-46237484Y27262500D01*
X-46042516Y27262500D01*
X-45851808Y27303036D01*
X-45673695Y27382337D01*
X-45515963Y27496936D01*
X-45385503Y27641826D01*
X-45288019Y27810674D01*
X-45227771Y27996100D01*
X-45207391Y28190000D01*
X-44912609Y28190000D01*
X-44892229Y27996100D01*
X-44831981Y27810674D01*
X-44734497Y27641826D01*
X-44734494Y27641823D01*
X-44604043Y27496941D01*
X-44604039Y27496938D01*
X-44604037Y27496936D01*
X-44446305Y27382337D01*
X-44268192Y27303036D01*
X-44077484Y27262500D01*
X-43882516Y27262500D01*
X-43691808Y27303036D01*
X-43513695Y27382337D01*
X-43355963Y27496936D01*
X-43225503Y27641826D01*
X-43128019Y27810674D01*
X-43067771Y27996100D01*
X-43047391Y28190000D01*
X-38432609Y28190000D01*
X-38412229Y27996100D01*
X-38351981Y27810674D01*
X-38254497Y27641826D01*
X-38254494Y27641823D01*
X-38124043Y27496941D01*
X-38124039Y27496938D01*
X-38124037Y27496936D01*
X-37966305Y27382337D01*
X-37788192Y27303036D01*
X-37597484Y27262500D01*
X-37402516Y27262500D01*
X-37211808Y27303036D01*
X-37033695Y27382337D01*
X-36875963Y27496936D01*
X-36745503Y27641826D01*
X-36648019Y27810674D01*
X-36587771Y27996100D01*
X-36567391Y28190000D01*
X-34112609Y28190000D01*
X-34092229Y27996100D01*
X-34031981Y27810674D01*
X-33934497Y27641826D01*
X-33934494Y27641823D01*
X-33804043Y27496941D01*
X-33804039Y27496938D01*
X-33804037Y27496936D01*
X-33646305Y27382337D01*
X-33468192Y27303036D01*
X-33277484Y27262500D01*
X-33082516Y27262500D01*
X-32891808Y27303036D01*
X-32713695Y27382337D01*
X-32555963Y27496936D01*
X-32425503Y27641826D01*
X-32328019Y27810674D01*
X-32267771Y27996100D01*
X-32247391Y28190000D01*
X-29792609Y28190000D01*
X-29772229Y27996100D01*
X-29711981Y27810674D01*
X-29614497Y27641826D01*
X-29614494Y27641823D01*
X-29484043Y27496941D01*
X-29484039Y27496938D01*
X-29484037Y27496936D01*
X-29326305Y27382337D01*
X-29148192Y27303036D01*
X-28957484Y27262500D01*
X-28762516Y27262500D01*
X-28571808Y27303036D01*
X-28393695Y27382337D01*
X-28235963Y27496936D01*
X-28105503Y27641826D01*
X-28008019Y27810674D01*
X-27947771Y27996100D01*
X-27927391Y28190000D01*
X-27632609Y28190000D01*
X-27612229Y27996100D01*
X-27551981Y27810674D01*
X-27454497Y27641826D01*
X-27454494Y27641823D01*
X-27324043Y27496941D01*
X-27324039Y27496938D01*
X-27324037Y27496936D01*
X-27166305Y27382337D01*
X-26988192Y27303036D01*
X-26797484Y27262500D01*
X-26602516Y27262500D01*
X-26411808Y27303036D01*
X-26233695Y27382337D01*
X-26075963Y27496936D01*
X-25945503Y27641826D01*
X-25848019Y27810674D01*
X-25787771Y27996100D01*
X-25767391Y28190000D01*
X-25472609Y28190000D01*
X-25452229Y27996100D01*
X-25391981Y27810674D01*
X-25294497Y27641826D01*
X-25294494Y27641823D01*
X-25164043Y27496941D01*
X-25164039Y27496938D01*
X-25164037Y27496936D01*
X-25006305Y27382337D01*
X-24828192Y27303036D01*
X-24637484Y27262500D01*
X-24442516Y27262500D01*
X-24251808Y27303036D01*
X-24073695Y27382337D01*
X-23915963Y27496936D01*
X-23785503Y27641826D01*
X-23688019Y27810674D01*
X-23627771Y27996100D01*
X-23607391Y28190000D01*
X-23312609Y28190000D01*
X-23292229Y27996100D01*
X-23231981Y27810674D01*
X-23134497Y27641826D01*
X-23134494Y27641823D01*
X-23004043Y27496941D01*
X-23004039Y27496938D01*
X-23004037Y27496936D01*
X-22846305Y27382337D01*
X-22668192Y27303036D01*
X-22477484Y27262500D01*
X-22282516Y27262500D01*
X-22091808Y27303036D01*
X-21913695Y27382337D01*
X-21755963Y27496936D01*
X-21625503Y27641826D01*
X-21528019Y27810674D01*
X-21467771Y27996100D01*
X-21447391Y28190000D01*
X-21152609Y28190000D01*
X-21132229Y27996100D01*
X-21071981Y27810674D01*
X-20974497Y27641826D01*
X-20974494Y27641823D01*
X-20844043Y27496941D01*
X-20844039Y27496938D01*
X-20844037Y27496936D01*
X-20686305Y27382337D01*
X-20508192Y27303036D01*
X-20317484Y27262500D01*
X-20122516Y27262500D01*
X-19931808Y27303036D01*
X-19753695Y27382337D01*
X-19595963Y27496936D01*
X-19465503Y27641826D01*
X-19368019Y27810674D01*
X-19307771Y27996100D01*
X-19287391Y28190000D01*
X-18992609Y28190000D01*
X-18972229Y27996100D01*
X-18911981Y27810674D01*
X-18814497Y27641826D01*
X-18814494Y27641823D01*
X-18684043Y27496941D01*
X-18684039Y27496938D01*
X-18684037Y27496936D01*
X-18526305Y27382337D01*
X-18348192Y27303036D01*
X-18157484Y27262500D01*
X-17962516Y27262500D01*
X-17771808Y27303036D01*
X-17593695Y27382337D01*
X-17435963Y27496936D01*
X-17305503Y27641826D01*
X-17208019Y27810674D01*
X-17147771Y27996100D01*
X-17127391Y28190000D01*
X-16832609Y28190000D01*
X-16812229Y27996100D01*
X-16751981Y27810674D01*
X-16654497Y27641826D01*
X-16654494Y27641823D01*
X-16524043Y27496941D01*
X-16524039Y27496938D01*
X-16524037Y27496936D01*
X-16366305Y27382337D01*
X-16188192Y27303036D01*
X-15997484Y27262500D01*
X-15802516Y27262500D01*
X-15611808Y27303036D01*
X-15433695Y27382337D01*
X-15275963Y27496936D01*
X-15145503Y27641826D01*
X-15048019Y27810674D01*
X-14987771Y27996100D01*
X-14967391Y28190000D01*
X-14672609Y28190000D01*
X-14652229Y27996100D01*
X-14591981Y27810674D01*
X-14494497Y27641826D01*
X-14494494Y27641823D01*
X-14364043Y27496941D01*
X-14364039Y27496938D01*
X-14364037Y27496936D01*
X-14206305Y27382337D01*
X-14028192Y27303036D01*
X-13837484Y27262500D01*
X-13642516Y27262500D01*
X-13451808Y27303036D01*
X-13273695Y27382337D01*
X-13115963Y27496936D01*
X-12985503Y27641826D01*
X-12888019Y27810674D01*
X-12827771Y27996100D01*
X-12807391Y28190000D01*
X-12827771Y28383900D01*
X-12888019Y28569326D01*
X-12985503Y28738174D01*
X-13014431Y28770302D01*
X-13115958Y28883060D01*
X-13115963Y28883063D01*
X-13115963Y28883064D01*
X-13273695Y28997663D01*
X-13451808Y29076964D01*
X-13642516Y29117500D01*
X-13837484Y29117500D01*
X-14028186Y29076966D01*
X-14028195Y29076963D01*
X-14206306Y28997662D01*
X-14364039Y28883063D01*
X-14364042Y28883061D01*
X-14494494Y28738178D01*
X-14494500Y28738170D01*
X-14591979Y28569330D01*
X-14591981Y28569327D01*
X-14627885Y28458824D01*
X-14652229Y28383900D01*
X-14672609Y28190000D01*
X-14967391Y28190000D01*
X-14987771Y28383900D01*
X-15048019Y28569326D01*
X-15145503Y28738174D01*
X-15174431Y28770302D01*
X-15275958Y28883060D01*
X-15275963Y28883063D01*
X-15275963Y28883064D01*
X-15433695Y28997663D01*
X-15611808Y29076964D01*
X-15802516Y29117500D01*
X-15997484Y29117500D01*
X-16188186Y29076966D01*
X-16188195Y29076963D01*
X-16366306Y28997662D01*
X-16524039Y28883063D01*
X-16524042Y28883061D01*
X-16654494Y28738178D01*
X-16654500Y28738170D01*
X-16751979Y28569330D01*
X-16751981Y28569327D01*
X-16787885Y28458824D01*
X-16812229Y28383900D01*
X-16832609Y28190000D01*
X-17127391Y28190000D01*
X-17147771Y28383900D01*
X-17208019Y28569326D01*
X-17305503Y28738174D01*
X-17334431Y28770302D01*
X-17435958Y28883060D01*
X-17435963Y28883063D01*
X-17435963Y28883064D01*
X-17593695Y28997663D01*
X-17771808Y29076964D01*
X-17962516Y29117500D01*
X-18157484Y29117500D01*
X-18348186Y29076966D01*
X-18348195Y29076963D01*
X-18526306Y28997662D01*
X-18684039Y28883063D01*
X-18684042Y28883061D01*
X-18814494Y28738178D01*
X-18814500Y28738170D01*
X-18911979Y28569330D01*
X-18911981Y28569327D01*
X-18947885Y28458824D01*
X-18972229Y28383900D01*
X-18992609Y28190000D01*
X-19287391Y28190000D01*
X-19307771Y28383900D01*
X-19368019Y28569326D01*
X-19465503Y28738174D01*
X-19494431Y28770302D01*
X-19595958Y28883060D01*
X-19595963Y28883063D01*
X-19595963Y28883064D01*
X-19753695Y28997663D01*
X-19931808Y29076964D01*
X-20122516Y29117500D01*
X-20317484Y29117500D01*
X-20508186Y29076966D01*
X-20508195Y29076963D01*
X-20686306Y28997662D01*
X-20844039Y28883063D01*
X-20844042Y28883061D01*
X-20974494Y28738178D01*
X-20974500Y28738170D01*
X-21071979Y28569330D01*
X-21071981Y28569327D01*
X-21107885Y28458824D01*
X-21132229Y28383900D01*
X-21152609Y28190000D01*
X-21447391Y28190000D01*
X-21467771Y28383900D01*
X-21528019Y28569326D01*
X-21625503Y28738174D01*
X-21654431Y28770302D01*
X-21755958Y28883060D01*
X-21755963Y28883063D01*
X-21755963Y28883064D01*
X-21913695Y28997663D01*
X-22091808Y29076964D01*
X-22282516Y29117500D01*
X-22477484Y29117500D01*
X-22668186Y29076966D01*
X-22668195Y29076963D01*
X-22846306Y28997662D01*
X-23004039Y28883063D01*
X-23004042Y28883061D01*
X-23134494Y28738178D01*
X-23134500Y28738170D01*
X-23231979Y28569330D01*
X-23231981Y28569327D01*
X-23267885Y28458824D01*
X-23292229Y28383900D01*
X-23312609Y28190000D01*
X-23607391Y28190000D01*
X-23627771Y28383900D01*
X-23688019Y28569326D01*
X-23785503Y28738174D01*
X-23814431Y28770302D01*
X-23915958Y28883060D01*
X-23915963Y28883063D01*
X-23915963Y28883064D01*
X-24073695Y28997663D01*
X-24251808Y29076964D01*
X-24442516Y29117500D01*
X-24637484Y29117500D01*
X-24828186Y29076966D01*
X-24828195Y29076963D01*
X-25006306Y28997662D01*
X-25164039Y28883063D01*
X-25164042Y28883061D01*
X-25294494Y28738178D01*
X-25294500Y28738170D01*
X-25391979Y28569330D01*
X-25391981Y28569327D01*
X-25427885Y28458824D01*
X-25452229Y28383900D01*
X-25472609Y28190000D01*
X-25767391Y28190000D01*
X-25787771Y28383900D01*
X-25848019Y28569326D01*
X-25945503Y28738174D01*
X-25974431Y28770302D01*
X-26075958Y28883060D01*
X-26075963Y28883063D01*
X-26075963Y28883064D01*
X-26233695Y28997663D01*
X-26411808Y29076964D01*
X-26602516Y29117500D01*
X-26797484Y29117500D01*
X-26988186Y29076966D01*
X-26988195Y29076963D01*
X-27166306Y28997662D01*
X-27324039Y28883063D01*
X-27324042Y28883061D01*
X-27454494Y28738178D01*
X-27454500Y28738170D01*
X-27551979Y28569330D01*
X-27551981Y28569327D01*
X-27587885Y28458824D01*
X-27612229Y28383900D01*
X-27632609Y28190000D01*
X-27927391Y28190000D01*
X-27947771Y28383900D01*
X-28008019Y28569326D01*
X-28105503Y28738174D01*
X-28134431Y28770302D01*
X-28235958Y28883060D01*
X-28235963Y28883063D01*
X-28235963Y28883064D01*
X-28393695Y28997663D01*
X-28571808Y29076964D01*
X-28762516Y29117500D01*
X-28957484Y29117500D01*
X-29148186Y29076966D01*
X-29148195Y29076963D01*
X-29326306Y28997662D01*
X-29484039Y28883063D01*
X-29484042Y28883061D01*
X-29614494Y28738178D01*
X-29614500Y28738170D01*
X-29711979Y28569330D01*
X-29711981Y28569327D01*
X-29747885Y28458824D01*
X-29772229Y28383900D01*
X-29792609Y28190000D01*
X-32247391Y28190000D01*
X-32267771Y28383900D01*
X-32328019Y28569326D01*
X-32425503Y28738174D01*
X-32454431Y28770302D01*
X-32555958Y28883060D01*
X-32555963Y28883063D01*
X-32555963Y28883064D01*
X-32713695Y28997663D01*
X-32891808Y29076964D01*
X-33082516Y29117500D01*
X-33277484Y29117500D01*
X-33468186Y29076966D01*
X-33468195Y29076963D01*
X-33646306Y28997662D01*
X-33804039Y28883063D01*
X-33804042Y28883061D01*
X-33934494Y28738178D01*
X-33934500Y28738170D01*
X-34031979Y28569330D01*
X-34031981Y28569327D01*
X-34067885Y28458824D01*
X-34092229Y28383900D01*
X-34112609Y28190000D01*
X-36567391Y28190000D01*
X-36587771Y28383900D01*
X-36648019Y28569326D01*
X-36745503Y28738174D01*
X-36774431Y28770302D01*
X-36875958Y28883060D01*
X-36875963Y28883063D01*
X-36875963Y28883064D01*
X-37033695Y28997663D01*
X-37211808Y29076964D01*
X-37402516Y29117500D01*
X-37597484Y29117500D01*
X-37788186Y29076966D01*
X-37788195Y29076963D01*
X-37966306Y28997662D01*
X-38124039Y28883063D01*
X-38124042Y28883061D01*
X-38254494Y28738178D01*
X-38254500Y28738170D01*
X-38351979Y28569330D01*
X-38351981Y28569327D01*
X-38387885Y28458824D01*
X-38412229Y28383900D01*
X-38432609Y28190000D01*
X-43047391Y28190000D01*
X-43067771Y28383900D01*
X-43128019Y28569326D01*
X-43225503Y28738174D01*
X-43254431Y28770302D01*
X-43355958Y28883060D01*
X-43355963Y28883063D01*
X-43355963Y28883064D01*
X-43513695Y28997663D01*
X-43691808Y29076964D01*
X-43882516Y29117500D01*
X-44077484Y29117500D01*
X-44268186Y29076966D01*
X-44268195Y29076963D01*
X-44446306Y28997662D01*
X-44604039Y28883063D01*
X-44604042Y28883061D01*
X-44734494Y28738178D01*
X-44734500Y28738170D01*
X-44831979Y28569330D01*
X-44831981Y28569327D01*
X-44867885Y28458824D01*
X-44892229Y28383900D01*
X-44912609Y28190000D01*
X-45207391Y28190000D01*
X-45227771Y28383900D01*
X-45288019Y28569326D01*
X-45385503Y28738174D01*
X-45414431Y28770302D01*
X-45515958Y28883060D01*
X-45515963Y28883063D01*
X-45515963Y28883064D01*
X-45673695Y28997663D01*
X-45851808Y29076964D01*
X-46042516Y29117500D01*
X-46237484Y29117500D01*
X-46428186Y29076966D01*
X-46428195Y29076963D01*
X-46606306Y28997662D01*
X-46764039Y28883063D01*
X-46764042Y28883061D01*
X-46894494Y28738178D01*
X-46894500Y28738170D01*
X-46991979Y28569330D01*
X-46991981Y28569327D01*
X-47027885Y28458824D01*
X-47052229Y28383900D01*
X-47072609Y28190000D01*
X-47367391Y28190000D01*
X-47387771Y28383900D01*
X-47448019Y28569326D01*
X-47545503Y28738174D01*
X-47574431Y28770302D01*
X-47675958Y28883060D01*
X-47675963Y28883063D01*
X-47675963Y28883064D01*
X-47833695Y28997663D01*
X-48011808Y29076964D01*
X-48202516Y29117500D01*
X-48397484Y29117500D01*
X-48588186Y29076966D01*
X-48588195Y29076963D01*
X-48766306Y28997662D01*
X-48924039Y28883063D01*
X-48924042Y28883061D01*
X-49054494Y28738178D01*
X-49054500Y28738170D01*
X-49151979Y28569330D01*
X-49151981Y28569327D01*
X-49187885Y28458824D01*
X-49212229Y28383900D01*
X-49232609Y28190000D01*
X-49527391Y28190000D01*
X-49547771Y28383900D01*
X-49608019Y28569326D01*
X-49705503Y28738174D01*
X-49734431Y28770302D01*
X-49835958Y28883060D01*
X-49835963Y28883063D01*
X-49835963Y28883064D01*
X-49993695Y28997663D01*
X-50171808Y29076964D01*
X-50362516Y29117500D01*
X-50557484Y29117500D01*
X-50748186Y29076966D01*
X-50748195Y29076963D01*
X-50926306Y28997662D01*
X-51084039Y28883063D01*
X-51084042Y28883061D01*
X-51214494Y28738178D01*
X-51214500Y28738170D01*
X-51311979Y28569330D01*
X-51311981Y28569327D01*
X-51347885Y28458824D01*
X-51372229Y28383900D01*
X-51392609Y28190000D01*
X-51687391Y28190000D01*
X-51707771Y28383900D01*
X-51768019Y28569326D01*
X-51865503Y28738174D01*
X-51894431Y28770302D01*
X-51995958Y28883060D01*
X-51995963Y28883063D01*
X-51995963Y28883064D01*
X-52153695Y28997663D01*
X-52331808Y29076964D01*
X-52522516Y29117500D01*
X-52717484Y29117500D01*
X-52908186Y29076966D01*
X-52908195Y29076963D01*
X-53086306Y28997662D01*
X-53244039Y28883063D01*
X-53244042Y28883061D01*
X-53374494Y28738178D01*
X-53374500Y28738170D01*
X-53471979Y28569330D01*
X-53471981Y28569327D01*
X-53507885Y28458824D01*
X-53532229Y28383900D01*
X-53552609Y28190000D01*
X-53847391Y28190000D01*
X-53867771Y28383900D01*
X-53928019Y28569326D01*
X-54025503Y28738174D01*
X-54054431Y28770302D01*
X-54155958Y28883060D01*
X-54155963Y28883063D01*
X-54155963Y28883064D01*
X-54313695Y28997663D01*
X-54491808Y29076964D01*
X-54682516Y29117500D01*
X-54877484Y29117500D01*
X-55068186Y29076966D01*
X-55068195Y29076963D01*
X-55246306Y28997662D01*
X-55404039Y28883063D01*
X-55404042Y28883061D01*
X-55534494Y28738178D01*
X-55534500Y28738170D01*
X-55631979Y28569330D01*
X-55631981Y28569327D01*
X-55667885Y28458824D01*
X-55692229Y28383900D01*
X-55712609Y28190000D01*
X-56007391Y28190000D01*
X-56027771Y28383900D01*
X-56088019Y28569326D01*
X-56185503Y28738174D01*
X-56214431Y28770302D01*
X-56315958Y28883060D01*
X-56315963Y28883063D01*
X-56315963Y28883064D01*
X-56473695Y28997663D01*
X-56651808Y29076964D01*
X-56842516Y29117500D01*
X-57037484Y29117500D01*
X-57228186Y29076966D01*
X-57228195Y29076963D01*
X-57406306Y28997662D01*
X-57564039Y28883063D01*
X-57564042Y28883061D01*
X-57694494Y28738178D01*
X-57694500Y28738170D01*
X-57791979Y28569330D01*
X-57791981Y28569327D01*
X-57827885Y28458824D01*
X-57852229Y28383900D01*
X-57872609Y28190000D01*
X-58167391Y28190000D01*
X-58187771Y28383900D01*
X-58248019Y28569326D01*
X-58345503Y28738174D01*
X-58374431Y28770302D01*
X-58475958Y28883060D01*
X-58475963Y28883063D01*
X-58475963Y28883064D01*
X-58633695Y28997663D01*
X-58811808Y29076964D01*
X-59002516Y29117500D01*
X-59197484Y29117500D01*
X-59388186Y29076966D01*
X-59388195Y29076963D01*
X-59566306Y28997662D01*
X-59724039Y28883063D01*
X-59724042Y28883061D01*
X-59854494Y28738178D01*
X-59854500Y28738170D01*
X-59951979Y28569330D01*
X-59951981Y28569327D01*
X-59987885Y28458824D01*
X-60012229Y28383900D01*
X-60032609Y28190000D01*
X-60327391Y28190000D01*
X-60347771Y28383900D01*
X-60408019Y28569326D01*
X-60505503Y28738174D01*
X-60534431Y28770302D01*
X-60635958Y28883060D01*
X-60635963Y28883063D01*
X-60635963Y28883064D01*
X-60793695Y28997663D01*
X-60971808Y29076964D01*
X-61162516Y29117500D01*
X-61357484Y29117500D01*
X-61548186Y29076966D01*
X-61548195Y29076963D01*
X-61726306Y28997662D01*
X-61884039Y28883063D01*
X-61884042Y28883061D01*
X-62014494Y28738178D01*
X-62014500Y28738170D01*
X-62111979Y28569330D01*
X-62111981Y28569327D01*
X-62147885Y28458824D01*
X-62172229Y28383900D01*
X-62192609Y28190000D01*
X-73735965Y28190000D01*
X-73878712Y28268476D01*
X-73977575Y28307619D01*
X-74165636Y28382078D01*
X-74464540Y28458824D01*
X-74770700Y28497500D01*
X-74770702Y28497500D01*
X-75079298Y28497500D01*
X-75079301Y28497500D01*
X-75385461Y28458824D01*
X-75684365Y28382078D01*
X-75971291Y28268475D01*
X-76241715Y28119807D01*
X-76241721Y28119803D01*
X-76491370Y27938423D01*
X-76491378Y27938417D01*
X-76716329Y27727173D01*
X-76716336Y27727165D01*
X-76913040Y27489391D01*
X-77078391Y27228838D01*
X-77209786Y26949610D01*
X-77305149Y26656115D01*
X-77362973Y26352985D01*
X-77382349Y26045005D01*
X-79699500Y26045005D01*
X-79699500Y31998397D01*
X-79699395Y32001602D01*
X-79684315Y32231682D01*
X-79683482Y32238016D01*
X-79638807Y32462614D01*
X-79637159Y32468767D01*
X-79563549Y32685611D01*
X-79561104Y32691513D01*
X-79459826Y32896886D01*
X-79456638Y32902407D01*
X-79329419Y33092804D01*
X-79325527Y33097876D01*
X-79174549Y33270034D01*
X-79170034Y33274549D01*
X-78997876Y33425527D01*
X-78992804Y33429419D01*
X-78802407Y33556638D01*
X-78796886Y33559826D01*
X-78591513Y33661104D01*
X-78585611Y33663549D01*
X-78368767Y33737159D01*
X-78362614Y33738807D01*
X-78138016Y33783482D01*
X-78131686Y33784315D01*
X-77901602Y33799396D01*
X-77898397Y33799500D01*
X-77860118Y33799500D01*
X2860118Y33799500D01*
X2898397Y33799500D01*
X2901601Y33799396D01*
G37*
G04 #@! TD.AperFunction*
G04 #@! TD*
M02*
