G04 #@! TF.GenerationSoftware,KiCad,Pcbnew,8.0.6*
G04 #@! TF.CreationDate,2024-11-07T02:26:34-08:00*
G04 #@! TF.ProjectId,hvd-50-ce,6876642d-3530-42d6-9365-2e6b69636164,1*
G04 #@! TF.SameCoordinates,Original*
G04 #@! TF.FileFunction,Soldermask,Bot*
G04 #@! TF.FilePolarity,Negative*
%FSLAX46Y46*%
G04 Gerber Fmt 4.6, Leading zero omitted, Abs format (unit mm)*
G04 Created by KiCad (PCBNEW 8.0.6) date 2024-11-07 02:26:34*
%MOMM*%
%LPD*%
G01*
G04 APERTURE LIST*
%ADD10C,0.800000*%
%ADD11C,1.200000*%
%ADD12C,1.700000*%
%ADD13C,4.750000*%
%ADD14C,6.500000*%
%ADD15C,2.300000*%
%ADD16C,2.700000*%
%ADD17C,1.950000*%
G04 APERTURE END LIST*
D10*
G04 #@! TO.C,J1*
X-15400000Y4000000D03*
D11*
X-59600000Y4000000D03*
G04 #@! TD*
D12*
G04 #@! TO.C,J5*
X-63420000Y23900000D03*
X-61260000Y23900000D03*
X-59100000Y23900000D03*
X-56940000Y23900000D03*
X-54780000Y23900000D03*
X-52620000Y23900000D03*
X-50460000Y23900000D03*
X-48300000Y23900000D03*
X-46140000Y23900000D03*
X-43980000Y23900000D03*
X-41820000Y23900000D03*
X-39660000Y23900000D03*
X-37500000Y23900000D03*
X-35340000Y23900000D03*
X-33180000Y23900000D03*
X-31020000Y23900000D03*
X-28860000Y23900000D03*
X-26700000Y23900000D03*
X-24540000Y23900000D03*
X-22380000Y23900000D03*
X-20220000Y23900000D03*
X-18060000Y23900000D03*
X-15900000Y23900000D03*
X-13740000Y23900000D03*
X-11580000Y23900000D03*
X-63420000Y28190000D03*
X-61260000Y28190000D03*
X-59100000Y28190000D03*
X-56940000Y28190000D03*
X-54780000Y28190000D03*
X-52620000Y28190000D03*
X-50460000Y28190000D03*
X-48300000Y28190000D03*
X-46140000Y28190000D03*
X-43980000Y28190000D03*
X-41820000Y28190000D03*
X-39660000Y28190000D03*
X-37500000Y28190000D03*
X-35340000Y28190000D03*
X-33180000Y28190000D03*
X-31020000Y28190000D03*
X-28860000Y28190000D03*
X-26700000Y28190000D03*
X-24540000Y28190000D03*
X-22380000Y28190000D03*
X-20220000Y28190000D03*
X-18060000Y28190000D03*
X-15900000Y28190000D03*
X-13740000Y28190000D03*
X-11580000Y28190000D03*
D13*
X-75000Y26045000D03*
X-74925000Y26045000D03*
G04 #@! TD*
D14*
G04 #@! TO.C,H4*
X-4000000Y4000000D03*
G04 #@! TD*
D15*
G04 #@! TO.C,J3*
X-72440000Y10870000D03*
D16*
X-69900000Y17340000D03*
D17*
X-72440000Y16010000D03*
X-69900000Y14740000D03*
X-72440000Y13470000D03*
X-69900000Y12200000D03*
G04 #@! TD*
D14*
G04 #@! TO.C,H3*
X-71000000Y4000000D03*
G04 #@! TD*
G36*
X-56961Y17330315D02*
G01*
X-11206Y17277511D01*
X0Y17226000D01*
X0Y8274000D01*
X-19685Y8206961D01*
X-72489Y8161206D01*
X-124000Y8150000D01*
X-2376000Y8150000D01*
X-2443039Y8169685D01*
X-2488794Y8222489D01*
X-2500000Y8274000D01*
X-2500000Y17226000D01*
X-2480315Y17293039D01*
X-2427511Y17338794D01*
X-2376000Y17350000D01*
X-124000Y17350000D01*
X-56961Y17330315D01*
G37*
M02*
