G04 #@! TF.GenerationSoftware,KiCad,Pcbnew,8.0.6*
G04 #@! TF.CreationDate,2024-11-07T02:27:03-08:00*
G04 #@! TF.ProjectId,hvd-68-hd-panel,6876642d-3638-42d6-9864-2d70616e656c,1*
G04 #@! TF.SameCoordinates,Original*
G04 #@! TF.FileFunction,AssemblyDrawing,Top*
%FSLAX46Y46*%
G04 Gerber Fmt 4.6, Leading zero omitted, Abs format (unit mm)*
G04 Created by KiCad (PCBNEW 8.0.6) date 2024-11-07 02:27:03*
%MOMM*%
%LPD*%
G01*
G04 APERTURE LIST*
%ADD10C,0.100000*%
%ADD11C,0.150000*%
%ADD12C,0.000000*%
%ADD13C,0.050000*%
G04 APERTURE END LIST*
D10*
X-2466667Y122294581D02*
X-2800000Y122770772D01*
X-3038095Y122294581D02*
X-3038095Y123294581D01*
X-3038095Y123294581D02*
X-2657143Y123294581D01*
X-2657143Y123294581D02*
X-2561905Y123246962D01*
X-2561905Y123246962D02*
X-2514286Y123199343D01*
X-2514286Y123199343D02*
X-2466667Y123104105D01*
X-2466667Y123104105D02*
X-2466667Y122961248D01*
X-2466667Y122961248D02*
X-2514286Y122866010D01*
X-2514286Y122866010D02*
X-2561905Y122818391D01*
X-2561905Y122818391D02*
X-2657143Y122770772D01*
X-2657143Y122770772D02*
X-3038095Y122770772D01*
X-1609524Y122961248D02*
X-1609524Y122294581D01*
X-1847619Y123342200D02*
X-2085714Y122627915D01*
X-2085714Y122627915D02*
X-1466667Y122627915D01*
D11*
X-71761905Y54547181D02*
X-71761905Y55547181D01*
X-71761905Y55070991D02*
X-71190477Y55070991D01*
X-71190477Y54547181D02*
X-71190477Y55547181D01*
X-70809524Y55547181D02*
X-70190477Y55547181D01*
X-70190477Y55547181D02*
X-70523810Y55166229D01*
X-70523810Y55166229D02*
X-70380953Y55166229D01*
X-70380953Y55166229D02*
X-70285715Y55118610D01*
X-70285715Y55118610D02*
X-70238096Y55070991D01*
X-70238096Y55070991D02*
X-70190477Y54975753D01*
X-70190477Y54975753D02*
X-70190477Y54737658D01*
X-70190477Y54737658D02*
X-70238096Y54642420D01*
X-70238096Y54642420D02*
X-70285715Y54594800D01*
X-70285715Y54594800D02*
X-70380953Y54547181D01*
X-70380953Y54547181D02*
X-70666667Y54547181D01*
X-70666667Y54547181D02*
X-70761905Y54594800D01*
X-70761905Y54594800D02*
X-70809524Y54642420D01*
D10*
X-71542581Y15668667D02*
X-70828296Y15668667D01*
X-70828296Y15668667D02*
X-70685439Y15621048D01*
X-70685439Y15621048D02*
X-70590200Y15525810D01*
X-70590200Y15525810D02*
X-70542581Y15382953D01*
X-70542581Y15382953D02*
X-70542581Y15287715D01*
X-71542581Y16049620D02*
X-71542581Y16668667D01*
X-71542581Y16668667D02*
X-71161629Y16335334D01*
X-71161629Y16335334D02*
X-71161629Y16478191D01*
X-71161629Y16478191D02*
X-71114010Y16573429D01*
X-71114010Y16573429D02*
X-71066391Y16621048D01*
X-71066391Y16621048D02*
X-70971153Y16668667D01*
X-70971153Y16668667D02*
X-70733058Y16668667D01*
X-70733058Y16668667D02*
X-70637820Y16621048D01*
X-70637820Y16621048D02*
X-70590200Y16573429D01*
X-70590200Y16573429D02*
X-70542581Y16478191D01*
X-70542581Y16478191D02*
X-70542581Y16192477D01*
X-70542581Y16192477D02*
X-70590200Y16097239D01*
X-70590200Y16097239D02*
X-70637820Y16049620D01*
D11*
X-67000421Y19273905D02*
X-66952801Y19226286D01*
X-66952801Y19226286D02*
X-66905182Y19083429D01*
X-66905182Y19083429D02*
X-66905182Y18988191D01*
X-66905182Y18988191D02*
X-66952801Y18845334D01*
X-66952801Y18845334D02*
X-67048040Y18750096D01*
X-67048040Y18750096D02*
X-67143278Y18702477D01*
X-67143278Y18702477D02*
X-67333754Y18654858D01*
X-67333754Y18654858D02*
X-67476611Y18654858D01*
X-67476611Y18654858D02*
X-67667087Y18702477D01*
X-67667087Y18702477D02*
X-67762325Y18750096D01*
X-67762325Y18750096D02*
X-67857563Y18845334D01*
X-67857563Y18845334D02*
X-67905182Y18988191D01*
X-67905182Y18988191D02*
X-67905182Y19083429D01*
X-67905182Y19083429D02*
X-67857563Y19226286D01*
X-67857563Y19226286D02*
X-67809944Y19273905D01*
X-66905182Y19845334D02*
X-66952801Y19750096D01*
X-66952801Y19750096D02*
X-67000421Y19702477D01*
X-67000421Y19702477D02*
X-67095659Y19654858D01*
X-67095659Y19654858D02*
X-67381373Y19654858D01*
X-67381373Y19654858D02*
X-67476611Y19702477D01*
X-67476611Y19702477D02*
X-67524230Y19750096D01*
X-67524230Y19750096D02*
X-67571849Y19845334D01*
X-67571849Y19845334D02*
X-67571849Y19988191D01*
X-67571849Y19988191D02*
X-67524230Y20083429D01*
X-67524230Y20083429D02*
X-67476611Y20131048D01*
X-67476611Y20131048D02*
X-67381373Y20178667D01*
X-67381373Y20178667D02*
X-67095659Y20178667D01*
X-67095659Y20178667D02*
X-67000421Y20131048D01*
X-67000421Y20131048D02*
X-66952801Y20083429D01*
X-66952801Y20083429D02*
X-66905182Y19988191D01*
X-66905182Y19988191D02*
X-66905182Y19845334D01*
X-67571849Y20607239D02*
X-66905182Y20607239D01*
X-67476611Y20607239D02*
X-67524230Y20654858D01*
X-67524230Y20654858D02*
X-67571849Y20750096D01*
X-67571849Y20750096D02*
X-67571849Y20892953D01*
X-67571849Y20892953D02*
X-67524230Y20988191D01*
X-67524230Y20988191D02*
X-67428992Y21035810D01*
X-67428992Y21035810D02*
X-66905182Y21035810D01*
X-67571849Y21512001D02*
X-66905182Y21512001D01*
X-67476611Y21512001D02*
X-67524230Y21559620D01*
X-67524230Y21559620D02*
X-67571849Y21654858D01*
X-67571849Y21654858D02*
X-67571849Y21797715D01*
X-67571849Y21797715D02*
X-67524230Y21892953D01*
X-67524230Y21892953D02*
X-67428992Y21940572D01*
X-67428992Y21940572D02*
X-66905182Y21940572D01*
X-66809944Y22178667D02*
X-66809944Y22940572D01*
X-67905182Y23369144D02*
X-67905182Y23464382D01*
X-67905182Y23464382D02*
X-67857563Y23559620D01*
X-67857563Y23559620D02*
X-67809944Y23607239D01*
X-67809944Y23607239D02*
X-67714706Y23654858D01*
X-67714706Y23654858D02*
X-67524230Y23702477D01*
X-67524230Y23702477D02*
X-67286135Y23702477D01*
X-67286135Y23702477D02*
X-67095659Y23654858D01*
X-67095659Y23654858D02*
X-67000421Y23607239D01*
X-67000421Y23607239D02*
X-66952801Y23559620D01*
X-66952801Y23559620D02*
X-66905182Y23464382D01*
X-66905182Y23464382D02*
X-66905182Y23369144D01*
X-66905182Y23369144D02*
X-66952801Y23273906D01*
X-66952801Y23273906D02*
X-67000421Y23226287D01*
X-67000421Y23226287D02*
X-67095659Y23178668D01*
X-67095659Y23178668D02*
X-67286135Y23131049D01*
X-67286135Y23131049D02*
X-67524230Y23131049D01*
X-67524230Y23131049D02*
X-67714706Y23178668D01*
X-67714706Y23178668D02*
X-67809944Y23226287D01*
X-67809944Y23226287D02*
X-67857563Y23273906D01*
X-67857563Y23273906D02*
X-67905182Y23369144D01*
X-66905182Y24654858D02*
X-66905182Y24083430D01*
X-66905182Y24369144D02*
X-67905182Y24369144D01*
X-67905182Y24369144D02*
X-67762325Y24273906D01*
X-67762325Y24273906D02*
X-67667087Y24178668D01*
X-67667087Y24178668D02*
X-67619468Y24083430D01*
X-66905182Y24988192D02*
X-67571849Y25512001D01*
X-67571849Y24988192D02*
X-66905182Y25512001D01*
X-67905182Y26083430D02*
X-67905182Y26178668D01*
X-67905182Y26178668D02*
X-67857563Y26273906D01*
X-67857563Y26273906D02*
X-67809944Y26321525D01*
X-67809944Y26321525D02*
X-67714706Y26369144D01*
X-67714706Y26369144D02*
X-67524230Y26416763D01*
X-67524230Y26416763D02*
X-67286135Y26416763D01*
X-67286135Y26416763D02*
X-67095659Y26369144D01*
X-67095659Y26369144D02*
X-67000421Y26321525D01*
X-67000421Y26321525D02*
X-66952801Y26273906D01*
X-66952801Y26273906D02*
X-66905182Y26178668D01*
X-66905182Y26178668D02*
X-66905182Y26083430D01*
X-66905182Y26083430D02*
X-66952801Y25988192D01*
X-66952801Y25988192D02*
X-67000421Y25940573D01*
X-67000421Y25940573D02*
X-67095659Y25892954D01*
X-67095659Y25892954D02*
X-67286135Y25845335D01*
X-67286135Y25845335D02*
X-67524230Y25845335D01*
X-67524230Y25845335D02*
X-67714706Y25892954D01*
X-67714706Y25892954D02*
X-67809944Y25940573D01*
X-67809944Y25940573D02*
X-67857563Y25988192D01*
X-67857563Y25988192D02*
X-67905182Y26083430D01*
X-67571849Y27273906D02*
X-66905182Y27273906D01*
X-67952801Y27035811D02*
X-67238516Y26797716D01*
X-67238516Y26797716D02*
X-67238516Y27416763D01*
X-71715181Y20773667D02*
X-71000896Y20773667D01*
X-71000896Y20773667D02*
X-70858039Y20726048D01*
X-70858039Y20726048D02*
X-70762800Y20630810D01*
X-70762800Y20630810D02*
X-70715181Y20487953D01*
X-70715181Y20487953D02*
X-70715181Y20392715D01*
X-71715181Y21154620D02*
X-71715181Y21773667D01*
X-71715181Y21773667D02*
X-71334229Y21440334D01*
X-71334229Y21440334D02*
X-71334229Y21583191D01*
X-71334229Y21583191D02*
X-71286610Y21678429D01*
X-71286610Y21678429D02*
X-71238991Y21726048D01*
X-71238991Y21726048D02*
X-71143753Y21773667D01*
X-71143753Y21773667D02*
X-70905658Y21773667D01*
X-70905658Y21773667D02*
X-70810420Y21726048D01*
X-70810420Y21726048D02*
X-70762800Y21678429D01*
X-70762800Y21678429D02*
X-70715181Y21583191D01*
X-70715181Y21583191D02*
X-70715181Y21297477D01*
X-70715181Y21297477D02*
X-70762800Y21202239D01*
X-70762800Y21202239D02*
X-70810420Y21154620D01*
D10*
X-65642582Y22435334D02*
X-66118773Y22102001D01*
X-65642582Y21863906D02*
X-66642582Y21863906D01*
X-66642582Y21863906D02*
X-66642582Y22244858D01*
X-66642582Y22244858D02*
X-66594963Y22340096D01*
X-66594963Y22340096D02*
X-66547344Y22387715D01*
X-66547344Y22387715D02*
X-66452106Y22435334D01*
X-66452106Y22435334D02*
X-66309249Y22435334D01*
X-66309249Y22435334D02*
X-66214011Y22387715D01*
X-66214011Y22387715D02*
X-66166392Y22340096D01*
X-66166392Y22340096D02*
X-66118773Y22244858D01*
X-66118773Y22244858D02*
X-66118773Y21863906D01*
X-66547344Y22816287D02*
X-66594963Y22863906D01*
X-66594963Y22863906D02*
X-66642582Y22959144D01*
X-66642582Y22959144D02*
X-66642582Y23197239D01*
X-66642582Y23197239D02*
X-66594963Y23292477D01*
X-66594963Y23292477D02*
X-66547344Y23340096D01*
X-66547344Y23340096D02*
X-66452106Y23387715D01*
X-66452106Y23387715D02*
X-66356868Y23387715D01*
X-66356868Y23387715D02*
X-66214011Y23340096D01*
X-66214011Y23340096D02*
X-65642582Y22768668D01*
X-65642582Y22768668D02*
X-65642582Y23387715D01*
X-66787819Y10835334D02*
X-66740199Y10787715D01*
X-66740199Y10787715D02*
X-66692580Y10644858D01*
X-66692580Y10644858D02*
X-66692580Y10549620D01*
X-66692580Y10549620D02*
X-66740199Y10406763D01*
X-66740199Y10406763D02*
X-66835438Y10311525D01*
X-66835438Y10311525D02*
X-66930676Y10263906D01*
X-66930676Y10263906D02*
X-67121152Y10216287D01*
X-67121152Y10216287D02*
X-67264009Y10216287D01*
X-67264009Y10216287D02*
X-67454485Y10263906D01*
X-67454485Y10263906D02*
X-67549723Y10311525D01*
X-67549723Y10311525D02*
X-67644961Y10406763D01*
X-67644961Y10406763D02*
X-67692580Y10549620D01*
X-67692580Y10549620D02*
X-67692580Y10644858D01*
X-67692580Y10644858D02*
X-67644961Y10787715D01*
X-67644961Y10787715D02*
X-67597342Y10835334D01*
X-66692580Y11787715D02*
X-66692580Y11216287D01*
X-66692580Y11502001D02*
X-67692580Y11502001D01*
X-67692580Y11502001D02*
X-67549723Y11406763D01*
X-67549723Y11406763D02*
X-67454485Y11311525D01*
X-67454485Y11311525D02*
X-67406866Y11216287D01*
D11*
X-66645182Y54240096D02*
X-65835659Y54240096D01*
X-65835659Y54240096D02*
X-65740421Y54287715D01*
X-65740421Y54287715D02*
X-65692801Y54335334D01*
X-65692801Y54335334D02*
X-65645182Y54430572D01*
X-65645182Y54430572D02*
X-65645182Y54621048D01*
X-65645182Y54621048D02*
X-65692801Y54716286D01*
X-65692801Y54716286D02*
X-65740421Y54763905D01*
X-65740421Y54763905D02*
X-65835659Y54811524D01*
X-65835659Y54811524D02*
X-66645182Y54811524D01*
X-65645182Y55811524D02*
X-65645182Y55240096D01*
X-65645182Y55525810D02*
X-66645182Y55525810D01*
X-66645182Y55525810D02*
X-66502325Y55430572D01*
X-66502325Y55430572D02*
X-66407087Y55335334D01*
X-66407087Y55335334D02*
X-66359468Y55240096D01*
X-4761905Y10547181D02*
X-4761905Y11547181D01*
X-4761905Y11070991D02*
X-4190477Y11070991D01*
X-4190477Y10547181D02*
X-4190477Y11547181D01*
X-3285715Y11213848D02*
X-3285715Y10547181D01*
X-3523810Y11594800D02*
X-3761905Y10880515D01*
X-3761905Y10880515D02*
X-3142858Y10880515D01*
D10*
X-66787819Y54835334D02*
X-66740199Y54787715D01*
X-66740199Y54787715D02*
X-66692580Y54644858D01*
X-66692580Y54644858D02*
X-66692580Y54549620D01*
X-66692580Y54549620D02*
X-66740199Y54406763D01*
X-66740199Y54406763D02*
X-66835438Y54311525D01*
X-66835438Y54311525D02*
X-66930676Y54263906D01*
X-66930676Y54263906D02*
X-67121152Y54216287D01*
X-67121152Y54216287D02*
X-67264009Y54216287D01*
X-67264009Y54216287D02*
X-67454485Y54263906D01*
X-67454485Y54263906D02*
X-67549723Y54311525D01*
X-67549723Y54311525D02*
X-67644961Y54406763D01*
X-67644961Y54406763D02*
X-67692580Y54549620D01*
X-67692580Y54549620D02*
X-67692580Y54644858D01*
X-67692580Y54644858D02*
X-67644961Y54787715D01*
X-67644961Y54787715D02*
X-67597342Y54835334D01*
X-66692580Y55787715D02*
X-66692580Y55216287D01*
X-66692580Y55502001D02*
X-67692580Y55502001D01*
X-67692580Y55502001D02*
X-67549723Y55406763D01*
X-67549723Y55406763D02*
X-67454485Y55311525D01*
X-67454485Y55311525D02*
X-67406866Y55216287D01*
X-65642582Y110435334D02*
X-66118773Y110102001D01*
X-65642582Y109863906D02*
X-66642582Y109863906D01*
X-66642582Y109863906D02*
X-66642582Y110244858D01*
X-66642582Y110244858D02*
X-66594963Y110340096D01*
X-66594963Y110340096D02*
X-66547344Y110387715D01*
X-66547344Y110387715D02*
X-66452106Y110435334D01*
X-66452106Y110435334D02*
X-66309249Y110435334D01*
X-66309249Y110435334D02*
X-66214011Y110387715D01*
X-66214011Y110387715D02*
X-66166392Y110340096D01*
X-66166392Y110340096D02*
X-66118773Y110244858D01*
X-66118773Y110244858D02*
X-66118773Y109863906D01*
X-66547344Y110816287D02*
X-66594963Y110863906D01*
X-66594963Y110863906D02*
X-66642582Y110959144D01*
X-66642582Y110959144D02*
X-66642582Y111197239D01*
X-66642582Y111197239D02*
X-66594963Y111292477D01*
X-66594963Y111292477D02*
X-66547344Y111340096D01*
X-66547344Y111340096D02*
X-66452106Y111387715D01*
X-66452106Y111387715D02*
X-66356868Y111387715D01*
X-66356868Y111387715D02*
X-66214011Y111340096D01*
X-66214011Y111340096D02*
X-65642582Y110768668D01*
X-65642582Y110768668D02*
X-65642582Y111387715D01*
D11*
X-66645182Y10240096D02*
X-65835659Y10240096D01*
X-65835659Y10240096D02*
X-65740421Y10287715D01*
X-65740421Y10287715D02*
X-65692801Y10335334D01*
X-65692801Y10335334D02*
X-65645182Y10430572D01*
X-65645182Y10430572D02*
X-65645182Y10621048D01*
X-65645182Y10621048D02*
X-65692801Y10716286D01*
X-65692801Y10716286D02*
X-65740421Y10763905D01*
X-65740421Y10763905D02*
X-65835659Y10811524D01*
X-65835659Y10811524D02*
X-66645182Y10811524D01*
X-65645182Y11811524D02*
X-65645182Y11240096D01*
X-65645182Y11525810D02*
X-66645182Y11525810D01*
X-66645182Y11525810D02*
X-66502325Y11430572D01*
X-66502325Y11430572D02*
X-66407087Y11335334D01*
X-66407087Y11335334D02*
X-66359468Y11240096D01*
D10*
X-62792580Y98835334D02*
X-63268771Y98502001D01*
X-62792580Y98263906D02*
X-63792580Y98263906D01*
X-63792580Y98263906D02*
X-63792580Y98644858D01*
X-63792580Y98644858D02*
X-63744961Y98740096D01*
X-63744961Y98740096D02*
X-63697342Y98787715D01*
X-63697342Y98787715D02*
X-63602104Y98835334D01*
X-63602104Y98835334D02*
X-63459247Y98835334D01*
X-63459247Y98835334D02*
X-63364009Y98787715D01*
X-63364009Y98787715D02*
X-63316390Y98740096D01*
X-63316390Y98740096D02*
X-63268771Y98644858D01*
X-63268771Y98644858D02*
X-63268771Y98263906D01*
X-62792580Y99787715D02*
X-62792580Y99216287D01*
X-62792580Y99502001D02*
X-63792580Y99502001D01*
X-63792580Y99502001D02*
X-63649723Y99406763D01*
X-63649723Y99406763D02*
X-63554485Y99311525D01*
X-63554485Y99311525D02*
X-63506866Y99216287D01*
D11*
X-71761905Y98547181D02*
X-71761905Y99547181D01*
X-71761905Y99070991D02*
X-71190477Y99070991D01*
X-71190477Y98547181D02*
X-71190477Y99547181D01*
X-70809524Y99547181D02*
X-70190477Y99547181D01*
X-70190477Y99547181D02*
X-70523810Y99166229D01*
X-70523810Y99166229D02*
X-70380953Y99166229D01*
X-70380953Y99166229D02*
X-70285715Y99118610D01*
X-70285715Y99118610D02*
X-70238096Y99070991D01*
X-70238096Y99070991D02*
X-70190477Y98975753D01*
X-70190477Y98975753D02*
X-70190477Y98737658D01*
X-70190477Y98737658D02*
X-70238096Y98642420D01*
X-70238096Y98642420D02*
X-70285715Y98594800D01*
X-70285715Y98594800D02*
X-70380953Y98547181D01*
X-70380953Y98547181D02*
X-70666667Y98547181D01*
X-70666667Y98547181D02*
X-70761905Y98594800D01*
X-70761905Y98594800D02*
X-70809524Y98642420D01*
X-71761905Y10547181D02*
X-71761905Y11547181D01*
X-71761905Y11070991D02*
X-71190477Y11070991D01*
X-71190477Y10547181D02*
X-71190477Y11547181D01*
X-70809524Y11547181D02*
X-70190477Y11547181D01*
X-70190477Y11547181D02*
X-70523810Y11166229D01*
X-70523810Y11166229D02*
X-70380953Y11166229D01*
X-70380953Y11166229D02*
X-70285715Y11118610D01*
X-70285715Y11118610D02*
X-70238096Y11070991D01*
X-70238096Y11070991D02*
X-70190477Y10975753D01*
X-70190477Y10975753D02*
X-70190477Y10737658D01*
X-70190477Y10737658D02*
X-70238096Y10642420D01*
X-70238096Y10642420D02*
X-70285715Y10594800D01*
X-70285715Y10594800D02*
X-70380953Y10547181D01*
X-70380953Y10547181D02*
X-70666667Y10547181D01*
X-70666667Y10547181D02*
X-70761905Y10594800D01*
X-70761905Y10594800D02*
X-70809524Y10642420D01*
D10*
X-62792580Y10835334D02*
X-63268771Y10502001D01*
X-62792580Y10263906D02*
X-63792580Y10263906D01*
X-63792580Y10263906D02*
X-63792580Y10644858D01*
X-63792580Y10644858D02*
X-63744961Y10740096D01*
X-63744961Y10740096D02*
X-63697342Y10787715D01*
X-63697342Y10787715D02*
X-63602104Y10835334D01*
X-63602104Y10835334D02*
X-63459247Y10835334D01*
X-63459247Y10835334D02*
X-63364009Y10787715D01*
X-63364009Y10787715D02*
X-63316390Y10740096D01*
X-63316390Y10740096D02*
X-63268771Y10644858D01*
X-63268771Y10644858D02*
X-63268771Y10263906D01*
X-62792580Y11787715D02*
X-62792580Y11216287D01*
X-62792580Y11502001D02*
X-63792580Y11502001D01*
X-63792580Y11502001D02*
X-63649723Y11406763D01*
X-63649723Y11406763D02*
X-63554485Y11311525D01*
X-63554485Y11311525D02*
X-63506866Y11216287D01*
X-62792580Y54835334D02*
X-63268771Y54502001D01*
X-62792580Y54263906D02*
X-63792580Y54263906D01*
X-63792580Y54263906D02*
X-63792580Y54644858D01*
X-63792580Y54644858D02*
X-63744961Y54740096D01*
X-63744961Y54740096D02*
X-63697342Y54787715D01*
X-63697342Y54787715D02*
X-63602104Y54835334D01*
X-63602104Y54835334D02*
X-63459247Y54835334D01*
X-63459247Y54835334D02*
X-63364009Y54787715D01*
X-63364009Y54787715D02*
X-63316390Y54740096D01*
X-63316390Y54740096D02*
X-63268771Y54644858D01*
X-63268771Y54644858D02*
X-63268771Y54263906D01*
X-62792580Y55787715D02*
X-62792580Y55216287D01*
X-62792580Y55502001D02*
X-63792580Y55502001D01*
X-63792580Y55502001D02*
X-63649723Y55406763D01*
X-63649723Y55406763D02*
X-63554485Y55311525D01*
X-63554485Y55311525D02*
X-63506866Y55216287D01*
D11*
X-66645182Y98240096D02*
X-65835659Y98240096D01*
X-65835659Y98240096D02*
X-65740421Y98287715D01*
X-65740421Y98287715D02*
X-65692801Y98335334D01*
X-65692801Y98335334D02*
X-65645182Y98430572D01*
X-65645182Y98430572D02*
X-65645182Y98621048D01*
X-65645182Y98621048D02*
X-65692801Y98716286D01*
X-65692801Y98716286D02*
X-65740421Y98763905D01*
X-65740421Y98763905D02*
X-65835659Y98811524D01*
X-65835659Y98811524D02*
X-66645182Y98811524D01*
X-65645182Y99811524D02*
X-65645182Y99240096D01*
X-65645182Y99525810D02*
X-66645182Y99525810D01*
X-66645182Y99525810D02*
X-66502325Y99430572D01*
X-66502325Y99430572D02*
X-66407087Y99335334D01*
X-66407087Y99335334D02*
X-66359468Y99240096D01*
D10*
X-67842580Y18135334D02*
X-68318771Y17802001D01*
X-67842580Y17563906D02*
X-68842580Y17563906D01*
X-68842580Y17563906D02*
X-68842580Y17944858D01*
X-68842580Y17944858D02*
X-68794961Y18040096D01*
X-68794961Y18040096D02*
X-68747342Y18087715D01*
X-68747342Y18087715D02*
X-68652104Y18135334D01*
X-68652104Y18135334D02*
X-68509247Y18135334D01*
X-68509247Y18135334D02*
X-68414009Y18087715D01*
X-68414009Y18087715D02*
X-68366390Y18040096D01*
X-68366390Y18040096D02*
X-68318771Y17944858D01*
X-68318771Y17944858D02*
X-68318771Y17563906D01*
X-68842580Y18468668D02*
X-68842580Y19087715D01*
X-68842580Y19087715D02*
X-68461628Y18754382D01*
X-68461628Y18754382D02*
X-68461628Y18897239D01*
X-68461628Y18897239D02*
X-68414009Y18992477D01*
X-68414009Y18992477D02*
X-68366390Y19040096D01*
X-68366390Y19040096D02*
X-68271152Y19087715D01*
X-68271152Y19087715D02*
X-68033057Y19087715D01*
X-68033057Y19087715D02*
X-67937819Y19040096D01*
X-67937819Y19040096D02*
X-67890199Y18992477D01*
X-67890199Y18992477D02*
X-67842580Y18897239D01*
X-67842580Y18897239D02*
X-67842580Y18611525D01*
X-67842580Y18611525D02*
X-67890199Y18516287D01*
X-67890199Y18516287D02*
X-67937819Y18468668D01*
X-66787819Y98835334D02*
X-66740199Y98787715D01*
X-66740199Y98787715D02*
X-66692580Y98644858D01*
X-66692580Y98644858D02*
X-66692580Y98549620D01*
X-66692580Y98549620D02*
X-66740199Y98406763D01*
X-66740199Y98406763D02*
X-66835438Y98311525D01*
X-66835438Y98311525D02*
X-66930676Y98263906D01*
X-66930676Y98263906D02*
X-67121152Y98216287D01*
X-67121152Y98216287D02*
X-67264009Y98216287D01*
X-67264009Y98216287D02*
X-67454485Y98263906D01*
X-67454485Y98263906D02*
X-67549723Y98311525D01*
X-67549723Y98311525D02*
X-67644961Y98406763D01*
X-67644961Y98406763D02*
X-67692580Y98549620D01*
X-67692580Y98549620D02*
X-67692580Y98644858D01*
X-67692580Y98644858D02*
X-67644961Y98787715D01*
X-67644961Y98787715D02*
X-67597342Y98835334D01*
X-66692580Y99787715D02*
X-66692580Y99216287D01*
X-66692580Y99502001D02*
X-67692580Y99502001D01*
X-67692580Y99502001D02*
X-67549723Y99406763D01*
X-67549723Y99406763D02*
X-67454485Y99311525D01*
X-67454485Y99311525D02*
X-67406866Y99216287D01*
X-67842580Y62135334D02*
X-68318771Y61802001D01*
X-67842580Y61563906D02*
X-68842580Y61563906D01*
X-68842580Y61563906D02*
X-68842580Y61944858D01*
X-68842580Y61944858D02*
X-68794961Y62040096D01*
X-68794961Y62040096D02*
X-68747342Y62087715D01*
X-68747342Y62087715D02*
X-68652104Y62135334D01*
X-68652104Y62135334D02*
X-68509247Y62135334D01*
X-68509247Y62135334D02*
X-68414009Y62087715D01*
X-68414009Y62087715D02*
X-68366390Y62040096D01*
X-68366390Y62040096D02*
X-68318771Y61944858D01*
X-68318771Y61944858D02*
X-68318771Y61563906D01*
X-68842580Y62468668D02*
X-68842580Y63087715D01*
X-68842580Y63087715D02*
X-68461628Y62754382D01*
X-68461628Y62754382D02*
X-68461628Y62897239D01*
X-68461628Y62897239D02*
X-68414009Y62992477D01*
X-68414009Y62992477D02*
X-68366390Y63040096D01*
X-68366390Y63040096D02*
X-68271152Y63087715D01*
X-68271152Y63087715D02*
X-68033057Y63087715D01*
X-68033057Y63087715D02*
X-67937819Y63040096D01*
X-67937819Y63040096D02*
X-67890199Y62992477D01*
X-67890199Y62992477D02*
X-67842580Y62897239D01*
X-67842580Y62897239D02*
X-67842580Y62611525D01*
X-67842580Y62611525D02*
X-67890199Y62516287D01*
X-67890199Y62516287D02*
X-67937819Y62468668D01*
X-2466667Y123689820D02*
X-2514286Y123642200D01*
X-2514286Y123642200D02*
X-2657143Y123594581D01*
X-2657143Y123594581D02*
X-2752381Y123594581D01*
X-2752381Y123594581D02*
X-2895238Y123642200D01*
X-2895238Y123642200D02*
X-2990476Y123737439D01*
X-2990476Y123737439D02*
X-3038095Y123832677D01*
X-3038095Y123832677D02*
X-3085714Y124023153D01*
X-3085714Y124023153D02*
X-3085714Y124166010D01*
X-3085714Y124166010D02*
X-3038095Y124356486D01*
X-3038095Y124356486D02*
X-2990476Y124451724D01*
X-2990476Y124451724D02*
X-2895238Y124546962D01*
X-2895238Y124546962D02*
X-2752381Y124594581D01*
X-2752381Y124594581D02*
X-2657143Y124594581D01*
X-2657143Y124594581D02*
X-2514286Y124546962D01*
X-2514286Y124546962D02*
X-2466667Y124499343D01*
X-2085714Y124499343D02*
X-2038095Y124546962D01*
X-2038095Y124546962D02*
X-1942857Y124594581D01*
X-1942857Y124594581D02*
X-1704762Y124594581D01*
X-1704762Y124594581D02*
X-1609524Y124546962D01*
X-1609524Y124546962D02*
X-1561905Y124499343D01*
X-1561905Y124499343D02*
X-1514286Y124404105D01*
X-1514286Y124404105D02*
X-1514286Y124308867D01*
X-1514286Y124308867D02*
X-1561905Y124166010D01*
X-1561905Y124166010D02*
X-2133333Y123594581D01*
X-2133333Y123594581D02*
X-1514286Y123594581D01*
X-71542581Y103668667D02*
X-70828296Y103668667D01*
X-70828296Y103668667D02*
X-70685439Y103621048D01*
X-70685439Y103621048D02*
X-70590200Y103525810D01*
X-70590200Y103525810D02*
X-70542581Y103382953D01*
X-70542581Y103382953D02*
X-70542581Y103287715D01*
X-71542581Y104049620D02*
X-71542581Y104668667D01*
X-71542581Y104668667D02*
X-71161629Y104335334D01*
X-71161629Y104335334D02*
X-71161629Y104478191D01*
X-71161629Y104478191D02*
X-71114010Y104573429D01*
X-71114010Y104573429D02*
X-71066391Y104621048D01*
X-71066391Y104621048D02*
X-70971153Y104668667D01*
X-70971153Y104668667D02*
X-70733058Y104668667D01*
X-70733058Y104668667D02*
X-70637820Y104621048D01*
X-70637820Y104621048D02*
X-70590200Y104573429D01*
X-70590200Y104573429D02*
X-70542581Y104478191D01*
X-70542581Y104478191D02*
X-70542581Y104192477D01*
X-70542581Y104192477D02*
X-70590200Y104097239D01*
X-70590200Y104097239D02*
X-70637820Y104049620D01*
D11*
X-67000421Y107273905D02*
X-66952801Y107226286D01*
X-66952801Y107226286D02*
X-66905182Y107083429D01*
X-66905182Y107083429D02*
X-66905182Y106988191D01*
X-66905182Y106988191D02*
X-66952801Y106845334D01*
X-66952801Y106845334D02*
X-67048040Y106750096D01*
X-67048040Y106750096D02*
X-67143278Y106702477D01*
X-67143278Y106702477D02*
X-67333754Y106654858D01*
X-67333754Y106654858D02*
X-67476611Y106654858D01*
X-67476611Y106654858D02*
X-67667087Y106702477D01*
X-67667087Y106702477D02*
X-67762325Y106750096D01*
X-67762325Y106750096D02*
X-67857563Y106845334D01*
X-67857563Y106845334D02*
X-67905182Y106988191D01*
X-67905182Y106988191D02*
X-67905182Y107083429D01*
X-67905182Y107083429D02*
X-67857563Y107226286D01*
X-67857563Y107226286D02*
X-67809944Y107273905D01*
X-66905182Y107845334D02*
X-66952801Y107750096D01*
X-66952801Y107750096D02*
X-67000421Y107702477D01*
X-67000421Y107702477D02*
X-67095659Y107654858D01*
X-67095659Y107654858D02*
X-67381373Y107654858D01*
X-67381373Y107654858D02*
X-67476611Y107702477D01*
X-67476611Y107702477D02*
X-67524230Y107750096D01*
X-67524230Y107750096D02*
X-67571849Y107845334D01*
X-67571849Y107845334D02*
X-67571849Y107988191D01*
X-67571849Y107988191D02*
X-67524230Y108083429D01*
X-67524230Y108083429D02*
X-67476611Y108131048D01*
X-67476611Y108131048D02*
X-67381373Y108178667D01*
X-67381373Y108178667D02*
X-67095659Y108178667D01*
X-67095659Y108178667D02*
X-67000421Y108131048D01*
X-67000421Y108131048D02*
X-66952801Y108083429D01*
X-66952801Y108083429D02*
X-66905182Y107988191D01*
X-66905182Y107988191D02*
X-66905182Y107845334D01*
X-67571849Y108607239D02*
X-66905182Y108607239D01*
X-67476611Y108607239D02*
X-67524230Y108654858D01*
X-67524230Y108654858D02*
X-67571849Y108750096D01*
X-67571849Y108750096D02*
X-67571849Y108892953D01*
X-67571849Y108892953D02*
X-67524230Y108988191D01*
X-67524230Y108988191D02*
X-67428992Y109035810D01*
X-67428992Y109035810D02*
X-66905182Y109035810D01*
X-67571849Y109512001D02*
X-66905182Y109512001D01*
X-67476611Y109512001D02*
X-67524230Y109559620D01*
X-67524230Y109559620D02*
X-67571849Y109654858D01*
X-67571849Y109654858D02*
X-67571849Y109797715D01*
X-67571849Y109797715D02*
X-67524230Y109892953D01*
X-67524230Y109892953D02*
X-67428992Y109940572D01*
X-67428992Y109940572D02*
X-66905182Y109940572D01*
X-66809944Y110178667D02*
X-66809944Y110940572D01*
X-67905182Y111369144D02*
X-67905182Y111464382D01*
X-67905182Y111464382D02*
X-67857563Y111559620D01*
X-67857563Y111559620D02*
X-67809944Y111607239D01*
X-67809944Y111607239D02*
X-67714706Y111654858D01*
X-67714706Y111654858D02*
X-67524230Y111702477D01*
X-67524230Y111702477D02*
X-67286135Y111702477D01*
X-67286135Y111702477D02*
X-67095659Y111654858D01*
X-67095659Y111654858D02*
X-67000421Y111607239D01*
X-67000421Y111607239D02*
X-66952801Y111559620D01*
X-66952801Y111559620D02*
X-66905182Y111464382D01*
X-66905182Y111464382D02*
X-66905182Y111369144D01*
X-66905182Y111369144D02*
X-66952801Y111273906D01*
X-66952801Y111273906D02*
X-67000421Y111226287D01*
X-67000421Y111226287D02*
X-67095659Y111178668D01*
X-67095659Y111178668D02*
X-67286135Y111131049D01*
X-67286135Y111131049D02*
X-67524230Y111131049D01*
X-67524230Y111131049D02*
X-67714706Y111178668D01*
X-67714706Y111178668D02*
X-67809944Y111226287D01*
X-67809944Y111226287D02*
X-67857563Y111273906D01*
X-67857563Y111273906D02*
X-67905182Y111369144D01*
X-66905182Y112654858D02*
X-66905182Y112083430D01*
X-66905182Y112369144D02*
X-67905182Y112369144D01*
X-67905182Y112369144D02*
X-67762325Y112273906D01*
X-67762325Y112273906D02*
X-67667087Y112178668D01*
X-67667087Y112178668D02*
X-67619468Y112083430D01*
X-66905182Y112988192D02*
X-67571849Y113512001D01*
X-67571849Y112988192D02*
X-66905182Y113512001D01*
X-67905182Y114083430D02*
X-67905182Y114178668D01*
X-67905182Y114178668D02*
X-67857563Y114273906D01*
X-67857563Y114273906D02*
X-67809944Y114321525D01*
X-67809944Y114321525D02*
X-67714706Y114369144D01*
X-67714706Y114369144D02*
X-67524230Y114416763D01*
X-67524230Y114416763D02*
X-67286135Y114416763D01*
X-67286135Y114416763D02*
X-67095659Y114369144D01*
X-67095659Y114369144D02*
X-67000421Y114321525D01*
X-67000421Y114321525D02*
X-66952801Y114273906D01*
X-66952801Y114273906D02*
X-66905182Y114178668D01*
X-66905182Y114178668D02*
X-66905182Y114083430D01*
X-66905182Y114083430D02*
X-66952801Y113988192D01*
X-66952801Y113988192D02*
X-67000421Y113940573D01*
X-67000421Y113940573D02*
X-67095659Y113892954D01*
X-67095659Y113892954D02*
X-67286135Y113845335D01*
X-67286135Y113845335D02*
X-67524230Y113845335D01*
X-67524230Y113845335D02*
X-67714706Y113892954D01*
X-67714706Y113892954D02*
X-67809944Y113940573D01*
X-67809944Y113940573D02*
X-67857563Y113988192D01*
X-67857563Y113988192D02*
X-67905182Y114083430D01*
X-67571849Y115273906D02*
X-66905182Y115273906D01*
X-67952801Y115035811D02*
X-67238516Y114797716D01*
X-67238516Y114797716D02*
X-67238516Y115416763D01*
X-71715181Y108773667D02*
X-71000896Y108773667D01*
X-71000896Y108773667D02*
X-70858039Y108726048D01*
X-70858039Y108726048D02*
X-70762800Y108630810D01*
X-70762800Y108630810D02*
X-70715181Y108487953D01*
X-70715181Y108487953D02*
X-70715181Y108392715D01*
X-71715181Y109154620D02*
X-71715181Y109773667D01*
X-71715181Y109773667D02*
X-71334229Y109440334D01*
X-71334229Y109440334D02*
X-71334229Y109583191D01*
X-71334229Y109583191D02*
X-71286610Y109678429D01*
X-71286610Y109678429D02*
X-71238991Y109726048D01*
X-71238991Y109726048D02*
X-71143753Y109773667D01*
X-71143753Y109773667D02*
X-70905658Y109773667D01*
X-70905658Y109773667D02*
X-70810420Y109726048D01*
X-70810420Y109726048D02*
X-70762800Y109678429D01*
X-70762800Y109678429D02*
X-70715181Y109583191D01*
X-70715181Y109583191D02*
X-70715181Y109297477D01*
X-70715181Y109297477D02*
X-70762800Y109202239D01*
X-70762800Y109202239D02*
X-70810420Y109154620D01*
X-4761905Y54547181D02*
X-4761905Y55547181D01*
X-4761905Y55070991D02*
X-4190477Y55070991D01*
X-4190477Y54547181D02*
X-4190477Y55547181D01*
X-3285715Y55213848D02*
X-3285715Y54547181D01*
X-3523810Y55594800D02*
X-3761905Y54880515D01*
X-3761905Y54880515D02*
X-3142858Y54880515D01*
D10*
X-2466667Y78294581D02*
X-2800000Y78770772D01*
X-3038095Y78294581D02*
X-3038095Y79294581D01*
X-3038095Y79294581D02*
X-2657143Y79294581D01*
X-2657143Y79294581D02*
X-2561905Y79246962D01*
X-2561905Y79246962D02*
X-2514286Y79199343D01*
X-2514286Y79199343D02*
X-2466667Y79104105D01*
X-2466667Y79104105D02*
X-2466667Y78961248D01*
X-2466667Y78961248D02*
X-2514286Y78866010D01*
X-2514286Y78866010D02*
X-2561905Y78818391D01*
X-2561905Y78818391D02*
X-2657143Y78770772D01*
X-2657143Y78770772D02*
X-3038095Y78770772D01*
X-1609524Y78961248D02*
X-1609524Y78294581D01*
X-1847619Y79342200D02*
X-2085714Y78627915D01*
X-2085714Y78627915D02*
X-1466667Y78627915D01*
X-65642582Y66435334D02*
X-66118773Y66102001D01*
X-65642582Y65863906D02*
X-66642582Y65863906D01*
X-66642582Y65863906D02*
X-66642582Y66244858D01*
X-66642582Y66244858D02*
X-66594963Y66340096D01*
X-66594963Y66340096D02*
X-66547344Y66387715D01*
X-66547344Y66387715D02*
X-66452106Y66435334D01*
X-66452106Y66435334D02*
X-66309249Y66435334D01*
X-66309249Y66435334D02*
X-66214011Y66387715D01*
X-66214011Y66387715D02*
X-66166392Y66340096D01*
X-66166392Y66340096D02*
X-66118773Y66244858D01*
X-66118773Y66244858D02*
X-66118773Y65863906D01*
X-66547344Y66816287D02*
X-66594963Y66863906D01*
X-66594963Y66863906D02*
X-66642582Y66959144D01*
X-66642582Y66959144D02*
X-66642582Y67197239D01*
X-66642582Y67197239D02*
X-66594963Y67292477D01*
X-66594963Y67292477D02*
X-66547344Y67340096D01*
X-66547344Y67340096D02*
X-66452106Y67387715D01*
X-66452106Y67387715D02*
X-66356868Y67387715D01*
X-66356868Y67387715D02*
X-66214011Y67340096D01*
X-66214011Y67340096D02*
X-65642582Y66768668D01*
X-65642582Y66768668D02*
X-65642582Y67387715D01*
X-2466667Y35689820D02*
X-2514286Y35642200D01*
X-2514286Y35642200D02*
X-2657143Y35594581D01*
X-2657143Y35594581D02*
X-2752381Y35594581D01*
X-2752381Y35594581D02*
X-2895238Y35642200D01*
X-2895238Y35642200D02*
X-2990476Y35737439D01*
X-2990476Y35737439D02*
X-3038095Y35832677D01*
X-3038095Y35832677D02*
X-3085714Y36023153D01*
X-3085714Y36023153D02*
X-3085714Y36166010D01*
X-3085714Y36166010D02*
X-3038095Y36356486D01*
X-3038095Y36356486D02*
X-2990476Y36451724D01*
X-2990476Y36451724D02*
X-2895238Y36546962D01*
X-2895238Y36546962D02*
X-2752381Y36594581D01*
X-2752381Y36594581D02*
X-2657143Y36594581D01*
X-2657143Y36594581D02*
X-2514286Y36546962D01*
X-2514286Y36546962D02*
X-2466667Y36499343D01*
X-2085714Y36499343D02*
X-2038095Y36546962D01*
X-2038095Y36546962D02*
X-1942857Y36594581D01*
X-1942857Y36594581D02*
X-1704762Y36594581D01*
X-1704762Y36594581D02*
X-1609524Y36546962D01*
X-1609524Y36546962D02*
X-1561905Y36499343D01*
X-1561905Y36499343D02*
X-1514286Y36404105D01*
X-1514286Y36404105D02*
X-1514286Y36308867D01*
X-1514286Y36308867D02*
X-1561905Y36166010D01*
X-1561905Y36166010D02*
X-2133333Y35594581D01*
X-2133333Y35594581D02*
X-1514286Y35594581D01*
X-2466667Y34294581D02*
X-2800000Y34770772D01*
X-3038095Y34294581D02*
X-3038095Y35294581D01*
X-3038095Y35294581D02*
X-2657143Y35294581D01*
X-2657143Y35294581D02*
X-2561905Y35246962D01*
X-2561905Y35246962D02*
X-2514286Y35199343D01*
X-2514286Y35199343D02*
X-2466667Y35104105D01*
X-2466667Y35104105D02*
X-2466667Y34961248D01*
X-2466667Y34961248D02*
X-2514286Y34866010D01*
X-2514286Y34866010D02*
X-2561905Y34818391D01*
X-2561905Y34818391D02*
X-2657143Y34770772D01*
X-2657143Y34770772D02*
X-3038095Y34770772D01*
X-1609524Y34961248D02*
X-1609524Y34294581D01*
X-1847619Y35342200D02*
X-2085714Y34627915D01*
X-2085714Y34627915D02*
X-1466667Y34627915D01*
X-2466667Y79689820D02*
X-2514286Y79642200D01*
X-2514286Y79642200D02*
X-2657143Y79594581D01*
X-2657143Y79594581D02*
X-2752381Y79594581D01*
X-2752381Y79594581D02*
X-2895238Y79642200D01*
X-2895238Y79642200D02*
X-2990476Y79737439D01*
X-2990476Y79737439D02*
X-3038095Y79832677D01*
X-3038095Y79832677D02*
X-3085714Y80023153D01*
X-3085714Y80023153D02*
X-3085714Y80166010D01*
X-3085714Y80166010D02*
X-3038095Y80356486D01*
X-3038095Y80356486D02*
X-2990476Y80451724D01*
X-2990476Y80451724D02*
X-2895238Y80546962D01*
X-2895238Y80546962D02*
X-2752381Y80594581D01*
X-2752381Y80594581D02*
X-2657143Y80594581D01*
X-2657143Y80594581D02*
X-2514286Y80546962D01*
X-2514286Y80546962D02*
X-2466667Y80499343D01*
X-2085714Y80499343D02*
X-2038095Y80546962D01*
X-2038095Y80546962D02*
X-1942857Y80594581D01*
X-1942857Y80594581D02*
X-1704762Y80594581D01*
X-1704762Y80594581D02*
X-1609524Y80546962D01*
X-1609524Y80546962D02*
X-1561905Y80499343D01*
X-1561905Y80499343D02*
X-1514286Y80404105D01*
X-1514286Y80404105D02*
X-1514286Y80308867D01*
X-1514286Y80308867D02*
X-1561905Y80166010D01*
X-1561905Y80166010D02*
X-2133333Y79594581D01*
X-2133333Y79594581D02*
X-1514286Y79594581D01*
X-67842580Y106135334D02*
X-68318771Y105802001D01*
X-67842580Y105563906D02*
X-68842580Y105563906D01*
X-68842580Y105563906D02*
X-68842580Y105944858D01*
X-68842580Y105944858D02*
X-68794961Y106040096D01*
X-68794961Y106040096D02*
X-68747342Y106087715D01*
X-68747342Y106087715D02*
X-68652104Y106135334D01*
X-68652104Y106135334D02*
X-68509247Y106135334D01*
X-68509247Y106135334D02*
X-68414009Y106087715D01*
X-68414009Y106087715D02*
X-68366390Y106040096D01*
X-68366390Y106040096D02*
X-68318771Y105944858D01*
X-68318771Y105944858D02*
X-68318771Y105563906D01*
X-68842580Y106468668D02*
X-68842580Y107087715D01*
X-68842580Y107087715D02*
X-68461628Y106754382D01*
X-68461628Y106754382D02*
X-68461628Y106897239D01*
X-68461628Y106897239D02*
X-68414009Y106992477D01*
X-68414009Y106992477D02*
X-68366390Y107040096D01*
X-68366390Y107040096D02*
X-68271152Y107087715D01*
X-68271152Y107087715D02*
X-68033057Y107087715D01*
X-68033057Y107087715D02*
X-67937819Y107040096D01*
X-67937819Y107040096D02*
X-67890199Y106992477D01*
X-67890199Y106992477D02*
X-67842580Y106897239D01*
X-67842580Y106897239D02*
X-67842580Y106611525D01*
X-67842580Y106611525D02*
X-67890199Y106516287D01*
X-67890199Y106516287D02*
X-67937819Y106468668D01*
D11*
X-31976191Y59909201D02*
X-32119048Y59956821D01*
X-32119048Y59956821D02*
X-32357143Y59956821D01*
X-32357143Y59956821D02*
X-32452381Y59909201D01*
X-32452381Y59909201D02*
X-32500000Y59861582D01*
X-32500000Y59861582D02*
X-32547619Y59766344D01*
X-32547619Y59766344D02*
X-32547619Y59671106D01*
X-32547619Y59671106D02*
X-32500000Y59575868D01*
X-32500000Y59575868D02*
X-32452381Y59528249D01*
X-32452381Y59528249D02*
X-32357143Y59480630D01*
X-32357143Y59480630D02*
X-32166667Y59433011D01*
X-32166667Y59433011D02*
X-32071429Y59385392D01*
X-32071429Y59385392D02*
X-32023810Y59337773D01*
X-32023810Y59337773D02*
X-31976191Y59242535D01*
X-31976191Y59242535D02*
X-31976191Y59147297D01*
X-31976191Y59147297D02*
X-32023810Y59052059D01*
X-32023810Y59052059D02*
X-32071429Y59004440D01*
X-32071429Y59004440D02*
X-32166667Y58956821D01*
X-32166667Y58956821D02*
X-32404762Y58956821D01*
X-32404762Y58956821D02*
X-32547619Y59004440D01*
X-33547619Y59861582D02*
X-33500000Y59909201D01*
X-33500000Y59909201D02*
X-33357143Y59956821D01*
X-33357143Y59956821D02*
X-33261905Y59956821D01*
X-33261905Y59956821D02*
X-33119048Y59909201D01*
X-33119048Y59909201D02*
X-33023810Y59813963D01*
X-33023810Y59813963D02*
X-32976191Y59718725D01*
X-32976191Y59718725D02*
X-32928572Y59528249D01*
X-32928572Y59528249D02*
X-32928572Y59385392D01*
X-32928572Y59385392D02*
X-32976191Y59194916D01*
X-32976191Y59194916D02*
X-33023810Y59099678D01*
X-33023810Y59099678D02*
X-33119048Y59004440D01*
X-33119048Y59004440D02*
X-33261905Y58956821D01*
X-33261905Y58956821D02*
X-33357143Y58956821D01*
X-33357143Y58956821D02*
X-33500000Y59004440D01*
X-33500000Y59004440D02*
X-33547619Y59052059D01*
X-33928572Y59909201D02*
X-34071429Y59956821D01*
X-34071429Y59956821D02*
X-34309524Y59956821D01*
X-34309524Y59956821D02*
X-34404762Y59909201D01*
X-34404762Y59909201D02*
X-34452381Y59861582D01*
X-34452381Y59861582D02*
X-34500000Y59766344D01*
X-34500000Y59766344D02*
X-34500000Y59671106D01*
X-34500000Y59671106D02*
X-34452381Y59575868D01*
X-34452381Y59575868D02*
X-34404762Y59528249D01*
X-34404762Y59528249D02*
X-34309524Y59480630D01*
X-34309524Y59480630D02*
X-34119048Y59433011D01*
X-34119048Y59433011D02*
X-34023810Y59385392D01*
X-34023810Y59385392D02*
X-33976191Y59337773D01*
X-33976191Y59337773D02*
X-33928572Y59242535D01*
X-33928572Y59242535D02*
X-33928572Y59147297D01*
X-33928572Y59147297D02*
X-33976191Y59052059D01*
X-33976191Y59052059D02*
X-34023810Y59004440D01*
X-34023810Y59004440D02*
X-34119048Y58956821D01*
X-34119048Y58956821D02*
X-34357143Y58956821D01*
X-34357143Y58956821D02*
X-34500000Y59004440D01*
X-34928572Y59956821D02*
X-34928572Y58956821D01*
X-36166667Y59956821D02*
X-36166667Y58956821D01*
X-36166667Y58956821D02*
X-36547619Y58956821D01*
X-36547619Y58956821D02*
X-36642857Y59004440D01*
X-36642857Y59004440D02*
X-36690476Y59052059D01*
X-36690476Y59052059D02*
X-36738095Y59147297D01*
X-36738095Y59147297D02*
X-36738095Y59290154D01*
X-36738095Y59290154D02*
X-36690476Y59385392D01*
X-36690476Y59385392D02*
X-36642857Y59433011D01*
X-36642857Y59433011D02*
X-36547619Y59480630D01*
X-36547619Y59480630D02*
X-36166667Y59480630D01*
X-37166667Y59956821D02*
X-37166667Y58956821D01*
X-37166667Y59433011D02*
X-37738095Y59433011D01*
X-37738095Y59956821D02*
X-37738095Y58956821D01*
X-38404762Y59480630D02*
X-38404762Y59956821D01*
X-38071429Y58956821D02*
X-38404762Y59480630D01*
X-38404762Y59480630D02*
X-38738095Y58956821D01*
X-39833334Y59956821D02*
X-39833334Y58956821D01*
X-39833334Y58956821D02*
X-40166667Y59671106D01*
X-40166667Y59671106D02*
X-40500000Y58956821D01*
X-40500000Y58956821D02*
X-40500000Y59956821D01*
X-41357143Y59909201D02*
X-41261905Y59956821D01*
X-41261905Y59956821D02*
X-41071429Y59956821D01*
X-41071429Y59956821D02*
X-40976191Y59909201D01*
X-40976191Y59909201D02*
X-40928572Y59813963D01*
X-40928572Y59813963D02*
X-40928572Y59433011D01*
X-40928572Y59433011D02*
X-40976191Y59337773D01*
X-40976191Y59337773D02*
X-41071429Y59290154D01*
X-41071429Y59290154D02*
X-41261905Y59290154D01*
X-41261905Y59290154D02*
X-41357143Y59337773D01*
X-41357143Y59337773D02*
X-41404762Y59433011D01*
X-41404762Y59433011D02*
X-41404762Y59528249D01*
X-41404762Y59528249D02*
X-40928572Y59623487D01*
X-41738096Y59290154D02*
X-42261905Y59290154D01*
X-42261905Y59290154D02*
X-41738096Y59956821D01*
X-41738096Y59956821D02*
X-42261905Y59956821D01*
X-42547620Y59290154D02*
X-43071429Y59290154D01*
X-43071429Y59290154D02*
X-42547620Y59956821D01*
X-42547620Y59956821D02*
X-43071429Y59956821D01*
X-31976191Y15909201D02*
X-32119048Y15956821D01*
X-32119048Y15956821D02*
X-32357143Y15956821D01*
X-32357143Y15956821D02*
X-32452381Y15909201D01*
X-32452381Y15909201D02*
X-32500000Y15861582D01*
X-32500000Y15861582D02*
X-32547619Y15766344D01*
X-32547619Y15766344D02*
X-32547619Y15671106D01*
X-32547619Y15671106D02*
X-32500000Y15575868D01*
X-32500000Y15575868D02*
X-32452381Y15528249D01*
X-32452381Y15528249D02*
X-32357143Y15480630D01*
X-32357143Y15480630D02*
X-32166667Y15433011D01*
X-32166667Y15433011D02*
X-32071429Y15385392D01*
X-32071429Y15385392D02*
X-32023810Y15337773D01*
X-32023810Y15337773D02*
X-31976191Y15242535D01*
X-31976191Y15242535D02*
X-31976191Y15147297D01*
X-31976191Y15147297D02*
X-32023810Y15052059D01*
X-32023810Y15052059D02*
X-32071429Y15004440D01*
X-32071429Y15004440D02*
X-32166667Y14956821D01*
X-32166667Y14956821D02*
X-32404762Y14956821D01*
X-32404762Y14956821D02*
X-32547619Y15004440D01*
X-33547619Y15861582D02*
X-33500000Y15909201D01*
X-33500000Y15909201D02*
X-33357143Y15956821D01*
X-33357143Y15956821D02*
X-33261905Y15956821D01*
X-33261905Y15956821D02*
X-33119048Y15909201D01*
X-33119048Y15909201D02*
X-33023810Y15813963D01*
X-33023810Y15813963D02*
X-32976191Y15718725D01*
X-32976191Y15718725D02*
X-32928572Y15528249D01*
X-32928572Y15528249D02*
X-32928572Y15385392D01*
X-32928572Y15385392D02*
X-32976191Y15194916D01*
X-32976191Y15194916D02*
X-33023810Y15099678D01*
X-33023810Y15099678D02*
X-33119048Y15004440D01*
X-33119048Y15004440D02*
X-33261905Y14956821D01*
X-33261905Y14956821D02*
X-33357143Y14956821D01*
X-33357143Y14956821D02*
X-33500000Y15004440D01*
X-33500000Y15004440D02*
X-33547619Y15052059D01*
X-33928572Y15909201D02*
X-34071429Y15956821D01*
X-34071429Y15956821D02*
X-34309524Y15956821D01*
X-34309524Y15956821D02*
X-34404762Y15909201D01*
X-34404762Y15909201D02*
X-34452381Y15861582D01*
X-34452381Y15861582D02*
X-34500000Y15766344D01*
X-34500000Y15766344D02*
X-34500000Y15671106D01*
X-34500000Y15671106D02*
X-34452381Y15575868D01*
X-34452381Y15575868D02*
X-34404762Y15528249D01*
X-34404762Y15528249D02*
X-34309524Y15480630D01*
X-34309524Y15480630D02*
X-34119048Y15433011D01*
X-34119048Y15433011D02*
X-34023810Y15385392D01*
X-34023810Y15385392D02*
X-33976191Y15337773D01*
X-33976191Y15337773D02*
X-33928572Y15242535D01*
X-33928572Y15242535D02*
X-33928572Y15147297D01*
X-33928572Y15147297D02*
X-33976191Y15052059D01*
X-33976191Y15052059D02*
X-34023810Y15004440D01*
X-34023810Y15004440D02*
X-34119048Y14956821D01*
X-34119048Y14956821D02*
X-34357143Y14956821D01*
X-34357143Y14956821D02*
X-34500000Y15004440D01*
X-34928572Y15956821D02*
X-34928572Y14956821D01*
X-36166667Y15956821D02*
X-36166667Y14956821D01*
X-36166667Y14956821D02*
X-36547619Y14956821D01*
X-36547619Y14956821D02*
X-36642857Y15004440D01*
X-36642857Y15004440D02*
X-36690476Y15052059D01*
X-36690476Y15052059D02*
X-36738095Y15147297D01*
X-36738095Y15147297D02*
X-36738095Y15290154D01*
X-36738095Y15290154D02*
X-36690476Y15385392D01*
X-36690476Y15385392D02*
X-36642857Y15433011D01*
X-36642857Y15433011D02*
X-36547619Y15480630D01*
X-36547619Y15480630D02*
X-36166667Y15480630D01*
X-37166667Y15956821D02*
X-37166667Y14956821D01*
X-37166667Y15433011D02*
X-37738095Y15433011D01*
X-37738095Y15956821D02*
X-37738095Y14956821D01*
X-38404762Y15480630D02*
X-38404762Y15956821D01*
X-38071429Y14956821D02*
X-38404762Y15480630D01*
X-38404762Y15480630D02*
X-38738095Y14956821D01*
X-39833334Y15956821D02*
X-39833334Y14956821D01*
X-39833334Y14956821D02*
X-40166667Y15671106D01*
X-40166667Y15671106D02*
X-40500000Y14956821D01*
X-40500000Y14956821D02*
X-40500000Y15956821D01*
X-41357143Y15909201D02*
X-41261905Y15956821D01*
X-41261905Y15956821D02*
X-41071429Y15956821D01*
X-41071429Y15956821D02*
X-40976191Y15909201D01*
X-40976191Y15909201D02*
X-40928572Y15813963D01*
X-40928572Y15813963D02*
X-40928572Y15433011D01*
X-40928572Y15433011D02*
X-40976191Y15337773D01*
X-40976191Y15337773D02*
X-41071429Y15290154D01*
X-41071429Y15290154D02*
X-41261905Y15290154D01*
X-41261905Y15290154D02*
X-41357143Y15337773D01*
X-41357143Y15337773D02*
X-41404762Y15433011D01*
X-41404762Y15433011D02*
X-41404762Y15528249D01*
X-41404762Y15528249D02*
X-40928572Y15623487D01*
X-41738096Y15290154D02*
X-42261905Y15290154D01*
X-42261905Y15290154D02*
X-41738096Y15956821D01*
X-41738096Y15956821D02*
X-42261905Y15956821D01*
X-42547620Y15290154D02*
X-43071429Y15290154D01*
X-43071429Y15290154D02*
X-42547620Y15956821D01*
X-42547620Y15956821D02*
X-43071429Y15956821D01*
X-31976191Y103909201D02*
X-32119048Y103956821D01*
X-32119048Y103956821D02*
X-32357143Y103956821D01*
X-32357143Y103956821D02*
X-32452381Y103909201D01*
X-32452381Y103909201D02*
X-32500000Y103861582D01*
X-32500000Y103861582D02*
X-32547619Y103766344D01*
X-32547619Y103766344D02*
X-32547619Y103671106D01*
X-32547619Y103671106D02*
X-32500000Y103575868D01*
X-32500000Y103575868D02*
X-32452381Y103528249D01*
X-32452381Y103528249D02*
X-32357143Y103480630D01*
X-32357143Y103480630D02*
X-32166667Y103433011D01*
X-32166667Y103433011D02*
X-32071429Y103385392D01*
X-32071429Y103385392D02*
X-32023810Y103337773D01*
X-32023810Y103337773D02*
X-31976191Y103242535D01*
X-31976191Y103242535D02*
X-31976191Y103147297D01*
X-31976191Y103147297D02*
X-32023810Y103052059D01*
X-32023810Y103052059D02*
X-32071429Y103004440D01*
X-32071429Y103004440D02*
X-32166667Y102956821D01*
X-32166667Y102956821D02*
X-32404762Y102956821D01*
X-32404762Y102956821D02*
X-32547619Y103004440D01*
X-33547619Y103861582D02*
X-33500000Y103909201D01*
X-33500000Y103909201D02*
X-33357143Y103956821D01*
X-33357143Y103956821D02*
X-33261905Y103956821D01*
X-33261905Y103956821D02*
X-33119048Y103909201D01*
X-33119048Y103909201D02*
X-33023810Y103813963D01*
X-33023810Y103813963D02*
X-32976191Y103718725D01*
X-32976191Y103718725D02*
X-32928572Y103528249D01*
X-32928572Y103528249D02*
X-32928572Y103385392D01*
X-32928572Y103385392D02*
X-32976191Y103194916D01*
X-32976191Y103194916D02*
X-33023810Y103099678D01*
X-33023810Y103099678D02*
X-33119048Y103004440D01*
X-33119048Y103004440D02*
X-33261905Y102956821D01*
X-33261905Y102956821D02*
X-33357143Y102956821D01*
X-33357143Y102956821D02*
X-33500000Y103004440D01*
X-33500000Y103004440D02*
X-33547619Y103052059D01*
X-33928572Y103909201D02*
X-34071429Y103956821D01*
X-34071429Y103956821D02*
X-34309524Y103956821D01*
X-34309524Y103956821D02*
X-34404762Y103909201D01*
X-34404762Y103909201D02*
X-34452381Y103861582D01*
X-34452381Y103861582D02*
X-34500000Y103766344D01*
X-34500000Y103766344D02*
X-34500000Y103671106D01*
X-34500000Y103671106D02*
X-34452381Y103575868D01*
X-34452381Y103575868D02*
X-34404762Y103528249D01*
X-34404762Y103528249D02*
X-34309524Y103480630D01*
X-34309524Y103480630D02*
X-34119048Y103433011D01*
X-34119048Y103433011D02*
X-34023810Y103385392D01*
X-34023810Y103385392D02*
X-33976191Y103337773D01*
X-33976191Y103337773D02*
X-33928572Y103242535D01*
X-33928572Y103242535D02*
X-33928572Y103147297D01*
X-33928572Y103147297D02*
X-33976191Y103052059D01*
X-33976191Y103052059D02*
X-34023810Y103004440D01*
X-34023810Y103004440D02*
X-34119048Y102956821D01*
X-34119048Y102956821D02*
X-34357143Y102956821D01*
X-34357143Y102956821D02*
X-34500000Y103004440D01*
X-34928572Y103956821D02*
X-34928572Y102956821D01*
X-36166667Y103956821D02*
X-36166667Y102956821D01*
X-36166667Y102956821D02*
X-36547619Y102956821D01*
X-36547619Y102956821D02*
X-36642857Y103004440D01*
X-36642857Y103004440D02*
X-36690476Y103052059D01*
X-36690476Y103052059D02*
X-36738095Y103147297D01*
X-36738095Y103147297D02*
X-36738095Y103290154D01*
X-36738095Y103290154D02*
X-36690476Y103385392D01*
X-36690476Y103385392D02*
X-36642857Y103433011D01*
X-36642857Y103433011D02*
X-36547619Y103480630D01*
X-36547619Y103480630D02*
X-36166667Y103480630D01*
X-37166667Y103956821D02*
X-37166667Y102956821D01*
X-37166667Y103433011D02*
X-37738095Y103433011D01*
X-37738095Y103956821D02*
X-37738095Y102956821D01*
X-38404762Y103480630D02*
X-38404762Y103956821D01*
X-38071429Y102956821D02*
X-38404762Y103480630D01*
X-38404762Y103480630D02*
X-38738095Y102956821D01*
X-39833334Y103956821D02*
X-39833334Y102956821D01*
X-39833334Y102956821D02*
X-40166667Y103671106D01*
X-40166667Y103671106D02*
X-40500000Y102956821D01*
X-40500000Y102956821D02*
X-40500000Y103956821D01*
X-41357143Y103909201D02*
X-41261905Y103956821D01*
X-41261905Y103956821D02*
X-41071429Y103956821D01*
X-41071429Y103956821D02*
X-40976191Y103909201D01*
X-40976191Y103909201D02*
X-40928572Y103813963D01*
X-40928572Y103813963D02*
X-40928572Y103433011D01*
X-40928572Y103433011D02*
X-40976191Y103337773D01*
X-40976191Y103337773D02*
X-41071429Y103290154D01*
X-41071429Y103290154D02*
X-41261905Y103290154D01*
X-41261905Y103290154D02*
X-41357143Y103337773D01*
X-41357143Y103337773D02*
X-41404762Y103433011D01*
X-41404762Y103433011D02*
X-41404762Y103528249D01*
X-41404762Y103528249D02*
X-40928572Y103623487D01*
X-41738096Y103290154D02*
X-42261905Y103290154D01*
X-42261905Y103290154D02*
X-41738096Y103956821D01*
X-41738096Y103956821D02*
X-42261905Y103956821D01*
X-42547620Y103290154D02*
X-43071429Y103290154D01*
X-43071429Y103290154D02*
X-42547620Y103956821D01*
X-42547620Y103956821D02*
X-43071429Y103956821D01*
X-4761905Y98547181D02*
X-4761905Y99547181D01*
X-4761905Y99070991D02*
X-4190477Y99070991D01*
X-4190477Y98547181D02*
X-4190477Y99547181D01*
X-3285715Y99213848D02*
X-3285715Y98547181D01*
X-3523810Y99594800D02*
X-3761905Y98880515D01*
X-3761905Y98880515D02*
X-3142858Y98880515D01*
D10*
X-71542581Y59668667D02*
X-70828296Y59668667D01*
X-70828296Y59668667D02*
X-70685439Y59621048D01*
X-70685439Y59621048D02*
X-70590200Y59525810D01*
X-70590200Y59525810D02*
X-70542581Y59382953D01*
X-70542581Y59382953D02*
X-70542581Y59287715D01*
X-71542581Y60049620D02*
X-71542581Y60668667D01*
X-71542581Y60668667D02*
X-71161629Y60335334D01*
X-71161629Y60335334D02*
X-71161629Y60478191D01*
X-71161629Y60478191D02*
X-71114010Y60573429D01*
X-71114010Y60573429D02*
X-71066391Y60621048D01*
X-71066391Y60621048D02*
X-70971153Y60668667D01*
X-70971153Y60668667D02*
X-70733058Y60668667D01*
X-70733058Y60668667D02*
X-70637820Y60621048D01*
X-70637820Y60621048D02*
X-70590200Y60573429D01*
X-70590200Y60573429D02*
X-70542581Y60478191D01*
X-70542581Y60478191D02*
X-70542581Y60192477D01*
X-70542581Y60192477D02*
X-70590200Y60097239D01*
X-70590200Y60097239D02*
X-70637820Y60049620D01*
D11*
X-67000421Y63273905D02*
X-66952801Y63226286D01*
X-66952801Y63226286D02*
X-66905182Y63083429D01*
X-66905182Y63083429D02*
X-66905182Y62988191D01*
X-66905182Y62988191D02*
X-66952801Y62845334D01*
X-66952801Y62845334D02*
X-67048040Y62750096D01*
X-67048040Y62750096D02*
X-67143278Y62702477D01*
X-67143278Y62702477D02*
X-67333754Y62654858D01*
X-67333754Y62654858D02*
X-67476611Y62654858D01*
X-67476611Y62654858D02*
X-67667087Y62702477D01*
X-67667087Y62702477D02*
X-67762325Y62750096D01*
X-67762325Y62750096D02*
X-67857563Y62845334D01*
X-67857563Y62845334D02*
X-67905182Y62988191D01*
X-67905182Y62988191D02*
X-67905182Y63083429D01*
X-67905182Y63083429D02*
X-67857563Y63226286D01*
X-67857563Y63226286D02*
X-67809944Y63273905D01*
X-66905182Y63845334D02*
X-66952801Y63750096D01*
X-66952801Y63750096D02*
X-67000421Y63702477D01*
X-67000421Y63702477D02*
X-67095659Y63654858D01*
X-67095659Y63654858D02*
X-67381373Y63654858D01*
X-67381373Y63654858D02*
X-67476611Y63702477D01*
X-67476611Y63702477D02*
X-67524230Y63750096D01*
X-67524230Y63750096D02*
X-67571849Y63845334D01*
X-67571849Y63845334D02*
X-67571849Y63988191D01*
X-67571849Y63988191D02*
X-67524230Y64083429D01*
X-67524230Y64083429D02*
X-67476611Y64131048D01*
X-67476611Y64131048D02*
X-67381373Y64178667D01*
X-67381373Y64178667D02*
X-67095659Y64178667D01*
X-67095659Y64178667D02*
X-67000421Y64131048D01*
X-67000421Y64131048D02*
X-66952801Y64083429D01*
X-66952801Y64083429D02*
X-66905182Y63988191D01*
X-66905182Y63988191D02*
X-66905182Y63845334D01*
X-67571849Y64607239D02*
X-66905182Y64607239D01*
X-67476611Y64607239D02*
X-67524230Y64654858D01*
X-67524230Y64654858D02*
X-67571849Y64750096D01*
X-67571849Y64750096D02*
X-67571849Y64892953D01*
X-67571849Y64892953D02*
X-67524230Y64988191D01*
X-67524230Y64988191D02*
X-67428992Y65035810D01*
X-67428992Y65035810D02*
X-66905182Y65035810D01*
X-67571849Y65512001D02*
X-66905182Y65512001D01*
X-67476611Y65512001D02*
X-67524230Y65559620D01*
X-67524230Y65559620D02*
X-67571849Y65654858D01*
X-67571849Y65654858D02*
X-67571849Y65797715D01*
X-67571849Y65797715D02*
X-67524230Y65892953D01*
X-67524230Y65892953D02*
X-67428992Y65940572D01*
X-67428992Y65940572D02*
X-66905182Y65940572D01*
X-66809944Y66178667D02*
X-66809944Y66940572D01*
X-67905182Y67369144D02*
X-67905182Y67464382D01*
X-67905182Y67464382D02*
X-67857563Y67559620D01*
X-67857563Y67559620D02*
X-67809944Y67607239D01*
X-67809944Y67607239D02*
X-67714706Y67654858D01*
X-67714706Y67654858D02*
X-67524230Y67702477D01*
X-67524230Y67702477D02*
X-67286135Y67702477D01*
X-67286135Y67702477D02*
X-67095659Y67654858D01*
X-67095659Y67654858D02*
X-67000421Y67607239D01*
X-67000421Y67607239D02*
X-66952801Y67559620D01*
X-66952801Y67559620D02*
X-66905182Y67464382D01*
X-66905182Y67464382D02*
X-66905182Y67369144D01*
X-66905182Y67369144D02*
X-66952801Y67273906D01*
X-66952801Y67273906D02*
X-67000421Y67226287D01*
X-67000421Y67226287D02*
X-67095659Y67178668D01*
X-67095659Y67178668D02*
X-67286135Y67131049D01*
X-67286135Y67131049D02*
X-67524230Y67131049D01*
X-67524230Y67131049D02*
X-67714706Y67178668D01*
X-67714706Y67178668D02*
X-67809944Y67226287D01*
X-67809944Y67226287D02*
X-67857563Y67273906D01*
X-67857563Y67273906D02*
X-67905182Y67369144D01*
X-66905182Y68654858D02*
X-66905182Y68083430D01*
X-66905182Y68369144D02*
X-67905182Y68369144D01*
X-67905182Y68369144D02*
X-67762325Y68273906D01*
X-67762325Y68273906D02*
X-67667087Y68178668D01*
X-67667087Y68178668D02*
X-67619468Y68083430D01*
X-66905182Y68988192D02*
X-67571849Y69512001D01*
X-67571849Y68988192D02*
X-66905182Y69512001D01*
X-67905182Y70083430D02*
X-67905182Y70178668D01*
X-67905182Y70178668D02*
X-67857563Y70273906D01*
X-67857563Y70273906D02*
X-67809944Y70321525D01*
X-67809944Y70321525D02*
X-67714706Y70369144D01*
X-67714706Y70369144D02*
X-67524230Y70416763D01*
X-67524230Y70416763D02*
X-67286135Y70416763D01*
X-67286135Y70416763D02*
X-67095659Y70369144D01*
X-67095659Y70369144D02*
X-67000421Y70321525D01*
X-67000421Y70321525D02*
X-66952801Y70273906D01*
X-66952801Y70273906D02*
X-66905182Y70178668D01*
X-66905182Y70178668D02*
X-66905182Y70083430D01*
X-66905182Y70083430D02*
X-66952801Y69988192D01*
X-66952801Y69988192D02*
X-67000421Y69940573D01*
X-67000421Y69940573D02*
X-67095659Y69892954D01*
X-67095659Y69892954D02*
X-67286135Y69845335D01*
X-67286135Y69845335D02*
X-67524230Y69845335D01*
X-67524230Y69845335D02*
X-67714706Y69892954D01*
X-67714706Y69892954D02*
X-67809944Y69940573D01*
X-67809944Y69940573D02*
X-67857563Y69988192D01*
X-67857563Y69988192D02*
X-67905182Y70083430D01*
X-67571849Y71273906D02*
X-66905182Y71273906D01*
X-67952801Y71035811D02*
X-67238516Y70797716D01*
X-67238516Y70797716D02*
X-67238516Y71416763D01*
X-71715181Y64773667D02*
X-71000896Y64773667D01*
X-71000896Y64773667D02*
X-70858039Y64726048D01*
X-70858039Y64726048D02*
X-70762800Y64630810D01*
X-70762800Y64630810D02*
X-70715181Y64487953D01*
X-70715181Y64487953D02*
X-70715181Y64392715D01*
X-71715181Y65154620D02*
X-71715181Y65773667D01*
X-71715181Y65773667D02*
X-71334229Y65440334D01*
X-71334229Y65440334D02*
X-71334229Y65583191D01*
X-71334229Y65583191D02*
X-71286610Y65678429D01*
X-71286610Y65678429D02*
X-71238991Y65726048D01*
X-71238991Y65726048D02*
X-71143753Y65773667D01*
X-71143753Y65773667D02*
X-70905658Y65773667D01*
X-70905658Y65773667D02*
X-70810420Y65726048D01*
X-70810420Y65726048D02*
X-70762800Y65678429D01*
X-70762800Y65678429D02*
X-70715181Y65583191D01*
X-70715181Y65583191D02*
X-70715181Y65297477D01*
X-70715181Y65297477D02*
X-70762800Y65202239D01*
X-70762800Y65202239D02*
X-70810420Y65154620D01*
D10*
G04 #@! TO.C,R4*
X-2750000Y122402001D02*
X-1850000Y122402001D01*
X-1850000Y123101999D02*
X-2750000Y123101999D01*
D12*
G36*
X-2700000Y122352000D02*
G01*
X-3100000Y122352000D01*
X-3100000Y123152000D01*
X-2700000Y123152000D01*
X-2700000Y122352000D01*
G37*
G36*
X-1500000Y122352000D02*
G01*
X-1900000Y122352000D01*
X-1900000Y123152000D01*
X-1500000Y123152000D01*
X-1500000Y122352000D01*
G37*
D13*
G04 #@! TO.C,KiKit_FID_T_2*
X-1250000Y133503500D02*
G75*
G02*
X-3750000Y133503500I-1250000J0D01*
G01*
X-3750000Y133503500D02*
G75*
G02*
X-1250000Y133503500I1250000J0D01*
G01*
D10*
G04 #@! TO.C,R2*
X-67549999Y23052000D02*
X-67549999Y22152000D01*
X-66850001Y22152000D02*
X-66850001Y23052000D01*
D12*
G36*
X-66800000Y23002000D02*
G01*
X-67600000Y23002000D01*
X-67600000Y23402000D01*
X-66800000Y23402000D01*
X-66800000Y23002000D01*
G37*
G36*
X-66800000Y21802000D02*
G01*
X-67600000Y21802000D01*
X-67600000Y22202000D01*
X-66800000Y22202000D01*
X-66800000Y21802000D01*
G37*
D10*
G04 #@! TO.C,C1*
X-66399999Y10552000D02*
X-66399999Y11452000D01*
X-65700001Y10552000D02*
X-65700001Y11452000D01*
D12*
G36*
X-65650000Y11402000D02*
G01*
X-66450000Y11402000D01*
X-66450000Y11802000D01*
X-65650000Y11802000D01*
X-65650000Y11402000D01*
G37*
G36*
X-65650000Y10202000D02*
G01*
X-66450000Y10202000D01*
X-66450000Y10602000D01*
X-65650000Y10602000D01*
X-65650000Y10202000D01*
G37*
D13*
G04 #@! TO.C,U1*
X-65100000Y56502000D02*
X-65100000Y54002000D01*
X-64600000Y53502000D02*
X-65100000Y54002000D01*
X-64600000Y53502000D02*
X-63100000Y53502000D01*
X-63100000Y56502000D02*
X-65100000Y56502000D01*
X-63100000Y53502000D02*
X-63100000Y56502000D01*
D10*
G04 #@! TO.C,C1*
X-66399999Y54552000D02*
X-66399999Y55452000D01*
X-65700001Y54552000D02*
X-65700001Y55452000D01*
D12*
G36*
X-65650000Y55402000D02*
G01*
X-66450000Y55402000D01*
X-66450000Y55802000D01*
X-65650000Y55802000D01*
X-65650000Y55402000D01*
G37*
G36*
X-65650000Y54202000D02*
G01*
X-66450000Y54202000D01*
X-66450000Y54602000D01*
X-65650000Y54602000D01*
X-65650000Y54202000D01*
G37*
D10*
G04 #@! TO.C,R2*
X-67549999Y111052000D02*
X-67549999Y110152000D01*
X-66850001Y110152000D02*
X-66850001Y111052000D01*
D12*
G36*
X-66800000Y111002000D02*
G01*
X-67600000Y111002000D01*
X-67600000Y111402000D01*
X-66800000Y111402000D01*
X-66800000Y111002000D01*
G37*
G36*
X-66800000Y109802000D02*
G01*
X-67600000Y109802000D01*
X-67600000Y110202000D01*
X-66800000Y110202000D01*
X-66800000Y109802000D01*
G37*
D13*
G04 #@! TO.C,KiKit_FID_T_3*
X-71250000Y2500000D02*
G75*
G02*
X-73750000Y2500000I-1250000J0D01*
G01*
X-73750000Y2500000D02*
G75*
G02*
X-71250000Y2500000I1250000J0D01*
G01*
G04 #@! TO.C,U1*
X-65100000Y12502000D02*
X-65100000Y10002000D01*
X-64600000Y9502000D02*
X-65100000Y10002000D01*
X-64600000Y9502000D02*
X-63100000Y9502000D01*
X-63100000Y12502000D02*
X-65100000Y12502000D01*
X-63100000Y9502000D02*
X-63100000Y12502000D01*
G04 #@! TO.C,KiKit_FID_T_1*
X-71250000Y133503500D02*
G75*
G02*
X-73750000Y133503500I-1250000J0D01*
G01*
X-73750000Y133503500D02*
G75*
G02*
X-71250000Y133503500I1250000J0D01*
G01*
D10*
G04 #@! TO.C,R1*
X-62499999Y99452000D02*
X-62499999Y98552000D01*
X-61800001Y98552000D02*
X-61800001Y99452000D01*
D12*
G36*
X-61750000Y99402000D02*
G01*
X-62550000Y99402000D01*
X-62550000Y99802000D01*
X-61750000Y99802000D01*
X-61750000Y99402000D01*
G37*
G36*
X-61750000Y98202000D02*
G01*
X-62550000Y98202000D01*
X-62550000Y98602000D01*
X-61750000Y98602000D01*
X-61750000Y98202000D01*
G37*
D10*
X-62499999Y11452000D02*
X-62499999Y10552000D01*
X-61800001Y10552000D02*
X-61800001Y11452000D01*
D12*
G36*
X-61750000Y11402000D02*
G01*
X-62550000Y11402000D01*
X-62550000Y11802000D01*
X-61750000Y11802000D01*
X-61750000Y11402000D01*
G37*
G36*
X-61750000Y10202000D02*
G01*
X-62550000Y10202000D01*
X-62550000Y10602000D01*
X-61750000Y10602000D01*
X-61750000Y10202000D01*
G37*
D10*
X-62499999Y55452000D02*
X-62499999Y54552000D01*
X-61800001Y54552000D02*
X-61800001Y55452000D01*
D12*
G36*
X-61750000Y55402000D02*
G01*
X-62550000Y55402000D01*
X-62550000Y55802000D01*
X-61750000Y55802000D01*
X-61750000Y55402000D01*
G37*
G36*
X-61750000Y54202000D02*
G01*
X-62550000Y54202000D01*
X-62550000Y54602000D01*
X-61750000Y54602000D01*
X-61750000Y54202000D01*
G37*
D13*
G04 #@! TO.C,U1*
X-65100000Y100502000D02*
X-65100000Y98002000D01*
X-64600000Y97502000D02*
X-65100000Y98002000D01*
X-64600000Y97502000D02*
X-63100000Y97502000D01*
X-63100000Y100502000D02*
X-65100000Y100502000D01*
X-63100000Y97502000D02*
X-63100000Y100502000D01*
D10*
G04 #@! TO.C,R3*
X-67549999Y18752000D02*
X-67549999Y17852000D01*
X-66850001Y17852000D02*
X-66850001Y18752000D01*
D12*
G36*
X-66800000Y18702000D02*
G01*
X-67600000Y18702000D01*
X-67600000Y19102000D01*
X-66800000Y19102000D01*
X-66800000Y18702000D01*
G37*
G36*
X-66800000Y17502000D02*
G01*
X-67600000Y17502000D01*
X-67600000Y17902000D01*
X-66800000Y17902000D01*
X-66800000Y17502000D01*
G37*
D10*
G04 #@! TO.C,C1*
X-66399999Y98552000D02*
X-66399999Y99452000D01*
X-65700001Y98552000D02*
X-65700001Y99452000D01*
D12*
G36*
X-65650000Y99402000D02*
G01*
X-66450000Y99402000D01*
X-66450000Y99802000D01*
X-65650000Y99802000D01*
X-65650000Y99402000D01*
G37*
G36*
X-65650000Y98202000D02*
G01*
X-66450000Y98202000D01*
X-66450000Y98602000D01*
X-65650000Y98602000D01*
X-65650000Y98202000D01*
G37*
D10*
G04 #@! TO.C,R3*
X-67549999Y62752000D02*
X-67549999Y61852000D01*
X-66850001Y61852000D02*
X-66850001Y62752000D01*
D12*
G36*
X-66800000Y62702000D02*
G01*
X-67600000Y62702000D01*
X-67600000Y63102000D01*
X-66800000Y63102000D01*
X-66800000Y62702000D01*
G37*
G36*
X-66800000Y61502000D02*
G01*
X-67600000Y61502000D01*
X-67600000Y61902000D01*
X-66800000Y61902000D01*
X-66800000Y61502000D01*
G37*
D10*
G04 #@! TO.C,J4*
X-4500000Y129012000D02*
X-70500000Y129012000D01*
G04 #@! TO.C,C2*
X-2750000Y124401999D02*
X-1850000Y124401999D01*
X-2750000Y123702001D02*
X-1850000Y123702001D01*
D12*
G36*
X-2700000Y123652000D02*
G01*
X-3100000Y123652000D01*
X-3100000Y124452000D01*
X-2700000Y124452000D01*
X-2700000Y123652000D01*
G37*
G36*
X-1500000Y123652000D02*
G01*
X-1900000Y123652000D01*
X-1900000Y124452000D01*
X-1500000Y124452000D01*
X-1500000Y123652000D01*
G37*
D10*
G04 #@! TO.C,J4*
X-4500000Y41012000D02*
X-70500000Y41012000D01*
G04 #@! TO.C,R4*
X-2750000Y78402001D02*
X-1850000Y78402001D01*
X-1850000Y79101999D02*
X-2750000Y79101999D01*
D12*
G36*
X-2700000Y78352000D02*
G01*
X-3100000Y78352000D01*
X-3100000Y79152000D01*
X-2700000Y79152000D01*
X-2700000Y78352000D01*
G37*
G36*
X-1500000Y78352000D02*
G01*
X-1900000Y78352000D01*
X-1900000Y79152000D01*
X-1500000Y79152000D01*
X-1500000Y78352000D01*
G37*
D10*
G04 #@! TO.C,J4*
X-4500000Y85012000D02*
X-70500000Y85012000D01*
G04 #@! TO.C,R2*
X-67549999Y67052000D02*
X-67549999Y66152000D01*
X-66850001Y66152000D02*
X-66850001Y67052000D01*
D12*
G36*
X-66800000Y67002000D02*
G01*
X-67600000Y67002000D01*
X-67600000Y67402000D01*
X-66800000Y67402000D01*
X-66800000Y67002000D01*
G37*
G36*
X-66800000Y65802000D02*
G01*
X-67600000Y65802000D01*
X-67600000Y66202000D01*
X-66800000Y66202000D01*
X-66800000Y65802000D01*
G37*
D10*
G04 #@! TO.C,C2*
X-2750000Y36401999D02*
X-1850000Y36401999D01*
X-2750000Y35702001D02*
X-1850000Y35702001D01*
D12*
G36*
X-2700000Y35652000D02*
G01*
X-3100000Y35652000D01*
X-3100000Y36452000D01*
X-2700000Y36452000D01*
X-2700000Y35652000D01*
G37*
G36*
X-1500000Y35652000D02*
G01*
X-1900000Y35652000D01*
X-1900000Y36452000D01*
X-1500000Y36452000D01*
X-1500000Y35652000D01*
G37*
D10*
G04 #@! TO.C,R4*
X-2750000Y34402001D02*
X-1850000Y34402001D01*
X-1850000Y35101999D02*
X-2750000Y35101999D01*
D12*
G36*
X-2700000Y34352000D02*
G01*
X-3100000Y34352000D01*
X-3100000Y35152000D01*
X-2700000Y35152000D01*
X-2700000Y34352000D01*
G37*
G36*
X-1500000Y34352000D02*
G01*
X-1900000Y34352000D01*
X-1900000Y35152000D01*
X-1500000Y35152000D01*
X-1500000Y34352000D01*
G37*
D10*
G04 #@! TO.C,C2*
X-2750000Y80401999D02*
X-1850000Y80401999D01*
X-2750000Y79702001D02*
X-1850000Y79702001D01*
D12*
G36*
X-2700000Y79652000D02*
G01*
X-3100000Y79652000D01*
X-3100000Y80452000D01*
X-2700000Y80452000D01*
X-2700000Y79652000D01*
G37*
G36*
X-1500000Y79652000D02*
G01*
X-1900000Y79652000D01*
X-1900000Y80452000D01*
X-1500000Y80452000D01*
X-1500000Y79652000D01*
G37*
D10*
G04 #@! TO.C,R3*
X-67549999Y106752000D02*
X-67549999Y105852000D01*
X-66850001Y105852000D02*
X-66850001Y106752000D01*
D12*
G36*
X-66800000Y106702000D02*
G01*
X-67600000Y106702000D01*
X-67600000Y107102000D01*
X-66800000Y107102000D01*
X-66800000Y106702000D01*
G37*
G36*
X-66800000Y105502000D02*
G01*
X-67600000Y105502000D01*
X-67600000Y105902000D01*
X-66800000Y105902000D01*
X-66800000Y105502000D01*
G37*
D10*
G04 #@! TO.C,J1*
X-60500000Y58002000D02*
X-14500000Y58002000D01*
X-60500000Y53001999D02*
X-60500000Y58002000D01*
X-60500000Y53001999D02*
X-59500000Y52002000D01*
X-14500000Y58002000D02*
X-14500000Y52002000D01*
X-14500000Y52002000D02*
X-59500000Y52002000D01*
X-60500000Y14002000D02*
X-14500000Y14002000D01*
X-60500000Y9001999D02*
X-60500000Y14002000D01*
X-60500000Y9001999D02*
X-59500000Y8002000D01*
X-14500000Y14002000D02*
X-14500000Y8002000D01*
X-14500000Y8002000D02*
X-59500000Y8002000D01*
X-60500000Y102002000D02*
X-14500000Y102002000D01*
X-60500000Y97001999D02*
X-60500000Y102002000D01*
X-60500000Y97001999D02*
X-59500000Y96002000D01*
X-14500000Y102002000D02*
X-14500000Y96002000D01*
X-14500000Y96002000D02*
X-59500000Y96002000D01*
G04 #@! TD*
M02*
