G04 #@! TF.GenerationSoftware,KiCad,Pcbnew,8.0.6*
G04 #@! TF.CreationDate,2024-11-07T02:27:20-08:00*
G04 #@! TF.ProjectId,mse-50-ce-panel,6d73652d-3530-42d6-9365-2d70616e656c,1*
G04 #@! TF.SameCoordinates,Original*
G04 #@! TF.FileFunction,AssemblyDrawing,Top*
%FSLAX46Y46*%
G04 Gerber Fmt 4.6, Leading zero omitted, Abs format (unit mm)*
G04 Created by KiCad (PCBNEW 8.0.6) date 2024-11-07 02:27:20*
%MOMM*%
%LPD*%
G01*
G04 APERTURE LIST*
%ADD10C,0.100000*%
%ADD11C,0.150000*%
%ADD12C,0.000000*%
%ADD13C,0.120000*%
%ADD14C,0.050000*%
G04 APERTURE END LIST*
D10*
X-71687819Y98835334D02*
X-71640199Y98787715D01*
X-71640199Y98787715D02*
X-71592580Y98644858D01*
X-71592580Y98644858D02*
X-71592580Y98549620D01*
X-71592580Y98549620D02*
X-71640199Y98406763D01*
X-71640199Y98406763D02*
X-71735438Y98311525D01*
X-71735438Y98311525D02*
X-71830676Y98263906D01*
X-71830676Y98263906D02*
X-72021152Y98216287D01*
X-72021152Y98216287D02*
X-72164009Y98216287D01*
X-72164009Y98216287D02*
X-72354485Y98263906D01*
X-72354485Y98263906D02*
X-72449723Y98311525D01*
X-72449723Y98311525D02*
X-72544961Y98406763D01*
X-72544961Y98406763D02*
X-72592580Y98549620D01*
X-72592580Y98549620D02*
X-72592580Y98644858D01*
X-72592580Y98644858D02*
X-72544961Y98787715D01*
X-72544961Y98787715D02*
X-72497342Y98835334D01*
X-71592580Y99787715D02*
X-71592580Y99216287D01*
X-71592580Y99502001D02*
X-72592580Y99502001D01*
X-72592580Y99502001D02*
X-72449723Y99406763D01*
X-72449723Y99406763D02*
X-72354485Y99311525D01*
X-72354485Y99311525D02*
X-72306866Y99216287D01*
D11*
X-36876191Y59909201D02*
X-37019048Y59956821D01*
X-37019048Y59956821D02*
X-37257143Y59956821D01*
X-37257143Y59956821D02*
X-37352381Y59909201D01*
X-37352381Y59909201D02*
X-37400000Y59861582D01*
X-37400000Y59861582D02*
X-37447619Y59766344D01*
X-37447619Y59766344D02*
X-37447619Y59671106D01*
X-37447619Y59671106D02*
X-37400000Y59575868D01*
X-37400000Y59575868D02*
X-37352381Y59528249D01*
X-37352381Y59528249D02*
X-37257143Y59480630D01*
X-37257143Y59480630D02*
X-37066667Y59433011D01*
X-37066667Y59433011D02*
X-36971429Y59385392D01*
X-36971429Y59385392D02*
X-36923810Y59337773D01*
X-36923810Y59337773D02*
X-36876191Y59242535D01*
X-36876191Y59242535D02*
X-36876191Y59147297D01*
X-36876191Y59147297D02*
X-36923810Y59052059D01*
X-36923810Y59052059D02*
X-36971429Y59004440D01*
X-36971429Y59004440D02*
X-37066667Y58956821D01*
X-37066667Y58956821D02*
X-37304762Y58956821D01*
X-37304762Y58956821D02*
X-37447619Y59004440D01*
X-38447619Y59861582D02*
X-38400000Y59909201D01*
X-38400000Y59909201D02*
X-38257143Y59956821D01*
X-38257143Y59956821D02*
X-38161905Y59956821D01*
X-38161905Y59956821D02*
X-38019048Y59909201D01*
X-38019048Y59909201D02*
X-37923810Y59813963D01*
X-37923810Y59813963D02*
X-37876191Y59718725D01*
X-37876191Y59718725D02*
X-37828572Y59528249D01*
X-37828572Y59528249D02*
X-37828572Y59385392D01*
X-37828572Y59385392D02*
X-37876191Y59194916D01*
X-37876191Y59194916D02*
X-37923810Y59099678D01*
X-37923810Y59099678D02*
X-38019048Y59004440D01*
X-38019048Y59004440D02*
X-38161905Y58956821D01*
X-38161905Y58956821D02*
X-38257143Y58956821D01*
X-38257143Y58956821D02*
X-38400000Y59004440D01*
X-38400000Y59004440D02*
X-38447619Y59052059D01*
X-38828572Y59909201D02*
X-38971429Y59956821D01*
X-38971429Y59956821D02*
X-39209524Y59956821D01*
X-39209524Y59956821D02*
X-39304762Y59909201D01*
X-39304762Y59909201D02*
X-39352381Y59861582D01*
X-39352381Y59861582D02*
X-39400000Y59766344D01*
X-39400000Y59766344D02*
X-39400000Y59671106D01*
X-39400000Y59671106D02*
X-39352381Y59575868D01*
X-39352381Y59575868D02*
X-39304762Y59528249D01*
X-39304762Y59528249D02*
X-39209524Y59480630D01*
X-39209524Y59480630D02*
X-39019048Y59433011D01*
X-39019048Y59433011D02*
X-38923810Y59385392D01*
X-38923810Y59385392D02*
X-38876191Y59337773D01*
X-38876191Y59337773D02*
X-38828572Y59242535D01*
X-38828572Y59242535D02*
X-38828572Y59147297D01*
X-38828572Y59147297D02*
X-38876191Y59052059D01*
X-38876191Y59052059D02*
X-38923810Y59004440D01*
X-38923810Y59004440D02*
X-39019048Y58956821D01*
X-39019048Y58956821D02*
X-39257143Y58956821D01*
X-39257143Y58956821D02*
X-39400000Y59004440D01*
X-39828572Y59956821D02*
X-39828572Y58956821D01*
X-41066667Y59956821D02*
X-41066667Y58956821D01*
X-41066667Y58956821D02*
X-41447619Y58956821D01*
X-41447619Y58956821D02*
X-41542857Y59004440D01*
X-41542857Y59004440D02*
X-41590476Y59052059D01*
X-41590476Y59052059D02*
X-41638095Y59147297D01*
X-41638095Y59147297D02*
X-41638095Y59290154D01*
X-41638095Y59290154D02*
X-41590476Y59385392D01*
X-41590476Y59385392D02*
X-41542857Y59433011D01*
X-41542857Y59433011D02*
X-41447619Y59480630D01*
X-41447619Y59480630D02*
X-41066667Y59480630D01*
X-42066667Y59956821D02*
X-42066667Y58956821D01*
X-42066667Y59433011D02*
X-42638095Y59433011D01*
X-42638095Y59956821D02*
X-42638095Y58956821D01*
X-43304762Y59480630D02*
X-43304762Y59956821D01*
X-42971429Y58956821D02*
X-43304762Y59480630D01*
X-43304762Y59480630D02*
X-43638095Y58956821D01*
X-44733334Y59956821D02*
X-44733334Y58956821D01*
X-44733334Y58956821D02*
X-45066667Y59671106D01*
X-45066667Y59671106D02*
X-45400000Y58956821D01*
X-45400000Y58956821D02*
X-45400000Y59956821D01*
X-46257143Y59909201D02*
X-46161905Y59956821D01*
X-46161905Y59956821D02*
X-45971429Y59956821D01*
X-45971429Y59956821D02*
X-45876191Y59909201D01*
X-45876191Y59909201D02*
X-45828572Y59813963D01*
X-45828572Y59813963D02*
X-45828572Y59433011D01*
X-45828572Y59433011D02*
X-45876191Y59337773D01*
X-45876191Y59337773D02*
X-45971429Y59290154D01*
X-45971429Y59290154D02*
X-46161905Y59290154D01*
X-46161905Y59290154D02*
X-46257143Y59337773D01*
X-46257143Y59337773D02*
X-46304762Y59433011D01*
X-46304762Y59433011D02*
X-46304762Y59528249D01*
X-46304762Y59528249D02*
X-45828572Y59623487D01*
X-46638096Y59290154D02*
X-47161905Y59290154D01*
X-47161905Y59290154D02*
X-46638096Y59956821D01*
X-46638096Y59956821D02*
X-47161905Y59956821D01*
X-47447620Y59290154D02*
X-47971429Y59290154D01*
X-47971429Y59290154D02*
X-47447620Y59956821D01*
X-47447620Y59956821D02*
X-47971429Y59956821D01*
D10*
X-72742580Y18135334D02*
X-73218771Y17802001D01*
X-72742580Y17563906D02*
X-73742580Y17563906D01*
X-73742580Y17563906D02*
X-73742580Y17944858D01*
X-73742580Y17944858D02*
X-73694961Y18040096D01*
X-73694961Y18040096D02*
X-73647342Y18087715D01*
X-73647342Y18087715D02*
X-73552104Y18135334D01*
X-73552104Y18135334D02*
X-73409247Y18135334D01*
X-73409247Y18135334D02*
X-73314009Y18087715D01*
X-73314009Y18087715D02*
X-73266390Y18040096D01*
X-73266390Y18040096D02*
X-73218771Y17944858D01*
X-73218771Y17944858D02*
X-73218771Y17563906D01*
X-73742580Y18468668D02*
X-73742580Y19087715D01*
X-73742580Y19087715D02*
X-73361628Y18754382D01*
X-73361628Y18754382D02*
X-73361628Y18897239D01*
X-73361628Y18897239D02*
X-73314009Y18992477D01*
X-73314009Y18992477D02*
X-73266390Y19040096D01*
X-73266390Y19040096D02*
X-73171152Y19087715D01*
X-73171152Y19087715D02*
X-72933057Y19087715D01*
X-72933057Y19087715D02*
X-72837819Y19040096D01*
X-72837819Y19040096D02*
X-72790199Y18992477D01*
X-72790199Y18992477D02*
X-72742580Y18897239D01*
X-72742580Y18897239D02*
X-72742580Y18611525D01*
X-72742580Y18611525D02*
X-72790199Y18516287D01*
X-72790199Y18516287D02*
X-72837819Y18468668D01*
D11*
X-49090477Y32547181D02*
X-49661905Y32547181D01*
X-49376191Y32547181D02*
X-49376191Y33547181D01*
X-49376191Y33547181D02*
X-49471429Y33404324D01*
X-49471429Y33404324D02*
X-49566667Y33309086D01*
X-49566667Y33309086D02*
X-49661905Y33261467D01*
X-48138096Y32547181D02*
X-48709524Y32547181D01*
X-48423810Y32547181D02*
X-48423810Y33547181D01*
X-48423810Y33547181D02*
X-48519048Y33404324D01*
X-48519048Y33404324D02*
X-48614286Y33309086D01*
X-48614286Y33309086D02*
X-48709524Y33261467D01*
X-47757143Y33451943D02*
X-47709524Y33499562D01*
X-47709524Y33499562D02*
X-47614286Y33547181D01*
X-47614286Y33547181D02*
X-47376191Y33547181D01*
X-47376191Y33547181D02*
X-47280953Y33499562D01*
X-47280953Y33499562D02*
X-47233334Y33451943D01*
X-47233334Y33451943D02*
X-47185715Y33356705D01*
X-47185715Y33356705D02*
X-47185715Y33261467D01*
X-47185715Y33261467D02*
X-47233334Y33118610D01*
X-47233334Y33118610D02*
X-47804762Y32547181D01*
X-47804762Y32547181D02*
X-47185715Y32547181D01*
X-46757143Y32928134D02*
X-45995238Y32928134D01*
X-45328572Y33547181D02*
X-45233334Y33547181D01*
X-45233334Y33547181D02*
X-45138096Y33499562D01*
X-45138096Y33499562D02*
X-45090477Y33451943D01*
X-45090477Y33451943D02*
X-45042858Y33356705D01*
X-45042858Y33356705D02*
X-44995239Y33166229D01*
X-44995239Y33166229D02*
X-44995239Y32928134D01*
X-44995239Y32928134D02*
X-45042858Y32737658D01*
X-45042858Y32737658D02*
X-45090477Y32642420D01*
X-45090477Y32642420D02*
X-45138096Y32594800D01*
X-45138096Y32594800D02*
X-45233334Y32547181D01*
X-45233334Y32547181D02*
X-45328572Y32547181D01*
X-45328572Y32547181D02*
X-45423810Y32594800D01*
X-45423810Y32594800D02*
X-45471429Y32642420D01*
X-45471429Y32642420D02*
X-45519048Y32737658D01*
X-45519048Y32737658D02*
X-45566667Y32928134D01*
X-45566667Y32928134D02*
X-45566667Y33166229D01*
X-45566667Y33166229D02*
X-45519048Y33356705D01*
X-45519048Y33356705D02*
X-45471429Y33451943D01*
X-45471429Y33451943D02*
X-45423810Y33499562D01*
X-45423810Y33499562D02*
X-45328572Y33547181D01*
X-44090477Y33547181D02*
X-44566667Y33547181D01*
X-44566667Y33547181D02*
X-44614286Y33070991D01*
X-44614286Y33070991D02*
X-44566667Y33118610D01*
X-44566667Y33118610D02*
X-44471429Y33166229D01*
X-44471429Y33166229D02*
X-44233334Y33166229D01*
X-44233334Y33166229D02*
X-44138096Y33118610D01*
X-44138096Y33118610D02*
X-44090477Y33070991D01*
X-44090477Y33070991D02*
X-44042858Y32975753D01*
X-44042858Y32975753D02*
X-44042858Y32737658D01*
X-44042858Y32737658D02*
X-44090477Y32642420D01*
X-44090477Y32642420D02*
X-44138096Y32594800D01*
X-44138096Y32594800D02*
X-44233334Y32547181D01*
X-44233334Y32547181D02*
X-44471429Y32547181D01*
X-44471429Y32547181D02*
X-44566667Y32594800D01*
X-44566667Y32594800D02*
X-44614286Y32642420D01*
X-43423810Y33547181D02*
X-43328572Y33547181D01*
X-43328572Y33547181D02*
X-43233334Y33499562D01*
X-43233334Y33499562D02*
X-43185715Y33451943D01*
X-43185715Y33451943D02*
X-43138096Y33356705D01*
X-43138096Y33356705D02*
X-43090477Y33166229D01*
X-43090477Y33166229D02*
X-43090477Y32928134D01*
X-43090477Y32928134D02*
X-43138096Y32737658D01*
X-43138096Y32737658D02*
X-43185715Y32642420D01*
X-43185715Y32642420D02*
X-43233334Y32594800D01*
X-43233334Y32594800D02*
X-43328572Y32547181D01*
X-43328572Y32547181D02*
X-43423810Y32547181D01*
X-43423810Y32547181D02*
X-43519048Y32594800D01*
X-43519048Y32594800D02*
X-43566667Y32642420D01*
X-43566667Y32642420D02*
X-43614286Y32737658D01*
X-43614286Y32737658D02*
X-43661905Y32928134D01*
X-43661905Y32928134D02*
X-43661905Y33166229D01*
X-43661905Y33166229D02*
X-43614286Y33356705D01*
X-43614286Y33356705D02*
X-43566667Y33451943D01*
X-43566667Y33451943D02*
X-43519048Y33499562D01*
X-43519048Y33499562D02*
X-43423810Y33547181D01*
X-42661905Y32928134D02*
X-41900000Y32928134D01*
X-41471429Y33451943D02*
X-41423810Y33499562D01*
X-41423810Y33499562D02*
X-41328572Y33547181D01*
X-41328572Y33547181D02*
X-41090477Y33547181D01*
X-41090477Y33547181D02*
X-40995239Y33499562D01*
X-40995239Y33499562D02*
X-40947620Y33451943D01*
X-40947620Y33451943D02*
X-40900001Y33356705D01*
X-40900001Y33356705D02*
X-40900001Y33261467D01*
X-40900001Y33261467D02*
X-40947620Y33118610D01*
X-40947620Y33118610D02*
X-41519048Y32547181D01*
X-41519048Y32547181D02*
X-40900001Y32547181D01*
X-39947620Y32547181D02*
X-40519048Y32547181D01*
X-40233334Y32547181D02*
X-40233334Y33547181D01*
X-40233334Y33547181D02*
X-40328572Y33404324D01*
X-40328572Y33404324D02*
X-40423810Y33309086D01*
X-40423810Y33309086D02*
X-40519048Y33261467D01*
X-39614286Y33547181D02*
X-38995239Y33547181D01*
X-38995239Y33547181D02*
X-39328572Y33166229D01*
X-39328572Y33166229D02*
X-39185715Y33166229D01*
X-39185715Y33166229D02*
X-39090477Y33118610D01*
X-39090477Y33118610D02*
X-39042858Y33070991D01*
X-39042858Y33070991D02*
X-38995239Y32975753D01*
X-38995239Y32975753D02*
X-38995239Y32737658D01*
X-38995239Y32737658D02*
X-39042858Y32642420D01*
X-39042858Y32642420D02*
X-39090477Y32594800D01*
X-39090477Y32594800D02*
X-39185715Y32547181D01*
X-39185715Y32547181D02*
X-39471429Y32547181D01*
X-39471429Y32547181D02*
X-39566667Y32594800D01*
X-39566667Y32594800D02*
X-39614286Y32642420D01*
X-37995239Y32547181D02*
X-38328572Y33023372D01*
X-38566667Y32547181D02*
X-38566667Y33547181D01*
X-38566667Y33547181D02*
X-38185715Y33547181D01*
X-38185715Y33547181D02*
X-38090477Y33499562D01*
X-38090477Y33499562D02*
X-38042858Y33451943D01*
X-38042858Y33451943D02*
X-37995239Y33356705D01*
X-37995239Y33356705D02*
X-37995239Y33213848D01*
X-37995239Y33213848D02*
X-38042858Y33118610D01*
X-38042858Y33118610D02*
X-38090477Y33070991D01*
X-38090477Y33070991D02*
X-38185715Y33023372D01*
X-38185715Y33023372D02*
X-38566667Y33023372D01*
X-37376191Y33547181D02*
X-37280953Y33547181D01*
X-37280953Y33547181D02*
X-37185715Y33499562D01*
X-37185715Y33499562D02*
X-37138096Y33451943D01*
X-37138096Y33451943D02*
X-37090477Y33356705D01*
X-37090477Y33356705D02*
X-37042858Y33166229D01*
X-37042858Y33166229D02*
X-37042858Y32928134D01*
X-37042858Y32928134D02*
X-37090477Y32737658D01*
X-37090477Y32737658D02*
X-37138096Y32642420D01*
X-37138096Y32642420D02*
X-37185715Y32594800D01*
X-37185715Y32594800D02*
X-37280953Y32547181D01*
X-37280953Y32547181D02*
X-37376191Y32547181D01*
X-37376191Y32547181D02*
X-37471429Y32594800D01*
X-37471429Y32594800D02*
X-37519048Y32642420D01*
X-37519048Y32642420D02*
X-37566667Y32737658D01*
X-37566667Y32737658D02*
X-37614286Y32928134D01*
X-37614286Y32928134D02*
X-37614286Y33166229D01*
X-37614286Y33166229D02*
X-37566667Y33356705D01*
X-37566667Y33356705D02*
X-37519048Y33451943D01*
X-37519048Y33451943D02*
X-37471429Y33499562D01*
X-37471429Y33499562D02*
X-37376191Y33547181D01*
X-36423810Y33547181D02*
X-36328572Y33547181D01*
X-36328572Y33547181D02*
X-36233334Y33499562D01*
X-36233334Y33499562D02*
X-36185715Y33451943D01*
X-36185715Y33451943D02*
X-36138096Y33356705D01*
X-36138096Y33356705D02*
X-36090477Y33166229D01*
X-36090477Y33166229D02*
X-36090477Y32928134D01*
X-36090477Y32928134D02*
X-36138096Y32737658D01*
X-36138096Y32737658D02*
X-36185715Y32642420D01*
X-36185715Y32642420D02*
X-36233334Y32594800D01*
X-36233334Y32594800D02*
X-36328572Y32547181D01*
X-36328572Y32547181D02*
X-36423810Y32547181D01*
X-36423810Y32547181D02*
X-36519048Y32594800D01*
X-36519048Y32594800D02*
X-36566667Y32642420D01*
X-36566667Y32642420D02*
X-36614286Y32737658D01*
X-36614286Y32737658D02*
X-36661905Y32928134D01*
X-36661905Y32928134D02*
X-36661905Y33166229D01*
X-36661905Y33166229D02*
X-36614286Y33356705D01*
X-36614286Y33356705D02*
X-36566667Y33451943D01*
X-36566667Y33451943D02*
X-36519048Y33499562D01*
X-36519048Y33499562D02*
X-36423810Y33547181D01*
X-35138096Y32547181D02*
X-35709524Y32547181D01*
X-35423810Y32547181D02*
X-35423810Y33547181D01*
X-35423810Y33547181D02*
X-35519048Y33404324D01*
X-35519048Y33404324D02*
X-35614286Y33309086D01*
X-35614286Y33309086D02*
X-35709524Y33261467D01*
D10*
X-72742580Y62135334D02*
X-73218771Y61802001D01*
X-72742580Y61563906D02*
X-73742580Y61563906D01*
X-73742580Y61563906D02*
X-73742580Y61944858D01*
X-73742580Y61944858D02*
X-73694961Y62040096D01*
X-73694961Y62040096D02*
X-73647342Y62087715D01*
X-73647342Y62087715D02*
X-73552104Y62135334D01*
X-73552104Y62135334D02*
X-73409247Y62135334D01*
X-73409247Y62135334D02*
X-73314009Y62087715D01*
X-73314009Y62087715D02*
X-73266390Y62040096D01*
X-73266390Y62040096D02*
X-73218771Y61944858D01*
X-73218771Y61944858D02*
X-73218771Y61563906D01*
X-73742580Y62468668D02*
X-73742580Y63087715D01*
X-73742580Y63087715D02*
X-73361628Y62754382D01*
X-73361628Y62754382D02*
X-73361628Y62897239D01*
X-73361628Y62897239D02*
X-73314009Y62992477D01*
X-73314009Y62992477D02*
X-73266390Y63040096D01*
X-73266390Y63040096D02*
X-73171152Y63087715D01*
X-73171152Y63087715D02*
X-72933057Y63087715D01*
X-72933057Y63087715D02*
X-72837819Y63040096D01*
X-72837819Y63040096D02*
X-72790199Y62992477D01*
X-72790199Y62992477D02*
X-72742580Y62897239D01*
X-72742580Y62897239D02*
X-72742580Y62611525D01*
X-72742580Y62611525D02*
X-72790199Y62516287D01*
X-72790199Y62516287D02*
X-72837819Y62468668D01*
D11*
X-71545182Y54240096D02*
X-70735659Y54240096D01*
X-70735659Y54240096D02*
X-70640421Y54287715D01*
X-70640421Y54287715D02*
X-70592801Y54335334D01*
X-70592801Y54335334D02*
X-70545182Y54430572D01*
X-70545182Y54430572D02*
X-70545182Y54621048D01*
X-70545182Y54621048D02*
X-70592801Y54716286D01*
X-70592801Y54716286D02*
X-70640421Y54763905D01*
X-70640421Y54763905D02*
X-70735659Y54811524D01*
X-70735659Y54811524D02*
X-71545182Y54811524D01*
X-70545182Y55811524D02*
X-70545182Y55240096D01*
X-70545182Y55525810D02*
X-71545182Y55525810D01*
X-71545182Y55525810D02*
X-71402325Y55430572D01*
X-71402325Y55430572D02*
X-71307087Y55335334D01*
X-71307087Y55335334D02*
X-71259468Y55240096D01*
D10*
X-71687819Y54835334D02*
X-71640199Y54787715D01*
X-71640199Y54787715D02*
X-71592580Y54644858D01*
X-71592580Y54644858D02*
X-71592580Y54549620D01*
X-71592580Y54549620D02*
X-71640199Y54406763D01*
X-71640199Y54406763D02*
X-71735438Y54311525D01*
X-71735438Y54311525D02*
X-71830676Y54263906D01*
X-71830676Y54263906D02*
X-72021152Y54216287D01*
X-72021152Y54216287D02*
X-72164009Y54216287D01*
X-72164009Y54216287D02*
X-72354485Y54263906D01*
X-72354485Y54263906D02*
X-72449723Y54311525D01*
X-72449723Y54311525D02*
X-72544961Y54406763D01*
X-72544961Y54406763D02*
X-72592580Y54549620D01*
X-72592580Y54549620D02*
X-72592580Y54644858D01*
X-72592580Y54644858D02*
X-72544961Y54787715D01*
X-72544961Y54787715D02*
X-72497342Y54835334D01*
X-71592580Y55787715D02*
X-71592580Y55216287D01*
X-71592580Y55502001D02*
X-72592580Y55502001D01*
X-72592580Y55502001D02*
X-72449723Y55406763D01*
X-72449723Y55406763D02*
X-72354485Y55311525D01*
X-72354485Y55311525D02*
X-72306866Y55216287D01*
X-9966667Y67444581D02*
X-10300000Y67920772D01*
X-10538095Y67444581D02*
X-10538095Y68444581D01*
X-10538095Y68444581D02*
X-10157143Y68444581D01*
X-10157143Y68444581D02*
X-10061905Y68396962D01*
X-10061905Y68396962D02*
X-10014286Y68349343D01*
X-10014286Y68349343D02*
X-9966667Y68254105D01*
X-9966667Y68254105D02*
X-9966667Y68111248D01*
X-9966667Y68111248D02*
X-10014286Y68016010D01*
X-10014286Y68016010D02*
X-10061905Y67968391D01*
X-10061905Y67968391D02*
X-10157143Y67920772D01*
X-10157143Y67920772D02*
X-10538095Y67920772D01*
X-9109524Y68111248D02*
X-9109524Y67444581D01*
X-9347619Y68492200D02*
X-9585714Y67777915D01*
X-9585714Y67777915D02*
X-8966667Y67777915D01*
X-70542582Y110435334D02*
X-71018773Y110102001D01*
X-70542582Y109863906D02*
X-71542582Y109863906D01*
X-71542582Y109863906D02*
X-71542582Y110244858D01*
X-71542582Y110244858D02*
X-71494963Y110340096D01*
X-71494963Y110340096D02*
X-71447344Y110387715D01*
X-71447344Y110387715D02*
X-71352106Y110435334D01*
X-71352106Y110435334D02*
X-71209249Y110435334D01*
X-71209249Y110435334D02*
X-71114011Y110387715D01*
X-71114011Y110387715D02*
X-71066392Y110340096D01*
X-71066392Y110340096D02*
X-71018773Y110244858D01*
X-71018773Y110244858D02*
X-71018773Y109863906D01*
X-71447344Y110816287D02*
X-71494963Y110863906D01*
X-71494963Y110863906D02*
X-71542582Y110959144D01*
X-71542582Y110959144D02*
X-71542582Y111197239D01*
X-71542582Y111197239D02*
X-71494963Y111292477D01*
X-71494963Y111292477D02*
X-71447344Y111340096D01*
X-71447344Y111340096D02*
X-71352106Y111387715D01*
X-71352106Y111387715D02*
X-71256868Y111387715D01*
X-71256868Y111387715D02*
X-71114011Y111340096D01*
X-71114011Y111340096D02*
X-70542582Y110768668D01*
X-70542582Y110768668D02*
X-70542582Y111387715D01*
X-9966667Y115339819D02*
X-10014286Y115292199D01*
X-10014286Y115292199D02*
X-10157143Y115244580D01*
X-10157143Y115244580D02*
X-10252381Y115244580D01*
X-10252381Y115244580D02*
X-10395238Y115292199D01*
X-10395238Y115292199D02*
X-10490476Y115387438D01*
X-10490476Y115387438D02*
X-10538095Y115482676D01*
X-10538095Y115482676D02*
X-10585714Y115673152D01*
X-10585714Y115673152D02*
X-10585714Y115816009D01*
X-10585714Y115816009D02*
X-10538095Y116006485D01*
X-10538095Y116006485D02*
X-10490476Y116101723D01*
X-10490476Y116101723D02*
X-10395238Y116196961D01*
X-10395238Y116196961D02*
X-10252381Y116244580D01*
X-10252381Y116244580D02*
X-10157143Y116244580D01*
X-10157143Y116244580D02*
X-10014286Y116196961D01*
X-10014286Y116196961D02*
X-9966667Y116149342D01*
X-9585714Y116149342D02*
X-9538095Y116196961D01*
X-9538095Y116196961D02*
X-9442857Y116244580D01*
X-9442857Y116244580D02*
X-9204762Y116244580D01*
X-9204762Y116244580D02*
X-9109524Y116196961D01*
X-9109524Y116196961D02*
X-9061905Y116149342D01*
X-9061905Y116149342D02*
X-9014286Y116054104D01*
X-9014286Y116054104D02*
X-9014286Y115958866D01*
X-9014286Y115958866D02*
X-9061905Y115816009D01*
X-9061905Y115816009D02*
X-9633333Y115244580D01*
X-9633333Y115244580D02*
X-9014286Y115244580D01*
X-76442581Y59668667D02*
X-75728296Y59668667D01*
X-75728296Y59668667D02*
X-75585439Y59621048D01*
X-75585439Y59621048D02*
X-75490200Y59525810D01*
X-75490200Y59525810D02*
X-75442581Y59382953D01*
X-75442581Y59382953D02*
X-75442581Y59287715D01*
X-76442581Y60049620D02*
X-76442581Y60668667D01*
X-76442581Y60668667D02*
X-76061629Y60335334D01*
X-76061629Y60335334D02*
X-76061629Y60478191D01*
X-76061629Y60478191D02*
X-76014010Y60573429D01*
X-76014010Y60573429D02*
X-75966391Y60621048D01*
X-75966391Y60621048D02*
X-75871153Y60668667D01*
X-75871153Y60668667D02*
X-75633058Y60668667D01*
X-75633058Y60668667D02*
X-75537820Y60621048D01*
X-75537820Y60621048D02*
X-75490200Y60573429D01*
X-75490200Y60573429D02*
X-75442581Y60478191D01*
X-75442581Y60478191D02*
X-75442581Y60192477D01*
X-75442581Y60192477D02*
X-75490200Y60097239D01*
X-75490200Y60097239D02*
X-75537820Y60049620D01*
D11*
X-71900421Y63273905D02*
X-71852801Y63226286D01*
X-71852801Y63226286D02*
X-71805182Y63083429D01*
X-71805182Y63083429D02*
X-71805182Y62988191D01*
X-71805182Y62988191D02*
X-71852801Y62845334D01*
X-71852801Y62845334D02*
X-71948040Y62750096D01*
X-71948040Y62750096D02*
X-72043278Y62702477D01*
X-72043278Y62702477D02*
X-72233754Y62654858D01*
X-72233754Y62654858D02*
X-72376611Y62654858D01*
X-72376611Y62654858D02*
X-72567087Y62702477D01*
X-72567087Y62702477D02*
X-72662325Y62750096D01*
X-72662325Y62750096D02*
X-72757563Y62845334D01*
X-72757563Y62845334D02*
X-72805182Y62988191D01*
X-72805182Y62988191D02*
X-72805182Y63083429D01*
X-72805182Y63083429D02*
X-72757563Y63226286D01*
X-72757563Y63226286D02*
X-72709944Y63273905D01*
X-71805182Y63845334D02*
X-71852801Y63750096D01*
X-71852801Y63750096D02*
X-71900421Y63702477D01*
X-71900421Y63702477D02*
X-71995659Y63654858D01*
X-71995659Y63654858D02*
X-72281373Y63654858D01*
X-72281373Y63654858D02*
X-72376611Y63702477D01*
X-72376611Y63702477D02*
X-72424230Y63750096D01*
X-72424230Y63750096D02*
X-72471849Y63845334D01*
X-72471849Y63845334D02*
X-72471849Y63988191D01*
X-72471849Y63988191D02*
X-72424230Y64083429D01*
X-72424230Y64083429D02*
X-72376611Y64131048D01*
X-72376611Y64131048D02*
X-72281373Y64178667D01*
X-72281373Y64178667D02*
X-71995659Y64178667D01*
X-71995659Y64178667D02*
X-71900421Y64131048D01*
X-71900421Y64131048D02*
X-71852801Y64083429D01*
X-71852801Y64083429D02*
X-71805182Y63988191D01*
X-71805182Y63988191D02*
X-71805182Y63845334D01*
X-72471849Y64607239D02*
X-71805182Y64607239D01*
X-72376611Y64607239D02*
X-72424230Y64654858D01*
X-72424230Y64654858D02*
X-72471849Y64750096D01*
X-72471849Y64750096D02*
X-72471849Y64892953D01*
X-72471849Y64892953D02*
X-72424230Y64988191D01*
X-72424230Y64988191D02*
X-72328992Y65035810D01*
X-72328992Y65035810D02*
X-71805182Y65035810D01*
X-72471849Y65512001D02*
X-71805182Y65512001D01*
X-72376611Y65512001D02*
X-72424230Y65559620D01*
X-72424230Y65559620D02*
X-72471849Y65654858D01*
X-72471849Y65654858D02*
X-72471849Y65797715D01*
X-72471849Y65797715D02*
X-72424230Y65892953D01*
X-72424230Y65892953D02*
X-72328992Y65940572D01*
X-72328992Y65940572D02*
X-71805182Y65940572D01*
X-71709944Y66178667D02*
X-71709944Y66940572D01*
X-72805182Y67369144D02*
X-72805182Y67464382D01*
X-72805182Y67464382D02*
X-72757563Y67559620D01*
X-72757563Y67559620D02*
X-72709944Y67607239D01*
X-72709944Y67607239D02*
X-72614706Y67654858D01*
X-72614706Y67654858D02*
X-72424230Y67702477D01*
X-72424230Y67702477D02*
X-72186135Y67702477D01*
X-72186135Y67702477D02*
X-71995659Y67654858D01*
X-71995659Y67654858D02*
X-71900421Y67607239D01*
X-71900421Y67607239D02*
X-71852801Y67559620D01*
X-71852801Y67559620D02*
X-71805182Y67464382D01*
X-71805182Y67464382D02*
X-71805182Y67369144D01*
X-71805182Y67369144D02*
X-71852801Y67273906D01*
X-71852801Y67273906D02*
X-71900421Y67226287D01*
X-71900421Y67226287D02*
X-71995659Y67178668D01*
X-71995659Y67178668D02*
X-72186135Y67131049D01*
X-72186135Y67131049D02*
X-72424230Y67131049D01*
X-72424230Y67131049D02*
X-72614706Y67178668D01*
X-72614706Y67178668D02*
X-72709944Y67226287D01*
X-72709944Y67226287D02*
X-72757563Y67273906D01*
X-72757563Y67273906D02*
X-72805182Y67369144D01*
X-71805182Y68654858D02*
X-71805182Y68083430D01*
X-71805182Y68369144D02*
X-72805182Y68369144D01*
X-72805182Y68369144D02*
X-72662325Y68273906D01*
X-72662325Y68273906D02*
X-72567087Y68178668D01*
X-72567087Y68178668D02*
X-72519468Y68083430D01*
X-71805182Y68988192D02*
X-72471849Y69512001D01*
X-72471849Y68988192D02*
X-71805182Y69512001D01*
X-72805182Y70083430D02*
X-72805182Y70178668D01*
X-72805182Y70178668D02*
X-72757563Y70273906D01*
X-72757563Y70273906D02*
X-72709944Y70321525D01*
X-72709944Y70321525D02*
X-72614706Y70369144D01*
X-72614706Y70369144D02*
X-72424230Y70416763D01*
X-72424230Y70416763D02*
X-72186135Y70416763D01*
X-72186135Y70416763D02*
X-71995659Y70369144D01*
X-71995659Y70369144D02*
X-71900421Y70321525D01*
X-71900421Y70321525D02*
X-71852801Y70273906D01*
X-71852801Y70273906D02*
X-71805182Y70178668D01*
X-71805182Y70178668D02*
X-71805182Y70083430D01*
X-71805182Y70083430D02*
X-71852801Y69988192D01*
X-71852801Y69988192D02*
X-71900421Y69940573D01*
X-71900421Y69940573D02*
X-71995659Y69892954D01*
X-71995659Y69892954D02*
X-72186135Y69845335D01*
X-72186135Y69845335D02*
X-72424230Y69845335D01*
X-72424230Y69845335D02*
X-72614706Y69892954D01*
X-72614706Y69892954D02*
X-72709944Y69940573D01*
X-72709944Y69940573D02*
X-72757563Y69988192D01*
X-72757563Y69988192D02*
X-72805182Y70083430D01*
X-72471849Y71273906D02*
X-71805182Y71273906D01*
X-72852801Y71035811D02*
X-72138516Y70797716D01*
X-72138516Y70797716D02*
X-72138516Y71416763D01*
X-76615181Y64773667D02*
X-75900896Y64773667D01*
X-75900896Y64773667D02*
X-75758039Y64726048D01*
X-75758039Y64726048D02*
X-75662800Y64630810D01*
X-75662800Y64630810D02*
X-75615181Y64487953D01*
X-75615181Y64487953D02*
X-75615181Y64392715D01*
X-76615181Y65154620D02*
X-76615181Y65773667D01*
X-76615181Y65773667D02*
X-76234229Y65440334D01*
X-76234229Y65440334D02*
X-76234229Y65583191D01*
X-76234229Y65583191D02*
X-76186610Y65678429D01*
X-76186610Y65678429D02*
X-76138991Y65726048D01*
X-76138991Y65726048D02*
X-76043753Y65773667D01*
X-76043753Y65773667D02*
X-75805658Y65773667D01*
X-75805658Y65773667D02*
X-75710420Y65726048D01*
X-75710420Y65726048D02*
X-75662800Y65678429D01*
X-75662800Y65678429D02*
X-75615181Y65583191D01*
X-75615181Y65583191D02*
X-75615181Y65297477D01*
X-75615181Y65297477D02*
X-75662800Y65202239D01*
X-75662800Y65202239D02*
X-75710420Y65154620D01*
D10*
X-67692580Y10835334D02*
X-68168771Y10502001D01*
X-67692580Y10263906D02*
X-68692580Y10263906D01*
X-68692580Y10263906D02*
X-68692580Y10644858D01*
X-68692580Y10644858D02*
X-68644961Y10740096D01*
X-68644961Y10740096D02*
X-68597342Y10787715D01*
X-68597342Y10787715D02*
X-68502104Y10835334D01*
X-68502104Y10835334D02*
X-68359247Y10835334D01*
X-68359247Y10835334D02*
X-68264009Y10787715D01*
X-68264009Y10787715D02*
X-68216390Y10740096D01*
X-68216390Y10740096D02*
X-68168771Y10644858D01*
X-68168771Y10644858D02*
X-68168771Y10263906D01*
X-67692580Y11787715D02*
X-67692580Y11216287D01*
X-67692580Y11502001D02*
X-68692580Y11502001D01*
X-68692580Y11502001D02*
X-68549723Y11406763D01*
X-68549723Y11406763D02*
X-68454485Y11311525D01*
X-68454485Y11311525D02*
X-68406866Y11216287D01*
X-76442581Y103668667D02*
X-75728296Y103668667D01*
X-75728296Y103668667D02*
X-75585439Y103621048D01*
X-75585439Y103621048D02*
X-75490200Y103525810D01*
X-75490200Y103525810D02*
X-75442581Y103382953D01*
X-75442581Y103382953D02*
X-75442581Y103287715D01*
X-76442581Y104049620D02*
X-76442581Y104668667D01*
X-76442581Y104668667D02*
X-76061629Y104335334D01*
X-76061629Y104335334D02*
X-76061629Y104478191D01*
X-76061629Y104478191D02*
X-76014010Y104573429D01*
X-76014010Y104573429D02*
X-75966391Y104621048D01*
X-75966391Y104621048D02*
X-75871153Y104668667D01*
X-75871153Y104668667D02*
X-75633058Y104668667D01*
X-75633058Y104668667D02*
X-75537820Y104621048D01*
X-75537820Y104621048D02*
X-75490200Y104573429D01*
X-75490200Y104573429D02*
X-75442581Y104478191D01*
X-75442581Y104478191D02*
X-75442581Y104192477D01*
X-75442581Y104192477D02*
X-75490200Y104097239D01*
X-75490200Y104097239D02*
X-75537820Y104049620D01*
D11*
X-71900421Y107273905D02*
X-71852801Y107226286D01*
X-71852801Y107226286D02*
X-71805182Y107083429D01*
X-71805182Y107083429D02*
X-71805182Y106988191D01*
X-71805182Y106988191D02*
X-71852801Y106845334D01*
X-71852801Y106845334D02*
X-71948040Y106750096D01*
X-71948040Y106750096D02*
X-72043278Y106702477D01*
X-72043278Y106702477D02*
X-72233754Y106654858D01*
X-72233754Y106654858D02*
X-72376611Y106654858D01*
X-72376611Y106654858D02*
X-72567087Y106702477D01*
X-72567087Y106702477D02*
X-72662325Y106750096D01*
X-72662325Y106750096D02*
X-72757563Y106845334D01*
X-72757563Y106845334D02*
X-72805182Y106988191D01*
X-72805182Y106988191D02*
X-72805182Y107083429D01*
X-72805182Y107083429D02*
X-72757563Y107226286D01*
X-72757563Y107226286D02*
X-72709944Y107273905D01*
X-71805182Y107845334D02*
X-71852801Y107750096D01*
X-71852801Y107750096D02*
X-71900421Y107702477D01*
X-71900421Y107702477D02*
X-71995659Y107654858D01*
X-71995659Y107654858D02*
X-72281373Y107654858D01*
X-72281373Y107654858D02*
X-72376611Y107702477D01*
X-72376611Y107702477D02*
X-72424230Y107750096D01*
X-72424230Y107750096D02*
X-72471849Y107845334D01*
X-72471849Y107845334D02*
X-72471849Y107988191D01*
X-72471849Y107988191D02*
X-72424230Y108083429D01*
X-72424230Y108083429D02*
X-72376611Y108131048D01*
X-72376611Y108131048D02*
X-72281373Y108178667D01*
X-72281373Y108178667D02*
X-71995659Y108178667D01*
X-71995659Y108178667D02*
X-71900421Y108131048D01*
X-71900421Y108131048D02*
X-71852801Y108083429D01*
X-71852801Y108083429D02*
X-71805182Y107988191D01*
X-71805182Y107988191D02*
X-71805182Y107845334D01*
X-72471849Y108607239D02*
X-71805182Y108607239D01*
X-72376611Y108607239D02*
X-72424230Y108654858D01*
X-72424230Y108654858D02*
X-72471849Y108750096D01*
X-72471849Y108750096D02*
X-72471849Y108892953D01*
X-72471849Y108892953D02*
X-72424230Y108988191D01*
X-72424230Y108988191D02*
X-72328992Y109035810D01*
X-72328992Y109035810D02*
X-71805182Y109035810D01*
X-72471849Y109512001D02*
X-71805182Y109512001D01*
X-72376611Y109512001D02*
X-72424230Y109559620D01*
X-72424230Y109559620D02*
X-72471849Y109654858D01*
X-72471849Y109654858D02*
X-72471849Y109797715D01*
X-72471849Y109797715D02*
X-72424230Y109892953D01*
X-72424230Y109892953D02*
X-72328992Y109940572D01*
X-72328992Y109940572D02*
X-71805182Y109940572D01*
X-71709944Y110178667D02*
X-71709944Y110940572D01*
X-72805182Y111369144D02*
X-72805182Y111464382D01*
X-72805182Y111464382D02*
X-72757563Y111559620D01*
X-72757563Y111559620D02*
X-72709944Y111607239D01*
X-72709944Y111607239D02*
X-72614706Y111654858D01*
X-72614706Y111654858D02*
X-72424230Y111702477D01*
X-72424230Y111702477D02*
X-72186135Y111702477D01*
X-72186135Y111702477D02*
X-71995659Y111654858D01*
X-71995659Y111654858D02*
X-71900421Y111607239D01*
X-71900421Y111607239D02*
X-71852801Y111559620D01*
X-71852801Y111559620D02*
X-71805182Y111464382D01*
X-71805182Y111464382D02*
X-71805182Y111369144D01*
X-71805182Y111369144D02*
X-71852801Y111273906D01*
X-71852801Y111273906D02*
X-71900421Y111226287D01*
X-71900421Y111226287D02*
X-71995659Y111178668D01*
X-71995659Y111178668D02*
X-72186135Y111131049D01*
X-72186135Y111131049D02*
X-72424230Y111131049D01*
X-72424230Y111131049D02*
X-72614706Y111178668D01*
X-72614706Y111178668D02*
X-72709944Y111226287D01*
X-72709944Y111226287D02*
X-72757563Y111273906D01*
X-72757563Y111273906D02*
X-72805182Y111369144D01*
X-71805182Y112654858D02*
X-71805182Y112083430D01*
X-71805182Y112369144D02*
X-72805182Y112369144D01*
X-72805182Y112369144D02*
X-72662325Y112273906D01*
X-72662325Y112273906D02*
X-72567087Y112178668D01*
X-72567087Y112178668D02*
X-72519468Y112083430D01*
X-71805182Y112988192D02*
X-72471849Y113512001D01*
X-72471849Y112988192D02*
X-71805182Y113512001D01*
X-72805182Y114083430D02*
X-72805182Y114178668D01*
X-72805182Y114178668D02*
X-72757563Y114273906D01*
X-72757563Y114273906D02*
X-72709944Y114321525D01*
X-72709944Y114321525D02*
X-72614706Y114369144D01*
X-72614706Y114369144D02*
X-72424230Y114416763D01*
X-72424230Y114416763D02*
X-72186135Y114416763D01*
X-72186135Y114416763D02*
X-71995659Y114369144D01*
X-71995659Y114369144D02*
X-71900421Y114321525D01*
X-71900421Y114321525D02*
X-71852801Y114273906D01*
X-71852801Y114273906D02*
X-71805182Y114178668D01*
X-71805182Y114178668D02*
X-71805182Y114083430D01*
X-71805182Y114083430D02*
X-71852801Y113988192D01*
X-71852801Y113988192D02*
X-71900421Y113940573D01*
X-71900421Y113940573D02*
X-71995659Y113892954D01*
X-71995659Y113892954D02*
X-72186135Y113845335D01*
X-72186135Y113845335D02*
X-72424230Y113845335D01*
X-72424230Y113845335D02*
X-72614706Y113892954D01*
X-72614706Y113892954D02*
X-72709944Y113940573D01*
X-72709944Y113940573D02*
X-72757563Y113988192D01*
X-72757563Y113988192D02*
X-72805182Y114083430D01*
X-72471849Y115273906D02*
X-71805182Y115273906D01*
X-72852801Y115035811D02*
X-72138516Y114797716D01*
X-72138516Y114797716D02*
X-72138516Y115416763D01*
X-76615181Y108773667D02*
X-75900896Y108773667D01*
X-75900896Y108773667D02*
X-75758039Y108726048D01*
X-75758039Y108726048D02*
X-75662800Y108630810D01*
X-75662800Y108630810D02*
X-75615181Y108487953D01*
X-75615181Y108487953D02*
X-75615181Y108392715D01*
X-76615181Y109154620D02*
X-76615181Y109773667D01*
X-76615181Y109773667D02*
X-76234229Y109440334D01*
X-76234229Y109440334D02*
X-76234229Y109583191D01*
X-76234229Y109583191D02*
X-76186610Y109678429D01*
X-76186610Y109678429D02*
X-76138991Y109726048D01*
X-76138991Y109726048D02*
X-76043753Y109773667D01*
X-76043753Y109773667D02*
X-75805658Y109773667D01*
X-75805658Y109773667D02*
X-75710420Y109726048D01*
X-75710420Y109726048D02*
X-75662800Y109678429D01*
X-75662800Y109678429D02*
X-75615181Y109583191D01*
X-75615181Y109583191D02*
X-75615181Y109297477D01*
X-75615181Y109297477D02*
X-75662800Y109202239D01*
X-75662800Y109202239D02*
X-75710420Y109154620D01*
D10*
X-9966667Y71339819D02*
X-10014286Y71292199D01*
X-10014286Y71292199D02*
X-10157143Y71244580D01*
X-10157143Y71244580D02*
X-10252381Y71244580D01*
X-10252381Y71244580D02*
X-10395238Y71292199D01*
X-10395238Y71292199D02*
X-10490476Y71387438D01*
X-10490476Y71387438D02*
X-10538095Y71482676D01*
X-10538095Y71482676D02*
X-10585714Y71673152D01*
X-10585714Y71673152D02*
X-10585714Y71816009D01*
X-10585714Y71816009D02*
X-10538095Y72006485D01*
X-10538095Y72006485D02*
X-10490476Y72101723D01*
X-10490476Y72101723D02*
X-10395238Y72196961D01*
X-10395238Y72196961D02*
X-10252381Y72244580D01*
X-10252381Y72244580D02*
X-10157143Y72244580D01*
X-10157143Y72244580D02*
X-10014286Y72196961D01*
X-10014286Y72196961D02*
X-9966667Y72149342D01*
X-9585714Y72149342D02*
X-9538095Y72196961D01*
X-9538095Y72196961D02*
X-9442857Y72244580D01*
X-9442857Y72244580D02*
X-9204762Y72244580D01*
X-9204762Y72244580D02*
X-9109524Y72196961D01*
X-9109524Y72196961D02*
X-9061905Y72149342D01*
X-9061905Y72149342D02*
X-9014286Y72054104D01*
X-9014286Y72054104D02*
X-9014286Y71958866D01*
X-9014286Y71958866D02*
X-9061905Y71816009D01*
X-9061905Y71816009D02*
X-9633333Y71244580D01*
X-9633333Y71244580D02*
X-9014286Y71244580D01*
X-72742580Y106135334D02*
X-73218771Y105802001D01*
X-72742580Y105563906D02*
X-73742580Y105563906D01*
X-73742580Y105563906D02*
X-73742580Y105944858D01*
X-73742580Y105944858D02*
X-73694961Y106040096D01*
X-73694961Y106040096D02*
X-73647342Y106087715D01*
X-73647342Y106087715D02*
X-73552104Y106135334D01*
X-73552104Y106135334D02*
X-73409247Y106135334D01*
X-73409247Y106135334D02*
X-73314009Y106087715D01*
X-73314009Y106087715D02*
X-73266390Y106040096D01*
X-73266390Y106040096D02*
X-73218771Y105944858D01*
X-73218771Y105944858D02*
X-73218771Y105563906D01*
X-73742580Y106468668D02*
X-73742580Y107087715D01*
X-73742580Y107087715D02*
X-73361628Y106754382D01*
X-73361628Y106754382D02*
X-73361628Y106897239D01*
X-73361628Y106897239D02*
X-73314009Y106992477D01*
X-73314009Y106992477D02*
X-73266390Y107040096D01*
X-73266390Y107040096D02*
X-73171152Y107087715D01*
X-73171152Y107087715D02*
X-72933057Y107087715D01*
X-72933057Y107087715D02*
X-72837819Y107040096D01*
X-72837819Y107040096D02*
X-72790199Y106992477D01*
X-72790199Y106992477D02*
X-72742580Y106897239D01*
X-72742580Y106897239D02*
X-72742580Y106611525D01*
X-72742580Y106611525D02*
X-72790199Y106516287D01*
X-72790199Y106516287D02*
X-72837819Y106468668D01*
D11*
X-76661905Y98547181D02*
X-76661905Y99547181D01*
X-76661905Y99070991D02*
X-76090477Y99070991D01*
X-76090477Y98547181D02*
X-76090477Y99547181D01*
X-75709524Y99547181D02*
X-75090477Y99547181D01*
X-75090477Y99547181D02*
X-75423810Y99166229D01*
X-75423810Y99166229D02*
X-75280953Y99166229D01*
X-75280953Y99166229D02*
X-75185715Y99118610D01*
X-75185715Y99118610D02*
X-75138096Y99070991D01*
X-75138096Y99070991D02*
X-75090477Y98975753D01*
X-75090477Y98975753D02*
X-75090477Y98737658D01*
X-75090477Y98737658D02*
X-75138096Y98642420D01*
X-75138096Y98642420D02*
X-75185715Y98594800D01*
X-75185715Y98594800D02*
X-75280953Y98547181D01*
X-75280953Y98547181D02*
X-75566667Y98547181D01*
X-75566667Y98547181D02*
X-75661905Y98594800D01*
X-75661905Y98594800D02*
X-75709524Y98642420D01*
X-36876191Y103909201D02*
X-37019048Y103956821D01*
X-37019048Y103956821D02*
X-37257143Y103956821D01*
X-37257143Y103956821D02*
X-37352381Y103909201D01*
X-37352381Y103909201D02*
X-37400000Y103861582D01*
X-37400000Y103861582D02*
X-37447619Y103766344D01*
X-37447619Y103766344D02*
X-37447619Y103671106D01*
X-37447619Y103671106D02*
X-37400000Y103575868D01*
X-37400000Y103575868D02*
X-37352381Y103528249D01*
X-37352381Y103528249D02*
X-37257143Y103480630D01*
X-37257143Y103480630D02*
X-37066667Y103433011D01*
X-37066667Y103433011D02*
X-36971429Y103385392D01*
X-36971429Y103385392D02*
X-36923810Y103337773D01*
X-36923810Y103337773D02*
X-36876191Y103242535D01*
X-36876191Y103242535D02*
X-36876191Y103147297D01*
X-36876191Y103147297D02*
X-36923810Y103052059D01*
X-36923810Y103052059D02*
X-36971429Y103004440D01*
X-36971429Y103004440D02*
X-37066667Y102956821D01*
X-37066667Y102956821D02*
X-37304762Y102956821D01*
X-37304762Y102956821D02*
X-37447619Y103004440D01*
X-38447619Y103861582D02*
X-38400000Y103909201D01*
X-38400000Y103909201D02*
X-38257143Y103956821D01*
X-38257143Y103956821D02*
X-38161905Y103956821D01*
X-38161905Y103956821D02*
X-38019048Y103909201D01*
X-38019048Y103909201D02*
X-37923810Y103813963D01*
X-37923810Y103813963D02*
X-37876191Y103718725D01*
X-37876191Y103718725D02*
X-37828572Y103528249D01*
X-37828572Y103528249D02*
X-37828572Y103385392D01*
X-37828572Y103385392D02*
X-37876191Y103194916D01*
X-37876191Y103194916D02*
X-37923810Y103099678D01*
X-37923810Y103099678D02*
X-38019048Y103004440D01*
X-38019048Y103004440D02*
X-38161905Y102956821D01*
X-38161905Y102956821D02*
X-38257143Y102956821D01*
X-38257143Y102956821D02*
X-38400000Y103004440D01*
X-38400000Y103004440D02*
X-38447619Y103052059D01*
X-38828572Y103909201D02*
X-38971429Y103956821D01*
X-38971429Y103956821D02*
X-39209524Y103956821D01*
X-39209524Y103956821D02*
X-39304762Y103909201D01*
X-39304762Y103909201D02*
X-39352381Y103861582D01*
X-39352381Y103861582D02*
X-39400000Y103766344D01*
X-39400000Y103766344D02*
X-39400000Y103671106D01*
X-39400000Y103671106D02*
X-39352381Y103575868D01*
X-39352381Y103575868D02*
X-39304762Y103528249D01*
X-39304762Y103528249D02*
X-39209524Y103480630D01*
X-39209524Y103480630D02*
X-39019048Y103433011D01*
X-39019048Y103433011D02*
X-38923810Y103385392D01*
X-38923810Y103385392D02*
X-38876191Y103337773D01*
X-38876191Y103337773D02*
X-38828572Y103242535D01*
X-38828572Y103242535D02*
X-38828572Y103147297D01*
X-38828572Y103147297D02*
X-38876191Y103052059D01*
X-38876191Y103052059D02*
X-38923810Y103004440D01*
X-38923810Y103004440D02*
X-39019048Y102956821D01*
X-39019048Y102956821D02*
X-39257143Y102956821D01*
X-39257143Y102956821D02*
X-39400000Y103004440D01*
X-39828572Y103956821D02*
X-39828572Y102956821D01*
X-41066667Y103956821D02*
X-41066667Y102956821D01*
X-41066667Y102956821D02*
X-41447619Y102956821D01*
X-41447619Y102956821D02*
X-41542857Y103004440D01*
X-41542857Y103004440D02*
X-41590476Y103052059D01*
X-41590476Y103052059D02*
X-41638095Y103147297D01*
X-41638095Y103147297D02*
X-41638095Y103290154D01*
X-41638095Y103290154D02*
X-41590476Y103385392D01*
X-41590476Y103385392D02*
X-41542857Y103433011D01*
X-41542857Y103433011D02*
X-41447619Y103480630D01*
X-41447619Y103480630D02*
X-41066667Y103480630D01*
X-42066667Y103956821D02*
X-42066667Y102956821D01*
X-42066667Y103433011D02*
X-42638095Y103433011D01*
X-42638095Y103956821D02*
X-42638095Y102956821D01*
X-43304762Y103480630D02*
X-43304762Y103956821D01*
X-42971429Y102956821D02*
X-43304762Y103480630D01*
X-43304762Y103480630D02*
X-43638095Y102956821D01*
X-44733334Y103956821D02*
X-44733334Y102956821D01*
X-44733334Y102956821D02*
X-45066667Y103671106D01*
X-45066667Y103671106D02*
X-45400000Y102956821D01*
X-45400000Y102956821D02*
X-45400000Y103956821D01*
X-46257143Y103909201D02*
X-46161905Y103956821D01*
X-46161905Y103956821D02*
X-45971429Y103956821D01*
X-45971429Y103956821D02*
X-45876191Y103909201D01*
X-45876191Y103909201D02*
X-45828572Y103813963D01*
X-45828572Y103813963D02*
X-45828572Y103433011D01*
X-45828572Y103433011D02*
X-45876191Y103337773D01*
X-45876191Y103337773D02*
X-45971429Y103290154D01*
X-45971429Y103290154D02*
X-46161905Y103290154D01*
X-46161905Y103290154D02*
X-46257143Y103337773D01*
X-46257143Y103337773D02*
X-46304762Y103433011D01*
X-46304762Y103433011D02*
X-46304762Y103528249D01*
X-46304762Y103528249D02*
X-45828572Y103623487D01*
X-46638096Y103290154D02*
X-47161905Y103290154D01*
X-47161905Y103290154D02*
X-46638096Y103956821D01*
X-46638096Y103956821D02*
X-47161905Y103956821D01*
X-47447620Y103290154D02*
X-47971429Y103290154D01*
X-47971429Y103290154D02*
X-47447620Y103956821D01*
X-47447620Y103956821D02*
X-47971429Y103956821D01*
D10*
X-9966667Y111444581D02*
X-10300000Y111920772D01*
X-10538095Y111444581D02*
X-10538095Y112444581D01*
X-10538095Y112444581D02*
X-10157143Y112444581D01*
X-10157143Y112444581D02*
X-10061905Y112396962D01*
X-10061905Y112396962D02*
X-10014286Y112349343D01*
X-10014286Y112349343D02*
X-9966667Y112254105D01*
X-9966667Y112254105D02*
X-9966667Y112111248D01*
X-9966667Y112111248D02*
X-10014286Y112016010D01*
X-10014286Y112016010D02*
X-10061905Y111968391D01*
X-10061905Y111968391D02*
X-10157143Y111920772D01*
X-10157143Y111920772D02*
X-10538095Y111920772D01*
X-9109524Y112111248D02*
X-9109524Y111444581D01*
X-9347619Y112492200D02*
X-9585714Y111777915D01*
X-9585714Y111777915D02*
X-8966667Y111777915D01*
D11*
X-49090477Y76547181D02*
X-49661905Y76547181D01*
X-49376191Y76547181D02*
X-49376191Y77547181D01*
X-49376191Y77547181D02*
X-49471429Y77404324D01*
X-49471429Y77404324D02*
X-49566667Y77309086D01*
X-49566667Y77309086D02*
X-49661905Y77261467D01*
X-48138096Y76547181D02*
X-48709524Y76547181D01*
X-48423810Y76547181D02*
X-48423810Y77547181D01*
X-48423810Y77547181D02*
X-48519048Y77404324D01*
X-48519048Y77404324D02*
X-48614286Y77309086D01*
X-48614286Y77309086D02*
X-48709524Y77261467D01*
X-47757143Y77451943D02*
X-47709524Y77499562D01*
X-47709524Y77499562D02*
X-47614286Y77547181D01*
X-47614286Y77547181D02*
X-47376191Y77547181D01*
X-47376191Y77547181D02*
X-47280953Y77499562D01*
X-47280953Y77499562D02*
X-47233334Y77451943D01*
X-47233334Y77451943D02*
X-47185715Y77356705D01*
X-47185715Y77356705D02*
X-47185715Y77261467D01*
X-47185715Y77261467D02*
X-47233334Y77118610D01*
X-47233334Y77118610D02*
X-47804762Y76547181D01*
X-47804762Y76547181D02*
X-47185715Y76547181D01*
X-46757143Y76928134D02*
X-45995238Y76928134D01*
X-45328572Y77547181D02*
X-45233334Y77547181D01*
X-45233334Y77547181D02*
X-45138096Y77499562D01*
X-45138096Y77499562D02*
X-45090477Y77451943D01*
X-45090477Y77451943D02*
X-45042858Y77356705D01*
X-45042858Y77356705D02*
X-44995239Y77166229D01*
X-44995239Y77166229D02*
X-44995239Y76928134D01*
X-44995239Y76928134D02*
X-45042858Y76737658D01*
X-45042858Y76737658D02*
X-45090477Y76642420D01*
X-45090477Y76642420D02*
X-45138096Y76594800D01*
X-45138096Y76594800D02*
X-45233334Y76547181D01*
X-45233334Y76547181D02*
X-45328572Y76547181D01*
X-45328572Y76547181D02*
X-45423810Y76594800D01*
X-45423810Y76594800D02*
X-45471429Y76642420D01*
X-45471429Y76642420D02*
X-45519048Y76737658D01*
X-45519048Y76737658D02*
X-45566667Y76928134D01*
X-45566667Y76928134D02*
X-45566667Y77166229D01*
X-45566667Y77166229D02*
X-45519048Y77356705D01*
X-45519048Y77356705D02*
X-45471429Y77451943D01*
X-45471429Y77451943D02*
X-45423810Y77499562D01*
X-45423810Y77499562D02*
X-45328572Y77547181D01*
X-44090477Y77547181D02*
X-44566667Y77547181D01*
X-44566667Y77547181D02*
X-44614286Y77070991D01*
X-44614286Y77070991D02*
X-44566667Y77118610D01*
X-44566667Y77118610D02*
X-44471429Y77166229D01*
X-44471429Y77166229D02*
X-44233334Y77166229D01*
X-44233334Y77166229D02*
X-44138096Y77118610D01*
X-44138096Y77118610D02*
X-44090477Y77070991D01*
X-44090477Y77070991D02*
X-44042858Y76975753D01*
X-44042858Y76975753D02*
X-44042858Y76737658D01*
X-44042858Y76737658D02*
X-44090477Y76642420D01*
X-44090477Y76642420D02*
X-44138096Y76594800D01*
X-44138096Y76594800D02*
X-44233334Y76547181D01*
X-44233334Y76547181D02*
X-44471429Y76547181D01*
X-44471429Y76547181D02*
X-44566667Y76594800D01*
X-44566667Y76594800D02*
X-44614286Y76642420D01*
X-43423810Y77547181D02*
X-43328572Y77547181D01*
X-43328572Y77547181D02*
X-43233334Y77499562D01*
X-43233334Y77499562D02*
X-43185715Y77451943D01*
X-43185715Y77451943D02*
X-43138096Y77356705D01*
X-43138096Y77356705D02*
X-43090477Y77166229D01*
X-43090477Y77166229D02*
X-43090477Y76928134D01*
X-43090477Y76928134D02*
X-43138096Y76737658D01*
X-43138096Y76737658D02*
X-43185715Y76642420D01*
X-43185715Y76642420D02*
X-43233334Y76594800D01*
X-43233334Y76594800D02*
X-43328572Y76547181D01*
X-43328572Y76547181D02*
X-43423810Y76547181D01*
X-43423810Y76547181D02*
X-43519048Y76594800D01*
X-43519048Y76594800D02*
X-43566667Y76642420D01*
X-43566667Y76642420D02*
X-43614286Y76737658D01*
X-43614286Y76737658D02*
X-43661905Y76928134D01*
X-43661905Y76928134D02*
X-43661905Y77166229D01*
X-43661905Y77166229D02*
X-43614286Y77356705D01*
X-43614286Y77356705D02*
X-43566667Y77451943D01*
X-43566667Y77451943D02*
X-43519048Y77499562D01*
X-43519048Y77499562D02*
X-43423810Y77547181D01*
X-42661905Y76928134D02*
X-41900000Y76928134D01*
X-41471429Y77451943D02*
X-41423810Y77499562D01*
X-41423810Y77499562D02*
X-41328572Y77547181D01*
X-41328572Y77547181D02*
X-41090477Y77547181D01*
X-41090477Y77547181D02*
X-40995239Y77499562D01*
X-40995239Y77499562D02*
X-40947620Y77451943D01*
X-40947620Y77451943D02*
X-40900001Y77356705D01*
X-40900001Y77356705D02*
X-40900001Y77261467D01*
X-40900001Y77261467D02*
X-40947620Y77118610D01*
X-40947620Y77118610D02*
X-41519048Y76547181D01*
X-41519048Y76547181D02*
X-40900001Y76547181D01*
X-39947620Y76547181D02*
X-40519048Y76547181D01*
X-40233334Y76547181D02*
X-40233334Y77547181D01*
X-40233334Y77547181D02*
X-40328572Y77404324D01*
X-40328572Y77404324D02*
X-40423810Y77309086D01*
X-40423810Y77309086D02*
X-40519048Y77261467D01*
X-39614286Y77547181D02*
X-38995239Y77547181D01*
X-38995239Y77547181D02*
X-39328572Y77166229D01*
X-39328572Y77166229D02*
X-39185715Y77166229D01*
X-39185715Y77166229D02*
X-39090477Y77118610D01*
X-39090477Y77118610D02*
X-39042858Y77070991D01*
X-39042858Y77070991D02*
X-38995239Y76975753D01*
X-38995239Y76975753D02*
X-38995239Y76737658D01*
X-38995239Y76737658D02*
X-39042858Y76642420D01*
X-39042858Y76642420D02*
X-39090477Y76594800D01*
X-39090477Y76594800D02*
X-39185715Y76547181D01*
X-39185715Y76547181D02*
X-39471429Y76547181D01*
X-39471429Y76547181D02*
X-39566667Y76594800D01*
X-39566667Y76594800D02*
X-39614286Y76642420D01*
X-37995239Y76547181D02*
X-38328572Y77023372D01*
X-38566667Y76547181D02*
X-38566667Y77547181D01*
X-38566667Y77547181D02*
X-38185715Y77547181D01*
X-38185715Y77547181D02*
X-38090477Y77499562D01*
X-38090477Y77499562D02*
X-38042858Y77451943D01*
X-38042858Y77451943D02*
X-37995239Y77356705D01*
X-37995239Y77356705D02*
X-37995239Y77213848D01*
X-37995239Y77213848D02*
X-38042858Y77118610D01*
X-38042858Y77118610D02*
X-38090477Y77070991D01*
X-38090477Y77070991D02*
X-38185715Y77023372D01*
X-38185715Y77023372D02*
X-38566667Y77023372D01*
X-37376191Y77547181D02*
X-37280953Y77547181D01*
X-37280953Y77547181D02*
X-37185715Y77499562D01*
X-37185715Y77499562D02*
X-37138096Y77451943D01*
X-37138096Y77451943D02*
X-37090477Y77356705D01*
X-37090477Y77356705D02*
X-37042858Y77166229D01*
X-37042858Y77166229D02*
X-37042858Y76928134D01*
X-37042858Y76928134D02*
X-37090477Y76737658D01*
X-37090477Y76737658D02*
X-37138096Y76642420D01*
X-37138096Y76642420D02*
X-37185715Y76594800D01*
X-37185715Y76594800D02*
X-37280953Y76547181D01*
X-37280953Y76547181D02*
X-37376191Y76547181D01*
X-37376191Y76547181D02*
X-37471429Y76594800D01*
X-37471429Y76594800D02*
X-37519048Y76642420D01*
X-37519048Y76642420D02*
X-37566667Y76737658D01*
X-37566667Y76737658D02*
X-37614286Y76928134D01*
X-37614286Y76928134D02*
X-37614286Y77166229D01*
X-37614286Y77166229D02*
X-37566667Y77356705D01*
X-37566667Y77356705D02*
X-37519048Y77451943D01*
X-37519048Y77451943D02*
X-37471429Y77499562D01*
X-37471429Y77499562D02*
X-37376191Y77547181D01*
X-36423810Y77547181D02*
X-36328572Y77547181D01*
X-36328572Y77547181D02*
X-36233334Y77499562D01*
X-36233334Y77499562D02*
X-36185715Y77451943D01*
X-36185715Y77451943D02*
X-36138096Y77356705D01*
X-36138096Y77356705D02*
X-36090477Y77166229D01*
X-36090477Y77166229D02*
X-36090477Y76928134D01*
X-36090477Y76928134D02*
X-36138096Y76737658D01*
X-36138096Y76737658D02*
X-36185715Y76642420D01*
X-36185715Y76642420D02*
X-36233334Y76594800D01*
X-36233334Y76594800D02*
X-36328572Y76547181D01*
X-36328572Y76547181D02*
X-36423810Y76547181D01*
X-36423810Y76547181D02*
X-36519048Y76594800D01*
X-36519048Y76594800D02*
X-36566667Y76642420D01*
X-36566667Y76642420D02*
X-36614286Y76737658D01*
X-36614286Y76737658D02*
X-36661905Y76928134D01*
X-36661905Y76928134D02*
X-36661905Y77166229D01*
X-36661905Y77166229D02*
X-36614286Y77356705D01*
X-36614286Y77356705D02*
X-36566667Y77451943D01*
X-36566667Y77451943D02*
X-36519048Y77499562D01*
X-36519048Y77499562D02*
X-36423810Y77547181D01*
X-35138096Y76547181D02*
X-35709524Y76547181D01*
X-35423810Y76547181D02*
X-35423810Y77547181D01*
X-35423810Y77547181D02*
X-35519048Y77404324D01*
X-35519048Y77404324D02*
X-35614286Y77309086D01*
X-35614286Y77309086D02*
X-35709524Y77261467D01*
X-71545182Y10240096D02*
X-70735659Y10240096D01*
X-70735659Y10240096D02*
X-70640421Y10287715D01*
X-70640421Y10287715D02*
X-70592801Y10335334D01*
X-70592801Y10335334D02*
X-70545182Y10430572D01*
X-70545182Y10430572D02*
X-70545182Y10621048D01*
X-70545182Y10621048D02*
X-70592801Y10716286D01*
X-70592801Y10716286D02*
X-70640421Y10763905D01*
X-70640421Y10763905D02*
X-70735659Y10811524D01*
X-70735659Y10811524D02*
X-71545182Y10811524D01*
X-70545182Y11811524D02*
X-70545182Y11240096D01*
X-70545182Y11525810D02*
X-71545182Y11525810D01*
X-71545182Y11525810D02*
X-71402325Y11430572D01*
X-71402325Y11430572D02*
X-71307087Y11335334D01*
X-71307087Y11335334D02*
X-71259468Y11240096D01*
X-71545182Y98240096D02*
X-70735659Y98240096D01*
X-70735659Y98240096D02*
X-70640421Y98287715D01*
X-70640421Y98287715D02*
X-70592801Y98335334D01*
X-70592801Y98335334D02*
X-70545182Y98430572D01*
X-70545182Y98430572D02*
X-70545182Y98621048D01*
X-70545182Y98621048D02*
X-70592801Y98716286D01*
X-70592801Y98716286D02*
X-70640421Y98763905D01*
X-70640421Y98763905D02*
X-70735659Y98811524D01*
X-70735659Y98811524D02*
X-71545182Y98811524D01*
X-70545182Y99811524D02*
X-70545182Y99240096D01*
X-70545182Y99525810D02*
X-71545182Y99525810D01*
X-71545182Y99525810D02*
X-71402325Y99430572D01*
X-71402325Y99430572D02*
X-71307087Y99335334D01*
X-71307087Y99335334D02*
X-71259468Y99240096D01*
X-9661905Y98547181D02*
X-9661905Y99547181D01*
X-9661905Y99070991D02*
X-9090477Y99070991D01*
X-9090477Y98547181D02*
X-9090477Y99547181D01*
X-8185715Y99213848D02*
X-8185715Y98547181D01*
X-8423810Y99594800D02*
X-8661905Y98880515D01*
X-8661905Y98880515D02*
X-8042858Y98880515D01*
X-49090477Y120547181D02*
X-49661905Y120547181D01*
X-49376191Y120547181D02*
X-49376191Y121547181D01*
X-49376191Y121547181D02*
X-49471429Y121404324D01*
X-49471429Y121404324D02*
X-49566667Y121309086D01*
X-49566667Y121309086D02*
X-49661905Y121261467D01*
X-48138096Y120547181D02*
X-48709524Y120547181D01*
X-48423810Y120547181D02*
X-48423810Y121547181D01*
X-48423810Y121547181D02*
X-48519048Y121404324D01*
X-48519048Y121404324D02*
X-48614286Y121309086D01*
X-48614286Y121309086D02*
X-48709524Y121261467D01*
X-47757143Y121451943D02*
X-47709524Y121499562D01*
X-47709524Y121499562D02*
X-47614286Y121547181D01*
X-47614286Y121547181D02*
X-47376191Y121547181D01*
X-47376191Y121547181D02*
X-47280953Y121499562D01*
X-47280953Y121499562D02*
X-47233334Y121451943D01*
X-47233334Y121451943D02*
X-47185715Y121356705D01*
X-47185715Y121356705D02*
X-47185715Y121261467D01*
X-47185715Y121261467D02*
X-47233334Y121118610D01*
X-47233334Y121118610D02*
X-47804762Y120547181D01*
X-47804762Y120547181D02*
X-47185715Y120547181D01*
X-46757143Y120928134D02*
X-45995238Y120928134D01*
X-45328572Y121547181D02*
X-45233334Y121547181D01*
X-45233334Y121547181D02*
X-45138096Y121499562D01*
X-45138096Y121499562D02*
X-45090477Y121451943D01*
X-45090477Y121451943D02*
X-45042858Y121356705D01*
X-45042858Y121356705D02*
X-44995239Y121166229D01*
X-44995239Y121166229D02*
X-44995239Y120928134D01*
X-44995239Y120928134D02*
X-45042858Y120737658D01*
X-45042858Y120737658D02*
X-45090477Y120642420D01*
X-45090477Y120642420D02*
X-45138096Y120594800D01*
X-45138096Y120594800D02*
X-45233334Y120547181D01*
X-45233334Y120547181D02*
X-45328572Y120547181D01*
X-45328572Y120547181D02*
X-45423810Y120594800D01*
X-45423810Y120594800D02*
X-45471429Y120642420D01*
X-45471429Y120642420D02*
X-45519048Y120737658D01*
X-45519048Y120737658D02*
X-45566667Y120928134D01*
X-45566667Y120928134D02*
X-45566667Y121166229D01*
X-45566667Y121166229D02*
X-45519048Y121356705D01*
X-45519048Y121356705D02*
X-45471429Y121451943D01*
X-45471429Y121451943D02*
X-45423810Y121499562D01*
X-45423810Y121499562D02*
X-45328572Y121547181D01*
X-44090477Y121547181D02*
X-44566667Y121547181D01*
X-44566667Y121547181D02*
X-44614286Y121070991D01*
X-44614286Y121070991D02*
X-44566667Y121118610D01*
X-44566667Y121118610D02*
X-44471429Y121166229D01*
X-44471429Y121166229D02*
X-44233334Y121166229D01*
X-44233334Y121166229D02*
X-44138096Y121118610D01*
X-44138096Y121118610D02*
X-44090477Y121070991D01*
X-44090477Y121070991D02*
X-44042858Y120975753D01*
X-44042858Y120975753D02*
X-44042858Y120737658D01*
X-44042858Y120737658D02*
X-44090477Y120642420D01*
X-44090477Y120642420D02*
X-44138096Y120594800D01*
X-44138096Y120594800D02*
X-44233334Y120547181D01*
X-44233334Y120547181D02*
X-44471429Y120547181D01*
X-44471429Y120547181D02*
X-44566667Y120594800D01*
X-44566667Y120594800D02*
X-44614286Y120642420D01*
X-43423810Y121547181D02*
X-43328572Y121547181D01*
X-43328572Y121547181D02*
X-43233334Y121499562D01*
X-43233334Y121499562D02*
X-43185715Y121451943D01*
X-43185715Y121451943D02*
X-43138096Y121356705D01*
X-43138096Y121356705D02*
X-43090477Y121166229D01*
X-43090477Y121166229D02*
X-43090477Y120928134D01*
X-43090477Y120928134D02*
X-43138096Y120737658D01*
X-43138096Y120737658D02*
X-43185715Y120642420D01*
X-43185715Y120642420D02*
X-43233334Y120594800D01*
X-43233334Y120594800D02*
X-43328572Y120547181D01*
X-43328572Y120547181D02*
X-43423810Y120547181D01*
X-43423810Y120547181D02*
X-43519048Y120594800D01*
X-43519048Y120594800D02*
X-43566667Y120642420D01*
X-43566667Y120642420D02*
X-43614286Y120737658D01*
X-43614286Y120737658D02*
X-43661905Y120928134D01*
X-43661905Y120928134D02*
X-43661905Y121166229D01*
X-43661905Y121166229D02*
X-43614286Y121356705D01*
X-43614286Y121356705D02*
X-43566667Y121451943D01*
X-43566667Y121451943D02*
X-43519048Y121499562D01*
X-43519048Y121499562D02*
X-43423810Y121547181D01*
X-42661905Y120928134D02*
X-41900000Y120928134D01*
X-41471429Y121451943D02*
X-41423810Y121499562D01*
X-41423810Y121499562D02*
X-41328572Y121547181D01*
X-41328572Y121547181D02*
X-41090477Y121547181D01*
X-41090477Y121547181D02*
X-40995239Y121499562D01*
X-40995239Y121499562D02*
X-40947620Y121451943D01*
X-40947620Y121451943D02*
X-40900001Y121356705D01*
X-40900001Y121356705D02*
X-40900001Y121261467D01*
X-40900001Y121261467D02*
X-40947620Y121118610D01*
X-40947620Y121118610D02*
X-41519048Y120547181D01*
X-41519048Y120547181D02*
X-40900001Y120547181D01*
X-39947620Y120547181D02*
X-40519048Y120547181D01*
X-40233334Y120547181D02*
X-40233334Y121547181D01*
X-40233334Y121547181D02*
X-40328572Y121404324D01*
X-40328572Y121404324D02*
X-40423810Y121309086D01*
X-40423810Y121309086D02*
X-40519048Y121261467D01*
X-39614286Y121547181D02*
X-38995239Y121547181D01*
X-38995239Y121547181D02*
X-39328572Y121166229D01*
X-39328572Y121166229D02*
X-39185715Y121166229D01*
X-39185715Y121166229D02*
X-39090477Y121118610D01*
X-39090477Y121118610D02*
X-39042858Y121070991D01*
X-39042858Y121070991D02*
X-38995239Y120975753D01*
X-38995239Y120975753D02*
X-38995239Y120737658D01*
X-38995239Y120737658D02*
X-39042858Y120642420D01*
X-39042858Y120642420D02*
X-39090477Y120594800D01*
X-39090477Y120594800D02*
X-39185715Y120547181D01*
X-39185715Y120547181D02*
X-39471429Y120547181D01*
X-39471429Y120547181D02*
X-39566667Y120594800D01*
X-39566667Y120594800D02*
X-39614286Y120642420D01*
X-37995239Y120547181D02*
X-38328572Y121023372D01*
X-38566667Y120547181D02*
X-38566667Y121547181D01*
X-38566667Y121547181D02*
X-38185715Y121547181D01*
X-38185715Y121547181D02*
X-38090477Y121499562D01*
X-38090477Y121499562D02*
X-38042858Y121451943D01*
X-38042858Y121451943D02*
X-37995239Y121356705D01*
X-37995239Y121356705D02*
X-37995239Y121213848D01*
X-37995239Y121213848D02*
X-38042858Y121118610D01*
X-38042858Y121118610D02*
X-38090477Y121070991D01*
X-38090477Y121070991D02*
X-38185715Y121023372D01*
X-38185715Y121023372D02*
X-38566667Y121023372D01*
X-37376191Y121547181D02*
X-37280953Y121547181D01*
X-37280953Y121547181D02*
X-37185715Y121499562D01*
X-37185715Y121499562D02*
X-37138096Y121451943D01*
X-37138096Y121451943D02*
X-37090477Y121356705D01*
X-37090477Y121356705D02*
X-37042858Y121166229D01*
X-37042858Y121166229D02*
X-37042858Y120928134D01*
X-37042858Y120928134D02*
X-37090477Y120737658D01*
X-37090477Y120737658D02*
X-37138096Y120642420D01*
X-37138096Y120642420D02*
X-37185715Y120594800D01*
X-37185715Y120594800D02*
X-37280953Y120547181D01*
X-37280953Y120547181D02*
X-37376191Y120547181D01*
X-37376191Y120547181D02*
X-37471429Y120594800D01*
X-37471429Y120594800D02*
X-37519048Y120642420D01*
X-37519048Y120642420D02*
X-37566667Y120737658D01*
X-37566667Y120737658D02*
X-37614286Y120928134D01*
X-37614286Y120928134D02*
X-37614286Y121166229D01*
X-37614286Y121166229D02*
X-37566667Y121356705D01*
X-37566667Y121356705D02*
X-37519048Y121451943D01*
X-37519048Y121451943D02*
X-37471429Y121499562D01*
X-37471429Y121499562D02*
X-37376191Y121547181D01*
X-36423810Y121547181D02*
X-36328572Y121547181D01*
X-36328572Y121547181D02*
X-36233334Y121499562D01*
X-36233334Y121499562D02*
X-36185715Y121451943D01*
X-36185715Y121451943D02*
X-36138096Y121356705D01*
X-36138096Y121356705D02*
X-36090477Y121166229D01*
X-36090477Y121166229D02*
X-36090477Y120928134D01*
X-36090477Y120928134D02*
X-36138096Y120737658D01*
X-36138096Y120737658D02*
X-36185715Y120642420D01*
X-36185715Y120642420D02*
X-36233334Y120594800D01*
X-36233334Y120594800D02*
X-36328572Y120547181D01*
X-36328572Y120547181D02*
X-36423810Y120547181D01*
X-36423810Y120547181D02*
X-36519048Y120594800D01*
X-36519048Y120594800D02*
X-36566667Y120642420D01*
X-36566667Y120642420D02*
X-36614286Y120737658D01*
X-36614286Y120737658D02*
X-36661905Y120928134D01*
X-36661905Y120928134D02*
X-36661905Y121166229D01*
X-36661905Y121166229D02*
X-36614286Y121356705D01*
X-36614286Y121356705D02*
X-36566667Y121451943D01*
X-36566667Y121451943D02*
X-36519048Y121499562D01*
X-36519048Y121499562D02*
X-36423810Y121547181D01*
X-35138096Y120547181D02*
X-35709524Y120547181D01*
X-35423810Y120547181D02*
X-35423810Y121547181D01*
X-35423810Y121547181D02*
X-35519048Y121404324D01*
X-35519048Y121404324D02*
X-35614286Y121309086D01*
X-35614286Y121309086D02*
X-35709524Y121261467D01*
D10*
X-67692580Y98835334D02*
X-68168771Y98502001D01*
X-67692580Y98263906D02*
X-68692580Y98263906D01*
X-68692580Y98263906D02*
X-68692580Y98644858D01*
X-68692580Y98644858D02*
X-68644961Y98740096D01*
X-68644961Y98740096D02*
X-68597342Y98787715D01*
X-68597342Y98787715D02*
X-68502104Y98835334D01*
X-68502104Y98835334D02*
X-68359247Y98835334D01*
X-68359247Y98835334D02*
X-68264009Y98787715D01*
X-68264009Y98787715D02*
X-68216390Y98740096D01*
X-68216390Y98740096D02*
X-68168771Y98644858D01*
X-68168771Y98644858D02*
X-68168771Y98263906D01*
X-67692580Y99787715D02*
X-67692580Y99216287D01*
X-67692580Y99502001D02*
X-68692580Y99502001D01*
X-68692580Y99502001D02*
X-68549723Y99406763D01*
X-68549723Y99406763D02*
X-68454485Y99311525D01*
X-68454485Y99311525D02*
X-68406866Y99216287D01*
D11*
X-76661905Y10547181D02*
X-76661905Y11547181D01*
X-76661905Y11070991D02*
X-76090477Y11070991D01*
X-76090477Y10547181D02*
X-76090477Y11547181D01*
X-75709524Y11547181D02*
X-75090477Y11547181D01*
X-75090477Y11547181D02*
X-75423810Y11166229D01*
X-75423810Y11166229D02*
X-75280953Y11166229D01*
X-75280953Y11166229D02*
X-75185715Y11118610D01*
X-75185715Y11118610D02*
X-75138096Y11070991D01*
X-75138096Y11070991D02*
X-75090477Y10975753D01*
X-75090477Y10975753D02*
X-75090477Y10737658D01*
X-75090477Y10737658D02*
X-75138096Y10642420D01*
X-75138096Y10642420D02*
X-75185715Y10594800D01*
X-75185715Y10594800D02*
X-75280953Y10547181D01*
X-75280953Y10547181D02*
X-75566667Y10547181D01*
X-75566667Y10547181D02*
X-75661905Y10594800D01*
X-75661905Y10594800D02*
X-75709524Y10642420D01*
X-9661905Y10547181D02*
X-9661905Y11547181D01*
X-9661905Y11070991D02*
X-9090477Y11070991D01*
X-9090477Y10547181D02*
X-9090477Y11547181D01*
X-8185715Y11213848D02*
X-8185715Y10547181D01*
X-8423810Y11594800D02*
X-8661905Y10880515D01*
X-8661905Y10880515D02*
X-8042858Y10880515D01*
D10*
X-9966667Y23444581D02*
X-10300000Y23920772D01*
X-10538095Y23444581D02*
X-10538095Y24444581D01*
X-10538095Y24444581D02*
X-10157143Y24444581D01*
X-10157143Y24444581D02*
X-10061905Y24396962D01*
X-10061905Y24396962D02*
X-10014286Y24349343D01*
X-10014286Y24349343D02*
X-9966667Y24254105D01*
X-9966667Y24254105D02*
X-9966667Y24111248D01*
X-9966667Y24111248D02*
X-10014286Y24016010D01*
X-10014286Y24016010D02*
X-10061905Y23968391D01*
X-10061905Y23968391D02*
X-10157143Y23920772D01*
X-10157143Y23920772D02*
X-10538095Y23920772D01*
X-9109524Y24111248D02*
X-9109524Y23444581D01*
X-9347619Y24492200D02*
X-9585714Y23777915D01*
X-9585714Y23777915D02*
X-8966667Y23777915D01*
D11*
X-36876191Y15909201D02*
X-37019048Y15956821D01*
X-37019048Y15956821D02*
X-37257143Y15956821D01*
X-37257143Y15956821D02*
X-37352381Y15909201D01*
X-37352381Y15909201D02*
X-37400000Y15861582D01*
X-37400000Y15861582D02*
X-37447619Y15766344D01*
X-37447619Y15766344D02*
X-37447619Y15671106D01*
X-37447619Y15671106D02*
X-37400000Y15575868D01*
X-37400000Y15575868D02*
X-37352381Y15528249D01*
X-37352381Y15528249D02*
X-37257143Y15480630D01*
X-37257143Y15480630D02*
X-37066667Y15433011D01*
X-37066667Y15433011D02*
X-36971429Y15385392D01*
X-36971429Y15385392D02*
X-36923810Y15337773D01*
X-36923810Y15337773D02*
X-36876191Y15242535D01*
X-36876191Y15242535D02*
X-36876191Y15147297D01*
X-36876191Y15147297D02*
X-36923810Y15052059D01*
X-36923810Y15052059D02*
X-36971429Y15004440D01*
X-36971429Y15004440D02*
X-37066667Y14956821D01*
X-37066667Y14956821D02*
X-37304762Y14956821D01*
X-37304762Y14956821D02*
X-37447619Y15004440D01*
X-38447619Y15861582D02*
X-38400000Y15909201D01*
X-38400000Y15909201D02*
X-38257143Y15956821D01*
X-38257143Y15956821D02*
X-38161905Y15956821D01*
X-38161905Y15956821D02*
X-38019048Y15909201D01*
X-38019048Y15909201D02*
X-37923810Y15813963D01*
X-37923810Y15813963D02*
X-37876191Y15718725D01*
X-37876191Y15718725D02*
X-37828572Y15528249D01*
X-37828572Y15528249D02*
X-37828572Y15385392D01*
X-37828572Y15385392D02*
X-37876191Y15194916D01*
X-37876191Y15194916D02*
X-37923810Y15099678D01*
X-37923810Y15099678D02*
X-38019048Y15004440D01*
X-38019048Y15004440D02*
X-38161905Y14956821D01*
X-38161905Y14956821D02*
X-38257143Y14956821D01*
X-38257143Y14956821D02*
X-38400000Y15004440D01*
X-38400000Y15004440D02*
X-38447619Y15052059D01*
X-38828572Y15909201D02*
X-38971429Y15956821D01*
X-38971429Y15956821D02*
X-39209524Y15956821D01*
X-39209524Y15956821D02*
X-39304762Y15909201D01*
X-39304762Y15909201D02*
X-39352381Y15861582D01*
X-39352381Y15861582D02*
X-39400000Y15766344D01*
X-39400000Y15766344D02*
X-39400000Y15671106D01*
X-39400000Y15671106D02*
X-39352381Y15575868D01*
X-39352381Y15575868D02*
X-39304762Y15528249D01*
X-39304762Y15528249D02*
X-39209524Y15480630D01*
X-39209524Y15480630D02*
X-39019048Y15433011D01*
X-39019048Y15433011D02*
X-38923810Y15385392D01*
X-38923810Y15385392D02*
X-38876191Y15337773D01*
X-38876191Y15337773D02*
X-38828572Y15242535D01*
X-38828572Y15242535D02*
X-38828572Y15147297D01*
X-38828572Y15147297D02*
X-38876191Y15052059D01*
X-38876191Y15052059D02*
X-38923810Y15004440D01*
X-38923810Y15004440D02*
X-39019048Y14956821D01*
X-39019048Y14956821D02*
X-39257143Y14956821D01*
X-39257143Y14956821D02*
X-39400000Y15004440D01*
X-39828572Y15956821D02*
X-39828572Y14956821D01*
X-41066667Y15956821D02*
X-41066667Y14956821D01*
X-41066667Y14956821D02*
X-41447619Y14956821D01*
X-41447619Y14956821D02*
X-41542857Y15004440D01*
X-41542857Y15004440D02*
X-41590476Y15052059D01*
X-41590476Y15052059D02*
X-41638095Y15147297D01*
X-41638095Y15147297D02*
X-41638095Y15290154D01*
X-41638095Y15290154D02*
X-41590476Y15385392D01*
X-41590476Y15385392D02*
X-41542857Y15433011D01*
X-41542857Y15433011D02*
X-41447619Y15480630D01*
X-41447619Y15480630D02*
X-41066667Y15480630D01*
X-42066667Y15956821D02*
X-42066667Y14956821D01*
X-42066667Y15433011D02*
X-42638095Y15433011D01*
X-42638095Y15956821D02*
X-42638095Y14956821D01*
X-43304762Y15480630D02*
X-43304762Y15956821D01*
X-42971429Y14956821D02*
X-43304762Y15480630D01*
X-43304762Y15480630D02*
X-43638095Y14956821D01*
X-44733334Y15956821D02*
X-44733334Y14956821D01*
X-44733334Y14956821D02*
X-45066667Y15671106D01*
X-45066667Y15671106D02*
X-45400000Y14956821D01*
X-45400000Y14956821D02*
X-45400000Y15956821D01*
X-46257143Y15909201D02*
X-46161905Y15956821D01*
X-46161905Y15956821D02*
X-45971429Y15956821D01*
X-45971429Y15956821D02*
X-45876191Y15909201D01*
X-45876191Y15909201D02*
X-45828572Y15813963D01*
X-45828572Y15813963D02*
X-45828572Y15433011D01*
X-45828572Y15433011D02*
X-45876191Y15337773D01*
X-45876191Y15337773D02*
X-45971429Y15290154D01*
X-45971429Y15290154D02*
X-46161905Y15290154D01*
X-46161905Y15290154D02*
X-46257143Y15337773D01*
X-46257143Y15337773D02*
X-46304762Y15433011D01*
X-46304762Y15433011D02*
X-46304762Y15528249D01*
X-46304762Y15528249D02*
X-45828572Y15623487D01*
X-46638096Y15290154D02*
X-47161905Y15290154D01*
X-47161905Y15290154D02*
X-46638096Y15956821D01*
X-46638096Y15956821D02*
X-47161905Y15956821D01*
X-47447620Y15290154D02*
X-47971429Y15290154D01*
X-47971429Y15290154D02*
X-47447620Y15956821D01*
X-47447620Y15956821D02*
X-47971429Y15956821D01*
D10*
X-76442581Y15668667D02*
X-75728296Y15668667D01*
X-75728296Y15668667D02*
X-75585439Y15621048D01*
X-75585439Y15621048D02*
X-75490200Y15525810D01*
X-75490200Y15525810D02*
X-75442581Y15382953D01*
X-75442581Y15382953D02*
X-75442581Y15287715D01*
X-76442581Y16049620D02*
X-76442581Y16668667D01*
X-76442581Y16668667D02*
X-76061629Y16335334D01*
X-76061629Y16335334D02*
X-76061629Y16478191D01*
X-76061629Y16478191D02*
X-76014010Y16573429D01*
X-76014010Y16573429D02*
X-75966391Y16621048D01*
X-75966391Y16621048D02*
X-75871153Y16668667D01*
X-75871153Y16668667D02*
X-75633058Y16668667D01*
X-75633058Y16668667D02*
X-75537820Y16621048D01*
X-75537820Y16621048D02*
X-75490200Y16573429D01*
X-75490200Y16573429D02*
X-75442581Y16478191D01*
X-75442581Y16478191D02*
X-75442581Y16192477D01*
X-75442581Y16192477D02*
X-75490200Y16097239D01*
X-75490200Y16097239D02*
X-75537820Y16049620D01*
D11*
X-71900421Y19273905D02*
X-71852801Y19226286D01*
X-71852801Y19226286D02*
X-71805182Y19083429D01*
X-71805182Y19083429D02*
X-71805182Y18988191D01*
X-71805182Y18988191D02*
X-71852801Y18845334D01*
X-71852801Y18845334D02*
X-71948040Y18750096D01*
X-71948040Y18750096D02*
X-72043278Y18702477D01*
X-72043278Y18702477D02*
X-72233754Y18654858D01*
X-72233754Y18654858D02*
X-72376611Y18654858D01*
X-72376611Y18654858D02*
X-72567087Y18702477D01*
X-72567087Y18702477D02*
X-72662325Y18750096D01*
X-72662325Y18750096D02*
X-72757563Y18845334D01*
X-72757563Y18845334D02*
X-72805182Y18988191D01*
X-72805182Y18988191D02*
X-72805182Y19083429D01*
X-72805182Y19083429D02*
X-72757563Y19226286D01*
X-72757563Y19226286D02*
X-72709944Y19273905D01*
X-71805182Y19845334D02*
X-71852801Y19750096D01*
X-71852801Y19750096D02*
X-71900421Y19702477D01*
X-71900421Y19702477D02*
X-71995659Y19654858D01*
X-71995659Y19654858D02*
X-72281373Y19654858D01*
X-72281373Y19654858D02*
X-72376611Y19702477D01*
X-72376611Y19702477D02*
X-72424230Y19750096D01*
X-72424230Y19750096D02*
X-72471849Y19845334D01*
X-72471849Y19845334D02*
X-72471849Y19988191D01*
X-72471849Y19988191D02*
X-72424230Y20083429D01*
X-72424230Y20083429D02*
X-72376611Y20131048D01*
X-72376611Y20131048D02*
X-72281373Y20178667D01*
X-72281373Y20178667D02*
X-71995659Y20178667D01*
X-71995659Y20178667D02*
X-71900421Y20131048D01*
X-71900421Y20131048D02*
X-71852801Y20083429D01*
X-71852801Y20083429D02*
X-71805182Y19988191D01*
X-71805182Y19988191D02*
X-71805182Y19845334D01*
X-72471849Y20607239D02*
X-71805182Y20607239D01*
X-72376611Y20607239D02*
X-72424230Y20654858D01*
X-72424230Y20654858D02*
X-72471849Y20750096D01*
X-72471849Y20750096D02*
X-72471849Y20892953D01*
X-72471849Y20892953D02*
X-72424230Y20988191D01*
X-72424230Y20988191D02*
X-72328992Y21035810D01*
X-72328992Y21035810D02*
X-71805182Y21035810D01*
X-72471849Y21512001D02*
X-71805182Y21512001D01*
X-72376611Y21512001D02*
X-72424230Y21559620D01*
X-72424230Y21559620D02*
X-72471849Y21654858D01*
X-72471849Y21654858D02*
X-72471849Y21797715D01*
X-72471849Y21797715D02*
X-72424230Y21892953D01*
X-72424230Y21892953D02*
X-72328992Y21940572D01*
X-72328992Y21940572D02*
X-71805182Y21940572D01*
X-71709944Y22178667D02*
X-71709944Y22940572D01*
X-72805182Y23369144D02*
X-72805182Y23464382D01*
X-72805182Y23464382D02*
X-72757563Y23559620D01*
X-72757563Y23559620D02*
X-72709944Y23607239D01*
X-72709944Y23607239D02*
X-72614706Y23654858D01*
X-72614706Y23654858D02*
X-72424230Y23702477D01*
X-72424230Y23702477D02*
X-72186135Y23702477D01*
X-72186135Y23702477D02*
X-71995659Y23654858D01*
X-71995659Y23654858D02*
X-71900421Y23607239D01*
X-71900421Y23607239D02*
X-71852801Y23559620D01*
X-71852801Y23559620D02*
X-71805182Y23464382D01*
X-71805182Y23464382D02*
X-71805182Y23369144D01*
X-71805182Y23369144D02*
X-71852801Y23273906D01*
X-71852801Y23273906D02*
X-71900421Y23226287D01*
X-71900421Y23226287D02*
X-71995659Y23178668D01*
X-71995659Y23178668D02*
X-72186135Y23131049D01*
X-72186135Y23131049D02*
X-72424230Y23131049D01*
X-72424230Y23131049D02*
X-72614706Y23178668D01*
X-72614706Y23178668D02*
X-72709944Y23226287D01*
X-72709944Y23226287D02*
X-72757563Y23273906D01*
X-72757563Y23273906D02*
X-72805182Y23369144D01*
X-71805182Y24654858D02*
X-71805182Y24083430D01*
X-71805182Y24369144D02*
X-72805182Y24369144D01*
X-72805182Y24369144D02*
X-72662325Y24273906D01*
X-72662325Y24273906D02*
X-72567087Y24178668D01*
X-72567087Y24178668D02*
X-72519468Y24083430D01*
X-71805182Y24988192D02*
X-72471849Y25512001D01*
X-72471849Y24988192D02*
X-71805182Y25512001D01*
X-72805182Y26083430D02*
X-72805182Y26178668D01*
X-72805182Y26178668D02*
X-72757563Y26273906D01*
X-72757563Y26273906D02*
X-72709944Y26321525D01*
X-72709944Y26321525D02*
X-72614706Y26369144D01*
X-72614706Y26369144D02*
X-72424230Y26416763D01*
X-72424230Y26416763D02*
X-72186135Y26416763D01*
X-72186135Y26416763D02*
X-71995659Y26369144D01*
X-71995659Y26369144D02*
X-71900421Y26321525D01*
X-71900421Y26321525D02*
X-71852801Y26273906D01*
X-71852801Y26273906D02*
X-71805182Y26178668D01*
X-71805182Y26178668D02*
X-71805182Y26083430D01*
X-71805182Y26083430D02*
X-71852801Y25988192D01*
X-71852801Y25988192D02*
X-71900421Y25940573D01*
X-71900421Y25940573D02*
X-71995659Y25892954D01*
X-71995659Y25892954D02*
X-72186135Y25845335D01*
X-72186135Y25845335D02*
X-72424230Y25845335D01*
X-72424230Y25845335D02*
X-72614706Y25892954D01*
X-72614706Y25892954D02*
X-72709944Y25940573D01*
X-72709944Y25940573D02*
X-72757563Y25988192D01*
X-72757563Y25988192D02*
X-72805182Y26083430D01*
X-72471849Y27273906D02*
X-71805182Y27273906D01*
X-72852801Y27035811D02*
X-72138516Y26797716D01*
X-72138516Y26797716D02*
X-72138516Y27416763D01*
X-76615181Y20773667D02*
X-75900896Y20773667D01*
X-75900896Y20773667D02*
X-75758039Y20726048D01*
X-75758039Y20726048D02*
X-75662800Y20630810D01*
X-75662800Y20630810D02*
X-75615181Y20487953D01*
X-75615181Y20487953D02*
X-75615181Y20392715D01*
X-76615181Y21154620D02*
X-76615181Y21773667D01*
X-76615181Y21773667D02*
X-76234229Y21440334D01*
X-76234229Y21440334D02*
X-76234229Y21583191D01*
X-76234229Y21583191D02*
X-76186610Y21678429D01*
X-76186610Y21678429D02*
X-76138991Y21726048D01*
X-76138991Y21726048D02*
X-76043753Y21773667D01*
X-76043753Y21773667D02*
X-75805658Y21773667D01*
X-75805658Y21773667D02*
X-75710420Y21726048D01*
X-75710420Y21726048D02*
X-75662800Y21678429D01*
X-75662800Y21678429D02*
X-75615181Y21583191D01*
X-75615181Y21583191D02*
X-75615181Y21297477D01*
X-75615181Y21297477D02*
X-75662800Y21202239D01*
X-75662800Y21202239D02*
X-75710420Y21154620D01*
X-76661905Y54547181D02*
X-76661905Y55547181D01*
X-76661905Y55070991D02*
X-76090477Y55070991D01*
X-76090477Y54547181D02*
X-76090477Y55547181D01*
X-75709524Y55547181D02*
X-75090477Y55547181D01*
X-75090477Y55547181D02*
X-75423810Y55166229D01*
X-75423810Y55166229D02*
X-75280953Y55166229D01*
X-75280953Y55166229D02*
X-75185715Y55118610D01*
X-75185715Y55118610D02*
X-75138096Y55070991D01*
X-75138096Y55070991D02*
X-75090477Y54975753D01*
X-75090477Y54975753D02*
X-75090477Y54737658D01*
X-75090477Y54737658D02*
X-75138096Y54642420D01*
X-75138096Y54642420D02*
X-75185715Y54594800D01*
X-75185715Y54594800D02*
X-75280953Y54547181D01*
X-75280953Y54547181D02*
X-75566667Y54547181D01*
X-75566667Y54547181D02*
X-75661905Y54594800D01*
X-75661905Y54594800D02*
X-75709524Y54642420D01*
D10*
X-70542582Y66435334D02*
X-71018773Y66102001D01*
X-70542582Y65863906D02*
X-71542582Y65863906D01*
X-71542582Y65863906D02*
X-71542582Y66244858D01*
X-71542582Y66244858D02*
X-71494963Y66340096D01*
X-71494963Y66340096D02*
X-71447344Y66387715D01*
X-71447344Y66387715D02*
X-71352106Y66435334D01*
X-71352106Y66435334D02*
X-71209249Y66435334D01*
X-71209249Y66435334D02*
X-71114011Y66387715D01*
X-71114011Y66387715D02*
X-71066392Y66340096D01*
X-71066392Y66340096D02*
X-71018773Y66244858D01*
X-71018773Y66244858D02*
X-71018773Y65863906D01*
X-71447344Y66816287D02*
X-71494963Y66863906D01*
X-71494963Y66863906D02*
X-71542582Y66959144D01*
X-71542582Y66959144D02*
X-71542582Y67197239D01*
X-71542582Y67197239D02*
X-71494963Y67292477D01*
X-71494963Y67292477D02*
X-71447344Y67340096D01*
X-71447344Y67340096D02*
X-71352106Y67387715D01*
X-71352106Y67387715D02*
X-71256868Y67387715D01*
X-71256868Y67387715D02*
X-71114011Y67340096D01*
X-71114011Y67340096D02*
X-70542582Y66768668D01*
X-70542582Y66768668D02*
X-70542582Y67387715D01*
X-71687819Y10835334D02*
X-71640199Y10787715D01*
X-71640199Y10787715D02*
X-71592580Y10644858D01*
X-71592580Y10644858D02*
X-71592580Y10549620D01*
X-71592580Y10549620D02*
X-71640199Y10406763D01*
X-71640199Y10406763D02*
X-71735438Y10311525D01*
X-71735438Y10311525D02*
X-71830676Y10263906D01*
X-71830676Y10263906D02*
X-72021152Y10216287D01*
X-72021152Y10216287D02*
X-72164009Y10216287D01*
X-72164009Y10216287D02*
X-72354485Y10263906D01*
X-72354485Y10263906D02*
X-72449723Y10311525D01*
X-72449723Y10311525D02*
X-72544961Y10406763D01*
X-72544961Y10406763D02*
X-72592580Y10549620D01*
X-72592580Y10549620D02*
X-72592580Y10644858D01*
X-72592580Y10644858D02*
X-72544961Y10787715D01*
X-72544961Y10787715D02*
X-72497342Y10835334D01*
X-71592580Y11787715D02*
X-71592580Y11216287D01*
X-71592580Y11502001D02*
X-72592580Y11502001D01*
X-72592580Y11502001D02*
X-72449723Y11406763D01*
X-72449723Y11406763D02*
X-72354485Y11311525D01*
X-72354485Y11311525D02*
X-72306866Y11216287D01*
X-9966667Y27339819D02*
X-10014286Y27292199D01*
X-10014286Y27292199D02*
X-10157143Y27244580D01*
X-10157143Y27244580D02*
X-10252381Y27244580D01*
X-10252381Y27244580D02*
X-10395238Y27292199D01*
X-10395238Y27292199D02*
X-10490476Y27387438D01*
X-10490476Y27387438D02*
X-10538095Y27482676D01*
X-10538095Y27482676D02*
X-10585714Y27673152D01*
X-10585714Y27673152D02*
X-10585714Y27816009D01*
X-10585714Y27816009D02*
X-10538095Y28006485D01*
X-10538095Y28006485D02*
X-10490476Y28101723D01*
X-10490476Y28101723D02*
X-10395238Y28196961D01*
X-10395238Y28196961D02*
X-10252381Y28244580D01*
X-10252381Y28244580D02*
X-10157143Y28244580D01*
X-10157143Y28244580D02*
X-10014286Y28196961D01*
X-10014286Y28196961D02*
X-9966667Y28149342D01*
X-9585714Y28149342D02*
X-9538095Y28196961D01*
X-9538095Y28196961D02*
X-9442857Y28244580D01*
X-9442857Y28244580D02*
X-9204762Y28244580D01*
X-9204762Y28244580D02*
X-9109524Y28196961D01*
X-9109524Y28196961D02*
X-9061905Y28149342D01*
X-9061905Y28149342D02*
X-9014286Y28054104D01*
X-9014286Y28054104D02*
X-9014286Y27958866D01*
X-9014286Y27958866D02*
X-9061905Y27816009D01*
X-9061905Y27816009D02*
X-9633333Y27244580D01*
X-9633333Y27244580D02*
X-9014286Y27244580D01*
D11*
X-9661905Y54547181D02*
X-9661905Y55547181D01*
X-9661905Y55070991D02*
X-9090477Y55070991D01*
X-9090477Y54547181D02*
X-9090477Y55547181D01*
X-8185715Y55213848D02*
X-8185715Y54547181D01*
X-8423810Y55594800D02*
X-8661905Y54880515D01*
X-8661905Y54880515D02*
X-8042858Y54880515D01*
D10*
X-70542582Y22435334D02*
X-71018773Y22102001D01*
X-70542582Y21863906D02*
X-71542582Y21863906D01*
X-71542582Y21863906D02*
X-71542582Y22244858D01*
X-71542582Y22244858D02*
X-71494963Y22340096D01*
X-71494963Y22340096D02*
X-71447344Y22387715D01*
X-71447344Y22387715D02*
X-71352106Y22435334D01*
X-71352106Y22435334D02*
X-71209249Y22435334D01*
X-71209249Y22435334D02*
X-71114011Y22387715D01*
X-71114011Y22387715D02*
X-71066392Y22340096D01*
X-71066392Y22340096D02*
X-71018773Y22244858D01*
X-71018773Y22244858D02*
X-71018773Y21863906D01*
X-71447344Y22816287D02*
X-71494963Y22863906D01*
X-71494963Y22863906D02*
X-71542582Y22959144D01*
X-71542582Y22959144D02*
X-71542582Y23197239D01*
X-71542582Y23197239D02*
X-71494963Y23292477D01*
X-71494963Y23292477D02*
X-71447344Y23340096D01*
X-71447344Y23340096D02*
X-71352106Y23387715D01*
X-71352106Y23387715D02*
X-71256868Y23387715D01*
X-71256868Y23387715D02*
X-71114011Y23340096D01*
X-71114011Y23340096D02*
X-70542582Y22768668D01*
X-70542582Y22768668D02*
X-70542582Y23387715D01*
X-67692580Y54835334D02*
X-68168771Y54502001D01*
X-67692580Y54263906D02*
X-68692580Y54263906D01*
X-68692580Y54263906D02*
X-68692580Y54644858D01*
X-68692580Y54644858D02*
X-68644961Y54740096D01*
X-68644961Y54740096D02*
X-68597342Y54787715D01*
X-68597342Y54787715D02*
X-68502104Y54835334D01*
X-68502104Y54835334D02*
X-68359247Y54835334D01*
X-68359247Y54835334D02*
X-68264009Y54787715D01*
X-68264009Y54787715D02*
X-68216390Y54740096D01*
X-68216390Y54740096D02*
X-68168771Y54644858D01*
X-68168771Y54644858D02*
X-68168771Y54263906D01*
X-67692580Y55787715D02*
X-67692580Y55216287D01*
X-67692580Y55502001D02*
X-68692580Y55502001D01*
X-68692580Y55502001D02*
X-68549723Y55406763D01*
X-68549723Y55406763D02*
X-68454485Y55311525D01*
X-68454485Y55311525D02*
X-68406866Y55216287D01*
G04 #@! TO.C,C1*
X-71299999Y98552000D02*
X-71299999Y99452000D01*
X-70600001Y98552000D02*
X-70600001Y99452000D01*
D12*
G36*
X-70550000Y99402000D02*
G01*
X-71350000Y99402000D01*
X-71350000Y99802000D01*
X-70550000Y99802000D01*
X-70550000Y99402000D01*
G37*
G36*
X-70550000Y98202000D02*
G01*
X-71350000Y98202000D01*
X-71350000Y98602000D01*
X-70550000Y98602000D01*
X-70550000Y98202000D01*
G37*
D10*
G04 #@! TO.C,J1*
X-65400000Y58002000D02*
X-19400000Y58002000D01*
X-65400000Y53001999D02*
X-65400000Y58002000D01*
X-65400000Y53001999D02*
X-64400000Y52002000D01*
X-19400000Y58002000D02*
X-19400000Y52002000D01*
X-19400000Y52002000D02*
X-64400000Y52002000D01*
G04 #@! TO.C,R3*
X-72449999Y18752000D02*
X-72449999Y17852000D01*
X-71750001Y17852000D02*
X-71750001Y18752000D01*
D12*
G36*
X-71700000Y18702000D02*
G01*
X-72500000Y18702000D01*
X-72500000Y19102000D01*
X-71700000Y19102000D01*
X-71700000Y18702000D01*
G37*
G36*
X-71700000Y17502000D02*
G01*
X-72500000Y17502000D01*
X-72500000Y17902000D01*
X-71700000Y17902000D01*
X-71700000Y17502000D01*
G37*
D10*
G04 #@! TO.C,J5*
X-74500000Y52202000D02*
X-74500000Y43702000D01*
X-74500000Y52202000D02*
X-10400000Y52202000D01*
X-10400000Y52202000D02*
X-10400000Y43702000D01*
D13*
X1600000Y43602000D02*
X-86400000Y43602000D01*
D10*
G04 #@! TO.C,R3*
X-72449999Y62752000D02*
X-72449999Y61852000D01*
X-71750001Y61852000D02*
X-71750001Y62752000D01*
D12*
G36*
X-71700000Y62702000D02*
G01*
X-72500000Y62702000D01*
X-72500000Y63102000D01*
X-71700000Y63102000D01*
X-71700000Y62702000D01*
G37*
G36*
X-71700000Y61502000D02*
G01*
X-72500000Y61502000D01*
X-72500000Y61902000D01*
X-71700000Y61902000D01*
X-71700000Y61502000D01*
G37*
D14*
G04 #@! TO.C,U1*
X-70000000Y56502000D02*
X-70000000Y54002000D01*
X-69500000Y53502000D02*
X-70000000Y54002000D01*
X-69500000Y53502000D02*
X-68000000Y53502000D01*
X-68000000Y56502000D02*
X-70000000Y56502000D01*
X-68000000Y53502000D02*
X-68000000Y56502000D01*
D10*
G04 #@! TO.C,C1*
X-71299999Y54552000D02*
X-71299999Y55452000D01*
X-70600001Y54552000D02*
X-70600001Y55452000D01*
D12*
G36*
X-70550000Y55402000D02*
G01*
X-71350000Y55402000D01*
X-71350000Y55802000D01*
X-70550000Y55802000D01*
X-70550000Y55402000D01*
G37*
G36*
X-70550000Y54202000D02*
G01*
X-71350000Y54202000D01*
X-71350000Y54602000D01*
X-70550000Y54602000D01*
X-70550000Y54202000D01*
G37*
D14*
G04 #@! TO.C,KiKit_FID_T_1*
X-81050000Y133503500D02*
G75*
G02*
X-83550000Y133503500I-1250000J0D01*
G01*
X-83550000Y133503500D02*
G75*
G02*
X-81050000Y133503500I1250000J0D01*
G01*
D10*
G04 #@! TO.C,R4*
X-10250000Y68852001D02*
X-9350000Y68852001D01*
X-9350000Y69551999D02*
X-10250000Y69551999D01*
D12*
G36*
X-10200000Y68802000D02*
G01*
X-10600000Y68802000D01*
X-10600000Y69602000D01*
X-10200000Y69602000D01*
X-10200000Y68802000D01*
G37*
G36*
X-9000000Y68802000D02*
G01*
X-9400000Y68802000D01*
X-9400000Y69602000D01*
X-9000000Y69602000D01*
X-9000000Y68802000D01*
G37*
D10*
G04 #@! TO.C,R2*
X-72449999Y111052000D02*
X-72449999Y110152000D01*
X-71750001Y110152000D02*
X-71750001Y111052000D01*
D12*
G36*
X-71700000Y111002000D02*
G01*
X-72500000Y111002000D01*
X-72500000Y111402000D01*
X-71700000Y111402000D01*
X-71700000Y111002000D01*
G37*
G36*
X-71700000Y109802000D02*
G01*
X-72500000Y109802000D01*
X-72500000Y110202000D01*
X-71700000Y110202000D01*
X-71700000Y109802000D01*
G37*
D10*
G04 #@! TO.C,C2*
X-10250000Y114951999D02*
X-9350000Y114951999D01*
X-10250000Y114252001D02*
X-9350000Y114252001D01*
D12*
G36*
X-10200000Y114202000D02*
G01*
X-10600000Y114202000D01*
X-10600000Y115002000D01*
X-10200000Y115002000D01*
X-10200000Y114202000D01*
G37*
G36*
X-9000000Y114202000D02*
G01*
X-9400000Y114202000D01*
X-9400000Y115002000D01*
X-9000000Y115002000D01*
X-9000000Y114202000D01*
G37*
D10*
G04 #@! TO.C,R1*
X-67399999Y11452000D02*
X-67399999Y10552000D01*
X-66700001Y10552000D02*
X-66700001Y11452000D01*
D12*
G36*
X-66650000Y11402000D02*
G01*
X-67450000Y11402000D01*
X-67450000Y11802000D01*
X-66650000Y11802000D01*
X-66650000Y11402000D01*
G37*
G36*
X-66650000Y10202000D02*
G01*
X-67450000Y10202000D01*
X-67450000Y10602000D01*
X-66650000Y10602000D01*
X-66650000Y10202000D01*
G37*
D14*
G04 #@! TO.C,KiKit_FID_T_2*
X-1250000Y133503500D02*
G75*
G02*
X-3750000Y133503500I-1250000J0D01*
G01*
X-3750000Y133503500D02*
G75*
G02*
X-1250000Y133503500I1250000J0D01*
G01*
D10*
G04 #@! TO.C,C2*
X-10250000Y70951999D02*
X-9350000Y70951999D01*
X-10250000Y70252001D02*
X-9350000Y70252001D01*
D12*
G36*
X-10200000Y70202000D02*
G01*
X-10600000Y70202000D01*
X-10600000Y71002000D01*
X-10200000Y71002000D01*
X-10200000Y70202000D01*
G37*
G36*
X-9000000Y70202000D02*
G01*
X-9400000Y70202000D01*
X-9400000Y71002000D01*
X-9000000Y71002000D01*
X-9000000Y70202000D01*
G37*
D10*
G04 #@! TO.C,R3*
X-72449999Y106752000D02*
X-72449999Y105852000D01*
X-71750001Y105852000D02*
X-71750001Y106752000D01*
D12*
G36*
X-71700000Y106702000D02*
G01*
X-72500000Y106702000D01*
X-72500000Y107102000D01*
X-71700000Y107102000D01*
X-71700000Y106702000D01*
G37*
G36*
X-71700000Y105502000D02*
G01*
X-72500000Y105502000D01*
X-72500000Y105902000D01*
X-71700000Y105902000D01*
X-71700000Y105502000D01*
G37*
D10*
G04 #@! TO.C,J1*
X-65400000Y102002000D02*
X-19400000Y102002000D01*
X-65400000Y97001999D02*
X-65400000Y102002000D01*
X-65400000Y97001999D02*
X-64400000Y96002000D01*
X-19400000Y102002000D02*
X-19400000Y96002000D01*
X-19400000Y96002000D02*
X-64400000Y96002000D01*
G04 #@! TO.C,R4*
X-10250000Y112852001D02*
X-9350000Y112852001D01*
X-9350000Y113551999D02*
X-10250000Y113551999D01*
D12*
G36*
X-10200000Y112802000D02*
G01*
X-10600000Y112802000D01*
X-10600000Y113602000D01*
X-10200000Y113602000D01*
X-10200000Y112802000D01*
G37*
G36*
X-9000000Y112802000D02*
G01*
X-9400000Y112802000D01*
X-9400000Y113602000D01*
X-9000000Y113602000D01*
X-9000000Y112802000D01*
G37*
D10*
G04 #@! TO.C,J5*
X-74500000Y96202000D02*
X-74500000Y87702000D01*
X-74500000Y96202000D02*
X-10400000Y96202000D01*
X-10400000Y96202000D02*
X-10400000Y87702000D01*
D13*
X1600000Y87602000D02*
X-86400000Y87602000D01*
D14*
G04 #@! TO.C,U1*
X-70000000Y12502000D02*
X-70000000Y10002000D01*
X-69500000Y9502000D02*
X-70000000Y10002000D01*
X-69500000Y9502000D02*
X-68000000Y9502000D01*
X-68000000Y12502000D02*
X-70000000Y12502000D01*
X-68000000Y9502000D02*
X-68000000Y12502000D01*
X-70000000Y100502000D02*
X-70000000Y98002000D01*
X-69500000Y97502000D02*
X-70000000Y98002000D01*
X-69500000Y97502000D02*
X-68000000Y97502000D01*
X-68000000Y100502000D02*
X-70000000Y100502000D01*
X-68000000Y97502000D02*
X-68000000Y100502000D01*
D10*
G04 #@! TO.C,J5*
X-74500000Y140202000D02*
X-74500000Y131702000D01*
X-74500000Y140202000D02*
X-10400000Y140202000D01*
X-10400000Y140202000D02*
X-10400000Y131702000D01*
D13*
X1600000Y131602000D02*
X-86400000Y131602000D01*
D10*
G04 #@! TO.C,R1*
X-67399999Y99452000D02*
X-67399999Y98552000D01*
X-66700001Y98552000D02*
X-66700001Y99452000D01*
D12*
G36*
X-66650000Y99402000D02*
G01*
X-67450000Y99402000D01*
X-67450000Y99802000D01*
X-66650000Y99802000D01*
X-66650000Y99402000D01*
G37*
G36*
X-66650000Y98202000D02*
G01*
X-67450000Y98202000D01*
X-67450000Y98602000D01*
X-66650000Y98602000D01*
X-66650000Y98202000D01*
G37*
D10*
G04 #@! TO.C,R4*
X-10250000Y24852001D02*
X-9350000Y24852001D01*
X-9350000Y25551999D02*
X-10250000Y25551999D01*
D12*
G36*
X-10200000Y24802000D02*
G01*
X-10600000Y24802000D01*
X-10600000Y25602000D01*
X-10200000Y25602000D01*
X-10200000Y24802000D01*
G37*
G36*
X-9000000Y24802000D02*
G01*
X-9400000Y24802000D01*
X-9400000Y25602000D01*
X-9000000Y25602000D01*
X-9000000Y24802000D01*
G37*
D10*
G04 #@! TO.C,J1*
X-65400000Y14002000D02*
X-19400000Y14002000D01*
X-65400000Y9001999D02*
X-65400000Y14002000D01*
X-65400000Y9001999D02*
X-64400000Y8002000D01*
X-19400000Y14002000D02*
X-19400000Y8002000D01*
X-19400000Y8002000D02*
X-64400000Y8002000D01*
G04 #@! TO.C,R2*
X-72449999Y67052000D02*
X-72449999Y66152000D01*
X-71750001Y66152000D02*
X-71750001Y67052000D01*
D12*
G36*
X-71700000Y67002000D02*
G01*
X-72500000Y67002000D01*
X-72500000Y67402000D01*
X-71700000Y67402000D01*
X-71700000Y67002000D01*
G37*
G36*
X-71700000Y65802000D02*
G01*
X-72500000Y65802000D01*
X-72500000Y66202000D01*
X-71700000Y66202000D01*
X-71700000Y65802000D01*
G37*
D10*
G04 #@! TO.C,C1*
X-71299999Y10552000D02*
X-71299999Y11452000D01*
X-70600001Y10552000D02*
X-70600001Y11452000D01*
D12*
G36*
X-70550000Y11402000D02*
G01*
X-71350000Y11402000D01*
X-71350000Y11802000D01*
X-70550000Y11802000D01*
X-70550000Y11402000D01*
G37*
G36*
X-70550000Y10202000D02*
G01*
X-71350000Y10202000D01*
X-71350000Y10602000D01*
X-70550000Y10602000D01*
X-70550000Y10202000D01*
G37*
D10*
G04 #@! TO.C,C2*
X-10250000Y26951999D02*
X-9350000Y26951999D01*
X-10250000Y26252001D02*
X-9350000Y26252001D01*
D12*
G36*
X-10200000Y26202000D02*
G01*
X-10600000Y26202000D01*
X-10600000Y27002000D01*
X-10200000Y27002000D01*
X-10200000Y26202000D01*
G37*
G36*
X-9000000Y26202000D02*
G01*
X-9400000Y26202000D01*
X-9400000Y27002000D01*
X-9000000Y27002000D01*
X-9000000Y26202000D01*
G37*
D10*
G04 #@! TO.C,R2*
X-72449999Y23052000D02*
X-72449999Y22152000D01*
X-71750001Y22152000D02*
X-71750001Y23052000D01*
D12*
G36*
X-71700000Y23002000D02*
G01*
X-72500000Y23002000D01*
X-72500000Y23402000D01*
X-71700000Y23402000D01*
X-71700000Y23002000D01*
G37*
G36*
X-71700000Y21802000D02*
G01*
X-72500000Y21802000D01*
X-72500000Y22202000D01*
X-71700000Y22202000D01*
X-71700000Y21802000D01*
G37*
D14*
G04 #@! TO.C,KiKit_FID_T_3*
X-81050000Y2500000D02*
G75*
G02*
X-83550000Y2500000I-1250000J0D01*
G01*
X-83550000Y2500000D02*
G75*
G02*
X-81050000Y2500000I1250000J0D01*
G01*
D10*
G04 #@! TO.C,R1*
X-67399999Y55452000D02*
X-67399999Y54552000D01*
X-66700001Y54552000D02*
X-66700001Y55452000D01*
D12*
G36*
X-66650000Y55402000D02*
G01*
X-67450000Y55402000D01*
X-67450000Y55802000D01*
X-66650000Y55802000D01*
X-66650000Y55402000D01*
G37*
G36*
X-66650000Y54202000D02*
G01*
X-67450000Y54202000D01*
X-67450000Y54602000D01*
X-66650000Y54602000D01*
X-66650000Y54202000D01*
G37*
G04 #@! TD*
M02*
