G04 #@! TF.GenerationSoftware,KiCad,Pcbnew,8.0.6*
G04 #@! TF.CreationDate,2024-11-07T02:26:42-08:00*
G04 #@! TF.ProjectId,hvd-50-hd,6876642d-3530-42d6-9864-2e6b69636164,1*
G04 #@! TF.SameCoordinates,Original*
G04 #@! TF.FileFunction,Copper,L6,Bot*
G04 #@! TF.FilePolarity,Positive*
%FSLAX46Y46*%
G04 Gerber Fmt 4.6, Leading zero omitted, Abs format (unit mm)*
G04 Created by KiCad (PCBNEW 8.0.6) date 2024-11-07 02:26:42*
%MOMM*%
%LPD*%
G01*
G04 APERTURE LIST*
%ADD10C,0.300000*%
G04 #@! TA.AperFunction,NonConductor*
%ADD11C,0.300000*%
G04 #@! TD*
G04 #@! TA.AperFunction,ComponentPad*
%ADD12C,6.400000*%
G04 #@! TD*
G04 #@! TA.AperFunction,ComponentPad*
%ADD13C,1.200000*%
G04 #@! TD*
G04 #@! TA.AperFunction,ComponentPad*
%ADD14C,4.100000*%
G04 #@! TD*
G04 #@! TA.AperFunction,ComponentPad*
%ADD15C,1.850000*%
G04 #@! TD*
G04 #@! TA.AperFunction,ViaPad*
%ADD16C,0.450000*%
G04 #@! TD*
G04 #@! TA.AperFunction,Conductor*
%ADD17C,0.200000*%
G04 #@! TD*
G04 #@! TA.AperFunction,Conductor*
%ADD18C,0.127500*%
G04 #@! TD*
G04 #@! TA.AperFunction,Conductor*
%ADD19C,0.400000*%
G04 #@! TD*
G04 APERTURE END LIST*
D10*
D11*
X-1999172Y20414285D02*
X-1999172Y20700000D01*
X-1999172Y20700000D02*
X-1927743Y20842857D01*
X-1927743Y20842857D02*
X-1856315Y20914285D01*
X-1856315Y20914285D02*
X-1642029Y21057143D01*
X-1642029Y21057143D02*
X-1356315Y21128571D01*
X-1356315Y21128571D02*
X-784886Y21128571D01*
X-784886Y21128571D02*
X-642029Y21057143D01*
X-642029Y21057143D02*
X-570600Y20985714D01*
X-570600Y20985714D02*
X-499172Y20842857D01*
X-499172Y20842857D02*
X-499172Y20557143D01*
X-499172Y20557143D02*
X-570600Y20414285D01*
X-570600Y20414285D02*
X-642029Y20342857D01*
X-642029Y20342857D02*
X-784886Y20271428D01*
X-784886Y20271428D02*
X-1142029Y20271428D01*
X-1142029Y20271428D02*
X-1284886Y20342857D01*
X-1284886Y20342857D02*
X-1356315Y20414285D01*
X-1356315Y20414285D02*
X-1427743Y20557143D01*
X-1427743Y20557143D02*
X-1427743Y20842857D01*
X-1427743Y20842857D02*
X-1356315Y20985714D01*
X-1356315Y20985714D02*
X-1284886Y21057143D01*
X-1284886Y21057143D02*
X-1142029Y21128571D01*
D12*
G04 #@! TO.P,H4,1,1*
G04 #@! TO.N,GND*
X-4000000Y4000000D03*
G04 #@! TD*
D13*
G04 #@! TO.P,J5,1,Pin_1*
G04 #@! TO.N,GND*
X-52740001Y24606000D03*
G04 #@! TO.P,J5,2,Pin_2*
G04 #@! TO.N,/CON.DB0+*
X-51470000Y26511001D03*
G04 #@! TO.P,J5,3,Pin_3*
G04 #@! TO.N,/CON.DB1+*
X-50200000Y24606000D03*
G04 #@! TO.P,J5,4,Pin_4*
G04 #@! TO.N,/CON.DB2+*
X-48930001Y26511001D03*
G04 #@! TO.P,J5,5,Pin_5*
G04 #@! TO.N,/CON.DB3+*
X-47659999Y24606000D03*
G04 #@! TO.P,J5,6,Pin_6*
G04 #@! TO.N,/CON.DB4+*
X-46390000Y26510998D03*
G04 #@! TO.P,J5,7,Pin_7*
G04 #@! TO.N,/CON.DB5+*
X-45119999Y24606000D03*
G04 #@! TO.P,J5,8,Pin_8*
G04 #@! TO.N,/CON.DB6+*
X-43850001Y26511001D03*
G04 #@! TO.P,J5,9,Pin_9*
G04 #@! TO.N,/CON.DB7+*
X-42579998Y24606000D03*
G04 #@! TO.P,J5,10,Pin_10*
G04 #@! TO.N,/CON.DP0+*
X-41310001Y26511001D03*
G04 #@! TO.P,J5,11,Pin_11*
G04 #@! TO.N,/CON.DIFFSENSE*
X-40039997Y24606000D03*
G04 #@! TO.P,J5,12,Pin_12*
G04 #@! TO.N,GND*
X-38770000Y26511001D03*
G04 #@! TO.P,J5,13,Pin_13*
G04 #@! TO.N,/CON.TERMPWR*
X-37500000Y24606000D03*
G04 #@! TO.P,J5,14,Pin_14*
G04 #@! TO.N,GND*
X-36229999Y26510998D03*
G04 #@! TO.P,J5,15,Pin_15*
G04 #@! TO.N,/CON.ATN+*
X-34959999Y24606000D03*
G04 #@! TO.P,J5,16,Pin_16*
G04 #@! TO.N,GND*
X-33690000Y26510998D03*
G04 #@! TO.P,J5,17,Pin_17*
G04 #@! TO.N,/CON.BSY+*
X-32419998Y24606000D03*
G04 #@! TO.P,J5,18,Pin_18*
G04 #@! TO.N,/CON.ACK+*
X-31149999Y26511001D03*
G04 #@! TO.P,J5,19,Pin_19*
G04 #@! TO.N,/CON.RST+*
X-29880001Y24606000D03*
G04 #@! TO.P,J5,20,Pin_20*
G04 #@! TO.N,/CON.MSG+*
X-28610000Y26511001D03*
G04 #@! TO.P,J5,21,Pin_21*
G04 #@! TO.N,/CON.SEL+*
X-27340000Y24606000D03*
G04 #@! TO.P,J5,22,Pin_22*
G04 #@! TO.N,/CON.C{slash}D+*
X-26070000Y26511001D03*
G04 #@! TO.P,J5,23,Pin_23*
G04 #@! TO.N,/CON.REQ+*
X-24799999Y24606000D03*
G04 #@! TO.P,J5,24,Pin_24*
G04 #@! TO.N,/CON.I{slash}O+*
X-23530000Y26510998D03*
G04 #@! TO.P,J5,25,Pin_25*
G04 #@! TO.N,GND*
X-22259999Y24606000D03*
G04 #@! TO.P,J5,26,Pin_26*
X-52740002Y28416000D03*
G04 #@! TO.P,J5,27,Pin_27*
G04 #@! TO.N,/CON.DB0-*
X-51470000Y30320999D03*
G04 #@! TO.P,J5,28,Pin_28*
G04 #@! TO.N,/CON.DB1-*
X-50200002Y28415999D03*
G04 #@! TO.P,J5,29,Pin_29*
G04 #@! TO.N,/CON.DB2-*
X-48929998Y30320999D03*
G04 #@! TO.P,J5,30,Pin_30*
G04 #@! TO.N,/CON.DB3-*
X-47660000Y28415999D03*
G04 #@! TO.P,J5,31,Pin_31*
G04 #@! TO.N,/CON.DB4-*
X-46389999Y30320999D03*
G04 #@! TO.P,J5,32,Pin_32*
G04 #@! TO.N,/CON.DB5-*
X-45120000Y28415999D03*
G04 #@! TO.P,J5,33,Pin_33*
G04 #@! TO.N,/CON.DB6-*
X-43849998Y30320999D03*
G04 #@! TO.P,J5,34,Pin_34*
G04 #@! TO.N,/CON.DB7-*
X-42580001Y28415999D03*
G04 #@! TO.P,J5,35,Pin_35*
G04 #@! TO.N,/CON.DP0-*
X-41309999Y30320999D03*
G04 #@! TO.P,J5,36,Pin_36*
G04 #@! TO.N,GND*
X-40040000Y28416000D03*
G04 #@! TO.P,J5,37,Pin_37*
X-38770000Y30320999D03*
G04 #@! TO.P,J5,38,Pin_38*
G04 #@! TO.N,/CON.TERMPWR*
X-37500000Y28415999D03*
G04 #@! TO.P,J5,39,Pin_39*
G04 #@! TO.N,GND*
X-36229999Y30320999D03*
G04 #@! TO.P,J5,40,Pin_40*
G04 #@! TO.N,/CON.ATN-*
X-34960002Y28415999D03*
G04 #@! TO.P,J5,41,Pin_41*
G04 #@! TO.N,GND*
X-33689997Y30320999D03*
G04 #@! TO.P,J5,42,Pin_42*
G04 #@! TO.N,/CON.BSY-*
X-32420000Y28415999D03*
G04 #@! TO.P,J5,43,Pin_43*
G04 #@! TO.N,/CON.ACK-*
X-31149999Y30320999D03*
G04 #@! TO.P,J5,44,Pin_44*
G04 #@! TO.N,/CON.RST-*
X-29880002Y28416000D03*
G04 #@! TO.P,J5,45,Pin_45*
G04 #@! TO.N,/CON.MSG-*
X-28610000Y30320998D03*
G04 #@! TO.P,J5,46,Pin_46*
G04 #@! TO.N,/CON.SEL-*
X-27340002Y28415999D03*
G04 #@! TO.P,J5,47,Pin_47*
G04 #@! TO.N,/CON.C{slash}D-*
X-26069998Y30320999D03*
G04 #@! TO.P,J5,48,Pin_48*
G04 #@! TO.N,/CON.REQ-*
X-24800000Y28415999D03*
G04 #@! TO.P,J5,49,Pin_49*
G04 #@! TO.N,/CON.I{slash}O-*
X-23529999Y30320999D03*
G04 #@! TO.P,J5,50,Pin_50*
G04 #@! TO.N,GND*
X-22260000Y28415999D03*
D14*
G04 #@! TO.P,J5,SHIELD,SHIELD*
G04 #@! TO.N,/SHIELD*
X-14258999Y28415999D03*
X-60741000Y28415999D03*
G04 #@! TD*
D15*
G04 #@! TO.P,J3,1,Pin_1*
G04 #@! TO.N,+3V3*
X-72440000Y16010000D03*
G04 #@! TO.P,J3,2,Pin_2*
G04 #@! TO.N,/PHY.ID_SDA*
X-69900000Y14740000D03*
G04 #@! TO.P,J3,3,Pin_3*
G04 #@! TO.N,GND*
X-72440000Y13470000D03*
G04 #@! TO.P,J3,4,Pin_4*
G04 #@! TO.N,/PHY.ID_SCL*
X-69900000Y12200000D03*
G04 #@! TD*
D12*
G04 #@! TO.P,H3,1,1*
G04 #@! TO.N,GND*
X-71000000Y4000000D03*
G04 #@! TD*
D16*
G04 #@! TO.N,GND*
X-20300000Y5400000D03*
X-22700000Y1800000D03*
X-49100000Y1800000D03*
X-53900000Y1000000D03*
X-29900000Y2600000D03*
X-39500000Y6200000D03*
X-39500000Y1800000D03*
X-44300000Y7000000D03*
X-49100000Y6200000D03*
X-64650000Y4000000D03*
X-46700000Y6200000D03*
X-51500000Y2600000D03*
X-27500000Y2600000D03*
X-39500000Y7000000D03*
X-32300000Y1800000D03*
X-53900000Y5400000D03*
X-20300000Y1800000D03*
X-53900000Y2600000D03*
X-37100000Y5400000D03*
X-29900000Y3200000D03*
X-63600000Y4000000D03*
X-25100000Y7000000D03*
X-39500000Y5400000D03*
X-33900000Y1000000D03*
X-39500000Y3200000D03*
X-41900000Y1000000D03*
X-64100000Y4500000D03*
X-33900000Y2600000D03*
X-49100000Y2600000D03*
X-33900000Y6200000D03*
X-51500000Y5400000D03*
X-44300000Y6200000D03*
X-27500000Y6200000D03*
X-39500000Y1000000D03*
X-25100000Y1800000D03*
X-41900000Y7000000D03*
X-22700000Y3200000D03*
X-53900000Y7000000D03*
X-41900000Y6200000D03*
X-27500000Y5400000D03*
X-54700000Y6200000D03*
X-29900000Y1000000D03*
X-20300000Y1000000D03*
X-53900000Y1800000D03*
X-51500000Y6200000D03*
X-20300000Y2600000D03*
X-22700000Y1000000D03*
X-44300000Y5400000D03*
X-33900000Y1800000D03*
X-32300000Y5400000D03*
X-32300000Y3200000D03*
X-20300000Y6200000D03*
X-37100000Y6200000D03*
X-25100000Y2600000D03*
X-37100000Y7000000D03*
X-39500000Y2600000D03*
X-25100000Y3200000D03*
X-25100000Y6200000D03*
X-33900000Y7000000D03*
X-33900000Y3200000D03*
X-51500000Y7000000D03*
X-54700000Y7000000D03*
X-29900000Y7000000D03*
X-44300000Y1800000D03*
X-22700000Y2600000D03*
X-17900000Y5400000D03*
X-41900000Y2600000D03*
X-17900000Y7000000D03*
X-44300000Y1000000D03*
X-32300000Y7000000D03*
X-51500000Y1800000D03*
X-54700000Y5400000D03*
X-22700000Y6200000D03*
X-57100000Y5400000D03*
X-37100000Y1800000D03*
X-46700000Y1000000D03*
X-25100000Y1000000D03*
X-32300000Y2600000D03*
X-44300000Y2600000D03*
X-46700000Y5400000D03*
X-51500000Y3200000D03*
X-54700000Y1800000D03*
X-22700000Y7000000D03*
X-46700000Y2600000D03*
X-37100000Y1000000D03*
X-37100000Y2600000D03*
X-51500000Y1000000D03*
X-17900000Y1000000D03*
X-20300000Y7000000D03*
X-57100000Y6200000D03*
X-32300000Y1000000D03*
X-33900000Y5400000D03*
X-46700000Y1800000D03*
X-29900000Y5400000D03*
X-27500000Y1800000D03*
X-41900000Y1800000D03*
X-53900000Y6200000D03*
X-41900000Y5400000D03*
X-29900000Y6200000D03*
X-49100000Y5400000D03*
X-54700000Y2600000D03*
X-49100000Y7000000D03*
X-44300000Y3200000D03*
X-49100000Y1000000D03*
X-20300000Y3200000D03*
X-17900000Y3200000D03*
X-37100000Y3200000D03*
X-46700000Y3200000D03*
X-41900000Y3200000D03*
X-46700000Y7000000D03*
X-29900000Y1800000D03*
X-25100000Y5400000D03*
X-64100000Y3500000D03*
X-32300000Y6200000D03*
X-17900000Y6200000D03*
X-49100000Y3200000D03*
X-27500000Y1000000D03*
X-57100000Y7000000D03*
X-22700000Y5400000D03*
X-17900000Y2600000D03*
X-54700000Y1000000D03*
X-27500000Y3200000D03*
X-53900000Y3200000D03*
X-17900000Y1800000D03*
X-27500000Y7000000D03*
X-66050000Y3150000D03*
G04 #@! TO.N,/PHY.ID_SCL*
X-67200000Y12150000D03*
X-63000000Y8500000D03*
G04 #@! TO.N,+3V3*
X-56300000Y1800000D03*
X-67200000Y16500000D03*
X-67200000Y10500000D03*
X-66050000Y4850000D03*
X-56300000Y1000000D03*
X-56300000Y2600000D03*
X-62150000Y4850000D03*
G04 #@! TO.N,/PHY.ID_SDA*
X-67200000Y14750000D03*
X-62400000Y7900000D03*
G04 #@! TO.N,/CON.C{slash}D+*
X-25900000Y3200000D03*
G04 #@! TO.N,/CON.ACK+*
X-30700000Y3200000D03*
G04 #@! TO.N,/CON.TERMPWR*
X-35500000Y5400000D03*
X-34700000Y2600000D03*
X-34700000Y5400000D03*
X-34700000Y6200000D03*
X-35500000Y7000000D03*
X-35500000Y6200000D03*
X-34700000Y7000000D03*
X-35500000Y1800000D03*
X-35500000Y2600000D03*
X-35500000Y1000000D03*
X-34700000Y1000000D03*
X-34700000Y1800000D03*
G04 #@! TO.N,/CON.BSY+*
X-31500000Y3200000D03*
G04 #@! TO.N,/CON.DB5+*
X-41100000Y3200000D03*
G04 #@! TO.N,/CON.DP0+*
X-37900000Y3200000D03*
G04 #@! TO.N,/CON.SEL+*
X-26700000Y3200000D03*
G04 #@! TO.N,/CON.ATN+*
X-33100000Y3200000D03*
G04 #@! TO.N,/CON.DB7+*
X-38700000Y3200000D03*
G04 #@! TO.N,/CON.REQ+*
X-24300000Y3200000D03*
G04 #@! TO.N,/CON.MSG+*
X-28300000Y3200000D03*
G04 #@! TO.N,/CON.DB3+*
X-43500000Y3200000D03*
G04 #@! TO.N,/CON.DIFFSENSE*
X-36300000Y3200000D03*
G04 #@! TO.N,/CON.I{slash}O+*
X-23500000Y3200000D03*
G04 #@! TO.N,/CON.DB4+*
X-42700000Y3200000D03*
G04 #@! TO.N,/CON.RST+*
X-29100000Y3200000D03*
G04 #@! TO.N,/CON.DB6+*
X-40300000Y3200000D03*
G04 #@! TO.N,/CON.DB1+*
X-45900000Y3200000D03*
G04 #@! TO.N,/CON.DB2+*
X-45100000Y3200000D03*
G04 #@! TO.N,/CON.DB0+*
X-47500000Y3200000D03*
G04 #@! TD*
D17*
G04 #@! TO.N,/PHY.ID_SCL*
X-64200000Y12100000D02*
X-67150000Y12100000D01*
X-67150000Y12100000D02*
X-67200000Y12150000D01*
X-63000000Y10900000D02*
X-64200000Y12100000D01*
X-63000000Y8500000D02*
X-63000000Y10900000D01*
G04 #@! TO.N,/PHY.ID_SDA*
X-62400000Y11200000D02*
X-63900000Y12700000D01*
X-65150000Y12700000D02*
X-67200000Y14750000D01*
X-62400000Y7900000D02*
X-62400000Y11200000D01*
X-63900000Y12700000D02*
X-65150000Y12700000D01*
D18*
G04 #@! TO.N,/CON.C{slash}D+*
X-25575322Y14580000D02*
X-25575322Y14700000D01*
X-25815322Y16140000D02*
X-25830000Y16140000D01*
X-26564655Y15180000D02*
X-26564655Y15300000D01*
X-25900000Y3200000D02*
X-25900000Y7500000D01*
X-26564655Y13980000D02*
X-26564655Y14100000D01*
X-26310000Y13740000D02*
X-26324655Y13740000D01*
X-26070000Y14340000D02*
X-25815322Y14340000D01*
X-25575322Y15780000D02*
X-25575322Y15900000D01*
X-25900000Y7500000D02*
X-26070000Y7670000D01*
X-26324655Y14340000D02*
X-26310000Y14340000D01*
X-26324655Y15540000D02*
X-26070000Y15540000D01*
X-26070000Y7670000D02*
X-26070000Y13500000D01*
X-25830000Y15540000D02*
X-25815322Y15540000D01*
X-26070000Y15540000D02*
X-25830000Y15540000D01*
X-26070000Y16380000D02*
X-26070000Y16500000D01*
X-26310000Y14340000D02*
X-26070000Y14340000D01*
X-26070000Y14940000D02*
X-26324655Y14940000D01*
X-26070000Y22500000D02*
X-26070000Y26511001D01*
X-25815322Y14940000D02*
X-26070000Y14940000D01*
X-26070000Y16500000D02*
X-26070000Y22500000D01*
X-25575322Y14700000D02*
G75*
G03*
X-25815322Y14939978I-239978J0D01*
G01*
X-26070000Y13500000D02*
G75*
G03*
X-26310000Y13740000I-240000J0D01*
G01*
X-25815322Y14340000D02*
G75*
G03*
X-25575300Y14580000I22J240000D01*
G01*
X-26564655Y14100000D02*
G75*
G02*
X-26324655Y14339955I239955J0D01*
G01*
X-25815322Y15540000D02*
G75*
G03*
X-25575300Y15780000I22J240000D01*
G01*
X-26564655Y15300000D02*
G75*
G02*
X-26324655Y15539955I239955J0D01*
G01*
X-25575322Y15900000D02*
G75*
G03*
X-25815322Y16139978I-239978J0D01*
G01*
X-26324655Y14940000D02*
G75*
G02*
X-26564700Y15180000I-45J240000D01*
G01*
X-25830000Y16140000D02*
G75*
G02*
X-26070000Y16380000I0J240000D01*
G01*
X-26324655Y13740000D02*
G75*
G02*
X-26564700Y13980000I-45J240000D01*
G01*
G04 #@! TO.N,/CON.ACK+*
X-31390172Y15540000D02*
X-31149999Y15540000D01*
X-31149999Y14940000D02*
X-31390172Y14940000D01*
X-31389999Y13740000D02*
X-31390172Y13740000D01*
X-30700000Y7500000D02*
X-31149999Y7949999D01*
X-31630172Y13980000D02*
X-31630172Y14100000D01*
X-30909999Y15540000D02*
X-30909849Y15540000D01*
X-30909849Y16140000D02*
X-30909999Y16140000D01*
X-31149999Y15540000D02*
X-30909999Y15540000D01*
X-30700000Y3200000D02*
X-30700000Y7500000D01*
X-31149999Y14340000D02*
X-30909826Y14340000D01*
X-31149999Y7949999D02*
X-31149999Y13500000D01*
X-31390172Y14340000D02*
X-31389999Y14340000D01*
X-30669826Y14580000D02*
X-30669826Y14700000D01*
X-31149999Y22500000D02*
X-31149999Y26511001D01*
X-30909826Y14940000D02*
X-31149999Y14940000D01*
X-31149999Y16500000D02*
X-31149999Y22500000D01*
X-31389999Y14340000D02*
X-31149999Y14340000D01*
X-30669849Y15780000D02*
X-30669849Y15900000D01*
X-31149999Y16380000D02*
X-31149999Y16500000D01*
X-31630172Y15180000D02*
X-31630172Y15300000D01*
X-30909999Y16140000D02*
G75*
G02*
X-31150000Y16380000I-1J240000D01*
G01*
X-30909826Y14340000D02*
G75*
G03*
X-30669800Y14580000I26J240000D01*
G01*
X-31390172Y14940000D02*
G75*
G02*
X-31630200Y15180000I-28J240000D01*
G01*
X-31390172Y13740000D02*
G75*
G02*
X-31630200Y13980000I-28J240000D01*
G01*
X-31149999Y13500000D02*
G75*
G03*
X-31389999Y13740001I-240001J0D01*
G01*
X-31630172Y15300000D02*
G75*
G02*
X-31390172Y15539972I239972J0D01*
G01*
X-31630172Y14100000D02*
G75*
G02*
X-31390172Y14339972I239972J0D01*
G01*
X-30909849Y15540000D02*
G75*
G03*
X-30669800Y15780000I49J240000D01*
G01*
X-30669849Y15900000D02*
G75*
G03*
X-30909849Y16139951I-239951J0D01*
G01*
X-30669826Y14700000D02*
G75*
G03*
X-30909826Y14939974I-239974J0D01*
G01*
G04 #@! TO.N,/CON.BSY+*
X-32419998Y14940000D02*
X-32676973Y14940000D01*
X-32659998Y13740000D02*
X-32676973Y13740000D01*
X-32419998Y15540000D02*
X-32163023Y15540000D01*
X-32419998Y14340000D02*
X-32163023Y14340000D01*
X-31500000Y7500000D02*
X-32419998Y8419998D01*
X-32419998Y22500000D02*
X-32419998Y24606000D01*
X-31500000Y3200000D02*
X-31500000Y7500000D01*
X-32419998Y17700000D02*
X-32419998Y22500000D01*
X-32419998Y8419998D02*
X-32419998Y13500000D01*
X-32676973Y16740000D02*
X-32419998Y16740000D01*
X-32676973Y15540000D02*
X-32419998Y15540000D01*
X-32676973Y14340000D02*
X-32659998Y14340000D01*
X-32163023Y17340000D02*
X-32179998Y17340000D01*
X-32419998Y16740000D02*
X-32179998Y16740000D01*
X-32916973Y15180000D02*
X-32916973Y15300000D01*
X-31923023Y14580000D02*
X-31923023Y14700000D01*
X-31923023Y15780000D02*
X-31923023Y15900000D01*
X-32419998Y17580000D02*
X-32419998Y17700000D01*
X-32163023Y16140000D02*
X-32419998Y16140000D01*
X-32419998Y16140000D02*
X-32676973Y16140000D01*
X-32916973Y13980000D02*
X-32916973Y14100000D01*
X-32179998Y16740000D02*
X-32163023Y16740000D01*
X-31923023Y16980000D02*
X-31923023Y17100000D01*
X-32916973Y16380000D02*
X-32916973Y16500000D01*
X-32659998Y14340000D02*
X-32419998Y14340000D01*
X-32163023Y14940000D02*
X-32419998Y14940000D01*
X-32916973Y14100000D02*
G75*
G02*
X-32676973Y14339973I239973J0D01*
G01*
X-32419998Y13500000D02*
G75*
G03*
X-32659998Y13740002I-240002J0D01*
G01*
X-32676973Y14940000D02*
G75*
G02*
X-32917000Y15180000I-27J240000D01*
G01*
X-32163023Y14340000D02*
G75*
G03*
X-31923000Y14580000I23J240000D01*
G01*
X-31923023Y17100000D02*
G75*
G03*
X-32163023Y17339977I-239977J0D01*
G01*
X-32676973Y13740000D02*
G75*
G02*
X-32917000Y13980000I-27J240000D01*
G01*
X-32916973Y16500000D02*
G75*
G02*
X-32676973Y16739973I239973J0D01*
G01*
X-32916973Y15300000D02*
G75*
G02*
X-32676973Y15539973I239973J0D01*
G01*
X-32163023Y16740000D02*
G75*
G03*
X-31923000Y16980000I23J240000D01*
G01*
X-32163023Y15540000D02*
G75*
G03*
X-31923000Y15780000I23J240000D01*
G01*
X-32179998Y17340000D02*
G75*
G02*
X-32420000Y17580000I-2J240000D01*
G01*
X-31923023Y14700000D02*
G75*
G03*
X-32163023Y14939977I-239977J0D01*
G01*
X-32676973Y16140000D02*
G75*
G02*
X-32917000Y16380000I-27J240000D01*
G01*
X-31923023Y15900000D02*
G75*
G03*
X-32163023Y16139977I-239977J0D01*
G01*
G04 #@! TO.N,/CON.DB5+*
X-45119999Y17100000D02*
X-45119999Y22500000D01*
X-45119999Y14940000D02*
X-45339226Y14940000D01*
X-45119999Y16955941D02*
X-45119999Y17100000D01*
X-44900783Y16140000D02*
X-45119999Y16140000D01*
X-45119999Y15540000D02*
X-44900783Y15540000D01*
X-41100000Y3200000D02*
X-41100000Y7500000D01*
X-45558452Y15159226D02*
X-45558452Y15320774D01*
X-45119999Y14340000D02*
X-44900772Y14340000D01*
X-45119999Y22500000D02*
X-45119999Y24606000D01*
X-45551881Y16355941D02*
X-45551881Y16524059D01*
X-41100000Y7500000D02*
X-45119999Y11519999D01*
X-45339226Y15540000D02*
X-45119999Y15540000D01*
X-45551881Y13931882D02*
X-45551881Y14124059D01*
X-45119999Y11519999D02*
X-45119999Y13500000D01*
X-45119999Y16140000D02*
X-45335940Y16140000D01*
X-45335940Y14340000D02*
X-45119999Y14340000D01*
X-44681568Y15759215D02*
X-44681568Y15920785D01*
X-44900772Y14940000D02*
X-45119999Y14940000D01*
X-44681546Y14559226D02*
X-44681546Y14720774D01*
X-45551881Y14124059D02*
G75*
G02*
X-45335940Y14340081I215981J41D01*
G01*
X-45119999Y13500000D02*
G75*
G03*
X-45335940Y13715901I-215901J0D01*
G01*
X-45335940Y13715941D02*
G75*
G02*
X-45551859Y13931882I40J215959D01*
G01*
X-44681568Y15920785D02*
G75*
G03*
X-44900783Y16140032I-219232J15D01*
G01*
X-44900772Y14340000D02*
G75*
G03*
X-44681600Y14559226I-28J219200D01*
G01*
X-45558452Y15320774D02*
G75*
G02*
X-45339226Y15540052I219252J26D01*
G01*
X-44900783Y15540000D02*
G75*
G03*
X-44681600Y15759215I-17J219200D01*
G01*
X-45335940Y16140000D02*
G75*
G02*
X-45551800Y16355941I40J215900D01*
G01*
X-45339226Y14940000D02*
G75*
G02*
X-45558400Y15159226I26J219200D01*
G01*
X-45551881Y16524059D02*
G75*
G02*
X-45335940Y16740081I215981J41D01*
G01*
X-44681546Y14720774D02*
G75*
G03*
X-44900772Y14940054I-219254J26D01*
G01*
X-45335940Y16740000D02*
G75*
G03*
X-45120000Y16955941I40J215900D01*
G01*
G04 #@! TO.N,/CON.DP0+*
X-40929888Y14530056D02*
X-40929888Y14749944D01*
X-41310001Y15900000D02*
X-41310001Y22500000D01*
X-41310001Y14940000D02*
X-41492168Y14940000D01*
X-41119944Y14940000D02*
X-41310001Y14940000D01*
X-41674335Y15122167D02*
X-41674335Y15357833D01*
X-41674313Y13864312D02*
X-41674313Y14157844D01*
X-41492157Y14340000D02*
X-41310001Y14340000D01*
X-41310001Y14340000D02*
X-41119944Y14340000D01*
X-41310001Y10910001D02*
X-41310001Y13500000D01*
X-37900000Y3200000D02*
X-37900000Y7500000D01*
X-37900000Y7500000D02*
X-41310001Y10910001D01*
X-41310001Y15722167D02*
X-41310001Y15900000D01*
X-41310001Y22500000D02*
X-41310001Y26511001D01*
X-41674335Y15357833D02*
G75*
G02*
X-41492168Y15539935I182135J-33D01*
G01*
X-41492168Y15540000D02*
G75*
G03*
X-41310000Y15722167I-32J182200D01*
G01*
X-41119944Y14340000D02*
G75*
G03*
X-40929800Y14530056I44J190100D01*
G01*
X-41674313Y14157844D02*
G75*
G02*
X-41492157Y14339913I182113J-44D01*
G01*
X-41310001Y13500000D02*
G75*
G03*
X-41492157Y13682199I-182199J0D01*
G01*
X-41492168Y14940000D02*
G75*
G02*
X-41674400Y15122167I-32J182200D01*
G01*
X-40929888Y14749944D02*
G75*
G03*
X-41119944Y14939912I-190012J-44D01*
G01*
X-41492157Y13682156D02*
G75*
G02*
X-41674344Y13864312I-43J182144D01*
G01*
G04 #@! TO.N,/CON.SEL+*
X-27340000Y16740000D02*
X-27119739Y16740000D01*
X-27560248Y16740000D02*
X-27340000Y16740000D01*
X-27780496Y15160248D02*
X-27780496Y15319752D01*
X-26899478Y16960261D02*
X-26899478Y17119739D01*
X-27340000Y14340000D02*
X-27119753Y14340000D01*
X-26700000Y7500000D02*
X-27340000Y8140000D01*
X-27557126Y14340000D02*
X-27340000Y14340000D01*
X-27340000Y16140000D02*
X-27560248Y16140000D01*
X-27780496Y16360248D02*
X-27780496Y16519752D01*
X-27340000Y14940000D02*
X-27560248Y14940000D01*
X-27340000Y18300000D02*
X-27340000Y22500000D01*
X-27340000Y8140000D02*
X-27340000Y13500000D01*
X-27340000Y18157124D02*
X-27340000Y18300000D01*
X-27340000Y22500000D02*
X-27340000Y24606000D01*
X-27560248Y15540000D02*
X-27340000Y15540000D01*
X-26899478Y15760261D02*
X-26899478Y15919739D01*
X-27119753Y14940000D02*
X-27340000Y14940000D01*
X-27119739Y17340000D02*
X-27340000Y17340000D01*
X-27774248Y17557124D02*
X-27774248Y17722876D01*
X-27774252Y13934252D02*
X-27774252Y14122874D01*
X-26899507Y14560246D02*
X-26899507Y14719754D01*
X-27119739Y16140000D02*
X-27340000Y16140000D01*
X-26700000Y3200000D02*
X-26700000Y7500000D01*
X-27340000Y17340000D02*
X-27557124Y17340000D01*
X-27340000Y15540000D02*
X-27119739Y15540000D01*
X-26899507Y14719754D02*
G75*
G03*
X-27119753Y14940093I-220293J46D01*
G01*
X-27557124Y17940000D02*
G75*
G03*
X-27340000Y18157124I24J217100D01*
G01*
X-27119739Y16740000D02*
G75*
G03*
X-26899400Y16960261I39J220300D01*
G01*
X-27560248Y16140000D02*
G75*
G02*
X-27780400Y16360248I48J220200D01*
G01*
X-26899478Y17119739D02*
G75*
G03*
X-27119739Y17339922I-220222J-39D01*
G01*
X-27557124Y17340000D02*
G75*
G02*
X-27774200Y17557124I24J217100D01*
G01*
X-27780496Y16519752D02*
G75*
G02*
X-27560248Y16740096I220296J48D01*
G01*
X-27774248Y17722876D02*
G75*
G02*
X-27557124Y17940048I217148J24D01*
G01*
X-27774252Y14122874D02*
G75*
G02*
X-27557126Y14340052I217152J26D01*
G01*
X-26899478Y15919739D02*
G75*
G03*
X-27119739Y16139922I-220222J-39D01*
G01*
X-27340000Y13500000D02*
G75*
G03*
X-27557126Y13717100I-217100J0D01*
G01*
X-27119739Y15540000D02*
G75*
G03*
X-26899400Y15760261I39J220300D01*
G01*
X-27560248Y14940000D02*
G75*
G02*
X-27780400Y15160248I48J220200D01*
G01*
X-27780496Y15319752D02*
G75*
G02*
X-27560248Y15540096I220296J48D01*
G01*
X-27557126Y13717126D02*
G75*
G02*
X-27774274Y13934252I26J217174D01*
G01*
X-27119753Y14340000D02*
G75*
G03*
X-26899600Y14560246I-47J220200D01*
G01*
G04 #@! TO.N,/CON.ATN+*
X-35420324Y16370162D02*
X-35420324Y16509838D01*
X-34959999Y17568593D02*
X-34959999Y17700000D01*
X-34499697Y14570151D02*
X-34499697Y14709849D01*
X-34499697Y15770151D02*
X-34499697Y15909849D01*
X-34959999Y22500000D02*
X-34959999Y24606000D01*
X-34959999Y16740000D02*
X-34731406Y16740000D01*
X-34729848Y16140000D02*
X-34959999Y16140000D01*
X-35188581Y14340000D02*
X-34959999Y14340000D01*
X-33100000Y3200000D02*
X-33100000Y7500000D01*
X-34959999Y14340000D02*
X-34729848Y14340000D01*
X-33100000Y7500000D02*
X-34959999Y9359999D01*
X-35190156Y15540000D02*
X-34959999Y15540000D01*
X-34729848Y14940000D02*
X-34959999Y14940000D01*
X-34959999Y14940000D02*
X-35190156Y14940000D01*
X-34959999Y9359999D02*
X-34959999Y13500000D01*
X-34959999Y16140000D02*
X-35190162Y16140000D01*
X-35190162Y16740000D02*
X-34959999Y16740000D01*
X-34959999Y15540000D02*
X-34729848Y15540000D01*
X-35420312Y15170156D02*
X-35420312Y15309844D01*
X-34959999Y17700000D02*
X-34959999Y22500000D01*
X-35417163Y13957164D02*
X-35417163Y14111418D01*
X-34502813Y16968593D02*
X-34502813Y17111407D01*
X-34729848Y14340000D02*
G75*
G03*
X-34499600Y14570151I48J230200D01*
G01*
X-35190162Y16140000D02*
G75*
G02*
X-35420400Y16370162I-38J230200D01*
G01*
X-34499697Y14709849D02*
G75*
G03*
X-34729848Y14939903I-230103J-49D01*
G01*
X-34959999Y13500000D02*
G75*
G03*
X-35188581Y13728601I-228601J0D01*
G01*
X-34731406Y16740000D02*
G75*
G03*
X-34502800Y16968593I6J228600D01*
G01*
X-34729848Y15540000D02*
G75*
G03*
X-34499600Y15770151I48J230200D01*
G01*
X-35420324Y16509838D02*
G75*
G02*
X-35190162Y16739924I230124J-38D01*
G01*
X-35417163Y14111418D02*
G75*
G02*
X-35188581Y14339963I228563J-18D01*
G01*
X-34731406Y17340000D02*
G75*
G02*
X-34960000Y17568593I6J228600D01*
G01*
X-34499697Y15909849D02*
G75*
G03*
X-34729848Y16139903I-230103J-49D01*
G01*
X-35188581Y13728582D02*
G75*
G02*
X-35417218Y13957164I-19J228618D01*
G01*
X-35190156Y14940000D02*
G75*
G02*
X-35420400Y15170156I-44J230200D01*
G01*
X-34502813Y17111407D02*
G75*
G03*
X-34731406Y17339987I-228587J-7D01*
G01*
X-35420312Y15309844D02*
G75*
G02*
X-35190156Y15539912I230112J-44D01*
G01*
G04 #@! TO.N,/CON.DB7+*
X-42800213Y14340000D02*
X-42579998Y14340000D01*
X-42579998Y16140000D02*
X-42800202Y16140000D01*
X-42134156Y15762921D02*
X-42134156Y15917079D01*
X-43025840Y15162921D02*
X-43025840Y15317079D01*
X-42579998Y11379998D02*
X-42579998Y13500000D01*
X-42579998Y17100000D02*
X-42579998Y22500000D01*
X-42579998Y14940000D02*
X-42802919Y14940000D01*
X-42579998Y16960204D02*
X-42579998Y17100000D01*
X-43020406Y16360204D02*
X-43020406Y16519796D01*
X-43020428Y13940430D02*
X-43020428Y14119785D01*
X-42134156Y14562921D02*
X-42134156Y14717079D01*
X-42357077Y14940000D02*
X-42579998Y14940000D01*
X-42579998Y15540000D02*
X-42357077Y15540000D01*
X-42357077Y16140000D02*
X-42579998Y16140000D01*
X-42802919Y15540000D02*
X-42579998Y15540000D01*
X-38700000Y7500000D02*
X-42579998Y11379998D01*
X-42579998Y14340000D02*
X-42357077Y14340000D01*
X-38700000Y3200000D02*
X-38700000Y7500000D01*
X-42579998Y22500000D02*
X-42579998Y24606000D01*
X-42800202Y16740000D02*
G75*
G03*
X-42580000Y16960204I2J220200D01*
G01*
X-42134156Y14717079D02*
G75*
G03*
X-42357077Y14940044I-222944J21D01*
G01*
X-42800213Y13720215D02*
G75*
G02*
X-43020385Y13940430I13J220185D01*
G01*
X-42134156Y15917079D02*
G75*
G03*
X-42357077Y16140044I-222944J21D01*
G01*
X-42800202Y16140000D02*
G75*
G02*
X-43020400Y16360204I2J220200D01*
G01*
X-43020406Y16519796D02*
G75*
G02*
X-42800202Y16740006I220206J4D01*
G01*
X-42802919Y14940000D02*
G75*
G02*
X-43025800Y15162921I19J222900D01*
G01*
X-42579998Y13500000D02*
G75*
G03*
X-42800213Y13720202I-220202J0D01*
G01*
X-42357077Y15540000D02*
G75*
G03*
X-42134200Y15762921I-23J222900D01*
G01*
X-43025840Y15317079D02*
G75*
G02*
X-42802919Y15540040I222940J21D01*
G01*
X-42357077Y14340000D02*
G75*
G03*
X-42134200Y14562921I-23J222900D01*
G01*
X-43020428Y14119785D02*
G75*
G02*
X-42800213Y14340028I220228J15D01*
G01*
G04 #@! TO.N,/CON.REQ+*
X-24354225Y14562887D02*
X-24354225Y14717113D01*
X-24577112Y16140000D02*
X-24799999Y16140000D01*
X-25240361Y13940362D02*
X-25240361Y14119819D01*
X-24799999Y16140000D02*
X-25022898Y16140000D01*
X-24577112Y17340000D02*
X-24799999Y17340000D01*
X-25020180Y14340000D02*
X-24799999Y14340000D01*
X-24799999Y14340000D02*
X-24577112Y14340000D01*
X-24799999Y17340000D02*
X-25020180Y17340000D01*
X-24799999Y22500000D02*
X-24799999Y24606000D01*
X-24354225Y15762887D02*
X-24354225Y15917113D01*
X-24799999Y15540000D02*
X-24577112Y15540000D01*
X-24799999Y14940000D02*
X-25022886Y14940000D01*
X-24799999Y18300000D02*
X-24799999Y22500000D01*
X-24300000Y7500000D02*
X-24799999Y7999999D01*
X-24799999Y7999999D02*
X-24799999Y13500000D01*
X-24300000Y3200000D02*
X-24300000Y7500000D01*
X-24799999Y16740000D02*
X-24577112Y16740000D01*
X-25022898Y16740000D02*
X-24799999Y16740000D01*
X-24799999Y18160181D02*
X-24799999Y18300000D01*
X-25245796Y16362898D02*
X-25245796Y16517102D01*
X-24577112Y14940000D02*
X-24799999Y14940000D01*
X-25240361Y17560181D02*
X-25240361Y17719819D01*
X-25022886Y15540000D02*
X-24799999Y15540000D01*
X-25245773Y15162887D02*
X-25245773Y15317113D01*
X-24354225Y16962887D02*
X-24354225Y17117113D01*
X-25022898Y16140000D02*
G75*
G02*
X-25245800Y16362898I-2J222900D01*
G01*
X-25245796Y16517102D02*
G75*
G02*
X-25022898Y16739996I222896J-2D01*
G01*
X-24354225Y14717113D02*
G75*
G03*
X-24577112Y14939975I-222875J-13D01*
G01*
X-24577112Y16740000D02*
G75*
G03*
X-24354200Y16962887I12J222900D01*
G01*
X-25240361Y14119819D02*
G75*
G02*
X-25020180Y14339961I220161J-19D01*
G01*
X-25020180Y13720181D02*
G75*
G02*
X-25240419Y13940362I-20J220219D01*
G01*
X-24799999Y13500000D02*
G75*
G03*
X-25020180Y13720201I-220201J0D01*
G01*
X-24354225Y17117113D02*
G75*
G03*
X-24577112Y17339975I-222875J-13D01*
G01*
X-25022886Y14940000D02*
G75*
G02*
X-25245800Y15162887I-14J222900D01*
G01*
X-25020180Y17340000D02*
G75*
G02*
X-25240400Y17560181I-20J220200D01*
G01*
X-24577112Y15540000D02*
G75*
G03*
X-24354200Y15762887I12J222900D01*
G01*
X-25020180Y17940000D02*
G75*
G03*
X-24800000Y18160181I-20J220200D01*
G01*
X-25240361Y17719819D02*
G75*
G02*
X-25020180Y17939961I220161J-19D01*
G01*
X-25245773Y15317113D02*
G75*
G02*
X-25022886Y15539973I222873J-13D01*
G01*
X-24577112Y14340000D02*
G75*
G03*
X-24354200Y14562887I12J222900D01*
G01*
X-24354225Y15917113D02*
G75*
G03*
X-24577112Y16139975I-222875J-13D01*
G01*
G04 #@! TO.N,/CON.MSG+*
X-29097426Y13980000D02*
X-29097426Y14100000D01*
X-28610000Y16380000D02*
X-28610000Y16500000D01*
X-28610000Y7810000D02*
X-28610000Y13500000D01*
X-28857426Y14340000D02*
X-28850000Y14340000D01*
X-28610000Y16500000D02*
X-28610000Y22500000D01*
X-28850000Y14340000D02*
X-28610000Y14340000D01*
X-28300000Y3200000D02*
X-28300000Y7500000D01*
X-28610000Y22500000D02*
X-28610000Y26511001D01*
X-28122574Y14580000D02*
X-28122574Y14700000D01*
X-28610000Y14340000D02*
X-28362574Y14340000D01*
X-28122563Y15780000D02*
X-28122563Y15900000D01*
X-28300000Y7500000D02*
X-28610000Y7810000D01*
X-28610000Y14940000D02*
X-28857426Y14940000D01*
X-28857426Y15540000D02*
X-28610000Y15540000D01*
X-28362574Y14940000D02*
X-28610000Y14940000D01*
X-28850000Y13740000D02*
X-28857426Y13740000D01*
X-28610000Y15540000D02*
X-28370000Y15540000D01*
X-28370000Y15540000D02*
X-28362563Y15540000D01*
X-29097426Y15180000D02*
X-29097426Y15300000D01*
X-28362563Y16140000D02*
X-28370000Y16140000D01*
X-28122563Y15900000D02*
G75*
G03*
X-28362563Y16140037I-240037J0D01*
G01*
X-28362574Y14340000D02*
G75*
G03*
X-28122600Y14580000I-26J240000D01*
G01*
X-28857426Y14940000D02*
G75*
G02*
X-29097400Y15180000I26J240000D01*
G01*
X-28857426Y13740000D02*
G75*
G02*
X-29097400Y13980000I26J240000D01*
G01*
X-29097426Y15300000D02*
G75*
G02*
X-28857426Y15540026I240026J0D01*
G01*
X-28370000Y16140000D02*
G75*
G02*
X-28610000Y16380000I0J240000D01*
G01*
X-28362563Y15540000D02*
G75*
G03*
X-28122600Y15780000I-37J240000D01*
G01*
X-28122574Y14700000D02*
G75*
G03*
X-28362574Y14940026I-240026J0D01*
G01*
X-29097426Y14100000D02*
G75*
G02*
X-28857426Y14340026I240026J0D01*
G01*
X-28610000Y13500000D02*
G75*
G03*
X-28850000Y13740000I-240000J0D01*
G01*
G04 #@! TO.N,/CON.DB3+*
X-48091064Y15155532D02*
X-48091064Y15324468D01*
X-47659999Y15540000D02*
X-47444466Y15540000D01*
X-43500000Y3200000D02*
X-43500000Y7500000D01*
X-48083333Y13923334D02*
X-48083333Y14128333D01*
X-48083333Y16351667D02*
X-48083333Y16528333D01*
X-47659999Y22500000D02*
X-47659999Y24606000D01*
X-47444466Y14940000D02*
X-47659999Y14940000D01*
X-47659999Y14340000D02*
X-47444466Y14340000D01*
X-47875532Y15540000D02*
X-47659999Y15540000D01*
X-47659999Y16951667D02*
X-47659999Y17100000D01*
X-47228934Y15755532D02*
X-47228934Y15924468D01*
X-47659999Y11659999D02*
X-47659999Y13500000D01*
X-47659999Y17100000D02*
X-47659999Y22500000D01*
X-47659999Y16140000D02*
X-47871666Y16140000D01*
X-43500000Y7500000D02*
X-47659999Y11659999D01*
X-47659999Y14940000D02*
X-47875532Y14940000D01*
X-47444466Y16140000D02*
X-47659999Y16140000D01*
X-47871666Y14340000D02*
X-47659999Y14340000D01*
X-47228934Y14555532D02*
X-47228934Y14724468D01*
X-47444466Y14340000D02*
G75*
G03*
X-47229000Y14555532I-34J215500D01*
G01*
X-48091064Y15324468D02*
G75*
G02*
X-47875532Y15540064I215564J32D01*
G01*
X-47871666Y16740000D02*
G75*
G03*
X-47660000Y16951667I-34J211700D01*
G01*
X-48083333Y14128333D02*
G75*
G02*
X-47871666Y14339933I211633J-33D01*
G01*
X-47875532Y14940000D02*
G75*
G02*
X-48091000Y15155532I32J215500D01*
G01*
X-47871666Y13711667D02*
G75*
G02*
X-48083333Y13923334I-34J211633D01*
G01*
X-47659999Y13500000D02*
G75*
G03*
X-47871666Y13711701I-211701J0D01*
G01*
X-47444466Y15540000D02*
G75*
G03*
X-47229000Y15755532I-34J215500D01*
G01*
X-47871666Y16140000D02*
G75*
G02*
X-48083400Y16351667I-34J211700D01*
G01*
X-48083333Y16528333D02*
G75*
G02*
X-47871666Y16739933I211633J-33D01*
G01*
X-47228934Y15924468D02*
G75*
G03*
X-47444466Y16140066I-215566J32D01*
G01*
X-47228934Y14724468D02*
G75*
G03*
X-47444466Y14940066I-215566J32D01*
G01*
D19*
G04 #@! TO.N,/CON.DIFFSENSE*
X-36300000Y20866003D02*
X-40039997Y24606000D01*
X-36300000Y3200000D02*
X-36300000Y20866003D01*
D18*
G04 #@! TO.N,/CON.I{slash}O+*
X-23924642Y16337321D02*
X-23924642Y16542679D01*
X-23500000Y7500000D02*
X-23530000Y7530000D01*
X-23530000Y16937321D02*
X-23530000Y17100000D01*
X-23530000Y15540000D02*
X-23326835Y15540000D01*
X-23530000Y7530000D02*
X-23530000Y13500000D01*
X-23733165Y15540000D02*
X-23530000Y15540000D01*
X-23530000Y14940000D02*
X-23733165Y14940000D01*
X-23530000Y16140000D02*
X-23727321Y16140000D01*
X-23530000Y22500000D02*
X-23530000Y26510998D01*
X-23326835Y14940000D02*
X-23530000Y14940000D01*
X-23123671Y15743164D02*
X-23123671Y15936836D01*
X-23936329Y15143164D02*
X-23936329Y15336836D01*
X-23924664Y13894664D02*
X-23924664Y14142668D01*
X-23530000Y17100000D02*
X-23530000Y22500000D01*
X-23123671Y14543164D02*
X-23123671Y14736836D01*
X-23326835Y16140000D02*
X-23530000Y16140000D01*
X-23727332Y14340000D02*
X-23530000Y14340000D01*
X-23500000Y3200000D02*
X-23500000Y7500000D01*
X-23530000Y14340000D02*
X-23326835Y14340000D01*
X-23924642Y16542679D02*
G75*
G02*
X-23727321Y16740042I197342J21D01*
G01*
X-23936329Y15336836D02*
G75*
G02*
X-23733165Y15539929I203129J-36D01*
G01*
X-23326835Y14340000D02*
G75*
G03*
X-23123600Y14543164I35J203200D01*
G01*
X-23326835Y15540000D02*
G75*
G03*
X-23123600Y15743164I35J203200D01*
G01*
X-23530000Y13500000D02*
G75*
G03*
X-23727332Y13697300I-197300J0D01*
G01*
X-23727321Y16740000D02*
G75*
G03*
X-23530000Y16937321I21J197300D01*
G01*
X-23924664Y14142668D02*
G75*
G02*
X-23727332Y14340064I197364J32D01*
G01*
X-23727321Y16140000D02*
G75*
G02*
X-23924600Y16337321I21J197300D01*
G01*
X-23733165Y14940000D02*
G75*
G02*
X-23936400Y15143164I-35J203200D01*
G01*
X-23123671Y15936836D02*
G75*
G03*
X-23326835Y16139929I-203129J-36D01*
G01*
X-23123671Y14736836D02*
G75*
G03*
X-23326835Y14939929I-203129J-36D01*
G01*
X-23727332Y13697332D02*
G75*
G02*
X-23924668Y13894664I32J197368D01*
G01*
G04 #@! TO.N,/CON.DB4+*
X-42700000Y7500000D02*
X-46390000Y11190000D01*
X-46390000Y11190000D02*
X-46390000Y13500000D01*
X-46725802Y13835802D02*
X-46725802Y14172099D01*
X-46557901Y14340000D02*
X-46390000Y14340000D01*
X-46212243Y14940000D02*
X-46390000Y14940000D01*
X-42700000Y3200000D02*
X-42700000Y7500000D01*
X-46390000Y22500000D02*
X-46390000Y26510998D01*
X-46390000Y15900000D02*
X-46390000Y22500000D01*
X-46390000Y15707901D02*
X-46390000Y15900000D01*
X-46725802Y15107901D02*
X-46725802Y15372099D01*
X-46390000Y14940000D02*
X-46557901Y14940000D01*
X-46390000Y14340000D02*
X-46212243Y14340000D01*
X-46034487Y14517756D02*
X-46034487Y14762244D01*
X-46212243Y14340000D02*
G75*
G03*
X-46034400Y14517756I43J177800D01*
G01*
X-46725802Y15372099D02*
G75*
G02*
X-46557901Y15540002I167902J1D01*
G01*
X-46557901Y14940000D02*
G75*
G02*
X-46725800Y15107901I1J167900D01*
G01*
X-46557901Y15540000D02*
G75*
G03*
X-46390000Y15707901I1J167900D01*
G01*
X-46557901Y13667901D02*
G75*
G02*
X-46725799Y13835802I1J167899D01*
G01*
X-46390000Y13500000D02*
G75*
G03*
X-46557901Y13667900I-167900J0D01*
G01*
X-46034487Y14762244D02*
G75*
G03*
X-46212243Y14939913I-177713J-44D01*
G01*
X-46725802Y14172099D02*
G75*
G02*
X-46557901Y14340002I167902J1D01*
G01*
G04 #@! TO.N,/CON.RST+*
X-29880001Y18154088D02*
X-29880001Y18300000D01*
X-29880001Y16140000D02*
X-30097614Y16140000D01*
X-30315226Y15157612D02*
X-30315226Y15322388D01*
X-30308151Y13928150D02*
X-30308151Y14125925D01*
X-30097614Y16740000D02*
X-29880001Y16740000D01*
X-29444776Y16957612D02*
X-29444776Y17122388D01*
X-29662388Y17340000D02*
X-29880001Y17340000D01*
X-29100000Y7500000D02*
X-29880001Y8280001D01*
X-29880001Y14940000D02*
X-30097614Y14940000D01*
X-30094076Y14340000D02*
X-29880001Y14340000D01*
X-29100000Y3200000D02*
X-29100000Y7500000D01*
X-30308177Y17554088D02*
X-30308177Y17725912D01*
X-29662377Y16140000D02*
X-29880001Y16140000D01*
X-29880001Y16740000D02*
X-29662388Y16740000D01*
X-30315226Y16357612D02*
X-30315226Y16522388D01*
X-29880001Y18300000D02*
X-29880001Y22500000D01*
X-29880001Y14340000D02*
X-29662377Y14340000D01*
X-29444753Y15757624D02*
X-29444753Y15922376D01*
X-30097614Y15540000D02*
X-29880001Y15540000D01*
X-29880001Y22500000D02*
X-29880001Y24606000D01*
X-29880001Y17340000D02*
X-30094089Y17340000D01*
X-29880001Y15540000D02*
X-29662377Y15540000D01*
X-29880001Y8280001D02*
X-29880001Y13500000D01*
X-29444753Y14557624D02*
X-29444753Y14722376D01*
X-29662377Y14940000D02*
X-29880001Y14940000D01*
X-30097614Y16140000D02*
G75*
G02*
X-30315200Y16357612I14J217600D01*
G01*
X-30315226Y15322388D02*
G75*
G02*
X-30097614Y15540026I217626J12D01*
G01*
X-29880001Y13500000D02*
G75*
G03*
X-30094076Y13714099I-214099J0D01*
G01*
X-30094089Y17940000D02*
G75*
G03*
X-29880000Y18154088I-11J214100D01*
G01*
X-30315226Y16522388D02*
G75*
G02*
X-30097614Y16740026I217626J12D01*
G01*
X-29662377Y14340000D02*
G75*
G03*
X-29444800Y14557624I-23J217600D01*
G01*
X-29444776Y17122388D02*
G75*
G03*
X-29662388Y17340024I-217624J12D01*
G01*
X-29444753Y14722376D02*
G75*
G03*
X-29662377Y14940047I-217647J24D01*
G01*
X-30308151Y14125925D02*
G75*
G02*
X-30094076Y14339951I214051J-25D01*
G01*
X-30094076Y13714075D02*
G75*
G02*
X-30308125Y13928150I-24J214025D01*
G01*
X-29662388Y16740000D02*
G75*
G03*
X-29444800Y16957612I-12J217600D01*
G01*
X-29662377Y15540000D02*
G75*
G03*
X-29444800Y15757624I-23J217600D01*
G01*
X-30308177Y17725912D02*
G75*
G02*
X-30094089Y17939977I214077J-12D01*
G01*
X-30097614Y14940000D02*
G75*
G02*
X-30315200Y15157612I14J217600D01*
G01*
X-30094089Y17340000D02*
G75*
G02*
X-30308200Y17554088I-11J214100D01*
G01*
X-29444753Y15922376D02*
G75*
G03*
X-29662377Y16140047I-217647J24D01*
G01*
G04 #@! TO.N,/CON.DB6+*
X-43850001Y11050001D02*
X-43850001Y13500000D01*
X-43850001Y22500000D02*
X-43850001Y26511001D01*
X-44200051Y13850050D02*
X-44200051Y14164975D01*
X-43850001Y14940000D02*
X-44025018Y14940000D01*
X-44200035Y15115017D02*
X-44200035Y15364983D01*
X-43482188Y14523906D02*
X-43482188Y14756094D01*
X-43850001Y14340000D02*
X-43666094Y14340000D01*
X-43850001Y15900000D02*
X-43850001Y22500000D01*
X-43850001Y15715017D02*
X-43850001Y15900000D01*
X-40300000Y3200000D02*
X-40300000Y7500000D01*
X-43666094Y14940000D02*
X-43850001Y14940000D01*
X-40300000Y7500000D02*
X-43850001Y11050001D01*
X-44025026Y14340000D02*
X-43850001Y14340000D01*
X-44025026Y13675025D02*
G75*
G02*
X-44200075Y13850050I26J175075D01*
G01*
X-44025018Y15540000D02*
G75*
G03*
X-43850000Y15715017I18J175000D01*
G01*
X-44025018Y14940000D02*
G75*
G02*
X-44200000Y15115017I18J175000D01*
G01*
X-44200035Y15364983D02*
G75*
G02*
X-44025018Y15540035I175035J17D01*
G01*
X-44200051Y14164975D02*
G75*
G02*
X-44025026Y14340051I175051J25D01*
G01*
X-43482188Y14756094D02*
G75*
G03*
X-43666094Y14940012I-183912J6D01*
G01*
X-43666094Y14340000D02*
G75*
G03*
X-43482200Y14523906I-6J183900D01*
G01*
X-43850001Y13500000D02*
G75*
G03*
X-44025026Y13674999I-174999J0D01*
G01*
G04 #@! TO.N,/CON.DB1+*
X-50200000Y14940000D02*
X-50411849Y14940000D01*
X-49776325Y14551837D02*
X-49776325Y14728163D01*
X-50200000Y14340000D02*
X-49988162Y14340000D01*
X-50614786Y16347393D02*
X-50614786Y16532607D01*
X-49988162Y14940000D02*
X-50200000Y14940000D01*
X-50200000Y15540000D02*
X-49988162Y15540000D01*
X-45900000Y3200000D02*
X-45900000Y7500000D01*
X-50200000Y16140000D02*
X-50407393Y16140000D01*
X-50200000Y11800000D02*
X-50200000Y13500000D01*
X-49988162Y16140000D02*
X-50200000Y16140000D01*
X-49776325Y15751837D02*
X-49776325Y15928163D01*
X-45900000Y7500000D02*
X-50200000Y11800000D01*
X-50411849Y15540000D02*
X-50200000Y15540000D01*
X-50407381Y14340000D02*
X-50200000Y14340000D01*
X-50623698Y15151849D02*
X-50623698Y15328151D01*
X-50200000Y16947393D02*
X-50200000Y17100000D01*
X-50200000Y22500000D02*
X-50200000Y24606000D01*
X-50200000Y17100000D02*
X-50200000Y22500000D01*
X-50614762Y13914762D02*
X-50614762Y14132619D01*
X-49776325Y15928163D02*
G75*
G03*
X-49988162Y16140075I-211875J37D01*
G01*
X-49988162Y15540000D02*
G75*
G03*
X-49776400Y15751837I-38J211800D01*
G01*
X-50623698Y15328151D02*
G75*
G02*
X-50411849Y15540098I211898J49D01*
G01*
X-50614786Y16532607D02*
G75*
G02*
X-50407393Y16739986I207386J-7D01*
G01*
X-50407393Y16140000D02*
G75*
G02*
X-50614800Y16347393I-7J207400D01*
G01*
X-50407393Y16740000D02*
G75*
G03*
X-50200000Y16947393I-7J207400D01*
G01*
X-50411849Y14940000D02*
G75*
G02*
X-50623600Y15151849I49J211800D01*
G01*
X-49776325Y14728163D02*
G75*
G03*
X-49988162Y14940075I-211875J37D01*
G01*
X-49988162Y14340000D02*
G75*
G03*
X-49776400Y14551837I-38J211800D01*
G01*
X-50614762Y14132619D02*
G75*
G02*
X-50407381Y14339962I207362J-19D01*
G01*
X-50407381Y13707381D02*
G75*
G02*
X-50614819Y13914762I-19J207419D01*
G01*
X-50200000Y13500000D02*
G75*
G03*
X-50407381Y13707400I-207400J0D01*
G01*
G04 #@! TO.N,/CON.DB2+*
X-48758394Y14940000D02*
X-48930001Y14940000D01*
X-48930001Y11330001D02*
X-48930001Y13500000D01*
X-49090775Y14340000D02*
X-48930001Y14340000D01*
X-48930001Y15900000D02*
X-48930001Y22500000D01*
X-45100000Y7500000D02*
X-48930001Y11330001D01*
X-48930001Y22500000D02*
X-48930001Y26511001D01*
X-48930001Y14940000D02*
X-49090786Y14940000D01*
X-48930001Y15700785D02*
X-48930001Y15900000D01*
X-49251549Y13821548D02*
X-49251549Y14179226D01*
X-48930001Y14340000D02*
X-48758394Y14340000D01*
X-49251571Y15100785D02*
X-49251571Y15379215D01*
X-45100000Y3200000D02*
X-45100000Y7500000D01*
X-48586787Y14511607D02*
X-48586787Y14768393D01*
X-49251549Y14179226D02*
G75*
G02*
X-49090775Y14339949I160749J-26D01*
G01*
X-49090775Y13660774D02*
G75*
G02*
X-49251526Y13821548I-25J160726D01*
G01*
X-49090786Y15540000D02*
G75*
G03*
X-48930000Y15700785I-14J160800D01*
G01*
X-49251571Y15379215D02*
G75*
G02*
X-49090786Y15539971I160771J-15D01*
G01*
X-48586787Y14768393D02*
G75*
G03*
X-48758394Y14940013I-171613J7D01*
G01*
X-49090786Y14940000D02*
G75*
G02*
X-49251600Y15100785I-14J160800D01*
G01*
X-48930001Y13500000D02*
G75*
G03*
X-49090775Y13660799I-160799J0D01*
G01*
X-48758394Y14340000D02*
G75*
G03*
X-48586800Y14511607I-6J171600D01*
G01*
G04 #@! TO.N,/CON.DB0+*
X-51710000Y14340000D02*
X-51217164Y14340000D01*
X-51470000Y15180000D02*
X-51470000Y15300000D01*
X-47500000Y3200000D02*
X-47500000Y7500000D01*
X-51470000Y22500000D02*
X-51470000Y26511001D01*
X-51722836Y14340000D02*
X-51710000Y14340000D01*
X-47500000Y7500000D02*
X-51470000Y11470000D01*
X-51470000Y11470000D02*
X-51470000Y13500000D01*
X-51962836Y13980000D02*
X-51962836Y14100000D01*
X-50977164Y14580000D02*
X-50977164Y14700000D01*
X-51217164Y14940000D02*
X-51230000Y14940000D01*
X-51470000Y15300000D02*
X-51470000Y22500000D01*
X-51710000Y13740000D02*
X-51722836Y13740000D01*
X-51230000Y14940000D02*
G75*
G02*
X-51470000Y15180000I0J240000D01*
G01*
X-51217164Y14340000D02*
G75*
G03*
X-50977200Y14580000I-36J240000D01*
G01*
X-50977164Y14700000D02*
G75*
G03*
X-51217164Y14940036I-240036J0D01*
G01*
X-51470000Y13500000D02*
G75*
G03*
X-51710000Y13740000I-240000J0D01*
G01*
X-51962836Y14100000D02*
G75*
G02*
X-51722836Y14340036I240036J0D01*
G01*
X-51722836Y13740000D02*
G75*
G02*
X-51962800Y13980000I36J240000D01*
G01*
G04 #@! TD*
G04 #@! TA.AperFunction,Conductor*
G04 #@! TO.N,GND*
G36*
X-3998800Y33799442D02*
G01*
X-3629980Y33781322D01*
X-3625219Y33780854D01*
X-3261123Y33726846D01*
X-3256433Y33725913D01*
X-2963065Y33652428D01*
X-2899399Y33636480D01*
X-2894797Y33635084D01*
X-2781323Y33594483D01*
X-2548244Y33511085D01*
X-2543817Y33509251D01*
X-2211103Y33351889D01*
X-2206878Y33349632D01*
X-2015692Y33235039D01*
X-1891172Y33160404D01*
X-1887174Y33157732D01*
X-1739367Y33048111D01*
X-1591555Y32938486D01*
X-1587843Y32935440D01*
X-1315133Y32688269D01*
X-1311732Y32684868D01*
X-1064561Y32412158D01*
X-1061511Y32408441D01*
X-842269Y32112827D01*
X-839597Y32108829D01*
X-650374Y31793131D01*
X-648108Y31788890D01*
X-490754Y31456192D01*
X-488913Y31451750D01*
X-364917Y31105204D01*
X-363521Y31100602D01*
X-274091Y30743581D01*
X-273153Y30738865D01*
X-219149Y30374794D01*
X-218678Y30370008D01*
X-200559Y30001201D01*
X-200500Y29998797D01*
X-200500Y21599000D01*
X-214852Y21564352D01*
X-249500Y21550000D01*
X-2500000Y21550000D01*
X-2500000Y12350000D01*
X-249500Y12350000D01*
X-214852Y12335648D01*
X-200500Y12301000D01*
X-200500Y4001204D01*
X-200559Y3998800D01*
X-218678Y3629993D01*
X-219149Y3625207D01*
X-273153Y3261136D01*
X-274091Y3256420D01*
X-363521Y2899399D01*
X-364917Y2894797D01*
X-488913Y2548251D01*
X-490754Y2543809D01*
X-648108Y2211111D01*
X-650374Y2206870D01*
X-839597Y1891172D01*
X-842269Y1887174D01*
X-1061511Y1591560D01*
X-1064561Y1587843D01*
X-1311732Y1315133D01*
X-1315133Y1311732D01*
X-1587843Y1064561D01*
X-1591560Y1061511D01*
X-1887174Y842269D01*
X-1891172Y839597D01*
X-2206870Y650374D01*
X-2211111Y648108D01*
X-2543809Y490754D01*
X-2548251Y488913D01*
X-2894797Y364917D01*
X-2899399Y363521D01*
X-3256420Y274091D01*
X-3261136Y273153D01*
X-3625207Y219149D01*
X-3629993Y218678D01*
X-3998799Y200559D01*
X-4001203Y200500D01*
X-70998797Y200500D01*
X-71001201Y200559D01*
X-71370008Y218678D01*
X-71374794Y219149D01*
X-71738865Y273153D01*
X-71743581Y274091D01*
X-72100602Y363521D01*
X-72105204Y364917D01*
X-72451750Y488913D01*
X-72456192Y490754D01*
X-72788890Y648108D01*
X-72793131Y650374D01*
X-72794965Y651473D01*
X-72979554Y762112D01*
X-73108829Y839597D01*
X-73112827Y842269D01*
X-73408441Y1061511D01*
X-73412158Y1064561D01*
X-73684868Y1311732D01*
X-73688269Y1315133D01*
X-73870173Y1515832D01*
X-73935443Y1587847D01*
X-73938490Y1591560D01*
X-73994347Y1666874D01*
X-74048111Y1739367D01*
X-74157732Y1887174D01*
X-74160404Y1891172D01*
X-74345509Y2200000D01*
X-74349632Y2206878D01*
X-74351889Y2211103D01*
X-74509251Y2543817D01*
X-74511088Y2548251D01*
X-74515749Y2561277D01*
X-74529604Y2600000D01*
X-56730804Y2600000D01*
X-56709719Y2466874D01*
X-56709719Y2466873D01*
X-56709718Y2466872D01*
X-56648533Y2346787D01*
X-56648528Y2346780D01*
X-56553221Y2251473D01*
X-56553216Y2251469D01*
X-56537888Y2243659D01*
X-56513532Y2215141D01*
X-56516475Y2177754D01*
X-56537888Y2156341D01*
X-56553216Y2148532D01*
X-56553221Y2148528D01*
X-56648528Y2053221D01*
X-56648533Y2053214D01*
X-56709718Y1933129D01*
X-56709719Y1933128D01*
X-56709719Y1933126D01*
X-56730804Y1800000D01*
X-56709719Y1666874D01*
X-56709719Y1666873D01*
X-56709718Y1666872D01*
X-56648533Y1546787D01*
X-56648528Y1546780D01*
X-56553221Y1451473D01*
X-56553216Y1451469D01*
X-56537888Y1443659D01*
X-56513532Y1415141D01*
X-56516475Y1377754D01*
X-56537888Y1356341D01*
X-56553216Y1348532D01*
X-56553221Y1348528D01*
X-56648528Y1253221D01*
X-56648533Y1253214D01*
X-56709718Y1133129D01*
X-56709719Y1133128D01*
X-56709719Y1133126D01*
X-56730804Y1000000D01*
X-56709719Y866874D01*
X-56709719Y866873D01*
X-56709718Y866872D01*
X-56648533Y746787D01*
X-56648528Y746780D01*
X-56553221Y651473D01*
X-56553214Y651468D01*
X-56473158Y610678D01*
X-56433126Y590281D01*
X-56300000Y569196D01*
X-56166874Y590281D01*
X-56053382Y648108D01*
X-56046787Y651468D01*
X-56046785Y651470D01*
X-56046780Y651472D01*
X-55951472Y746780D01*
X-55890281Y866874D01*
X-55869196Y1000000D01*
X-55890281Y1133126D01*
X-55910678Y1173158D01*
X-55951468Y1253214D01*
X-55951473Y1253221D01*
X-56046780Y1348528D01*
X-56046783Y1348530D01*
X-56062112Y1356340D01*
X-56086469Y1384858D01*
X-56083527Y1422245D01*
X-56062112Y1443660D01*
X-56046780Y1451472D01*
X-55951472Y1546780D01*
X-55890281Y1666874D01*
X-55869196Y1800000D01*
X-55890281Y1933126D01*
X-55910678Y1973158D01*
X-55951468Y2053214D01*
X-55951473Y2053221D01*
X-56046780Y2148528D01*
X-56046783Y2148530D01*
X-56062112Y2156340D01*
X-56086469Y2184858D01*
X-56083527Y2222245D01*
X-56062112Y2243660D01*
X-56046780Y2251472D01*
X-55951472Y2346780D01*
X-55890281Y2466874D01*
X-55869196Y2600000D01*
X-55890281Y2733126D01*
X-55919404Y2790283D01*
X-55951468Y2853214D01*
X-55951474Y2853222D01*
X-56046780Y2948528D01*
X-56046787Y2948533D01*
X-56166872Y3009718D01*
X-56166873Y3009719D01*
X-56166874Y3009719D01*
X-56300000Y3030804D01*
X-56433126Y3009719D01*
X-56433128Y3009719D01*
X-56433129Y3009718D01*
X-56553214Y2948533D01*
X-56553221Y2948528D01*
X-56648526Y2853222D01*
X-56648533Y2853214D01*
X-56709718Y2733129D01*
X-56709719Y2733128D01*
X-56709719Y2733126D01*
X-56730804Y2600000D01*
X-74529604Y2600000D01*
X-74619582Y2851472D01*
X-74635084Y2894797D01*
X-74636480Y2899399D01*
X-74652428Y2963065D01*
X-74725913Y3256433D01*
X-74726846Y3261123D01*
X-74780854Y3625219D01*
X-74781322Y3629980D01*
X-74799441Y3998800D01*
X-74799500Y4001204D01*
X-74799500Y4071652D01*
X-60327500Y4071652D01*
X-60327500Y3928348D01*
X-60308948Y3835077D01*
X-60299544Y3787799D01*
X-60299542Y3787793D01*
X-60253280Y3676107D01*
X-60244702Y3655400D01*
X-60165086Y3536246D01*
X-60063754Y3434914D01*
X-59944600Y3355298D01*
X-59812204Y3300457D01*
X-59671652Y3272500D01*
X-59671649Y3272500D01*
X-59528351Y3272500D01*
X-59528348Y3272500D01*
X-59387796Y3300457D01*
X-59255400Y3355298D01*
X-59136246Y3434914D01*
X-59034914Y3536246D01*
X-58955298Y3655400D01*
X-58900457Y3787796D01*
X-58872500Y3928348D01*
X-58872500Y4071652D01*
X-58900457Y4212204D01*
X-58955298Y4344600D01*
X-59034914Y4463754D01*
X-59136246Y4565086D01*
X-59255400Y4644702D01*
X-59255403Y4644704D01*
X-59255404Y4644704D01*
X-59387793Y4699542D01*
X-59387799Y4699544D01*
X-59444480Y4710818D01*
X-59528348Y4727500D01*
X-59671652Y4727500D01*
X-59741606Y4713586D01*
X-59812202Y4699544D01*
X-59812208Y4699542D01*
X-59944597Y4644704D01*
X-60063754Y4565087D01*
X-60165087Y4463754D01*
X-60244704Y4344597D01*
X-60299542Y4212208D01*
X-60299544Y4212202D01*
X-60313586Y4141606D01*
X-60327500Y4071652D01*
X-74799500Y4071652D01*
X-74799500Y4850000D01*
X-66480804Y4850000D01*
X-66459719Y4716874D01*
X-66459719Y4716873D01*
X-66459718Y4716872D01*
X-66398533Y4596787D01*
X-66398528Y4596780D01*
X-66303221Y4501473D01*
X-66303214Y4501468D01*
X-66229194Y4463754D01*
X-66183126Y4440281D01*
X-66050000Y4419196D01*
X-65916874Y4440281D01*
X-65816247Y4491553D01*
X-65796787Y4501468D01*
X-65796785Y4501470D01*
X-65796780Y4501472D01*
X-65701472Y4596780D01*
X-65640281Y4716874D01*
X-65619196Y4850000D01*
X-62580804Y4850000D01*
X-62559719Y4716874D01*
X-62559719Y4716873D01*
X-62559718Y4716872D01*
X-62498533Y4596787D01*
X-62498528Y4596780D01*
X-62403221Y4501473D01*
X-62403214Y4501468D01*
X-62329194Y4463754D01*
X-62283126Y4440281D01*
X-62150000Y4419196D01*
X-62016874Y4440281D01*
X-61916247Y4491553D01*
X-61896787Y4501468D01*
X-61896785Y4501470D01*
X-61896780Y4501472D01*
X-61801472Y4596780D01*
X-61740281Y4716874D01*
X-61719196Y4850000D01*
X-61740281Y4983126D01*
X-61775105Y5051472D01*
X-61801468Y5103214D01*
X-61801473Y5103221D01*
X-61896780Y5198528D01*
X-61896787Y5198533D01*
X-62016872Y5259718D01*
X-62016873Y5259719D01*
X-62016874Y5259719D01*
X-62150000Y5280804D01*
X-62283126Y5259719D01*
X-62283128Y5259719D01*
X-62283129Y5259718D01*
X-62403214Y5198533D01*
X-62403221Y5198528D01*
X-62498528Y5103221D01*
X-62498533Y5103214D01*
X-62559718Y4983129D01*
X-62559719Y4983128D01*
X-62559719Y4983126D01*
X-62580804Y4850000D01*
X-65619196Y4850000D01*
X-65640281Y4983126D01*
X-65675105Y5051472D01*
X-65701468Y5103214D01*
X-65701473Y5103221D01*
X-65796780Y5198528D01*
X-65796787Y5198533D01*
X-65916872Y5259718D01*
X-65916873Y5259719D01*
X-65916874Y5259719D01*
X-66050000Y5280804D01*
X-66183126Y5259719D01*
X-66183128Y5259719D01*
X-66183129Y5259718D01*
X-66303214Y5198533D01*
X-66303221Y5198528D01*
X-66398528Y5103221D01*
X-66398533Y5103214D01*
X-66459718Y4983129D01*
X-66459719Y4983128D01*
X-66459719Y4983126D01*
X-66480804Y4850000D01*
X-74799500Y4850000D01*
X-74799500Y10966606D01*
X-73667500Y10966606D01*
X-73667500Y10773394D01*
X-73664305Y10753221D01*
X-73637276Y10582563D01*
X-73637275Y10582560D01*
X-73577570Y10398805D01*
X-73489851Y10226648D01*
X-73489849Y10226645D01*
X-73376284Y10070336D01*
X-73376280Y10070331D01*
X-73239669Y9933720D01*
X-73239665Y9933717D01*
X-73239663Y9933715D01*
X-73083350Y9820148D01*
X-72911197Y9732431D01*
X-72727440Y9672725D01*
X-72536606Y9642500D01*
X-72536605Y9642500D01*
X-72343395Y9642500D01*
X-72343394Y9642500D01*
X-72152560Y9672725D01*
X-71968803Y9732431D01*
X-71796650Y9820148D01*
X-71640337Y9933715D01*
X-71640334Y9933719D01*
X-71640331Y9933720D01*
X-71503720Y10070331D01*
X-71503719Y10070334D01*
X-71503715Y10070337D01*
X-71390148Y10226650D01*
X-71302431Y10398803D01*
X-71269550Y10500000D01*
X-67630804Y10500000D01*
X-67609719Y10366874D01*
X-67609719Y10366873D01*
X-67609718Y10366872D01*
X-67548533Y10246787D01*
X-67548528Y10246780D01*
X-67453221Y10151473D01*
X-67453214Y10151468D01*
X-67373158Y10110678D01*
X-67333126Y10090281D01*
X-67200000Y10069196D01*
X-67066874Y10090281D01*
X-66983580Y10132722D01*
X-66946787Y10151468D01*
X-66946785Y10151470D01*
X-66946780Y10151472D01*
X-66851472Y10246780D01*
X-66790281Y10366874D01*
X-66769196Y10500000D01*
X-66790281Y10633126D01*
X-66810678Y10673158D01*
X-66851468Y10753214D01*
X-66851473Y10753221D01*
X-66946780Y10848528D01*
X-66946787Y10848533D01*
X-67066872Y10909718D01*
X-67066873Y10909719D01*
X-67066874Y10909719D01*
X-67200000Y10930804D01*
X-67333126Y10909719D01*
X-67333128Y10909719D01*
X-67333129Y10909718D01*
X-67453214Y10848533D01*
X-67453221Y10848528D01*
X-67548528Y10753221D01*
X-67548533Y10753214D01*
X-67609718Y10633129D01*
X-67609719Y10633128D01*
X-67609719Y10633126D01*
X-67630804Y10500000D01*
X-71269550Y10500000D01*
X-71242725Y10582560D01*
X-71212500Y10773394D01*
X-71212500Y10966606D01*
X-71242725Y11157440D01*
X-71302431Y11341197D01*
X-71390148Y11513350D01*
X-71503715Y11669663D01*
X-71503717Y11669665D01*
X-71503720Y11669669D01*
X-71640331Y11806280D01*
X-71640336Y11806284D01*
X-71796645Y11919849D01*
X-71796648Y11919851D01*
X-71968805Y12007570D01*
X-72152560Y12067275D01*
X-72152563Y12067276D01*
X-72299158Y12090494D01*
X-72343394Y12097500D01*
X-72536606Y12097500D01*
X-72572518Y12091813D01*
X-72727438Y12067276D01*
X-72727441Y12067275D01*
X-72911196Y12007570D01*
X-73083353Y11919851D01*
X-73083356Y11919849D01*
X-73239665Y11806284D01*
X-73376284Y11669665D01*
X-73489849Y11513356D01*
X-73489851Y11513353D01*
X-73577570Y11341196D01*
X-73637275Y11157441D01*
X-73637276Y11157438D01*
X-73654836Y11046566D01*
X-73667500Y10966606D01*
X-74799500Y10966606D01*
X-74799500Y12200000D01*
X-71030322Y12200000D01*
X-71011077Y11992308D01*
X-70953994Y11791681D01*
X-70861021Y11604965D01*
X-70861018Y11604961D01*
X-70735321Y11438510D01*
X-70735318Y11438507D01*
X-70581176Y11297988D01*
X-70581175Y11297987D01*
X-70581171Y11297984D01*
X-70403828Y11188177D01*
X-70209327Y11112827D01*
X-70004293Y11074500D01*
X-70004291Y11074500D01*
X-69795709Y11074500D01*
X-69795707Y11074500D01*
X-69590673Y11112827D01*
X-69396172Y11188177D01*
X-69218829Y11297984D01*
X-69064682Y11438507D01*
X-68938981Y11604962D01*
X-68846006Y11791681D01*
X-68788924Y11992304D01*
X-68769678Y12200000D01*
X-68788924Y12407696D01*
X-68846006Y12608319D01*
X-68938981Y12795038D01*
X-69001832Y12878266D01*
X-69064680Y12961491D01*
X-69064683Y12961494D01*
X-69218825Y13102013D01*
X-69218828Y13102015D01*
X-69218829Y13102016D01*
X-69396172Y13211823D01*
X-69396175Y13211824D01*
X-69396176Y13211825D01*
X-69590667Y13287171D01*
X-69590669Y13287172D01*
X-69590673Y13287173D01*
X-69795707Y13325500D01*
X-70004293Y13325500D01*
X-70209327Y13287173D01*
X-70209331Y13287172D01*
X-70209334Y13287171D01*
X-70403825Y13211825D01*
X-70581176Y13102013D01*
X-70735318Y12961494D01*
X-70735321Y12961491D01*
X-70861018Y12795040D01*
X-70861021Y12795036D01*
X-70953994Y12608320D01*
X-71011077Y12407693D01*
X-71030322Y12200000D01*
X-74799500Y12200000D01*
X-74799500Y16010000D01*
X-73570322Y16010000D01*
X-73551077Y15802308D01*
X-73551077Y15802305D01*
X-73551076Y15802304D01*
X-73505470Y15642016D01*
X-73493994Y15601681D01*
X-73401021Y15414965D01*
X-73401020Y15414963D01*
X-73401019Y15414962D01*
X-73381466Y15389070D01*
X-73275321Y15248510D01*
X-73275318Y15248507D01*
X-73121176Y15107988D01*
X-73121175Y15107987D01*
X-73121171Y15107984D01*
X-72943828Y14998177D01*
X-72749327Y14922827D01*
X-72544293Y14884500D01*
X-72544291Y14884500D01*
X-72335709Y14884500D01*
X-72335707Y14884500D01*
X-72130673Y14922827D01*
X-71936172Y14998177D01*
X-71758829Y15107984D01*
X-71604682Y15248507D01*
X-71478981Y15414962D01*
X-71386006Y15601681D01*
X-71328924Y15802304D01*
X-71309678Y16010000D01*
X-71328924Y16217696D01*
X-71386006Y16418319D01*
X-71478981Y16605038D01*
X-71556846Y16708148D01*
X-71604680Y16771491D01*
X-71604683Y16771494D01*
X-71758825Y16912013D01*
X-71758828Y16912015D01*
X-71758829Y16912016D01*
X-71936172Y17021823D01*
X-71936175Y17021824D01*
X-71936176Y17021825D01*
X-72130667Y17097171D01*
X-72130669Y17097172D01*
X-72130673Y17097173D01*
X-72335707Y17135500D01*
X-72544293Y17135500D01*
X-72749327Y17097173D01*
X-72749331Y17097172D01*
X-72749334Y17097171D01*
X-72943825Y17021825D01*
X-73121176Y16912013D01*
X-73275318Y16771494D01*
X-73275321Y16771491D01*
X-73401018Y16605040D01*
X-73401021Y16605036D01*
X-73493994Y16418320D01*
X-73551077Y16217693D01*
X-73570322Y16010000D01*
X-74799500Y16010000D01*
X-74799500Y17452347D01*
X-71327500Y17452347D01*
X-71327500Y17227653D01*
X-71323848Y17204597D01*
X-71292351Y17005729D01*
X-71292350Y17005726D01*
X-71241274Y16848528D01*
X-71222916Y16792030D01*
X-71120907Y16591827D01*
X-70992157Y16414617D01*
X-70988835Y16410045D01*
X-70988831Y16410040D01*
X-70829960Y16251169D01*
X-70829956Y16251166D01*
X-70829954Y16251164D01*
X-70648173Y16119093D01*
X-70447970Y16017084D01*
X-70234274Y15947650D01*
X-70154961Y15935088D01*
X-70152240Y15934657D01*
X-70120263Y15915062D01*
X-70111508Y15878595D01*
X-70131103Y15846618D01*
X-70150899Y15838096D01*
X-70209327Y15827173D01*
X-70209331Y15827172D01*
X-70209334Y15827171D01*
X-70403825Y15751825D01*
X-70581176Y15642013D01*
X-70735318Y15501494D01*
X-70735321Y15501491D01*
X-70861018Y15335040D01*
X-70861021Y15335036D01*
X-70953994Y15148320D01*
X-71011077Y14947693D01*
X-71030322Y14740000D01*
X-71011077Y14532308D01*
X-71011077Y14532305D01*
X-71011076Y14532304D01*
X-70963118Y14363749D01*
X-70953994Y14331681D01*
X-70861021Y14144965D01*
X-70861018Y14144961D01*
X-70735321Y13978510D01*
X-70735318Y13978507D01*
X-70581176Y13837988D01*
X-70581175Y13837987D01*
X-70581171Y13837984D01*
X-70403828Y13728177D01*
X-70209327Y13652827D01*
X-70004293Y13614500D01*
X-70004291Y13614500D01*
X-69795709Y13614500D01*
X-69795707Y13614500D01*
X-69590673Y13652827D01*
X-69396172Y13728177D01*
X-69218829Y13837984D01*
X-69064682Y13978507D01*
X-68938981Y14144962D01*
X-68846006Y14331681D01*
X-68788924Y14532304D01*
X-68769678Y14740000D01*
X-68770605Y14750000D01*
X-67630804Y14750000D01*
X-67609719Y14616874D01*
X-67609719Y14616873D01*
X-67609718Y14616872D01*
X-67548533Y14496787D01*
X-67548528Y14496780D01*
X-67453221Y14401473D01*
X-67453214Y14401468D01*
X-67379228Y14363771D01*
X-67333126Y14340281D01*
X-67208793Y14320589D01*
X-67181812Y14306841D01*
X-65359119Y12484148D01*
X-65344767Y12449500D01*
X-65359119Y12414852D01*
X-65393767Y12400500D01*
X-66828455Y12400500D01*
X-66863103Y12414852D01*
X-66946779Y12498527D01*
X-66946787Y12498533D01*
X-67066872Y12559718D01*
X-67066873Y12559719D01*
X-67066874Y12559719D01*
X-67200000Y12580804D01*
X-67333126Y12559719D01*
X-67333128Y12559719D01*
X-67333129Y12559718D01*
X-67453214Y12498533D01*
X-67453221Y12498528D01*
X-67548528Y12403221D01*
X-67548533Y12403214D01*
X-67609718Y12283129D01*
X-67609719Y12283128D01*
X-67609719Y12283126D01*
X-67630804Y12150000D01*
X-67609719Y12016874D01*
X-67609719Y12016873D01*
X-67609718Y12016872D01*
X-67548533Y11896787D01*
X-67548528Y11896780D01*
X-67453221Y11801473D01*
X-67453214Y11801468D01*
X-67373158Y11760678D01*
X-67333126Y11740281D01*
X-67200000Y11719196D01*
X-67066874Y11740281D01*
X-66978817Y11785148D01*
X-66961131Y11794159D01*
X-66938886Y11799500D01*
X-64344767Y11799500D01*
X-64310119Y11785148D01*
X-63314852Y10789881D01*
X-63300500Y10755233D01*
X-63300500Y8821544D01*
X-63314852Y8786896D01*
X-63348528Y8753221D01*
X-63348533Y8753214D01*
X-63409718Y8633129D01*
X-63409719Y8633128D01*
X-63409719Y8633126D01*
X-63430804Y8500000D01*
X-63409719Y8366874D01*
X-63409719Y8366873D01*
X-63409718Y8366872D01*
X-63348533Y8246787D01*
X-63348528Y8246780D01*
X-63253221Y8151473D01*
X-63253214Y8151468D01*
X-63173158Y8110678D01*
X-63133126Y8090281D01*
X-63000000Y8069196D01*
X-62866874Y8090281D01*
X-62866870Y8090284D01*
X-62865576Y8090488D01*
X-62829109Y8081733D01*
X-62809513Y8049757D01*
X-62809513Y8034426D01*
X-62809719Y8033127D01*
X-62809719Y8033126D01*
X-62830804Y7900000D01*
X-62809719Y7766874D01*
X-62809719Y7766873D01*
X-62809718Y7766872D01*
X-62748533Y7646787D01*
X-62748528Y7646780D01*
X-62653221Y7551473D01*
X-62653214Y7551468D01*
X-62573158Y7510678D01*
X-62533126Y7490281D01*
X-62400000Y7469196D01*
X-62266874Y7490281D01*
X-62183580Y7532722D01*
X-62146787Y7551468D01*
X-62146785Y7551470D01*
X-62146780Y7551472D01*
X-62051472Y7646780D01*
X-61990281Y7766874D01*
X-61969196Y7900000D01*
X-61990281Y8033126D01*
X-62010678Y8073158D01*
X-62051468Y8153214D01*
X-62051474Y8153222D01*
X-62085148Y8186896D01*
X-62099500Y8221544D01*
X-62099500Y11239564D01*
X-62109332Y11276255D01*
X-62119979Y11315989D01*
X-62119980Y11315991D01*
X-62119980Y11315992D01*
X-62159541Y11384512D01*
X-63715489Y12940460D01*
X-63784010Y12980021D01*
X-63860436Y13000500D01*
X-63860438Y13000500D01*
X-65005233Y13000500D01*
X-65039881Y13014852D01*
X-66756841Y14731812D01*
X-66770589Y14758793D01*
X-66790281Y14883126D01*
X-66811572Y14924912D01*
X-66851468Y15003214D01*
X-66851473Y15003221D01*
X-66946780Y15098528D01*
X-66946787Y15098533D01*
X-67066872Y15159718D01*
X-67066873Y15159719D01*
X-67066874Y15159719D01*
X-67200000Y15180804D01*
X-67333126Y15159719D01*
X-67333128Y15159719D01*
X-67333129Y15159718D01*
X-67453214Y15098533D01*
X-67453221Y15098528D01*
X-67548528Y15003221D01*
X-67548533Y15003214D01*
X-67609718Y14883129D01*
X-67609719Y14883128D01*
X-67609719Y14883126D01*
X-67630804Y14750000D01*
X-68770605Y14750000D01*
X-68788924Y14947696D01*
X-68846006Y15148319D01*
X-68938981Y15335038D01*
X-69064682Y15501493D01*
X-69215190Y15638699D01*
X-69218825Y15642013D01*
X-69218828Y15642015D01*
X-69218829Y15642016D01*
X-69396172Y15751823D01*
X-69396175Y15751824D01*
X-69396176Y15751825D01*
X-69590667Y15827171D01*
X-69590669Y15827172D01*
X-69590673Y15827173D01*
X-69649102Y15838096D01*
X-69680521Y15858568D01*
X-69688262Y15895264D01*
X-69667788Y15926685D01*
X-69647762Y15934657D01*
X-69565726Y15947650D01*
X-69352030Y16017084D01*
X-69151827Y16119093D01*
X-68970046Y16251164D01*
X-68970043Y16251168D01*
X-68970040Y16251169D01*
X-68811169Y16410040D01*
X-68811168Y16410043D01*
X-68811164Y16410046D01*
X-68745809Y16500000D01*
X-67630804Y16500000D01*
X-67609719Y16366874D01*
X-67609719Y16366873D01*
X-67609718Y16366872D01*
X-67548533Y16246787D01*
X-67548528Y16246780D01*
X-67453221Y16151473D01*
X-67453214Y16151468D01*
X-67389675Y16119094D01*
X-67333126Y16090281D01*
X-67200000Y16069196D01*
X-67066874Y16090281D01*
X-66983580Y16132722D01*
X-66946787Y16151468D01*
X-66946785Y16151470D01*
X-66946780Y16151472D01*
X-66851472Y16246780D01*
X-66849235Y16251169D01*
X-66832722Y16283580D01*
X-66790281Y16366874D01*
X-66769196Y16500000D01*
X-66790281Y16633126D01*
X-66820871Y16693163D01*
X-66851468Y16753214D01*
X-66851473Y16753221D01*
X-66946780Y16848528D01*
X-66946787Y16848533D01*
X-67066872Y16909718D01*
X-67066873Y16909719D01*
X-67066874Y16909719D01*
X-67200000Y16930804D01*
X-67333126Y16909719D01*
X-67333128Y16909719D01*
X-67333129Y16909718D01*
X-67453214Y16848533D01*
X-67453221Y16848528D01*
X-67548528Y16753221D01*
X-67548533Y16753214D01*
X-67609718Y16633129D01*
X-67609719Y16633128D01*
X-67609719Y16633126D01*
X-67630804Y16500000D01*
X-68745809Y16500000D01*
X-68679093Y16591827D01*
X-68577084Y16792030D01*
X-68507650Y17005726D01*
X-68472500Y17227653D01*
X-68472500Y17452347D01*
X-68507650Y17674274D01*
X-68577084Y17887970D01*
X-68679093Y18088173D01*
X-68811164Y18269954D01*
X-68811166Y18269956D01*
X-68811169Y18269960D01*
X-68970040Y18428831D01*
X-68970045Y18428835D01*
X-68970046Y18428836D01*
X-69151827Y18560907D01*
X-69352030Y18662916D01*
X-69352031Y18662917D01*
X-69352032Y18662917D01*
X-69565726Y18732350D01*
X-69565729Y18732351D01*
X-69736208Y18759352D01*
X-69787653Y18767500D01*
X-70012347Y18767500D01*
X-70054111Y18760886D01*
X-70234272Y18732351D01*
X-70234275Y18732350D01*
X-70447969Y18662917D01*
X-70648173Y18560907D01*
X-70829956Y18428835D01*
X-70988835Y18269956D01*
X-71120907Y18088173D01*
X-71222917Y17887969D01*
X-71292350Y17674275D01*
X-71292351Y17674272D01*
X-71314513Y17534346D01*
X-71327500Y17452347D01*
X-74799500Y17452347D01*
X-74799500Y28416000D01*
X-62996329Y28416000D01*
X-62996329Y28415999D01*
X-62977035Y28121625D01*
X-62919483Y27832283D01*
X-62824653Y27552924D01*
X-62694172Y27288334D01*
X-62530274Y27043042D01*
X-62445630Y26946525D01*
X-62335758Y26821241D01*
X-62234614Y26732540D01*
X-62113958Y26626726D01*
X-61950059Y26517213D01*
X-61868665Y26462827D01*
X-61604077Y26332347D01*
X-61324722Y26237518D01*
X-61035380Y26179965D01*
X-60790064Y26163886D01*
X-60741001Y26160670D01*
X-60741000Y26160670D01*
X-60740999Y26160670D01*
X-60698946Y26163427D01*
X-60446620Y26179965D01*
X-60157278Y26237518D01*
X-59877923Y26332347D01*
X-59613335Y26462827D01*
X-59368043Y26626726D01*
X-59146242Y26821241D01*
X-58951727Y27043042D01*
X-58787828Y27288334D01*
X-58657348Y27552922D01*
X-58562519Y27832277D01*
X-58504966Y28121619D01*
X-58485671Y28415999D01*
X-58504966Y28710379D01*
X-58562519Y28999721D01*
X-58657348Y29279076D01*
X-58787828Y29543663D01*
X-58876830Y29676864D01*
X-58951727Y29788957D01*
X-59042611Y29892589D01*
X-59146242Y30010757D01*
X-59249875Y30101641D01*
X-59368043Y30205273D01*
X-59541240Y30320999D01*
X-52675643Y30320999D01*
X-52655116Y30099467D01*
X-52655115Y30099461D01*
X-52594230Y29885473D01*
X-52594227Y29885466D01*
X-52495060Y29686313D01*
X-52495059Y29686312D01*
X-52495058Y29686310D01*
X-52495055Y29686306D01*
X-52360984Y29508766D01*
X-52360981Y29508763D01*
X-52196567Y29358879D01*
X-52196566Y29358878D01*
X-52196562Y29358875D01*
X-52007401Y29241752D01*
X-51799940Y29161381D01*
X-51581243Y29120499D01*
X-51581241Y29120499D01*
X-51358759Y29120499D01*
X-51358757Y29120499D01*
X-51266029Y29137834D01*
X-51229336Y29130093D01*
X-51208861Y29098672D01*
X-51216602Y29061977D01*
X-51217922Y29060142D01*
X-51225057Y29050693D01*
X-51225062Y29050686D01*
X-51324229Y28851533D01*
X-51324232Y28851526D01*
X-51385117Y28637538D01*
X-51385118Y28637532D01*
X-51405645Y28415999D01*
X-51385118Y28194467D01*
X-51385117Y28194461D01*
X-51324232Y27980473D01*
X-51324229Y27980466D01*
X-51225062Y27781313D01*
X-51225056Y27781303D01*
X-51217926Y27771862D01*
X-51208499Y27735563D01*
X-51227501Y27703231D01*
X-51263800Y27693804D01*
X-51266033Y27694168D01*
X-51314522Y27703232D01*
X-51358757Y27711501D01*
X-51581243Y27711501D01*
X-51799940Y27670619D01*
X-51799945Y27670617D01*
X-52007398Y27590250D01*
X-52196567Y27473122D01*
X-52360981Y27323238D01*
X-52360984Y27323235D01*
X-52495057Y27145692D01*
X-52495060Y27145688D01*
X-52594227Y26946535D01*
X-52594230Y26946528D01*
X-52655115Y26732540D01*
X-52655116Y26732534D01*
X-52675643Y26511001D01*
X-52655116Y26289469D01*
X-52655115Y26289463D01*
X-52594230Y26075475D01*
X-52594227Y26075468D01*
X-52495060Y25876315D01*
X-52495059Y25876313D01*
X-52495058Y25876312D01*
X-52495055Y25876308D01*
X-52360984Y25698768D01*
X-52360981Y25698765D01*
X-52196567Y25548881D01*
X-52196566Y25548880D01*
X-52196562Y25548877D01*
X-52157455Y25524664D01*
X-52135552Y25494222D01*
X-52134250Y25483003D01*
X-52134250Y22565423D01*
X-52134250Y15365423D01*
X-52134250Y15254843D01*
X-52134250Y15180000D01*
X-52134250Y15090939D01*
X-52114167Y14989973D01*
X-52108542Y14961694D01*
X-52115859Y14924912D01*
X-52137841Y14906868D01*
X-52151223Y14901323D01*
X-52299313Y14802353D01*
X-52425240Y14676406D01*
X-52425243Y14676402D01*
X-52524188Y14528304D01*
X-52558374Y14445762D01*
X-52592342Y14363746D01*
X-52601202Y14319196D01*
X-52627086Y14189055D01*
X-52627086Y13912543D01*
X-52627051Y13911827D01*
X-52627051Y13890948D01*
X-52599283Y13751339D01*
X-52592307Y13716264D01*
X-52592306Y13716263D01*
X-52524155Y13551712D01*
X-52425214Y13403619D01*
X-52308785Y13287173D01*
X-52299285Y13277672D01*
X-52156022Y13181928D01*
X-52135191Y13150744D01*
X-52134250Y13141189D01*
X-52134250Y11404572D01*
X-52108726Y11276255D01*
X-52108723Y11276244D01*
X-52065043Y11170791D01*
X-52058651Y11155360D01*
X-52011312Y11084511D01*
X-51985958Y11046566D01*
X-48178602Y7239210D01*
X-48164250Y7204562D01*
X-48164250Y3134572D01*
X-48138726Y3006255D01*
X-48138723Y3006245D01*
X-48088651Y2885360D01*
X-48015957Y2776565D01*
X-47923435Y2684043D01*
X-47814640Y2611349D01*
X-47693755Y2561277D01*
X-47693749Y2561276D01*
X-47693746Y2561275D01*
X-47565429Y2535751D01*
X-47565423Y2535750D01*
X-47434577Y2535750D01*
X-47306245Y2561277D01*
X-47185360Y2611349D01*
X-47076565Y2684043D01*
X-46984043Y2776565D01*
X-46911349Y2885360D01*
X-46861277Y3006245D01*
X-46835750Y3134577D01*
X-46835750Y7378063D01*
X-46821398Y7412710D01*
X-46786750Y7427062D01*
X-46752102Y7412710D01*
X-46578602Y7239210D01*
X-46564250Y7204562D01*
X-46564250Y3134572D01*
X-46538726Y3006255D01*
X-46538723Y3006245D01*
X-46488651Y2885360D01*
X-46415957Y2776565D01*
X-46323435Y2684043D01*
X-46214640Y2611349D01*
X-46093755Y2561277D01*
X-46093749Y2561276D01*
X-46093746Y2561275D01*
X-45965429Y2535751D01*
X-45965423Y2535750D01*
X-45834577Y2535750D01*
X-45706245Y2561277D01*
X-45585360Y2611349D01*
X-45527222Y2650197D01*
X-45490441Y2657513D01*
X-45472781Y2650198D01*
X-45414640Y2611349D01*
X-45293755Y2561277D01*
X-45293749Y2561276D01*
X-45293746Y2561275D01*
X-45165429Y2535751D01*
X-45165423Y2535750D01*
X-45034577Y2535750D01*
X-44906245Y2561277D01*
X-44785360Y2611349D01*
X-44676565Y2684043D01*
X-44584043Y2776565D01*
X-44511349Y2885360D01*
X-44461277Y3006245D01*
X-44435750Y3134577D01*
X-44435750Y7378063D01*
X-44421398Y7412710D01*
X-44386750Y7427062D01*
X-44352102Y7412710D01*
X-44178602Y7239210D01*
X-44164250Y7204562D01*
X-44164250Y3134572D01*
X-44138726Y3006255D01*
X-44138723Y3006245D01*
X-44088651Y2885360D01*
X-44015957Y2776565D01*
X-43923435Y2684043D01*
X-43814640Y2611349D01*
X-43693755Y2561277D01*
X-43693749Y2561276D01*
X-43693746Y2561275D01*
X-43565429Y2535751D01*
X-43565423Y2535750D01*
X-43434577Y2535750D01*
X-43306245Y2561277D01*
X-43185360Y2611349D01*
X-43127222Y2650197D01*
X-43090441Y2657513D01*
X-43072781Y2650198D01*
X-43014640Y2611349D01*
X-42893755Y2561277D01*
X-42893749Y2561276D01*
X-42893746Y2561275D01*
X-42765429Y2535751D01*
X-42765423Y2535750D01*
X-42634577Y2535750D01*
X-42506245Y2561277D01*
X-42385360Y2611349D01*
X-42276565Y2684043D01*
X-42184043Y2776565D01*
X-42111349Y2885360D01*
X-42061277Y3006245D01*
X-42035750Y3134577D01*
X-42035750Y7378063D01*
X-42021398Y7412710D01*
X-41986750Y7427062D01*
X-41952102Y7412710D01*
X-41778602Y7239210D01*
X-41764250Y7204562D01*
X-41764250Y3134572D01*
X-41738726Y3006255D01*
X-41738723Y3006245D01*
X-41688651Y2885360D01*
X-41615957Y2776565D01*
X-41523435Y2684043D01*
X-41414640Y2611349D01*
X-41293755Y2561277D01*
X-41293749Y2561276D01*
X-41293746Y2561275D01*
X-41165429Y2535751D01*
X-41165423Y2535750D01*
X-41034577Y2535750D01*
X-40906245Y2561277D01*
X-40785360Y2611349D01*
X-40727222Y2650197D01*
X-40690441Y2657513D01*
X-40672781Y2650198D01*
X-40614640Y2611349D01*
X-40493755Y2561277D01*
X-40493749Y2561276D01*
X-40493746Y2561275D01*
X-40365429Y2535751D01*
X-40365423Y2535750D01*
X-40234577Y2535750D01*
X-40106245Y2561277D01*
X-39985360Y2611349D01*
X-39876565Y2684043D01*
X-39784043Y2776565D01*
X-39711349Y2885360D01*
X-39661277Y3006245D01*
X-39635750Y3134577D01*
X-39635750Y7378063D01*
X-39621398Y7412711D01*
X-39586750Y7427063D01*
X-39552102Y7412711D01*
X-39378602Y7239211D01*
X-39364250Y7204563D01*
X-39364250Y3134572D01*
X-39338726Y3006255D01*
X-39338723Y3006245D01*
X-39288651Y2885360D01*
X-39215957Y2776565D01*
X-39123435Y2684043D01*
X-39014640Y2611349D01*
X-38893755Y2561277D01*
X-38893749Y2561276D01*
X-38893746Y2561275D01*
X-38765429Y2535751D01*
X-38765423Y2535750D01*
X-38634577Y2535750D01*
X-38506245Y2561277D01*
X-38385360Y2611349D01*
X-38327222Y2650197D01*
X-38290441Y2657513D01*
X-38272781Y2650198D01*
X-38214640Y2611349D01*
X-38093755Y2561277D01*
X-38093749Y2561276D01*
X-38093746Y2561275D01*
X-37965429Y2535751D01*
X-37965423Y2535750D01*
X-37834577Y2535750D01*
X-37706245Y2561277D01*
X-37612759Y2600000D01*
X-35930804Y2600000D01*
X-35909719Y2466874D01*
X-35909719Y2466873D01*
X-35909718Y2466872D01*
X-35848533Y2346787D01*
X-35848528Y2346780D01*
X-35753221Y2251473D01*
X-35753216Y2251469D01*
X-35737888Y2243659D01*
X-35713532Y2215141D01*
X-35716475Y2177754D01*
X-35737888Y2156341D01*
X-35753216Y2148532D01*
X-35753221Y2148528D01*
X-35848528Y2053221D01*
X-35848533Y2053214D01*
X-35909718Y1933129D01*
X-35909719Y1933128D01*
X-35909719Y1933126D01*
X-35930804Y1800000D01*
X-35909719Y1666874D01*
X-35909719Y1666873D01*
X-35909718Y1666872D01*
X-35848533Y1546787D01*
X-35848528Y1546780D01*
X-35753221Y1451473D01*
X-35753216Y1451469D01*
X-35737888Y1443659D01*
X-35713532Y1415141D01*
X-35716475Y1377754D01*
X-35737888Y1356341D01*
X-35753216Y1348532D01*
X-35753221Y1348528D01*
X-35848528Y1253221D01*
X-35848533Y1253214D01*
X-35909718Y1133129D01*
X-35909719Y1133128D01*
X-35909719Y1133126D01*
X-35930804Y1000000D01*
X-35909719Y866874D01*
X-35909719Y866873D01*
X-35909718Y866872D01*
X-35848533Y746787D01*
X-35848528Y746780D01*
X-35753221Y651473D01*
X-35753214Y651468D01*
X-35673158Y610678D01*
X-35633126Y590281D01*
X-35500000Y569196D01*
X-35366874Y590281D01*
X-35253382Y648108D01*
X-35246787Y651468D01*
X-35246785Y651470D01*
X-35246780Y651472D01*
X-35151472Y746780D01*
X-35143660Y762113D01*
X-35115142Y786469D01*
X-35077755Y783527D01*
X-35056340Y762112D01*
X-35048530Y746783D01*
X-35048528Y746780D01*
X-34953221Y651473D01*
X-34953214Y651468D01*
X-34873158Y610678D01*
X-34833126Y590281D01*
X-34700000Y569196D01*
X-34566874Y590281D01*
X-34453382Y648108D01*
X-34446787Y651468D01*
X-34446785Y651470D01*
X-34446780Y651472D01*
X-34351472Y746780D01*
X-34290281Y866874D01*
X-34269196Y1000000D01*
X-34290281Y1133126D01*
X-34310678Y1173158D01*
X-34351468Y1253214D01*
X-34351473Y1253221D01*
X-34446780Y1348528D01*
X-34446783Y1348530D01*
X-34462112Y1356340D01*
X-34486469Y1384858D01*
X-34483527Y1422245D01*
X-34462112Y1443660D01*
X-34446780Y1451472D01*
X-34351472Y1546780D01*
X-34290281Y1666874D01*
X-34269196Y1800000D01*
X-34290281Y1933126D01*
X-34310678Y1973158D01*
X-34351468Y2053214D01*
X-34351473Y2053221D01*
X-34446780Y2148528D01*
X-34446783Y2148530D01*
X-34462112Y2156340D01*
X-34486469Y2184858D01*
X-34483527Y2222245D01*
X-34462112Y2243660D01*
X-34446780Y2251472D01*
X-34351472Y2346780D01*
X-34290281Y2466874D01*
X-34269196Y2600000D01*
X-34290281Y2733126D01*
X-34319404Y2790283D01*
X-34351468Y2853214D01*
X-34351474Y2853222D01*
X-34446780Y2948528D01*
X-34446787Y2948533D01*
X-34566872Y3009718D01*
X-34566873Y3009719D01*
X-34566874Y3009719D01*
X-34700000Y3030804D01*
X-34833126Y3009719D01*
X-34833128Y3009719D01*
X-34833129Y3009718D01*
X-34953214Y2948533D01*
X-34953221Y2948528D01*
X-35048526Y2853222D01*
X-35048532Y2853216D01*
X-35056341Y2837888D01*
X-35084859Y2813532D01*
X-35122246Y2816475D01*
X-35143659Y2837888D01*
X-35151469Y2853216D01*
X-35151474Y2853222D01*
X-35246780Y2948528D01*
X-35246787Y2948533D01*
X-35366872Y3009718D01*
X-35366873Y3009719D01*
X-35366874Y3009719D01*
X-35500000Y3030804D01*
X-35633126Y3009719D01*
X-35633128Y3009719D01*
X-35633129Y3009718D01*
X-35753214Y2948533D01*
X-35753221Y2948528D01*
X-35848526Y2853222D01*
X-35848533Y2853214D01*
X-35909718Y2733129D01*
X-35909719Y2733128D01*
X-35909719Y2733126D01*
X-35930804Y2600000D01*
X-37612759Y2600000D01*
X-37585360Y2611349D01*
X-37476565Y2684043D01*
X-37384043Y2776565D01*
X-37311349Y2885360D01*
X-37261277Y3006245D01*
X-37235750Y3134577D01*
X-37235750Y7432147D01*
X-37235749Y7432168D01*
X-37235749Y7565423D01*
X-37235750Y7565427D01*
X-37261275Y7693749D01*
X-37261278Y7693758D01*
X-37311348Y7814638D01*
X-37311350Y7814642D01*
X-37341950Y7860439D01*
X-37341950Y7860438D01*
X-37384043Y7923435D01*
X-37478271Y8017663D01*
X-37478282Y8017673D01*
X-40631399Y11170791D01*
X-40645751Y11205439D01*
X-40645751Y13567436D01*
X-40645794Y13568297D01*
X-40645793Y13583351D01*
X-40678310Y13746851D01*
X-40679437Y13749570D01*
X-40679437Y13787071D01*
X-40661382Y13809068D01*
X-40575494Y13866426D01*
X-40456478Y13985386D01*
X-40362957Y14125280D01*
X-40298525Y14280731D01*
X-40265658Y14445765D01*
X-40265655Y14462009D01*
X-40265638Y14462327D01*
X-40265638Y14531434D01*
X-40265629Y14571597D01*
X-40265621Y14604745D01*
X-40265622Y14604748D01*
X-40265621Y14607309D01*
X-40265638Y14607631D01*
X-40265638Y14672336D01*
X-40265621Y14672653D01*
X-40265622Y14675253D01*
X-40265621Y14675255D01*
X-40265634Y14729711D01*
X-40265546Y14729924D01*
X-40265551Y14750098D01*
X-40265550Y14750098D01*
X-40265569Y14834244D01*
X-40298440Y14999295D01*
X-40362878Y15154762D01*
X-40380288Y15180804D01*
X-40456411Y15294673D01*
X-40575433Y15413640D01*
X-40577413Y15414962D01*
X-40649818Y15463318D01*
X-40670659Y15494495D01*
X-40670660Y15513629D01*
X-40645764Y15638698D01*
X-40645763Y15654050D01*
X-40645751Y15654248D01*
X-40645751Y15724174D01*
X-40645750Y15728341D01*
X-40645738Y15796890D01*
X-40645740Y15796897D01*
X-40645739Y15799469D01*
X-40645751Y15799705D01*
X-40645751Y23961380D01*
X-40631399Y23996028D01*
X-40596751Y24010380D01*
X-40562103Y23996028D01*
X-40542259Y23976184D01*
X-40534502Y23971310D01*
X-40389524Y23880213D01*
X-40389520Y23880212D01*
X-40389519Y23880211D01*
X-40219252Y23820632D01*
X-40039997Y23800435D01*
X-39860742Y23820632D01*
X-39860394Y23820754D01*
X-39860247Y23820746D01*
X-39858064Y23821244D01*
X-39857921Y23820616D01*
X-39822952Y23818665D01*
X-39809548Y23809158D01*
X-36714852Y20714462D01*
X-36700500Y20679814D01*
X-36700500Y3362984D01*
X-36705839Y3340741D01*
X-36709719Y3333127D01*
X-36709719Y3333126D01*
X-36730804Y3200000D01*
X-36709719Y3066874D01*
X-36709719Y3066873D01*
X-36709718Y3066872D01*
X-36648533Y2946787D01*
X-36648528Y2946780D01*
X-36553221Y2851473D01*
X-36553214Y2851468D01*
X-36484535Y2816475D01*
X-36433126Y2790281D01*
X-36300000Y2769196D01*
X-36166874Y2790281D01*
X-36073440Y2837888D01*
X-36046787Y2851468D01*
X-36046785Y2851470D01*
X-36046780Y2851472D01*
X-35951472Y2946780D01*
X-35950578Y2948533D01*
X-35921168Y3006255D01*
X-35890281Y3066874D01*
X-35869196Y3200000D01*
X-35890281Y3333126D01*
X-35894162Y3340742D01*
X-35899500Y3362984D01*
X-35899500Y5079456D01*
X-35885148Y5114104D01*
X-35850500Y5128456D01*
X-35815852Y5114104D01*
X-35753221Y5051473D01*
X-35753214Y5051468D01*
X-35673158Y5010678D01*
X-35633126Y4990281D01*
X-35500000Y4969196D01*
X-35366874Y4990281D01*
X-35283580Y5032722D01*
X-35246787Y5051468D01*
X-35246785Y5051470D01*
X-35246780Y5051472D01*
X-35151472Y5146780D01*
X-35143660Y5162113D01*
X-35115142Y5186469D01*
X-35077755Y5183527D01*
X-35056340Y5162112D01*
X-35048530Y5146783D01*
X-35048528Y5146780D01*
X-34953221Y5051473D01*
X-34953214Y5051468D01*
X-34873158Y5010678D01*
X-34833126Y4990281D01*
X-34700000Y4969196D01*
X-34566874Y4990281D01*
X-34483580Y5032722D01*
X-34446787Y5051468D01*
X-34446785Y5051470D01*
X-34446780Y5051472D01*
X-34351472Y5146780D01*
X-34290281Y5266874D01*
X-34269196Y5400000D01*
X-34290281Y5533126D01*
X-34310678Y5573158D01*
X-34351468Y5653214D01*
X-34351473Y5653221D01*
X-34446780Y5748528D01*
X-34446783Y5748530D01*
X-34462112Y5756340D01*
X-34486469Y5784858D01*
X-34483527Y5822245D01*
X-34462112Y5843660D01*
X-34446780Y5851472D01*
X-34351472Y5946780D01*
X-34290281Y6066874D01*
X-34269196Y6200000D01*
X-34290281Y6333126D01*
X-34310678Y6373158D01*
X-34351468Y6453214D01*
X-34351473Y6453221D01*
X-34446780Y6548528D01*
X-34446783Y6548530D01*
X-34462112Y6556340D01*
X-34486469Y6584858D01*
X-34483527Y6622245D01*
X-34462112Y6643660D01*
X-34446780Y6651472D01*
X-34351472Y6746780D01*
X-34290281Y6866874D01*
X-34269196Y7000000D01*
X-34290281Y7133126D01*
X-34326680Y7204563D01*
X-34351468Y7253214D01*
X-34351473Y7253221D01*
X-34446780Y7348528D01*
X-34446787Y7348533D01*
X-34566872Y7409718D01*
X-34566873Y7409719D01*
X-34566874Y7409719D01*
X-34700000Y7430804D01*
X-34833126Y7409719D01*
X-34833128Y7409719D01*
X-34833129Y7409718D01*
X-34953214Y7348533D01*
X-34953221Y7348528D01*
X-35048528Y7253221D01*
X-35048532Y7253216D01*
X-35056341Y7237888D01*
X-35084859Y7213532D01*
X-35122246Y7216475D01*
X-35143659Y7237888D01*
X-35151469Y7253216D01*
X-35151473Y7253221D01*
X-35246780Y7348528D01*
X-35246787Y7348533D01*
X-35366872Y7409718D01*
X-35366873Y7409719D01*
X-35366874Y7409719D01*
X-35500000Y7430804D01*
X-35633126Y7409719D01*
X-35633128Y7409719D01*
X-35633129Y7409718D01*
X-35753214Y7348533D01*
X-35753221Y7348528D01*
X-35815852Y7285896D01*
X-35850500Y7271544D01*
X-35885148Y7285896D01*
X-35899500Y7320544D01*
X-35899500Y13287098D01*
X-35885148Y13321746D01*
X-35850500Y13336098D01*
X-35815856Y13321750D01*
X-35757692Y13263599D01*
X-35757689Y13263597D01*
X-35646031Y13189009D01*
X-35625192Y13157829D01*
X-35624249Y13148264D01*
X-35624249Y9294571D01*
X-35598725Y9166254D01*
X-35598722Y9166244D01*
X-35548650Y9045359D01*
X-35475956Y8936564D01*
X-34621125Y8081733D01*
X-33778602Y7239211D01*
X-33764250Y7204563D01*
X-33764250Y3134572D01*
X-33738726Y3006255D01*
X-33738723Y3006245D01*
X-33688651Y2885360D01*
X-33615957Y2776565D01*
X-33523435Y2684043D01*
X-33414640Y2611349D01*
X-33293755Y2561277D01*
X-33293749Y2561276D01*
X-33293746Y2561275D01*
X-33165429Y2535751D01*
X-33165423Y2535750D01*
X-33034577Y2535750D01*
X-32906245Y2561277D01*
X-32785360Y2611349D01*
X-32676565Y2684043D01*
X-32584043Y2776565D01*
X-32511349Y2885360D01*
X-32461277Y3006245D01*
X-32435750Y3134577D01*
X-32435750Y7378063D01*
X-32421398Y7412711D01*
X-32386750Y7427063D01*
X-32352102Y7412711D01*
X-32178602Y7239211D01*
X-32164250Y7204563D01*
X-32164250Y3134572D01*
X-32138726Y3006255D01*
X-32138723Y3006245D01*
X-32088651Y2885360D01*
X-32015957Y2776565D01*
X-31923435Y2684043D01*
X-31814640Y2611349D01*
X-31693755Y2561277D01*
X-31693749Y2561276D01*
X-31693746Y2561275D01*
X-31565429Y2535751D01*
X-31565423Y2535750D01*
X-31434577Y2535750D01*
X-31306245Y2561277D01*
X-31185360Y2611349D01*
X-31127222Y2650197D01*
X-31090441Y2657513D01*
X-31072781Y2650198D01*
X-31014640Y2611349D01*
X-30893755Y2561277D01*
X-30893749Y2561276D01*
X-30893746Y2561275D01*
X-30765429Y2535751D01*
X-30765423Y2535750D01*
X-30634577Y2535750D01*
X-30506245Y2561277D01*
X-30385360Y2611349D01*
X-30276565Y2684043D01*
X-30184043Y2776565D01*
X-30111349Y2885360D01*
X-30061277Y3006245D01*
X-30035750Y3134577D01*
X-30035750Y7378063D01*
X-30021398Y7412710D01*
X-29986750Y7427062D01*
X-29952102Y7412710D01*
X-29778602Y7239210D01*
X-29764250Y7204562D01*
X-29764250Y3134572D01*
X-29738726Y3006255D01*
X-29738723Y3006245D01*
X-29688651Y2885360D01*
X-29615957Y2776565D01*
X-29523435Y2684043D01*
X-29414640Y2611349D01*
X-29293755Y2561277D01*
X-29293749Y2561276D01*
X-29293746Y2561275D01*
X-29165429Y2535751D01*
X-29165423Y2535750D01*
X-29034577Y2535750D01*
X-28906245Y2561277D01*
X-28785360Y2611349D01*
X-28727222Y2650197D01*
X-28690441Y2657513D01*
X-28672781Y2650198D01*
X-28614640Y2611349D01*
X-28493755Y2561277D01*
X-28493749Y2561276D01*
X-28493746Y2561275D01*
X-28365429Y2535751D01*
X-28365423Y2535750D01*
X-28234577Y2535750D01*
X-28106245Y2561277D01*
X-27985360Y2611349D01*
X-27876565Y2684043D01*
X-27784043Y2776565D01*
X-27711349Y2885360D01*
X-27661277Y3006245D01*
X-27635750Y3134577D01*
X-27635750Y7378063D01*
X-27621398Y7412711D01*
X-27586750Y7427063D01*
X-27552102Y7412711D01*
X-27378602Y7239211D01*
X-27364250Y7204563D01*
X-27364250Y3134572D01*
X-27338726Y3006255D01*
X-27338723Y3006245D01*
X-27288651Y2885360D01*
X-27215957Y2776565D01*
X-27123435Y2684043D01*
X-27014640Y2611349D01*
X-26893755Y2561277D01*
X-26893749Y2561276D01*
X-26893746Y2561275D01*
X-26765429Y2535751D01*
X-26765423Y2535750D01*
X-26634577Y2535750D01*
X-26506245Y2561277D01*
X-26385360Y2611349D01*
X-26327222Y2650197D01*
X-26290441Y2657513D01*
X-26272781Y2650198D01*
X-26214640Y2611349D01*
X-26093755Y2561277D01*
X-26093749Y2561276D01*
X-26093746Y2561275D01*
X-25965429Y2535751D01*
X-25965423Y2535750D01*
X-25834577Y2535750D01*
X-25706245Y2561277D01*
X-25585360Y2611349D01*
X-25476565Y2684043D01*
X-25384043Y2776565D01*
X-25311349Y2885360D01*
X-25261277Y3006245D01*
X-25235750Y3134577D01*
X-25235750Y7378063D01*
X-25221398Y7412711D01*
X-25186750Y7427063D01*
X-25152102Y7412711D01*
X-24978602Y7239211D01*
X-24964250Y7204563D01*
X-24964250Y3134572D01*
X-24938726Y3006255D01*
X-24938723Y3006245D01*
X-24888651Y2885360D01*
X-24815957Y2776565D01*
X-24723435Y2684043D01*
X-24614640Y2611349D01*
X-24493755Y2561277D01*
X-24493749Y2561276D01*
X-24493746Y2561275D01*
X-24365429Y2535751D01*
X-24365423Y2535750D01*
X-24234577Y2535750D01*
X-24106245Y2561277D01*
X-23985360Y2611349D01*
X-23927222Y2650197D01*
X-23890441Y2657513D01*
X-23872781Y2650198D01*
X-23814640Y2611349D01*
X-23693755Y2561277D01*
X-23693749Y2561276D01*
X-23693746Y2561275D01*
X-23565429Y2535751D01*
X-23565423Y2535750D01*
X-23434577Y2535750D01*
X-23306245Y2561277D01*
X-23185360Y2611349D01*
X-23076565Y2684043D01*
X-22984043Y2776565D01*
X-22911349Y2885360D01*
X-22861277Y3006245D01*
X-22835750Y3134577D01*
X-22835750Y4069451D01*
X-15927500Y4069451D01*
X-15927500Y3930550D01*
X-15891553Y3796395D01*
X-15891552Y3796391D01*
X-15822105Y3676107D01*
X-15723893Y3577895D01*
X-15679867Y3552477D01*
X-15603610Y3508449D01*
X-15603608Y3508449D01*
X-15603607Y3508448D01*
X-15497801Y3480098D01*
X-15469451Y3472501D01*
X-15469450Y3472500D01*
X-15469447Y3472500D01*
X-15330550Y3472500D01*
X-15330550Y3472501D01*
X-15196393Y3508448D01*
X-15076107Y3577895D01*
X-14977895Y3676107D01*
X-14908448Y3796393D01*
X-14872501Y3930550D01*
X-14872500Y3930550D01*
X-14872500Y4069450D01*
X-14872501Y4069451D01*
X-14908448Y4203606D01*
X-14908449Y4203610D01*
X-14977896Y4323894D01*
X-15076107Y4422105D01*
X-15196391Y4491552D01*
X-15196395Y4491553D01*
X-15330550Y4527500D01*
X-15330553Y4527500D01*
X-15469447Y4527500D01*
X-15469450Y4527500D01*
X-15603606Y4491553D01*
X-15603610Y4491552D01*
X-15723894Y4422105D01*
X-15723894Y4422104D01*
X-15822104Y4323894D01*
X-15822105Y4323894D01*
X-15891552Y4203610D01*
X-15891553Y4203606D01*
X-15927500Y4069451D01*
X-22835750Y4069451D01*
X-22835750Y7565423D01*
X-22861277Y7693755D01*
X-22862022Y7695552D01*
X-22865750Y7714300D01*
X-22865750Y13479672D01*
X-22865719Y13479750D01*
X-22865719Y13500000D01*
X-22865718Y13500000D01*
X-22865719Y13584867D01*
X-22891858Y13716264D01*
X-22898530Y13749802D01*
X-22891215Y13786584D01*
X-22877691Y13800107D01*
X-22773996Y13869366D01*
X-22653159Y13990160D01*
X-22558211Y14132207D01*
X-22492798Y14290048D01*
X-22459436Y14457617D01*
X-22459434Y14475096D01*
X-22459421Y14475321D01*
X-22459421Y14545744D01*
X-22459408Y14617889D01*
X-22459410Y14617896D01*
X-22459409Y14620468D01*
X-22459421Y14620704D01*
X-22459421Y14659253D01*
X-22459409Y14659484D01*
X-22459410Y14662105D01*
X-22459408Y14662111D01*
X-22459418Y14716586D01*
X-22459347Y14716758D01*
X-22459352Y14744965D01*
X-22459365Y14822390D01*
X-22492730Y14989973D01*
X-22558148Y15147827D01*
X-22601603Y15212836D01*
X-22608925Y15249615D01*
X-22601606Y15267289D01*
X-22558211Y15332207D01*
X-22492798Y15490048D01*
X-22459436Y15657617D01*
X-22459434Y15675096D01*
X-22459421Y15675321D01*
X-22459421Y15745823D01*
X-22459420Y15751825D01*
X-22459408Y15817889D01*
X-22459410Y15817896D01*
X-22459409Y15820468D01*
X-22459421Y15820704D01*
X-22459421Y15859253D01*
X-22459409Y15859484D01*
X-22459410Y15862105D01*
X-22459408Y15862111D01*
X-22459418Y15916586D01*
X-22459347Y15916758D01*
X-22459365Y16022388D01*
X-22468684Y16069196D01*
X-22492730Y16189973D01*
X-22558148Y16347827D01*
X-22653105Y16489885D01*
X-22653109Y16489889D01*
X-22773950Y16610689D01*
X-22870200Y16674977D01*
X-22891041Y16706156D01*
X-22891043Y16725276D01*
X-22865742Y16852525D01*
X-22865750Y16937392D01*
X-22865750Y16941277D01*
X-22865750Y17165423D01*
X-22865750Y22565423D01*
X-22865750Y25483000D01*
X-22851398Y25517648D01*
X-22842548Y25524660D01*
X-22803438Y25548874D01*
X-22639019Y25698762D01*
X-22504942Y25876309D01*
X-22405771Y26075470D01*
X-22344885Y26289462D01*
X-22324357Y26510998D01*
X-22344885Y26732534D01*
X-22405771Y26946526D01*
X-22504942Y27145687D01*
X-22588536Y27256384D01*
X-22639017Y27323232D01*
X-22639020Y27323235D01*
X-22803434Y27473119D01*
X-22803437Y27473121D01*
X-22803438Y27473122D01*
X-22992599Y27590245D01*
X-22992602Y27590246D01*
X-22992603Y27590247D01*
X-23096852Y27630633D01*
X-23200060Y27670616D01*
X-23418757Y27711498D01*
X-23641243Y27711498D01*
X-23685463Y27703232D01*
X-23733974Y27694164D01*
X-23770669Y27701905D01*
X-23791143Y27733327D01*
X-23783402Y27770022D01*
X-23782080Y27771858D01*
X-23774942Y27781310D01*
X-23675771Y27980471D01*
X-23614885Y28194463D01*
X-23594357Y28415999D01*
X-23594357Y28416000D01*
X-16514328Y28416000D01*
X-16514328Y28415999D01*
X-16495034Y28121625D01*
X-16437482Y27832283D01*
X-16342652Y27552924D01*
X-16212171Y27288334D01*
X-16048273Y27043042D01*
X-15963629Y26946525D01*
X-15853757Y26821241D01*
X-15752613Y26732540D01*
X-15631957Y26626726D01*
X-15468058Y26517213D01*
X-15386664Y26462827D01*
X-15122076Y26332347D01*
X-14842721Y26237518D01*
X-14553379Y26179965D01*
X-14308063Y26163886D01*
X-14259000Y26160670D01*
X-14258999Y26160670D01*
X-14258998Y26160670D01*
X-14216945Y26163427D01*
X-13964619Y26179965D01*
X-13675277Y26237518D01*
X-13395922Y26332347D01*
X-13131334Y26462827D01*
X-12886042Y26626726D01*
X-12664241Y26821241D01*
X-12469726Y27043042D01*
X-12305827Y27288334D01*
X-12175347Y27552922D01*
X-12080518Y27832277D01*
X-12022965Y28121619D01*
X-12003670Y28415999D01*
X-12022965Y28710379D01*
X-12080518Y28999721D01*
X-12175347Y29279076D01*
X-12305827Y29543663D01*
X-12394829Y29676864D01*
X-12469726Y29788957D01*
X-12560610Y29892589D01*
X-12664241Y30010757D01*
X-12767874Y30101641D01*
X-12886042Y30205273D01*
X-13131334Y30369171D01*
X-13395924Y30499652D01*
X-13675283Y30594482D01*
X-13908649Y30640901D01*
X-13964619Y30652033D01*
X-13964621Y30652034D01*
X-13964625Y30652034D01*
X-14258998Y30671328D01*
X-14259000Y30671328D01*
X-14553374Y30652034D01*
X-14842716Y30594482D01*
X-15122078Y30499651D01*
X-15386664Y30369171D01*
X-15631957Y30205273D01*
X-15853757Y30010757D01*
X-16048273Y29788957D01*
X-16212171Y29543664D01*
X-16342651Y29279078D01*
X-16437482Y28999716D01*
X-16495034Y28710374D01*
X-16514328Y28416000D01*
X-23594357Y28416000D01*
X-23614885Y28637535D01*
X-23675771Y28851527D01*
X-23774942Y29050688D01*
X-23782081Y29060142D01*
X-23791507Y29096439D01*
X-23772506Y29128772D01*
X-23736207Y29138199D01*
X-23734016Y29137842D01*
X-23641242Y29120499D01*
X-23641240Y29120499D01*
X-23418758Y29120499D01*
X-23418756Y29120499D01*
X-23200059Y29161381D01*
X-22992598Y29241752D01*
X-22803437Y29358875D01*
X-22639018Y29508763D01*
X-22504941Y29686310D01*
X-22405770Y29885471D01*
X-22344884Y30099463D01*
X-22324356Y30320999D01*
X-22344884Y30542535D01*
X-22405770Y30756527D01*
X-22504941Y30955688D01*
X-22571980Y31044462D01*
X-22639016Y31133233D01*
X-22639019Y31133236D01*
X-22803433Y31283120D01*
X-22803436Y31283122D01*
X-22803437Y31283123D01*
X-22992598Y31400246D01*
X-22992601Y31400247D01*
X-22992602Y31400248D01*
X-23125545Y31451750D01*
X-23200059Y31480617D01*
X-23418756Y31521499D01*
X-23641242Y31521499D01*
X-23859939Y31480617D01*
X-23859944Y31480615D01*
X-24067397Y31400248D01*
X-24256566Y31283120D01*
X-24420980Y31133236D01*
X-24420983Y31133233D01*
X-24555056Y30955690D01*
X-24555059Y30955686D01*
X-24654226Y30756533D01*
X-24654229Y30756526D01*
X-24715114Y30542538D01*
X-24715115Y30542532D01*
X-24735642Y30320999D01*
X-24715115Y30099467D01*
X-24715114Y30099461D01*
X-24654229Y29885473D01*
X-24654226Y29885466D01*
X-24555059Y29686313D01*
X-24555058Y29686312D01*
X-24555057Y29686310D01*
X-24547923Y29676863D01*
X-24547921Y29676861D01*
X-24538493Y29640562D01*
X-24557493Y29608229D01*
X-24593792Y29598801D01*
X-24596026Y29599165D01*
X-24667330Y29612494D01*
X-24688757Y29616499D01*
X-24911243Y29616499D01*
X-25003971Y29599166D01*
X-25040666Y29606907D01*
X-25061140Y29638329D01*
X-25053399Y29675024D01*
X-25052109Y29676817D01*
X-25044940Y29686310D01*
X-24945769Y29885471D01*
X-24884883Y30099463D01*
X-24864355Y30320999D01*
X-24884883Y30542535D01*
X-24945769Y30756527D01*
X-25044940Y30955688D01*
X-25111979Y31044462D01*
X-25179015Y31133233D01*
X-25179018Y31133236D01*
X-25343432Y31283120D01*
X-25343435Y31283122D01*
X-25343436Y31283123D01*
X-25532597Y31400246D01*
X-25532600Y31400247D01*
X-25532601Y31400248D01*
X-25665544Y31451750D01*
X-25740058Y31480617D01*
X-25958755Y31521499D01*
X-26181241Y31521499D01*
X-26399938Y31480617D01*
X-26399943Y31480615D01*
X-26607396Y31400248D01*
X-26796565Y31283120D01*
X-26960979Y31133236D01*
X-26960982Y31133233D01*
X-27095055Y30955690D01*
X-27095058Y30955686D01*
X-27194225Y30756533D01*
X-27194228Y30756526D01*
X-27255113Y30542538D01*
X-27255114Y30542532D01*
X-27275641Y30320999D01*
X-27255114Y30099467D01*
X-27255113Y30099461D01*
X-27194228Y29885473D01*
X-27194225Y29885466D01*
X-27095058Y29686313D01*
X-27095057Y29686312D01*
X-27095056Y29686310D01*
X-27087922Y29676863D01*
X-27087920Y29676861D01*
X-27078492Y29640562D01*
X-27097492Y29608229D01*
X-27133791Y29598801D01*
X-27136025Y29599165D01*
X-27228759Y29616499D01*
X-27451245Y29616499D01*
X-27543972Y29599166D01*
X-27580667Y29606907D01*
X-27601141Y29638329D01*
X-27593400Y29675024D01*
X-27592077Y29676861D01*
X-27584942Y29686309D01*
X-27485771Y29885470D01*
X-27424885Y30099462D01*
X-27404357Y30320998D01*
X-27424885Y30542534D01*
X-27485771Y30756526D01*
X-27584942Y30955687D01*
X-27651981Y31044461D01*
X-27719017Y31133232D01*
X-27719020Y31133235D01*
X-27883434Y31283119D01*
X-27883437Y31283121D01*
X-27883438Y31283122D01*
X-28072599Y31400245D01*
X-28072602Y31400246D01*
X-28072603Y31400247D01*
X-28176330Y31440431D01*
X-28280060Y31480616D01*
X-28498757Y31521498D01*
X-28721243Y31521498D01*
X-28939940Y31480616D01*
X-28939945Y31480614D01*
X-29147398Y31400247D01*
X-29336567Y31283119D01*
X-29500981Y31133235D01*
X-29500984Y31133232D01*
X-29635057Y30955689D01*
X-29635060Y30955685D01*
X-29734227Y30756532D01*
X-29734230Y30756525D01*
X-29795115Y30542537D01*
X-29795116Y30542531D01*
X-29815643Y30320998D01*
X-29795116Y30099466D01*
X-29795115Y30099460D01*
X-29734230Y29885472D01*
X-29734227Y29885465D01*
X-29635060Y29686312D01*
X-29635059Y29686310D01*
X-29635058Y29686309D01*
X-29627925Y29676864D01*
X-29627923Y29676861D01*
X-29618496Y29640562D01*
X-29637497Y29608229D01*
X-29673796Y29598802D01*
X-29676026Y29599166D01*
X-29768759Y29616500D01*
X-29991245Y29616500D01*
X-30011725Y29612672D01*
X-30083971Y29599167D01*
X-30120666Y29606908D01*
X-30141140Y29638330D01*
X-30133399Y29675025D01*
X-30132077Y29676861D01*
X-30124941Y29686310D01*
X-30025770Y29885471D01*
X-29964884Y30099463D01*
X-29944356Y30320999D01*
X-29964884Y30542535D01*
X-30025770Y30756527D01*
X-30124941Y30955688D01*
X-30191980Y31044462D01*
X-30259016Y31133233D01*
X-30259019Y31133236D01*
X-30423433Y31283120D01*
X-30423436Y31283122D01*
X-30423437Y31283123D01*
X-30612598Y31400246D01*
X-30612601Y31400247D01*
X-30612602Y31400248D01*
X-30745545Y31451750D01*
X-30820059Y31480617D01*
X-31038756Y31521499D01*
X-31261242Y31521499D01*
X-31479939Y31480617D01*
X-31479944Y31480615D01*
X-31687397Y31400248D01*
X-31876566Y31283120D01*
X-32040980Y31133236D01*
X-32040983Y31133233D01*
X-32175056Y30955690D01*
X-32175059Y30955686D01*
X-32274226Y30756533D01*
X-32274229Y30756526D01*
X-32335114Y30542538D01*
X-32335115Y30542532D01*
X-32355642Y30320999D01*
X-32335115Y30099467D01*
X-32335114Y30099461D01*
X-32274229Y29885473D01*
X-32274226Y29885466D01*
X-32175059Y29686313D01*
X-32175058Y29686312D01*
X-32175057Y29686310D01*
X-32167923Y29676863D01*
X-32167921Y29676861D01*
X-32158493Y29640562D01*
X-32177493Y29608229D01*
X-32213792Y29598801D01*
X-32216026Y29599165D01*
X-32287330Y29612494D01*
X-32308757Y29616499D01*
X-32531243Y29616499D01*
X-32749940Y29575617D01*
X-32749945Y29575615D01*
X-32957398Y29495248D01*
X-33146567Y29378120D01*
X-33310981Y29228236D01*
X-33310984Y29228233D01*
X-33445057Y29050690D01*
X-33445060Y29050686D01*
X-33544227Y28851533D01*
X-33544230Y28851526D01*
X-33605115Y28637538D01*
X-33605116Y28637532D01*
X-33625643Y28415999D01*
X-33605116Y28194467D01*
X-33605115Y28194461D01*
X-33544230Y27980473D01*
X-33544227Y27980466D01*
X-33445060Y27781313D01*
X-33445059Y27781311D01*
X-33445058Y27781310D01*
X-33437927Y27771867D01*
X-33310984Y27603766D01*
X-33310981Y27603763D01*
X-33146567Y27453879D01*
X-33146566Y27453878D01*
X-33146562Y27453875D01*
X-32957401Y27336752D01*
X-32749940Y27256381D01*
X-32531243Y27215499D01*
X-32531241Y27215499D01*
X-32308759Y27215499D01*
X-32308757Y27215499D01*
X-32216028Y27232834D01*
X-32179334Y27225093D01*
X-32158859Y27193672D01*
X-32166600Y27156977D01*
X-32167921Y27155141D01*
X-32175053Y27145696D01*
X-32175059Y27145688D01*
X-32274226Y26946535D01*
X-32274229Y26946528D01*
X-32335114Y26732540D01*
X-32335115Y26732534D01*
X-32355642Y26511001D01*
X-32335115Y26289469D01*
X-32335114Y26289463D01*
X-32274229Y26075475D01*
X-32274226Y26075468D01*
X-32175059Y25876315D01*
X-32175058Y25876314D01*
X-32175057Y25876312D01*
X-32175049Y25876302D01*
X-32167919Y25866860D01*
X-32158493Y25830561D01*
X-32177495Y25798228D01*
X-32213794Y25788802D01*
X-32216019Y25789165D01*
X-32308755Y25806500D01*
X-32531241Y25806500D01*
X-32749938Y25765618D01*
X-32749943Y25765616D01*
X-32957396Y25685249D01*
X-33146565Y25568121D01*
X-33310979Y25418237D01*
X-33310982Y25418234D01*
X-33445055Y25240691D01*
X-33445058Y25240687D01*
X-33544225Y25041534D01*
X-33544228Y25041527D01*
X-33605113Y24827539D01*
X-33605114Y24827533D01*
X-33625641Y24606000D01*
X-33605114Y24384468D01*
X-33605113Y24384462D01*
X-33544228Y24170474D01*
X-33544225Y24170467D01*
X-33445058Y23971314D01*
X-33445055Y23971310D01*
X-33310982Y23793767D01*
X-33310979Y23793764D01*
X-33146565Y23643880D01*
X-33146564Y23643879D01*
X-33146560Y23643876D01*
X-33107453Y23619663D01*
X-33085550Y23589221D01*
X-33084248Y23578002D01*
X-33084248Y17600298D01*
X-33084250Y17600294D01*
X-33084250Y17580000D01*
X-33084250Y17490939D01*
X-33067339Y17405920D01*
X-33058852Y17363251D01*
X-33066169Y17326469D01*
X-33088162Y17308421D01*
X-33105248Y17301345D01*
X-33253364Y17202394D01*
X-33379323Y17076448D01*
X-33379326Y17076445D01*
X-33379327Y17076443D01*
X-33439147Y16986924D01*
X-33478297Y16928338D01*
X-33546469Y16763771D01*
X-33546472Y16763761D01*
X-33581222Y16589070D01*
X-33581223Y16589064D01*
X-33581223Y16400324D01*
X-33581250Y16400258D01*
X-33581250Y16290934D01*
X-33581249Y16290930D01*
X-33546497Y16116232D01*
X-33546494Y16116222D01*
X-33478321Y15951649D01*
X-33440642Y15895264D01*
X-33421889Y15867201D01*
X-33414571Y15830418D01*
X-33421889Y15812752D01*
X-33478296Y15728341D01*
X-33546469Y15563771D01*
X-33546472Y15563761D01*
X-33581222Y15389070D01*
X-33581223Y15389064D01*
X-33581223Y15200324D01*
X-33581250Y15200258D01*
X-33581250Y15090934D01*
X-33581249Y15090930D01*
X-33546497Y14916232D01*
X-33546494Y14916222D01*
X-33478321Y14751649D01*
X-33427271Y14675255D01*
X-33421889Y14667201D01*
X-33414571Y14630418D01*
X-33421889Y14612752D01*
X-33478296Y14528341D01*
X-33546469Y14363771D01*
X-33546472Y14363761D01*
X-33581222Y14189070D01*
X-33581223Y14189064D01*
X-33581223Y14000324D01*
X-33581250Y14000258D01*
X-33581250Y13890934D01*
X-33581249Y13890930D01*
X-33546497Y13716232D01*
X-33546494Y13716222D01*
X-33478321Y13551649D01*
X-33379348Y13403540D01*
X-33379345Y13403537D01*
X-33379344Y13403536D01*
X-33253381Y13277586D01*
X-33160279Y13215387D01*
X-33106028Y13179143D01*
X-33085190Y13147963D01*
X-33084248Y13138400D01*
X-33084248Y8541936D01*
X-33098600Y8507288D01*
X-33133248Y8492936D01*
X-33167896Y8507288D01*
X-34281397Y9620789D01*
X-34295749Y9655437D01*
X-34295749Y13567623D01*
X-34295768Y13568013D01*
X-34295768Y13587929D01*
X-34295768Y13587932D01*
X-34323911Y13729424D01*
X-34316594Y13766203D01*
X-34303069Y13779726D01*
X-34159830Y13875391D01*
X-34035231Y13999937D01*
X-33998527Y14054843D01*
X-33946814Y14132203D01*
X-33937325Y14146398D01*
X-33869872Y14309145D01*
X-33840306Y14457619D01*
X-33835466Y14481922D01*
X-33835466Y14481924D01*
X-33835463Y14502012D01*
X-33835447Y14502293D01*
X-33835447Y14571597D01*
X-33835435Y14631183D01*
X-33835431Y14631242D01*
X-33835432Y14641857D01*
X-33835432Y14641881D01*
X-33835432Y14641883D01*
X-33835431Y14644853D01*
X-33835432Y14644855D01*
X-33835431Y14648374D01*
X-33835435Y14648440D01*
X-33835438Y14662054D01*
X-33835443Y14689596D01*
X-33835347Y14689830D01*
X-33835351Y14709990D01*
X-33835350Y14709990D01*
X-33835369Y14798086D01*
X-33835370Y14798092D01*
X-33835370Y14798096D01*
X-33869778Y14970882D01*
X-33869780Y14970890D01*
X-33919534Y15090933D01*
X-33937238Y15133649D01*
X-33990188Y15212857D01*
X-33997513Y15249638D01*
X-33990190Y15267318D01*
X-33937325Y15346398D01*
X-33869872Y15509145D01*
X-33844074Y15638698D01*
X-33835466Y15681922D01*
X-33835466Y15681924D01*
X-33835463Y15702012D01*
X-33835447Y15702293D01*
X-33835447Y15772151D01*
X-33835435Y15831184D01*
X-33835431Y15831243D01*
X-33835432Y15838094D01*
X-33835432Y15841655D01*
X-33835431Y15844853D01*
X-33835432Y15844855D01*
X-33835431Y15848375D01*
X-33835435Y15848441D01*
X-33835438Y15862054D01*
X-33835443Y15889596D01*
X-33835347Y15889830D01*
X-33835351Y15909990D01*
X-33835350Y15909990D01*
X-33835369Y15998086D01*
X-33835370Y15998092D01*
X-33835370Y15998096D01*
X-33869778Y16170882D01*
X-33869780Y16170890D01*
X-33919534Y16290933D01*
X-33937238Y16333649D01*
X-33991366Y16414618D01*
X-33998690Y16451398D01*
X-33991373Y16469068D01*
X-33940191Y16545660D01*
X-33872882Y16708143D01*
X-33838566Y16880636D01*
X-33838566Y16899882D01*
X-33838563Y16899927D01*
X-33838563Y16986924D01*
X-33838563Y16986926D01*
X-33838561Y17043416D01*
X-33838562Y17043417D01*
X-33838563Y17091120D01*
X-33838550Y17091153D01*
X-33838551Y17111427D01*
X-33838550Y17111427D01*
X-33838553Y17199365D01*
X-33872870Y17371860D01*
X-33940179Y17534346D01*
X-33940182Y17534351D01*
X-33940183Y17534353D01*
X-34037892Y17680575D01*
X-34037894Y17680578D01*
X-34162259Y17804936D01*
X-34162264Y17804940D01*
X-34273971Y17879578D01*
X-34294807Y17910760D01*
X-34295749Y17920320D01*
X-34295749Y23578002D01*
X-34281397Y23612650D01*
X-34272547Y23619662D01*
X-34233437Y23643876D01*
X-34069018Y23793764D01*
X-33934941Y23971311D01*
X-33835770Y24170472D01*
X-33774884Y24384464D01*
X-33754356Y24606000D01*
X-33774884Y24827536D01*
X-33835770Y25041528D01*
X-33934941Y25240689D01*
X-34003736Y25331789D01*
X-34069016Y25418234D01*
X-34069019Y25418237D01*
X-34233433Y25568121D01*
X-34233436Y25568123D01*
X-34233437Y25568124D01*
X-34422598Y25685247D01*
X-34422601Y25685248D01*
X-34422602Y25685249D01*
X-34526329Y25725433D01*
X-34630059Y25765618D01*
X-34848756Y25806500D01*
X-35071242Y25806500D01*
X-35289939Y25765618D01*
X-35289944Y25765616D01*
X-35497397Y25685249D01*
X-35686566Y25568121D01*
X-35850980Y25418237D01*
X-35850983Y25418234D01*
X-35985056Y25240691D01*
X-35985059Y25240687D01*
X-36084226Y25041534D01*
X-36084229Y25041527D01*
X-36145114Y24827539D01*
X-36145115Y24827533D01*
X-36165642Y24606000D01*
X-36145115Y24384468D01*
X-36145114Y24384462D01*
X-36084229Y24170474D01*
X-36084226Y24170467D01*
X-35985059Y23971314D01*
X-35985056Y23971310D01*
X-35850983Y23793767D01*
X-35850980Y23793764D01*
X-35686566Y23643880D01*
X-35686565Y23643879D01*
X-35686561Y23643876D01*
X-35647454Y23619663D01*
X-35625551Y23589221D01*
X-35624249Y23578002D01*
X-35624249Y17646115D01*
X-35624251Y17646077D01*
X-35624250Y17588871D01*
X-35624250Y17588870D01*
X-35624249Y17480638D01*
X-35624248Y17480634D01*
X-35598113Y17349261D01*
X-35605428Y17312479D01*
X-35618954Y17298955D01*
X-35760218Y17204597D01*
X-35760219Y17204597D01*
X-35815858Y17148976D01*
X-35850509Y17134630D01*
X-35885154Y17148988D01*
X-35899500Y17183630D01*
X-35899500Y20918733D01*
X-35899501Y20918734D01*
X-35926793Y21020589D01*
X-35926794Y21020593D01*
X-35979521Y21111917D01*
X-39243155Y24375551D01*
X-39257507Y24410199D01*
X-39255152Y24424047D01*
X-39255241Y24424067D01*
X-39254876Y24425667D01*
X-39254753Y24426393D01*
X-39254629Y24426745D01*
X-39234432Y24606000D01*
X-38305565Y24606000D01*
X-38285369Y24426751D01*
X-38285367Y24426742D01*
X-38225788Y24256474D01*
X-38171745Y24170467D01*
X-38129816Y24103738D01*
X-38002262Y23976184D01*
X-37994505Y23971310D01*
X-37849527Y23880213D01*
X-37849523Y23880212D01*
X-37849522Y23880211D01*
X-37679255Y23820632D01*
X-37500000Y23800435D01*
X-37320745Y23820632D01*
X-37150478Y23880211D01*
X-37150476Y23880213D01*
X-37150474Y23880213D01*
X-37094404Y23915445D01*
X-36997738Y23976184D01*
X-36870184Y24103738D01*
X-36809445Y24200404D01*
X-36774213Y24256474D01*
X-36774213Y24256476D01*
X-36774211Y24256478D01*
X-36714632Y24426745D01*
X-36694435Y24606000D01*
X-36714632Y24785255D01*
X-36774211Y24955522D01*
X-36774212Y24955523D01*
X-36774213Y24955527D01*
X-36870183Y25108260D01*
X-36870184Y25108262D01*
X-36997738Y25235816D01*
X-37005493Y25240689D01*
X-37150474Y25331788D01*
X-37320742Y25391367D01*
X-37320743Y25391368D01*
X-37320745Y25391368D01*
X-37320749Y25391369D01*
X-37320751Y25391369D01*
X-37500000Y25411565D01*
X-37679250Y25391369D01*
X-37679259Y25391367D01*
X-37849527Y25331788D01*
X-38002260Y25235818D01*
X-38002264Y25235815D01*
X-38129815Y25108264D01*
X-38129818Y25108260D01*
X-38225788Y24955527D01*
X-38285367Y24785259D01*
X-38285369Y24785250D01*
X-38305565Y24606000D01*
X-39234432Y24606000D01*
X-39254629Y24785255D01*
X-39314208Y24955522D01*
X-39314209Y24955523D01*
X-39314210Y24955527D01*
X-39410180Y25108260D01*
X-39410181Y25108262D01*
X-39537735Y25235816D01*
X-39545490Y25240689D01*
X-39690471Y25331788D01*
X-39860739Y25391367D01*
X-39860740Y25391368D01*
X-39860742Y25391368D01*
X-39860746Y25391369D01*
X-39860748Y25391369D01*
X-40039997Y25411565D01*
X-40219247Y25391369D01*
X-40219256Y25391367D01*
X-40389524Y25331788D01*
X-40542257Y25235818D01*
X-40542261Y25235815D01*
X-40562103Y25215972D01*
X-40596751Y25201620D01*
X-40631399Y25215972D01*
X-40645751Y25250620D01*
X-40645751Y25483003D01*
X-40631399Y25517651D01*
X-40622549Y25524663D01*
X-40583439Y25548877D01*
X-40419020Y25698765D01*
X-40284943Y25876312D01*
X-40185772Y26075473D01*
X-40124886Y26289465D01*
X-40104358Y26511001D01*
X-40124886Y26732537D01*
X-40185772Y26946529D01*
X-40284943Y27145690D01*
X-40368533Y27256381D01*
X-40419018Y27323235D01*
X-40419021Y27323238D01*
X-40583435Y27473122D01*
X-40583438Y27473124D01*
X-40583439Y27473125D01*
X-40772600Y27590248D01*
X-40772603Y27590249D01*
X-40772604Y27590250D01*
X-40876845Y27630633D01*
X-40980061Y27670619D01*
X-41198758Y27711501D01*
X-41421244Y27711501D01*
X-41513973Y27694168D01*
X-41550668Y27701909D01*
X-41571142Y27733331D01*
X-41563401Y27770026D01*
X-41562115Y27771814D01*
X-41554943Y27781310D01*
X-41455772Y27980471D01*
X-41394886Y28194463D01*
X-41374358Y28415999D01*
X-38305565Y28415999D01*
X-38285369Y28236750D01*
X-38285367Y28236741D01*
X-38225788Y28066473D01*
X-38171745Y27980466D01*
X-38129816Y27913737D01*
X-38002262Y27786183D01*
X-37979478Y27771867D01*
X-37849527Y27690212D01*
X-37849523Y27690211D01*
X-37849522Y27690210D01*
X-37679255Y27630631D01*
X-37500000Y27610434D01*
X-37320745Y27630631D01*
X-37150478Y27690210D01*
X-37150476Y27690212D01*
X-37150474Y27690212D01*
X-37081853Y27733330D01*
X-36997738Y27786183D01*
X-36870184Y27913737D01*
X-36809445Y28010403D01*
X-36774213Y28066473D01*
X-36774213Y28066475D01*
X-36774211Y28066477D01*
X-36714632Y28236744D01*
X-36694435Y28415999D01*
X-36165645Y28415999D01*
X-36145118Y28194467D01*
X-36145117Y28194461D01*
X-36084232Y27980473D01*
X-36084229Y27980466D01*
X-35985062Y27781313D01*
X-35985061Y27781311D01*
X-35985060Y27781310D01*
X-35977929Y27771867D01*
X-35850986Y27603766D01*
X-35850983Y27603763D01*
X-35686569Y27453879D01*
X-35686568Y27453878D01*
X-35686564Y27453875D01*
X-35497403Y27336752D01*
X-35289942Y27256381D01*
X-35071245Y27215499D01*
X-35071243Y27215499D01*
X-34848761Y27215499D01*
X-34848759Y27215499D01*
X-34630062Y27256381D01*
X-34422601Y27336752D01*
X-34233440Y27453875D01*
X-34069021Y27603763D01*
X-33934944Y27781310D01*
X-33835773Y27980471D01*
X-33774887Y28194463D01*
X-33754359Y28415999D01*
X-33774887Y28637535D01*
X-33835773Y28851527D01*
X-33934944Y29050688D01*
X-34018536Y29161382D01*
X-34069019Y29228233D01*
X-34069022Y29228236D01*
X-34233436Y29378120D01*
X-34233439Y29378122D01*
X-34233440Y29378123D01*
X-34422601Y29495246D01*
X-34422604Y29495247D01*
X-34422605Y29495248D01*
X-34526332Y29535432D01*
X-34630062Y29575617D01*
X-34848759Y29616499D01*
X-35071245Y29616499D01*
X-35289942Y29575617D01*
X-35289947Y29575615D01*
X-35497400Y29495248D01*
X-35686569Y29378120D01*
X-35850983Y29228236D01*
X-35850986Y29228233D01*
X-35985059Y29050690D01*
X-35985062Y29050686D01*
X-36084229Y28851533D01*
X-36084232Y28851526D01*
X-36145117Y28637538D01*
X-36145118Y28637532D01*
X-36165645Y28415999D01*
X-36694435Y28415999D01*
X-36714632Y28595254D01*
X-36774211Y28765521D01*
X-36774212Y28765522D01*
X-36774213Y28765526D01*
X-36870183Y28918259D01*
X-36870184Y28918261D01*
X-36997738Y29045815D01*
X-37005490Y29050686D01*
X-37150474Y29141787D01*
X-37320742Y29201366D01*
X-37320743Y29201367D01*
X-37320745Y29201367D01*
X-37320749Y29201368D01*
X-37320751Y29201368D01*
X-37500000Y29221564D01*
X-37679250Y29201368D01*
X-37679259Y29201366D01*
X-37849527Y29141787D01*
X-38002260Y29045817D01*
X-38002264Y29045814D01*
X-38129815Y28918263D01*
X-38129818Y28918259D01*
X-38225788Y28765526D01*
X-38285367Y28595258D01*
X-38285369Y28595249D01*
X-38305565Y28415999D01*
X-41374358Y28415999D01*
X-41394886Y28637535D01*
X-41455772Y28851527D01*
X-41554943Y29050688D01*
X-41562082Y29060142D01*
X-41571508Y29096439D01*
X-41552507Y29128772D01*
X-41516208Y29138199D01*
X-41514013Y29137842D01*
X-41421242Y29120499D01*
X-41421240Y29120499D01*
X-41198758Y29120499D01*
X-41198756Y29120499D01*
X-40980059Y29161381D01*
X-40772598Y29241752D01*
X-40583437Y29358875D01*
X-40419018Y29508763D01*
X-40284941Y29686310D01*
X-40185770Y29885471D01*
X-40124884Y30099463D01*
X-40104356Y30320999D01*
X-40124884Y30542535D01*
X-40185770Y30756527D01*
X-40284941Y30955688D01*
X-40351980Y31044462D01*
X-40419016Y31133233D01*
X-40419019Y31133236D01*
X-40583433Y31283120D01*
X-40583436Y31283122D01*
X-40583437Y31283123D01*
X-40772598Y31400246D01*
X-40772601Y31400247D01*
X-40772602Y31400248D01*
X-40905545Y31451750D01*
X-40980059Y31480617D01*
X-41198756Y31521499D01*
X-41421242Y31521499D01*
X-41639939Y31480617D01*
X-41639944Y31480615D01*
X-41847397Y31400248D01*
X-42036566Y31283120D01*
X-42200980Y31133236D01*
X-42200983Y31133233D01*
X-42335056Y30955690D01*
X-42335059Y30955686D01*
X-42434226Y30756533D01*
X-42434229Y30756526D01*
X-42495114Y30542538D01*
X-42495115Y30542532D01*
X-42515642Y30320999D01*
X-42495115Y30099467D01*
X-42495114Y30099461D01*
X-42434229Y29885473D01*
X-42434226Y29885466D01*
X-42335059Y29686313D01*
X-42335058Y29686312D01*
X-42335057Y29686310D01*
X-42327923Y29676863D01*
X-42327921Y29676861D01*
X-42318493Y29640562D01*
X-42337493Y29608229D01*
X-42373792Y29598801D01*
X-42376026Y29599165D01*
X-42449836Y29612962D01*
X-42468758Y29616499D01*
X-42691244Y29616499D01*
X-42783971Y29599166D01*
X-42820666Y29606907D01*
X-42841140Y29638329D01*
X-42833399Y29675024D01*
X-42832109Y29676817D01*
X-42824940Y29686310D01*
X-42725769Y29885471D01*
X-42664883Y30099463D01*
X-42644355Y30320999D01*
X-42664883Y30542535D01*
X-42725769Y30756527D01*
X-42824940Y30955688D01*
X-42891979Y31044462D01*
X-42959015Y31133233D01*
X-42959018Y31133236D01*
X-43123432Y31283120D01*
X-43123435Y31283122D01*
X-43123436Y31283123D01*
X-43312597Y31400246D01*
X-43312600Y31400247D01*
X-43312601Y31400248D01*
X-43445544Y31451750D01*
X-43520058Y31480617D01*
X-43738755Y31521499D01*
X-43961241Y31521499D01*
X-44179938Y31480617D01*
X-44179943Y31480615D01*
X-44387396Y31400248D01*
X-44576565Y31283120D01*
X-44740979Y31133236D01*
X-44740982Y31133233D01*
X-44875055Y30955690D01*
X-44875058Y30955686D01*
X-44974225Y30756533D01*
X-44974228Y30756526D01*
X-45035113Y30542538D01*
X-45035114Y30542532D01*
X-45055641Y30320999D01*
X-45035114Y30099467D01*
X-45035113Y30099461D01*
X-44974228Y29885473D01*
X-44974225Y29885466D01*
X-44875058Y29686313D01*
X-44875057Y29686312D01*
X-44875056Y29686310D01*
X-44867922Y29676863D01*
X-44867920Y29676861D01*
X-44858492Y29640562D01*
X-44877492Y29608229D01*
X-44913791Y29598801D01*
X-44916025Y29599165D01*
X-44989835Y29612962D01*
X-45008757Y29616499D01*
X-45231243Y29616499D01*
X-45323972Y29599166D01*
X-45360667Y29606907D01*
X-45381141Y29638329D01*
X-45373400Y29675024D01*
X-45372110Y29676817D01*
X-45364941Y29686310D01*
X-45265770Y29885471D01*
X-45204884Y30099463D01*
X-45184356Y30320999D01*
X-45204884Y30542535D01*
X-45265770Y30756527D01*
X-45364941Y30955688D01*
X-45431980Y31044462D01*
X-45499016Y31133233D01*
X-45499019Y31133236D01*
X-45663433Y31283120D01*
X-45663436Y31283122D01*
X-45663437Y31283123D01*
X-45852598Y31400246D01*
X-45852601Y31400247D01*
X-45852602Y31400248D01*
X-45985545Y31451750D01*
X-46060059Y31480617D01*
X-46278756Y31521499D01*
X-46501242Y31521499D01*
X-46719939Y31480617D01*
X-46719944Y31480615D01*
X-46927397Y31400248D01*
X-47116566Y31283120D01*
X-47280980Y31133236D01*
X-47280983Y31133233D01*
X-47415056Y30955690D01*
X-47415059Y30955686D01*
X-47514226Y30756533D01*
X-47514229Y30756526D01*
X-47575114Y30542538D01*
X-47575115Y30542532D01*
X-47595642Y30320999D01*
X-47575115Y30099467D01*
X-47575114Y30099461D01*
X-47514229Y29885473D01*
X-47514226Y29885466D01*
X-47415059Y29686313D01*
X-47415058Y29686312D01*
X-47415057Y29686310D01*
X-47407923Y29676863D01*
X-47407921Y29676861D01*
X-47398493Y29640562D01*
X-47417493Y29608229D01*
X-47453792Y29598801D01*
X-47456026Y29599165D01*
X-47527330Y29612494D01*
X-47548757Y29616499D01*
X-47771243Y29616499D01*
X-47863971Y29599166D01*
X-47900666Y29606907D01*
X-47921140Y29638329D01*
X-47913399Y29675024D01*
X-47912109Y29676817D01*
X-47904940Y29686310D01*
X-47805769Y29885471D01*
X-47744883Y30099463D01*
X-47724355Y30320999D01*
X-47744883Y30542535D01*
X-47805769Y30756527D01*
X-47904940Y30955688D01*
X-47971979Y31044462D01*
X-48039015Y31133233D01*
X-48039018Y31133236D01*
X-48203432Y31283120D01*
X-48203435Y31283122D01*
X-48203436Y31283123D01*
X-48392597Y31400246D01*
X-48392600Y31400247D01*
X-48392601Y31400248D01*
X-48525544Y31451750D01*
X-48600058Y31480617D01*
X-48818755Y31521499D01*
X-49041241Y31521499D01*
X-49259938Y31480617D01*
X-49259943Y31480615D01*
X-49467396Y31400248D01*
X-49656565Y31283120D01*
X-49820979Y31133236D01*
X-49820982Y31133233D01*
X-49955055Y30955690D01*
X-49955058Y30955686D01*
X-50054225Y30756533D01*
X-50054228Y30756526D01*
X-50115113Y30542538D01*
X-50115114Y30542532D01*
X-50135641Y30320999D01*
X-50115114Y30099467D01*
X-50115113Y30099461D01*
X-50054228Y29885473D01*
X-50054225Y29885466D01*
X-49955058Y29686313D01*
X-49955057Y29686312D01*
X-49955056Y29686310D01*
X-49947922Y29676863D01*
X-49947920Y29676861D01*
X-49938492Y29640562D01*
X-49957492Y29608229D01*
X-49993791Y29598801D01*
X-49996025Y29599165D01*
X-50088759Y29616499D01*
X-50311245Y29616499D01*
X-50403973Y29599166D01*
X-50440668Y29606907D01*
X-50461142Y29638329D01*
X-50453401Y29675024D01*
X-50452111Y29676817D01*
X-50444942Y29686310D01*
X-50345771Y29885471D01*
X-50284885Y30099463D01*
X-50264357Y30320999D01*
X-50284885Y30542535D01*
X-50345771Y30756527D01*
X-50444942Y30955688D01*
X-50511981Y31044462D01*
X-50579017Y31133233D01*
X-50579020Y31133236D01*
X-50743434Y31283120D01*
X-50743437Y31283122D01*
X-50743438Y31283123D01*
X-50932599Y31400246D01*
X-50932602Y31400247D01*
X-50932603Y31400248D01*
X-51065546Y31451750D01*
X-51140060Y31480617D01*
X-51358757Y31521499D01*
X-51581243Y31521499D01*
X-51799940Y31480617D01*
X-51799945Y31480615D01*
X-52007398Y31400248D01*
X-52196567Y31283120D01*
X-52360981Y31133236D01*
X-52360984Y31133233D01*
X-52495057Y30955690D01*
X-52495060Y30955686D01*
X-52594227Y30756533D01*
X-52594230Y30756526D01*
X-52655115Y30542538D01*
X-52655116Y30542532D01*
X-52675643Y30320999D01*
X-59541240Y30320999D01*
X-59613335Y30369171D01*
X-59877925Y30499652D01*
X-60157284Y30594482D01*
X-60390650Y30640901D01*
X-60446620Y30652033D01*
X-60446622Y30652034D01*
X-60446626Y30652034D01*
X-60740999Y30671328D01*
X-60741001Y30671328D01*
X-61035375Y30652034D01*
X-61324717Y30594482D01*
X-61604079Y30499651D01*
X-61868665Y30369171D01*
X-62113958Y30205273D01*
X-62335758Y30010757D01*
X-62530274Y29788957D01*
X-62694172Y29543664D01*
X-62824652Y29279078D01*
X-62919483Y28999716D01*
X-62977035Y28710374D01*
X-62996329Y28416000D01*
X-74799500Y28416000D01*
X-74799500Y29998797D01*
X-74799441Y30001201D01*
X-74794614Y30099463D01*
X-74781322Y30370023D01*
X-74780854Y30374780D01*
X-74726845Y30738882D01*
X-74725914Y30743564D01*
X-74636480Y31100605D01*
X-74635084Y31105204D01*
X-74571425Y31283119D01*
X-74511083Y31451764D01*
X-74509254Y31456177D01*
X-74351885Y31788907D01*
X-74349637Y31793114D01*
X-74160402Y32108834D01*
X-74157732Y32112827D01*
X-73938478Y32408456D01*
X-73935452Y32412144D01*
X-73688269Y32684869D01*
X-73684868Y32688269D01*
X-73412144Y32935452D01*
X-73408456Y32938478D01*
X-73112823Y33157735D01*
X-73108829Y33160404D01*
X-72793114Y33349637D01*
X-72788907Y33351885D01*
X-72456177Y33509254D01*
X-72451764Y33511083D01*
X-72105202Y33635085D01*
X-72100602Y33636480D01*
X-71743564Y33725914D01*
X-71738882Y33726845D01*
X-71374780Y33780854D01*
X-71370023Y33781322D01*
X-71001201Y33799442D01*
X-70998797Y33799500D01*
X-70960118Y33799500D01*
X-4039882Y33799500D01*
X-4001203Y33799500D01*
X-3998800Y33799442D01*
G37*
G04 #@! TD.AperFunction*
G04 #@! TD*
M02*
