G04 #@! TF.GenerationSoftware,KiCad,Pcbnew,8.0.6*
G04 #@! TF.CreationDate,2024-11-07T02:26:42-08:00*
G04 #@! TF.ProjectId,hvd-50-hd,6876642d-3530-42d6-9864-2e6b69636164,1*
G04 #@! TF.SameCoordinates,Original*
G04 #@! TF.FileFunction,Legend,Bot*
G04 #@! TF.FilePolarity,Positive*
%FSLAX46Y46*%
G04 Gerber Fmt 4.6, Leading zero omitted, Abs format (unit mm)*
G04 Created by KiCad (PCBNEW 8.0.6) date 2024-11-07 02:26:42*
%MOMM*%
%LPD*%
G01*
G04 APERTURE LIST*
%ADD10C,1.350000*%
%ADD11C,0.800000*%
%ADD12C,1.200000*%
%ADD13C,6.500000*%
%ADD14C,1.300000*%
%ADD15C,4.200000*%
%ADD16C,2.300000*%
%ADD17C,2.700000*%
%ADD18C,1.950000*%
G04 APERTURE END LIST*
D10*
X-27162247Y14000000D02*
X-34350001Y21200000D01*
X-44700000Y14000001D02*
X-39900000Y14000001D01*
X-30300001Y14000001D02*
X-37500000Y21200000D01*
X-42300001Y11600000D02*
X-37500000Y6800001D01*
X-37500000Y21200000D02*
X-42300001Y16400001D01*
X-37500000Y6800001D02*
X-30300001Y14000001D01*
X-34350001Y6800001D02*
X-27162247Y14000000D01*
%LPC*%
D11*
G04 #@! TO.C,J1*
X-15400000Y4000000D03*
D12*
X-59600000Y4000000D03*
G04 #@! TD*
D13*
G04 #@! TO.C,H4*
X-4000000Y4000000D03*
G04 #@! TD*
D14*
G04 #@! TO.C,J5*
X-52740001Y24606000D03*
X-51470000Y26511001D03*
X-50200000Y24606000D03*
X-48930001Y26511001D03*
X-47659999Y24606000D03*
X-46390000Y26510998D03*
X-45119999Y24606000D03*
X-43850001Y26511001D03*
X-42579998Y24606000D03*
X-41310001Y26511001D03*
X-40039997Y24606000D03*
X-38770000Y26511001D03*
X-37500000Y24606000D03*
X-36229999Y26510998D03*
X-34959999Y24606000D03*
X-33690000Y26510998D03*
X-32419998Y24606000D03*
X-31149999Y26511001D03*
X-29880001Y24606000D03*
X-28610000Y26511001D03*
X-27340000Y24606000D03*
X-26070000Y26511001D03*
X-24799999Y24606000D03*
X-23530000Y26510998D03*
X-22259999Y24606000D03*
X-52740002Y28416000D03*
X-51470000Y30320999D03*
X-50200002Y28415999D03*
X-48929998Y30320999D03*
X-47660000Y28415999D03*
X-46389999Y30320999D03*
X-45120000Y28415999D03*
X-43849998Y30320999D03*
X-42580001Y28415999D03*
X-41309999Y30320999D03*
X-40040000Y28416000D03*
X-38770000Y30320999D03*
X-37500000Y28415999D03*
X-36229999Y30320999D03*
X-34960002Y28415999D03*
X-33689997Y30320999D03*
X-32420000Y28415999D03*
X-31149999Y30320999D03*
X-29880002Y28416000D03*
X-28610000Y30320998D03*
X-27340002Y28415999D03*
X-26069998Y30320999D03*
X-24800000Y28415999D03*
X-23529999Y30320999D03*
X-22260000Y28415999D03*
D15*
X-14258999Y28415999D03*
X-60741000Y28415999D03*
G04 #@! TD*
D16*
G04 #@! TO.C,J3*
X-72440000Y10870000D03*
D17*
X-69900000Y17340000D03*
D18*
X-72440000Y16010000D03*
X-69900000Y14740000D03*
X-72440000Y13470000D03*
X-69900000Y12200000D03*
G04 #@! TD*
D13*
G04 #@! TO.C,H3*
X-71000000Y4000000D03*
G04 #@! TD*
G36*
X-56961Y21530315D02*
G01*
X-11206Y21477511D01*
X0Y21426000D01*
X0Y12474000D01*
X-19685Y12406961D01*
X-72489Y12361206D01*
X-124000Y12350000D01*
X-2376000Y12350000D01*
X-2443039Y12369685D01*
X-2488794Y12422489D01*
X-2500000Y12474000D01*
X-2500000Y21426000D01*
X-2480315Y21493039D01*
X-2427511Y21538794D01*
X-2376000Y21550000D01*
X-124000Y21550000D01*
X-56961Y21530315D01*
G37*
%LPD*%
M02*
