G04 #@! TF.GenerationSoftware,KiCad,Pcbnew,8.0.6*
G04 #@! TF.CreationDate,2024-11-07T02:27:06-08:00*
G04 #@! TF.ProjectId,hvd-68-vhdci,6876642d-3638-42d7-9668-6463692e6b69,1*
G04 #@! TF.SameCoordinates,Original*
G04 #@! TF.FileFunction,Copper,L5,Inr*
G04 #@! TF.FilePolarity,Positive*
%FSLAX46Y46*%
G04 Gerber Fmt 4.6, Leading zero omitted, Abs format (unit mm)*
G04 Created by KiCad (PCBNEW 8.0.6) date 2024-11-07 02:27:06*
%MOMM*%
%LPD*%
G01*
G04 APERTURE LIST*
%ADD10C,0.300000*%
G04 #@! TA.AperFunction,NonConductor*
%ADD11C,0.300000*%
G04 #@! TD*
G04 #@! TA.AperFunction,ComponentPad*
%ADD12C,1.000000*%
G04 #@! TD*
G04 #@! TA.AperFunction,ComponentPad*
%ADD13O,1.400000X2.250000*%
G04 #@! TD*
G04 #@! TA.AperFunction,ComponentPad*
%ADD14O,1.100000X1.700000*%
G04 #@! TD*
G04 #@! TA.AperFunction,ComponentPad*
%ADD15C,6.400000*%
G04 #@! TD*
G04 #@! TA.AperFunction,ComponentPad*
%ADD16C,1.850000*%
G04 #@! TD*
G04 #@! TA.AperFunction,ViaPad*
%ADD17C,0.450000*%
G04 #@! TD*
G04 #@! TA.AperFunction,ViaPad*
%ADD18C,0.600000*%
G04 #@! TD*
G04 APERTURE END LIST*
D10*
D11*
X-1999172Y19557144D02*
X-1999172Y18842858D01*
X-1999172Y18842858D02*
X-1284886Y18771430D01*
X-1284886Y18771430D02*
X-1356315Y18842858D01*
X-1356315Y18842858D02*
X-1427743Y18985715D01*
X-1427743Y18985715D02*
X-1427743Y19342858D01*
X-1427743Y19342858D02*
X-1356315Y19485715D01*
X-1356315Y19485715D02*
X-1284886Y19557144D01*
X-1284886Y19557144D02*
X-1142029Y19628573D01*
X-1142029Y19628573D02*
X-784886Y19628573D01*
X-784886Y19628573D02*
X-642029Y19557144D01*
X-642029Y19557144D02*
X-570600Y19485715D01*
X-570600Y19485715D02*
X-499172Y19342858D01*
X-499172Y19342858D02*
X-499172Y18985715D01*
X-499172Y18985715D02*
X-570600Y18842858D01*
X-570600Y18842858D02*
X-642029Y18771430D01*
D12*
G04 #@! TO.N,GND*
G04 #@! TO.C,J4*
X-47100000Y26665000D03*
X-36700000Y25515000D03*
X-35100000Y25515000D03*
X-27900000Y26665000D03*
X-47500000Y29015000D03*
X-39500000Y29015000D03*
X-37100000Y27865000D03*
X-35500000Y27865000D03*
X-28300000Y29015000D03*
D13*
G04 #@! TO.N,/SHIELD*
X-16950000Y30395000D03*
D14*
X-21925000Y27765000D03*
X-54275000Y27765000D03*
D13*
X-59250000Y30395000D03*
G04 #@! TD*
D15*
G04 #@! TO.N,GND*
G04 #@! TO.C,H4*
X-4000000Y4000000D03*
G04 #@! TD*
D16*
G04 #@! TO.N,GND*
G04 #@! TO.C,J3*
X-72440000Y13470000D03*
G04 #@! TD*
D15*
G04 #@! TO.N,GND*
G04 #@! TO.C,H3*
X-71000000Y4000000D03*
G04 #@! TD*
D17*
G04 #@! TO.N,GND*
X-46700000Y7600000D03*
X-20300000Y5400000D03*
X-22700000Y1800000D03*
X-49100000Y1800000D03*
X-53900000Y1000000D03*
X-29900000Y2600000D03*
X-49100000Y7600000D03*
X-39500000Y6200000D03*
X-39500000Y1800000D03*
X-44300000Y7000000D03*
X-49100000Y6200000D03*
X-37100000Y3200000D03*
X-41900000Y3200000D03*
X-64650000Y4000000D03*
X-46700000Y6200000D03*
X-51500000Y2600000D03*
X-27500000Y2600000D03*
X-39500000Y7000000D03*
X-32300000Y1800000D03*
X-53900000Y5400000D03*
X-20300000Y1800000D03*
X-53900000Y2600000D03*
X-37100000Y5400000D03*
X-63600000Y4000000D03*
X-25100000Y7000000D03*
X-39500000Y5400000D03*
X-27500000Y7600000D03*
X-17900000Y3200000D03*
X-33900000Y1000000D03*
X-41900000Y1000000D03*
X-64100000Y4500000D03*
X-33900000Y2600000D03*
X-49100000Y2600000D03*
X-33900000Y6200000D03*
X-51500000Y5400000D03*
X-44300000Y6200000D03*
X-27500000Y6200000D03*
X-39500000Y1000000D03*
X-25100000Y1800000D03*
X-53900000Y3200000D03*
X-41900000Y7000000D03*
X-53900000Y7000000D03*
X-41900000Y6200000D03*
X-27500000Y5400000D03*
X-54700000Y6200000D03*
X-29900000Y1000000D03*
X-20300000Y1000000D03*
X-53900000Y1800000D03*
X-51500000Y6200000D03*
X-20300000Y2600000D03*
X-22700000Y1000000D03*
X-39500000Y7600000D03*
D18*
X-11200000Y31100000D03*
D17*
X-44300000Y5400000D03*
X-33900000Y1800000D03*
X-32300000Y5400000D03*
X-20300000Y6200000D03*
X-46700000Y3200000D03*
X-37100000Y6200000D03*
X-25100000Y2600000D03*
X-20300000Y3200000D03*
X-37100000Y7000000D03*
X-22700000Y7600000D03*
X-39500000Y2600000D03*
X-25100000Y6200000D03*
X-33900000Y7000000D03*
X-27500000Y3200000D03*
X-51500000Y7000000D03*
X-54700000Y7000000D03*
X-29900000Y7000000D03*
X-39500000Y3200000D03*
X-44300000Y1800000D03*
X-20300000Y7600000D03*
X-22700000Y2600000D03*
X-17900000Y5400000D03*
X-25100000Y3200000D03*
X-17900000Y7600000D03*
X-41900000Y2600000D03*
X-17900000Y7000000D03*
X-44300000Y1000000D03*
X-32300000Y7000000D03*
X-51500000Y3200000D03*
X-51500000Y1800000D03*
X-54700000Y5400000D03*
X-32300000Y3200000D03*
X-22700000Y6200000D03*
X-57100000Y5400000D03*
X-37100000Y1800000D03*
X-46700000Y1000000D03*
X-25100000Y1000000D03*
X-32300000Y2600000D03*
X-44300000Y2600000D03*
X-44300000Y3200000D03*
X-46700000Y5400000D03*
X-54700000Y1800000D03*
X-22700000Y7000000D03*
X-46700000Y2600000D03*
X-37100000Y1000000D03*
X-29900000Y3200000D03*
X-37100000Y2600000D03*
X-51500000Y1000000D03*
X-17900000Y1000000D03*
X-20300000Y7000000D03*
X-57100000Y6200000D03*
X-32300000Y1000000D03*
X-33900000Y5400000D03*
X-46700000Y1800000D03*
X-29900000Y5400000D03*
X-27500000Y1800000D03*
X-41900000Y1800000D03*
X-53900000Y6200000D03*
X-41900000Y5400000D03*
X-29900000Y6200000D03*
X-49100000Y5400000D03*
X-51500000Y7600000D03*
X-29900000Y7600000D03*
X-54700000Y2600000D03*
X-22700000Y3200000D03*
X-49100000Y7000000D03*
X-49100000Y1000000D03*
X-33900000Y7600000D03*
X-49100000Y3200000D03*
X-37100000Y7600000D03*
X-41900000Y7600000D03*
X-46700000Y7000000D03*
X-29900000Y1800000D03*
D18*
X-11200000Y29800000D03*
D17*
X-32300000Y7600000D03*
X-25100000Y5400000D03*
X-64100000Y3500000D03*
X-32300000Y6200000D03*
X-17900000Y6200000D03*
X-27500000Y1000000D03*
X-57100000Y7000000D03*
X-22700000Y5400000D03*
X-17900000Y2600000D03*
X-54700000Y1000000D03*
X-53900000Y7600000D03*
X-25100000Y7600000D03*
X-17900000Y1800000D03*
X-33900000Y3200000D03*
X-27500000Y7000000D03*
X-66050000Y3150000D03*
X-44300000Y7600000D03*
G04 #@! TO.N,/PHY.ID_SCL*
X-67200000Y12150000D03*
X-63000000Y8500000D03*
G04 #@! TO.N,+3V3*
X-67200000Y16500000D03*
X-67200000Y10500000D03*
X-66050000Y4850000D03*
X-62150000Y4850000D03*
G04 #@! TO.N,/PHY.ID_SDA*
X-67200000Y14750000D03*
X-62400000Y7900000D03*
G04 #@! TO.N,/CON.DIFFSENSE*
X-36300000Y3200000D03*
X-39100000Y25000000D03*
G04 #@! TD*
G04 #@! TA.AperFunction,Conductor*
G04 #@! TO.N,GND*
G36*
X-3998800Y33799442D02*
G01*
X-3629980Y33781322D01*
X-3625219Y33780854D01*
X-3261123Y33726846D01*
X-3256433Y33725913D01*
X-2963065Y33652428D01*
X-2899399Y33636480D01*
X-2894797Y33635084D01*
X-2781323Y33594483D01*
X-2548244Y33511085D01*
X-2543817Y33509251D01*
X-2211103Y33351889D01*
X-2206878Y33349632D01*
X-2015692Y33235039D01*
X-1891172Y33160404D01*
X-1887174Y33157732D01*
X-1739367Y33048111D01*
X-1591555Y32938486D01*
X-1587843Y32935440D01*
X-1315133Y32688269D01*
X-1311732Y32684868D01*
X-1064561Y32412158D01*
X-1061511Y32408441D01*
X-842269Y32112827D01*
X-839597Y32108829D01*
X-650374Y31793131D01*
X-648108Y31788890D01*
X-490754Y31456192D01*
X-488913Y31451750D01*
X-364917Y31105204D01*
X-363521Y31100602D01*
X-274091Y30743581D01*
X-273153Y30738865D01*
X-219149Y30374794D01*
X-218678Y30370008D01*
X-200559Y30001201D01*
X-200500Y29998797D01*
X-200500Y21599000D01*
X-214852Y21564352D01*
X-249500Y21550000D01*
X-2500000Y21550000D01*
X-2500000Y12350000D01*
X-249500Y12350000D01*
X-214852Y12335648D01*
X-200500Y12301000D01*
X-200500Y4001204D01*
X-200559Y3998800D01*
X-218678Y3629993D01*
X-219149Y3625207D01*
X-273153Y3261136D01*
X-274091Y3256420D01*
X-363521Y2899399D01*
X-364917Y2894797D01*
X-488913Y2548251D01*
X-490754Y2543809D01*
X-648108Y2211111D01*
X-650374Y2206870D01*
X-839597Y1891172D01*
X-842269Y1887174D01*
X-1061511Y1591560D01*
X-1064561Y1587843D01*
X-1311732Y1315133D01*
X-1315133Y1311732D01*
X-1587843Y1064561D01*
X-1591560Y1061511D01*
X-1887174Y842269D01*
X-1891172Y839597D01*
X-2206870Y650374D01*
X-2211111Y648108D01*
X-2543809Y490754D01*
X-2548251Y488913D01*
X-2894797Y364917D01*
X-2899399Y363521D01*
X-3256420Y274091D01*
X-3261136Y273153D01*
X-3625207Y219149D01*
X-3629993Y218678D01*
X-3998799Y200559D01*
X-4001203Y200500D01*
X-70998797Y200500D01*
X-71001201Y200559D01*
X-71370008Y218678D01*
X-71374794Y219149D01*
X-71738865Y273153D01*
X-71743581Y274091D01*
X-72100602Y363521D01*
X-72105204Y364917D01*
X-72451750Y488913D01*
X-72456192Y490754D01*
X-72788890Y648108D01*
X-72793131Y650374D01*
X-73108829Y839597D01*
X-73112827Y842269D01*
X-73325506Y1000002D01*
X-56531957Y1000002D01*
X-56531957Y999999D01*
X-56514301Y911236D01*
X-56464019Y835982D01*
X-56426392Y810841D01*
X-56388766Y785700D01*
X-56359178Y779815D01*
X-56300002Y768043D01*
X-56300000Y768043D01*
X-56299998Y768043D01*
X-56255617Y776872D01*
X-56211234Y785700D01*
X-56135982Y835982D01*
X-56085700Y911234D01*
X-56068043Y1000000D01*
X-56085700Y1088766D01*
X-56110841Y1126392D01*
X-56135982Y1164019D01*
X-56192295Y1201645D01*
X-56211234Y1214300D01*
X-56211235Y1214301D01*
X-56211236Y1214301D01*
X-56299998Y1231957D01*
X-56300002Y1231957D01*
X-56388765Y1214301D01*
X-56464019Y1164019D01*
X-56514301Y1088765D01*
X-56531957Y1000002D01*
X-73325506Y1000002D01*
X-73408441Y1061511D01*
X-73412158Y1064561D01*
X-73684868Y1311732D01*
X-73688269Y1315133D01*
X-73917494Y1568043D01*
X-73935443Y1587847D01*
X-73938490Y1591560D01*
X-73971436Y1635982D01*
X-74093079Y1799999D01*
X-74093081Y1800002D01*
X-56531957Y1800002D01*
X-56531957Y1799999D01*
X-56514301Y1711236D01*
X-56464019Y1635982D01*
X-56445501Y1623609D01*
X-56388766Y1585700D01*
X-56359178Y1579815D01*
X-56300002Y1568043D01*
X-56300000Y1568043D01*
X-56299998Y1568043D01*
X-56255617Y1576872D01*
X-56211234Y1585700D01*
X-56135982Y1635982D01*
X-56085700Y1711234D01*
X-56068043Y1800000D01*
X-56085700Y1888766D01*
X-56129177Y1953834D01*
X-56135982Y1964019D01*
X-56192295Y2001645D01*
X-56211234Y2014300D01*
X-56211235Y2014301D01*
X-56211236Y2014301D01*
X-56299998Y2031957D01*
X-56300002Y2031957D01*
X-56388765Y2014301D01*
X-56464019Y1964019D01*
X-56514301Y1888765D01*
X-56531957Y1800002D01*
X-74093081Y1800002D01*
X-74157732Y1887174D01*
X-74160404Y1891172D01*
X-74244788Y2031957D01*
X-74349632Y2206878D01*
X-74351889Y2211103D01*
X-74509251Y2543817D01*
X-74511088Y2548251D01*
X-74529604Y2599999D01*
X-74529605Y2600002D01*
X-56531957Y2600002D01*
X-56531957Y2599999D01*
X-56514301Y2511236D01*
X-56464019Y2435982D01*
X-56426392Y2410841D01*
X-56388766Y2385700D01*
X-56359178Y2379815D01*
X-56300002Y2368043D01*
X-56300000Y2368043D01*
X-56299998Y2368043D01*
X-56255617Y2376872D01*
X-56211234Y2385700D01*
X-56135982Y2435982D01*
X-56085700Y2511234D01*
X-56068043Y2600000D01*
X-56085700Y2688766D01*
X-56110841Y2726392D01*
X-56135982Y2764019D01*
X-56192295Y2801645D01*
X-56211234Y2814300D01*
X-56211235Y2814301D01*
X-56211236Y2814301D01*
X-56299998Y2831957D01*
X-56300002Y2831957D01*
X-56388765Y2814301D01*
X-56464019Y2764019D01*
X-56514301Y2688765D01*
X-56531957Y2600002D01*
X-74529605Y2600002D01*
X-74635084Y2894797D01*
X-74636480Y2899399D01*
X-74659231Y2990226D01*
X-74711778Y3200002D01*
X-53331957Y3200002D01*
X-53331957Y3199999D01*
X-53314301Y3111236D01*
X-53264019Y3035982D01*
X-53226392Y3010841D01*
X-53188766Y2985700D01*
X-53159178Y2979815D01*
X-53100002Y2968043D01*
X-53100000Y2968043D01*
X-53099998Y2968043D01*
X-53055617Y2976872D01*
X-53011234Y2985700D01*
X-52935982Y3035982D01*
X-52885700Y3111234D01*
X-52868043Y3200000D01*
X-52868043Y3200002D01*
X-52531957Y3200002D01*
X-52531957Y3199999D01*
X-52514301Y3111236D01*
X-52464019Y3035982D01*
X-52426392Y3010841D01*
X-52388766Y2985700D01*
X-52359178Y2979815D01*
X-52300002Y2968043D01*
X-52300000Y2968043D01*
X-52299998Y2968043D01*
X-52255617Y2976872D01*
X-52211234Y2985700D01*
X-52135982Y3035982D01*
X-52085700Y3111234D01*
X-52068043Y3200000D01*
X-52068043Y3200002D01*
X-50931957Y3200002D01*
X-50931957Y3199999D01*
X-50914301Y3111236D01*
X-50864019Y3035982D01*
X-50826392Y3010841D01*
X-50788766Y2985700D01*
X-50759178Y2979815D01*
X-50700002Y2968043D01*
X-50700000Y2968043D01*
X-50699998Y2968043D01*
X-50655617Y2976872D01*
X-50611234Y2985700D01*
X-50535982Y3035982D01*
X-50485700Y3111234D01*
X-50468043Y3200000D01*
X-50468043Y3200002D01*
X-50131957Y3200002D01*
X-50131957Y3199999D01*
X-50114301Y3111236D01*
X-50064019Y3035982D01*
X-50026392Y3010841D01*
X-49988766Y2985700D01*
X-49959178Y2979815D01*
X-49900002Y2968043D01*
X-49900000Y2968043D01*
X-49899998Y2968043D01*
X-49855617Y2976872D01*
X-49811234Y2985700D01*
X-49735982Y3035982D01*
X-49685700Y3111234D01*
X-49668043Y3200000D01*
X-49668043Y3200002D01*
X-48531957Y3200002D01*
X-48531957Y3199999D01*
X-48514301Y3111236D01*
X-48464019Y3035982D01*
X-48426392Y3010841D01*
X-48388766Y2985700D01*
X-48359178Y2979815D01*
X-48300002Y2968043D01*
X-48300000Y2968043D01*
X-48299998Y2968043D01*
X-48255617Y2976872D01*
X-48211234Y2985700D01*
X-48135982Y3035982D01*
X-48085700Y3111234D01*
X-48068043Y3200000D01*
X-48068043Y3200002D01*
X-47731957Y3200002D01*
X-47731957Y3199999D01*
X-47714301Y3111236D01*
X-47664019Y3035982D01*
X-47626392Y3010841D01*
X-47588766Y2985700D01*
X-47559178Y2979815D01*
X-47500002Y2968043D01*
X-47500000Y2968043D01*
X-47499998Y2968043D01*
X-47455617Y2976872D01*
X-47411234Y2985700D01*
X-47335982Y3035982D01*
X-47285700Y3111234D01*
X-47268043Y3200000D01*
X-47268043Y3200002D01*
X-46131957Y3200002D01*
X-46131957Y3199999D01*
X-46114301Y3111236D01*
X-46064019Y3035982D01*
X-46026392Y3010841D01*
X-45988766Y2985700D01*
X-45959178Y2979815D01*
X-45900002Y2968043D01*
X-45900000Y2968043D01*
X-45899998Y2968043D01*
X-45855617Y2976872D01*
X-45811234Y2985700D01*
X-45735982Y3035982D01*
X-45685700Y3111234D01*
X-45668043Y3200000D01*
X-45668043Y3200002D01*
X-45331957Y3200002D01*
X-45331957Y3199999D01*
X-45314301Y3111236D01*
X-45264019Y3035982D01*
X-45226392Y3010841D01*
X-45188766Y2985700D01*
X-45159178Y2979815D01*
X-45100002Y2968043D01*
X-45100000Y2968043D01*
X-45099998Y2968043D01*
X-45055617Y2976872D01*
X-45011234Y2985700D01*
X-44935982Y3035982D01*
X-44885700Y3111234D01*
X-44868043Y3200000D01*
X-44868043Y3200002D01*
X-43731957Y3200002D01*
X-43731957Y3199999D01*
X-43714301Y3111236D01*
X-43664019Y3035982D01*
X-43626392Y3010841D01*
X-43588766Y2985700D01*
X-43559178Y2979815D01*
X-43500002Y2968043D01*
X-43500000Y2968043D01*
X-43499998Y2968043D01*
X-43455617Y2976872D01*
X-43411234Y2985700D01*
X-43335982Y3035982D01*
X-43285700Y3111234D01*
X-43268043Y3200000D01*
X-43268043Y3200002D01*
X-42931957Y3200002D01*
X-42931957Y3199999D01*
X-42914301Y3111236D01*
X-42864019Y3035982D01*
X-42826392Y3010841D01*
X-42788766Y2985700D01*
X-42759178Y2979815D01*
X-42700002Y2968043D01*
X-42700000Y2968043D01*
X-42699998Y2968043D01*
X-42655617Y2976872D01*
X-42611234Y2985700D01*
X-42535982Y3035982D01*
X-42485700Y3111234D01*
X-42468043Y3200000D01*
X-42468043Y3200002D01*
X-41331957Y3200002D01*
X-41331957Y3199999D01*
X-41314301Y3111236D01*
X-41264019Y3035982D01*
X-41226392Y3010841D01*
X-41188766Y2985700D01*
X-41159178Y2979815D01*
X-41100002Y2968043D01*
X-41100000Y2968043D01*
X-41099998Y2968043D01*
X-41055617Y2976872D01*
X-41011234Y2985700D01*
X-40935982Y3035982D01*
X-40885700Y3111234D01*
X-40868043Y3200000D01*
X-40868043Y3200002D01*
X-40531957Y3200002D01*
X-40531957Y3199999D01*
X-40514301Y3111236D01*
X-40464019Y3035982D01*
X-40426392Y3010841D01*
X-40388766Y2985700D01*
X-40359178Y2979815D01*
X-40300002Y2968043D01*
X-40300000Y2968043D01*
X-40299998Y2968043D01*
X-40255617Y2976872D01*
X-40211234Y2985700D01*
X-40135982Y3035982D01*
X-40085700Y3111234D01*
X-40068043Y3200000D01*
X-40068043Y3200002D01*
X-38931957Y3200002D01*
X-38931957Y3199999D01*
X-38914301Y3111236D01*
X-38864019Y3035982D01*
X-38826392Y3010841D01*
X-38788766Y2985700D01*
X-38759178Y2979815D01*
X-38700002Y2968043D01*
X-38700000Y2968043D01*
X-38699998Y2968043D01*
X-38655617Y2976872D01*
X-38611234Y2985700D01*
X-38535982Y3035982D01*
X-38485700Y3111234D01*
X-38468043Y3200000D01*
X-38468043Y3200002D01*
X-38131957Y3200002D01*
X-38131957Y3199999D01*
X-38114301Y3111236D01*
X-38064019Y3035982D01*
X-38026392Y3010841D01*
X-37988766Y2985700D01*
X-37959178Y2979815D01*
X-37900002Y2968043D01*
X-37900000Y2968043D01*
X-37899998Y2968043D01*
X-37855617Y2976872D01*
X-37811234Y2985700D01*
X-37735982Y3035982D01*
X-37685700Y3111234D01*
X-37668043Y3200000D01*
X-36656894Y3200000D01*
X-36639426Y3089714D01*
X-36612049Y3035982D01*
X-36588733Y2990223D01*
X-36509777Y2911267D01*
X-36410286Y2860574D01*
X-36300000Y2843106D01*
X-36189714Y2860574D01*
X-36090223Y2911267D01*
X-36011267Y2990223D01*
X-35960574Y3089714D01*
X-35943106Y3200000D01*
X-35943106Y3200002D01*
X-33331957Y3200002D01*
X-33331957Y3199999D01*
X-33314301Y3111236D01*
X-33264019Y3035982D01*
X-33226392Y3010841D01*
X-33188766Y2985700D01*
X-33159178Y2979815D01*
X-33100002Y2968043D01*
X-33100000Y2968043D01*
X-33099998Y2968043D01*
X-33055617Y2976872D01*
X-33011234Y2985700D01*
X-32935982Y3035982D01*
X-32885700Y3111234D01*
X-32868043Y3200000D01*
X-32868043Y3200002D01*
X-31731957Y3200002D01*
X-31731957Y3199999D01*
X-31714301Y3111236D01*
X-31664019Y3035982D01*
X-31626392Y3010841D01*
X-31588766Y2985700D01*
X-31559178Y2979815D01*
X-31500002Y2968043D01*
X-31500000Y2968043D01*
X-31499998Y2968043D01*
X-31455617Y2976872D01*
X-31411234Y2985700D01*
X-31335982Y3035982D01*
X-31285700Y3111234D01*
X-31268043Y3200000D01*
X-31268043Y3200002D01*
X-30931957Y3200002D01*
X-30931957Y3199999D01*
X-30914301Y3111236D01*
X-30864019Y3035982D01*
X-30826392Y3010841D01*
X-30788766Y2985700D01*
X-30759178Y2979815D01*
X-30700002Y2968043D01*
X-30700000Y2968043D01*
X-30699998Y2968043D01*
X-30655617Y2976872D01*
X-30611234Y2985700D01*
X-30535982Y3035982D01*
X-30485700Y3111234D01*
X-30468043Y3200000D01*
X-30468043Y3200002D01*
X-29331957Y3200002D01*
X-29331957Y3199999D01*
X-29314301Y3111236D01*
X-29264019Y3035982D01*
X-29226392Y3010841D01*
X-29188766Y2985700D01*
X-29159178Y2979815D01*
X-29100002Y2968043D01*
X-29100000Y2968043D01*
X-29099998Y2968043D01*
X-29055617Y2976872D01*
X-29011234Y2985700D01*
X-28935982Y3035982D01*
X-28885700Y3111234D01*
X-28868043Y3200000D01*
X-28868043Y3200002D01*
X-28531957Y3200002D01*
X-28531957Y3199999D01*
X-28514301Y3111236D01*
X-28464019Y3035982D01*
X-28426392Y3010841D01*
X-28388766Y2985700D01*
X-28359178Y2979815D01*
X-28300002Y2968043D01*
X-28300000Y2968043D01*
X-28299998Y2968043D01*
X-28255617Y2976872D01*
X-28211234Y2985700D01*
X-28135982Y3035982D01*
X-28085700Y3111234D01*
X-28068043Y3200000D01*
X-28068043Y3200002D01*
X-26931957Y3200002D01*
X-26931957Y3199999D01*
X-26914301Y3111236D01*
X-26864019Y3035982D01*
X-26826392Y3010841D01*
X-26788766Y2985700D01*
X-26759178Y2979815D01*
X-26700002Y2968043D01*
X-26700000Y2968043D01*
X-26699998Y2968043D01*
X-26655617Y2976872D01*
X-26611234Y2985700D01*
X-26535982Y3035982D01*
X-26485700Y3111234D01*
X-26468043Y3200000D01*
X-26468043Y3200002D01*
X-26131957Y3200002D01*
X-26131957Y3199999D01*
X-26114301Y3111236D01*
X-26064019Y3035982D01*
X-26026392Y3010841D01*
X-25988766Y2985700D01*
X-25959178Y2979815D01*
X-25900002Y2968043D01*
X-25900000Y2968043D01*
X-25899998Y2968043D01*
X-25855617Y2976872D01*
X-25811234Y2985700D01*
X-25735982Y3035982D01*
X-25685700Y3111234D01*
X-25668043Y3200000D01*
X-25668043Y3200002D01*
X-24531957Y3200002D01*
X-24531957Y3199999D01*
X-24514301Y3111236D01*
X-24464019Y3035982D01*
X-24426392Y3010841D01*
X-24388766Y2985700D01*
X-24359178Y2979815D01*
X-24300002Y2968043D01*
X-24300000Y2968043D01*
X-24299998Y2968043D01*
X-24255617Y2976872D01*
X-24211234Y2985700D01*
X-24135982Y3035982D01*
X-24085700Y3111234D01*
X-24068043Y3200000D01*
X-24068043Y3200002D01*
X-23731957Y3200002D01*
X-23731957Y3199999D01*
X-23714301Y3111236D01*
X-23664019Y3035982D01*
X-23626392Y3010841D01*
X-23588766Y2985700D01*
X-23559178Y2979815D01*
X-23500002Y2968043D01*
X-23500000Y2968043D01*
X-23499998Y2968043D01*
X-23455617Y2976872D01*
X-23411234Y2985700D01*
X-23335982Y3035982D01*
X-23285700Y3111234D01*
X-23268043Y3200000D01*
X-23268043Y3200002D01*
X-22131957Y3200002D01*
X-22131957Y3199999D01*
X-22114301Y3111236D01*
X-22064019Y3035982D01*
X-22026392Y3010841D01*
X-21988766Y2985700D01*
X-21959178Y2979815D01*
X-21900002Y2968043D01*
X-21900000Y2968043D01*
X-21899998Y2968043D01*
X-21855617Y2976872D01*
X-21811234Y2985700D01*
X-21735982Y3035982D01*
X-21685700Y3111234D01*
X-21668043Y3200000D01*
X-21668043Y3200002D01*
X-21331957Y3200002D01*
X-21331957Y3199999D01*
X-21314301Y3111236D01*
X-21264019Y3035982D01*
X-21226392Y3010841D01*
X-21188766Y2985700D01*
X-21159178Y2979815D01*
X-21100002Y2968043D01*
X-21100000Y2968043D01*
X-21099998Y2968043D01*
X-21055617Y2976872D01*
X-21011234Y2985700D01*
X-20935982Y3035982D01*
X-20885700Y3111234D01*
X-20868043Y3200000D01*
X-20868043Y3200002D01*
X-19731957Y3200002D01*
X-19731957Y3199999D01*
X-19714301Y3111236D01*
X-19664019Y3035982D01*
X-19626392Y3010841D01*
X-19588766Y2985700D01*
X-19559178Y2979815D01*
X-19500002Y2968043D01*
X-19500000Y2968043D01*
X-19499998Y2968043D01*
X-19455617Y2976872D01*
X-19411234Y2985700D01*
X-19335982Y3035982D01*
X-19285700Y3111234D01*
X-19268043Y3200000D01*
X-19268043Y3200002D01*
X-18931957Y3200002D01*
X-18931957Y3199999D01*
X-18914301Y3111236D01*
X-18864019Y3035982D01*
X-18826392Y3010841D01*
X-18788766Y2985700D01*
X-18759178Y2979815D01*
X-18700002Y2968043D01*
X-18700000Y2968043D01*
X-18699998Y2968043D01*
X-18655617Y2976872D01*
X-18611234Y2985700D01*
X-18535982Y3035982D01*
X-18485700Y3111234D01*
X-18468043Y3200000D01*
X-18485700Y3288766D01*
X-18510841Y3326392D01*
X-18535982Y3364019D01*
X-18604465Y3409777D01*
X-18611234Y3414300D01*
X-18611235Y3414301D01*
X-18611236Y3414301D01*
X-18699998Y3431957D01*
X-18700002Y3431957D01*
X-18788765Y3414301D01*
X-18864019Y3364019D01*
X-18914301Y3288765D01*
X-18931957Y3200002D01*
X-19268043Y3200002D01*
X-19285700Y3288766D01*
X-19310841Y3326392D01*
X-19335982Y3364019D01*
X-19404465Y3409777D01*
X-19411234Y3414300D01*
X-19411235Y3414301D01*
X-19411236Y3414301D01*
X-19499998Y3431957D01*
X-19500002Y3431957D01*
X-19588765Y3414301D01*
X-19664019Y3364019D01*
X-19714301Y3288765D01*
X-19731957Y3200002D01*
X-20868043Y3200002D01*
X-20885700Y3288766D01*
X-20910841Y3326392D01*
X-20935982Y3364019D01*
X-21004465Y3409777D01*
X-21011234Y3414300D01*
X-21011235Y3414301D01*
X-21011236Y3414301D01*
X-21099998Y3431957D01*
X-21100002Y3431957D01*
X-21188765Y3414301D01*
X-21264019Y3364019D01*
X-21314301Y3288765D01*
X-21331957Y3200002D01*
X-21668043Y3200002D01*
X-21685700Y3288766D01*
X-21710841Y3326392D01*
X-21735982Y3364019D01*
X-21804465Y3409777D01*
X-21811234Y3414300D01*
X-21811235Y3414301D01*
X-21811236Y3414301D01*
X-21899998Y3431957D01*
X-21900002Y3431957D01*
X-21988765Y3414301D01*
X-22064019Y3364019D01*
X-22114301Y3288765D01*
X-22131957Y3200002D01*
X-23268043Y3200002D01*
X-23285700Y3288766D01*
X-23310841Y3326392D01*
X-23335982Y3364019D01*
X-23404465Y3409777D01*
X-23411234Y3414300D01*
X-23411235Y3414301D01*
X-23411236Y3414301D01*
X-23499998Y3431957D01*
X-23500002Y3431957D01*
X-23588765Y3414301D01*
X-23664019Y3364019D01*
X-23714301Y3288765D01*
X-23731957Y3200002D01*
X-24068043Y3200002D01*
X-24085700Y3288766D01*
X-24110841Y3326392D01*
X-24135982Y3364019D01*
X-24204465Y3409777D01*
X-24211234Y3414300D01*
X-24211235Y3414301D01*
X-24211236Y3414301D01*
X-24299998Y3431957D01*
X-24300002Y3431957D01*
X-24388765Y3414301D01*
X-24464019Y3364019D01*
X-24514301Y3288765D01*
X-24531957Y3200002D01*
X-25668043Y3200002D01*
X-25685700Y3288766D01*
X-25710841Y3326392D01*
X-25735982Y3364019D01*
X-25804465Y3409777D01*
X-25811234Y3414300D01*
X-25811235Y3414301D01*
X-25811236Y3414301D01*
X-25899998Y3431957D01*
X-25900002Y3431957D01*
X-25988765Y3414301D01*
X-26064019Y3364019D01*
X-26114301Y3288765D01*
X-26131957Y3200002D01*
X-26468043Y3200002D01*
X-26485700Y3288766D01*
X-26510841Y3326392D01*
X-26535982Y3364019D01*
X-26604465Y3409777D01*
X-26611234Y3414300D01*
X-26611235Y3414301D01*
X-26611236Y3414301D01*
X-26699998Y3431957D01*
X-26700002Y3431957D01*
X-26788765Y3414301D01*
X-26864019Y3364019D01*
X-26914301Y3288765D01*
X-26931957Y3200002D01*
X-28068043Y3200002D01*
X-28085700Y3288766D01*
X-28110841Y3326392D01*
X-28135982Y3364019D01*
X-28204465Y3409777D01*
X-28211234Y3414300D01*
X-28211235Y3414301D01*
X-28211236Y3414301D01*
X-28299998Y3431957D01*
X-28300002Y3431957D01*
X-28388765Y3414301D01*
X-28464019Y3364019D01*
X-28514301Y3288765D01*
X-28531957Y3200002D01*
X-28868043Y3200002D01*
X-28885700Y3288766D01*
X-28910841Y3326392D01*
X-28935982Y3364019D01*
X-29004465Y3409777D01*
X-29011234Y3414300D01*
X-29011235Y3414301D01*
X-29011236Y3414301D01*
X-29099998Y3431957D01*
X-29100002Y3431957D01*
X-29188765Y3414301D01*
X-29264019Y3364019D01*
X-29314301Y3288765D01*
X-29331957Y3200002D01*
X-30468043Y3200002D01*
X-30485700Y3288766D01*
X-30510841Y3326392D01*
X-30535982Y3364019D01*
X-30604465Y3409777D01*
X-30611234Y3414300D01*
X-30611235Y3414301D01*
X-30611236Y3414301D01*
X-30699998Y3431957D01*
X-30700002Y3431957D01*
X-30788765Y3414301D01*
X-30864019Y3364019D01*
X-30914301Y3288765D01*
X-30931957Y3200002D01*
X-31268043Y3200002D01*
X-31285700Y3288766D01*
X-31310841Y3326392D01*
X-31335982Y3364019D01*
X-31404465Y3409777D01*
X-31411234Y3414300D01*
X-31411235Y3414301D01*
X-31411236Y3414301D01*
X-31499998Y3431957D01*
X-31500002Y3431957D01*
X-31588765Y3414301D01*
X-31664019Y3364019D01*
X-31714301Y3288765D01*
X-31731957Y3200002D01*
X-32868043Y3200002D01*
X-32885700Y3288766D01*
X-32910841Y3326392D01*
X-32935982Y3364019D01*
X-33004465Y3409777D01*
X-33011234Y3414300D01*
X-33011235Y3414301D01*
X-33011236Y3414301D01*
X-33099998Y3431957D01*
X-33100002Y3431957D01*
X-33188765Y3414301D01*
X-33264019Y3364019D01*
X-33314301Y3288765D01*
X-33331957Y3200002D01*
X-35943106Y3200002D01*
X-35960574Y3310286D01*
X-36011267Y3409777D01*
X-36090223Y3488733D01*
X-36090226Y3488735D01*
X-36189714Y3539426D01*
X-36300000Y3556894D01*
X-36410287Y3539426D01*
X-36509775Y3488735D01*
X-36509778Y3488733D01*
X-36588733Y3409778D01*
X-36588735Y3409775D01*
X-36639426Y3310287D01*
X-36656894Y3200000D01*
X-37668043Y3200000D01*
X-37685700Y3288766D01*
X-37710841Y3326392D01*
X-37735982Y3364019D01*
X-37804465Y3409777D01*
X-37811234Y3414300D01*
X-37811235Y3414301D01*
X-37811236Y3414301D01*
X-37899998Y3431957D01*
X-37900002Y3431957D01*
X-37988765Y3414301D01*
X-38064019Y3364019D01*
X-38114301Y3288765D01*
X-38131957Y3200002D01*
X-38468043Y3200002D01*
X-38485700Y3288766D01*
X-38510841Y3326392D01*
X-38535982Y3364019D01*
X-38604465Y3409777D01*
X-38611234Y3414300D01*
X-38611235Y3414301D01*
X-38611236Y3414301D01*
X-38699998Y3431957D01*
X-38700002Y3431957D01*
X-38788765Y3414301D01*
X-38864019Y3364019D01*
X-38914301Y3288765D01*
X-38931957Y3200002D01*
X-40068043Y3200002D01*
X-40085700Y3288766D01*
X-40110841Y3326392D01*
X-40135982Y3364019D01*
X-40204465Y3409777D01*
X-40211234Y3414300D01*
X-40211235Y3414301D01*
X-40211236Y3414301D01*
X-40299998Y3431957D01*
X-40300002Y3431957D01*
X-40388765Y3414301D01*
X-40464019Y3364019D01*
X-40514301Y3288765D01*
X-40531957Y3200002D01*
X-40868043Y3200002D01*
X-40885700Y3288766D01*
X-40910841Y3326392D01*
X-40935982Y3364019D01*
X-41004465Y3409777D01*
X-41011234Y3414300D01*
X-41011235Y3414301D01*
X-41011236Y3414301D01*
X-41099998Y3431957D01*
X-41100002Y3431957D01*
X-41188765Y3414301D01*
X-41264019Y3364019D01*
X-41314301Y3288765D01*
X-41331957Y3200002D01*
X-42468043Y3200002D01*
X-42485700Y3288766D01*
X-42510841Y3326392D01*
X-42535982Y3364019D01*
X-42604465Y3409777D01*
X-42611234Y3414300D01*
X-42611235Y3414301D01*
X-42611236Y3414301D01*
X-42699998Y3431957D01*
X-42700002Y3431957D01*
X-42788765Y3414301D01*
X-42864019Y3364019D01*
X-42914301Y3288765D01*
X-42931957Y3200002D01*
X-43268043Y3200002D01*
X-43285700Y3288766D01*
X-43310841Y3326392D01*
X-43335982Y3364019D01*
X-43404465Y3409777D01*
X-43411234Y3414300D01*
X-43411235Y3414301D01*
X-43411236Y3414301D01*
X-43499998Y3431957D01*
X-43500002Y3431957D01*
X-43588765Y3414301D01*
X-43664019Y3364019D01*
X-43714301Y3288765D01*
X-43731957Y3200002D01*
X-44868043Y3200002D01*
X-44885700Y3288766D01*
X-44910841Y3326392D01*
X-44935982Y3364019D01*
X-45004465Y3409777D01*
X-45011234Y3414300D01*
X-45011235Y3414301D01*
X-45011236Y3414301D01*
X-45099998Y3431957D01*
X-45100002Y3431957D01*
X-45188765Y3414301D01*
X-45264019Y3364019D01*
X-45314301Y3288765D01*
X-45331957Y3200002D01*
X-45668043Y3200002D01*
X-45685700Y3288766D01*
X-45710841Y3326392D01*
X-45735982Y3364019D01*
X-45804465Y3409777D01*
X-45811234Y3414300D01*
X-45811235Y3414301D01*
X-45811236Y3414301D01*
X-45899998Y3431957D01*
X-45900002Y3431957D01*
X-45988765Y3414301D01*
X-46064019Y3364019D01*
X-46114301Y3288765D01*
X-46131957Y3200002D01*
X-47268043Y3200002D01*
X-47285700Y3288766D01*
X-47310841Y3326392D01*
X-47335982Y3364019D01*
X-47404465Y3409777D01*
X-47411234Y3414300D01*
X-47411235Y3414301D01*
X-47411236Y3414301D01*
X-47499998Y3431957D01*
X-47500002Y3431957D01*
X-47588765Y3414301D01*
X-47664019Y3364019D01*
X-47714301Y3288765D01*
X-47731957Y3200002D01*
X-48068043Y3200002D01*
X-48085700Y3288766D01*
X-48110841Y3326392D01*
X-48135982Y3364019D01*
X-48204465Y3409777D01*
X-48211234Y3414300D01*
X-48211235Y3414301D01*
X-48211236Y3414301D01*
X-48299998Y3431957D01*
X-48300002Y3431957D01*
X-48388765Y3414301D01*
X-48464019Y3364019D01*
X-48514301Y3288765D01*
X-48531957Y3200002D01*
X-49668043Y3200002D01*
X-49685700Y3288766D01*
X-49710841Y3326392D01*
X-49735982Y3364019D01*
X-49804465Y3409777D01*
X-49811234Y3414300D01*
X-49811235Y3414301D01*
X-49811236Y3414301D01*
X-49899998Y3431957D01*
X-49900002Y3431957D01*
X-49988765Y3414301D01*
X-50064019Y3364019D01*
X-50114301Y3288765D01*
X-50131957Y3200002D01*
X-50468043Y3200002D01*
X-50485700Y3288766D01*
X-50510841Y3326392D01*
X-50535982Y3364019D01*
X-50604465Y3409777D01*
X-50611234Y3414300D01*
X-50611235Y3414301D01*
X-50611236Y3414301D01*
X-50699998Y3431957D01*
X-50700002Y3431957D01*
X-50788765Y3414301D01*
X-50864019Y3364019D01*
X-50914301Y3288765D01*
X-50931957Y3200002D01*
X-52068043Y3200002D01*
X-52085700Y3288766D01*
X-52110841Y3326392D01*
X-52135982Y3364019D01*
X-52204465Y3409777D01*
X-52211234Y3414300D01*
X-52211235Y3414301D01*
X-52211236Y3414301D01*
X-52299998Y3431957D01*
X-52300002Y3431957D01*
X-52388765Y3414301D01*
X-52464019Y3364019D01*
X-52514301Y3288765D01*
X-52531957Y3200002D01*
X-52868043Y3200002D01*
X-52885700Y3288766D01*
X-52910841Y3326392D01*
X-52935982Y3364019D01*
X-53004465Y3409777D01*
X-53011234Y3414300D01*
X-53011235Y3414301D01*
X-53011236Y3414301D01*
X-53099998Y3431957D01*
X-53100002Y3431957D01*
X-53188765Y3414301D01*
X-53264019Y3364019D01*
X-53314301Y3288765D01*
X-53331957Y3200002D01*
X-74711778Y3200002D01*
X-74725913Y3256433D01*
X-74726846Y3261123D01*
X-74780854Y3625219D01*
X-74781322Y3629980D01*
X-74799441Y3998800D01*
X-74799500Y4001204D01*
X-74799500Y4071652D01*
X-60327500Y4071652D01*
X-60327500Y3928348D01*
X-60308948Y3835077D01*
X-60299544Y3787799D01*
X-60299542Y3787793D01*
X-60253280Y3676107D01*
X-60244702Y3655400D01*
X-60165086Y3536246D01*
X-60063754Y3434914D01*
X-59944600Y3355298D01*
X-59812204Y3300457D01*
X-59671652Y3272500D01*
X-59671649Y3272500D01*
X-59528351Y3272500D01*
X-59528348Y3272500D01*
X-59387796Y3300457D01*
X-59255400Y3355298D01*
X-59136246Y3434914D01*
X-59034914Y3536246D01*
X-58955298Y3655400D01*
X-58900457Y3787796D01*
X-58872500Y3928348D01*
X-58872500Y4069451D01*
X-15927500Y4069451D01*
X-15927500Y3930550D01*
X-15891553Y3796395D01*
X-15891552Y3796391D01*
X-15822105Y3676107D01*
X-15723893Y3577895D01*
X-15687518Y3556894D01*
X-15603610Y3508449D01*
X-15603608Y3508449D01*
X-15603607Y3508448D01*
X-15530037Y3488735D01*
X-15469451Y3472501D01*
X-15469450Y3472500D01*
X-15469447Y3472500D01*
X-15330550Y3472500D01*
X-15330550Y3472501D01*
X-15196393Y3508448D01*
X-15076107Y3577895D01*
X-14977895Y3676107D01*
X-14908448Y3796393D01*
X-14872501Y3930550D01*
X-14872500Y3930550D01*
X-14872500Y4069450D01*
X-14872501Y4069451D01*
X-14908448Y4203606D01*
X-14908449Y4203610D01*
X-14977896Y4323894D01*
X-15076107Y4422105D01*
X-15196391Y4491552D01*
X-15196395Y4491553D01*
X-15330550Y4527500D01*
X-15330553Y4527500D01*
X-15469447Y4527500D01*
X-15469450Y4527500D01*
X-15603606Y4491553D01*
X-15603610Y4491552D01*
X-15723894Y4422105D01*
X-15723894Y4422104D01*
X-15822104Y4323894D01*
X-15822105Y4323894D01*
X-15891552Y4203610D01*
X-15891553Y4203606D01*
X-15927500Y4069451D01*
X-58872500Y4069451D01*
X-58872500Y4071652D01*
X-58900457Y4212204D01*
X-58955298Y4344600D01*
X-59034914Y4463754D01*
X-59136246Y4565086D01*
X-59255400Y4644702D01*
X-59255403Y4644704D01*
X-59255404Y4644704D01*
X-59387793Y4699542D01*
X-59387799Y4699544D01*
X-59444480Y4710818D01*
X-59528348Y4727500D01*
X-59671652Y4727500D01*
X-59741606Y4713586D01*
X-59812202Y4699544D01*
X-59812208Y4699542D01*
X-59944597Y4644704D01*
X-60063754Y4565087D01*
X-60165087Y4463754D01*
X-60244704Y4344597D01*
X-60299542Y4212208D01*
X-60299544Y4212202D01*
X-60313586Y4141606D01*
X-60327500Y4071652D01*
X-74799500Y4071652D01*
X-74799500Y4850000D01*
X-66406894Y4850000D01*
X-66389426Y4739714D01*
X-66341016Y4644702D01*
X-66338733Y4640223D01*
X-66259777Y4561267D01*
X-66160286Y4510574D01*
X-66050000Y4493106D01*
X-65939714Y4510574D01*
X-65840223Y4561267D01*
X-65761267Y4640223D01*
X-65710574Y4739714D01*
X-65693106Y4850000D01*
X-62506894Y4850000D01*
X-62489426Y4739714D01*
X-62441016Y4644702D01*
X-62438733Y4640223D01*
X-62359777Y4561267D01*
X-62260286Y4510574D01*
X-62150000Y4493106D01*
X-62039714Y4510574D01*
X-61940223Y4561267D01*
X-61861267Y4640223D01*
X-61810574Y4739714D01*
X-61793106Y4850000D01*
X-61810574Y4960286D01*
X-61861267Y5059777D01*
X-61940223Y5138733D01*
X-61940226Y5138735D01*
X-62039714Y5189426D01*
X-62150000Y5206894D01*
X-62260287Y5189426D01*
X-62359775Y5138735D01*
X-62359778Y5138733D01*
X-62438733Y5059778D01*
X-62438735Y5059775D01*
X-62489426Y4960287D01*
X-62506894Y4850000D01*
X-65693106Y4850000D01*
X-65710574Y4960286D01*
X-65761267Y5059777D01*
X-65840223Y5138733D01*
X-65840226Y5138735D01*
X-65939714Y5189426D01*
X-66050000Y5206894D01*
X-66160287Y5189426D01*
X-66259775Y5138735D01*
X-66259778Y5138733D01*
X-66338733Y5059778D01*
X-66338735Y5059775D01*
X-66389426Y4960287D01*
X-66406894Y4850000D01*
X-74799500Y4850000D01*
X-74799500Y7900000D01*
X-62756894Y7900000D01*
X-62739426Y7789714D01*
X-62688733Y7690223D01*
X-62609777Y7611267D01*
X-62510286Y7560574D01*
X-62400000Y7543106D01*
X-62289714Y7560574D01*
X-62212332Y7600002D01*
X-53331957Y7600002D01*
X-53331957Y7599999D01*
X-53314301Y7511236D01*
X-53264019Y7435982D01*
X-53226392Y7410841D01*
X-53188766Y7385700D01*
X-53159178Y7379815D01*
X-53100002Y7368043D01*
X-53100000Y7368043D01*
X-53099998Y7368043D01*
X-53055617Y7376872D01*
X-53011234Y7385700D01*
X-52935982Y7435982D01*
X-52885700Y7511234D01*
X-52868043Y7600000D01*
X-52868043Y7600002D01*
X-52531957Y7600002D01*
X-52531957Y7599999D01*
X-52514301Y7511236D01*
X-52464019Y7435982D01*
X-52426392Y7410841D01*
X-52388766Y7385700D01*
X-52359178Y7379815D01*
X-52300002Y7368043D01*
X-52300000Y7368043D01*
X-52299998Y7368043D01*
X-52255617Y7376872D01*
X-52211234Y7385700D01*
X-52135982Y7435982D01*
X-52085700Y7511234D01*
X-52068043Y7600000D01*
X-52068043Y7600002D01*
X-50931957Y7600002D01*
X-50931957Y7599999D01*
X-50914301Y7511236D01*
X-50864019Y7435982D01*
X-50826392Y7410841D01*
X-50788766Y7385700D01*
X-50759178Y7379815D01*
X-50700002Y7368043D01*
X-50700000Y7368043D01*
X-50699998Y7368043D01*
X-50655617Y7376872D01*
X-50611234Y7385700D01*
X-50535982Y7435982D01*
X-50485700Y7511234D01*
X-50468043Y7600000D01*
X-50468043Y7600002D01*
X-50131957Y7600002D01*
X-50131957Y7599999D01*
X-50114301Y7511236D01*
X-50064019Y7435982D01*
X-50026392Y7410841D01*
X-49988766Y7385700D01*
X-49959178Y7379815D01*
X-49900002Y7368043D01*
X-49900000Y7368043D01*
X-49899998Y7368043D01*
X-49855617Y7376872D01*
X-49811234Y7385700D01*
X-49735982Y7435982D01*
X-49685700Y7511234D01*
X-49668043Y7600000D01*
X-49668043Y7600002D01*
X-48531957Y7600002D01*
X-48531957Y7599999D01*
X-48514301Y7511236D01*
X-48464019Y7435982D01*
X-48426392Y7410841D01*
X-48388766Y7385700D01*
X-48359178Y7379815D01*
X-48300002Y7368043D01*
X-48300000Y7368043D01*
X-48299998Y7368043D01*
X-48255617Y7376872D01*
X-48211234Y7385700D01*
X-48135982Y7435982D01*
X-48085700Y7511234D01*
X-48068043Y7600000D01*
X-48068043Y7600002D01*
X-47731957Y7600002D01*
X-47731957Y7599999D01*
X-47714301Y7511236D01*
X-47664019Y7435982D01*
X-47626392Y7410841D01*
X-47588766Y7385700D01*
X-47559178Y7379815D01*
X-47500002Y7368043D01*
X-47500000Y7368043D01*
X-47499998Y7368043D01*
X-47455617Y7376872D01*
X-47411234Y7385700D01*
X-47335982Y7435982D01*
X-47285700Y7511234D01*
X-47268043Y7600000D01*
X-47268043Y7600002D01*
X-46131957Y7600002D01*
X-46131957Y7599999D01*
X-46114301Y7511236D01*
X-46064019Y7435982D01*
X-46026392Y7410841D01*
X-45988766Y7385700D01*
X-45959178Y7379815D01*
X-45900002Y7368043D01*
X-45900000Y7368043D01*
X-45899998Y7368043D01*
X-45855617Y7376872D01*
X-45811234Y7385700D01*
X-45735982Y7435982D01*
X-45685700Y7511234D01*
X-45668043Y7600000D01*
X-45668043Y7600002D01*
X-45331957Y7600002D01*
X-45331957Y7599999D01*
X-45314301Y7511236D01*
X-45264019Y7435982D01*
X-45226392Y7410841D01*
X-45188766Y7385700D01*
X-45159178Y7379815D01*
X-45100002Y7368043D01*
X-45100000Y7368043D01*
X-45099998Y7368043D01*
X-45055617Y7376872D01*
X-45011234Y7385700D01*
X-44935982Y7435982D01*
X-44885700Y7511234D01*
X-44868043Y7600000D01*
X-44868043Y7600002D01*
X-43731957Y7600002D01*
X-43731957Y7599999D01*
X-43714301Y7511236D01*
X-43664019Y7435982D01*
X-43626392Y7410841D01*
X-43588766Y7385700D01*
X-43559178Y7379815D01*
X-43500002Y7368043D01*
X-43500000Y7368043D01*
X-43499998Y7368043D01*
X-43455617Y7376872D01*
X-43411234Y7385700D01*
X-43335982Y7435982D01*
X-43285700Y7511234D01*
X-43268043Y7600000D01*
X-43268043Y7600002D01*
X-42931957Y7600002D01*
X-42931957Y7599999D01*
X-42914301Y7511236D01*
X-42864019Y7435982D01*
X-42826392Y7410841D01*
X-42788766Y7385700D01*
X-42759178Y7379815D01*
X-42700002Y7368043D01*
X-42700000Y7368043D01*
X-42699998Y7368043D01*
X-42655617Y7376872D01*
X-42611234Y7385700D01*
X-42535982Y7435982D01*
X-42485700Y7511234D01*
X-42468043Y7600000D01*
X-42468043Y7600002D01*
X-41331957Y7600002D01*
X-41331957Y7599999D01*
X-41314301Y7511236D01*
X-41264019Y7435982D01*
X-41226392Y7410841D01*
X-41188766Y7385700D01*
X-41159178Y7379815D01*
X-41100002Y7368043D01*
X-41100000Y7368043D01*
X-41099998Y7368043D01*
X-41055617Y7376872D01*
X-41011234Y7385700D01*
X-40935982Y7435982D01*
X-40885700Y7511234D01*
X-40868043Y7600000D01*
X-40868043Y7600002D01*
X-40531957Y7600002D01*
X-40531957Y7599999D01*
X-40514301Y7511236D01*
X-40464019Y7435982D01*
X-40426392Y7410841D01*
X-40388766Y7385700D01*
X-40359178Y7379815D01*
X-40300002Y7368043D01*
X-40300000Y7368043D01*
X-40299998Y7368043D01*
X-40255617Y7376872D01*
X-40211234Y7385700D01*
X-40135982Y7435982D01*
X-40085700Y7511234D01*
X-40068043Y7600000D01*
X-40068043Y7600002D01*
X-38931957Y7600002D01*
X-38931957Y7599999D01*
X-38914301Y7511236D01*
X-38864019Y7435982D01*
X-38826392Y7410841D01*
X-38788766Y7385700D01*
X-38759178Y7379815D01*
X-38700002Y7368043D01*
X-38700000Y7368043D01*
X-38699998Y7368043D01*
X-38655617Y7376872D01*
X-38611234Y7385700D01*
X-38535982Y7435982D01*
X-38485700Y7511234D01*
X-38468043Y7600000D01*
X-38468043Y7600002D01*
X-38131957Y7600002D01*
X-38131957Y7599999D01*
X-38114301Y7511236D01*
X-38064019Y7435982D01*
X-38026392Y7410841D01*
X-37988766Y7385700D01*
X-37959178Y7379815D01*
X-37900002Y7368043D01*
X-37900000Y7368043D01*
X-37899998Y7368043D01*
X-37855617Y7376872D01*
X-37811234Y7385700D01*
X-37735982Y7435982D01*
X-37685700Y7511234D01*
X-37668043Y7600000D01*
X-37668043Y7600002D01*
X-33331957Y7600002D01*
X-33331957Y7599999D01*
X-33314301Y7511236D01*
X-33264019Y7435982D01*
X-33226392Y7410841D01*
X-33188766Y7385700D01*
X-33159178Y7379815D01*
X-33100002Y7368043D01*
X-33100000Y7368043D01*
X-33099998Y7368043D01*
X-33055617Y7376872D01*
X-33011234Y7385700D01*
X-32935982Y7435982D01*
X-32885700Y7511234D01*
X-32868043Y7600000D01*
X-32868043Y7600002D01*
X-31731957Y7600002D01*
X-31731957Y7599999D01*
X-31714301Y7511236D01*
X-31664019Y7435982D01*
X-31626392Y7410841D01*
X-31588766Y7385700D01*
X-31559178Y7379815D01*
X-31500002Y7368043D01*
X-31500000Y7368043D01*
X-31499998Y7368043D01*
X-31455617Y7376872D01*
X-31411234Y7385700D01*
X-31335982Y7435982D01*
X-31285700Y7511234D01*
X-31268043Y7600000D01*
X-31268043Y7600002D01*
X-30931957Y7600002D01*
X-30931957Y7599999D01*
X-30914301Y7511236D01*
X-30864019Y7435982D01*
X-30826392Y7410841D01*
X-30788766Y7385700D01*
X-30759178Y7379815D01*
X-30700002Y7368043D01*
X-30700000Y7368043D01*
X-30699998Y7368043D01*
X-30655617Y7376872D01*
X-30611234Y7385700D01*
X-30535982Y7435982D01*
X-30485700Y7511234D01*
X-30468043Y7600000D01*
X-30468043Y7600002D01*
X-29331957Y7600002D01*
X-29331957Y7599999D01*
X-29314301Y7511236D01*
X-29264019Y7435982D01*
X-29226392Y7410841D01*
X-29188766Y7385700D01*
X-29159178Y7379815D01*
X-29100002Y7368043D01*
X-29100000Y7368043D01*
X-29099998Y7368043D01*
X-29055617Y7376872D01*
X-29011234Y7385700D01*
X-28935982Y7435982D01*
X-28885700Y7511234D01*
X-28868043Y7600000D01*
X-28868043Y7600002D01*
X-28531957Y7600002D01*
X-28531957Y7599999D01*
X-28514301Y7511236D01*
X-28464019Y7435982D01*
X-28426392Y7410841D01*
X-28388766Y7385700D01*
X-28359178Y7379815D01*
X-28300002Y7368043D01*
X-28300000Y7368043D01*
X-28299998Y7368043D01*
X-28255617Y7376872D01*
X-28211234Y7385700D01*
X-28135982Y7435982D01*
X-28085700Y7511234D01*
X-28068043Y7600000D01*
X-28068043Y7600002D01*
X-26931957Y7600002D01*
X-26931957Y7599999D01*
X-26914301Y7511236D01*
X-26864019Y7435982D01*
X-26826392Y7410841D01*
X-26788766Y7385700D01*
X-26759178Y7379815D01*
X-26700002Y7368043D01*
X-26700000Y7368043D01*
X-26699998Y7368043D01*
X-26655617Y7376872D01*
X-26611234Y7385700D01*
X-26535982Y7435982D01*
X-26485700Y7511234D01*
X-26468043Y7600000D01*
X-26468043Y7600002D01*
X-26131957Y7600002D01*
X-26131957Y7599999D01*
X-26114301Y7511236D01*
X-26064019Y7435982D01*
X-26026392Y7410841D01*
X-25988766Y7385700D01*
X-25959178Y7379815D01*
X-25900002Y7368043D01*
X-25900000Y7368043D01*
X-25899998Y7368043D01*
X-25855617Y7376872D01*
X-25811234Y7385700D01*
X-25735982Y7435982D01*
X-25685700Y7511234D01*
X-25668043Y7600000D01*
X-25668043Y7600002D01*
X-24531957Y7600002D01*
X-24531957Y7599999D01*
X-24514301Y7511236D01*
X-24464019Y7435982D01*
X-24426392Y7410841D01*
X-24388766Y7385700D01*
X-24359178Y7379815D01*
X-24300002Y7368043D01*
X-24300000Y7368043D01*
X-24299998Y7368043D01*
X-24255617Y7376872D01*
X-24211234Y7385700D01*
X-24135982Y7435982D01*
X-24085700Y7511234D01*
X-24068043Y7600000D01*
X-24068043Y7600002D01*
X-23731957Y7600002D01*
X-23731957Y7599999D01*
X-23714301Y7511236D01*
X-23664019Y7435982D01*
X-23626392Y7410841D01*
X-23588766Y7385700D01*
X-23559178Y7379815D01*
X-23500002Y7368043D01*
X-23500000Y7368043D01*
X-23499998Y7368043D01*
X-23455617Y7376872D01*
X-23411234Y7385700D01*
X-23335982Y7435982D01*
X-23285700Y7511234D01*
X-23268043Y7600000D01*
X-23268043Y7600002D01*
X-22131957Y7600002D01*
X-22131957Y7599999D01*
X-22114301Y7511236D01*
X-22064019Y7435982D01*
X-22026392Y7410841D01*
X-21988766Y7385700D01*
X-21959178Y7379815D01*
X-21900002Y7368043D01*
X-21900000Y7368043D01*
X-21899998Y7368043D01*
X-21855617Y7376872D01*
X-21811234Y7385700D01*
X-21735982Y7435982D01*
X-21685700Y7511234D01*
X-21668043Y7600000D01*
X-21668043Y7600002D01*
X-21331957Y7600002D01*
X-21331957Y7599999D01*
X-21314301Y7511236D01*
X-21264019Y7435982D01*
X-21226392Y7410841D01*
X-21188766Y7385700D01*
X-21159178Y7379815D01*
X-21100002Y7368043D01*
X-21100000Y7368043D01*
X-21099998Y7368043D01*
X-21055617Y7376872D01*
X-21011234Y7385700D01*
X-20935982Y7435982D01*
X-20885700Y7511234D01*
X-20868043Y7600000D01*
X-20868043Y7600002D01*
X-19731957Y7600002D01*
X-19731957Y7599999D01*
X-19714301Y7511236D01*
X-19664019Y7435982D01*
X-19626392Y7410841D01*
X-19588766Y7385700D01*
X-19559178Y7379815D01*
X-19500002Y7368043D01*
X-19500000Y7368043D01*
X-19499998Y7368043D01*
X-19455617Y7376872D01*
X-19411234Y7385700D01*
X-19335982Y7435982D01*
X-19285700Y7511234D01*
X-19268043Y7600000D01*
X-19268043Y7600002D01*
X-18931957Y7600002D01*
X-18931957Y7599999D01*
X-18914301Y7511236D01*
X-18864019Y7435982D01*
X-18826392Y7410841D01*
X-18788766Y7385700D01*
X-18759178Y7379815D01*
X-18700002Y7368043D01*
X-18700000Y7368043D01*
X-18699998Y7368043D01*
X-18655617Y7376872D01*
X-18611234Y7385700D01*
X-18535982Y7435982D01*
X-18485700Y7511234D01*
X-18468043Y7600000D01*
X-18485700Y7688766D01*
X-18510841Y7726392D01*
X-18535982Y7764019D01*
X-18592295Y7801645D01*
X-18611234Y7814300D01*
X-18611235Y7814301D01*
X-18611236Y7814301D01*
X-18699998Y7831957D01*
X-18700002Y7831957D01*
X-18788765Y7814301D01*
X-18864019Y7764019D01*
X-18914301Y7688765D01*
X-18931957Y7600002D01*
X-19268043Y7600002D01*
X-19285700Y7688766D01*
X-19310841Y7726392D01*
X-19335982Y7764019D01*
X-19392295Y7801645D01*
X-19411234Y7814300D01*
X-19411235Y7814301D01*
X-19411236Y7814301D01*
X-19499998Y7831957D01*
X-19500002Y7831957D01*
X-19588765Y7814301D01*
X-19664019Y7764019D01*
X-19714301Y7688765D01*
X-19731957Y7600002D01*
X-20868043Y7600002D01*
X-20885700Y7688766D01*
X-20910841Y7726392D01*
X-20935982Y7764019D01*
X-20992295Y7801645D01*
X-21011234Y7814300D01*
X-21011235Y7814301D01*
X-21011236Y7814301D01*
X-21099998Y7831957D01*
X-21100002Y7831957D01*
X-21188765Y7814301D01*
X-21264019Y7764019D01*
X-21314301Y7688765D01*
X-21331957Y7600002D01*
X-21668043Y7600002D01*
X-21685700Y7688766D01*
X-21710841Y7726392D01*
X-21735982Y7764019D01*
X-21792295Y7801645D01*
X-21811234Y7814300D01*
X-21811235Y7814301D01*
X-21811236Y7814301D01*
X-21899998Y7831957D01*
X-21900002Y7831957D01*
X-21988765Y7814301D01*
X-22064019Y7764019D01*
X-22114301Y7688765D01*
X-22131957Y7600002D01*
X-23268043Y7600002D01*
X-23285700Y7688766D01*
X-23310841Y7726392D01*
X-23335982Y7764019D01*
X-23392295Y7801645D01*
X-23411234Y7814300D01*
X-23411235Y7814301D01*
X-23411236Y7814301D01*
X-23499998Y7831957D01*
X-23500002Y7831957D01*
X-23588765Y7814301D01*
X-23664019Y7764019D01*
X-23714301Y7688765D01*
X-23731957Y7600002D01*
X-24068043Y7600002D01*
X-24085700Y7688766D01*
X-24110841Y7726392D01*
X-24135982Y7764019D01*
X-24192295Y7801645D01*
X-24211234Y7814300D01*
X-24211235Y7814301D01*
X-24211236Y7814301D01*
X-24299998Y7831957D01*
X-24300002Y7831957D01*
X-24388765Y7814301D01*
X-24464019Y7764019D01*
X-24514301Y7688765D01*
X-24531957Y7600002D01*
X-25668043Y7600002D01*
X-25685700Y7688766D01*
X-25710841Y7726392D01*
X-25735982Y7764019D01*
X-25792295Y7801645D01*
X-25811234Y7814300D01*
X-25811235Y7814301D01*
X-25811236Y7814301D01*
X-25899998Y7831957D01*
X-25900002Y7831957D01*
X-25988765Y7814301D01*
X-26064019Y7764019D01*
X-26114301Y7688765D01*
X-26131957Y7600002D01*
X-26468043Y7600002D01*
X-26485700Y7688766D01*
X-26510841Y7726392D01*
X-26535982Y7764019D01*
X-26592295Y7801645D01*
X-26611234Y7814300D01*
X-26611235Y7814301D01*
X-26611236Y7814301D01*
X-26699998Y7831957D01*
X-26700002Y7831957D01*
X-26788765Y7814301D01*
X-26864019Y7764019D01*
X-26914301Y7688765D01*
X-26931957Y7600002D01*
X-28068043Y7600002D01*
X-28085700Y7688766D01*
X-28110841Y7726392D01*
X-28135982Y7764019D01*
X-28192295Y7801645D01*
X-28211234Y7814300D01*
X-28211235Y7814301D01*
X-28211236Y7814301D01*
X-28299998Y7831957D01*
X-28300002Y7831957D01*
X-28388765Y7814301D01*
X-28464019Y7764019D01*
X-28514301Y7688765D01*
X-28531957Y7600002D01*
X-28868043Y7600002D01*
X-28885700Y7688766D01*
X-28910841Y7726392D01*
X-28935982Y7764019D01*
X-28992295Y7801645D01*
X-29011234Y7814300D01*
X-29011235Y7814301D01*
X-29011236Y7814301D01*
X-29099998Y7831957D01*
X-29100002Y7831957D01*
X-29188765Y7814301D01*
X-29264019Y7764019D01*
X-29314301Y7688765D01*
X-29331957Y7600002D01*
X-30468043Y7600002D01*
X-30485700Y7688766D01*
X-30510841Y7726392D01*
X-30535982Y7764019D01*
X-30592295Y7801645D01*
X-30611234Y7814300D01*
X-30611235Y7814301D01*
X-30611236Y7814301D01*
X-30699998Y7831957D01*
X-30700002Y7831957D01*
X-30788765Y7814301D01*
X-30864019Y7764019D01*
X-30914301Y7688765D01*
X-30931957Y7600002D01*
X-31268043Y7600002D01*
X-31285700Y7688766D01*
X-31310841Y7726392D01*
X-31335982Y7764019D01*
X-31392295Y7801645D01*
X-31411234Y7814300D01*
X-31411235Y7814301D01*
X-31411236Y7814301D01*
X-31499998Y7831957D01*
X-31500002Y7831957D01*
X-31588765Y7814301D01*
X-31664019Y7764019D01*
X-31714301Y7688765D01*
X-31731957Y7600002D01*
X-32868043Y7600002D01*
X-32885700Y7688766D01*
X-32910841Y7726392D01*
X-32935982Y7764019D01*
X-32992295Y7801645D01*
X-33011234Y7814300D01*
X-33011235Y7814301D01*
X-33011236Y7814301D01*
X-33099998Y7831957D01*
X-33100002Y7831957D01*
X-33188765Y7814301D01*
X-33264019Y7764019D01*
X-33314301Y7688765D01*
X-33331957Y7600002D01*
X-37668043Y7600002D01*
X-37685700Y7688766D01*
X-37710841Y7726392D01*
X-37735982Y7764019D01*
X-37792295Y7801645D01*
X-37811234Y7814300D01*
X-37811235Y7814301D01*
X-37811236Y7814301D01*
X-37899998Y7831957D01*
X-37900002Y7831957D01*
X-37988765Y7814301D01*
X-38064019Y7764019D01*
X-38114301Y7688765D01*
X-38131957Y7600002D01*
X-38468043Y7600002D01*
X-38485700Y7688766D01*
X-38510841Y7726392D01*
X-38535982Y7764019D01*
X-38592295Y7801645D01*
X-38611234Y7814300D01*
X-38611235Y7814301D01*
X-38611236Y7814301D01*
X-38699998Y7831957D01*
X-38700002Y7831957D01*
X-38788765Y7814301D01*
X-38864019Y7764019D01*
X-38914301Y7688765D01*
X-38931957Y7600002D01*
X-40068043Y7600002D01*
X-40085700Y7688766D01*
X-40110841Y7726392D01*
X-40135982Y7764019D01*
X-40192295Y7801645D01*
X-40211234Y7814300D01*
X-40211235Y7814301D01*
X-40211236Y7814301D01*
X-40299998Y7831957D01*
X-40300002Y7831957D01*
X-40388765Y7814301D01*
X-40464019Y7764019D01*
X-40514301Y7688765D01*
X-40531957Y7600002D01*
X-40868043Y7600002D01*
X-40885700Y7688766D01*
X-40910841Y7726392D01*
X-40935982Y7764019D01*
X-40992295Y7801645D01*
X-41011234Y7814300D01*
X-41011235Y7814301D01*
X-41011236Y7814301D01*
X-41099998Y7831957D01*
X-41100002Y7831957D01*
X-41188765Y7814301D01*
X-41264019Y7764019D01*
X-41314301Y7688765D01*
X-41331957Y7600002D01*
X-42468043Y7600002D01*
X-42485700Y7688766D01*
X-42510841Y7726392D01*
X-42535982Y7764019D01*
X-42592295Y7801645D01*
X-42611234Y7814300D01*
X-42611235Y7814301D01*
X-42611236Y7814301D01*
X-42699998Y7831957D01*
X-42700002Y7831957D01*
X-42788765Y7814301D01*
X-42864019Y7764019D01*
X-42914301Y7688765D01*
X-42931957Y7600002D01*
X-43268043Y7600002D01*
X-43285700Y7688766D01*
X-43310841Y7726392D01*
X-43335982Y7764019D01*
X-43392295Y7801645D01*
X-43411234Y7814300D01*
X-43411235Y7814301D01*
X-43411236Y7814301D01*
X-43499998Y7831957D01*
X-43500002Y7831957D01*
X-43588765Y7814301D01*
X-43664019Y7764019D01*
X-43714301Y7688765D01*
X-43731957Y7600002D01*
X-44868043Y7600002D01*
X-44885700Y7688766D01*
X-44910841Y7726392D01*
X-44935982Y7764019D01*
X-44992295Y7801645D01*
X-45011234Y7814300D01*
X-45011235Y7814301D01*
X-45011236Y7814301D01*
X-45099998Y7831957D01*
X-45100002Y7831957D01*
X-45188765Y7814301D01*
X-45264019Y7764019D01*
X-45314301Y7688765D01*
X-45331957Y7600002D01*
X-45668043Y7600002D01*
X-45685700Y7688766D01*
X-45710841Y7726392D01*
X-45735982Y7764019D01*
X-45792295Y7801645D01*
X-45811234Y7814300D01*
X-45811235Y7814301D01*
X-45811236Y7814301D01*
X-45899998Y7831957D01*
X-45900002Y7831957D01*
X-45988765Y7814301D01*
X-46064019Y7764019D01*
X-46114301Y7688765D01*
X-46131957Y7600002D01*
X-47268043Y7600002D01*
X-47285700Y7688766D01*
X-47310841Y7726392D01*
X-47335982Y7764019D01*
X-47392295Y7801645D01*
X-47411234Y7814300D01*
X-47411235Y7814301D01*
X-47411236Y7814301D01*
X-47499998Y7831957D01*
X-47500002Y7831957D01*
X-47588765Y7814301D01*
X-47664019Y7764019D01*
X-47714301Y7688765D01*
X-47731957Y7600002D01*
X-48068043Y7600002D01*
X-48085700Y7688766D01*
X-48110841Y7726392D01*
X-48135982Y7764019D01*
X-48192295Y7801645D01*
X-48211234Y7814300D01*
X-48211235Y7814301D01*
X-48211236Y7814301D01*
X-48299998Y7831957D01*
X-48300002Y7831957D01*
X-48388765Y7814301D01*
X-48464019Y7764019D01*
X-48514301Y7688765D01*
X-48531957Y7600002D01*
X-49668043Y7600002D01*
X-49685700Y7688766D01*
X-49710841Y7726392D01*
X-49735982Y7764019D01*
X-49792295Y7801645D01*
X-49811234Y7814300D01*
X-49811235Y7814301D01*
X-49811236Y7814301D01*
X-49899998Y7831957D01*
X-49900002Y7831957D01*
X-49988765Y7814301D01*
X-50064019Y7764019D01*
X-50114301Y7688765D01*
X-50131957Y7600002D01*
X-50468043Y7600002D01*
X-50485700Y7688766D01*
X-50510841Y7726392D01*
X-50535982Y7764019D01*
X-50592295Y7801645D01*
X-50611234Y7814300D01*
X-50611235Y7814301D01*
X-50611236Y7814301D01*
X-50699998Y7831957D01*
X-50700002Y7831957D01*
X-50788765Y7814301D01*
X-50864019Y7764019D01*
X-50914301Y7688765D01*
X-50931957Y7600002D01*
X-52068043Y7600002D01*
X-52085700Y7688766D01*
X-52110841Y7726392D01*
X-52135982Y7764019D01*
X-52192295Y7801645D01*
X-52211234Y7814300D01*
X-52211235Y7814301D01*
X-52211236Y7814301D01*
X-52299998Y7831957D01*
X-52300002Y7831957D01*
X-52388765Y7814301D01*
X-52464019Y7764019D01*
X-52514301Y7688765D01*
X-52531957Y7600002D01*
X-52868043Y7600002D01*
X-52885700Y7688766D01*
X-52910841Y7726392D01*
X-52935982Y7764019D01*
X-52992295Y7801645D01*
X-53011234Y7814300D01*
X-53011235Y7814301D01*
X-53011236Y7814301D01*
X-53099998Y7831957D01*
X-53100002Y7831957D01*
X-53188765Y7814301D01*
X-53264019Y7764019D01*
X-53314301Y7688765D01*
X-53331957Y7600002D01*
X-62212332Y7600002D01*
X-62190223Y7611267D01*
X-62111267Y7690223D01*
X-62060574Y7789714D01*
X-62043106Y7900000D01*
X-62060574Y8010286D01*
X-62111267Y8109777D01*
X-62190223Y8188733D01*
X-62190226Y8188735D01*
X-62289714Y8239426D01*
X-62400000Y8256894D01*
X-62510287Y8239426D01*
X-62609775Y8188735D01*
X-62609778Y8188733D01*
X-62688733Y8109778D01*
X-62688735Y8109775D01*
X-62739426Y8010287D01*
X-62739426Y8010286D01*
X-62756894Y7900000D01*
X-74799500Y7900000D01*
X-74799500Y8500000D01*
X-63356894Y8500000D01*
X-63339426Y8389714D01*
X-63288733Y8290223D01*
X-63209777Y8211267D01*
X-63110286Y8160574D01*
X-63000000Y8143106D01*
X-62889714Y8160574D01*
X-62790223Y8211267D01*
X-62711267Y8290223D01*
X-62660574Y8389714D01*
X-62643106Y8500000D01*
X-62660574Y8610286D01*
X-62711267Y8709777D01*
X-62790223Y8788733D01*
X-62790226Y8788735D01*
X-62889714Y8839426D01*
X-63000000Y8856894D01*
X-63110287Y8839426D01*
X-63209775Y8788735D01*
X-63209778Y8788733D01*
X-63288733Y8709778D01*
X-63288735Y8709775D01*
X-63339426Y8610287D01*
X-63339426Y8610286D01*
X-63356894Y8500000D01*
X-74799500Y8500000D01*
X-74799500Y10966606D01*
X-73667500Y10966606D01*
X-73667500Y10773395D01*
X-73637276Y10582563D01*
X-73637275Y10582560D01*
X-73577570Y10398805D01*
X-73489851Y10226648D01*
X-73489849Y10226645D01*
X-73376284Y10070336D01*
X-73376280Y10070331D01*
X-73239669Y9933720D01*
X-73239665Y9933717D01*
X-73239663Y9933715D01*
X-73083350Y9820148D01*
X-72911197Y9732431D01*
X-72727440Y9672725D01*
X-72536606Y9642500D01*
X-72536605Y9642500D01*
X-72343395Y9642500D01*
X-72343394Y9642500D01*
X-72152560Y9672725D01*
X-71968803Y9732431D01*
X-71796650Y9820148D01*
X-71640337Y9933715D01*
X-71640334Y9933719D01*
X-71640331Y9933720D01*
X-71503720Y10070331D01*
X-71503719Y10070334D01*
X-71503715Y10070337D01*
X-71390148Y10226650D01*
X-71302431Y10398803D01*
X-71269550Y10500000D01*
X-67556894Y10500000D01*
X-67539426Y10389714D01*
X-67488733Y10290223D01*
X-67409777Y10211267D01*
X-67310286Y10160574D01*
X-67200000Y10143106D01*
X-67089714Y10160574D01*
X-66990223Y10211267D01*
X-66911267Y10290223D01*
X-66860574Y10389714D01*
X-66843106Y10500000D01*
X-66860574Y10610286D01*
X-66911267Y10709777D01*
X-66990223Y10788733D01*
X-66990226Y10788735D01*
X-67089714Y10839426D01*
X-67200000Y10856894D01*
X-67310287Y10839426D01*
X-67409775Y10788735D01*
X-67409778Y10788733D01*
X-67488733Y10709778D01*
X-67488735Y10709775D01*
X-67539426Y10610287D01*
X-67556894Y10500000D01*
X-71269550Y10500000D01*
X-71242725Y10582560D01*
X-71212500Y10773394D01*
X-71212500Y10966606D01*
X-71242725Y11157440D01*
X-71302431Y11341197D01*
X-71390148Y11513350D01*
X-71393818Y11518401D01*
X-71482619Y11640626D01*
X-71503715Y11669663D01*
X-71503717Y11669665D01*
X-71503720Y11669669D01*
X-71640331Y11806280D01*
X-71640336Y11806284D01*
X-71646241Y11810574D01*
X-71687509Y11840557D01*
X-71796645Y11919849D01*
X-71796648Y11919851D01*
X-71968805Y12007570D01*
X-72152560Y12067275D01*
X-72152563Y12067276D01*
X-72299158Y12090494D01*
X-72343394Y12097500D01*
X-72536606Y12097500D01*
X-72572518Y12091813D01*
X-72727438Y12067276D01*
X-72727441Y12067275D01*
X-72911196Y12007570D01*
X-73083353Y11919851D01*
X-73083356Y11919849D01*
X-73239665Y11806284D01*
X-73376284Y11669665D01*
X-73489849Y11513356D01*
X-73489851Y11513353D01*
X-73577570Y11341196D01*
X-73637275Y11157441D01*
X-73637276Y11157438D01*
X-73667500Y10966606D01*
X-74799500Y10966606D01*
X-74799500Y12286432D01*
X-70777500Y12286432D01*
X-70777500Y12113569D01*
X-70743781Y11944053D01*
X-70743778Y11944042D01*
X-70681259Y11793107D01*
X-70677631Y11784348D01*
X-70581599Y11640626D01*
X-70459374Y11518401D01*
X-70315652Y11422369D01*
X-70155957Y11356222D01*
X-70155951Y11356221D01*
X-70155948Y11356220D01*
X-69986432Y11322501D01*
X-69986426Y11322500D01*
X-69813574Y11322500D01*
X-69644043Y11356222D01*
X-69484348Y11422369D01*
X-69340626Y11518401D01*
X-69218401Y11640626D01*
X-69122369Y11784348D01*
X-69056222Y11944043D01*
X-69022500Y12113574D01*
X-69022500Y12150000D01*
X-67556894Y12150000D01*
X-67539426Y12039714D01*
X-67490680Y11944043D01*
X-67488733Y11940223D01*
X-67409777Y11861267D01*
X-67310286Y11810574D01*
X-67200000Y11793106D01*
X-67089714Y11810574D01*
X-66990223Y11861267D01*
X-66911267Y11940223D01*
X-66860574Y12039714D01*
X-66843106Y12150000D01*
X-66860574Y12260286D01*
X-66911267Y12359777D01*
X-66990223Y12438733D01*
X-66990226Y12438735D01*
X-67089714Y12489426D01*
X-67200000Y12506894D01*
X-67310287Y12489426D01*
X-67409775Y12438735D01*
X-67409778Y12438733D01*
X-67488733Y12359778D01*
X-67488735Y12359775D01*
X-67539426Y12260287D01*
X-67556894Y12150000D01*
X-69022500Y12150000D01*
X-69022500Y12286426D01*
X-69037090Y12359775D01*
X-69056220Y12455948D01*
X-69056223Y12455959D01*
X-69122368Y12615649D01*
X-69122369Y12615652D01*
X-69218401Y12759374D01*
X-69340626Y12881599D01*
X-69484348Y12977631D01*
X-69484351Y12977633D01*
X-69484352Y12977633D01*
X-69644042Y13043778D01*
X-69644053Y13043781D01*
X-69813569Y13077500D01*
X-69813574Y13077500D01*
X-69986426Y13077500D01*
X-69986432Y13077500D01*
X-70155948Y13043781D01*
X-70155959Y13043778D01*
X-70315649Y12977633D01*
X-70459374Y12881600D01*
X-70581600Y12759374D01*
X-70677633Y12615649D01*
X-70743778Y12455959D01*
X-70743781Y12455948D01*
X-70777500Y12286432D01*
X-74799500Y12286432D01*
X-74799500Y14826432D01*
X-70777500Y14826432D01*
X-70777500Y14653569D01*
X-70743781Y14484053D01*
X-70743778Y14484042D01*
X-70677633Y14324352D01*
X-70677631Y14324348D01*
X-70581599Y14180626D01*
X-70459374Y14058401D01*
X-70315652Y13962369D01*
X-70155957Y13896222D01*
X-70155951Y13896221D01*
X-70155948Y13896220D01*
X-69986432Y13862501D01*
X-69986426Y13862500D01*
X-69813574Y13862500D01*
X-69644043Y13896222D01*
X-69484348Y13962369D01*
X-69340626Y14058401D01*
X-69218401Y14180626D01*
X-69122369Y14324348D01*
X-69056222Y14484043D01*
X-69022500Y14653574D01*
X-69022500Y14750000D01*
X-67556894Y14750000D01*
X-67539426Y14639714D01*
X-67488733Y14540223D01*
X-67409777Y14461267D01*
X-67310286Y14410574D01*
X-67200000Y14393106D01*
X-67089714Y14410574D01*
X-66990223Y14461267D01*
X-66911267Y14540223D01*
X-66860574Y14639714D01*
X-66843106Y14750000D01*
X-66860574Y14860286D01*
X-66911267Y14959777D01*
X-66990223Y15038733D01*
X-66990226Y15038735D01*
X-67089714Y15089426D01*
X-67200000Y15106894D01*
X-67310287Y15089426D01*
X-67409775Y15038735D01*
X-67409778Y15038733D01*
X-67488733Y14959778D01*
X-67488735Y14959775D01*
X-67539426Y14860287D01*
X-67539426Y14860286D01*
X-67556894Y14750000D01*
X-69022500Y14750000D01*
X-69022500Y14826426D01*
X-69049025Y14959777D01*
X-69056220Y14995948D01*
X-69056223Y14995959D01*
X-69122368Y15155649D01*
X-69122369Y15155652D01*
X-69218401Y15299374D01*
X-69340626Y15421599D01*
X-69484348Y15517631D01*
X-69484351Y15517633D01*
X-69484352Y15517633D01*
X-69644042Y15583778D01*
X-69644053Y15583781D01*
X-69813569Y15617500D01*
X-69813574Y15617500D01*
X-69986426Y15617500D01*
X-69986432Y15617500D01*
X-70155948Y15583781D01*
X-70155959Y15583778D01*
X-70315649Y15517633D01*
X-70459374Y15421600D01*
X-70581600Y15299374D01*
X-70677633Y15155649D01*
X-70743778Y14995959D01*
X-70743781Y14995948D01*
X-70777500Y14826432D01*
X-74799500Y14826432D01*
X-74799500Y16096432D01*
X-73317500Y16096432D01*
X-73317500Y15923569D01*
X-73283781Y15754053D01*
X-73283778Y15754043D01*
X-73217631Y15594348D01*
X-73121599Y15450626D01*
X-72999374Y15328401D01*
X-72855652Y15232369D01*
X-72695957Y15166222D01*
X-72695951Y15166221D01*
X-72695948Y15166220D01*
X-72526432Y15132501D01*
X-72526426Y15132500D01*
X-72353574Y15132500D01*
X-72184043Y15166222D01*
X-72024348Y15232369D01*
X-71880626Y15328401D01*
X-71758401Y15450626D01*
X-71662369Y15594348D01*
X-71596222Y15754043D01*
X-71562500Y15923574D01*
X-71562500Y16096426D01*
X-71585343Y16211267D01*
X-71596220Y16265948D01*
X-71596223Y16265959D01*
X-71606273Y16290223D01*
X-71662369Y16425652D01*
X-71758401Y16569374D01*
X-71880626Y16691599D01*
X-72024348Y16787631D01*
X-72024351Y16787633D01*
X-72024352Y16787633D01*
X-72184042Y16853778D01*
X-72184053Y16853781D01*
X-72353569Y16887500D01*
X-72353574Y16887500D01*
X-72526426Y16887500D01*
X-72526432Y16887500D01*
X-72695948Y16853781D01*
X-72695959Y16853778D01*
X-72855649Y16787633D01*
X-72999374Y16691600D01*
X-73121600Y16569374D01*
X-73217633Y16425649D01*
X-73283778Y16265959D01*
X-73283781Y16265948D01*
X-73317500Y16096432D01*
X-74799500Y16096432D01*
X-74799500Y17452347D01*
X-71327500Y17452347D01*
X-71327500Y17227654D01*
X-71292351Y17005729D01*
X-71292350Y17005726D01*
X-71222916Y16792030D01*
X-71120907Y16591827D01*
X-71054191Y16500000D01*
X-70988835Y16410045D01*
X-70988831Y16410040D01*
X-70829960Y16251169D01*
X-70829956Y16251166D01*
X-70829954Y16251164D01*
X-70648173Y16119093D01*
X-70447970Y16017084D01*
X-70234274Y15947650D01*
X-70012347Y15912500D01*
X-70012346Y15912500D01*
X-69787654Y15912500D01*
X-69787653Y15912500D01*
X-69565726Y15947650D01*
X-69352030Y16017084D01*
X-69151827Y16119093D01*
X-68970046Y16251164D01*
X-68970043Y16251168D01*
X-68970040Y16251169D01*
X-68811169Y16410040D01*
X-68811168Y16410043D01*
X-68811164Y16410046D01*
X-68745809Y16500000D01*
X-67556894Y16500000D01*
X-67539426Y16389714D01*
X-67488733Y16290223D01*
X-67409777Y16211267D01*
X-67310286Y16160574D01*
X-67200000Y16143106D01*
X-67089714Y16160574D01*
X-66990223Y16211267D01*
X-66911267Y16290223D01*
X-66860574Y16389714D01*
X-66843106Y16500000D01*
X-66860574Y16610286D01*
X-66911267Y16709777D01*
X-66990223Y16788733D01*
X-66990226Y16788735D01*
X-67089714Y16839426D01*
X-67200000Y16856894D01*
X-67310287Y16839426D01*
X-67409775Y16788735D01*
X-67409778Y16788733D01*
X-67488733Y16709778D01*
X-67488735Y16709775D01*
X-67539426Y16610287D01*
X-67539426Y16610286D01*
X-67556894Y16500000D01*
X-68745809Y16500000D01*
X-68679093Y16591827D01*
X-68577084Y16792030D01*
X-68507650Y17005726D01*
X-68472500Y17227653D01*
X-68472500Y17452347D01*
X-68507650Y17674274D01*
X-68577084Y17887970D01*
X-68679093Y18088173D01*
X-68811164Y18269954D01*
X-68811166Y18269956D01*
X-68811169Y18269960D01*
X-68970040Y18428831D01*
X-68970045Y18428835D01*
X-68970046Y18428836D01*
X-69151827Y18560907D01*
X-69352030Y18662916D01*
X-69352031Y18662917D01*
X-69352032Y18662917D01*
X-69565726Y18732350D01*
X-69565729Y18732351D01*
X-69736208Y18759352D01*
X-69787653Y18767500D01*
X-70012347Y18767500D01*
X-70054111Y18760886D01*
X-70234272Y18732351D01*
X-70234275Y18732350D01*
X-70447969Y18662917D01*
X-70648173Y18560907D01*
X-70829956Y18428835D01*
X-70988835Y18269956D01*
X-71120907Y18088173D01*
X-71222917Y17887969D01*
X-71292350Y17674275D01*
X-71292351Y17674272D01*
X-71327500Y17452347D01*
X-74799500Y17452347D01*
X-74799500Y25000000D01*
X-39456894Y25000000D01*
X-39439426Y24889714D01*
X-39388733Y24790223D01*
X-39309777Y24711267D01*
X-39210286Y24660574D01*
X-39100000Y24643106D01*
X-38989714Y24660574D01*
X-38890223Y24711267D01*
X-38811267Y24790223D01*
X-38760574Y24889714D01*
X-38743106Y25000000D01*
X-38760574Y25110286D01*
X-38811267Y25209777D01*
X-38890223Y25288733D01*
X-38890226Y25288735D01*
X-38989714Y25339426D01*
X-39100000Y25356894D01*
X-39210287Y25339426D01*
X-39309775Y25288735D01*
X-39309778Y25288733D01*
X-39388733Y25209778D01*
X-39388735Y25209775D01*
X-39439426Y25110287D01*
X-39439426Y25110286D01*
X-39456894Y25000000D01*
X-74799500Y25000000D01*
X-74799500Y25574577D01*
X-51552500Y25574577D01*
X-51552500Y25455424D01*
X-51521664Y25340343D01*
X-51521663Y25340339D01*
X-51462090Y25237158D01*
X-51377842Y25152910D01*
X-51340077Y25131106D01*
X-51274662Y25093338D01*
X-51274660Y25093338D01*
X-51274659Y25093337D01*
X-51183895Y25069017D01*
X-51159577Y25062501D01*
X-51159576Y25062500D01*
X-51159573Y25062500D01*
X-51040424Y25062500D01*
X-51040424Y25062501D01*
X-50925341Y25093337D01*
X-50822158Y25152910D01*
X-50737910Y25237158D01*
X-50678337Y25340341D01*
X-50647501Y25455424D01*
X-50647500Y25455424D01*
X-50647500Y25574576D01*
X-50647501Y25574577D01*
X-49952500Y25574577D01*
X-49952500Y25455424D01*
X-49921664Y25340343D01*
X-49921663Y25340339D01*
X-49862090Y25237158D01*
X-49777842Y25152910D01*
X-49740077Y25131106D01*
X-49674662Y25093338D01*
X-49674660Y25093338D01*
X-49674659Y25093337D01*
X-49583895Y25069017D01*
X-49559577Y25062501D01*
X-49559576Y25062500D01*
X-49559573Y25062500D01*
X-49440424Y25062500D01*
X-49440424Y25062501D01*
X-49325341Y25093337D01*
X-49222158Y25152910D01*
X-49137910Y25237158D01*
X-49078337Y25340341D01*
X-49047501Y25455424D01*
X-49047500Y25455424D01*
X-49047500Y25574576D01*
X-49047501Y25574577D01*
X-48352500Y25574577D01*
X-48352500Y25455424D01*
X-48321664Y25340343D01*
X-48321663Y25340339D01*
X-48262090Y25237158D01*
X-48177842Y25152910D01*
X-48140077Y25131106D01*
X-48074662Y25093338D01*
X-48074660Y25093338D01*
X-48074659Y25093337D01*
X-47983895Y25069017D01*
X-47959577Y25062501D01*
X-47959576Y25062500D01*
X-47959573Y25062500D01*
X-47840424Y25062500D01*
X-47840424Y25062501D01*
X-47725341Y25093337D01*
X-47622158Y25152910D01*
X-47537910Y25237158D01*
X-47478337Y25340341D01*
X-47447501Y25455424D01*
X-47447500Y25455424D01*
X-47447500Y25574576D01*
X-47447501Y25574577D01*
X-46752500Y25574577D01*
X-46752500Y25455424D01*
X-46721664Y25340343D01*
X-46721663Y25340339D01*
X-46662090Y25237158D01*
X-46577842Y25152910D01*
X-46540077Y25131106D01*
X-46474662Y25093338D01*
X-46474660Y25093338D01*
X-46474659Y25093337D01*
X-46383895Y25069017D01*
X-46359577Y25062501D01*
X-46359576Y25062500D01*
X-46359573Y25062500D01*
X-46240424Y25062500D01*
X-46240424Y25062501D01*
X-46125341Y25093337D01*
X-46022158Y25152910D01*
X-45937910Y25237158D01*
X-45878337Y25340341D01*
X-45847501Y25455424D01*
X-45847500Y25455424D01*
X-45847500Y25574576D01*
X-45847501Y25574577D01*
X-45152500Y25574577D01*
X-45152500Y25455424D01*
X-45121664Y25340343D01*
X-45121663Y25340339D01*
X-45062090Y25237158D01*
X-44977842Y25152910D01*
X-44940077Y25131106D01*
X-44874662Y25093338D01*
X-44874660Y25093338D01*
X-44874659Y25093337D01*
X-44783895Y25069017D01*
X-44759577Y25062501D01*
X-44759576Y25062500D01*
X-44759573Y25062500D01*
X-44640424Y25062500D01*
X-44640424Y25062501D01*
X-44525341Y25093337D01*
X-44422158Y25152910D01*
X-44337910Y25237158D01*
X-44278337Y25340341D01*
X-44247501Y25455424D01*
X-44247500Y25455424D01*
X-44247500Y25574576D01*
X-44247501Y25574577D01*
X-43552500Y25574577D01*
X-43552500Y25455424D01*
X-43521664Y25340343D01*
X-43521663Y25340339D01*
X-43462090Y25237158D01*
X-43377842Y25152910D01*
X-43340077Y25131106D01*
X-43274662Y25093338D01*
X-43274660Y25093338D01*
X-43274659Y25093337D01*
X-43183895Y25069017D01*
X-43159577Y25062501D01*
X-43159576Y25062500D01*
X-43159573Y25062500D01*
X-43040424Y25062500D01*
X-43040424Y25062501D01*
X-42925341Y25093337D01*
X-42822158Y25152910D01*
X-42737910Y25237158D01*
X-42678337Y25340341D01*
X-42647501Y25455424D01*
X-42647500Y25455424D01*
X-42647500Y25574576D01*
X-42647501Y25574577D01*
X-41952500Y25574577D01*
X-41952500Y25455424D01*
X-41921664Y25340343D01*
X-41921663Y25340339D01*
X-41862090Y25237158D01*
X-41777842Y25152910D01*
X-41740077Y25131106D01*
X-41674662Y25093338D01*
X-41674660Y25093338D01*
X-41674659Y25093337D01*
X-41583895Y25069017D01*
X-41559577Y25062501D01*
X-41559576Y25062500D01*
X-41559573Y25062500D01*
X-41440424Y25062500D01*
X-41440424Y25062501D01*
X-41325341Y25093337D01*
X-41222158Y25152910D01*
X-41137910Y25237158D01*
X-41078337Y25340341D01*
X-41047501Y25455424D01*
X-41047500Y25455424D01*
X-41047500Y25574576D01*
X-41047501Y25574577D01*
X-40352500Y25574577D01*
X-40352500Y25455424D01*
X-40321664Y25340343D01*
X-40321663Y25340339D01*
X-40262090Y25237158D01*
X-40177842Y25152910D01*
X-40140077Y25131106D01*
X-40074662Y25093338D01*
X-40074660Y25093338D01*
X-40074659Y25093337D01*
X-39983895Y25069017D01*
X-39959577Y25062501D01*
X-39959576Y25062500D01*
X-39959573Y25062500D01*
X-39840424Y25062500D01*
X-39840424Y25062501D01*
X-39725341Y25093337D01*
X-39622158Y25152910D01*
X-39537910Y25237158D01*
X-39478337Y25340341D01*
X-39447501Y25455424D01*
X-39447500Y25455424D01*
X-39447500Y25574576D01*
X-39447501Y25574577D01*
X-38752500Y25574577D01*
X-38752500Y25455424D01*
X-38721664Y25340343D01*
X-38721663Y25340339D01*
X-38662090Y25237158D01*
X-38577842Y25152910D01*
X-38540077Y25131106D01*
X-38474662Y25093338D01*
X-38474660Y25093338D01*
X-38474659Y25093337D01*
X-38383895Y25069017D01*
X-38359577Y25062501D01*
X-38359576Y25062500D01*
X-38359573Y25062500D01*
X-38240424Y25062500D01*
X-38240424Y25062501D01*
X-38125341Y25093337D01*
X-38022158Y25152910D01*
X-37937910Y25237158D01*
X-37878337Y25340341D01*
X-37847501Y25455424D01*
X-37847500Y25455424D01*
X-37847500Y25574576D01*
X-37847501Y25574577D01*
X-33952500Y25574577D01*
X-33952500Y25455424D01*
X-33921664Y25340343D01*
X-33921663Y25340339D01*
X-33862090Y25237158D01*
X-33777842Y25152910D01*
X-33740077Y25131106D01*
X-33674662Y25093338D01*
X-33674660Y25093338D01*
X-33674659Y25093337D01*
X-33583895Y25069017D01*
X-33559577Y25062501D01*
X-33559576Y25062500D01*
X-33559573Y25062500D01*
X-33440424Y25062500D01*
X-33440424Y25062501D01*
X-33325341Y25093337D01*
X-33222158Y25152910D01*
X-33137910Y25237158D01*
X-33078337Y25340341D01*
X-33047501Y25455424D01*
X-33047500Y25455424D01*
X-33047500Y25574576D01*
X-33047501Y25574577D01*
X-32352500Y25574577D01*
X-32352500Y25455424D01*
X-32321664Y25340343D01*
X-32321663Y25340339D01*
X-32262090Y25237158D01*
X-32177842Y25152910D01*
X-32140077Y25131106D01*
X-32074662Y25093338D01*
X-32074660Y25093338D01*
X-32074659Y25093337D01*
X-31983895Y25069017D01*
X-31959577Y25062501D01*
X-31959576Y25062500D01*
X-31959573Y25062500D01*
X-31840424Y25062500D01*
X-31840424Y25062501D01*
X-31725341Y25093337D01*
X-31622158Y25152910D01*
X-31537910Y25237158D01*
X-31478337Y25340341D01*
X-31447501Y25455424D01*
X-31447500Y25455424D01*
X-31447500Y25574576D01*
X-31447501Y25574577D01*
X-30752500Y25574577D01*
X-30752500Y25455424D01*
X-30721664Y25340343D01*
X-30721663Y25340339D01*
X-30662090Y25237158D01*
X-30577842Y25152910D01*
X-30540077Y25131106D01*
X-30474662Y25093338D01*
X-30474660Y25093338D01*
X-30474659Y25093337D01*
X-30383895Y25069017D01*
X-30359577Y25062501D01*
X-30359576Y25062500D01*
X-30359573Y25062500D01*
X-30240424Y25062500D01*
X-30240424Y25062501D01*
X-30125341Y25093337D01*
X-30022158Y25152910D01*
X-29937910Y25237158D01*
X-29878337Y25340341D01*
X-29847501Y25455424D01*
X-29847500Y25455424D01*
X-29847500Y25574576D01*
X-29847501Y25574577D01*
X-29152500Y25574577D01*
X-29152500Y25455424D01*
X-29121664Y25340343D01*
X-29121663Y25340339D01*
X-29062090Y25237158D01*
X-28977842Y25152910D01*
X-28940077Y25131106D01*
X-28874662Y25093338D01*
X-28874660Y25093338D01*
X-28874659Y25093337D01*
X-28783895Y25069017D01*
X-28759577Y25062501D01*
X-28759576Y25062500D01*
X-28759573Y25062500D01*
X-28640424Y25062500D01*
X-28640424Y25062501D01*
X-28525341Y25093337D01*
X-28422158Y25152910D01*
X-28337910Y25237158D01*
X-28278337Y25340341D01*
X-28247501Y25455424D01*
X-28247500Y25455424D01*
X-28247500Y25574576D01*
X-28247501Y25574577D01*
X-27552500Y25574577D01*
X-27552500Y25455424D01*
X-27521664Y25340343D01*
X-27521663Y25340339D01*
X-27462090Y25237158D01*
X-27377842Y25152910D01*
X-27340077Y25131106D01*
X-27274662Y25093338D01*
X-27274660Y25093338D01*
X-27274659Y25093337D01*
X-27183895Y25069017D01*
X-27159577Y25062501D01*
X-27159576Y25062500D01*
X-27159573Y25062500D01*
X-27040424Y25062500D01*
X-27040424Y25062501D01*
X-26925341Y25093337D01*
X-26822158Y25152910D01*
X-26737910Y25237158D01*
X-26678337Y25340341D01*
X-26647501Y25455424D01*
X-26647500Y25455424D01*
X-26647500Y25574576D01*
X-26647501Y25574577D01*
X-25952500Y25574577D01*
X-25952500Y25455424D01*
X-25921664Y25340343D01*
X-25921663Y25340339D01*
X-25862090Y25237158D01*
X-25777842Y25152910D01*
X-25740077Y25131106D01*
X-25674662Y25093338D01*
X-25674660Y25093338D01*
X-25674659Y25093337D01*
X-25583895Y25069017D01*
X-25559577Y25062501D01*
X-25559576Y25062500D01*
X-25559573Y25062500D01*
X-25440424Y25062500D01*
X-25440424Y25062501D01*
X-25325341Y25093337D01*
X-25222158Y25152910D01*
X-25137910Y25237158D01*
X-25078337Y25340341D01*
X-25047501Y25455424D01*
X-25047500Y25455424D01*
X-25047500Y25574576D01*
X-25047501Y25574577D01*
X-25078337Y25689658D01*
X-25078338Y25689662D01*
X-25137911Y25792843D01*
X-25222158Y25877090D01*
X-25325339Y25936663D01*
X-25325343Y25936664D01*
X-25440424Y25967500D01*
X-25440427Y25967500D01*
X-25559573Y25967500D01*
X-25559576Y25967500D01*
X-25674658Y25936664D01*
X-25674662Y25936663D01*
X-25777843Y25877090D01*
X-25777843Y25877089D01*
X-25862089Y25792843D01*
X-25862090Y25792843D01*
X-25921663Y25689662D01*
X-25921664Y25689658D01*
X-25952500Y25574577D01*
X-26647501Y25574577D01*
X-26678337Y25689658D01*
X-26678338Y25689662D01*
X-26737911Y25792843D01*
X-26822158Y25877090D01*
X-26925339Y25936663D01*
X-26925343Y25936664D01*
X-27040424Y25967500D01*
X-27040427Y25967500D01*
X-27159573Y25967500D01*
X-27159576Y25967500D01*
X-27274658Y25936664D01*
X-27274662Y25936663D01*
X-27377843Y25877090D01*
X-27377843Y25877089D01*
X-27462089Y25792843D01*
X-27462090Y25792843D01*
X-27521663Y25689662D01*
X-27521664Y25689658D01*
X-27552500Y25574577D01*
X-28247501Y25574577D01*
X-28278337Y25689658D01*
X-28278338Y25689662D01*
X-28337911Y25792843D01*
X-28422158Y25877090D01*
X-28525339Y25936663D01*
X-28525343Y25936664D01*
X-28640424Y25967500D01*
X-28640427Y25967500D01*
X-28759573Y25967500D01*
X-28759576Y25967500D01*
X-28874658Y25936664D01*
X-28874662Y25936663D01*
X-28977843Y25877090D01*
X-28977843Y25877089D01*
X-29062089Y25792843D01*
X-29062090Y25792843D01*
X-29121663Y25689662D01*
X-29121664Y25689658D01*
X-29152500Y25574577D01*
X-29847501Y25574577D01*
X-29878337Y25689658D01*
X-29878338Y25689662D01*
X-29937911Y25792843D01*
X-30022158Y25877090D01*
X-30125339Y25936663D01*
X-30125343Y25936664D01*
X-30240424Y25967500D01*
X-30240427Y25967500D01*
X-30359573Y25967500D01*
X-30359576Y25967500D01*
X-30474658Y25936664D01*
X-30474662Y25936663D01*
X-30577843Y25877090D01*
X-30577843Y25877089D01*
X-30662089Y25792843D01*
X-30662090Y25792843D01*
X-30721663Y25689662D01*
X-30721664Y25689658D01*
X-30752500Y25574577D01*
X-31447501Y25574577D01*
X-31478337Y25689658D01*
X-31478338Y25689662D01*
X-31537911Y25792843D01*
X-31622158Y25877090D01*
X-31725339Y25936663D01*
X-31725343Y25936664D01*
X-31840424Y25967500D01*
X-31840427Y25967500D01*
X-31959573Y25967500D01*
X-31959576Y25967500D01*
X-32074658Y25936664D01*
X-32074662Y25936663D01*
X-32177843Y25877090D01*
X-32177843Y25877089D01*
X-32262089Y25792843D01*
X-32262090Y25792843D01*
X-32321663Y25689662D01*
X-32321664Y25689658D01*
X-32352500Y25574577D01*
X-33047501Y25574577D01*
X-33078337Y25689658D01*
X-33078338Y25689662D01*
X-33137911Y25792843D01*
X-33222158Y25877090D01*
X-33325339Y25936663D01*
X-33325343Y25936664D01*
X-33440424Y25967500D01*
X-33440427Y25967500D01*
X-33559573Y25967500D01*
X-33559576Y25967500D01*
X-33674658Y25936664D01*
X-33674662Y25936663D01*
X-33777843Y25877090D01*
X-33777843Y25877089D01*
X-33862089Y25792843D01*
X-33862090Y25792843D01*
X-33921663Y25689662D01*
X-33921664Y25689658D01*
X-33952500Y25574577D01*
X-37847501Y25574577D01*
X-37878337Y25689658D01*
X-37878338Y25689662D01*
X-37937911Y25792843D01*
X-38022158Y25877090D01*
X-38125339Y25936663D01*
X-38125343Y25936664D01*
X-38240424Y25967500D01*
X-38240427Y25967500D01*
X-38359573Y25967500D01*
X-38359576Y25967500D01*
X-38474658Y25936664D01*
X-38474662Y25936663D01*
X-38577843Y25877090D01*
X-38577843Y25877089D01*
X-38662089Y25792843D01*
X-38662090Y25792843D01*
X-38721663Y25689662D01*
X-38721664Y25689658D01*
X-38752500Y25574577D01*
X-39447501Y25574577D01*
X-39478337Y25689658D01*
X-39478338Y25689662D01*
X-39537911Y25792843D01*
X-39622158Y25877090D01*
X-39725339Y25936663D01*
X-39725343Y25936664D01*
X-39840424Y25967500D01*
X-39840427Y25967500D01*
X-39959573Y25967500D01*
X-39959576Y25967500D01*
X-40074658Y25936664D01*
X-40074662Y25936663D01*
X-40177843Y25877090D01*
X-40177843Y25877089D01*
X-40262089Y25792843D01*
X-40262090Y25792843D01*
X-40321663Y25689662D01*
X-40321664Y25689658D01*
X-40352500Y25574577D01*
X-41047501Y25574577D01*
X-41078337Y25689658D01*
X-41078338Y25689662D01*
X-41137911Y25792843D01*
X-41222158Y25877090D01*
X-41325339Y25936663D01*
X-41325343Y25936664D01*
X-41440424Y25967500D01*
X-41440427Y25967500D01*
X-41559573Y25967500D01*
X-41559576Y25967500D01*
X-41674658Y25936664D01*
X-41674662Y25936663D01*
X-41777843Y25877090D01*
X-41777843Y25877089D01*
X-41862089Y25792843D01*
X-41862090Y25792843D01*
X-41921663Y25689662D01*
X-41921664Y25689658D01*
X-41952500Y25574577D01*
X-42647501Y25574577D01*
X-42678337Y25689658D01*
X-42678338Y25689662D01*
X-42737911Y25792843D01*
X-42822158Y25877090D01*
X-42925339Y25936663D01*
X-42925343Y25936664D01*
X-43040424Y25967500D01*
X-43040427Y25967500D01*
X-43159573Y25967500D01*
X-43159576Y25967500D01*
X-43274658Y25936664D01*
X-43274662Y25936663D01*
X-43377843Y25877090D01*
X-43377843Y25877089D01*
X-43462089Y25792843D01*
X-43462090Y25792843D01*
X-43521663Y25689662D01*
X-43521664Y25689658D01*
X-43552500Y25574577D01*
X-44247501Y25574577D01*
X-44278337Y25689658D01*
X-44278338Y25689662D01*
X-44337911Y25792843D01*
X-44422158Y25877090D01*
X-44525339Y25936663D01*
X-44525343Y25936664D01*
X-44640424Y25967500D01*
X-44640427Y25967500D01*
X-44759573Y25967500D01*
X-44759576Y25967500D01*
X-44874658Y25936664D01*
X-44874662Y25936663D01*
X-44977843Y25877090D01*
X-44977843Y25877089D01*
X-45062089Y25792843D01*
X-45062090Y25792843D01*
X-45121663Y25689662D01*
X-45121664Y25689658D01*
X-45152500Y25574577D01*
X-45847501Y25574577D01*
X-45878337Y25689658D01*
X-45878338Y25689662D01*
X-45937911Y25792843D01*
X-46022158Y25877090D01*
X-46125339Y25936663D01*
X-46125343Y25936664D01*
X-46240424Y25967500D01*
X-46240427Y25967500D01*
X-46359573Y25967500D01*
X-46359576Y25967500D01*
X-46474658Y25936664D01*
X-46474662Y25936663D01*
X-46577843Y25877090D01*
X-46577843Y25877089D01*
X-46662089Y25792843D01*
X-46662090Y25792843D01*
X-46721663Y25689662D01*
X-46721664Y25689658D01*
X-46752500Y25574577D01*
X-47447501Y25574577D01*
X-47478337Y25689658D01*
X-47478338Y25689662D01*
X-47537911Y25792843D01*
X-47622158Y25877090D01*
X-47725339Y25936663D01*
X-47725343Y25936664D01*
X-47840424Y25967500D01*
X-47840427Y25967500D01*
X-47959573Y25967500D01*
X-47959576Y25967500D01*
X-48074658Y25936664D01*
X-48074662Y25936663D01*
X-48177843Y25877090D01*
X-48177843Y25877089D01*
X-48262089Y25792843D01*
X-48262090Y25792843D01*
X-48321663Y25689662D01*
X-48321664Y25689658D01*
X-48352500Y25574577D01*
X-49047501Y25574577D01*
X-49078337Y25689658D01*
X-49078338Y25689662D01*
X-49137911Y25792843D01*
X-49222158Y25877090D01*
X-49325339Y25936663D01*
X-49325343Y25936664D01*
X-49440424Y25967500D01*
X-49440427Y25967500D01*
X-49559573Y25967500D01*
X-49559576Y25967500D01*
X-49674658Y25936664D01*
X-49674662Y25936663D01*
X-49777843Y25877090D01*
X-49777843Y25877089D01*
X-49862089Y25792843D01*
X-49862090Y25792843D01*
X-49921663Y25689662D01*
X-49921664Y25689658D01*
X-49952500Y25574577D01*
X-50647501Y25574577D01*
X-50678337Y25689658D01*
X-50678338Y25689662D01*
X-50737911Y25792843D01*
X-50822158Y25877090D01*
X-50925339Y25936663D01*
X-50925343Y25936664D01*
X-51040424Y25967500D01*
X-51040427Y25967500D01*
X-51159573Y25967500D01*
X-51159576Y25967500D01*
X-51274658Y25936664D01*
X-51274662Y25936663D01*
X-51377843Y25877090D01*
X-51377843Y25877089D01*
X-51462089Y25792843D01*
X-51462090Y25792843D01*
X-51521663Y25689662D01*
X-51521664Y25689658D01*
X-51552500Y25574577D01*
X-74799500Y25574577D01*
X-74799500Y26724577D01*
X-50752500Y26724577D01*
X-50752500Y26605424D01*
X-50721664Y26490343D01*
X-50721663Y26490339D01*
X-50662090Y26387158D01*
X-50577842Y26302910D01*
X-50540077Y26281106D01*
X-50474662Y26243338D01*
X-50474660Y26243338D01*
X-50474659Y26243337D01*
X-50383895Y26219017D01*
X-50359577Y26212501D01*
X-50359576Y26212500D01*
X-50359573Y26212500D01*
X-50240424Y26212500D01*
X-50240424Y26212501D01*
X-50125341Y26243337D01*
X-50022158Y26302910D01*
X-49937910Y26387158D01*
X-49878337Y26490341D01*
X-49847501Y26605424D01*
X-49847500Y26605424D01*
X-49847500Y26724576D01*
X-49847501Y26724577D01*
X-49152500Y26724577D01*
X-49152500Y26605424D01*
X-49121664Y26490343D01*
X-49121663Y26490339D01*
X-49062090Y26387158D01*
X-48977842Y26302910D01*
X-48940077Y26281106D01*
X-48874662Y26243338D01*
X-48874660Y26243338D01*
X-48874659Y26243337D01*
X-48783895Y26219017D01*
X-48759577Y26212501D01*
X-48759576Y26212500D01*
X-48759573Y26212500D01*
X-48640424Y26212500D01*
X-48640424Y26212501D01*
X-48525341Y26243337D01*
X-48422158Y26302910D01*
X-48337910Y26387158D01*
X-48278337Y26490341D01*
X-48247501Y26605424D01*
X-48247500Y26605424D01*
X-48247500Y26724576D01*
X-48247501Y26724577D01*
X-45952500Y26724577D01*
X-45952500Y26605424D01*
X-45921664Y26490343D01*
X-45921663Y26490339D01*
X-45862090Y26387158D01*
X-45777842Y26302910D01*
X-45740077Y26281106D01*
X-45674662Y26243338D01*
X-45674660Y26243338D01*
X-45674659Y26243337D01*
X-45583895Y26219017D01*
X-45559577Y26212501D01*
X-45559576Y26212500D01*
X-45559573Y26212500D01*
X-45440424Y26212500D01*
X-45440424Y26212501D01*
X-45325341Y26243337D01*
X-45222158Y26302910D01*
X-45137910Y26387158D01*
X-45078337Y26490341D01*
X-45047501Y26605424D01*
X-45047500Y26605424D01*
X-45047500Y26724576D01*
X-45047501Y26724577D01*
X-44352500Y26724577D01*
X-44352500Y26605424D01*
X-44321664Y26490343D01*
X-44321663Y26490339D01*
X-44262090Y26387158D01*
X-44177842Y26302910D01*
X-44140077Y26281106D01*
X-44074662Y26243338D01*
X-44074660Y26243338D01*
X-44074659Y26243337D01*
X-43983895Y26219017D01*
X-43959577Y26212501D01*
X-43959576Y26212500D01*
X-43959573Y26212500D01*
X-43840424Y26212500D01*
X-43840424Y26212501D01*
X-43725341Y26243337D01*
X-43622158Y26302910D01*
X-43537910Y26387158D01*
X-43478337Y26490341D01*
X-43447501Y26605424D01*
X-43447500Y26605424D01*
X-43447500Y26724576D01*
X-43447501Y26724577D01*
X-42752500Y26724577D01*
X-42752500Y26605424D01*
X-42721664Y26490343D01*
X-42721663Y26490339D01*
X-42662090Y26387158D01*
X-42577842Y26302910D01*
X-42540077Y26281106D01*
X-42474662Y26243338D01*
X-42474660Y26243338D01*
X-42474659Y26243337D01*
X-42383895Y26219017D01*
X-42359577Y26212501D01*
X-42359576Y26212500D01*
X-42359573Y26212500D01*
X-42240424Y26212500D01*
X-42240424Y26212501D01*
X-42125341Y26243337D01*
X-42022158Y26302910D01*
X-41937910Y26387158D01*
X-41878337Y26490341D01*
X-41847501Y26605424D01*
X-41847500Y26605424D01*
X-41847500Y26724576D01*
X-41847501Y26724577D01*
X-41152500Y26724577D01*
X-41152500Y26605424D01*
X-41121664Y26490343D01*
X-41121663Y26490339D01*
X-41062090Y26387158D01*
X-40977842Y26302910D01*
X-40940077Y26281106D01*
X-40874662Y26243338D01*
X-40874660Y26243338D01*
X-40874659Y26243337D01*
X-40783895Y26219017D01*
X-40759577Y26212501D01*
X-40759576Y26212500D01*
X-40759573Y26212500D01*
X-40640424Y26212500D01*
X-40640424Y26212501D01*
X-40525341Y26243337D01*
X-40422158Y26302910D01*
X-40337910Y26387158D01*
X-40278337Y26490341D01*
X-40247501Y26605424D01*
X-40247500Y26605424D01*
X-40247500Y26724576D01*
X-40247501Y26724577D01*
X-39552500Y26724577D01*
X-39552500Y26605424D01*
X-39521664Y26490343D01*
X-39521663Y26490339D01*
X-39462090Y26387158D01*
X-39377842Y26302910D01*
X-39340077Y26281106D01*
X-39274662Y26243338D01*
X-39274660Y26243338D01*
X-39274659Y26243337D01*
X-39183895Y26219017D01*
X-39159577Y26212501D01*
X-39159576Y26212500D01*
X-39159573Y26212500D01*
X-39040424Y26212500D01*
X-39040424Y26212501D01*
X-38925341Y26243337D01*
X-38822158Y26302910D01*
X-38737910Y26387158D01*
X-38678337Y26490341D01*
X-38647501Y26605424D01*
X-38647500Y26605424D01*
X-38647500Y26724576D01*
X-38647501Y26724577D01*
X-37952500Y26724577D01*
X-37952500Y26605424D01*
X-37921664Y26490343D01*
X-37921663Y26490339D01*
X-37862090Y26387158D01*
X-37777842Y26302910D01*
X-37740077Y26281106D01*
X-37674662Y26243338D01*
X-37674660Y26243338D01*
X-37674659Y26243337D01*
X-37583895Y26219017D01*
X-37559577Y26212501D01*
X-37559576Y26212500D01*
X-37559573Y26212500D01*
X-37440424Y26212500D01*
X-37440424Y26212501D01*
X-37325341Y26243337D01*
X-37222158Y26302910D01*
X-37137910Y26387158D01*
X-37078337Y26490341D01*
X-37047501Y26605424D01*
X-37047500Y26605424D01*
X-37047500Y26724576D01*
X-37047501Y26724577D01*
X-36352500Y26724577D01*
X-36352500Y26605424D01*
X-36321664Y26490343D01*
X-36321663Y26490339D01*
X-36262090Y26387158D01*
X-36177842Y26302910D01*
X-36140077Y26281106D01*
X-36074662Y26243338D01*
X-36074660Y26243338D01*
X-36074659Y26243337D01*
X-35983895Y26219017D01*
X-35959577Y26212501D01*
X-35959576Y26212500D01*
X-35959573Y26212500D01*
X-35840424Y26212500D01*
X-35840424Y26212501D01*
X-35725341Y26243337D01*
X-35622158Y26302910D01*
X-35537910Y26387158D01*
X-35478337Y26490341D01*
X-35447501Y26605424D01*
X-35447500Y26605424D01*
X-35447500Y26724576D01*
X-35447501Y26724577D01*
X-34752500Y26724577D01*
X-34752500Y26605424D01*
X-34721664Y26490343D01*
X-34721663Y26490339D01*
X-34662090Y26387158D01*
X-34577842Y26302910D01*
X-34540077Y26281106D01*
X-34474662Y26243338D01*
X-34474660Y26243338D01*
X-34474659Y26243337D01*
X-34383895Y26219017D01*
X-34359577Y26212501D01*
X-34359576Y26212500D01*
X-34359573Y26212500D01*
X-34240424Y26212500D01*
X-34240424Y26212501D01*
X-34125341Y26243337D01*
X-34022158Y26302910D01*
X-33937910Y26387158D01*
X-33878337Y26490341D01*
X-33847501Y26605424D01*
X-33847500Y26605424D01*
X-33847500Y26724576D01*
X-33847501Y26724577D01*
X-33152500Y26724577D01*
X-33152500Y26605424D01*
X-33121664Y26490343D01*
X-33121663Y26490339D01*
X-33062090Y26387158D01*
X-32977842Y26302910D01*
X-32940077Y26281106D01*
X-32874662Y26243338D01*
X-32874660Y26243338D01*
X-32874659Y26243337D01*
X-32783895Y26219017D01*
X-32759577Y26212501D01*
X-32759576Y26212500D01*
X-32759573Y26212500D01*
X-32640424Y26212500D01*
X-32640424Y26212501D01*
X-32525341Y26243337D01*
X-32422158Y26302910D01*
X-32337910Y26387158D01*
X-32278337Y26490341D01*
X-32247501Y26605424D01*
X-32247500Y26605424D01*
X-32247500Y26724576D01*
X-32247501Y26724577D01*
X-31552500Y26724577D01*
X-31552500Y26605424D01*
X-31521664Y26490343D01*
X-31521663Y26490339D01*
X-31462090Y26387158D01*
X-31377842Y26302910D01*
X-31340077Y26281106D01*
X-31274662Y26243338D01*
X-31274660Y26243338D01*
X-31274659Y26243337D01*
X-31183895Y26219017D01*
X-31159577Y26212501D01*
X-31159576Y26212500D01*
X-31159573Y26212500D01*
X-31040424Y26212500D01*
X-31040424Y26212501D01*
X-30925341Y26243337D01*
X-30822158Y26302910D01*
X-30737910Y26387158D01*
X-30678337Y26490341D01*
X-30647501Y26605424D01*
X-30647500Y26605424D01*
X-30647500Y26724576D01*
X-30647501Y26724577D01*
X-29952500Y26724577D01*
X-29952500Y26605424D01*
X-29921664Y26490343D01*
X-29921663Y26490339D01*
X-29862090Y26387158D01*
X-29777842Y26302910D01*
X-29740077Y26281106D01*
X-29674662Y26243338D01*
X-29674660Y26243338D01*
X-29674659Y26243337D01*
X-29583895Y26219017D01*
X-29559577Y26212501D01*
X-29559576Y26212500D01*
X-29559573Y26212500D01*
X-29440424Y26212500D01*
X-29440424Y26212501D01*
X-29325341Y26243337D01*
X-29222158Y26302910D01*
X-29137910Y26387158D01*
X-29078337Y26490341D01*
X-29047501Y26605424D01*
X-29047500Y26605424D01*
X-29047500Y26724576D01*
X-29047501Y26724577D01*
X-26752500Y26724577D01*
X-26752500Y26605424D01*
X-26721664Y26490343D01*
X-26721663Y26490339D01*
X-26662090Y26387158D01*
X-26577842Y26302910D01*
X-26540077Y26281106D01*
X-26474662Y26243338D01*
X-26474660Y26243338D01*
X-26474659Y26243337D01*
X-26383895Y26219017D01*
X-26359577Y26212501D01*
X-26359576Y26212500D01*
X-26359573Y26212500D01*
X-26240424Y26212500D01*
X-26240424Y26212501D01*
X-26125341Y26243337D01*
X-26022158Y26302910D01*
X-25937910Y26387158D01*
X-25878337Y26490341D01*
X-25847501Y26605424D01*
X-25847500Y26605424D01*
X-25847500Y26724576D01*
X-25847501Y26724577D01*
X-25152500Y26724577D01*
X-25152500Y26605424D01*
X-25121664Y26490343D01*
X-25121663Y26490339D01*
X-25062090Y26387158D01*
X-24977842Y26302910D01*
X-24940077Y26281106D01*
X-24874662Y26243338D01*
X-24874660Y26243338D01*
X-24874659Y26243337D01*
X-24783895Y26219017D01*
X-24759577Y26212501D01*
X-24759576Y26212500D01*
X-24759573Y26212500D01*
X-24640424Y26212500D01*
X-24640424Y26212501D01*
X-24525341Y26243337D01*
X-24422158Y26302910D01*
X-24337910Y26387158D01*
X-24278337Y26490341D01*
X-24247501Y26605424D01*
X-24247500Y26605424D01*
X-24247500Y26724576D01*
X-24247501Y26724577D01*
X-24264361Y26787500D01*
X-24278337Y26839659D01*
X-24278338Y26839660D01*
X-24278338Y26839662D01*
X-24337911Y26942843D01*
X-24422158Y27027090D01*
X-24525339Y27086663D01*
X-24525343Y27086664D01*
X-24640424Y27117500D01*
X-24640427Y27117500D01*
X-24759573Y27117500D01*
X-24759576Y27117500D01*
X-24874658Y27086664D01*
X-24874662Y27086663D01*
X-24977843Y27027090D01*
X-24977843Y27027089D01*
X-25062089Y26942843D01*
X-25062090Y26942843D01*
X-25121663Y26839662D01*
X-25121664Y26839658D01*
X-25152500Y26724577D01*
X-25847501Y26724577D01*
X-25864361Y26787500D01*
X-25878337Y26839659D01*
X-25878338Y26839660D01*
X-25878338Y26839662D01*
X-25937911Y26942843D01*
X-26022158Y27027090D01*
X-26125339Y27086663D01*
X-26125343Y27086664D01*
X-26240424Y27117500D01*
X-26240427Y27117500D01*
X-26359573Y27117500D01*
X-26359576Y27117500D01*
X-26474658Y27086664D01*
X-26474662Y27086663D01*
X-26577843Y27027090D01*
X-26577843Y27027089D01*
X-26662089Y26942843D01*
X-26662090Y26942843D01*
X-26721663Y26839662D01*
X-26721664Y26839658D01*
X-26752500Y26724577D01*
X-29047501Y26724577D01*
X-29064361Y26787500D01*
X-29078337Y26839659D01*
X-29078338Y26839660D01*
X-29078338Y26839662D01*
X-29137911Y26942843D01*
X-29222158Y27027090D01*
X-29325339Y27086663D01*
X-29325343Y27086664D01*
X-29440424Y27117500D01*
X-29440427Y27117500D01*
X-29559573Y27117500D01*
X-29559576Y27117500D01*
X-29674658Y27086664D01*
X-29674662Y27086663D01*
X-29777843Y27027090D01*
X-29777843Y27027089D01*
X-29862089Y26942843D01*
X-29862090Y26942843D01*
X-29921663Y26839662D01*
X-29921664Y26839658D01*
X-29952500Y26724577D01*
X-30647501Y26724577D01*
X-30664361Y26787500D01*
X-30678337Y26839659D01*
X-30678338Y26839660D01*
X-30678338Y26839662D01*
X-30737911Y26942843D01*
X-30822158Y27027090D01*
X-30925339Y27086663D01*
X-30925343Y27086664D01*
X-31040424Y27117500D01*
X-31040427Y27117500D01*
X-31159573Y27117500D01*
X-31159576Y27117500D01*
X-31274658Y27086664D01*
X-31274662Y27086663D01*
X-31377843Y27027090D01*
X-31377843Y27027089D01*
X-31462089Y26942843D01*
X-31462090Y26942843D01*
X-31521663Y26839662D01*
X-31521664Y26839658D01*
X-31552500Y26724577D01*
X-32247501Y26724577D01*
X-32264361Y26787500D01*
X-32278337Y26839659D01*
X-32278338Y26839660D01*
X-32278338Y26839662D01*
X-32337911Y26942843D01*
X-32422158Y27027090D01*
X-32525339Y27086663D01*
X-32525343Y27086664D01*
X-32640424Y27117500D01*
X-32640427Y27117500D01*
X-32759573Y27117500D01*
X-32759576Y27117500D01*
X-32874658Y27086664D01*
X-32874662Y27086663D01*
X-32977843Y27027090D01*
X-32977843Y27027089D01*
X-33062089Y26942843D01*
X-33062090Y26942843D01*
X-33121663Y26839662D01*
X-33121664Y26839658D01*
X-33152500Y26724577D01*
X-33847501Y26724577D01*
X-33864361Y26787500D01*
X-33878337Y26839659D01*
X-33878338Y26839660D01*
X-33878338Y26839662D01*
X-33937911Y26942843D01*
X-34022158Y27027090D01*
X-34125339Y27086663D01*
X-34125343Y27086664D01*
X-34240424Y27117500D01*
X-34240427Y27117500D01*
X-34359573Y27117500D01*
X-34359576Y27117500D01*
X-34474658Y27086664D01*
X-34474662Y27086663D01*
X-34577843Y27027090D01*
X-34577843Y27027089D01*
X-34662089Y26942843D01*
X-34662090Y26942843D01*
X-34721663Y26839662D01*
X-34721664Y26839658D01*
X-34752500Y26724577D01*
X-35447501Y26724577D01*
X-35464361Y26787500D01*
X-35478337Y26839659D01*
X-35478338Y26839660D01*
X-35478338Y26839662D01*
X-35537911Y26942843D01*
X-35622158Y27027090D01*
X-35725339Y27086663D01*
X-35725343Y27086664D01*
X-35840424Y27117500D01*
X-35840427Y27117500D01*
X-35959573Y27117500D01*
X-35959576Y27117500D01*
X-36074658Y27086664D01*
X-36074662Y27086663D01*
X-36177843Y27027090D01*
X-36177843Y27027089D01*
X-36262089Y26942843D01*
X-36262090Y26942843D01*
X-36321663Y26839662D01*
X-36321664Y26839658D01*
X-36352500Y26724577D01*
X-37047501Y26724577D01*
X-37064361Y26787500D01*
X-37078337Y26839659D01*
X-37078338Y26839660D01*
X-37078338Y26839662D01*
X-37137911Y26942843D01*
X-37222158Y27027090D01*
X-37325339Y27086663D01*
X-37325343Y27086664D01*
X-37440424Y27117500D01*
X-37440427Y27117500D01*
X-37559573Y27117500D01*
X-37559576Y27117500D01*
X-37674658Y27086664D01*
X-37674662Y27086663D01*
X-37777843Y27027090D01*
X-37777843Y27027089D01*
X-37862089Y26942843D01*
X-37862090Y26942843D01*
X-37921663Y26839662D01*
X-37921664Y26839658D01*
X-37952500Y26724577D01*
X-38647501Y26724577D01*
X-38664361Y26787500D01*
X-38678337Y26839659D01*
X-38678338Y26839660D01*
X-38678338Y26839662D01*
X-38737911Y26942843D01*
X-38822158Y27027090D01*
X-38925339Y27086663D01*
X-38925343Y27086664D01*
X-39040424Y27117500D01*
X-39040427Y27117500D01*
X-39159573Y27117500D01*
X-39159576Y27117500D01*
X-39274658Y27086664D01*
X-39274662Y27086663D01*
X-39377843Y27027090D01*
X-39377843Y27027089D01*
X-39462089Y26942843D01*
X-39462090Y26942843D01*
X-39521663Y26839662D01*
X-39521664Y26839658D01*
X-39552500Y26724577D01*
X-40247501Y26724577D01*
X-40264361Y26787500D01*
X-40278337Y26839659D01*
X-40278338Y26839660D01*
X-40278338Y26839662D01*
X-40337911Y26942843D01*
X-40422158Y27027090D01*
X-40525339Y27086663D01*
X-40525343Y27086664D01*
X-40640424Y27117500D01*
X-40640427Y27117500D01*
X-40759573Y27117500D01*
X-40759576Y27117500D01*
X-40874658Y27086664D01*
X-40874662Y27086663D01*
X-40977843Y27027090D01*
X-40977843Y27027089D01*
X-41062089Y26942843D01*
X-41062090Y26942843D01*
X-41121663Y26839662D01*
X-41121664Y26839658D01*
X-41152500Y26724577D01*
X-41847501Y26724577D01*
X-41864361Y26787500D01*
X-41878337Y26839659D01*
X-41878338Y26839660D01*
X-41878338Y26839662D01*
X-41937911Y26942843D01*
X-42022158Y27027090D01*
X-42125339Y27086663D01*
X-42125343Y27086664D01*
X-42240424Y27117500D01*
X-42240427Y27117500D01*
X-42359573Y27117500D01*
X-42359576Y27117500D01*
X-42474658Y27086664D01*
X-42474662Y27086663D01*
X-42577843Y27027090D01*
X-42577843Y27027089D01*
X-42662089Y26942843D01*
X-42662090Y26942843D01*
X-42721663Y26839662D01*
X-42721664Y26839658D01*
X-42752500Y26724577D01*
X-43447501Y26724577D01*
X-43464361Y26787500D01*
X-43478337Y26839659D01*
X-43478338Y26839660D01*
X-43478338Y26839662D01*
X-43537911Y26942843D01*
X-43622158Y27027090D01*
X-43725339Y27086663D01*
X-43725343Y27086664D01*
X-43840424Y27117500D01*
X-43840427Y27117500D01*
X-43959573Y27117500D01*
X-43959576Y27117500D01*
X-44074658Y27086664D01*
X-44074662Y27086663D01*
X-44177843Y27027090D01*
X-44177843Y27027089D01*
X-44262089Y26942843D01*
X-44262090Y26942843D01*
X-44321663Y26839662D01*
X-44321664Y26839658D01*
X-44352500Y26724577D01*
X-45047501Y26724577D01*
X-45064361Y26787500D01*
X-45078337Y26839659D01*
X-45078338Y26839660D01*
X-45078338Y26839662D01*
X-45137911Y26942843D01*
X-45222158Y27027090D01*
X-45325339Y27086663D01*
X-45325343Y27086664D01*
X-45440424Y27117500D01*
X-45440427Y27117500D01*
X-45559573Y27117500D01*
X-45559576Y27117500D01*
X-45674658Y27086664D01*
X-45674662Y27086663D01*
X-45777843Y27027090D01*
X-45777843Y27027089D01*
X-45862089Y26942843D01*
X-45862090Y26942843D01*
X-45921663Y26839662D01*
X-45921664Y26839658D01*
X-45952500Y26724577D01*
X-48247501Y26724577D01*
X-48264361Y26787500D01*
X-48278337Y26839659D01*
X-48278338Y26839660D01*
X-48278338Y26839662D01*
X-48337911Y26942843D01*
X-48422158Y27027090D01*
X-48525339Y27086663D01*
X-48525343Y27086664D01*
X-48640424Y27117500D01*
X-48640427Y27117500D01*
X-48759573Y27117500D01*
X-48759576Y27117500D01*
X-48874658Y27086664D01*
X-48874662Y27086663D01*
X-48977843Y27027090D01*
X-48977843Y27027089D01*
X-49062089Y26942843D01*
X-49062090Y26942843D01*
X-49121663Y26839662D01*
X-49121664Y26839658D01*
X-49152500Y26724577D01*
X-49847501Y26724577D01*
X-49864361Y26787500D01*
X-49878337Y26839659D01*
X-49878338Y26839660D01*
X-49878338Y26839662D01*
X-49937911Y26942843D01*
X-50022158Y27027090D01*
X-50125339Y27086663D01*
X-50125343Y27086664D01*
X-50240424Y27117500D01*
X-50240427Y27117500D01*
X-50359573Y27117500D01*
X-50359576Y27117500D01*
X-50474658Y27086664D01*
X-50474662Y27086663D01*
X-50577843Y27027090D01*
X-50577843Y27027089D01*
X-50662089Y26942843D01*
X-50662090Y26942843D01*
X-50721663Y26839662D01*
X-50721664Y26839658D01*
X-50752500Y26724577D01*
X-74799500Y26724577D01*
X-74799500Y28131734D01*
X-54952500Y28131734D01*
X-54952500Y27398267D01*
X-54926467Y27267391D01*
X-54926464Y27267381D01*
X-54875393Y27144083D01*
X-54845496Y27099339D01*
X-54801252Y27033122D01*
X-54706879Y26938749D01*
X-54662735Y26909254D01*
X-54595917Y26864607D01*
X-54472619Y26813536D01*
X-54472613Y26813535D01*
X-54472610Y26813534D01*
X-54341734Y26787501D01*
X-54341728Y26787500D01*
X-54208272Y26787500D01*
X-54077381Y26813536D01*
X-53954083Y26864607D01*
X-53843119Y26938751D01*
X-53748751Y27033119D01*
X-53674607Y27144083D01*
X-53623536Y27267381D01*
X-53597500Y27398272D01*
X-53597500Y27924577D01*
X-51952500Y27924577D01*
X-51952500Y27805424D01*
X-51921664Y27690343D01*
X-51921663Y27690339D01*
X-51862090Y27587158D01*
X-51777842Y27502910D01*
X-51740077Y27481106D01*
X-51674662Y27443338D01*
X-51674660Y27443338D01*
X-51674659Y27443337D01*
X-51583895Y27419017D01*
X-51559577Y27412501D01*
X-51559576Y27412500D01*
X-51559573Y27412500D01*
X-51440424Y27412500D01*
X-51440424Y27412501D01*
X-51325341Y27443337D01*
X-51222158Y27502910D01*
X-51137910Y27587158D01*
X-51078337Y27690341D01*
X-51047501Y27805424D01*
X-51047500Y27805424D01*
X-51047500Y27924576D01*
X-51047501Y27924577D01*
X-50352500Y27924577D01*
X-50352500Y27805424D01*
X-50321664Y27690343D01*
X-50321663Y27690339D01*
X-50262090Y27587158D01*
X-50177842Y27502910D01*
X-50140077Y27481106D01*
X-50074662Y27443338D01*
X-50074660Y27443338D01*
X-50074659Y27443337D01*
X-49983895Y27419017D01*
X-49959577Y27412501D01*
X-49959576Y27412500D01*
X-49959573Y27412500D01*
X-49840424Y27412500D01*
X-49840424Y27412501D01*
X-49725341Y27443337D01*
X-49622158Y27502910D01*
X-49537910Y27587158D01*
X-49478337Y27690341D01*
X-49447501Y27805424D01*
X-49447500Y27805424D01*
X-49447500Y27924576D01*
X-49447501Y27924577D01*
X-48752500Y27924577D01*
X-48752500Y27805424D01*
X-48721664Y27690343D01*
X-48721663Y27690339D01*
X-48662090Y27587158D01*
X-48577842Y27502910D01*
X-48540077Y27481106D01*
X-48474662Y27443338D01*
X-48474660Y27443338D01*
X-48474659Y27443337D01*
X-48383895Y27419017D01*
X-48359577Y27412501D01*
X-48359576Y27412500D01*
X-48359573Y27412500D01*
X-48240424Y27412500D01*
X-48240424Y27412501D01*
X-48125341Y27443337D01*
X-48022158Y27502910D01*
X-47937910Y27587158D01*
X-47878337Y27690341D01*
X-47847501Y27805424D01*
X-47847500Y27805424D01*
X-47847500Y27924576D01*
X-47847501Y27924577D01*
X-47152500Y27924577D01*
X-47152500Y27805424D01*
X-47121664Y27690343D01*
X-47121663Y27690339D01*
X-47062090Y27587158D01*
X-46977842Y27502910D01*
X-46940077Y27481106D01*
X-46874662Y27443338D01*
X-46874660Y27443338D01*
X-46874659Y27443337D01*
X-46783895Y27419017D01*
X-46759577Y27412501D01*
X-46759576Y27412500D01*
X-46759573Y27412500D01*
X-46640424Y27412500D01*
X-46640424Y27412501D01*
X-46525341Y27443337D01*
X-46422158Y27502910D01*
X-46337910Y27587158D01*
X-46278337Y27690341D01*
X-46247501Y27805424D01*
X-46247500Y27805424D01*
X-46247500Y27924576D01*
X-46247501Y27924577D01*
X-45552500Y27924577D01*
X-45552500Y27805424D01*
X-45521664Y27690343D01*
X-45521663Y27690339D01*
X-45462090Y27587158D01*
X-45377842Y27502910D01*
X-45340077Y27481106D01*
X-45274662Y27443338D01*
X-45274660Y27443338D01*
X-45274659Y27443337D01*
X-45183895Y27419017D01*
X-45159577Y27412501D01*
X-45159576Y27412500D01*
X-45159573Y27412500D01*
X-45040424Y27412500D01*
X-45040424Y27412501D01*
X-44925341Y27443337D01*
X-44822158Y27502910D01*
X-44737910Y27587158D01*
X-44678337Y27690341D01*
X-44647501Y27805424D01*
X-44647500Y27805424D01*
X-44647500Y27924576D01*
X-44647501Y27924577D01*
X-43952500Y27924577D01*
X-43952500Y27805424D01*
X-43921664Y27690343D01*
X-43921663Y27690339D01*
X-43862090Y27587158D01*
X-43777842Y27502910D01*
X-43740077Y27481106D01*
X-43674662Y27443338D01*
X-43674660Y27443338D01*
X-43674659Y27443337D01*
X-43583895Y27419017D01*
X-43559577Y27412501D01*
X-43559576Y27412500D01*
X-43559573Y27412500D01*
X-43440424Y27412500D01*
X-43440424Y27412501D01*
X-43325341Y27443337D01*
X-43222158Y27502910D01*
X-43137910Y27587158D01*
X-43078337Y27690341D01*
X-43047501Y27805424D01*
X-43047500Y27805424D01*
X-43047500Y27924576D01*
X-43047501Y27924577D01*
X-42352500Y27924577D01*
X-42352500Y27805424D01*
X-42321664Y27690343D01*
X-42321663Y27690339D01*
X-42262090Y27587158D01*
X-42177842Y27502910D01*
X-42140077Y27481106D01*
X-42074662Y27443338D01*
X-42074660Y27443338D01*
X-42074659Y27443337D01*
X-41983895Y27419017D01*
X-41959577Y27412501D01*
X-41959576Y27412500D01*
X-41959573Y27412500D01*
X-41840424Y27412500D01*
X-41840424Y27412501D01*
X-41725341Y27443337D01*
X-41622158Y27502910D01*
X-41537910Y27587158D01*
X-41478337Y27690341D01*
X-41447501Y27805424D01*
X-41447500Y27805424D01*
X-41447500Y27924576D01*
X-41447501Y27924577D01*
X-40752500Y27924577D01*
X-40752500Y27805424D01*
X-40721664Y27690343D01*
X-40721663Y27690339D01*
X-40662090Y27587158D01*
X-40577842Y27502910D01*
X-40540077Y27481106D01*
X-40474662Y27443338D01*
X-40474660Y27443338D01*
X-40474659Y27443337D01*
X-40383895Y27419017D01*
X-40359577Y27412501D01*
X-40359576Y27412500D01*
X-40359573Y27412500D01*
X-40240424Y27412500D01*
X-40240424Y27412501D01*
X-40125341Y27443337D01*
X-40022158Y27502910D01*
X-39937910Y27587158D01*
X-39878337Y27690341D01*
X-39847501Y27805424D01*
X-39847500Y27805424D01*
X-39847500Y27924576D01*
X-39847501Y27924577D01*
X-39152500Y27924577D01*
X-39152500Y27805424D01*
X-39121664Y27690343D01*
X-39121663Y27690339D01*
X-39062090Y27587158D01*
X-38977842Y27502910D01*
X-38940077Y27481106D01*
X-38874662Y27443338D01*
X-38874660Y27443338D01*
X-38874659Y27443337D01*
X-38783895Y27419017D01*
X-38759577Y27412501D01*
X-38759576Y27412500D01*
X-38759573Y27412500D01*
X-38640424Y27412500D01*
X-38640424Y27412501D01*
X-38525341Y27443337D01*
X-38422158Y27502910D01*
X-38337910Y27587158D01*
X-38278337Y27690341D01*
X-38247501Y27805424D01*
X-38247500Y27805424D01*
X-38247500Y27924576D01*
X-38247501Y27924577D01*
X-34352500Y27924577D01*
X-34352500Y27805424D01*
X-34321664Y27690343D01*
X-34321663Y27690339D01*
X-34262090Y27587158D01*
X-34177842Y27502910D01*
X-34140077Y27481106D01*
X-34074662Y27443338D01*
X-34074660Y27443338D01*
X-34074659Y27443337D01*
X-33983895Y27419017D01*
X-33959577Y27412501D01*
X-33959576Y27412500D01*
X-33959573Y27412500D01*
X-33840424Y27412500D01*
X-33840424Y27412501D01*
X-33725341Y27443337D01*
X-33622158Y27502910D01*
X-33537910Y27587158D01*
X-33478337Y27690341D01*
X-33447501Y27805424D01*
X-33447500Y27805424D01*
X-33447500Y27924576D01*
X-33447501Y27924577D01*
X-32752500Y27924577D01*
X-32752500Y27805424D01*
X-32721664Y27690343D01*
X-32721663Y27690339D01*
X-32662090Y27587158D01*
X-32577842Y27502910D01*
X-32540077Y27481106D01*
X-32474662Y27443338D01*
X-32474660Y27443338D01*
X-32474659Y27443337D01*
X-32383895Y27419017D01*
X-32359577Y27412501D01*
X-32359576Y27412500D01*
X-32359573Y27412500D01*
X-32240424Y27412500D01*
X-32240424Y27412501D01*
X-32125341Y27443337D01*
X-32022158Y27502910D01*
X-31937910Y27587158D01*
X-31878337Y27690341D01*
X-31847501Y27805424D01*
X-31847500Y27805424D01*
X-31847500Y27924576D01*
X-31847501Y27924577D01*
X-31152500Y27924577D01*
X-31152500Y27805424D01*
X-31121664Y27690343D01*
X-31121663Y27690339D01*
X-31062090Y27587158D01*
X-30977842Y27502910D01*
X-30940077Y27481106D01*
X-30874662Y27443338D01*
X-30874660Y27443338D01*
X-30874659Y27443337D01*
X-30783895Y27419017D01*
X-30759577Y27412501D01*
X-30759576Y27412500D01*
X-30759573Y27412500D01*
X-30640424Y27412500D01*
X-30640424Y27412501D01*
X-30525341Y27443337D01*
X-30422158Y27502910D01*
X-30337910Y27587158D01*
X-30278337Y27690341D01*
X-30247501Y27805424D01*
X-30247500Y27805424D01*
X-30247500Y27924576D01*
X-30247501Y27924577D01*
X-29552500Y27924577D01*
X-29552500Y27805424D01*
X-29521664Y27690343D01*
X-29521663Y27690339D01*
X-29462090Y27587158D01*
X-29377842Y27502910D01*
X-29340077Y27481106D01*
X-29274662Y27443338D01*
X-29274660Y27443338D01*
X-29274659Y27443337D01*
X-29183895Y27419017D01*
X-29159577Y27412501D01*
X-29159576Y27412500D01*
X-29159573Y27412500D01*
X-29040424Y27412500D01*
X-29040424Y27412501D01*
X-28925341Y27443337D01*
X-28822158Y27502910D01*
X-28737910Y27587158D01*
X-28678337Y27690341D01*
X-28647501Y27805424D01*
X-28647500Y27805424D01*
X-28647500Y27924576D01*
X-28647501Y27924577D01*
X-27952500Y27924577D01*
X-27952500Y27805424D01*
X-27921664Y27690343D01*
X-27921663Y27690339D01*
X-27862090Y27587158D01*
X-27777842Y27502910D01*
X-27740077Y27481106D01*
X-27674662Y27443338D01*
X-27674660Y27443338D01*
X-27674659Y27443337D01*
X-27583895Y27419017D01*
X-27559577Y27412501D01*
X-27559576Y27412500D01*
X-27559573Y27412500D01*
X-27440424Y27412500D01*
X-27440424Y27412501D01*
X-27325341Y27443337D01*
X-27222158Y27502910D01*
X-27137910Y27587158D01*
X-27078337Y27690341D01*
X-27047501Y27805424D01*
X-27047500Y27805424D01*
X-27047500Y27924576D01*
X-27047501Y27924577D01*
X-26352500Y27924577D01*
X-26352500Y27805424D01*
X-26321664Y27690343D01*
X-26321663Y27690339D01*
X-26262090Y27587158D01*
X-26177842Y27502910D01*
X-26140077Y27481106D01*
X-26074662Y27443338D01*
X-26074660Y27443338D01*
X-26074659Y27443337D01*
X-25983895Y27419017D01*
X-25959577Y27412501D01*
X-25959576Y27412500D01*
X-25959573Y27412500D01*
X-25840424Y27412500D01*
X-25840424Y27412501D01*
X-25725341Y27443337D01*
X-25622158Y27502910D01*
X-25537910Y27587158D01*
X-25478337Y27690341D01*
X-25447501Y27805424D01*
X-25447500Y27805424D01*
X-25447500Y27924576D01*
X-25447501Y27924577D01*
X-25478337Y28039658D01*
X-25478338Y28039662D01*
X-25516106Y28105077D01*
X-25531497Y28131734D01*
X-22602500Y28131734D01*
X-22602500Y27398267D01*
X-22576467Y27267391D01*
X-22576464Y27267381D01*
X-22525393Y27144083D01*
X-22495496Y27099339D01*
X-22451252Y27033122D01*
X-22356879Y26938749D01*
X-22312735Y26909254D01*
X-22245917Y26864607D01*
X-22122619Y26813536D01*
X-22122613Y26813535D01*
X-22122610Y26813534D01*
X-21991734Y26787501D01*
X-21991728Y26787500D01*
X-21858272Y26787500D01*
X-21727381Y26813536D01*
X-21604083Y26864607D01*
X-21493119Y26938751D01*
X-21398751Y27033119D01*
X-21324607Y27144083D01*
X-21273536Y27267381D01*
X-21247500Y27398272D01*
X-21247500Y28131728D01*
X-21249711Y28142843D01*
X-21273534Y28262610D01*
X-21273537Y28262621D01*
X-21324606Y28385914D01*
X-21324607Y28385917D01*
X-21369254Y28452735D01*
X-21398749Y28496879D01*
X-21493122Y28591252D01*
X-21559339Y28635496D01*
X-21604083Y28665393D01*
X-21604086Y28665395D01*
X-21604087Y28665395D01*
X-21727380Y28716464D01*
X-21727391Y28716467D01*
X-21858267Y28742500D01*
X-21858272Y28742500D01*
X-21991728Y28742500D01*
X-21991734Y28742500D01*
X-22122610Y28716467D01*
X-22122621Y28716464D01*
X-22245914Y28665395D01*
X-22356879Y28591252D01*
X-22451252Y28496879D01*
X-22525395Y28385914D01*
X-22576464Y28262621D01*
X-22576467Y28262610D01*
X-22602500Y28131734D01*
X-25531497Y28131734D01*
X-25537910Y28142842D01*
X-25622158Y28227090D01*
X-25725339Y28286663D01*
X-25725343Y28286664D01*
X-25840424Y28317500D01*
X-25840427Y28317500D01*
X-25959573Y28317500D01*
X-25959576Y28317500D01*
X-26074658Y28286664D01*
X-26074662Y28286663D01*
X-26177843Y28227090D01*
X-26177843Y28227089D01*
X-26262089Y28142843D01*
X-26262090Y28142843D01*
X-26321663Y28039662D01*
X-26321664Y28039658D01*
X-26352500Y27924577D01*
X-27047501Y27924577D01*
X-27078337Y28039658D01*
X-27078338Y28039662D01*
X-27116106Y28105077D01*
X-27137910Y28142842D01*
X-27222158Y28227090D01*
X-27325339Y28286663D01*
X-27325343Y28286664D01*
X-27440424Y28317500D01*
X-27440427Y28317500D01*
X-27559573Y28317500D01*
X-27559576Y28317500D01*
X-27674658Y28286664D01*
X-27674662Y28286663D01*
X-27777843Y28227090D01*
X-27777843Y28227089D01*
X-27862089Y28142843D01*
X-27862090Y28142843D01*
X-27921663Y28039662D01*
X-27921664Y28039658D01*
X-27952500Y27924577D01*
X-28647501Y27924577D01*
X-28678337Y28039658D01*
X-28678338Y28039662D01*
X-28716106Y28105077D01*
X-28737910Y28142842D01*
X-28822158Y28227090D01*
X-28925339Y28286663D01*
X-28925343Y28286664D01*
X-29040424Y28317500D01*
X-29040427Y28317500D01*
X-29159573Y28317500D01*
X-29159576Y28317500D01*
X-29274658Y28286664D01*
X-29274662Y28286663D01*
X-29377843Y28227090D01*
X-29377843Y28227089D01*
X-29462089Y28142843D01*
X-29462090Y28142843D01*
X-29521663Y28039662D01*
X-29521664Y28039658D01*
X-29552500Y27924577D01*
X-30247501Y27924577D01*
X-30278337Y28039658D01*
X-30278338Y28039662D01*
X-30316106Y28105077D01*
X-30337910Y28142842D01*
X-30422158Y28227090D01*
X-30525339Y28286663D01*
X-30525343Y28286664D01*
X-30640424Y28317500D01*
X-30640427Y28317500D01*
X-30759573Y28317500D01*
X-30759576Y28317500D01*
X-30874658Y28286664D01*
X-30874662Y28286663D01*
X-30977843Y28227090D01*
X-30977843Y28227089D01*
X-31062089Y28142843D01*
X-31062090Y28142843D01*
X-31121663Y28039662D01*
X-31121664Y28039658D01*
X-31152500Y27924577D01*
X-31847501Y27924577D01*
X-31878337Y28039658D01*
X-31878338Y28039662D01*
X-31916106Y28105077D01*
X-31937910Y28142842D01*
X-32022158Y28227090D01*
X-32125339Y28286663D01*
X-32125343Y28286664D01*
X-32240424Y28317500D01*
X-32240427Y28317500D01*
X-32359573Y28317500D01*
X-32359576Y28317500D01*
X-32474658Y28286664D01*
X-32474662Y28286663D01*
X-32577843Y28227090D01*
X-32577843Y28227089D01*
X-32662089Y28142843D01*
X-32662090Y28142843D01*
X-32721663Y28039662D01*
X-32721664Y28039658D01*
X-32752500Y27924577D01*
X-33447501Y27924577D01*
X-33478337Y28039658D01*
X-33478338Y28039662D01*
X-33516106Y28105077D01*
X-33537910Y28142842D01*
X-33622158Y28227090D01*
X-33725339Y28286663D01*
X-33725343Y28286664D01*
X-33840424Y28317500D01*
X-33840427Y28317500D01*
X-33959573Y28317500D01*
X-33959576Y28317500D01*
X-34074658Y28286664D01*
X-34074662Y28286663D01*
X-34177843Y28227090D01*
X-34177843Y28227089D01*
X-34262089Y28142843D01*
X-34262090Y28142843D01*
X-34321663Y28039662D01*
X-34321664Y28039658D01*
X-34352500Y27924577D01*
X-38247501Y27924577D01*
X-38278337Y28039658D01*
X-38278338Y28039662D01*
X-38316106Y28105077D01*
X-38337910Y28142842D01*
X-38422158Y28227090D01*
X-38525339Y28286663D01*
X-38525343Y28286664D01*
X-38640424Y28317500D01*
X-38640427Y28317500D01*
X-38759573Y28317500D01*
X-38759576Y28317500D01*
X-38874658Y28286664D01*
X-38874662Y28286663D01*
X-38977843Y28227090D01*
X-38977843Y28227089D01*
X-39062089Y28142843D01*
X-39062090Y28142843D01*
X-39121663Y28039662D01*
X-39121664Y28039658D01*
X-39152500Y27924577D01*
X-39847501Y27924577D01*
X-39878337Y28039658D01*
X-39878338Y28039662D01*
X-39916106Y28105077D01*
X-39937910Y28142842D01*
X-40022158Y28227090D01*
X-40125339Y28286663D01*
X-40125343Y28286664D01*
X-40240424Y28317500D01*
X-40240427Y28317500D01*
X-40359573Y28317500D01*
X-40359576Y28317500D01*
X-40474658Y28286664D01*
X-40474662Y28286663D01*
X-40577843Y28227090D01*
X-40577843Y28227089D01*
X-40662089Y28142843D01*
X-40662090Y28142843D01*
X-40721663Y28039662D01*
X-40721664Y28039658D01*
X-40752500Y27924577D01*
X-41447501Y27924577D01*
X-41478337Y28039658D01*
X-41478338Y28039662D01*
X-41516106Y28105077D01*
X-41537910Y28142842D01*
X-41622158Y28227090D01*
X-41725339Y28286663D01*
X-41725343Y28286664D01*
X-41840424Y28317500D01*
X-41840427Y28317500D01*
X-41959573Y28317500D01*
X-41959576Y28317500D01*
X-42074658Y28286664D01*
X-42074662Y28286663D01*
X-42177843Y28227090D01*
X-42177843Y28227089D01*
X-42262089Y28142843D01*
X-42262090Y28142843D01*
X-42321663Y28039662D01*
X-42321664Y28039658D01*
X-42352500Y27924577D01*
X-43047501Y27924577D01*
X-43078337Y28039658D01*
X-43078338Y28039662D01*
X-43116106Y28105077D01*
X-43137910Y28142842D01*
X-43222158Y28227090D01*
X-43325339Y28286663D01*
X-43325343Y28286664D01*
X-43440424Y28317500D01*
X-43440427Y28317500D01*
X-43559573Y28317500D01*
X-43559576Y28317500D01*
X-43674658Y28286664D01*
X-43674662Y28286663D01*
X-43777843Y28227090D01*
X-43777843Y28227089D01*
X-43862089Y28142843D01*
X-43862090Y28142843D01*
X-43921663Y28039662D01*
X-43921664Y28039658D01*
X-43952500Y27924577D01*
X-44647501Y27924577D01*
X-44678337Y28039658D01*
X-44678338Y28039662D01*
X-44716106Y28105077D01*
X-44737910Y28142842D01*
X-44822158Y28227090D01*
X-44925339Y28286663D01*
X-44925343Y28286664D01*
X-45040424Y28317500D01*
X-45040427Y28317500D01*
X-45159573Y28317500D01*
X-45159576Y28317500D01*
X-45274658Y28286664D01*
X-45274662Y28286663D01*
X-45377843Y28227090D01*
X-45377843Y28227089D01*
X-45462089Y28142843D01*
X-45462090Y28142843D01*
X-45521663Y28039662D01*
X-45521664Y28039658D01*
X-45552500Y27924577D01*
X-46247501Y27924577D01*
X-46278337Y28039658D01*
X-46278338Y28039662D01*
X-46316106Y28105077D01*
X-46337910Y28142842D01*
X-46422158Y28227090D01*
X-46525339Y28286663D01*
X-46525343Y28286664D01*
X-46640424Y28317500D01*
X-46640427Y28317500D01*
X-46759573Y28317500D01*
X-46759576Y28317500D01*
X-46874658Y28286664D01*
X-46874662Y28286663D01*
X-46977843Y28227090D01*
X-46977843Y28227089D01*
X-47062089Y28142843D01*
X-47062090Y28142843D01*
X-47121663Y28039662D01*
X-47121664Y28039658D01*
X-47152500Y27924577D01*
X-47847501Y27924577D01*
X-47878337Y28039658D01*
X-47878338Y28039662D01*
X-47916106Y28105077D01*
X-47937910Y28142842D01*
X-48022158Y28227090D01*
X-48125339Y28286663D01*
X-48125343Y28286664D01*
X-48240424Y28317500D01*
X-48240427Y28317500D01*
X-48359573Y28317500D01*
X-48359576Y28317500D01*
X-48474658Y28286664D01*
X-48474662Y28286663D01*
X-48577843Y28227090D01*
X-48577843Y28227089D01*
X-48662089Y28142843D01*
X-48662090Y28142843D01*
X-48721663Y28039662D01*
X-48721664Y28039658D01*
X-48752500Y27924577D01*
X-49447501Y27924577D01*
X-49478337Y28039658D01*
X-49478338Y28039662D01*
X-49516106Y28105077D01*
X-49537910Y28142842D01*
X-49622158Y28227090D01*
X-49725339Y28286663D01*
X-49725343Y28286664D01*
X-49840424Y28317500D01*
X-49840427Y28317500D01*
X-49959573Y28317500D01*
X-49959576Y28317500D01*
X-50074658Y28286664D01*
X-50074662Y28286663D01*
X-50177843Y28227090D01*
X-50177843Y28227089D01*
X-50262089Y28142843D01*
X-50262090Y28142843D01*
X-50321663Y28039662D01*
X-50321664Y28039658D01*
X-50352500Y27924577D01*
X-51047501Y27924577D01*
X-51078337Y28039658D01*
X-51078338Y28039662D01*
X-51116106Y28105077D01*
X-51137910Y28142842D01*
X-51222158Y28227090D01*
X-51325339Y28286663D01*
X-51325343Y28286664D01*
X-51440424Y28317500D01*
X-51440427Y28317500D01*
X-51559573Y28317500D01*
X-51559576Y28317500D01*
X-51674658Y28286664D01*
X-51674662Y28286663D01*
X-51777843Y28227090D01*
X-51777843Y28227089D01*
X-51862089Y28142843D01*
X-51862090Y28142843D01*
X-51921663Y28039662D01*
X-51921664Y28039658D01*
X-51952500Y27924577D01*
X-53597500Y27924577D01*
X-53597500Y28131728D01*
X-53599711Y28142843D01*
X-53623534Y28262610D01*
X-53623537Y28262621D01*
X-53674606Y28385914D01*
X-53674607Y28385917D01*
X-53719254Y28452735D01*
X-53748749Y28496879D01*
X-53843122Y28591252D01*
X-53909339Y28635496D01*
X-53954083Y28665393D01*
X-53954086Y28665395D01*
X-53954087Y28665395D01*
X-54077380Y28716464D01*
X-54077391Y28716467D01*
X-54208267Y28742500D01*
X-54208272Y28742500D01*
X-54341728Y28742500D01*
X-54341734Y28742500D01*
X-54472610Y28716467D01*
X-54472621Y28716464D01*
X-54595914Y28665395D01*
X-54706879Y28591252D01*
X-54801252Y28496879D01*
X-54875395Y28385914D01*
X-54926464Y28262621D01*
X-54926467Y28262610D01*
X-54952500Y28131734D01*
X-74799500Y28131734D01*
X-74799500Y29074577D01*
X-51152500Y29074577D01*
X-51152500Y28955424D01*
X-51121664Y28840343D01*
X-51121663Y28840339D01*
X-51065174Y28742500D01*
X-51062090Y28737158D01*
X-50977842Y28652910D01*
X-50940077Y28631106D01*
X-50874662Y28593338D01*
X-50874660Y28593338D01*
X-50874659Y28593337D01*
X-50866866Y28591249D01*
X-50759577Y28562501D01*
X-50759576Y28562500D01*
X-50759573Y28562500D01*
X-50640424Y28562500D01*
X-50640424Y28562501D01*
X-50525341Y28593337D01*
X-50422158Y28652910D01*
X-50337910Y28737158D01*
X-50278337Y28840341D01*
X-50247501Y28955424D01*
X-50247500Y28955424D01*
X-50247500Y29074576D01*
X-50247501Y29074577D01*
X-49552500Y29074577D01*
X-49552500Y28955424D01*
X-49521664Y28840343D01*
X-49521663Y28840339D01*
X-49465174Y28742500D01*
X-49462090Y28737158D01*
X-49377842Y28652910D01*
X-49340077Y28631106D01*
X-49274662Y28593338D01*
X-49274660Y28593338D01*
X-49274659Y28593337D01*
X-49266866Y28591249D01*
X-49159577Y28562501D01*
X-49159576Y28562500D01*
X-49159573Y28562500D01*
X-49040424Y28562500D01*
X-49040424Y28562501D01*
X-48925341Y28593337D01*
X-48822158Y28652910D01*
X-48737910Y28737158D01*
X-48678337Y28840341D01*
X-48647501Y28955424D01*
X-48647500Y28955424D01*
X-48647500Y29074576D01*
X-48647501Y29074577D01*
X-46352500Y29074577D01*
X-46352500Y28955424D01*
X-46321664Y28840343D01*
X-46321663Y28840339D01*
X-46265174Y28742500D01*
X-46262090Y28737158D01*
X-46177842Y28652910D01*
X-46140077Y28631106D01*
X-46074662Y28593338D01*
X-46074660Y28593338D01*
X-46074659Y28593337D01*
X-46066866Y28591249D01*
X-45959577Y28562501D01*
X-45959576Y28562500D01*
X-45959573Y28562500D01*
X-45840424Y28562500D01*
X-45840424Y28562501D01*
X-45725341Y28593337D01*
X-45622158Y28652910D01*
X-45537910Y28737158D01*
X-45478337Y28840341D01*
X-45447501Y28955424D01*
X-45447500Y28955424D01*
X-45447500Y29074576D01*
X-45447501Y29074577D01*
X-44752500Y29074577D01*
X-44752500Y28955424D01*
X-44721664Y28840343D01*
X-44721663Y28840339D01*
X-44665174Y28742500D01*
X-44662090Y28737158D01*
X-44577842Y28652910D01*
X-44540077Y28631106D01*
X-44474662Y28593338D01*
X-44474660Y28593338D01*
X-44474659Y28593337D01*
X-44466866Y28591249D01*
X-44359577Y28562501D01*
X-44359576Y28562500D01*
X-44359573Y28562500D01*
X-44240424Y28562500D01*
X-44240424Y28562501D01*
X-44125341Y28593337D01*
X-44022158Y28652910D01*
X-43937910Y28737158D01*
X-43878337Y28840341D01*
X-43847501Y28955424D01*
X-43847500Y28955424D01*
X-43847500Y29074576D01*
X-43847501Y29074577D01*
X-43152500Y29074577D01*
X-43152500Y28955424D01*
X-43121664Y28840343D01*
X-43121663Y28840339D01*
X-43065174Y28742500D01*
X-43062090Y28737158D01*
X-42977842Y28652910D01*
X-42940077Y28631106D01*
X-42874662Y28593338D01*
X-42874660Y28593338D01*
X-42874659Y28593337D01*
X-42866866Y28591249D01*
X-42759577Y28562501D01*
X-42759576Y28562500D01*
X-42759573Y28562500D01*
X-42640424Y28562500D01*
X-42640424Y28562501D01*
X-42525341Y28593337D01*
X-42422158Y28652910D01*
X-42337910Y28737158D01*
X-42278337Y28840341D01*
X-42247501Y28955424D01*
X-42247500Y28955424D01*
X-42247500Y29074576D01*
X-42247501Y29074577D01*
X-41552500Y29074577D01*
X-41552500Y28955424D01*
X-41521664Y28840343D01*
X-41521663Y28840339D01*
X-41465174Y28742500D01*
X-41462090Y28737158D01*
X-41377842Y28652910D01*
X-41340077Y28631106D01*
X-41274662Y28593338D01*
X-41274660Y28593338D01*
X-41274659Y28593337D01*
X-41266866Y28591249D01*
X-41159577Y28562501D01*
X-41159576Y28562500D01*
X-41159573Y28562500D01*
X-41040424Y28562500D01*
X-41040424Y28562501D01*
X-40925341Y28593337D01*
X-40822158Y28652910D01*
X-40737910Y28737158D01*
X-40678337Y28840341D01*
X-40647501Y28955424D01*
X-40647500Y28955424D01*
X-40647500Y29074576D01*
X-40647501Y29074577D01*
X-38352500Y29074577D01*
X-38352500Y28955424D01*
X-38321664Y28840343D01*
X-38321663Y28840339D01*
X-38265174Y28742500D01*
X-38262090Y28737158D01*
X-38177842Y28652910D01*
X-38140077Y28631106D01*
X-38074662Y28593338D01*
X-38074660Y28593338D01*
X-38074659Y28593337D01*
X-38066866Y28591249D01*
X-37959577Y28562501D01*
X-37959576Y28562500D01*
X-37959573Y28562500D01*
X-37840424Y28562500D01*
X-37840424Y28562501D01*
X-37725341Y28593337D01*
X-37622158Y28652910D01*
X-37537910Y28737158D01*
X-37478337Y28840341D01*
X-37447501Y28955424D01*
X-37447500Y28955424D01*
X-37447500Y29074576D01*
X-37447501Y29074577D01*
X-36752500Y29074577D01*
X-36752500Y28955424D01*
X-36721664Y28840343D01*
X-36721663Y28840339D01*
X-36665174Y28742500D01*
X-36662090Y28737158D01*
X-36577842Y28652910D01*
X-36540077Y28631106D01*
X-36474662Y28593338D01*
X-36474660Y28593338D01*
X-36474659Y28593337D01*
X-36466866Y28591249D01*
X-36359577Y28562501D01*
X-36359576Y28562500D01*
X-36359573Y28562500D01*
X-36240424Y28562500D01*
X-36240424Y28562501D01*
X-36125341Y28593337D01*
X-36022158Y28652910D01*
X-35937910Y28737158D01*
X-35878337Y28840341D01*
X-35847501Y28955424D01*
X-35847500Y28955424D01*
X-35847500Y29074576D01*
X-35847501Y29074577D01*
X-35152500Y29074577D01*
X-35152500Y28955424D01*
X-35121664Y28840343D01*
X-35121663Y28840339D01*
X-35065174Y28742500D01*
X-35062090Y28737158D01*
X-34977842Y28652910D01*
X-34940077Y28631106D01*
X-34874662Y28593338D01*
X-34874660Y28593338D01*
X-34874659Y28593337D01*
X-34866866Y28591249D01*
X-34759577Y28562501D01*
X-34759576Y28562500D01*
X-34759573Y28562500D01*
X-34640424Y28562500D01*
X-34640424Y28562501D01*
X-34525341Y28593337D01*
X-34422158Y28652910D01*
X-34337910Y28737158D01*
X-34278337Y28840341D01*
X-34247501Y28955424D01*
X-34247500Y28955424D01*
X-34247500Y29074576D01*
X-34247501Y29074577D01*
X-33552500Y29074577D01*
X-33552500Y28955424D01*
X-33521664Y28840343D01*
X-33521663Y28840339D01*
X-33465174Y28742500D01*
X-33462090Y28737158D01*
X-33377842Y28652910D01*
X-33340077Y28631106D01*
X-33274662Y28593338D01*
X-33274660Y28593338D01*
X-33274659Y28593337D01*
X-33266866Y28591249D01*
X-33159577Y28562501D01*
X-33159576Y28562500D01*
X-33159573Y28562500D01*
X-33040424Y28562500D01*
X-33040424Y28562501D01*
X-32925341Y28593337D01*
X-32822158Y28652910D01*
X-32737910Y28737158D01*
X-32678337Y28840341D01*
X-32647501Y28955424D01*
X-32647500Y28955424D01*
X-32647500Y29074576D01*
X-32647501Y29074577D01*
X-31952500Y29074577D01*
X-31952500Y28955424D01*
X-31921664Y28840343D01*
X-31921663Y28840339D01*
X-31865174Y28742500D01*
X-31862090Y28737158D01*
X-31777842Y28652910D01*
X-31740077Y28631106D01*
X-31674662Y28593338D01*
X-31674660Y28593338D01*
X-31674659Y28593337D01*
X-31666866Y28591249D01*
X-31559577Y28562501D01*
X-31559576Y28562500D01*
X-31559573Y28562500D01*
X-31440424Y28562500D01*
X-31440424Y28562501D01*
X-31325341Y28593337D01*
X-31222158Y28652910D01*
X-31137910Y28737158D01*
X-31078337Y28840341D01*
X-31047501Y28955424D01*
X-31047500Y28955424D01*
X-31047500Y29074576D01*
X-31047501Y29074577D01*
X-30352500Y29074577D01*
X-30352500Y28955424D01*
X-30321664Y28840343D01*
X-30321663Y28840339D01*
X-30265174Y28742500D01*
X-30262090Y28737158D01*
X-30177842Y28652910D01*
X-30140077Y28631106D01*
X-30074662Y28593338D01*
X-30074660Y28593338D01*
X-30074659Y28593337D01*
X-30066866Y28591249D01*
X-29959577Y28562501D01*
X-29959576Y28562500D01*
X-29959573Y28562500D01*
X-29840424Y28562500D01*
X-29840424Y28562501D01*
X-29725341Y28593337D01*
X-29622158Y28652910D01*
X-29537910Y28737158D01*
X-29478337Y28840341D01*
X-29447501Y28955424D01*
X-29447500Y28955424D01*
X-29447500Y29074576D01*
X-29447501Y29074577D01*
X-27152500Y29074577D01*
X-27152500Y28955424D01*
X-27121664Y28840343D01*
X-27121663Y28840339D01*
X-27065174Y28742500D01*
X-27062090Y28737158D01*
X-26977842Y28652910D01*
X-26940077Y28631106D01*
X-26874662Y28593338D01*
X-26874660Y28593338D01*
X-26874659Y28593337D01*
X-26866866Y28591249D01*
X-26759577Y28562501D01*
X-26759576Y28562500D01*
X-26759573Y28562500D01*
X-26640424Y28562500D01*
X-26640424Y28562501D01*
X-26525341Y28593337D01*
X-26422158Y28652910D01*
X-26337910Y28737158D01*
X-26278337Y28840341D01*
X-26247501Y28955424D01*
X-26247500Y28955424D01*
X-26247500Y29074576D01*
X-26247501Y29074577D01*
X-25552500Y29074577D01*
X-25552500Y28955424D01*
X-25521664Y28840343D01*
X-25521663Y28840339D01*
X-25465174Y28742500D01*
X-25462090Y28737158D01*
X-25377842Y28652910D01*
X-25340077Y28631106D01*
X-25274662Y28593338D01*
X-25274660Y28593338D01*
X-25274659Y28593337D01*
X-25266866Y28591249D01*
X-25159577Y28562501D01*
X-25159576Y28562500D01*
X-25159573Y28562500D01*
X-25040424Y28562500D01*
X-25040424Y28562501D01*
X-24925341Y28593337D01*
X-24822158Y28652910D01*
X-24737910Y28737158D01*
X-24678337Y28840341D01*
X-24647501Y28955424D01*
X-24647500Y28955424D01*
X-24647500Y29074576D01*
X-24647501Y29074577D01*
X-24678337Y29189658D01*
X-24678338Y29189662D01*
X-24737911Y29292843D01*
X-24822158Y29377090D01*
X-24925339Y29436663D01*
X-24925343Y29436664D01*
X-25040424Y29467500D01*
X-25040427Y29467500D01*
X-25159573Y29467500D01*
X-25159576Y29467500D01*
X-25274658Y29436664D01*
X-25274662Y29436663D01*
X-25377843Y29377090D01*
X-25377843Y29377089D01*
X-25462089Y29292843D01*
X-25462090Y29292843D01*
X-25521663Y29189662D01*
X-25521664Y29189658D01*
X-25552500Y29074577D01*
X-26247501Y29074577D01*
X-26278337Y29189658D01*
X-26278338Y29189662D01*
X-26337911Y29292843D01*
X-26422158Y29377090D01*
X-26525339Y29436663D01*
X-26525343Y29436664D01*
X-26640424Y29467500D01*
X-26640427Y29467500D01*
X-26759573Y29467500D01*
X-26759576Y29467500D01*
X-26874658Y29436664D01*
X-26874662Y29436663D01*
X-26977843Y29377090D01*
X-26977843Y29377089D01*
X-27062089Y29292843D01*
X-27062090Y29292843D01*
X-27121663Y29189662D01*
X-27121664Y29189658D01*
X-27152500Y29074577D01*
X-29447501Y29074577D01*
X-29478337Y29189658D01*
X-29478338Y29189662D01*
X-29537911Y29292843D01*
X-29622158Y29377090D01*
X-29725339Y29436663D01*
X-29725343Y29436664D01*
X-29840424Y29467500D01*
X-29840427Y29467500D01*
X-29959573Y29467500D01*
X-29959576Y29467500D01*
X-30074658Y29436664D01*
X-30074662Y29436663D01*
X-30177843Y29377090D01*
X-30177843Y29377089D01*
X-30262089Y29292843D01*
X-30262090Y29292843D01*
X-30321663Y29189662D01*
X-30321664Y29189658D01*
X-30352500Y29074577D01*
X-31047501Y29074577D01*
X-31078337Y29189658D01*
X-31078338Y29189662D01*
X-31137911Y29292843D01*
X-31222158Y29377090D01*
X-31325339Y29436663D01*
X-31325343Y29436664D01*
X-31440424Y29467500D01*
X-31440427Y29467500D01*
X-31559573Y29467500D01*
X-31559576Y29467500D01*
X-31674658Y29436664D01*
X-31674662Y29436663D01*
X-31777843Y29377090D01*
X-31777843Y29377089D01*
X-31862089Y29292843D01*
X-31862090Y29292843D01*
X-31921663Y29189662D01*
X-31921664Y29189658D01*
X-31952500Y29074577D01*
X-32647501Y29074577D01*
X-32678337Y29189658D01*
X-32678338Y29189662D01*
X-32737911Y29292843D01*
X-32822158Y29377090D01*
X-32925339Y29436663D01*
X-32925343Y29436664D01*
X-33040424Y29467500D01*
X-33040427Y29467500D01*
X-33159573Y29467500D01*
X-33159576Y29467500D01*
X-33274658Y29436664D01*
X-33274662Y29436663D01*
X-33377843Y29377090D01*
X-33377843Y29377089D01*
X-33462089Y29292843D01*
X-33462090Y29292843D01*
X-33521663Y29189662D01*
X-33521664Y29189658D01*
X-33552500Y29074577D01*
X-34247501Y29074577D01*
X-34278337Y29189658D01*
X-34278338Y29189662D01*
X-34337911Y29292843D01*
X-34422158Y29377090D01*
X-34525339Y29436663D01*
X-34525343Y29436664D01*
X-34640424Y29467500D01*
X-34640427Y29467500D01*
X-34759573Y29467500D01*
X-34759576Y29467500D01*
X-34874658Y29436664D01*
X-34874662Y29436663D01*
X-34977843Y29377090D01*
X-34977843Y29377089D01*
X-35062089Y29292843D01*
X-35062090Y29292843D01*
X-35121663Y29189662D01*
X-35121664Y29189658D01*
X-35152500Y29074577D01*
X-35847501Y29074577D01*
X-35878337Y29189658D01*
X-35878338Y29189662D01*
X-35937911Y29292843D01*
X-36022158Y29377090D01*
X-36125339Y29436663D01*
X-36125343Y29436664D01*
X-36240424Y29467500D01*
X-36240427Y29467500D01*
X-36359573Y29467500D01*
X-36359576Y29467500D01*
X-36474658Y29436664D01*
X-36474662Y29436663D01*
X-36577843Y29377090D01*
X-36577843Y29377089D01*
X-36662089Y29292843D01*
X-36662090Y29292843D01*
X-36721663Y29189662D01*
X-36721664Y29189658D01*
X-36752500Y29074577D01*
X-37447501Y29074577D01*
X-37478337Y29189658D01*
X-37478338Y29189662D01*
X-37537911Y29292843D01*
X-37622158Y29377090D01*
X-37725339Y29436663D01*
X-37725343Y29436664D01*
X-37840424Y29467500D01*
X-37840427Y29467500D01*
X-37959573Y29467500D01*
X-37959576Y29467500D01*
X-38074658Y29436664D01*
X-38074662Y29436663D01*
X-38177843Y29377090D01*
X-38177843Y29377089D01*
X-38262089Y29292843D01*
X-38262090Y29292843D01*
X-38321663Y29189662D01*
X-38321664Y29189658D01*
X-38352500Y29074577D01*
X-40647501Y29074577D01*
X-40678337Y29189658D01*
X-40678338Y29189662D01*
X-40737911Y29292843D01*
X-40822158Y29377090D01*
X-40925339Y29436663D01*
X-40925343Y29436664D01*
X-41040424Y29467500D01*
X-41040427Y29467500D01*
X-41159573Y29467500D01*
X-41159576Y29467500D01*
X-41274658Y29436664D01*
X-41274662Y29436663D01*
X-41377843Y29377090D01*
X-41377843Y29377089D01*
X-41462089Y29292843D01*
X-41462090Y29292843D01*
X-41521663Y29189662D01*
X-41521664Y29189658D01*
X-41552500Y29074577D01*
X-42247501Y29074577D01*
X-42278337Y29189658D01*
X-42278338Y29189662D01*
X-42337911Y29292843D01*
X-42422158Y29377090D01*
X-42525339Y29436663D01*
X-42525343Y29436664D01*
X-42640424Y29467500D01*
X-42640427Y29467500D01*
X-42759573Y29467500D01*
X-42759576Y29467500D01*
X-42874658Y29436664D01*
X-42874662Y29436663D01*
X-42977843Y29377090D01*
X-42977843Y29377089D01*
X-43062089Y29292843D01*
X-43062090Y29292843D01*
X-43121663Y29189662D01*
X-43121664Y29189658D01*
X-43152500Y29074577D01*
X-43847501Y29074577D01*
X-43878337Y29189658D01*
X-43878338Y29189662D01*
X-43937911Y29292843D01*
X-44022158Y29377090D01*
X-44125339Y29436663D01*
X-44125343Y29436664D01*
X-44240424Y29467500D01*
X-44240427Y29467500D01*
X-44359573Y29467500D01*
X-44359576Y29467500D01*
X-44474658Y29436664D01*
X-44474662Y29436663D01*
X-44577843Y29377090D01*
X-44577843Y29377089D01*
X-44662089Y29292843D01*
X-44662090Y29292843D01*
X-44721663Y29189662D01*
X-44721664Y29189658D01*
X-44752500Y29074577D01*
X-45447501Y29074577D01*
X-45478337Y29189658D01*
X-45478338Y29189662D01*
X-45537911Y29292843D01*
X-45622158Y29377090D01*
X-45725339Y29436663D01*
X-45725343Y29436664D01*
X-45840424Y29467500D01*
X-45840427Y29467500D01*
X-45959573Y29467500D01*
X-45959576Y29467500D01*
X-46074658Y29436664D01*
X-46074662Y29436663D01*
X-46177843Y29377090D01*
X-46177843Y29377089D01*
X-46262089Y29292843D01*
X-46262090Y29292843D01*
X-46321663Y29189662D01*
X-46321664Y29189658D01*
X-46352500Y29074577D01*
X-48647501Y29074577D01*
X-48678337Y29189658D01*
X-48678338Y29189662D01*
X-48737911Y29292843D01*
X-48822158Y29377090D01*
X-48925339Y29436663D01*
X-48925343Y29436664D01*
X-49040424Y29467500D01*
X-49040427Y29467500D01*
X-49159573Y29467500D01*
X-49159576Y29467500D01*
X-49274658Y29436664D01*
X-49274662Y29436663D01*
X-49377843Y29377090D01*
X-49377843Y29377089D01*
X-49462089Y29292843D01*
X-49462090Y29292843D01*
X-49521663Y29189662D01*
X-49521664Y29189658D01*
X-49552500Y29074577D01*
X-50247501Y29074577D01*
X-50278337Y29189658D01*
X-50278338Y29189662D01*
X-50337911Y29292843D01*
X-50422158Y29377090D01*
X-50525339Y29436663D01*
X-50525343Y29436664D01*
X-50640424Y29467500D01*
X-50640427Y29467500D01*
X-50759573Y29467500D01*
X-50759576Y29467500D01*
X-50874658Y29436664D01*
X-50874662Y29436663D01*
X-50977843Y29377090D01*
X-50977843Y29377089D01*
X-51062089Y29292843D01*
X-51062090Y29292843D01*
X-51121663Y29189662D01*
X-51121664Y29189658D01*
X-51152500Y29074577D01*
X-74799500Y29074577D01*
X-74799500Y29998797D01*
X-74799441Y30001201D01*
X-74797541Y30039882D01*
X-74781322Y30370023D01*
X-74780854Y30374780D01*
X-74726845Y30738882D01*
X-74725914Y30743564D01*
X-74686353Y30901502D01*
X-60077500Y30901502D01*
X-60077500Y29888498D01*
X-60045700Y29728627D01*
X-59983321Y29578032D01*
X-59892761Y29442499D01*
X-59777501Y29327239D01*
X-59641968Y29236679D01*
X-59491373Y29174300D01*
X-59331502Y29142500D01*
X-59331499Y29142500D01*
X-59168501Y29142500D01*
X-59168498Y29142500D01*
X-59008627Y29174300D01*
X-58858032Y29236679D01*
X-58722499Y29327239D01*
X-58607239Y29442499D01*
X-58516679Y29578032D01*
X-58454300Y29728627D01*
X-58422500Y29888498D01*
X-58422500Y30901502D01*
X-17777500Y30901502D01*
X-17777500Y29888498D01*
X-17745700Y29728627D01*
X-17683321Y29578032D01*
X-17592761Y29442499D01*
X-17477501Y29327239D01*
X-17341968Y29236679D01*
X-17191373Y29174300D01*
X-17031502Y29142500D01*
X-17031499Y29142500D01*
X-16868501Y29142500D01*
X-16868498Y29142500D01*
X-16708627Y29174300D01*
X-16558032Y29236679D01*
X-16422499Y29327239D01*
X-16307239Y29442499D01*
X-16216679Y29578032D01*
X-16154300Y29728627D01*
X-16122500Y29888498D01*
X-16122500Y30901502D01*
X-16154300Y31061373D01*
X-16216679Y31211968D01*
X-16307239Y31347501D01*
X-16422499Y31462761D01*
X-16558032Y31553321D01*
X-16558035Y31553323D01*
X-16558036Y31553323D01*
X-16708624Y31615699D01*
X-16708630Y31615701D01*
X-16773101Y31628525D01*
X-16868498Y31647500D01*
X-17031502Y31647500D01*
X-17111072Y31631673D01*
X-17191371Y31615701D01*
X-17191377Y31615699D01*
X-17341965Y31553323D01*
X-17477501Y31462762D01*
X-17592762Y31347501D01*
X-17683323Y31211965D01*
X-17745699Y31061377D01*
X-17745701Y31061371D01*
X-17761673Y30981072D01*
X-17777500Y30901502D01*
X-58422500Y30901502D01*
X-58454300Y31061373D01*
X-58516679Y31211968D01*
X-58607239Y31347501D01*
X-58722499Y31462761D01*
X-58858032Y31553321D01*
X-58858035Y31553323D01*
X-58858036Y31553323D01*
X-59008624Y31615699D01*
X-59008630Y31615701D01*
X-59073101Y31628525D01*
X-59168498Y31647500D01*
X-59331502Y31647500D01*
X-59411072Y31631673D01*
X-59491371Y31615701D01*
X-59491377Y31615699D01*
X-59641965Y31553323D01*
X-59777501Y31462762D01*
X-59892762Y31347501D01*
X-59983323Y31211965D01*
X-60045699Y31061377D01*
X-60045701Y31061371D01*
X-60061673Y30981072D01*
X-60077500Y30901502D01*
X-74686353Y30901502D01*
X-74636480Y31100605D01*
X-74635084Y31105204D01*
X-74552393Y31336309D01*
X-74511083Y31451764D01*
X-74509254Y31456177D01*
X-74351885Y31788907D01*
X-74349637Y31793114D01*
X-74160402Y32108834D01*
X-74157732Y32112827D01*
X-73938478Y32408456D01*
X-73935452Y32412144D01*
X-73688269Y32684869D01*
X-73684868Y32688269D01*
X-73412144Y32935452D01*
X-73408456Y32938478D01*
X-73112823Y33157735D01*
X-73108829Y33160404D01*
X-72793114Y33349637D01*
X-72788907Y33351885D01*
X-72456177Y33509254D01*
X-72451764Y33511083D01*
X-72105202Y33635085D01*
X-72100602Y33636480D01*
X-71743564Y33725914D01*
X-71738882Y33726845D01*
X-71374780Y33780854D01*
X-71370023Y33781322D01*
X-71001201Y33799442D01*
X-70998797Y33799500D01*
X-70960118Y33799500D01*
X-4039882Y33799500D01*
X-4001203Y33799500D01*
X-3998800Y33799442D01*
G37*
G04 #@! TD.AperFunction*
G04 #@! TD*
M02*
