G04 #@! TF.GenerationSoftware,KiCad,Pcbnew,8.0.6*
G04 #@! TF.CreationDate,2024-11-07T02:27:06-08:00*
G04 #@! TF.ProjectId,hvd-68-vhdci,6876642d-3638-42d7-9668-6463692e6b69,1*
G04 #@! TF.SameCoordinates,Original*
G04 #@! TF.FileFunction,Legend,Top*
G04 #@! TF.FilePolarity,Positive*
%FSLAX46Y46*%
G04 Gerber Fmt 4.6, Leading zero omitted, Abs format (unit mm)*
G04 Created by KiCad (PCBNEW 8.0.6) date 2024-11-07 02:27:06*
%MOMM*%
%LPD*%
G01*
G04 APERTURE LIST*
G04 Aperture macros list*
%AMRoundRect*
0 Rectangle with rounded corners*
0 $1 Rounding radius*
0 $2 $3 $4 $5 $6 $7 $8 $9 X,Y pos of 4 corners*
0 Add a 4 corners polygon primitive as box body*
4,1,4,$2,$3,$4,$5,$6,$7,$8,$9,$2,$3,0*
0 Add four circle primitives for the rounded corners*
1,1,$1+$1,$2,$3*
1,1,$1+$1,$4,$5*
1,1,$1+$1,$6,$7*
1,1,$1+$1,$8,$9*
0 Add four rect primitives between the rounded corners*
20,1,$1+$1,$2,$3,$4,$5,0*
20,1,$1+$1,$4,$5,$6,$7,0*
20,1,$1+$1,$6,$7,$8,$9,0*
20,1,$1+$1,$8,$9,$2,$3,0*%
G04 Aperture macros list end*
%ADD10C,0.100000*%
%ADD11C,0.150000*%
%ADD12C,0.120000*%
%ADD13C,0.127000*%
%ADD14C,0.000000*%
%ADD15C,0.800000*%
%ADD16C,1.200000*%
%ADD17RoundRect,0.125000X0.125000X0.925000X-0.125000X0.925000X-0.125000X-0.925000X0.125000X-0.925000X0*%
%ADD18RoundRect,0.225000X0.225000X-0.275000X0.225000X0.275000X-0.225000X0.275000X-0.225000X-0.275000X0*%
%ADD19RoundRect,0.225000X-0.225000X0.275000X-0.225000X-0.275000X0.225000X-0.275000X0.225000X0.275000X0*%
%ADD20C,1.100000*%
%ADD21O,1.500000X2.350000*%
%ADD22O,1.200000X1.800000*%
%ADD23C,6.500000*%
%ADD24RoundRect,0.225000X0.275000X0.225000X-0.275000X0.225000X-0.275000X-0.225000X0.275000X-0.225000X0*%
%ADD25RoundRect,0.062500X0.137500X-0.287500X0.137500X0.287500X-0.137500X0.287500X-0.137500X-0.287500X0*%
%ADD26RoundRect,0.265625X0.584375X-0.584375X0.584375X0.584375X-0.584375X0.584375X-0.584375X-0.584375X0*%
%ADD27C,2.300000*%
%ADD28C,2.700000*%
%ADD29C,1.950000*%
%ADD30RoundRect,0.225000X-0.275000X-0.225000X0.275000X-0.225000X0.275000X0.225000X-0.275000X0.225000X0*%
G04 APERTURE END LIST*
D10*
X-11857143Y3542581D02*
X-11857143Y4209248D01*
X-11857143Y4018772D02*
X-11809524Y4114010D01*
X-11809524Y4114010D02*
X-11761905Y4161629D01*
X-11761905Y4161629D02*
X-11666667Y4209248D01*
X-11666667Y4209248D02*
X-11571429Y4209248D01*
X-10857143Y3590200D02*
X-10952381Y3542581D01*
X-10952381Y3542581D02*
X-11142857Y3542581D01*
X-11142857Y3542581D02*
X-11238095Y3590200D01*
X-11238095Y3590200D02*
X-11285714Y3685439D01*
X-11285714Y3685439D02*
X-11285714Y4066391D01*
X-11285714Y4066391D02*
X-11238095Y4161629D01*
X-11238095Y4161629D02*
X-11142857Y4209248D01*
X-11142857Y4209248D02*
X-10952381Y4209248D01*
X-10952381Y4209248D02*
X-10857143Y4161629D01*
X-10857143Y4161629D02*
X-10809524Y4066391D01*
X-10809524Y4066391D02*
X-10809524Y3971153D01*
X-10809524Y3971153D02*
X-11285714Y3875915D01*
X-10476190Y4209248D02*
X-10238095Y3542581D01*
X-10238095Y3542581D02*
X-10000000Y4209248D01*
X-9095238Y3542581D02*
X-9666666Y3542581D01*
X-9380952Y3542581D02*
X-9380952Y4542581D01*
X-9380952Y4542581D02*
X-9476190Y4399724D01*
X-9476190Y4399724D02*
X-9571428Y4304486D01*
X-9571428Y4304486D02*
X-9666666Y4256867D01*
D11*
X-37166667Y31219820D02*
X-37166667Y31934105D01*
X-37166667Y31934105D02*
X-37119048Y32076962D01*
X-37119048Y32076962D02*
X-37023810Y32172200D01*
X-37023810Y32172200D02*
X-36880953Y32219820D01*
X-36880953Y32219820D02*
X-36785715Y32219820D01*
X-38071429Y31553153D02*
X-38071429Y32219820D01*
X-37833334Y31172200D02*
X-37595239Y31886486D01*
X-37595239Y31886486D02*
X-38214286Y31886486D01*
D12*
G04 #@! TO.C,J1*
X-60600001Y7100000D02*
X-60600000Y2000000D01*
X-60600001Y7100000D02*
X-57500001Y7100000D01*
X-59500000Y900000D02*
X-57500001Y900000D01*
X-17499999Y7100000D02*
X-14399999Y7100000D01*
X-17499999Y900000D02*
X-14399999Y900000D01*
X-14399999Y7100000D02*
X-14399999Y900000D01*
D10*
G04 #@! TO.C,R3*
X-67549999Y11600000D02*
X-67549999Y11000000D01*
X-66850001Y11000000D02*
X-66850001Y11600000D01*
G04 #@! TO.C,R2*
X-67549999Y15900000D02*
X-67549999Y15300000D01*
X-66850001Y15300000D02*
X-66850001Y15900000D01*
G04 #@! TO.C,C1*
X-66399999Y3700000D02*
X-66399999Y4300000D01*
X-65700001Y4300000D02*
X-65700001Y3700000D01*
D13*
G04 #@! TO.C,J4*
X-59450000Y33765000D02*
X-59450000Y31765000D01*
X-59450000Y29065000D02*
X-59450000Y24865000D01*
X-59450000Y24865000D02*
X-52750000Y24865000D01*
X-24450000Y24865000D02*
X-16750000Y24865000D01*
X-16750000Y31765000D02*
X-16750000Y33865000D01*
X-16750000Y24865000D02*
X-16750000Y29065000D01*
D10*
X-50500000Y25515000D02*
G75*
G02*
X-51700000Y25515000I-600000J0D01*
G01*
X-51700000Y25515000D02*
G75*
G02*
X-50500000Y25515000I600000J0D01*
G01*
D14*
G04 #@! TO.C,kibuzzard-672C63B8*
G36*
X-36740307Y16933764D02*
G01*
X-36683360Y16806543D01*
X-36714863Y16676898D01*
X-36821486Y16554523D01*
X-36940832Y16611470D01*
X-37017771Y16665994D01*
X-37073506Y16804120D01*
X-37014136Y16932553D01*
X-36877221Y16976171D01*
X-36740307Y16933764D01*
G37*
G36*
X-36821486Y16291599D02*
G01*
X-36718498Y16231018D01*
X-36660339Y16164378D01*
X-36642165Y16079564D01*
X-36706381Y15954766D01*
X-36879645Y15902666D01*
X-37043215Y15952342D01*
X-37112278Y16098950D01*
X-37075929Y16231018D01*
X-36971729Y16355816D01*
X-36821486Y16291599D01*
G37*
G36*
X-34376111Y16931038D02*
G01*
X-34292811Y16890145D01*
X-34239196Y16816539D01*
X-34221325Y16704766D01*
X-34239499Y16586935D01*
X-34294023Y16509693D01*
X-34384289Y16466983D01*
X-34509693Y16452746D01*
X-34630856Y16452746D01*
X-34630856Y16937399D01*
X-34556947Y16943457D01*
X-34483037Y16944669D01*
X-34376111Y16931038D01*
G37*
G36*
X-40439418Y16902262D02*
G01*
X-40340065Y16789580D01*
X-40289176Y16627221D01*
X-40274637Y16438207D01*
X-40279180Y16331280D01*
X-40292811Y16233441D01*
X-40353393Y16072294D01*
X-40464863Y15965670D01*
X-40635703Y15926898D01*
X-40662359Y15926898D01*
X-40689015Y15929321D01*
X-40689015Y16937399D01*
X-40645396Y16943457D01*
X-40601777Y16944669D01*
X-40439418Y16902262D01*
G37*
G36*
X-38003433Y16383986D02*
G01*
X-37933764Y16337641D01*
X-37882876Y16161955D01*
X-37893780Y16077141D01*
X-37927706Y15997173D01*
X-37987076Y15936591D01*
X-38074313Y15912359D01*
X-38179725Y15942649D01*
X-38246365Y16023829D01*
X-38280291Y16138934D01*
X-38289984Y16273425D01*
X-38288772Y16319467D01*
X-38285137Y16363086D01*
X-38205170Y16389742D01*
X-38110662Y16399435D01*
X-38003433Y16383986D01*
G37*
G36*
X-31263343Y17541407D02*
G01*
X-31161761Y17526339D01*
X-31062146Y17501386D01*
X-30965455Y17466790D01*
X-30872622Y17422883D01*
X-30784539Y17370088D01*
X-30702055Y17308914D01*
X-30625964Y17239949D01*
X-30556999Y17163858D01*
X-30495825Y17081374D01*
X-30443030Y16993291D01*
X-30399123Y16900458D01*
X-30364526Y16803767D01*
X-30339574Y16704151D01*
X-30324506Y16602570D01*
X-30319467Y16500000D01*
X-30324506Y16397430D01*
X-30339574Y16295849D01*
X-30364526Y16196233D01*
X-30399123Y16099542D01*
X-30443030Y16006709D01*
X-30495825Y15918626D01*
X-30556999Y15836142D01*
X-30625964Y15760051D01*
X-30702055Y15691086D01*
X-30784539Y15629912D01*
X-30872622Y15577117D01*
X-30965455Y15533210D01*
X-31062146Y15498614D01*
X-31161761Y15473661D01*
X-31263343Y15458593D01*
X-31365913Y15453554D01*
X-31567851Y15453554D01*
X-33038772Y15453554D01*
X-34630856Y15453554D01*
X-36884491Y15453554D01*
X-38067044Y15453554D01*
X-40667205Y15453554D01*
X-41878837Y15453554D01*
X-42438611Y15453554D01*
X-43432149Y15453554D01*
X-43634087Y15453554D01*
X-43736657Y15458593D01*
X-43838239Y15473661D01*
X-43937854Y15498614D01*
X-44034545Y15533210D01*
X-44127378Y15577117D01*
X-44215461Y15629912D01*
X-44292429Y15686995D01*
X-43432149Y15686995D01*
X-43134087Y15686995D01*
X-43134087Y16348546D01*
X-42736672Y16348546D01*
X-42736672Y15686995D01*
X-42438611Y15686995D01*
X-42438611Y17186995D01*
X-42298061Y17186995D01*
X-42270194Y17051292D01*
X-42230210Y16881664D01*
X-42198169Y16754712D01*
X-42163436Y16622644D01*
X-42126010Y16485460D01*
X-42086430Y16345584D01*
X-42045234Y16205439D01*
X-42002423Y16065024D01*
X-41938813Y15865105D01*
X-41878837Y15686995D01*
X-41571082Y15686995D01*
X-41524771Y15816101D01*
X-41479537Y15948169D01*
X-41435380Y16083199D01*
X-41392973Y16218901D01*
X-41352989Y16352989D01*
X-41315428Y16485460D01*
X-41263934Y16678413D01*
X-41218498Y16862278D01*
X-41179422Y17033118D01*
X-41151094Y17167609D01*
X-40987076Y17167609D01*
X-40987076Y15703958D01*
X-40823506Y15676090D01*
X-40667205Y15667609D01*
X-40520901Y15678211D01*
X-40387318Y15710016D01*
X-40268881Y15764842D01*
X-40168013Y15844507D01*
X-40085925Y15950222D01*
X-40023829Y16083199D01*
X-39984754Y16245254D01*
X-39981053Y16300081D01*
X-38583199Y16300081D01*
X-38568525Y16098277D01*
X-38524502Y15935514D01*
X-38451131Y15811793D01*
X-38349758Y15724960D01*
X-38221729Y15672859D01*
X-38067044Y15655493D01*
X-37951939Y15667306D01*
X-37853796Y15702746D01*
X-37705977Y15825121D01*
X-37619952Y15989903D01*
X-37608499Y16062601D01*
X-37390953Y16062601D01*
X-37354604Y15891761D01*
X-37251616Y15763328D01*
X-37091680Y15683360D01*
X-36993235Y15662460D01*
X-36884491Y15655493D01*
X-36750606Y15665186D01*
X-36639742Y15694265D01*
X-36478595Y15792407D01*
X-36388934Y15926898D01*
X-36361066Y16074717D01*
X-36375303Y16183764D01*
X-36418013Y16283118D01*
X-36495254Y16373990D01*
X-36613086Y16457593D01*
X-36518578Y16533623D01*
X-36453150Y16626010D01*
X-36414984Y16727484D01*
X-36402262Y16830775D01*
X-36434067Y16991922D01*
X-36529483Y17116721D01*
X-36624514Y17167609D01*
X-34928918Y17167609D01*
X-34928918Y15686995D01*
X-34630856Y15686995D01*
X-34630856Y16193457D01*
X-34524233Y16193457D01*
X-34345046Y16206785D01*
X-34195207Y16246769D01*
X-34074717Y16313409D01*
X-33986537Y16409935D01*
X-33933630Y16539580D01*
X-33915994Y16702342D01*
X-33929416Y16825929D01*
X-33760905Y16825929D01*
X-33760905Y16578756D01*
X-33445880Y16578756D01*
X-33445880Y16159532D01*
X-33441034Y16047456D01*
X-33426494Y15948708D01*
X-33359855Y15792407D01*
X-33233845Y15694265D01*
X-33145699Y15668821D01*
X-33038772Y15660339D01*
X-32889742Y15676090D01*
X-32716478Y15735460D01*
X-32755250Y15975363D01*
X-32886107Y15930533D01*
X-32985460Y15919628D01*
X-33110258Y15969305D01*
X-33147819Y16120759D01*
X-33147819Y16789580D01*
X-32483845Y16789580D01*
X-32483845Y15686995D01*
X-32185784Y15686995D01*
X-32185784Y16581179D01*
X-32116721Y16588449D01*
X-32050081Y16590872D01*
X-31902262Y16520598D01*
X-31875000Y16427908D01*
X-31865913Y16290388D01*
X-31865913Y15686995D01*
X-31567851Y15686995D01*
X-31567851Y16329160D01*
X-31573304Y16440327D01*
X-31589661Y16541195D01*
X-31663570Y16705977D01*
X-31805331Y16812601D01*
X-31906502Y16840771D01*
X-32030695Y16850162D01*
X-32163671Y16845315D01*
X-32286349Y16830775D01*
X-32394487Y16810784D01*
X-32483845Y16789580D01*
X-33147819Y16789580D01*
X-33147819Y16825929D01*
X-33348950Y16825929D01*
X-33760905Y16825929D01*
X-33929416Y16825929D01*
X-33933495Y16863489D01*
X-33985999Y16991519D01*
X-34073506Y17086430D01*
X-34192784Y17151723D01*
X-34197863Y17153069D01*
X-33535541Y17153069D01*
X-33481018Y17014943D01*
X-33348950Y16964055D01*
X-33215670Y17014943D01*
X-33159935Y17153069D01*
X-33215670Y17293619D01*
X-33348950Y17344507D01*
X-33481018Y17293619D01*
X-33535541Y17153069D01*
X-34197863Y17153069D01*
X-34340603Y17190899D01*
X-34516963Y17203958D01*
X-34611470Y17201535D01*
X-34720517Y17195477D01*
X-34830775Y17184572D01*
X-34928918Y17167609D01*
X-36624514Y17167609D01*
X-36678817Y17196688D01*
X-36872375Y17223344D01*
X-36997173Y17213045D01*
X-37100162Y17182149D01*
X-37247981Y17077948D01*
X-37329160Y16936187D01*
X-37354604Y16784733D01*
X-37315832Y16610258D01*
X-37260097Y16530291D01*
X-37170436Y16455170D01*
X-37269184Y16371870D01*
X-37337641Y16277060D01*
X-37377625Y16173162D01*
X-37390953Y16062601D01*
X-37608499Y16062601D01*
X-37592084Y16166801D01*
X-37617528Y16350969D01*
X-37701131Y16503635D01*
X-37850162Y16607835D01*
X-37951030Y16636914D01*
X-38071890Y16646607D01*
X-38149435Y16635703D01*
X-38239095Y16605412D01*
X-38155493Y16762924D01*
X-38021002Y16865913D01*
X-37851373Y16922859D01*
X-37662359Y16942246D01*
X-37679321Y17196688D01*
X-37873788Y17182149D01*
X-38050081Y17138530D01*
X-38205170Y17066438D01*
X-38336026Y16966478D01*
X-38441135Y16839257D01*
X-38518982Y16685380D01*
X-38567145Y16505452D01*
X-38583199Y16300081D01*
X-39981053Y16300081D01*
X-39971729Y16438207D01*
X-39983542Y16626918D01*
X-40018982Y16785945D01*
X-40075626Y16917407D01*
X-40151050Y17023425D01*
X-40245254Y17104301D01*
X-40358239Y17160339D01*
X-40486975Y17193053D01*
X-40628433Y17203958D01*
X-40795638Y17196688D01*
X-40987076Y17167609D01*
X-41151094Y17167609D01*
X-41147011Y17186995D01*
X-41459612Y17186995D01*
X-41481422Y17060985D01*
X-41508078Y16915590D01*
X-41538368Y16758380D01*
X-41571082Y16596931D01*
X-41606220Y16434572D01*
X-41643780Y16274637D01*
X-41682553Y16124697D01*
X-41721325Y15992326D01*
X-41760400Y16126515D01*
X-41800081Y16277060D01*
X-41838853Y16436995D01*
X-41875202Y16599354D01*
X-41908825Y16760501D01*
X-41939418Y16916801D01*
X-41964863Y17061288D01*
X-41983037Y17186995D01*
X-42298061Y17186995D01*
X-42438611Y17186995D01*
X-42736672Y17186995D01*
X-42736672Y16595719D01*
X-43134087Y16595719D01*
X-43134087Y17186995D01*
X-43432149Y17186995D01*
X-43432149Y15686995D01*
X-44292429Y15686995D01*
X-44297945Y15691086D01*
X-44374036Y15760051D01*
X-44443001Y15836142D01*
X-44504175Y15918626D01*
X-44556970Y16006709D01*
X-44600877Y16099542D01*
X-44635474Y16196233D01*
X-44660426Y16295849D01*
X-44675494Y16397430D01*
X-44680533Y16500000D01*
X-44675494Y16602570D01*
X-44660426Y16704151D01*
X-44635474Y16803767D01*
X-44600877Y16900458D01*
X-44556970Y16993291D01*
X-44504175Y17081374D01*
X-44443001Y17163858D01*
X-44374036Y17239949D01*
X-44297945Y17308914D01*
X-44215461Y17370088D01*
X-44127378Y17422883D01*
X-44034545Y17466790D01*
X-43937854Y17501386D01*
X-43838239Y17526339D01*
X-43736657Y17541407D01*
X-43634087Y17546446D01*
X-43432149Y17546446D01*
X-31567851Y17546446D01*
X-31365913Y17546446D01*
X-31263343Y17541407D01*
G37*
D10*
G04 #@! TO.C,R4*
X-13300000Y29450001D02*
X-12700000Y29450001D01*
X-12700000Y30149999D02*
X-13300000Y30149999D01*
G04 #@! TO.C,R1*
X-62499999Y4300000D02*
X-62499999Y3700000D01*
X-61800001Y3700000D02*
X-61800001Y4300000D01*
G04 #@! TO.C,U1*
X-65200000Y2300000D02*
X-65200000Y4950000D01*
X-63000000Y4950000D02*
X-63000000Y3050000D01*
G04 #@! TO.C,J3*
X-68370000Y7770001D02*
X-73969999Y7770000D01*
X-73969999Y20440000D01*
X-68369999Y20440000D01*
X-68370000Y7770001D01*
G04 #@! TO.C,C2*
X-13300000Y31449999D02*
X-12700000Y31449999D01*
X-12700000Y30750001D02*
X-13300000Y30750001D01*
G04 #@! TD*
%LPC*%
D15*
G04 #@! TO.C,J1*
X-15400000Y4000000D03*
D16*
X-59600000Y4000000D03*
D17*
X-57100000Y1800000D03*
X-57100000Y6200000D03*
X-56300000Y1800001D03*
X-56300000Y6199999D03*
X-55500000Y1800000D03*
X-55500000Y6200000D03*
X-54700001Y1800000D03*
X-54700001Y6200000D03*
X-53900000Y1800000D03*
X-53900000Y6200000D03*
X-53100000Y1800000D03*
X-53100000Y6200000D03*
X-52299999Y1800000D03*
X-52299999Y6200000D03*
X-51500000Y1800000D03*
X-51500000Y6200000D03*
X-50700000Y1800001D03*
X-50700000Y6199999D03*
X-49900000Y1800000D03*
X-49900000Y6200000D03*
X-49100000Y1800000D03*
X-49100000Y6200000D03*
X-48300000Y1800000D03*
X-48300000Y6200000D03*
X-47500000Y1800000D03*
X-47500000Y6200000D03*
X-46699999Y1800000D03*
X-46699999Y6200000D03*
X-45900000Y1800000D03*
X-45900000Y6200000D03*
X-45100000Y1800001D03*
X-45100000Y6199999D03*
X-44300000Y1800000D03*
X-44300000Y6200000D03*
X-43500000Y1800000D03*
X-43500000Y6200000D03*
X-42700000Y1800000D03*
X-42700000Y6200000D03*
X-41900000Y1800000D03*
X-41900000Y6200000D03*
X-41099999Y1800000D03*
X-41099999Y6200000D03*
X-40300000Y1800000D03*
X-40300000Y6200000D03*
X-39500000Y1800001D03*
X-39500000Y6199999D03*
X-38700000Y1800000D03*
X-38700000Y6200000D03*
X-37900000Y1800000D03*
X-37900000Y6200000D03*
X-37100000Y1800000D03*
X-37100000Y6200000D03*
X-36300000Y1800000D03*
X-36300000Y6200000D03*
X-35500000Y1800001D03*
X-35500000Y6199999D03*
X-34700000Y1800000D03*
X-34700000Y6200000D03*
X-33900001Y1800000D03*
X-33900001Y6200000D03*
X-33100000Y1800000D03*
X-33100000Y6200000D03*
X-32300000Y1800000D03*
X-32300000Y6200000D03*
X-31500000Y1800000D03*
X-31500000Y6200000D03*
X-30700000Y1800000D03*
X-30700000Y6200000D03*
X-29900000Y1800001D03*
X-29900000Y6199999D03*
X-29100000Y1800000D03*
X-29100000Y6200000D03*
X-28300001Y1800000D03*
X-28300001Y6200000D03*
X-27500000Y1800000D03*
X-27500000Y6200000D03*
X-26700000Y1800000D03*
X-26700000Y6200000D03*
X-25900000Y1800000D03*
X-25900000Y6200000D03*
X-25100000Y1800000D03*
X-25100000Y6200000D03*
X-24300000Y1800001D03*
X-24300000Y6199999D03*
X-23500000Y1800000D03*
X-23500000Y6200000D03*
X-22700001Y1800000D03*
X-22700001Y6200000D03*
X-21900000Y1800000D03*
X-21900000Y6200000D03*
X-21100000Y1800000D03*
X-21100000Y6200000D03*
X-20299999Y1800000D03*
X-20299999Y6200000D03*
X-19500000Y1800000D03*
X-19500000Y6200000D03*
X-18700000Y1800001D03*
X-18700000Y6199999D03*
X-17900000Y1800000D03*
X-17900000Y6200000D03*
G04 #@! TD*
D18*
G04 #@! TO.C,R3*
X-67200000Y10450000D03*
X-67200000Y12150000D03*
G04 #@! TD*
D19*
G04 #@! TO.C,R2*
X-67200000Y16450000D03*
X-67200000Y14750000D03*
G04 #@! TD*
D18*
G04 #@! TO.C,C1*
X-66050000Y3150000D03*
X-66050000Y4850000D03*
G04 #@! TD*
D20*
G04 #@! TO.C,J4*
X-51100000Y25515000D03*
X-50300000Y26665000D03*
X-49500000Y25515000D03*
X-48700000Y26665000D03*
X-47900000Y25515000D03*
X-47100000Y26665000D03*
X-46300000Y25515000D03*
X-45500000Y26665000D03*
X-44700000Y25515000D03*
X-43900000Y26665000D03*
X-43100000Y25515000D03*
X-42300000Y26665000D03*
X-41500000Y25515000D03*
X-40700000Y26665000D03*
X-39900000Y25515000D03*
X-39100000Y26665000D03*
X-38300000Y25515000D03*
X-37500000Y26665000D03*
X-36700000Y25515000D03*
X-35900000Y26665000D03*
X-35100000Y25515000D03*
X-34300000Y26665000D03*
X-33500000Y25515000D03*
X-32700000Y26665000D03*
X-31900000Y25515000D03*
X-31100000Y26665000D03*
X-30300000Y25515000D03*
X-29500000Y26665000D03*
X-28700000Y25515000D03*
X-27900000Y26665000D03*
X-27100000Y25515000D03*
X-26300000Y26665000D03*
X-25500000Y25515000D03*
X-24700000Y26665000D03*
X-51500000Y27865000D03*
X-50700000Y29015000D03*
X-49900000Y27865000D03*
X-49100000Y29015000D03*
X-48300000Y27865000D03*
X-47500000Y29015000D03*
X-46700000Y27865000D03*
X-45900000Y29015000D03*
X-45100000Y27865000D03*
X-44300000Y29015000D03*
X-43500000Y27865000D03*
X-42700000Y29015000D03*
X-41900000Y27865000D03*
X-41100000Y29015000D03*
X-40300000Y27865000D03*
X-39500000Y29015000D03*
X-38700000Y27865000D03*
X-37900000Y29015000D03*
X-37100000Y27865000D03*
X-36300000Y29015000D03*
X-35500000Y27865000D03*
X-34700000Y29015000D03*
X-33900000Y27865000D03*
X-33100000Y29015000D03*
X-32300000Y27865000D03*
X-31500000Y29015000D03*
X-30700000Y27865000D03*
X-29900000Y29015000D03*
X-29100000Y27865000D03*
X-28300000Y29015000D03*
X-27500000Y27865000D03*
X-26700000Y29015000D03*
X-25900000Y27865000D03*
X-25100000Y29015000D03*
D21*
X-16950000Y30395000D03*
D22*
X-21925000Y27765000D03*
X-54275000Y27765000D03*
D21*
X-59250000Y30395000D03*
G04 #@! TD*
D23*
G04 #@! TO.C,H4*
X-4000000Y4000000D03*
G04 #@! TD*
D24*
G04 #@! TO.C,R4*
X-12150000Y29800000D03*
X-13850000Y29800000D03*
G04 #@! TD*
D18*
G04 #@! TO.C,R1*
X-62150000Y3150000D03*
X-62150000Y4850000D03*
G04 #@! TD*
D25*
G04 #@! TO.C,U1*
X-64850001Y2600000D03*
X-64350000Y2600000D03*
X-63850000Y2600000D03*
X-63349999Y2600000D03*
X-63349999Y5400000D03*
X-63850000Y5400000D03*
X-64350000Y5400000D03*
X-64850001Y5400000D03*
D26*
X-64100000Y4000000D03*
G04 #@! TD*
D27*
G04 #@! TO.C,J3*
X-72440000Y10870000D03*
D28*
X-69900000Y17340000D03*
D29*
X-72440000Y16010000D03*
X-69900000Y14740000D03*
X-72440000Y13470000D03*
X-69900000Y12200000D03*
G04 #@! TD*
D23*
G04 #@! TO.C,H3*
X-71000000Y4000000D03*
G04 #@! TD*
D30*
G04 #@! TO.C,C2*
X-13850000Y31100000D03*
X-12150000Y31100000D03*
G04 #@! TD*
G36*
X-56961Y21530315D02*
G01*
X-11206Y21477511D01*
X0Y21426000D01*
X0Y12474000D01*
X-19685Y12406961D01*
X-72489Y12361206D01*
X-124000Y12350000D01*
X-2376000Y12350000D01*
X-2443039Y12369685D01*
X-2488794Y12422489D01*
X-2500000Y12474000D01*
X-2500000Y21426000D01*
X-2480315Y21493039D01*
X-2427511Y21538794D01*
X-2376000Y21550000D01*
X-124000Y21550000D01*
X-56961Y21530315D01*
G37*
%LPD*%
M02*
