G04 #@! TF.GenerationSoftware,KiCad,Pcbnew,8.0.6*
G04 #@! TF.CreationDate,2024-11-07T02:27:30-08:00*
G04 #@! TF.ProjectId,mse-50-idc,6d73652d-3530-42d6-9964-632e6b696361,1*
G04 #@! TF.SameCoordinates,Original*
G04 #@! TF.FileFunction,Legend,Bot*
G04 #@! TF.FilePolarity,Positive*
%FSLAX46Y46*%
G04 Gerber Fmt 4.6, Leading zero omitted, Abs format (unit mm)*
G04 Created by KiCad (PCBNEW 8.0.6) date 2024-11-07 02:27:30*
%MOMM*%
%LPD*%
G01*
G04 APERTURE LIST*
G04 Aperture macros list*
%AMRoundRect*
0 Rectangle with rounded corners*
0 $1 Rounding radius*
0 $2 $3 $4 $5 $6 $7 $8 $9 X,Y pos of 4 corners*
0 Add a 4 corners polygon primitive as box body*
4,1,4,$2,$3,$4,$5,$6,$7,$8,$9,$2,$3,0*
0 Add four circle primitives for the rounded corners*
1,1,$1+$1,$2,$3*
1,1,$1+$1,$4,$5*
1,1,$1+$1,$6,$7*
1,1,$1+$1,$8,$9*
0 Add four rect primitives between the rounded corners*
20,1,$1+$1,$2,$3,$4,$5,0*
20,1,$1+$1,$4,$5,$6,$7,0*
20,1,$1+$1,$6,$7,$8,$9,0*
20,1,$1+$1,$8,$9,$2,$3,0*%
G04 Aperture macros list end*
%ADD10C,1.350000*%
%ADD11C,0.800000*%
%ADD12C,1.200000*%
%ADD13RoundRect,0.264706X0.635294X-0.635294X0.635294X0.635294X-0.635294X0.635294X-0.635294X-0.635294X0*%
%ADD14C,1.800000*%
%ADD15C,6.500000*%
%ADD16C,2.300000*%
%ADD17C,2.700000*%
%ADD18C,1.950000*%
G04 APERTURE END LIST*
D10*
X-44699999Y16000000D02*
X-39899999Y16000000D01*
X-37499999Y23199999D02*
X-42300000Y18400000D01*
X-30300000Y16000000D02*
X-37499999Y23199999D01*
X-33607288Y15999999D02*
X-37200000Y19592711D01*
X-42300000Y13599999D02*
X-37499999Y8800000D01*
X-37499999Y8800000D02*
X-30300000Y16000000D01*
X-37207287Y12400000D02*
X-33607288Y15999999D01*
X-37200000Y19592711D02*
X-37200000Y19599999D01*
%LPC*%
D11*
G04 #@! TO.C,J1*
X-15400000Y4000000D03*
D12*
X-59600000Y4000000D03*
G04 #@! TD*
D13*
G04 #@! TO.C,J2*
X-67980000Y25760000D03*
D14*
X-67980000Y28300000D03*
X-65440000Y25760000D03*
X-65440000Y28300000D03*
X-62900001Y25760000D03*
X-62900000Y28300000D03*
X-60360000Y25760000D03*
X-60360000Y28300000D03*
X-57820000Y25760000D03*
X-57820000Y28300000D03*
X-55280000Y25760000D03*
X-55280000Y28300000D03*
X-52740000Y25760000D03*
X-52740000Y28300000D03*
X-50199999Y25760000D03*
X-50200000Y28300000D03*
X-47660000Y25760000D03*
X-47660000Y28300000D03*
X-45120000Y25760000D03*
X-45120000Y28300000D03*
X-42580000Y25760000D03*
X-42580000Y28300000D03*
X-40040001Y25760000D03*
X-40040000Y28300000D03*
X-37500000Y25760000D03*
X-37500000Y28300000D03*
X-34960000Y25760000D03*
X-34960000Y28300000D03*
X-32420000Y25760000D03*
X-32420000Y28300000D03*
X-29880001Y25760000D03*
X-29880000Y28300000D03*
X-27339999Y25760000D03*
X-27340000Y28300000D03*
X-24800000Y25760000D03*
X-24800000Y28300000D03*
X-22260000Y25760000D03*
X-22260000Y28300000D03*
X-19720000Y25760000D03*
X-19720000Y28300000D03*
X-17180001Y25760000D03*
X-17180000Y28300000D03*
X-14640000Y25760000D03*
X-14640000Y28300000D03*
X-12100000Y25760000D03*
X-12100000Y28300000D03*
X-9560000Y25760000D03*
X-9560000Y28300000D03*
X-7020001Y25760000D03*
X-7020000Y28300000D03*
G04 #@! TD*
D15*
G04 #@! TO.C,H4*
X-4000000Y4000000D03*
G04 #@! TD*
D16*
G04 #@! TO.C,J3*
X-72440000Y10870000D03*
D17*
X-69900000Y17340000D03*
D18*
X-72440000Y16010000D03*
X-69900000Y14740000D03*
X-72440000Y13470000D03*
X-69900000Y12200000D03*
G04 #@! TD*
D15*
G04 #@! TO.C,H3*
X-71000000Y4000000D03*
G04 #@! TD*
G36*
X-56961Y21630315D02*
G01*
X-11206Y21577511D01*
X0Y21526000D01*
X0Y12574000D01*
X-19685Y12506961D01*
X-72489Y12461206D01*
X-124000Y12450000D01*
X-2376000Y12450000D01*
X-2443039Y12469685D01*
X-2488794Y12522489D01*
X-2500000Y12574000D01*
X-2500000Y21526000D01*
X-2480315Y21593039D01*
X-2427511Y21638794D01*
X-2376000Y21650000D01*
X-124000Y21650000D01*
X-56961Y21630315D01*
G37*
%LPD*%
M02*
