G04 #@! TF.GenerationSoftware,KiCad,Pcbnew,8.0.6*
G04 #@! TF.CreationDate,2024-11-07T02:27:30-08:00*
G04 #@! TF.ProjectId,mse-50-idc,6d73652d-3530-42d6-9964-632e6b696361,1*
G04 #@! TF.SameCoordinates,Original*
G04 #@! TF.FileFunction,Legend,Top*
G04 #@! TF.FilePolarity,Positive*
%FSLAX46Y46*%
G04 Gerber Fmt 4.6, Leading zero omitted, Abs format (unit mm)*
G04 Created by KiCad (PCBNEW 8.0.6) date 2024-11-07 02:27:30*
%MOMM*%
%LPD*%
G01*
G04 APERTURE LIST*
G04 Aperture macros list*
%AMRoundRect*
0 Rectangle with rounded corners*
0 $1 Rounding radius*
0 $2 $3 $4 $5 $6 $7 $8 $9 X,Y pos of 4 corners*
0 Add a 4 corners polygon primitive as box body*
4,1,4,$2,$3,$4,$5,$6,$7,$8,$9,$2,$3,0*
0 Add four circle primitives for the rounded corners*
1,1,$1+$1,$2,$3*
1,1,$1+$1,$4,$5*
1,1,$1+$1,$6,$7*
1,1,$1+$1,$8,$9*
0 Add four rect primitives between the rounded corners*
20,1,$1+$1,$2,$3,$4,$5,0*
20,1,$1+$1,$4,$5,$6,$7,0*
20,1,$1+$1,$6,$7,$8,$9,0*
20,1,$1+$1,$8,$9,$2,$3,0*%
G04 Aperture macros list end*
%ADD10C,0.100000*%
%ADD11C,0.150000*%
%ADD12C,0.120000*%
%ADD13C,0.000000*%
%ADD14C,0.800000*%
%ADD15C,1.200000*%
%ADD16RoundRect,0.125000X0.125000X0.925000X-0.125000X0.925000X-0.125000X-0.925000X0.125000X-0.925000X0*%
%ADD17RoundRect,0.225000X0.225000X-0.275000X0.225000X0.275000X-0.225000X0.275000X-0.225000X-0.275000X0*%
%ADD18RoundRect,0.225000X-0.225000X0.275000X-0.225000X-0.275000X0.225000X-0.275000X0.225000X0.275000X0*%
%ADD19RoundRect,0.264706X0.635294X-0.635294X0.635294X0.635294X-0.635294X0.635294X-0.635294X-0.635294X0*%
%ADD20C,1.800000*%
%ADD21C,6.500000*%
%ADD22RoundRect,0.062500X0.137500X-0.287500X0.137500X0.287500X-0.137500X0.287500X-0.137500X-0.287500X0*%
%ADD23RoundRect,0.265625X0.584375X-0.584375X0.584375X0.584375X-0.584375X0.584375X-0.584375X-0.584375X0*%
%ADD24C,2.300000*%
%ADD25C,2.700000*%
%ADD26C,1.950000*%
G04 APERTURE END LIST*
D10*
X-12357143Y3677581D02*
X-12357143Y4344248D01*
X-12357143Y4153772D02*
X-12309524Y4249010D01*
X-12309524Y4249010D02*
X-12261905Y4296629D01*
X-12261905Y4296629D02*
X-12166667Y4344248D01*
X-12166667Y4344248D02*
X-12071429Y4344248D01*
X-11357143Y3725200D02*
X-11452381Y3677581D01*
X-11452381Y3677581D02*
X-11642857Y3677581D01*
X-11642857Y3677581D02*
X-11738095Y3725200D01*
X-11738095Y3725200D02*
X-11785714Y3820439D01*
X-11785714Y3820439D02*
X-11785714Y4201391D01*
X-11785714Y4201391D02*
X-11738095Y4296629D01*
X-11738095Y4296629D02*
X-11642857Y4344248D01*
X-11642857Y4344248D02*
X-11452381Y4344248D01*
X-11452381Y4344248D02*
X-11357143Y4296629D01*
X-11357143Y4296629D02*
X-11309524Y4201391D01*
X-11309524Y4201391D02*
X-11309524Y4106153D01*
X-11309524Y4106153D02*
X-11785714Y4010915D01*
X-10976190Y4344248D02*
X-10738095Y3677581D01*
X-10738095Y3677581D02*
X-10500000Y4344248D01*
X-9595238Y3677581D02*
X-10166666Y3677581D01*
X-9880952Y3677581D02*
X-9880952Y4677581D01*
X-9880952Y4677581D02*
X-9976190Y4534724D01*
X-9976190Y4534724D02*
X-10071428Y4439486D01*
X-10071428Y4439486D02*
X-10166666Y4391867D01*
D11*
X-74625181Y31641667D02*
X-73910896Y31641667D01*
X-73910896Y31641667D02*
X-73768039Y31594048D01*
X-73768039Y31594048D02*
X-73672800Y31498810D01*
X-73672800Y31498810D02*
X-73625181Y31355953D01*
X-73625181Y31355953D02*
X-73625181Y31260715D01*
X-74529943Y32070239D02*
X-74577562Y32117858D01*
X-74577562Y32117858D02*
X-74625181Y32213096D01*
X-74625181Y32213096D02*
X-74625181Y32451191D01*
X-74625181Y32451191D02*
X-74577562Y32546429D01*
X-74577562Y32546429D02*
X-74529943Y32594048D01*
X-74529943Y32594048D02*
X-74434705Y32641667D01*
X-74434705Y32641667D02*
X-74339467Y32641667D01*
X-74339467Y32641667D02*
X-74196610Y32594048D01*
X-74196610Y32594048D02*
X-73625181Y32022620D01*
X-73625181Y32022620D02*
X-73625181Y32641667D01*
D12*
G04 #@! TO.C,J1*
X-60600001Y7100000D02*
X-60600000Y2000000D01*
X-60600001Y7100000D02*
X-57500001Y7100000D01*
X-59500000Y900000D02*
X-57500001Y900000D01*
X-17499999Y7100000D02*
X-14399999Y7100000D01*
X-17499999Y900000D02*
X-14399999Y900000D01*
X-14399999Y7100000D02*
X-14399999Y900000D01*
D10*
G04 #@! TO.C,R3*
X-67549999Y11600000D02*
X-67549999Y11000000D01*
X-66850001Y11000000D02*
X-66850001Y11600000D01*
G04 #@! TO.C,R2*
X-67549999Y15900000D02*
X-67549999Y15300000D01*
X-66850001Y15300000D02*
X-66850001Y15900000D01*
G04 #@! TO.C,C1*
X-66399999Y3700000D02*
X-66399999Y4300000D01*
X-65700001Y4300000D02*
X-65700001Y3700000D01*
D12*
G04 #@! TO.C,J2*
X-73190000Y39150000D02*
X-1810000Y39150000D01*
X-73190000Y30030000D02*
X-73190000Y39150000D01*
X-68479999Y23410000D02*
X-67480001Y23410000D01*
X-67980000Y24410000D02*
X-68479999Y23410000D01*
X-67480001Y23410000D02*
X-67980000Y24410000D01*
X-39550000Y30030000D02*
X-39550000Y39150000D01*
X-35449999Y30030000D02*
X-35450000Y39150000D01*
X-1810000Y39150000D02*
X-1810000Y30030000D01*
X-1810000Y30030000D02*
X-73190000Y30030000D01*
D13*
G04 #@! TO.C,kibuzzard-672C68B6*
G36*
X-34248586Y16431038D02*
G01*
X-34165287Y16390145D01*
X-34111672Y16316539D01*
X-34093800Y16204766D01*
X-34111975Y16086935D01*
X-34166498Y16009693D01*
X-34256765Y15966983D01*
X-34382169Y15952746D01*
X-34503332Y15952746D01*
X-34503332Y16437399D01*
X-34429422Y16443457D01*
X-34355513Y16444669D01*
X-34248586Y16431038D01*
G37*
G36*
X-36640953Y16432855D02*
G01*
X-36561894Y16331987D01*
X-36526218Y16228729D01*
X-36504813Y16098277D01*
X-36497678Y15940630D01*
X-36504813Y15781637D01*
X-36526218Y15650377D01*
X-36561894Y15546850D01*
X-36640953Y15445981D01*
X-36747274Y15413108D01*
X-36749697Y15412359D01*
X-36856926Y15445981D01*
X-36936288Y15546850D01*
X-36972637Y15650377D01*
X-36994447Y15781637D01*
X-37001716Y15940630D01*
X-37000599Y15964863D01*
X-36882977Y15964863D01*
X-36846628Y15852181D01*
X-36747274Y15804927D01*
X-36651555Y15852181D01*
X-36613994Y15964863D01*
X-36651555Y16078756D01*
X-36747274Y16127221D01*
X-36846628Y16078756D01*
X-36882977Y15964863D01*
X-37000599Y15964863D01*
X-36994447Y16098277D01*
X-36972637Y16228729D01*
X-36936288Y16331987D01*
X-36856926Y16432855D01*
X-36749697Y16466478D01*
X-36640953Y16432855D01*
G37*
G36*
X-31337556Y17041407D02*
G01*
X-31235974Y17026339D01*
X-31136358Y17001386D01*
X-31039668Y16966790D01*
X-30946834Y16922883D01*
X-30858751Y16870088D01*
X-30776267Y16808914D01*
X-30700176Y16739949D01*
X-30631212Y16663858D01*
X-30570037Y16581374D01*
X-30517242Y16493291D01*
X-30473335Y16400458D01*
X-30438739Y16303767D01*
X-30413786Y16204151D01*
X-30398718Y16102570D01*
X-30393679Y16000000D01*
X-30398718Y15897430D01*
X-30413786Y15795849D01*
X-30438739Y15696233D01*
X-30473335Y15599542D01*
X-30517242Y15506709D01*
X-30570037Y15418626D01*
X-30631212Y15336142D01*
X-30700176Y15260051D01*
X-30776267Y15191086D01*
X-30858751Y15129912D01*
X-30946834Y15077117D01*
X-31039668Y15033210D01*
X-31136358Y14998614D01*
X-31235974Y14973661D01*
X-31337556Y14958593D01*
X-31440125Y14953554D01*
X-31440327Y14953554D01*
X-32911248Y14953554D01*
X-34503332Y14953554D01*
X-36749697Y14953554D01*
X-38077645Y14953554D01*
X-40837742Y14953554D01*
X-41639842Y14953554D01*
X-42257775Y14953554D01*
X-43357936Y14953554D01*
X-43559875Y14953554D01*
X-43662444Y14958593D01*
X-43764026Y14973661D01*
X-43863642Y14998614D01*
X-43960332Y15033210D01*
X-44053166Y15077117D01*
X-44141249Y15129912D01*
X-44218217Y15186995D01*
X-43357936Y15186995D01*
X-43084107Y15186995D01*
X-43096224Y16352585D01*
X-42919326Y15717690D01*
X-42701232Y15717690D01*
X-42517064Y16352585D01*
X-42531603Y15186995D01*
X-42257775Y15186995D01*
X-42260118Y15269386D01*
X-42105109Y15269386D01*
X-41937904Y15195477D01*
X-41807653Y15165489D01*
X-41639842Y15155493D01*
X-41469810Y15168282D01*
X-41402247Y15186995D01*
X-40837742Y15186995D01*
X-39875707Y15186995D01*
X-39875707Y15233037D01*
X-38482330Y15233037D01*
X-38413267Y15206381D01*
X-38312702Y15180937D01*
X-38196385Y15162763D01*
X-38077645Y15155493D01*
X-37938914Y15164580D01*
X-37818356Y15191842D01*
X-37715973Y15235460D01*
X-37631765Y15293619D01*
X-37520295Y15447496D01*
X-37483946Y15640145D01*
X-37500370Y15780695D01*
X-37549643Y15898627D01*
X-37585832Y15940630D01*
X-37270699Y15940630D01*
X-37262369Y15754645D01*
X-37237379Y15594103D01*
X-37195729Y15459006D01*
X-37137419Y15349354D01*
X-37035104Y15241653D01*
X-36905863Y15177033D01*
X-36749697Y15155493D01*
X-36593531Y15177033D01*
X-36464291Y15241653D01*
X-36361975Y15349354D01*
X-36303665Y15459006D01*
X-36262015Y15594103D01*
X-36237025Y15754645D01*
X-36228695Y15940630D01*
X-36237025Y16125480D01*
X-36262015Y16285036D01*
X-36303665Y16419300D01*
X-36361975Y16528271D01*
X-36464291Y16635299D01*
X-36529318Y16667609D01*
X-34801393Y16667609D01*
X-34801393Y15186995D01*
X-34503332Y15186995D01*
X-34503332Y15693457D01*
X-34396708Y15693457D01*
X-34217522Y15706785D01*
X-34067683Y15746769D01*
X-33947193Y15813409D01*
X-33859013Y15909935D01*
X-33806105Y16039580D01*
X-33788469Y16202342D01*
X-33801892Y16325929D01*
X-33633380Y16325929D01*
X-33633380Y16078756D01*
X-33318356Y16078756D01*
X-33318356Y15659532D01*
X-33313510Y15547456D01*
X-33298970Y15448708D01*
X-33232330Y15292407D01*
X-33106321Y15194265D01*
X-33018174Y15168821D01*
X-32911248Y15160339D01*
X-32762217Y15176090D01*
X-32588954Y15235460D01*
X-32627726Y15475363D01*
X-32758582Y15430533D01*
X-32857936Y15419628D01*
X-32982734Y15469305D01*
X-33020295Y15620759D01*
X-33020295Y16289580D01*
X-32356321Y16289580D01*
X-32356321Y15186995D01*
X-32058259Y15186995D01*
X-32058259Y16081179D01*
X-31989196Y16088449D01*
X-31922557Y16090872D01*
X-31774737Y16020598D01*
X-31747476Y15927908D01*
X-31738389Y15790388D01*
X-31738389Y15186995D01*
X-31440327Y15186995D01*
X-31440327Y15829160D01*
X-31445779Y15940327D01*
X-31462137Y16041195D01*
X-31536046Y16205977D01*
X-31677807Y16312601D01*
X-31778978Y16340771D01*
X-31903170Y16350162D01*
X-32036147Y16345315D01*
X-32158825Y16330775D01*
X-32266963Y16310784D01*
X-32356321Y16289580D01*
X-33020295Y16289580D01*
X-33020295Y16325929D01*
X-33221426Y16325929D01*
X-33633380Y16325929D01*
X-33801892Y16325929D01*
X-33805971Y16363489D01*
X-33858475Y16491519D01*
X-33945981Y16586430D01*
X-34065260Y16651723D01*
X-34070339Y16653069D01*
X-33408017Y16653069D01*
X-33353494Y16514943D01*
X-33221426Y16464055D01*
X-33088146Y16514943D01*
X-33032411Y16653069D01*
X-33088146Y16793619D01*
X-33221426Y16844507D01*
X-33353494Y16793619D01*
X-33408017Y16653069D01*
X-34070339Y16653069D01*
X-34213079Y16690899D01*
X-34389439Y16703958D01*
X-34483946Y16701535D01*
X-34592993Y16695477D01*
X-34703251Y16684572D01*
X-34801393Y16667609D01*
X-36529318Y16667609D01*
X-36593531Y16699515D01*
X-36749697Y16720921D01*
X-36903440Y16699381D01*
X-37031873Y16634760D01*
X-37134996Y16527060D01*
X-37194366Y16417710D01*
X-37236773Y16283522D01*
X-37262217Y16124495D01*
X-37270699Y15940630D01*
X-37585832Y15940630D01*
X-37631765Y15993942D01*
X-37747274Y16066101D01*
X-37896708Y16114567D01*
X-38080069Y16139338D01*
X-38067952Y16277464D01*
X-38055836Y16439822D01*
X-37539681Y16439822D01*
X-37539681Y16686995D01*
X-38305432Y16686995D01*
X-38314519Y16501918D01*
X-38327242Y16310178D01*
X-38344204Y16112985D01*
X-38366014Y15911551D01*
X-38199414Y15906401D01*
X-38067952Y15890953D01*
X-37892266Y15832795D01*
X-37809875Y15743134D01*
X-37789277Y15628029D01*
X-37801393Y15548061D01*
X-37846224Y15478998D01*
X-37935884Y15429321D01*
X-38080069Y15409935D01*
X-38193356Y15415388D01*
X-38286046Y15431745D01*
X-38421749Y15480210D01*
X-38482330Y15233037D01*
X-39875707Y15233037D01*
X-39875707Y15434168D01*
X-40539681Y15434168D01*
X-40539681Y15855816D01*
X-40008986Y15855816D01*
X-40008986Y16102989D01*
X-40539681Y16102989D01*
X-40539681Y16439822D01*
X-39929019Y16439822D01*
X-39929019Y16686995D01*
X-40837742Y16686995D01*
X-40837742Y15186995D01*
X-41402247Y15186995D01*
X-41331280Y15206651D01*
X-41224253Y15270598D01*
X-41121567Y15409632D01*
X-41087338Y15596527D01*
X-41097637Y15709511D01*
X-41128534Y15801292D01*
X-41233946Y15936995D01*
X-41374495Y16024233D01*
X-41521103Y16083603D01*
X-41614398Y16119952D01*
X-41699212Y16164782D01*
X-41761006Y16222940D01*
X-41785238Y16299273D01*
X-41758852Y16394857D01*
X-41679692Y16452208D01*
X-41547758Y16471325D01*
X-41376918Y16447092D01*
X-41242427Y16388934D01*
X-41155190Y16619144D01*
X-41328453Y16689418D01*
X-41440226Y16713045D01*
X-41569568Y16720921D01*
X-41718060Y16707728D01*
X-41843666Y16668148D01*
X-41946385Y16602181D01*
X-42049071Y16460420D01*
X-42083300Y16272617D01*
X-42044527Y16094507D01*
X-41946385Y15974556D01*
X-41814317Y15894588D01*
X-41673768Y15838853D01*
X-41571991Y15796446D01*
X-41479907Y15745557D01*
X-41412056Y15681341D01*
X-41385400Y15598950D01*
X-41396305Y15527464D01*
X-41436288Y15464459D01*
X-41515044Y15420840D01*
X-41639842Y15405089D01*
X-41760703Y15413570D01*
X-41861571Y15439015D01*
X-42017872Y15511712D01*
X-42105109Y15269386D01*
X-42260118Y15269386D01*
X-42263227Y15378736D01*
X-42269891Y15566236D01*
X-42278069Y15751010D01*
X-42288065Y15934572D01*
X-42300182Y16118437D01*
X-42314721Y16304120D01*
X-42330775Y16493134D01*
X-42347435Y16686995D01*
X-42594608Y16686995D01*
X-42638227Y16558562D01*
X-42691539Y16392569D01*
X-42752120Y16208401D01*
X-42812702Y16023021D01*
X-42868437Y16197496D01*
X-42926595Y16384087D01*
X-42981119Y16556139D01*
X-43023526Y16686995D01*
X-43270699Y16686995D01*
X-43286753Y16522819D01*
X-43300989Y16345315D01*
X-43313409Y16158118D01*
X-43324011Y15964863D01*
X-43333401Y15767973D01*
X-43342185Y15569871D01*
X-43350363Y15374798D01*
X-43357936Y15186995D01*
X-44218217Y15186995D01*
X-44223733Y15191086D01*
X-44299824Y15260051D01*
X-44368788Y15336142D01*
X-44429963Y15418626D01*
X-44482758Y15506709D01*
X-44526665Y15599542D01*
X-44561261Y15696233D01*
X-44586214Y15795849D01*
X-44601282Y15897430D01*
X-44606321Y16000000D01*
X-44601282Y16102570D01*
X-44586214Y16204151D01*
X-44561261Y16303767D01*
X-44526665Y16400458D01*
X-44482758Y16493291D01*
X-44429963Y16581374D01*
X-44368788Y16663858D01*
X-44299824Y16739949D01*
X-44223733Y16808914D01*
X-44141249Y16870088D01*
X-44053166Y16922883D01*
X-43960332Y16966790D01*
X-43863642Y17001386D01*
X-43764026Y17026339D01*
X-43662444Y17041407D01*
X-43559875Y17046446D01*
X-43357936Y17046446D01*
X-31440327Y17046446D01*
X-31440125Y17046446D01*
X-31337556Y17041407D01*
G37*
D10*
G04 #@! TO.C,R1*
X-62499999Y4300000D02*
X-62499999Y3700000D01*
X-61800001Y3700000D02*
X-61800001Y4300000D01*
G04 #@! TO.C,U1*
X-65200000Y2300000D02*
X-65200000Y4950000D01*
X-63000000Y4950000D02*
X-63000000Y3050000D01*
G04 #@! TO.C,J3*
X-73970000Y20440000D02*
X-68370000Y20440000D01*
X-68370000Y7770000D01*
X-73970000Y7770000D01*
X-73970000Y20440000D01*
G04 #@! TD*
%LPC*%
D14*
G04 #@! TO.C,J1*
X-15400000Y4000000D03*
D15*
X-59600000Y4000000D03*
D16*
X-57100000Y1800000D03*
X-57100000Y6200000D03*
X-56300000Y1800001D03*
X-56300000Y6199999D03*
X-55500000Y1800000D03*
X-55500000Y6200000D03*
X-54700001Y1800000D03*
X-54700001Y6200000D03*
X-53900000Y1800000D03*
X-53900000Y6200000D03*
X-53100000Y1800000D03*
X-53100000Y6200000D03*
X-52299999Y1800000D03*
X-52299999Y6200000D03*
X-51500000Y1800000D03*
X-51500000Y6200000D03*
X-50700000Y1800001D03*
X-50700000Y6199999D03*
X-49900000Y1800000D03*
X-49900000Y6200000D03*
X-49100000Y1800000D03*
X-49100000Y6200000D03*
X-48300000Y1800000D03*
X-48300000Y6200000D03*
X-47500000Y1800000D03*
X-47500000Y6200000D03*
X-46699999Y1800000D03*
X-46699999Y6200000D03*
X-45900000Y1800000D03*
X-45900000Y6200000D03*
X-45100000Y1800001D03*
X-45100000Y6199999D03*
X-44300000Y1800000D03*
X-44300000Y6200000D03*
X-43500000Y1800000D03*
X-43500000Y6200000D03*
X-42700000Y1800000D03*
X-42700000Y6200000D03*
X-41900000Y1800000D03*
X-41900000Y6200000D03*
X-41099999Y1800000D03*
X-41099999Y6200000D03*
X-40300000Y1800000D03*
X-40300000Y6200000D03*
X-39500000Y1800001D03*
X-39500000Y6199999D03*
X-38700000Y1800000D03*
X-38700000Y6200000D03*
X-37900000Y1800000D03*
X-37900000Y6200000D03*
X-37100000Y1800000D03*
X-37100000Y6200000D03*
X-36300000Y1800000D03*
X-36300000Y6200000D03*
X-35500000Y1800001D03*
X-35500000Y6199999D03*
X-34700000Y1800000D03*
X-34700000Y6200000D03*
X-33900001Y1800000D03*
X-33900001Y6200000D03*
X-33100000Y1800000D03*
X-33100000Y6200000D03*
X-32300000Y1800000D03*
X-32300000Y6200000D03*
X-31500000Y1800000D03*
X-31500000Y6200000D03*
X-30700000Y1800000D03*
X-30700000Y6200000D03*
X-29900000Y1800001D03*
X-29900000Y6199999D03*
X-29100000Y1800000D03*
X-29100000Y6200000D03*
X-28300001Y1800000D03*
X-28300001Y6200000D03*
X-27500000Y1800000D03*
X-27500000Y6200000D03*
X-26700000Y1800000D03*
X-26700000Y6200000D03*
X-25900000Y1800000D03*
X-25900000Y6200000D03*
X-25100000Y1800000D03*
X-25100000Y6200000D03*
X-24300000Y1800001D03*
X-24300000Y6199999D03*
X-23500000Y1800000D03*
X-23500000Y6200000D03*
X-22700001Y1800000D03*
X-22700001Y6200000D03*
X-21900000Y1800000D03*
X-21900000Y6200000D03*
X-21100000Y1800000D03*
X-21100000Y6200000D03*
X-20299999Y1800000D03*
X-20299999Y6200000D03*
X-19500000Y1800000D03*
X-19500000Y6200000D03*
X-18700000Y1800001D03*
X-18700000Y6199999D03*
X-17900000Y1800000D03*
X-17900000Y6200000D03*
G04 #@! TD*
D17*
G04 #@! TO.C,R3*
X-67200000Y10450000D03*
X-67200000Y12150000D03*
G04 #@! TD*
D18*
G04 #@! TO.C,R2*
X-67200000Y16450000D03*
X-67200000Y14750000D03*
G04 #@! TD*
D17*
G04 #@! TO.C,C1*
X-66050000Y3150000D03*
X-66050000Y4850000D03*
G04 #@! TD*
D19*
G04 #@! TO.C,J2*
X-67980000Y25760000D03*
D20*
X-67980000Y28300000D03*
X-65440000Y25760000D03*
X-65440000Y28300000D03*
X-62900001Y25760000D03*
X-62900000Y28300000D03*
X-60360000Y25760000D03*
X-60360000Y28300000D03*
X-57820000Y25760000D03*
X-57820000Y28300000D03*
X-55280000Y25760000D03*
X-55280000Y28300000D03*
X-52740000Y25760000D03*
X-52740000Y28300000D03*
X-50199999Y25760000D03*
X-50200000Y28300000D03*
X-47660000Y25760000D03*
X-47660000Y28300000D03*
X-45120000Y25760000D03*
X-45120000Y28300000D03*
X-42580000Y25760000D03*
X-42580000Y28300000D03*
X-40040001Y25760000D03*
X-40040000Y28300000D03*
X-37500000Y25760000D03*
X-37500000Y28300000D03*
X-34960000Y25760000D03*
X-34960000Y28300000D03*
X-32420000Y25760000D03*
X-32420000Y28300000D03*
X-29880001Y25760000D03*
X-29880000Y28300000D03*
X-27339999Y25760000D03*
X-27340000Y28300000D03*
X-24800000Y25760000D03*
X-24800000Y28300000D03*
X-22260000Y25760000D03*
X-22260000Y28300000D03*
X-19720000Y25760000D03*
X-19720000Y28300000D03*
X-17180001Y25760000D03*
X-17180000Y28300000D03*
X-14640000Y25760000D03*
X-14640000Y28300000D03*
X-12100000Y25760000D03*
X-12100000Y28300000D03*
X-9560000Y25760000D03*
X-9560000Y28300000D03*
X-7020001Y25760000D03*
X-7020000Y28300000D03*
G04 #@! TD*
D21*
G04 #@! TO.C,H4*
X-4000000Y4000000D03*
G04 #@! TD*
D17*
G04 #@! TO.C,R1*
X-62150000Y3150000D03*
X-62150000Y4850000D03*
G04 #@! TD*
D22*
G04 #@! TO.C,U1*
X-64850001Y2600000D03*
X-64350000Y2600000D03*
X-63850000Y2600000D03*
X-63349999Y2600000D03*
X-63349999Y5400000D03*
X-63850000Y5400000D03*
X-64350000Y5400000D03*
X-64850001Y5400000D03*
D23*
X-64100000Y4000000D03*
G04 #@! TD*
D24*
G04 #@! TO.C,J3*
X-72440000Y10870000D03*
D25*
X-69900000Y17340000D03*
D26*
X-72440000Y16010000D03*
X-69900000Y14740000D03*
X-72440000Y13470000D03*
X-69900000Y12200000D03*
G04 #@! TD*
D21*
G04 #@! TO.C,H3*
X-71000000Y4000000D03*
G04 #@! TD*
G36*
X-56961Y21630315D02*
G01*
X-11206Y21577511D01*
X0Y21526000D01*
X0Y12574000D01*
X-19685Y12506961D01*
X-72489Y12461206D01*
X-124000Y12450000D01*
X-2376000Y12450000D01*
X-2443039Y12469685D01*
X-2488794Y12522489D01*
X-2500000Y12574000D01*
X-2500000Y21526000D01*
X-2480315Y21593039D01*
X-2427511Y21638794D01*
X-2376000Y21650000D01*
X-124000Y21650000D01*
X-56961Y21630315D01*
G37*
%LPD*%
M02*
