G04 #@! TF.GenerationSoftware,KiCad,Pcbnew,8.0.6*
G04 #@! TF.CreationDate,2024-11-07T02:27:30-08:00*
G04 #@! TF.ProjectId,mse-50-idc,6d73652d-3530-42d6-9964-632e6b696361,1*
G04 #@! TF.SameCoordinates,Original*
G04 #@! TF.FileFunction,Copper,L1,Top*
G04 #@! TF.FilePolarity,Positive*
%FSLAX46Y46*%
G04 Gerber Fmt 4.6, Leading zero omitted, Abs format (unit mm)*
G04 Created by KiCad (PCBNEW 8.0.6) date 2024-11-07 02:27:30*
%MOMM*%
%LPD*%
G01*
G04 APERTURE LIST*
G04 Aperture macros list*
%AMRoundRect*
0 Rectangle with rounded corners*
0 $1 Rounding radius*
0 $2 $3 $4 $5 $6 $7 $8 $9 X,Y pos of 4 corners*
0 Add a 4 corners polygon primitive as box body*
4,1,4,$2,$3,$4,$5,$6,$7,$8,$9,$2,$3,0*
0 Add four circle primitives for the rounded corners*
1,1,$1+$1,$2,$3*
1,1,$1+$1,$4,$5*
1,1,$1+$1,$6,$7*
1,1,$1+$1,$8,$9*
0 Add four rect primitives between the rounded corners*
20,1,$1+$1,$2,$3,$4,$5,0*
20,1,$1+$1,$4,$5,$6,$7,0*
20,1,$1+$1,$6,$7,$8,$9,0*
20,1,$1+$1,$8,$9,$2,$3,0*%
G04 Aperture macros list end*
%ADD10C,0.300000*%
G04 #@! TA.AperFunction,NonConductor*
%ADD11C,0.300000*%
G04 #@! TD*
G04 #@! TA.AperFunction,SMDPad,CuDef*
%ADD12RoundRect,0.100000X0.100000X0.900000X-0.100000X0.900000X-0.100000X-0.900000X0.100000X-0.900000X0*%
G04 #@! TD*
G04 #@! TA.AperFunction,SMDPad,CuDef*
%ADD13RoundRect,0.200000X0.200000X-0.250000X0.200000X0.250000X-0.200000X0.250000X-0.200000X-0.250000X0*%
G04 #@! TD*
G04 #@! TA.AperFunction,SMDPad,CuDef*
%ADD14RoundRect,0.200000X-0.200000X0.250000X-0.200000X-0.250000X0.200000X-0.250000X0.200000X0.250000X0*%
G04 #@! TD*
G04 #@! TA.AperFunction,ComponentPad*
%ADD15RoundRect,0.250000X0.600000X-0.600000X0.600000X0.600000X-0.600000X0.600000X-0.600000X-0.600000X0*%
G04 #@! TD*
G04 #@! TA.AperFunction,ComponentPad*
%ADD16C,1.700000*%
G04 #@! TD*
G04 #@! TA.AperFunction,ComponentPad*
%ADD17C,6.400000*%
G04 #@! TD*
G04 #@! TA.AperFunction,SMDPad,CuDef*
%ADD18RoundRect,0.046875X0.103125X-0.253125X0.103125X0.253125X-0.103125X0.253125X-0.103125X-0.253125X0*%
G04 #@! TD*
G04 #@! TA.AperFunction,SMDPad,CuDef*
%ADD19RoundRect,0.250000X0.550000X-0.550000X0.550000X0.550000X-0.550000X0.550000X-0.550000X-0.550000X0*%
G04 #@! TD*
G04 #@! TA.AperFunction,ComponentPad*
%ADD20C,1.850000*%
G04 #@! TD*
G04 #@! TA.AperFunction,ViaPad*
%ADD21C,0.450000*%
G04 #@! TD*
G04 #@! TA.AperFunction,Conductor*
%ADD22C,0.200000*%
G04 #@! TD*
G04 #@! TA.AperFunction,Conductor*
%ADD23C,0.300000*%
G04 #@! TD*
G04 #@! TA.AperFunction,Conductor*
%ADD24C,0.151400*%
G04 #@! TD*
G04 #@! TA.AperFunction,Conductor*
%ADD25C,0.400000*%
G04 #@! TD*
G04 APERTURE END LIST*
D10*
D11*
X-499172Y13728573D02*
X-499172Y12871430D01*
X-499172Y13300001D02*
X-1999172Y13300001D01*
X-1999172Y13300001D02*
X-1784886Y13157144D01*
X-1784886Y13157144D02*
X-1642029Y13014287D01*
X-1642029Y13014287D02*
X-1570600Y12871430D01*
D12*
G04 #@! TO.P,J1,1,Pin_1*
G04 #@! TO.N,GND*
X-57100000Y1800000D03*
G04 #@! TO.P,J1,2,Pin_2*
X-57100000Y6200000D03*
G04 #@! TO.P,J1,3,Pin_3*
G04 #@! TO.N,+3V3*
X-56300000Y1800001D03*
G04 #@! TO.P,J1,4,Pin_4*
G04 #@! TO.N,/PHY.ID_SDA*
X-56300000Y6199999D03*
G04 #@! TO.P,J1,5,Pin_5*
G04 #@! TO.N,unconnected-(J1-Pin_5-Pad5)*
X-55500000Y1800000D03*
G04 #@! TO.P,J1,6,Pin_6*
G04 #@! TO.N,/PHY.ID_SCL*
X-55500000Y6200000D03*
G04 #@! TO.P,J1,7,Pin_7*
G04 #@! TO.N,GND*
X-54700001Y1800000D03*
G04 #@! TO.P,J1,8,Pin_8*
X-54700001Y6200000D03*
G04 #@! TO.P,J1,9,Pin_9*
X-53900000Y1800000D03*
G04 #@! TO.P,J1,10,Pin_10*
X-53900000Y6200000D03*
G04 #@! TO.P,J1,11,Pin_11*
G04 #@! TO.N,/CON.DB12+*
X-53100000Y1800000D03*
G04 #@! TO.P,J1,12,Pin_12*
G04 #@! TO.N,/CON.DB12-*
X-53100000Y6200000D03*
G04 #@! TO.P,J1,13,Pin_13*
G04 #@! TO.N,/CON.DB13+*
X-52299999Y1800000D03*
G04 #@! TO.P,J1,14,Pin_14*
G04 #@! TO.N,/CON.DB13-*
X-52299999Y6200000D03*
G04 #@! TO.P,J1,15,Pin_15*
G04 #@! TO.N,GND*
X-51500000Y1800000D03*
G04 #@! TO.P,J1,16,Pin_16*
X-51500000Y6200000D03*
G04 #@! TO.P,J1,17,Pin_17*
G04 #@! TO.N,/CON.DB14+*
X-50700000Y1800001D03*
G04 #@! TO.P,J1,18,Pin_18*
G04 #@! TO.N,/CON.DB14-*
X-50700000Y6199999D03*
G04 #@! TO.P,J1,19,Pin_19*
G04 #@! TO.N,/CON.DB15+*
X-49900000Y1800000D03*
G04 #@! TO.P,J1,20,Pin_20*
G04 #@! TO.N,/CON.DB15-*
X-49900000Y6200000D03*
G04 #@! TO.P,J1,21,Pin_21*
G04 #@! TO.N,GND*
X-49100000Y1800000D03*
G04 #@! TO.P,J1,22,Pin_22*
X-49100000Y6200000D03*
G04 #@! TO.P,J1,23,Pin_23*
G04 #@! TO.N,/CON.DP1+*
X-48300000Y1800000D03*
G04 #@! TO.P,J1,24,Pin_24*
G04 #@! TO.N,/CON.DP1-*
X-48300000Y6200000D03*
G04 #@! TO.P,J1,25,Pin_25*
G04 #@! TO.N,/CON.DB0+*
X-47500000Y1800000D03*
G04 #@! TO.P,J1,26,Pin_26*
G04 #@! TO.N,/CON.DB0-*
X-47500000Y6200000D03*
G04 #@! TO.P,J1,27,Pin_27*
G04 #@! TO.N,GND*
X-46699999Y1800000D03*
G04 #@! TO.P,J1,28,Pin_28*
X-46699999Y6200000D03*
G04 #@! TO.P,J1,29,Pin_29*
G04 #@! TO.N,/CON.DB1+*
X-45900000Y1800000D03*
G04 #@! TO.P,J1,30,Pin_30*
G04 #@! TO.N,/CON.DB1-*
X-45900000Y6200000D03*
G04 #@! TO.P,J1,31,Pin_31*
G04 #@! TO.N,/CON.DB2+*
X-45100000Y1800001D03*
G04 #@! TO.P,J1,32,Pin_32*
G04 #@! TO.N,/CON.DB2-*
X-45100000Y6199999D03*
G04 #@! TO.P,J1,33,Pin_33*
G04 #@! TO.N,GND*
X-44300000Y1800000D03*
G04 #@! TO.P,J1,34,Pin_34*
X-44300000Y6200000D03*
G04 #@! TO.P,J1,35,Pin_35*
G04 #@! TO.N,/CON.DB3+*
X-43500000Y1800000D03*
G04 #@! TO.P,J1,36,Pin_36*
G04 #@! TO.N,/CON.DB3-*
X-43500000Y6200000D03*
G04 #@! TO.P,J1,37,Pin_37*
G04 #@! TO.N,/CON.DB4+*
X-42700000Y1800000D03*
G04 #@! TO.P,J1,38,Pin_38*
G04 #@! TO.N,/CON.DB4-*
X-42700000Y6200000D03*
G04 #@! TO.P,J1,39,Pin_39*
G04 #@! TO.N,GND*
X-41900000Y1800000D03*
G04 #@! TO.P,J1,40,Pin_40*
X-41900000Y6200000D03*
G04 #@! TO.P,J1,41,Pin_41*
G04 #@! TO.N,/CON.DB5+*
X-41099999Y1800000D03*
G04 #@! TO.P,J1,42,Pin_42*
G04 #@! TO.N,/CON.DB5-*
X-41099999Y6200000D03*
G04 #@! TO.P,J1,43,Pin_43*
G04 #@! TO.N,/CON.DB6+*
X-40300000Y1800000D03*
G04 #@! TO.P,J1,44,Pin_44*
G04 #@! TO.N,/CON.DB6-*
X-40300000Y6200000D03*
G04 #@! TO.P,J1,45,Pin_45*
G04 #@! TO.N,GND*
X-39500000Y1800001D03*
G04 #@! TO.P,J1,46,Pin_46*
X-39500000Y6199999D03*
G04 #@! TO.P,J1,47,Pin_47*
G04 #@! TO.N,/CON.DB7+*
X-38700000Y1800000D03*
G04 #@! TO.P,J1,48,Pin_48*
G04 #@! TO.N,/CON.DB7-*
X-38700000Y6200000D03*
G04 #@! TO.P,J1,49,Pin_49*
G04 #@! TO.N,/CON.DP0+*
X-37900000Y1800000D03*
G04 #@! TO.P,J1,50,Pin_50*
G04 #@! TO.N,/CON.DP0-*
X-37900000Y6200000D03*
G04 #@! TO.P,J1,51,Pin_51*
G04 #@! TO.N,GND*
X-37100000Y1800000D03*
G04 #@! TO.P,J1,52,Pin_52*
X-37100000Y6200000D03*
G04 #@! TO.P,J1,53,Pin_53*
G04 #@! TO.N,/CON.DIFFSENSE*
X-36300000Y1800000D03*
G04 #@! TO.P,J1,54,Pin_54*
G04 #@! TO.N,unconnected-(J1-Pin_54-Pad54)*
X-36300000Y6200000D03*
G04 #@! TO.P,J1,55,Pin_55*
G04 #@! TO.N,/CON.TERMPWR*
X-35500000Y1800001D03*
G04 #@! TO.P,J1,56,Pin_56*
X-35500000Y6199999D03*
G04 #@! TO.P,J1,57,Pin_57*
X-34700000Y1800000D03*
G04 #@! TO.P,J1,58,Pin_58*
X-34700000Y6200000D03*
G04 #@! TO.P,J1,59,Pin_59*
G04 #@! TO.N,GND*
X-33900001Y1800000D03*
G04 #@! TO.P,J1,60,Pin_60*
X-33900001Y6200000D03*
G04 #@! TO.P,J1,61,Pin_61*
G04 #@! TO.N,/CON.ATN+*
X-33100000Y1800000D03*
G04 #@! TO.P,J1,62,Pin_62*
G04 #@! TO.N,/CON.ATN-*
X-33100000Y6200000D03*
G04 #@! TO.P,J1,63,Pin_63*
G04 #@! TO.N,GND*
X-32300000Y1800000D03*
G04 #@! TO.P,J1,64,Pin_64*
X-32300000Y6200000D03*
G04 #@! TO.P,J1,65,Pin_65*
G04 #@! TO.N,/CON.BSY+*
X-31500000Y1800000D03*
G04 #@! TO.P,J1,66,Pin_66*
G04 #@! TO.N,/CON.BSY-*
X-31500000Y6200000D03*
G04 #@! TO.P,J1,67,Pin_67*
G04 #@! TO.N,/CON.ACK+*
X-30700000Y1800000D03*
G04 #@! TO.P,J1,68,Pin_68*
G04 #@! TO.N,/CON.ACK-*
X-30700000Y6200000D03*
G04 #@! TO.P,J1,69,Pin_69*
G04 #@! TO.N,GND*
X-29900000Y1800001D03*
G04 #@! TO.P,J1,70,Pin_70*
X-29900000Y6199999D03*
G04 #@! TO.P,J1,71,Pin_71*
G04 #@! TO.N,/CON.RST+*
X-29100000Y1800000D03*
G04 #@! TO.P,J1,72,Pin_72*
G04 #@! TO.N,/CON.RST-*
X-29100000Y6200000D03*
G04 #@! TO.P,J1,73,Pin_73*
G04 #@! TO.N,/CON.MSG+*
X-28300001Y1800000D03*
G04 #@! TO.P,J1,74,Pin_74*
G04 #@! TO.N,/CON.MSG-*
X-28300001Y6200000D03*
G04 #@! TO.P,J1,75,Pin_75*
G04 #@! TO.N,GND*
X-27500000Y1800000D03*
G04 #@! TO.P,J1,76,Pin_76*
X-27500000Y6200000D03*
G04 #@! TO.P,J1,77,Pin_77*
G04 #@! TO.N,/CON.SEL+*
X-26700000Y1800000D03*
G04 #@! TO.P,J1,78,Pin_78*
G04 #@! TO.N,/CON.SEL-*
X-26700000Y6200000D03*
G04 #@! TO.P,J1,79,Pin_79*
G04 #@! TO.N,/CON.C{slash}D+*
X-25900000Y1800000D03*
G04 #@! TO.P,J1,80,Pin_80*
G04 #@! TO.N,/CON.C{slash}D-*
X-25900000Y6200000D03*
G04 #@! TO.P,J1,81,Pin_81*
G04 #@! TO.N,GND*
X-25100000Y1800000D03*
G04 #@! TO.P,J1,82,Pin_82*
X-25100000Y6200000D03*
G04 #@! TO.P,J1,83,Pin_83*
G04 #@! TO.N,/CON.REQ+*
X-24300000Y1800001D03*
G04 #@! TO.P,J1,84,Pin_84*
G04 #@! TO.N,/CON.REQ-*
X-24300000Y6199999D03*
G04 #@! TO.P,J1,85,Pin_85*
G04 #@! TO.N,/CON.I{slash}O+*
X-23500000Y1800000D03*
G04 #@! TO.P,J1,86,Pin_86*
G04 #@! TO.N,/CON.I{slash}O-*
X-23500000Y6200000D03*
G04 #@! TO.P,J1,87,Pin_87*
G04 #@! TO.N,GND*
X-22700001Y1800000D03*
G04 #@! TO.P,J1,88,Pin_88*
X-22700001Y6200000D03*
G04 #@! TO.P,J1,89,Pin_89*
G04 #@! TO.N,/CON.DB8+*
X-21900000Y1800000D03*
G04 #@! TO.P,J1,90,Pin_90*
G04 #@! TO.N,/CON.DB8-*
X-21900000Y6200000D03*
G04 #@! TO.P,J1,91,Pin_91*
G04 #@! TO.N,/CON.DB9+*
X-21100000Y1800000D03*
G04 #@! TO.P,J1,92,Pin_92*
G04 #@! TO.N,/CON.DB9-*
X-21100000Y6200000D03*
G04 #@! TO.P,J1,93,Pin_93*
G04 #@! TO.N,GND*
X-20299999Y1800000D03*
G04 #@! TO.P,J1,94,Pin_94*
X-20299999Y6200000D03*
G04 #@! TO.P,J1,95,Pin_95*
G04 #@! TO.N,/CON.DB10+*
X-19500000Y1800000D03*
G04 #@! TO.P,J1,96,Pin_96*
G04 #@! TO.N,/CON.DB10-*
X-19500000Y6200000D03*
G04 #@! TO.P,J1,97,Pin_97*
G04 #@! TO.N,/CON.DB11+*
X-18700000Y1800001D03*
G04 #@! TO.P,J1,98,Pin_98*
G04 #@! TO.N,/CON.DB11-*
X-18700000Y6199999D03*
G04 #@! TO.P,J1,99,Pin_99*
G04 #@! TO.N,GND*
X-17900000Y1800000D03*
G04 #@! TO.P,J1,100,Pin_100*
X-17900000Y6200000D03*
G04 #@! TD*
D13*
G04 #@! TO.P,R3,1*
G04 #@! TO.N,+3V3*
X-67200000Y10450000D03*
G04 #@! TO.P,R3,2*
G04 #@! TO.N,/PHY.ID_SCL*
X-67200000Y12150000D03*
G04 #@! TD*
D14*
G04 #@! TO.P,R2,1*
G04 #@! TO.N,+3V3*
X-67200000Y16450000D03*
G04 #@! TO.P,R2,2*
G04 #@! TO.N,/PHY.ID_SDA*
X-67200000Y14750000D03*
G04 #@! TD*
D13*
G04 #@! TO.P,C1,1*
G04 #@! TO.N,GND*
X-66050000Y3150000D03*
G04 #@! TO.P,C1,2*
G04 #@! TO.N,+3V3*
X-66050000Y4850000D03*
G04 #@! TD*
D15*
G04 #@! TO.P,J2,1,Pin_1*
G04 #@! TO.N,/CON.DB0+*
X-67980000Y25760000D03*
D16*
G04 #@! TO.P,J2,2,Pin_2*
G04 #@! TO.N,/CON.DB0-*
X-67980000Y28300000D03*
G04 #@! TO.P,J2,3,Pin_3*
G04 #@! TO.N,/CON.DB1+*
X-65440000Y25760000D03*
G04 #@! TO.P,J2,4,Pin_4*
G04 #@! TO.N,/CON.DB1-*
X-65440000Y28300000D03*
G04 #@! TO.P,J2,5,Pin_5*
G04 #@! TO.N,/CON.DB2+*
X-62900001Y25760000D03*
G04 #@! TO.P,J2,6,Pin_6*
G04 #@! TO.N,/CON.DB2-*
X-62900000Y28300000D03*
G04 #@! TO.P,J2,7,Pin_7*
G04 #@! TO.N,/CON.DB3+*
X-60360000Y25760000D03*
G04 #@! TO.P,J2,8,Pin_8*
G04 #@! TO.N,/CON.DB3-*
X-60360000Y28300000D03*
G04 #@! TO.P,J2,9,Pin_9*
G04 #@! TO.N,/CON.DB4+*
X-57820000Y25760000D03*
G04 #@! TO.P,J2,10,Pin_10*
G04 #@! TO.N,/CON.DB4-*
X-57820000Y28300000D03*
G04 #@! TO.P,J2,11,Pin_11*
G04 #@! TO.N,/CON.DB5+*
X-55280000Y25760000D03*
G04 #@! TO.P,J2,12,Pin_12*
G04 #@! TO.N,/CON.DB5-*
X-55280000Y28300000D03*
G04 #@! TO.P,J2,13,Pin_13*
G04 #@! TO.N,/CON.DB6+*
X-52740000Y25760000D03*
G04 #@! TO.P,J2,14,Pin_14*
G04 #@! TO.N,/CON.DB6-*
X-52740000Y28300000D03*
G04 #@! TO.P,J2,15,Pin_15*
G04 #@! TO.N,/CON.DB7+*
X-50199999Y25760000D03*
G04 #@! TO.P,J2,16,Pin_16*
G04 #@! TO.N,/CON.DB7-*
X-50200000Y28300000D03*
G04 #@! TO.P,J2,17,Pin_17*
G04 #@! TO.N,/CON.DP0+*
X-47660000Y25760000D03*
G04 #@! TO.P,J2,18,Pin_18*
G04 #@! TO.N,/CON.DP0-*
X-47660000Y28300000D03*
G04 #@! TO.P,J2,19,Pin_19*
G04 #@! TO.N,GND*
X-45120000Y25760000D03*
G04 #@! TO.P,J2,20,Pin_20*
X-45120000Y28300000D03*
G04 #@! TO.P,J2,21,Pin_21*
G04 #@! TO.N,/CON.DIFFSENSE*
X-42580000Y25760000D03*
G04 #@! TO.P,J2,22,Pin_22*
G04 #@! TO.N,GND*
X-42580000Y28300000D03*
G04 #@! TO.P,J2,23,Pin_23*
X-40040001Y25760000D03*
G04 #@! TO.P,J2,24,Pin_24*
X-40040000Y28300000D03*
G04 #@! TO.P,J2,25,Pin_25*
G04 #@! TO.N,unconnected-(J2-Pin_25-Pad25)*
X-37500000Y25760000D03*
G04 #@! TO.P,J2,26,Pin_26*
G04 #@! TO.N,/CON.TERMPWR*
X-37500000Y28300000D03*
G04 #@! TO.P,J2,27,Pin_27*
G04 #@! TO.N,GND*
X-34960000Y25760000D03*
G04 #@! TO.P,J2,28,Pin_28*
X-34960000Y28300000D03*
G04 #@! TO.P,J2,29,Pin_29*
X-32420000Y25760000D03*
G04 #@! TO.P,J2,30,Pin_30*
X-32420000Y28300000D03*
G04 #@! TO.P,J2,31,Pin_31*
G04 #@! TO.N,/CON.ATN+*
X-29880001Y25760000D03*
G04 #@! TO.P,J2,32,Pin_32*
G04 #@! TO.N,/CON.ATN-*
X-29880000Y28300000D03*
G04 #@! TO.P,J2,33,Pin_33*
G04 #@! TO.N,GND*
X-27339999Y25760000D03*
G04 #@! TO.P,J2,34,Pin_34*
X-27340000Y28300000D03*
G04 #@! TO.P,J2,35,Pin_35*
G04 #@! TO.N,/CON.BSY+*
X-24800000Y25760000D03*
G04 #@! TO.P,J2,36,Pin_36*
G04 #@! TO.N,/CON.BSY-*
X-24800000Y28300000D03*
G04 #@! TO.P,J2,37,Pin_37*
G04 #@! TO.N,/CON.ACK+*
X-22260000Y25760000D03*
G04 #@! TO.P,J2,38,Pin_38*
G04 #@! TO.N,/CON.ACK-*
X-22260000Y28300000D03*
G04 #@! TO.P,J2,39,Pin_39*
G04 #@! TO.N,/CON.RST+*
X-19720000Y25760000D03*
G04 #@! TO.P,J2,40,Pin_40*
G04 #@! TO.N,/CON.RST-*
X-19720000Y28300000D03*
G04 #@! TO.P,J2,41,Pin_41*
G04 #@! TO.N,/CON.MSG+*
X-17180001Y25760000D03*
G04 #@! TO.P,J2,42,Pin_42*
G04 #@! TO.N,/CON.MSG-*
X-17180000Y28300000D03*
G04 #@! TO.P,J2,43,Pin_43*
G04 #@! TO.N,/CON.SEL+*
X-14640000Y25760000D03*
G04 #@! TO.P,J2,44,Pin_44*
G04 #@! TO.N,/CON.SEL-*
X-14640000Y28300000D03*
G04 #@! TO.P,J2,45,Pin_45*
G04 #@! TO.N,/CON.C{slash}D+*
X-12100000Y25760000D03*
G04 #@! TO.P,J2,46,Pin_46*
G04 #@! TO.N,/CON.C{slash}D-*
X-12100000Y28300000D03*
G04 #@! TO.P,J2,47,Pin_47*
G04 #@! TO.N,/CON.REQ+*
X-9560000Y25760000D03*
G04 #@! TO.P,J2,48,Pin_48*
G04 #@! TO.N,/CON.REQ-*
X-9560000Y28300000D03*
G04 #@! TO.P,J2,49,Pin_49*
G04 #@! TO.N,/CON.I{slash}O+*
X-7020001Y25760000D03*
G04 #@! TO.P,J2,50,Pin_50*
G04 #@! TO.N,/CON.I{slash}O-*
X-7020000Y28300000D03*
G04 #@! TD*
D17*
G04 #@! TO.P,H4,1,1*
G04 #@! TO.N,GND*
X-4000000Y4000000D03*
G04 #@! TD*
D13*
G04 #@! TO.P,R1,1*
G04 #@! TO.N,Net-(U1-E0)*
X-62150000Y3150000D03*
G04 #@! TO.P,R1,2*
G04 #@! TO.N,+3V3*
X-62150000Y4850000D03*
G04 #@! TD*
D18*
G04 #@! TO.P,U1,1,E0*
G04 #@! TO.N,Net-(U1-E0)*
X-64850001Y2600000D03*
G04 #@! TO.P,U1,2,E1*
X-64350000Y2600000D03*
G04 #@! TO.P,U1,3,E2*
G04 #@! TO.N,GND*
X-63850000Y2600000D03*
G04 #@! TO.P,U1,4,VSS*
X-63349999Y2600000D03*
G04 #@! TO.P,U1,5,SDA*
G04 #@! TO.N,/PHY.ID_SDA*
X-63349999Y5400000D03*
G04 #@! TO.P,U1,6,SCL*
G04 #@! TO.N,/PHY.ID_SCL*
X-63850000Y5400000D03*
G04 #@! TO.P,U1,7,~{WC}*
G04 #@! TO.N,GND*
X-64350000Y5400000D03*
G04 #@! TO.P,U1,8,VCC*
G04 #@! TO.N,+3V3*
X-64850001Y5400000D03*
D19*
G04 #@! TO.P,U1,EP,VSS*
G04 #@! TO.N,GND*
X-64100000Y4000000D03*
G04 #@! TD*
D20*
G04 #@! TO.P,J3,1,Pin_1*
G04 #@! TO.N,+3V3*
X-72440000Y16010000D03*
G04 #@! TO.P,J3,2,Pin_2*
G04 #@! TO.N,/PHY.ID_SDA*
X-69900000Y14740000D03*
G04 #@! TO.P,J3,3,Pin_3*
G04 #@! TO.N,GND*
X-72440000Y13470000D03*
G04 #@! TO.P,J3,4,Pin_4*
G04 #@! TO.N,/PHY.ID_SCL*
X-69900000Y12200000D03*
G04 #@! TD*
D17*
G04 #@! TO.P,H3,1,1*
G04 #@! TO.N,GND*
X-71000000Y4000000D03*
G04 #@! TD*
D21*
G04 #@! TO.N,GND*
X-20300000Y5400000D03*
X-22700000Y1800000D03*
X-49100000Y1800000D03*
X-53900000Y1000000D03*
X-29900000Y2600000D03*
X-22700000Y3200000D03*
X-39500000Y6200000D03*
X-25100000Y3200000D03*
X-20300000Y3200000D03*
X-39500000Y1800000D03*
X-44300000Y7000000D03*
X-49100000Y6200000D03*
X-64650000Y4000000D03*
X-46700000Y6200000D03*
X-51500000Y2600000D03*
X-27500000Y2600000D03*
X-39500000Y7000000D03*
X-32300000Y1800000D03*
X-53900000Y5400000D03*
X-20300000Y1800000D03*
X-41900000Y3200000D03*
X-44300000Y3200000D03*
X-53900000Y2600000D03*
X-37100000Y5400000D03*
X-63600000Y4000000D03*
X-25100000Y7000000D03*
X-39500000Y5400000D03*
X-33900000Y1000000D03*
X-41900000Y1000000D03*
X-64100000Y4500000D03*
X-33900000Y2600000D03*
X-49100000Y2600000D03*
X-33900000Y6200000D03*
X-54700000Y3200000D03*
X-51500000Y5400000D03*
X-33900000Y3200000D03*
X-32300000Y3200000D03*
X-44300000Y6200000D03*
X-27500000Y6200000D03*
X-39500000Y1000000D03*
X-37100000Y3200000D03*
X-25100000Y1800000D03*
X-41900000Y7000000D03*
X-53900000Y7000000D03*
X-41900000Y6200000D03*
X-51500000Y3200000D03*
X-27500000Y5400000D03*
X-54700000Y6200000D03*
X-29900000Y1000000D03*
X-20300000Y1000000D03*
X-53900000Y1800000D03*
X-51500000Y6200000D03*
X-20300000Y2600000D03*
X-22700000Y1000000D03*
X-44300000Y5400000D03*
X-33900000Y1800000D03*
X-32300000Y5400000D03*
X-20300000Y6200000D03*
X-49100000Y3200000D03*
X-37100000Y6200000D03*
X-25100000Y2600000D03*
X-46700000Y3200000D03*
X-37100000Y7000000D03*
X-39500000Y2600000D03*
X-25100000Y6200000D03*
X-33900000Y7000000D03*
X-51500000Y7000000D03*
X-54700000Y7000000D03*
X-29900000Y7000000D03*
X-44300000Y1800000D03*
X-22700000Y2600000D03*
X-17900000Y5400000D03*
X-41900000Y2600000D03*
X-17900000Y7000000D03*
X-44300000Y1000000D03*
X-32300000Y7000000D03*
X-29900000Y3200000D03*
X-51500000Y1800000D03*
X-54700000Y5400000D03*
X-22700000Y6200000D03*
X-57100000Y5400000D03*
X-37100000Y1800000D03*
X-46700000Y1000000D03*
X-25100000Y1000000D03*
X-32300000Y2600000D03*
X-44300000Y2600000D03*
X-46700000Y5400000D03*
X-54700000Y1800000D03*
X-22700000Y7000000D03*
X-46700000Y2600000D03*
X-37100000Y1000000D03*
X-39500000Y3200000D03*
X-37100000Y2600000D03*
X-51500000Y1000000D03*
X-17900000Y1000000D03*
X-20300000Y7000000D03*
X-57100000Y6200000D03*
X-32300000Y1000000D03*
X-33900000Y5400000D03*
X-46700000Y1800000D03*
X-29900000Y5400000D03*
X-27500000Y1800000D03*
X-41900000Y1800000D03*
X-53900000Y6200000D03*
X-41900000Y5400000D03*
X-29900000Y6200000D03*
X-49100000Y5400000D03*
X-17900000Y3200000D03*
X-54700000Y2600000D03*
X-49100000Y7000000D03*
X-49100000Y1000000D03*
X-27500000Y3200000D03*
X-46700000Y7000000D03*
X-29900000Y1800000D03*
X-25100000Y5400000D03*
X-64100000Y3500000D03*
X-32300000Y6200000D03*
X-17900000Y6200000D03*
X-27500000Y1000000D03*
X-57100000Y7000000D03*
X-22700000Y5400000D03*
X-17900000Y2600000D03*
X-54700000Y1000000D03*
X-17900000Y1800000D03*
X-27500000Y7000000D03*
X-66050000Y3150000D03*
X-53900000Y3200000D03*
G04 #@! TO.N,/PHY.ID_SCL*
X-67200000Y12150000D03*
X-63000000Y8500000D03*
G04 #@! TO.N,+3V3*
X-56300000Y1800000D03*
X-67200000Y16500000D03*
X-67200000Y10500000D03*
X-66050000Y4850000D03*
X-56300000Y1000000D03*
X-56300000Y2600000D03*
X-62150000Y4850000D03*
G04 #@! TO.N,/PHY.ID_SDA*
X-67200000Y14750000D03*
X-62400000Y7900000D03*
G04 #@! TO.N,/CON.C{slash}D+*
X-25900000Y3200000D03*
G04 #@! TO.N,/CON.ACK+*
X-30700000Y3200000D03*
G04 #@! TO.N,/CON.TERMPWR*
X-34700000Y2600000D03*
X-35500000Y7000000D03*
X-35500000Y1000000D03*
X-34700000Y5400000D03*
X-34700000Y6200000D03*
X-34700000Y1000000D03*
X-35500000Y5400000D03*
X-35500000Y6200000D03*
X-35500000Y2600000D03*
X-34700000Y1800000D03*
X-34700000Y7000000D03*
X-35500000Y1800000D03*
G04 #@! TO.N,/CON.BSY+*
X-31500000Y3200000D03*
G04 #@! TO.N,/CON.DB5+*
X-41100000Y3200000D03*
G04 #@! TO.N,/CON.DP0+*
X-37900000Y3200000D03*
G04 #@! TO.N,/CON.SEL+*
X-26700000Y3200000D03*
G04 #@! TO.N,/CON.ATN+*
X-33100000Y3200000D03*
G04 #@! TO.N,/CON.DB7+*
X-38700000Y3200000D03*
G04 #@! TO.N,/CON.REQ+*
X-24300000Y3200000D03*
G04 #@! TO.N,/CON.MSG+*
X-28300000Y3200000D03*
G04 #@! TO.N,/CON.DB3+*
X-43500000Y3200000D03*
G04 #@! TO.N,/CON.DIFFSENSE*
X-36300000Y3200000D03*
G04 #@! TO.N,/CON.I{slash}O+*
X-23500000Y3200000D03*
G04 #@! TO.N,/CON.DB4+*
X-42700000Y3200000D03*
G04 #@! TO.N,/CON.RST+*
X-29100000Y3200000D03*
G04 #@! TO.N,/CON.DB6+*
X-40300000Y3200000D03*
G04 #@! TO.N,/CON.DB1+*
X-45900000Y3200000D03*
G04 #@! TO.N,/CON.DB2+*
X-45100000Y3200000D03*
G04 #@! TO.N,/CON.DB0+*
X-47500000Y3200000D03*
G04 #@! TD*
D22*
G04 #@! TO.N,/PHY.ID_SCL*
X-67600000Y12200000D02*
X-69900000Y12200000D01*
X-63850000Y5400000D02*
X-63850000Y7650000D01*
X-56500000Y8500000D02*
X-55500000Y7500000D01*
X-67200000Y12150000D02*
X-67550000Y12150000D01*
X-63000000Y8500000D02*
X-56500000Y8500000D01*
X-67550000Y12150000D02*
X-67600000Y12200000D01*
X-63850000Y7650000D02*
X-63000000Y8500000D01*
X-55500000Y7500000D02*
X-55500000Y6200000D01*
D23*
G04 #@! TO.N,+3V3*
X-64850001Y5400000D02*
X-65500000Y5400000D01*
X-65500000Y5400000D02*
X-66050000Y4850000D01*
D22*
G04 #@! TO.N,/PHY.ID_SDA*
X-62900000Y7900000D02*
X-63349999Y7450001D01*
X-56300000Y7500000D02*
X-56700000Y7900000D01*
X-63349999Y7450001D02*
X-63349999Y5400000D01*
X-67200000Y14750000D02*
X-69890000Y14750000D01*
X-62600000Y7900000D02*
X-62900000Y7900000D01*
X-69890000Y14750000D02*
X-69900000Y14740000D01*
X-56300000Y6199999D02*
X-56300000Y7500000D01*
X-56700000Y7900000D02*
X-62600000Y7900000D01*
D24*
G04 #@! TO.N,/CON.C{slash}D+*
X-25900000Y1800000D02*
X-25900000Y3200000D01*
G04 #@! TO.N,/CON.DB4-*
X-56550000Y27030000D02*
X-57820000Y28300000D01*
X-45492057Y14981056D02*
X-45576910Y15065909D01*
X-42700000Y6200000D02*
X-42700000Y11350000D01*
X-44044787Y12694786D02*
X-44044784Y12694784D01*
X-42700000Y11350000D02*
X-43450812Y12100812D01*
X-45143135Y13293502D02*
X-44893318Y13543318D01*
X-44044784Y12694784D02*
X-43794990Y12944579D01*
X-44219256Y13368845D02*
X-44469051Y13119051D01*
X-45317584Y13967584D02*
X-45317583Y13967583D01*
X-56550000Y25200000D02*
X-56550000Y27030000D01*
X-45741850Y14391850D02*
X-45572145Y14561556D01*
X-45572145Y14561556D02*
X-45492057Y14641644D01*
X-55744562Y24394562D02*
X-56550000Y25200000D01*
X-44214492Y12525081D02*
X-44044787Y12694786D01*
X-45916322Y15065909D02*
X-45996411Y14985821D01*
X-45317583Y13967583D02*
X-45567360Y13717809D01*
X-43790224Y12100812D02*
X-43870315Y12020724D01*
X-46420673Y15070673D02*
X-55744562Y24394562D01*
X-44893318Y13543318D02*
X-44893317Y13543317D01*
X-45906770Y13717808D02*
X-45991626Y13802664D01*
X-43794990Y13283990D02*
X-43879845Y13368845D01*
X-44294580Y12444990D02*
X-44214492Y12525081D01*
X-45067760Y14217407D02*
X-45317584Y13967584D01*
X-44643494Y14132552D02*
X-44728349Y14217407D01*
X-46335822Y14985821D02*
X-46420673Y15070673D01*
X-44469051Y13119051D02*
X-44469050Y13119050D01*
X-45991627Y14142076D02*
X-45741851Y14391851D01*
X-45058278Y12869234D02*
X-45143134Y12954090D01*
X-45741851Y14391851D02*
X-45741850Y14391850D01*
X-44469050Y13119050D02*
X-44718868Y12869235D01*
X-44893317Y13543317D02*
X-44643494Y13793141D01*
X-44209725Y12020723D02*
X-44294580Y12105578D01*
X-44643494Y13793141D02*
G75*
G03*
X-44643540Y14132505I-169706J169659D01*
G01*
X-44718868Y12869235D02*
G75*
G02*
X-45058305Y12869207I-169732J169665D01*
G01*
X-45991626Y13802664D02*
G75*
G02*
X-45991657Y14142105I169726J169736D01*
G01*
X-45996411Y14985821D02*
G75*
G02*
X-46335821Y14985821I-169705J169703D01*
G01*
X-45492057Y14641644D02*
G75*
G03*
X-45492107Y14981006I-169743J169656D01*
G01*
X-45567360Y13717809D02*
G75*
G02*
X-45906804Y13717773I-169740J169691D01*
G01*
X-43794990Y12944579D02*
G75*
G03*
X-43794974Y13284005I-169710J169721D01*
G01*
X-43450812Y12100812D02*
G75*
G03*
X-43790224Y12100812I-169706J-169701D01*
G01*
X-43870315Y12020724D02*
G75*
G02*
X-44209704Y12020743I-169685J169676D01*
G01*
X-44294580Y12105578D02*
G75*
G02*
X-44294596Y12445006I169680J169722D01*
G01*
X-45143134Y12954090D02*
G75*
G02*
X-45143138Y13293505I169734J169710D01*
G01*
X-44728349Y14217407D02*
G75*
G03*
X-45067761Y14217408I-169706J-169703D01*
G01*
X-45576910Y15065909D02*
G75*
G03*
X-45916322Y15065909I-169706J-169704D01*
G01*
X-43879845Y13368845D02*
G75*
G03*
X-44219255Y13368845I-169705J-169703D01*
G01*
G04 #@! TO.N,/CON.ACK+*
X-30700000Y1800000D02*
X-30700000Y3200000D01*
G04 #@! TO.N,/CON.BSY-*
X-31500000Y6200000D02*
X-31500000Y8016707D01*
X-31500000Y15096707D02*
X-31500000Y15216707D01*
X-31847897Y12456707D02*
X-31740000Y12456707D01*
X-32087897Y14496707D02*
X-32087897Y14616707D01*
X-26846741Y24403259D02*
X-26100000Y25150000D01*
X-31740000Y10656707D02*
X-31847897Y10656707D01*
X-26100000Y27000000D02*
X-24800000Y28300000D01*
X-31740000Y9456707D02*
X-31847897Y9456707D01*
X-31500000Y13896707D02*
X-31500000Y14016707D01*
X-31740000Y14256707D02*
X-31847897Y14256707D01*
X-31499999Y20089412D02*
X-31576288Y20165701D01*
X-32087897Y18096707D02*
X-32087897Y18216707D01*
X-31740000Y17856707D02*
X-31847897Y17856707D01*
X-32087897Y9696707D02*
X-32087897Y9816707D01*
X-31740000Y16656707D02*
X-31847897Y16656707D01*
X-32087897Y8496707D02*
X-32087897Y8616707D01*
X-31152023Y20589966D02*
X-31075733Y20513676D01*
X-30651470Y20598529D02*
X-30651470Y20598530D01*
X-31740000Y15456707D02*
X-31847897Y15456707D01*
X-31847897Y8856707D02*
X-31740000Y8856707D01*
X-31500000Y12696707D02*
X-31500000Y12816707D01*
X-30651469Y20937942D02*
X-30727763Y21014236D01*
X-31847897Y17256707D02*
X-31740000Y17256707D01*
X-30727764Y21353646D02*
X-30642909Y21438500D01*
X-32087897Y12096707D02*
X-32087897Y12216707D01*
X-32087897Y10896707D02*
X-32087897Y11016707D01*
X-31740000Y11856707D02*
X-31847897Y11856707D01*
X-31500000Y18696707D02*
X-31500000Y18816707D01*
X-31847897Y10056707D02*
X-31740000Y10056707D01*
X-29039262Y22210735D02*
X-28954410Y22295589D01*
X-31500000Y18816707D02*
X-31500000Y19466707D01*
X-31847897Y11256707D02*
X-31740000Y11256707D01*
X-30736321Y20513676D02*
X-30651470Y20598529D01*
X-31500000Y9096707D02*
X-31500000Y9216707D01*
X-30303499Y21438499D02*
X-30227204Y21362204D01*
X-31740000Y8256707D02*
X-31847897Y8256707D01*
X-29454969Y22287029D02*
X-29378674Y22210734D01*
X-32087897Y16896707D02*
X-32087897Y17016707D01*
X-29887792Y21362205D02*
X-29802940Y21447059D01*
X-31500000Y19466707D02*
X-31500000Y19750000D01*
X-31847897Y18456707D02*
X-31740000Y18456707D01*
X-31500000Y11496707D02*
X-31500000Y11616707D01*
X-26100000Y25150000D02*
X-26100000Y27000000D01*
X-28954410Y22295589D02*
X-26846741Y24403259D01*
X-29879234Y22202176D02*
X-29794379Y22287030D01*
X-31500000Y10296707D02*
X-31500000Y10416707D01*
X-29802939Y21786472D02*
X-29879233Y21862766D01*
X-29802940Y21447059D02*
X-29802940Y21447060D01*
X-31740000Y13056707D02*
X-31847897Y13056707D01*
X-31847897Y16056707D02*
X-31740000Y16056707D01*
X-32087897Y13296707D02*
X-32087897Y13416707D01*
X-31576288Y20505113D02*
X-31491435Y20589965D01*
X-31847897Y14856707D02*
X-31740000Y14856707D01*
X-31847897Y13656707D02*
X-31740000Y13656707D01*
X-31500000Y16296707D02*
X-31500000Y16416707D01*
X-32087897Y15696707D02*
X-32087897Y15816707D01*
X-31500000Y17496707D02*
X-31500000Y17616707D01*
X-31847897Y17856707D02*
G75*
G02*
X-32087893Y18096707I-3J239993D01*
G01*
X-31847897Y15456707D02*
G75*
G02*
X-32087893Y15696707I-3J239993D01*
G01*
X-31847897Y9456707D02*
G75*
G02*
X-32087893Y9696707I-3J239993D01*
G01*
X-31740000Y10056707D02*
G75*
G03*
X-31500007Y10296707I0J239993D01*
G01*
X-31500000Y16416707D02*
G75*
G03*
X-31740000Y16656700I-240000J-7D01*
G01*
X-31847897Y13056707D02*
G75*
G02*
X-32087893Y13296707I-3J239993D01*
G01*
X-31740000Y13656707D02*
G75*
G03*
X-31500007Y13896707I0J239993D01*
G01*
X-31500000Y8016707D02*
G75*
G03*
X-31740000Y8256700I-240000J-7D01*
G01*
X-30651470Y20598530D02*
G75*
G03*
X-30651505Y20937906I-169730J169670D01*
G01*
X-31576288Y20165701D02*
G75*
G02*
X-31576281Y20505106I169688J169699D01*
G01*
X-31847897Y16656707D02*
G75*
G02*
X-32087893Y16896707I-3J239993D01*
G01*
X-31740000Y18456707D02*
G75*
G03*
X-31500007Y18696707I0J239993D01*
G01*
X-30227204Y21362204D02*
G75*
G03*
X-29887794Y21362207I169704J169696D01*
G01*
X-31500000Y9216707D02*
G75*
G03*
X-31740000Y9456700I-240000J-7D01*
G01*
X-29879233Y21862766D02*
G75*
G02*
X-29879263Y22202204I169733J169734D01*
G01*
X-32087897Y9816707D02*
G75*
G02*
X-31847897Y10056697I239997J-7D01*
G01*
X-31500000Y17616707D02*
G75*
G03*
X-31740000Y17856700I-240000J-7D01*
G01*
X-31500000Y15216707D02*
G75*
G03*
X-31740000Y15456700I-240000J-7D01*
G01*
X-29378674Y22210734D02*
G75*
G03*
X-29039294Y22210766I169674J169666D01*
G01*
X-31847897Y10656707D02*
G75*
G02*
X-32087893Y10896707I-3J239993D01*
G01*
X-31740000Y14856707D02*
G75*
G03*
X-31500007Y15096707I0J239993D01*
G01*
X-31491435Y20589965D02*
G75*
G02*
X-31151994Y20589995I169735J-169665D01*
G01*
X-32087897Y14616707D02*
G75*
G02*
X-31847897Y14856697I239997J-7D01*
G01*
X-32087897Y8616707D02*
G75*
G02*
X-31847897Y8856697I239997J-7D01*
G01*
X-31847897Y14256707D02*
G75*
G02*
X-32087893Y14496707I-3J239993D01*
G01*
X-31500000Y14016707D02*
G75*
G03*
X-31740000Y14256700I-240000J-7D01*
G01*
X-32087897Y11016707D02*
G75*
G02*
X-31847897Y11256697I239997J-7D01*
G01*
X-31500000Y19750000D02*
G75*
G03*
X-31500005Y20089405I-169700J169700D01*
G01*
X-32087897Y18216707D02*
G75*
G02*
X-31847897Y18456697I239997J-7D01*
G01*
X-31500000Y12816707D02*
G75*
G03*
X-31740000Y13056700I-240000J-7D01*
G01*
X-31740000Y16056707D02*
G75*
G03*
X-31500007Y16296707I0J239993D01*
G01*
X-30727763Y21014236D02*
G75*
G02*
X-30727723Y21353604I169663J169664D01*
G01*
X-29794379Y22287030D02*
G75*
G02*
X-29454994Y22287004I169679J-169730D01*
G01*
X-31740000Y17256707D02*
G75*
G03*
X-31500007Y17496707I0J239993D01*
G01*
X-32087897Y13416707D02*
G75*
G02*
X-31847897Y13656697I239997J-7D01*
G01*
X-32087897Y17016707D02*
G75*
G02*
X-31847897Y17256697I239997J-7D01*
G01*
X-30642909Y21438500D02*
G75*
G02*
X-30303494Y21438504I169709J-169700D01*
G01*
X-29802940Y21447060D02*
G75*
G03*
X-29802905Y21786506I-169660J169740D01*
G01*
X-31847897Y11856707D02*
G75*
G02*
X-32087893Y12096707I-3J239993D01*
G01*
X-31847897Y8256707D02*
G75*
G02*
X-32087893Y8496707I-3J239993D01*
G01*
X-31740000Y8856707D02*
G75*
G03*
X-31500007Y9096707I0J239993D01*
G01*
X-32087897Y12216707D02*
G75*
G02*
X-31847897Y12456697I239997J-7D01*
G01*
X-31500000Y11616707D02*
G75*
G03*
X-31740000Y11856700I-240000J-7D01*
G01*
X-32087897Y15816707D02*
G75*
G02*
X-31847897Y16056697I239997J-7D01*
G01*
X-31075733Y20513676D02*
G75*
G03*
X-30736321Y20513676I169706J169701D01*
G01*
X-31740000Y12456707D02*
G75*
G03*
X-31500007Y12696707I0J239993D01*
G01*
X-31500000Y10416707D02*
G75*
G03*
X-31740000Y10656700I-240000J-7D01*
G01*
X-31740000Y11256707D02*
G75*
G03*
X-31500007Y11496707I0J239993D01*
G01*
G04 #@! TO.N,/CON.RST-*
X-28281268Y18338446D02*
X-28216115Y18273293D01*
X-21000000Y25150000D02*
X-21000000Y27020000D01*
X-29100000Y11523180D02*
X-29100000Y11643180D01*
X-29340000Y14283180D02*
X-29432139Y14283180D01*
X-29432139Y14883180D02*
X-29340000Y14883180D01*
X-29340000Y10683180D02*
X-29432126Y10683180D01*
X-26094790Y20394621D02*
X-26159942Y20459773D01*
X-21718319Y24431681D02*
X-21000000Y25150000D01*
X-29100000Y15123180D02*
X-29100000Y15243180D01*
X-26943321Y19206678D02*
X-26943321Y19206679D01*
X-29432139Y16083180D02*
X-29340000Y16083180D01*
X-29340000Y13083180D02*
X-29432139Y13083180D01*
X-29100000Y12723180D02*
X-29100000Y12843180D01*
X-29432139Y13683180D02*
X-29340000Y13683180D01*
X-29340000Y8283180D02*
X-29432126Y8283180D01*
X-27432719Y19186957D02*
X-27367585Y19121823D01*
X-26159943Y20799183D02*
X-26075088Y20884037D01*
X-27008462Y19950645D02*
X-26923609Y20035497D01*
X-29672126Y12123180D02*
X-29672126Y12243180D01*
X-29432126Y11283180D02*
X-29340000Y11283180D01*
X-29672139Y13323180D02*
X-29672139Y13443180D01*
X-29672126Y9723180D02*
X-29672126Y9843180D01*
X-29100000Y13923180D02*
X-29100000Y14043180D01*
X-26584197Y20035498D02*
X-26519054Y19970355D01*
X-27791851Y18358148D02*
X-27791851Y18358149D01*
X-26179642Y19970355D02*
X-26094791Y20055208D01*
X-29100000Y16443180D02*
X-29100000Y17050000D01*
X-25331113Y20818884D02*
X-25246261Y20903738D01*
X-25735678Y20884036D02*
X-25670525Y20818883D01*
X-29672126Y8523180D02*
X-29672126Y8643180D01*
X-26943320Y19546091D02*
X-27008462Y19611233D01*
X-29100000Y9123180D02*
X-29100000Y9243180D01*
X-28705533Y18253593D02*
X-28620678Y18338447D01*
X-29100000Y16323180D02*
X-29100000Y16443180D01*
X-29100000Y6200000D02*
X-29100000Y8043180D01*
X-27876703Y18273294D02*
X-27791851Y18358148D01*
X-29100000Y10323180D02*
X-29100000Y10443180D01*
X-26094791Y20055208D02*
X-26094791Y20055209D01*
X-21000000Y27020000D02*
X-19720000Y28300000D01*
X-25246261Y20903738D02*
X-21718319Y24431681D01*
X-29672126Y10923180D02*
X-29672126Y11043180D01*
X-27028173Y19121824D02*
X-26943321Y19206678D01*
X-27791850Y18697561D02*
X-27856983Y18762694D01*
X-29672139Y14523180D02*
X-29672139Y14643180D01*
X-28640380Y17849031D02*
X-28705532Y17914183D01*
X-29432126Y8883180D02*
X-29340000Y8883180D01*
X-29340000Y15483180D02*
X-29432139Y15483180D01*
X-29340000Y11883180D02*
X-29432126Y11883180D01*
X-29100000Y17050000D02*
X-28640381Y17509619D01*
X-27856984Y19102104D02*
X-27772129Y19186958D01*
X-29432126Y10083180D02*
X-29340000Y10083180D01*
X-29432126Y12483180D02*
X-29340000Y12483180D01*
X-29340000Y9483180D02*
X-29432126Y9483180D01*
X-29672139Y15723180D02*
X-29672139Y15843180D01*
X-29100000Y9243180D02*
G75*
G03*
X-29340000Y9483200I-240000J20D01*
G01*
X-27856983Y18762694D02*
G75*
G02*
X-27856985Y19102105I169683J169706D01*
G01*
X-29672126Y12243180D02*
G75*
G02*
X-29432126Y12483226I240026J20D01*
G01*
X-29432139Y14283180D02*
G75*
G02*
X-29672120Y14523180I39J240020D01*
G01*
X-29432126Y10683180D02*
G75*
G02*
X-29672120Y10923180I26J240020D01*
G01*
X-28620678Y18338447D02*
G75*
G02*
X-28281294Y18338420I169678J-169747D01*
G01*
X-29340000Y10083180D02*
G75*
G03*
X-29099980Y10323180I0J240020D01*
G01*
X-29340000Y8883180D02*
G75*
G03*
X-29099980Y9123180I0J240020D01*
G01*
X-29100000Y12843180D02*
G75*
G03*
X-29340000Y13083200I-240000J20D01*
G01*
X-29340000Y16083180D02*
G75*
G03*
X-29099980Y16323180I0J240020D01*
G01*
X-29672139Y14643180D02*
G75*
G02*
X-29432139Y14883239I240039J20D01*
G01*
X-29672139Y15843180D02*
G75*
G02*
X-29432139Y16083239I240039J20D01*
G01*
X-29340000Y11283180D02*
G75*
G03*
X-29099980Y11523180I0J240020D01*
G01*
X-29432139Y13083180D02*
G75*
G02*
X-29672120Y13323180I39J240020D01*
G01*
X-29672126Y9843180D02*
G75*
G02*
X-29432126Y10083226I240026J20D01*
G01*
X-29432126Y9483180D02*
G75*
G02*
X-29672120Y9723180I26J240020D01*
G01*
X-29340000Y13683180D02*
G75*
G03*
X-29099980Y13923180I0J240020D01*
G01*
X-29672126Y8643180D02*
G75*
G02*
X-29432126Y8883226I240026J20D01*
G01*
X-29672139Y13443180D02*
G75*
G02*
X-29432139Y13683239I240039J20D01*
G01*
X-26943321Y19206679D02*
G75*
G03*
X-26943305Y19546106I-169679J169721D01*
G01*
X-26075088Y20884037D02*
G75*
G02*
X-25735694Y20884020I169688J-169737D01*
G01*
X-26094791Y20055209D02*
G75*
G03*
X-26094805Y20394605I-169709J169691D01*
G01*
X-25670525Y20818883D02*
G75*
G03*
X-25331094Y20818864I169725J169717D01*
G01*
X-27367585Y19121823D02*
G75*
G03*
X-27028194Y19121844I169685J169677D01*
G01*
X-29100000Y8043180D02*
G75*
G03*
X-29340000Y8283200I-240000J20D01*
G01*
X-29432139Y15483180D02*
G75*
G02*
X-29672120Y15723180I39J240020D01*
G01*
X-29340000Y14883180D02*
G75*
G03*
X-29099980Y15123180I0J240020D01*
G01*
X-29100000Y11643180D02*
G75*
G03*
X-29340000Y11883200I-240000J20D01*
G01*
X-28216115Y18273293D02*
G75*
G03*
X-27876694Y18273284I169715J169707D01*
G01*
X-28705532Y17914183D02*
G75*
G02*
X-28705545Y18253604I169732J169717D01*
G01*
X-29100000Y14043180D02*
G75*
G03*
X-29340000Y14283200I-240000J20D01*
G01*
X-26519054Y19970355D02*
G75*
G03*
X-26179642Y19970355I169706J169701D01*
G01*
X-27772129Y19186958D02*
G75*
G02*
X-27432694Y19186982I169729J-169658D01*
G01*
X-27008462Y19611233D02*
G75*
G02*
X-27008423Y19950606I169662J169667D01*
G01*
X-29432126Y8283180D02*
G75*
G02*
X-29672120Y8523180I26J240020D01*
G01*
X-27791851Y18358149D02*
G75*
G03*
X-27791805Y18697605I-169749J169751D01*
G01*
X-29100000Y15243180D02*
G75*
G03*
X-29340000Y15483200I-240000J20D01*
G01*
X-26923609Y20035497D02*
G75*
G02*
X-26584194Y20035501I169709J-169697D01*
G01*
X-26159942Y20459773D02*
G75*
G02*
X-26159965Y20799204I169742J169727D01*
G01*
X-29672126Y11043180D02*
G75*
G02*
X-29432126Y11283226I240026J20D01*
G01*
X-29100000Y10443180D02*
G75*
G03*
X-29340000Y10683200I-240000J20D01*
G01*
X-28640381Y17509619D02*
G75*
G03*
X-28640405Y17849006I-169719J169681D01*
G01*
X-29432126Y11883180D02*
G75*
G02*
X-29672120Y12123180I26J240020D01*
G01*
X-29340000Y12483180D02*
G75*
G03*
X-29099980Y12723180I0J240020D01*
G01*
G04 #@! TO.N,/CON.DB2-*
X-47555875Y11876560D02*
X-47640730Y11961415D01*
X-60908370Y24408370D02*
X-61650000Y25150000D01*
X-47966219Y11126808D02*
X-47796514Y11296513D01*
X-61650000Y25150000D02*
X-61650000Y27050000D01*
X-47796514Y11296513D02*
X-47796511Y11296511D01*
X-48828674Y12809948D02*
X-49069311Y12569312D01*
X-49069310Y12569310D02*
X-49239017Y12399606D01*
X-45100000Y8600000D02*
X-47202539Y10702539D01*
X-49734194Y12752959D02*
X-49663281Y12823871D01*
X-48220777Y11720777D02*
X-48461415Y11480142D01*
X-48885682Y11904408D02*
X-48645047Y12145046D01*
X-48645047Y12145046D02*
X-48645044Y12145044D01*
X-48645044Y12145044D02*
X-48404408Y12385681D01*
X-47952275Y10631627D02*
X-48037130Y10716482D01*
X-47541951Y10702539D02*
X-47612865Y10631628D01*
X-48404408Y12725093D02*
X-48489263Y12809948D01*
X-45100000Y6199999D02*
X-45100000Y8600000D01*
X-49239017Y12399606D02*
X-49309929Y12328694D01*
X-48800827Y11480142D02*
X-48885683Y11564998D01*
X-49069311Y12569312D02*
X-49069310Y12569310D01*
X-48037130Y11055894D02*
X-47966219Y11126808D01*
X-48220778Y11720779D02*
X-48220777Y11720777D01*
X-47980141Y11961415D02*
X-48220778Y11720779D01*
X-49649341Y12328694D02*
X-49734194Y12413547D01*
X-61650000Y27050000D02*
X-62900000Y28300000D01*
X-49663282Y13163283D02*
X-49748133Y13248133D01*
X-47796511Y11296511D02*
X-47555875Y11537148D01*
X-49748133Y13248133D02*
X-60908370Y24408370D01*
X-48489263Y12809948D02*
G75*
G03*
X-48828673Y12809948I-169705J-169703D01*
G01*
X-48404408Y12385681D02*
G75*
G03*
X-48404395Y12725106I-169692J169719D01*
G01*
X-48461415Y11480142D02*
G75*
G02*
X-48800827Y11480142I-169706J169701D01*
G01*
X-47555875Y11537148D02*
G75*
G03*
X-47555829Y11876606I-169725J169752D01*
G01*
X-47612865Y10631628D02*
G75*
G02*
X-47952305Y10631597I-169735J169672D01*
G01*
X-49734194Y12413547D02*
G75*
G02*
X-49734241Y12753006I169694J169753D01*
G01*
X-47202539Y10702539D02*
G75*
G03*
X-47541951Y10702539I-169706J-169701D01*
G01*
X-49663281Y12823871D02*
G75*
G03*
X-49663258Y13163306I-169719J169729D01*
G01*
X-49309929Y12328694D02*
G75*
G02*
X-49649341Y12328694I-169706J169701D01*
G01*
X-48885683Y11564998D02*
G75*
G02*
X-48885679Y11904405I169683J169702D01*
G01*
X-48037130Y10716482D02*
G75*
G02*
X-48037142Y11055906I169730J169718D01*
G01*
X-47640730Y11961415D02*
G75*
G03*
X-47980140Y11961415I-169705J-169703D01*
G01*
G04 #@! TO.N,/CON.BSY+*
X-31500000Y1800000D02*
X-31500000Y3200000D01*
G04 #@! TO.N,/CON.DB5+*
X-41099999Y3199999D02*
X-41100000Y3200000D01*
X-41099999Y1800000D02*
X-41099999Y3199999D01*
G04 #@! TO.N,/CON.ATN-*
X-33100000Y15172570D02*
X-33100000Y23200000D01*
X-31150000Y27030000D02*
X-29880000Y28300000D01*
X-32505550Y9052570D02*
X-32505550Y9172570D01*
X-33100000Y11212570D02*
X-32745550Y11212570D01*
X-33100000Y23200000D02*
X-31898877Y24401123D01*
X-33694450Y9652570D02*
X-33694450Y9772570D01*
X-33100000Y13012570D02*
X-33454450Y13012570D01*
X-33100000Y13612570D02*
X-32745553Y13612570D01*
X-32745550Y9412570D02*
X-33100000Y9412570D01*
X-33100000Y8812570D02*
X-32745550Y8812570D01*
X-32745550Y13012570D02*
X-33100000Y13012570D01*
X-31150000Y25150000D02*
X-31150000Y27030000D01*
X-32745550Y11812570D02*
X-33100000Y11812570D01*
X-32505550Y12652570D02*
X-32505550Y12772570D01*
X-32745553Y14212570D02*
X-33100000Y14212570D01*
X-32505553Y13852570D02*
X-32505553Y13972570D01*
X-33454448Y11212570D02*
X-33100000Y11212570D01*
X-33694454Y14452570D02*
X-33694454Y14572570D01*
X-33100000Y11812570D02*
X-33454448Y11812570D01*
X-33340000Y8212570D02*
X-33454454Y8212570D01*
X-31898877Y24401123D02*
X-31150000Y25150000D01*
X-33454454Y14812570D02*
X-33340000Y14812570D01*
X-33100000Y10012570D02*
X-32745550Y10012570D01*
X-33100000Y14212570D02*
X-33340000Y14212570D01*
X-32745550Y10612570D02*
X-33100000Y10612570D01*
X-33100000Y15052570D02*
X-33100000Y15172570D01*
X-33454450Y10012570D02*
X-33100000Y10012570D01*
X-33694448Y12052570D02*
X-33694448Y12172570D01*
X-33100000Y12412570D02*
X-32745550Y12412570D01*
X-33340000Y14212570D02*
X-33454454Y14212570D01*
X-33454450Y13612570D02*
X-33100000Y13612570D01*
X-33340000Y8812570D02*
X-33100000Y8812570D01*
X-33454454Y8812570D02*
X-33340000Y8812570D01*
X-33100000Y9412570D02*
X-33454450Y9412570D01*
X-32505550Y11452570D02*
X-32505550Y11572570D01*
X-33100000Y6200000D02*
X-33100000Y7972570D01*
X-33694448Y10852570D02*
X-33694448Y10972570D01*
X-33100000Y10612570D02*
X-33454448Y10612570D01*
X-33694454Y8452570D02*
X-33694454Y8572570D01*
X-33694450Y13252570D02*
X-33694450Y13372570D01*
X-32505550Y10252570D02*
X-32505550Y10372570D01*
X-33454448Y12412570D02*
X-33100000Y12412570D01*
X-33454450Y9412570D02*
G75*
G02*
X-33694530Y9652570I-50J240030D01*
G01*
X-32505550Y12772570D02*
G75*
G03*
X-32745550Y13012550I-239950J30D01*
G01*
X-33100000Y7972570D02*
G75*
G03*
X-33340000Y8212600I-240000J30D01*
G01*
X-33340000Y14812570D02*
G75*
G03*
X-33099970Y15052570I0J240030D01*
G01*
X-32745550Y8812570D02*
G75*
G03*
X-32505470Y9052570I50J240030D01*
G01*
X-33454448Y10612570D02*
G75*
G02*
X-33694430Y10852570I48J240030D01*
G01*
X-32745550Y10012570D02*
G75*
G03*
X-32505470Y10252570I50J240030D01*
G01*
X-33454450Y13012570D02*
G75*
G02*
X-33694530Y13252570I-50J240030D01*
G01*
X-32505550Y9172570D02*
G75*
G03*
X-32745550Y9412550I-239950J30D01*
G01*
X-32505553Y13972570D02*
G75*
G03*
X-32745553Y14212647I-240047J30D01*
G01*
X-33694450Y13372570D02*
G75*
G02*
X-33454450Y13612550I239950J30D01*
G01*
X-32745550Y11212570D02*
G75*
G03*
X-32505470Y11452570I50J240030D01*
G01*
X-33694450Y9772570D02*
G75*
G02*
X-33454450Y10012550I239950J30D01*
G01*
X-32505550Y10372570D02*
G75*
G03*
X-32745550Y10612550I-239950J30D01*
G01*
X-33694454Y8572570D02*
G75*
G02*
X-33454454Y8812554I239954J30D01*
G01*
X-32745550Y12412570D02*
G75*
G03*
X-32505470Y12652570I50J240030D01*
G01*
X-32745553Y13612570D02*
G75*
G03*
X-32505570Y13852570I-47J240030D01*
G01*
X-33454454Y14212570D02*
G75*
G02*
X-33694530Y14452570I-46J240030D01*
G01*
X-33454454Y8212570D02*
G75*
G02*
X-33694530Y8452570I-46J240030D01*
G01*
X-33694454Y14572570D02*
G75*
G02*
X-33454454Y14812554I239954J30D01*
G01*
X-33694448Y12172570D02*
G75*
G02*
X-33454448Y12412648I240048J30D01*
G01*
X-32505550Y11572570D02*
G75*
G03*
X-32745550Y11812550I-239950J30D01*
G01*
X-33454448Y11812570D02*
G75*
G02*
X-33694430Y12052570I48J240030D01*
G01*
X-33694448Y10972570D02*
G75*
G02*
X-33454448Y11212648I240048J30D01*
G01*
G04 #@! TO.N,/CON.DP0+*
X-37900000Y1800000D02*
X-37900000Y3200000D01*
G04 #@! TO.N,/CON.SEL+*
X-26700000Y1800000D02*
X-26700000Y3200000D01*
G04 #@! TO.N,/CON.ATN+*
X-33100000Y1800000D02*
X-33100000Y3200000D01*
G04 #@! TO.N,/CON.SEL-*
X-26700000Y14003075D02*
X-26700000Y14400000D01*
X-15900000Y25200000D02*
X-15900000Y27040000D01*
X-26700000Y12683075D02*
X-26700000Y12803075D01*
X-25046669Y16550907D02*
X-24967585Y16471823D01*
X-23779643Y17320354D02*
X-23694791Y17405208D01*
X-22931113Y18168884D02*
X-22846261Y18253738D01*
X-23694791Y17405208D02*
X-23694791Y17405209D01*
X-27291811Y8483075D02*
X-27291811Y8603075D01*
X-26940000Y10643075D02*
X-27051811Y10643075D01*
X-24628173Y16471824D02*
X-24543321Y16556678D01*
X-15900000Y27040000D02*
X-14640000Y28300000D01*
X-26700000Y13883075D02*
X-26700000Y14003075D01*
X-26240380Y15199031D02*
X-26319452Y15278103D01*
X-16678946Y24421054D02*
X-15900000Y25200000D01*
X-27291811Y13283075D02*
X-27291811Y13403075D01*
X-26940000Y8243075D02*
X-27051811Y8243075D01*
X-24543321Y16556678D02*
X-24543321Y16556679D01*
X-26700000Y10283075D02*
X-26700000Y10403075D01*
X-25476703Y15623294D02*
X-25391851Y15708148D01*
X-23773912Y18163152D02*
X-23689057Y18248006D01*
X-26700000Y9083075D02*
X-26700000Y9203075D01*
X-25895188Y15702366D02*
X-25816115Y15623293D01*
X-27051811Y10043075D02*
X-26940000Y10043075D01*
X-23349647Y18248005D02*
X-23270525Y18168883D01*
X-27051825Y12443075D02*
X-26940000Y12443075D01*
X-25391851Y15708148D02*
X-25391851Y15708149D01*
X-25391850Y16047561D02*
X-25470933Y16126644D01*
X-26940000Y13043075D02*
X-27051811Y13043075D01*
X-27051811Y8843075D02*
X-26940000Y8843075D01*
X-24622373Y17314553D02*
X-24537518Y17399407D01*
X-27291811Y10883075D02*
X-27291811Y11003075D01*
X-27291811Y9683075D02*
X-27291811Y9803075D01*
X-25470934Y16466054D02*
X-25386079Y16550908D01*
X-24543320Y16896091D02*
X-24622372Y16975143D01*
X-24198108Y17399406D02*
X-24119055Y17320353D01*
X-27291825Y12083075D02*
X-27291825Y12203075D01*
X-26940000Y11843075D02*
X-27051825Y11843075D01*
X-26700000Y6200000D02*
X-26700000Y8003075D01*
X-26940000Y9443075D02*
X-27051811Y9443075D01*
X-26700000Y11483075D02*
X-26700000Y11603075D01*
X-23694790Y17744621D02*
X-23773911Y17823742D01*
X-22846261Y18253738D02*
X-16678946Y24421054D01*
X-26700000Y14400000D02*
X-26240381Y14859619D01*
X-26319453Y15617513D02*
X-26234598Y15702367D01*
X-27051811Y11243075D02*
X-26940000Y11243075D01*
X-27051811Y13643075D02*
X-26940000Y13643075D01*
X-26940000Y11243075D02*
G75*
G03*
X-26699975Y11483075I0J240025D01*
G01*
X-24967585Y16471823D02*
G75*
G03*
X-24628194Y16471844I169685J169677D01*
G01*
X-26700000Y11603075D02*
G75*
G03*
X-26940000Y11843100I-240000J25D01*
G01*
X-27291811Y11003075D02*
G75*
G02*
X-27051811Y11243111I240011J25D01*
G01*
X-26940000Y12443075D02*
G75*
G03*
X-26699975Y12683075I0J240025D01*
G01*
X-25386079Y16550908D02*
G75*
G02*
X-25046695Y16550882I169679J-169708D01*
G01*
X-26240381Y14859619D02*
G75*
G03*
X-26240405Y15199006I-169719J169681D01*
G01*
X-27291811Y9803075D02*
G75*
G02*
X-27051811Y10043111I240011J25D01*
G01*
X-26940000Y10043075D02*
G75*
G03*
X-26699975Y10283075I0J240025D01*
G01*
X-27291811Y13403075D02*
G75*
G02*
X-27051811Y13643111I240011J25D01*
G01*
X-26319452Y15278103D02*
G75*
G02*
X-26319445Y15617505I169752J169697D01*
G01*
X-24537518Y17399407D02*
G75*
G02*
X-24198095Y17399420I169718J-169707D01*
G01*
X-27051825Y11843075D02*
G75*
G02*
X-27291825Y12083075I25J240025D01*
G01*
X-25391851Y15708149D02*
G75*
G03*
X-25391805Y16047605I-169749J169751D01*
G01*
X-25470933Y16126644D02*
G75*
G02*
X-25470885Y16466005I169733J169656D01*
G01*
X-27291811Y8603075D02*
G75*
G02*
X-27051811Y8843111I240011J25D01*
G01*
X-27291825Y12203075D02*
G75*
G02*
X-27051825Y12443125I240025J25D01*
G01*
X-27051811Y13043075D02*
G75*
G02*
X-27291825Y13283075I11J240025D01*
G01*
X-27051811Y9443075D02*
G75*
G02*
X-27291825Y9683075I11J240025D01*
G01*
X-26700000Y10403075D02*
G75*
G03*
X-26940000Y10643100I-240000J25D01*
G01*
X-24543321Y16556679D02*
G75*
G03*
X-24543305Y16896106I-169679J169721D01*
G01*
X-23689057Y18248006D02*
G75*
G02*
X-23349695Y18247958I169657J-169706D01*
G01*
X-26700000Y8003075D02*
G75*
G03*
X-26940000Y8243100I-240000J25D01*
G01*
X-27051811Y8243075D02*
G75*
G02*
X-27291825Y8483075I11J240025D01*
G01*
X-27051811Y10643075D02*
G75*
G02*
X-27291825Y10883075I11J240025D01*
G01*
X-25816115Y15623293D02*
G75*
G03*
X-25476694Y15623284I169715J169707D01*
G01*
X-26940000Y13643075D02*
G75*
G03*
X-26699975Y13883075I0J240025D01*
G01*
X-23270525Y18168883D02*
G75*
G03*
X-22931094Y18168864I169725J169717D01*
G01*
X-26234598Y15702367D02*
G75*
G02*
X-25895195Y15702360I169698J-169667D01*
G01*
X-23773911Y17823742D02*
G75*
G02*
X-23773865Y18163104I169711J169658D01*
G01*
X-24622372Y16975143D02*
G75*
G02*
X-24622325Y17314504I169672J169657D01*
G01*
X-26700000Y12803075D02*
G75*
G03*
X-26940000Y13043100I-240000J25D01*
G01*
X-26940000Y8843075D02*
G75*
G03*
X-26699975Y9083075I0J240025D01*
G01*
X-23694791Y17405209D02*
G75*
G03*
X-23694805Y17744605I-169709J169691D01*
G01*
X-26700000Y9203075D02*
G75*
G03*
X-26940000Y9443100I-240000J25D01*
G01*
X-24119055Y17320353D02*
G75*
G03*
X-23779594Y17320304I169755J169747D01*
G01*
G04 #@! TO.N,/CON.DB0-*
X-65954476Y24404476D02*
X-66700000Y25150000D01*
X-51160962Y9610962D02*
X-50967679Y9804246D01*
X-51585228Y10035228D02*
X-51754935Y9865524D01*
X-50050000Y8500000D02*
X-50566990Y9016990D01*
X-66700000Y27020000D02*
X-67980000Y28300000D01*
X-51585229Y10035229D02*
X-51585228Y10035228D01*
X-51391945Y10228512D02*
X-51585229Y10035229D01*
X-50967679Y10143657D02*
X-51052534Y10228512D01*
X-47500000Y8000000D02*
X-48000000Y8500000D01*
X-51330670Y9441259D02*
X-51160965Y9610964D01*
X-51754935Y9865524D02*
X-51778529Y9841930D01*
X-50906402Y9016990D02*
X-50929988Y8993407D01*
X-47500000Y6200000D02*
X-47500000Y8000000D01*
X-48000000Y8500000D02*
X-50050000Y8500000D01*
X-52264051Y10714051D02*
X-65954476Y24404476D01*
X-52179198Y10629200D02*
X-52264051Y10714051D01*
X-52117939Y9841929D02*
X-52202792Y9926782D01*
X-51354253Y9417673D02*
X-51330670Y9441259D01*
X-52202792Y10266194D02*
X-52179199Y10289790D01*
X-66700000Y25150000D02*
X-66700000Y27020000D01*
X-51160965Y9610964D02*
X-51160962Y9610962D01*
X-51269398Y8993406D02*
X-51354253Y9078261D01*
X-50929988Y8993407D02*
G75*
G02*
X-51269405Y8993399I-169712J169693D01*
G01*
X-51052534Y10228512D02*
G75*
G03*
X-51391946Y10228513I-169706J-169703D01*
G01*
X-50566990Y9016990D02*
G75*
G03*
X-50906402Y9016990I-169706J-169701D01*
G01*
X-52179199Y10289790D02*
G75*
G03*
X-52179193Y10629205I-169701J169710D01*
G01*
X-52202792Y9926782D02*
G75*
G02*
X-52202804Y10266206I169692J169718D01*
G01*
X-51778529Y9841930D02*
G75*
G02*
X-52117904Y9841963I-169671J169670D01*
G01*
X-50967679Y9804246D02*
G75*
G03*
X-50967630Y10143705I-169721J169754D01*
G01*
X-51354253Y9078261D02*
G75*
G02*
X-51354286Y9417706I169653J169739D01*
G01*
G04 #@! TO.N,/CON.DB7+*
X-38700000Y1800000D02*
X-38700000Y3200000D01*
G04 #@! TO.N,/CON.DB5-*
X-42665209Y13375385D02*
X-42615004Y13425593D01*
X-44566628Y15716628D02*
X-44736335Y15546924D01*
X-45210849Y15920940D02*
X-45160599Y15971189D01*
X-43428914Y13799622D02*
X-43513770Y13884478D01*
X-43498155Y15088036D02*
X-43718096Y14868096D01*
X-41100000Y12250000D02*
X-41851324Y13001324D01*
X-45160600Y16310601D02*
X-45245451Y16395451D01*
X-44142363Y15292363D02*
X-44142362Y15292362D01*
X-43073889Y15003181D02*
X-43158744Y15088036D01*
X-42445298Y13595299D02*
X-42445296Y13595296D01*
X-54000000Y27020000D02*
X-55280000Y28300000D01*
X-53251486Y24401486D02*
X-54000000Y25150000D01*
X-43718095Y14868095D02*
X-43938054Y14648139D01*
X-42649613Y14239513D02*
X-42869563Y14019564D01*
X-45125996Y15496675D02*
X-45210849Y15581528D01*
X-41099999Y7999999D02*
X-41100000Y8000000D01*
X-41100000Y8000000D02*
X-41100000Y12250000D01*
X-42615004Y13425593D02*
X-42445298Y13595299D01*
X-42190736Y13001324D02*
X-42240944Y12951119D01*
X-43293829Y14443829D02*
X-43073889Y14663770D01*
X-43293830Y14443830D02*
X-43293829Y14443829D01*
X-42445296Y13595296D02*
X-42225347Y13815246D01*
X-42225347Y14154658D02*
X-42310202Y14239513D01*
X-44566629Y15716629D02*
X-44566628Y15716628D01*
X-43922422Y15851714D02*
X-44007277Y15936569D01*
X-54000000Y25150000D02*
X-54000000Y27020000D01*
X-45245451Y16395451D02*
X-53251486Y24401486D01*
X-41099999Y6200000D02*
X-41099999Y7999999D01*
X-44736335Y15546924D02*
X-44786584Y15496675D01*
X-43513771Y14223890D02*
X-43293830Y14443830D01*
X-42580354Y12951118D02*
X-42665209Y13035973D01*
X-44362321Y15072406D02*
X-44142363Y15292363D01*
X-44277464Y14648138D02*
X-44362320Y14732994D01*
X-44346688Y15936569D02*
X-44566629Y15716629D01*
X-42869563Y14019564D02*
X-42869562Y14019562D01*
X-44142362Y15292362D02*
X-43922422Y15512303D01*
X-42869562Y14019562D02*
X-43089504Y13799623D01*
X-43718096Y14868096D02*
X-43718095Y14868095D01*
X-43513770Y13884478D02*
G75*
G02*
X-43513787Y14223906I169670J169722D01*
G01*
X-44786584Y15496675D02*
G75*
G02*
X-45125996Y15496675I-169706J169701D01*
G01*
X-42310202Y14239513D02*
G75*
G03*
X-42649612Y14239513I-169705J-169703D01*
G01*
X-41851324Y13001324D02*
G75*
G03*
X-42190736Y13001324I-169706J-169701D01*
G01*
X-44007277Y15936569D02*
G75*
G03*
X-44346687Y15936569I-169705J-169703D01*
G01*
X-43089504Y13799623D02*
G75*
G02*
X-43428904Y13799631I-169696J169677D01*
G01*
X-45210849Y15581528D02*
G75*
G02*
X-45210815Y15920906I169749J169672D01*
G01*
X-43073889Y14663770D02*
G75*
G03*
X-43073864Y15003205I-169711J169730D01*
G01*
X-43938054Y14648139D02*
G75*
G02*
X-44277505Y14648097I-169746J169661D01*
G01*
X-44362320Y14732994D02*
G75*
G02*
X-44362320Y15072406I169720J169706D01*
G01*
X-42665209Y13035973D02*
G75*
G02*
X-42665230Y13375406I169709J169727D01*
G01*
X-43922422Y15512303D02*
G75*
G03*
X-43922430Y15851705I-169678J169697D01*
G01*
X-43158744Y15088036D02*
G75*
G03*
X-43498156Y15088037I-169706J-169703D01*
G01*
X-45160599Y15971189D02*
G75*
G03*
X-45160594Y16310607I-169701J169711D01*
G01*
X-42225347Y13815246D02*
G75*
G03*
X-42225299Y14154706I-169753J169754D01*
G01*
X-42240944Y12951119D02*
G75*
G02*
X-42580304Y12951167I-169656J169681D01*
G01*
G04 #@! TO.N,/CON.REQ-*
X-19222964Y16777033D02*
X-19138112Y16861887D01*
X-22532231Y13807180D02*
X-22596366Y13871315D01*
X-19626551Y16841207D02*
X-19562376Y16777032D01*
X-24300000Y6199999D02*
X-24300000Y7988140D01*
X-19986642Y16013357D02*
X-19986642Y16013358D01*
X-24870701Y8468140D02*
X-24870701Y8588140D01*
X-24300000Y11700000D02*
X-23840381Y12159619D01*
X-23840381Y12159619D02*
X-23380762Y12619238D01*
X-24300000Y11468140D02*
X-24300000Y11588140D01*
X-20050816Y16756354D02*
X-19965961Y16841208D01*
X-24870701Y10868140D02*
X-24870701Y10988140D01*
X-21747856Y15059274D02*
X-21663001Y15144128D01*
X-24630701Y10028140D02*
X-24540000Y10028140D01*
X-24630701Y8828140D02*
X-24540000Y8828140D01*
X-20899288Y15907766D02*
X-20814433Y15992620D01*
X-11954048Y24045952D02*
X-10800000Y25200000D01*
X-24870701Y9668140D02*
X-24870701Y9788140D01*
X-22617084Y13382913D02*
X-22532232Y13467767D01*
X-22532232Y13467767D02*
X-22532232Y13467768D01*
X-24300000Y10268140D02*
X-24300000Y10388140D01*
X-10800000Y27060000D02*
X-9560000Y28300000D01*
X-23020613Y13447029D02*
X-22956496Y13382912D01*
X-23380761Y12958650D02*
X-23444877Y13022766D01*
X-24630701Y11228140D02*
X-24540000Y11228140D01*
X-21768554Y14231443D02*
X-21683702Y14316297D01*
X-19138112Y16861887D02*
X-11954048Y24045952D01*
X-22172102Y14295578D02*
X-22107966Y14231442D01*
X-22596367Y14210725D02*
X-22511512Y14295579D01*
X-24540000Y8228140D02*
X-24630701Y8228140D01*
X-23444878Y13362176D02*
X-23360023Y13447030D01*
X-24300000Y9068140D02*
X-24300000Y9188140D01*
X-21683701Y14655710D02*
X-21747855Y14719864D01*
X-19986641Y16352770D02*
X-20050815Y16416944D01*
X-20835172Y15164827D02*
X-20835172Y15164828D01*
X-24540000Y9428140D02*
X-24630701Y9428140D01*
X-20475023Y15992619D02*
X-20410906Y15928502D01*
X-24540000Y10628140D02*
X-24630701Y10628140D01*
X-21683702Y14316297D02*
X-21683702Y14316298D01*
X-24300000Y11588140D02*
X-24300000Y11700000D01*
X-21323591Y15144127D02*
X-21259436Y15079972D01*
X-20920024Y15079973D02*
X-20835172Y15164827D01*
X-20071494Y15928503D02*
X-19986642Y16013357D01*
X-20835171Y15504240D02*
X-20899287Y15568356D01*
X-10800000Y25200000D02*
X-10800000Y27060000D01*
X-22956496Y13382912D02*
G75*
G03*
X-22617094Y13382922I169696J169688D01*
G01*
X-23380762Y12619238D02*
G75*
G03*
X-23380805Y12958606I-169738J169662D01*
G01*
X-19986642Y16013358D02*
G75*
G03*
X-19986605Y16352806I-169658J169742D01*
G01*
X-22532232Y13467768D02*
G75*
G03*
X-22532205Y13807206I-169668J169732D01*
G01*
X-24630701Y10628140D02*
G75*
G02*
X-24870660Y10868140I1J239960D01*
G01*
X-24540000Y10028140D02*
G75*
G03*
X-24300040Y10268140I0J239960D01*
G01*
X-21259436Y15079972D02*
G75*
G03*
X-20919994Y15079942I169736J169728D01*
G01*
X-19562376Y16777032D02*
G75*
G03*
X-19222994Y16777062I169676J169668D01*
G01*
X-24870701Y9788140D02*
G75*
G02*
X-24630701Y10028101I240001J-40D01*
G01*
X-21683702Y14316298D02*
G75*
G03*
X-21683705Y14655705I-169698J169702D01*
G01*
X-22107966Y14231442D02*
G75*
G03*
X-21768594Y14231482I169666J169658D01*
G01*
X-24630701Y9428140D02*
G75*
G02*
X-24870660Y9668140I1J239960D01*
G01*
X-20835172Y15164828D02*
G75*
G03*
X-20835205Y15504206I-169728J169672D01*
G01*
X-21747855Y14719864D02*
G75*
G02*
X-21747887Y15059304I169755J169736D01*
G01*
X-22511512Y14295579D02*
G75*
G02*
X-22172094Y14295586I169712J-169679D01*
G01*
X-24300000Y9188140D02*
G75*
G03*
X-24540000Y9428100I-240000J-40D01*
G01*
X-24870701Y8588140D02*
G75*
G02*
X-24630701Y8828101I240001J-40D01*
G01*
X-23360023Y13447030D02*
G75*
G02*
X-23020595Y13447048I169723J-169730D01*
G01*
X-24870701Y10988140D02*
G75*
G02*
X-24630701Y11228101I240001J-40D01*
G01*
X-20410906Y15928502D02*
G75*
G03*
X-20071493Y15928503I169706J169698D01*
G01*
X-24630701Y8228140D02*
G75*
G02*
X-24870660Y8468140I1J239960D01*
G01*
X-19965961Y16841208D02*
G75*
G02*
X-19626595Y16841164I169661J-169708D01*
G01*
X-24300000Y7988140D02*
G75*
G03*
X-24540000Y8228100I-240000J-40D01*
G01*
X-20899287Y15568356D02*
G75*
G02*
X-20899327Y15907804I169687J169744D01*
G01*
X-24300000Y10388140D02*
G75*
G03*
X-24540000Y10628100I-240000J-40D01*
G01*
X-21663001Y15144128D02*
G75*
G02*
X-21323594Y15144124I169701J-169728D01*
G01*
X-23444877Y13022766D02*
G75*
G02*
X-23444907Y13362205I169677J169734D01*
G01*
X-22596366Y13871315D02*
G75*
G02*
X-22596347Y14210704I169666J169685D01*
G01*
X-20814433Y15992620D02*
G75*
G02*
X-20474995Y15992648I169733J-169720D01*
G01*
X-20050815Y16416944D02*
G75*
G02*
X-20050767Y16756304I169715J169656D01*
G01*
X-24540000Y11228140D02*
G75*
G03*
X-24300040Y11468140I0J239960D01*
G01*
X-24540000Y8828140D02*
G75*
G03*
X-24300040Y9068140I0J239960D01*
G01*
G04 #@! TO.N,/CON.DB1-*
X-48500000Y9500000D02*
X-49011951Y10011951D01*
X-50695045Y12062397D02*
X-50709017Y12048426D01*
X-50270780Y11977544D02*
X-50355633Y12062397D01*
X-49846551Y11213828D02*
X-50030190Y11030190D01*
X-50030190Y11030190D02*
X-50030189Y11030189D01*
X-50454456Y11454456D02*
X-50284751Y11624162D01*
X-49775631Y10436220D02*
X-49605926Y10605925D01*
X-50454457Y11454457D02*
X-50454456Y11454456D01*
X-49422285Y11128973D02*
X-49507140Y11213828D01*
X-51133279Y12133279D02*
X-63428276Y24428276D01*
X-49351363Y10011951D02*
X-49365307Y9998010D01*
X-45900000Y6200000D02*
X-45900000Y8400000D01*
X-50284751Y11624162D02*
X-50270780Y11638133D01*
X-50030189Y11030189D02*
X-50213844Y10846537D01*
X-47000000Y9500000D02*
X-48500000Y9500000D01*
X-49789572Y10422276D02*
X-49775631Y10436220D01*
X-50638111Y11270804D02*
X-50454457Y11454457D01*
X-64150000Y25150000D02*
X-64150000Y27010000D01*
X-49704717Y9998009D02*
X-49789572Y10082864D01*
X-49605923Y10605923D02*
X-49422285Y10789562D01*
X-51048428Y12048426D02*
X-51133279Y12133279D01*
X-45900000Y8400000D02*
X-47000000Y9500000D01*
X-50553254Y10846536D02*
X-50638110Y10931392D01*
X-49605926Y10605925D02*
X-49605923Y10605923D01*
X-63428276Y24428276D02*
X-64150000Y25150000D01*
X-64150000Y27010000D02*
X-65440000Y28300000D01*
X-49789572Y10082864D02*
G75*
G02*
X-49789602Y10422306I169672J169736D01*
G01*
X-50213844Y10846537D02*
G75*
G02*
X-50553204Y10846585I-169656J169663D01*
G01*
X-49365307Y9998010D02*
G75*
G02*
X-49704704Y9998021I-169693J169690D01*
G01*
X-50709017Y12048426D02*
G75*
G02*
X-51048427Y12048426I-169705J169703D01*
G01*
X-50270780Y11638133D02*
G75*
G03*
X-50270818Y11977505I-169720J169667D01*
G01*
X-49011951Y10011951D02*
G75*
G03*
X-49351363Y10011951I-169706J-169701D01*
G01*
X-49422285Y10789562D02*
G75*
G03*
X-49422252Y11129005I-169715J169738D01*
G01*
X-49507140Y11213828D02*
G75*
G03*
X-49846552Y11213829I-169706J-169703D01*
G01*
X-50638110Y10931392D02*
G75*
G02*
X-50638112Y11270805I169710J169708D01*
G01*
X-50355633Y12062397D02*
G75*
G03*
X-50695045Y12062397I-169706J-169704D01*
G01*
G04 #@! TO.N,/CON.REQ+*
X-24300000Y1800001D02*
X-24300000Y3200000D01*
G04 #@! TO.N,/CON.DB3-*
X-43500000Y9600000D02*
X-43903928Y10003928D01*
X-44714823Y11229510D02*
X-44922167Y11022167D01*
X-45553771Y11239098D02*
X-45346434Y11446434D01*
X-43500000Y6200000D02*
X-43500000Y9600000D01*
X-45346433Y11446433D02*
X-45139116Y11653751D01*
X-46194967Y12294967D02*
X-46194966Y12294966D01*
X-44497900Y10597900D02*
X-44290557Y10805244D01*
X-44620360Y9966323D02*
X-44705215Y10051178D01*
X-45563382Y12078017D02*
X-45770700Y11870700D01*
X-46873789Y12973789D02*
X-58316774Y24416774D01*
X-45468914Y10814830D02*
X-45553770Y10899686D01*
X-58316774Y24416774D02*
X-59100000Y25200000D01*
X-45770699Y11870699D02*
X-45978050Y11663351D01*
X-44705215Y10390590D02*
X-44667608Y10428196D01*
X-45139116Y11993162D02*
X-45223971Y12078017D01*
X-59100000Y25200000D02*
X-59100000Y27040000D01*
X-44243340Y10003928D02*
X-44280948Y9966323D01*
X-46194966Y12294966D02*
X-46025261Y12464672D01*
X-45346434Y11446434D02*
X-45346433Y11446433D01*
X-44922167Y11022167D02*
X-44922166Y11022166D01*
X-44667608Y10428196D02*
X-44497902Y10597902D01*
X-46317460Y11663350D02*
X-46402316Y11748206D01*
X-44497902Y10597902D02*
X-44497900Y10597900D01*
X-44290557Y11144655D02*
X-44375412Y11229510D01*
X-46402317Y12087618D02*
X-46194967Y12294967D01*
X-45770700Y11870700D02*
X-45770699Y11870699D01*
X-44922166Y11022166D02*
X-45129504Y10814831D01*
X-46025261Y12464672D02*
X-45987630Y12502303D01*
X-46788938Y12888937D02*
X-46873789Y12973789D01*
X-59100000Y27040000D02*
X-60360000Y28300000D01*
X-45987630Y12841714D02*
X-46072483Y12926567D01*
X-46411895Y12926567D02*
X-46449526Y12888937D01*
X-44705215Y10051178D02*
G75*
G02*
X-44705231Y10390606I169715J169722D01*
G01*
X-46449526Y12888937D02*
G75*
G02*
X-46788938Y12888937I-169706J169704D01*
G01*
X-44290557Y10805244D02*
G75*
G03*
X-44290606Y11144606I-169743J169656D01*
G01*
X-44280948Y9966323D02*
G75*
G02*
X-44620360Y9966323I-169706J169701D01*
G01*
X-45139116Y11653751D02*
G75*
G03*
X-45139072Y11993205I-169684J169749D01*
G01*
X-46072483Y12926567D02*
G75*
G03*
X-46411895Y12926567I-169706J-169704D01*
G01*
X-43903928Y10003928D02*
G75*
G03*
X-44243340Y10003928I-169706J-169701D01*
G01*
X-46402316Y11748206D02*
G75*
G02*
X-46402305Y12087606I169716J169694D01*
G01*
X-45978050Y11663351D02*
G75*
G02*
X-46317504Y11663305I-169750J169749D01*
G01*
X-45987630Y12502303D02*
G75*
G03*
X-45987638Y12841705I-169670J169697D01*
G01*
X-45223971Y12078017D02*
G75*
G03*
X-45563381Y12078017I-169705J-169703D01*
G01*
X-45129504Y10814831D02*
G75*
G02*
X-45468904Y10814839I-169696J169669D01*
G01*
X-44375412Y11229510D02*
G75*
G03*
X-44714822Y11229510I-169705J-169703D01*
G01*
X-45553770Y10899686D02*
G75*
G02*
X-45553779Y11239106I169670J169714D01*
G01*
G04 #@! TO.N,/CON.MSG+*
X-28300001Y3199999D02*
X-28300000Y3200000D01*
X-28300001Y1800000D02*
X-28300001Y3199999D01*
G04 #@! TO.N,/CON.DB3+*
X-43500000Y1800000D02*
X-43500000Y3200000D01*
G04 #@! TO.N,/CON.ACK-*
X-30700000Y12660347D02*
X-30700000Y12780347D01*
X-30110105Y15660347D02*
X-30110105Y15780347D01*
X-29052441Y19308148D02*
X-28974710Y19230417D01*
X-30350105Y16020347D02*
X-30460000Y16020347D01*
X-28628179Y20071825D02*
X-28543324Y20156677D01*
X-30700000Y6200000D02*
X-30700000Y7980347D01*
X-27701922Y20503215D02*
X-27779650Y20580943D01*
X-30700000Y11460347D02*
X-30700000Y11580347D01*
X-30460000Y8220347D02*
X-30350105Y8220347D01*
X-30700000Y18000000D02*
X-30240381Y18459619D01*
X-30350105Y17220347D02*
X-30460000Y17220347D01*
X-30700000Y15060347D02*
X-30700000Y15180347D01*
X-30110105Y10860347D02*
X-30110105Y10980347D01*
X-30700000Y16260347D02*
X-30700000Y16380347D01*
X-30350105Y10020347D02*
X-30460000Y10020347D01*
X-28543324Y20156677D02*
X-28543323Y20156677D01*
X-27694795Y21005206D02*
X-24249712Y24450288D01*
X-30460000Y13020347D02*
X-30350105Y13020347D01*
X-30110105Y13260347D02*
X-30110105Y13380347D01*
X-30110105Y16860347D02*
X-30110105Y16980347D01*
X-30350105Y11220347D02*
X-30460000Y11220347D01*
X-27779650Y20920354D02*
X-27694795Y21005206D01*
X-30460000Y16620347D02*
X-30350105Y16620347D01*
X-30700000Y9060347D02*
X-30700000Y9180347D01*
X-30460000Y11820347D02*
X-30350105Y11820347D01*
X-30460000Y14220347D02*
X-30350105Y14220347D01*
X-30350105Y13620347D02*
X-30460000Y13620347D01*
X-29900970Y18459619D02*
X-29823282Y18381931D01*
X-30350105Y12420347D02*
X-30460000Y12420347D01*
X-28550447Y19654682D02*
X-28628179Y19732414D01*
X-28203912Y20156677D02*
X-28126185Y20078950D01*
X-23550000Y25150000D02*
X-23550000Y27010000D01*
X-30350105Y8820347D02*
X-30460000Y8820347D01*
X-27786774Y20078950D02*
X-27701922Y20163803D01*
X-30110105Y14460347D02*
X-30110105Y14580347D01*
X-30110105Y12060347D02*
X-30110105Y12180347D01*
X-30460000Y9420347D02*
X-30350105Y9420347D01*
X-30460000Y10620347D02*
X-30350105Y10620347D01*
X-29476708Y19223296D02*
X-29391853Y19308148D01*
X-29399019Y18806196D02*
X-29476708Y18883885D01*
X-23550000Y27010000D02*
X-22260000Y28300000D01*
X-30700000Y17460347D02*
X-30700000Y17580347D01*
X-30110105Y9660347D02*
X-30110105Y9780347D01*
X-30700000Y17580347D02*
X-30700000Y18000000D01*
X-30350105Y14820347D02*
X-30460000Y14820347D01*
X-30700000Y10260347D02*
X-30700000Y10380347D01*
X-30460000Y15420347D02*
X-30350105Y15420347D01*
X-29483871Y18381931D02*
X-29399019Y18466784D01*
X-30700000Y13860347D02*
X-30700000Y13980347D01*
X-30110105Y8460347D02*
X-30110105Y8580347D01*
X-24249712Y24450288D02*
X-23550000Y25150000D01*
X-28635299Y19230417D02*
X-28550447Y19315270D01*
X-29391853Y19308148D02*
X-29391852Y19308148D01*
X-29476708Y18883885D02*
G75*
G02*
X-29476718Y19223305I169708J169715D01*
G01*
X-30700000Y7980347D02*
G75*
G02*
X-30460000Y8220300I240000J-47D01*
G01*
X-30350105Y11820347D02*
G75*
G03*
X-30110147Y12060347I5J239953D01*
G01*
X-30460000Y10020347D02*
G75*
G02*
X-30699953Y10260347I0J239953D01*
G01*
X-28543323Y20156677D02*
G75*
G02*
X-28203912Y20156678I169706J-169707D01*
G01*
X-30350105Y9420347D02*
G75*
G03*
X-30110147Y9660347I5J239953D01*
G01*
X-30350105Y14220347D02*
G75*
G03*
X-30110147Y14460347I5J239953D01*
G01*
X-30110105Y13380347D02*
G75*
G03*
X-30350105Y13620295I-239995J-47D01*
G01*
X-30110105Y16980347D02*
G75*
G03*
X-30350105Y17220295I-239995J-47D01*
G01*
X-29391852Y19308148D02*
G75*
G02*
X-29052441Y19308149I169706J-169707D01*
G01*
X-30110105Y10980347D02*
G75*
G03*
X-30350105Y11220295I-239995J-47D01*
G01*
X-30110105Y12180347D02*
G75*
G03*
X-30350105Y12420295I-239995J-47D01*
G01*
X-27701922Y20163803D02*
G75*
G03*
X-27701931Y20503206I-169678J169697D01*
G01*
X-30460000Y16020347D02*
G75*
G02*
X-30699953Y16260347I0J239953D01*
G01*
X-28126185Y20078950D02*
G75*
G03*
X-27786774Y20078949I169706J169707D01*
G01*
X-30350105Y8220347D02*
G75*
G03*
X-30110147Y8460347I5J239953D01*
G01*
X-30350105Y13020347D02*
G75*
G03*
X-30110147Y13260347I5J239953D01*
G01*
X-30460000Y11220347D02*
G75*
G02*
X-30699953Y11460347I0J239953D01*
G01*
X-30350105Y16620347D02*
G75*
G03*
X-30110147Y16860347I5J239953D01*
G01*
X-30700000Y12780347D02*
G75*
G02*
X-30460000Y13020300I240000J-47D01*
G01*
X-29823282Y18381931D02*
G75*
G03*
X-29483871Y18381930I169706J169707D01*
G01*
X-30700000Y15180347D02*
G75*
G02*
X-30460000Y15420300I240000J-47D01*
G01*
X-30700000Y16380347D02*
G75*
G02*
X-30460000Y16620300I240000J-47D01*
G01*
X-28628179Y19732414D02*
G75*
G02*
X-28628160Y20071805I169679J169686D01*
G01*
X-28550447Y19315270D02*
G75*
G03*
X-28550423Y19654706I-169753J169730D01*
G01*
X-30700000Y13980347D02*
G75*
G02*
X-30460000Y14220300I240000J-47D01*
G01*
X-30700000Y11580347D02*
G75*
G02*
X-30460000Y11820300I240000J-47D01*
G01*
X-30240381Y18459619D02*
G75*
G02*
X-29900970Y18459620I169706J-169707D01*
G01*
X-30110105Y15780347D02*
G75*
G03*
X-30350105Y16020295I-239995J-47D01*
G01*
X-30460000Y12420347D02*
G75*
G02*
X-30699953Y12660347I0J239953D01*
G01*
X-29399019Y18466784D02*
G75*
G03*
X-29399009Y18806206I-169681J169716D01*
G01*
X-30350105Y10620347D02*
G75*
G03*
X-30110147Y10860347I5J239953D01*
G01*
X-30700000Y9180347D02*
G75*
G02*
X-30460000Y9420300I240000J-47D01*
G01*
X-30460000Y13620347D02*
G75*
G02*
X-30699953Y13860347I0J239953D01*
G01*
X-30460000Y17220347D02*
G75*
G02*
X-30699953Y17460347I0J239953D01*
G01*
X-30110105Y9780347D02*
G75*
G03*
X-30350105Y10020295I-239995J-47D01*
G01*
X-30460000Y8820347D02*
G75*
G02*
X-30699953Y9060347I0J239953D01*
G01*
X-30460000Y14820347D02*
G75*
G02*
X-30699953Y15060347I0J239953D01*
G01*
X-27779650Y20580943D02*
G75*
G02*
X-27779602Y20920306I169750J169657D01*
G01*
X-30110105Y8580347D02*
G75*
G03*
X-30350105Y8820295I-239995J-47D01*
G01*
X-30350105Y15420347D02*
G75*
G03*
X-30110147Y15660347I5J239953D01*
G01*
X-28974710Y19230417D02*
G75*
G03*
X-28635299Y19230416I169706J169707D01*
G01*
X-30700000Y10380347D02*
G75*
G02*
X-30460000Y10620300I240000J-47D01*
G01*
X-30110105Y14580347D02*
G75*
G03*
X-30350105Y14820295I-239995J-47D01*
G01*
D25*
G04 #@! TO.N,/CON.DIFFSENSE*
X-36300000Y1800000D02*
X-36300000Y3200000D01*
D24*
G04 #@! TO.N,/CON.I{slash}O+*
X-23500000Y1800000D02*
X-23500000Y3200000D01*
G04 #@! TO.N,/CON.I{slash}O-*
X-22651472Y10848529D02*
X-22651471Y10848529D01*
X-23168724Y8820966D02*
X-23260000Y8820966D01*
X-18917944Y14242645D02*
X-18853374Y14178075D01*
X-18408827Y15091174D02*
X-8615388Y24884612D01*
X-20954414Y12545587D02*
X-20954413Y12545587D01*
X-23500000Y6200000D02*
X-23500000Y7980966D01*
X-22928724Y8460966D02*
X-22928724Y8580966D01*
X-21823274Y11208272D02*
X-21887797Y11272795D01*
X-18429110Y14602340D02*
X-18493681Y14666911D01*
X-23160589Y10000000D02*
X-23096038Y9935449D01*
X-18493681Y15006323D02*
X-18408827Y15091174D01*
X-20974716Y12056772D02*
X-21039268Y12121324D01*
X-19342210Y14157794D02*
X-19257356Y14242645D01*
X-20105885Y13394116D02*
X-20105884Y13394116D01*
X-20126197Y12905311D02*
X-20190739Y12969853D01*
X-8615388Y24884612D02*
X-8453970Y25046030D01*
X-19362539Y13329594D02*
X-19277687Y13414447D01*
X-23500000Y9060966D02*
X-23500000Y9180966D01*
X-8453970Y25046030D02*
X-8300000Y25200000D01*
X-22756626Y9935449D02*
X-22671774Y10020302D01*
X-21908126Y10784007D02*
X-21823274Y10868860D01*
X-21039268Y12460736D02*
X-20954414Y12545587D01*
X-19766473Y13394116D02*
X-19701951Y13329594D01*
X-22671774Y10359714D02*
X-22736326Y10424266D01*
X-19257356Y14242645D02*
X-19257355Y14242645D01*
X-19277687Y13753859D02*
X-19342210Y13818382D01*
X-18513962Y14178075D02*
X-18429110Y14262928D01*
X-20615002Y12545587D02*
X-20550461Y12481046D01*
X-20211049Y12481046D02*
X-20126197Y12565899D01*
X-8300000Y27020000D02*
X-7020000Y28300000D01*
X-20190739Y13309265D02*
X-20105885Y13394116D01*
X-21059568Y11632507D02*
X-20974716Y11717360D01*
X-21887797Y11612207D02*
X-21802943Y11697058D01*
X-22312060Y10848529D02*
X-22247538Y10784007D01*
X-23500000Y9180966D02*
X-23500000Y9830966D01*
X-21802943Y11697058D02*
X-21802942Y11697058D01*
X-21463531Y11697058D02*
X-21398980Y11632507D01*
X-23260000Y8220966D02*
X-23168724Y8220966D01*
X-8300000Y25200000D02*
X-8300000Y27020000D01*
X-23500000Y9830966D02*
X-23500000Y10000000D01*
X-22736326Y10763678D02*
X-22651472Y10848529D01*
X-19701951Y13329594D02*
G75*
G03*
X-19362539Y13329594I169706J169704D01*
G01*
X-23500000Y10000000D02*
G75*
G02*
X-23160589Y10000001I169706J-169707D01*
G01*
X-23096038Y9935449D02*
G75*
G03*
X-22756626Y9935449I169706J169704D01*
G01*
X-20126197Y12565899D02*
G75*
G03*
X-20126202Y12905306I-169703J169701D01*
G01*
X-22247538Y10784007D02*
G75*
G03*
X-21908126Y10784007I169706J169704D01*
G01*
X-20954413Y12545587D02*
G75*
G02*
X-20615002Y12545587I169705J-169707D01*
G01*
X-20190739Y12969853D02*
G75*
G02*
X-20190780Y13309306I169739J169747D01*
G01*
X-18493681Y14666911D02*
G75*
G02*
X-18493664Y15006306I169681J169689D01*
G01*
X-20105884Y13394116D02*
G75*
G02*
X-19766473Y13394117I169706J-169707D01*
G01*
X-21887797Y11272795D02*
G75*
G02*
X-21887796Y11612206I169697J169705D01*
G01*
X-18853374Y14178075D02*
G75*
G03*
X-18513962Y14178075I169706J169704D01*
G01*
X-21039268Y12121324D02*
G75*
G02*
X-21039238Y12460706I169668J169676D01*
G01*
X-22928724Y8580966D02*
G75*
G03*
X-23168724Y8820976I-239976J34D01*
G01*
X-22671774Y10020302D02*
G75*
G03*
X-22671782Y10359706I-169726J169698D01*
G01*
X-23260000Y8820966D02*
G75*
G02*
X-23500034Y9060966I0J240034D01*
G01*
X-18429110Y14262928D02*
G75*
G03*
X-18429144Y14602306I-169690J169672D01*
G01*
X-21802942Y11697058D02*
G75*
G02*
X-21463531Y11697059I169706J-169707D01*
G01*
X-22651471Y10848529D02*
G75*
G02*
X-22312060Y10848530I169706J-169707D01*
G01*
X-22736326Y10424266D02*
G75*
G02*
X-22736354Y10763706I169726J169734D01*
G01*
X-19277687Y13414447D02*
G75*
G03*
X-19277640Y13753906I-169713J169753D01*
G01*
X-20550461Y12481046D02*
G75*
G03*
X-20211049Y12481046I169706J169704D01*
G01*
X-19342210Y13818382D02*
G75*
G02*
X-19342222Y14157806I169710J169718D01*
G01*
X-21398980Y11632507D02*
G75*
G03*
X-21059568Y11632507I169706J169704D01*
G01*
X-20974716Y11717360D02*
G75*
G03*
X-20974682Y12056806I-169684J169740D01*
G01*
X-19257355Y14242645D02*
G75*
G02*
X-18917944Y14242645I169705J-169707D01*
G01*
X-21823274Y10868860D02*
G75*
G03*
X-21823240Y11208306I-169726J169740D01*
G01*
X-23168724Y8220966D02*
G75*
G03*
X-22928666Y8460966I24J240034D01*
G01*
X-23500000Y7980966D02*
G75*
G02*
X-23260000Y8221000I240000J34D01*
G01*
G04 #@! TO.N,/CON.DB4+*
X-42700000Y1800000D02*
X-42700000Y3200000D01*
G04 #@! TO.N,/CON.DB6-*
X-41807282Y15507282D02*
X-42019488Y15295079D01*
X-43207422Y16143620D02*
X-43292278Y16228476D01*
X-42655815Y16355815D02*
X-42868012Y16143621D01*
X-41383019Y15083018D02*
X-41383016Y15083016D01*
X-44607438Y18307438D02*
X-50701270Y24401270D01*
X-41128456Y14489044D02*
X-41170967Y14446536D01*
X-44055918Y16992193D02*
X-44140774Y17077049D01*
X-43292173Y17416525D02*
X-43504349Y17204350D01*
X-41595232Y14870802D02*
X-41552724Y14913313D01*
X-50701270Y24401270D02*
X-51500000Y25200000D01*
X-42358900Y15295079D02*
X-42443756Y15379935D01*
X-43928615Y17628615D02*
X-43758910Y17798321D01*
X-41383016Y15083016D02*
X-41170802Y15295231D01*
X-42231552Y15931551D02*
X-42231549Y15931549D01*
X-41552724Y14913313D02*
X-41383019Y15083018D01*
X-43080082Y16780082D02*
X-42867907Y16992258D01*
X-44522587Y18222586D02*
X-44607438Y18307438D01*
X-51500000Y25200000D02*
X-51500000Y27060000D01*
X-43080083Y16780083D02*
X-43080082Y16780082D01*
X-44140773Y17416459D02*
X-43928618Y17628617D01*
X-40300000Y14000000D02*
X-40789044Y14489044D01*
X-44140666Y18265095D02*
X-44183176Y18222586D01*
X-42655816Y16355817D02*
X-42655815Y16355815D01*
X-41170802Y15634643D02*
X-41255657Y15719498D01*
X-43716401Y18180242D02*
X-43801254Y18265095D01*
X-51500000Y27060000D02*
X-52740000Y28300000D01*
X-42443755Y15719345D02*
X-42231552Y15931551D01*
X-42231549Y15931549D02*
X-42019355Y16143744D01*
X-42019355Y16483156D02*
X-42104210Y16568011D01*
X-43292279Y16567888D02*
X-43080083Y16780083D01*
X-41807283Y15507284D02*
X-41807282Y15507282D01*
X-43504348Y17204348D02*
X-43716506Y16992193D01*
X-40300000Y6200000D02*
X-40300000Y14000000D01*
X-42443621Y16568011D02*
X-42655816Y16355817D01*
X-43504349Y17204350D02*
X-43504348Y17204348D01*
X-43758910Y17798321D02*
X-43716401Y17840830D01*
X-42867907Y17331670D02*
X-42952762Y17416525D01*
X-43928618Y17628617D02*
X-43928615Y17628615D01*
X-41595068Y15719498D02*
X-41807283Y15507284D01*
X-41510377Y14446535D02*
X-41595232Y14531390D01*
X-43716506Y16992193D02*
G75*
G02*
X-44055918Y16992193I-169706J169701D01*
G01*
X-42867907Y16992258D02*
G75*
G03*
X-42867871Y17331706I-169693J169742D01*
G01*
X-43716401Y17840830D02*
G75*
G03*
X-43716437Y18180206I-169699J169670D01*
G01*
X-40789044Y14489044D02*
G75*
G03*
X-41128456Y14489044I-169706J-169701D01*
G01*
X-44140774Y17077049D02*
G75*
G02*
X-44140820Y17416506I169674J169751D01*
G01*
X-42019488Y15295079D02*
G75*
G02*
X-42358900Y15295079I-169706J169701D01*
G01*
X-42019355Y16143744D02*
G75*
G03*
X-42019405Y16483106I-169745J169656D01*
G01*
X-42104210Y16568011D02*
G75*
G03*
X-42443620Y16568011I-169705J-169703D01*
G01*
X-43801254Y18265095D02*
G75*
G03*
X-44140666Y18265095I-169706J-169704D01*
G01*
X-42868012Y16143621D02*
G75*
G02*
X-43207404Y16143637I-169688J169679D01*
G01*
X-42952762Y17416525D02*
G75*
G03*
X-43292172Y17416525I-169705J-169703D01*
G01*
X-42443756Y15379935D02*
G75*
G02*
X-42443716Y15719305I169656J169665D01*
G01*
X-41170967Y14446536D02*
G75*
G02*
X-41510405Y14446507I-169733J169664D01*
G01*
X-43292278Y16228476D02*
G75*
G02*
X-43292297Y16567906I169678J169724D01*
G01*
X-41255657Y15719498D02*
G75*
G03*
X-41595067Y15719498I-169705J-169703D01*
G01*
X-41595232Y14531390D02*
G75*
G02*
X-41595236Y14870806I169732J169710D01*
G01*
X-44183176Y18222586D02*
G75*
G02*
X-44522586Y18222586I-169705J169703D01*
G01*
X-41170802Y15295231D02*
G75*
G03*
X-41170839Y15634606I-169698J169669D01*
G01*
G04 #@! TO.N,/CON.RST+*
X-29100000Y1800000D02*
X-29100000Y3200000D01*
G04 #@! TO.N,/CON.MSG-*
X-28300000Y15080000D02*
X-28300000Y15200000D01*
X-25787843Y17002199D02*
X-25702991Y17087052D01*
X-28300001Y6200000D02*
X-28300001Y7999999D01*
X-27727272Y12080000D02*
X-27727272Y12200000D01*
X-28060000Y8240000D02*
X-27967272Y8240000D01*
X-24835176Y18764825D02*
X-24835175Y18764825D01*
X-28060000Y10640000D02*
X-27967272Y10640000D01*
X-27840381Y15759619D02*
X-27380762Y16219238D01*
X-24005972Y19123561D02*
X-24071502Y19189091D01*
X-28060000Y14240000D02*
X-27967272Y14240000D01*
X-28300000Y9080000D02*
X-28300000Y9200000D01*
X-26192822Y17067767D02*
X-26127254Y17002199D01*
X-25683705Y17916296D02*
X-25683704Y17916296D01*
X-23986647Y19613354D02*
X-19284382Y24315618D01*
X-27967272Y13640000D02*
X-28060000Y13640000D01*
X-27041351Y16219238D02*
X-26975783Y16153670D01*
X-27967272Y14840000D02*
X-28060000Y14840000D01*
X-28300000Y15200000D02*
X-28300000Y15300000D01*
X-19284382Y24315618D02*
X-19159630Y24440370D01*
X-24090824Y18699296D02*
X-24005972Y18784149D01*
X-27727272Y10880000D02*
X-27727272Y11000000D01*
X-25344293Y17916296D02*
X-25278735Y17850738D01*
X-28060000Y9440000D02*
X-27967272Y9440000D01*
X-28060000Y13040000D02*
X-27967272Y13040000D01*
X-25768560Y17831444D02*
X-25683705Y17916296D01*
X-25702991Y17426464D02*
X-25768560Y17492033D01*
X-28300000Y10280000D02*
X-28300000Y10400000D01*
X-27967272Y10040000D02*
X-28060000Y10040000D01*
X-26636372Y16153670D02*
X-26551520Y16238523D01*
X-18450000Y27030000D02*
X-17180000Y28300000D01*
X-27967272Y11240000D02*
X-28060000Y11240000D01*
X-27967272Y12440000D02*
X-28060000Y12440000D01*
X-24920031Y18679973D02*
X-24835176Y18764825D01*
X-28300000Y13880000D02*
X-28300000Y14000000D01*
X-26551520Y16577935D02*
X-26617089Y16643504D01*
X-19159630Y24440370D02*
X-18450000Y25150000D01*
X-28060000Y11840000D02*
X-27967272Y11840000D01*
X-26532234Y17067767D02*
X-26532233Y17067767D01*
X-27727272Y14480000D02*
X-27727272Y14600000D01*
X-27967272Y8840000D02*
X-28060000Y8840000D01*
X-28300000Y11480000D02*
X-28300000Y11600000D01*
X-24495764Y18764825D02*
X-24430235Y18699296D01*
X-24854472Y18275003D02*
X-24920031Y18340562D01*
X-26617089Y16982915D02*
X-26532234Y17067767D01*
X-27727272Y13280000D02*
X-27727272Y13400000D01*
X-27727272Y9680000D02*
X-27727272Y9800000D01*
X-28300000Y12680000D02*
X-28300000Y12800000D01*
X-28300000Y15300000D02*
X-27840381Y15759619D01*
X-18450000Y25150000D02*
X-18450000Y27030000D01*
X-24071502Y19528502D02*
X-23986647Y19613354D01*
X-24939324Y17850738D02*
X-24854472Y17935591D01*
X-27727272Y8480000D02*
X-27727272Y8600000D01*
X-28300001Y7999999D02*
X-28300000Y8000000D01*
X-25278735Y17850738D02*
G75*
G03*
X-24939324Y17850737I169706J169707D01*
G01*
X-28300000Y11600000D02*
G75*
G02*
X-28060000Y11840000I240000J0D01*
G01*
X-25702991Y17087052D02*
G75*
G03*
X-25702949Y17426506I-169709J169748D01*
G01*
X-27727272Y11000000D02*
G75*
G03*
X-27967272Y11240028I-240028J0D01*
G01*
X-27727272Y9800000D02*
G75*
G03*
X-27967272Y10040028I-240028J0D01*
G01*
X-27727272Y13400000D02*
G75*
G03*
X-27967272Y13640028I-240028J0D01*
G01*
X-27967272Y10640000D02*
G75*
G03*
X-27727300Y10880000I-28J240000D01*
G01*
X-28060000Y11240000D02*
G75*
G02*
X-28300000Y11480000I0J240000D01*
G01*
X-28300000Y9200000D02*
G75*
G02*
X-28060000Y9440000I240000J0D01*
G01*
X-26127254Y17002199D02*
G75*
G03*
X-25787843Y17002198I169706J169707D01*
G01*
X-27967272Y13040000D02*
G75*
G03*
X-27727300Y13280000I-28J240000D01*
G01*
X-26551520Y16238523D02*
G75*
G03*
X-26551549Y16577906I-169680J169677D01*
G01*
X-27967272Y8240000D02*
G75*
G03*
X-27727300Y8480000I-28J240000D01*
G01*
X-28300000Y14000000D02*
G75*
G02*
X-28060000Y14240000I240000J0D01*
G01*
X-24854472Y17935591D02*
G75*
G03*
X-24854469Y18275006I-169728J169709D01*
G01*
X-24835175Y18764825D02*
G75*
G02*
X-24495764Y18764826I169706J-169707D01*
G01*
X-28060000Y13640000D02*
G75*
G02*
X-28300000Y13880000I0J240000D01*
G01*
X-24920031Y18340562D02*
G75*
G02*
X-24920064Y18680005I169731J169738D01*
G01*
X-26617089Y16643504D02*
G75*
G02*
X-26617080Y16982905I169689J169696D01*
G01*
X-28300000Y8000000D02*
G75*
G02*
X-28060000Y8240000I240000J0D01*
G01*
X-24005972Y18784149D02*
G75*
G03*
X-24005927Y19123606I-169728J169751D01*
G01*
X-28300000Y12800000D02*
G75*
G02*
X-28060000Y13040000I240000J0D01*
G01*
X-26975783Y16153670D02*
G75*
G03*
X-26636372Y16153669I169706J169707D01*
G01*
X-27727272Y14600000D02*
G75*
G03*
X-27967272Y14840028I-240028J0D01*
G01*
X-24430235Y18699296D02*
G75*
G03*
X-24090824Y18699295I169706J169707D01*
G01*
X-26532233Y17067767D02*
G75*
G02*
X-26192822Y17067768I169706J-169707D01*
G01*
X-27727272Y12200000D02*
G75*
G03*
X-27967272Y12440028I-240028J0D01*
G01*
X-28060000Y12440000D02*
G75*
G02*
X-28300000Y12680000I0J240000D01*
G01*
X-27380762Y16219238D02*
G75*
G02*
X-27041351Y16219239I169706J-169707D01*
G01*
X-28300000Y10400000D02*
G75*
G02*
X-28060000Y10640000I240000J0D01*
G01*
X-25768560Y17492033D02*
G75*
G02*
X-25768522Y17831405I169660J169667D01*
G01*
X-27727272Y8600000D02*
G75*
G03*
X-27967272Y8840028I-240028J0D01*
G01*
X-27967272Y9440000D02*
G75*
G03*
X-27727300Y9680000I-28J240000D01*
G01*
X-27967272Y14240000D02*
G75*
G03*
X-27727300Y14480000I-28J240000D01*
G01*
X-25683704Y17916296D02*
G75*
G02*
X-25344293Y17916297I169706J-169707D01*
G01*
X-27967272Y11840000D02*
G75*
G03*
X-27727300Y12080000I-28J240000D01*
G01*
X-28060000Y8840000D02*
G75*
G02*
X-28300000Y9080000I0J240000D01*
G01*
X-28060000Y10040000D02*
G75*
G02*
X-28300000Y10280000I0J240000D01*
G01*
X-28060000Y14840000D02*
G75*
G02*
X-28300000Y15080000I0J240000D01*
G01*
X-24071502Y19189091D02*
G75*
G02*
X-24071506Y19528506I169702J169709D01*
G01*
G04 #@! TO.N,/CON.DB6+*
X-40300000Y1800000D02*
X-40300000Y3200000D01*
G04 #@! TO.N,/CON.C{slash}D-*
X-25660000Y9450091D02*
X-25544985Y9450091D01*
X-13350000Y25200000D02*
X-13350000Y27050000D01*
X-23442792Y14265731D02*
X-23357940Y14350584D01*
X-25560589Y12650000D02*
X-25479262Y12568673D01*
X-25304985Y9690091D02*
X-25304985Y9810091D01*
X-25544985Y8850091D02*
X-25660000Y8850091D01*
X-25136326Y13413678D02*
X-25051472Y13498529D01*
X-22166473Y16044116D02*
X-22085136Y15962779D01*
X-25304985Y8490091D02*
X-25304985Y8610091D01*
X-23863531Y14347058D02*
X-23782204Y14265731D01*
X-25660000Y8250091D02*
X-25544985Y8250091D01*
X-24287797Y14262207D02*
X-24202943Y14347058D01*
X-24712060Y13498529D02*
X-24630752Y13417221D01*
X-22590739Y15959265D02*
X-22505885Y16044116D01*
X-23015002Y15195587D02*
X-22933675Y15114260D01*
X-25900000Y6200000D02*
X-25900000Y8010091D01*
X-25304985Y10890091D02*
X-25304985Y11010091D01*
X-22594263Y15114260D02*
X-22509411Y15199113D01*
X-22505885Y16044116D02*
X-22505884Y16044116D01*
X-23354414Y15195587D02*
X-23354413Y15195587D01*
X-25900000Y9090091D02*
X-25900000Y9210091D01*
X-14409504Y24140496D02*
X-14148515Y24401485D01*
X-24202943Y14347058D02*
X-24202942Y14347058D01*
X-21742211Y16807793D02*
X-21657356Y16892645D01*
X-25051472Y13498529D02*
X-25051471Y13498529D01*
X-25139850Y12568673D02*
X-25054998Y12653526D01*
X-25900000Y11490091D02*
X-25900000Y11610091D01*
X-25544985Y10050091D02*
X-25660000Y10050091D01*
X-21657356Y16892645D02*
X-14409504Y24140496D01*
X-21660873Y16387044D02*
X-21742211Y16468382D01*
X-24206488Y13841486D02*
X-24287797Y13922795D01*
X-23439268Y15110736D02*
X-23354414Y15195587D01*
X-25660000Y10650091D02*
X-25544985Y10650091D01*
X-25054998Y12992938D02*
X-25136326Y13074266D01*
X-25900000Y12260091D02*
X-25900000Y12650000D01*
X-25900000Y10290091D02*
X-25900000Y10410091D01*
X-21745725Y15962779D02*
X-21660873Y16047632D01*
X-23357940Y14689996D02*
X-23439268Y14771324D01*
X-13350000Y27050000D02*
X-12100000Y28300000D01*
X-24291340Y13417221D02*
X-24206488Y13502074D01*
X-22509411Y15538525D02*
X-22590739Y15619853D01*
X-25544985Y11250091D02*
X-25660000Y11250091D01*
X-25900000Y11610091D02*
X-25900000Y12260091D01*
X-14148515Y24401485D02*
X-13350000Y25200000D01*
X-25660000Y10050091D02*
G75*
G02*
X-25900009Y10290091I0J240009D01*
G01*
X-22085136Y15962779D02*
G75*
G03*
X-21745725Y15962779I169705J169707D01*
G01*
X-24202942Y14347058D02*
G75*
G02*
X-23863531Y14347059I169706J-169707D01*
G01*
X-25544985Y10650091D02*
G75*
G03*
X-25304991Y10890091I-15J240009D01*
G01*
X-25900000Y8010091D02*
G75*
G02*
X-25660000Y8250100I240000J9D01*
G01*
X-23354413Y15195587D02*
G75*
G02*
X-23015002Y15195588I169706J-169707D01*
G01*
X-25304985Y8610091D02*
G75*
G03*
X-25544985Y8850115I-240015J9D01*
G01*
X-22933675Y15114260D02*
G75*
G03*
X-22594263Y15114260I169706J169704D01*
G01*
X-25054998Y12653526D02*
G75*
G03*
X-25055030Y12992906I-169702J169674D01*
G01*
X-22505884Y16044116D02*
G75*
G02*
X-22166473Y16044116I169705J-169707D01*
G01*
X-25544985Y9450091D02*
G75*
G03*
X-25304991Y9690091I-15J240009D01*
G01*
X-25479262Y12568673D02*
G75*
G03*
X-25139850Y12568673I169706J169704D01*
G01*
X-24287797Y13922795D02*
G75*
G02*
X-24287796Y14262206I169697J169705D01*
G01*
X-22590739Y15619853D02*
G75*
G02*
X-22590780Y15959306I169739J169747D01*
G01*
X-25304985Y9810091D02*
G75*
G03*
X-25544985Y10050115I-240015J9D01*
G01*
X-21742211Y16468382D02*
G75*
G02*
X-21742224Y16807805I169711J169718D01*
G01*
X-22509411Y15199113D02*
G75*
G03*
X-22509430Y15538506I-169689J169687D01*
G01*
X-23782204Y14265731D02*
G75*
G03*
X-23442792Y14265731I169706J169704D01*
G01*
X-25660000Y8850091D02*
G75*
G02*
X-25900009Y9090091I0J240009D01*
G01*
X-24206488Y13502074D02*
G75*
G03*
X-24206468Y13841506I-169712J169726D01*
G01*
X-25900000Y10410091D02*
G75*
G02*
X-25660000Y10650100I240000J9D01*
G01*
X-25051471Y13498529D02*
G75*
G02*
X-24712060Y13498530I169706J-169707D01*
G01*
X-24630752Y13417221D02*
G75*
G03*
X-24291340Y13417221I169706J169704D01*
G01*
X-25900000Y9210091D02*
G75*
G02*
X-25660000Y9450100I240000J9D01*
G01*
X-25544985Y8250091D02*
G75*
G03*
X-25304991Y8490091I-15J240009D01*
G01*
X-25900000Y12650000D02*
G75*
G02*
X-25560589Y12650001I169706J-169707D01*
G01*
X-21660873Y16047632D02*
G75*
G03*
X-21660911Y16387006I-169727J169668D01*
G01*
X-23357940Y14350584D02*
G75*
G03*
X-23357930Y14690006I-169660J169716D01*
G01*
X-25304985Y11010091D02*
G75*
G03*
X-25544985Y11250115I-240015J9D01*
G01*
X-25660000Y11250091D02*
G75*
G02*
X-25900009Y11490091I0J240009D01*
G01*
X-23439268Y14771324D02*
G75*
G02*
X-23439238Y15110706I169668J169676D01*
G01*
X-25136326Y13074266D02*
G75*
G02*
X-25136354Y13413706I169726J169734D01*
G01*
G04 #@! TO.N,/CON.DB7-*
X-38700000Y15000000D02*
X-39101246Y15401246D01*
X-42470225Y18311412D02*
X-42240818Y18540818D01*
X-40119485Y16419485D02*
X-40119484Y16419484D01*
X-39839792Y15341527D02*
X-39924647Y15426382D01*
X-40314359Y17412555D02*
X-40399214Y17497410D01*
X-41816551Y18116551D02*
X-41816550Y18116550D01*
X-40119484Y16419484D02*
X-40348863Y16190108D01*
X-42834789Y19134788D02*
X-42919640Y19219640D01*
X-39465802Y16564046D02*
X-39550657Y16648901D01*
X-40543752Y16843752D02*
X-40543751Y16843751D01*
X-41587163Y18345938D02*
X-41816551Y18116551D01*
X-48950000Y25250000D02*
X-48950000Y27050000D01*
X-42385368Y17887144D02*
X-42470224Y17972000D01*
X-42011391Y19109655D02*
X-42096244Y19194508D01*
X-40968018Y17268018D02*
X-40968017Y17268017D01*
X-40773130Y16614375D02*
X-40543752Y16843752D01*
X-39695220Y15995220D02*
X-39695218Y15995218D01*
X-41162897Y18261083D02*
X-41247752Y18345938D01*
X-39924647Y15765794D02*
X-39864926Y15825514D01*
X-42435656Y19194508D02*
X-42495377Y19134788D01*
X-48123591Y24423591D02*
X-48950000Y25250000D01*
X-39695218Y15995218D02*
X-39465802Y16224635D01*
X-42240818Y18540818D02*
X-42240817Y18540817D01*
X-40968017Y17268017D02*
X-41197425Y17038612D01*
X-41816550Y18116550D02*
X-42045958Y17887145D01*
X-48950000Y27050000D02*
X-50200000Y28300000D01*
X-41392285Y17692285D02*
X-41392284Y17692284D01*
X-39890068Y16648901D02*
X-40119485Y16419485D01*
X-39440658Y15401246D02*
X-39500380Y15341527D01*
X-40543751Y16843751D02*
X-40314359Y17073144D01*
X-39864926Y15825514D02*
X-39695220Y15995220D01*
X-42919640Y19219640D02*
X-48123591Y24423591D01*
X-40738625Y17497410D02*
X-40968018Y17268018D01*
X-41621692Y17462879D02*
X-41392285Y17692285D01*
X-42071112Y18710523D02*
X-42011391Y18770244D01*
X-38700000Y6200000D02*
X-38700000Y15000000D01*
X-40688273Y16190107D02*
X-40773129Y16274963D01*
X-41392284Y17692284D02*
X-41162897Y17921672D01*
X-41536835Y17038611D02*
X-41621691Y17123467D01*
X-42240817Y18540817D02*
X-42071112Y18710523D01*
X-39500380Y15341527D02*
G75*
G02*
X-39839792Y15341527I-169706J169701D01*
G01*
X-42096244Y19194508D02*
G75*
G03*
X-42435656Y19194508I-169706J-169704D01*
G01*
X-42045958Y17887145D02*
G75*
G02*
X-42385405Y17887107I-169742J169655D01*
G01*
X-41162897Y17921672D02*
G75*
G03*
X-41162874Y18261105I-169703J169728D01*
G01*
X-40314359Y17073144D02*
G75*
G03*
X-40314408Y17412506I-169741J169656D01*
G01*
X-40399214Y17497410D02*
G75*
G03*
X-40738624Y17497410I-169705J-169703D01*
G01*
X-41247752Y18345938D02*
G75*
G03*
X-41587162Y18345938I-169705J-169703D01*
G01*
X-39924647Y15426382D02*
G75*
G02*
X-39924659Y15765806I169747J169718D01*
G01*
X-42470224Y17972000D02*
G75*
G02*
X-42470219Y18311406I169724J169700D01*
G01*
X-39550657Y16648901D02*
G75*
G03*
X-39890067Y16648901I-169705J-169703D01*
G01*
X-41621691Y17123467D02*
G75*
G02*
X-41621719Y17462906I169691J169733D01*
G01*
X-39101246Y15401246D02*
G75*
G03*
X-39440658Y15401246I-169706J-169701D01*
G01*
X-41197425Y17038612D02*
G75*
G02*
X-41536804Y17038641I-169675J169688D01*
G01*
X-40773129Y16274963D02*
G75*
G02*
X-40773161Y16614405I169729J169737D01*
G01*
X-39465802Y16224635D02*
G75*
G03*
X-39465842Y16564005I-169698J169665D01*
G01*
X-40348863Y16190108D02*
G75*
G02*
X-40688304Y16190075I-169737J169692D01*
G01*
X-42495377Y19134788D02*
G75*
G02*
X-42834789Y19134788I-169706J169704D01*
G01*
X-42011391Y18770244D02*
G75*
G03*
X-42011440Y19109605I-169709J169656D01*
G01*
G04 #@! TO.N,/CON.DB1+*
X-45900000Y1800000D02*
X-45900000Y3200000D01*
G04 #@! TO.N,/CON.DP0-*
X-41988457Y20738457D02*
X-41988456Y20738456D01*
X-39018593Y17768593D02*
X-39018591Y17768591D01*
X-40918473Y20111374D02*
X-41139924Y19889924D01*
X-46400000Y25150000D02*
X-46400000Y27040000D01*
X-40494207Y20026519D02*
X-40579062Y20111374D01*
X-38764031Y17174619D02*
X-38815786Y17122867D01*
X-41988456Y20738456D02*
X-42158163Y20568752D01*
X-40852271Y18819921D02*
X-40937127Y18904777D01*
X-39442858Y18192858D02*
X-39442857Y18192857D01*
X-42667279Y21417279D02*
X-45661279Y24411279D01*
X-37900000Y16650000D02*
X-38424619Y17174619D01*
X-39240053Y17547134D02*
X-39188299Y17598887D01*
X-42158163Y20568752D02*
X-42209908Y20517007D01*
X-40291391Y19041391D02*
X-40291390Y19041390D01*
X-40291390Y19041390D02*
X-40512861Y18819922D01*
X-41785651Y20092732D02*
X-41564191Y20314191D01*
X-40003728Y17971398D02*
X-40088584Y18056254D01*
X-39221388Y18414327D02*
X-39442858Y18192858D01*
X-41139924Y19889924D02*
X-41139923Y19889923D01*
X-41766987Y20959926D02*
X-41988457Y20738457D01*
X-41700794Y19668464D02*
X-41785650Y19753320D01*
X-45661279Y24411279D02*
X-46400000Y25150000D01*
X-40069940Y19262841D02*
X-40291391Y19041391D01*
X-40715658Y19465658D02*
X-40715657Y19465657D01*
X-40088585Y18395666D02*
X-39867125Y18617125D01*
X-41564190Y20314190D02*
X-41342721Y20535660D01*
X-42634171Y20941271D02*
X-42582428Y20993017D01*
X-39018591Y17768591D02*
X-38797122Y17990061D01*
X-39155198Y17122867D02*
X-39240053Y17207722D01*
X-40937128Y19244189D02*
X-40715658Y19465658D01*
X-41139923Y19889923D02*
X-41361384Y19668465D01*
X-46400000Y27040000D02*
X-47660000Y28300000D01*
X-42582427Y21332427D02*
X-42667279Y21417279D01*
X-39188299Y17598887D02*
X-39018593Y17768593D01*
X-41342721Y20875071D02*
X-41427576Y20959926D01*
X-39442857Y18192857D02*
X-39664318Y17971399D01*
X-40715657Y19465657D02*
X-40494207Y19687108D01*
X-39867125Y18617125D02*
X-39867124Y18617124D01*
X-37900000Y6200000D02*
X-37900000Y16650000D01*
X-39867124Y18617124D02*
X-39645674Y18838575D01*
X-41564191Y20314191D02*
X-41564190Y20314190D01*
X-38797122Y18329472D02*
X-38881977Y18414327D01*
X-42549318Y20517006D02*
X-42634171Y20601859D01*
X-39645674Y19177986D02*
X-39730529Y19262841D01*
X-42209908Y20517007D02*
G75*
G02*
X-42549304Y20517019I-169692J169693D01*
G01*
X-38881977Y18414327D02*
G75*
G03*
X-39221387Y18414327I-169705J-169703D01*
G01*
X-40579062Y20111374D02*
G75*
G03*
X-40918474Y20111375I-169706J-169703D01*
G01*
X-38797122Y17990061D02*
G75*
G03*
X-38797088Y18329506I-169678J169739D01*
G01*
X-40494207Y19687108D02*
G75*
G03*
X-40494220Y20026505I-169693J169692D01*
G01*
X-41361384Y19668465D02*
G75*
G02*
X-41700804Y19668453I-169716J169735D01*
G01*
X-42634171Y20601859D02*
G75*
G02*
X-42634206Y20941306I169671J169741D01*
G01*
X-40937127Y18904777D02*
G75*
G02*
X-40937145Y19244205I169727J169723D01*
G01*
X-38424619Y17174619D02*
G75*
G03*
X-38764031Y17174619I-169706J-169701D01*
G01*
X-39645674Y18838575D02*
G75*
G03*
X-39645654Y19178005I-169726J169725D01*
G01*
X-38815786Y17122867D02*
G75*
G02*
X-39155198Y17122867I-169706J169701D01*
G01*
X-41342721Y20535660D02*
G75*
G03*
X-41342686Y20875106I-169679J169740D01*
G01*
X-39240053Y17207722D02*
G75*
G02*
X-39240025Y17547106I169753J169678D01*
G01*
X-40088584Y18056254D02*
G75*
G02*
X-40088625Y18395706I169684J169746D01*
G01*
X-41427576Y20959926D02*
G75*
G03*
X-41766988Y20959927I-169706J-169703D01*
G01*
X-42582428Y20993017D02*
G75*
G03*
X-42582449Y21332404I-169672J169683D01*
G01*
X-41785650Y19753320D02*
G75*
G02*
X-41785625Y20092706I169750J169680D01*
G01*
X-39730529Y19262841D02*
G75*
G03*
X-40069939Y19262841I-169705J-169703D01*
G01*
X-40512861Y18819922D02*
G75*
G02*
X-40852305Y18819887I-169739J169678D01*
G01*
X-39664318Y17971399D02*
G75*
G02*
X-40003704Y17971421I-169682J169701D01*
G01*
G04 #@! TO.N,/CON.DB2+*
X-45100000Y1800001D02*
X-45100000Y3200000D01*
G04 #@! TO.N,/CON.DB0+*
X-47500000Y1800000D02*
X-47500000Y3200000D01*
D22*
G04 #@! TO.N,Net-(U1-E0)*
X-62900000Y1700000D02*
X-62150000Y2450000D01*
X-64850001Y2600000D02*
X-64350000Y2600000D01*
X-64350000Y2600000D02*
X-64350000Y2000000D01*
X-64050000Y1700000D02*
X-62900000Y1700000D01*
X-64350000Y2000000D02*
X-64050000Y1700000D01*
X-62150000Y2450000D02*
X-62150000Y3150000D01*
G04 #@! TD*
G04 #@! TA.AperFunction,Conductor*
G04 #@! TO.N,GND*
G36*
X-3998800Y33799442D02*
G01*
X-3629980Y33781322D01*
X-3625219Y33780854D01*
X-3261123Y33726846D01*
X-3256433Y33725913D01*
X-2963065Y33652428D01*
X-2899399Y33636480D01*
X-2894797Y33635084D01*
X-2781323Y33594483D01*
X-2548244Y33511085D01*
X-2543817Y33509251D01*
X-2211103Y33351889D01*
X-2206878Y33349632D01*
X-2015692Y33235039D01*
X-1891172Y33160404D01*
X-1887174Y33157732D01*
X-1739367Y33048111D01*
X-1591555Y32938486D01*
X-1587843Y32935440D01*
X-1315133Y32688269D01*
X-1311732Y32684868D01*
X-1064561Y32412158D01*
X-1061511Y32408441D01*
X-842269Y32112827D01*
X-839597Y32108829D01*
X-650374Y31793131D01*
X-648108Y31788890D01*
X-490754Y31456192D01*
X-488913Y31451750D01*
X-364917Y31105204D01*
X-363521Y31100602D01*
X-274091Y30743581D01*
X-273153Y30738865D01*
X-219149Y30374794D01*
X-218678Y30370008D01*
X-200559Y30001201D01*
X-200500Y29998797D01*
X-200500Y21699000D01*
X-214852Y21664352D01*
X-249500Y21650000D01*
X-2500000Y21650000D01*
X-2500000Y12450000D01*
X-249500Y12450000D01*
X-214852Y12435648D01*
X-200500Y12401000D01*
X-200500Y4001204D01*
X-200559Y3998800D01*
X-218678Y3629993D01*
X-219149Y3625207D01*
X-273153Y3261136D01*
X-274091Y3256420D01*
X-363521Y2899399D01*
X-364917Y2894797D01*
X-488913Y2548251D01*
X-490754Y2543809D01*
X-648108Y2211111D01*
X-650374Y2206870D01*
X-839597Y1891172D01*
X-842269Y1887174D01*
X-1061511Y1591560D01*
X-1064561Y1587843D01*
X-1311732Y1315133D01*
X-1315133Y1311732D01*
X-1587843Y1064561D01*
X-1591560Y1061511D01*
X-1887174Y842269D01*
X-1891172Y839597D01*
X-2206870Y650374D01*
X-2211111Y648108D01*
X-2543809Y490754D01*
X-2548251Y488913D01*
X-2894797Y364917D01*
X-2899399Y363521D01*
X-3256420Y274091D01*
X-3261136Y273153D01*
X-3625207Y219149D01*
X-3629993Y218678D01*
X-3998799Y200559D01*
X-4001203Y200500D01*
X-18227296Y200500D01*
X-18261944Y214852D01*
X-18276296Y249500D01*
X-18261944Y284148D01*
X-18252646Y291433D01*
X-18245666Y295653D01*
X-18164815Y344529D01*
X-18044528Y464816D01*
X-17956522Y610395D01*
X-17944868Y647795D01*
X-17905915Y772800D01*
X-17905915Y772803D01*
X-17905914Y772805D01*
X-17899500Y843385D01*
X-17899500Y2756617D01*
X-17905914Y2827197D01*
X-17905915Y2827200D01*
X-17905915Y2827203D01*
X-17956521Y2989605D01*
X-17956521Y2989606D01*
X-18044528Y3135186D01*
X-18164816Y3255474D01*
X-18310396Y3343481D01*
X-18472799Y3394087D01*
X-18507544Y3397244D01*
X-18543384Y3400501D01*
X-18856616Y3400501D01*
X-18891906Y3397294D01*
X-18927202Y3394087D01*
X-19085425Y3344783D01*
X-19114579Y3344783D01*
X-19272799Y3394086D01*
X-19307555Y3397244D01*
X-19343384Y3400500D01*
X-19656616Y3400500D01*
X-19691906Y3397293D01*
X-19727202Y3394086D01*
X-19889604Y3343480D01*
X-19889605Y3343480D01*
X-20035185Y3255473D01*
X-20155473Y3135185D01*
X-20243479Y2989606D01*
X-20253219Y2958348D01*
X-20277229Y2929539D01*
X-20314578Y2926145D01*
X-20343387Y2950155D01*
X-20346781Y2958348D01*
X-20356522Y2989606D01*
X-20444528Y3135185D01*
X-20564816Y3255473D01*
X-20710396Y3343480D01*
X-20872799Y3394086D01*
X-20907555Y3397244D01*
X-20943384Y3400500D01*
X-21256616Y3400500D01*
X-21291906Y3397293D01*
X-21327202Y3394086D01*
X-21485423Y3344783D01*
X-21514577Y3344783D01*
X-21672799Y3394086D01*
X-21707555Y3397244D01*
X-21743384Y3400500D01*
X-22056616Y3400500D01*
X-22091906Y3397293D01*
X-22127202Y3394086D01*
X-22289604Y3343480D01*
X-22289605Y3343480D01*
X-22435185Y3255473D01*
X-22555473Y3135185D01*
X-22643479Y2989606D01*
X-22653219Y2958348D01*
X-22677229Y2929539D01*
X-22714578Y2926145D01*
X-22743387Y2950155D01*
X-22746781Y2958348D01*
X-22756522Y2989606D01*
X-22816733Y3089207D01*
X-22823800Y3114557D01*
X-22823800Y3266599D01*
X-22823801Y3266606D01*
X-22849784Y3397231D01*
X-22849787Y3397242D01*
X-22858822Y3419054D01*
X-22900759Y3520301D01*
X-22960506Y3609718D01*
X-22974759Y3631050D01*
X-23068951Y3725242D01*
X-23135338Y3769600D01*
X-23179699Y3799241D01*
X-23179702Y3799243D01*
X-23179703Y3799243D01*
X-23302759Y3850214D01*
X-23302770Y3850217D01*
X-23433395Y3876200D01*
X-23433400Y3876200D01*
X-23566600Y3876200D01*
X-23566606Y3876200D01*
X-23697231Y3850217D01*
X-23697242Y3850214D01*
X-23820299Y3799243D01*
X-23820303Y3799241D01*
X-23872778Y3764178D01*
X-23909560Y3756862D01*
X-23927222Y3764178D01*
X-23979698Y3799241D01*
X-23979702Y3799243D01*
X-24102759Y3850214D01*
X-24102770Y3850217D01*
X-24233395Y3876200D01*
X-24233400Y3876200D01*
X-24366600Y3876200D01*
X-24366606Y3876200D01*
X-24497231Y3850217D01*
X-24497242Y3850214D01*
X-24620298Y3799243D01*
X-24731050Y3725242D01*
X-24825242Y3631050D01*
X-24899243Y3520298D01*
X-24950214Y3397242D01*
X-24950217Y3397231D01*
X-24976200Y3266606D01*
X-24976200Y3114558D01*
X-24983267Y3089208D01*
X-25043479Y2989608D01*
X-25053220Y2958347D01*
X-25077230Y2929538D01*
X-25114580Y2926145D01*
X-25143389Y2950155D01*
X-25146781Y2958346D01*
X-25156522Y2989606D01*
X-25216733Y3089207D01*
X-25223800Y3114557D01*
X-25223800Y3266599D01*
X-25223801Y3266606D01*
X-25249784Y3397231D01*
X-25249787Y3397242D01*
X-25258822Y3419054D01*
X-25300759Y3520301D01*
X-25360506Y3609718D01*
X-25374759Y3631050D01*
X-25468951Y3725242D01*
X-25535338Y3769600D01*
X-25579699Y3799241D01*
X-25579702Y3799243D01*
X-25579703Y3799243D01*
X-25702759Y3850214D01*
X-25702770Y3850217D01*
X-25833395Y3876200D01*
X-25833400Y3876200D01*
X-25966600Y3876200D01*
X-25966606Y3876200D01*
X-26097231Y3850217D01*
X-26097242Y3850214D01*
X-26220299Y3799243D01*
X-26220303Y3799241D01*
X-26272778Y3764178D01*
X-26309560Y3756862D01*
X-26327222Y3764178D01*
X-26379698Y3799241D01*
X-26379702Y3799243D01*
X-26502759Y3850214D01*
X-26502770Y3850217D01*
X-26633395Y3876200D01*
X-26633400Y3876200D01*
X-26766600Y3876200D01*
X-26766606Y3876200D01*
X-26897231Y3850217D01*
X-26897242Y3850214D01*
X-27020298Y3799243D01*
X-27131050Y3725242D01*
X-27225242Y3631050D01*
X-27299243Y3520298D01*
X-27350214Y3397242D01*
X-27350217Y3397231D01*
X-27376200Y3266606D01*
X-27376200Y3114557D01*
X-27383267Y3089207D01*
X-27443479Y2989606D01*
X-27453220Y2958346D01*
X-27477230Y2929536D01*
X-27514579Y2926143D01*
X-27543389Y2950153D01*
X-27546781Y2958343D01*
X-27556523Y2989606D01*
X-27561348Y2997587D01*
X-27616734Y3089207D01*
X-27623801Y3114557D01*
X-27623801Y3130969D01*
X-27623800Y3130990D01*
X-27623800Y3266599D01*
X-27623801Y3266606D01*
X-27649784Y3397229D01*
X-27649786Y3397240D01*
X-27700760Y3520301D01*
X-27774761Y3631052D01*
X-27868948Y3725239D01*
X-27979699Y3799240D01*
X-27979702Y3799242D01*
X-27979703Y3799242D01*
X-28102757Y3850213D01*
X-28102759Y3850214D01*
X-28102760Y3850214D01*
X-28102763Y3850215D01*
X-28102772Y3850217D01*
X-28233395Y3876200D01*
X-28233400Y3876200D01*
X-28366601Y3876200D01*
X-28366607Y3876200D01*
X-28497230Y3850217D01*
X-28497245Y3850213D01*
X-28584258Y3814170D01*
X-28620307Y3799238D01*
X-28664664Y3769600D01*
X-28664664Y3769599D01*
X-28672779Y3764177D01*
X-28709562Y3756862D01*
X-28727224Y3764178D01*
X-28779700Y3799242D01*
X-28902759Y3850214D01*
X-28902770Y3850217D01*
X-29033395Y3876200D01*
X-29033400Y3876200D01*
X-29166600Y3876200D01*
X-29166606Y3876200D01*
X-29297231Y3850217D01*
X-29297242Y3850214D01*
X-29420298Y3799243D01*
X-29531050Y3725242D01*
X-29625242Y3631050D01*
X-29699243Y3520298D01*
X-29750214Y3397242D01*
X-29750217Y3397231D01*
X-29776200Y3266606D01*
X-29776200Y3114557D01*
X-29783267Y3089207D01*
X-29843479Y2989606D01*
X-29853219Y2958348D01*
X-29877229Y2929539D01*
X-29914578Y2926145D01*
X-29943387Y2950155D01*
X-29946781Y2958348D01*
X-29956522Y2989606D01*
X-30016733Y3089207D01*
X-30023800Y3114557D01*
X-30023800Y3266599D01*
X-30023801Y3266606D01*
X-30049784Y3397231D01*
X-30049787Y3397242D01*
X-30058822Y3419054D01*
X-30100759Y3520301D01*
X-30160506Y3609718D01*
X-30174759Y3631050D01*
X-30268951Y3725242D01*
X-30335338Y3769600D01*
X-30379699Y3799241D01*
X-30379702Y3799243D01*
X-30379703Y3799243D01*
X-30502759Y3850214D01*
X-30502770Y3850217D01*
X-30633395Y3876200D01*
X-30633400Y3876200D01*
X-30766600Y3876200D01*
X-30766606Y3876200D01*
X-30897231Y3850217D01*
X-30897242Y3850214D01*
X-31020299Y3799243D01*
X-31020303Y3799241D01*
X-31072778Y3764178D01*
X-31109560Y3756862D01*
X-31127222Y3764178D01*
X-31179698Y3799241D01*
X-31179702Y3799243D01*
X-31302759Y3850214D01*
X-31302770Y3850217D01*
X-31433395Y3876200D01*
X-31433400Y3876200D01*
X-31566600Y3876200D01*
X-31566606Y3876200D01*
X-31697231Y3850217D01*
X-31697242Y3850214D01*
X-31820298Y3799243D01*
X-31931050Y3725242D01*
X-32025242Y3631050D01*
X-32099243Y3520298D01*
X-32150214Y3397242D01*
X-32150217Y3397231D01*
X-32176200Y3266606D01*
X-32176200Y3114557D01*
X-32183267Y3089207D01*
X-32243479Y2989606D01*
X-32253219Y2958348D01*
X-32277229Y2929539D01*
X-32314578Y2926145D01*
X-32343387Y2950155D01*
X-32346781Y2958348D01*
X-32356522Y2989606D01*
X-32416733Y3089207D01*
X-32423800Y3114557D01*
X-32423800Y3266599D01*
X-32423801Y3266606D01*
X-32449784Y3397231D01*
X-32449787Y3397242D01*
X-32458822Y3419054D01*
X-32500759Y3520301D01*
X-32560506Y3609718D01*
X-32574759Y3631050D01*
X-32668951Y3725242D01*
X-32735338Y3769600D01*
X-32779699Y3799241D01*
X-32779702Y3799243D01*
X-32779703Y3799243D01*
X-32902759Y3850214D01*
X-32902770Y3850217D01*
X-33033395Y3876200D01*
X-33033400Y3876200D01*
X-33166600Y3876200D01*
X-33166606Y3876200D01*
X-33297231Y3850217D01*
X-33297242Y3850214D01*
X-33420298Y3799243D01*
X-33531050Y3725242D01*
X-33625242Y3631050D01*
X-33699243Y3520298D01*
X-33750214Y3397242D01*
X-33750217Y3397231D01*
X-33776200Y3266606D01*
X-33776200Y3114557D01*
X-33783267Y3089207D01*
X-33843480Y2989605D01*
X-33843480Y2989604D01*
X-33894086Y2827202D01*
X-33897585Y2788698D01*
X-33900500Y2756616D01*
X-33900500Y843384D01*
X-33899284Y830008D01*
X-33894086Y772799D01*
X-33843480Y610397D01*
X-33843480Y610396D01*
X-33755473Y464816D01*
X-33635185Y344528D01*
X-33547356Y291433D01*
X-33525130Y261226D01*
X-33530773Y224150D01*
X-33560980Y201924D01*
X-33572706Y200500D01*
X-37427294Y200500D01*
X-37461942Y214852D01*
X-37476294Y249500D01*
X-37461942Y284148D01*
X-37452644Y291433D01*
X-37426143Y307455D01*
X-37364815Y344528D01*
X-37244528Y464815D01*
X-37156522Y610394D01*
X-37144868Y647794D01*
X-37105915Y772799D01*
X-37105915Y772802D01*
X-37105914Y772804D01*
X-37099500Y843384D01*
X-37099500Y2756616D01*
X-37105914Y2827196D01*
X-37105915Y2827199D01*
X-37105915Y2827202D01*
X-37156521Y2989604D01*
X-37156521Y2989605D01*
X-37216733Y3089207D01*
X-37223800Y3114557D01*
X-37223800Y3200000D01*
X-36730804Y3200000D01*
X-36709719Y3066874D01*
X-36709719Y3066873D01*
X-36709718Y3066872D01*
X-36705841Y3059263D01*
X-36700500Y3037017D01*
X-36700500Y855142D01*
X-36700499Y855132D01*
X-36697585Y830008D01*
X-36652206Y727234D01*
X-36572767Y647795D01*
X-36469994Y602416D01*
X-36469991Y602415D01*
X-36444865Y599500D01*
X-36155136Y599501D01*
X-36130009Y602415D01*
X-36027235Y647794D01*
X-35947794Y727235D01*
X-35944826Y733959D01*
X-35917703Y759858D01*
X-35880210Y758994D01*
X-35855175Y733960D01*
X-35852206Y727235D01*
X-35772767Y647796D01*
X-35772766Y647796D01*
X-35772765Y647795D01*
X-35669991Y602416D01*
X-35661846Y601472D01*
X-35645252Y596459D01*
X-35633126Y590281D01*
X-35500000Y569196D01*
X-35366874Y590281D01*
X-35354752Y596459D01*
X-35338154Y601472D01*
X-35330009Y602416D01*
X-35227235Y647795D01*
X-35147794Y727236D01*
X-35144826Y733958D01*
X-35117706Y759858D01*
X-35080213Y758995D01*
X-35055177Y733962D01*
X-35052207Y727235D01*
X-34972767Y647795D01*
X-34972766Y647795D01*
X-34972765Y647794D01*
X-34869991Y602415D01*
X-34861844Y601470D01*
X-34845243Y596455D01*
X-34833126Y590281D01*
X-34700000Y569196D01*
X-34566874Y590281D01*
X-34554757Y596456D01*
X-34538155Y601471D01*
X-34530009Y602415D01*
X-34427235Y647794D01*
X-34347794Y727235D01*
X-34302415Y830009D01*
X-34301470Y838158D01*
X-34296455Y854758D01*
X-34290281Y866874D01*
X-34269196Y1000000D01*
X-34290281Y1133126D01*
X-34294161Y1140741D01*
X-34299501Y1162986D01*
X-34299501Y1637015D01*
X-34294160Y1659261D01*
X-34290282Y1666872D01*
X-34290282Y1666873D01*
X-34290281Y1666874D01*
X-34269196Y1800000D01*
X-34290281Y1933126D01*
X-34294161Y1940741D01*
X-34299501Y1962986D01*
X-34299501Y2437015D01*
X-34294160Y2459261D01*
X-34290282Y2466872D01*
X-34290282Y2466873D01*
X-34290281Y2466874D01*
X-34269196Y2600000D01*
X-34290281Y2733126D01*
X-34296459Y2745249D01*
X-34301471Y2761846D01*
X-34302415Y2769991D01*
X-34347794Y2872765D01*
X-34347795Y2872766D01*
X-34347795Y2872767D01*
X-34427234Y2952206D01*
X-34427233Y2952206D01*
X-34511936Y2989605D01*
X-34530009Y2997585D01*
X-34530011Y2997586D01*
X-34530017Y2997587D01*
X-34538161Y2998532D01*
X-34554756Y3003545D01*
X-34566873Y3009719D01*
X-34633437Y3020262D01*
X-34700000Y3030804D01*
X-34700001Y3030804D01*
X-34833123Y3009720D01*
X-34833124Y3009720D01*
X-34845249Y3003543D01*
X-34861839Y2998532D01*
X-34869988Y2997586D01*
X-34869993Y2997585D01*
X-34972767Y2952206D01*
X-35052206Y2872766D01*
X-35052208Y2872765D01*
X-35055176Y2866041D01*
X-35082300Y2840142D01*
X-35119793Y2841010D01*
X-35144825Y2866042D01*
X-35147795Y2872768D01*
X-35227234Y2952207D01*
X-35227233Y2952207D01*
X-35330007Y2997586D01*
X-35330013Y2997588D01*
X-35338163Y2998533D01*
X-35354758Y3003546D01*
X-35366873Y3009719D01*
X-35433437Y3020262D01*
X-35500000Y3030804D01*
X-35500001Y3030804D01*
X-35633126Y3009720D01*
X-35645246Y3003545D01*
X-35661838Y2998533D01*
X-35669987Y2997588D01*
X-35669993Y2997586D01*
X-35772767Y2952207D01*
X-35815852Y2909121D01*
X-35850500Y2894769D01*
X-35885148Y2909121D01*
X-35899500Y2943769D01*
X-35899500Y3037017D01*
X-35894159Y3059263D01*
X-35892064Y3063375D01*
X-35890281Y3066874D01*
X-35869196Y3200000D01*
X-35890281Y3333126D01*
X-35910678Y3373158D01*
X-35951468Y3453214D01*
X-35951473Y3453221D01*
X-36046780Y3548528D01*
X-36046787Y3548533D01*
X-36166872Y3609718D01*
X-36166873Y3609719D01*
X-36166874Y3609719D01*
X-36300000Y3630804D01*
X-36433126Y3609719D01*
X-36433128Y3609719D01*
X-36433129Y3609718D01*
X-36553214Y3548533D01*
X-36553221Y3548528D01*
X-36648528Y3453221D01*
X-36648533Y3453214D01*
X-36709718Y3333129D01*
X-36709719Y3333128D01*
X-36709719Y3333126D01*
X-36730804Y3200000D01*
X-37223800Y3200000D01*
X-37223800Y3266599D01*
X-37223801Y3266606D01*
X-37249784Y3397231D01*
X-37249787Y3397242D01*
X-37258822Y3419054D01*
X-37300759Y3520301D01*
X-37360506Y3609718D01*
X-37374759Y3631050D01*
X-37468951Y3725242D01*
X-37535338Y3769600D01*
X-37579699Y3799241D01*
X-37579702Y3799243D01*
X-37579703Y3799243D01*
X-37702759Y3850214D01*
X-37702770Y3850217D01*
X-37833395Y3876200D01*
X-37833400Y3876200D01*
X-37966600Y3876200D01*
X-37966606Y3876200D01*
X-38097231Y3850217D01*
X-38097242Y3850214D01*
X-38220299Y3799243D01*
X-38220303Y3799241D01*
X-38272778Y3764178D01*
X-38309560Y3756862D01*
X-38327222Y3764178D01*
X-38379698Y3799241D01*
X-38379702Y3799243D01*
X-38502759Y3850214D01*
X-38502770Y3850217D01*
X-38633395Y3876200D01*
X-38633400Y3876200D01*
X-38766600Y3876200D01*
X-38766606Y3876200D01*
X-38897231Y3850217D01*
X-38897242Y3850214D01*
X-39020298Y3799243D01*
X-39131050Y3725242D01*
X-39225242Y3631050D01*
X-39299243Y3520298D01*
X-39350214Y3397242D01*
X-39350217Y3397231D01*
X-39376200Y3266606D01*
X-39376200Y3114557D01*
X-39383267Y3089207D01*
X-39443479Y2989606D01*
X-39453219Y2958348D01*
X-39477229Y2929539D01*
X-39514578Y2926145D01*
X-39543387Y2950155D01*
X-39546781Y2958348D01*
X-39556522Y2989606D01*
X-39616733Y3089207D01*
X-39623800Y3114557D01*
X-39623800Y3266599D01*
X-39623801Y3266606D01*
X-39649784Y3397231D01*
X-39649787Y3397242D01*
X-39658822Y3419054D01*
X-39700759Y3520301D01*
X-39760506Y3609718D01*
X-39774759Y3631050D01*
X-39868951Y3725242D01*
X-39935338Y3769600D01*
X-39979699Y3799241D01*
X-39979702Y3799243D01*
X-39979703Y3799243D01*
X-40102759Y3850214D01*
X-40102770Y3850217D01*
X-40233395Y3876200D01*
X-40233400Y3876200D01*
X-40366600Y3876200D01*
X-40366606Y3876200D01*
X-40497231Y3850217D01*
X-40497242Y3850214D01*
X-40620302Y3799241D01*
X-40672778Y3764178D01*
X-40709561Y3756862D01*
X-40727224Y3764178D01*
X-40759352Y3785645D01*
X-40779698Y3799240D01*
X-40779701Y3799242D01*
X-40830672Y3820354D01*
X-40830673Y3820355D01*
X-40902753Y3850212D01*
X-40902759Y3850214D01*
X-40902760Y3850214D01*
X-40902763Y3850215D01*
X-40902772Y3850217D01*
X-41033395Y3876200D01*
X-41033400Y3876200D01*
X-41166600Y3876200D01*
X-41166606Y3876200D01*
X-41297229Y3850217D01*
X-41297244Y3850213D01*
X-41420298Y3799242D01*
X-41531052Y3725240D01*
X-41625240Y3631052D01*
X-41699242Y3520298D01*
X-41750213Y3397244D01*
X-41750217Y3397229D01*
X-41776200Y3266606D01*
X-41776200Y3130991D01*
X-41776199Y3130970D01*
X-41776199Y3114557D01*
X-41783266Y3089207D01*
X-41843478Y2989606D01*
X-41853219Y2958346D01*
X-41877229Y2929536D01*
X-41914578Y2926143D01*
X-41943388Y2950153D01*
X-41946780Y2958343D01*
X-41956522Y2989606D01*
X-41961347Y2997587D01*
X-42016733Y3089207D01*
X-42023800Y3114557D01*
X-42023800Y3266599D01*
X-42023801Y3266606D01*
X-42049784Y3397231D01*
X-42049787Y3397242D01*
X-42058822Y3419054D01*
X-42100759Y3520301D01*
X-42160506Y3609718D01*
X-42174759Y3631050D01*
X-42268951Y3725242D01*
X-42335338Y3769600D01*
X-42379699Y3799241D01*
X-42379702Y3799243D01*
X-42379703Y3799243D01*
X-42502759Y3850214D01*
X-42502770Y3850217D01*
X-42633395Y3876200D01*
X-42633400Y3876200D01*
X-42766600Y3876200D01*
X-42766606Y3876200D01*
X-42897231Y3850217D01*
X-42897242Y3850214D01*
X-43020299Y3799243D01*
X-43020303Y3799241D01*
X-43072778Y3764178D01*
X-43109560Y3756862D01*
X-43127222Y3764178D01*
X-43179698Y3799241D01*
X-43179702Y3799243D01*
X-43302759Y3850214D01*
X-43302770Y3850217D01*
X-43433395Y3876200D01*
X-43433400Y3876200D01*
X-43566600Y3876200D01*
X-43566606Y3876200D01*
X-43697231Y3850217D01*
X-43697242Y3850214D01*
X-43820298Y3799243D01*
X-43931050Y3725242D01*
X-44025242Y3631050D01*
X-44099243Y3520298D01*
X-44150214Y3397242D01*
X-44150217Y3397231D01*
X-44176200Y3266606D01*
X-44176200Y3114557D01*
X-44183267Y3089207D01*
X-44243479Y2989606D01*
X-44253219Y2958348D01*
X-44277229Y2929539D01*
X-44314578Y2926145D01*
X-44343387Y2950155D01*
X-44346781Y2958349D01*
X-44356521Y2989605D01*
X-44356521Y2989606D01*
X-44416733Y3089208D01*
X-44423800Y3114558D01*
X-44423800Y3266599D01*
X-44423801Y3266606D01*
X-44449784Y3397231D01*
X-44449787Y3397242D01*
X-44458822Y3419054D01*
X-44500759Y3520301D01*
X-44560506Y3609718D01*
X-44574759Y3631050D01*
X-44668951Y3725242D01*
X-44735338Y3769600D01*
X-44779699Y3799241D01*
X-44779702Y3799243D01*
X-44779703Y3799243D01*
X-44902759Y3850214D01*
X-44902770Y3850217D01*
X-45033395Y3876200D01*
X-45033400Y3876200D01*
X-45166600Y3876200D01*
X-45166606Y3876200D01*
X-45297231Y3850217D01*
X-45297242Y3850214D01*
X-45420299Y3799243D01*
X-45420303Y3799241D01*
X-45472778Y3764178D01*
X-45509560Y3756862D01*
X-45527222Y3764178D01*
X-45579698Y3799241D01*
X-45579702Y3799243D01*
X-45702759Y3850214D01*
X-45702770Y3850217D01*
X-45833395Y3876200D01*
X-45833400Y3876200D01*
X-45966600Y3876200D01*
X-45966606Y3876200D01*
X-46097231Y3850217D01*
X-46097242Y3850214D01*
X-46220298Y3799243D01*
X-46331050Y3725242D01*
X-46425242Y3631050D01*
X-46499243Y3520298D01*
X-46550214Y3397242D01*
X-46550217Y3397231D01*
X-46576200Y3266606D01*
X-46576200Y3114557D01*
X-46583267Y3089207D01*
X-46643479Y2989606D01*
X-46653219Y2958348D01*
X-46677229Y2929539D01*
X-46714578Y2926145D01*
X-46743387Y2950155D01*
X-46746781Y2958348D01*
X-46756522Y2989606D01*
X-46816733Y3089207D01*
X-46823800Y3114557D01*
X-46823800Y3266599D01*
X-46823801Y3266606D01*
X-46849784Y3397231D01*
X-46849787Y3397242D01*
X-46858822Y3419054D01*
X-46900759Y3520301D01*
X-46960506Y3609718D01*
X-46974759Y3631050D01*
X-47068951Y3725242D01*
X-47135338Y3769600D01*
X-47179699Y3799241D01*
X-47179702Y3799243D01*
X-47179703Y3799243D01*
X-47302759Y3850214D01*
X-47302770Y3850217D01*
X-47433395Y3876200D01*
X-47433400Y3876200D01*
X-47566600Y3876200D01*
X-47566606Y3876200D01*
X-47697231Y3850217D01*
X-47697242Y3850214D01*
X-47820298Y3799243D01*
X-47931050Y3725242D01*
X-48025242Y3631050D01*
X-48099241Y3520302D01*
X-48136335Y3430748D01*
X-48162854Y3404230D01*
X-48181605Y3400500D01*
X-48456616Y3400500D01*
X-48491906Y3397293D01*
X-48527202Y3394086D01*
X-48689604Y3343480D01*
X-48689605Y3343480D01*
X-48835185Y3255473D01*
X-48955473Y3135185D01*
X-49043479Y2989606D01*
X-49053219Y2958348D01*
X-49077229Y2929539D01*
X-49114578Y2926145D01*
X-49143387Y2950155D01*
X-49146781Y2958348D01*
X-49156522Y2989606D01*
X-49244528Y3135185D01*
X-49364816Y3255473D01*
X-49510396Y3343480D01*
X-49672799Y3394086D01*
X-49707555Y3397244D01*
X-49743384Y3400500D01*
X-50056616Y3400500D01*
X-50091906Y3397293D01*
X-50127202Y3394086D01*
X-50285421Y3344783D01*
X-50314575Y3344783D01*
X-50472799Y3394087D01*
X-50507544Y3397244D01*
X-50543384Y3400501D01*
X-50856616Y3400501D01*
X-50891906Y3397294D01*
X-50927202Y3394087D01*
X-51089604Y3343481D01*
X-51089605Y3343481D01*
X-51235185Y3255474D01*
X-51355473Y3135186D01*
X-51443479Y2989607D01*
X-51453219Y2958350D01*
X-51477229Y2929540D01*
X-51514578Y2926147D01*
X-51543388Y2950157D01*
X-51546781Y2958351D01*
X-51556520Y2989604D01*
X-51556520Y2989605D01*
X-51644527Y3135185D01*
X-51764815Y3255473D01*
X-51910395Y3343480D01*
X-52072798Y3394086D01*
X-52107554Y3397244D01*
X-52143383Y3400500D01*
X-52456615Y3400500D01*
X-52491905Y3397293D01*
X-52527201Y3394086D01*
X-52685423Y3344782D01*
X-52714577Y3344782D01*
X-52872799Y3394086D01*
X-52907555Y3397244D01*
X-52943384Y3400500D01*
X-53256616Y3400500D01*
X-53291906Y3397293D01*
X-53327202Y3394086D01*
X-53489604Y3343480D01*
X-53489605Y3343480D01*
X-53635185Y3255473D01*
X-53755473Y3135185D01*
X-53843480Y2989605D01*
X-53843480Y2989604D01*
X-53894086Y2827202D01*
X-53897585Y2788698D01*
X-53900500Y2756616D01*
X-53900500Y843384D01*
X-53899284Y830008D01*
X-53894086Y772799D01*
X-53843480Y610397D01*
X-53843480Y610396D01*
X-53755473Y464816D01*
X-53635185Y344528D01*
X-53547356Y291433D01*
X-53525130Y261226D01*
X-53530773Y224150D01*
X-53560980Y201924D01*
X-53572706Y200500D01*
X-70998797Y200500D01*
X-71001201Y200559D01*
X-71370008Y218678D01*
X-71374794Y219149D01*
X-71738865Y273153D01*
X-71743581Y274091D01*
X-72100602Y363521D01*
X-72105204Y364917D01*
X-72451750Y488913D01*
X-72456192Y490754D01*
X-72788890Y648108D01*
X-72793131Y650374D01*
X-72832312Y673858D01*
X-72921364Y727234D01*
X-73108829Y839597D01*
X-73112827Y842269D01*
X-73408441Y1061511D01*
X-73412158Y1064561D01*
X-73684868Y1311732D01*
X-73688269Y1315133D01*
X-73935440Y1587843D01*
X-73938490Y1591560D01*
X-73972202Y1637015D01*
X-74053974Y1747272D01*
X-74157732Y1887174D01*
X-74160404Y1891172D01*
X-74234535Y2014852D01*
X-74349632Y2206878D01*
X-74351889Y2211103D01*
X-74509251Y2543817D01*
X-74511088Y2548251D01*
X-74514180Y2556892D01*
X-74625668Y2868481D01*
X-74628891Y2877488D01*
X-65200501Y2877488D01*
X-65200501Y2322512D01*
X-65186148Y2250354D01*
X-65186147Y2250353D01*
X-65131474Y2168528D01*
X-65098699Y2146629D01*
X-65049647Y2113853D01*
X-64977489Y2099500D01*
X-64977486Y2099500D01*
X-64722513Y2099500D01*
X-64709061Y2102176D01*
X-64672278Y2094861D01*
X-64651442Y2063679D01*
X-64650500Y2054118D01*
X-64650500Y1960437D01*
X-64630021Y1884011D01*
X-64630021Y1884009D01*
X-64604454Y1839727D01*
X-64590749Y1815989D01*
X-64590460Y1815489D01*
X-64590458Y1815486D01*
X-64434233Y1659262D01*
X-64290460Y1515489D01*
X-64234511Y1459540D01*
X-64165989Y1419979D01*
X-64130522Y1410476D01*
X-64089564Y1399500D01*
X-64089562Y1399500D01*
X-62860436Y1399500D01*
X-62833770Y1406646D01*
X-62784011Y1419979D01*
X-62715489Y1459540D01*
X-62659540Y1515489D01*
X-61909540Y2265489D01*
X-61889904Y2299500D01*
X-61869979Y2334011D01*
X-61849500Y2410438D01*
X-61849500Y2471689D01*
X-61835148Y2506337D01*
X-61822745Y2515348D01*
X-61711665Y2571946D01*
X-61711663Y2571948D01*
X-61711658Y2571950D01*
X-61683607Y2600001D01*
X-56730804Y2600001D01*
X-56730804Y2600000D01*
X-56709719Y2466874D01*
X-56709719Y2466873D01*
X-56709718Y2466872D01*
X-56705841Y2459263D01*
X-56700500Y2437017D01*
X-56700500Y1962985D01*
X-56705839Y1940742D01*
X-56709720Y1933126D01*
X-56730804Y1800001D01*
X-56730804Y1800000D01*
X-56709719Y1666874D01*
X-56705840Y1659261D01*
X-56700500Y1637017D01*
X-56700500Y1162985D01*
X-56705839Y1140742D01*
X-56709720Y1133126D01*
X-56730804Y1000001D01*
X-56709719Y866873D01*
X-56703544Y854754D01*
X-56698531Y838158D01*
X-56697587Y830015D01*
X-56697585Y830009D01*
X-56652206Y727235D01*
X-56572767Y647796D01*
X-56572766Y647796D01*
X-56572765Y647795D01*
X-56469991Y602416D01*
X-56461846Y601472D01*
X-56445252Y596459D01*
X-56433126Y590281D01*
X-56300000Y569196D01*
X-56166874Y590281D01*
X-56154752Y596459D01*
X-56138154Y601472D01*
X-56130009Y602416D01*
X-56027235Y647795D01*
X-55947794Y727236D01*
X-55944826Y733958D01*
X-55917706Y759858D01*
X-55880213Y758995D01*
X-55855177Y733962D01*
X-55852207Y727235D01*
X-55772767Y647795D01*
X-55669994Y602416D01*
X-55669991Y602415D01*
X-55644865Y599500D01*
X-55355136Y599501D01*
X-55330009Y602415D01*
X-55227235Y647794D01*
X-55147794Y727235D01*
X-55102415Y830009D01*
X-55099500Y855135D01*
X-55099501Y2744864D01*
X-55102415Y2769991D01*
X-55147794Y2872765D01*
X-55147795Y2872766D01*
X-55147795Y2872767D01*
X-55227234Y2952206D01*
X-55227233Y2952206D01*
X-55330007Y2997585D01*
X-55342572Y2999043D01*
X-55355135Y3000500D01*
X-55355137Y3000500D01*
X-55644859Y3000500D01*
X-55644869Y3000499D01*
X-55669993Y2997585D01*
X-55772767Y2952206D01*
X-55852206Y2872766D01*
X-55852208Y2872765D01*
X-55855176Y2866041D01*
X-55882300Y2840142D01*
X-55919793Y2841010D01*
X-55944825Y2866042D01*
X-55947795Y2872768D01*
X-56027234Y2952207D01*
X-56027233Y2952207D01*
X-56130007Y2997586D01*
X-56130013Y2997588D01*
X-56138163Y2998533D01*
X-56154758Y3003546D01*
X-56166873Y3009719D01*
X-56233437Y3020262D01*
X-56300000Y3030804D01*
X-56300001Y3030804D01*
X-56433126Y3009720D01*
X-56445246Y3003545D01*
X-56461838Y2998533D01*
X-56469987Y2997588D01*
X-56469993Y2997586D01*
X-56572767Y2952207D01*
X-56652206Y2872768D01*
X-56697585Y2769992D01*
X-56697587Y2769986D01*
X-56698532Y2761840D01*
X-56703544Y2745248D01*
X-56709720Y2733126D01*
X-56730804Y2600001D01*
X-61683607Y2600001D01*
X-61621950Y2661658D01*
X-61585535Y2733126D01*
X-61564356Y2774691D01*
X-61564356Y2774693D01*
X-61564354Y2774696D01*
X-61549500Y2868481D01*
X-61549501Y3431518D01*
X-61564354Y3525304D01*
X-61576190Y3548533D01*
X-61621946Y3638336D01*
X-61621951Y3638343D01*
X-61711658Y3728050D01*
X-61711665Y3728055D01*
X-61824692Y3785645D01*
X-61824695Y3785646D01*
X-61824696Y3785646D01*
X-61918481Y3800500D01*
X-61918483Y3800500D01*
X-62381518Y3800500D01*
X-62475304Y3785647D01*
X-62588336Y3728055D01*
X-62588343Y3728050D01*
X-62678050Y3638343D01*
X-62678055Y3638336D01*
X-62735645Y3525310D01*
X-62735645Y3525308D01*
X-62735646Y3525306D01*
X-62735646Y3525304D01*
X-62744009Y3472501D01*
X-62750500Y3431518D01*
X-62750500Y2868483D01*
X-62735647Y2774697D01*
X-62678055Y2661665D01*
X-62678050Y2661658D01*
X-62588343Y2571951D01*
X-62588336Y2571946D01*
X-62558791Y2556892D01*
X-62534434Y2528375D01*
X-62537377Y2490988D01*
X-62546388Y2478585D01*
X-63010119Y2014852D01*
X-63044767Y2000500D01*
X-63905233Y2000500D01*
X-63939881Y2014852D01*
X-64035148Y2110119D01*
X-64049500Y2144767D01*
X-64049500Y2182142D01*
X-64041241Y2209366D01*
X-64013854Y2250353D01*
X-64013855Y2250353D01*
X-64013853Y2250354D01*
X-63999500Y2322512D01*
X-63999500Y2877488D01*
X-64013853Y2949646D01*
X-64049866Y3003543D01*
X-64068528Y3031473D01*
X-64121510Y3066874D01*
X-64150354Y3086147D01*
X-64222512Y3100500D01*
X-64477488Y3100500D01*
X-64534257Y3089208D01*
X-64549646Y3086147D01*
X-64572779Y3070690D01*
X-64609561Y3063375D01*
X-64627224Y3070691D01*
X-64650355Y3086147D01*
X-64722513Y3100500D01*
X-64977489Y3100500D01*
X-65034258Y3089208D01*
X-65049647Y3086147D01*
X-65131474Y3031473D01*
X-65180334Y2958347D01*
X-65186148Y2949646D01*
X-65200501Y2877488D01*
X-74628891Y2877488D01*
X-74635084Y2894797D01*
X-74636480Y2899399D01*
X-74659076Y2989608D01*
X-74725913Y3256433D01*
X-74726846Y3261123D01*
X-74780854Y3625219D01*
X-74781322Y3629980D01*
X-74799441Y3998800D01*
X-74799500Y4001204D01*
X-74799500Y4071652D01*
X-60327500Y4071652D01*
X-60327500Y3928348D01*
X-60317127Y3876200D01*
X-60299544Y3787799D01*
X-60299542Y3787793D01*
X-60253280Y3676107D01*
X-60244702Y3655400D01*
X-60165086Y3536246D01*
X-60063754Y3434914D01*
X-59944600Y3355298D01*
X-59812204Y3300457D01*
X-59671652Y3272500D01*
X-59671649Y3272500D01*
X-59528351Y3272500D01*
X-59528348Y3272500D01*
X-59387796Y3300457D01*
X-59255400Y3355298D01*
X-59136246Y3434914D01*
X-59034914Y3536246D01*
X-58955298Y3655400D01*
X-58900457Y3787796D01*
X-58872500Y3928348D01*
X-58872500Y4069451D01*
X-15927500Y4069451D01*
X-15927500Y3930550D01*
X-15891553Y3796395D01*
X-15891552Y3796391D01*
X-15822105Y3676107D01*
X-15723893Y3577895D01*
X-15679867Y3552477D01*
X-15603610Y3508449D01*
X-15603608Y3508449D01*
X-15603607Y3508448D01*
X-15497801Y3480098D01*
X-15469451Y3472501D01*
X-15469450Y3472500D01*
X-15469447Y3472500D01*
X-15330550Y3472500D01*
X-15330550Y3472501D01*
X-15196393Y3508448D01*
X-15076107Y3577895D01*
X-14977895Y3676107D01*
X-14908448Y3796393D01*
X-14872501Y3930550D01*
X-14872500Y3930550D01*
X-14872500Y4069450D01*
X-14872501Y4069451D01*
X-14908448Y4203606D01*
X-14908449Y4203610D01*
X-14977896Y4323894D01*
X-15076107Y4422105D01*
X-15196391Y4491552D01*
X-15196395Y4491553D01*
X-15330550Y4527500D01*
X-15330553Y4527500D01*
X-15469447Y4527500D01*
X-15469450Y4527500D01*
X-15603606Y4491553D01*
X-15603610Y4491552D01*
X-15723894Y4422105D01*
X-15723894Y4422104D01*
X-15822104Y4323894D01*
X-15822105Y4323894D01*
X-15891552Y4203610D01*
X-15891553Y4203606D01*
X-15927500Y4069451D01*
X-58872500Y4069451D01*
X-58872500Y4071652D01*
X-58900457Y4212204D01*
X-58955298Y4344600D01*
X-59034914Y4463754D01*
X-59136246Y4565086D01*
X-59255400Y4644702D01*
X-59255403Y4644704D01*
X-59255404Y4644704D01*
X-59387793Y4699542D01*
X-59387799Y4699544D01*
X-59444480Y4710818D01*
X-59528348Y4727500D01*
X-59671652Y4727500D01*
X-59741606Y4713586D01*
X-59812202Y4699544D01*
X-59812208Y4699542D01*
X-59944597Y4644704D01*
X-60063754Y4565087D01*
X-60165087Y4463754D01*
X-60244704Y4344597D01*
X-60299542Y4212208D01*
X-60299544Y4212202D01*
X-60302070Y4199501D01*
X-60327500Y4071652D01*
X-74799500Y4071652D01*
X-74799500Y5131518D01*
X-66650500Y5131518D01*
X-66650500Y4568483D01*
X-66635647Y4474697D01*
X-66578055Y4361665D01*
X-66578050Y4361658D01*
X-66488343Y4271951D01*
X-66488336Y4271946D01*
X-66375309Y4214356D01*
X-66375308Y4214356D01*
X-66375304Y4214354D01*
X-66281519Y4199500D01*
X-65818482Y4199501D01*
X-65724696Y4214354D01*
X-65663613Y4245478D01*
X-65611665Y4271946D01*
X-65611663Y4271948D01*
X-65611658Y4271950D01*
X-65521950Y4361658D01*
X-65491151Y4422104D01*
X-65464356Y4474691D01*
X-65464356Y4474693D01*
X-65464354Y4474696D01*
X-65449500Y4568481D01*
X-65449501Y4934523D01*
X-65435149Y4969170D01*
X-65369170Y5035148D01*
X-65334522Y5049500D01*
X-65211768Y5049500D01*
X-65177120Y5035148D01*
X-65171026Y5027723D01*
X-65131474Y4968528D01*
X-65110955Y4954818D01*
X-65049647Y4913853D01*
X-64977489Y4899500D01*
X-64977486Y4899500D01*
X-64722516Y4899500D01*
X-64722513Y4899500D01*
X-64650355Y4913853D01*
X-64568529Y4968528D01*
X-64513854Y5050354D01*
X-64499501Y5122512D01*
X-64499501Y5677488D01*
X-64200500Y5677488D01*
X-64200500Y5122512D01*
X-64186147Y5050354D01*
X-64171025Y5027723D01*
X-64131473Y4968528D01*
X-64110954Y4954818D01*
X-64049646Y4913853D01*
X-63977488Y4899500D01*
X-63977485Y4899500D01*
X-63722515Y4899500D01*
X-63722512Y4899500D01*
X-63650354Y4913853D01*
X-63627223Y4929310D01*
X-63590443Y4936627D01*
X-63572776Y4929309D01*
X-63549647Y4913854D01*
X-63549645Y4913853D01*
X-63477487Y4899500D01*
X-63477484Y4899500D01*
X-63222514Y4899500D01*
X-63222511Y4899500D01*
X-63150353Y4913853D01*
X-63068527Y4968528D01*
X-63013852Y5050354D01*
X-62999499Y5122512D01*
X-62999499Y5131518D01*
X-62750500Y5131518D01*
X-62750500Y4568483D01*
X-62735647Y4474697D01*
X-62678055Y4361665D01*
X-62678050Y4361658D01*
X-62588343Y4271951D01*
X-62588336Y4271946D01*
X-62475309Y4214356D01*
X-62475308Y4214356D01*
X-62475304Y4214354D01*
X-62381519Y4199500D01*
X-61918482Y4199501D01*
X-61824696Y4214354D01*
X-61763613Y4245478D01*
X-61711665Y4271946D01*
X-61711663Y4271948D01*
X-61711658Y4271950D01*
X-61621950Y4361658D01*
X-61591151Y4422104D01*
X-61564356Y4474691D01*
X-61564356Y4474693D01*
X-61564354Y4474696D01*
X-61549500Y4568481D01*
X-61549501Y5131518D01*
X-61564354Y5225304D01*
X-61576102Y5248361D01*
X-61621946Y5338336D01*
X-61621951Y5338343D01*
X-61711658Y5428050D01*
X-61711665Y5428055D01*
X-61824692Y5485645D01*
X-61824695Y5485646D01*
X-61824696Y5485646D01*
X-61918481Y5500500D01*
X-61918483Y5500500D01*
X-62381518Y5500500D01*
X-62475304Y5485647D01*
X-62588336Y5428055D01*
X-62588343Y5428050D01*
X-62678050Y5338343D01*
X-62678055Y5338336D01*
X-62735645Y5225310D01*
X-62735645Y5225308D01*
X-62735646Y5225306D01*
X-62735646Y5225304D01*
X-62750114Y5133957D01*
X-62750500Y5131518D01*
X-62999499Y5131518D01*
X-62999499Y5677488D01*
X-63013852Y5749646D01*
X-63013853Y5749648D01*
X-63041241Y5790638D01*
X-63049499Y5817860D01*
X-63049499Y7305234D01*
X-63035147Y7339882D01*
X-62789881Y7585148D01*
X-62755233Y7599500D01*
X-62721544Y7599500D01*
X-62686896Y7585148D01*
X-62653221Y7551473D01*
X-62653214Y7551468D01*
X-62573158Y7510678D01*
X-62533126Y7490281D01*
X-62400000Y7469196D01*
X-62266874Y7490281D01*
X-62178745Y7535185D01*
X-62146787Y7551468D01*
X-62146785Y7551470D01*
X-62146780Y7551472D01*
X-62113104Y7585148D01*
X-62078456Y7599500D01*
X-56844767Y7599500D01*
X-56810119Y7585148D01*
X-56614852Y7389881D01*
X-56600500Y7355233D01*
X-56600500Y7344767D01*
X-56614852Y7310119D01*
X-56652206Y7272766D01*
X-56697585Y7169993D01*
X-56700500Y7144865D01*
X-56700500Y5255141D01*
X-56700499Y5255131D01*
X-56697585Y5230007D01*
X-56652206Y5127233D01*
X-56572767Y5047794D01*
X-56469994Y5002415D01*
X-56469991Y5002414D01*
X-56444865Y4999499D01*
X-56155136Y4999500D01*
X-56130009Y5002414D01*
X-56027235Y5047793D01*
X-55947794Y5127234D01*
X-55944826Y5133958D01*
X-55917703Y5159857D01*
X-55880210Y5158993D01*
X-55855175Y5133959D01*
X-55852206Y5127234D01*
X-55772767Y5047795D01*
X-55772766Y5047795D01*
X-55772765Y5047794D01*
X-55758861Y5041655D01*
X-55669994Y5002416D01*
X-55669991Y5002415D01*
X-55644865Y4999500D01*
X-55355136Y4999501D01*
X-55330009Y5002415D01*
X-55227235Y5047794D01*
X-55147794Y5127235D01*
X-55102415Y5230009D01*
X-55099500Y5255135D01*
X-55099501Y7144864D01*
X-55102415Y7169991D01*
X-55147794Y7272765D01*
X-55147795Y7272766D01*
X-55147795Y7272767D01*
X-55185148Y7310120D01*
X-55199500Y7344768D01*
X-55199500Y7539563D01*
X-55205068Y7560340D01*
X-55205504Y7561969D01*
X-55219978Y7615988D01*
X-55221658Y7618897D01*
X-55237580Y7646476D01*
X-55259540Y7684511D01*
X-56315489Y8740460D01*
X-56328270Y8747839D01*
X-56384009Y8780021D01*
X-56384013Y8780022D01*
X-56460436Y8800500D01*
X-56460438Y8800500D01*
X-62678456Y8800500D01*
X-62713104Y8814852D01*
X-62746780Y8848528D01*
X-62746787Y8848533D01*
X-62866872Y8909718D01*
X-62866873Y8909719D01*
X-62866874Y8909719D01*
X-63000000Y8930804D01*
X-63133126Y8909719D01*
X-63133128Y8909719D01*
X-63133129Y8909718D01*
X-63253214Y8848533D01*
X-63253221Y8848528D01*
X-63348528Y8753221D01*
X-63348533Y8753214D01*
X-63409718Y8633130D01*
X-63409719Y8633128D01*
X-63409719Y8633126D01*
X-63424934Y8537060D01*
X-63429411Y8508795D01*
X-63443160Y8481813D01*
X-64034511Y7890460D01*
X-64090459Y7834512D01*
X-64090460Y7834512D01*
X-64130021Y7765992D01*
X-64130021Y7765990D01*
X-64150500Y7689564D01*
X-64150500Y5817860D01*
X-64158758Y5790638D01*
X-64186147Y5749648D01*
X-64186147Y5749646D01*
X-64200500Y5677488D01*
X-64499501Y5677488D01*
X-64513854Y5749646D01*
X-64549501Y5802995D01*
X-64568529Y5831473D01*
X-64617581Y5864248D01*
X-64650355Y5886147D01*
X-64722513Y5900500D01*
X-64977489Y5900500D01*
X-65049647Y5886147D01*
X-65131474Y5831473D01*
X-65171026Y5772277D01*
X-65202208Y5751442D01*
X-65211768Y5750500D01*
X-65546147Y5750500D01*
X-65635287Y5726615D01*
X-65635290Y5726614D01*
X-65715214Y5680469D01*
X-65880831Y5514852D01*
X-65915479Y5500500D01*
X-66281518Y5500500D01*
X-66375304Y5485647D01*
X-66488336Y5428055D01*
X-66488343Y5428050D01*
X-66578050Y5338343D01*
X-66578055Y5338336D01*
X-66635645Y5225310D01*
X-66635645Y5225308D01*
X-66635646Y5225306D01*
X-66635646Y5225304D01*
X-66650114Y5133957D01*
X-66650500Y5131518D01*
X-74799500Y5131518D01*
X-74799500Y10966606D01*
X-73667500Y10966606D01*
X-73667500Y10773395D01*
X-73637276Y10582563D01*
X-73637275Y10582560D01*
X-73577570Y10398805D01*
X-73489851Y10226648D01*
X-73489849Y10226645D01*
X-73447592Y10168483D01*
X-73379453Y10074697D01*
X-73376284Y10070336D01*
X-73376280Y10070331D01*
X-73239669Y9933720D01*
X-73239665Y9933717D01*
X-73239663Y9933715D01*
X-73159510Y9875481D01*
X-73128093Y9852655D01*
X-73083350Y9820148D01*
X-72911197Y9732431D01*
X-72727440Y9672725D01*
X-72536606Y9642500D01*
X-72536605Y9642500D01*
X-72343395Y9642500D01*
X-72343394Y9642500D01*
X-72152560Y9672725D01*
X-71968803Y9732431D01*
X-71796650Y9820148D01*
X-71640337Y9933715D01*
X-71640334Y9933719D01*
X-71640331Y9933720D01*
X-71503720Y10070331D01*
X-71503719Y10070334D01*
X-71503715Y10070337D01*
X-71390148Y10226650D01*
X-71302431Y10398803D01*
X-71242725Y10582560D01*
X-71219132Y10731518D01*
X-67800500Y10731518D01*
X-67800500Y10168483D01*
X-67785647Y10074697D01*
X-67728055Y9961665D01*
X-67728050Y9961658D01*
X-67638343Y9871951D01*
X-67638336Y9871946D01*
X-67525309Y9814356D01*
X-67525308Y9814356D01*
X-67525304Y9814354D01*
X-67431519Y9799500D01*
X-66968482Y9799501D01*
X-66874696Y9814354D01*
X-66799526Y9852655D01*
X-66761665Y9871946D01*
X-66761663Y9871948D01*
X-66761658Y9871950D01*
X-66671950Y9961658D01*
X-66671946Y9961665D01*
X-66614356Y10074691D01*
X-66614356Y10074693D01*
X-66614354Y10074696D01*
X-66599500Y10168481D01*
X-66599501Y10731518D01*
X-66614354Y10825304D01*
X-66628203Y10852485D01*
X-66671946Y10938336D01*
X-66671951Y10938343D01*
X-66761658Y11028050D01*
X-66761665Y11028055D01*
X-66874692Y11085645D01*
X-66874695Y11085646D01*
X-66874696Y11085646D01*
X-66968481Y11100500D01*
X-66968483Y11100500D01*
X-67431518Y11100500D01*
X-67525304Y11085647D01*
X-67638336Y11028055D01*
X-67638343Y11028050D01*
X-67728050Y10938343D01*
X-67728055Y10938336D01*
X-67785645Y10825310D01*
X-67785645Y10825308D01*
X-67785646Y10825306D01*
X-67785646Y10825304D01*
X-67794034Y10772342D01*
X-67800500Y10731518D01*
X-71219132Y10731518D01*
X-71212500Y10773394D01*
X-71212500Y10966606D01*
X-71242725Y11157440D01*
X-71302431Y11341197D01*
X-71390148Y11513350D01*
X-71397296Y11523188D01*
X-71456707Y11604961D01*
X-71503715Y11669663D01*
X-71503717Y11669665D01*
X-71503720Y11669669D01*
X-71640331Y11806280D01*
X-71640336Y11806284D01*
X-71651631Y11814490D01*
X-71687509Y11840557D01*
X-71796645Y11919849D01*
X-71796648Y11919851D01*
X-71923059Y11984261D01*
X-71968803Y12007569D01*
X-71968804Y12007570D01*
X-71968805Y12007570D01*
X-72152560Y12067275D01*
X-72152563Y12067276D01*
X-72299158Y12090494D01*
X-72343394Y12097500D01*
X-72536606Y12097500D01*
X-72572518Y12091813D01*
X-72727438Y12067276D01*
X-72727441Y12067275D01*
X-72911196Y12007570D01*
X-73083353Y11919851D01*
X-73083356Y11919849D01*
X-73239665Y11806284D01*
X-73376284Y11669665D01*
X-73489849Y11513356D01*
X-73489851Y11513353D01*
X-73577570Y11341196D01*
X-73637275Y11157441D01*
X-73637276Y11157438D01*
X-73667500Y10966606D01*
X-74799500Y10966606D01*
X-74799500Y12200000D01*
X-71030322Y12200000D01*
X-71011077Y11992308D01*
X-71011077Y11992305D01*
X-71011076Y11992304D01*
X-70985486Y11902363D01*
X-70953994Y11791681D01*
X-70861021Y11604965D01*
X-70861020Y11604963D01*
X-70861019Y11604962D01*
X-70836090Y11571951D01*
X-70735321Y11438510D01*
X-70735318Y11438507D01*
X-70581176Y11297988D01*
X-70581175Y11297987D01*
X-70581171Y11297984D01*
X-70403828Y11188177D01*
X-70209327Y11112827D01*
X-70004293Y11074500D01*
X-70004291Y11074500D01*
X-69795709Y11074500D01*
X-69795707Y11074500D01*
X-69590673Y11112827D01*
X-69396172Y11188177D01*
X-69218829Y11297984D01*
X-69064682Y11438507D01*
X-68938981Y11604962D01*
X-68846006Y11791681D01*
X-68825456Y11863911D01*
X-68802170Y11893307D01*
X-68778326Y11899500D01*
X-67847262Y11899500D01*
X-67812614Y11885148D01*
X-67798865Y11858164D01*
X-67785647Y11774697D01*
X-67728055Y11661665D01*
X-67728050Y11661658D01*
X-67638343Y11571951D01*
X-67638336Y11571946D01*
X-67525309Y11514356D01*
X-67525308Y11514356D01*
X-67525304Y11514354D01*
X-67431519Y11499500D01*
X-66968482Y11499501D01*
X-66874696Y11514354D01*
X-66810146Y11547244D01*
X-66761665Y11571946D01*
X-66761663Y11571948D01*
X-66761658Y11571950D01*
X-66671950Y11661658D01*
X-66670821Y11663873D01*
X-66614356Y11774691D01*
X-66614356Y11774693D01*
X-66614354Y11774696D01*
X-66599500Y11868481D01*
X-66599501Y12431518D01*
X-66614354Y12525304D01*
X-66633318Y12562523D01*
X-66671946Y12638336D01*
X-66671951Y12638343D01*
X-66761658Y12728050D01*
X-66761665Y12728055D01*
X-66874692Y12785645D01*
X-66874695Y12785646D01*
X-66874696Y12785646D01*
X-66968481Y12800500D01*
X-66968483Y12800500D01*
X-67431518Y12800500D01*
X-67525304Y12785647D01*
X-67638336Y12728055D01*
X-67638343Y12728050D01*
X-67728050Y12638343D01*
X-67728054Y12638338D01*
X-67784653Y12527254D01*
X-67813170Y12502898D01*
X-67828312Y12500500D01*
X-68778326Y12500500D01*
X-68812974Y12514852D01*
X-68825455Y12536090D01*
X-68846006Y12608319D01*
X-68938981Y12795038D01*
X-69012051Y12891798D01*
X-69064680Y12961491D01*
X-69064683Y12961494D01*
X-69218825Y13102013D01*
X-69218828Y13102015D01*
X-69218829Y13102016D01*
X-69396172Y13211823D01*
X-69396175Y13211824D01*
X-69396176Y13211825D01*
X-69590667Y13287171D01*
X-69590669Y13287172D01*
X-69590673Y13287173D01*
X-69795707Y13325500D01*
X-70004293Y13325500D01*
X-70209327Y13287173D01*
X-70209331Y13287172D01*
X-70209334Y13287171D01*
X-70403825Y13211825D01*
X-70581176Y13102013D01*
X-70735318Y12961494D01*
X-70735321Y12961491D01*
X-70861018Y12795040D01*
X-70861021Y12795036D01*
X-70953994Y12608320D01*
X-71011077Y12407693D01*
X-71030322Y12200000D01*
X-74799500Y12200000D01*
X-74799500Y16010000D01*
X-73570322Y16010000D01*
X-73551077Y15802308D01*
X-73551077Y15802305D01*
X-73551076Y15802304D01*
X-73523562Y15705603D01*
X-73493994Y15601681D01*
X-73401021Y15414965D01*
X-73401020Y15414963D01*
X-73401019Y15414962D01*
X-73384953Y15393687D01*
X-73275321Y15248510D01*
X-73275318Y15248507D01*
X-73121176Y15107988D01*
X-73121175Y15107987D01*
X-73121171Y15107984D01*
X-72943828Y14998177D01*
X-72749327Y14922827D01*
X-72544293Y14884500D01*
X-72544291Y14884500D01*
X-72335709Y14884500D01*
X-72335707Y14884500D01*
X-72130673Y14922827D01*
X-71936172Y14998177D01*
X-71758829Y15107984D01*
X-71604682Y15248507D01*
X-71478981Y15414962D01*
X-71386006Y15601681D01*
X-71328924Y15802304D01*
X-71309678Y16010000D01*
X-71328924Y16217696D01*
X-71386006Y16418319D01*
X-71478981Y16605038D01*
X-71545799Y16693519D01*
X-71604680Y16771491D01*
X-71604683Y16771494D01*
X-71758825Y16912013D01*
X-71758828Y16912015D01*
X-71758829Y16912016D01*
X-71936172Y17021823D01*
X-71936175Y17021824D01*
X-71936176Y17021825D01*
X-72130667Y17097171D01*
X-72130669Y17097172D01*
X-72130673Y17097173D01*
X-72335707Y17135500D01*
X-72544293Y17135500D01*
X-72749327Y17097173D01*
X-72749331Y17097172D01*
X-72749334Y17097171D01*
X-72943825Y17021825D01*
X-73121176Y16912013D01*
X-73275318Y16771494D01*
X-73275321Y16771491D01*
X-73401018Y16605040D01*
X-73401021Y16605036D01*
X-73493994Y16418320D01*
X-73551077Y16217693D01*
X-73570322Y16010000D01*
X-74799500Y16010000D01*
X-74799500Y17452347D01*
X-71327500Y17452347D01*
X-71327500Y17227653D01*
X-71326211Y17219515D01*
X-71292351Y17005729D01*
X-71292350Y17005726D01*
X-71223296Y16793197D01*
X-71222916Y16792030D01*
X-71120907Y16591827D01*
X-70988836Y16410046D01*
X-70988835Y16410045D01*
X-70988831Y16410040D01*
X-70829960Y16251169D01*
X-70829956Y16251166D01*
X-70829954Y16251164D01*
X-70648173Y16119093D01*
X-70447970Y16017084D01*
X-70234274Y15947650D01*
X-70154961Y15935088D01*
X-70152240Y15934657D01*
X-70120263Y15915062D01*
X-70111508Y15878595D01*
X-70131103Y15846618D01*
X-70150899Y15838096D01*
X-70209327Y15827173D01*
X-70209331Y15827172D01*
X-70209334Y15827171D01*
X-70403825Y15751825D01*
X-70581176Y15642013D01*
X-70735318Y15501494D01*
X-70735321Y15501491D01*
X-70861018Y15335040D01*
X-70861021Y15335036D01*
X-70953994Y15148320D01*
X-71011077Y14947693D01*
X-71030322Y14740000D01*
X-71011077Y14532308D01*
X-71011077Y14532305D01*
X-71011076Y14532304D01*
X-70972483Y14396663D01*
X-70953994Y14331681D01*
X-70861021Y14144965D01*
X-70861020Y14144963D01*
X-70861019Y14144962D01*
X-70840740Y14118108D01*
X-70735321Y13978510D01*
X-70735318Y13978507D01*
X-70581176Y13837988D01*
X-70581175Y13837987D01*
X-70581171Y13837984D01*
X-70403828Y13728177D01*
X-70209327Y13652827D01*
X-70004293Y13614500D01*
X-70004291Y13614500D01*
X-69795709Y13614500D01*
X-69795707Y13614500D01*
X-69590673Y13652827D01*
X-69396172Y13728177D01*
X-69218829Y13837984D01*
X-69064682Y13978507D01*
X-68938981Y14144962D01*
X-68846006Y14331681D01*
X-68822611Y14413911D01*
X-68799325Y14443307D01*
X-68775481Y14449500D01*
X-67839344Y14449500D01*
X-67804696Y14435148D01*
X-67790947Y14408165D01*
X-67785647Y14374696D01*
X-67728055Y14261665D01*
X-67728050Y14261658D01*
X-67638343Y14171951D01*
X-67638336Y14171946D01*
X-67525309Y14114356D01*
X-67525308Y14114356D01*
X-67525304Y14114354D01*
X-67431519Y14099500D01*
X-66968482Y14099501D01*
X-66874696Y14114354D01*
X-66809110Y14147772D01*
X-66761665Y14171946D01*
X-66761663Y14171948D01*
X-66761658Y14171950D01*
X-66671950Y14261658D01*
X-66666185Y14272972D01*
X-66614356Y14374691D01*
X-66614356Y14374693D01*
X-66614354Y14374696D01*
X-66599500Y14468481D01*
X-66599501Y15031518D01*
X-66614354Y15125304D01*
X-66639620Y15174892D01*
X-66671946Y15238336D01*
X-66671951Y15238343D01*
X-66761658Y15328050D01*
X-66761665Y15328055D01*
X-66874692Y15385645D01*
X-66874695Y15385646D01*
X-66874696Y15385646D01*
X-66968481Y15400500D01*
X-66968483Y15400500D01*
X-67431518Y15400500D01*
X-67525304Y15385647D01*
X-67638336Y15328055D01*
X-67638343Y15328050D01*
X-67728050Y15238343D01*
X-67728055Y15238336D01*
X-67785645Y15125310D01*
X-67785645Y15125308D01*
X-67785646Y15125306D01*
X-67785646Y15125304D01*
X-67789961Y15098060D01*
X-67790947Y15091834D01*
X-67810543Y15059858D01*
X-67839344Y15050500D01*
X-68781171Y15050500D01*
X-68815819Y15064852D01*
X-68828300Y15086090D01*
X-68840078Y15127484D01*
X-68846006Y15148319D01*
X-68938981Y15335038D01*
X-69002182Y15418730D01*
X-69064680Y15501491D01*
X-69064683Y15501494D01*
X-69218825Y15642013D01*
X-69218828Y15642015D01*
X-69218829Y15642016D01*
X-69396172Y15751823D01*
X-69396175Y15751824D01*
X-69396176Y15751825D01*
X-69590667Y15827171D01*
X-69590669Y15827172D01*
X-69590673Y15827173D01*
X-69649102Y15838096D01*
X-69680521Y15858568D01*
X-69688262Y15895264D01*
X-69667788Y15926685D01*
X-69647762Y15934657D01*
X-69565726Y15947650D01*
X-69352030Y16017084D01*
X-69151827Y16119093D01*
X-68970046Y16251164D01*
X-68970043Y16251168D01*
X-68970040Y16251169D01*
X-68811169Y16410040D01*
X-68811168Y16410043D01*
X-68811164Y16410046D01*
X-68679093Y16591827D01*
X-68607917Y16731518D01*
X-67800500Y16731518D01*
X-67800500Y16168483D01*
X-67785647Y16074697D01*
X-67728055Y15961665D01*
X-67728050Y15961658D01*
X-67638343Y15871951D01*
X-67638336Y15871946D01*
X-67525309Y15814356D01*
X-67525308Y15814356D01*
X-67525304Y15814354D01*
X-67431519Y15799500D01*
X-66968482Y15799501D01*
X-66874696Y15814354D01*
X-66811375Y15846618D01*
X-66761665Y15871946D01*
X-66761663Y15871948D01*
X-66761658Y15871950D01*
X-66671950Y15961658D01*
X-66671436Y15962666D01*
X-66614356Y16074691D01*
X-66614356Y16074693D01*
X-66614354Y16074696D01*
X-66599500Y16168481D01*
X-66599501Y16731518D01*
X-66614354Y16825304D01*
X-66624908Y16846018D01*
X-66671946Y16938336D01*
X-66671951Y16938343D01*
X-66761658Y17028050D01*
X-66761665Y17028055D01*
X-66874692Y17085645D01*
X-66874695Y17085646D01*
X-66874696Y17085646D01*
X-66968481Y17100500D01*
X-66968483Y17100500D01*
X-67431518Y17100500D01*
X-67525304Y17085647D01*
X-67638336Y17028055D01*
X-67638343Y17028050D01*
X-67728050Y16938343D01*
X-67728055Y16938336D01*
X-67785645Y16825310D01*
X-67785645Y16825308D01*
X-67785646Y16825306D01*
X-67785646Y16825304D01*
X-67799371Y16738648D01*
X-67800500Y16731518D01*
X-68607917Y16731518D01*
X-68577084Y16792030D01*
X-68507650Y17005726D01*
X-68472500Y17227653D01*
X-68472500Y17452347D01*
X-68507650Y17674274D01*
X-68577084Y17887970D01*
X-68679093Y18088173D01*
X-68811164Y18269954D01*
X-68811166Y18269956D01*
X-68811169Y18269960D01*
X-68970040Y18428831D01*
X-68970045Y18428835D01*
X-68970046Y18428836D01*
X-69151827Y18560907D01*
X-69352030Y18662916D01*
X-69352031Y18662917D01*
X-69352032Y18662917D01*
X-69565726Y18732350D01*
X-69565729Y18732351D01*
X-69743609Y18760524D01*
X-69787653Y18767500D01*
X-70012347Y18767500D01*
X-70054111Y18760886D01*
X-70234272Y18732351D01*
X-70234275Y18732350D01*
X-70447969Y18662917D01*
X-70648173Y18560907D01*
X-70829956Y18428835D01*
X-70988835Y18269956D01*
X-71120907Y18088173D01*
X-71222917Y17887969D01*
X-71292350Y17674275D01*
X-71292351Y17674272D01*
X-71318557Y17508809D01*
X-71327500Y17452347D01*
X-74799500Y17452347D01*
X-74799500Y28300000D01*
X-69435471Y28300000D01*
X-69415620Y28060437D01*
X-69362187Y27849432D01*
X-69356609Y27827407D01*
X-69260051Y27607275D01*
X-69260049Y27607272D01*
X-69128571Y27406031D01*
X-69077265Y27350298D01*
X-68965762Y27229173D01*
X-68940099Y27209199D01*
X-68921571Y27176592D01*
X-68931527Y27140435D01*
X-68948422Y27126635D01*
X-69040753Y27080842D01*
X-69040755Y27080841D01*
X-69040758Y27080839D01*
X-69184941Y26964941D01*
X-69300840Y26820757D01*
X-69300841Y26820756D01*
X-69383037Y26655023D01*
X-69427684Y26475491D01*
X-69430500Y26433953D01*
X-69430500Y25086048D01*
X-69427684Y25044510D01*
X-69383037Y24864978D01*
X-69300841Y24699245D01*
X-69300840Y24699244D01*
X-69184941Y24555060D01*
X-69040757Y24439161D01*
X-69040756Y24439160D01*
X-69040755Y24439160D01*
X-69040753Y24439158D01*
X-68875021Y24356963D01*
X-68695495Y24312317D01*
X-68653954Y24309500D01*
X-68653953Y24309500D01*
X-67306047Y24309500D01*
X-67306046Y24309500D01*
X-67264505Y24312317D01*
X-67084979Y24356963D01*
X-66968294Y24414835D01*
X-66930879Y24417372D01*
X-66911876Y24405585D01*
X-52921569Y10415278D01*
X-52907217Y10380630D01*
X-52908886Y10367950D01*
X-52911086Y10359738D01*
X-52938831Y10256180D01*
X-52947134Y10161234D01*
X-52952799Y10096463D01*
X-52952799Y10096462D01*
X-52938822Y9936763D01*
X-52938821Y9936757D01*
X-52897317Y9781898D01*
X-52829557Y9636605D01*
X-52829556Y9636604D01*
X-52829554Y9636600D01*
X-52763442Y9542196D01*
X-52737588Y9505278D01*
X-52683151Y9450850D01*
X-52683148Y9450847D01*
X-52547523Y9315221D01*
X-52546991Y9314740D01*
X-52539473Y9307219D01*
X-52539470Y9307217D01*
X-52539468Y9307215D01*
X-52408170Y9215244D01*
X-52408166Y9215242D01*
X-52408158Y9215236D01*
X-52262863Y9147457D01*
X-52121369Y9109524D01*
X-52091619Y9086689D01*
X-52086729Y9074884D01*
X-52048771Y8933308D01*
X-52048769Y8933301D01*
X-51980984Y8788006D01*
X-51980981Y8787999D01*
X-51888987Y8656677D01*
X-51835288Y8603005D01*
X-51835292Y8603002D01*
X-51835280Y8602997D01*
X-51761907Y8529624D01*
X-51761900Y8529606D01*
X-51747555Y8515261D01*
X-51747555Y8515260D01*
X-51690874Y8458577D01*
X-51651564Y8431052D01*
X-51559553Y8366624D01*
X-51559551Y8366623D01*
X-51559548Y8366621D01*
X-51414248Y8298867D01*
X-51259390Y8257375D01*
X-51099680Y8243405D01*
X-51099678Y8243406D01*
X-51099675Y8243405D01*
X-50939978Y8257381D01*
X-50939976Y8257382D01*
X-50939970Y8257382D01*
X-50828260Y8287319D01*
X-50791078Y8282425D01*
X-50780928Y8274637D01*
X-50481050Y7974759D01*
X-50436991Y7945321D01*
X-50370301Y7900759D01*
X-50303202Y7872966D01*
X-50245018Y7848865D01*
X-50245473Y7847769D01*
X-50219346Y7826322D01*
X-50215675Y7788999D01*
X-50239470Y7760012D01*
X-50247986Y7756448D01*
X-50285425Y7744782D01*
X-50314579Y7744782D01*
X-50472799Y7794085D01*
X-50504886Y7797001D01*
X-50543384Y7800499D01*
X-50856616Y7800499D01*
X-50891906Y7797292D01*
X-50927202Y7794085D01*
X-51089604Y7743479D01*
X-51089605Y7743479D01*
X-51235185Y7655472D01*
X-51355473Y7535184D01*
X-51443479Y7389606D01*
X-51453219Y7358348D01*
X-51477229Y7329539D01*
X-51514579Y7326146D01*
X-51543388Y7350156D01*
X-51546780Y7358346D01*
X-51556521Y7389606D01*
X-51563107Y7400500D01*
X-51644527Y7535185D01*
X-51764815Y7655473D01*
X-51910395Y7743480D01*
X-52072798Y7794086D01*
X-52104885Y7797002D01*
X-52143383Y7800500D01*
X-52456615Y7800500D01*
X-52491905Y7797293D01*
X-52527201Y7794086D01*
X-52685423Y7744782D01*
X-52714577Y7744782D01*
X-52872799Y7794086D01*
X-52904886Y7797002D01*
X-52943384Y7800500D01*
X-53256616Y7800500D01*
X-53291906Y7797293D01*
X-53327202Y7794086D01*
X-53489604Y7743480D01*
X-53489605Y7743480D01*
X-53635185Y7655473D01*
X-53755473Y7535185D01*
X-53843480Y7389605D01*
X-53843480Y7389604D01*
X-53894086Y7227202D01*
X-53897585Y7188698D01*
X-53900500Y7156616D01*
X-53900500Y5243384D01*
X-53898857Y5225308D01*
X-53894086Y5172799D01*
X-53843480Y5010397D01*
X-53843480Y5010396D01*
X-53755473Y4864816D01*
X-53635185Y4744528D01*
X-53489605Y4656521D01*
X-53327202Y4605915D01*
X-53327199Y4605915D01*
X-53327196Y4605914D01*
X-53256616Y4599500D01*
X-53256610Y4599500D01*
X-52943390Y4599500D01*
X-52943384Y4599500D01*
X-52872804Y4605914D01*
X-52714576Y4655219D01*
X-52685423Y4655219D01*
X-52628603Y4637514D01*
X-52527199Y4605915D01*
X-52527198Y4605915D01*
X-52527195Y4605914D01*
X-52456615Y4599500D01*
X-52456609Y4599500D01*
X-52143389Y4599500D01*
X-52143383Y4599500D01*
X-52072803Y4605914D01*
X-52072801Y4605915D01*
X-52072798Y4605915D01*
X-51910396Y4656521D01*
X-51910395Y4656521D01*
X-51839230Y4699542D01*
X-51764814Y4744528D01*
X-51644527Y4864815D01*
X-51556521Y5010394D01*
X-51546782Y5041652D01*
X-51522772Y5070460D01*
X-51485423Y5073855D01*
X-51456613Y5049845D01*
X-51453219Y5041651D01*
X-51443479Y5010394D01*
X-51355473Y4864815D01*
X-51235185Y4744527D01*
X-51089605Y4656520D01*
X-50927202Y4605914D01*
X-50927199Y4605914D01*
X-50927196Y4605913D01*
X-50856616Y4599499D01*
X-50856610Y4599499D01*
X-50543390Y4599499D01*
X-50543384Y4599499D01*
X-50472804Y4605913D01*
X-50314576Y4655218D01*
X-50285423Y4655218D01*
X-50127202Y4605915D01*
X-50127199Y4605915D01*
X-50127196Y4605914D01*
X-50056616Y4599500D01*
X-50056610Y4599500D01*
X-49743390Y4599500D01*
X-49743384Y4599500D01*
X-49672804Y4605914D01*
X-49672802Y4605915D01*
X-49672799Y4605915D01*
X-49510397Y4656521D01*
X-49510396Y4656521D01*
X-49439231Y4699542D01*
X-49364815Y4744528D01*
X-49244528Y4864815D01*
X-49156522Y5010394D01*
X-49146782Y5041650D01*
X-49146781Y5041652D01*
X-49122772Y5070462D01*
X-49085423Y5073856D01*
X-49056613Y5049847D01*
X-49053219Y5041652D01*
X-49043480Y5010397D01*
X-49043480Y5010396D01*
X-48955473Y4864816D01*
X-48835185Y4744528D01*
X-48689605Y4656521D01*
X-48527202Y4605915D01*
X-48527199Y4605915D01*
X-48527196Y4605914D01*
X-48456616Y4599500D01*
X-48456610Y4599500D01*
X-48143390Y4599500D01*
X-48143384Y4599500D01*
X-48072804Y4605914D01*
X-47914576Y4655219D01*
X-47885424Y4655219D01*
X-47765892Y4617972D01*
X-47727200Y4605915D01*
X-47727199Y4605915D01*
X-47727196Y4605914D01*
X-47656616Y4599500D01*
X-47656610Y4599500D01*
X-47343390Y4599500D01*
X-47343384Y4599500D01*
X-47272804Y4605914D01*
X-47272802Y4605915D01*
X-47272799Y4605915D01*
X-47110397Y4656521D01*
X-47110396Y4656521D01*
X-47039231Y4699542D01*
X-46964815Y4744528D01*
X-46844528Y4864815D01*
X-46756522Y5010394D01*
X-46746782Y5041650D01*
X-46746781Y5041652D01*
X-46722772Y5070462D01*
X-46685423Y5073856D01*
X-46656613Y5049847D01*
X-46653219Y5041652D01*
X-46643480Y5010397D01*
X-46643480Y5010396D01*
X-46555473Y4864816D01*
X-46435185Y4744528D01*
X-46289605Y4656521D01*
X-46127202Y4605915D01*
X-46127199Y4605915D01*
X-46127196Y4605914D01*
X-46056616Y4599500D01*
X-46056610Y4599500D01*
X-45743390Y4599500D01*
X-45743384Y4599500D01*
X-45672804Y4605914D01*
X-45514579Y4655218D01*
X-45485424Y4655218D01*
X-45327200Y4605914D01*
X-45327199Y4605914D01*
X-45327196Y4605913D01*
X-45256616Y4599499D01*
X-45256610Y4599499D01*
X-44943390Y4599499D01*
X-44943384Y4599499D01*
X-44872804Y4605913D01*
X-44872802Y4605914D01*
X-44872799Y4605914D01*
X-44710397Y4656520D01*
X-44710396Y4656520D01*
X-44710394Y4656521D01*
X-44564815Y4744527D01*
X-44444528Y4864814D01*
X-44356522Y5010393D01*
X-44346782Y5041653D01*
X-44322772Y5070462D01*
X-44285423Y5073857D01*
X-44256613Y5049847D01*
X-44253219Y5041652D01*
X-44243480Y5010397D01*
X-44243480Y5010396D01*
X-44155473Y4864816D01*
X-44035185Y4744528D01*
X-43889605Y4656521D01*
X-43727202Y4605915D01*
X-43727199Y4605915D01*
X-43727196Y4605914D01*
X-43656616Y4599500D01*
X-43656610Y4599500D01*
X-43343390Y4599500D01*
X-43343384Y4599500D01*
X-43272804Y4605914D01*
X-43114576Y4655219D01*
X-43085424Y4655219D01*
X-42965892Y4617972D01*
X-42927200Y4605915D01*
X-42927199Y4605915D01*
X-42927196Y4605914D01*
X-42856616Y4599500D01*
X-42856610Y4599500D01*
X-42543390Y4599500D01*
X-42543384Y4599500D01*
X-42472804Y4605914D01*
X-42472802Y4605915D01*
X-42472799Y4605915D01*
X-42310397Y4656521D01*
X-42310396Y4656521D01*
X-42239231Y4699542D01*
X-42164815Y4744528D01*
X-42044528Y4864815D01*
X-41956522Y5010394D01*
X-41946781Y5041656D01*
X-41922772Y5070464D01*
X-41885423Y5073859D01*
X-41856613Y5049849D01*
X-41853219Y5041655D01*
X-41843478Y5010395D01*
X-41755472Y4864816D01*
X-41635184Y4744528D01*
X-41489604Y4656521D01*
X-41327201Y4605915D01*
X-41327198Y4605915D01*
X-41327195Y4605914D01*
X-41256615Y4599500D01*
X-41256609Y4599500D01*
X-40943389Y4599500D01*
X-40943383Y4599500D01*
X-40872803Y4605914D01*
X-40714575Y4655219D01*
X-40685424Y4655219D01*
X-40565892Y4617972D01*
X-40527200Y4605915D01*
X-40527199Y4605915D01*
X-40527196Y4605914D01*
X-40456616Y4599500D01*
X-40456610Y4599500D01*
X-40143390Y4599500D01*
X-40143384Y4599500D01*
X-40072804Y4605914D01*
X-40072802Y4605915D01*
X-40072799Y4605915D01*
X-39910397Y4656521D01*
X-39910396Y4656521D01*
X-39839231Y4699542D01*
X-39764815Y4744528D01*
X-39644528Y4864815D01*
X-39556522Y5010394D01*
X-39546782Y5041650D01*
X-39546781Y5041652D01*
X-39522772Y5070462D01*
X-39485423Y5073856D01*
X-39456613Y5049847D01*
X-39453219Y5041652D01*
X-39443480Y5010397D01*
X-39443480Y5010396D01*
X-39355473Y4864816D01*
X-39235185Y4744528D01*
X-39089605Y4656521D01*
X-38927202Y4605915D01*
X-38927199Y4605915D01*
X-38927196Y4605914D01*
X-38856616Y4599500D01*
X-38856610Y4599500D01*
X-38543390Y4599500D01*
X-38543384Y4599500D01*
X-38472804Y4605914D01*
X-38314576Y4655219D01*
X-38285424Y4655219D01*
X-38165892Y4617972D01*
X-38127200Y4605915D01*
X-38127199Y4605915D01*
X-38127196Y4605914D01*
X-38056616Y4599500D01*
X-38056610Y4599500D01*
X-37743390Y4599500D01*
X-37743384Y4599500D01*
X-37672804Y4605914D01*
X-37672802Y4605915D01*
X-37672799Y4605915D01*
X-37510397Y4656521D01*
X-37510396Y4656521D01*
X-37439231Y4699542D01*
X-37364815Y4744528D01*
X-37244528Y4864815D01*
X-37156522Y5010394D01*
X-37144868Y5047794D01*
X-37105915Y5172799D01*
X-37105915Y5172802D01*
X-37105914Y5172804D01*
X-37099500Y5243384D01*
X-37099500Y7144866D01*
X-36700500Y7144866D01*
X-36700500Y5255142D01*
X-36700499Y5255132D01*
X-36697585Y5230008D01*
X-36652206Y5127234D01*
X-36572767Y5047795D01*
X-36572766Y5047795D01*
X-36572765Y5047794D01*
X-36558861Y5041655D01*
X-36469994Y5002416D01*
X-36469991Y5002415D01*
X-36444865Y4999500D01*
X-36155136Y4999501D01*
X-36130009Y5002415D01*
X-36027235Y5047794D01*
X-35947794Y5127235D01*
X-35944826Y5133957D01*
X-35917706Y5159857D01*
X-35880213Y5158994D01*
X-35855177Y5133961D01*
X-35852207Y5127234D01*
X-35772767Y5047794D01*
X-35772766Y5047794D01*
X-35772765Y5047793D01*
X-35669991Y5002414D01*
X-35661843Y5001469D01*
X-35645241Y4996454D01*
X-35633126Y4990281D01*
X-35500000Y4969196D01*
X-35366874Y4990281D01*
X-35354758Y4996455D01*
X-35338151Y5001470D01*
X-35330012Y5002413D01*
X-35330012Y5002414D01*
X-35330009Y5002414D01*
X-35227235Y5047793D01*
X-35147794Y5127234D01*
X-35144826Y5133958D01*
X-35117703Y5159857D01*
X-35080210Y5158993D01*
X-35055175Y5133959D01*
X-35052206Y5127234D01*
X-34972767Y5047795D01*
X-34972766Y5047795D01*
X-34972765Y5047794D01*
X-34869991Y5002415D01*
X-34861844Y5001470D01*
X-34845243Y4996455D01*
X-34833126Y4990281D01*
X-34700000Y4969196D01*
X-34566874Y4990281D01*
X-34554757Y4996456D01*
X-34538155Y5001471D01*
X-34530009Y5002415D01*
X-34427235Y5047794D01*
X-34347794Y5127235D01*
X-34302415Y5230009D01*
X-34301470Y5238158D01*
X-34296455Y5254758D01*
X-34290281Y5266874D01*
X-34269196Y5400000D01*
X-34290281Y5533126D01*
X-34294161Y5540741D01*
X-34299501Y5562986D01*
X-34299501Y6037015D01*
X-34294160Y6059261D01*
X-34290282Y6066872D01*
X-34290282Y6066873D01*
X-34290281Y6066874D01*
X-34269196Y6200000D01*
X-34290281Y6333126D01*
X-34294161Y6340741D01*
X-34299501Y6362986D01*
X-34299501Y6837015D01*
X-34294160Y6859261D01*
X-34290282Y6866872D01*
X-34290282Y6866873D01*
X-34290281Y6866874D01*
X-34269196Y7000000D01*
X-34290281Y7133126D01*
X-34296459Y7145249D01*
X-34301471Y7161846D01*
X-34302415Y7169991D01*
X-34347794Y7272765D01*
X-34347795Y7272766D01*
X-34347795Y7272767D01*
X-34427234Y7352206D01*
X-34427233Y7352206D01*
X-34495751Y7382459D01*
X-34530009Y7397585D01*
X-34530011Y7397586D01*
X-34530017Y7397587D01*
X-34538161Y7398532D01*
X-34554756Y7403545D01*
X-34566873Y7409719D01*
X-34633437Y7420262D01*
X-34700000Y7430804D01*
X-34700001Y7430804D01*
X-34833123Y7409720D01*
X-34833124Y7409720D01*
X-34845249Y7403543D01*
X-34861839Y7398532D01*
X-34869988Y7397586D01*
X-34869993Y7397585D01*
X-34972767Y7352206D01*
X-35052206Y7272767D01*
X-35055177Y7266038D01*
X-35082303Y7240141D01*
X-35119796Y7241009D01*
X-35144826Y7266042D01*
X-35147794Y7272764D01*
X-35147796Y7272766D01*
X-35147796Y7272767D01*
X-35227234Y7352205D01*
X-35227233Y7352205D01*
X-35330008Y7397584D01*
X-35330012Y7397585D01*
X-35338159Y7398530D01*
X-35354749Y7403542D01*
X-35366874Y7409719D01*
X-35366877Y7409720D01*
X-35366878Y7409720D01*
X-35500000Y7430804D01*
X-35633126Y7409720D01*
X-35645251Y7403542D01*
X-35661845Y7398530D01*
X-35669989Y7397585D01*
X-35669994Y7397584D01*
X-35772767Y7352205D01*
X-35852206Y7272765D01*
X-35852208Y7272764D01*
X-35855176Y7266040D01*
X-35882300Y7240141D01*
X-35919793Y7241009D01*
X-35944825Y7266041D01*
X-35947795Y7272767D01*
X-36027234Y7352206D01*
X-36027233Y7352206D01*
X-36130007Y7397585D01*
X-36146895Y7399544D01*
X-36155135Y7400500D01*
X-36155137Y7400500D01*
X-36444859Y7400500D01*
X-36444869Y7400499D01*
X-36469993Y7397585D01*
X-36572767Y7352206D01*
X-36652206Y7272767D01*
X-36697585Y7169994D01*
X-36700500Y7144866D01*
X-37099500Y7144866D01*
X-37099500Y7156616D01*
X-37105914Y7227196D01*
X-37105915Y7227199D01*
X-37105915Y7227202D01*
X-37156521Y7389604D01*
X-37156521Y7389605D01*
X-37216733Y7489207D01*
X-37223800Y7514557D01*
X-37223800Y14472675D01*
X-34370733Y14472675D01*
X-34370721Y14372323D01*
X-34342862Y14214443D01*
X-34342860Y14214436D01*
X-34288004Y14063786D01*
X-34214799Y13937037D01*
X-34209899Y13899856D01*
X-34214795Y13888032D01*
X-34243689Y13837984D01*
X-34287999Y13761234D01*
X-34294435Y13743547D01*
X-34342831Y13610561D01*
X-34370659Y13452660D01*
X-34370650Y13376127D01*
X-34370650Y13331501D01*
X-34370660Y13331321D01*
X-34370660Y13328677D01*
X-34370660Y13328675D01*
X-34370659Y13322850D01*
X-34370653Y13272864D01*
X-34370733Y13272670D01*
X-34370721Y13172322D01*
X-34342861Y13014441D01*
X-34342857Y13014427D01*
X-34288002Y12863785D01*
X-34287998Y12863776D01*
X-34214812Y12737059D01*
X-34209912Y12699878D01*
X-34214805Y12688060D01*
X-34288029Y12561186D01*
X-34288034Y12561175D01*
X-34342841Y12410529D01*
X-34342842Y12410525D01*
X-34370658Y12252644D01*
X-34370648Y12175420D01*
X-34370648Y12131501D01*
X-34370658Y12131321D01*
X-34370658Y12128677D01*
X-34370658Y12128675D01*
X-34370652Y12085338D01*
X-34370648Y12052485D01*
X-34370648Y11983868D01*
X-34370624Y11983364D01*
X-34370623Y11972347D01*
X-34342774Y11814490D01*
X-34317011Y11743721D01*
X-34290052Y11669663D01*
X-34287945Y11663877D01*
X-34287943Y11663873D01*
X-34214765Y11537130D01*
X-34209869Y11499948D01*
X-34214761Y11488136D01*
X-34288029Y11361186D01*
X-34288034Y11361175D01*
X-34342841Y11210529D01*
X-34342842Y11210525D01*
X-34370658Y11052644D01*
X-34370648Y10976212D01*
X-34370648Y10931501D01*
X-34370658Y10931321D01*
X-34370658Y10928677D01*
X-34370658Y10928675D01*
X-34370651Y10878819D01*
X-34370648Y10852485D01*
X-34370648Y10783868D01*
X-34370624Y10783364D01*
X-34370623Y10772347D01*
X-34342774Y10614490D01*
X-34311714Y10529169D01*
X-34287945Y10463876D01*
X-34250374Y10398805D01*
X-34214752Y10337108D01*
X-34209856Y10299926D01*
X-34214751Y10288108D01*
X-34237223Y10249183D01*
X-34287999Y10161234D01*
X-34287999Y10161233D01*
X-34342831Y10010561D01*
X-34370659Y9852660D01*
X-34370650Y9775412D01*
X-34370650Y9731501D01*
X-34370660Y9731321D01*
X-34370653Y9672864D01*
X-34370733Y9672670D01*
X-34370721Y9572322D01*
X-34342861Y9414441D01*
X-34342857Y9414427D01*
X-34288002Y9263785D01*
X-34287994Y9263767D01*
X-34214802Y9137040D01*
X-34209901Y9099859D01*
X-34214797Y9088035D01*
X-34288001Y8961238D01*
X-34288004Y8961233D01*
X-34342836Y8810559D01*
X-34370663Y8652661D01*
X-34370654Y8574717D01*
X-34370654Y8531501D01*
X-34370664Y8531321D01*
X-34370657Y8472860D01*
X-34370733Y8472675D01*
X-34370721Y8372323D01*
X-34342862Y8214443D01*
X-34342860Y8214436D01*
X-34288004Y8063786D01*
X-34207820Y7924951D01*
X-34164185Y7872966D01*
X-34104744Y7802150D01*
X-33981911Y7699114D01*
X-33981910Y7699113D01*
X-33981908Y7699112D01*
X-33981907Y7699111D01*
X-33843058Y7618978D01*
X-33843053Y7618976D01*
X-33843050Y7618974D01*
X-33843048Y7618974D01*
X-33843043Y7618971D01*
X-33808450Y7606388D01*
X-33780795Y7581057D01*
X-33776200Y7560340D01*
X-33776200Y7514557D01*
X-33783267Y7489207D01*
X-33843480Y7389605D01*
X-33843480Y7389604D01*
X-33894086Y7227202D01*
X-33897585Y7188698D01*
X-33900500Y7156616D01*
X-33900500Y5243384D01*
X-33898857Y5225308D01*
X-33894086Y5172799D01*
X-33843480Y5010397D01*
X-33843480Y5010396D01*
X-33755473Y4864816D01*
X-33635185Y4744528D01*
X-33489605Y4656521D01*
X-33327202Y4605915D01*
X-33327199Y4605915D01*
X-33327196Y4605914D01*
X-33256616Y4599500D01*
X-33256610Y4599500D01*
X-32943390Y4599500D01*
X-32943384Y4599500D01*
X-32872804Y4605914D01*
X-32872802Y4605915D01*
X-32872799Y4605915D01*
X-32710397Y4656521D01*
X-32710396Y4656521D01*
X-32639231Y4699542D01*
X-32564815Y4744528D01*
X-32444528Y4864815D01*
X-32356522Y5010394D01*
X-32346782Y5041650D01*
X-32346781Y5041652D01*
X-32322772Y5070462D01*
X-32285423Y5073856D01*
X-32256613Y5049847D01*
X-32253219Y5041652D01*
X-32243480Y5010397D01*
X-32243480Y5010396D01*
X-32155473Y4864816D01*
X-32035185Y4744528D01*
X-31889605Y4656521D01*
X-31727202Y4605915D01*
X-31727199Y4605915D01*
X-31727196Y4605914D01*
X-31656616Y4599500D01*
X-31656610Y4599500D01*
X-31343390Y4599500D01*
X-31343384Y4599500D01*
X-31272804Y4605914D01*
X-31114576Y4655219D01*
X-31085424Y4655219D01*
X-30965892Y4617972D01*
X-30927200Y4605915D01*
X-30927199Y4605915D01*
X-30927196Y4605914D01*
X-30856616Y4599500D01*
X-30856610Y4599500D01*
X-30543390Y4599500D01*
X-30543384Y4599500D01*
X-30472804Y4605914D01*
X-30472802Y4605915D01*
X-30472799Y4605915D01*
X-30310397Y4656521D01*
X-30310396Y4656521D01*
X-30239231Y4699542D01*
X-30164815Y4744528D01*
X-30044528Y4864815D01*
X-29956522Y5010394D01*
X-29946782Y5041650D01*
X-29946781Y5041652D01*
X-29922772Y5070462D01*
X-29885423Y5073856D01*
X-29856613Y5049847D01*
X-29853219Y5041652D01*
X-29843480Y5010397D01*
X-29843480Y5010396D01*
X-29755473Y4864816D01*
X-29635185Y4744528D01*
X-29489605Y4656521D01*
X-29327202Y4605915D01*
X-29327199Y4605915D01*
X-29327196Y4605914D01*
X-29256616Y4599500D01*
X-29256610Y4599500D01*
X-28943390Y4599500D01*
X-28943384Y4599500D01*
X-28872804Y4605914D01*
X-28714576Y4655219D01*
X-28685425Y4655219D01*
X-28565893Y4617972D01*
X-28527201Y4605915D01*
X-28527200Y4605915D01*
X-28527197Y4605914D01*
X-28456617Y4599500D01*
X-28456611Y4599500D01*
X-28143391Y4599500D01*
X-28143385Y4599500D01*
X-28072805Y4605914D01*
X-28072803Y4605915D01*
X-28072800Y4605915D01*
X-27910398Y4656521D01*
X-27910397Y4656521D01*
X-27839232Y4699542D01*
X-27764816Y4744528D01*
X-27644529Y4864815D01*
X-27556523Y5010394D01*
X-27546782Y5041656D01*
X-27522773Y5070464D01*
X-27485424Y5073859D01*
X-27456614Y5049849D01*
X-27453220Y5041655D01*
X-27443479Y5010395D01*
X-27355473Y4864816D01*
X-27235185Y4744528D01*
X-27089605Y4656521D01*
X-26927202Y4605915D01*
X-26927199Y4605915D01*
X-26927196Y4605914D01*
X-26856616Y4599500D01*
X-26856610Y4599500D01*
X-26543390Y4599500D01*
X-26543384Y4599500D01*
X-26472804Y4605914D01*
X-26314576Y4655219D01*
X-26285424Y4655219D01*
X-26165892Y4617972D01*
X-26127200Y4605915D01*
X-26127199Y4605915D01*
X-26127196Y4605914D01*
X-26056616Y4599500D01*
X-26056610Y4599500D01*
X-25743390Y4599500D01*
X-25743384Y4599500D01*
X-25672804Y4605914D01*
X-25672802Y4605915D01*
X-25672799Y4605915D01*
X-25510397Y4656521D01*
X-25510396Y4656521D01*
X-25439231Y4699542D01*
X-25364815Y4744528D01*
X-25244528Y4864815D01*
X-25156522Y5010394D01*
X-25146781Y5041654D01*
X-25122774Y5070462D01*
X-25085425Y5073857D01*
X-25056614Y5049848D01*
X-25053220Y5041653D01*
X-25043479Y5010394D01*
X-24955473Y4864815D01*
X-24835185Y4744527D01*
X-24689605Y4656520D01*
X-24527202Y4605914D01*
X-24527199Y4605914D01*
X-24527196Y4605913D01*
X-24456616Y4599499D01*
X-24456610Y4599499D01*
X-24143390Y4599499D01*
X-24143384Y4599499D01*
X-24072804Y4605913D01*
X-23914576Y4655218D01*
X-23885423Y4655218D01*
X-23727202Y4605915D01*
X-23727199Y4605915D01*
X-23727196Y4605914D01*
X-23656616Y4599500D01*
X-23656610Y4599500D01*
X-23343390Y4599500D01*
X-23343384Y4599500D01*
X-23272804Y4605914D01*
X-23272802Y4605915D01*
X-23272799Y4605915D01*
X-23110397Y4656521D01*
X-23110396Y4656521D01*
X-23039231Y4699542D01*
X-22964815Y4744528D01*
X-22844528Y4864815D01*
X-22756522Y5010394D01*
X-22746782Y5041650D01*
X-22746781Y5041652D01*
X-22722772Y5070462D01*
X-22685423Y5073856D01*
X-22656613Y5049847D01*
X-22653219Y5041652D01*
X-22643480Y5010397D01*
X-22643480Y5010396D01*
X-22555473Y4864816D01*
X-22435185Y4744528D01*
X-22289605Y4656521D01*
X-22127202Y4605915D01*
X-22127199Y4605915D01*
X-22127196Y4605914D01*
X-22056616Y4599500D01*
X-22056610Y4599500D01*
X-21743390Y4599500D01*
X-21743384Y4599500D01*
X-21672804Y4605914D01*
X-21514576Y4655219D01*
X-21485424Y4655219D01*
X-21365892Y4617972D01*
X-21327200Y4605915D01*
X-21327199Y4605915D01*
X-21327196Y4605914D01*
X-21256616Y4599500D01*
X-21256610Y4599500D01*
X-20943390Y4599500D01*
X-20943384Y4599500D01*
X-20872804Y4605914D01*
X-20872802Y4605915D01*
X-20872799Y4605915D01*
X-20710397Y4656521D01*
X-20710396Y4656521D01*
X-20639231Y4699542D01*
X-20564815Y4744528D01*
X-20444528Y4864815D01*
X-20356522Y5010394D01*
X-20346782Y5041650D01*
X-20346781Y5041652D01*
X-20322772Y5070462D01*
X-20285423Y5073856D01*
X-20256613Y5049847D01*
X-20253219Y5041652D01*
X-20243480Y5010397D01*
X-20243480Y5010396D01*
X-20155473Y4864816D01*
X-20035185Y4744528D01*
X-19889605Y4656521D01*
X-19727202Y4605915D01*
X-19727199Y4605915D01*
X-19727196Y4605914D01*
X-19656616Y4599500D01*
X-19656610Y4599500D01*
X-19343390Y4599500D01*
X-19343384Y4599500D01*
X-19272804Y4605914D01*
X-19114579Y4655218D01*
X-19085424Y4655218D01*
X-18927200Y4605914D01*
X-18927199Y4605914D01*
X-18927196Y4605913D01*
X-18856616Y4599499D01*
X-18856610Y4599499D01*
X-18543390Y4599499D01*
X-18543384Y4599499D01*
X-18472804Y4605913D01*
X-18472802Y4605914D01*
X-18472799Y4605914D01*
X-18310397Y4656520D01*
X-18310396Y4656520D01*
X-18310394Y4656521D01*
X-18164815Y4744527D01*
X-18044528Y4864814D01*
X-17956522Y5010393D01*
X-17946781Y5041654D01*
X-17905915Y5172798D01*
X-17905915Y5172801D01*
X-17905914Y5172803D01*
X-17899500Y5243383D01*
X-17899500Y7156615D01*
X-17905914Y7227195D01*
X-17905915Y7227198D01*
X-17905915Y7227201D01*
X-17956521Y7389603D01*
X-17956521Y7389604D01*
X-18044528Y7535184D01*
X-18164816Y7655472D01*
X-18310396Y7743479D01*
X-18472799Y7794085D01*
X-18504886Y7797001D01*
X-18543384Y7800499D01*
X-18856616Y7800499D01*
X-18891906Y7797292D01*
X-18927202Y7794085D01*
X-19085421Y7744782D01*
X-19114575Y7744782D01*
X-19272799Y7794086D01*
X-19304886Y7797002D01*
X-19343384Y7800500D01*
X-19656616Y7800500D01*
X-19691906Y7797293D01*
X-19727202Y7794086D01*
X-19889604Y7743480D01*
X-19889605Y7743480D01*
X-20035185Y7655473D01*
X-20155473Y7535185D01*
X-20243479Y7389606D01*
X-20253219Y7358348D01*
X-20277229Y7329539D01*
X-20314578Y7326145D01*
X-20343387Y7350155D01*
X-20346781Y7358348D01*
X-20356522Y7389606D01*
X-20444528Y7535185D01*
X-20564816Y7655473D01*
X-20710396Y7743480D01*
X-20872799Y7794086D01*
X-20904886Y7797002D01*
X-20943384Y7800500D01*
X-21256616Y7800500D01*
X-21291906Y7797293D01*
X-21327202Y7794086D01*
X-21485423Y7744783D01*
X-21514577Y7744783D01*
X-21672799Y7794086D01*
X-21704886Y7797002D01*
X-21743384Y7800500D01*
X-22056616Y7800500D01*
X-22091906Y7797293D01*
X-22127202Y7794086D01*
X-22289604Y7743480D01*
X-22289605Y7743480D01*
X-22435185Y7655473D01*
X-22555473Y7535185D01*
X-22643479Y7389606D01*
X-22653219Y7358348D01*
X-22677229Y7329539D01*
X-22714578Y7326145D01*
X-22743387Y7350155D01*
X-22746781Y7358348D01*
X-22756522Y7389606D01*
X-22816733Y7489207D01*
X-22823800Y7514557D01*
X-22823800Y7577241D01*
X-22809448Y7611889D01*
X-22791555Y7623288D01*
X-22780121Y7627447D01*
X-22641283Y7707584D01*
X-22518469Y7810612D01*
X-22415412Y7933401D01*
X-22335241Y8072220D01*
X-22280393Y8222851D01*
X-22280393Y8222854D01*
X-22280391Y8222859D01*
X-22265953Y8304679D01*
X-22252535Y8380717D01*
X-22252535Y8391607D01*
X-22252524Y8391778D01*
X-22252524Y8461725D01*
X-22252513Y8537060D01*
X-22252515Y8537066D01*
X-22252514Y8539663D01*
X-22252524Y8539863D01*
X-22252524Y8649986D01*
X-22252525Y8650000D01*
X-22252523Y8661037D01*
X-22280347Y8818937D01*
X-22299905Y8872685D01*
X-22335168Y8969600D01*
X-22415332Y9108468D01*
X-22509412Y9220596D01*
X-22520688Y9256363D01*
X-22503370Y9289628D01*
X-22492582Y9296500D01*
X-22466491Y9308666D01*
X-22466489Y9308668D01*
X-22466479Y9308672D01*
X-22335157Y9400626D01*
X-22278478Y9457306D01*
X-22249627Y9486159D01*
X-22249541Y9486234D01*
X-22247458Y9488317D01*
X-22207949Y9527834D01*
X-22207923Y9527845D01*
X-22193582Y9542189D01*
X-22193581Y9542188D01*
X-22136909Y9598869D01*
X-22044970Y9730190D01*
X-21977230Y9875480D01*
X-21939334Y10016938D01*
X-21916505Y10046691D01*
X-21904694Y10051585D01*
X-21763274Y10089477D01*
X-21617979Y10157230D01*
X-21486657Y10249184D01*
X-21429978Y10305864D01*
X-21376104Y10359738D01*
X-21376104Y10359740D01*
X-21298032Y10437811D01*
X-21298029Y10437817D01*
X-21296608Y10439237D01*
X-21296010Y10439897D01*
X-21293205Y10442703D01*
X-21288505Y10447401D01*
X-21196553Y10578707D01*
X-21128797Y10723984D01*
X-21090890Y10865412D01*
X-21068058Y10895163D01*
X-21056253Y10900054D01*
X-20914716Y10937977D01*
X-20769421Y11005730D01*
X-20638099Y11097684D01*
X-20581420Y11154364D01*
X-20527546Y11208238D01*
X-20527546Y11208240D01*
X-20449474Y11286311D01*
X-20449472Y11286315D01*
X-20448000Y11287786D01*
X-20447504Y11288336D01*
X-20439993Y11295843D01*
X-20348017Y11427156D01*
X-20280243Y11572446D01*
X-20242303Y11713974D01*
X-20219470Y11743721D01*
X-20207667Y11748610D01*
X-20066197Y11786516D01*
X-19920902Y11854269D01*
X-19789580Y11946223D01*
X-19732901Y12002903D01*
X-19679027Y12056777D01*
X-19679027Y12056779D01*
X-19672135Y12063670D01*
X-19672135Y12063671D01*
X-19672136Y12063671D01*
X-19661292Y12074514D01*
X-19661276Y12074521D01*
X-19648045Y12087753D01*
X-19648044Y12087752D01*
X-19591364Y12144432D01*
X-19499412Y12275757D01*
X-19431660Y12421053D01*
X-19393755Y12562525D01*
X-19370926Y12592277D01*
X-19359116Y12597169D01*
X-19217687Y12635064D01*
X-19072392Y12702817D01*
X-18941070Y12794771D01*
X-18884391Y12851451D01*
X-18830517Y12905325D01*
X-18830517Y12905327D01*
X-18752445Y12983398D01*
X-18752443Y12983402D01*
X-18751110Y12984734D01*
X-18750329Y12985597D01*
X-18749297Y12986629D01*
X-18742961Y12992962D01*
X-18650998Y13124265D01*
X-18583232Y13269542D01*
X-18545315Y13410975D01*
X-18522480Y13440725D01*
X-18510677Y13445614D01*
X-18369110Y13483545D01*
X-18223815Y13551298D01*
X-18092493Y13643252D01*
X-18035814Y13699932D01*
X-18007145Y13728603D01*
X-18007104Y13728638D01*
X-18004813Y13730930D01*
X-18004810Y13730931D01*
X-17965324Y13770423D01*
X-17965207Y13770471D01*
X-17950906Y13784775D01*
X-17950905Y13784774D01*
X-17894225Y13841461D01*
X-17802274Y13972798D01*
X-17734528Y14118108D01*
X-17734045Y14119909D01*
X-17713332Y14197240D01*
X-17693045Y14272975D01*
X-17679087Y14432692D01*
X-17693077Y14592407D01*
X-17734591Y14747265D01*
X-17739761Y14758349D01*
X-17741401Y14795816D01*
X-17730004Y14813708D01*
X-8090149Y24453560D01*
X-7951321Y24592389D01*
X-7916674Y24606740D01*
X-7886579Y24596409D01*
X-7816068Y24541528D01*
X-7816062Y24541525D01*
X-7816059Y24541523D01*
X-7604665Y24427122D01*
X-7604663Y24427122D01*
X-7604657Y24427118D01*
X-7377298Y24349066D01*
X-7140193Y24309500D01*
X-7140190Y24309500D01*
X-6899812Y24309500D01*
X-6899809Y24309500D01*
X-6662704Y24349066D01*
X-6435345Y24427118D01*
X-6223934Y24541528D01*
X-6034237Y24689175D01*
X-5871430Y24866031D01*
X-5739952Y25067272D01*
X-5643391Y25287409D01*
X-5584381Y25520437D01*
X-5564530Y25760000D01*
X-5584381Y25999563D01*
X-5643391Y26232591D01*
X-5725264Y26419243D01*
X-5739951Y26452726D01*
X-5739955Y26452732D01*
X-5775025Y26506410D01*
X-5871430Y26653969D01*
X-6034237Y26830825D01*
X-6034238Y26830826D01*
X-6034240Y26830828D01*
X-6223930Y26978469D01*
X-6223931Y26978470D01*
X-6223934Y26978472D01*
X-6223939Y26978475D01*
X-6223944Y26978478D01*
X-6239517Y26986906D01*
X-6263159Y27016019D01*
X-6259290Y27053321D01*
X-6239516Y27073095D01*
X-6223933Y27081528D01*
X-6034236Y27229175D01*
X-5871429Y27406031D01*
X-5739951Y27607272D01*
X-5643390Y27827409D01*
X-5584380Y28060437D01*
X-5564529Y28300000D01*
X-5584380Y28539563D01*
X-5643390Y28772591D01*
X-5739951Y28992728D01*
X-5871429Y29193969D01*
X-6034236Y29370825D01*
X-6034237Y29370826D01*
X-6034239Y29370828D01*
X-6223929Y29518469D01*
X-6223930Y29518470D01*
X-6223933Y29518472D01*
X-6223938Y29518475D01*
X-6223943Y29518478D01*
X-6435337Y29632879D01*
X-6435343Y29632882D01*
X-6435344Y29632882D01*
X-6453560Y29639136D01*
X-6662702Y29710934D01*
X-6721980Y29720826D01*
X-6899808Y29750500D01*
X-7140192Y29750500D01*
X-7282455Y29726761D01*
X-7377299Y29710934D01*
X-7604654Y29632883D01*
X-7604664Y29632879D01*
X-7816058Y29518478D01*
X-7816072Y29518469D01*
X-8005762Y29370828D01*
X-8168573Y29193967D01*
X-8248979Y29070897D01*
X-8279945Y29049741D01*
X-8316801Y29056677D01*
X-8331021Y29070897D01*
X-8364462Y29122081D01*
X-8411429Y29193969D01*
X-8574236Y29370825D01*
X-8574237Y29370826D01*
X-8574239Y29370828D01*
X-8763929Y29518469D01*
X-8763930Y29518470D01*
X-8763933Y29518472D01*
X-8763938Y29518475D01*
X-8763943Y29518478D01*
X-8975337Y29632879D01*
X-8975343Y29632882D01*
X-8975344Y29632882D01*
X-8993560Y29639136D01*
X-9202702Y29710934D01*
X-9261980Y29720826D01*
X-9439808Y29750500D01*
X-9680192Y29750500D01*
X-9822455Y29726761D01*
X-9917299Y29710934D01*
X-10144654Y29632883D01*
X-10144664Y29632879D01*
X-10356058Y29518478D01*
X-10356072Y29518469D01*
X-10545762Y29370828D01*
X-10708573Y29193967D01*
X-10788979Y29070897D01*
X-10819945Y29049741D01*
X-10856801Y29056677D01*
X-10871021Y29070897D01*
X-10904462Y29122081D01*
X-10951429Y29193969D01*
X-11114236Y29370825D01*
X-11114237Y29370826D01*
X-11114239Y29370828D01*
X-11303929Y29518469D01*
X-11303930Y29518470D01*
X-11303933Y29518472D01*
X-11303938Y29518475D01*
X-11303943Y29518478D01*
X-11515337Y29632879D01*
X-11515343Y29632882D01*
X-11515344Y29632882D01*
X-11533560Y29639136D01*
X-11742702Y29710934D01*
X-11801980Y29720826D01*
X-11979808Y29750500D01*
X-12220192Y29750500D01*
X-12362455Y29726761D01*
X-12457299Y29710934D01*
X-12684654Y29632883D01*
X-12684664Y29632879D01*
X-12896058Y29518478D01*
X-12896072Y29518469D01*
X-13085762Y29370828D01*
X-13248573Y29193967D01*
X-13328979Y29070897D01*
X-13359945Y29049741D01*
X-13396801Y29056677D01*
X-13411021Y29070897D01*
X-13444462Y29122081D01*
X-13491429Y29193969D01*
X-13654236Y29370825D01*
X-13654237Y29370826D01*
X-13654239Y29370828D01*
X-13843929Y29518469D01*
X-13843930Y29518470D01*
X-13843933Y29518472D01*
X-13843938Y29518475D01*
X-13843943Y29518478D01*
X-14055337Y29632879D01*
X-14055343Y29632882D01*
X-14055344Y29632882D01*
X-14073560Y29639136D01*
X-14282702Y29710934D01*
X-14341980Y29720826D01*
X-14519808Y29750500D01*
X-14760192Y29750500D01*
X-14902455Y29726761D01*
X-14997299Y29710934D01*
X-15224654Y29632883D01*
X-15224664Y29632879D01*
X-15436058Y29518478D01*
X-15436072Y29518469D01*
X-15625762Y29370828D01*
X-15788573Y29193967D01*
X-15868979Y29070897D01*
X-15899945Y29049741D01*
X-15936801Y29056677D01*
X-15951021Y29070897D01*
X-15984462Y29122081D01*
X-16031429Y29193969D01*
X-16194236Y29370825D01*
X-16194237Y29370826D01*
X-16194239Y29370828D01*
X-16383929Y29518469D01*
X-16383930Y29518470D01*
X-16383933Y29518472D01*
X-16383938Y29518475D01*
X-16383943Y29518478D01*
X-16595337Y29632879D01*
X-16595343Y29632882D01*
X-16595344Y29632882D01*
X-16613560Y29639136D01*
X-16822702Y29710934D01*
X-16881980Y29720826D01*
X-17059808Y29750500D01*
X-17300192Y29750500D01*
X-17442455Y29726761D01*
X-17537299Y29710934D01*
X-17764654Y29632883D01*
X-17764664Y29632879D01*
X-17976058Y29518478D01*
X-17976072Y29518469D01*
X-18165762Y29370828D01*
X-18328573Y29193967D01*
X-18408979Y29070897D01*
X-18439945Y29049741D01*
X-18476801Y29056677D01*
X-18491021Y29070897D01*
X-18524462Y29122081D01*
X-18571429Y29193969D01*
X-18734236Y29370825D01*
X-18734237Y29370826D01*
X-18734239Y29370828D01*
X-18923929Y29518469D01*
X-18923930Y29518470D01*
X-18923933Y29518472D01*
X-18923938Y29518475D01*
X-18923943Y29518478D01*
X-19135337Y29632879D01*
X-19135343Y29632882D01*
X-19135344Y29632882D01*
X-19153560Y29639136D01*
X-19362702Y29710934D01*
X-19421980Y29720826D01*
X-19599808Y29750500D01*
X-19840192Y29750500D01*
X-19982455Y29726761D01*
X-20077299Y29710934D01*
X-20304654Y29632883D01*
X-20304664Y29632879D01*
X-20516058Y29518478D01*
X-20516072Y29518469D01*
X-20705762Y29370828D01*
X-20868573Y29193967D01*
X-20948979Y29070897D01*
X-20979945Y29049741D01*
X-21016801Y29056677D01*
X-21031021Y29070897D01*
X-21064462Y29122081D01*
X-21111429Y29193969D01*
X-21274236Y29370825D01*
X-21274237Y29370826D01*
X-21274239Y29370828D01*
X-21463929Y29518469D01*
X-21463930Y29518470D01*
X-21463933Y29518472D01*
X-21463938Y29518475D01*
X-21463943Y29518478D01*
X-21675337Y29632879D01*
X-21675343Y29632882D01*
X-21675344Y29632882D01*
X-21693560Y29639136D01*
X-21902702Y29710934D01*
X-21961980Y29720826D01*
X-22139808Y29750500D01*
X-22380192Y29750500D01*
X-22522455Y29726761D01*
X-22617299Y29710934D01*
X-22844654Y29632883D01*
X-22844664Y29632879D01*
X-23056058Y29518478D01*
X-23056072Y29518469D01*
X-23245762Y29370828D01*
X-23408573Y29193967D01*
X-23488979Y29070897D01*
X-23519945Y29049741D01*
X-23556801Y29056677D01*
X-23571021Y29070897D01*
X-23604462Y29122081D01*
X-23651429Y29193969D01*
X-23814236Y29370825D01*
X-23814237Y29370826D01*
X-23814239Y29370828D01*
X-24003929Y29518469D01*
X-24003930Y29518470D01*
X-24003933Y29518472D01*
X-24003938Y29518475D01*
X-24003943Y29518478D01*
X-24215337Y29632879D01*
X-24215343Y29632882D01*
X-24215344Y29632882D01*
X-24233560Y29639136D01*
X-24442702Y29710934D01*
X-24501980Y29720826D01*
X-24679808Y29750500D01*
X-24920192Y29750500D01*
X-25062455Y29726761D01*
X-25157299Y29710934D01*
X-25384654Y29632883D01*
X-25384664Y29632879D01*
X-25596058Y29518478D01*
X-25596072Y29518469D01*
X-25785762Y29370828D01*
X-25948573Y29193967D01*
X-26080047Y28992732D01*
X-26080051Y28992726D01*
X-26176609Y28772594D01*
X-26235620Y28539564D01*
X-26255471Y28300000D01*
X-26235620Y28060436D01*
X-26194008Y27896108D01*
X-26199416Y27858997D01*
X-26206861Y27849432D01*
X-26531052Y27525239D01*
X-26625241Y27431051D01*
X-26625242Y27431050D01*
X-26699243Y27320298D01*
X-26750214Y27197242D01*
X-26750217Y27197231D01*
X-26776200Y27066606D01*
X-26776200Y25450387D01*
X-26790552Y25415739D01*
X-27277793Y24928498D01*
X-27668498Y24537794D01*
X-27703146Y24523442D01*
X-27737794Y24537794D01*
X-28480475Y25280475D01*
X-28494827Y25315123D01*
X-28493329Y25327146D01*
X-28444381Y25520437D01*
X-28424530Y25760000D01*
X-28444381Y25999563D01*
X-28503391Y26232591D01*
X-28585264Y26419243D01*
X-28599951Y26452726D01*
X-28599955Y26452732D01*
X-28635025Y26506410D01*
X-28731430Y26653969D01*
X-28894237Y26830825D01*
X-28894238Y26830826D01*
X-28894240Y26830828D01*
X-29083930Y26978469D01*
X-29083931Y26978470D01*
X-29083934Y26978472D01*
X-29083939Y26978475D01*
X-29083944Y26978478D01*
X-29099517Y26986906D01*
X-29123159Y27016019D01*
X-29119290Y27053321D01*
X-29099516Y27073095D01*
X-29083933Y27081528D01*
X-28894236Y27229175D01*
X-28731429Y27406031D01*
X-28599951Y27607272D01*
X-28503390Y27827409D01*
X-28444380Y28060437D01*
X-28424529Y28300000D01*
X-28444380Y28539563D01*
X-28503390Y28772591D01*
X-28599951Y28992728D01*
X-28731429Y29193969D01*
X-28894236Y29370825D01*
X-28894237Y29370826D01*
X-28894239Y29370828D01*
X-29083929Y29518469D01*
X-29083930Y29518470D01*
X-29083933Y29518472D01*
X-29083938Y29518475D01*
X-29083943Y29518478D01*
X-29295337Y29632879D01*
X-29295343Y29632882D01*
X-29295344Y29632882D01*
X-29313560Y29639136D01*
X-29522702Y29710934D01*
X-29581980Y29720826D01*
X-29759808Y29750500D01*
X-30000192Y29750500D01*
X-30142455Y29726761D01*
X-30237299Y29710934D01*
X-30464654Y29632883D01*
X-30464664Y29632879D01*
X-30676058Y29518478D01*
X-30676072Y29518469D01*
X-30865762Y29370828D01*
X-31028573Y29193967D01*
X-31160047Y28992732D01*
X-31160051Y28992726D01*
X-31256609Y28772594D01*
X-31315620Y28539564D01*
X-31335471Y28300000D01*
X-31315620Y28060436D01*
X-31274008Y27896108D01*
X-31279416Y27858997D01*
X-31286861Y27849432D01*
X-31581052Y27555239D01*
X-31675241Y27461051D01*
X-31675242Y27461050D01*
X-31749243Y27350298D01*
X-31800214Y27227242D01*
X-31800217Y27227231D01*
X-31826200Y27096606D01*
X-31826200Y25450388D01*
X-31840552Y25415740D01*
X-32329930Y24926362D01*
X-33531052Y23725239D01*
X-33625241Y23631051D01*
X-33625242Y23631050D01*
X-33699243Y23520298D01*
X-33750214Y23397242D01*
X-33750217Y23397231D01*
X-33776200Y23266606D01*
X-33776200Y15464777D01*
X-33790552Y15430129D01*
X-33808445Y15418731D01*
X-33843076Y15406130D01*
X-33843078Y15406130D01*
X-33843078Y15406129D01*
X-33843088Y15406125D01*
X-33981932Y15325979D01*
X-33981938Y15325975D01*
X-33981940Y15325973D01*
X-34030552Y15285187D01*
X-34104773Y15222915D01*
X-34207838Y15100090D01*
X-34288001Y14961238D01*
X-34288004Y14961233D01*
X-34342836Y14810559D01*
X-34370663Y14652661D01*
X-34370654Y14575985D01*
X-34370654Y14531501D01*
X-34370664Y14531321D01*
X-34370657Y14472860D01*
X-34370733Y14472675D01*
X-37223800Y14472675D01*
X-37223800Y16716599D01*
X-37223801Y16716603D01*
X-37226480Y16730070D01*
X-37227668Y16736046D01*
X-37249786Y16847241D01*
X-37266798Y16888312D01*
X-37276615Y16912013D01*
X-37300758Y16970299D01*
X-37304136Y16975354D01*
X-37347677Y17040518D01*
X-37374761Y17081053D01*
X-37932483Y17638774D01*
X-37946466Y17652758D01*
X-37946467Y17652758D01*
X-37953358Y17659650D01*
X-37953361Y17659652D01*
X-37993568Y17699859D01*
X-38003147Y17709438D01*
X-38092184Y17771785D01*
X-38112333Y17803414D01*
X-38108482Y17832638D01*
X-38102648Y17845143D01*
X-38061134Y17999998D01*
X-38047144Y18159709D01*
X-38061103Y18319424D01*
X-38102586Y18474287D01*
X-38170334Y18619592D01*
X-38262287Y18750925D01*
X-38262289Y18750927D01*
X-38262291Y18750930D01*
X-38270435Y18759074D01*
X-38270458Y18759099D01*
X-38296530Y18785171D01*
X-38331403Y18820044D01*
X-38343850Y18832492D01*
X-38374536Y18863180D01*
X-38374568Y18863209D01*
X-38380678Y18869319D01*
X-38434814Y18923456D01*
X-38460508Y18949151D01*
X-38460509Y18949152D01*
X-38460510Y18949153D01*
X-38591823Y19041099D01*
X-38591830Y19041104D01*
X-38737125Y19108857D01*
X-38737124Y19108857D01*
X-38737131Y19108860D01*
X-38878624Y19146773D01*
X-38908377Y19169603D01*
X-38913273Y19181425D01*
X-38951136Y19322777D01*
X-38951138Y19322783D01*
X-39018872Y19468072D01*
X-39054172Y19518497D01*
X-39110801Y19599391D01*
X-39116561Y19605152D01*
X-39118626Y19607218D01*
X-39118725Y19607328D01*
X-39167472Y19656075D01*
X-39221340Y19709956D01*
X-39221342Y19709957D01*
X-39223228Y19711844D01*
X-39223351Y19711954D01*
X-39229230Y19717833D01*
X-39287631Y19776235D01*
X-39309060Y19797665D01*
X-39309061Y19797666D01*
X-39309062Y19797667D01*
X-39421842Y19876637D01*
X-39440382Y19889618D01*
X-39569797Y19949966D01*
X-39585683Y19957374D01*
X-39727115Y19995270D01*
X-39756868Y20018100D01*
X-39761763Y20029916D01*
X-39763270Y20035538D01*
X-39799682Y20171404D01*
X-39867446Y20316701D01*
X-39867447Y20316702D01*
X-39867451Y20316710D01*
X-39959412Y20448023D01*
X-40016098Y20504701D01*
X-40016097Y20504703D01*
X-40016101Y20504704D01*
X-40018287Y20506890D01*
X-40149227Y20637831D01*
X-40149256Y20637858D01*
X-40157590Y20646193D01*
X-40222305Y20691508D01*
X-40288914Y20738149D01*
X-40288916Y20738150D01*
X-40288923Y20738154D01*
X-40434210Y20805903D01*
X-40434215Y20805905D01*
X-40575652Y20843803D01*
X-40605405Y20866633D01*
X-40610301Y20878455D01*
X-40613159Y20889123D01*
X-40648185Y21019883D01*
X-40669327Y21065228D01*
X-40715931Y21165186D01*
X-40715932Y21165187D01*
X-40715932Y21165188D01*
X-40807884Y21296521D01*
X-40807886Y21296523D01*
X-40807888Y21296526D01*
X-40815953Y21304591D01*
X-40815985Y21304626D01*
X-40864565Y21353206D01*
X-40920126Y21408771D01*
X-40920170Y21408811D01*
X-40997741Y21486383D01*
X-40997770Y21486410D01*
X-41006104Y21494745D01*
X-41117833Y21572980D01*
X-41137428Y21586701D01*
X-41137430Y21586702D01*
X-41137437Y21586706D01*
X-41282724Y21654455D01*
X-41282729Y21654457D01*
X-41437567Y21695946D01*
X-41437573Y21695947D01*
X-41597281Y21709920D01*
X-41756989Y21695948D01*
X-41756995Y21695947D01*
X-41911831Y21654458D01*
X-41911841Y21654455D01*
X-41924427Y21648586D01*
X-41961894Y21646952D01*
X-41985266Y21664884D01*
X-42047663Y21753971D01*
X-42081202Y21787500D01*
X-42081204Y21787504D01*
X-42104358Y21810649D01*
X-42104357Y21810649D01*
X-42107351Y21813642D01*
X-42140325Y21846616D01*
X-42140329Y21846621D01*
X-45230227Y24936518D01*
X-45709448Y25415739D01*
X-45723800Y25450387D01*
X-45723800Y25760000D01*
X-43635583Y25760000D01*
X-43615300Y25554066D01*
X-43555232Y25356046D01*
X-43457685Y25173550D01*
X-43326410Y25013590D01*
X-43166450Y24882315D01*
X-42983954Y24784768D01*
X-42785934Y24724700D01*
X-42580000Y24704417D01*
X-42374066Y24724700D01*
X-42176046Y24784768D01*
X-41993550Y24882315D01*
X-41833590Y25013590D01*
X-41702315Y25173550D01*
X-41604768Y25356046D01*
X-41544700Y25554066D01*
X-41524417Y25760000D01*
X-38555583Y25760000D01*
X-38535300Y25554066D01*
X-38475232Y25356046D01*
X-38377685Y25173550D01*
X-38246410Y25013590D01*
X-38086450Y24882315D01*
X-37903954Y24784768D01*
X-37705934Y24724700D01*
X-37500000Y24704417D01*
X-37294066Y24724700D01*
X-37096046Y24784768D01*
X-36913550Y24882315D01*
X-36753590Y25013590D01*
X-36622315Y25173550D01*
X-36524768Y25356046D01*
X-36464700Y25554066D01*
X-36444417Y25760000D01*
X-36464700Y25965934D01*
X-36524768Y26163954D01*
X-36622315Y26346450D01*
X-36753590Y26506410D01*
X-36913550Y26637685D01*
X-37096046Y26735232D01*
X-37294066Y26795300D01*
X-37500000Y26815583D01*
X-37705935Y26795300D01*
X-37705936Y26795300D01*
X-37903957Y26735231D01*
X-38086452Y26637684D01*
X-38246410Y26506410D01*
X-38377684Y26346452D01*
X-38475231Y26163957D01*
X-38535300Y25965936D01*
X-38535300Y25965935D01*
X-38535300Y25965934D01*
X-38555583Y25760000D01*
X-41524417Y25760000D01*
X-41544700Y25965934D01*
X-41604768Y26163954D01*
X-41702315Y26346450D01*
X-41833590Y26506410D01*
X-41993550Y26637685D01*
X-42176046Y26735232D01*
X-42374066Y26795300D01*
X-42580000Y26815583D01*
X-42785935Y26795300D01*
X-42785936Y26795300D01*
X-42983957Y26735231D01*
X-43166452Y26637684D01*
X-43326410Y26506410D01*
X-43457684Y26346452D01*
X-43555231Y26163957D01*
X-43615300Y25965936D01*
X-43615300Y25965935D01*
X-43615300Y25965934D01*
X-43635583Y25760000D01*
X-45723800Y25760000D01*
X-45723800Y27106599D01*
X-45723801Y27106606D01*
X-45749784Y27237231D01*
X-45749787Y27237242D01*
X-45761161Y27264701D01*
X-45800759Y27360301D01*
X-45848034Y27431052D01*
X-45874759Y27471050D01*
X-46253141Y27849432D01*
X-46267493Y27884080D01*
X-46265995Y27896104D01*
X-46224380Y28060437D01*
X-46204529Y28300000D01*
X-38555583Y28300000D01*
X-38535300Y28094066D01*
X-38475232Y27896046D01*
X-38377685Y27713550D01*
X-38246410Y27553590D01*
X-38086450Y27422315D01*
X-37903954Y27324768D01*
X-37705934Y27264700D01*
X-37500000Y27244417D01*
X-37294066Y27264700D01*
X-37096046Y27324768D01*
X-36913550Y27422315D01*
X-36753590Y27553590D01*
X-36622315Y27713550D01*
X-36524768Y27896046D01*
X-36464700Y28094066D01*
X-36444417Y28300000D01*
X-36464700Y28505934D01*
X-36524768Y28703954D01*
X-36622315Y28886450D01*
X-36753590Y29046410D01*
X-36913550Y29177685D01*
X-37096046Y29275232D01*
X-37294066Y29335300D01*
X-37500000Y29355583D01*
X-37705935Y29335300D01*
X-37705936Y29335300D01*
X-37903957Y29275231D01*
X-38086452Y29177684D01*
X-38246410Y29046410D01*
X-38377684Y28886452D01*
X-38475231Y28703957D01*
X-38535300Y28505936D01*
X-38535300Y28505935D01*
X-38535300Y28505934D01*
X-38555583Y28300000D01*
X-46204529Y28300000D01*
X-46224380Y28539563D01*
X-46283390Y28772591D01*
X-46379951Y28992728D01*
X-46511429Y29193969D01*
X-46674236Y29370825D01*
X-46674237Y29370826D01*
X-46674239Y29370828D01*
X-46863929Y29518469D01*
X-46863930Y29518470D01*
X-46863933Y29518472D01*
X-46863938Y29518475D01*
X-46863943Y29518478D01*
X-47075337Y29632879D01*
X-47075343Y29632882D01*
X-47075344Y29632882D01*
X-47093560Y29639136D01*
X-47302702Y29710934D01*
X-47361980Y29720826D01*
X-47539808Y29750500D01*
X-47780192Y29750500D01*
X-47922455Y29726761D01*
X-48017299Y29710934D01*
X-48244654Y29632883D01*
X-48244664Y29632879D01*
X-48456058Y29518478D01*
X-48456072Y29518469D01*
X-48645762Y29370828D01*
X-48808573Y29193967D01*
X-48888979Y29070897D01*
X-48919945Y29049741D01*
X-48956801Y29056677D01*
X-48971021Y29070897D01*
X-49004462Y29122081D01*
X-49051429Y29193969D01*
X-49214236Y29370825D01*
X-49214237Y29370826D01*
X-49214239Y29370828D01*
X-49403929Y29518469D01*
X-49403930Y29518470D01*
X-49403933Y29518472D01*
X-49403938Y29518475D01*
X-49403943Y29518478D01*
X-49615337Y29632879D01*
X-49615343Y29632882D01*
X-49615344Y29632882D01*
X-49633560Y29639136D01*
X-49842702Y29710934D01*
X-49901980Y29720826D01*
X-50079808Y29750500D01*
X-50320192Y29750500D01*
X-50462455Y29726761D01*
X-50557299Y29710934D01*
X-50784654Y29632883D01*
X-50784664Y29632879D01*
X-50996058Y29518478D01*
X-50996072Y29518469D01*
X-51185762Y29370828D01*
X-51348573Y29193967D01*
X-51428979Y29070897D01*
X-51459945Y29049741D01*
X-51496801Y29056677D01*
X-51511021Y29070897D01*
X-51544462Y29122081D01*
X-51591429Y29193969D01*
X-51754236Y29370825D01*
X-51754237Y29370826D01*
X-51754239Y29370828D01*
X-51943929Y29518469D01*
X-51943930Y29518470D01*
X-51943933Y29518472D01*
X-51943938Y29518475D01*
X-51943943Y29518478D01*
X-52155337Y29632879D01*
X-52155343Y29632882D01*
X-52155344Y29632882D01*
X-52173560Y29639136D01*
X-52382702Y29710934D01*
X-52441980Y29720826D01*
X-52619808Y29750500D01*
X-52860192Y29750500D01*
X-53002455Y29726761D01*
X-53097299Y29710934D01*
X-53324654Y29632883D01*
X-53324664Y29632879D01*
X-53536058Y29518478D01*
X-53536072Y29518469D01*
X-53725762Y29370828D01*
X-53888573Y29193967D01*
X-53968979Y29070897D01*
X-53999945Y29049741D01*
X-54036801Y29056677D01*
X-54051021Y29070897D01*
X-54084462Y29122081D01*
X-54131429Y29193969D01*
X-54294236Y29370825D01*
X-54294237Y29370826D01*
X-54294239Y29370828D01*
X-54483929Y29518469D01*
X-54483930Y29518470D01*
X-54483933Y29518472D01*
X-54483938Y29518475D01*
X-54483943Y29518478D01*
X-54695337Y29632879D01*
X-54695343Y29632882D01*
X-54695344Y29632882D01*
X-54713560Y29639136D01*
X-54922702Y29710934D01*
X-54981980Y29720826D01*
X-55159808Y29750500D01*
X-55400192Y29750500D01*
X-55542455Y29726761D01*
X-55637299Y29710934D01*
X-55864654Y29632883D01*
X-55864664Y29632879D01*
X-56076058Y29518478D01*
X-56076072Y29518469D01*
X-56265762Y29370828D01*
X-56428573Y29193967D01*
X-56508979Y29070897D01*
X-56539945Y29049741D01*
X-56576801Y29056677D01*
X-56591021Y29070897D01*
X-56624462Y29122081D01*
X-56671429Y29193969D01*
X-56834236Y29370825D01*
X-56834237Y29370826D01*
X-56834239Y29370828D01*
X-57023929Y29518469D01*
X-57023930Y29518470D01*
X-57023933Y29518472D01*
X-57023938Y29518475D01*
X-57023943Y29518478D01*
X-57235337Y29632879D01*
X-57235343Y29632882D01*
X-57235344Y29632882D01*
X-57253560Y29639136D01*
X-57462702Y29710934D01*
X-57521980Y29720826D01*
X-57699808Y29750500D01*
X-57940192Y29750500D01*
X-58082455Y29726761D01*
X-58177299Y29710934D01*
X-58404654Y29632883D01*
X-58404664Y29632879D01*
X-58616058Y29518478D01*
X-58616072Y29518469D01*
X-58805762Y29370828D01*
X-58968573Y29193967D01*
X-59048979Y29070897D01*
X-59079945Y29049741D01*
X-59116801Y29056677D01*
X-59131021Y29070897D01*
X-59164462Y29122081D01*
X-59211429Y29193969D01*
X-59374236Y29370825D01*
X-59374237Y29370826D01*
X-59374239Y29370828D01*
X-59563929Y29518469D01*
X-59563930Y29518470D01*
X-59563933Y29518472D01*
X-59563938Y29518475D01*
X-59563943Y29518478D01*
X-59775337Y29632879D01*
X-59775343Y29632882D01*
X-59775344Y29632882D01*
X-59793560Y29639136D01*
X-60002702Y29710934D01*
X-60061980Y29720826D01*
X-60239808Y29750500D01*
X-60480192Y29750500D01*
X-60622455Y29726761D01*
X-60717299Y29710934D01*
X-60944654Y29632883D01*
X-60944664Y29632879D01*
X-61156058Y29518478D01*
X-61156072Y29518469D01*
X-61345762Y29370828D01*
X-61508573Y29193967D01*
X-61588979Y29070897D01*
X-61619945Y29049741D01*
X-61656801Y29056677D01*
X-61671021Y29070897D01*
X-61704462Y29122081D01*
X-61751429Y29193969D01*
X-61914236Y29370825D01*
X-61914237Y29370826D01*
X-61914239Y29370828D01*
X-62103929Y29518469D01*
X-62103930Y29518470D01*
X-62103933Y29518472D01*
X-62103938Y29518475D01*
X-62103943Y29518478D01*
X-62315337Y29632879D01*
X-62315343Y29632882D01*
X-62315344Y29632882D01*
X-62333560Y29639136D01*
X-62542702Y29710934D01*
X-62601980Y29720826D01*
X-62779808Y29750500D01*
X-63020192Y29750500D01*
X-63162455Y29726761D01*
X-63257299Y29710934D01*
X-63484654Y29632883D01*
X-63484664Y29632879D01*
X-63696058Y29518478D01*
X-63696072Y29518469D01*
X-63885762Y29370828D01*
X-64048573Y29193967D01*
X-64128979Y29070897D01*
X-64159945Y29049741D01*
X-64196801Y29056677D01*
X-64211021Y29070897D01*
X-64244462Y29122081D01*
X-64291429Y29193969D01*
X-64454236Y29370825D01*
X-64454237Y29370826D01*
X-64454239Y29370828D01*
X-64643929Y29518469D01*
X-64643930Y29518470D01*
X-64643933Y29518472D01*
X-64643938Y29518475D01*
X-64643943Y29518478D01*
X-64855337Y29632879D01*
X-64855343Y29632882D01*
X-64855344Y29632882D01*
X-64873560Y29639136D01*
X-65082702Y29710934D01*
X-65141980Y29720826D01*
X-65319808Y29750500D01*
X-65560192Y29750500D01*
X-65702455Y29726761D01*
X-65797299Y29710934D01*
X-66024654Y29632883D01*
X-66024664Y29632879D01*
X-66236058Y29518478D01*
X-66236072Y29518469D01*
X-66425762Y29370828D01*
X-66588573Y29193967D01*
X-66668979Y29070897D01*
X-66699945Y29049741D01*
X-66736801Y29056677D01*
X-66751021Y29070897D01*
X-66784462Y29122081D01*
X-66831429Y29193969D01*
X-66994236Y29370825D01*
X-66994237Y29370826D01*
X-66994239Y29370828D01*
X-67183929Y29518469D01*
X-67183930Y29518470D01*
X-67183933Y29518472D01*
X-67183938Y29518475D01*
X-67183943Y29518478D01*
X-67395337Y29632879D01*
X-67395343Y29632882D01*
X-67395344Y29632882D01*
X-67413560Y29639136D01*
X-67622702Y29710934D01*
X-67681980Y29720826D01*
X-67859808Y29750500D01*
X-68100192Y29750500D01*
X-68242455Y29726761D01*
X-68337299Y29710934D01*
X-68564654Y29632883D01*
X-68564664Y29632879D01*
X-68776058Y29518478D01*
X-68776072Y29518469D01*
X-68965762Y29370828D01*
X-69128573Y29193967D01*
X-69260047Y28992732D01*
X-69260051Y28992726D01*
X-69356609Y28772594D01*
X-69415620Y28539564D01*
X-69418407Y28505935D01*
X-69435471Y28300000D01*
X-74799500Y28300000D01*
X-74799500Y29998797D01*
X-74799441Y30001201D01*
X-74797541Y30039882D01*
X-74781322Y30370023D01*
X-74780854Y30374780D01*
X-74726845Y30738882D01*
X-74725914Y30743564D01*
X-74636480Y31100605D01*
X-74635084Y31105204D01*
X-74552393Y31336309D01*
X-74511083Y31451764D01*
X-74509254Y31456177D01*
X-74351885Y31788907D01*
X-74349637Y31793114D01*
X-74160402Y32108834D01*
X-74157732Y32112827D01*
X-73938478Y32408456D01*
X-73935452Y32412144D01*
X-73688269Y32684869D01*
X-73684868Y32688269D01*
X-73412144Y32935452D01*
X-73408456Y32938478D01*
X-73112823Y33157735D01*
X-73108829Y33160404D01*
X-72793114Y33349637D01*
X-72788907Y33351885D01*
X-72456177Y33509254D01*
X-72451764Y33511083D01*
X-72105202Y33635085D01*
X-72100602Y33636480D01*
X-71743564Y33725914D01*
X-71738882Y33726845D01*
X-71374780Y33780854D01*
X-71370023Y33781322D01*
X-71001201Y33799442D01*
X-70998797Y33799500D01*
X-70960118Y33799500D01*
X-4039882Y33799500D01*
X-4001203Y33799500D01*
X-3998800Y33799442D01*
G37*
G04 #@! TD.AperFunction*
G04 #@! TD*
M02*
