G04 #@! TF.GenerationSoftware,KiCad,Pcbnew,8.0.6*
G04 #@! TF.CreationDate,2024-11-07T02:27:30-08:00*
G04 #@! TF.ProjectId,mse-50-idc,6d73652d-3530-42d6-9964-632e6b696361,1*
G04 #@! TF.SameCoordinates,Original*
G04 #@! TF.FileFunction,Copper,L5,Inr*
G04 #@! TF.FilePolarity,Positive*
%FSLAX46Y46*%
G04 Gerber Fmt 4.6, Leading zero omitted, Abs format (unit mm)*
G04 Created by KiCad (PCBNEW 8.0.6) date 2024-11-07 02:27:30*
%MOMM*%
%LPD*%
G01*
G04 APERTURE LIST*
G04 Aperture macros list*
%AMRoundRect*
0 Rectangle with rounded corners*
0 $1 Rounding radius*
0 $2 $3 $4 $5 $6 $7 $8 $9 X,Y pos of 4 corners*
0 Add a 4 corners polygon primitive as box body*
4,1,4,$2,$3,$4,$5,$6,$7,$8,$9,$2,$3,0*
0 Add four circle primitives for the rounded corners*
1,1,$1+$1,$2,$3*
1,1,$1+$1,$4,$5*
1,1,$1+$1,$6,$7*
1,1,$1+$1,$8,$9*
0 Add four rect primitives between the rounded corners*
20,1,$1+$1,$2,$3,$4,$5,0*
20,1,$1+$1,$4,$5,$6,$7,0*
20,1,$1+$1,$6,$7,$8,$9,0*
20,1,$1+$1,$8,$9,$2,$3,0*%
G04 Aperture macros list end*
%ADD10C,0.300000*%
G04 #@! TA.AperFunction,NonConductor*
%ADD11C,0.300000*%
G04 #@! TD*
G04 #@! TA.AperFunction,ComponentPad*
%ADD12RoundRect,0.250000X0.600000X-0.600000X0.600000X0.600000X-0.600000X0.600000X-0.600000X-0.600000X0*%
G04 #@! TD*
G04 #@! TA.AperFunction,ComponentPad*
%ADD13C,1.700000*%
G04 #@! TD*
G04 #@! TA.AperFunction,ComponentPad*
%ADD14C,6.400000*%
G04 #@! TD*
G04 #@! TA.AperFunction,ComponentPad*
%ADD15C,1.850000*%
G04 #@! TD*
G04 #@! TA.AperFunction,ViaPad*
%ADD16C,0.450000*%
G04 #@! TD*
G04 APERTURE END LIST*
D10*
D11*
X-1999172Y19657144D02*
X-1999172Y18942858D01*
X-1999172Y18942858D02*
X-1284886Y18871430D01*
X-1284886Y18871430D02*
X-1356315Y18942858D01*
X-1356315Y18942858D02*
X-1427743Y19085715D01*
X-1427743Y19085715D02*
X-1427743Y19442858D01*
X-1427743Y19442858D02*
X-1356315Y19585715D01*
X-1356315Y19585715D02*
X-1284886Y19657144D01*
X-1284886Y19657144D02*
X-1142029Y19728573D01*
X-1142029Y19728573D02*
X-784886Y19728573D01*
X-784886Y19728573D02*
X-642029Y19657144D01*
X-642029Y19657144D02*
X-570600Y19585715D01*
X-570600Y19585715D02*
X-499172Y19442858D01*
X-499172Y19442858D02*
X-499172Y19085715D01*
X-499172Y19085715D02*
X-570600Y18942858D01*
X-570600Y18942858D02*
X-642029Y18871430D01*
D12*
G04 #@! TO.N,/CON.DB0+*
G04 #@! TO.C,J2*
X-67980000Y25760000D03*
D13*
G04 #@! TO.N,/CON.DB0-*
X-67980000Y28300000D03*
G04 #@! TO.N,/CON.DB1+*
X-65440000Y25760000D03*
G04 #@! TO.N,/CON.DB1-*
X-65440000Y28300000D03*
G04 #@! TO.N,/CON.DB2+*
X-62900001Y25760000D03*
G04 #@! TO.N,/CON.DB2-*
X-62900000Y28300000D03*
G04 #@! TO.N,/CON.DB3+*
X-60360000Y25760000D03*
G04 #@! TO.N,/CON.DB3-*
X-60360000Y28300000D03*
G04 #@! TO.N,/CON.DB4+*
X-57820000Y25760000D03*
G04 #@! TO.N,/CON.DB4-*
X-57820000Y28300000D03*
G04 #@! TO.N,/CON.DB5+*
X-55280000Y25760000D03*
G04 #@! TO.N,/CON.DB5-*
X-55280000Y28300000D03*
G04 #@! TO.N,/CON.DB6+*
X-52740000Y25760000D03*
G04 #@! TO.N,/CON.DB6-*
X-52740000Y28300000D03*
G04 #@! TO.N,/CON.DB7+*
X-50199999Y25760000D03*
G04 #@! TO.N,/CON.DB7-*
X-50200000Y28300000D03*
G04 #@! TO.N,/CON.DP0+*
X-47660000Y25760000D03*
G04 #@! TO.N,/CON.DP0-*
X-47660000Y28300000D03*
G04 #@! TO.N,GND*
X-45120000Y25760000D03*
X-45120000Y28300000D03*
G04 #@! TO.N,/CON.DIFFSENSE*
X-42580000Y25760000D03*
G04 #@! TO.N,GND*
X-42580000Y28300000D03*
X-40040001Y25760000D03*
X-40040000Y28300000D03*
G04 #@! TO.N,unconnected-(J2-Pin_25-Pad25)*
X-37500000Y25760000D03*
G04 #@! TO.N,/CON.TERMPWR*
X-37500000Y28300000D03*
G04 #@! TO.N,GND*
X-34960000Y25760000D03*
X-34960000Y28300000D03*
X-32420000Y25760000D03*
X-32420000Y28300000D03*
G04 #@! TO.N,/CON.ATN+*
X-29880001Y25760000D03*
G04 #@! TO.N,/CON.ATN-*
X-29880000Y28300000D03*
G04 #@! TO.N,GND*
X-27339999Y25760000D03*
X-27340000Y28300000D03*
G04 #@! TO.N,/CON.BSY+*
X-24800000Y25760000D03*
G04 #@! TO.N,/CON.BSY-*
X-24800000Y28300000D03*
G04 #@! TO.N,/CON.ACK+*
X-22260000Y25760000D03*
G04 #@! TO.N,/CON.ACK-*
X-22260000Y28300000D03*
G04 #@! TO.N,/CON.RST+*
X-19720000Y25760000D03*
G04 #@! TO.N,/CON.RST-*
X-19720000Y28300000D03*
G04 #@! TO.N,/CON.MSG+*
X-17180001Y25760000D03*
G04 #@! TO.N,/CON.MSG-*
X-17180000Y28300000D03*
G04 #@! TO.N,/CON.SEL+*
X-14640000Y25760000D03*
G04 #@! TO.N,/CON.SEL-*
X-14640000Y28300000D03*
G04 #@! TO.N,/CON.C{slash}D+*
X-12100000Y25760000D03*
G04 #@! TO.N,/CON.C{slash}D-*
X-12100000Y28300000D03*
G04 #@! TO.N,/CON.REQ+*
X-9560000Y25760000D03*
G04 #@! TO.N,/CON.REQ-*
X-9560000Y28300000D03*
G04 #@! TO.N,/CON.I{slash}O+*
X-7020001Y25760000D03*
G04 #@! TO.N,/CON.I{slash}O-*
X-7020000Y28300000D03*
G04 #@! TD*
D14*
G04 #@! TO.N,GND*
G04 #@! TO.C,H4*
X-4000000Y4000000D03*
G04 #@! TD*
D15*
G04 #@! TO.N,+3V3*
G04 #@! TO.C,J3*
X-72440000Y16010000D03*
G04 #@! TO.N,/PHY.ID_SDA*
X-69900000Y14740000D03*
G04 #@! TO.N,GND*
X-72440000Y13470000D03*
G04 #@! TO.N,/PHY.ID_SCL*
X-69900000Y12200000D03*
G04 #@! TD*
D14*
G04 #@! TO.N,GND*
G04 #@! TO.C,H3*
X-71000000Y4000000D03*
G04 #@! TD*
D16*
G04 #@! TO.N,GND*
X-20300000Y5400000D03*
X-22700000Y1800000D03*
X-49100000Y1800000D03*
X-53900000Y1000000D03*
X-29900000Y2600000D03*
X-22700000Y3200000D03*
X-39500000Y6200000D03*
X-25100000Y3200000D03*
X-20300000Y3200000D03*
X-39500000Y1800000D03*
X-44300000Y7000000D03*
X-49100000Y6200000D03*
X-64650000Y4000000D03*
X-46700000Y6200000D03*
X-51500000Y2600000D03*
X-27500000Y2600000D03*
X-39500000Y7000000D03*
X-32300000Y1800000D03*
X-53900000Y5400000D03*
X-20300000Y1800000D03*
X-41900000Y3200000D03*
X-44300000Y3200000D03*
X-53900000Y2600000D03*
X-37100000Y5400000D03*
X-63600000Y4000000D03*
X-25100000Y7000000D03*
X-39500000Y5400000D03*
X-33900000Y1000000D03*
X-41900000Y1000000D03*
X-64100000Y4500000D03*
X-33900000Y2600000D03*
X-49100000Y2600000D03*
X-33900000Y6200000D03*
X-54700000Y3200000D03*
X-51500000Y5400000D03*
X-33900000Y3200000D03*
X-32300000Y3200000D03*
X-44300000Y6200000D03*
X-27500000Y6200000D03*
X-39500000Y1000000D03*
X-37100000Y3200000D03*
X-25100000Y1800000D03*
X-41900000Y7000000D03*
X-53900000Y7000000D03*
X-41900000Y6200000D03*
X-51500000Y3200000D03*
X-27500000Y5400000D03*
X-54700000Y6200000D03*
X-29900000Y1000000D03*
X-20300000Y1000000D03*
X-53900000Y1800000D03*
X-51500000Y6200000D03*
X-20300000Y2600000D03*
X-22700000Y1000000D03*
X-44300000Y5400000D03*
X-33900000Y1800000D03*
X-32300000Y5400000D03*
X-20300000Y6200000D03*
X-49100000Y3200000D03*
X-37100000Y6200000D03*
X-25100000Y2600000D03*
X-46700000Y3200000D03*
X-37100000Y7000000D03*
X-39500000Y2600000D03*
X-25100000Y6200000D03*
X-33900000Y7000000D03*
X-51500000Y7000000D03*
X-54700000Y7000000D03*
X-29900000Y7000000D03*
X-44300000Y1800000D03*
X-22700000Y2600000D03*
X-17900000Y5400000D03*
X-41900000Y2600000D03*
X-17900000Y7000000D03*
X-44300000Y1000000D03*
X-32300000Y7000000D03*
X-29900000Y3200000D03*
X-51500000Y1800000D03*
X-54700000Y5400000D03*
X-22700000Y6200000D03*
X-57100000Y5400000D03*
X-37100000Y1800000D03*
X-46700000Y1000000D03*
X-25100000Y1000000D03*
X-32300000Y2600000D03*
X-44300000Y2600000D03*
X-46700000Y5400000D03*
X-54700000Y1800000D03*
X-22700000Y7000000D03*
X-46700000Y2600000D03*
X-37100000Y1000000D03*
X-39500000Y3200000D03*
X-37100000Y2600000D03*
X-51500000Y1000000D03*
X-17900000Y1000000D03*
X-20300000Y7000000D03*
X-57100000Y6200000D03*
X-32300000Y1000000D03*
X-33900000Y5400000D03*
X-46700000Y1800000D03*
X-29900000Y5400000D03*
X-27500000Y1800000D03*
X-41900000Y1800000D03*
X-53900000Y6200000D03*
X-41900000Y5400000D03*
X-29900000Y6200000D03*
X-49100000Y5400000D03*
X-17900000Y3200000D03*
X-54700000Y2600000D03*
X-49100000Y7000000D03*
X-49100000Y1000000D03*
X-27500000Y3200000D03*
X-46700000Y7000000D03*
X-29900000Y1800000D03*
X-25100000Y5400000D03*
X-64100000Y3500000D03*
X-32300000Y6200000D03*
X-17900000Y6200000D03*
X-27500000Y1000000D03*
X-57100000Y7000000D03*
X-22700000Y5400000D03*
X-17900000Y2600000D03*
X-54700000Y1000000D03*
X-17900000Y1800000D03*
X-27500000Y7000000D03*
X-66050000Y3150000D03*
X-53900000Y3200000D03*
G04 #@! TO.N,/PHY.ID_SCL*
X-67200000Y12150000D03*
X-63000000Y8500000D03*
G04 #@! TO.N,+3V3*
X-56300000Y1800000D03*
X-67200000Y16500000D03*
X-67200000Y10500000D03*
X-66050000Y4850000D03*
X-56300000Y1000000D03*
X-56300000Y2600000D03*
X-62150000Y4850000D03*
G04 #@! TO.N,/PHY.ID_SDA*
X-67200000Y14750000D03*
X-62400000Y7900000D03*
G04 #@! TO.N,/CON.C{slash}D+*
X-25900000Y3200000D03*
G04 #@! TO.N,/CON.ACK+*
X-30700000Y3200000D03*
G04 #@! TO.N,/CON.TERMPWR*
X-34700000Y2600000D03*
X-35500000Y7000000D03*
X-35500000Y1000000D03*
X-34700000Y5400000D03*
X-34700000Y6200000D03*
X-34700000Y1000000D03*
X-35500000Y5400000D03*
X-35500000Y6200000D03*
X-35500000Y2600000D03*
X-34700000Y1800000D03*
X-34700000Y7000000D03*
X-35500000Y1800000D03*
G04 #@! TO.N,/CON.BSY+*
X-31500000Y3200000D03*
G04 #@! TO.N,/CON.DB5+*
X-41100000Y3200000D03*
G04 #@! TO.N,/CON.DP0+*
X-37900000Y3200000D03*
G04 #@! TO.N,/CON.SEL+*
X-26700000Y3200000D03*
G04 #@! TO.N,/CON.ATN+*
X-33100000Y3200000D03*
G04 #@! TO.N,/CON.DB7+*
X-38700000Y3200000D03*
G04 #@! TO.N,/CON.REQ+*
X-24300000Y3200000D03*
G04 #@! TO.N,/CON.MSG+*
X-28300000Y3200000D03*
G04 #@! TO.N,/CON.DB3+*
X-43500000Y3200000D03*
G04 #@! TO.N,/CON.DIFFSENSE*
X-36300000Y3200000D03*
G04 #@! TO.N,/CON.I{slash}O+*
X-23500000Y3200000D03*
G04 #@! TO.N,/CON.DB4+*
X-42700000Y3200000D03*
G04 #@! TO.N,/CON.RST+*
X-29100000Y3200000D03*
G04 #@! TO.N,/CON.DB6+*
X-40300000Y3200000D03*
G04 #@! TO.N,/CON.DB1+*
X-45900000Y3200000D03*
G04 #@! TO.N,/CON.DB2+*
X-45100000Y3200000D03*
G04 #@! TO.N,/CON.DB0+*
X-47500000Y3200000D03*
G04 #@! TD*
G04 #@! TA.AperFunction,Conductor*
G04 #@! TO.N,GND*
G36*
X-3998800Y33799442D02*
G01*
X-3629980Y33781322D01*
X-3625219Y33780854D01*
X-3261123Y33726846D01*
X-3256433Y33725913D01*
X-2963065Y33652428D01*
X-2899399Y33636480D01*
X-2894797Y33635084D01*
X-2781323Y33594483D01*
X-2548244Y33511085D01*
X-2543817Y33509251D01*
X-2211103Y33351889D01*
X-2206878Y33349632D01*
X-2015692Y33235039D01*
X-1891172Y33160404D01*
X-1887174Y33157732D01*
X-1739367Y33048111D01*
X-1591555Y32938486D01*
X-1587843Y32935440D01*
X-1315133Y32688269D01*
X-1311732Y32684868D01*
X-1064561Y32412158D01*
X-1061511Y32408441D01*
X-842269Y32112827D01*
X-839597Y32108829D01*
X-650374Y31793131D01*
X-648108Y31788890D01*
X-490754Y31456192D01*
X-488913Y31451750D01*
X-364917Y31105204D01*
X-363521Y31100602D01*
X-274091Y30743581D01*
X-273153Y30738865D01*
X-219149Y30374794D01*
X-218678Y30370008D01*
X-200559Y30001201D01*
X-200500Y29998797D01*
X-200500Y21699000D01*
X-214852Y21664352D01*
X-249500Y21650000D01*
X-2500000Y21650000D01*
X-2500000Y12450000D01*
X-249500Y12450000D01*
X-214852Y12435648D01*
X-200500Y12401000D01*
X-200500Y4001204D01*
X-200559Y3998800D01*
X-218678Y3629993D01*
X-219149Y3625207D01*
X-273153Y3261136D01*
X-274091Y3256420D01*
X-363521Y2899399D01*
X-364917Y2894797D01*
X-488913Y2548251D01*
X-490754Y2543809D01*
X-648108Y2211111D01*
X-650374Y2206870D01*
X-839597Y1891172D01*
X-842269Y1887174D01*
X-1061511Y1591560D01*
X-1064561Y1587843D01*
X-1311732Y1315133D01*
X-1315133Y1311732D01*
X-1587843Y1064561D01*
X-1591560Y1061511D01*
X-1887174Y842269D01*
X-1891172Y839597D01*
X-2206870Y650374D01*
X-2211111Y648108D01*
X-2543809Y490754D01*
X-2548251Y488913D01*
X-2894797Y364917D01*
X-2899399Y363521D01*
X-3256420Y274091D01*
X-3261136Y273153D01*
X-3625207Y219149D01*
X-3629993Y218678D01*
X-3998799Y200559D01*
X-4001203Y200500D01*
X-70998797Y200500D01*
X-71001201Y200559D01*
X-71370008Y218678D01*
X-71374794Y219149D01*
X-71738865Y273153D01*
X-71743581Y274091D01*
X-72100602Y363521D01*
X-72105204Y364917D01*
X-72451750Y488913D01*
X-72456192Y490754D01*
X-72788890Y648108D01*
X-72793131Y650374D01*
X-72810149Y660574D01*
X-72894723Y711266D01*
X-73108829Y839597D01*
X-73112827Y842269D01*
X-73325503Y1000000D01*
X-56656894Y1000000D01*
X-56639426Y889714D01*
X-56588733Y790223D01*
X-56509777Y711267D01*
X-56410286Y660574D01*
X-56300000Y643106D01*
X-56189714Y660574D01*
X-56090223Y711267D01*
X-56011267Y790223D01*
X-55960574Y889714D01*
X-55943106Y1000000D01*
X-35856894Y1000000D01*
X-35839426Y889714D01*
X-35788733Y790223D01*
X-35709777Y711267D01*
X-35610286Y660574D01*
X-35500000Y643106D01*
X-35389714Y660574D01*
X-35290223Y711267D01*
X-35211267Y790223D01*
X-35160574Y889714D01*
X-35148397Y966601D01*
X-35128801Y998575D01*
X-35125186Y999443D01*
X-35079463Y999443D01*
X-35060358Y987734D01*
X-35051605Y966602D01*
X-35039426Y889714D01*
X-34988733Y790223D01*
X-34909777Y711267D01*
X-34810286Y660574D01*
X-34700000Y643106D01*
X-34589714Y660574D01*
X-34490223Y711267D01*
X-34411267Y790223D01*
X-34360574Y889714D01*
X-34343106Y1000000D01*
X-34360574Y1110286D01*
X-34411267Y1209777D01*
X-34490223Y1288733D01*
X-34490226Y1288735D01*
X-34589714Y1339426D01*
X-34666601Y1351604D01*
X-34698575Y1371199D01*
X-34700559Y1379463D01*
X-34712267Y1360358D01*
X-34733400Y1351604D01*
X-34792274Y1342279D01*
X-34810287Y1339426D01*
X-34909775Y1288735D01*
X-34909778Y1288733D01*
X-34988733Y1209778D01*
X-34988735Y1209775D01*
X-35039426Y1110287D01*
X-35039426Y1110286D01*
X-35051604Y1033401D01*
X-35071199Y1001426D01*
X-35079463Y999443D01*
X-35125186Y999443D01*
X-35120538Y1000559D01*
X-35139642Y1012267D01*
X-35148397Y1033400D01*
X-35160574Y1110286D01*
X-35211267Y1209777D01*
X-35290223Y1288733D01*
X-35290226Y1288735D01*
X-35389714Y1339426D01*
X-35466601Y1351604D01*
X-35498575Y1371199D01*
X-35500559Y1379463D01*
X-35512267Y1360358D01*
X-35533400Y1351604D01*
X-35592274Y1342279D01*
X-35610287Y1339426D01*
X-35709775Y1288735D01*
X-35709778Y1288733D01*
X-35788733Y1209778D01*
X-35788735Y1209775D01*
X-35839426Y1110287D01*
X-35839426Y1110286D01*
X-35856894Y1000000D01*
X-55943106Y1000000D01*
X-55960574Y1110286D01*
X-56011267Y1209777D01*
X-56090223Y1288733D01*
X-56090226Y1288735D01*
X-56189714Y1339426D01*
X-56266601Y1351604D01*
X-56298575Y1371199D01*
X-56300559Y1379463D01*
X-56312267Y1360358D01*
X-56333400Y1351604D01*
X-56392274Y1342279D01*
X-56410287Y1339426D01*
X-56509775Y1288735D01*
X-56509778Y1288733D01*
X-56588733Y1209778D01*
X-56588735Y1209775D01*
X-56639426Y1110287D01*
X-56639426Y1110286D01*
X-56656894Y1000000D01*
X-73325503Y1000000D01*
X-73408441Y1061511D01*
X-73412158Y1064561D01*
X-73684868Y1311732D01*
X-73688269Y1315133D01*
X-73935440Y1587843D01*
X-73938490Y1591560D01*
X-74093079Y1800000D01*
X-56656894Y1800000D01*
X-56639426Y1689714D01*
X-56589415Y1591560D01*
X-56588733Y1590223D01*
X-56509777Y1511267D01*
X-56410286Y1460574D01*
X-56333401Y1448397D01*
X-56301426Y1428801D01*
X-56299443Y1420538D01*
X-56287734Y1439642D01*
X-56266602Y1448396D01*
X-56189714Y1460574D01*
X-56090223Y1511267D01*
X-56011267Y1590223D01*
X-55960574Y1689714D01*
X-55943106Y1800000D01*
X-35856894Y1800000D01*
X-35839426Y1689714D01*
X-35789415Y1591560D01*
X-35788733Y1590223D01*
X-35709777Y1511267D01*
X-35610286Y1460574D01*
X-35533401Y1448397D01*
X-35501426Y1428801D01*
X-35499443Y1420538D01*
X-35487734Y1439642D01*
X-35466602Y1448396D01*
X-35389714Y1460574D01*
X-35290223Y1511267D01*
X-35211267Y1590223D01*
X-35160574Y1689714D01*
X-35148397Y1766601D01*
X-35128801Y1798575D01*
X-35125186Y1799443D01*
X-35079463Y1799443D01*
X-35060358Y1787734D01*
X-35051605Y1766602D01*
X-35039426Y1689714D01*
X-34989415Y1591560D01*
X-34988733Y1590223D01*
X-34909777Y1511267D01*
X-34810286Y1460574D01*
X-34733401Y1448397D01*
X-34701426Y1428801D01*
X-34699443Y1420538D01*
X-34687734Y1439642D01*
X-34666602Y1448396D01*
X-34589714Y1460574D01*
X-34490223Y1511267D01*
X-34411267Y1590223D01*
X-34360574Y1689714D01*
X-34343106Y1800000D01*
X-34360574Y1910286D01*
X-34411267Y2009777D01*
X-34490223Y2088733D01*
X-34490226Y2088735D01*
X-34589714Y2139426D01*
X-34666601Y2151604D01*
X-34698575Y2171199D01*
X-34700559Y2179463D01*
X-34712267Y2160358D01*
X-34733400Y2151604D01*
X-34792274Y2142279D01*
X-34810287Y2139426D01*
X-34909775Y2088735D01*
X-34909778Y2088733D01*
X-34988733Y2009778D01*
X-34988735Y2009775D01*
X-35039426Y1910287D01*
X-35039426Y1910286D01*
X-35051604Y1833401D01*
X-35071199Y1801426D01*
X-35079463Y1799443D01*
X-35125186Y1799443D01*
X-35120538Y1800559D01*
X-35139642Y1812267D01*
X-35148397Y1833400D01*
X-35160574Y1910286D01*
X-35211267Y2009777D01*
X-35290223Y2088733D01*
X-35290226Y2088735D01*
X-35389714Y2139426D01*
X-35466601Y2151604D01*
X-35498575Y2171199D01*
X-35500559Y2179463D01*
X-35512267Y2160358D01*
X-35533400Y2151604D01*
X-35592274Y2142279D01*
X-35610287Y2139426D01*
X-35709775Y2088735D01*
X-35709778Y2088733D01*
X-35788733Y2009778D01*
X-35788735Y2009775D01*
X-35839426Y1910287D01*
X-35856894Y1800000D01*
X-55943106Y1800000D01*
X-55960574Y1910286D01*
X-56011267Y2009777D01*
X-56090223Y2088733D01*
X-56090226Y2088735D01*
X-56189714Y2139426D01*
X-56266601Y2151604D01*
X-56298575Y2171199D01*
X-56300559Y2179463D01*
X-56312267Y2160358D01*
X-56333400Y2151604D01*
X-56392274Y2142279D01*
X-56410287Y2139426D01*
X-56509775Y2088735D01*
X-56509778Y2088733D01*
X-56588733Y2009778D01*
X-56588735Y2009775D01*
X-56639426Y1910287D01*
X-56656894Y1800000D01*
X-74093079Y1800000D01*
X-74157732Y1887174D01*
X-74160404Y1891172D01*
X-74319672Y2156894D01*
X-74349632Y2206878D01*
X-74351889Y2211103D01*
X-74509251Y2543817D01*
X-74511088Y2548251D01*
X-74529405Y2599443D01*
X-74529604Y2600000D01*
X-56656894Y2600000D01*
X-56639426Y2489714D01*
X-56588733Y2390223D01*
X-56509777Y2311267D01*
X-56410286Y2260574D01*
X-56333401Y2248397D01*
X-56301426Y2228801D01*
X-56299443Y2220538D01*
X-56287734Y2239642D01*
X-56266602Y2248396D01*
X-56189714Y2260574D01*
X-56090223Y2311267D01*
X-56011267Y2390223D01*
X-55960574Y2489714D01*
X-55943106Y2600000D01*
X-35856894Y2600000D01*
X-35839426Y2489714D01*
X-35788733Y2390223D01*
X-35709777Y2311267D01*
X-35610286Y2260574D01*
X-35533401Y2248397D01*
X-35501426Y2228801D01*
X-35499443Y2220538D01*
X-35487734Y2239642D01*
X-35466602Y2248396D01*
X-35389714Y2260574D01*
X-35290223Y2311267D01*
X-35211267Y2390223D01*
X-35160574Y2489714D01*
X-35148397Y2566601D01*
X-35128801Y2598575D01*
X-35125186Y2599443D01*
X-35079463Y2599443D01*
X-35060358Y2587734D01*
X-35051605Y2566602D01*
X-35039426Y2489714D01*
X-34988733Y2390223D01*
X-34909777Y2311267D01*
X-34810286Y2260574D01*
X-34733401Y2248397D01*
X-34701426Y2228801D01*
X-34699443Y2220538D01*
X-34687734Y2239642D01*
X-34666602Y2248396D01*
X-34589714Y2260574D01*
X-34490223Y2311267D01*
X-34411267Y2390223D01*
X-34360574Y2489714D01*
X-34343106Y2600000D01*
X-34360574Y2710286D01*
X-34411267Y2809777D01*
X-34490223Y2888733D01*
X-34490226Y2888735D01*
X-34589714Y2939426D01*
X-34700000Y2956894D01*
X-34810287Y2939426D01*
X-34909775Y2888735D01*
X-34909778Y2888733D01*
X-34988733Y2809778D01*
X-34988735Y2809775D01*
X-35039426Y2710287D01*
X-35039426Y2710286D01*
X-35051604Y2633401D01*
X-35071199Y2601426D01*
X-35079463Y2599443D01*
X-35125186Y2599443D01*
X-35120538Y2600559D01*
X-35139642Y2612267D01*
X-35148397Y2633400D01*
X-35160574Y2710286D01*
X-35211267Y2809777D01*
X-35290223Y2888733D01*
X-35290226Y2888735D01*
X-35389714Y2939426D01*
X-35500000Y2956894D01*
X-35610287Y2939426D01*
X-35709775Y2888735D01*
X-35709778Y2888733D01*
X-35788733Y2809778D01*
X-35788735Y2809775D01*
X-35839426Y2710287D01*
X-35839426Y2710286D01*
X-35856894Y2600000D01*
X-55943106Y2600000D01*
X-55960574Y2710286D01*
X-56011267Y2809777D01*
X-56090223Y2888733D01*
X-56090226Y2888735D01*
X-56189714Y2939426D01*
X-56300000Y2956894D01*
X-56410287Y2939426D01*
X-56509775Y2888735D01*
X-56509778Y2888733D01*
X-56588733Y2809778D01*
X-56588735Y2809775D01*
X-56639426Y2710287D01*
X-56639426Y2710286D01*
X-56656894Y2600000D01*
X-74529604Y2600000D01*
X-74635084Y2894797D01*
X-74636480Y2899399D01*
X-74684152Y3089714D01*
X-74711777Y3200000D01*
X-47856894Y3200000D01*
X-47839426Y3089714D01*
X-47788733Y2990223D01*
X-47709777Y2911267D01*
X-47610286Y2860574D01*
X-47500000Y2843106D01*
X-47389714Y2860574D01*
X-47290223Y2911267D01*
X-47211267Y2990223D01*
X-47160574Y3089714D01*
X-47143106Y3200000D01*
X-46256894Y3200000D01*
X-46239426Y3089714D01*
X-46188733Y2990223D01*
X-46109777Y2911267D01*
X-46010286Y2860574D01*
X-45900000Y2843106D01*
X-45789714Y2860574D01*
X-45690223Y2911267D01*
X-45611267Y2990223D01*
X-45560574Y3089714D01*
X-45548397Y3166601D01*
X-45528801Y3198575D01*
X-45525186Y3199443D01*
X-45479463Y3199443D01*
X-45460358Y3187734D01*
X-45451605Y3166602D01*
X-45439426Y3089714D01*
X-45388733Y2990223D01*
X-45309777Y2911267D01*
X-45210286Y2860574D01*
X-45100000Y2843106D01*
X-44989714Y2860574D01*
X-44890223Y2911267D01*
X-44811267Y2990223D01*
X-44760574Y3089714D01*
X-44743106Y3200000D01*
X-43856894Y3200000D01*
X-43839426Y3089714D01*
X-43788733Y2990223D01*
X-43709777Y2911267D01*
X-43610286Y2860574D01*
X-43500000Y2843106D01*
X-43389714Y2860574D01*
X-43290223Y2911267D01*
X-43211267Y2990223D01*
X-43160574Y3089714D01*
X-43148397Y3166601D01*
X-43128801Y3198575D01*
X-43125186Y3199443D01*
X-43079463Y3199443D01*
X-43060358Y3187734D01*
X-43051605Y3166602D01*
X-43039426Y3089714D01*
X-42988733Y2990223D01*
X-42909777Y2911267D01*
X-42810286Y2860574D01*
X-42700000Y2843106D01*
X-42589714Y2860574D01*
X-42490223Y2911267D01*
X-42411267Y2990223D01*
X-42360574Y3089714D01*
X-42343106Y3200000D01*
X-41456894Y3200000D01*
X-41439426Y3089714D01*
X-41388733Y2990223D01*
X-41309777Y2911267D01*
X-41210286Y2860574D01*
X-41100000Y2843106D01*
X-40989714Y2860574D01*
X-40890223Y2911267D01*
X-40811267Y2990223D01*
X-40760574Y3089714D01*
X-40748397Y3166601D01*
X-40728801Y3198575D01*
X-40725186Y3199443D01*
X-40679463Y3199443D01*
X-40660358Y3187734D01*
X-40651605Y3166602D01*
X-40639426Y3089714D01*
X-40588733Y2990223D01*
X-40509777Y2911267D01*
X-40410286Y2860574D01*
X-40300000Y2843106D01*
X-40189714Y2860574D01*
X-40090223Y2911267D01*
X-40011267Y2990223D01*
X-39960574Y3089714D01*
X-39943106Y3200000D01*
X-39056894Y3200000D01*
X-39039426Y3089714D01*
X-38988733Y2990223D01*
X-38909777Y2911267D01*
X-38810286Y2860574D01*
X-38700000Y2843106D01*
X-38589714Y2860574D01*
X-38490223Y2911267D01*
X-38411267Y2990223D01*
X-38360574Y3089714D01*
X-38348397Y3166601D01*
X-38328801Y3198575D01*
X-38325186Y3199443D01*
X-38279463Y3199443D01*
X-38260358Y3187734D01*
X-38251605Y3166602D01*
X-38239426Y3089714D01*
X-38188733Y2990223D01*
X-38109777Y2911267D01*
X-38010286Y2860574D01*
X-37900000Y2843106D01*
X-37789714Y2860574D01*
X-37690223Y2911267D01*
X-37611267Y2990223D01*
X-37560574Y3089714D01*
X-37543106Y3200000D01*
X-36656894Y3200000D01*
X-36639426Y3089714D01*
X-36588733Y2990223D01*
X-36509777Y2911267D01*
X-36410286Y2860574D01*
X-36300000Y2843106D01*
X-36189714Y2860574D01*
X-36090223Y2911267D01*
X-36011267Y2990223D01*
X-35960574Y3089714D01*
X-35943106Y3200000D01*
X-33456894Y3200000D01*
X-33439426Y3089714D01*
X-33388733Y2990223D01*
X-33309777Y2911267D01*
X-33210286Y2860574D01*
X-33100000Y2843106D01*
X-32989714Y2860574D01*
X-32890223Y2911267D01*
X-32811267Y2990223D01*
X-32760574Y3089714D01*
X-32743106Y3200000D01*
X-31856894Y3200000D01*
X-31839426Y3089714D01*
X-31788733Y2990223D01*
X-31709777Y2911267D01*
X-31610286Y2860574D01*
X-31500000Y2843106D01*
X-31389714Y2860574D01*
X-31290223Y2911267D01*
X-31211267Y2990223D01*
X-31160574Y3089714D01*
X-31148397Y3166601D01*
X-31128801Y3198575D01*
X-31125186Y3199443D01*
X-31079463Y3199443D01*
X-31060358Y3187734D01*
X-31051605Y3166602D01*
X-31039426Y3089714D01*
X-30988733Y2990223D01*
X-30909777Y2911267D01*
X-30810286Y2860574D01*
X-30700000Y2843106D01*
X-30589714Y2860574D01*
X-30490223Y2911267D01*
X-30411267Y2990223D01*
X-30360574Y3089714D01*
X-30343106Y3200000D01*
X-29456894Y3200000D01*
X-29439426Y3089714D01*
X-29388733Y2990223D01*
X-29309777Y2911267D01*
X-29210286Y2860574D01*
X-29100000Y2843106D01*
X-28989714Y2860574D01*
X-28890223Y2911267D01*
X-28811267Y2990223D01*
X-28760574Y3089714D01*
X-28748397Y3166601D01*
X-28728801Y3198575D01*
X-28725186Y3199443D01*
X-28679463Y3199443D01*
X-28660358Y3187734D01*
X-28651605Y3166602D01*
X-28639426Y3089714D01*
X-28588733Y2990223D01*
X-28509777Y2911267D01*
X-28410286Y2860574D01*
X-28300000Y2843106D01*
X-28189714Y2860574D01*
X-28090223Y2911267D01*
X-28011267Y2990223D01*
X-27960574Y3089714D01*
X-27943106Y3200000D01*
X-27056894Y3200000D01*
X-27039426Y3089714D01*
X-26988733Y2990223D01*
X-26909777Y2911267D01*
X-26810286Y2860574D01*
X-26700000Y2843106D01*
X-26589714Y2860574D01*
X-26490223Y2911267D01*
X-26411267Y2990223D01*
X-26360574Y3089714D01*
X-26348397Y3166601D01*
X-26328801Y3198575D01*
X-26325186Y3199443D01*
X-26279463Y3199443D01*
X-26260358Y3187734D01*
X-26251605Y3166602D01*
X-26239426Y3089714D01*
X-26188733Y2990223D01*
X-26109777Y2911267D01*
X-26010286Y2860574D01*
X-25900000Y2843106D01*
X-25789714Y2860574D01*
X-25690223Y2911267D01*
X-25611267Y2990223D01*
X-25560574Y3089714D01*
X-25543106Y3200000D01*
X-24656894Y3200000D01*
X-24639426Y3089714D01*
X-24588733Y2990223D01*
X-24509777Y2911267D01*
X-24410286Y2860574D01*
X-24300000Y2843106D01*
X-24189714Y2860574D01*
X-24090223Y2911267D01*
X-24011267Y2990223D01*
X-23960574Y3089714D01*
X-23948397Y3166601D01*
X-23928801Y3198575D01*
X-23925186Y3199443D01*
X-23879463Y3199443D01*
X-23860358Y3187734D01*
X-23851605Y3166602D01*
X-23839426Y3089714D01*
X-23788733Y2990223D01*
X-23709777Y2911267D01*
X-23610286Y2860574D01*
X-23500000Y2843106D01*
X-23389714Y2860574D01*
X-23290223Y2911267D01*
X-23211267Y2990223D01*
X-23160574Y3089714D01*
X-23143106Y3200000D01*
X-23160574Y3310286D01*
X-23211267Y3409777D01*
X-23290223Y3488733D01*
X-23290226Y3488735D01*
X-23389714Y3539426D01*
X-23500000Y3556894D01*
X-23610287Y3539426D01*
X-23709775Y3488735D01*
X-23709778Y3488733D01*
X-23788733Y3409778D01*
X-23788735Y3409775D01*
X-23839426Y3310287D01*
X-23840983Y3300457D01*
X-23851604Y3233401D01*
X-23871199Y3201426D01*
X-23879463Y3199443D01*
X-23925186Y3199443D01*
X-23920538Y3200559D01*
X-23939642Y3212267D01*
X-23948397Y3233400D01*
X-23960574Y3310286D01*
X-24011267Y3409777D01*
X-24090223Y3488733D01*
X-24090226Y3488735D01*
X-24189714Y3539426D01*
X-24300000Y3556894D01*
X-24410287Y3539426D01*
X-24509775Y3488735D01*
X-24509778Y3488733D01*
X-24588733Y3409778D01*
X-24588735Y3409775D01*
X-24639426Y3310287D01*
X-24640983Y3300457D01*
X-24656894Y3200000D01*
X-25543106Y3200000D01*
X-25560574Y3310286D01*
X-25611267Y3409777D01*
X-25690223Y3488733D01*
X-25690226Y3488735D01*
X-25789714Y3539426D01*
X-25900000Y3556894D01*
X-26010287Y3539426D01*
X-26109775Y3488735D01*
X-26109778Y3488733D01*
X-26188733Y3409778D01*
X-26188735Y3409775D01*
X-26239426Y3310287D01*
X-26240983Y3300457D01*
X-26251604Y3233401D01*
X-26271199Y3201426D01*
X-26279463Y3199443D01*
X-26325186Y3199443D01*
X-26320538Y3200559D01*
X-26339642Y3212267D01*
X-26348397Y3233400D01*
X-26360574Y3310286D01*
X-26411267Y3409777D01*
X-26490223Y3488733D01*
X-26490226Y3488735D01*
X-26589714Y3539426D01*
X-26700000Y3556894D01*
X-26810287Y3539426D01*
X-26909775Y3488735D01*
X-26909778Y3488733D01*
X-26988733Y3409778D01*
X-26988735Y3409775D01*
X-27039426Y3310287D01*
X-27040983Y3300457D01*
X-27056894Y3200000D01*
X-27943106Y3200000D01*
X-27960574Y3310286D01*
X-28011267Y3409777D01*
X-28090223Y3488733D01*
X-28090226Y3488735D01*
X-28189714Y3539426D01*
X-28300000Y3556894D01*
X-28410287Y3539426D01*
X-28509775Y3488735D01*
X-28509778Y3488733D01*
X-28588733Y3409778D01*
X-28588735Y3409775D01*
X-28639426Y3310287D01*
X-28640983Y3300457D01*
X-28651604Y3233401D01*
X-28671199Y3201426D01*
X-28679463Y3199443D01*
X-28725186Y3199443D01*
X-28720538Y3200559D01*
X-28739642Y3212267D01*
X-28748397Y3233400D01*
X-28760574Y3310286D01*
X-28811267Y3409777D01*
X-28890223Y3488733D01*
X-28890226Y3488735D01*
X-28989714Y3539426D01*
X-29100000Y3556894D01*
X-29210287Y3539426D01*
X-29309775Y3488735D01*
X-29309778Y3488733D01*
X-29388733Y3409778D01*
X-29388735Y3409775D01*
X-29439426Y3310287D01*
X-29440983Y3300457D01*
X-29456894Y3200000D01*
X-30343106Y3200000D01*
X-30360574Y3310286D01*
X-30411267Y3409777D01*
X-30490223Y3488733D01*
X-30490226Y3488735D01*
X-30589714Y3539426D01*
X-30700000Y3556894D01*
X-30810287Y3539426D01*
X-30909775Y3488735D01*
X-30909778Y3488733D01*
X-30988733Y3409778D01*
X-30988735Y3409775D01*
X-31039426Y3310287D01*
X-31040983Y3300457D01*
X-31051604Y3233401D01*
X-31071199Y3201426D01*
X-31079463Y3199443D01*
X-31125186Y3199443D01*
X-31120538Y3200559D01*
X-31139642Y3212267D01*
X-31148397Y3233400D01*
X-31160574Y3310286D01*
X-31211267Y3409777D01*
X-31290223Y3488733D01*
X-31290226Y3488735D01*
X-31389714Y3539426D01*
X-31500000Y3556894D01*
X-31610287Y3539426D01*
X-31709775Y3488735D01*
X-31709778Y3488733D01*
X-31788733Y3409778D01*
X-31788735Y3409775D01*
X-31839426Y3310287D01*
X-31840983Y3300457D01*
X-31856894Y3200000D01*
X-32743106Y3200000D01*
X-32760574Y3310286D01*
X-32811267Y3409777D01*
X-32890223Y3488733D01*
X-32890226Y3488735D01*
X-32989714Y3539426D01*
X-33100000Y3556894D01*
X-33210287Y3539426D01*
X-33309775Y3488735D01*
X-33309778Y3488733D01*
X-33388733Y3409778D01*
X-33388735Y3409775D01*
X-33439426Y3310287D01*
X-33440983Y3300457D01*
X-33456894Y3200000D01*
X-35943106Y3200000D01*
X-35960574Y3310286D01*
X-36011267Y3409777D01*
X-36090223Y3488733D01*
X-36090226Y3488735D01*
X-36189714Y3539426D01*
X-36300000Y3556894D01*
X-36410287Y3539426D01*
X-36509775Y3488735D01*
X-36509778Y3488733D01*
X-36588733Y3409778D01*
X-36588735Y3409775D01*
X-36639426Y3310287D01*
X-36640983Y3300457D01*
X-36656894Y3200000D01*
X-37543106Y3200000D01*
X-37560574Y3310286D01*
X-37611267Y3409777D01*
X-37690223Y3488733D01*
X-37690226Y3488735D01*
X-37789714Y3539426D01*
X-37900000Y3556894D01*
X-38010287Y3539426D01*
X-38109775Y3488735D01*
X-38109778Y3488733D01*
X-38188733Y3409778D01*
X-38188735Y3409775D01*
X-38239426Y3310287D01*
X-38240983Y3300457D01*
X-38251604Y3233401D01*
X-38271199Y3201426D01*
X-38279463Y3199443D01*
X-38325186Y3199443D01*
X-38320538Y3200559D01*
X-38339642Y3212267D01*
X-38348397Y3233400D01*
X-38360574Y3310286D01*
X-38411267Y3409777D01*
X-38490223Y3488733D01*
X-38490226Y3488735D01*
X-38589714Y3539426D01*
X-38700000Y3556894D01*
X-38810287Y3539426D01*
X-38909775Y3488735D01*
X-38909778Y3488733D01*
X-38988733Y3409778D01*
X-38988735Y3409775D01*
X-39039426Y3310287D01*
X-39040983Y3300457D01*
X-39056894Y3200000D01*
X-39943106Y3200000D01*
X-39960574Y3310286D01*
X-40011267Y3409777D01*
X-40090223Y3488733D01*
X-40090226Y3488735D01*
X-40189714Y3539426D01*
X-40300000Y3556894D01*
X-40410287Y3539426D01*
X-40509775Y3488735D01*
X-40509778Y3488733D01*
X-40588733Y3409778D01*
X-40588735Y3409775D01*
X-40639426Y3310287D01*
X-40640983Y3300457D01*
X-40651604Y3233401D01*
X-40671199Y3201426D01*
X-40679463Y3199443D01*
X-40725186Y3199443D01*
X-40720538Y3200559D01*
X-40739642Y3212267D01*
X-40748397Y3233400D01*
X-40760574Y3310286D01*
X-40811267Y3409777D01*
X-40890223Y3488733D01*
X-40890226Y3488735D01*
X-40989714Y3539426D01*
X-41100000Y3556894D01*
X-41210287Y3539426D01*
X-41309775Y3488735D01*
X-41309778Y3488733D01*
X-41388733Y3409778D01*
X-41388735Y3409775D01*
X-41439426Y3310287D01*
X-41440983Y3300457D01*
X-41456894Y3200000D01*
X-42343106Y3200000D01*
X-42360574Y3310286D01*
X-42411267Y3409777D01*
X-42490223Y3488733D01*
X-42490226Y3488735D01*
X-42589714Y3539426D01*
X-42700000Y3556894D01*
X-42810287Y3539426D01*
X-42909775Y3488735D01*
X-42909778Y3488733D01*
X-42988733Y3409778D01*
X-42988735Y3409775D01*
X-43039426Y3310287D01*
X-43040983Y3300457D01*
X-43051604Y3233401D01*
X-43071199Y3201426D01*
X-43079463Y3199443D01*
X-43125186Y3199443D01*
X-43120538Y3200559D01*
X-43139642Y3212267D01*
X-43148397Y3233400D01*
X-43160574Y3310286D01*
X-43211267Y3409777D01*
X-43290223Y3488733D01*
X-43290226Y3488735D01*
X-43389714Y3539426D01*
X-43500000Y3556894D01*
X-43610287Y3539426D01*
X-43709775Y3488735D01*
X-43709778Y3488733D01*
X-43788733Y3409778D01*
X-43788735Y3409775D01*
X-43839426Y3310287D01*
X-43840983Y3300457D01*
X-43856894Y3200000D01*
X-44743106Y3200000D01*
X-44760574Y3310286D01*
X-44811267Y3409777D01*
X-44890223Y3488733D01*
X-44890226Y3488735D01*
X-44989714Y3539426D01*
X-45100000Y3556894D01*
X-45210287Y3539426D01*
X-45309775Y3488735D01*
X-45309778Y3488733D01*
X-45388733Y3409778D01*
X-45388735Y3409775D01*
X-45439426Y3310287D01*
X-45440983Y3300457D01*
X-45451604Y3233401D01*
X-45471199Y3201426D01*
X-45479463Y3199443D01*
X-45525186Y3199443D01*
X-45520538Y3200559D01*
X-45539642Y3212267D01*
X-45548397Y3233400D01*
X-45560574Y3310286D01*
X-45611267Y3409777D01*
X-45690223Y3488733D01*
X-45690226Y3488735D01*
X-45789714Y3539426D01*
X-45900000Y3556894D01*
X-46010287Y3539426D01*
X-46109775Y3488735D01*
X-46109778Y3488733D01*
X-46188733Y3409778D01*
X-46188735Y3409775D01*
X-46239426Y3310287D01*
X-46240983Y3300457D01*
X-46256894Y3200000D01*
X-47143106Y3200000D01*
X-47160574Y3310286D01*
X-47211267Y3409777D01*
X-47290223Y3488733D01*
X-47290226Y3488735D01*
X-47389714Y3539426D01*
X-47500000Y3556894D01*
X-47610287Y3539426D01*
X-47709775Y3488735D01*
X-47709778Y3488733D01*
X-47788733Y3409778D01*
X-47788735Y3409775D01*
X-47839426Y3310287D01*
X-47840983Y3300457D01*
X-47856894Y3200000D01*
X-74711777Y3200000D01*
X-74725913Y3256433D01*
X-74726846Y3261123D01*
X-74780854Y3625219D01*
X-74781322Y3629980D01*
X-74799441Y3998800D01*
X-74799500Y4001204D01*
X-74799500Y4071652D01*
X-60327500Y4071652D01*
X-60327500Y3928348D01*
X-60308948Y3835077D01*
X-60299544Y3787799D01*
X-60299542Y3787793D01*
X-60253280Y3676107D01*
X-60244702Y3655400D01*
X-60165086Y3536246D01*
X-60063754Y3434914D01*
X-59944600Y3355298D01*
X-59812204Y3300457D01*
X-59671652Y3272500D01*
X-59671649Y3272500D01*
X-59528351Y3272500D01*
X-59528348Y3272500D01*
X-59387796Y3300457D01*
X-59255400Y3355298D01*
X-59136246Y3434914D01*
X-59034914Y3536246D01*
X-58955298Y3655400D01*
X-58900457Y3787796D01*
X-58872500Y3928348D01*
X-58872500Y4069451D01*
X-15927500Y4069451D01*
X-15927500Y3930550D01*
X-15891553Y3796395D01*
X-15891552Y3796391D01*
X-15822105Y3676107D01*
X-15723893Y3577895D01*
X-15687518Y3556894D01*
X-15603610Y3508449D01*
X-15603608Y3508449D01*
X-15603607Y3508448D01*
X-15530037Y3488735D01*
X-15469451Y3472501D01*
X-15469450Y3472500D01*
X-15469447Y3472500D01*
X-15330550Y3472500D01*
X-15330550Y3472501D01*
X-15196393Y3508448D01*
X-15076107Y3577895D01*
X-14977895Y3676107D01*
X-14908448Y3796393D01*
X-14872501Y3930550D01*
X-14872500Y3930550D01*
X-14872500Y4069450D01*
X-14872501Y4069451D01*
X-14908448Y4203606D01*
X-14908449Y4203610D01*
X-14977896Y4323894D01*
X-15076107Y4422105D01*
X-15196391Y4491552D01*
X-15196395Y4491553D01*
X-15330550Y4527500D01*
X-15330553Y4527500D01*
X-15469447Y4527500D01*
X-15469450Y4527500D01*
X-15603606Y4491553D01*
X-15603610Y4491552D01*
X-15723894Y4422105D01*
X-15723894Y4422104D01*
X-15822104Y4323894D01*
X-15822105Y4323894D01*
X-15891552Y4203610D01*
X-15891553Y4203606D01*
X-15927500Y4069451D01*
X-58872500Y4069451D01*
X-58872500Y4071652D01*
X-58900457Y4212204D01*
X-58955298Y4344600D01*
X-59034914Y4463754D01*
X-59136246Y4565086D01*
X-59255400Y4644702D01*
X-59255403Y4644704D01*
X-59255404Y4644704D01*
X-59387793Y4699542D01*
X-59387799Y4699544D01*
X-59444480Y4710818D01*
X-59528348Y4727500D01*
X-59671652Y4727500D01*
X-59741606Y4713586D01*
X-59812202Y4699544D01*
X-59812208Y4699542D01*
X-59944597Y4644704D01*
X-60063754Y4565087D01*
X-60165087Y4463754D01*
X-60244704Y4344597D01*
X-60299542Y4212208D01*
X-60299544Y4212202D01*
X-60313586Y4141606D01*
X-60327500Y4071652D01*
X-74799500Y4071652D01*
X-74799500Y4850000D01*
X-66406894Y4850000D01*
X-66389426Y4739714D01*
X-66341016Y4644702D01*
X-66338733Y4640223D01*
X-66259777Y4561267D01*
X-66160286Y4510574D01*
X-66050000Y4493106D01*
X-65939714Y4510574D01*
X-65840223Y4561267D01*
X-65761267Y4640223D01*
X-65710574Y4739714D01*
X-65693106Y4850000D01*
X-62506894Y4850000D01*
X-62489426Y4739714D01*
X-62441016Y4644702D01*
X-62438733Y4640223D01*
X-62359777Y4561267D01*
X-62260286Y4510574D01*
X-62150000Y4493106D01*
X-62039714Y4510574D01*
X-61940223Y4561267D01*
X-61861267Y4640223D01*
X-61810574Y4739714D01*
X-61793106Y4850000D01*
X-61810574Y4960286D01*
X-61861267Y5059777D01*
X-61940223Y5138733D01*
X-61940226Y5138735D01*
X-62039714Y5189426D01*
X-62150000Y5206894D01*
X-62260287Y5189426D01*
X-62359775Y5138735D01*
X-62359778Y5138733D01*
X-62438733Y5059778D01*
X-62438735Y5059775D01*
X-62489426Y4960287D01*
X-62506894Y4850000D01*
X-65693106Y4850000D01*
X-65710574Y4960286D01*
X-65761267Y5059777D01*
X-65840223Y5138733D01*
X-65840226Y5138735D01*
X-65939714Y5189426D01*
X-66050000Y5206894D01*
X-66160287Y5189426D01*
X-66259775Y5138735D01*
X-66259778Y5138733D01*
X-66338733Y5059778D01*
X-66338735Y5059775D01*
X-66389426Y4960287D01*
X-66406894Y4850000D01*
X-74799500Y4850000D01*
X-74799500Y5400000D01*
X-35856894Y5400000D01*
X-35839426Y5289714D01*
X-35797228Y5206894D01*
X-35788733Y5190223D01*
X-35709777Y5111267D01*
X-35610286Y5060574D01*
X-35500000Y5043106D01*
X-35389714Y5060574D01*
X-35290223Y5111267D01*
X-35211267Y5190223D01*
X-35160574Y5289714D01*
X-35148397Y5366601D01*
X-35128801Y5398575D01*
X-35125186Y5399443D01*
X-35079463Y5399443D01*
X-35060358Y5387734D01*
X-35051605Y5366602D01*
X-35039426Y5289714D01*
X-34997228Y5206894D01*
X-34988733Y5190223D01*
X-34909777Y5111267D01*
X-34810286Y5060574D01*
X-34700000Y5043106D01*
X-34589714Y5060574D01*
X-34490223Y5111267D01*
X-34411267Y5190223D01*
X-34360574Y5289714D01*
X-34343106Y5400000D01*
X-34360574Y5510286D01*
X-34411267Y5609777D01*
X-34490223Y5688733D01*
X-34490226Y5688735D01*
X-34589714Y5739426D01*
X-34666601Y5751604D01*
X-34698575Y5771199D01*
X-34700559Y5779463D01*
X-34712267Y5760358D01*
X-34733400Y5751604D01*
X-34792274Y5742279D01*
X-34810287Y5739426D01*
X-34909775Y5688735D01*
X-34909778Y5688733D01*
X-34988733Y5609778D01*
X-34988735Y5609775D01*
X-35039426Y5510287D01*
X-35039426Y5510286D01*
X-35051604Y5433401D01*
X-35071199Y5401426D01*
X-35079463Y5399443D01*
X-35125186Y5399443D01*
X-35120538Y5400559D01*
X-35139642Y5412267D01*
X-35148397Y5433400D01*
X-35160574Y5510286D01*
X-35211267Y5609777D01*
X-35290223Y5688733D01*
X-35290226Y5688735D01*
X-35389714Y5739426D01*
X-35466601Y5751604D01*
X-35498575Y5771199D01*
X-35500559Y5779463D01*
X-35512267Y5760358D01*
X-35533400Y5751604D01*
X-35592274Y5742279D01*
X-35610287Y5739426D01*
X-35709775Y5688735D01*
X-35709778Y5688733D01*
X-35788733Y5609778D01*
X-35788735Y5609775D01*
X-35839426Y5510287D01*
X-35856894Y5400000D01*
X-74799500Y5400000D01*
X-74799500Y6200000D01*
X-35856894Y6200000D01*
X-35839426Y6089714D01*
X-35788733Y5990223D01*
X-35709777Y5911267D01*
X-35610286Y5860574D01*
X-35533401Y5848397D01*
X-35501426Y5828801D01*
X-35499443Y5820538D01*
X-35487734Y5839642D01*
X-35466602Y5848396D01*
X-35389714Y5860574D01*
X-35290223Y5911267D01*
X-35211267Y5990223D01*
X-35160574Y6089714D01*
X-35148397Y6166601D01*
X-35128801Y6198575D01*
X-35125186Y6199443D01*
X-35079463Y6199443D01*
X-35060358Y6187734D01*
X-35051605Y6166602D01*
X-35039426Y6089714D01*
X-34988733Y5990223D01*
X-34909777Y5911267D01*
X-34810286Y5860574D01*
X-34733401Y5848397D01*
X-34701426Y5828801D01*
X-34699443Y5820538D01*
X-34687734Y5839642D01*
X-34666602Y5848396D01*
X-34589714Y5860574D01*
X-34490223Y5911267D01*
X-34411267Y5990223D01*
X-34360574Y6089714D01*
X-34343106Y6200000D01*
X-34360574Y6310286D01*
X-34411267Y6409777D01*
X-34490223Y6488733D01*
X-34490226Y6488735D01*
X-34589714Y6539426D01*
X-34666601Y6551604D01*
X-34698575Y6571199D01*
X-34700559Y6579463D01*
X-34712267Y6560358D01*
X-34733400Y6551604D01*
X-34792274Y6542279D01*
X-34810287Y6539426D01*
X-34909775Y6488735D01*
X-34909778Y6488733D01*
X-34988733Y6409778D01*
X-34988735Y6409775D01*
X-35039426Y6310287D01*
X-35039426Y6310286D01*
X-35051604Y6233401D01*
X-35071199Y6201426D01*
X-35079463Y6199443D01*
X-35125186Y6199443D01*
X-35120538Y6200559D01*
X-35139642Y6212267D01*
X-35148397Y6233400D01*
X-35160574Y6310286D01*
X-35211267Y6409777D01*
X-35290223Y6488733D01*
X-35290226Y6488735D01*
X-35389714Y6539426D01*
X-35466601Y6551604D01*
X-35498575Y6571199D01*
X-35500559Y6579463D01*
X-35512267Y6560358D01*
X-35533400Y6551604D01*
X-35592274Y6542279D01*
X-35610287Y6539426D01*
X-35709775Y6488735D01*
X-35709778Y6488733D01*
X-35788733Y6409778D01*
X-35788735Y6409775D01*
X-35839426Y6310287D01*
X-35839426Y6310286D01*
X-35856894Y6200000D01*
X-74799500Y6200000D01*
X-74799500Y7000000D01*
X-35856894Y7000000D01*
X-35839426Y6889714D01*
X-35788733Y6790223D01*
X-35709777Y6711267D01*
X-35610286Y6660574D01*
X-35533401Y6648397D01*
X-35501426Y6628801D01*
X-35499443Y6620538D01*
X-35487734Y6639642D01*
X-35466602Y6648396D01*
X-35389714Y6660574D01*
X-35290223Y6711267D01*
X-35211267Y6790223D01*
X-35160574Y6889714D01*
X-35148397Y6966601D01*
X-35128801Y6998575D01*
X-35125186Y6999443D01*
X-35079463Y6999443D01*
X-35060358Y6987734D01*
X-35051605Y6966602D01*
X-35039426Y6889714D01*
X-34988733Y6790223D01*
X-34909777Y6711267D01*
X-34810286Y6660574D01*
X-34733401Y6648397D01*
X-34701426Y6628801D01*
X-34699443Y6620538D01*
X-34687734Y6639642D01*
X-34666602Y6648396D01*
X-34589714Y6660574D01*
X-34490223Y6711267D01*
X-34411267Y6790223D01*
X-34360574Y6889714D01*
X-34343106Y7000000D01*
X-34360574Y7110286D01*
X-34411267Y7209777D01*
X-34490223Y7288733D01*
X-34490226Y7288735D01*
X-34589714Y7339426D01*
X-34700000Y7356894D01*
X-34810287Y7339426D01*
X-34909775Y7288735D01*
X-34909778Y7288733D01*
X-34988733Y7209778D01*
X-34988735Y7209775D01*
X-35039426Y7110287D01*
X-35039426Y7110286D01*
X-35051604Y7033401D01*
X-35071199Y7001426D01*
X-35079463Y6999443D01*
X-35125186Y6999443D01*
X-35120538Y7000559D01*
X-35139642Y7012267D01*
X-35148397Y7033400D01*
X-35160574Y7110286D01*
X-35211267Y7209777D01*
X-35290223Y7288733D01*
X-35290226Y7288735D01*
X-35389714Y7339426D01*
X-35500000Y7356894D01*
X-35610287Y7339426D01*
X-35709775Y7288735D01*
X-35709778Y7288733D01*
X-35788733Y7209778D01*
X-35788735Y7209775D01*
X-35839426Y7110287D01*
X-35839426Y7110286D01*
X-35856894Y7000000D01*
X-74799500Y7000000D01*
X-74799500Y7900000D01*
X-62756894Y7900000D01*
X-62739426Y7789714D01*
X-62688733Y7690223D01*
X-62609777Y7611267D01*
X-62510286Y7560574D01*
X-62400000Y7543106D01*
X-62289714Y7560574D01*
X-62190223Y7611267D01*
X-62111267Y7690223D01*
X-62060574Y7789714D01*
X-62043106Y7900000D01*
X-62060574Y8010286D01*
X-62111267Y8109777D01*
X-62190223Y8188733D01*
X-62190226Y8188735D01*
X-62289714Y8239426D01*
X-62400000Y8256894D01*
X-62510287Y8239426D01*
X-62609775Y8188735D01*
X-62609778Y8188733D01*
X-62688733Y8109778D01*
X-62688735Y8109775D01*
X-62739426Y8010287D01*
X-62739426Y8010286D01*
X-62756894Y7900000D01*
X-74799500Y7900000D01*
X-74799500Y8500000D01*
X-63356894Y8500000D01*
X-63339426Y8389714D01*
X-63288733Y8290223D01*
X-63209777Y8211267D01*
X-63110286Y8160574D01*
X-63000000Y8143106D01*
X-62889714Y8160574D01*
X-62790223Y8211267D01*
X-62711267Y8290223D01*
X-62660574Y8389714D01*
X-62643106Y8500000D01*
X-62660574Y8610286D01*
X-62711267Y8709777D01*
X-62790223Y8788733D01*
X-62790226Y8788735D01*
X-62889714Y8839426D01*
X-63000000Y8856894D01*
X-63110287Y8839426D01*
X-63209775Y8788735D01*
X-63209778Y8788733D01*
X-63288733Y8709778D01*
X-63288735Y8709775D01*
X-63339426Y8610287D01*
X-63339426Y8610286D01*
X-63356894Y8500000D01*
X-74799500Y8500000D01*
X-74799500Y10966606D01*
X-73667500Y10966606D01*
X-73667500Y10773395D01*
X-73637276Y10582563D01*
X-73637275Y10582560D01*
X-73577570Y10398805D01*
X-73489851Y10226648D01*
X-73489849Y10226645D01*
X-73376284Y10070336D01*
X-73376280Y10070331D01*
X-73239669Y9933720D01*
X-73239665Y9933717D01*
X-73239663Y9933715D01*
X-73083350Y9820148D01*
X-72911197Y9732431D01*
X-72727440Y9672725D01*
X-72536606Y9642500D01*
X-72536605Y9642500D01*
X-72343395Y9642500D01*
X-72343394Y9642500D01*
X-72152560Y9672725D01*
X-71968803Y9732431D01*
X-71796650Y9820148D01*
X-71640337Y9933715D01*
X-71640334Y9933719D01*
X-71640331Y9933720D01*
X-71503720Y10070331D01*
X-71503719Y10070334D01*
X-71503715Y10070337D01*
X-71390148Y10226650D01*
X-71302431Y10398803D01*
X-71269550Y10500000D01*
X-67556894Y10500000D01*
X-67539426Y10389714D01*
X-67488733Y10290223D01*
X-67409777Y10211267D01*
X-67310286Y10160574D01*
X-67200000Y10143106D01*
X-67089714Y10160574D01*
X-66990223Y10211267D01*
X-66911267Y10290223D01*
X-66860574Y10389714D01*
X-66843106Y10500000D01*
X-66860574Y10610286D01*
X-66911267Y10709777D01*
X-66990223Y10788733D01*
X-66990226Y10788735D01*
X-67089714Y10839426D01*
X-67200000Y10856894D01*
X-67310287Y10839426D01*
X-67409775Y10788735D01*
X-67409778Y10788733D01*
X-67488733Y10709778D01*
X-67488735Y10709775D01*
X-67539426Y10610287D01*
X-67556894Y10500000D01*
X-71269550Y10500000D01*
X-71242725Y10582560D01*
X-71212500Y10773394D01*
X-71212500Y10966606D01*
X-71242725Y11157440D01*
X-71302431Y11341197D01*
X-71390148Y11513350D01*
X-71503715Y11669663D01*
X-71503717Y11669665D01*
X-71503720Y11669669D01*
X-71640331Y11806280D01*
X-71640336Y11806284D01*
X-71646241Y11810574D01*
X-71687509Y11840557D01*
X-71796645Y11919849D01*
X-71796648Y11919851D01*
X-71968805Y12007570D01*
X-72152560Y12067275D01*
X-72152563Y12067276D01*
X-72299158Y12090494D01*
X-72343394Y12097500D01*
X-72536606Y12097500D01*
X-72572518Y12091813D01*
X-72727438Y12067276D01*
X-72727441Y12067275D01*
X-72911196Y12007570D01*
X-73083353Y11919851D01*
X-73083356Y11919849D01*
X-73239665Y11806284D01*
X-73376284Y11669665D01*
X-73489849Y11513356D01*
X-73489851Y11513353D01*
X-73577570Y11341196D01*
X-73637275Y11157441D01*
X-73637276Y11157438D01*
X-73667500Y10966606D01*
X-74799500Y10966606D01*
X-74799500Y12200001D01*
X-70957593Y12200001D01*
X-70957593Y12200000D01*
X-70937272Y11993674D01*
X-70937272Y11993673D01*
X-70897107Y11861268D01*
X-70877089Y11795277D01*
X-70809950Y11669669D01*
X-70779355Y11612432D01*
X-70779353Y11612429D01*
X-70698044Y11513353D01*
X-70647831Y11452169D01*
X-70487567Y11320644D01*
X-70304723Y11222911D01*
X-70106326Y11162728D01*
X-69900000Y11142407D01*
X-69693674Y11162728D01*
X-69495277Y11222911D01*
X-69312433Y11320644D01*
X-69152169Y11452169D01*
X-69020644Y11612433D01*
X-68922911Y11795277D01*
X-68862728Y11993674D01*
X-68847331Y12150000D01*
X-67556894Y12150000D01*
X-67539426Y12039714D01*
X-67523048Y12007569D01*
X-67488733Y11940223D01*
X-67409777Y11861267D01*
X-67310286Y11810574D01*
X-67200000Y11793106D01*
X-67089714Y11810574D01*
X-66990223Y11861267D01*
X-66911267Y11940223D01*
X-66860574Y12039714D01*
X-66843106Y12150000D01*
X-66860574Y12260286D01*
X-66911267Y12359777D01*
X-66990223Y12438733D01*
X-66990226Y12438735D01*
X-67089714Y12489426D01*
X-67200000Y12506894D01*
X-67310287Y12489426D01*
X-67409775Y12438735D01*
X-67409778Y12438733D01*
X-67488733Y12359778D01*
X-67488735Y12359775D01*
X-67539426Y12260287D01*
X-67556894Y12150000D01*
X-68847331Y12150000D01*
X-68842407Y12200000D01*
X-68862728Y12406326D01*
X-68922911Y12604723D01*
X-69020644Y12787567D01*
X-69152169Y12947831D01*
X-69312433Y13079356D01*
X-69495277Y13177089D01*
X-69693674Y13237272D01*
X-69900000Y13257593D01*
X-70106327Y13237272D01*
X-70106328Y13237272D01*
X-70304721Y13177090D01*
X-70304728Y13177087D01*
X-70487569Y13079355D01*
X-70487572Y13079353D01*
X-70647830Y12947833D01*
X-70647833Y12947830D01*
X-70779353Y12787572D01*
X-70779355Y12787569D01*
X-70877087Y12604728D01*
X-70877090Y12604721D01*
X-70937272Y12406328D01*
X-70937272Y12406327D01*
X-70957593Y12200001D01*
X-74799500Y12200001D01*
X-74799500Y14740001D01*
X-70957593Y14740001D01*
X-70957593Y14740000D01*
X-70937272Y14533674D01*
X-70937272Y14533673D01*
X-70899930Y14410574D01*
X-70877089Y14335277D01*
X-70779356Y14152433D01*
X-70647831Y13992169D01*
X-70487567Y13860644D01*
X-70304723Y13762911D01*
X-70106326Y13702728D01*
X-69900000Y13682407D01*
X-69693674Y13702728D01*
X-69495277Y13762911D01*
X-69312433Y13860644D01*
X-69152169Y13992169D01*
X-69020644Y14152433D01*
X-68922911Y14335277D01*
X-68862728Y14533674D01*
X-68842407Y14740000D01*
X-68843392Y14750000D01*
X-67556894Y14750000D01*
X-67539426Y14639714D01*
X-67488733Y14540223D01*
X-67409777Y14461267D01*
X-67310286Y14410574D01*
X-67200000Y14393106D01*
X-67089714Y14410574D01*
X-66990223Y14461267D01*
X-66911267Y14540223D01*
X-66860574Y14639714D01*
X-66843106Y14750000D01*
X-66860574Y14860286D01*
X-66911267Y14959777D01*
X-66990223Y15038733D01*
X-66990226Y15038735D01*
X-67089714Y15089426D01*
X-67200000Y15106894D01*
X-67310287Y15089426D01*
X-67409775Y15038735D01*
X-67409778Y15038733D01*
X-67488733Y14959778D01*
X-67488735Y14959775D01*
X-67539426Y14860287D01*
X-67539426Y14860286D01*
X-67556894Y14750000D01*
X-68843392Y14750000D01*
X-68862728Y14946326D01*
X-68922911Y15144723D01*
X-69020644Y15327567D01*
X-69098495Y15422429D01*
X-69152168Y15487830D01*
X-69152171Y15487833D01*
X-69312429Y15619353D01*
X-69312432Y15619355D01*
X-69312433Y15619356D01*
X-69495277Y15717089D01*
X-69693674Y15777272D01*
X-69900000Y15797593D01*
X-70106327Y15777272D01*
X-70106328Y15777272D01*
X-70304721Y15717090D01*
X-70304728Y15717087D01*
X-70487569Y15619355D01*
X-70487572Y15619353D01*
X-70647830Y15487833D01*
X-70647833Y15487830D01*
X-70779353Y15327572D01*
X-70779355Y15327569D01*
X-70877087Y15144728D01*
X-70877090Y15144721D01*
X-70937272Y14946328D01*
X-70937272Y14946327D01*
X-70957593Y14740001D01*
X-74799500Y14740001D01*
X-74799500Y16010001D01*
X-73497593Y16010001D01*
X-73497593Y16010000D01*
X-73477272Y15803674D01*
X-73477272Y15803673D01*
X-73469263Y15777272D01*
X-73417089Y15605277D01*
X-73354312Y15487830D01*
X-73319355Y15422432D01*
X-73319353Y15422429D01*
X-73187833Y15262171D01*
X-73187830Y15262168D01*
X-73044722Y15144723D01*
X-73027567Y15130644D01*
X-72844723Y15032911D01*
X-72646326Y14972728D01*
X-72440000Y14952407D01*
X-72233674Y14972728D01*
X-72035277Y15032911D01*
X-71852433Y15130644D01*
X-71692169Y15262169D01*
X-71560644Y15422433D01*
X-71462911Y15605277D01*
X-71402728Y15803674D01*
X-71382407Y16010000D01*
X-71402728Y16216326D01*
X-71462911Y16414723D01*
X-71560644Y16597567D01*
X-71571083Y16610287D01*
X-71692168Y16757830D01*
X-71692171Y16757833D01*
X-71852429Y16889353D01*
X-71852432Y16889355D01*
X-71852433Y16889356D01*
X-72035277Y16987089D01*
X-72233674Y17047272D01*
X-72440000Y17067593D01*
X-72646327Y17047272D01*
X-72646328Y17047272D01*
X-72844721Y16987090D01*
X-72844728Y16987087D01*
X-73027569Y16889355D01*
X-73027572Y16889353D01*
X-73187830Y16757833D01*
X-73187833Y16757830D01*
X-73319353Y16597572D01*
X-73319355Y16597569D01*
X-73417087Y16414728D01*
X-73417090Y16414721D01*
X-73477272Y16216328D01*
X-73477272Y16216327D01*
X-73497593Y16010001D01*
X-74799500Y16010001D01*
X-74799500Y17452347D01*
X-71327500Y17452347D01*
X-71327500Y17227654D01*
X-71292351Y17005729D01*
X-71292350Y17005726D01*
X-71286295Y16987089D01*
X-71222916Y16792030D01*
X-71120907Y16591827D01*
X-70988836Y16410046D01*
X-70988835Y16410045D01*
X-70988831Y16410040D01*
X-70829960Y16251169D01*
X-70829956Y16251166D01*
X-70829954Y16251164D01*
X-70648173Y16119093D01*
X-70447970Y16017084D01*
X-70234274Y15947650D01*
X-70012347Y15912500D01*
X-70012346Y15912500D01*
X-69787654Y15912500D01*
X-69787653Y15912500D01*
X-69565726Y15947650D01*
X-69352030Y16017084D01*
X-69151827Y16119093D01*
X-68970046Y16251164D01*
X-68970043Y16251168D01*
X-68970040Y16251169D01*
X-68811169Y16410040D01*
X-68811168Y16410043D01*
X-68811164Y16410046D01*
X-68745809Y16500000D01*
X-67556894Y16500000D01*
X-67539426Y16389714D01*
X-67488733Y16290223D01*
X-67409777Y16211267D01*
X-67310286Y16160574D01*
X-67200000Y16143106D01*
X-67089714Y16160574D01*
X-66990223Y16211267D01*
X-66911267Y16290223D01*
X-66860574Y16389714D01*
X-66843106Y16500000D01*
X-66860574Y16610286D01*
X-66911267Y16709777D01*
X-66990223Y16788733D01*
X-66990226Y16788735D01*
X-67089714Y16839426D01*
X-67200000Y16856894D01*
X-67310287Y16839426D01*
X-67409775Y16788735D01*
X-67409778Y16788733D01*
X-67488733Y16709778D01*
X-67488735Y16709775D01*
X-67539426Y16610287D01*
X-67539426Y16610286D01*
X-67556894Y16500000D01*
X-68745809Y16500000D01*
X-68679093Y16591827D01*
X-68577084Y16792030D01*
X-68507650Y17005726D01*
X-68472500Y17227653D01*
X-68472500Y17452347D01*
X-68507650Y17674274D01*
X-68577084Y17887970D01*
X-68679093Y18088173D01*
X-68811164Y18269954D01*
X-68811166Y18269956D01*
X-68811169Y18269960D01*
X-68970040Y18428831D01*
X-68970045Y18428835D01*
X-68970046Y18428836D01*
X-69151827Y18560907D01*
X-69352030Y18662916D01*
X-69352031Y18662917D01*
X-69352032Y18662917D01*
X-69565726Y18732350D01*
X-69565729Y18732351D01*
X-69736208Y18759352D01*
X-69787653Y18767500D01*
X-70012347Y18767500D01*
X-70054111Y18760886D01*
X-70234272Y18732351D01*
X-70234275Y18732350D01*
X-70447969Y18662917D01*
X-70648173Y18560907D01*
X-70829956Y18428835D01*
X-70988835Y18269956D01*
X-71120907Y18088173D01*
X-71222917Y17887969D01*
X-71292350Y17674275D01*
X-71292351Y17674272D01*
X-71327500Y17452347D01*
X-74799500Y17452347D01*
X-74799500Y26395829D01*
X-68957500Y26395829D01*
X-68957500Y25124171D01*
X-68946810Y25050797D01*
X-68946810Y25050796D01*
X-68909082Y24973623D01*
X-68891476Y24937610D01*
X-68802390Y24848524D01*
X-68689204Y24793191D01*
X-68615827Y24782500D01*
X-67344174Y24782501D01*
X-67344171Y24782501D01*
X-67289141Y24790519D01*
X-67270796Y24793191D01*
X-67157610Y24848524D01*
X-67068524Y24937610D01*
X-67013191Y25050796D01*
X-67002500Y25124173D01*
X-67002501Y25760001D01*
X-66422230Y25760001D01*
X-66422230Y25760000D01*
X-66403357Y25568376D01*
X-66403357Y25568375D01*
X-66347463Y25384118D01*
X-66256692Y25214299D01*
X-66256690Y25214296D01*
X-66191996Y25135468D01*
X-66134541Y25065459D01*
X-66049238Y24995452D01*
X-65985705Y24943311D01*
X-65985702Y24943309D01*
X-65985698Y24943306D01*
X-65815883Y24852538D01*
X-65631624Y24796643D01*
X-65440000Y24777770D01*
X-65248376Y24796643D01*
X-65064117Y24852538D01*
X-64894302Y24943306D01*
X-64745459Y25065459D01*
X-64623306Y25214302D01*
X-64532538Y25384117D01*
X-64476643Y25568376D01*
X-64457770Y25760000D01*
X-64457770Y25760001D01*
X-63882231Y25760001D01*
X-63882231Y25760000D01*
X-63863358Y25568376D01*
X-63863358Y25568375D01*
X-63807464Y25384118D01*
X-63716693Y25214299D01*
X-63716691Y25214296D01*
X-63651997Y25135468D01*
X-63594542Y25065459D01*
X-63509239Y24995452D01*
X-63445706Y24943311D01*
X-63445703Y24943309D01*
X-63445699Y24943306D01*
X-63275884Y24852538D01*
X-63091625Y24796643D01*
X-62900001Y24777770D01*
X-62708377Y24796643D01*
X-62524118Y24852538D01*
X-62354303Y24943306D01*
X-62205460Y25065459D01*
X-62083307Y25214302D01*
X-61992539Y25384117D01*
X-61936644Y25568376D01*
X-61917771Y25760000D01*
X-61917771Y25760001D01*
X-61342230Y25760001D01*
X-61342230Y25760000D01*
X-61323357Y25568376D01*
X-61323357Y25568375D01*
X-61267463Y25384118D01*
X-61176692Y25214299D01*
X-61176690Y25214296D01*
X-61111996Y25135468D01*
X-61054541Y25065459D01*
X-60969238Y24995452D01*
X-60905705Y24943311D01*
X-60905702Y24943309D01*
X-60905698Y24943306D01*
X-60735883Y24852538D01*
X-60551624Y24796643D01*
X-60360000Y24777770D01*
X-60168376Y24796643D01*
X-59984117Y24852538D01*
X-59814302Y24943306D01*
X-59665459Y25065459D01*
X-59543306Y25214302D01*
X-59452538Y25384117D01*
X-59396643Y25568376D01*
X-59377770Y25760000D01*
X-59377770Y25760001D01*
X-58802230Y25760001D01*
X-58802230Y25760000D01*
X-58783357Y25568376D01*
X-58783357Y25568375D01*
X-58727463Y25384118D01*
X-58636692Y25214299D01*
X-58636690Y25214296D01*
X-58571996Y25135468D01*
X-58514541Y25065459D01*
X-58429238Y24995452D01*
X-58365705Y24943311D01*
X-58365702Y24943309D01*
X-58365698Y24943306D01*
X-58195883Y24852538D01*
X-58011624Y24796643D01*
X-57820000Y24777770D01*
X-57628376Y24796643D01*
X-57444117Y24852538D01*
X-57274302Y24943306D01*
X-57125459Y25065459D01*
X-57003306Y25214302D01*
X-56912538Y25384117D01*
X-56856643Y25568376D01*
X-56837770Y25760000D01*
X-56837770Y25760001D01*
X-56262230Y25760001D01*
X-56262230Y25760000D01*
X-56243357Y25568376D01*
X-56243357Y25568375D01*
X-56187463Y25384118D01*
X-56096692Y25214299D01*
X-56096690Y25214296D01*
X-56031996Y25135468D01*
X-55974541Y25065459D01*
X-55889238Y24995452D01*
X-55825705Y24943311D01*
X-55825702Y24943309D01*
X-55825698Y24943306D01*
X-55655883Y24852538D01*
X-55471624Y24796643D01*
X-55280000Y24777770D01*
X-55088376Y24796643D01*
X-54904117Y24852538D01*
X-54734302Y24943306D01*
X-54585459Y25065459D01*
X-54463306Y25214302D01*
X-54372538Y25384117D01*
X-54316643Y25568376D01*
X-54297770Y25760000D01*
X-54297770Y25760001D01*
X-53722230Y25760001D01*
X-53722230Y25760000D01*
X-53703357Y25568376D01*
X-53703357Y25568375D01*
X-53647463Y25384118D01*
X-53556692Y25214299D01*
X-53556690Y25214296D01*
X-53491996Y25135468D01*
X-53434541Y25065459D01*
X-53349238Y24995452D01*
X-53285705Y24943311D01*
X-53285702Y24943309D01*
X-53285698Y24943306D01*
X-53115883Y24852538D01*
X-52931624Y24796643D01*
X-52740000Y24777770D01*
X-52548376Y24796643D01*
X-52364117Y24852538D01*
X-52194302Y24943306D01*
X-52045459Y25065459D01*
X-51923306Y25214302D01*
X-51832538Y25384117D01*
X-51776643Y25568376D01*
X-51757770Y25760000D01*
X-51757770Y25760001D01*
X-51182229Y25760001D01*
X-51182229Y25760000D01*
X-51163356Y25568376D01*
X-51163356Y25568375D01*
X-51107462Y25384118D01*
X-51016691Y25214299D01*
X-51016689Y25214296D01*
X-50951995Y25135468D01*
X-50894540Y25065459D01*
X-50809237Y24995452D01*
X-50745704Y24943311D01*
X-50745701Y24943309D01*
X-50745697Y24943306D01*
X-50575882Y24852538D01*
X-50391623Y24796643D01*
X-50199999Y24777770D01*
X-50008375Y24796643D01*
X-49824116Y24852538D01*
X-49654301Y24943306D01*
X-49505458Y25065459D01*
X-49383305Y25214302D01*
X-49292537Y25384117D01*
X-49236642Y25568376D01*
X-49217769Y25760000D01*
X-49217769Y25760001D01*
X-48642230Y25760001D01*
X-48642230Y25760000D01*
X-48623357Y25568376D01*
X-48623357Y25568375D01*
X-48567463Y25384118D01*
X-48476692Y25214299D01*
X-48476690Y25214296D01*
X-48411996Y25135468D01*
X-48354541Y25065459D01*
X-48269238Y24995452D01*
X-48205705Y24943311D01*
X-48205702Y24943309D01*
X-48205698Y24943306D01*
X-48035883Y24852538D01*
X-47851624Y24796643D01*
X-47660000Y24777770D01*
X-47468376Y24796643D01*
X-47284117Y24852538D01*
X-47114302Y24943306D01*
X-46965459Y25065459D01*
X-46843306Y25214302D01*
X-46752538Y25384117D01*
X-46696643Y25568376D01*
X-46677770Y25760000D01*
X-46677770Y25760001D01*
X-43562230Y25760001D01*
X-43562230Y25760000D01*
X-43543357Y25568376D01*
X-43543357Y25568375D01*
X-43487463Y25384118D01*
X-43396692Y25214299D01*
X-43396690Y25214296D01*
X-43331996Y25135468D01*
X-43274541Y25065459D01*
X-43189238Y24995452D01*
X-43125705Y24943311D01*
X-43125702Y24943309D01*
X-43125698Y24943306D01*
X-42955883Y24852538D01*
X-42771624Y24796643D01*
X-42580000Y24777770D01*
X-42388376Y24796643D01*
X-42204117Y24852538D01*
X-42034302Y24943306D01*
X-41885459Y25065459D01*
X-41763306Y25214302D01*
X-41672538Y25384117D01*
X-41616643Y25568376D01*
X-41597770Y25760000D01*
X-41597770Y25760001D01*
X-38482230Y25760001D01*
X-38482230Y25760000D01*
X-38463357Y25568376D01*
X-38463357Y25568375D01*
X-38407463Y25384118D01*
X-38316692Y25214299D01*
X-38316690Y25214296D01*
X-38251996Y25135468D01*
X-38194541Y25065459D01*
X-38109238Y24995452D01*
X-38045705Y24943311D01*
X-38045702Y24943309D01*
X-38045698Y24943306D01*
X-37875883Y24852538D01*
X-37691624Y24796643D01*
X-37500000Y24777770D01*
X-37308376Y24796643D01*
X-37124117Y24852538D01*
X-36954302Y24943306D01*
X-36805459Y25065459D01*
X-36683306Y25214302D01*
X-36592538Y25384117D01*
X-36536643Y25568376D01*
X-36517770Y25760000D01*
X-36517770Y25760001D01*
X-30862231Y25760001D01*
X-30862231Y25760000D01*
X-30843358Y25568376D01*
X-30843358Y25568375D01*
X-30787464Y25384118D01*
X-30696693Y25214299D01*
X-30696691Y25214296D01*
X-30631997Y25135468D01*
X-30574542Y25065459D01*
X-30489239Y24995452D01*
X-30425706Y24943311D01*
X-30425703Y24943309D01*
X-30425699Y24943306D01*
X-30255884Y24852538D01*
X-30071625Y24796643D01*
X-29880001Y24777770D01*
X-29688377Y24796643D01*
X-29504118Y24852538D01*
X-29334303Y24943306D01*
X-29185460Y25065459D01*
X-29063307Y25214302D01*
X-28972539Y25384117D01*
X-28916644Y25568376D01*
X-28897771Y25760000D01*
X-28897771Y25760001D01*
X-25782230Y25760001D01*
X-25782230Y25760000D01*
X-25763357Y25568376D01*
X-25763357Y25568375D01*
X-25707463Y25384118D01*
X-25616692Y25214299D01*
X-25616690Y25214296D01*
X-25551996Y25135468D01*
X-25494541Y25065459D01*
X-25409238Y24995452D01*
X-25345705Y24943311D01*
X-25345702Y24943309D01*
X-25345698Y24943306D01*
X-25175883Y24852538D01*
X-24991624Y24796643D01*
X-24800000Y24777770D01*
X-24608376Y24796643D01*
X-24424117Y24852538D01*
X-24254302Y24943306D01*
X-24105459Y25065459D01*
X-23983306Y25214302D01*
X-23892538Y25384117D01*
X-23836643Y25568376D01*
X-23817770Y25760000D01*
X-23817770Y25760001D01*
X-23242230Y25760001D01*
X-23242230Y25760000D01*
X-23223357Y25568376D01*
X-23223357Y25568375D01*
X-23167463Y25384118D01*
X-23076692Y25214299D01*
X-23076690Y25214296D01*
X-23011996Y25135468D01*
X-22954541Y25065459D01*
X-22869238Y24995452D01*
X-22805705Y24943311D01*
X-22805702Y24943309D01*
X-22805698Y24943306D01*
X-22635883Y24852538D01*
X-22451624Y24796643D01*
X-22260000Y24777770D01*
X-22068376Y24796643D01*
X-21884117Y24852538D01*
X-21714302Y24943306D01*
X-21565459Y25065459D01*
X-21443306Y25214302D01*
X-21352538Y25384117D01*
X-21296643Y25568376D01*
X-21277770Y25760000D01*
X-21277770Y25760001D01*
X-20702230Y25760001D01*
X-20702230Y25760000D01*
X-20683357Y25568376D01*
X-20683357Y25568375D01*
X-20627463Y25384118D01*
X-20536692Y25214299D01*
X-20536690Y25214296D01*
X-20471996Y25135468D01*
X-20414541Y25065459D01*
X-20329238Y24995452D01*
X-20265705Y24943311D01*
X-20265702Y24943309D01*
X-20265698Y24943306D01*
X-20095883Y24852538D01*
X-19911624Y24796643D01*
X-19720000Y24777770D01*
X-19528376Y24796643D01*
X-19344117Y24852538D01*
X-19174302Y24943306D01*
X-19025459Y25065459D01*
X-18903306Y25214302D01*
X-18812538Y25384117D01*
X-18756643Y25568376D01*
X-18737770Y25760000D01*
X-18737770Y25760001D01*
X-18162231Y25760001D01*
X-18162231Y25760000D01*
X-18143358Y25568376D01*
X-18143358Y25568375D01*
X-18087464Y25384118D01*
X-17996693Y25214299D01*
X-17996691Y25214296D01*
X-17931997Y25135468D01*
X-17874542Y25065459D01*
X-17789239Y24995452D01*
X-17725706Y24943311D01*
X-17725703Y24943309D01*
X-17725699Y24943306D01*
X-17555884Y24852538D01*
X-17371625Y24796643D01*
X-17180001Y24777770D01*
X-16988377Y24796643D01*
X-16804118Y24852538D01*
X-16634303Y24943306D01*
X-16485460Y25065459D01*
X-16363307Y25214302D01*
X-16272539Y25384117D01*
X-16216644Y25568376D01*
X-16197771Y25760000D01*
X-16197771Y25760001D01*
X-15622230Y25760001D01*
X-15622230Y25760000D01*
X-15603357Y25568376D01*
X-15603357Y25568375D01*
X-15547463Y25384118D01*
X-15456692Y25214299D01*
X-15456690Y25214296D01*
X-15391996Y25135468D01*
X-15334541Y25065459D01*
X-15249238Y24995452D01*
X-15185705Y24943311D01*
X-15185702Y24943309D01*
X-15185698Y24943306D01*
X-15015883Y24852538D01*
X-14831624Y24796643D01*
X-14640000Y24777770D01*
X-14448376Y24796643D01*
X-14264117Y24852538D01*
X-14094302Y24943306D01*
X-13945459Y25065459D01*
X-13823306Y25214302D01*
X-13732538Y25384117D01*
X-13676643Y25568376D01*
X-13657770Y25760000D01*
X-13657770Y25760001D01*
X-13082230Y25760001D01*
X-13082230Y25760000D01*
X-13063357Y25568376D01*
X-13063357Y25568375D01*
X-13007463Y25384118D01*
X-12916692Y25214299D01*
X-12916690Y25214296D01*
X-12851996Y25135468D01*
X-12794541Y25065459D01*
X-12709238Y24995452D01*
X-12645705Y24943311D01*
X-12645702Y24943309D01*
X-12645698Y24943306D01*
X-12475883Y24852538D01*
X-12291624Y24796643D01*
X-12100000Y24777770D01*
X-11908376Y24796643D01*
X-11724117Y24852538D01*
X-11554302Y24943306D01*
X-11405459Y25065459D01*
X-11283306Y25214302D01*
X-11192538Y25384117D01*
X-11136643Y25568376D01*
X-11117770Y25760000D01*
X-11117770Y25760001D01*
X-10542230Y25760001D01*
X-10542230Y25760000D01*
X-10523357Y25568376D01*
X-10523357Y25568375D01*
X-10467463Y25384118D01*
X-10376692Y25214299D01*
X-10376690Y25214296D01*
X-10311996Y25135468D01*
X-10254541Y25065459D01*
X-10169238Y24995452D01*
X-10105705Y24943311D01*
X-10105702Y24943309D01*
X-10105698Y24943306D01*
X-9935883Y24852538D01*
X-9751624Y24796643D01*
X-9560000Y24777770D01*
X-9368376Y24796643D01*
X-9184117Y24852538D01*
X-9014302Y24943306D01*
X-8865459Y25065459D01*
X-8743306Y25214302D01*
X-8652538Y25384117D01*
X-8596643Y25568376D01*
X-8577770Y25760000D01*
X-8577770Y25760001D01*
X-8002231Y25760001D01*
X-8002231Y25760000D01*
X-7983358Y25568376D01*
X-7983358Y25568375D01*
X-7927464Y25384118D01*
X-7836693Y25214299D01*
X-7836691Y25214296D01*
X-7771997Y25135468D01*
X-7714542Y25065459D01*
X-7629239Y24995452D01*
X-7565706Y24943311D01*
X-7565703Y24943309D01*
X-7565699Y24943306D01*
X-7395884Y24852538D01*
X-7211625Y24796643D01*
X-7020001Y24777770D01*
X-6828377Y24796643D01*
X-6644118Y24852538D01*
X-6474303Y24943306D01*
X-6325460Y25065459D01*
X-6203307Y25214302D01*
X-6112539Y25384117D01*
X-6056644Y25568376D01*
X-6037771Y25760000D01*
X-6056644Y25951624D01*
X-6112539Y26135883D01*
X-6203307Y26305698D01*
X-6203310Y26305702D01*
X-6203312Y26305705D01*
X-6277274Y26395826D01*
X-6325460Y26454541D01*
X-6395469Y26511996D01*
X-6474297Y26576690D01*
X-6474300Y26576692D01*
X-6474302Y26576693D01*
X-6474303Y26576694D01*
X-6552411Y26618444D01*
X-6644119Y26667463D01*
X-6828377Y26723357D01*
X-7020001Y26742230D01*
X-7211626Y26723357D01*
X-7211627Y26723357D01*
X-7395884Y26667463D01*
X-7565703Y26576692D01*
X-7565706Y26576690D01*
X-7714542Y26454541D01*
X-7836691Y26305705D01*
X-7836693Y26305702D01*
X-7927464Y26135883D01*
X-7983358Y25951626D01*
X-7983358Y25951625D01*
X-8002231Y25760001D01*
X-8577770Y25760001D01*
X-8596643Y25951624D01*
X-8652538Y26135883D01*
X-8743306Y26305698D01*
X-8743309Y26305702D01*
X-8743311Y26305705D01*
X-8817273Y26395826D01*
X-8865459Y26454541D01*
X-8935468Y26511996D01*
X-9014296Y26576690D01*
X-9014299Y26576692D01*
X-9014301Y26576693D01*
X-9014302Y26576694D01*
X-9092410Y26618444D01*
X-9184118Y26667463D01*
X-9368376Y26723357D01*
X-9560000Y26742230D01*
X-9751625Y26723357D01*
X-9751626Y26723357D01*
X-9935883Y26667463D01*
X-10105702Y26576692D01*
X-10105705Y26576690D01*
X-10254541Y26454541D01*
X-10376690Y26305705D01*
X-10376692Y26305702D01*
X-10467463Y26135883D01*
X-10523357Y25951626D01*
X-10523357Y25951625D01*
X-10542230Y25760001D01*
X-11117770Y25760001D01*
X-11136643Y25951624D01*
X-11192538Y26135883D01*
X-11283306Y26305698D01*
X-11283309Y26305702D01*
X-11283311Y26305705D01*
X-11357273Y26395826D01*
X-11405459Y26454541D01*
X-11475468Y26511996D01*
X-11554296Y26576690D01*
X-11554299Y26576692D01*
X-11554301Y26576693D01*
X-11554302Y26576694D01*
X-11632410Y26618444D01*
X-11724118Y26667463D01*
X-11908376Y26723357D01*
X-12100000Y26742230D01*
X-12291625Y26723357D01*
X-12291626Y26723357D01*
X-12475883Y26667463D01*
X-12645702Y26576692D01*
X-12645705Y26576690D01*
X-12794541Y26454541D01*
X-12916690Y26305705D01*
X-12916692Y26305702D01*
X-13007463Y26135883D01*
X-13063357Y25951626D01*
X-13063357Y25951625D01*
X-13082230Y25760001D01*
X-13657770Y25760001D01*
X-13676643Y25951624D01*
X-13732538Y26135883D01*
X-13823306Y26305698D01*
X-13823309Y26305702D01*
X-13823311Y26305705D01*
X-13897273Y26395826D01*
X-13945459Y26454541D01*
X-14015468Y26511996D01*
X-14094296Y26576690D01*
X-14094299Y26576692D01*
X-14094301Y26576693D01*
X-14094302Y26576694D01*
X-14172410Y26618444D01*
X-14264118Y26667463D01*
X-14448376Y26723357D01*
X-14640000Y26742230D01*
X-14831625Y26723357D01*
X-14831626Y26723357D01*
X-15015883Y26667463D01*
X-15185702Y26576692D01*
X-15185705Y26576690D01*
X-15334541Y26454541D01*
X-15456690Y26305705D01*
X-15456692Y26305702D01*
X-15547463Y26135883D01*
X-15603357Y25951626D01*
X-15603357Y25951625D01*
X-15622230Y25760001D01*
X-16197771Y25760001D01*
X-16216644Y25951624D01*
X-16272539Y26135883D01*
X-16363307Y26305698D01*
X-16363310Y26305702D01*
X-16363312Y26305705D01*
X-16437274Y26395826D01*
X-16485460Y26454541D01*
X-16555469Y26511996D01*
X-16634297Y26576690D01*
X-16634300Y26576692D01*
X-16634302Y26576693D01*
X-16634303Y26576694D01*
X-16712411Y26618444D01*
X-16804119Y26667463D01*
X-16988377Y26723357D01*
X-17180001Y26742230D01*
X-17371626Y26723357D01*
X-17371627Y26723357D01*
X-17555884Y26667463D01*
X-17725703Y26576692D01*
X-17725706Y26576690D01*
X-17874542Y26454541D01*
X-17996691Y26305705D01*
X-17996693Y26305702D01*
X-18087464Y26135883D01*
X-18143358Y25951626D01*
X-18143358Y25951625D01*
X-18162231Y25760001D01*
X-18737770Y25760001D01*
X-18756643Y25951624D01*
X-18812538Y26135883D01*
X-18903306Y26305698D01*
X-18903309Y26305702D01*
X-18903311Y26305705D01*
X-18977273Y26395826D01*
X-19025459Y26454541D01*
X-19095468Y26511996D01*
X-19174296Y26576690D01*
X-19174299Y26576692D01*
X-19174301Y26576693D01*
X-19174302Y26576694D01*
X-19252410Y26618444D01*
X-19344118Y26667463D01*
X-19528376Y26723357D01*
X-19720000Y26742230D01*
X-19911625Y26723357D01*
X-19911626Y26723357D01*
X-20095883Y26667463D01*
X-20265702Y26576692D01*
X-20265705Y26576690D01*
X-20414541Y26454541D01*
X-20536690Y26305705D01*
X-20536692Y26305702D01*
X-20627463Y26135883D01*
X-20683357Y25951626D01*
X-20683357Y25951625D01*
X-20702230Y25760001D01*
X-21277770Y25760001D01*
X-21296643Y25951624D01*
X-21352538Y26135883D01*
X-21443306Y26305698D01*
X-21443309Y26305702D01*
X-21443311Y26305705D01*
X-21517273Y26395826D01*
X-21565459Y26454541D01*
X-21635468Y26511996D01*
X-21714296Y26576690D01*
X-21714299Y26576692D01*
X-21714301Y26576693D01*
X-21714302Y26576694D01*
X-21792410Y26618444D01*
X-21884118Y26667463D01*
X-22068376Y26723357D01*
X-22260000Y26742230D01*
X-22451625Y26723357D01*
X-22451626Y26723357D01*
X-22635883Y26667463D01*
X-22805702Y26576692D01*
X-22805705Y26576690D01*
X-22954541Y26454541D01*
X-23076690Y26305705D01*
X-23076692Y26305702D01*
X-23167463Y26135883D01*
X-23223357Y25951626D01*
X-23223357Y25951625D01*
X-23242230Y25760001D01*
X-23817770Y25760001D01*
X-23836643Y25951624D01*
X-23892538Y26135883D01*
X-23983306Y26305698D01*
X-23983309Y26305702D01*
X-23983311Y26305705D01*
X-24057273Y26395826D01*
X-24105459Y26454541D01*
X-24175468Y26511996D01*
X-24254296Y26576690D01*
X-24254299Y26576692D01*
X-24254301Y26576693D01*
X-24254302Y26576694D01*
X-24332410Y26618444D01*
X-24424118Y26667463D01*
X-24608376Y26723357D01*
X-24800000Y26742230D01*
X-24991625Y26723357D01*
X-24991626Y26723357D01*
X-25175883Y26667463D01*
X-25345702Y26576692D01*
X-25345705Y26576690D01*
X-25494541Y26454541D01*
X-25616690Y26305705D01*
X-25616692Y26305702D01*
X-25707463Y26135883D01*
X-25763357Y25951626D01*
X-25763357Y25951625D01*
X-25782230Y25760001D01*
X-28897771Y25760001D01*
X-28916644Y25951624D01*
X-28972539Y26135883D01*
X-29063307Y26305698D01*
X-29063310Y26305702D01*
X-29063312Y26305705D01*
X-29137274Y26395826D01*
X-29185460Y26454541D01*
X-29255469Y26511996D01*
X-29334297Y26576690D01*
X-29334300Y26576692D01*
X-29334302Y26576693D01*
X-29334303Y26576694D01*
X-29412411Y26618444D01*
X-29504119Y26667463D01*
X-29688377Y26723357D01*
X-29880001Y26742230D01*
X-30071626Y26723357D01*
X-30071627Y26723357D01*
X-30255884Y26667463D01*
X-30425703Y26576692D01*
X-30425706Y26576690D01*
X-30574542Y26454541D01*
X-30696691Y26305705D01*
X-30696693Y26305702D01*
X-30787464Y26135883D01*
X-30843358Y25951626D01*
X-30843358Y25951625D01*
X-30862231Y25760001D01*
X-36517770Y25760001D01*
X-36536643Y25951624D01*
X-36592538Y26135883D01*
X-36683306Y26305698D01*
X-36683309Y26305702D01*
X-36683311Y26305705D01*
X-36757273Y26395826D01*
X-36805459Y26454541D01*
X-36875468Y26511996D01*
X-36954296Y26576690D01*
X-36954299Y26576692D01*
X-36954301Y26576693D01*
X-36954302Y26576694D01*
X-37032410Y26618444D01*
X-37124118Y26667463D01*
X-37308376Y26723357D01*
X-37500000Y26742230D01*
X-37691625Y26723357D01*
X-37691626Y26723357D01*
X-37875883Y26667463D01*
X-38045702Y26576692D01*
X-38045705Y26576690D01*
X-38194541Y26454541D01*
X-38316690Y26305705D01*
X-38316692Y26305702D01*
X-38407463Y26135883D01*
X-38463357Y25951626D01*
X-38463357Y25951625D01*
X-38482230Y25760001D01*
X-41597770Y25760001D01*
X-41616643Y25951624D01*
X-41672538Y26135883D01*
X-41763306Y26305698D01*
X-41763309Y26305702D01*
X-41763311Y26305705D01*
X-41837273Y26395826D01*
X-41885459Y26454541D01*
X-41955468Y26511996D01*
X-42034296Y26576690D01*
X-42034299Y26576692D01*
X-42034301Y26576693D01*
X-42034302Y26576694D01*
X-42112410Y26618444D01*
X-42204118Y26667463D01*
X-42388376Y26723357D01*
X-42580000Y26742230D01*
X-42771625Y26723357D01*
X-42771626Y26723357D01*
X-42955883Y26667463D01*
X-43125702Y26576692D01*
X-43125705Y26576690D01*
X-43274541Y26454541D01*
X-43396690Y26305705D01*
X-43396692Y26305702D01*
X-43487463Y26135883D01*
X-43543357Y25951626D01*
X-43543357Y25951625D01*
X-43562230Y25760001D01*
X-46677770Y25760001D01*
X-46696643Y25951624D01*
X-46752538Y26135883D01*
X-46843306Y26305698D01*
X-46843309Y26305702D01*
X-46843311Y26305705D01*
X-46917273Y26395826D01*
X-46965459Y26454541D01*
X-47035468Y26511996D01*
X-47114296Y26576690D01*
X-47114299Y26576692D01*
X-47114301Y26576693D01*
X-47114302Y26576694D01*
X-47192410Y26618444D01*
X-47284118Y26667463D01*
X-47468376Y26723357D01*
X-47660000Y26742230D01*
X-47851625Y26723357D01*
X-47851626Y26723357D01*
X-48035883Y26667463D01*
X-48205702Y26576692D01*
X-48205705Y26576690D01*
X-48354541Y26454541D01*
X-48476690Y26305705D01*
X-48476692Y26305702D01*
X-48567463Y26135883D01*
X-48623357Y25951626D01*
X-48623357Y25951625D01*
X-48642230Y25760001D01*
X-49217769Y25760001D01*
X-49236642Y25951624D01*
X-49292537Y26135883D01*
X-49383305Y26305698D01*
X-49383308Y26305702D01*
X-49383310Y26305705D01*
X-49457272Y26395826D01*
X-49505458Y26454541D01*
X-49575467Y26511996D01*
X-49654295Y26576690D01*
X-49654298Y26576692D01*
X-49654300Y26576693D01*
X-49654301Y26576694D01*
X-49732409Y26618444D01*
X-49824117Y26667463D01*
X-50008375Y26723357D01*
X-50199999Y26742230D01*
X-50391624Y26723357D01*
X-50391625Y26723357D01*
X-50575882Y26667463D01*
X-50745701Y26576692D01*
X-50745704Y26576690D01*
X-50894540Y26454541D01*
X-51016689Y26305705D01*
X-51016691Y26305702D01*
X-51107462Y26135883D01*
X-51163356Y25951626D01*
X-51163356Y25951625D01*
X-51182229Y25760001D01*
X-51757770Y25760001D01*
X-51776643Y25951624D01*
X-51832538Y26135883D01*
X-51923306Y26305698D01*
X-51923309Y26305702D01*
X-51923311Y26305705D01*
X-51997273Y26395826D01*
X-52045459Y26454541D01*
X-52115468Y26511996D01*
X-52194296Y26576690D01*
X-52194299Y26576692D01*
X-52194301Y26576693D01*
X-52194302Y26576694D01*
X-52272410Y26618444D01*
X-52364118Y26667463D01*
X-52548376Y26723357D01*
X-52740000Y26742230D01*
X-52931625Y26723357D01*
X-52931626Y26723357D01*
X-53115883Y26667463D01*
X-53285702Y26576692D01*
X-53285705Y26576690D01*
X-53434541Y26454541D01*
X-53556690Y26305705D01*
X-53556692Y26305702D01*
X-53647463Y26135883D01*
X-53703357Y25951626D01*
X-53703357Y25951625D01*
X-53722230Y25760001D01*
X-54297770Y25760001D01*
X-54316643Y25951624D01*
X-54372538Y26135883D01*
X-54463306Y26305698D01*
X-54463309Y26305702D01*
X-54463311Y26305705D01*
X-54537273Y26395826D01*
X-54585459Y26454541D01*
X-54655468Y26511996D01*
X-54734296Y26576690D01*
X-54734299Y26576692D01*
X-54734301Y26576693D01*
X-54734302Y26576694D01*
X-54812410Y26618444D01*
X-54904118Y26667463D01*
X-55088376Y26723357D01*
X-55280000Y26742230D01*
X-55471625Y26723357D01*
X-55471626Y26723357D01*
X-55655883Y26667463D01*
X-55825702Y26576692D01*
X-55825705Y26576690D01*
X-55974541Y26454541D01*
X-56096690Y26305705D01*
X-56096692Y26305702D01*
X-56187463Y26135883D01*
X-56243357Y25951626D01*
X-56243357Y25951625D01*
X-56262230Y25760001D01*
X-56837770Y25760001D01*
X-56856643Y25951624D01*
X-56912538Y26135883D01*
X-57003306Y26305698D01*
X-57003309Y26305702D01*
X-57003311Y26305705D01*
X-57077273Y26395826D01*
X-57125459Y26454541D01*
X-57195468Y26511996D01*
X-57274296Y26576690D01*
X-57274299Y26576692D01*
X-57274301Y26576693D01*
X-57274302Y26576694D01*
X-57352410Y26618444D01*
X-57444118Y26667463D01*
X-57628376Y26723357D01*
X-57820000Y26742230D01*
X-58011625Y26723357D01*
X-58011626Y26723357D01*
X-58195883Y26667463D01*
X-58365702Y26576692D01*
X-58365705Y26576690D01*
X-58514541Y26454541D01*
X-58636690Y26305705D01*
X-58636692Y26305702D01*
X-58727463Y26135883D01*
X-58783357Y25951626D01*
X-58783357Y25951625D01*
X-58802230Y25760001D01*
X-59377770Y25760001D01*
X-59396643Y25951624D01*
X-59452538Y26135883D01*
X-59543306Y26305698D01*
X-59543309Y26305702D01*
X-59543311Y26305705D01*
X-59617273Y26395826D01*
X-59665459Y26454541D01*
X-59735468Y26511996D01*
X-59814296Y26576690D01*
X-59814299Y26576692D01*
X-59814301Y26576693D01*
X-59814302Y26576694D01*
X-59892410Y26618444D01*
X-59984118Y26667463D01*
X-60168376Y26723357D01*
X-60360000Y26742230D01*
X-60551625Y26723357D01*
X-60551626Y26723357D01*
X-60735883Y26667463D01*
X-60905702Y26576692D01*
X-60905705Y26576690D01*
X-61054541Y26454541D01*
X-61176690Y26305705D01*
X-61176692Y26305702D01*
X-61267463Y26135883D01*
X-61323357Y25951626D01*
X-61323357Y25951625D01*
X-61342230Y25760001D01*
X-61917771Y25760001D01*
X-61936644Y25951624D01*
X-61992539Y26135883D01*
X-62083307Y26305698D01*
X-62083310Y26305702D01*
X-62083312Y26305705D01*
X-62157274Y26395826D01*
X-62205460Y26454541D01*
X-62275469Y26511996D01*
X-62354297Y26576690D01*
X-62354300Y26576692D01*
X-62354302Y26576693D01*
X-62354303Y26576694D01*
X-62432411Y26618444D01*
X-62524119Y26667463D01*
X-62708377Y26723357D01*
X-62900001Y26742230D01*
X-63091626Y26723357D01*
X-63091627Y26723357D01*
X-63275884Y26667463D01*
X-63445703Y26576692D01*
X-63445706Y26576690D01*
X-63594542Y26454541D01*
X-63716691Y26305705D01*
X-63716693Y26305702D01*
X-63807464Y26135883D01*
X-63863358Y25951626D01*
X-63863358Y25951625D01*
X-63882231Y25760001D01*
X-64457770Y25760001D01*
X-64476643Y25951624D01*
X-64532538Y26135883D01*
X-64623306Y26305698D01*
X-64623309Y26305702D01*
X-64623311Y26305705D01*
X-64697273Y26395826D01*
X-64745459Y26454541D01*
X-64815468Y26511996D01*
X-64894296Y26576690D01*
X-64894299Y26576692D01*
X-64894301Y26576693D01*
X-64894302Y26576694D01*
X-64972410Y26618444D01*
X-65064118Y26667463D01*
X-65248376Y26723357D01*
X-65440000Y26742230D01*
X-65631625Y26723357D01*
X-65631626Y26723357D01*
X-65815883Y26667463D01*
X-65985702Y26576692D01*
X-65985705Y26576690D01*
X-66134541Y26454541D01*
X-66256690Y26305705D01*
X-66256692Y26305702D01*
X-66347463Y26135883D01*
X-66403357Y25951626D01*
X-66403357Y25951625D01*
X-66422230Y25760001D01*
X-67002501Y25760001D01*
X-67002501Y26395826D01*
X-67002501Y26395829D01*
X-67002501Y26395830D01*
X-67013191Y26469204D01*
X-67013191Y26469205D01*
X-67031636Y26506933D01*
X-67068524Y26582390D01*
X-67157610Y26671476D01*
X-67214203Y26699143D01*
X-67270793Y26726808D01*
X-67270795Y26726809D01*
X-67344172Y26737500D01*
X-68615830Y26737500D01*
X-68689204Y26726810D01*
X-68689205Y26726810D01*
X-68802388Y26671477D01*
X-68802392Y26671475D01*
X-68891475Y26582392D01*
X-68891477Y26582388D01*
X-68946808Y26469208D01*
X-68946809Y26469206D01*
X-68957500Y26395829D01*
X-74799500Y26395829D01*
X-74799500Y28300001D01*
X-68962230Y28300001D01*
X-68962230Y28300000D01*
X-68943357Y28108376D01*
X-68943357Y28108375D01*
X-68887463Y27924118D01*
X-68796692Y27754299D01*
X-68796690Y27754296D01*
X-68731996Y27675468D01*
X-68674541Y27605459D01*
X-68589238Y27535452D01*
X-68525705Y27483311D01*
X-68525702Y27483309D01*
X-68525698Y27483306D01*
X-68355883Y27392538D01*
X-68171624Y27336643D01*
X-67980000Y27317770D01*
X-67788376Y27336643D01*
X-67604117Y27392538D01*
X-67434302Y27483306D01*
X-67285459Y27605459D01*
X-67163306Y27754302D01*
X-67072538Y27924117D01*
X-67016643Y28108376D01*
X-66997770Y28300000D01*
X-66997770Y28300001D01*
X-66422230Y28300001D01*
X-66422230Y28300000D01*
X-66403357Y28108376D01*
X-66403357Y28108375D01*
X-66347463Y27924118D01*
X-66256692Y27754299D01*
X-66256690Y27754296D01*
X-66191996Y27675468D01*
X-66134541Y27605459D01*
X-66049238Y27535452D01*
X-65985705Y27483311D01*
X-65985702Y27483309D01*
X-65985698Y27483306D01*
X-65815883Y27392538D01*
X-65631624Y27336643D01*
X-65440000Y27317770D01*
X-65248376Y27336643D01*
X-65064117Y27392538D01*
X-64894302Y27483306D01*
X-64745459Y27605459D01*
X-64623306Y27754302D01*
X-64532538Y27924117D01*
X-64476643Y28108376D01*
X-64457770Y28300000D01*
X-64457770Y28300001D01*
X-63882230Y28300001D01*
X-63882230Y28300000D01*
X-63863357Y28108376D01*
X-63863357Y28108375D01*
X-63807463Y27924118D01*
X-63716692Y27754299D01*
X-63716690Y27754296D01*
X-63651996Y27675468D01*
X-63594541Y27605459D01*
X-63509238Y27535452D01*
X-63445705Y27483311D01*
X-63445702Y27483309D01*
X-63445698Y27483306D01*
X-63275883Y27392538D01*
X-63091624Y27336643D01*
X-62900000Y27317770D01*
X-62708376Y27336643D01*
X-62524117Y27392538D01*
X-62354302Y27483306D01*
X-62205459Y27605459D01*
X-62083306Y27754302D01*
X-61992538Y27924117D01*
X-61936643Y28108376D01*
X-61917770Y28300000D01*
X-61917770Y28300001D01*
X-61342230Y28300001D01*
X-61342230Y28300000D01*
X-61323357Y28108376D01*
X-61323357Y28108375D01*
X-61267463Y27924118D01*
X-61176692Y27754299D01*
X-61176690Y27754296D01*
X-61111996Y27675468D01*
X-61054541Y27605459D01*
X-60969238Y27535452D01*
X-60905705Y27483311D01*
X-60905702Y27483309D01*
X-60905698Y27483306D01*
X-60735883Y27392538D01*
X-60551624Y27336643D01*
X-60360000Y27317770D01*
X-60168376Y27336643D01*
X-59984117Y27392538D01*
X-59814302Y27483306D01*
X-59665459Y27605459D01*
X-59543306Y27754302D01*
X-59452538Y27924117D01*
X-59396643Y28108376D01*
X-59377770Y28300000D01*
X-59377770Y28300001D01*
X-58802230Y28300001D01*
X-58802230Y28300000D01*
X-58783357Y28108376D01*
X-58783357Y28108375D01*
X-58727463Y27924118D01*
X-58636692Y27754299D01*
X-58636690Y27754296D01*
X-58571996Y27675468D01*
X-58514541Y27605459D01*
X-58429238Y27535452D01*
X-58365705Y27483311D01*
X-58365702Y27483309D01*
X-58365698Y27483306D01*
X-58195883Y27392538D01*
X-58011624Y27336643D01*
X-57820000Y27317770D01*
X-57628376Y27336643D01*
X-57444117Y27392538D01*
X-57274302Y27483306D01*
X-57125459Y27605459D01*
X-57003306Y27754302D01*
X-56912538Y27924117D01*
X-56856643Y28108376D01*
X-56837770Y28300000D01*
X-56837770Y28300001D01*
X-56262230Y28300001D01*
X-56262230Y28300000D01*
X-56243357Y28108376D01*
X-56243357Y28108375D01*
X-56187463Y27924118D01*
X-56096692Y27754299D01*
X-56096690Y27754296D01*
X-56031996Y27675468D01*
X-55974541Y27605459D01*
X-55889238Y27535452D01*
X-55825705Y27483311D01*
X-55825702Y27483309D01*
X-55825698Y27483306D01*
X-55655883Y27392538D01*
X-55471624Y27336643D01*
X-55280000Y27317770D01*
X-55088376Y27336643D01*
X-54904117Y27392538D01*
X-54734302Y27483306D01*
X-54585459Y27605459D01*
X-54463306Y27754302D01*
X-54372538Y27924117D01*
X-54316643Y28108376D01*
X-54297770Y28300000D01*
X-54297770Y28300001D01*
X-53722230Y28300001D01*
X-53722230Y28300000D01*
X-53703357Y28108376D01*
X-53703357Y28108375D01*
X-53647463Y27924118D01*
X-53556692Y27754299D01*
X-53556690Y27754296D01*
X-53491996Y27675468D01*
X-53434541Y27605459D01*
X-53349238Y27535452D01*
X-53285705Y27483311D01*
X-53285702Y27483309D01*
X-53285698Y27483306D01*
X-53115883Y27392538D01*
X-52931624Y27336643D01*
X-52740000Y27317770D01*
X-52548376Y27336643D01*
X-52364117Y27392538D01*
X-52194302Y27483306D01*
X-52045459Y27605459D01*
X-51923306Y27754302D01*
X-51832538Y27924117D01*
X-51776643Y28108376D01*
X-51757770Y28300000D01*
X-51757770Y28300001D01*
X-51182230Y28300001D01*
X-51182230Y28300000D01*
X-51163357Y28108376D01*
X-51163357Y28108375D01*
X-51107463Y27924118D01*
X-51016692Y27754299D01*
X-51016690Y27754296D01*
X-50951996Y27675468D01*
X-50894541Y27605459D01*
X-50809238Y27535452D01*
X-50745705Y27483311D01*
X-50745702Y27483309D01*
X-50745698Y27483306D01*
X-50575883Y27392538D01*
X-50391624Y27336643D01*
X-50200000Y27317770D01*
X-50008376Y27336643D01*
X-49824117Y27392538D01*
X-49654302Y27483306D01*
X-49505459Y27605459D01*
X-49383306Y27754302D01*
X-49292538Y27924117D01*
X-49236643Y28108376D01*
X-49217770Y28300000D01*
X-49217770Y28300001D01*
X-48642230Y28300001D01*
X-48642230Y28300000D01*
X-48623357Y28108376D01*
X-48623357Y28108375D01*
X-48567463Y27924118D01*
X-48476692Y27754299D01*
X-48476690Y27754296D01*
X-48411996Y27675468D01*
X-48354541Y27605459D01*
X-48269238Y27535452D01*
X-48205705Y27483311D01*
X-48205702Y27483309D01*
X-48205698Y27483306D01*
X-48035883Y27392538D01*
X-47851624Y27336643D01*
X-47660000Y27317770D01*
X-47468376Y27336643D01*
X-47284117Y27392538D01*
X-47114302Y27483306D01*
X-46965459Y27605459D01*
X-46843306Y27754302D01*
X-46752538Y27924117D01*
X-46696643Y28108376D01*
X-46677770Y28300000D01*
X-46677770Y28300001D01*
X-38482230Y28300001D01*
X-38482230Y28300000D01*
X-38463357Y28108376D01*
X-38463357Y28108375D01*
X-38407463Y27924118D01*
X-38316692Y27754299D01*
X-38316690Y27754296D01*
X-38251996Y27675468D01*
X-38194541Y27605459D01*
X-38109238Y27535452D01*
X-38045705Y27483311D01*
X-38045702Y27483309D01*
X-38045698Y27483306D01*
X-37875883Y27392538D01*
X-37691624Y27336643D01*
X-37500000Y27317770D01*
X-37308376Y27336643D01*
X-37124117Y27392538D01*
X-36954302Y27483306D01*
X-36805459Y27605459D01*
X-36683306Y27754302D01*
X-36592538Y27924117D01*
X-36536643Y28108376D01*
X-36517770Y28300000D01*
X-36517770Y28300001D01*
X-30862230Y28300001D01*
X-30862230Y28300000D01*
X-30843357Y28108376D01*
X-30843357Y28108375D01*
X-30787463Y27924118D01*
X-30696692Y27754299D01*
X-30696690Y27754296D01*
X-30631996Y27675468D01*
X-30574541Y27605459D01*
X-30489238Y27535452D01*
X-30425705Y27483311D01*
X-30425702Y27483309D01*
X-30425698Y27483306D01*
X-30255883Y27392538D01*
X-30071624Y27336643D01*
X-29880000Y27317770D01*
X-29688376Y27336643D01*
X-29504117Y27392538D01*
X-29334302Y27483306D01*
X-29185459Y27605459D01*
X-29063306Y27754302D01*
X-28972538Y27924117D01*
X-28916643Y28108376D01*
X-28897770Y28300000D01*
X-28897770Y28300001D01*
X-25782230Y28300001D01*
X-25782230Y28300000D01*
X-25763357Y28108376D01*
X-25763357Y28108375D01*
X-25707463Y27924118D01*
X-25616692Y27754299D01*
X-25616690Y27754296D01*
X-25551996Y27675468D01*
X-25494541Y27605459D01*
X-25409238Y27535452D01*
X-25345705Y27483311D01*
X-25345702Y27483309D01*
X-25345698Y27483306D01*
X-25175883Y27392538D01*
X-24991624Y27336643D01*
X-24800000Y27317770D01*
X-24608376Y27336643D01*
X-24424117Y27392538D01*
X-24254302Y27483306D01*
X-24105459Y27605459D01*
X-23983306Y27754302D01*
X-23892538Y27924117D01*
X-23836643Y28108376D01*
X-23817770Y28300000D01*
X-23817770Y28300001D01*
X-23242230Y28300001D01*
X-23242230Y28300000D01*
X-23223357Y28108376D01*
X-23223357Y28108375D01*
X-23167463Y27924118D01*
X-23076692Y27754299D01*
X-23076690Y27754296D01*
X-23011996Y27675468D01*
X-22954541Y27605459D01*
X-22869238Y27535452D01*
X-22805705Y27483311D01*
X-22805702Y27483309D01*
X-22805698Y27483306D01*
X-22635883Y27392538D01*
X-22451624Y27336643D01*
X-22260000Y27317770D01*
X-22068376Y27336643D01*
X-21884117Y27392538D01*
X-21714302Y27483306D01*
X-21565459Y27605459D01*
X-21443306Y27754302D01*
X-21352538Y27924117D01*
X-21296643Y28108376D01*
X-21277770Y28300000D01*
X-21277770Y28300001D01*
X-20702230Y28300001D01*
X-20702230Y28300000D01*
X-20683357Y28108376D01*
X-20683357Y28108375D01*
X-20627463Y27924118D01*
X-20536692Y27754299D01*
X-20536690Y27754296D01*
X-20471996Y27675468D01*
X-20414541Y27605459D01*
X-20329238Y27535452D01*
X-20265705Y27483311D01*
X-20265702Y27483309D01*
X-20265698Y27483306D01*
X-20095883Y27392538D01*
X-19911624Y27336643D01*
X-19720000Y27317770D01*
X-19528376Y27336643D01*
X-19344117Y27392538D01*
X-19174302Y27483306D01*
X-19025459Y27605459D01*
X-18903306Y27754302D01*
X-18812538Y27924117D01*
X-18756643Y28108376D01*
X-18737770Y28300000D01*
X-18737770Y28300001D01*
X-18162230Y28300001D01*
X-18162230Y28300000D01*
X-18143357Y28108376D01*
X-18143357Y28108375D01*
X-18087463Y27924118D01*
X-17996692Y27754299D01*
X-17996690Y27754296D01*
X-17931996Y27675468D01*
X-17874541Y27605459D01*
X-17789238Y27535452D01*
X-17725705Y27483311D01*
X-17725702Y27483309D01*
X-17725698Y27483306D01*
X-17555883Y27392538D01*
X-17371624Y27336643D01*
X-17180000Y27317770D01*
X-16988376Y27336643D01*
X-16804117Y27392538D01*
X-16634302Y27483306D01*
X-16485459Y27605459D01*
X-16363306Y27754302D01*
X-16272538Y27924117D01*
X-16216643Y28108376D01*
X-16197770Y28300000D01*
X-16197770Y28300001D01*
X-15622230Y28300001D01*
X-15622230Y28300000D01*
X-15603357Y28108376D01*
X-15603357Y28108375D01*
X-15547463Y27924118D01*
X-15456692Y27754299D01*
X-15456690Y27754296D01*
X-15391996Y27675468D01*
X-15334541Y27605459D01*
X-15249238Y27535452D01*
X-15185705Y27483311D01*
X-15185702Y27483309D01*
X-15185698Y27483306D01*
X-15015883Y27392538D01*
X-14831624Y27336643D01*
X-14640000Y27317770D01*
X-14448376Y27336643D01*
X-14264117Y27392538D01*
X-14094302Y27483306D01*
X-13945459Y27605459D01*
X-13823306Y27754302D01*
X-13732538Y27924117D01*
X-13676643Y28108376D01*
X-13657770Y28300000D01*
X-13657770Y28300001D01*
X-13082230Y28300001D01*
X-13082230Y28300000D01*
X-13063357Y28108376D01*
X-13063357Y28108375D01*
X-13007463Y27924118D01*
X-12916692Y27754299D01*
X-12916690Y27754296D01*
X-12851996Y27675468D01*
X-12794541Y27605459D01*
X-12709238Y27535452D01*
X-12645705Y27483311D01*
X-12645702Y27483309D01*
X-12645698Y27483306D01*
X-12475883Y27392538D01*
X-12291624Y27336643D01*
X-12100000Y27317770D01*
X-11908376Y27336643D01*
X-11724117Y27392538D01*
X-11554302Y27483306D01*
X-11405459Y27605459D01*
X-11283306Y27754302D01*
X-11192538Y27924117D01*
X-11136643Y28108376D01*
X-11117770Y28300000D01*
X-11117770Y28300001D01*
X-10542230Y28300001D01*
X-10542230Y28300000D01*
X-10523357Y28108376D01*
X-10523357Y28108375D01*
X-10467463Y27924118D01*
X-10376692Y27754299D01*
X-10376690Y27754296D01*
X-10311996Y27675468D01*
X-10254541Y27605459D01*
X-10169238Y27535452D01*
X-10105705Y27483311D01*
X-10105702Y27483309D01*
X-10105698Y27483306D01*
X-9935883Y27392538D01*
X-9751624Y27336643D01*
X-9560000Y27317770D01*
X-9368376Y27336643D01*
X-9184117Y27392538D01*
X-9014302Y27483306D01*
X-8865459Y27605459D01*
X-8743306Y27754302D01*
X-8652538Y27924117D01*
X-8596643Y28108376D01*
X-8577770Y28300000D01*
X-8577770Y28300001D01*
X-8002230Y28300001D01*
X-8002230Y28300000D01*
X-7983357Y28108376D01*
X-7983357Y28108375D01*
X-7927463Y27924118D01*
X-7836692Y27754299D01*
X-7836690Y27754296D01*
X-7771996Y27675468D01*
X-7714541Y27605459D01*
X-7629238Y27535452D01*
X-7565705Y27483311D01*
X-7565702Y27483309D01*
X-7565698Y27483306D01*
X-7395883Y27392538D01*
X-7211624Y27336643D01*
X-7020000Y27317770D01*
X-6828376Y27336643D01*
X-6644117Y27392538D01*
X-6474302Y27483306D01*
X-6325459Y27605459D01*
X-6203306Y27754302D01*
X-6112538Y27924117D01*
X-6056643Y28108376D01*
X-6037770Y28300000D01*
X-6056643Y28491624D01*
X-6112538Y28675883D01*
X-6203306Y28845698D01*
X-6203309Y28845702D01*
X-6203311Y28845705D01*
X-6255452Y28909238D01*
X-6325459Y28994541D01*
X-6395468Y29051996D01*
X-6474296Y29116690D01*
X-6474299Y29116692D01*
X-6474301Y29116693D01*
X-6474302Y29116694D01*
X-6552410Y29158444D01*
X-6644118Y29207463D01*
X-6828376Y29263357D01*
X-7020000Y29282230D01*
X-7211625Y29263357D01*
X-7211626Y29263357D01*
X-7395883Y29207463D01*
X-7565702Y29116692D01*
X-7565705Y29116690D01*
X-7714541Y28994541D01*
X-7836690Y28845705D01*
X-7836692Y28845702D01*
X-7927463Y28675883D01*
X-7983357Y28491626D01*
X-7983357Y28491625D01*
X-8002230Y28300001D01*
X-8577770Y28300001D01*
X-8596643Y28491624D01*
X-8652538Y28675883D01*
X-8743306Y28845698D01*
X-8743309Y28845702D01*
X-8743311Y28845705D01*
X-8795452Y28909238D01*
X-8865459Y28994541D01*
X-8935468Y29051996D01*
X-9014296Y29116690D01*
X-9014299Y29116692D01*
X-9014301Y29116693D01*
X-9014302Y29116694D01*
X-9092410Y29158444D01*
X-9184118Y29207463D01*
X-9368376Y29263357D01*
X-9560000Y29282230D01*
X-9751625Y29263357D01*
X-9751626Y29263357D01*
X-9935883Y29207463D01*
X-10105702Y29116692D01*
X-10105705Y29116690D01*
X-10254541Y28994541D01*
X-10376690Y28845705D01*
X-10376692Y28845702D01*
X-10467463Y28675883D01*
X-10523357Y28491626D01*
X-10523357Y28491625D01*
X-10542230Y28300001D01*
X-11117770Y28300001D01*
X-11136643Y28491624D01*
X-11192538Y28675883D01*
X-11283306Y28845698D01*
X-11283309Y28845702D01*
X-11283311Y28845705D01*
X-11335452Y28909238D01*
X-11405459Y28994541D01*
X-11475468Y29051996D01*
X-11554296Y29116690D01*
X-11554299Y29116692D01*
X-11554301Y29116693D01*
X-11554302Y29116694D01*
X-11632410Y29158444D01*
X-11724118Y29207463D01*
X-11908376Y29263357D01*
X-12100000Y29282230D01*
X-12291625Y29263357D01*
X-12291626Y29263357D01*
X-12475883Y29207463D01*
X-12645702Y29116692D01*
X-12645705Y29116690D01*
X-12794541Y28994541D01*
X-12916690Y28845705D01*
X-12916692Y28845702D01*
X-13007463Y28675883D01*
X-13063357Y28491626D01*
X-13063357Y28491625D01*
X-13082230Y28300001D01*
X-13657770Y28300001D01*
X-13676643Y28491624D01*
X-13732538Y28675883D01*
X-13823306Y28845698D01*
X-13823309Y28845702D01*
X-13823311Y28845705D01*
X-13875452Y28909238D01*
X-13945459Y28994541D01*
X-14015468Y29051996D01*
X-14094296Y29116690D01*
X-14094299Y29116692D01*
X-14094301Y29116693D01*
X-14094302Y29116694D01*
X-14172410Y29158444D01*
X-14264118Y29207463D01*
X-14448376Y29263357D01*
X-14640000Y29282230D01*
X-14831625Y29263357D01*
X-14831626Y29263357D01*
X-15015883Y29207463D01*
X-15185702Y29116692D01*
X-15185705Y29116690D01*
X-15334541Y28994541D01*
X-15456690Y28845705D01*
X-15456692Y28845702D01*
X-15547463Y28675883D01*
X-15603357Y28491626D01*
X-15603357Y28491625D01*
X-15622230Y28300001D01*
X-16197770Y28300001D01*
X-16216643Y28491624D01*
X-16272538Y28675883D01*
X-16363306Y28845698D01*
X-16363309Y28845702D01*
X-16363311Y28845705D01*
X-16415452Y28909238D01*
X-16485459Y28994541D01*
X-16555468Y29051996D01*
X-16634296Y29116690D01*
X-16634299Y29116692D01*
X-16634301Y29116693D01*
X-16634302Y29116694D01*
X-16712410Y29158444D01*
X-16804118Y29207463D01*
X-16988376Y29263357D01*
X-17180000Y29282230D01*
X-17371625Y29263357D01*
X-17371626Y29263357D01*
X-17555883Y29207463D01*
X-17725702Y29116692D01*
X-17725705Y29116690D01*
X-17874541Y28994541D01*
X-17996690Y28845705D01*
X-17996692Y28845702D01*
X-18087463Y28675883D01*
X-18143357Y28491626D01*
X-18143357Y28491625D01*
X-18162230Y28300001D01*
X-18737770Y28300001D01*
X-18756643Y28491624D01*
X-18812538Y28675883D01*
X-18903306Y28845698D01*
X-18903309Y28845702D01*
X-18903311Y28845705D01*
X-18955452Y28909238D01*
X-19025459Y28994541D01*
X-19095468Y29051996D01*
X-19174296Y29116690D01*
X-19174299Y29116692D01*
X-19174301Y29116693D01*
X-19174302Y29116694D01*
X-19252410Y29158444D01*
X-19344118Y29207463D01*
X-19528376Y29263357D01*
X-19720000Y29282230D01*
X-19911625Y29263357D01*
X-19911626Y29263357D01*
X-20095883Y29207463D01*
X-20265702Y29116692D01*
X-20265705Y29116690D01*
X-20414541Y28994541D01*
X-20536690Y28845705D01*
X-20536692Y28845702D01*
X-20627463Y28675883D01*
X-20683357Y28491626D01*
X-20683357Y28491625D01*
X-20702230Y28300001D01*
X-21277770Y28300001D01*
X-21296643Y28491624D01*
X-21352538Y28675883D01*
X-21443306Y28845698D01*
X-21443309Y28845702D01*
X-21443311Y28845705D01*
X-21495452Y28909238D01*
X-21565459Y28994541D01*
X-21635468Y29051996D01*
X-21714296Y29116690D01*
X-21714299Y29116692D01*
X-21714301Y29116693D01*
X-21714302Y29116694D01*
X-21792410Y29158444D01*
X-21884118Y29207463D01*
X-22068376Y29263357D01*
X-22260000Y29282230D01*
X-22451625Y29263357D01*
X-22451626Y29263357D01*
X-22635883Y29207463D01*
X-22805702Y29116692D01*
X-22805705Y29116690D01*
X-22954541Y28994541D01*
X-23076690Y28845705D01*
X-23076692Y28845702D01*
X-23167463Y28675883D01*
X-23223357Y28491626D01*
X-23223357Y28491625D01*
X-23242230Y28300001D01*
X-23817770Y28300001D01*
X-23836643Y28491624D01*
X-23892538Y28675883D01*
X-23983306Y28845698D01*
X-23983309Y28845702D01*
X-23983311Y28845705D01*
X-24035452Y28909238D01*
X-24105459Y28994541D01*
X-24175468Y29051996D01*
X-24254296Y29116690D01*
X-24254299Y29116692D01*
X-24254301Y29116693D01*
X-24254302Y29116694D01*
X-24332410Y29158444D01*
X-24424118Y29207463D01*
X-24608376Y29263357D01*
X-24800000Y29282230D01*
X-24991625Y29263357D01*
X-24991626Y29263357D01*
X-25175883Y29207463D01*
X-25345702Y29116692D01*
X-25345705Y29116690D01*
X-25494541Y28994541D01*
X-25616690Y28845705D01*
X-25616692Y28845702D01*
X-25707463Y28675883D01*
X-25763357Y28491626D01*
X-25763357Y28491625D01*
X-25782230Y28300001D01*
X-28897770Y28300001D01*
X-28916643Y28491624D01*
X-28972538Y28675883D01*
X-29063306Y28845698D01*
X-29063309Y28845702D01*
X-29063311Y28845705D01*
X-29115452Y28909238D01*
X-29185459Y28994541D01*
X-29255468Y29051996D01*
X-29334296Y29116690D01*
X-29334299Y29116692D01*
X-29334301Y29116693D01*
X-29334302Y29116694D01*
X-29412410Y29158444D01*
X-29504118Y29207463D01*
X-29688376Y29263357D01*
X-29880000Y29282230D01*
X-30071625Y29263357D01*
X-30071626Y29263357D01*
X-30255883Y29207463D01*
X-30425702Y29116692D01*
X-30425705Y29116690D01*
X-30574541Y28994541D01*
X-30696690Y28845705D01*
X-30696692Y28845702D01*
X-30787463Y28675883D01*
X-30843357Y28491626D01*
X-30843357Y28491625D01*
X-30862230Y28300001D01*
X-36517770Y28300001D01*
X-36536643Y28491624D01*
X-36592538Y28675883D01*
X-36683306Y28845698D01*
X-36683309Y28845702D01*
X-36683311Y28845705D01*
X-36735452Y28909238D01*
X-36805459Y28994541D01*
X-36875468Y29051996D01*
X-36954296Y29116690D01*
X-36954299Y29116692D01*
X-36954301Y29116693D01*
X-36954302Y29116694D01*
X-37032410Y29158444D01*
X-37124118Y29207463D01*
X-37308376Y29263357D01*
X-37500000Y29282230D01*
X-37691625Y29263357D01*
X-37691626Y29263357D01*
X-37875883Y29207463D01*
X-38045702Y29116692D01*
X-38045705Y29116690D01*
X-38194541Y28994541D01*
X-38316690Y28845705D01*
X-38316692Y28845702D01*
X-38407463Y28675883D01*
X-38463357Y28491626D01*
X-38463357Y28491625D01*
X-38482230Y28300001D01*
X-46677770Y28300001D01*
X-46696643Y28491624D01*
X-46752538Y28675883D01*
X-46843306Y28845698D01*
X-46843309Y28845702D01*
X-46843311Y28845705D01*
X-46895452Y28909238D01*
X-46965459Y28994541D01*
X-47035468Y29051996D01*
X-47114296Y29116690D01*
X-47114299Y29116692D01*
X-47114301Y29116693D01*
X-47114302Y29116694D01*
X-47192410Y29158444D01*
X-47284118Y29207463D01*
X-47468376Y29263357D01*
X-47660000Y29282230D01*
X-47851625Y29263357D01*
X-47851626Y29263357D01*
X-48035883Y29207463D01*
X-48205702Y29116692D01*
X-48205705Y29116690D01*
X-48354541Y28994541D01*
X-48476690Y28845705D01*
X-48476692Y28845702D01*
X-48567463Y28675883D01*
X-48623357Y28491626D01*
X-48623357Y28491625D01*
X-48642230Y28300001D01*
X-49217770Y28300001D01*
X-49236643Y28491624D01*
X-49292538Y28675883D01*
X-49383306Y28845698D01*
X-49383309Y28845702D01*
X-49383311Y28845705D01*
X-49435452Y28909238D01*
X-49505459Y28994541D01*
X-49575468Y29051996D01*
X-49654296Y29116690D01*
X-49654299Y29116692D01*
X-49654301Y29116693D01*
X-49654302Y29116694D01*
X-49732410Y29158444D01*
X-49824118Y29207463D01*
X-50008376Y29263357D01*
X-50200000Y29282230D01*
X-50391625Y29263357D01*
X-50391626Y29263357D01*
X-50575883Y29207463D01*
X-50745702Y29116692D01*
X-50745705Y29116690D01*
X-50894541Y28994541D01*
X-51016690Y28845705D01*
X-51016692Y28845702D01*
X-51107463Y28675883D01*
X-51163357Y28491626D01*
X-51163357Y28491625D01*
X-51182230Y28300001D01*
X-51757770Y28300001D01*
X-51776643Y28491624D01*
X-51832538Y28675883D01*
X-51923306Y28845698D01*
X-51923309Y28845702D01*
X-51923311Y28845705D01*
X-51975452Y28909238D01*
X-52045459Y28994541D01*
X-52115468Y29051996D01*
X-52194296Y29116690D01*
X-52194299Y29116692D01*
X-52194301Y29116693D01*
X-52194302Y29116694D01*
X-52272410Y29158444D01*
X-52364118Y29207463D01*
X-52548376Y29263357D01*
X-52740000Y29282230D01*
X-52931625Y29263357D01*
X-52931626Y29263357D01*
X-53115883Y29207463D01*
X-53285702Y29116692D01*
X-53285705Y29116690D01*
X-53434541Y28994541D01*
X-53556690Y28845705D01*
X-53556692Y28845702D01*
X-53647463Y28675883D01*
X-53703357Y28491626D01*
X-53703357Y28491625D01*
X-53722230Y28300001D01*
X-54297770Y28300001D01*
X-54316643Y28491624D01*
X-54372538Y28675883D01*
X-54463306Y28845698D01*
X-54463309Y28845702D01*
X-54463311Y28845705D01*
X-54515452Y28909238D01*
X-54585459Y28994541D01*
X-54655468Y29051996D01*
X-54734296Y29116690D01*
X-54734299Y29116692D01*
X-54734301Y29116693D01*
X-54734302Y29116694D01*
X-54812410Y29158444D01*
X-54904118Y29207463D01*
X-55088376Y29263357D01*
X-55280000Y29282230D01*
X-55471625Y29263357D01*
X-55471626Y29263357D01*
X-55655883Y29207463D01*
X-55825702Y29116692D01*
X-55825705Y29116690D01*
X-55974541Y28994541D01*
X-56096690Y28845705D01*
X-56096692Y28845702D01*
X-56187463Y28675883D01*
X-56243357Y28491626D01*
X-56243357Y28491625D01*
X-56262230Y28300001D01*
X-56837770Y28300001D01*
X-56856643Y28491624D01*
X-56912538Y28675883D01*
X-57003306Y28845698D01*
X-57003309Y28845702D01*
X-57003311Y28845705D01*
X-57055452Y28909238D01*
X-57125459Y28994541D01*
X-57195468Y29051996D01*
X-57274296Y29116690D01*
X-57274299Y29116692D01*
X-57274301Y29116693D01*
X-57274302Y29116694D01*
X-57352410Y29158444D01*
X-57444118Y29207463D01*
X-57628376Y29263357D01*
X-57820000Y29282230D01*
X-58011625Y29263357D01*
X-58011626Y29263357D01*
X-58195883Y29207463D01*
X-58365702Y29116692D01*
X-58365705Y29116690D01*
X-58514541Y28994541D01*
X-58636690Y28845705D01*
X-58636692Y28845702D01*
X-58727463Y28675883D01*
X-58783357Y28491626D01*
X-58783357Y28491625D01*
X-58802230Y28300001D01*
X-59377770Y28300001D01*
X-59396643Y28491624D01*
X-59452538Y28675883D01*
X-59543306Y28845698D01*
X-59543309Y28845702D01*
X-59543311Y28845705D01*
X-59595452Y28909238D01*
X-59665459Y28994541D01*
X-59735468Y29051996D01*
X-59814296Y29116690D01*
X-59814299Y29116692D01*
X-59814301Y29116693D01*
X-59814302Y29116694D01*
X-59892410Y29158444D01*
X-59984118Y29207463D01*
X-60168376Y29263357D01*
X-60360000Y29282230D01*
X-60551625Y29263357D01*
X-60551626Y29263357D01*
X-60735883Y29207463D01*
X-60905702Y29116692D01*
X-60905705Y29116690D01*
X-61054541Y28994541D01*
X-61176690Y28845705D01*
X-61176692Y28845702D01*
X-61267463Y28675883D01*
X-61323357Y28491626D01*
X-61323357Y28491625D01*
X-61342230Y28300001D01*
X-61917770Y28300001D01*
X-61936643Y28491624D01*
X-61992538Y28675883D01*
X-62083306Y28845698D01*
X-62083309Y28845702D01*
X-62083311Y28845705D01*
X-62135452Y28909238D01*
X-62205459Y28994541D01*
X-62275468Y29051996D01*
X-62354296Y29116690D01*
X-62354299Y29116692D01*
X-62354301Y29116693D01*
X-62354302Y29116694D01*
X-62432410Y29158444D01*
X-62524118Y29207463D01*
X-62708376Y29263357D01*
X-62900000Y29282230D01*
X-63091625Y29263357D01*
X-63091626Y29263357D01*
X-63275883Y29207463D01*
X-63445702Y29116692D01*
X-63445705Y29116690D01*
X-63594541Y28994541D01*
X-63716690Y28845705D01*
X-63716692Y28845702D01*
X-63807463Y28675883D01*
X-63863357Y28491626D01*
X-63863357Y28491625D01*
X-63882230Y28300001D01*
X-64457770Y28300001D01*
X-64476643Y28491624D01*
X-64532538Y28675883D01*
X-64623306Y28845698D01*
X-64623309Y28845702D01*
X-64623311Y28845705D01*
X-64675452Y28909238D01*
X-64745459Y28994541D01*
X-64815468Y29051996D01*
X-64894296Y29116690D01*
X-64894299Y29116692D01*
X-64894301Y29116693D01*
X-64894302Y29116694D01*
X-64972410Y29158444D01*
X-65064118Y29207463D01*
X-65248376Y29263357D01*
X-65440000Y29282230D01*
X-65631625Y29263357D01*
X-65631626Y29263357D01*
X-65815883Y29207463D01*
X-65985702Y29116692D01*
X-65985705Y29116690D01*
X-66134541Y28994541D01*
X-66256690Y28845705D01*
X-66256692Y28845702D01*
X-66347463Y28675883D01*
X-66403357Y28491626D01*
X-66403357Y28491625D01*
X-66422230Y28300001D01*
X-66997770Y28300001D01*
X-67016643Y28491624D01*
X-67072538Y28675883D01*
X-67163306Y28845698D01*
X-67163309Y28845702D01*
X-67163311Y28845705D01*
X-67215452Y28909238D01*
X-67285459Y28994541D01*
X-67355468Y29051996D01*
X-67434296Y29116690D01*
X-67434299Y29116692D01*
X-67434301Y29116693D01*
X-67434302Y29116694D01*
X-67512410Y29158444D01*
X-67604118Y29207463D01*
X-67788376Y29263357D01*
X-67980000Y29282230D01*
X-68171625Y29263357D01*
X-68171626Y29263357D01*
X-68355883Y29207463D01*
X-68525702Y29116692D01*
X-68525705Y29116690D01*
X-68674541Y28994541D01*
X-68796690Y28845705D01*
X-68796692Y28845702D01*
X-68887463Y28675883D01*
X-68943357Y28491626D01*
X-68943357Y28491625D01*
X-68962230Y28300001D01*
X-74799500Y28300001D01*
X-74799500Y29998797D01*
X-74799441Y30001201D01*
X-74797541Y30039882D01*
X-74781322Y30370023D01*
X-74780854Y30374780D01*
X-74726845Y30738882D01*
X-74725914Y30743564D01*
X-74636480Y31100605D01*
X-74635084Y31105204D01*
X-74552393Y31336309D01*
X-74511083Y31451764D01*
X-74509254Y31456177D01*
X-74351885Y31788907D01*
X-74349637Y31793114D01*
X-74160402Y32108834D01*
X-74157732Y32112827D01*
X-73938478Y32408456D01*
X-73935452Y32412144D01*
X-73688269Y32684869D01*
X-73684868Y32688269D01*
X-73412144Y32935452D01*
X-73408456Y32938478D01*
X-73112823Y33157735D01*
X-73108829Y33160404D01*
X-72793114Y33349637D01*
X-72788907Y33351885D01*
X-72456177Y33509254D01*
X-72451764Y33511083D01*
X-72105202Y33635085D01*
X-72100602Y33636480D01*
X-71743564Y33725914D01*
X-71738882Y33726845D01*
X-71374780Y33780854D01*
X-71370023Y33781322D01*
X-71001201Y33799442D01*
X-70998797Y33799500D01*
X-70960118Y33799500D01*
X-4039882Y33799500D01*
X-4001203Y33799500D01*
X-3998800Y33799442D01*
G37*
G04 #@! TD.AperFunction*
G04 #@! TD*
M02*
